<?xml version="1.0" encoding="UTF-8"?>
<svg id="_圖層_2" data-name="圖層_2" xmlns="http://www.w3.org/2000/svg" width="78.01" height="86" viewBox="0 0 78.01 86">
  <g id="_圖層_1-2" data-name="圖層_1">
    <g>
      <g>
        <g>
          <path d="M38.23,82.97c-.07.5-.26,1.05-.26,1.05,0,0-5.07.23-5.89.15-.82-.07-1.71.08-2.23-.59s-3.88-.38-3.88-.38v.82l-4.47-.07s-.37-.74-.35-1.7c.01-.33.06-.7.19-1.06.52-1.41,1.34-2.3,1.34-2.3,0,0,6.34-1.34,6.86-.6.52.75,3.5,3.21,5.29,3.14,1.79-.08,3.14.52,3.36.89.08.13.07.39.04.66h0Z" style="fill: #343333;"/>
          <path d="M22.31,27.33s1.8.94,2.66,6.01,1.09,7.73,1.4,9.14c.31,1.4,1.09,2.03,1.09,2.03,0,0,6.4,2.26,7.66,2.11,1.25-.16,5.78,1.64,5.78,1.64l-.94,3.44s-.08-1.09-5.31-1.09-10.46.47-11.95-2.11-6.87-8.59-5.7-13.04,5-8.36,5-8.36l.31.23h0Z" style="fill: #25efe9;"/>
          <path d="M40.63,48.57s1.29-.06,1.84.4c.54.47,2.19,2.58,2.19,2.58l1.2,2.32-.34,3.46-1.95,1.25s-.47-.44.29-1.38c.26-.32.88-.63.88-.63,0,0-.35-1.88-.5-2.12-.16-.23-1.14-1.5-1.14-1.5,0,0,.91,2.19.75,2.58s-.21.86-.6.86-.86-2.42-1.56-2.66-1.49-1.72-1.72-2.19.66-2.98.66-2.98h0Z" style="fill: #f5c09d;"/>
          <path d="M16.38,20.22s-6.09,1.4-10.46,8.28S-1.02,52.04.39,55.63c1.4,3.59,17.56-3.08,17.56-3.08,0,0-1.56-6.71.94-9.84,2.5-3.12,5.15-8.28,5.62-11.09s-3.12-12.34-8.12-11.41h0Z" style="fill: #19dbd1;"/>
          <path d="M23.33,25.15s1.72-1.25,2.35-1.72,1.4-1.87,1.4-1.87l5.31-1.09-.31-1.87.16-.54-.78-.16.86-.47-.23-.86s1.43-.3,1.56-.7c.05-.15-.31-.54-.31-.54,0,0-1.4-1.33-1.64-1.8s.16-1.72.16-1.72l-.31-1.87s-1.02-3.28-4.22-3.91-6.56,0-6.56,0c0,0-3.91,2.42-3.98,5.78s2.35,5.62,2.35,5.62c0,0,1.4.78.63,1.25-.78.47-1.95,1.72-1.95,1.72l5.23,4.84.31-.08h-.01Z" style="fill: #f5c09d;"/>
          <path d="M9.73,52.72s7.9-2.68,13.41-3.05c5.52-.37,10.73,0,12.07,1.42s2.31,3.5,1.79,4.77-4.7,9.39-5.52,12.07-.89,11.4-.89,11.4l-9.32.22s1.27-9.91,2.39-13.41,5.66-9.54,5.66-9.54c0,0-16.99,6.33-19.9,4.4s.3-8.27.3-8.27h0Z" style="fill: #1f3e52;"/>
          <path d="M16.52,83.71s-3.21.6-6.11.67c-2.91.08-3.28-1.11-3.14-2.23.15-1.11-1.27-3.21-1.27-3.21l-1.41.3-3.12-4.33s.39-.6,1.28-1.27c.29-.22.63-.44,1.02-.66,1.64-.89,3.05-1.12,3.05-1.12l5.52,4.85s-.52-.22-.82,1.94c-.3,2.16,1.94,3.14,1.94,3.14,0,0,.87-.48,2.67.12.45.15.57.85.7.99.4.45-.31.82-.31.82h0Z" style="fill: #363737;"/>
          <path d="M40.66,39.01c-.16.21-.49.59-1.11,1.26-1.67,1.77-11.98,8.54-13.64,8.54s-10.94-6.14-15.1-13.33,1.77-10.52,1.77-10.52c5.62-1.77,13.33,17.07,13.33,17.07,0,0,8.43-4.06,10.73-4.68,2.29-.63,2.75-1.21,2.75-1.21l.23.44,1.12,2.16s.19-.1-.08.26Z" style="fill: #abfffd;"/>
          <path d="M18.41,17.73s2.66,1.4,4.53,4.22,1.72,4.53,1.72,4.53l-2.97.78s-1.09-3.75-3.75-5.31c-2.66-1.56-1.56-1.72-1.56-1.72,0,0,2.03-2.5,2.03-2.5Z" style="fill: #abfffd;"/>
          <path d="M1.98,55.93c-.67.6-.15,9.09,8.57,9.76,8.72.67,17.29-1.87,17.29-1.87,0,0-12.67,2.31-16.69,4.47s-4.25,1.87-4.84,2.53-.44,2.53.67,4.32,5.14,5.52,5.14,5.52c0,0,7.53-8.35,12.22-9.17,4.7-.82,8.19-1.42,8.19-1.42,0,0,4.17-5.66,3.35-8.05-.82-2.39-12.45-9.76-19.97-9.84-7.53-.08-13.94,3.73-13.94,3.73h.01Z" style="fill: #225072;"/>
        </g>
        <path d="M19.8,18.26s1.69,0,2.21.37,2.28-1.4,2.28-1.4c0,0-2.13-.81-1.91-1.77.22-.96.81-2.06,1.84-1.69s1.77.66,1.77.66c0,0,1.03-2.35.74-3.6-.29-1.25.37-1.47,1.84-1.77,1.47-.29,2.44-.04,2.57-.96.29-2.06-.51-4.56-4.85-4.12s-6.25,1.18-8.39,2.06c-2.13.88-2.43,5.81-1.69,7.58s3.6,4.63,3.6,4.63h0Z" style="fill: #232323;"/>
        <path d="M47.26,35.98s.12.55,0,.73c-.12.18-.3.55-.3.55,0,0-.06.49-.3.79-.24.3-.61.55-.61.55l-2.68.8-2.89-.3c.22-.29.06-.21.06-.21l-.92-1.79c.29-.57.82-1.54,1.07-1.71.36-.25,1.89-1.46,1.89-1.46,0,0,.42.06,1.21,0,.8-.06,1.16-.49,1.16-.49,0,0,.67.67-.36,1.09-1.04.42-2.13.97-2.13.97l1.46.12,2.19-.49s.97-.85,1.33-1.21,1.04-.91,1.35-.61l.3.3-1.82,2.37h0Z" style="fill: #f5c09d;"/>
        <g>
          <path d="M68.12,14.46s1.43-2.27,4.73-.84c3.3,1.43,5.7,4.86,5.05,11.73-.65,6.87.26,14.13-3.89,14.39s-9.59-3.37-9.72-3.63c-.13-.26,3.83-21.65,3.83-21.65h0Z" style="fill: #7c0d0e;"/>
          <g>
            <polygon points="54.77 44.02 54.51 47.49 52.98 48.96 51.62 49.43 52.47 45.59 54.77 44.02" style="fill: #f5c09d;"/>
            <path d="M54.4,44.17l-2.12-.89s-1.56,1.12-1.84,1.71c-.29.58-.6,1.4-.71,1.68-.12.28-.95,1.37-.52,1.43s1.14-.67,1.56-1.36c.39-.65.95-.42.95-.42l-.88,1.39-.71.84-.32.58s-.5.94-.65,1.3c-.15.36.91.23.91.23l.98-.45,1.16-.98,1.53-1.75.68-3.31h0Z" style="fill: #f5c09d;"/>
          </g>
          <path d="M60.29,37.54c-.94,1.07-2.15,2.59-3.19,3.96-1.38,1.84-2.51,3.42-2.51,3.42l-2.35-1.56,2.73-6.87s3.37-11.28,3.5-14.13c.05-1.09.43-2.08.87-2.91h0c.71-1.34,1.61-2.18,1.61-2.18.2-.15.39-.12.54.07,1.54,1.81.8,17.93-1.19,20.17h0Z" style="fill: #7ebf45;"/>
          <g>
            <path d="M70.19,10.44s-1.25,2.04-.75,3.63,1.92,2.34,1.92,2.34c0,0-3.92,2.4-6.09,2.33-2.17-.07-2.42-2.58-2.42-2.58,0,0,1.67-.84,1.92-1.84.25-1,.68-2.92.68-2.92,0,0,4.75-.96,4.75-.96Z" style="fill: #f1b895;"/>
            <path d="M69.77,14.82s3.32,2.01,3.83,3.6c.5,1.59-2.42,20.54-5.18,21.46s-9.52.42-9.94-.25,1.17-14.78,1.59-17.87c.34-2.49,1.41-3.92,2.62-5.37.29-.35.59-.7.89-1.06.41-.5.26,1.33,1.2,1.22,2.26-.28,5-1.73,5-1.73h0Z" style="fill: #f4fafb;"/>
            <g>
              <rect x="57.53" y="78.35" width="2.84" height="4.43" style="fill: #29d3ca;"/>
              <g>
                <path d="M65.95,47.87s-.03.09-.08.25c-.52,1.7-2.26,11.74-2.64,13.72-.4,2.17-.01,6.34,0,9.52,0,3.18-1.7,9.63-1.7,9.63l-5.16-1.12s-.09-13.65.08-15.96c.17-2.31-.37-16.41.42-18.92.8-2.51.97-7.5.97-7.5l4.45,2.04,3.66,8.34h0Z" style="fill: #225072;"/>
                <g>
                  <path d="M67.19,85.08c-.98-.04-2.91-.25-4.08-.37v-.05c-.06-.49.85-1.28,1.4-1.71.55-.43,2.07-2.99,2.07-2.99l3.47.43s0,1.16.37,1.83c.25.45.38.89.44,1.14-.32.1-.78.3-1.36.68-1.28.85-.85,1.1-2.32,1.04h0Z" style="fill: #225072;"/>
                  <path d="M63.11,84.7c1.18.13,3.11.33,4.08.37,1.46.06,1.04-.18,2.32-1.04.58-.39,1.04-.58,1.36-.68.03.12.05.2.05.2l-.43,1.46s-1.53.49-2.13.85-5.25-.18-5.25-.18c0,0,.06-.51,0-.98h0Z" style="fill: #140c26;"/>
                </g>
                <path d="M70.77,40.28c.58,1.94.86,3.95.83,5.98-.06,3.92-.09,5.18.35,7.31.65,3.1,1.17,10.28.66,16.11s-1.12,12.43-1.12,12.43l-6.48.05s1.56-12.53.13-18.49c-1.43-5.97-2.99-15.96-3.74-17.6-.74-1.64.77-7,.77-7l7.42-2.69,1.18,3.91h0Z" style="fill: #3b698c;"/>
                <g>
                  <path d="M57.35,83.57c-.85.43-1.49,1.25-3.32,1.01-.87-.12-1.56-.28-2.04-.42.02-.2.04-.42.05-.64.06-.8,2.01-1.1,2.62-1.53s1.71-2.44,1.71-2.44l1.65.12s.73,1.16,1.64,1.53.61-1.22.61-1.22c0,0,.37,1.83.67,2.57.05.13.08.26.09.4-.43.15-1.04.3-1.68.33-1.28.06-1.16-.12-2.01.3h0Z" style="fill: #225072;"/>
                  <path d="M54.02,84.57c1.83.25,2.47-.58,3.32-1.01s.73-.25,2.01-.3c.64-.03,1.25-.19,1.68-.33.06.6-.22,1.12-.22,1.12,0,0-1.89.3-2.81.3s-1.28.91-2.87.98c-1.59.06-3.23-.37-3.23-.37,0,0,.03-.34.07-.82.48.14,1.16.3,2.04.42h0Z" style="fill: #140c26;"/>
                </g>
              </g>
            </g>
            <path d="M71.7,43.24s-4.05,3.37-8.17,2.2c-4.12-1.16-6.68-.71-6.68-.71,0,0,.09-1.29.25-3.23.24-2.82.59-7.02.94-10.67.01-.02.01-.04.01-.07.31-3.21.62-5.97.85-6.99.66-3.01,2.04-6.47,2.04-6.47l.75-.51,1.56-1.04.08,4.51s6.29-5.05,7.39-4.74c1.1.3,4.05,1.9,4.46,3.4.42,1.5-3.49,24.32-3.49,24.32Z" style="fill: #8abc52;"/>
            <g>
              <polygon points="72.98 46.16 72.72 49.63 71.19 51.09 69.84 51.57 70.68 47.73 72.98 46.16" style="fill: #f5c09d;"/>
              <path d="M72.61,46.31l-2.12-.89s-.94,1.15-1.23,1.73-.42,1.57-.53,1.86c-.12.28-.82,1.44-.38,1.5.43.06,1.23-.56,1.2-1.37-.04-.81.37-.68.37-.68v1.46s-.47,1.34-.47,1.34l-.43.44s-.64.23-.79.58c-.15.35.04.51.04.51l.98-.45,1.16-.98,1.53-1.75.68-3.31h0Z" style="fill: #f5c09d;"/>
            </g>
            <path d="M76.6,33.99l-3.09,12.83-3.42-1.09s1.13-4.63,1.65-9.04c.09-.78.16-1.54.2-2.28.11-1.73.05-3.28-.27-4.3-1.26-3.92-1.17-6.1-1.09-7.43,0,0,1.59-7.69,4.6-3.77,3.01,3.93,1.42,15.07,1.42,15.07h0Z" style="fill: #a2ce67;"/>
            <g>
              <path d="M62.96,1.34c-1.47.75-3.01,2.6-2.48,6.11.33,2.15-.98,2.66.1,4.16,1.09,1.51.5,2.92,1.84,3.18s5.6-1.09,7.26-2.09c1.67-1,2.9-3.45,3.06-4.29.17-.84.12-4.39-2.05-6.39-2.17-2.01-6.01-1.56-7.73-.68Z" style="fill: #f5c09d;"/>
              <path d="M70.98,1.09s-3.05-1.67-6.05-.88-4.1,2.15-4.49,3.26c-.39,1.12,0,2.08,0,2.08,0,0,.32-1.25,1.66-1.67,1.33-.42,3.26-1.29,3.26-1.29,0,0-.82,2.13.64,3.05s1.73,1.32,1.68,2.08.52,2.85.52,2.85c0,0,1.37-2.33,1.59-2.33s1.21-.04.96,1.26c-.25,1.29-1.21,2.33-1.21,2.33l.84.96s3.01-2.99,3.22-4.92.16-4.09-2.59-6.77h0Z" style="fill: #060e25;"/>
            </g>
          </g>
          <path d="M71.94,34.41c-.04.74-.12,1.5-.2,2.28-.71-.23-3.06-1.15-3.94-3.57-1.04-2.85-.52-12.83,1.04-15.17,1.56-2.32,3.38-2.32,3.38-2.32l1.81,1.16s-1.04,0-3.36,1.3c-2.35,1.3-1.17,14.14-.52,15.17.35.56,1.15.94,1.81,1.15h0Z" style="fill: #bc0f0f;"/>
          <path d="M61.69,16.78c-.06.16-.13.36-.2.58-.67,1.85-1.82,5.09-2.11,6.05-.28.98-.97,5.1-1.33,7.34,0,.03,0,.05-.01.07-.09.63-.16,1.1-.2,1.3.07-1.02.67-9.22,1.22-10.92.13-.43.23-1.05.28-1.73h0c.71-1.34,1.61-2.18,1.61-2.18l.75-.51h0Z" style="fill: #bc0f0f;"/>
        </g>
      </g>
      <path d="M16.52,83.71s-3.21.6-6.11.67c-2.91.08-3.28-1.11-3.14-2.23.15-1.11-1.27-3.21-1.27-3.21l-1.41.3-3.12-4.33s.39-.6,1.28-1.27c1.05,1.18,3.66,4.14,4.18,5.01.66,1.11,1.25,2.57,1.25,3.31s1.18,1.91,3.75,1.47c1.82-.31,3.85-.47,4.89-.55.4.45-.31.82-.31.82h0Z" style="fill: #232323;"/>
      <path d="M38.23,82.97c-.07.5-.26,1.05-.26,1.05,0,0-5.07.23-5.89.15-.82-.07-1.71.08-2.23-.59s-3.88-.38-3.88-.38v.82l-4.47-.07s-.37-.74-.35-1.7c1.99-.09,8.18-.29,8.8.32.73.74,1.84.66,2.65.66.62,0,4.06-.17,5.62-.26h0Z" style="fill: #232323;"/>
    </g>
  </g>
</svg>