<?xml version="1.0" encoding="UTF-8"?>
<svg id="_圖層_2" data-name="圖層_2" xmlns="http://www.w3.org/2000/svg" width="99.28" height="86.8" viewBox="0 0 99.28 86.8">
  <g id="_圖層_1-2" data-name="圖層_1">
    <g>
      <path d="M41.89,86.64c0,.05-.11.11-.11.16,0-.05.05-.11.11-.16Z" style="fill: #a01010;"/>
      <path d="M41.89,86.64c0,.05-.11.11-.11.16,0-.05.05-.11.11-.16Z" style="fill: #a01010;"/>
      <g>
        <path d="M10.38,69.22c-.11,1.15-.22,2.35-.33,3.5,0,0-1.37.71-1.53,1.09-.16.33-1.8,1.8-3.06,1.97h-.33c-1.31-.05-2.13-.98-1.97-1.42.16-.44.87-.76.87-.76.76-.6,1.86-1.75,2.62-3.44.33-.76.55-1.42.66-2.02.16.05.33.11.44.16.87.33,1.69.6,2.57.93h.05Z" style="fill: #011e21;"/>
        <path d="M7.81,68.29c-.11.93-.49,3.71-1.53,4.53-.98.82-1.42,2.08-.82,2.95h-.33c-1.31-.05-2.13-.98-1.97-1.42.16-.44.87-.76.87-.76.76-.6,1.86-1.75,2.62-3.44.33-.76.55-1.42.66-2.02.16.05.33.11.44.16h.05Z" style="fill: #052c32;"/>
        <path d="M15.73,70.58v1.31c-.11.98-.27,2.4-1.04,3.11h0c-.11.11-.22.22-.38.27-.76.38-1.64.11-2.29-.16,0,0-.11,0-.16-.05-.55-.22-1.53-.6-1.53-1.2s.6-.98,1.47-1.2c.27-.33.6-.82.82-1.47.49-1.42.27-2.73.11-3.28l-.22-.33s.33-.44.76-.93c.55-.6,1.26-1.2,1.58-.93.6.49.98.66.98.66,4.15.33-.27,3.66-.11,4.21h0Z" style="fill: #011e21;"/>
        <path d="M14.64,74.95h0c-.11.11-.22.22-.38.27-.76.38-1.64.11-2.29-.16,0,0-.11,0-.16-.05-.55-.22-1.53-.6-1.53-1.2s.6-.98,1.47-1.2c.27-.33.6-.82.82-1.47.49-1.42.27-2.73.11-3.28l-.22-.33s.33-.44.76-.93c.27.87.66,2.62.55,3.5-.16,1.75-2.08,2.29-1.86,3.28.11.49.6,1.09,2.79,1.58h-.05Z" style="fill: #052c32;"/>
        <polygon points="17.64 37.7 13.16 58.18 10.38 70.75 6.61 69.82 8.9 39.45 12.51 38.74 17.64 37.7" style="fill: #6daab5;"/>
        <path d="M13.16,58.18l-2.73,12.56-3.82-.93,2.24-29.33c.76-.22,1.86-.33,2.79.22,1.53.93,1.53,3.77,1.58,9.39v8.08h-.05Z" style="fill: #95b4ba;"/>
        <path d="M13.27,67.58c-.38,0-1.53,1.26-1.53,1.26l-2.68-4.48-5.24-8.68c-.16-.27-.27-.66-.22-.98l.16-1.58,1.64-14.47h.44l5.73-.22-1.31,15.02c0,.44,0,.93.11,1.37.05.27.16.55.27.82l4.75,10.1c.27,0-1.47,1.91-2.18,1.91h0l.05-.05Z" style="fill: #c7d4d6;"/>
        <path d="M5.35,38.85c-.38,3.6-.82,7.21-1.2,10.81.71.66,1.31.82,1.75.82,3.55-.16,5.52-11.52,5.68-12.72-2.08.38-4.21.76-6.28,1.09h.05Z" style="fill: #dedede;"/>
        <path d="M9.07,64.36l-5.24-8.68c-.16-.27-.27-.66-.22-.98l.16-1.58,1.42-12.89.16-1.31v-.22h.49c0,.55-.11,1.09-.11,1.64-.55,4.92-1.15,9.83-1.69,14.75,1.69,3.11,3.33,6.23,5.02,9.34v-.05Z" style="fill: #fff;"/>
        <path d="M13.38,40.33c-.16.11-.44.16-.66.27-.55.16-.98.16-1.37.16l-5.19-.44h-.93c0-.05.16-1.42.16-1.42h.98l6.88.22.16,1.2h-.05Z" style="fill: #5faab8;"/>
        <path d="M1.04,21.54l-.55,5.02c-.16,1.31.55,2.62,1.69,3.28.49.27.93.38,1.26.33l2.18-8.03-4.59-.6h0Z" style="fill: #6780db;"/>
        <path d="M3.55,30.11c1.04-.76,1.97-1.53,2.68-2.4l-.76-2.62-2.46.22.55,4.81h0Z" style="fill: #2e49db;"/>
        <path d="M17.97,34.65c.22,2.02.38,3.44.38,3.44-1.97,1.2-3.88,1.86-5.79,2.13-2.62.33-5.19,0-7.76-.82l1.2-2.68c.27-3.66.05-7.76-.38-12.12h-.44c-.16-1.37-.38-2.68-.66-3.93-.11-.44-.16-.87-.27-1.31-.22-1.04-.44-1.97-.71-2.89.6-.33,1.15-.66,1.75-.98,1.42-.82,2.79-1.58,4.21-2.4.33.16.6.33.93.44.87.33,1.8.44,3.06-.55,1.53.22,2.68.49,3.06.6.27.11.49.22.49.22.22.11.44.22.49.27.44.27.98.6,1.58.98-.33.71-.66,1.37-.87,2.02-.93,2.4-1.2,4.53-1.2,6.28,0,.49,0,1.37.16,3.11.22,2.62.49,5.9.76,8.3h0v-.11Z" style="fill: #3351f5;"/>
        <path d="M17.97,34.59c.22,2.02.38,3.44.38,3.44-1.97,1.2-3.88,1.86-5.79,2.13-2.62.33-5.19,0-7.76-.82l1.2-2.68c.27-3.66.05-7.76-.38-12.12h-.44c-.16-1.37-.38-2.68-.66-3.93-.11-.44-.16-.87-.27-1.31-.22-1.04-.44-1.97-.71-2.89.6-.33,1.15-.66,1.75-.98,1.42-.82,2.79-1.58,4.21-2.4.33.16.6.33.93.44.87.33,1.8.44,3.06-.55,1.53.22,2.68.49,3.06.6.27.11.49.22.49.22.22.11.44.22.49.27.44.27.98.6,1.58.98-.33.71-.66,1.37-.87,2.02-.93,2.4-1.2,4.53-1.2,6.28,0,.49,0,1.37.16,3.11.22,2.62.49,5.9.76,8.3h0v-.11Z" style="fill: #193cbc;"/>
        <path d="M5.95,36.67l-1.2,2.68c-.16,0-.33-.11-.49-.16.38-.87.82-1.69,1.2-2.57.16-2.62.22-5.63-.05-8.96,0-.6-.11-1.2-.16-1.8,0-.44-.11-.93-.16-1.37h.44c.44,4.37.66,8.47.38,12.12h0l.05.05Z" style="fill: #6780db;"/>
        <path d="M20.26,37.6c-1.42.11-2.79.22-4.21.33-.22-1.42-.38-2.79-.6-4.21-1.97-1.42-3.93-2.89-5.95-4.31-.93-1.26-1.86-2.57-2.79-3.82.66-.93,1.31-1.91,1.97-2.84,2.35,1.2,4.64,2.46,6.99,3.66h1.47c1.04,3.71,2.02,7.48,3.06,11.2h.05Z" style="fill: #122d8a;"/>
        <path d="M10.43,13.4l-6.17,5.84c-.22-1.04-.44-1.97-.71-2.89,1.97-1.15,3.99-2.29,5.95-3.44.33.16.6.33.93.44v.05Z" style="fill: #6780db;"/>
        <path d="M15.07,29.79s.22,3.28.44,3.44.55.27.55.27c.6-2.57.93-5.02.05-6.94l-1.04,1.37s0,1.86,0,1.86Z" style="fill: #00106b;"/>
        <path d="M9.56,28.04c.71.11,1.47.22,2.18.33.16,0,.27.11.38.22.76.82,3.99,4.42,4.7,4.53.82.11,3-4.31,3-4.31l-7.86-3.82-.87.38-1.47,1.75v.98h0l-.05-.05Z" style="fill: #ffa897;"/>
        <path d="M16.88,13.84c-.27.27-.55.49-.66.6-.05.05-.16.11-.16.11-.16.11-.33.22-.55.33-.38.22-2.13,1.15-4.21.82-.33,0-.71-.16-1.04-.27-1.04-.44-1.8-1.09-2.24-1.64.49-.27.98-.6,1.53-.87.98-1.42,1.97-2.84,3-4.26,0,0,0,.11.05.16.44,1.09.82,2.18,1.26,3.28.11.22.22.38.44.49.87.44,1.75.82,2.62,1.26h-.05Z" style="fill: #ffc297;"/>
        <path d="M16.88,13.89l-.27.27c-.11.11-.27.22-.38.33l-.16.11c-.16.11-.33.22-.55.33-.11.05-.38.22-.76.38-.76.33-2.02.66-3.39.44-.6-.93-1.2-1.86-1.8-2.79.98-1.37,2.02-2.73,3.06-4.04h0c.44,1.09.82,2.18,1.26,3.28.11.22.22.38.44.49.76.38,1.53.71,2.29,1.09.11,0,.22.11.33.16h0l-.05-.05Z" style="fill: #ff6d63;"/>
        <path d="M12.67,4.94l-.16,5.68v.16s-1.04,1.64-2.02,2.13c-.16.11-.38.16-.6.11-.11,0-.22-.11-.38-.11-.49-.16-.93-.44-1.42-.76,0,0-.05-.05-.11-.11l-.98-1.75-1.53-4.31c-.05-.22,0-.44.22-.55l1.58-.98,1.8-1.15c.11-.11.33-.11.44,0l2.84,1.26c.16.05.27.27.27.44h0l.05-.05Z" style="fill: #ffa897;"/>
        <path d="M9.5,12.86c-.49-.16-.93-.44-1.42-.76,0,0-.05-.05-.11-.11l-.98-1.75-1.53-4.31c-.05-.22,0-.44.22-.55l1.58-.98c.11,1.97.55,6.5,2.18,8.47h.05Z" style="fill: #ffc297;"/>
        <path d="M14.09,10.56c.11.44-.11.93-.49,1.09h0l-1.2-3.22c0,.22-.11.38-.11.6-.16-.55-.27-.82-.27-.87h0c0-.27,0-1.04-.38-1.86-.27-.49-.87-1.53-1.91-1.58-.98-.05-1.69.76-1.8.87-.11,0-.76-.44-1.15-.16-.16.11-.22.33-.33.76-.05.44-.11,1.09-.11,1.86.22.66.49,1.37.71,2.02-.44,0-1.26,0-2.18-.49-.33-.16-.55-.33-.76-.49-.49-.38-.87-.82-1.04-1.04,1.91-.82,1.91-7.7,7.15-6.17.16,0,.93,0,1.86.38.6.27,1.26.66,1.75,1.37,1.04,1.42,1.15,3.44.16,5.02,0,.44,0,.93.16,1.53v.22h0l-.05.16Z" style="fill: #28223b;"/>
        <path d="M11.96,2.37c-2.13,0-4.92.33-5.46,2.08-.66,2.24-1.97,3.99-2.51,4.7-.49-.38-.87-.82-1.04-1.04,1.91-.82,1.91-7.7,7.15-6.17.16,0,.93,0,1.86.38h0v.05Z" style="fill: #7c6ab8;"/>
        <path d="M12.34,8.05c-.11.6.22,1.2.71,1.26.49.05.98-.38,1.04-.98.11-.6-.22-1.2-.71-1.26-.49-.05-.98.38-1.04.98Z" style="fill: #ffa897;"/>
        <path d="M13.43,7.61c-.05,0-.16,0-.22.05-.05,0-.11.11-.16.16-.11.11-.11.27-.16.44h0c0-.11,0-.16.05-.27,0-.05.05-.16.11-.22,0-.05.11-.11.22-.16.05,0,.16-.05.22-.05s0,0,0,0h0l-.05.05Z" style="fill: #ff6d63;"/>
        <path d="M6.61,16.35c-.82-2.02-2.79-3-5.13-3.66l-.16.93,5.3,2.73h0Z" style="fill: #fcf9d6;"/>
        <path d="M12.83,8.21c-.11.16,0,.38.11.44.16.05.33,0,.44-.22.11-.16,0-.38-.11-.44-.16-.05-.33,0-.44.22Z" style="fill: #ff6d63;"/>
        <path d="M6.61,16.35c-1.2-1.47-3.22-2.4-5.9-2.89l-.16.82,6.06,2.08Z" style="fill: #e0debf;"/>
        <path d="M2.29,25.31c-1.31,1.37-1.58,3.06-.87,4.04.49.66,1.53,1.09,2.24.76s.93-1.2,1.09-2.08c.16-.66.16-1.15.11-1.53-.87-.38-1.75-.76-2.62-1.15h0l.05-.05Z" style="fill: #ff8178;"/>
        <path d="M6.61,16.35c-.38,2.84-.44,6.17-.27,9.83,2.84-.22,5.41-.76,7.21-2.13v-10.27c-2.29.44-4.53,1.42-6.99,2.62h0l.05-.05Z" style="fill: #ffb86a;"/>
        <path d="M6.61,16.35c-1.91-1.04-4.15-1.75-6.61-2.18l.22,9.88,6.12,2.13c-.16-3.71-.11-7.1.27-9.83Z" style="fill: #fff477;"/>
        <path d="M6.61,16.35c1.75-2.4,3.39-3,4.97-3.5l.33.98-5.3,2.51h0Z" style="fill: #fcf9d6;"/>
        <path d="M6.61,16.35c.55-.87,2.57-1.97,6.01-3.28v.87l-6.01,2.4Z" style="fill: #e0debf;"/>
        <path d="M4.26,22.41c-.6.87-1.2,1.75-1.8,2.62-.16-.11-.27-.27-.44-.44h0c-.05-.11-.11-.16-.22-.22l.11-.16,1.91-2.24c.05-.11.22-.16.33-.11h0s.11,0,.11.11c.11.11.11.33,0,.44Z" style="fill: #ffa897;"/>
        <path d="M3,26.02c-.27-.27-.49-.55-.76-.82l2.29-2.46c.11-.11.22-.11.38-.11.05,0,.11.05.16.16.11.16.11.38,0,.49-.71.93-1.37,1.8-2.08,2.73h0Z" style="fill: #ffa897;"/>
        <path d="M4.21,26.35c-.22-.22-.44-.44-.66-.66l1.64-1.75c.05-.05.16-.11.27,0,.05,0,.11.05.16.11.11.11.11.27,0,.38-.49.66-.98,1.31-1.47,1.97l.05-.05Z" style="fill: #ffa897;"/>
        <path d="M5.57,25.91c-.22.44-.66.82-1.15,1.15-.16.11-.33.11-.44,0l-.44-.11h-.55c-.16,0-.27-.11-.38-.27l-.27-.49c0-.05-.11-.16-.16-.22l-.6-.49h0c-.22-.16-.38-.49-.33-.76l.38-2.46c0-.05.05-.16.11-.16l1.86-.76h.16v.16c0,.05,0,.11-.11.11l-.93.71c-.16.16-.33.38-.33.6l-.11.98v.76l3.22,1.15h0l.05.11Z" style="fill: #ffa897;"/>
        <path d="M18.46,14.6s4.37,1.26,4.42,11.58c0,10.32-5.13,6.55-5.13,6.55-.33-1.86-.6-3.93-.71-6.23-.22-3.82-.05-7.21.27-10.16.38-.6.76-1.2,1.15-1.8v.05Z" style="fill: #122d8a;"/>
        <path d="M11.74,25.09l-.11.82c-.11.82-1.04,2.08-1.04,2.08h-.87c-.05.05-.11.05-.16.05-.22,0-.38-.11-.49-.33l-.76-1.09c-.16-.22-.27-.44-.38-.71-.11-.33-.16-.66-.22-.98,0-.05,0-.16.11-.16h.22l-.16-.87v-.16s0-.05.11-.11.11,0,.11,0l.22.27.11.16v-.76c-.05-.11,0-.27,0-.33,0,0,.05,0,.11-.05.05,0,.16,0,.22.05l.44.71c0-.22.11-.38.16-.49.11-.11.22-.11.33,0l1.42,2.02.6-.22h0l.05.11Z" style="fill: #ffa897;"/>
        <path d="M9.56,28.04c-.22,0-.38-.11-.49-.33l-.76-1.09c-.16-.22-.27-.44-.38-.71-.11-.33-.16-.66-.22-.98,0-.05,0-.16.11-.16h.22l-.16-.87v-.16s0-.05.11-.11.11,0,.11,0l.22.27c.22,1.15.6,3,1.26,4.04h0v.11Z" style="fill: #ffc297;"/>
        <path d="M7.05,9.2s.16-.6.44-.55c.33,0,.71.33.71.33,0,0-.11.05-.16.11-.05,0-.16.05-.22.11-.16,0-.33.05-.49.11h-.33v-.05l.05-.05Z" style="fill: #fcfcfc;"/>
        <path d="M8.25,9.09c-.11-.11-.22-.16-.33-.27s-.27-.11-.38-.11-.22.05-.33.16c-.11.11-.11.22-.16.38h0c0-.16,0-.33.11-.44,0,0,0-.05.05-.11,0,0,.05-.05.11-.05h.16c.16,0,.33,0,.44.11s.22.22.27.33h.05Z" style="fill: #28223b;"/>
        <path d="M7.86,9.09v.11c-.16,0-.38.05-.49.11-.11-.05-.11-.16-.11-.27,0-.16.16-.33.38-.27s.33.16.27.38l-.05-.05Z" style="fill: #28223b;"/>
        <path d="M8.36,10.45v-2.35s0,.11.11.11c0,0,0,.11.05.11,0,.11.05.16.11.27,0,.22.05.38,0,.6,0,.22,0,.38-.05.6s-.11.38-.16.55h0l-.05.11Z" style="fill: #ff6d63;"/>
        <path d="M9.61,10.84c.16,0,.27-.05.38-.11.11,0,.22-.11.33-.22.11-.11.16-.22.22-.33,0-.11.11-.27.11-.38h0v.44c0,.16-.11.27-.22.44l-.11.11s-.05,0-.11.05c-.05,0-.11.05-.22.11h-.44l.05-.11Z" style="fill: #ff6d63;"/>
        <path d="M9.5,7.45h0c0,.11.16.16.22.11.55-.22,1.2-.38,1.86-.38-.38-.27-.93-.33-1.86-.11-.16,0-.27.22-.22.38Z" style="fill: #28223b;"/>
        <path d="M7.97,7.5h0c0,.16-.05.27-.22.33-.44.05-.82.16-1.2.44.16-.33.55-.6,1.31-.82,0,0,.11,0,.11.05h0Z" style="fill: #28223b;"/>
        <path d="M8.3,10.4h0l1.26-.38c-.22-.27-.6-.33-.87-.22-.33.16-.44.6-.38.6h0Z" style="fill: #ff6d63;"/>
        <path d="M9.72,8.6s.16-.66.49-.6.76.38.76.38c0,0-.11.05-.16.11-.11,0-.16.05-.22.11-.16,0-.38.11-.55.16h-.38v-.05l.05-.11Z" style="fill: #fcfcfc;"/>
        <path d="M11.03,8.38c-.11-.11-.27-.22-.38-.27s-.27-.11-.44-.05-.27.11-.33.22c-.11.11-.11.27-.16.44h0c0-.16,0-.33.05-.49,0,0,0-.05.05-.11h0v-.11h.05l.05-.05h.11c.16,0,.38,0,.49.11.16.11.27.22.33.38h0l.16-.05Z" style="fill: #28223b;"/>
        <path d="M10.59,8.38v.11c-.16,0-.38.11-.55.16-.11-.05-.16-.16-.16-.33,0-.22.16-.38.38-.33.22,0,.38.16.33.38h0Z" style="fill: #28223b;"/>
        <path d="M3.77,21.32l-1.47.76c-.27.11-.44.38-.44.66l-.27,2.68h0c-.22-.16-.38-.49-.33-.76l.38-2.46c0-.05.05-.16.11-.16l1.86-.76h.16v.05Z" style="fill: #ffc297;"/>
        <path d="M4.15,21.87l-2.13,2.73c-.05,0-.22.16-.33.38s-.11.44-.11.55c0,0-.11-.05-.11-.11-.22-.27-.05-.66,0-.71.76-.93,1.53-1.8,2.35-2.73.11,0,.22-.05.33-.11h0Z" style="fill: #ffc297;"/>
        <path d="M16.17,26.56l6.72,1.2-.27,2.4c-.33,2.84-3.22,4.59-5.84,3.6l-.93-.33c.44-2.57.71-5.02.33-6.88h0Z" style="fill: #122d8a;"/>
        <path d="M16.17,26.62s-.11,0-.11-.11,0-.11.11-.11l2.18-.11s.11,0,.11.11,0,.11-.11.11l-2.18.11h0Z" style="fill: #00106b;"/>
        <path d="M17.26,17.99c-.27,2.84-.22,5.68,0,8.47,0,.11,0,.16-.11.16s-.16,0-.16-.11h0c-.22-2.84-.16-5.68.16-8.52h.05c.05,0,0,0,0,.05h0l.05-.05Z" style="fill: #00106b;"/>
        <path d="M16.33,18.1c.11.71.38,1.37.76,2.02v.11h-.11c-.38-.66-.6-1.37-.66-2.08h0v-.05Z" style="fill: #00106b;"/>
        <path d="M7.48,35.19c.33.33.71.66,1.15.93.38.27.82.49,1.26.66.05,0,.11.11.05.16,0,.05-.11.11-.16.05h0c-.44-.22-.87-.49-1.26-.76s-.76-.6-1.09-.98v-.05h.05Z" style="fill: #00106b;"/>
        <path d="M6.44,37.92c.16.16.38.27.55.44s.38.27.6.38c.38.22.82.44,1.26.55,0,0,.11,0,.16.05h.16c0,.05.11.05.16.11h.33c.05,0,.11,0,.16.05s.11,0,.16,0h1.58c-.44.16-.93.22-1.42.27h-.71c-.22,0-.49-.05-.71-.16-.49-.11-.93-.33-1.37-.6s-.76-.6-1.04-1.04v-.11h.11v.05Z" style="fill: #00106b;"/>
        <path d="M18.02,33.72h0l-2.18-.22s-.11,0-.05-.11c0,0,0-.05.11-.05l2.18.22s.11,0,.05.11c0,0,0,.05-.11.05Z" style="fill: #00106b;"/>
        <path d="M11.2,25.25s.11.11.16.11.11.05.16.11.11,0,.16,0h.16-.44c-.05,0-.11-.05-.16-.11s-.11-.11-.16-.16h0l.11.05Z" style="fill: #ff6d63;"/>
        <path d="M10.81,25.74s-.11,0-.16.05c0,0-.11.05-.11.11s-.05.05-.11.11c0,0,0,.11-.11.16h0s0-.11.05-.16c0,0,.05-.11.11-.16,0,0,.11-.05.16-.11,0,0,.11,0,.16-.05h0v.05Z" style="fill: #ff6d63;"/>
        <path d="M10.38,26.45s-.11,0-.16.05c0,0-.11.05-.11.11s-.05.05-.11.11c0,0,0,.11-.11.16h0s0-.11.05-.16c0,0,.05-.11.11-.16,0,0,.11-.05.16-.11,0,0,.11,0,.16-.05h0v.05Z" style="fill: #ff6d63;"/>
        <path d="M9.78,27.16s-.11,0-.16.05c0,0-.11.05-.11.11s-.05.05-.11.11c0,0,0,.11-.11.16h0s0-.11.05-.16c0,0,.05-.11.11-.16,0,0,.11-.05.16-.11,0,0,.11,0,.16-.05h0v.05Z" style="fill: #ff6d63;"/>
        <path d="M9.23,23.72c.11.16.16.38.27.55s.16.38.33.55c.22.38.44.71.71.98h0c-.33-.27-.6-.6-.82-.98-.22-.38-.38-.76-.49-1.15h0v.05Z" style="fill: #ff6d63;"/>
        <path d="M8.36,24.05c.05.27.16.49.27.71s.22.44.38.66c.16.22.33.44.49.6s.38.38.6.49h0c-.11-.05-.22-.11-.33-.22-.11-.05-.22-.16-.33-.27-.22-.16-.38-.38-.55-.6-.05-.11-.16-.22-.22-.33-.05-.11-.11-.22-.16-.38-.11-.22-.16-.49-.22-.76h0l.05.11Z" style="fill: #ff6d63;"/>
        <path d="M7.97,24.71c.11.22.16.44.27.71l.33.66c.11.22.27.44.38.66.16.22.33.38.44.6h0c-.16-.16-.38-.38-.49-.55-.16-.22-.33-.38-.44-.6-.27-.44-.44-.93-.6-1.42h0l.11-.05Z" style="fill: #ff6d63;"/>
        <path d="M19.11,14.93c-.33.71-.66,1.37-.87,2.02-.27,0-.6.05-.98,0-1.64-.22-2.46-1.47-2.57-1.64.38-.16.66-.33.76-.38.16-.11.38-.22.55-.33l.16-.11c.11-.11.27-.22.38-.33s.22-.16.27-.27l-.16-.05c-.44-.22-.87-.44-1.31-.66.27,0,.6.11,1.04.27,0,0,.33.11.66.22.87.38,1.8,1.04,2.08,1.26h0Z" style="fill: #122d8a;"/>
      </g>
      <g>
        <path d="M48.82,26.95s.6-.49.27-1.2c-.33-.66-1.04-3.33-1.04-3.33h-1.75v1.64c0,.05,1.31,2.13,1.31,2.13l.98.71h.16l.05.05Z" style="fill: #1a4266;"/>
        <path d="M53.68,19.63c-.11,1.64-1.53,3.39-3.55,5.08l-.22.22-1.42,1.69c-.55-.6-1.15-1.64-1.75-2.84,0,0,.71-.05,1.2-.38s.33-2.29.33-2.29c0,0,1.47-2.79,1.69-3.28s2.35-.82,2.35-.82l.33.66.98,1.97h.05Z" style="fill: #ff6d63;"/>
        <path d="M49.48,19.68c.44-.22.82-.44,1.26-.71.11-.05.33,0,.38.11v.11c0,.22-.11.49-.33.82-.38.6-.82.93-1.15,1.09,0,.6.11,1.2.11,1.8h-1.53c.16-.71.05-1.8.05-1.8,0,0,1.47-2.79,1.69-3.28s2.35-.82,2.35-.82l.33.66c-.05,0-.11,0-.22.11-.87.33-1.37.33-1.69.44-.38.11-.87.49-1.31,1.47h.05Z" style="fill: #ffa187;"/>
        <path d="M47.13,23.4c.27,1.37.76,2.57,1.75,3.55-.27.27-.82.71-1.64.93-1.75.49-3.17-.49-3.39-.66l.11-3.66,3.17-.22h0v.05Z" style="fill: #2f53bd;"/>
        <path d="M44.73,12.42l.55.27c.98.93,1.37,5.3,2.4,10.16l-3.93,1.42-.38-6.44s1.37-5.41,1.37-5.41Z" style="fill: #365fd7;"/>
        <path d="M39.54,10.18l-.16,2.84s-1.64,2.13-3.77,1.69h-.22c-1.97-.55-1.97-3.55-1.97-3.55.76-.66,1.31-1.97,1.8-3.5l.6-.93,1.64,1.53,2.08,1.91Z" style="fill: #ffc297;"/>
        <path d="M39.38,12.15v.87c-.05,0-1.69,2.13-3.82,1.69h-.22c-.49-2.13-.05-4.75.6-7.54l1.53,1.09.66.6h0l1.31,3.28h-.05Z" style="fill: #ffa897;"/>
        <path d="M39.54,10.23l-.22,1.86c-.55-.49-1.15-1.04-1.69-1.53.66-.11,1.26-.22,1.91-.33Z" style="fill: #ff6d63;"/>
        <path d="M46.09,36.5c-5.08,0-10.21.05-15.29.11h-.76c.98-2.89,1.47-5.35,1.69-7.54.16-1.8.16-3.39.11-4.81-.05-.98-.16-1.91-.27-2.73s-.22-1.53-.33-2.18c-.27-1.86-.71-5.3-.93-6.44v-.38c.22-.11.44-.22.66-.33.38-.16.76-.33,1.15-.55.49-.22.98-.44,1.53-.71.05.11.11.22.22.27,1.09,1.47,2.89,2.02,4.15,1.42,1.15-.55,1.53-1.75,1.58-2.02,1.86.38,3.71.98,5.52,1.91-.16,1.58-.38,3.82-.38,6.5v1.42c0,.76,0,6.28.05,7.76,0,1.97.33,4.75,1.37,8.3h-.05Z" style="fill: #365fd7;"/>
        <g>
          <g>
            <path d="M31.62,34.37v18.68c0,1.53,1.31,2.73,2.79,2.73s2.68-1.09,2.79-2.51h0c.71-4.48,1.53-13.05,1.97-18.51.22-2.29-1.69-4.21-3.93-4.1h-.44c-1.8.33-3.11,1.86-3.11,3.71h-.05Z" style="fill: #c4c4c4;"/>
            <path d="M31.62,34.37v17.09l3.11-20.81c-1.8.33-3.11,1.86-3.11,3.71h0Z" style="fill: #fff;"/>
          </g>
          <path d="M36.7,70.15c-.11,1.31-.22,2.62-.33,3.93,0,0-1.53.82-1.69,1.2-.16.38-2.02,2.02-3.44,2.18h-.33c-1.47-.05-2.4-1.09-2.24-1.58s.98-.87.98-.87c.87-.71,2.08-1.97,2.95-3.88.38-.82.6-1.58.76-2.24.16.05.33.11.49.16.98.33,1.91.71,2.89,1.04l-.05.05Z" style="fill: #011e21;"/>
          <path d="M33.81,69.11c-.11,1.04-.55,4.15-1.69,5.08-1.09.93-1.58,2.29-.93,3.28h-.33c-1.47-.05-2.4-1.09-2.24-1.58s.98-.87.98-.87c.87-.71,2.08-1.97,2.95-3.88.38-.82.6-1.58.76-2.24.16.05.33.11.49.16v.05Z" style="fill: #052c32;"/>
          <g>
            <path d="M31.57,52.56v.87c-.05,6.17.16,12.18.76,17.8h4.53c.33-6.39.49-13.65.49-18.84,0-1.69-1.47-3-3.11-2.84-1.47.11-2.62,1.37-2.62,2.84v.16h-.05Z" style="fill: #c4c4c4;"/>
            <path d="M31.57,53.43c-.05,6.17.16,12.18.76,17.8h1.37c-.93-1.31-2.13-17.86-2.13-17.86h0v.05Z" style="fill: #fff;"/>
          </g>
        </g>
        <g>
          <g>
            <path d="M44.89,34.16v18.68c0,1.53-1.31,2.73-2.79,2.73s-2.68-1.09-2.79-2.51h0c-.71-4.48-1.53-13.05-1.97-18.51-.22-2.29,1.69-4.21,3.93-4.1h.44c1.8.33,3.11,1.86,3.11,3.71h.05Z" style="fill: #c4c4c4;"/>
            <path d="M44.89,34.16v17.09l-3.11-20.81c1.8.33,3.11,1.86,3.11,3.71h0Z" style="fill: #fff;"/>
          </g>
          <path d="M39.87,69.93c.11,1.31.22,2.62.33,3.93,0,0,1.53.82,1.69,1.2.16.38,2.02,2.02,3.44,2.18h.33c1.47-.05,2.4-1.09,2.24-1.58s-.98-.87-.98-.87c-.87-.71-2.08-1.97-2.95-3.88-.38-.82-.6-1.58-.76-2.24-.16.05-.33.11-.49.16-.98.33-1.91.71-2.89,1.04h0l.05.05Z" style="fill: #011e21;"/>
          <path d="M42.71,68.89c.11,1.04.55,4.15,1.69,5.08,1.09.93,1.58,2.29.93,3.28h.33c1.47-.05,2.4-1.09,2.24-1.58-.16-.49-.98-.87-.98-.87-.87-.71-2.08-1.97-2.95-3.88-.38-.82-.6-1.58-.76-2.24-.16.05-.33.11-.49.16h0v.05Z" style="fill: #052c32;"/>
          <g>
            <path d="M44.95,52.34v.87c.05,6.17-.16,12.18-.76,17.8h-4.53c-.33-6.39-.49-13.65-.49-18.84,0-1.69,1.47-3,3.11-2.84,1.47.11,2.62,1.37,2.62,2.84v.16h.05Z" style="fill: #c4c4c4;"/>
            <path d="M44.95,53.22c.05,6.17-.16,12.18-.76,17.8h-1.37c.93-1.31,2.13-17.86,2.13-17.86h0v.05Z" style="fill: #fff;"/>
          </g>
        </g>
        <path d="M46.09,36.5c-10.59,2.84-14.96,1.2-15.29.11h-.93c.38-5.63.76-11.3,1.15-16.93.16.38.33.76.55,1.09,1.53,2.84,4.31,4.64,7.32,4.75,3.22.11,5.41-1.86,5.95-2.35-.05,1.31-.11,2.79,0,4.31.16,3.44.71,6.5,1.37,9.01h-.11Z" style="fill: #2f53bd;"/>
        <path d="M31.29,24.27c-.05,1.47-.16,3.22-.27,4.7-.11,2.57-.27,5.08-.44,7.65h-.82c.27-4.15.55-8.25.82-12.4.22,0,.44,0,.66.05h.05Z" style="fill: #398fdb;"/>
        <g>
          <path d="M41.83,34.26c-1.47-.44-2.51-.27-3.17,0,.66-.44,1.86-.82,3.17,0Z" style="fill: #9b65c9;"/>
          <path d="M34.24,35.63c.44-1.04,1.15-1.58,2.24-1.47-.66.16-1.53.49-2.24,1.47Z" style="fill: #9b65c9;"/>
        </g>
        <path d="M42.87,4.45l-1.58,4.31-.98,1.69-.11.11c-.49.33-.98.55-1.53.76-.11,0-.22.05-.27.11-.22.05-.44,0-.6-.11-.98-.55-1.91-2.13-1.97-2.18V3.3c0-.16.05-.38.27-.44l2.68-1.15h.16c.16-.11.33-.11.44,0l3.33,2.24c.16.11.27.38.16.55h0v-.05Z" style="fill: #ffa897;"/>
        <path d="M37.14,7.18c0,1.86.44,3.39.82,4.21,0,0-.05,0-.16-.05-.33-.16-1.47-.98-1.97-2.18V3.3c0-.16.05-.38.27-.44l2.68-1.15c-.55.82-1.58,2.79-1.64,5.46h0Z" style="fill: #ffc297;"/>
        <path d="M40.14,7.5c.11,0,.22.11.33.11.16,0,.33.05.44.11h.27c0-.22-.11-.44-.27-.55-.27-.11-.66,0-.82.33h.05Z" style="fill: #fff;"/>
        <path d="M40.09,7.5c.05-.11.16-.22.27-.33s.27-.11.44-.11h.16l.11.11s0,.05.05.11c.05.11.11.27.05.44h0c0-.11-.05-.27-.11-.38s-.16-.16-.27-.16-.22,0-.33.05c-.11,0-.22.16-.33.22h0l-.05.05Z" style="fill: #3e264a;"/>
        <path d="M40.47,7.5v.11c.16,0,.33.11.44.11.05-.05.11-.16.11-.27,0-.16-.16-.27-.33-.27s-.27.16-.27.33h.05Z" style="fill: #3e264a;"/>
        <path d="M39.98,8.81c-.05-.16-.11-.27-.11-.44v-.49c0-.16,0-.33.11-.44,0-.16.11-.27.22-.44,0,.16-.05.33-.11.44,0,.16-.05.27-.05.44v.87h0l-.05.05Z" style="fill: #ff6d63;"/>
        <path d="M38.99,9.25c-.11.05-.27.11-.44.11h-.44l-.33-.33c-.05-.11-.11-.27-.16-.44h0c.05.11.16.27.22.33.11.11.16.22.27.27s.22.11.38.11h.44l.05-.05Z" style="fill: #ff6d63;"/>
        <path d="M39.54,6.08h0c0,.11-.11.16-.22.11-.55-.11-1.09-.16-1.69-.11.27-.27.82-.44,1.64-.38.16,0,.27.16.27.33h0v.05Z" style="fill: #3e264a;"/>
        <path d="M40.36,6.08h0c0,.16.05.27.22.33.44.05.82.22,1.2.44-.16-.33-.55-.6-1.31-.82-.05,0-.11,0-.11.05h0Z" style="fill: #3e264a;"/>
        <path d="M40.03,8.92h0l-1.15-.44c.33-.27.71-.33.93-.16.22.16.27.55.27.55h0l-.05.05Z" style="fill: #ff6d63;"/>
        <path d="M37.57,6.79l.38.22.55.16h.33s0-.6-.33-.66c-.33-.11-.71,0-.93.33h0v-.05Z" style="fill: #fff;"/>
        <path d="M37.57,6.85c.11-.11.22-.27.33-.33.16-.11.33-.11.49-.11h.22s0,.05.05.11h0c0,.11.05.11.05.16.05.16.11.33,0,.49h0c0-.16-.05-.33-.11-.44s-.22-.22-.33-.22-.27,0-.44.05-.27.16-.38.27h.11Z" style="fill: #3e264a;"/>
        <path d="M37.96,6.85v.11c.16,0,.38.11.55.16.11-.05.16-.16.16-.33,0-.22-.16-.38-.38-.38s-.38.16-.33.38h0v.05Z" style="fill: #3e264a;"/>
        <path d="M42.05,6.74l.49-1.31c-.82-.38-1.58-1.15-2.24-2.13-.05-.11-.16-.16-.27-.22-.16,0-.33,0-.49.11-.16.16-.27.33-.27.6-.22-.11-.49-.22-.71-.22-.38,0-.71.27-.71.66s0,.66.16.82l-.66.16c-.33.49-.6,1.31-.82,2.29v-.11c0-.6-.22-1.2-.6-1.64-.05-.11-.11-.11-.11-.11-.11.55-.22,1.15-.38,1.69-.22.6-.44,1.15-.66,1.75h-.11c-.11,0-.22-.05-.33-.16-.16-.16-.33-.38-.27-.49.11-1.58.16-3.11,0-4.48v-.38c.66-1.31,1.37-2.29,2.29-2.79v-.22c-.05-.05,0-.11,0-.11h0c.05,0,.11,0,.05-.11l-.11-.16s0-.11.05-.11c.55.27,1.09.38,1.58.33.98-.66,1.8-.44,2.51.11.11.11.27.22.38.33,1.26,1.15,2.29,2.89,3.55,2.08.55,1.69-.98,2.29-2.4,3.77h0l.05.05Z" style="fill: #3e264a;"/>
        <path d="M38.94,2.32s.76.11,1.04.76c-.16,0-.33,0-.49.11-.16.16-.27.33-.27.6-.22-.11-.49-.22-.71-.22-.38,0-.71.27-.71.66s0,.66.16.82l-.66.16c-.33.49-.6,1.31-.82,2.29v-.11c0-.6-.22-1.2-.6-1.64-.05-.11-.11-.11-.11-.11-.11.55-.22,1.15-.38,1.69-.22.6-.44,1.15-.66,1.75h-.11c-.11,0-.22-.05-.33-.16-.16-.16-.33-.38-.27-.49.11-1.58.16-3.11,0-4.48v-.38c.66-1.31,1.37-2.29,2.29-2.79v-.22c-.05-.05,0-.11,0-.11h0c.05,0,.11,0,.05-.11l-.11-.16s0-.11.05-.11c.55.27,1.09.38,1.58.33.98-.66,1.8-.44,2.51.11.11.11.27.22.38.33-.16-.11-.76-.55-1.53-.44-.22,0-.44.11-.6.16,0,0,1.26.16,1.58.49,0,0-.82-.22-1.26,0h.33c.38,0,.66.22.76.33-.11,0-.44-.11-.76,0s-.49.33-.6.44c.16,0,.44,0,.76.11.44.11.71.38.87.49-.22-.11-.55-.22-.98-.22h-.6l.16.11Z" style="fill: #743280;"/>
        <ellipse cx="35.2" cy="6.5" rx="1.04" ry="1.31" transform="translate(-.52 4.21) rotate(-6.8)" style="fill: #ffc297;"/>
        <path d="M34.95,5.87c.11,0,.22,0,.33.11.11,0,.16.11.27.22s.11.16.16.27.05.22.05.33c0,0,0,.05-.05.05h-.05c0-.22-.11-.44-.22-.6-.05-.11-.11-.16-.22-.22-.11,0-.16-.11-.27-.11h0v-.05Z" style="fill: #ff6d63;"/>
        <path d="M35.72,6.52c.11.22.05.55-.11.6s-.44,0-.6-.27c-.11-.22-.05-.55.11-.6s.44,0,.6.27Z" style="fill: #ff6d63;"/>
        <path d="M32.33,17.55c0,.6-.38,2.18-.82,3.93-.22.93-.49,1.86-.76,2.73-.49,1.8-.93,3.22-.93,3.22h-3.99v-1.31h0v-1.86h0c.27-5.79,1.37-10.76,5.02-12.07,0,0,0,.11.11.22.33.82,1.37,3.77,1.37,5.13h0Z" style="fill: #365fd7;"/>
        <path d="M44.56,27.77c-.49-3.6-.66-7.26-.49-10.92h0c0,3.66.22,7.26.76,10.87,0,.11,0,.16-.16.22s-.16,0-.22-.16h.11Z" style="fill: #2947a3;"/>
        <path d="M50.41,22.9c-6.39-2.84-8.47-1.2-11.96,1.97l11.96-1.97h0Z" style="fill: #e0debf;"/>
        <path d="M50.35,23.51c-.87-1.15,1.31-6.83,5.13-9.45v.87l.71-.66v.71l.55-.44v.76l.49-.11-6.83,8.25h0l-.05.05Z" style="fill: #e0debf;"/>
        <path d="M50.41,22.9l6.83-8.25.16.38h.27l-6.94,8.57-10.21,1.26v-.44c3.11-.76,6.44-1.2,9.88-1.53h0Z" style="fill: #f92b32;"/>
        <path d="M34.68,24.22s.66-.16.82.44c.11.6.33,2.46.22,2.89s-.22,1.04-1.15,1.09-1.04-2.08-1.04-2.08l.38-1.75.76-.6h0Z" style="fill: #1a4b66;"/>
        <path d="M42.43,25.25l-2.68,2.35c-.38.33-.87.44-1.31.38-.16,0-.38-.05-.6-.11-1.04-.22-2.35-.44-2.46-.44s-.33.11-.55.22c-.22.11-.38.16-.38.16l-.6-1.15.82-2.24c.11,0,.16,0,.27-.11.55-.16,1.04-.33,1.58-.49.55-.33,1.04-.66,1.58-.98.11-.05.22-.11.38-.11l2.24-.22c.16,0,.27.22.11.33-.22.16-.44.38-.98.55-.33.11-.71.27-1.26.49-.11,0-.22.11-.38.22-.05.05-.16.22-.16.38,0,0,0,.11.05.16.11.22.55.22.66.16h.22c1.2-.16,3.5-1.04,3.77-.6.22.33-.22,1.04-.22,1.04h-.11Z" style="fill: #ffa897;"/>
        <path d="M42.43,25.25l-2.68,2.35c-.38.33-.87.44-1.31.38-.16,0-.38-.05-.6-.11.71-.93.98-2.35,1.04-3,1.2-.16,3.5-1.04,3.77-.6.22.33-.22,1.04-.22,1.04h0v-.05Z" style="fill: #ff6d63;"/>
        <path d="M34.73,27.6c-.22.11-.38.16-.38.16l-.6-1.15.82-2.24c.11,0,.16,0,.27-.11-.11.71-.27,2.35-.11,3.22h0v.11Z" style="fill: #ff6d63;"/>
        <path d="M42.49,25.09c-.33.11-.66.22-1.04.38s-.71.22-1.04.38l-.49.16-.27.11h-.11l-.05.05h-.6c-.16,0-.38,0-.55-.11-.05,0-.11-.05-.11-.16,0-.05.05-.11.11-.11h.98l1.04-.27c.33-.11.71-.16,1.04-.27s.71-.16,1.04-.27h0l.05.11Z" style="fill: #fb343d;"/>
        <path d="M41.4,26.13c-.27.11-.49.22-.76.33s-.49.22-.76.27l-.76.27h-.38c-.11,0-.27,0-.44-.05-.05,0-.11-.05-.11-.16,0-.05.05-.11.11-.11h.71l.82-.27c.27-.11.55-.16.82-.22s.55-.16.82-.22h0l-.05.16Z" style="fill: #fb343d;"/>
        <path d="M40.25,27.16c-.16.05-.38.16-.55.22s-.38.16-.55.22l-.27.11h-.05l-.05.05h-.33c-.11,0-.16-.05-.27-.11v-.05h.05c.11,0,.22,0,.27.05h.38l.27-.11c.16-.05.38-.11.55-.16.16-.05.38-.11.55-.16h0v-.05Z" style="fill: #fb343d;"/>
        <path d="M38.12,25.58c.05,0,.11.11.11.16v.22c0,.05,0,.16-.05.22,0,.05-.05.11-.11.16h0v-.71h0l.05-.05Z" style="fill: #fb343d;"/>
        <path d="M38.07,26.56s.05.11.11.16v.33c0,.05-.05.11-.11.16h0v-.66h0Z" style="fill: #fb343d;"/>
        <path d="M37.96,27.27c.05.05.11.16.11.22v.11s0,.05-.05.11h0v-.44h-.05Z" style="fill: #fb343d;"/>
        <path d="M50.24,22.69c.22-.6.55-1.15.93-1.69.11-.11.16-.27.27-.38s.16-.27.27-.38c.22-.27.38-.49.6-.76.44-.49.87-.98,1.37-1.37s.98-.82,1.58-1.15c-.49.44-.93.87-1.42,1.31s-.87.93-1.31,1.42c-.22.22-.44.49-.6.71-.11.11-.22.27-.27.38l-.16.16-.16.16c-.38.49-.71,1.04-1.09,1.58h0Z" style="fill: #bdbba1;"/>
        <path d="M50.13,22.8c.16-.6.38-1.26.66-1.8.05-.16.16-.27.22-.44.05-.16.16-.27.22-.44.16-.27.33-.55.49-.82.33-.55.76-1.04,1.15-1.53s.87-.93,1.42-1.37c-.44.49-.82.98-1.2,1.47-.38.49-.76,1.04-1.15,1.53-.16.27-.33.55-.49.82-.05.11-.16.27-.22.44l-.11.22-.11.22c-.33.55-.6,1.15-.87,1.75h0v-.05Z" style="fill: #bdbba1;"/>
        <path d="M50.24,22.69c.11-.66.27-1.26.49-1.86.05-.16.11-.33.16-.44s.11-.33.16-.44c.11-.33.27-.6.44-.87.33-.6.66-1.15,1.04-1.64.38-.55.82-1.04,1.26-1.47-.38.55-.71,1.04-1.09,1.58-.33.55-.66,1.09-.98,1.64-.16.27-.27.55-.44.87-.05.16-.11.27-.22.44l-.11.22-.11.22c-.27.6-.49,1.2-.66,1.8h0l.05-.05Z" style="fill: #bdbba1;"/>
        <path d="M43.09,23.51c.49-.27,1.04-.44,1.64-.6.16,0,.27-.05.44-.11.16,0,.27-.05.44-.11.27-.05.6-.11.87-.11.6-.05,1.15-.11,1.75-.05s1.15.11,1.69.22h-1.69c-.6,0-1.15,0-1.69.11-.27,0-.55.05-.87.11-.16,0-.27,0-.44.05-.16,0-.27,0-.44.11-.55.11-1.09.27-1.69.44h0v-.05Z" style="fill: #bdbba1;"/>
        <path d="M43.2,22.25c.55-.16,1.15-.22,1.69-.27h1.75c.6,0,1.15.11,1.69.27s1.15.33,1.64.55c-.55-.11-1.15-.22-1.69-.33s-1.15-.16-1.69-.22h-1.75c-.6,0-1.15,0-1.69.11h0l.05-.11Z" style="fill: #bdbba1;"/>
        <path d="M30.58,24.16c.22-.6.49-1.2.66-1.8.16-.6.33-1.26.44-1.86.11-.66.22-1.26.22-1.91v-1.97h0c0,.66.05,1.31,0,1.97,0,.66-.11,1.31-.16,1.97s-.22,1.31-.38,1.91c-.16.66-.38,1.26-.6,1.86,0,.11-.11.11-.22.11s-.11-.11-.11-.22h0l.16-.05Z" style="fill: #2947a3;"/>
        <path d="M31.57,21.16c.33-.44.55-.93.76-1.47.22-.49.33-1.04.44-1.58h0c-.05.55-.16,1.09-.38,1.64s-.44,1.04-.71,1.53c0,0-.11.05-.16,0,0,0-.05-.11,0-.16h0l.05.05Z" style="fill: #2947a3;"/>
        <path d="M34.57,28.64l-2.84.38-3.77.55c-.6.11-1.15-.11-1.53-.49h0c-.38-.33-.6-.87-.6-1.42v-1.53h0v-1.86h8.79c-.49,1.58-.6,3.11-.11,4.42h0l.05-.05Z" style="fill: #365fd7;"/>
        <path d="M33.86,11.38c-.71.27-1.58.71-2.51,1.37-1.15.82-1.91,1.64-2.08,1.86,0,0-2.68,3.11-2.95,9.45v3.39c0,.49,0,1.04.11,1.58-.38-.33-.6-.87-.6-1.42v-1.53h0v-1.86h0c.27-5.79,1.37-10.76,5.02-12.07.38-.16.76-.33,1.15-.55.49-.22.98-.44,1.53-.71.11.16.22.27.33.44h0v.05Z" style="fill: #99adeb;"/>
        <path d="M34.68,24.32h-5.9s-.11,0-.11-.11,0-.11.11-.11h5.9s.11,0,.11.11,0,.11-.11.11Z" style="fill: #99adeb;"/>
        <path d="M36.04,31.59c.6-.11,1.26-.27,1.86-.49s1.2-.44,1.8-.71c.6-.27,1.15-.55,1.75-.87.55-.33,1.09-.71,1.64-1.09h.05c.05,0,0,0,0,0-.49.44-1.04.76-1.58,1.15-.55.33-1.15.66-1.69.98s-1.2.55-1.8.76-1.26.44-1.86.6c-.11,0-.22,0-.22-.11s0-.16.11-.22h-.05Z" style="fill: #2947a3;"/>
        <path d="M37.46,2.15s-1.75-.22-1.69,1.86c.33-.93.87-1.58,1.69-1.86Z" style="fill: #3e264a;"/>
        <path d="M38.01,3.03s-1.15-.16-1.15,1.26c.22-.6.55-1.04,1.15-1.26Z" style="fill: #3e264a;"/>
        <path d="M34.9,3.52s.44.6,1.09,0c-.38.16-.76.22-1.09,0Z" style="fill: #3e264a;"/>
      </g>
      <g>
        <path d="M91.75,10.94l-12.62,6.06-.27.11-.33.16s-.55-2.18-.16-2.79-.05-.71-.33-.71-1.64-.49-1.75-1.53v-.55c.38-1.42-.6-5.73-.6-5.73.11-.82.22-1.53.44-2.08.44-1.04,1.15-1.58,2.24-1.47h0c.44.05.98.22,1.58.55,0,0,.22-.27.66-.49.66-.44,1.86-.82,3.17,0,.55.33,1.09.93,1.64,1.75.33.49.87.82,1.42.87.6.05,1.26.16,1.58.33.6.33,1.04,2.24,1.58,2.62s1.75.66,2.02,1.53c.27.87-.27,1.26-.27,1.26h0v.11Z" style="fill: #472e5c;"/>
        <path d="M78.92,17.17l-.33.16s-.55-2.18-.16-2.79-.05-.71-.33-.71-1.64-.49-1.75-1.53c.66.82,1.42,1.31,2.08,1.42.22,0,.33.27.27.44-.16.6-.27,1.69.22,2.95h0v.05Z" style="fill: #9b65c9;"/>
        <g>
          <path d="M89.84,10.51c-.82,1.91-1.86,3.22-2.57,4.04-1.31,1.47-2.02,1.58-2.18,1.64-1.86.27-3.39-1.8-3.55-2.08.11,0,.82-.38.93-1.15v-.66c.55-1.37,1.04-2.73,1.58-4.15l.33-.16c.38,1.47,1.47,2.62,2.84,2.95s2.46-.33,2.73-.49h0l-.11.05Z" style="fill: #ffa897;"/>
          <path d="M88.69,10.62c.05.11.16.27.22.44-.11.16-1.37,2.18-3.71,2.29-1.64.05-2.79-.87-3.06-1.09l1.58-4.15.55.11c1.04,2.13,2.4,3.28,4.42,2.46h0v-.05Z" style="fill: #ff6d63;"/>
        </g>
        <g>
          <path d="M91.91,69.33c-.93-.27-1.97.49-1.97.49-.6.6-1.26.98-1.91,1.2-.27.11-.6.16-.87.16-2.29.22-3.93-1.53-1.42-2.35.16-.05.33-.11.49-.16,3-1.15,2.62-2.95,2.62-2.95h3.22s.76,3.82-.11,3.6h-.05Z" style="fill: #011e21;"/>
          <path d="M86.67,70.64c0,.22.27.44.49.6-2.29.22-3.93-1.53-1.42-2.35.16-.05.33-.11.49-.16,3-1.15,2.62-2.95,2.62-2.95h.76c0,4.53-2.84,4.53-2.89,4.86h-.05Z" style="fill: #052c32;"/>
          <path d="M94.1,70.15s.49,1.8-.38,3.17c0,0,0,.05-.05.11-.22.27-.66.49-1.09.6-1.42.33-3.44-.33-2.4-1.64,1.37-1.75,1.37-6.01,1.37-6.01h.66c0-.05,1.75-.22,1.75-.22l.27,1.09.22,1.04c0,.16.05.33.05.49,0,.44-.16.93-.44,1.31h0l.05.05Z" style="fill: #011e21;"/>
          <path d="M94.21,67.31c-.55.27-.93.76-1.04,1.31-.27,1.15-.49,2.46-.6,3.88v1.53c-1.42.33-3.44-.33-2.4-1.64,1.37-1.75,1.37-6.01,1.37-6.01h.66c0-.05,1.75-.22,1.75-.22l.27,1.09h0v.05Z" style="fill: #052c32;"/>
          <path d="M91.7,65.94c.05.38.16.76.22,1.15.11.05.49.27.98.16.44-.05.76-.33.87-.44,0-.22.11-.49.11-.76l-2.24-.16h0l.05.05Z" style="fill: #ffa897;"/>
          <path d="M88.91,65.78c.05.27.11.55.16.87.38.49.93.71,1.47.6.38-.05.6-.33.71-.44,0-.27-.05-.6-.11-.87l-2.24-.16h0Z" style="fill: #ffa897;"/>
        </g>
        <g>
          <path d="M91.31,66.38l-2.68-.22h-.33c-.33-4.59-1.04-9.07-2.02-13.54-.16-.44-.33-.82-.44-1.26-3.39-9.61-3.88-14.58-3.77-18.51l6.44.22,2.84,33.26h0l-.05.05Z" style="fill: #003b9c;"/>
          <path d="M90.28,64.63c.11-.33.16-.66.11-1.04-1.31-11.63-3.44-12.62-4.59-12.18-3.39-9.61-3.88-14.58-3.77-18.51l6.44.22,2.84,33.26-2.68-.22c.71-.38,1.37-.82,1.69-1.58h0l-.05.05Z" style="fill: #003182;"/>
          <path d="M94.75,52.23c1.42,5.79-.22,10.05-.6,14.31l-2.4-.16h-.44c-.38-5.79-.98-10.81-1.97-13.65l-1.47-18.51.44-.11,7.59-1.64c-.05,0-1.2,19.77-1.2,19.77h.05Z" style="fill: #003b9c;"/>
          <path d="M94.75,52.23c1.42,5.79-.22,10.05-.6,14.31l-2.4-.16c1.04-.6,1.69-1.69,1.75-2.95.11-5.63,0-10.7-2.68-10.76l-2.46-18.62,7.59-1.64c-.05,0-1.2,19.77-1.2,19.77h0v.05Z" style="fill: #003182;"/>
        </g>
        <path d="M99.07,25.2c-.44-.16-.82-.33-1.2-.49-1.47-.6-2.95-1.26-4.42-1.86h-.16c-.6-1.15-5.3-9.94-3.17-12.18,0,0,.05-.05.11-.11.22-.16.49-.33.82-.38h0c3.44-.05,6.12,5.19,8.03,15.02h0Z" style="fill: #fff;"/>
        <path d="M96.45,32.84c-1.37,1.42-3.22,2.29-5.13,2.79-1.26.27-2.51.38-3.77.33-1.2-.05-2.4-.33-3.39-.76-1.2-.49-2.18-1.2-2.79-2.13,0,0,.49-1.53.66-2.79.11-.6.16-1.09.05-1.37-.11-.44-.93-3.5-1.69-6.34-.33-1.26-.66-2.46-.93-3.44-.27-1.09-.49-1.8-.49-1.8v-1.2c.05,0,.11-.11.16-.16l2.95-2.29c.55,3.11,2.89,2.57,5.3-.27q1.06-1.24,0,0c.49-.6,1.04-1.31,1.53-2.08.76-.27,1.58-.44,2.35-.44h0c.22,0,.38.16.44.33v.11c.38,2.84.76,5.68,1.2,8.41.11.6.22,1.2.33,1.8.11.66.22,1.37.38,1.97.44,2.29.98,4.37,1.58,6.23.38,1.15.76,2.18,1.26,3.11h0Z" style="fill: #fff;"/>
        <g>
          <polygon points="80.77 18.92 86.34 16.08 89.29 25.8 82.58 29.51 79.95 19.3 80.77 18.92" style="fill: #8ca1fb;"/>
          <polygon points="86.34 16.08 87.33 16.73 90.06 25.09 89.29 25.8 86.34 16.08" style="fill: #6784e2;"/>
        </g>
        <g>
          <path d="M84.32,21.1c.6-1.15,1.37-2.29,2.29-3.44.11-.11.27-.22.44-.22.33,0,.71-.11,1.09-.22.11,0,.22.05.16.16-.16.38-.33.6-.6.98l-3.33,2.73h-.05Z" style="fill: #ff6d63;"/>
          <path d="M89.84,23.29h-.16l-1.53.27h0l-3.22,1.91c-.16.11-.27.22-.44.33-.11.11-.16.22-.22.33-.93,1.58-1.86,2.84-2.79,3.66-.49.44-.98.71-1.47.82l-.33-5.95.6-.38,2.18-1.42.55-.38c.38-.49.87-.98,1.31-1.47.38-.44.82-.82,1.2-1.26.55-.55,1.09-1.04,1.64-1.47.05-.05.16-.05.22,0,.38.16.87.44,1.31.87.27.27.49.6.66.82l.16,1.58.16,1.47v.22h0l.16.05Z" style="fill: #ffa897;"/>
          <path d="M89.78,23.07c0,.11-.11.16-.16.27l-1.53.27h0l-3.22,1.91c-.16.11-.27.22-.44.33-.11.11-.16.22-.22.33-.93,1.58-1.86,2.84-2.79,3.66-.16,0-.27-.05-.33-.05.11-.82.16-2.08-.22-3.6-.22-.71-.44-1.37-.71-1.86l2.18-1.42.55-.38s.11-.11.22-.22c.71-.6,1.53-.49,3.93-.27,1.53.11,2.29.22,2.57.76.05.11.11.22.11.33h0l.05-.05Z" style="fill: #ff6d63;"/>
          <path d="M89.24,20.01c-.16,0-.27-.05-.44-.11-.11,0-.27-.11-.44-.16s-.27-.11-.38-.16c-.11-.05-.27-.11-.38-.16h0c.16,0,.27.05.44.11.11,0,.27.11.44.16s.27.11.38.16c.11.05.27.11.38.22h0v-.05Z" style="fill: #ff6d63;"/>
          <path d="M89.67,20.99c-.16,0-.27-.05-.44-.11s-.27-.11-.44-.16-.27-.11-.38-.16c-.11-.05-.27-.11-.38-.16h0c.16,0,.27.05.44.11.11,0,.27.11.44.16s.27.11.38.16c.11.05.27.11.38.22h0v-.05Z" style="fill: #ff6d63;"/>
          <path d="M89.84,21.87c-.16,0-.27-.05-.44-.11-.11,0-.27-.11-.44-.16-.11-.05-.27-.11-.38-.16-.11-.05-.27-.11-.38-.22h0c.16,0,.27.05.44.11s.27.11.44.16.27.11.38.16c.11.05.27.11.38.22h0Z" style="fill: #ff6d63;"/>
          <path d="M87.65,19.14v.27s0,.11-.05.11c0,0-.05.05-.11.11h0c0-.11.05-.16.11-.22v-.22h0l.05-.05Z" style="fill: #ff6d63;"/>
          <path d="M88.04,20.06s.05.05.05.11v.27s-.05.05-.11.11h0c0-.11.05-.16.05-.27v-.22h0Z" style="fill: #ff6d63;"/>
          <path d="M88.25,20.99s.05.05.05.11v.27s-.05.05-.11.11h0c0-.11.05-.16.05-.27v-.22h0Z" style="fill: #ff6d63;"/>
        </g>
        <g>
          <path d="M77.88,9.03c.98,1.53,2.13,2.95,3,3.44.6.27,1.26.44,1.91.49.33,0,.66-.11.87-.44.11-.11.16-.27.27-.44.71-1.26.76-2.79.22-4.15l-1.42-3.5-2.46-.6-1.47.6-.87,4.53h0l-.05.05Z" style="fill: #ffa897;"/>
          <g>
            <path d="M80.61,7.34h0c.05.16.22.22.33.22s.27-.05.44-.05h.93c-.11-.11-.55-.49-1.15-.49s-.27,0-.44,0c-.11,0-.16.16-.11.27v.05Z" style="fill: #472e5c;"/>
            <path d="M79.3,7.94h0c.11.11.11.33,0,.44-.16.11-.33.27-.49.44-.16.16-.33.38-.49.55,0-.27.11-.66.38-1.09.05-.11.11-.22.22-.33s.27-.16.44,0h-.05Z" style="fill: #472e5c;"/>
            <g>
              <path d="M79.03,10.23h.22c.11-.11.27-.16.38-.27.05,0,.16-.11.22-.22.05-.05.11-.11.16-.16,0,0-.38-.11-.71.05-.16.11-.27.27-.27.38v.22h0Z" style="fill: #fcfcfc;"/>
              <path d="M81.1,8.92h.22c.16-.11.33-.22.49-.33.11-.05.22-.16.33-.33,0-.05.11-.11.11-.16,0,0-.55-.27-.82,0-.33.33-.33.44-.33.55v.22h0v.05Z" style="fill: #fcfcfc;"/>
              <path d="M82.25,8.1c-.16,0-.27-.05-.44,0-.16,0-.27.05-.38.16-.11.11-.22.16-.27.33s-.11.27-.11.44,0,0,0,0h0c-.05-.16-.05-.33,0-.49,0-.05.05-.16.11-.22,0-.05.11-.11.16-.16.11-.11.33-.16.49-.16s.33,0,.44.16h0v-.05Z" style="fill: #472e5c;"/>
              <path d="M81.81,8.43v.11c-.16.11-.33.22-.49.33-.11,0-.22-.11-.22-.22-.05-.16.05-.38.27-.44s.38.05.44.27h0v-.05Z" style="fill: #472e5c;"/>
              <path d="M80.01,9.58h-.38c-.11,0-.22.05-.33.11s-.16.16-.22.27-.05.22-.05.38,0,0,0,0h0v-.38c0-.11.11-.27.22-.33.11-.11.27-.11.38-.11s.27,0,.38.11h0v-.05Z" style="fill: #472e5c;"/>
              <path d="M79.63,9.85v.11c-.11.11-.27.16-.38.27-.11,0-.16-.11-.22-.22,0-.16,0-.33.22-.38.16,0,.33,0,.38.22h0Z" style="fill: #472e5c;"/>
              <path d="M80.61,10.62c0-.05-.11-.33,0-.55.16-.27.6-.38.98-.16l-1.04.71h.05Z" style="fill: #ff6d63;"/>
              <path d="M79.9,8.65c.16.11.27.22.38.38.11.16.16.33.22.49s.11.33.11.55v.55h0c0-.16,0-.33-.05-.49,0-.11,0-.16-.05-.22,0-.11-.05-.16-.05-.22-.05-.16-.11-.33-.22-.44-.05-.16-.16-.27-.27-.44h0l-.05-.16Z" style="fill: #ff6d63;"/>
              <path d="M82.36,10.78h0c0,.11,0,.16-.05.27,0,0,0,.11-.05.16,0,.05-.11.11-.22.16h-.27c-.16-.11-.33-.22-.55-.38v-.11h.11c.38-.16.66-.38.76-.76v-.16h.05c.05.22.11.44.16.6v.27h0l.05-.05Z" style="fill: #e84343;"/>
              <path d="M81.59,11s-.16-.11-.22-.16c.38-.16.66-.38.76-.76.16.27-.11,1.04-.55.93h0Z" style="fill: #eaeaea;"/>
            </g>
          </g>
        </g>
        <g>
          <path d="M79.95,4.5s.55,1.75-1.37,3.11-.87,3.66-.87,3.66c0,0-1.8-4.42-.49-6.23,1.31-1.8,3.71-1.97,3.71-1.97l3.71,2.29-.6,2.89c-.66,0-1.26-.49-1.8-1.64-1.31,0-2.02-.76-2.29-2.08h0v-.05Z" style="fill: #472e5c;"/>
          <path d="M80.06,4.5c0,.27.11.55.22.82s.27.49.49.71c.05,0,.11.11.16.11h.11c0,.11.05.11.11.11.11.05.27.11.38.16.27.11.55.11.87.11h-.87c-.16,0-.27-.11-.44-.16h-.22c-.05-.11-.11-.16-.16-.22-.22-.16-.44-.44-.55-.71s-.22-.55-.27-.87c0-.05,0-.11.11-.11.05,0,.11,0,.11.11h0l-.05-.05Z" style="fill: #9b65c9;"/>
          <path d="M84.49,5.26v.27c0,.11.05.22.11.27.05.16.16.38.33.49,0,0,.05.05.11.11h.05s0,.05.05.11c.11,0,.16.11.27.11.22.05.44.11.6.11h0s.05,0,.05.05c0,0,0,.05-.05.05h-.71c-.11,0-.22-.05-.33-.11h-.11c-.05-.05-.11-.11-.16-.16-.22-.16-.33-.33-.49-.55-.05-.11-.11-.22-.16-.33,0-.11-.05-.22-.11-.38,0-.11.05-.22.16-.22s.22.05.22.16h.16Z" style="fill: #9b65c9;"/>
        </g>
        <g>
          <path d="M83.39,6.9c-.22.6,0,1.26.49,1.42.44.16.98-.22,1.15-.82.22-.6,0-1.26-.49-1.42-.44-.16-.98.22-1.15.82Z" style="fill: #ffa897;"/>
          <path d="M84.27,6.68c-.11,0-.16,0-.27.11s-.11.11-.16.22-.05.16-.05.27v.27h0v-.33c0-.11,0-.22.11-.27,0-.11.11-.16.22-.22s.22-.11.27-.11,0,0,0,0h0l-.11.05Z" style="fill: #ff6d63;"/>
        </g>
        <g>
          <path d="M73.35,67.25l-.6,2.13-.93.66c-.44.16-1.09.44-1.86.87-1.64.93-1.91,1.53-2.95,1.64-.44,0-.98,0-1.42-.22-.38-.11-.66-.33-.82-.6h0c-.44-.71-.16-1.64.6-2.08h.11c.55-.27.82-.49,1.8-.87h0c.49-.22,1.26-.6,2.08-1.15.22-.05.44-.16.71-.22h0c-.16.16-.16.49-.16.49,0,.44-.93.76-.87,1.04,0,0,.05.11.22.16h.11c.27-.22.6-.49,1.09-.71.87-.38,1.69-.44,2.13-.38.66-.49.76-.66.76-.71h0v-.05Z" style="fill: #0087c5;"/>
          <path d="M73.35,67.25l-.6,2.13-.93.66c-.44.16-1.09.44-1.86.87-1.64.93-1.91,1.53-2.95,1.64-.44,0-.98,0-1.42-.22-.38-.11-.66-.33-.82-.6h0c-.44-.71-.16-1.64.6-2.08h.11c2.24.22,3.55-.27,3.55-.27l.27-.27h.11c.27-.22.6-.49,1.09-.71.87-.38,1.69-.44,2.13-.38.66-.49.76-.66.76-.71l-.05-.05Z" style="fill: #0074aa;"/>
          <path d="M72.53,67.96c-.33.27-.82.6-1.53.98-.93.55-1.64.55-2.08.38-.55-.22-.66-.82-.22-.98h0c.16-.05.33-.16.44-.22h0c.33-.22.66-.44.82-.71h0c.05-.11.11-.22.16-.33.16-1.04-4.92-14.04-4.92-14.04l3.88.6,1.47.22,1.91,14.2h0l.05-.11Z" style="fill: #ff9e8e;"/>
          <path d="M72.53,67.96c-.33.27-.82.6-1.53.98-.93.55-1.64.55-2.08.38.82-.22,1.42-.55,1.86-.87.76-.55,1.09-1.47.93-2.4l-2.57-12.51,1.47.22,1.91,14.2h0Z" style="fill: #ff6d63;"/>
          <path d="M75.04,67.52l.6,1.58-1.42,1.75-.98,1.26v.11h-1.91l-.6-1.09c.66-1.04,1.2-2.02,1.53-2.84.05-.16.11-.38.11-.6-.05-2.29-1.09-7.92-1.91-12.83,2.13-.55,3.39-.76,4.15-.82.98-.11,1.04.11,1.09.27.98,3.22,0,7.26-.49,12.12,0,.55-.11.98-.11,1.15h0l-.05-.05Z" style="fill: #ffa897;"/>
          <path d="M75.04,67.52l.6,1.58-1.42,1.75-.98,1.26-.87-.44c.76-1.42,1.37-2.73,1.58-3.88,1.09-5.3-.27-13.38-.27-13.38l.87-.38c.98-.11,1.04.11,1.09.27.98,3.22,0,7.26-.49,12.12,0,.55-.11.98-.11,1.15h0v-.05Z" style="fill: #ff5a58;"/>
          <path d="M75.97,69.98c-.44.66-.98,1.2-1.53,1.69-.22.16-.38.38-.49.66-.27.6-.6,1.26-.98,1.91-.22.38-.55.71-.87.93-.87.55-1.97.55-2.84-.05h0c-.44-.27-.33-1.09-.27-1.42.16-1.26,1.42-2.46,1.69-2.68.38-.55.76-1.09,1.15-1.64-.6.98-.44,1.97,0,2.24.16.11.38.11.6.05.38-.05.87-.33,1.26-.76l1.69-2.68-.27-.66v-.38c.33.16.6.44.82.71.49.6.55,1.47.11,2.13h0l-.05-.05Z" style="fill: #0074aa;"/>
          <path d="M72.09,75.11c-.87.55-1.97.55-2.84-.05h0c-.44-.27-.33-1.09-.27-1.42.16-1.26,1.42-2.46,1.69-2.68.38-.55.76-1.09,1.15-1.64-.6.98-.44,1.97,0,2.24.16.11.38.11.6.05-1.31,1.2-1.53,2.51-.27,3.5h-.05Z" style="fill: #0087c5;"/>
          <path d="M78.37,16.13c-.33.49-.93,1.26-1.8,1.86-2.18,1.53-5.84,2.02-7.76.22-2.08-1.97-.44-4.48-.44-4.48.44-.22.87-.49,1.2-.66.33-.22.49-.55.49-.93v-1.75h.44l2.95,2.4.66.49.38.98c.05.16.16.27.33.38.6.33,1.31.66,2.02.98.05,0,.11,0,.22.11.44.16.82.33,1.2.44h0l.11-.05Z" style="fill: #ffa897;"/>
          <path d="M77.11,15.7c-.6.38-1.15.76-1.75,1.15-.66-.27-1.58-.71-2.51-1.53-1.37-1.2-2.02-2.57-2.35-3.39.98.27,1.97.55,2.95.82l.66.49c0,.16.11.38.27.6.44.76,1.2,1.15,1.97,1.47.22.11.44.22.76.33h0v.05Z" style="fill: #ff6d63;"/>
          <g>
            <path d="M67.34,12.75v3.6c-.05,0-2.46,2.84-2.46,2.84l-.11.11s-.33-4.26.38-5.63,2.24-.98,2.24-.98h0l-.05.05Z" style="fill: #00b7ff;"/>
            <path d="M67.34,12.75v.11c-2.68-.6-2.35,3.22-2.46,6.34l-.11.11c-.05-.55-.11-1.31-.11-2.18,0-1.91,0-3.5,1.04-4.15.22-.16.76-.38,1.64-.22h0Z" style="fill: #b4daf7;"/>
            <path d="M79.9,51.63c-1.91,2.24-4.21,3.55-6.77,3.88-1.2.16-2.51.11-3.82-.11-2.08-.38-4.15-1.31-6.28-2.62h0s-.11-.05-.16-.11c-.05,0-.11-.11-.22-.11-.16-.11-.33-.22-.55-.38-.05,0-.11-.11-.16-.11,0,0-.11-.05-.16-.11-.05,0-.16-.11-.22-.16-.11-.11-.27-.22-.38-.27-.38-.33-.76-.6-1.15-.93.27-4.26.71-8.36,1.53-11.85,0-.11,0-.22.05-.33v-.22c0-.11.05-.27.11-.38v-.22c0-.05,0-.16.05-.22s0-.16.05-.22v-.71c0-.11,0-.16.05-.27,0-.05,0-.16.05-.22v-.11c0-.16.11-.33.16-.49,0-.11.05-.16.11-.27,0-.05,0-.11.05-.16h0v-.11c0-.05,0-.11.05-.16,0-.05,0-.11.05-.22,0-.05,0-.11.05-.22v-.11c0-.05,0-.11.05-.22h0c0-.05.05-.16.11-.22h0c0-.05,0-.11.11-.22v-.22c0-.05,0-.11.05-.16,0-.11.11-.16.11-.27,0-.05.05-.11.11-.22s0-.05.05-.11c0-.11.11-.22.16-.33,0-.05.05-.11.11-.16,0-.11.11-.22.16-.27,0-.05.05-.11.11-.16h0s.05-.11.11-.16c0-.05.05-.11.11-.22,0-.05.05-.11.11-.16h0c0-.05.11-.11.11-.22h0c0-.05.11-.11.11-.16h0c0-.05.11-.11.11-.16l.16-3.11c0-1.26.11-2.51.16-3.77-1.09-1.09-1.26-1.97-1.26-2.4v-.11c0-.87.44-1.53.93-2.29,0,0,.16-.27.27-.44,0,0,0-.05.05-.11,0-.05.05-.11.11-.16,0,0,0-.05.05-.11.05-.11.11-.16.16-.27v-.05c.11-.22.27-.44.38-.66h0c.11-.22.22-.44.33-.66h0c0-.16.11-.38.16-.55h0c.16-.55.33-1.04.44-1.58.11-.38.22-.76.33-1.2.38,0,.76,0,1.15.05.44,0,.87,0,1.31.05-3.11,1.53,1.37,5.52,5.24,3.77.55-.27,1.15-.66,1.64-1.15l1.97.76h.05v.11c-.11.55-.22,1.09-.33,1.58-.16.76-.33,1.53-.49,2.24-.33,1.37-.6,2.68-.93,3.88-.33,1.26-.71,2.51-1.09,3.66-.33,1.04-.71,2.08-1.09,2.95,0,0,1.47,1.8,2.57,5.9.49,1.8.93,4.1,1.09,6.88l1.47,8.08h0l.82-.11Z" style="fill: #00b7ff;"/>
            <path d="M79.9,51.63c-1.91,2.24-4.21,3.55-6.77,3.88-.76-5.24-.76-9.5-.66-12.51.16-3.99.66-6.23-.76-8.14-1.86-2.4-5.57-2.62-8.08-2.51.16-.33.33-.66.49-.93.11-.16.16-.27.22-.33h0c3.11.49,5.35-1.37,5.41-2.89,0-1.2-1.26-2.57-3.11-3.17,2.89,1.04,5.95.38,7.76-1.64,1.58-1.75,1.58-3.93,1.58-4.59.98,1.58,1.2,2.89,1.2,3.77.05,1.69-.55,3.33-1.8,6.66-.27.66-.49,1.2-.6,1.53,0,0,1.47,1.8,2.57,5.9.49,1.8.93,4.1,1.09,6.88l1.47,8.08h0Z" style="fill: #009ee6;"/>
            <path d="M60.57,50.05c.82.87,1.64,1.8,2.46,2.68h0s-.11-.05-.16-.11c-.05,0-.11-.11-.22-.11-.16-.11-.33-.22-.55-.38-.05,0-.11-.11-.16-.11,0,0-.11-.05-.16-.11-.05,0-.16-.11-.22-.16-.11-.11-.27-.22-.38-.27-.44-.33-.82-.66-1.15-.93-.33-7.1,1.15-12.56,2.89-16.6.11-.33.27-.6.44-.87-.76,2.02-1.53,4.42-2.08,7.26-.71,3.82-.82,7.15-.66,9.83h0l-.05-.11Z" style="fill: #b4daf7;"/>
            <path d="M66.3,14.93s-.11-.27-.27-.44l-.16-.16c.22,1.42-.33,2.89-1.04,4.48l.82-1.31.71-.98.11-.87-.16-.66h0v-.05Z" style="fill: #009ee6;"/>
            <path d="M64.66,19.3c-.27.6-.44,1.04-.44,1.69.05,1.2.93,2.02,1.37,2.4-.11.6-.22,1.31-.27,2.02-.16,1.86-.11,3.55.05,4.97-.27.11-.6.27-.93.49,0-.05.11-.11.11-.22h0c0-.05.11-.11.11-.16h0c0-.05.11-.11.11-.16.11-2.29.22-4.59.33-6.94-1.15-1.15-1.26-1.97-1.26-2.4v-.11c0-.87.44-1.53.82-2.13,0-.05.33-.55.38-.6,0-.05.05-.11.05-.11h0c0-.05.05-.11.11-.16,0,0,0-.05.05-.11.05-.11.11-.16.16-.27v-.05c.33-.55.6-.93.71-1.26.05-.22.16-.66-.05-1.26.11.22.27.6.27.98,0,1.2-1.09,1.64-1.86,3.44h0l.16-.05Z" style="fill: #b4daf7;"/>
            <path d="M67.83,18.43c.16.05.33.16.49.22l.44.22c.33.16.6.27.93.44.05,0,.16.05.22.11s.16.05.22.11c.11,0,.16.05.22.05.11,0,.16.05.22.05.33.11.66.16.98.22h0c.11,0,.11.11.11.16s-.05.11-.16.11c-.38,0-.71,0-1.09-.11-.33-.05-.71-.22-1.04-.33s-.66-.27-.98-.49c-.16-.11-.33-.22-.44-.33-.16-.11-.27-.22-.38-.33v-.11h.27Z" style="fill: #009ee6;"/>
            <path d="M81.59,28.8l-1.15-.49-2.4-1.04-1.09-3.17-2.18-6.5,1.53-.55,2.35-.82h.11c2.95,1.97,2.95,7.15,2.79,12.45h0l.05.11Z" style="fill: #00b7ff;"/>
            <path d="M81.59,28.8l-1.15-.49c.49-3.66,0-6.34-.44-7.92-.44-1.64-.93-2.51-1.75-3.06-1.26-.87-2.68-.71-3.28-.66.55-.27,1.15-.66,1.64-1.15l1.97.76h.16c2.95,1.97,2.95,7.15,2.79,12.45h0l.05.05Z" style="fill: #009ee6;"/>
            <path d="M71.98,26.51s-.11.93.38,1.26c.55.33.87.16.87.16,0,0,.27-.38.27-.44s-.44-1.15-.44-1.15l-1.15.16h.05Z" style="fill: #00b7ff;"/>
            <path d="M72.64,27.66c-.66-.49-.93-1.37-.76-2.08.22-.87.98-1.26,1.09-1.31.11.05.27.16.38.27.66.55.87,1.2.98,1.64-.33.49-.71.93-1.04,1.42-.22,0-.44.05-.71.11l.05-.05Z" style="fill: #4285b8;"/>
            <path d="M80.5,27.77s-.66-.76-1.09-.98-1.69,0-1.69,0l2.79,1.04h0v-.05Z" style="fill: #009ee6;"/>
            <g>
              <path d="M70.45,22.74v.22l-.16.66-1.69-.11-2.02-.16s-.11,0-.11-.11v-.05c0-.16.11-.27.27-.33,1.26-.11,2.46-.11,3.71-.05h0v-.05Z" style="fill: #ffa897;"/>
              <g>
                <path d="M73.4,24.6h0c-.33-.11-.71-.33-.98-.49l-1.91-1.31h-.11l-.98,3.33,1.58.82c.22.11.49.16.76.16h2.18v-2.24l-.49-.22h0l-.05-.05Z" style="fill: #ffa897;"/>
                <path d="M70.4,26.62c-.49.22-1.09.16-1.53-.22-.16-.11-.27-.22-.38-.33-.22-.22-.22-.49-.22-.66v-.16c-.16-.22,0-.87,0-.87-.11-.33.11-.76.22-.87h0l1.53.11-.71,2.51.98.49h.11Z" style="fill: #ffa897;"/>
                <path d="M68.38,24.32c.16,0,.38,0,.55-.05h1.64c-.16,0-.38,0-.55.05h-1.64Z" style="fill: #ff6d63;"/>
                <path d="M68.38,25.2c.16,0,.38,0,.55-.05h1.64c-.16,0-.38,0-.55.05h-1.64Z" style="fill: #ff6d63;"/>
                <path d="M69.19,26.02c.11,0,.22.05.33.11.11,0,.22.05.33.11s.22.11.33.16c.11,0,.22.11.27.16h0c-.11,0-.22-.05-.33-.11-.11,0-.22-.05-.33-.11s-.22-.11-.33-.16-.22-.11-.27-.16h0Z" style="fill: #ff6d63;"/>
                <path d="M70.56,25.47s-.05-.05-.11-.11,0-.11,0-.16v-.16s0-.11.05-.11h0v.44h0l.05.11Z" style="fill: #ff6d63;"/>
                <path d="M70.56,24.6s-.05-.05-.11-.11,0-.11,0-.16v-.16s0-.11.05-.11h0v.44h0l.05.11Z" style="fill: #ff6d63;"/>
                <path d="M70.56,23.72s-.05-.05-.11-.11,0-.11,0-.16v-.16s0-.11.05-.11h0v.44h0l.05.11Z" style="fill: #ff6d63;"/>
                <path d="M70.45,22.74h0c-.11,0-.22.05-.44.05-.76.11-1.31.11-1.58.11-.44,0-1.15,0-1.97.16,0-.16.11-.27.27-.33,1.26-.11,2.46-.11,3.71-.05v.05Z" style="fill: #ffbc8a;"/>
                <path d="M68.43,24.32s.11.6,0,.87c0,.11-.11.16-.11.11v-.16c-.16-.22,0-.87,0-.87-.11-.33.11-.76.22-.87,0,0,.05.16.05.33,0,.44-.16.49-.16.49h0v.11Z" style="fill: #ffbc8a;"/>
              </g>
            </g>
            <path d="M80.99,31.53c-.22.44-.71.66-1.2.55h-.16c-.6-.16-1.09-.44-1.64-.76l-5.63-3.5c.76-.11,2.02-1.91,1.04-3.11-.11-.11-.22-.27-.44-.38l6.01,2.89,1.37.66,1.2.66c0,1.09-.16,2.13-.66,3.11h0l.11-.11Z" style="fill: #009ee6;"/>
            <path d="M79.03,27.06c-.05.11-.22.11-.22.11l-5.41-2.62c-.11-.11-.22-.27-.44-.38l6.01,2.89h.05Z" style="fill: #00b7ff;"/>
            <path d="M68.98,47.04s-.33,2.57,0,4.48c.38,1.91.6,2.79.6,2.79l-1.15-.22c-.44-1.91,0-4.42.49-7.05h.05Z" style="fill: #b4daf7;"/>
            <path d="M67.28,36.5c0,.33,0,.66.05.93,0,.33.16.6.33.87s.38.49.6.66c.27.16.55.33.87.38h0v.05c0,.05,0,0-.05,0-.33-.05-.66-.16-.93-.38-.27-.16-.55-.44-.71-.71s-.27-.6-.38-.93c-.05-.33-.11-.66-.11-.98,0-.05.05-.16.16-.16s.16.05.16.16h0v.11Z" style="fill: #009ee6;"/>
            <path d="M75.26,29.62h0l-2.89-1.8v-.11s.11-.05.11,0l2.89,1.8v.11h-.11Z" style="fill: #4285b8;"/>
          </g>
          <g>
            <path d="M70.89,16.46c0,.38-.11.82-.27,1.2-.27.6-.6.71-.87,1.47-.16.55-.16,1.04-.16,1.37s0,1.09.33,1.86c-.16-.27-.38-.55-.55-.87h0c-.22-.49-.44-1.04-.44-1.69,0-1.42.76-1.86.6-3.06,0-.33-.11-.6-.27-.82-.49-.87-1.42-1.26-1.75-2.35-.27-.87-.22-2.24,1.47-4.42h.49c.44-.05.82-.27,1.04-.44,0,.55-.11,1.09-.11,1.64v1.58c-.05.11-.16.22-.27.38,0,0-.11.16-.16.38-.16.71.38,1.26.66,1.97,0,.11.33.87.27,1.8h0Z" style="fill: #1a2e35;"/>
            <path d="M69.41,15.26c0,.27-.05.55-.16.66-.49-.87-1.42-1.26-1.75-2.35-.27-.87-.22-2.24,1.47-4.42h.49c-.38.44-.93,1.09-1.2,2.02-.27.76-.55,1.75-.11,2.51.38.71,1.15.87,1.26,1.58h0Z" style="fill: #004e5c;"/>
            <path d="M69.74,19.14c-.16.55-.16,1.04-.16,1.37s0,1.09.33,1.86c-.16-.27-.38-.55-.55-.87h0c-.27-.76-.44-1.75,0-2.51.82-1.42.55-3.11.55-3.11,0,0,.44,1.31.38,1.58,0,0,.55-.22.6-1.04,0,.38-.11.82-.27,1.2-.27.6-.6.71-.87,1.47h0v.05Z" style="fill: #004e5c;"/>
            <g>
              <path d="M76.95,8.21s-.76,3.33-1.37,4.31-1.26,1.69-2.62,1.8h-.27c-1.26-.16-2.13-1.97-2.24-2.24-.11-.22,0-2.79.11-4.1v-.82l1.91-.98c.66-.05,1.26-.16,1.91-.22.82.76,1.69,1.47,2.51,2.24h.05Z" style="fill: #ffa897;"/>
              <path d="M71.82,11.87c.11.71.38,1.47.38,1.47.16.44.33.76.44.98-1.26-.16-2.13-1.97-2.24-2.24-.11-.22,0-2.79.11-4.1.05-.38.16-.71.22-1.09.93-.27,1.86-.6,2.73-.87-1.42,2.62-1.8,4.92-1.64,5.9h0v-.05Z" style="fill: #ffc297;"/>
              <path d="M76.51,11.82c0,.49,0,1.2.22,2.08,0,.11-.87-2.18-.6-3.17,0,0,.11-.38.27-.82.11-.27.16-.49.22-.66,0-.05-.11-.22-.22-.33-.49-.55-1.09-.27-1.42-.66-.6-.71-.38-1.8-.93-2.02-.16-.05-.38,0-.49.05s-.11,0-.16,0h-.05c-.22-.11-.49-.11-.76.05s-.33.44-.44.82c-.11.33-.38.76-.93,1.2-.16.71-.33,1.42-.44,2.13.11-1.04-.27-1.86-.82-2.02-.11,0-.27-.05-.55,0-.11-.16-.22-.44-.38-.76-.6-1.69-.11-4.04,1.26-4.59.22-.11.71-.22,1.47,0h0c.16-.33.55-.76,1.09-.98.49-.22.98-.27,1.53-.16.93.16,1.86.76,2.35,1.53.55.87.71,2.08.6,2.95-.05.33-.16.71-.11,1.2.05.66.22.76.22,1.2,0,.6-.38.71-.66,1.53-.16.49-.16.87-.22,1.37h0l-.05.05Z" style="fill: #1a2e35;"/>
              <path d="M73.35,6.41h-.05c-.22-.11-.49-.11-.76.05s-.33.44-.44.82c-.11.33-.38.76-.93,1.2-.16.71-.33,1.42-.44,2.13.11-1.04-.27-1.86-.82-2.02-.11,0-.27-.05-.55,0-.11-.16-.22-.44-.38-.76-.6-1.69-.11-4.04,1.26-4.59.22-.11.71-.22,1.47,0h0c.16.05.33.22.44.49-.16-.05-.55-.16-.98,0-.93.27-1.2,1.26-1.2,1.31,1.04-.82,1.97-1.15,2.35-.76.11.05.22.22.22.55,0,0-.76.22-.98.44l-.22.22s1.09-.16,1.26-.16c.33,0,.87.82.87,1.15h0l-.11-.05Z" style="fill: #004e5c;"/>
              <path d="M74.49,10.29h.66c.27,0,.49-.11.66-.22-.11-.33-.44-.49-.76-.44-.33.05-.55.33-.55.6h0v.05Z" style="fill: #fff;"/>
              <path d="M75.86,10.13c-.11-.11-.22-.22-.33-.33s-.27-.11-.44-.05c-.16,0-.27.11-.38.16-.11.11-.16.22-.22.38h0c0-.16,0-.33.16-.49,0-.05.11-.11.22-.16.05,0,.16-.05.27-.11.16,0,.38,0,.49.11.16.11.27.27.27.44h0l-.05.05Z" style="fill: #1a2e35;"/>
              <path d="M75.37,10.07v.16h-.6c-.05-.11-.11-.22-.05-.33,0-.16.27-.33.44-.22.16,0,.22.22.22.33h0v.05Z" style="fill: #1a2e35;"/>
              <path d="M71.65,10.34h.93c.11,0,.27-.05.49-.16-.16-.33-.49-.49-.82-.38-.27.05-.49.33-.55.6h0l-.05-.05Z" style="fill: #fff;"/>
              <path d="M73.07,10.18c-.11-.11-.22-.22-.33-.33s-.27-.11-.44-.05c-.16,0-.27.11-.38.16-.11.11-.16.22-.22.38h0c0-.16.05-.33.16-.49,0-.05.11-.11.22-.16.05,0,.16-.05.27-.11.16,0,.38,0,.49.11.16.11.27.22.27.44h0l-.05.05Z" style="fill: #1a2e35;"/>
              <path d="M72.53,10.02v.27h-.55c-.05-.11-.11-.22-.05-.33,0-.16.27-.27.44-.22.11,0,.22.11.22.22h0l-.05.05Z" style="fill: #1a2e35;"/>
              <path d="M74.66,9.25h0c.22-.44,1.26-.38,1.69-.16-.22-.27-.55-.44-.93-.49-.38,0-.76.27-.76.66h0Z" style="fill: #1a2e35;"/>
              <path d="M73.18,9.03h0c-.49-.44-1.09-.44-1.8-.22.11-.11.44-.38.93-.44h.16c.38,0,.66.27.71.66Z" style="fill: #1a2e35;"/>
              <path d="M73.18,11.65c.16-.16.38-.27.6-.16.16.05.27.22.27.38,0,0-.27.11-.49,0-.22-.05-.33-.22-.38-.27v.05Z" style="fill: #ff6d63;"/>
              <path d="M74.16,9.36c0,.22-.11.44-.11.66s0,.44-.05.66v1.31h0c-.05-.22-.11-.44-.16-.66v-.66c0-.22,0-.44.11-.66s.11-.44.22-.6h0v-.05Z" style="fill: #ff6d63;"/>
              <path d="M73.18,12.58h-.33c-.11,0-.22-.11-.33-.22s-.16-.22-.22-.33c0-.11-.05-.22-.11-.38h0c0,.11.11.22.16.33s.11.16.22.27c.11.05.16.11.27.16h.16s.11,0,.16.05h0v.11Z" style="fill: #ff6d63;"/>
              <g>
                <path d="M70.51,9.14c.22.55,0,1.15-.38,1.31s-.93-.11-1.09-.66c-.22-.55,0-1.15.38-1.31s.93.11,1.09.66Z" style="fill: #ffc297;"/>
                <path d="M69.69,8.98c.11,0,.16,0,.27.05.11,0,.16.11.22.22,0,.11.05.16.11.27v.27h0v-.27c0-.11,0-.16-.11-.22s-.11-.16-.16-.16-.16-.05-.22-.05h0l-.11-.11Z" style="fill: #ff9264;"/>
                <path d="M70.23,9.52c.05.22,0,.38-.11.44s-.33,0-.38-.22c-.05-.22,0-.38.11-.44s.33,0,.38.22Z" style="fill: #ff9264;"/>
              </g>
            </g>
          </g>
          <g>
            <polygon points="60.84 25.58 67.01 25.31 69.14 31.7 63.02 30.99 60.84 25.58" style="fill: #ff795d;"/>
            <path d="M57.73,21.59l3.17,3.93,2.13,5.46c-.82-.98-1.58-1.97-2.4-2.89-.98-2.13-1.97-4.31-2.95-6.44,0-.05,0-.11.11-.05h-.05Z" style="fill: #ff9283;"/>
            <path d="M57.84,21.76l2.24-2.08c1.15,1.86,2.24,4.53.82,5.9l-3.06-3.82h0Z" style="fill: #e0debf;"/>
            <path d="M67.01,25.31l.71-1.26c-2.73-1.37-5.02-.76-6.94,1.47l6.17-.22h.05Z" style="fill: #e0debf;"/>
            <path d="M69.14,31.7c.33-.44.6-.82.93-1.26-.76-2.13-1.53-4.26-2.29-6.39l-.71,1.26c.71,2.13,1.42,4.26,2.13,6.39h-.05Z" style="fill: #bdbba1;"/>
            <path d="M61,25.36c.38-.33.76-.66,1.2-.87l.33-.16s.11,0,.16-.05.11,0,.16-.05c.11,0,.22-.11.33-.11s.22-.05.38-.11c.49-.11.98-.22,1.47-.22s.98,0,1.47.16h-1.47c-.49,0-.98.11-1.42.27-.49.11-.93.27-1.37.49s-.87.44-1.26.71h0v-.05Z" style="fill: #bdbba1;"/>
            <path d="M61,25.36c.44-.27.87-.49,1.37-.66.11,0,.22-.11.38-.11.05,0,.11,0,.16-.05s.11,0,.16,0c.22-.05.49-.11.76-.16.49-.05.98-.11,1.53-.11.49,0,.98.11,1.47.22h-1.53c-.49,0-.98,0-1.47.11-.49.05-.98.16-1.47.33-.49.11-.93.33-1.42.49h0l.05-.05Z" style="fill: #bdbba1;"/>
            <path d="M61,25.36c.44-.22.93-.33,1.37-.44.11,0,.22-.05.38-.05s.22,0,.38-.05c.22,0,.49-.05.71-.05.49,0,.98,0,1.47.05s.98.16,1.42.33c-.49-.05-.98-.11-1.42-.16h-2.89c-.49.05-.93.16-1.42.27h0v.11Z" style="fill: #bdbba1;"/>
            <path d="M61,25.36c.05-.44.11-.82.11-1.26s-.05-.82-.16-1.2c0-.22-.11-.38-.16-.6s-.16-.38-.22-.55c-.16-.38-.44-.71-.66-1.04.33.27.6.6.82.98.22.38.38.76.49,1.2,0,.11,0,.22.05.33v.98c0,.44-.11.82-.22,1.26h0l-.05-.11Z" style="fill: #bdbba1;"/>
            <path d="M61,25.36c0-.38-.11-.76-.22-1.15,0-.11,0-.16-.11-.27v-.22c-.05-.16-.11-.33-.22-.55-.16-.33-.38-.66-.6-.98-.22-.33-.49-.6-.71-.87.33.22.6.49.87.76.27.33.44.66.66.98.11.16.16.38.22.55v.33c0,.11,0,.22.05.27.05.38.11.76.05,1.15h0Z" style="fill: #bdbba1;"/>
            <path d="M61,25.36c-.11-.33-.27-.71-.44-1.04s-.38-.66-.6-.93c-.22-.27-.49-.6-.71-.82-.27-.27-.55-.49-.87-.71.33.16.66.38.98.6s.55.55.76.82c.11.16.22.33.33.49.11.16.16.33.27.49.16.33.27.71.33,1.09h-.05Z" style="fill: #bdbba1;"/>
          </g>
          <g>
            <g>
              <path d="M62.31,30.66s.11,0,.22.05c.6.16.93.16,1.26.11.22,0,.44-.22.49-.44v-.49c-.66.27-1.31.49-1.97.76h0Z" style="fill: #ff6d63;"/>
              <path d="M63.46,26.84c0,.49-.38,1.04-.82,1.64-.05.11-.16.16-.22.22-.22.16-.44.27-.66.33h0c-.22.11-.44.16-.66.16h-.16s-.11-.16-.22-.33c-.16-.33-.33-.55-.33-.6-.27-.49-.38-1.31-.44-1.58.11.11.22.27.27.38.27.33.49.71.76,1.04.22-.05.44-.11.66-.16.44-.05,1.04-.76,1.37-1.15.11-.11.33-.16.44,0h0v.05Z" style="fill: #ffa897;"/>
              <path d="M64.99,29.35c-.22.33-.44.6-.66.87,0,0-.05.05-.11.11-.16.16-.38.27-.6.27l-1.26.11h0c-.11,0-.27,0-.38-.05-.22-.11-.38-.33-.38-.55h0c-.22-.11-.44-.38-.66-.82h.11l.66-.22h0l1.26-.33c.33-.33.71-.6,1.09-.76.16-.05.38,0,.49.11h0c.05.11.05.22,0,.33l-.16.44.33-.22c.05,0,.16,0,.22.05h0c.11.22.11.49,0,.66h.05Z" style="fill: #ffa897;"/>
              <path d="M64.5,28.86l-1.04.87h0l-1.15.22h0l1.09-.33h0l1.15-.71h0l-.05-.05Z" style="fill: #ff6d63;"/>
              <path d="M61.77,29.08s-.11.05-.16.05c0,0-.11,0-.16.05s-.11,0-.16,0h-.16s.11-.05.16-.05h.49v-.05Z" style="fill: #ff6d63;"/>
            </g>
            <path d="M61.93,30.61c-.22-.11-.38-.33-.38-.55h0c-.22-.11-.44-.38-.66-.82,0,0-.11-.16-.22-.33-.16-.33-.33-.55-.33-.6-.27-.49-.38-1.31-.44-1.58.11.11.22.27.27.38,0,.38.16,1.15.6,1.8.05.11.11.22.16.33h0c.44.71.6.76.6.76,0,0,.11.38.27.6h.11Z" style="fill: #ffbc8a;"/>
          </g>
        </g>
        <g>
          <g>
            <path d="M90.38,15.2c.16.71.33,1.47.55,2.18s.44,1.42.71,2.13c.11.33.27.71.44,1.04s.27.66.44,1.04c.16.33.33.66.49.98.16.33.33.66.55.98h-.05c-.22-.27-.44-.6-.6-.93-.22-.33-.38-.66-.55-.98-.16-.33-.33-.66-.49-1.04-.16-.33-.27-.71-.44-1.04-.27-.71-.49-1.42-.66-2.13s-.33-1.47-.44-2.18h.05v-.05Z" style="fill: #a1c9cf;"/>
            <path d="M91.09,22.63c.22,0,.38-.05.6-.05h1.75c.38,0,.76.05,1.15.11.22,0,.38.05.6.11.22,0,.38.11.6.16,0,0,.05.05,0,.11h0c-.22,0-.38.05-.6.05h-.6c-.38,0-.76,0-1.15-.05-.38,0-.76-.11-1.15-.16-.22,0-.38-.05-.6-.11-.22,0-.38-.11-.6-.16h0Z" style="fill: #a1c9cf;"/>
            <path d="M93.01,22.63c.11-.16.22-.27.38-.44s.33-.22.49-.33c.16-.05.33-.11.55-.16h.55c-.16,0-.33.11-.49.11s-.33.11-.49.16c-.16.05-.33.16-.49.22-.16.05-.33.16-.49.27h0v.16Z" style="fill: #a1c9cf;"/>
            <path d="M81.05,26.51c.11-.22.27-.44.44-.55.22-.16.44-.27.66-.33h0c-.11,0-.22.11-.33.16s-.22.11-.27.22c-.16.16-.33.33-.49.49h0Z" style="fill: #ff6d63;"/>
            <path d="M80.94,26.24c.05-.05.16-.11.22-.16s.22,0,.27,0h0c-.11,0-.16,0-.27.05-.11,0-.16.05-.22.11h0Z" style="fill: #ff6d63;"/>
            <path d="M99.07,25.2c-.16-.11-.38-.16-.6-.27-.38-.16-.76-.22-1.04-.33,0-3.5-.76-6.12-1.42-7.81-.98-2.57-2.13-5.63-4.37-5.9-1.64-.22-3.06,1.15-3.71,1.8.27-.38.66-.93.76-1.75v-.44c.87-.38,1.64-.44,2.35-.44h0c3.44-.05,6.12,5.19,8.03,15.02h0v.11Z" style="fill: #dae4fb;"/>
            <path d="M93.12,28.53c-.11,0-.44-.22-.66-.55-.22-.38-.16-.76-.16-.87.49.11.98.27,1.47.44l-.71,1.04h0l.05-.05Z" style="fill: #dedede;"/>
            <path d="M93.28,28.2c-.11,0-.33,0-.49-.11-.55-.33-.49-1.2-.49-1.58,0-.82-.11-2.02-.55-3.77l2.29.87-.11,4.42c-.22.05-.44.11-.66.22h0v-.05Z" style="fill: #8f8f8f;"/>
            <path d="M95.03,25.36l-1.47,2.51s-7.37-3.17-7.76-3.17c-.44,0-.93.49-1.75.93-.82.44-1.26-.22-1.64-.22-.22,0-.33.05-.38.16-.05.11-.11.16-.11.16h.22c.11,0,.16.11.16.16-.16.11-.38.27-.6.55-.11.11-.16.22-.27.33-.11.22-.33.27-.6.22-.11,0-.22-.05-.38-.11h0c-.66-.27-.38-1.04-.38-1.04-.93-.05-.76-1.04-.76-1.04-.87-.22-.44-.98-.44-.98l.76-1.04-1.2-.66c-.22-.11-.44-.16-.66-.22-.66-.11-1.04-.33-1.26-.55-.05,0-.11-.11-.11-.16-.11-.11,0-.33.16-.33l1.53.11,2.62.87c.22.05.38.11.6.11l9.61.66h.76c0,.05,1.15.27,1.15.27l2.08,2.46h.11Z" style="fill: #ffa897;"/>
            <path d="M91.8,22.69c.76.33,1.15.76,1.37,1.04.93,1.2.87,3.11-.05,4.81.27.11,2.46,1.09,4.48,0,.87-.49,1.37-1.2,1.64-1.64h0c.27-1.47-.55-2.95-1.97-3.44s-3.39-.6-5.46-.71h0v-.05Z" style="fill: #dae4fb;"/>
            <path d="M82.41,25.42s-.16,0-.38.16c-.44.16-1.09.6-1.53,1.37-.66-.27-.38-1.04-.38-1.04-.93-.05-.76-1.04-.76-1.04-.87-.22-.44-.98-.44-.98l.76-1.04s1.2.22,1.58.6c.38.33,1.15,2.02,1.15,2.02h0v-.05Z" style="fill: #ffbc8a;"/>
            <path d="M80.12,25.85c.11-.22.22-.38.38-.55s.33-.33.49-.49c.16-.11.38-.27.6-.33.22-.11.44-.16.66-.22h0c-.22.11-.38.16-.6.27-.11.05-.16.11-.27.16-.11.05-.16.11-.27.16-.16.11-.33.27-.49.44-.16.16-.27.33-.44.49h-.05v.05Z" style="fill: #ff6d63;"/>
            <path d="M90.99,22.69h-5.79c-2.29,0-2.79-.22-3.71-.27-.66,0-2.51-.76-2.95-.98-.38-.16-1.42-.05-1.86,0-.05,0-.11-.11-.11-.16-.11-.11,0-.33.16-.33l1.53.11,2.62.87c.22.05.38.11.6.11l9.61.66h-.11Z" style="fill: #ffbc8a;"/>
          </g>
          <path d="M79.35,24.82c.16-.33.44-.66.71-.87.16-.11.33-.22.49-.33.16-.11.33-.16.49-.22h0c-.16.11-.33.22-.49.33-.16.11-.27.22-.44.33s-.27.22-.38.38-.22.27-.38.44h-.05l.05-.05Z" style="fill: #ff6d63;"/>
        </g>
      </g>
    </g>
  </g>
</svg>