<?xml version="1.0" encoding="UTF-8"?>
<svg id="_圖層_2" data-name="圖層 2" xmlns="http://www.w3.org/2000/svg" width="1920" height="540" xmlns:xlink="http://www.w3.org/1999/xlink" viewBox="0 0 1920 540">
  <defs>
    <clipPath id="clippath">
      <rect width="1920" height="540" style="fill: none; stroke-width: 0px;"/>
    </clipPath>
    <linearGradient id="_未命名漸層_4" data-name="未命名漸層 4" x1="958" y1="0" x2="958" y2="701" gradientUnits="userSpaceOnUse">
      <stop offset="0" stop-color="#fff"/>
      <stop offset="1" stop-color="#94e9fe"/>
    </linearGradient>
  </defs>
  <g id="_第一cut" data-name="第一cut">
    <g id="bg1_1-02">
      <g style="clip-path: url(#clippath);">
        <g>
          <g>
            <path d="m1611.66,77.74v-16.35s.04-.08.05-.12c.17-.91.99-1.56,1.92-1.51h23.34c1.03-.05,1.9.74,1.95,1.77v15.86c0,.21-.03.42-.08.62-.25.85-1.05,1.41-1.94,1.36h-.9c.14.84.26,1.65.4,2.45.17.58-.17,1.19-.75,1.36,0,0,0,0,0,0-.33.08-.68.03-.97-.15l-2.73-1.44c-.22-.13-.48-.13-.7,0l-2.58,1.36c-.17.09-.35.17-.53.23-.53.16-1.09-.13-1.26-.66v-.09c-.04-.22-.04-.44,0-.66.12-.75.26-1.57.39-2.39h-13.51c-.98.09-1.87-.59-2.04-1.57-.02-.03-.04-.05-.07-.07Zm24.04,0h1.03c.51,0,.57-.05.57-.56v-15.35c0-.49-.05-.54-.53-.54h-22.98c-.5,0-.54.05-.54.55v15.61c0,.17.12.32.29.33h13.55c.07,0,.14,0,.21,0,.14,0,.2-.05.23-.2.08-.5.17-.99.24-1.51,0-.13-.04-.26-.12-.36-.75-1.02-1.07-2.29-.89-3.54.36-2.67,2.82-4.55,5.49-4.2,2.67.36,4.55,2.82,4.2,5.49-.11.82-.42,1.6-.92,2.26-.07.08-.11.18-.11.28.08.57.18,1.15.27,1.72v.02Zm-4.11-1.59c1.83,0,3.31-1.46,3.32-3.29s-1.46-3.31-3.29-3.32c-1.83,0-3.31,1.46-3.32,3.29h0c0,1.82,1.47,3.3,3.29,3.31v.02Zm3.07,5.07l-.67-4.09c-1.49.81-3.29.81-4.77,0l-.66,4.07c.09-.03.17-.07.26-.11.5-.26,1.02-.51,1.51-.81.77-.5,1.76-.5,2.54,0,.56.33,1.15.61,1.79.95h.02Zm-.75-15.29c.12,0,.23,0,.35,0,.41-.04.71-.42.67-.83,0-.01,0-.03,0-.04v-.11c-.12-.41-.41-.6-.95-.6h-17.95c-.09,0-.18,0-.26,0-.4.03-.72.35-.75.75-.01.35.21.66.54.75.14.03.28.05.42.05h17.93v.03Zm-18.07,2.82c-.34-.02-.65.19-.75.51-.15.41.06.87.48,1.02,0,0,0,0,0,0,.11.04.22.05.34.05h7.55c.3.02.58-.12.75-.36.25-.33.18-.8-.15-1.05-.02-.01-.04-.03-.05-.04-.14-.09-.3-.14-.46-.14h-7.71,0Z" style="fill: #fff; stroke-width: 0px;"/>
            <g>
              <path d="m1648.13,65.67h-5v-1.27h2c-.12-.4-.29-.79-.52-1.14l1.36-.43c.25.5.46,1.03.62,1.57h1.54v1.27Zm-.26,2.39h-4.29v-1.28h4.29v1.28Zm0,2.36h-4.29v-1.31h4.29v1.31Zm0,6.27h-1.36v-.7h-1.6v1h-1.33v-5.49h4.29v5.19Zm-1.36-2v-1.94h-1.6v1.94h1.6Zm3.64-3c-.14,1.5-.43,2.97-.87,4.41l-1.17-.71c.37-1.31.62-2.65.74-4l1.3.3Zm6.47-8.35c0,1.14,0,2.25-.1,3.34-.01.67-.07,1.34-.18,2-.06.22-.17.43-.32.61-.16.2-.36.34-.6.43-.42.12-.86.17-1.3.15h-.68l-.54-1.3h1.58c.26,0,.49-.18.53-.44.16-1.12.22-2.25.19-3.38h-1.62c-.09,2.72-1.91,5.07-4.52,5.84l-.84-1.13c.99-.32,1.9-.85,2.66-1.56-.56-.58-1.18-1.1-1.84-1.55l.89-1c.62.43,1.19.92,1.71,1.46.3-.66.48-1.35.55-2.07h-3.53v-1.34l7.96-.06Zm-1.49,10.4c.02.59-.05,1.18-.2,1.75-.09.4-.33.76-.66,1-.48.23-1.02.33-1.55.29-.43.02-.87-.01-1.29-.1-.22-.07-.41-.22-.54-.41-.15-.21-.23-.46-.22-.72v-4h1.36v3.56c0,.09.04.18.12.24.22.08.46.11.69.08.36.11.74-.08.86-.44.03-.1.04-.21.02-.31.07-.44.11-.88.1-1.32l1.31.38Zm-.88-1.93l-1,.82c-.6-.76-1.31-1.43-2.09-2l1-.89c.8.59,1.51,1.29,2.11,2.07h-.02Zm3,3.25l-1.26.57c-.33-1.34-.75-2.65-1.27-3.93l1.2-.6c.6,1.29,1.06,2.63,1.38,4.01l-.05-.05Z" style="fill: #fff; stroke-width: 0px;"/>
              <path d="m1664.21,65.63h-4.93v-1.31h1.92c-.08-.17-.29-.57-.62-1.19l1.49-.41c.18.36.43.9.75,1.6h1.39v1.31Zm-.43,11h-1.38v-.69h-1.4v1h-1.39v-5.53h4.17v5.22Zm0-8.6h-4.14v-1.33h4.14v1.33Zm0,2.32h-4.16v-1.33h4.16v1.33Zm-1.41,4.28v-1.89h-1.4v1.89h1.4Zm11-6.19l-.75,1.09c-.7-.47-1.33-1.03-1.88-1.67v.87h-4.3v-.82c-.47.57-1,1.1-1.57,1.57l-.86-1.06c.56-.43,1.08-.92,1.53-1.47-.36-.38-.77-.72-1.21-1l.92-.86c.36.23.69.49,1,.79.27-.44.49-.9.65-1.39h-2.19v-1.28h3.52v1.27c-.36,1.04-.85,2.02-1.47,2.93h3.67c-.93-1.26-1.55-2.74-1.78-4.29l1.23-.21c.04.28.1.56.19.83.33-.22.64-.47.93-.75l.86.86c-.42.4-.89.76-1.39,1.06.07.15.15.34.24.56.59-.28,1.12-.67,1.58-1.13l.89.92c-.53.51-1.13.95-1.78,1.3.57.71,1.24,1.34,2,1.84l-.03.04Zm-.39,8.34h-8.72v-1.3h2.19c-.14-.52-.34-1.03-.59-1.51l1-.59h-1.63v-3.76h6.65v3.76h-1.75l1.12.63c-.17.54-.34,1.03-.51,1.47h2.27l-.03,1.3Zm-2.43-4.63v-1.3h-3.92v1.26l3.92.04Zm-.68,1.23h-2.7c.29.69.54,1.39.75,2.1h1.25c.31-.69.56-1.4.73-2.14l-.03.04Z" style="fill: #fff; stroke-width: 0px;"/>
              <path d="m1689.28,67.82l-.67,1.28c-.47-.09-.94-.23-1.39-.4v6h-6.75l.68.8c-1.7.75-3.49,1.26-5.32,1.54l-.69-1.29c1.49-.16,2.96-.49,4.37-1h-2.38v-6h3l-.61-.88c1.64-.33,3.11-1.21,4.18-2.49l1.45.32c-.1.19-.21.37-.35.54,1.38.8,2.9,1.34,4.48,1.58Zm-9.36-.44h-4.66v-1.27h4.66v1.27Zm-.14-2.55h-4.31v-1.28h4.31v1.28Zm6,5.54v-.56h-7.13v.56h7.13Zm0,1.63v-.59h-7.13v.59h7.13Zm0,1.67v-.63h-7.13v.63h7.13Zm3.22-8.66c-.43.62-.9,1.22-1.4,1.79l-1.21-.72c.13-.16.42-.51.86-1.07h-5c-.43.5-.91.98-1.41,1.41l-1.08-.93c.96-.75,1.76-1.67,2.38-2.72l1.31.44c-.06.2-.16.39-.3.56h5.89l-.04,1.24Zm-1.94,3.66c-1.11-.37-2.16-.88-3.13-1.54-.76.67-1.65,1.19-2.6,1.54h5.73Zm2.12,7.21l-.76,1.24c-1.53-.49-3.1-.82-4.69-1l.74-1.2c1.6.13,3.18.46,4.71.96Z" style="fill: #fff; stroke-width: 0px;"/>
              <path d="m1696.4,65.59h-5.18v-1.28h2c-.13-.35-.3-.69-.51-1l1.41-.53c.27.49.5,1.01.7,1.53h1.54l.04,1.28Zm-.35,2.38h-4.45v-1.28h4.45v1.28Zm0,2.34h-4.45v-1.27h4.45v1.27Zm0,6.23h-1.41v-.72h-1.68v1.1h-1.38v-5.54h4.47v5.16Zm-1.41-2v-1.81h-1.68v1.81h1.68Zm10.67-1.33c-.06.77-.2,1.54-.43,2.28-.11.47-.32.92-.63,1.29-.19.17-.44.26-.69.26-.31,0-.61-.13-.82-.36-.37-.66-.6-1.39-.67-2.15-.2-1.06-.3-2.13-.31-3.2v-6.67h-2.17v4.31h1.72v1.38h-1.72v6.62h-1.37v-6.62h-1.49v-1.38h1.49v-4.31h-1.3v-1.35h6.21v8.34c0,1.22.17,2.42.52,3.59.22-.92.35-1.86.38-2.81l1.28.78Z" style="fill: #fff; stroke-width: 0px;"/>
            </g>
            <g>
              <path d="m1311.54,72.94c-1.38.94-2.83,1.79-4.33,2.53l-.42-1.28c.49-.24,1.07-.55,1.76-1v-3.82h-1.36v-1.26h1.36v-3.09h-1.62v-1.31h4.41v1.31h-1.46v3.09h1.3v1.34h-1.3v3.06c.45-.28.94-.61,1.49-1l.17,1.43Zm8.63-.67h-4.37c-.39.51-.84.99-1.33,1.41v1.58c.66-.2,1.36-.44,2.08-.72l.18,1.27c-1.12.48-2.29.85-3.48,1.11l-.39-1.08c.19-.13.31-.35.3-.58v-.6c-.63.37-1.27.71-1.94,1l-.7-1.22c1.31-.49,2.51-1.24,3.54-2.19h-2v-3h8.1v3.02Zm.68-3.75h-9.29v-1.16h9.29v1.16Zm-.43-1.85h-8.48v-3.46h8.48v3.46Zm-6.07-1.17v-1.12h-1.07v1.12h1.07Zm4.45,5.61v-.7h-5.32v.7h5.32Zm-2.07-5.63v-1.12h-1.09v1.12h1.09Zm4.31,10.37l-.73,1.15c-1-.3-1.9-.85-2.62-1.6-.71-.69-1.21-1.56-1.46-2.51l1.22-.31c.13.44.34.85.61,1.21.6-.37,1.15-.81,1.65-1.3l1,.88c-.54.51-1.14.97-1.78,1.36.62.51,1.33.9,2.09,1.14l.02-.02Zm-2-10.37v-1.12h-1.06v1.12h1.06Z" style="fill: #fff; stroke-width: 0px;"/>
              <path d="m1327.32,73.95c-1.34.74-2.72,1.4-4.13,2l-.4-1.36c.69-.28,1.2-.49,1.53-.65v-5.63h-1.32v-1.37h1.32v-4h1.39v4h1.14v1.37h-1.14v5l1.45-.75.16,1.39Zm9.67.47c-.03.56-.14,1.11-.32,1.64-.1.29-.31.53-.58.68-.53.16-1.09.22-1.64.18-.48.03-.96-.05-1.41-.24-.3-.18-.47-.51-.44-.86v-2.71h-1.53c0,.98-.36,1.92-1,2.66-.87.77-1.96,1.25-3.11,1.38l-.68-1.26c.92-.05,1.81-.35,2.57-.87.54-.49.85-1.18.87-1.91h-1.83v-4.87h8.29v4.87h-2.17v2.18c0,.27.14.41.43.41.52,0,.85-.08,1-.23.2-.46.29-.95.27-1.45l1.28.4Zm-.28-6.92h-9.4v-1.18h2.22c-.16-.39-.35-.78-.56-1.15h-1.12v-1.25h3.37c-.09-.29-.2-.57-.33-.85l1.52-.27c.18.35.32.73.4,1.12h3.36v1.25h-1.12c-.15.4-.34.78-.55,1.15h2.21v1.18Zm-2,2.58v-.67h-5.42v.7l5.42-.03Zm0,1.76v-.73h-5.42v.71l5.42.02Zm-1.31-6.67h-2.84c.22.36.4.75.55,1.15h1.69c.25-.36.46-.74.62-1.15h-.02Z" style="fill: #fff; stroke-width: 0px;"/>
              <path d="m1343.56,65.7h-4.67v-1.27h1.78c-.13-.44-.28-.88-.47-1.3l1.36-.36.59,1.66h1.41v1.27Zm-.38,2.36h-3.9v-1.25h3.9v1.25Zm0,2.34h-3.9v-1.29h3.9v1.29Zm0,6.24h-1.33v-.64h-1.25v1h-1.35v-5.49h3.93v5.13Zm-1.33-2v-1.87h-1.25v1.87h1.25Zm11-.38h-1v1.3c.03.38-.12.76-.42,1-.43.21-.92.31-1.4.27h-.9l-.41-1.32h1.45c.23,0,.35-.11.35-.33v-.94h-4.64v2.63h-1.33v-2.63h-.73v-1.03h.73v-3.65h3v-.89h-3.92v-1.14h2.1v-.73h-1.38v-1.09h1.38v-.72h-1.7v-1.15h1.7v-.9h1.29v.9h2.34v-.9h1.33v.87h2v1.15h-2v.75h1.44v1.09h-1.44v.73h2.11v1.14h-3.9v.89h3v3.65h1l-.05,1.05Zm-5.29-2.9v-.72h-1.65v.72h1.65Zm0,1.82v-.78h-1.65v.78h1.65Zm1.81-7.5v-.72h-2.34v.72h2.34Zm0,1.82v-.73h-2.34v.73h2.34Zm1.18,3.86v-.73h-1.66v.73h1.66Zm0,1.82v-.78h-1.66v.78h1.66Z" style="fill: #fff; stroke-width: 0px;"/>
              <path d="m1359.39,67.53c-1.3.74-2.63,1.41-4,2l-.56-1.18c1.44-.59,2.83-1.28,4.18-2.06l.38,1.24Zm1.88.66c.02.33-.08.66-.28.92-.16.21-.39.35-.65.4-.44.06-.88.08-1.32.07l-.47-1.26h.84c.32,0,.49-.15.49-.46v-3.35h-4.77v-1.27h6.16v4.95Zm-2.86-2.48l-.81,1c-.71-.39-1.47-.68-2.26-.87l.83-1.06c.78.21,1.54.53,2.24.93Zm8.93,11.21h-1.42v-.63h-8.12v.63h-1.39v-6.61h4.39c.24-.34.44-.7.61-1.08l1.51.24c-.11.3-.26.58-.43.84h4.84v6.61Zm-1.42-4.2v-1.13h-8.12v1.13h8.12Zm0,2.34v-1.18h-8.12v1.23l8.12-.05Zm.49-7.56c-1.24.63-2.53,1.16-3.86,1.59l-.57-1.14c1.37-.47,2.72-1,4-1.61l.43,1.16Zm1.88.43c.03.41-.07.82-.3,1.16-.16.22-.4.38-.67.44-.5.05-1,.07-1.5.06l-.48-1.25h1c.13,0,.24-.06.34-.14.1-.07.17-.18.18-.31v-3.38h-4.72v-1.27h6.11l.04,4.69Zm-3.22-2.09l-.9,1c-.59-.41-1.23-.75-1.91-1l.85-1c.7.23,1.36.57,1.96,1Z" style="fill: #fff; stroke-width: 0px;"/>
            </g>
            <path d="m1278.49,81.1c.04-.07.09-.14.14-.2,1.46-1.37,3.76-1.3,5.13.17,0,0,0,0,0,0h2.78c.04-.07.08-.14.14-.2,1.47-1.37,3.77-1.3,5.14.17,0,0,0,0,0,0h.96c-.27-.47-.66-.86-1.11-1.14-.31-.21-.65-.38-.98-.56h0l.14-.14c.36-.32.58-.75.64-1.23.06-.54.06-1.09,0-1.63-.16-1.18-1.17-2.07-2.36-2.06-1.18,0-2.19.87-2.36,2.04-.04.35-.06.7-.05,1.05-.04.73.26,1.45.82,1.93.02.03.04.06.06.1-.84.32-1.57.87-2.1,1.6v-8.35h16.36c.45,0,.57-.12.57-.56v-13.44c0-.43-.12-.56-.55-.56h-19.85c-.44,0-.56.13-.56.56v4.06c.04.18-.08.35-.26.39,0,0,0,0,0,0h0c-.82.23-1.44.89-1.63,1.72-.37,1.12-.17,2.36.55,3.3v.05h-.2c-1.56-.05-2.86,1.18-2.91,2.74,0,0,0,0,0,0,0,.07,0,.14,0,.21v4.66c-.03.94.59,1.78,1.51,2.03.1.04.17.13.2.23.12.46.36.88.7,1.2.04.04.08.09.12.14l-.53.26c-.65.32-1.2.82-1.58,1.44l1.07.02Zm7.08-9.23v-.89h3.65c.31.03.61-.12.79-.38.75-1.02,1.6-2.01,2.4-3.01.32-.32.46-.78.36-1.23-.07-.33-.27-.62-.56-.8-.15-.07-.24-.24-.21-.41v-4.97c0-.3-.17-.48-.4-.48s-.38.19-.39.5v5.18c-.62.15-1.16.54-1.51,1.08-.43.52-.85,1.05-1.28,1.56-.07.08-.18.14-.29.15h-4.05v-.06c.7-.91.91-2.11.56-3.2-.2-1.02-1.03-1.79-2.06-1.93l-.24-.05v-4h19.37v12.94h-16.15Zm-2.91,7.53s0-.05,0-.07c1.02-.89.99-2.07.75-3.22-.29-1.27-1.56-2.07-2.83-1.78-.32.07-.62.21-.88.4l-.23.16v-3.87c-.06-.21-.28-.33-.48-.27-.13.04-.23.14-.27.27h0v5.98c-.48-.12-.81-.55-.82-1.04v-5.12c.06-1.04.91-1.86,1.95-1.87h8.28c.33.03.65-.12.84-.39.51-.67,1.06-1.3,1.61-1.94.19-.28.5-.46.84-.49.22-.03.44.08.55.28.1.2.06.44-.1.6l-1.8,2.26c-.19.24-.39.47-.57.75-.09.14-.25.22-.42.2h-3.76c-.46,0-.58.11-.58.57v10.15c-.56-.68-1.29-1.21-2.11-1.54l.03-.02Zm-2.3-14.31c.24-.98,1.23-1.58,2.2-1.34.8.2,1.37.91,1.39,1.74.03.44,0,.87-.06,1.3-.21.9-1.06,1.5-1.98,1.38-.9-.12-1.59-.87-1.61-1.78v-.45h0c0-.28.04-.56.08-.84h-.02Zm2.33,12.8c-.23.87-1.11,1.38-1.98,1.16-.7-.18-1.2-.81-1.21-1.54-.03-.41,0-.82.05-1.23.17-.81.94-1.35,1.76-1.24.81.1,1.42.79,1.43,1.6v.43h0c0,.28-.04.55-.08.82h.02Zm8.11-.13c-.17.88-1.03,1.46-1.91,1.28-.77-.15-1.32-.82-1.31-1.6-.02-.39,0-.79.05-1.18.18-.81.96-1.34,1.78-1.23.8.11,1.4.78,1.42,1.59v.45h0c.02.23.02.46,0,.69h-.02Zm3.85,3.28c.04-.07.08-.14.14-.2,1.47-1.37,3.77-1.3,5.14.17,0,0,0,0,0,0h.96c-.22-.3-.48-.59-.75-.84-.43-.32-.88-.63-1.34-.9h0l.14-.14c.36-.32.59-.75.65-1.23.06-.55.06-1.11,0-1.66-.17-1.17-1.17-2.04-2.36-2.03-1.18,0-2.19.86-2.37,2.03-.04.33-.05.67-.05,1-.05.75.26,1.48.82,1.98l.07.09-.48.23c-.67.32-1.23.83-1.63,1.46l1.06.03Zm4.19-3.15c-.23.87-1.11,1.38-1.97,1.16-.7-.18-1.2-.81-1.21-1.53-.03-.42,0-.84.06-1.26.18-.81.96-1.34,1.78-1.22.8.11,1.4.78,1.41,1.59v.43h0c0,.28-.03.56-.08.84h.02Z" style="fill: #fff; stroke-width: 0px;"/>
            <g>
              <path d="m1532.1,73.45c-.16,1.2-.46,2.38-.89,3.51l-1.25-.54c.43-1.07.74-2.19.9-3.33l1.24.36Zm3.81-1.34l-1.18.4c-.06-.26-.12-.53-.21-.81-1.32.4-2.65.74-4,1l-.47-1.12c1.15-.94,2.14-2.07,2.9-3.35-.82.2-1.64.35-2.48.44l-.27-1.12c1.15-1.4,2.06-2.98,2.67-4.69l1.28.58c-.51,1.26-1.16,2.47-1.92,3.6.55-.09,1.09-.22,1.62-.38.29-.45.53-.93.72-1.43l1.28.62c-.88,1.83-2.01,3.54-3.36,5.06.53-.11,1.04-.25,1.55-.43-.04-.2-.1-.39-.19-.57l1.19-.38c.38.83.67,1.69.87,2.58Zm-1.69,4.23l-1.3.36c-.07-1.1-.23-2.18-.48-3.25l1.23-.36c.27,1.07.45,2.15.55,3.25h0Zm2-.76l-1.15.47c-.15-.93-.4-1.84-.74-2.72l1.14-.44c.3.88.55,1.78.73,2.69h.02Zm8.1-5.23l-.69,1.27c-1.27-.54-2.49-1.21-3.63-2-1.09.79-2.28,1.44-3.53,1.93l-.62-1.24c1.06-.39,2.06-.91,3-1.54-.53-.49-1-1.05-1.4-1.65-.33.41-.69.8-1.07,1.16l-.83-1.11c1.32-1.25,2.4-2.73,3.18-4.37l1.3.4c-.17.4-.36.79-.58,1.17h3.88v1.31c-.64,1.09-1.42,2.1-2.31,3,1.02.69,2.12,1.25,3.28,1.67h.02Zm-1.18,5.39l-.65,1.27c-1.72-.9-3.55-1.57-5.44-2l.56-1.26c1.91.45,3.76,1.12,5.51,1.99h.02Zm-.35-3l-.52,1.25c-1.42-.66-2.9-1.17-4.42-1.53l.55-1.23c1.5.37,2.96.88,4.37,1.51h.02Zm-1-7h-3.15c-.08.12-.17.23-.26.34.41.72.95,1.36,1.6,1.88.68-.68,1.28-1.44,1.79-2.25l.02.03Z" style="fill: #fff; stroke-width: 0px;"/>
              <path d="m1560.12,69.36c-.65.72-1.36,1.39-2.11,2v3.87c.03.41-.11.81-.38,1.12-.27.26-.63.42-1,.46-.44,0-1.38.08-2.82.08l-.4-1.33h1.4c.54.03,1.07,0,1.6-.09.13-.07.2-.21.19-.35v-2.75c-3.05,1.96-6.39,3.42-9.89,4.34l-.7-1.25c3.2-.85,6.31-2.04,9.26-3.54-2.67.3-5.59.55-8.77.75l-.37-1.36h1.67v-7.13h2c.39-.43.73-.9,1-1.42l1.53.32c-.21.39-.47.76-.75,1.1h6.42v5.46c.47-.39.9-.81,1.29-1.28l.83,1Zm-3.55-2.91v-1h-7.34v1h7.34Zm0,2.19v-1.06h-7.34v1.06h7.34Zm0,1.93v-.78h-7.34v1.45c2.39-.13,4.83-.35,7.34-.67Z" style="fill: #fff; stroke-width: 0px;"/>
              <path d="m1576,74.51h-6.14v1c.02.3-.07.6-.25.85-.16.2-.37.36-.62.43-.47.09-.95.13-1.43.11h-1.1l-.46-1.3h2.11c.19,0,.29-.09.29-.27v-.8h-6.34v-1.13h6.34v-.69c.75-.15,1.49-.36,2.21-.63h-5.94v-1h8.52v1c-1.08.49-2.19.9-3.33,1.22v.1h6.14v1.11Zm-.24-2.35h-1.35v-1.82h-10.7v1.77h-1.42v-2.9h1l-.29-5.74c1.06-.05,2.11-.26,3.12-.61l.65,1.11c-.77.24-1.56.4-2.36.49v.85h2.09v1h-2v.91h2v1h-1.94l.05.92h8.81v-.92h-2.15v-1h2.21v-.91h-2.25v-1h2.28l.05-.85h-2.44v-1.12h3.83l-.26,5.87h1l.07,2.95Zm-4.86-8.83c-.29.38-.62.71-1,1,.26.23.5.47.72.7l-.86.75c-.24-.29-.5-.55-.79-.79-.52.31-1.06.58-1.62.81l-.67-.9c.47-.17.93-.38,1.36-.64-.15-.13-.44-.35-.89-.66l.78-.78,1.07.77c.3-.22.58-.47.83-.75l1.07.49Zm.07,5l-.85.73c-.33-.37-.69-.7-1.08-1-.53.33-1.08.63-1.64.9l-.65-.89c.47-.21.93-.46,1.37-.73-.32-.28-.68-.52-1.05-.72l.77-.79c.28.17.7.45,1.24.85.32-.26.63-.54.9-.85l1,.58c-.31.35-.65.69-1,1,.36.3.7.62,1.02.96l-.03-.04Z" style="fill: #fff; stroke-width: 0px;"/>
              <path d="m1582.59,67.53c-1.3.74-2.63,1.41-4,2l-.56-1.18c1.44-.59,2.83-1.28,4.18-2.06l.38,1.24Zm1.88.66c.02.33-.08.66-.28.92-.16.21-.39.35-.65.4-.44.06-.88.08-1.32.07l-.47-1.26h.84c.32,0,.49-.15.49-.46v-3.35h-4.77v-1.27h6.16v4.95Zm-2.86-2.48l-.81,1c-.71-.39-1.47-.68-2.26-.87l.83-1.06c.78.21,1.54.53,2.24.93Zm8.93,11.21h-1.42v-.63h-8.12v.63h-1.39v-6.61h4.39c.24-.34.44-.7.61-1.08l1.51.24c-.11.3-.26.58-.43.84h4.84v6.61Zm-1.42-4.2v-1.13h-8.12v1.13h8.12Zm0,2.34v-1.18h-8.12v1.23l8.12-.05Zm.49-7.56c-1.24.63-2.53,1.16-3.86,1.59l-.57-1.14c1.37-.47,2.72-1,4-1.61l.43,1.16Zm1.88.43c.03.41-.07.82-.3,1.16-.16.22-.4.38-.67.44-.5.05-1,.07-1.5.06l-.48-1.25h1c.13,0,.24-.06.34-.14.1-.07.17-.18.18-.31v-3.38h-4.72v-1.27h6.11l.04,4.69Zm-3.22-2.09l-.9,1c-.59-.41-1.23-.75-1.91-1l.85-1c.7.23,1.36.57,1.96,1Z" style="fill: #fff; stroke-width: 0px;"/>
            </g>
            <path d="m1510.81,82.68c-.5-.14-1-.24-1.51-.4-1.85-.64-3.66-1.39-5.42-2.26-1.62-.75-3.22-1.51-4.82-2.31l-.16-.08c-.32-.16-.42-.38-.3-.6s.34-.26.65-.11l1.84.91c2.46,1.2,4.94,2.38,7.53,3.34.56.2,1.14.37,1.71.55.53.15,1.1.13,1.61-.08,1.25-.48,2.45-1.08,3.59-1.78l.44-.26c-.62-.17-1.2-.28-1.75-.47-1.56-.46-3.2-.58-4.81-.32-.65.06-1.29.17-1.94.26-.32.05-.53-.08-.57-.32s.14-.41.45-.47c1.67-.31,3.37-.43,5.07-.35.55.06,1.1.17,1.63.34.81.2,1.6.42,2.42.6.41.13.85-.02,1.11-.37.24-.36.24-.83,0-1.19-.11-.21-.25-.41-.43-.56-.37-.35-.81-.63-1.29-.81-1.02-.34-2.09-.57-3.16-.66-.84-.09-1.68-.15-2.51-.28-.31-.06-.61-.18-.87-.35-1.5-.91-3.14-1.57-4.85-1.96-1.33-.33-2.71-.46-4.08-.38-.42.05-.83.12-1.24.22-.3.07-.5,0-.58-.25s.05-.42.34-.51c.72-.21,1.47-.31,2.21-.28,2.84.05,5.63.81,8.09,2.21l.75.42c-.05-.44-.1-.82-.15-1.2-.3-2.22-.78-4.4-1.44-6.54-.08-.28-.17-.56-.27-.83-.04-.07-.11-.13-.19-.15-.69-.02-1.34-.33-1.78-.85-.58-.68-.96-1.51-1.1-2.39-.19-1-.27-2.03-.23-3.05v-2.39c0-.17.09-.32.22-.43.14-.07.3-.07.44,0,.23.14.44.32.62.53,1.16,1.28,2.2,2.67,3.09,4.14.51.84.68,1.83.48,2.79-.1.46-.34.89-.69,1.2-.07.07-.11.17-.11.28.38,1.39.76,2.77,1.14,4.16.58,2.08,0,.06.05.12.22-.27.42-.51.61-.75v-.25c-.29-.56-.48-1.16-.56-1.78-.08-.69.09-1.38.47-1.97.17-.27.37-.53.59-.75,1.21-1.24,2.75-2.11,4.43-2.51,1.73-.44,3.49-.7,5.27-.8.46,0,.93.02,1.39.09.25,0,.47.18.52.43.05.26-.15.38-.29.56-.32.36-.6.75-.84,1.16-.95,1.91-2.04,3.75-3.26,5.5-.77,1.09-1.93,1.85-3.24,2.13-1.39.35-2.86-.07-3.85-1.1l-.1-.07c-.56.52-.85,1.26-.81,2.02.14.91.27,1.83.41,2.74.03.1.1.17.2.21.69.08,1.36.15,2.05.21.14.01.29-.02.41-.08.94-.49,1.87-1.01,2.82-1.51.4-.21.82-.39,1.25-.54.57-.27,1.26-.13,1.68.35l1.22-.71c.62-.39,1.33-.62,2.06-.68.64-.04,1.27.08,1.85.35.27.13.48.37.58.66v.35c-.11.23-.2.46-.27.71-.05.39-.23.74-.5,1.02-.75.75-1.51,1.51-2.36,2.13-1.4,1.06-2.85,2.06-4.31,3.01-1.42.97-2.94,1.8-4.52,2.48-.55.23-1.13.38-1.69.56h-.44Zm.96-13.95c.35.48.86.82,1.43.97,1.27.37,2.65.05,3.63-.84.49-.42.92-.9,1.28-1.43.7-1.07,1.33-2.2,1.97-3.31.46-.75.9-1.58,1.34-2.37.05-.09.12-.18.21-.31h-.33c-1.61.05-3.21.26-4.78.6-1.33.25-2.6.78-3.71,1.56-.56.37-1.05.83-1.46,1.36-.67.93-.67,2.18,0,3.1.08-.06.14-.12.21-.17.39-.29.75-.6,1.17-.87.16-.13.4-.11.53.05.05.06.08.13.08.21-.02.16-.11.31-.23.41-.44.35-.9.69-1.36,1.04h.02Zm-3.27-4.52l.1.04c.13-.23.23-.46.31-.71.15-.74.02-1.51-.38-2.15-.81-1.33-1.73-2.59-2.75-3.76l-.16-.11v1.08c-.12,1.45.03,2.92.47,4.31.18.62.58,1.16,1.13,1.51.16.08.34.15.51.2-.07-.3-.16-.59-.28-.87-.11-.19-.05-.43.13-.55,0,0,0,0,0,0h.07c.22-.08.41,0,.53.27s.21.47.32.73h0Zm10.04,13.74l.29-.18c.71-.53,1.42-1.05,2.12-1.58.58-.44,1.15-.9,1.7-1.38.36-.32.7-.66,1.02-1.02.08-.16.14-.33.17-.51-.17-.03-.34-.05-.51-.05-.98.19-1.91.58-2.74,1.14-.87.55-1.75,1.08-2.63,1.62l-.19.12c.47.5.74,1.15.75,1.84h.02Zm-2.2-2.71c.16.07.32.15.47.24.13.1.31.1.44,0,.96-.59,1.92-1.15,2.88-1.75.81-.54,1.71-.94,2.66-1.19.38-.07.76-.11,1.14-.14v-.06c-.36-.08-.72-.15-1.08-.2-.77-.02-1.53.2-2.16.63-1.38.89-2.82,1.69-4.3,2.4l-.05.06Zm-1.68-.53v.11c.2.04.41.04.61,0,.75-.33,1.51-.69,2.26-1.05.35-.18.69-.4,1.02-.6v-.12c-.24,0-.47.04-.7.11-.75.33-1.45.68-2.18,1.04-.33.17-.64.35-.96.53h-.05Z" style="fill: #fff; stroke-width: 0px;"/>
            <g>
              <path d="m1098.38,74.51h-6.14v1c.02.3-.07.6-.25.85-.16.2-.37.36-.62.43-.47.09-.95.13-1.43.11h-1.1l-.46-1.3h2.11c.19,0,.29-.09.29-.27v-.8h-6.34v-1.13h6.34v-.69c.75-.15,1.49-.36,2.21-.63h-5.94v-1h8.52v1c-1.08.49-2.19.9-3.33,1.22v.1h6.14v1.11Zm-.24-2.35h-1.35v-1.82h-10.7v1.77h-1.42v-2.9h1l-.29-5.74c1.06-.05,2.11-.26,3.12-.61l.65,1.11c-.77.24-1.56.4-2.36.49v.85h2.09v1h-2v.91h2v1h-1.94l.05.92h8.81v-.92h-2.15v-1h2.21v-.91h-2.25v-1h2.28l.05-.85h-2.44v-1.12h3.83l-.26,5.87h1l.07,2.95Zm-4.86-8.83c-.29.38-.62.71-1,1,.26.23.5.47.72.7l-.86.75c-.24-.29-.5-.55-.79-.79-.52.31-1.06.58-1.62.81l-.67-.9c.47-.17.93-.38,1.36-.64-.15-.13-.44-.35-.89-.66l.78-.78,1.07.77c.3-.22.58-.47.83-.75l1.07.49Zm.07,5l-.85.73c-.33-.37-.69-.7-1.08-1-.53.33-1.08.63-1.64.9l-.65-.89c.47-.21.93-.46,1.37-.73-.32-.28-.68-.52-1.05-.72l.77-.79c.28.17.7.45,1.24.85.32-.26.63-.54.9-.85l1,.58c-.31.35-.65.69-1,1,.36.3.7.62,1.02.96l-.03-.04Z" style="fill: #fff; stroke-width: 0px;"/>
              <path d="m1104.97,67.53c-1.3.74-2.63,1.41-4,2l-.56-1.18c1.44-.59,2.83-1.28,4.18-2.06l.38,1.24Zm1.88.66c.02.33-.08.66-.28.92-.16.21-.39.35-.65.4-.44.06-.88.08-1.32.07l-.47-1.26h.84c.32,0,.49-.15.49-.46v-3.35h-4.77v-1.27h6.16v4.95Zm-2.86-2.48l-.81,1c-.71-.39-1.47-.68-2.26-.87l.83-1.06c.78.21,1.54.53,2.24.93Zm8.93,11.21h-1.42v-.63h-8.12v.63h-1.39v-6.61h4.39c.24-.34.44-.7.61-1.08l1.51.24c-.11.3-.26.58-.43.84h4.84v6.61Zm-1.42-4.2v-1.13h-8.12v1.13h8.12Zm0,2.34v-1.18h-8.12v1.23l8.12-.05Zm.49-7.56c-1.24.63-2.53,1.16-3.86,1.59l-.57-1.14c1.37-.47,2.72-1,4-1.61l.43,1.16Zm1.88.43c.03.41-.07.82-.3,1.16-.16.22-.4.38-.67.44-.5.05-1,.07-1.5.06l-.48-1.25h1c.13,0,.24-.06.34-.14.1-.07.17-.18.18-.31v-3.38h-4.72v-1.27h6.11l.04,4.69Zm-3.22-2.09l-.9,1c-.59-.41-1.23-.75-1.91-1l.85-1c.7.23,1.36.57,1.96,1Z" style="fill: #fff; stroke-width: 0px;"/>
              <path d="m1130.53,67.82l-.67,1.28c-.47-.09-.94-.23-1.39-.4v6h-6.75l.68.8c-1.7.75-3.49,1.26-5.32,1.54l-.69-1.29c1.49-.16,2.96-.49,4.37-1h-2.38v-6h3l-.61-.88c1.64-.33,3.11-1.21,4.18-2.49l1.45.32c-.1.19-.21.37-.35.54,1.38.8,2.9,1.34,4.48,1.58Zm-9.36-.44h-4.66v-1.27h4.66v1.27Zm-.14-2.55h-4.31v-1.28h4.31v1.28Zm6,5.54v-.56h-7.13v.56h7.13Zm0,1.63v-.59h-7.13v.59h7.13Zm0,1.67v-.63h-7.13v.63h7.13Zm3.22-8.66c-.43.62-.9,1.22-1.4,1.79l-1.21-.72c.13-.16.42-.51.86-1.07h-5c-.43.5-.91.98-1.41,1.41l-1.08-.93c.96-.75,1.76-1.67,2.38-2.72l1.31.44c-.06.2-.16.39-.3.56h5.89l-.04,1.24Zm-1.94,3.66c-1.11-.37-2.16-.88-3.13-1.54-.76.67-1.65,1.19-2.6,1.54h5.73Zm2.12,7.21l-.76,1.24c-1.53-.49-3.1-.82-4.69-1l.74-1.2c1.6.13,3.18.46,4.71.96Z" style="fill: #fff; stroke-width: 0px;"/>
              <path d="m1135.47,71.65c-.45,1.79-1.06,3.54-1.82,5.23l-1.23-.88c.75-1.69,1.34-3.44,1.77-5.23l1.28.88Zm.4-2.87l-.92,1.21c-.73-.76-1.57-1.4-2.5-1.91l.87-1.19c.93.51,1.79,1.14,2.55,1.89Zm.1-3.74l-1,1.12c-.68-.86-1.48-1.62-2.38-2.24l1-1.08c.88.64,1.68,1.37,2.38,2.2Zm10.4-.55h-3.48c-.12.36-.28.78-.49,1.25h3.5v5.91h-3v4.16c.02.33-.14.64-.41.82-.42.2-.88.29-1.35.26h-.8l-.58-1.44h1.07c.34,0,.5,0,.55-.08.07-.06.1-.16.09-.25v-3.48h-2.92v-5.91h2.12c.19-.41.35-.82.48-1.25h-3.44v5.44c.08,2.46-.47,4.89-1.58,7.08l-1.21-.81c.94-2,1.41-4.2,1.37-6.41v-6.62h10l.08,1.33Zm-5.63,8.39c-.55,1.25-1.29,2.41-2.19,3.44l-1.17-1c.85-.95,1.52-2.04,2-3.22l1.36.78Zm3.76-4.82v-1.1h-4.5v1.15l4.5-.05Zm0,2.34v-1.14h-4.5v1.14h4.5Zm2.1,5l-1.25.92c-.41-1.22-.95-2.4-1.6-3.51l1.22-.7c.67,1.04,1.21,2.15,1.63,3.31v-.02Z" style="fill: #fff; stroke-width: 0px;"/>
            </g>
            <path d="m1053.48,61.96l1.39-.3,1.68-.32v-2.58h1.42c2.27.08,4.5.66,6.53,1.68.69.35,1.33.75,1.99,1.17.16.11.36.15.54.1,1.95-.45,3.95-.66,5.96-.63,2.19.02,4.36.3,6.48.85l.22.07v18.43c-.59-.14-1.16-.28-1.74-.41-2.14-.46-4.34-.63-6.53-.51-1.57.09-3.12.32-4.65.69-.12.03-.25.03-.37,0-4.26-1.05-8.71-.96-12.92.26v-18.5Zm13.87,16.56c3.57-.75,7.25-.75,10.81,0v-15.13c0-.17,0-.24-.22-.27-1.03-.14-2.06-.35-3.11-.45-2.42-.22-4.85-.08-7.22.44-.23.05-.29.14-.29.36v14.74l.02.31Zm-1.51-.45v-14.86c.01-.15-.06-.3-.2-.38-1.91-1.3-4.09-2.15-6.38-2.46-.38-.05-.75-.08-1.17-.11v15.4c1.36.07,2.7.31,4,.71,1.32.4,2.59.97,3.76,1.7h-.02Zm-10.83.45c2.31-.48,4.67-.66,7.02-.55-1.76-.63-3.62-.9-5.48-.81v-14.31c-.43.08-.83.17-1.23.23-.26,0-.32.14-.32.39v15.05Zm15.45-12.74l6.78,4.46-6.78,4.47v-8.94Zm4.04,4.47l-2.51-1.66v3.31l2.51-1.66Z" style="fill: #fff; stroke-width: 0px;"/>
            <g>
              <path d="m974.9,68.91l-.86,1.15c-.85-.76-1.78-1.43-2.77-2l.84-1.16c1.01.56,1.94,1.23,2.79,2.01Zm.18,2.61c-.63,1.9-1.47,3.72-2.5,5.44l-1.2-.87c.99-1.65,1.81-3.41,2.44-5.23l1.26.66Zm.19-6.24l-1,1c-.83-.91-1.76-1.74-2.75-2.47l1-1c1.02.71,1.96,1.54,2.79,2.47h-.04Zm10,3.1h-4.42v2.22h3.64v6.31h-1.45v-.8h-5.73v.78h-1.45v-6.31h3.58v-2.22h-4.42v-1.25h4.43v-2.12c-1.26.12-2.45.19-3.58.23l-.5-1.35c2.94.06,5.88-.28,8.73-1l.72,1.17c-1.29.37-2.6.64-3.93.81v2.26h4.42l-.04,1.27Zm-2.23,6.37v-2.78h-5.73v2.78h5.73Z" style="fill: #fff; stroke-width: 0px;"/>
              <path d="m995.16,66.64h-3.09v.91h2.76v4.7h-2.76v.9h2.76v1.12h-2.76v1c.95-.08,1.89-.22,2.83-.4l.07,1.14c-2.31.38-4.76.71-7.33,1l-.29-1.16,3.44-.35v-1.2h-2.8v-1.19h2.8v-.9h-2.8v-4.7h2.8v-.91h-3.21v-1.17h3.21v-.91c-.7.08-1.53.15-2.51.21l-.35-1.12c2.18-.08,4.36-.33,6.5-.76l.55,1c-.76.17-1.73.34-2.91.5v1h3.09v1.29Zm-4.37,2.75v-.82h-1.48v.82h1.48Zm0,1.81v-.82h-1.48v.82h1.48Zm2.74-1.79v-.84h-1.46v.84h1.46Zm0,1.79v-.82h-1.46v.82h1.46Zm7.55-5.27c0,2.23-.06,4.38-.15,6.44,0,1.2-.1,2.39-.28,3.58-.08.31-.27.58-.54.75-.39.21-.84.3-1.28.26-.29.01-.57.01-.86,0l-.39-1.36h1c.47,0,.74-.06.82-.18.17-.94.26-1.89.28-2.85.11-1.79.14-3.57.11-5.32h-1.38c.1,3.37-.63,6.71-2.13,9.73l-1.23-.61c1.49-2.8,2.18-5.95,2-9.12h-1.39v-1.33h1.42v-2.92h1.39v2.92h2.61Z" style="fill: #fff; stroke-width: 0px;"/>
              <path d="m1017.46,67.82l-.67,1.28c-.47-.09-.94-.23-1.39-.4v6h-6.75l.68.8c-1.7.75-3.49,1.26-5.32,1.54l-.69-1.29c1.49-.16,2.96-.49,4.37-1h-2.38v-6h3l-.61-.88c1.64-.33,3.11-1.21,4.18-2.49l1.45.32c-.1.19-.21.37-.35.54,1.38.8,2.9,1.34,4.48,1.58Zm-9.36-.44h-4.66v-1.27h4.66v1.27Zm-.14-2.55h-4.31v-1.28h4.31v1.28Zm6,5.54v-.56h-7.13v.56h7.13Zm0,1.63v-.59h-7.13v.59h7.13Zm0,1.67v-.63h-7.13v.63h7.13Zm3.22-8.66c-.43.62-.9,1.22-1.4,1.79l-1.21-.72c.13-.16.42-.51.86-1.07h-5c-.43.5-.91.98-1.41,1.41l-1.08-.93c.96-.75,1.76-1.67,2.38-2.72l1.31.44c-.06.2-.16.39-.3.56h5.89l-.04,1.24Zm-1.94,3.66c-1.11-.37-2.16-.88-3.13-1.54-.76.67-1.65,1.19-2.6,1.54h5.73Zm2.12,7.21l-.76,1.24c-1.53-.49-3.1-.82-4.69-1l.74-1.2c1.6.13,3.18.46,4.71.96Z" style="fill: #fff; stroke-width: 0px;"/>
              <path d="m1024.58,65.59h-5.18v-1.28h2c-.13-.35-.3-.69-.51-1l1.41-.53c.27.49.5,1.01.7,1.53h1.54l.04,1.28Zm-.35,2.38h-4.45v-1.28h4.45v1.28Zm0,2.34h-4.45v-1.27h4.45v1.27Zm0,6.23h-1.41v-.72h-1.68v1.1h-1.38v-5.54h4.47v5.16Zm-1.41-2v-1.81h-1.68v1.81h1.68Zm10.67-1.33c-.06.77-.2,1.54-.43,2.28-.11.47-.32.92-.63,1.29-.19.17-.44.26-.69.26-.31,0-.61-.13-.82-.36-.37-.66-.6-1.39-.67-2.15-.2-1.06-.3-2.13-.31-3.2v-6.67h-2.17v4.31h1.72v1.38h-1.72v6.62h-1.37v-6.62h-1.49v-1.38h1.49v-4.31h-1.3v-1.35h6.21v8.34c0,1.22.17,2.42.52,3.59.22-.92.35-1.86.38-2.81l1.28.78Z" style="fill: #fff; stroke-width: 0px;"/>
            </g>
            <path d="m944.17,72.67c0-.18.08-.37.13-.55.23-.88.81-1.63,1.61-2.07,1.26-.72,2.52-1.45,3.76-2.18.14-.08.27-.19.38-.32.54-.68,1.08-1.36,1.61-2.04l4.52-5.84c.47-.63,1.35-.76,1.98-.29.16.12.29.27.39.44.56.93,1.09,1.87,1.63,2.81.05.16.22.26.38.23.46-.05.92-.05,1.38-.09.31-.07.62.09.75.38.2.41.44.81.69,1.2.29.32.29.81,0,1.13-.25.35-.47.75-.75,1.07-.09.11-.09.27,0,.38.5.85,1.01,1.71,1.51,2.58.38.68.15,1.54-.53,1.92-.12.07-.26.12-.4.15l-2.26.43-6.93,1.36-.24.06c.19.33.38.65.55.96s.17.6-.22.83l-1.13.66c.18.3.35.59.51.88.32.56.66,1.12.96,1.7.5.92.17,2.07-.75,2.58-.16.09-.33.15-.5.18-.81.17-1.65-.21-2.05-.93-.54-.94-1.08-1.9-1.61-2.84-.23-.4-.46-.75-.68-1.18-.08-.14-.16-.16-.3-.11-1.74.59-3.63-.35-4.22-2.09,0,0,0,0,0,0-.04-.14-.08-.27-.11-.41,0-.11-.05-.21-.08-.32v-.63Zm11.99-11.41l-.2.24-3.16,4.07c-.62.8-1.24,1.59-1.87,2.39-.09.1-.09.25,0,.35.75,1.35,1.57,2.71,2.35,4.07.05.11.17.17.29.13l7.23-1.42.94-.2-5.56-9.64Zm-6.11,7.47c-1.33.75-2.64,1.51-3.92,2.26-.85.56-1.23,1.61-.94,2.58.35,1.28,1.68,2.04,2.96,1.68.2-.06.39-.14.57-.24,1.11-.62,2.21-1.27,3.31-1.9l.41-.25-2.4-4.13Zm13.35,1.38c-.03-.09-.07-.18-.11-.26l-2.71-4.74c-.9-1.58-1.81-3.15-2.72-4.71-.04-.08-.09-.15-.14-.22-.17-.19-.45-.22-.65-.07-.26.19-.3.36-.15.61l2.72,4.76,2.92,5.06c0,.06.08.14.14.16.31.07.62-.13.69-.44,0,0,0,0,0,0,0-.04,0-.09,0-.14h.01Zm-13.8,5.5s.03.08.05.11c.81,1.4,1.6,2.81,2.42,4.2.32.42.92.5,1.34.18,0,0,0,0,0,0,.06-.04.12-.08.17-.14.25-.37.25-.86,0-1.23-.75-1.26-1.51-2.54-2.21-3.82l-.14-.22-1.63.92Zm12.44-9.79c.2-.33.39-.62.56-.92v-.17c-.17-.3-.34-.59-.51-.89,0-.05-.1-.14-.15-.14-.32,0-.66,0-1.02.06l1.11,2.06Zm-8.63,8.73l-.49-.85-.85.49.49.85.85-.49Zm9.98-16.56c-.23.09-.38.29-.41.53-.02.11-.05.22-.08.32-.11.43-.23.86-.34,1.29-.1.23.01.5.25.6,0,0,0,0,0,0,.09.03.19.03.28,0,.18-.04.32-.18.35-.37l.44-1.63c.11-.42.08-.53-.3-.75h-.19Zm2.41,4.35l2.52-1.4c.24-.09.36-.36.28-.6,0-.02,0-.05,0-.07-.14-.22-.43-.3-.66-.17l-.05.04c-.5.28-1,.55-1.51.84-.36.2-.75.39-1.08.6-.2.1-.29.34-.21.55.07.21.27.33.49.31.08-.02.16-.05.23-.09h-.02Zm-.57,2.59c-.02.24.12.47.35.55l1.79.48c.23.09.5-.02.59-.26h0c.08-.27-.07-.55-.33-.63,0,0,0,0,0,0h-.04l-1.3-.35-.53-.14c-.26-.03-.5.14-.54.4v-.05Zm-17.04,9.27c.28-.14.56-.3.83-.47.23-.1.34-.37.24-.61,0,0,0,0,0,0v-.04c-.12-.22-.4-.31-.62-.19,0,0,0,0-.01,0h-.05l-.75.41c-.22.16-.53.12-.7-.1,0-.02,0-.04,0-.05-.13-.22-.42-.29-.64-.16s-.29.42-.16.64l.06.08c.3.41.78.65,1.29.62.18-.03.36-.08.53-.14h0Zm2.76-1.84c0-.25-.19-.47-.44-.47,0,0,0,0,0,0-.26,0-.47.19-.48.45h0c0,.25.19.47.44.47,0,0,0,0,0,0h0c.25,0,.45-.2.45-.45h.03Z" style="fill: #fff; stroke-width: 0px;"/>
            <g>
              <path d="m1206.96,73.23h-5.43v3.66h-1.43v-3.66h-5.49v-8h5.49v-2.26h1.43v2.26h5.43v8Zm-6.86-4.69v-2h-4v2h4Zm0,3.36v-2.06h-4v2.06h4Zm5.4-3.36v-2h-4v2h4Zm0,3.36v-2.06h-4v2.06h4Z" style="fill: #fff; stroke-width: 0px;"/>
              <path d="m1214.78,65.62h-4.94v-1.3h1.88c-.16-.39-.35-.76-.58-1.12l1.48-.43c.28.5.52,1.02.73,1.55h1.47l-.04,1.3Zm-.44,2.37h-4.15v-1.33h4.15v1.33Zm0,2.36h-4.15v-1.34h4.15v1.34Zm0,6.24h-1.36v-.72h-1.38v1h-1.41v-5.54h4.15v5.26Zm-1.36-2v-1.85h-1.38v1.85h1.38Zm10,1c0,.91-.54,1.36-1.64,1.36h-.87l-.48-1.3h1.27c.21,0,.32-.11.32-.34v-.8h-4.47c-.14.96-.54,1.85-1.16,2.59l-1.16-.83c.78-1,1.16-2.24,1.08-3.5v-3.18h7.11v6Zm.74-6.76h-8.77v-1.2h3.67v-.75h-3v-1.11h3v-.66h-3.39v-1.15h3.39v-1h1.39v1h3.39v1.15h-3.39v.7h3v1.11h-3v.75h3.71v1.16Zm-2.14,4.55v-.81h-4.34c.02.27.02.54,0,.81h4.34Zm0-1.91v-.75h-4.32v.75h4.32Z" style="fill: #fff; stroke-width: 0px;"/>
              <path d="m1230.8,73.2c-1.51.87-3.11,1.58-4.77,2.13l-.36-1.36c.66-.19,1.3-.43,1.93-.71v-8.05h-1.68v-1.37h4.5v1.37h-1.43v7.43c.65-.32,1.2-.61,1.65-.88l.16,1.44Zm8.94-8.66h-3.83c-.14.45-.3.9-.49,1.36h3.56v8.07h-5.21l.72.78c-1.36.91-2.81,1.69-4.32,2.32l-.92-1.15c1.38-.5,2.69-1.17,3.9-2h-1.79v-8.07h2.59c.21-.44.39-.89.53-1.36h-3.5v-1.3h8.74l.02,1.35Zm-2.17,3.66v-1.09h-4.79v1.07l4.79.02Zm0,2.23v-1.07h-4.79v1.07h4.79Zm0,2.27v-1.08h-4.79v1.08h4.79Zm2.35,3.17l-.86,1.12c-1.19-.66-2.44-1.2-3.73-1.61l.83-1.19c1.31.43,2.57,1,3.76,1.68h0Z" style="fill: #fff; stroke-width: 0px;"/>
              <path d="m1254.26,76.83h-1.46v-.78h-8.08v.78h-1.46v-13.49h11v13.49Zm-1.46-9.71v-2.42h-8.08v2.41h8.08Zm0,3.76v-2.45h-8.08v2.45h8.08Zm0,3.82v-2.53h-8.08v2.53h8.08Z" style="fill: #fff; stroke-width: 0px;"/>
            </g>
            <path d="m1186.95,79.23v-9.25h1.55v10.83h-20.8v-20.9h10.77v1.59h-9.2v17.77l17.68-.04Zm-.53-20.59c-1.03,1.03-2.07,2.06-3.1,3.1l-6.35,6.41c-.09.1-.14.22-.14.35v3.15h3.08c.18,0,.36-.07.48-.2l7.53-7.63,1.85-1.85c.07-.06.12-.13.17-.17l-3.38-3.38c-.05.08-.11.15-.17.22h.05Zm-8.03,10.39c.03-.1.09-.19.17-.26,1.33-1.34,2.67-2.67,4.01-4.01l3.84-3.89c.06-.07.11-.15.15-.23l1.17,1.18s-.08.1-.15.16l-1.9,1.9-5.95,6.02c-.12.14-.29.21-.47.2h-.87c0-.41-.01-.76,0-1.09Zm1.22,6.57h-7.93v1.51h7.93v-1.51Z" style="fill: #fff; stroke-width: 0px;"/>
            <g>
              <path d="m1408.31,66.5c-.07,0-.15,0-.22,0-.36-3.59-3.39-6.4-7.07-6.4s-6.72,2.81-7.07,6.4c-.07,0-.15,0-.22,0-3.38,0-6.12,2.75-6.12,6.12s2.75,6.12,6.12,6.12c.39,0,.71-.32.71-.71s-.32-.71-.71-.71c-2.59,0-4.7-2.11-4.7-4.7s2.11-4.7,4.7-4.7c.26,0,.52.02.78.06.21.03.42-.02.58-.16.16-.14.25-.34.25-.55v-.03s0-.03,0-.04c0-3.13,2.55-5.69,5.69-5.69s5.69,2.55,5.69,5.69c0,.01,0,.02,0,.04v.03c0,.21.09.41.25.55.16.14.37.2.58.16.26-.04.52-.06.78-.06,2.59,0,4.7,2.11,4.7,4.7s-2.11,4.7-4.7,4.7c-.39,0-.71.32-.71.71s.32.71.71.71c3.38,0,6.12-2.75,6.12-6.12s-2.75-6.12-6.12-6.12Z" style="fill: #fff; stroke-width: 0px;"/>
              <path d="m1397.62,66.96c0-1.69,1.37-3.06,3.06-3.06.39,0,.71-.32.71-.71s-.32-.71-.71-.71c-2.47,0-4.48,2.01-4.48,4.48,0,.39.32.71.71.71s.71-.32.71-.71Z" style="fill: #fff; stroke-width: 0px;"/>
              <path d="m1406.74,73.49h-2.06v-2.2c0-.39-.32-.71-.71-.71h-5.9c-.39,0-.71.32-.71.71v2.2h-2.06c-.31,0-.58.2-.68.49-.1.29,0,.61.26.8l5.72,4.19c.13.09.27.14.42.14s.3-.05.42-.14l5.72-4.19c.25-.18.35-.5.26-.8-.1-.29-.37-.49-.68-.49Zm-5.72,4.02l-3.55-2.6h.6c.39,0,.71-.32.71-.71v-2.2h4.48v2.2c0,.39.32.71.71.71h.6l-3.55,2.6Z" style="fill: #fff; stroke-width: 0px;"/>
            </g>
            <g>
              <path d="m1422.54,68.56c.56.58,1.98,2.26,2.31,2.67l-.9,1.2c-.27-.53-.86-1.41-1.41-2.18v7.01h-1.42v-7.06c-.58,1.65-1.31,3.22-2.08,4.21-.16-.42-.51-1.02-.74-1.36,1.07-1.31,2.11-3.67,2.62-5.71h-2.26v-1.41h2.45v-3.35h1.42v3.35h2.15v1.41h-2.15v1.22Zm10.07-5.07v13.59h-1.49v-.86h-4.35v.94h-1.42v-13.67h7.27Zm-5.84,1.41v2.35h4.35v-2.35h-4.35Zm0,6.15h4.35v-2.43h-4.35v2.43Zm4.35,3.81v-2.45h-4.35v2.45h4.35Z" style="fill: #fff; stroke-width: 0px;"/>
              <path d="m1440.94,70.71c.29.56.62,1.31.78,1.73l-.62.24h.21v1.47c0,1.22-.29,2.35-2.29,3.06-.13-.26-.46-.67-.67-.85.94-.29,1.42-.69,1.66-1.12h-1.98v-2.31h.96v1.42h1.26v-1.68h.66c-.05-.14-.11-.29-.16-.45-2.35.24-2.75.32-2.98.42-.05-.19-.18-.66-.29-.91.24-.02.53-.18.85-.42.16-.11.46-.37.85-.74-.93.08-1.18.13-1.34.19-.05-.21-.18-.69-.3-.93.16-.03.34-.13.51-.29.16-.14.7-.72,1.07-1.33h-2.48v9.08h-1.41v-14.07h5.94v4.99h-1.66l.59.3c-.37.48-.77.96-1.18,1.34l1.04-.05c.22-.26.45-.51.66-.78l.78.54c-.7.75-1.47,1.46-2.26,2.05l1.33-.11c-.1-.21-.19-.42-.27-.59l.75-.22Zm-4.31-6.42v.99h3.14v-.99h-3.14Zm0,2.9h3.14v-.94h-3.14v.94Zm11.84,8.32c0,.77-.13,1.2-.59,1.44-.48.26-1.17.29-2.19.29-.05-.4-.24-1.07-.43-1.46.64.02,1.31.02,1.5.02.22-.02.29-.08.29-.3v-7.27h-3.3l.61.32c-.35.48-.77.94-1.15,1.33l1.01-.05c.24-.26.48-.51.69-.8l.78.54c-.7.75-1.49,1.49-2.26,2.08l1.31-.11c-.1-.21-.19-.42-.29-.58l.74-.26c.32.54.67,1.3.83,1.74l-.77.3c-.05-.14-.13-.32-.21-.53-2.35.26-2.75.34-2.99.45-.03-.19-.16-.67-.27-.9.24-.05.51-.19.85-.46.14-.11.46-.37.83-.74-.94.08-1.2.13-1.34.21-.06-.21-.19-.67-.3-.93.18-.03.34-.13.51-.29.16-.13.72-.72,1.07-1.34h-.99v-4.99h6.07v12.28Zm-3.92.19v-.46h-1.28v1.82h-1.07v-4.39h1.07v1.68h1.28v-1.42h1.01v2.77h-1.01Zm-.74-11.41v.99h3.23v-.99h-3.23Zm3.23,2.9v-.94h-3.23v.94h3.23Z" style="fill: #fff; stroke-width: 0px;"/>
              <path d="m1458.27,65.27v2.71l.27-.32c1.82.88,4.34,2.31,5.57,3.27l-1.09,1.36c-1.02-.86-3.02-2.11-4.75-3.07v8.05h-1.58v-11.99h-5.94v-1.52h14.13v1.52h-6.61Z" style="fill: #fff; stroke-width: 0px;"/>
              <path d="m1480.37,68.47c-.62,1.98-1.49,3.79-2.59,5.33.43,1.28.96,2.03,1.58,2.03.38,0,.56-.77.64-2.67.32.32.83.66,1.2.78-.21,2.61-.72,3.33-1.97,3.33-1.09,0-1.9-.8-2.51-2.16-.75.85-1.6,1.58-2.53,2.19-.19-.37-.64-.83-1.01-1.12.21-.13.42-.26.61-.4h-2.29v1.5h-1.31v-1.5h-3.3v-1.1h3.3v-.77h-2.74v-3.89h2.72v-.77h-3.04v-1.07h3.04v-.9h-3.49v-1.25h3.47v-1.09h-2.75v-1.17h2.75v-1.18h1.42v1.18h2.71v1.17h-2.71v1.09h3.62c-.05-1.1-.08-2.26-.08-3.43h1.49c-.02,1.18,0,2.34.05,3.43h4.32v1.25h-4.26c.11,1.78.3,3.38.58,4.69.72-1.18,1.31-2.5,1.74-3.91l1.33.4Zm-11.81,3.11h1.71v-.77h-1.71v.77Zm0,1.54h1.71v-.77h-1.71v.77Zm4.61-1.54v-.77h-1.76v.77h1.76Zm0,1.54v-.77h-1.76v.77h1.76Zm1.44,2.05c.56-.48,1.09-1.01,1.55-1.6-.46-1.7-.75-3.86-.9-6.27h-3.75v.9h3.06v1.07h-3.06v.77h2.77v3.89h-2.79v.77h3.11v.48Zm4.9-9.43c-.42-.64-1.31-1.6-2.08-2.26l1.09-.74c.77.64,1.7,1.55,2.13,2.18l-1.14.82Z" style="fill: #fff; stroke-width: 0px;"/>
            </g>
          </g>
          <g>
            <g>
              <path d="m1679.04,37.88v-15.54h9.54v2.54h-6.45v3.59h5.46v2.61h-5.46v4.2h6.66v2.6h-9.75Z" style="fill: #fff; stroke-width: 0px;"/>
              <path d="m1691.96,37.88v-15.54h3.17l4.51,8.27,1.56,3.36h.1v-.37c-.24-2.3-.36-4-.36-5.06v-6.2h2.94v15.54h-3.15l-4.49-8.32-1.58-3.34h-.1c0,.24,0,.61.1,1.12.18,1.93.28,3.37.28,4.3v6.24h-2.98Z" style="fill: #fff; stroke-width: 0px;"/>
            </g>
            <path d="m1653.31,38.88v-9.32h-1.57v-2.29l1.57-.13v-1c-.05-1.11.31-2.21,1-3.08.8-.88,1.96-1.35,3.15-1.26.76,0,1.51.14,2.22.42l-.56,2.27c-.4-.16-.81-.25-1.24-.26-1,0-1.43.62-1.43,1.85v1h2.21v2.44h-2.21v9.36h-3.14Z" style="fill: #fff; stroke-width: 0px;"/>
            <g>
              <path d="m1150.86,34.8c-.25-.18-.53-.31-.83-.4.5-1.13.81-2.34.92-3.57l1,.17c-.18,1.31-.54,2.59-1.09,3.8Zm4.94,1.25v-5.82l-.79.36c-.07-.34-.17-.68-.31-1l-1.19.08v6.31h-1v-6.22l-2.38.12-.1-1h1c.31-.4.62-.81.93-1.25-.53-.8-1.16-1.52-1.86-2.17l.6-.71.45.42c.52-.9.97-1.84,1.33-2.82l1,.36c-.51,1.06-1.09,2.1-1.73,3.09.29.31.57.65.81,1,.58-.87,1.12-1.78,1.61-2.71l.93.43c-.92,1.5-1.92,2.94-3,4.33l2.16-.1c-.2-.43-.43-.85-.68-1.26l.81-.33c.57.85,1.02,1.77,1.36,2.73v-6.8h7.72v11.68c.01.24-.03.48-.11.7-.08.17-.22.31-.4.38-.65.16-1.33.22-2,.17-.05-.35-.16-.69-.33-1h1.57c.17,0,.25-.1.25-.29v-10.69h-5.72v12h-.93Zm-1-2.3c-.11-.94-.36-1.85-.75-2.71l.83-.24c.4.86.67,1.77.8,2.7l-.88.25Zm4.39,0c-.36.04-.72-.07-1-.3-.22-.33-.31-.72-.27-1.11v-2.16h-.62v-.88h1.83v-1.53h-1.73v-.89h.84c-.12-.7-.35-1.37-.67-2l.72-.25c.35.62.59,1.3.72,2l-.69.25h2.36l-.56-.21c.34-.7.6-1.43.79-2.18l.9.3c0,.08-.09.22-.17.4-.39.82-.66,1.39-.82,1.69h1.15v.89h-1.88v1.53h2v.88h-3.18v2.13c-.01.14,0,.28.06.41.06.08.17.12.27.11h1.74c.27,0,.55-.02.82-.07,0,.24.05.54.09.91-.3.02-.6.02-.9,0l-1.8.08Z" style="fill: #fff; stroke-width: 0px;"/>
              <path d="m1165.44,34.34l-.24-1.11c.53-.1,1.49-.3,2.88-.6l.6-.13c.17-.76.33-1.69.49-2.78.16-1.09.28-2.09.35-2.94l1.09.21c-.27,2-.58,3.74-.91,5.28l1.64-.38.11,1-1.88.44-4.13,1.01Zm0-8v-1h2.36v-2.82h1v2.77h2.32v1l-5.68.05Zm1.17,6c-.01-.84-.07-1.68-.17-2.52-.12-1-.27-1.86-.44-2.7l.92-.16c.39,1.71.61,3.46.66,5.22l-.97.16Zm4.93,3.67v-6.56h2.59v-7.12h1.14v3.1h3.7v1.05h-3.7v3h3.08v6.5h-1.22v-.65h-4.5v.7l-1.09-.02Zm1.07-1.74h4.5v-3.77h-4.5v3.77Z" style="fill: #fff; stroke-width: 0px;"/>
              <path d="m1187.52,36.02c-.07-.33-.19-.65-.37-.94h2c.09.01.18-.01.26-.06.05-.05.07-.13.06-.2v-1.83h-9.18v-.87h9.18v-.91h-3c-1.28.08-2.54-.41-3.44-1.32-.48.32-1.2.8-2.18,1.43l-.11.06-.43-.93c.67-.35,1.36-.74,2.07-1.17v-1.51h-2v-.89h3v2.2c.75.89,1.9,1.36,3.06,1.25h3.69c1.59,0,2.86-.06,3.81-.1-.14.28-.24.58-.3.89-1,0-2.06.07-3.07.07v.91h3.27v.87h-3.27v1.91c.01.23-.03.47-.13.68-.09.18-.26.3-.46.34-.31.09-.63.14-.95.15l-1.51-.03Zm-4.77-9.6c-.72-.57-1.53-1.02-2.4-1.34l.53-.64c.45.17.9.36,1.33.58.38.19.75.41,1.08.68l-.54.72Zm.6-1.84c-.34-.3-.7-.58-1.09-.81-.43-.27-.88-.52-1.34-.74l.54-.65c.89.36,1.71.85,2.45,1.46l-.56.74Zm1.71,10.85c-.62-.71-1.36-1.32-2.19-1.78l.76-.65c.82.47,1.58,1.05,2.24,1.73l-.81.7Zm.12-5.77v-4.41h2.79l.09-.38.09-.37h-3.85v-.81h2.35c-.21-.41-.47-.79-.78-1.13l.88-.25c.41.38.75.82,1,1.32l-.19.06h2.38c.33-.44.64-.9.91-1.38l1,.21c-.27.41-.57.8-.88,1.17h2.8v.81h-4.55l-.27.75h3.62v4.41h-7.39Zm1-3.15h5.25v-.63h-5.25v.63Zm0,1.26h5.25v-.68h-5.25v.68Zm0,1.27h5.25v-.67h-5.25v.67Z" style="fill: #fff; stroke-width: 0px;"/>
              <path d="m1195.75,36.02c-.1-.32-.27-.62-.5-.87,1.06-.03,2.1-.21,3.11-.52.57-.18,1.04-.59,1.3-1.12h-2.15v-4.81h9.12v4.81h-2.58v1.05c0,.18,0,.28.14.33.22.06.44.08.67.07h2.37c.28,0,.46-.08.54-.24.12-.37.17-.75.16-1.14.32.16.65.28,1,.35,0,.54-.14,1.07-.41,1.53-.3.29-.72.43-1.13.38h-2.59c-.49.05-.98-.04-1.42-.26-.28-.25-.41-.63-.36-1v-1.07h-2.19c-.25.75-.79,1.37-1.5,1.71-1.14.47-2.35.74-3.58.8Zm.2-7.94v-5.2h6v.72h-2.51v.74h2.09v2.21h-2.09v.87h2.62v.71l-6.11-.05Zm1-3.79h1.57v-.74h-1.57v.74Zm0,1.53h3.59v-.84h-3.59v.84Zm0,1.55h1.57v-.87h-1.57v.87Zm1.66,2.71h6.94v-.71h-6.94v.71Zm0,1.38h6.94v-.72h-6.94v.72Zm0,1.39h6.94v-.73h-6.94v.73Zm3.85-7.36c-.2-.27-.45-.48-.75-.63.82-.66,1.43-1.53,1.78-2.52l1,.15c-.09.24-.2.48-.31.72h4.54v.76h-5c-.35.57-.79,1.08-1.29,1.52h.03Zm.27,2.7v-2.31h5.76v2.34l-5.76-.03Zm.81-2.93v-.7h4.44v.7h-4.44Zm0,2.3h.91v-1.1h-.91v1.1Zm1.56,0h1v-1.1h-1v1.1Zm1.6,0h1v-1.1h-1v1.1Z" style="fill: #fff; stroke-width: 0px;"/>
              <path d="m1227.92,39.06v-16.75h1v16.75h-1Z" style="fill: #fff; stroke-width: 0px;"/>
              <path d="m1248.33,29.3c-.19-.3-.41-.57-.67-.81,1.1-.47,2.12-1.13,3-1.95-.6-.59-1.27-1.11-2-1.54l.62-.62c.74.41,1.41.93,2,1.53.6-.62,1.1-1.31,1.51-2.07h-3.66v-.96h4.47l.71.37c-.49,1.21-1.19,2.31-2.09,3.26h5.09c-1.06-1.12-1.92-2.41-2.54-3.81l.95-.3c.29.65.64,1.26,1.05,1.84.69-.53,1.33-1.12,1.93-1.75l.84.6c-.71.66-1.46,1.27-2.26,1.83.31.39.65.76,1,1.11.72-.53,1.39-1.13,2-1.79l.84.59c-.7.64-1.45,1.24-2.23,1.78.82.68,1.74,1.23,2.73,1.63-.29.27-.54.57-.74.91-1.31-.6-2.49-1.44-3.48-2.48v.8h-5.52v-.68c-1.03,1.04-2.23,1.89-3.55,2.51Zm-.09,6.37v-.94h4.08c-.19-.7-.49-1.38-.87-2l.84-.23h-1.7v-3.84h8.24v3.82h-1.52l.74.19c-.34.71-.71,1.4-1.13,2.06h4.28v.94h-12.96Zm3.42-4.12h6.06v-2h-6.06v2Zm1.08,3.18h3.61l-.48-.14c.43-.67.79-1.37,1.08-2.11h-4.47c.42.62.76,1.29,1,2l-.74.25Z" style="fill: #fff; stroke-width: 0px;"/>
              <path d="m1263.81,35.99c-.3-.33-.64-.63-1-.89,1.6-.82,2.96-2.04,3.95-3.54,1.04-1.65,1.76-3.48,2.13-5.39l.66.1c-.1-.64-.17-1.28-.2-1.92h-3.68v-1.11h4.76c-.04,1.9.28,3.79.92,5.58.98,2.63,2.86,4.84,5.31,6.22-.35.26-.65.58-.9.93-3.08-1.82-5.26-4.85-6-8.35-.47,1.79-1.25,3.48-2.29,5-.97,1.37-2.21,2.52-3.66,3.37Z" style="fill: #fff; stroke-width: 0px;"/>
            </g>
            <path d="m1311.13,14.88h140c8.28,0,15,6.72,15,15h0c0,8.28-6.72,15-15,15h-140c-8.28,0-15-6.72-15-15h0c0-8.28,6.72-15,15-15Z" style="fill: #fff; isolation: isolate; opacity: .27; stroke-width: 0px;"/>
            <path d="m1455.53,39.24l-5.88-5.88c2.78-3.55,2.16-8.69-1.4-11.47-3.55-2.78-8.69-2.16-11.47,1.4-2.78,3.55-2.16,8.69,1.4,11.47,2.98,2.33,7.16,2.31,10.12-.04l5.88,5.88c.38.35.97.35,1.35,0h0c.36-.38.36-.98,0-1.36Zm-7.87-6.51c-2.45,2.46-6.44,2.46-8.9,0s-2.46-6.44,0-8.9c2.45-2.46,6.44-2.46,8.9,0,0,0,0,0,0,0,2.45,2.46,2.45,6.43,0,8.89Z" style="fill: #fff; stroke-width: 0px;"/>
            <g>
              <path d="m1316.92,26.12h-4v-.64h1.94c-.16-.4-.36-.78-.58-1.14l.59-.28c.26.46.49.93.68,1.42h1.32l.05.64Zm-.16,1.86h-3.47v-.67h3.47v.67Zm0,1.95h-3.47v-.68h3.47v.68Zm-.2,5.27h-.66v-.7h-1.77v1h-.64v-4.26h3.1l-.03,3.96Zm-.66-1.35v-1.97h-1.77v2l1.77-.03Zm8.35-5h-7.07v-.6h3.25v-.95h-2.69v-.6h2.69v-.9h-3v-.59h3v-1h.66v1h2.9v.59h-2.86v.9h2.6v.6h-2.6v.95h3.16l-.04.6Zm-.8,5.65c.02.29-.09.58-.3.78-.2.2-.86.27-2,.23l-.22-.66h1.44c.1,0,.19-.04.26-.11.07-.06.12-.15.12-.25v-1.06h-4.19c-.16.77-.47,1.5-.91,2.15l-.49-.44c.65-1.02.95-2.22.88-3.43v-2h5.39l.02,4.79Zm-.68-1.69v-.93h-4.09c.03.33.03.67,0,1l4.09-.07Zm0-1.58v-.94h-4.08v.94h4.08Z" style="fill: #fff; stroke-width: 0px;"/>
              <path d="m1330.51,33.79h-1.9v1.78h-.62v-1.78h-2v-.65h2v-1.15h-1.55v-5h1.55v-1.11h-1.86v-.63h1.82v-1h.62v1h1.83v.63h-1.83v1.14h1.56v5h-1.55v1.15h1.9l.03.62Zm-2.52-4.64v-1.51h-.92v1.51h.92Zm0,2.19v-1.58h-.92v1.58h.92Zm1.55-2.19v-1.51h-.93v1.51h.93Zm0,2.19v-1.58h-.93v1.58h.93Zm4.22,3.38c0,.56-.38.83-1.14.83-.12.02-.24.02-.36,0l-.25-.66c.18.03.37.05.55.05.38,0,.57-.09.57-.28v-1.63h-1.51c-.11.87-.35,1.71-.71,2.51l-.57-.39c.5-.99.75-2.09.72-3.2v-3.4h2.7v6.17Zm3.65-7.52l-.38.6c-1.2-.64-2.25-1.54-3.06-2.64-.85,1.02-1.86,1.9-3,2.59l-.48-.53c1.41-.7,2.59-1.79,3.4-3.13l.67.22c-.05.09-.11.18-.18.26.75,1.14,1.8,2.05,3.03,2.63Zm-4.28,5.19v-1.32h-1.41v1.32h1.41Zm0-2v-1.19h-1.41v1.21l1.41-.02Zm2.42-2.6h-3.3v-.67h3.3v.67Zm1.28,6.89c.03.25-.07.49-.26.65-.33.16-.7.22-1.06.19h-.6l-.26-.66h.79c.23.05.46.06.69.02.06,0,.09-.11.09-.22v-6.46h.65l-.04,6.48Zm-1.51-1.21h-.67v-4.59h.67v4.59Z" style="fill: #fff; stroke-width: 0px;"/>
              <path d="m1350.36,34.99l-.44.61c-2.45-1.97-4.2-4.68-5-7.72-.94,3.04-2.83,5.69-5.4,7.56l-.53-.53c.84-.57,1.61-1.24,2.28-2,.65-.72,1.22-1.51,1.7-2.35.48-.85.87-1.75,1.16-2.68.22-.56.37-1.13.47-1.72l-.07-1h-1.21v-.7h1.89c-.04,4.13,1.87,8.03,5.15,10.53Z" style="fill: #fff; stroke-width: 0px;"/>
              <path d="m1357.13,27.88h-3.83v7.63h-.67v-11h4.5v3.37Zm-.64-2v-.77h-3.19v.77h3.19Zm0,1.41v-.8h-3.19v.8h3.19Zm1,4.12l-.52.26-.19-.36-2.68.35-.17-.54c.58-.34,1.13-.75,1.63-1.21l-1.48.2-.17-.52c.65-.41,1.23-.93,1.7-1.54l.63.28c-.37.41-.78.79-1.22,1.13l1.17-.17c.23-.19.44-.39.63-.62l.6.27c-.73.73-1.51,1.43-2.32,2.07l1.42-.2c-.07-.14-.16-.28-.26-.4l.54-.23c.27.39.49.81.68,1.24h.01Zm-.41,1.19c.06.67-.13,1.33-.52,1.87-.46.46-1.06.77-1.7.87l-.42-.56c1.14-.23,1.79-.67,1.94-1.31h-2v-1.53h.63v1h1.43c.01-.15.01-.3,0-.45v-.61h.63v.72Zm4.59-1.23l-.51.33-.27-.42-3,.28-.14-.51c.56-.31,1.07-.68,1.53-1.12l-1.49.14-.15-.48c.66-.37,1.22-.89,1.65-1.52l.61.27c-.34.4-.71.77-1.11,1.11l1.13-.12c.2-.16.39-.34.56-.53l.55.26c-.64.67-1.33,1.29-2.06,1.85l1.58-.13c-.09-.16-.21-.31-.35-.44l.53-.29c.35.41.66.86.93,1.33h0Zm-.88,2.1h-2.12v1.79h-.63v-3.38h.63v1h1.5v-1h.62v1.59Zm2,1.3c.01.21-.07.41-.22.56-.14.13-.33.21-.52.21h-1.23l-.28-.68c.28.02.55.02.83,0,.23.02.45,0,.67-.06.08-.05.12-.13.11-.22v-6.7h-3.87v-3.4h4.51v10.29Zm-.66-8.89v-.77h-3.18v.77h3.18Zm0,1.41v-.8h-3.18v.8h3.18Z" style="fill: #fff; stroke-width: 0px;"/>
              <path d="m1369.33,26.65l-.47.36c-.44-.63-.93-1.23-1.48-1.77-.42.73-.89,1.43-1.4,2.09h2.78v.55h-1.25v1.53h1.46v.59h-1.46v4.08c.48-.11.95-.24,1.41-.4v.61c-1.05.35-2.28.69-3.69,1l-.15-.62c.46-.08,1.07-.22,1.83-.43v-4.2h-1.78v-.59h1.72v-1.57h-1v-.49c-.17.2-.35.39-.55.57l-.4-.5c.95-1,1.72-2.15,2.3-3.4l.56.27c-.01.11-.05.21-.12.29.65.6,1.22,1.28,1.69,2.03Zm-2.84,6.86l-.62.15c-.09-.89-.29-1.76-.6-2.6l.6-.15c.3.84.51,1.71.62,2.6Zm2.43-2.5c-.1.78-.27,1.55-.49,2.3l-.57-.18c.21-.77.36-1.56.45-2.36l.61.24Zm7.43,3.65l-.21.65c-1.28.06-2.56-.04-3.82-.29-.79-.21-1.49-.66-2-1.3-.32.67-.72,1.29-1.19,1.86l-.51-.41c.57-.61,1.03-1.32,1.36-2.09-.4-.86-.64-1.79-.72-2.74l.61-.09c.03.69.17,1.36.42,2,.28-.98.45-1.98.49-3h-1.41v-.6c.49-1.1.92-2.23,1.28-3.38h-1.52v-.61h2.14v.61c-.33,1.15-.73,2.28-1.2,3.38h1.33c0,1.55-.25,3.09-.76,4.55.38.54.9.96,1.51,1.21.87.3,1.78.43,2.7.39.4-.09.91-.1,1.5-.14h0Zm0-1.87h-2.34v1.27h-.65v-1.27h-1.81v-.55h1.81v-1.13h-1.52v-.6h1.52v-1h-1.48v-.63h1.48v-1.23h-1.78v-.6h1.78v-1.17h-1.48v-.6h1.48v-1.08h.65v1.08h1.64v1.77h.69v.6h-.69v1.82h-1.64v1h2v.6h-2v1.13h2.34v.59Zm-1.34-5.74v-1.17h-1v1.22l1-.05Zm0,1.85v-1.25h-1v1.23l1,.02Z" style="fill: #fff; stroke-width: 0px;"/>
              <path d="m1389.34,31.8h-5.29v2.79c.02.29-.1.56-.33.74-.5.2-1.05.28-1.59.23h-.72l-.25-.74c.33.02.67.02,1,0,.34.03.67,0,1-.08.09-.06.14-.16.14-.27v-2.7h-5.31v-.69h5.31v-.85c.93-.53,1.83-1.1,2.69-1.73h-5.86v-.62h7v.68c-.98.76-2.01,1.46-3.09,2.08v.5h5.29v.66Zm-.54-3.26h-.67v-2.37h-8.87v2.37h-.69v-3.05h4.91c-.18-.38-.4-.73-.66-1.05l.62-.33c.31.44.59.9.82,1.38h4.55v3.05Z" style="fill: #fff; stroke-width: 0px;"/>
            </g>
            <g>
              <g>
                <path d="m1482.29,28.94h-1.16v.54c0,.09.03.18.08.26.04.06.11.1.19.1h.89v.56h-1c-.37.06-.71-.19-.77-.56-.01-.06-.01-.13,0-.19v-.71h-1.26c-.29.96-1.04,1.71-2,2l-.33-.49c.78-.19,1.43-.73,1.76-1.47h-1.56v-.55h2.36v-1h-2.07v-.55h2.07v-.83h.63v.83h2v.55h-2v1h2.22l-.05.51Zm-3.1,5.42c-.5.79-1.08,1.52-1.73,2.18l-.49-.44c.66-.61,1.22-1.31,1.69-2.08l.53.34Zm3-1.37c-1.45.26-3.13.49-5,.69l-.07-.58c.69,0,1.48-.13,2.36-.26v-1.14h-1.95v-.56h1.95v-1.11h.61v1.11h1.82v.56h-1.82v1.05c.7-.09,1.4-.19,2.08-.33l.02.57Zm-.75,3.38l-.6.13c-.11-.75-.3-1.48-.56-2.19l.58-.17c.27.72.47,1.47.58,2.23Zm6-5c-.04.6-.17,1.18-.38,1.74-.1.32-.43.51-.76.41-.2-.06-.35-.21-.41-.41-.2-.65-.27-1.33-.22-2v-2.82h-1.16c0,.9-.06,1.81-.19,2.7.32.47.63.95.92,1.46l-.48.39c-.23-.41-.45-.77-.67-1.09-.29.73-.7,1.4-1.21,2l-.55-.33c.62-.64,1.07-1.41,1.32-2.26-.34-.5-.72-.98-1.12-1.43l.44-.4c.26.29.54.62.83,1,.08-.66.12-1.33.11-2h-1.23v-.58h1.23v-1.73h.6v1.69h1.77v3.36c-.02.39-.02.77,0,1.16,0,.17.03.35.09.51.01.03.04.05.07.06,0,0,.1-.13.18-.38.1-.43.17-.88.2-1.32l.62.27Zm-3.06,5l-.59.17c-.24-.77-.54-1.51-.9-2.23l.56-.19c.37.72.69,1.47.95,2.23l-.02.02Zm3-.11l-.56.28c-.38-.79-.83-1.54-1.35-2.25l.58-.3c.51.71.95,1.46,1.32,2.25v.02Z" style="fill: #fff; stroke-width: 0px;"/>
                <path d="m1493.58,31.05h-3.45v5.43h-.67v-10.14h4.17l-.05,4.71Zm-.64-2.69v-1.41h-2.81v1.41h2.81Zm0,2.05v-1.46h-2.81v1.46h2.81Zm6,5.1c.01.23-.05.47-.18.66-.11.14-.25.24-.42.29-.33.05-.67.07-1,.06h-.89l-.25-.67c.33.02.67.02,1,0,.33.03.67,0,1-.07.09-.04.15-.14.14-.24v-4.49h-3.5v-4.71h4.12l-.02,9.17Zm-.62-7.15v-1.41h-2.89v1.41h2.89Zm0,2.05v-1.46h-2.89v1.46h2.89Z" style="fill: #fff; stroke-width: 0px;"/>
                <path d="m1505.63,29.45h-3.5v7h-.62v-10.14h4.16l-.04,3.14Zm-.6-1.87v-.7h-2.9v.71h2.9Zm0,1.3v-.74h-2.9v.74h2.9Zm1,3.81l-.49.24-.17-.34-2.47.33-.16-.5c.54-.32,1.04-.69,1.5-1.12l-1.37.19-.16-.48c.61-.38,1.14-.86,1.58-1.43l.58.26c-.34.38-.72.73-1.12,1.05l1.07-.16c.21-.17.4-.36.58-.57l.55.25c-.67.68-1.39,1.32-2.14,1.91l1.32-.18c-.07-.13-.15-.25-.24-.37l.49-.22c.24.36.45.74.62,1.14h.03Zm-.39,1.09c.05.61-.11,1.23-.47,1.73-.43.43-.98.71-1.58.8l-.38-.51c1-.22,1.65-.62,1.78-1.22h-1.86v-1.41h.57v.88h1.32c.01-.14.01-.29,0-.43v-.54h.58l.04.7Zm4.24-1.13l-.47.3-.25-.38-2.82.25-.12-.47c.51-.27.98-.6,1.4-1l-1.37.13-.14-.44c.61-.34,1.14-.83,1.53-1.41l.56.26c-.3.36-.64.7-1,1l1-.11c.1-.08.27-.25.52-.49l.5.24c-.59.62-1.22,1.19-1.9,1.71l1.46-.13c-.08-.15-.2-.29-.33-.4l.5-.27c.33.38.63.78.9,1.21h.03Zm-.81,1.93h-2v1.66h-.58v-3.16h.58v1h1.39v-.88h.57l.04,1.38Zm1.83,1.21c.02.38-.27.69-.65.71-.01,0-.03,0-.04,0h-1.13l-.27-.62h.77c.18.02.37.02.55,0,.07-.05.11-.13.1-.21v-6.22h-3.57v-3.14h4.17l.07,9.48Zm-.6-8.21v-.7h-2.93v.71h2.93Zm0,1.3v-.74h-2.93v.74h2.93Z" style="fill: #fff; stroke-width: 0px;"/>
                <path d="m1516.93,28.29l-.43.33c-.4-.59-.86-1.14-1.37-1.63-.39.67-.82,1.31-1.29,1.92h2.56v.55h-1.15v1.42h1.34v.56h-1.34v3.74c.44-.1.87-.22,1.3-.37v.57c-1,.32-2.1.63-3.41.93l-.13-.56c.43-.08,1-.21,1.69-.41v-3.92h-1.57v-.54h1.59v-1.4h-.91v-.46c-.15.19-.32.37-.5.53l-.37-.46c.87-.93,1.59-1.99,2.12-3.14l.52.25c-.01.1-.05.19-.11.27.56.55,1.05,1.16,1.46,1.82Zm-2.63,6.33l-.56.13c-.09-.82-.28-1.62-.56-2.4l.56-.13c.28.78.47,1.58.56,2.4Zm2.25-2.31c-.09.72-.24,1.43-.45,2.12l-.52-.17c.19-.71.33-1.44.41-2.17l.56.22Zm6.86,3.36l-.19.61c-1.18.06-2.37-.03-3.53-.27-.71-.2-1.35-.62-1.81-1.2-.31.62-.7,1.2-1.16,1.72l-.46-.39c.53-.56.95-1.21,1.25-1.92-.37-.8-.59-1.65-.66-2.53l.56-.08c.03.62.17,1.23.39,1.81.27-.92.42-1.86.45-2.82h-1.3v-.55c.45-1.02.85-2.06,1.18-3.12h-1.39v-.57h2v.57c-.31,1.06-.69,2.1-1.12,3.12h1.23c0,1.43-.24,2.85-.7,4.2.35.5.83.88,1.39,1.11.8.28,1.64.41,2.49.37.37,0,.83-.02,1.38-.06Zm0-1.72h-2.16v1.17h-.6v-1.17h-1.67v-.51h1.67v-1h-1.4v-.56h1.4v-1h-1.37v-.53h1.37v-1.14h-1.64v-.55h1.64v-1.13h-1.37v-.52h1.37v-1h.6v1h1.51v1.65h.64v.55h-.64v1.67h-1.51v1h1.81v.55h-1.81v1h2.16v.52Zm-1.28-5.29v-1.13h-.93v1.13h.93Zm0,1.7v-1.15h-.93v1.15h.93Z" style="fill: #fff; stroke-width: 0px;"/>
                <path d="m1535.4,33.04h-4.88v2.58c.02.26-.1.52-.31.67-.46.2-.97.27-1.47.22h-.66l-.23-.68c.32,0,.65.05,1,.05.3.02.61,0,.9-.08.09-.05.13-.15.13-.25v-2.51h-4.89v-.64h4.89v-.78c.86-.49,1.69-1.03,2.49-1.61h-5.45v-.62h6.48v.62c-.9.71-1.86,1.36-2.85,1.93v.46h4.88l-.03.64Zm-.49-3h-.64v-2.16h-8.14v2.19h-.64v-2.86h4.53c-.16-.36-.37-.69-.61-1l.58-.3c.29.4.54.83.75,1.27h4.21l-.04,2.86Z" style="fill: #fff; stroke-width: 0px;"/>
                <path d="m1542.13,29.26c.38,0,.68.3.69.67,0,.18-.07.36-.2.49-.13.13-.31.2-.49.19-.18,0-.35-.06-.48-.19-.27-.27-.26-.7,0-.96.13-.13.3-.2.48-.2Zm0,5.4c.18,0,.36.06.49.19.13.13.2.31.2.49,0,.18-.07.35-.2.48-.12.14-.3.22-.49.21-.38,0-.68-.3-.68-.68,0,0,0,0,0-.01,0-.18.06-.36.2-.49.13-.13.3-.2.48-.19Z" style="fill: #fff; stroke-width: 0px;"/>
              </g>
              <path d="m1554.98,26.75c-.49.83-1.05,1.61-1.68,2.33h1.3v.58h-1.86c-.44.46-.84.84-1.21,1.16h2.31v.54c-.5.5-1.02.97-1.56,1.41v.59c.72-.12,1.44-.27,2.16-.44v.62c-.67.16-1.38.3-2.14.43v1.65c.01.23-.07.45-.22.62-.3.19-.65.27-1,.23h-.62l-.2-.63h.77c.21.02.42,0,.61-.08.08-.06.12-.17.11-.27v-1.4c-1,.17-1.9.29-2.56.37l-.15-.57c1-.14,1.93-.28,2.71-.42v-.95c.42-.35.84-.73,1.24-1.13h-2.19c-.51.38-.99.71-1.44,1l-.41-.52c1.09-.61,2.09-1.35,3-2.2h-2.82v-.59h2.2v-1.37h-1.84v-.57h1.84v-1.16h.61v1.16h1.41v.57h-1.41v1.37h.59c.75-.79,1.39-1.67,1.92-2.62l.53.29Zm4.51,9.21l-.38.57c-.87-.53-1.64-1.21-2.28-2-.77.8-1.66,1.47-2.64,2l-.41-.55c1.02-.49,1.93-1.17,2.7-2-.49-.97-.82-2-1-3.07l.6-.22c.14.96.42,1.89.83,2.76.88-1.48,1.28-3.19,1.15-4.91h-1.82c-.4,1-.91,1.94-1.53,2.82l-.48-.44c1.08-1.47,1.77-3.19,2-5l.61.16c-.12.61-.26,1.21-.44,1.8h3v.61h-.74c.1,1.94-.4,3.86-1.43,5.5.61.81,1.38,1.48,2.26,1.97Z" style="fill: #fff; stroke-width: 0px;"/>
              <path d="m1571.4,33.35h-4.9v3.13h-.61v-3.13h-4.9v-.6h4.9v-.87h.61v.89h4.9v.58Zm-6.55.9c-1,.82-2.12,1.5-3.31,2l-.44-.49c1.17-.47,2.25-1.11,3.22-1.91l.53.4Zm6.18-4.91h-2.79c-.33.5-.72.95-1.17,1.35,1.22.31,2.47.69,3.74,1.14l-.36.52c-1.31-.47-2.65-.88-4-1.21-1.55.76-3.27,1.1-5,1l-.31-.58c1.52.09,3.05-.13,4.48-.66-1-.25-1.94-.46-2.82-.62.33-.32.65-.65.94-1h-2.41v-.57h2.92c.31-.38.62-.77.91-1.17l.55.24c-.21.33-.45.64-.7.93h2.87c.13-.2.25-.4.34-.62l.6.12c-.06.17-.13.34-.22.5h2.42v.63Zm-.11-1.13h-.64v-.76h-8.15v.76h-.64v-1.33h4.5c-.11-.25-.24-.49-.38-.72l.6-.2c.11.19.29.49.53.92h4.19v1.33Zm-3.45,1.13h-2.93c-.16.19-.34.4-.55.62.5.1,1.29.28,2.37.54.44-.32.81-.71,1.11-1.16h0Zm3.83,6.42l-.45.47c-1.06-.72-2.19-1.34-3.37-1.83l.45-.5c1.18.51,2.31,1.13,3.37,1.86Z" style="fill: #fff; stroke-width: 0px;"/>
              <path d="m1548.13,37.27v-.7h24v.7h-24Z" style="fill: #fff; stroke-width: 0px;"/>
              <path d="m1579.31,31.98l-.42.45c-.59-.63-1.24-1.2-1.94-1.71l.45-.47c.7.51,1.34,1.09,1.91,1.73Z" style="fill: #fff; stroke-width: 0px;"/>
              <path d="m1588.63,28.75c-.34.58-.74,1.13-1.17,1.65v6.13h-.62v-5.4c-.49.51-1.01.99-1.56,1.44l-.32-.49c1.25-1.03,2.32-2.28,3.14-3.68l.53.35Zm-.28-2.39c-.84,1.01-1.86,1.85-3,2.5l-.36-.49c1.09-.62,2.06-1.43,2.86-2.39l.5.38Zm7.07,3.84h-1.89v5.33c.04.42-.25.81-.66.9-.33.04-.67.06-1,.05h-1.08l-.25-.64h1.07c.39.03.78.03,1.17,0,.08,0,.11-.1.11-.21v-5.43h-4.22v-.63h6.79l-.04.63Zm-.58-3h-5.71v-.64h5.71v.64Z" style="fill: #fff; stroke-width: 0px;"/>
              <path d="m1602.73,26.52c-.79.21-1.6.36-2.42.44v.92h2.38v.57h-2.38v.88h2.19v3.55h-2.19v.85h2.19v.57h-2.19v1.21c.7-.06,1.43-.15,2.19-.28v.6c-2.15.28-3.97.5-5.46.65l-.14-.61c.87-.06,1.81-.16,2.82-.27v-1.3h-2.22v-.57h2.22v-.85h-2.21v-3.53h2.21v-.88h-2.59v-.59h2.63v-.85c-.67,0-1.41.08-2.22.08l-.2-.55c1.72.03,3.44-.16,5.11-.56l.28.52Zm-3,4.26v-.83h-1.6v.83h1.6Zm0,1.49v-.91h-1.6v.91h1.6Zm2.18-1.49v-.83h-1.59v.83h1.59Zm0,1.49v-.91h-1.59v.91h1.59Zm5-3.89c0,1.77,0,3.38-.08,4.82,0,.85-.07,1.69-.21,2.53-.07.24-.22.44-.43.57-.37.16-.78.23-1.19.2h-.43l-.2-.62h1.16c.15,0,.3-.06.41-.17.14-.15.21-.34.2-.54l.11-2.31c.06-1.29.09-2.59.09-3.88h-1.26c.05,2.64-.58,5.26-1.83,7.59l-.54-.27c1.21-2.25,1.82-4.77,1.77-7.32h-1.35v-.6h1.31v-2.35h.6c0,1,0,1.76-.06,2.35h1.93Z" style="fill: #fff; stroke-width: 0px;"/>
              <path d="m1619.37,28.6h-6.53c0,.63,0,1.32-.06,2.08h5.13c0,1.09-.07,2.18-.21,3.26-.05.64-.18,1.27-.39,1.88-.1.24-.29.44-.53.55-.49.14-.99.2-1.5.16h-.78l-.19-.68h1.12c.34.02.67-.01,1-.09.13-.07.22-.19.28-.32.14-.51.23-1.03.28-1.55.11-.89.18-1.75.21-2.61h-4.54c-.2,2.17-1.46,4.11-3.37,5.17l-.51-.51c.76-.43,1.44-.99,2-1.65.55-.63.94-1.38,1.13-2.2.19-1.16.27-2.34.24-3.52h-3.16v-.65h5c-.31-.62-.7-1.2-1.15-1.72l.61-.29c.51.61.93,1.28,1.27,2h4.62l.03.69Z" style="fill: #fff; stroke-width: 0px;"/>
              <path d="m1631.4,33.35h-4.9v3.13h-.61v-3.13h-4.9v-.6h4.9v-.87h.61v.89h4.9v.58Zm-6.55.9c-1,.82-2.12,1.5-3.31,2l-.44-.49c1.17-.47,2.25-1.11,3.22-1.91l.53.4Zm6.18-4.91h-2.79c-.33.5-.72.95-1.17,1.35,1.22.31,2.47.69,3.74,1.14l-.36.52c-1.31-.47-2.65-.88-4-1.21-1.55.76-3.27,1.1-5,1l-.31-.58c1.52.09,3.05-.13,4.48-.66-1-.25-1.94-.46-2.82-.62.33-.32.65-.65.94-1h-2.41v-.57h2.92c.31-.38.62-.77.91-1.17l.55.24c-.21.33-.45.64-.7.93h2.87c.13-.2.25-.4.34-.62l.6.12c-.06.17-.13.34-.22.5h2.42v.63Zm-.11-1.13h-.64v-.76h-8.15v.76h-.64v-1.33h4.5c-.11-.25-.24-.49-.38-.72l.6-.2c.11.19.29.49.53.92h4.19v1.33Zm-3.45,1.13h-2.93c-.16.19-.34.4-.55.62.5.1,1.29.28,2.37.54.44-.32.81-.71,1.11-1.16h0Zm3.83,6.42l-.45.47c-1.06-.72-2.19-1.34-3.37-1.83l.45-.5c1.18.51,2.31,1.13,3.37,1.86Z" style="fill: #fff; stroke-width: 0px;"/>
              <path d="m1584.13,37.27v-.7h48v.7h-48Z" style="fill: #fff; stroke-width: 0px;"/>
            </g>
          </g>
        </g>
        <rect x="-7" y="0" width="1930" height="701" style="fill: url(#_未命名漸層_4); stroke-width: 0px;"/>
        <g>
          <path d="m1843.54,250.27c-.54,0-1.07.03-1.59.09.02-.37.06-.74.06-1.11,0-9.62-7.8-17.42-17.43-17.42-5.05,0-9.58,2.16-12.76,5.58-3.27-1.28-6.83-2-10.56-2s-7.23.7-10.48,1.97c-4.19-7.59-12.27-12.73-21.55-12.73-13.59,0-24.6,11.01-24.6,24.6,0,.73.04,1.46.1,2.18-1.77-.74-3.7-1.15-5.74-1.15-4.03,0-7.67,1.62-10.35,4.22-5.29-4.83-12.29-7.83-20.02-7.83-16.44,0-29.77,13.33-29.77,29.77,0,.89.05,1.76.12,2.63-2.14-.9-4.48-1.39-6.94-1.39-9.93,0-17.98,8.05-17.98,17.98s8.05,17.98,17.98,17.98h126.51c9.93,0,17.98-8.05,17.98-17.98,0-6.72-3.69-12.57-9.15-15.66h36.18c8.21,0,14.86-6.65,14.86-14.86s-6.65-14.86-14.86-14.86Z" style="fill: #fff; stroke-width: 0px;"/>
          <path d="m1684.8,160.48c-.56,0-1.11.03-1.65.09.02-.38.06-.76.06-1.15,0-9.94-8.06-18-18-18-5.21,0-9.89,2.23-13.18,5.77-3.38-1.33-7.06-2.06-10.91-2.06s-7.47.72-10.83,2.03c-4.33-7.84-12.67-13.15-22.26-13.15-14.03,0-25.41,11.38-25.41,25.41,0,.76.04,1.51.1,2.25-1.82-.76-3.83-1.19-5.93-1.19-8.48,0-15.35,6.87-15.35,15.35s6.87,15.35,15.35,15.35h107.99c8.48,0,15.35-6.87,15.35-15.35s-6.87-15.35-15.35-15.35Z" style="fill: #fff; stroke-width: 0px;"/>
          <path d="m290.34,357.3c-.56,0-1.11.03-1.65.09.02-.38.06-.76.06-1.15,0-9.94-8.06-18-18-18-5.21,0-9.89,2.23-13.18,5.77-3.38-1.33-7.06-2.06-10.91-2.06s-7.47.72-10.83,2.03c-4.33-7.84-12.67-13.15-22.26-13.15-14.03,0-25.41,11.38-25.41,25.41,0,.76.04,1.51.1,2.25-1.82-.76-3.83-1.19-5.93-1.19-8.48,0-15.35,6.87-15.35,15.35s6.87,15.35,15.35,15.35h107.99c8.48,0,15.35-6.87,15.35-15.35s-6.87-15.35-15.35-15.35Z" style="fill: #fff; stroke-width: 0px;"/>
          <path d="m1381.35,314.76c-1.89,0-3.68.4-5.31,1.11-2.09-9.36-10.44-16.36-20.43-16.36-.76,0-1.51.05-2.25.12.03-.52.08-1.04.08-1.57,0-13.56-10.99-24.56-24.56-24.56-7.11,0-13.49,3.04-17.98,7.87-.8-.31-1.63-.57-2.46-.84,0-.07.02-.14.02-.21,0-7.16-5.64-12.96-12.72-13.31.22-1.22.35-2.46.35-3.74,0-11.63-9.43-21.06-21.06-21.06s-21.06,9.43-21.06,21.06c0,.09.01.18.01.27-1.03-.09-2.06-.16-3.12-.16-2.52,0-4.97.28-7.34.79-5.94-4.74-13.46-7.59-21.65-7.59-19.2,0-34.76,15.56-34.76,34.77,0,6.06,1.55,11.75,4.28,16.7-2.26,3.08-3.71,6.79-4,10.83-2.43-2.54-5.84-4.13-9.63-4.13-7.38,0-13.37,5.99-13.37,13.37s5.99,13.37,13.37,13.37c6.15,0,11.27-4.17,12.84-9.82,3.72,5.84,10.23,9.72,17.66,9.72h147.34c5.67,0,10.8-2.26,14.58-5.92,2.39,3.63,6.49,6.03,11.16,6.03,7.38,0,13.37-5.99,13.37-13.37s-5.99-13.37-13.37-13.37Z" style="fill: #fff; stroke-width: 0px;"/>
          <path d="m-48.32,280.36c1.89,0,3.68.4,5.31,1.11,2.09-9.36,10.44-16.36,20.43-16.36.76,0,1.51.05,2.25.12-.03-.52-.08-1.04-.08-1.57,0-13.56,10.99-24.56,24.56-24.56,7.11,0,13.49,3.04,17.98,7.87.8-.31,1.63-.57,2.46-.84,0-.07-.02-.14-.02-.21,0-7.16,5.64-12.96,12.72-13.31-.22-1.22-.35-2.46-.35-3.74,0-11.63,9.43-21.06,21.06-21.06s21.06,9.43,21.06,21.06c0,.09-.01.18-.01.27,1.03-.09,2.06-.16,3.12-.16,2.52,0,4.97.28,7.34.79,5.94-4.74,13.46-7.59,21.65-7.59,19.2,0,34.77,15.56,34.77,34.76,0,6.06-1.55,11.75-4.28,16.7,2.27,3.08,3.71,6.79,4,10.83,2.43-2.54,5.84-4.13,9.63-4.13,7.38,0,13.37,5.99,13.37,13.37s-5.99,13.37-13.37,13.37c-6.15,0-11.27-4.17-12.84-9.83-3.72,5.84-10.23,9.72-17.66,9.72H-22.59c-5.67,0-10.8-2.26-14.58-5.92-2.39,3.63-6.49,6.03-11.16,6.03-7.38,0-13.37-5.99-13.37-13.37s5.99-13.37,13.37-13.37Z" style="fill: #fff; stroke-width: 0px;"/>
          <path d="m880.54,237h151.03c8.61-3.46,14.69-11.88,14.69-21.72,0-12.93-10.49-23.42-23.42-23.42-3.33,0-6.49.71-9.36,1.96-4.02-10.71-13.48-18.74-25.03-20.73-1.01-17.38-15.39-31.18-33.03-31.18-12.44,0-23.26,6.86-28.92,17-.03,0-.05,0-.08,0-21.16,0-38.38,16.67-39.36,37.59-.37-.02-.71-.11-1.08-.11-11.44,0-20.71,9.27-20.71,20.71,0,9.54,6.49,17.5,15.27,19.9Z" style="fill: #fff; stroke-width: 0px;"/>
          <path d="m1350.87,152.44h86.34c4.92-1.98,8.4-6.79,8.4-12.42,0-7.39-5.99-13.39-13.39-13.39-1.9,0-3.71.4-5.35,1.12-2.3-6.12-7.7-10.71-14.31-11.85-.58-9.94-8.8-17.82-18.88-17.82-7.11,0-13.29,3.92-16.53,9.72-.02,0-.03,0-.05,0-12.1,0-21.94,9.53-22.5,21.49-.21-.01-.41-.06-.62-.06-6.54,0-11.84,5.3-11.84,11.84,0,5.46,3.71,10,8.73,11.38Z" style="fill: #fff; stroke-width: 0px;"/>
        </g>
        <g>
          <path d="m1843.54,250.27c-.54,0-1.07.03-1.59.09.02-.37.06-.74.06-1.11,0-9.62-7.8-17.42-17.43-17.42-5.05,0-9.58,2.16-12.76,5.58-3.27-1.28-6.83-2-10.56-2s-7.23.7-10.48,1.97c-4.19-7.59-12.27-12.73-21.55-12.73-13.59,0-24.6,11.01-24.6,24.6,0,.73.04,1.46.1,2.18-1.77-.74-3.7-1.15-5.74-1.15-4.03,0-7.67,1.62-10.35,4.22-5.29-4.83-12.29-7.83-20.02-7.83-16.44,0-29.77,13.33-29.77,29.77,0,.89.05,1.76.12,2.63-2.14-.9-4.48-1.39-6.94-1.39-9.93,0-17.98,8.05-17.98,17.98s8.05,17.98,17.98,17.98h126.51c9.93,0,17.98-8.05,17.98-17.98,0-6.72-3.69-12.57-9.15-15.66h36.18c8.21,0,14.86-6.65,14.86-14.86s-6.65-14.86-14.86-14.86Z" style="fill: #fff; stroke-width: 0px;"/>
          <path d="m1684.8,160.48c-.56,0-1.11.03-1.65.09.02-.38.06-.76.06-1.15,0-9.94-8.06-18-18-18-5.21,0-9.89,2.23-13.18,5.77-3.38-1.33-7.06-2.06-10.91-2.06s-7.47.72-10.83,2.03c-4.33-7.84-12.67-13.15-22.26-13.15-14.03,0-25.41,11.38-25.41,25.41,0,.76.04,1.51.1,2.25-1.82-.76-3.83-1.19-5.93-1.19-8.48,0-15.35,6.87-15.35,15.35s6.87,15.35,15.35,15.35h107.99c8.48,0,15.35-6.87,15.35-15.35s-6.87-15.35-15.35-15.35Z" style="fill: #fff; stroke-width: 0px;"/>
          <path d="m290.34,357.3c-.56,0-1.11.03-1.65.09.02-.38.06-.76.06-1.15,0-9.94-8.06-18-18-18-5.21,0-9.89,2.23-13.18,5.77-3.38-1.33-7.06-2.06-10.91-2.06s-7.47.72-10.83,2.03c-4.33-7.84-12.67-13.15-22.26-13.15-14.03,0-25.41,11.38-25.41,25.41,0,.76.04,1.51.1,2.25-1.82-.76-3.83-1.19-5.93-1.19-8.48,0-15.35,6.87-15.35,15.35s6.87,15.35,15.35,15.35h107.99c8.48,0,15.35-6.87,15.35-15.35s-6.87-15.35-15.35-15.35Z" style="fill: #fff; stroke-width: 0px;"/>
          <path d="m1381.35,314.76c-1.89,0-3.68.4-5.31,1.11-2.09-9.36-10.44-16.36-20.43-16.36-.76,0-1.51.05-2.25.12.03-.52.08-1.04.08-1.57,0-13.56-10.99-24.56-24.56-24.56-7.11,0-13.49,3.04-17.98,7.87-.8-.31-1.63-.57-2.46-.84,0-.07.02-.14.02-.21,0-7.16-5.64-12.96-12.72-13.31.22-1.22.35-2.46.35-3.74,0-11.63-9.43-21.06-21.06-21.06s-21.06,9.43-21.06,21.06c0,.09.01.18.01.27-1.03-.09-2.06-.16-3.12-.16-2.52,0-4.97.28-7.34.79-5.94-4.74-13.46-7.59-21.65-7.59-19.2,0-34.76,15.56-34.76,34.77,0,6.06,1.55,11.75,4.28,16.7-2.26,3.08-3.71,6.79-4,10.83-2.43-2.54-5.84-4.13-9.63-4.13-7.38,0-13.37,5.99-13.37,13.37s5.99,13.37,13.37,13.37c6.15,0,11.27-4.17,12.84-9.82,3.72,5.84,10.23,9.72,17.66,9.72h147.34c5.67,0,10.8-2.26,14.58-5.92,2.39,3.63,6.49,6.03,11.16,6.03,7.38,0,13.37-5.99,13.37-13.37s-5.99-13.37-13.37-13.37Z" style="fill: #fff; stroke-width: 0px;"/>
          <path d="m-48.32,280.36c1.89,0,3.68.4,5.31,1.11,2.09-9.36,10.44-16.36,20.43-16.36.76,0,1.51.05,2.25.12-.03-.52-.08-1.04-.08-1.57,0-13.56,10.99-24.56,24.56-24.56,7.11,0,13.49,3.04,17.98,7.87.8-.31,1.63-.57,2.46-.84,0-.07-.02-.14-.02-.21,0-7.16,5.64-12.96,12.72-13.31-.22-1.22-.35-2.46-.35-3.74,0-11.63,9.43-21.06,21.06-21.06s21.06,9.43,21.06,21.06c0,.09-.01.18-.01.27,1.03-.09,2.06-.16,3.12-.16,2.52,0,4.97.28,7.34.79,5.94-4.74,13.46-7.59,21.65-7.59,19.2,0,34.77,15.56,34.77,34.76,0,6.06-1.55,11.75-4.28,16.7,2.27,3.08,3.71,6.79,4,10.83,2.43-2.54,5.84-4.13,9.63-4.13,7.38,0,13.37,5.99,13.37,13.37s-5.99,13.37-13.37,13.37c-6.15,0-11.27-4.17-12.84-9.83-3.72,5.84-10.23,9.72-17.66,9.72H-22.59c-5.67,0-10.8-2.26-14.58-5.92-2.39,3.63-6.49,6.03-11.16,6.03-7.38,0-13.37-5.99-13.37-13.37s5.99-13.37,13.37-13.37Z" style="fill: #fff; stroke-width: 0px;"/>
          <path d="m880.54,237h151.03c8.61-3.46,14.69-11.88,14.69-21.72,0-12.93-10.49-23.42-23.42-23.42-3.33,0-6.49.71-9.36,1.96-4.02-10.71-13.48-18.74-25.03-20.73-1.01-17.38-15.39-31.18-33.03-31.18-12.44,0-23.26,6.86-28.92,17-.03,0-.05,0-.08,0-21.16,0-38.38,16.67-39.36,37.59-.37-.02-.71-.11-1.08-.11-11.44,0-20.71,9.27-20.71,20.71,0,9.54,6.49,17.5,15.27,19.9Z" style="fill: #fff; stroke-width: 0px;"/>
          <path d="m1350.87,152.44h86.34c4.92-1.98,8.4-6.79,8.4-12.42,0-7.39-5.99-13.39-13.39-13.39-1.9,0-3.71.4-5.35,1.12-2.3-6.12-7.7-10.71-14.31-11.85-.58-9.94-8.8-17.82-18.88-17.82-7.11,0-13.29,3.92-16.53,9.72-.02,0-.03,0-.05,0-12.1,0-21.94,9.53-22.5,21.49-.21-.01-.41-.06-.62-.06-6.54,0-11.84,5.3-11.84,11.84,0,5.46,3.71,10,8.73,11.38Z" style="fill: #fff; stroke-width: 0px;"/>
        </g>
        <g style="opacity: .53;">
          <path d="m-51.68,585c59.02-41.63,218.24-164.74,235.79-164.74,19.2,0,51.2,22.33,67.2,22.33s57.6-40.19,92.8-43.22c35.2-3.03,192,166.78,204.8,166.78s112-80.38,131.2-83.36c19.2-2.98,83.2,38.7,83.2,38.7,0,0,156.8-120.58,195.2-122.07,36.5-1.42,232.01,147.8,276,185.58H-51.68Z" style="fill: #46a8b2; opacity: .53; stroke-width: 0px;"/>
          <path d="m2085.36,584.08c-91.16-55.21-337.1-218.47-364.21-218.47-29.66,0-79.09,29.61-103.8,29.61s-88.97-53.3-143.34-57.32c-54.37-4.02-296.57,221.17-316.34,221.17s-173-106.6-202.66-110.55c-29.66-3.95-128.51,51.33-128.51,51.33,0,0-242.2-159.9-301.51-161.88-56.38-1.88-358.38,196.01-426.31,246.1h1986.69Z" style="fill: #6cc4d3; opacity: .53; stroke-width: 0px;"/>
          <path d="m1521.23,160.97h86.34c4.92-1.83,8.4-6.26,8.4-11.45,0-6.82-5.99-12.35-13.39-12.35-1.9,0-3.71.37-5.35,1.03-2.3-5.65-7.7-9.88-14.31-10.93-.58-9.16-8.8-16.44-18.88-16.44-7.11,0-13.29,3.62-16.53,8.96-.02,0-.03,0-.05,0-12.1,0-21.94,8.79-22.5,19.82-.21,0-.41-.06-.62-.06-6.54,0-11.84,4.89-11.84,10.92,0,5.03,3.71,9.22,8.73,10.49Z" style="fill: #fff; stroke-width: 0px;"/>
        </g>
        <g>
          <g>
            <path d="m1060.98,542c.49-1.79.77-3.66.77-5.61,0-11.79-9.56-21.35-21.35-21.35s-21.35,9.56-21.35,21.35c0,1.94.27,3.82.77,5.61h41.16Z" style="fill: #a6c835; stroke-width: 0px;"/>
            <path d="m1110.72,518.19c0,10.06-15.46,18.21-34.53,18.21s-34.53-8.15-34.53-18.21,15.46-18.21,34.53-18.21,34.53,8.15,34.53,18.21Z" style="fill: #a6c835; stroke-width: 0px;"/>
            <path d="m1144.3,542c.21-.81.32-1.63.32-2.47,0-12.14-22.49-21.97-50.23-21.97s-50.23,9.84-50.23,21.97c0,.83.11,1.66.32,2.47h99.81Z" style="fill: #9fbc28; stroke-width: 0px;"/>
            <path d="m1143.36,522.58c0,9.02-8.99,16.32-20.09,16.32s-20.09-7.31-20.09-16.32,8.99-16.32,20.09-16.32,20.09,7.31,20.09,16.32Z" style="fill: #9fbc28; stroke-width: 0px;"/>
            <path d="m1260.89,542c2.7-3.76,4.27-8.28,4.27-13.14,0-13.18-11.52-23.86-25.74-23.86s-25.74,10.68-25.74,23.86c0,4.86,1.58,9.37,4.28,13.14h42.93Z" style="fill: #9fbc28; stroke-width: 0px;"/>
            <path d="m1216.93,542c1.15-1.39,1.77-2.84,1.77-4.35,0-9.01-21.92-16.32-48.97-16.32s-48.97,7.31-48.97,16.32c0,1.51.63,2.96,1.77,4.35h94.39Z" style="fill: #a6c835; stroke-width: 0px;"/>
            <path d="m1204.89,521.95c0,6.59-7.59,11.93-16.95,11.93s-16.95-5.34-16.95-11.93,7.59-11.93,16.95-11.93,16.95,5.34,16.95,11.93Z" style="fill: #a6c835; stroke-width: 0px;"/>
            <path d="m1206.9,542h72.57c3.28-2.97,5.15-6.37,5.15-10,0-11.44-18.55-20.72-41.44-20.72s-41.44,9.28-41.44,20.72c0,3.63,1.87,7.03,5.15,10Z" style="fill: #a6c835; stroke-width: 0px;"/>
            <path d="m1333.93,542h36.99c3.72-3.52,5.99-8.11,5.99-13.14,0-11.1-10.96-20.09-24.48-20.09s-24.48,8.99-24.48,20.09c0,5.03,2.27,9.62,5.99,13.14Z" style="fill: #9fbc28; stroke-width: 0px;"/>
            <path d="m1401.03,542c1.41-2.26,2.25-4.79,2.25-7.49,0-9.36-9.56-16.95-21.35-16.95s-21.35,7.59-21.35,16.95c0,2.7.83,5.23,2.25,7.49h38.19Z" style="fill: #a6c835; stroke-width: 0px;"/>
            <path d="m1301.54,542c3.9-4.19,6.31-9.94,6.31-16.28,0-12.83-9.84-23.23-21.97-23.23s-21.97,10.4-21.97,23.23c0,6.34,2.41,12.09,6.31,16.28h31.33Z" style="fill: #a6c835; stroke-width: 0px;"/>
            <path d="m1373.99,542c-3.08-7.41-23.64-13.14-48.56-13.14s-45.48,5.73-48.56,13.14h97.11Z" style="fill: #a6c835; stroke-width: 0px;"/>
            <path d="m1303.42,542h23.93c8.54-2.91,14.4-8.82,14.4-15.65,0-9.71-11.81-17.58-26.37-17.58s-26.37,7.87-26.37,17.58c0,6.83,5.86,12.74,14.4,15.65Z" style="fill: #a6c835; stroke-width: 0px;"/>
            <path d="m1075.47,507.97c12.77-.1,23.91,2.75,30.04,7.06-1.03-7.82-14.07-13.92-30.04-13.79-15.98.12-29.02,6.42-30.04,14.26,6.14-4.41,17.28-7.43,30.04-7.52Z" style="fill: #c7e54a; stroke-width: 0px;"/>
            <path d="m1120.96,511.63c9.34,0,17.31,4.72,20.54,11.38.04-.38.07-.75.07-1.13,0-8.17-8.15-14.8-18.21-14.8-7.43,0-13.81,3.62-16.64,8.8,3.85-2.64,8.81-4.25,14.25-4.25Z" style="fill: #c7e54a; stroke-width: 0px;"/>
            <path d="m1059.11,526c7.75-5.22,16.99-5.76,23.39-2.04-.18-.33-.36-.66-.58-.98-4.57-6.78-15.03-7.71-23.37-2.09-6.16,4.15-9.43,10.72-8.88,16.6,1.71-4.34,4.94-8.45,9.44-11.48Z" style="fill: #c7e54a; stroke-width: 0px;"/>
            <path d="m1098.72,527.01c9.29.99,16.71,6.53,19.21,13.5.07-.37.15-.74.19-1.12.87-8.13-6.53-15.58-16.54-16.65-7.39-.79-14.11,2.13-17.48,6.98,4.11-2.22,9.22-3.28,14.62-2.71Z" style="fill: #c7e54a; stroke-width: 0px;"/>
            <path d="m1131.4,530.75c8.55-3.77,17.74-2.67,23.38,2.12-.12-.36-.24-.72-.39-1.07-3.3-7.48-13.43-10.25-22.64-6.19-6.8,3-11.17,8.88-11.67,14.77,2.45-3.97,6.35-7.44,11.32-9.63Z" style="fill: #c7e54a; stroke-width: 0px;"/>
            <path d="m1158.85,542c3.13-2.96,6.89-5.52,11.21-7.43,12.86-5.67,26.69-4.01,35.17,3.19-.18-.54-.36-1.08-.59-1.6-4.96-11.25-20.21-15.41-34.05-9.31-7.47,3.29-12.98,8.91-15.71,15.15h3.97Z" style="fill: #c7e54a; stroke-width: 0px;"/>
            <path d="m1239.23,514.89c13.98,1.44,25.17,9.74,28.97,20.2.11-.56.22-1.11.28-1.69,1.26-12.23-9.92-23.4-24.96-24.95-11.11-1.15-21.21,3.28-26.25,10.59,6.16-3.36,13.84-4.99,21.97-4.15Z" style="fill: #c7e54a; stroke-width: 0px;"/>
            <path d="m1340.95,530.12c10.06-.62,18.96,3.93,22.88,10.89.01-.41.03-.81,0-1.23-.54-8.8-9.77-15.4-20.61-14.73-8,.49-14.63,4.82-17.34,10.59,3.97-3.1,9.21-5.16,15.07-5.52Z" style="fill: #c7e54a; stroke-width: 0px;"/>
            <path d="m1378.12,523.19c10.06-.62,18.96,3.93,22.88,10.89.01-.41.03-.81,0-1.23-.54-8.8-9.77-15.4-20.61-14.73-8,.49-14.63,4.82-17.34,10.59,3.97-3.1,9.21-5.16,15.07-5.52Z" style="fill: #c7e54a; stroke-width: 0px;"/>
            <path d="m1186.82,515.09c8.03,0,14.92,3.4,17.95,8.26.08-.46.13-.93.13-1.4,0-6.59-7.59-11.93-16.95-11.93-8.75,0-15.95,4.67-16.85,10.66,3.57-3.39,9.28-5.59,15.73-5.59Z" style="fill: #c7e54a; stroke-width: 0px;"/>
            <path d="m1315.39,511.91c13.77,0,25.06,7.04,26.25,16.01.07-.52.12-1.04.12-1.57,0-9.71-11.81-17.58-26.37-17.58s-26.37,7.87-26.37,17.58c0,.53.05,1.05.12,1.57,1.19-8.97,12.48-16.01,26.25-16.01Z" style="fill: #c7e54a; stroke-width: 0px;"/>
            <g>
              <path d="m1116.75,541.74c-2.72-6.4-10.18-11-18.98-11-4.08,0-7.87.99-11.04,2.69-3.23-.53-6.65-.81-10.21-.81-11.52,0-21.69,2.98-27.96,7.55-3.72-6.28-10.54-10.51-18.36-10.51-8.46,0-15.75,4.94-19.2,12.07h105.75Z" style="fill: #7d9617; stroke-width: 0px;"/>
              <path d="m1153.49,541.74c-3.2-4.75-9.02-7.94-15.68-7.94s-12.48,3.19-15.68,7.94h31.36Z" style="fill: #7d9617; stroke-width: 0px;"/>
              <path d="m1419.14,541.74c-6.29-4.49-16.37-7.42-27.77-7.42s-21.48,2.93-27.76,7.42h55.53Z" style="fill: #7d9617; stroke-width: 0px;"/>
              <path d="m1350.98,541.74c-3.24-2.61-7.53-4.2-12.24-4.2-3.84,0-7.4,1.06-10.34,2.86-5.37-6.38-17.47-10.84-31.56-10.84-9.55,0-18.2,2.05-24.45,5.35-1.79-.15-3.61-.25-5.47-.25-4.34,0-8.47.44-12.29,1.21-3.16-4.89-9.07-8.19-15.85-8.19-7.63,0-14.16,4.17-16.91,10.09-1.44-.14-2.9-.23-4.4-.23-5.42,0-10.46.93-14.74,2.52-4.83-2.41-11.07-3.88-17.9-3.88-8.3,0-15.72,2.16-20.8,5.56h186.95Z" style="fill: #7d9617; stroke-width: 0px;"/>
            </g>
          </g>
          <g>
            <path d="m1453.09,542c.68-2.47,1.06-5.06,1.06-7.75,0-16.29-13.21-29.5-29.5-29.5s-29.5,13.21-29.5,29.5c0,2.69.38,5.28,1.06,7.75h56.89Z" style="fill: #a6c835; stroke-width: 0px;"/>
            <path d="m1521.83,509.09c0,13.9-21.37,25.17-47.73,25.17s-47.73-11.27-47.73-25.17,21.37-25.17,47.73-25.17,47.73,11.27,47.73,25.17Z" style="fill: #a6c835; stroke-width: 0px;"/>
            <path d="m1568.25,542c.29-1.12.44-2.26.44-3.41,0-16.77-31.08-30.37-69.42-30.37s-69.42,13.6-69.42,30.37c0,1.15.15,2.29.44,3.41h137.96Z" style="fill: #9fbc28; stroke-width: 0px;"/>
            <path d="m1566.96,515.16c0,12.46-12.43,22.56-27.77,22.56s-27.77-10.1-27.77-22.56,12.43-22.56,27.77-22.56,27.77,10.1,27.77,22.56Z" style="fill: #9fbc28; stroke-width: 0px;"/>
            <path d="m1729.4,542c3.73-5.2,5.91-11.44,5.91-18.16,0-18.21-15.93-32.98-35.58-32.98s-35.58,14.76-35.58,32.98c0,6.72,2.18,12.96,5.91,18.16h59.34Z" style="fill: #9fbc28; stroke-width: 0px;"/>
            <path d="m1668.64,542c1.59-1.91,2.45-3.93,2.45-6.01,0-12.46-30.3-22.56-67.69-22.56s-67.69,10.1-67.69,22.56c0,2.08.87,4.1,2.45,6.01h130.47Z" style="fill: #a6c835; stroke-width: 0px;"/>
            <path d="m1652,514.29c0,9.11-10.49,16.49-23.43,16.49s-23.43-7.38-23.43-16.49,10.49-16.49,23.43-16.49,23.43,7.38,23.43,16.49Z" style="fill: #a6c835; stroke-width: 0px;"/>
            <path d="m1654.78,542h100.31c4.53-4.1,7.12-8.81,7.12-13.82,0-15.82-25.64-28.64-57.27-28.64s-57.27,12.82-57.27,28.64c0,5.01,2.59,9.72,7.12,13.82Z" style="fill: #a6c835; stroke-width: 0px;"/>
            <path d="m1830.36,542h51.13c5.14-4.87,8.28-11.21,8.28-18.16,0-15.34-15.15-27.77-33.84-27.77s-33.84,12.43-33.84,27.77c0,6.95,3.13,13.29,8.28,18.16Z" style="fill: #9fbc28; stroke-width: 0px;"/>
            <path d="m1923.11,542c1.95-3.13,3.11-6.62,3.11-10.35,0-12.94-13.21-23.43-29.5-23.43s-29.5,10.49-29.5,23.43c0,3.73,1.15,7.23,3.11,10.35h52.79Z" style="fill: #a6c835; stroke-width: 0px;"/>
            <path d="m1785.59,542c5.39-5.79,8.72-13.73,8.72-22.5,0-17.73-13.6-32.11-30.37-32.11s-30.37,14.38-30.37,32.11c0,8.77,3.33,16.71,8.72,22.5h43.3Z" style="fill: #a6c835; stroke-width: 0px;"/>
            <path d="m1885.73,542c-4.26-10.24-32.67-18.16-67.12-18.16s-62.86,7.92-67.12,18.16h134.23Z" style="fill: #a6c835; stroke-width: 0px;"/>
            <path d="m1788.19,542h33.08c11.81-4.02,19.91-12.19,19.91-21.63,0-13.42-16.32-24.3-36.45-24.3s-36.45,10.88-36.45,24.3c0,9.44,8.1,17.61,19.91,21.63Z" style="fill: #a6c835; stroke-width: 0px;"/>
            <path d="m1473.11,494.97c17.65-.14,33.05,3.8,41.53,9.76-1.42-10.81-19.44-19.23-41.53-19.06-22.09.17-40.11,8.87-41.53,19.7,8.48-6.1,23.88-10.27,41.53-10.4Z" style="fill: #c7e54a; stroke-width: 0px;"/>
            <path d="m1535.99,500.03c12.91,0,23.93,6.52,28.38,15.73.05-.52.1-1.04.1-1.57,0-11.3-11.27-20.45-25.17-20.45-10.27,0-19.08,5-23,12.16,5.32-3.65,12.18-5.87,19.69-5.87Z" style="fill: #c7e54a; stroke-width: 0px;"/>
            <path d="m1450.5,519.88c10.71-7.22,23.49-7.96,32.33-2.82-.25-.46-.5-.92-.8-1.35-6.31-9.37-20.78-10.66-32.31-2.89-8.51,5.74-13.03,14.81-12.28,22.94,2.37-6,6.82-11.67,13.05-15.87Z" style="fill: #c7e54a; stroke-width: 0px;"/>
            <path d="m1505.25,521.29c12.84,1.37,23.1,9.03,26.55,18.66.1-.51.21-1.02.26-1.55,1.2-11.23-9.03-21.54-22.86-23.02-10.21-1.09-19.51,2.94-24.16,9.65,5.68-3.07,12.74-4.54,20.2-3.74Z" style="fill: #c7e54a; stroke-width: 0px;"/>
            <path d="m1550.42,526.46c11.81-5.21,24.52-3.69,32.32,2.93-.17-.5-.33-.99-.54-1.47-4.56-10.34-18.57-14.16-31.29-8.55-9.39,4.14-15.44,12.28-16.13,20.41,3.39-5.49,8.78-10.29,15.65-13.32Z" style="fill: #c7e54a; stroke-width: 0px;"/>
            <path d="m1588.37,542c4.33-4.09,9.53-7.63,15.5-10.27,17.77-7.84,36.89-5.55,48.61,4.41-.25-.74-.5-1.49-.82-2.22-6.86-15.55-27.93-21.3-47.06-12.86-10.32,4.55-17.94,12.32-21.71,20.93h5.48Z" style="fill: #c7e54a; stroke-width: 0px;"/>
            <path d="m1699.47,504.53c19.32,1.99,34.79,13.46,40.04,27.92.15-.77.31-1.54.39-2.33,1.74-16.9-13.7-32.34-34.51-34.49-15.36-1.59-29.32,4.54-36.29,14.64,8.52-4.65,19.13-6.9,30.37-5.74Z" style="fill: #c7e54a; stroke-width: 0px;"/>
            <path d="m1840.07,525.58c13.91-.86,26.21,5.44,31.63,15.06.02-.56.04-1.13,0-1.7-.75-12.17-13.5-21.29-28.48-20.36-11.06.68-20.23,6.66-23.97,14.63,5.48-4.29,12.73-7.13,20.82-7.63Z" style="fill: #c7e54a; stroke-width: 0px;"/>
            <path d="m1891.45,516.01c13.91-.86,26.21,5.44,31.63,15.06.02-.56.04-1.13,0-1.7-.75-12.17-13.5-21.29-28.48-20.36-11.06.68-20.23,6.66-23.97,14.63,5.48-4.29,12.73-7.13,20.82-7.63Z" style="fill: #c7e54a; stroke-width: 0px;"/>
            <path d="m1627.02,504.81c11.1,0,20.62,4.7,24.81,11.42.11-.64.18-1.28.18-1.94,0-9.11-10.49-16.49-23.43-16.49-12.1,0-22.05,6.45-23.29,14.73,4.93-4.68,12.82-7.73,21.74-7.73Z" style="fill: #c7e54a; stroke-width: 0px;"/>
            <path d="m1804.73,500.41c19.03,0,34.63,9.73,36.28,22.13.1-.72.16-1.44.16-2.17,0-13.42-16.32-24.3-36.45-24.3s-36.45,10.88-36.45,24.3c0,.73.07,1.45.16,2.17,1.65-12.4,17.25-22.13,36.28-22.13Z" style="fill: #c7e54a; stroke-width: 0px;"/>
            <g>
              <path d="m1530.17,541.64c-3.76-8.84-14.07-15.21-26.23-15.21-5.64,0-10.88,1.37-15.26,3.72-4.46-.73-9.2-1.12-14.11-1.12-15.92,0-29.98,4.12-38.65,10.44-5.14-8.68-14.57-14.52-25.38-14.52-11.7,0-21.77,6.82-26.54,16.69h146.17Z" style="fill: #7d9617; stroke-width: 0px;"/>
              <path d="m1580.95,541.64c-4.42-6.57-12.46-10.98-21.68-10.98s-17.25,4.41-21.68,10.98h43.35Z" style="fill: #7d9617; stroke-width: 0px;"/>
              <path d="m1948.14,541.64c-8.69-6.21-22.63-10.26-38.39-10.26s-29.69,4.04-38.37,10.26h76.75Z" style="fill: #7d9617; stroke-width: 0px;"/>
              <path d="m1853.93,541.64c-4.48-3.61-10.41-5.81-16.92-5.81-5.3,0-10.22,1.46-14.29,3.95-7.42-8.82-24.14-14.98-43.62-14.98-13.2,0-25.15,2.83-33.79,7.4-2.47-.21-4.98-.35-7.56-.35-5.99,0-11.71.61-16.99,1.67-4.37-6.76-12.53-11.32-21.91-11.32-10.54,0-19.57,5.76-23.37,13.94-1.99-.19-4.01-.31-6.08-.31-7.49,0-14.46,1.29-20.37,3.48-6.68-3.34-15.31-5.36-24.75-5.36-11.47,0-21.73,2.98-28.75,7.69h258.41Z" style="fill: #7d9617; stroke-width: 0px;"/>
            </g>
          </g>
          <g>
            <path d="m646.19,541c.51-1.87.8-3.82.8-5.85,0-12.31-9.98-22.29-22.29-22.29s-22.29,9.98-22.29,22.29c0,2.03.29,3.99.8,5.85h42.98Z" style="fill: #a6c835; stroke-width: 0px;"/>
            <path d="m698.12,516.14c0,10.5-16.14,19.01-36.05,19.01s-36.05-8.51-36.05-19.01,16.14-19.01,36.05-19.01,36.05,8.51,36.05,19.01Z" style="fill: #a6c835; stroke-width: 0px;"/>
            <path d="m733.18,541c.22-.85.33-1.7.33-2.58,0-12.67-23.48-22.94-52.44-22.94s-52.44,10.27-52.44,22.94c0,.87.12,1.73.33,2.58h104.21Z" style="fill: #9fbc28; stroke-width: 0px;"/>
            <path d="m732.2,520.73c0,9.41-9.39,17.04-20.98,17.04s-20.98-7.63-20.98-17.04,9.39-17.04,20.98-17.04,20.98,7.63,20.98,17.04Z" style="fill: #9fbc28; stroke-width: 0px;"/>
            <path d="m854.91,541c2.82-3.93,4.46-8.64,4.46-13.72,0-13.76-12.03-24.91-26.88-24.91s-26.88,11.15-26.88,24.91c0,5.08,1.65,9.79,4.46,13.72h44.82Z" style="fill: #9fbc28; stroke-width: 0px;"/>
            <path d="m809.01,541c1.2-1.45,1.85-2.97,1.85-4.54,0-9.41-22.89-17.04-51.13-17.04s-51.13,7.63-51.13,17.04c0,1.57.65,3.1,1.85,4.54h98.56Z" style="fill: #a6c835; stroke-width: 0px;"/>
            <path d="m796.44,520.07c0,6.88-7.92,12.45-17.7,12.45s-17.7-5.58-17.7-12.45,7.92-12.45,17.7-12.45,17.7,5.58,17.7,12.45Z" style="fill: #a6c835; stroke-width: 0px;"/>
            <path d="m798.54,541h75.77c3.42-3.1,5.38-6.65,5.38-10.44,0-11.95-19.37-21.63-43.26-21.63s-43.26,9.68-43.26,21.63c0,3.79,1.95,7.34,5.38,10.44Z" style="fill: #a6c835; stroke-width: 0px;"/>
            <path d="m931.17,541h38.62c3.89-3.68,6.25-8.47,6.25-13.72,0-11.58-11.45-20.98-25.56-20.98s-25.56,9.39-25.56,20.98c0,5.25,2.37,10.04,6.25,13.72Z" style="fill: #9fbc28; stroke-width: 0px;"/>
            <path d="m1001.23,541c1.48-2.36,2.35-5,2.35-7.82,0-9.77-9.98-17.7-22.29-17.7s-22.29,7.92-22.29,17.7c0,2.82.87,5.46,2.35,7.82h39.88Z" style="fill: #a6c835; stroke-width: 0px;"/>
            <path d="m897.36,541c4.07-4.38,6.59-10.37,6.59-17,0-13.39-10.27-24.25-22.94-24.25s-22.94,10.86-22.94,24.25c0,6.62,2.52,12.62,6.59,17h32.71Z" style="fill: #a6c835; stroke-width: 0px;"/>
            <path d="m973,541c-3.21-7.74-24.68-13.72-50.7-13.72s-47.48,5.98-50.7,13.72h101.4Z" style="fill: #a6c835; stroke-width: 0px;"/>
            <path d="m899.32,541h24.99c8.92-3.04,15.04-9.21,15.04-16.34,0-10.14-12.33-18.35-27.53-18.35s-27.53,8.22-27.53,18.35c0,7.13,6.12,13.3,15.04,16.34Z" style="fill: #a6c835; stroke-width: 0px;"/>
            <path d="m661.31,505.47c13.33-.1,24.96,2.87,31.37,7.37-1.07-8.16-14.69-14.53-31.37-14.4-16.68.13-30.3,6.7-31.37,14.88,6.41-4.61,18.04-7.75,31.37-7.86Z" style="fill: #c7e54a; stroke-width: 0px;"/>
            <path d="m708.81,509.29c9.75,0,18.07,4.93,21.44,11.88.04-.39.07-.78.07-1.18,0-8.53-8.51-15.45-19.02-15.45-7.76,0-14.41,3.78-17.37,9.19,4.02-2.76,9.2-4.43,14.87-4.43Z" style="fill: #c7e54a; stroke-width: 0px;"/>
            <path d="m644.23,524.29c8.09-5.45,17.74-6.01,24.42-2.13-.19-.35-.38-.69-.6-1.02-4.77-7.08-15.69-8.05-24.4-2.19-6.43,4.33-9.84,11.19-9.27,17.33,1.79-4.53,5.15-8.82,9.86-11.99Z" style="fill: #c7e54a; stroke-width: 0px;"/>
            <path d="m685.59,525.35c9.7,1.04,17.45,6.82,20.06,14.09.08-.39.16-.77.2-1.17.91-8.48-6.82-16.27-17.26-17.39-7.71-.82-14.73,2.22-18.25,7.29,4.29-2.32,9.62-3.43,15.26-2.83Z" style="fill: #c7e54a; stroke-width: 0px;"/>
            <path d="m719.71,529.26c8.92-3.94,18.52-2.79,24.41,2.22-.12-.37-.25-.75-.41-1.11-3.44-7.81-14.03-10.7-23.63-6.46-7.1,3.13-11.66,9.27-12.19,15.42,2.56-4.15,6.63-7.77,11.82-10.06Z" style="fill: #c7e54a; stroke-width: 0px;"/>
            <path d="m748.37,541c3.27-3.09,7.2-5.77,11.71-7.75,13.42-5.92,27.86-4.19,36.72,3.33-.19-.56-.38-1.12-.62-1.67-5.18-11.74-21.1-16.09-35.55-9.72-7.8,3.44-13.55,9.3-16.4,15.81h4.14Z" style="fill: #c7e54a; stroke-width: 0px;"/>
            <path d="m832.3,512.69c14.59,1.51,26.28,10.16,30.25,21.09.12-.58.23-1.16.29-1.76,1.32-12.77-10.35-24.43-26.07-26.05-11.6-1.2-22.15,3.43-27.41,11.06,6.43-3.51,14.45-5.21,22.94-4.33Z" style="fill: #c7e54a; stroke-width: 0px;"/>
            <path d="m938.5,528.6c10.51-.65,19.8,4.11,23.89,11.37.01-.43.03-.85,0-1.28-.57-9.19-10.2-16.08-21.52-15.38-8.36.52-15.28,5.03-18.11,11.05,4.14-3.24,9.62-5.39,15.73-5.77Z" style="fill: #c7e54a; stroke-width: 0px;"/>
            <path d="m977.31,521.36c10.51-.65,19.8,4.11,23.89,11.37.01-.43.03-.85,0-1.28-.57-9.19-10.2-16.08-21.52-15.38-8.36.52-15.28,5.03-18.11,11.05,4.14-3.24,9.62-5.39,15.73-5.77Z" style="fill: #c7e54a; stroke-width: 0px;"/>
            <path d="m777.57,512.91c8.38,0,15.58,3.55,18.74,8.63.08-.48.13-.97.13-1.47,0-6.88-7.92-12.45-17.7-12.45-9.14,0-16.66,4.87-17.6,11.13,3.73-3.54,9.69-5.84,16.42-5.84Z" style="fill: #c7e54a; stroke-width: 0px;"/>
            <path d="m911.81,509.58c14.37,0,26.16,7.35,27.41,16.72.07-.54.12-1.09.12-1.64,0-10.14-12.33-18.35-27.53-18.35s-27.53,8.22-27.53,18.35c0,.55.05,1.1.12,1.64,1.25-9.37,13.03-16.72,27.41-16.72Z" style="fill: #c7e54a; stroke-width: 0px;"/>
            <g>
              <path d="m704.42,540.73c-2.84-6.68-10.63-11.49-19.81-11.49-4.26,0-8.22,1.04-11.53,2.81-3.37-.55-6.95-.85-10.66-.85-12.02,0-22.64,3.12-29.19,7.89-3.88-6.56-11-10.97-19.17-10.97-8.83,0-16.44,5.15-20.05,12.61h110.42Z" style="fill: #7d9617; stroke-width: 0px;"/>
              <path d="m742.77,540.73c-3.34-4.96-9.41-8.29-16.37-8.29s-13.03,3.33-16.37,8.29h32.75Z" style="fill: #7d9617; stroke-width: 0px;"/>
              <path d="m1020.14,540.73c-6.56-4.69-17.09-7.75-29-7.75s-22.43,3.05-28.98,7.75h57.98Z" style="fill: #7d9617; stroke-width: 0px;"/>
              <path d="m948.98,540.73c-3.38-2.73-7.86-4.39-12.78-4.39-4.01,0-7.72,1.1-10.79,2.98-5.6-6.66-18.24-11.31-32.95-11.31-9.97,0-19,2.14-25.52,5.59-1.87-.16-3.76-.26-5.71-.26-4.53,0-8.84.46-12.84,1.26-3.3-5.11-9.47-8.55-16.55-8.55-7.96,0-14.79,4.35-17.65,10.53-1.5-.14-3.03-.24-4.6-.24-5.66,0-10.92.97-15.39,2.63-5.04-2.52-11.56-4.05-18.69-4.05-8.66,0-16.41,2.25-21.72,5.81h195.19Z" style="fill: #7d9617; stroke-width: 0px;"/>
            </g>
          </g>
          <g>
            <path d="m61.44,540c.74-2.7,1.15-5.53,1.15-8.46,0-17.79-14.42-32.22-32.22-32.22s-32.22,14.42-32.22,32.22c0,2.93.41,5.76,1.16,8.46h62.12Z" style="fill: #a6c835; stroke-width: 0px;"/>
            <path d="m136.51,504.06c0,15.18-23.33,27.48-52.12,27.48s-52.12-12.3-52.12-27.48,23.33-27.48,52.12-27.48,52.12,12.3,52.12,27.48Z" style="fill: #a6c835; stroke-width: 0px;"/>
            <path d="m187.19,540c.31-1.22.48-2.46.48-3.72,0-18.32-33.94-33.16-75.8-33.16s-75.8,14.85-75.8,33.16c0,1.26.17,2.5.48,3.72h150.65Z" style="fill: #9fbc28; stroke-width: 0px;"/>
            <path d="m185.78,510.69c0,13.61-13.58,24.64-30.32,24.64s-30.32-11.03-30.32-24.64,13.58-24.64,30.32-24.64,30.32,11.03,30.32,24.64Z" style="fill: #9fbc28; stroke-width: 0px;"/>
            <path d="m363.15,540c4.07-5.68,6.45-12.49,6.45-19.83,0-19.89-17.39-36.01-38.85-36.01s-38.85,16.12-38.85,36.01c0,7.34,2.38,14.15,6.45,19.83h64.8Z" style="fill: #9fbc28; stroke-width: 0px;"/>
            <path d="m296.81,540c1.73-2.09,2.68-4.29,2.68-6.57,0-13.61-33.09-24.64-73.91-24.64s-73.91,11.03-73.91,24.64c0,2.27.95,4.47,2.68,6.57h142.47Z" style="fill: #a6c835; stroke-width: 0px;"/>
            <path d="m278.64,509.75c0,9.94-11.45,18-25.58,18s-25.58-8.06-25.58-18,11.45-18,25.58-18,25.58,8.06,25.58,18Z" style="fill: #a6c835; stroke-width: 0px;"/>
            <path d="m281.67,540h109.54c4.95-4.48,7.77-9.62,7.77-15.09,0-17.27-28-31.27-62.54-31.27s-62.54,14-62.54,31.27c0,5.48,2.83,10.62,7.77,15.09Z" style="fill: #a6c835; stroke-width: 0px;"/>
            <path d="m473.4,540h55.83c5.62-5.32,9.04-12.24,9.04-19.83,0-16.75-16.55-30.32-36.95-30.32s-36.95,13.58-36.95,30.32c0,7.59,3.42,14.51,9.04,19.83Z" style="fill: #9fbc28; stroke-width: 0px;"/>
            <path d="m574.67,540c2.13-3.41,3.39-7.23,3.39-11.3,0-14.13-14.42-25.58-32.22-25.58s-32.22,11.45-32.22,25.58c0,4.07,1.26,7.89,3.39,11.3h57.65Z" style="fill: #a6c835; stroke-width: 0px;"/>
            <path d="m424.51,540c5.88-6.33,9.52-15,9.52-24.57,0-19.36-14.85-35.06-33.16-35.06s-33.16,15.7-33.16,35.06c0,9.57,3.64,18.24,9.52,24.57h47.28Z" style="fill: #a6c835; stroke-width: 0px;"/>
            <path d="m533.86,540c-4.65-11.18-35.67-19.83-73.29-19.83s-68.64,8.65-73.29,19.83h146.57Z" style="fill: #a6c835; stroke-width: 0px;"/>
            <path d="m427.35,540h36.12c12.89-4.39,21.74-13.31,21.74-23.62,0-14.65-17.82-26.53-39.8-26.53s-39.8,11.88-39.8,26.53c0,10.31,8.84,19.23,21.74,23.62Z" style="fill: #a6c835; stroke-width: 0px;"/>
            <path d="m83.31,488.64c19.27-.15,36.09,4.14,45.35,10.66-1.55-11.8-21.23-21-45.35-20.82-24.12.19-43.8,9.69-45.35,21.52,9.26-6.66,26.08-11.21,45.35-11.36Z" style="fill: #c7e54a; stroke-width: 0px;"/>
            <path d="m151.97,494.17c14.1,0,26.13,7.12,30.99,17.17.05-.57.11-1.13.11-1.71,0-12.33-12.31-22.33-27.49-22.33-11.21,0-20.84,5.46-25.11,13.28,5.81-3.99,13.3-6.41,21.5-6.41Z" style="fill: #c7e54a; stroke-width: 0px;"/>
            <path d="m58.61,515.85c11.69-7.88,25.65-8.69,35.3-3.08-.27-.5-.55-1-.87-1.48-6.89-10.23-22.69-11.64-35.28-3.16-9.3,6.26-14.23,16.17-13.41,25.05,2.58-6.55,7.45-12.75,14.25-17.33Z" style="fill: #c7e54a; stroke-width: 0px;"/>
            <path d="m118.39,517.38c14.02,1.5,25.22,9.86,28.99,20.37.11-.56.23-1.12.29-1.69,1.31-12.27-9.86-23.52-24.96-25.13-11.15-1.19-21.3,3.21-26.38,10.53,6.2-3.35,13.91-4.96,22.06-4.08Z" style="fill: #c7e54a; stroke-width: 0px;"/>
            <path d="m167.72,523.03c12.9-5.69,26.78-4.03,35.29,3.2-.18-.54-.36-1.08-.59-1.61-4.98-11.29-20.28-15.47-34.17-9.34-10.26,4.53-16.86,13.41-17.62,22.29,3.7-5.99,9.58-11.23,17.09-14.54Z" style="fill: #c7e54a; stroke-width: 0px;"/>
            <path d="m209.15,540c4.73-4.47,10.4-8.33,16.92-11.21,19.4-8.56,40.28-6.06,53.08,4.82-.27-.81-.54-1.63-.89-2.42-7.49-16.97-30.5-23.26-51.39-14.05-11.27,4.97-19.59,13.45-23.71,22.86h5.99Z" style="fill: #c7e54a; stroke-width: 0px;"/>
            <path d="m330.47,499.08c21.09,2.18,37.99,14.69,43.72,30.48.17-.84.33-1.68.42-2.55,1.9-18.46-14.97-35.32-37.68-37.66-16.77-1.73-32.02,4.95-39.63,15.99,9.3-5.07,20.89-7.53,33.16-6.27Z" style="fill: #c7e54a; stroke-width: 0px;"/>
            <path d="m484,522.07c15.19-.94,28.62,5.94,34.54,16.44.02-.61.04-1.23,0-1.85-.82-13.29-14.75-23.24-31.1-22.23-12.08.75-22.08,7.27-26.17,15.98,5.99-4.69,13.9-7.79,22.74-8.33Z" style="fill: #c7e54a; stroke-width: 0px;"/>
            <path d="m540.1,511.62c15.19-.94,28.62,5.94,34.54,16.44.02-.61.04-1.23,0-1.85-.82-13.29-14.75-23.24-31.1-22.23-12.08.75-22.08,7.27-26.17,15.98,5.99-4.69,13.9-7.79,22.74-8.33Z" style="fill: #c7e54a; stroke-width: 0px;"/>
            <path d="m251.36,499.39c12.12,0,22.52,5.13,27.09,12.47.12-.7.19-1.4.19-2.12,0-9.94-11.45-18-25.58-18-13.21,0-24.08,7.05-25.44,16.09,5.39-5.11,14-8.44,23.74-8.44Z" style="fill: #c7e54a; stroke-width: 0px;"/>
            <path d="m445.41,494.58c20.78,0,37.82,10.62,39.62,24.16.1-.78.18-1.57.18-2.37,0-14.65-17.82-26.53-39.8-26.53s-39.8,11.88-39.8,26.53c0,.8.08,1.59.18,2.37,1.8-13.54,18.84-24.16,39.62-24.16Z" style="fill: #c7e54a; stroke-width: 0px;"/>
            <g>
              <path d="m145.61,539.61c-4.1-9.66-15.36-16.61-28.64-16.61-6.16,0-11.88,1.5-16.66,4.06-4.87-.79-10.04-1.22-15.41-1.22-17.38,0-32.73,4.5-42.2,11.4-5.61-9.48-15.91-15.86-27.72-15.86-12.77,0-23.77,7.45-28.98,18.22h159.61Z" style="fill: #7d9617; stroke-width: 0px;"/>
              <path d="m201.05,539.61c-4.83-7.17-13.61-11.99-23.67-11.99s-18.84,4.82-23.67,11.99h47.34Z" style="fill: #7d9617; stroke-width: 0px;"/>
              <path d="m602,539.61c-9.49-6.78-24.71-11.2-41.92-11.2s-32.42,4.42-41.89,11.2h83.81Z" style="fill: #7d9617; stroke-width: 0px;"/>
              <path d="m499.14,539.61c-4.89-3.94-11.37-6.34-18.48-6.34-5.79,0-11.16,1.6-15.6,4.31-8.1-9.63-26.36-16.36-47.63-16.36-14.42,0-27.46,3.09-36.9,8.08-2.7-.23-5.44-.38-8.26-.38-6.54,0-12.78.66-18.55,1.83-4.77-7.38-13.69-12.36-23.92-12.36-11.51,0-21.37,6.29-25.52,15.22-2.17-.2-4.38-.34-6.64-.34-8.18,0-15.79,1.41-22.24,3.8-7.29-3.64-16.71-5.85-27.02-5.85-12.52,0-23.73,3.26-31.39,8.4h282.16Z" style="fill: #7d9617; stroke-width: 0px;"/>
            </g>
          </g>
          <g>
            <g>
              <polygon points="80.18 540 72.19 537.43 72.19 497.39 65.49 497.39 65.49 537.6 58.01 540 80.18 540" style="fill: #6f3921; stroke-width: 0px;"/>
              <path d="m68.84,536.44c0,.5-.4.9-.9.9h0c-.5,0-.9-.4-.9-.9v-28.87c0-.5.4-.9.9-.9h0c.5,0,.9.4.9.9v28.87Z" style="fill: #994423; stroke-width: 0px;"/>
            </g>
            <g>
              <path d="m87.66,455.58c0,23.14-7.96,19.98-17.79,19.98s-17.79,3.16-17.79-19.98,7.96-41.89,17.79-41.89,17.79,18.76,17.79,41.89Z" style="fill: #a6c835; stroke-width: 0px;"/>
              <path d="m76.06,473.62c0,23.14-7.96,19.98-17.79,19.98s-17.79,3.16-17.79-19.98,7.96-41.89,17.79-41.89,17.79,18.76,17.79,41.89Z" style="fill: #9fbc28; stroke-width: 0px;"/>
              <path d="m101.32,479.9c0,16.36-13.16,14.12-29.39,14.12s-29.39,2.23-29.39-14.12,13.16-29.61,29.39-29.61,29.39,13.26,29.39,29.61Z" style="fill: #a6c835; stroke-width: 0px;"/>
              <path d="m91.27,481.8c0-16.93-10.45-14.62-23.33-14.62s-23.33-2.31-23.33,14.62,10.45,30.66,23.33,30.66,23.33-13.73,23.33-30.66Z" style="fill: #a6c835; stroke-width: 0px;"/>
              <path d="m60.64,441.9c3.45,0,6.69,1.57,9.54,4.35-2.94-7.94-7.27-12.96-12.1-12.96-7.58,0-13.93,12.36-15.62,28.99,3.41-12.11,10.27-20.38,18.18-20.38Z" style="fill: #c7e54a; stroke-width: 0px;"/>
              <path d="m67.93,423.13c8.86,0,16.33,11.96,18.68,28.32-.59-20.41-7.81-36.53-16.63-36.53-5.38,0-10.16,6-13.21,15.31,3.16-4.47,7-7.1,11.15-7.1Z" style="fill: #c7e54a; stroke-width: 0px;"/>
              <path d="m72.58,465.24c20.11,0,25.91,8.27,26.17,8.72-1.92-12.37-13.19-21.87-26.82-21.87s-25.64,10.13-26.98,23.1c0,0,5.01-9.95,27.63-9.95Z" style="fill: #c7e54a; stroke-width: 0px;"/>
              <path d="m68.19,502.64c-8.12,0-15.38-4.23-20.24-10.89,3.41,10.81,11.19,18.37,20.24,18.37s16.82-7.56,20.24-18.37c-4.86,6.66-12.12,10.89-20.24,10.89Z" style="fill: #86a01a; stroke-width: 0px;"/>
              <path d="m61.02,487.96c-7.06,0-13.03-4.16-15-9.89-.24.91-.38,1.86-.38,2.84,0,6.73,6.1,12.18,13.62,12.18,6.56,0,12.04-4.15,13.33-9.68-2.87,2.8-6.99,4.55-11.57,4.55Z" style="fill: #86a01a; stroke-width: 0px;"/>
              <path d="m90.77,487.5c4.66-1.89,7.49-6.23,7.27-10.55.41.54.75,1.13,1.01,1.78,1.8,4.44-.77,9.68-5.74,11.69-4.34,1.75-9.06.48-11.39-2.83,2.64,1.08,5.83,1.14,8.86-.09Z" style="fill: #86a01a; stroke-width: 0px;"/>
            </g>
          </g>
        </g>
        <path d="m254.34,73.46v.07l.79-.07h-.79Z" style="fill: #fff; stroke-width: 0px;"/>
        <path d="m244.56,67.3s.06-.06.06-.08c-.01-.03-.03-.06-.06-.09,0,0-.06,0-.06.06.01.04.03.08.06.11Z" style="fill: #fff; stroke-width: 0px;"/>
        <path d="m244.33,67.5h-.08s0,.09,0,.13l.08-.13Z" style="fill: #fff; stroke-width: 0px;"/>
        <g>
          <g>
            <polygon points="1804.32 538.66 1791.87 534.66 1791.87 472.25 1781.42 472.25 1781.42 534.92 1769.77 538.66 1804.32 538.66" style="fill: #6f3921; stroke-width: 0px;"/>
            <path d="m1786.65,533.12c0,.78-.63,1.41-1.41,1.41h0c-.78,0-1.41-.63-1.41-1.41v-45c0-.78.63-1.41,1.41-1.41h0c.78,0,1.41.63,1.41,1.41v45Z" style="fill: #994423; stroke-width: 0px;"/>
          </g>
          <g>
            <path d="m1815.97,407.08c0,36.06-12.41,31.14-27.72,31.14s-27.72,4.92-27.72-31.14,12.41-65.29,27.72-65.29,27.72,29.23,27.72,65.29Z" style="fill: #a6c835; stroke-width: 0px;"/>
            <path d="m1797.89,435.21c0,36.06-12.41,31.14-27.72,31.14s-27.72,4.92-27.72-31.14,12.41-65.29,27.72-65.29,27.72,29.23,27.72,65.29Z" style="fill: #9fbc28; stroke-width: 0px;"/>
            <path d="m1837.27,445c0,25.49-20.51,22.01-45.8,22.01s-45.8,3.48-45.8-22.01,20.51-46.15,45.8-46.15,45.8,20.66,45.8,46.15Z" style="fill: #a6c835; stroke-width: 0px;"/>
            <path d="m1821.6,447.95c0-26.39-16.28-22.79-36.36-22.79s-36.36-3.6-36.36,22.79,16.28,47.78,36.36,47.78,36.36-21.39,36.36-47.78Z" style="fill: #a6c835; stroke-width: 0px;"/>
            <path d="m1773.87,385.78c5.37,0,10.43,2.45,14.87,6.78-4.59-12.38-11.33-20.2-18.86-20.2-11.81,0-21.71,19.27-24.34,45.19,5.32-18.88,16.01-31.77,28.33-31.77Z" style="fill: #c7e54a; stroke-width: 0px;"/>
            <path d="m1785.23,356.51c13.81,0,25.46,18.64,29.11,44.13-.92-31.81-12.17-56.93-25.91-56.93-8.38,0-15.83,9.35-20.58,23.86,4.92-6.97,10.92-11.06,17.38-11.06Z" style="fill: #c7e54a; stroke-width: 0px;"/>
            <path d="m1792.47,422.15c31.34,0,40.38,12.9,40.78,13.59-2.99-19.28-20.56-34.08-41.79-34.08s-39.96,15.8-42.04,36c0,0,7.8-15.51,43.06-15.51Z" style="fill: #c7e54a; stroke-width: 0px;"/>
            <path d="m1785.64,480.43c-12.65,0-23.97-6.6-31.54-16.98,5.32,16.85,17.44,28.63,31.54,28.63s26.22-11.78,31.54-28.63c-7.57,10.38-18.89,16.98-31.54,16.98Z" style="fill: #86a01a; stroke-width: 0px;"/>
            <path d="m1774.46,457.55c-11,0-20.3-6.49-23.39-15.42-.38,1.42-.59,2.9-.59,4.43,0,10.48,9.5,18.98,21.23,18.98,10.23,0,18.76-6.47,20.78-15.08-4.47,4.36-10.89,7.09-18.03,7.09Z" style="fill: #86a01a; stroke-width: 0px;"/>
            <path d="m1820.83,456.83c7.27-2.94,11.68-9.71,11.33-16.44.63.84,1.16,1.76,1.57,2.77,2.8,6.93-1.21,15.08-8.95,18.21-6.76,2.73-14.13.74-17.76-4.41,4.12,1.68,9.09,1.77,13.81-.13Z" style="fill: #86a01a; stroke-width: 0px;"/>
          </g>
        </g>
        <g>
          <g>
            <rect x="90.71" y="526" width="14" height="14" style="fill: #633b00; stroke-width: 0px;"/>
            <rect x="202.41" y="526" width="14" height="14" style="fill: #633b00; stroke-width: 0px;"/>
            <rect x="314.12" y="526" width="14" height="14" style="fill: #633b00; stroke-width: 0px;"/>
            <rect x="425.82" y="526" width="14" height="14" style="fill: #633b00; stroke-width: 0px;"/>
            <rect x="537.53" y="526" width="14" height="14" style="fill: #633b00; stroke-width: 0px;"/>
            <rect x="649.24" y="526" width="14" height="14" style="fill: #633b00; stroke-width: 0px;"/>
            <rect x="760.94" y="526" width="14" height="14" style="fill: #633b00; stroke-width: 0px;"/>
            <rect x="872.65" y="526" width="14" height="14" style="fill: #633b00; stroke-width: 0px;"/>
            <rect x="984.35" y="526" width="14" height="14" style="fill: #633b00; stroke-width: 0px;"/>
            <rect x="1096.06" y="526" width="14" height="14" style="fill: #633b00; stroke-width: 0px;"/>
            <rect x="1207.76" y="526" width="14" height="14" style="fill: #633b00; stroke-width: 0px;"/>
            <rect x="1319.47" y="526" width="14" height="14" style="fill: #633b00; stroke-width: 0px;"/>
            <rect x="1431.18" y="526" width="14" height="14" style="fill: #633b00; stroke-width: 0px;"/>
            <rect x="1542.88" y="526" width="14" height="14" style="fill: #633b00; stroke-width: 0px;"/>
            <rect x="1654.59" y="526" width="14" height="14" style="fill: #633b00; stroke-width: 0px;"/>
            <rect x="1766.29" y="526" width="14" height="14" style="fill: #633b00; stroke-width: 0px;"/>
            <rect x="1878" y="526" width="14" height="14" style="fill: #633b00; stroke-width: 0px;"/>
          </g>
          <rect x="-30" y="525" width="1953.62" height="3" style="stroke-width: 0px;"/>
        </g>
      </g>
    </g>
  </g>
</svg>