<?xml version="1.0" encoding="UTF-8"?>
<svg xmlns="http://www.w3.org/2000/svg" width="1920" height="540" viewBox="0 0 1920 540">
  <g id="_圖層_2" data-name="圖層 2">
    <g>
      <rect x="-1.6" y="-3.05" width="1924" height="546.88" style="fill: #7fd9f2; stroke-width: 0px;"/>
      <path d="M463.35,542.79H-1.6v-163.37c5.85-.26,11.77-.2,17.75.21,45.03,3.08,84.26,25.08,110.46,57.69,16.6-7.08,35.07-10.44,54.3-9.13,39.17,2.68,72.57,24.18,91.97,55.06,12.19-5.96,26.06-8.89,40.57-7.9,27.88,1.91,51.44,17.87,64.25,40.49,10.23-7.17,22.89-11.01,36.32-10.09,23.01,1.58,41.87,16.69,49.32,37.03Z" style="fill: #9de9f7; stroke-width: 0px;"/>
      <path d="M368.36,542.79H-1.6v-129.99c4.65-.21,9.37-.16,14.12.17,35.83,2.45,67.04,19.95,87.89,45.91,13.2-5.63,27.9-8.31,43.21-7.26,31.17,2.13,57.74,19.24,73.18,43.81,9.7-4.74,20.74-7.08,32.28-6.28,22.18,1.52,40.93,14.22,51.13,32.22,8.14-5.7,18.21-8.76,28.9-8.03,18.31,1.25,33.31,13.28,39.25,29.47Z" style="fill: #def6f9; stroke-width: 0px;"/>
      <path d="M1252.5,543.83h669.6s0-235.28,0-235.28c-8.42-.38-16.95-.28-25.56.31-64.85,4.44-121.34,36.11-159.08,83.09-23.9-10.19-50.5-15.04-78.2-13.14-56.41,3.86-104.51,34.82-132.45,79.29-17.56-8.58-37.53-12.81-58.43-11.38-40.15,2.75-74.08,25.74-92.54,58.31-14.74-10.32-32.96-15.86-52.31-14.54-33.14,2.27-60.29,24.04-71.03,53.33Z" style="fill: #9de9f7; stroke-width: 0px;"/>
      <path d="M1426.07,543.83h496.03s0-174.29,0-174.29c-6.24-.28-12.56-.21-18.94.23-48.04,3.29-89.89,26.75-117.84,61.55-17.7-7.55-37.41-11.14-57.93-9.74-41.79,2.86-77.42,25.79-98.12,58.74-13.01-6.36-27.8-9.49-43.28-8.43-29.74,2.04-54.88,19.06-68.55,43.2-10.92-7.64-24.42-11.75-38.75-10.77-24.55,1.68-44.66,17.81-52.62,39.51Z" style="fill: #def6f9; stroke-width: 0px;"/>
    </g>
    <path d="M671.87,434.28s7.35-1.2,8.02-10.03c0,0-.8,8.02,7.22,10.83,0,0-6.82,1.2-8.02,9.62,0,0-2.01-10.43-7.22-10.43Z" style="fill: #e2f1f4; stroke-width: 0px;"/>
    <path d="M1149.48,476.16s6.45-1.05,7.03-8.79c0,0-.7,7.03,6.33,9.49,0,0-5.98,1.05-7.03,8.44,0,0-1.76-9.14-6.33-9.14Z" style="fill: #e2f1f4; stroke-width: 0px;"/>
    <path d="M820.75,461.71c2.25-4.16-3.86-8.16-6.8-4.45-1.14,1.45-1.52,3.39.82,5.72,2.37,2.37,4.75,1.01,5.98-1.27Z" style="fill: #fff; stroke-width: 0px;"/>
    <path d="M1320.51,429.09c1.54-2.85-2.65-5.6-4.66-3.05-.78.99-1.04,2.33.56,3.93,1.63,1.63,3.26.69,4.1-.87Z" style="fill: #fff; stroke-width: 0px;"/>
  </g>
  <g id="_圖層_3" data-name="圖層 3">
    <path d="M798.67,161.59s-13.62-5.15-19.1,2.82c-5.48,7.97,3.65,15.77,48.15,13.78,44.5-1.99,48.65-4.65,46.66-15.94-1.99-11.29-18.1-13.62-27.07-3.82,0,0,0-16.6-16.77-16.94-16.77-.33-19.1,14.94-19.1,14.94,0,0-3.82-6.31-9.46-4.32-5.65,1.99-3.32,9.46-3.32,9.46Z" style="fill: #fff; stroke-width: 0px;"/>
    <path d="M230.8,211.26s-8.39-6.03-16.65-.79c-8.26,5.24-8.13,13.63,7.87,15.21,15.99,1.57,55.71,1.57,62-3.02,6.29-4.59-3.67-14.16-13.5-8,0,0,.92-5.64-5.24-8-6.16-2.36-9.7,2.1-9.7,2.1,0,0-3.02-11.14-14.42-11.01-11.4.13-10.36,13.5-10.36,13.5Z" style="fill: #fff; stroke-width: 0px;"/>
    <path d="M1795.98,278.03s-8.39-6.03-16.65-.79c-8.26,5.24-8.13,13.63,7.87,15.21,15.99,1.57,55.71,1.57,62-3.02,6.29-4.59-3.67-14.16-13.5-8,0,0,.92-5.64-5.24-8-6.16-2.36-9.7,2.1-9.7,2.1,0,0-3.02-11.14-14.42-11.01-11.4.13-10.36,13.5-10.36,13.5Z" style="fill: #fff; stroke-width: 0px;"/>
    <path d="M1552.72,382.65s6.45-1.05,7.03-8.79c0,0-.7,7.03,6.33,9.49,0,0-5.98,1.05-7.03,8.44,0,0-1.76-9.14-6.33-9.14Z" style="fill: #e2f1f4; stroke-width: 0px;"/>
    <path d="M59.33,232.86s11.58-1.89,12.63-15.79c0,0-1.26,12.63,11.37,17.06,0,0-10.74,1.89-12.63,15.16,0,0-3.16-16.42-11.37-16.42Z" style="fill: #e2f1f4; stroke-width: 0px;"/>
    <path d="M1344.04,296.17s11.58-1.89,12.63-15.79c0,0-1.26,12.63,11.37,17.06,0,0-10.74,1.89-12.63,15.16,0,0-3.16-16.42-11.37-16.42Z" style="fill: #e2f1f4; stroke-width: 0px;"/>
    <path d="M1618.6,133.23s8.92-1.46,9.73-12.16c0,0-.97,9.73,8.76,13.14,0,0-8.27,1.46-9.73,11.68,0,0-2.43-12.65-8.76-12.65Z" style="fill: #e2f1f4; stroke-width: 0px;"/>
    <path d="M931.94,158.68s8.92-1.46,9.73-12.16c0,0-.97,9.73,8.76,13.14,0,0-8.27,1.46-9.73,11.68,0,0-2.43-12.65-8.76-12.65Z" style="fill: #e2f1f4; stroke-width: 0px;"/>
    <path d="M284.58,397.8s11.58-1.89,12.63-15.79c0,0-1.26,12.63,11.37,17.06,0,0-10.74,1.89-12.63,15.16,0,0-3.16-16.42-11.37-16.42Z" style="fill: #e2f1f4; stroke-width: 0px;"/>
    <path d="M1866.13,252.44s11.58-1.89,12.63-15.79c0,0-1.26,12.63,11.37,17.06,0,0-10.74,1.89-12.63,15.16,0,0-3.16-16.42-11.37-16.42Z" style="fill: #e2f1f4; stroke-width: 0px;"/>
    <path d="M472.3,184.38s11.58-1.89,12.63-15.79c0,0-1.26,12.63,11.37,17.06,0,0-10.74,1.89-12.63,15.16,0,0-3.16-16.42-11.37-16.42Z" style="fill: #e2f1f4; stroke-width: 0px;"/>
    <g>
      <path d="M119.53,406.56c-3.46-12.24,5.46-24.44,18.13-25.62,6.36-.59,14.86.27,19.86,7.56,8.75,12.74-1.74,34.48-21.63,31.89-8.88-1.16-14.42-6.95-16.36-13.83Z" style="fill: #fdd985; stroke-width: 0px;"/>
      <line x1="134.44" y1="357.47" x2="136.91" y2="377.33" style="fill: none; stroke: #fdd985; stroke-linecap: round; stroke-miterlimit: 10; stroke-width: 1.12px;"/>
      <line x1="105.49" y1="372.76" x2="119.76" y2="384.88" style="fill: none; stroke: #fdd985; stroke-linecap: round; stroke-miterlimit: 10; stroke-width: 1.12px;"/>
      <line x1="97.71" y1="399.97" x2="115.54" y2="398.65" style="fill: none; stroke: #fdd985; stroke-linecap: round; stroke-miterlimit: 10; stroke-width: 1.12px;"/>
      <line x1="166.98" y1="365.02" x2="154.31" y2="379.05" style="fill: none; stroke: #fdd985; stroke-linecap: round; stroke-miterlimit: 10; stroke-width: 1.12px;"/>
      <line x1="179.43" y1="396.59" x2="164.09" y2="397.88" style="fill: none; stroke: #fdd985; stroke-linecap: round; stroke-miterlimit: 10; stroke-width: 1.12px;"/>
      <line x1="161.74" y1="412.47" x2="178.11" y2="420.97" style="fill: none; stroke: #fdd985; stroke-linecap: round; stroke-miterlimit: 10; stroke-width: 1.12px;"/>
    </g>
    <path d="M139.82,251.32c2.25-4.16-3.86-8.16-6.8-4.45-1.14,1.45-1.52,3.39.82,5.72,2.37,2.37,4.75,1.01,5.98-1.27Z" style="fill: #fff; stroke-width: 0px;"/>
    <path d="M223.77,244.52c1.54-2.85-2.65-5.6-4.66-3.05-.78.99-1.04,2.33.56,3.93,1.63,1.63,3.26.69,4.1-.87Z" style="fill: #fff; stroke-width: 0px;"/>
    <path d="M1723.19,345.47c1.54-2.85-2.65-5.6-4.66-3.05-.78.99-1.04,2.33.56,3.93,1.63,1.63,3.26.69,4.1-.87Z" style="fill: #fff; stroke-width: 0px;"/>
    <path d="M468.69,146.64c1.54-2.85-2.65-5.6-4.66-3.05-.78.99-1.04,2.33.56,3.93s3.26.69,4.1-.87Z" style="fill: #fff; stroke-width: 0px;"/>
    <path d="M85.81,319c1.54-2.86-2.65-5.6-4.66-3.05-.78.99-1.04,2.33.56,3.93,1.63,1.63,3.26.69,4.1-.87Z" style="fill: #fff; stroke-width: 0px;"/>
    <path d="M1024.99,296.79c1.54-2.86-2.65-5.6-4.66-3.05-.78.99-1.04,2.33.56,3.93,1.63,1.63,3.26.69,4.1-.87Z" style="fill: #fff; stroke-width: 0px;"/>
    <path d="M1832.22,123.95c1.54-2.86-2.65-5.6-4.66-3.05-.78.99-1.04,2.33.56,3.93,1.63,1.63,3.26.69,4.1-.87Z" style="fill: #fff; stroke-width: 0px;"/>
    <path d="M522.68,181.42c1.54-2.85-2.65-5.6-4.66-3.05-.78.99-1.04,2.33.56,3.93,1.63,1.63,3.26.69,4.1-.87Z" style="fill: #fff; stroke-width: 0px;"/>
    <g>
      <path d="M109.26,186.77S78.55,146.63-3.95,94.79" style="fill: none; stroke: #0b4d43; stroke-linecap: round; stroke-miterlimit: 10; stroke-width: .82px;"/>
      <path d="M124.77,205.47s-.14-16.41-17.28-20.77c0,0,1.46,16.35,17.28,20.77Z" style="fill: #30898b; stroke-width: 0px;"/>
      <path d="M96.41,199.49s9.58-8.25,2.33-23.6c0,0-10.43,8.43-2.33,23.6Z" style="fill: #30898b; stroke-width: 0px;"/>
      <path d="M80.06,182.07s8.55-8.92.54-23.66c0,0-10.39,8.64-.54,23.66Z" style="fill: #30898b; stroke-width: 0px;"/>
      <path d="M114.13,164.64s-10.7-7.51-24.77-.53c0,0,8.49,8.64,24.77.53Z" style="fill: #30898b; stroke-width: 0px;"/>
      <path d="M95.81,146.3s-10.69,8.26-24.47,2.96c0,0,8.22-11.52,24.47-2.96Z" style="fill: #30898b; stroke-width: 0px;"/>
      <path d="M62.19,165.86s7.22-9.97-.66-24.07c0,0-10.1,11.03.66,24.07Z" style="fill: #30898b; stroke-width: 0px;"/>
      <path d="M75.53,128.16s-16.31-6.76-25.45,3.61c0,0,10.27,7.6,25.45-3.61Z" style="fill: #30898b; stroke-width: 0px;"/>
      <path d="M43.25,149.88s6.52-11.16-2.45-24.14c0,0-9.12,11.48,2.45,24.14Z" style="fill: #30898b; stroke-width: 0px;"/>
      <path d="M54,112.51s-16.27-6.55-24.63,4.33c0,0,10.59,5.98,24.63-4.33Z" style="fill: #30898b; stroke-width: 0px;"/>
      <path d="M23.27,135.23s5.56-13.62-3.05-24.9c0,0-9.35,13.53,3.05,24.9Z" style="fill: #30898b; stroke-width: 0px;"/>
    </g>
    <g>
      <path d="M1840.07,203.96s19.5-46.63,86.12-117.73" style="fill: none; stroke: #0b4d43; stroke-linecap: round; stroke-miterlimit: 10; stroke-width: .82px;"/>
      <path d="M1829.82,225.99s-4.03-15.9,11.44-24.48c0,0,2.74,16.18-11.44,24.48Z" style="fill: #30898b; stroke-width: 0px;"/>
      <path d="M1855.74,212.99s-11.36-5.54-8.25-22.23c0,0,12.23,5.5,8.25,22.23Z" style="fill: #30898b; stroke-width: 0px;"/>
      <path d="M1867.13,191.99s-10.54-6.45-6.54-22.75c0,0,12.24,5.72,6.54,22.75Z" style="fill: #30898b; stroke-width: 0px;"/>
      <path d="M1829.74,183.79s8.44-9.98,23.82-6.81c0,0-6.02,10.52-23.82,6.81Z" style="fill: #30898b; stroke-width: 0px;"/>
      <path d="M1842.8,161.4s12.44,5.27,24.42-3.36c0,0-10.88-9.05-24.42,3.36Z" style="fill: #30898b; stroke-width: 0px;"/>
      <path d="M1880.29,171.77s-9.51-7.81-5.48-23.45c0,0,12.57,8.1,5.48,23.45Z" style="fill: #30898b; stroke-width: 0px;"/>
      <path d="M1857.81,138.7s14.06-10.69,25.53-2.97c0,0-8,9.96-25.53,2.97Z" style="fill: #30898b; stroke-width: 0px;"/>
      <path d="M1894.54,151.5s-9.14-9.13-3.77-23.97c0,0,11.74,8.79,3.77,23.97Z" style="fill: #30898b; stroke-width: 0px;"/>
      <path d="M1874.65,118.09s14.07-10.47,24.92-2.07c0,0-8.73,8.47-24.92,2.07Z" style="fill: #30898b; stroke-width: 0px;"/>
      <path d="M1910.14,132.25s-8.84-11.76-3.38-24.86c0,0,12.48,10.71,3.38,24.86Z" style="fill: #30898b; stroke-width: 0px;"/>
    </g>
    <g>
      <path d="M23.9,527.62s-6.04-2.75-10.28-15.9l3.77-.55-4.68-1.97s-4.36-9.78,3.37-22.58l2.89,1.3-1.63-3.48s10.56-11.72,14.56,6.57l-2.31,2.12,2.95.24s5.33,12.51-5.26,34.38l-3.38-.13Z" style="fill: #79daa7; stroke-width: 0px;"/>
      <path d="M23.33,485.7c-.42,12.24-.16,24.53,1.21,36.7.15,1.75.45,3.47.63,5.22-2.75-13.75-3.21-27.98-1.84-41.92h0Z" style="fill: #0b4d43; stroke-width: 0px;"/>
    </g>
    <g>
      <path d="M39.61,508.22c7.98-3.12,9.57-2.57,9.57-2.57l1.38,2.56.85-3.64s7.72-2.94,15.75,1.61c8.03,4.55,12.43,3.84,12.43,3.84,0,0-.51,10.91-8.48,16.08l-2.69-2.47.55,3.52s-7.88,5.14-25.07,2.83l-.46-3.24-1.47,2.59s-10.94-1.63-15.84-9.07c0,0,5.51-8.93,13.49-12.05Z" style="fill: #ffbfa1; stroke-width: 0px;"/>
      <path d="M26.12,520.27c13.55-2.2,28.53-4.16,42.19-5.52-13.55,2.21-28.53,4.16-42.19,5.52h0Z" style="fill: #0b4d43; stroke-width: 0px;"/>
      <path d="M53.75,511.96c-.61,2.22-2.15,4.29-4.25,5.28,1.56-1.73,2.82-3.45,4.25-5.28h0Z" style="fill: #0b4d43; stroke-width: 0px;"/>
      <path d="M56.5,516.36c2.38.33,5.16,1.22,6.45,3.39-1.95-1.52-4.3-2.17-6.45-3.39h0Z" style="fill: #0b4d43; stroke-width: 0px;"/>
      <path d="M40.4,518.33c2.49.73,4.86,2.39,6.04,4.74-1.91-1.8-3.93-3.19-6.04-4.74h0Z" style="fill: #0b4d43; stroke-width: 0px;"/>
    </g>
    <g>
      <g>
        <path d="M1786.21,497.85s-12.06-47.04-3.32-81.5l5.87-.21-4.53-6.5s9.35-37.37,28.29-39.92c18.94-2.54,23.3,23.39,9.21,48.4-14.09,25.01-28.37,59.89-28.49,81.28l-7.03-1.56Z" style="fill: #fdd985; stroke-width: 0px;"/>
        <path d="M1804.41,415.6c-1.39,3.27-2.69,6.58-3.86,9.94-.61,1.67-1.16,3.36-1.74,5.03l-1.59,5.08c-2.03,6.8-3.75,13.69-5.05,20.66-.31,1.74-.71,3.48-.95,5.23l-.78,5.26c-.26,1.75-.38,3.52-.58,5.29-.18,1.76-.38,3.53-.45,5.3l-.31,5.31-.02,5.32-.03,2.66.14,2.66.26,5.33c-.78-7.06-1.24-14.2-.79-21.33.34-7.12,1.2-14.22,2.55-21.22,1.38-6.99,3.1-13.92,5.29-20.7,2.21-6.77,4.75-13.45,7.9-19.83Z" style="fill: #0b4d43; stroke-width: 0px;"/>
      </g>
      <g>
        <path d="M1878.73,473.98s-39.74,45.58-142.2,101.17" style="fill: none; stroke: #0b4d43; stroke-linecap: round; stroke-miterlimit: 10; stroke-width: .98px;"/>
        <path d="M1898.68,452.83s-1.42,19.58-22.22,23.48c0,0,3-19.41,22.22-23.48Z" style="fill: #30898b; stroke-width: 0px;"/>
        <path d="M1864.35,457.82s10.81,10.58.98,28.35c0,0-11.81-10.86-.98-28.35Z" style="fill: #30898b; stroke-width: 0px;"/>
        <path d="M1843.5,477.36s9.53,11.3-1.16,28.29c0,0-11.74-11.11,1.16-28.29Z" style="fill: #30898b; stroke-width: 0px;"/>
        <path d="M1882.85,500.78s-13.35,8.15-29.61-1.26c0,0,10.8-9.67,29.61,1.26Z" style="fill: #30898b; stroke-width: 0px;"/>
        <path d="M1859.57,521.27s-12.13-10.68-28.99-5.41c0,0,8.94,14.38,28.99,5.41Z" style="fill: #30898b; stroke-width: 0px;"/>
        <path d="M1820.92,495.35s7.86,12.45-2.62,28.69c0,0-11.22-13.94,2.62-28.69Z" style="fill: #30898b; stroke-width: 0px;"/>
        <path d="M1833.97,541.38s-20,6.83-30.11-6.26c0,0,12.85-8.29,30.11,6.26Z" style="fill: #30898b; stroke-width: 0px;"/>
        <path d="M1797.1,512.99s6.94,13.82-4.76,28.63c0,0-10.01-14.41,4.76-28.63Z" style="fill: #30898b; stroke-width: 0px;"/>
        <path d="M1772.12,528.95s5.6,16.68-5.54,29.5c0,0-10.13-16.87,5.54-29.5Z" style="fill: #30898b; stroke-width: 0px;"/>
      </g>
      <g>
        <path d="M1822.67,527.55c12.58-13.36,12.77-16.97,12.77-16.97l-3.97-4.79,7.91,1.21s12.02-13,9.39-32.6c-2.63-19.6,2.3-27.78,2.3-27.78,0,0-22.1-7.72-38.74,4l2.76,7.32-6.57-3.91s-16.51,11.56-25.68,47.57l6.07,3.51-6.34.85s-5.52,23.05,5.35,38.74c0,0,22.16-3.81,34.74-17.17Z" style="fill: #ffbfa1; stroke-width: 0px;"/>
        <path d="M1787.93,544.72c3.55-6.72,7.2-13.39,10.85-20.05l11.08-19.92,11.28-19.81c3.8-6.58,7.6-13.16,11.51-19.68-3.55,6.72-7.19,13.39-10.85,20.05l-11.08,19.92-11.28,19.81c-3.79,6.58-7.6,13.16-11.51,19.68Z" style="fill: #0b4d43; stroke-width: 0px;"/>
        <path d="M1826.54,496.46c-2.4.57-4.74,1.11-7.06,1.79-1.16.32-2.3.71-3.44,1.11-1.14.4-2.24.88-3.4,1.34.94-.8,1.98-1.5,3.1-2.04,1.11-.55,2.27-1,3.46-1.34,1.19-.33,2.4-.6,3.63-.75,1.22-.15,2.46-.22,3.7-.11Z" style="fill: #0b4d43; stroke-width: 0px;"/>
        <path d="M1820.01,487.46c-.15-2.65-.16-5.27-.32-7.87-.06-1.3-.17-2.59-.34-3.88-.19-1.28-.39-2.56-.92-3.79.86,1.03,1.34,2.35,1.66,3.64.33,1.3.49,2.64.57,3.97.13,2.66-.04,5.33-.66,7.92Z" style="fill: #0b4d43; stroke-width: 0px;"/>
        <path d="M1803.2,517.9c-.57-2.73-1.13-5.41-1.85-8.04-.34-1.32-.77-2.62-1.21-3.91-.46-1.29-.97-2.55-1.53-3.84.88,1.08,1.65,2.27,2.24,3.55.59,1.27,1.08,2.59,1.45,3.95.71,2.71,1.11,5.51.91,8.3Z" style="fill: #0b4d43; stroke-width: 0px;"/>
      </g>
      <g>
        <path d="M1762.26,535.81s3.81-12.47-10.03-35.79l-5.71,4.82,3.19-9.44s-8.71-19.12-37.59-24.39l-1.84,5.93-3-6.92s-30.96.3-9.27,29.95l6.12-.64-3.47,4.65s11.47,24.1,57.41,36.95l4.2-5.13Z" style="fill: #79daa7; stroke-width: 0px;"/>
        <path d="M1701.36,480.49c5.6,4,10.98,8.3,16.25,12.74,5.27,4.43,10.36,9.08,15.36,13.81,4.96,4.78,9.8,9.69,14.42,14.79,4.67,5.07,9.03,10.41,13.23,15.86-2.3-2.56-4.44-5.26-6.8-7.76l-3.44-3.84-3.54-3.75c-2.35-2.5-4.77-4.95-7.17-7.4-2.44-2.41-4.87-4.84-7.38-7.19-4.94-4.78-10.02-9.41-15.17-13.95-2.58-2.27-5.18-4.52-7.81-6.73-2.61-2.23-5.27-4.41-7.95-6.57Z" style="fill: #0b4d43; stroke-width: 0px;"/>
      </g>
      <g>
        <path d="M1775.81,538.91s11.75-8.74,14.76-39.06l-8.38.56,9.17-6.41s4.86-23.1-17.76-47.1l-5.62,4.14,1.89-8.26s-28.21-20.35-28.34,20.92l5.97,3.5-6.24,1.89s-5.67,29.44,27.32,71.67l7.22-1.84Z" style="fill: #30898b; stroke-width: 0px;"/>
        <path d="M1757.56,448.29c2.38,7.36,4.37,14.84,6.17,22.36,1.81,7.52,3.31,15.11,4.68,22.73,1.31,7.62,2.41,15.29,3.21,22.98.86,7.69,1.26,15.42,1.45,23.15l-.44-5.78-.21-2.89-.29-2.88-.55-5.76-.69-5.75c-.45-3.83-1.01-7.65-1.54-11.48-.6-3.81-1.18-7.63-1.88-11.42-1.29-7.61-2.8-15.18-4.45-22.73-.82-3.77-1.69-7.54-2.6-11.29-.89-3.76-1.85-7.5-2.84-11.24Z" style="fill: #0b4d43; stroke-width: 0px;"/>
      </g>
    </g>
    <g>
      <path d="M972.61,212.99h-1.84v-18.28h3.97c3.23,0,5.04,1.73,5.04,4.85,0,3.4-1.92,5.29-4.44,5.29h-2.74v8.14ZM972.61,203.21l2.58-.03c1.7-.03,2.69-1.32,2.69-3.62s-1.18-3.21-3.15-3.21h-2.11v6.85Z" style="fill: #fff; stroke-width: 0px;"/>
      <path d="M987.44,198.71h1.84v12.63h7.48v1.64h-9.32v-14.28Z" style="fill: #fff; stroke-width: 0px;"/>
      <path d="M1004.92,209.1l-1.34,4.25-1.81-.66,4.49-13.98h2.36l4.5,13.98-1.81.66-1.32-4.25h-5.07ZM1007.44,200.85l-2.03,6.6h4.06l-2.03-6.6Z" style="fill: #fff; stroke-width: 0px;"/>
      <path d="M1019.12,198.71h2.27l5.54,12.03.05-.06-.17-3.7v-8.28h1.84v14.28h-2.28l-5.54-12.03-.05.05.16,3.73v8.25h-1.84v-14.28Z" style="fill: #fff; stroke-width: 0px;"/>
      <path d="M1036.41,198.71h8.91v1.64h-7.07v4.28h5.84v1.64h-5.84v5.07h7.07v1.64h-8.91v-14.28Z" style="fill: #fff; stroke-width: 0px;"/>
      <path d="M1055.9,200.36h-3.95v-1.64h9.65v1.64h-3.86v12.63h-1.84v-12.63Z" style="fill: #fff; stroke-width: 0px;"/>
      <path d="M1086.42,202.01l1.32.49-4.11,10.75h-.25l-4.11-10.75,1.32-.49,2.92,7.85,2.92-7.85Z" style="fill: #fff; stroke-width: 0px;"/>
      <path d="M1093.59,209.6c.27,1.32.9,2.28,2.34,2.28,1.13,0,2.01-.62,2.01-1.81,0-1.32-1.11-1.64-2.16-2.08-1.56-.66-3.04-1.07-3.04-3.08,0-1.81,1.46-2.82,3.14-2.82,1.79,0,2.84,1.03,3.27,2.69l-1.32.39c-.25-1.05-.8-1.79-1.97-1.79-.88,0-1.75.45-1.75,1.42s.62,1.29,1.44,1.66l2.28,1.01c.97.53,1.48,1.4,1.48,2.51,0,2.04-1.42,3.19-3.39,3.19s-3.25-1.27-3.58-3.19l1.23-.39Z" style="fill: #fff; stroke-width: 0px;"/>
      <path d="M1107.22,209.95h1.89v3.04h-1.89v-3.04Z" style="fill: #fff; stroke-width: 0px;"/>
      <path d="M1132.94,212.99h-1.84v-18.28h3.97c3.23,0,5.04,1.73,5.04,4.85,0,3.4-1.92,5.29-4.44,5.29h-2.74v8.14ZM1132.94,203.21l2.58-.03c1.7-.03,2.69-1.32,2.69-3.62s-1.18-3.21-3.15-3.21h-2.11v6.85Z" style="fill: #fff; stroke-width: 0px;"/>
      <path d="M1147.77,198.71h1.84v12.63h7.48v1.64h-9.32v-14.28Z" style="fill: #fff; stroke-width: 0px;"/>
      <path d="M1165.26,209.1l-1.34,4.25-1.81-.66,4.49-13.98h2.36l4.5,13.98-1.81.66-1.32-4.25h-5.07ZM1167.78,200.85l-2.03,6.6h4.06l-2.03-6.6Z" style="fill: #fff; stroke-width: 0px;"/>
      <path d="M1181.24,208.47c.36,1.75,1.21,3.04,3.12,3.04,1.51,0,2.69-.82,2.69-2.41,0-1.75-1.48-2.19-2.88-2.77-2.08-.88-4.06-1.43-4.06-4.11,0-2.41,1.95-3.75,4.19-3.75,2.38,0,3.78,1.37,4.36,3.59l-1.75.52c-.33-1.4-1.07-2.38-2.63-2.38-1.18,0-2.33.6-2.33,1.89s.82,1.73,1.92,2.22l3.04,1.34c1.29.71,1.97,1.86,1.97,3.34,0,2.71-1.89,4.25-4.52,4.25s-4.33-1.7-4.77-4.25l1.64-.52Z" style="fill: #fff; stroke-width: 0px;"/>
      <path d="M1199.79,200.36h-3.95v-1.64h9.65v1.64h-3.86v12.63h-1.84v-12.63Z" style="fill: #fff; stroke-width: 0px;"/>
      <path d="M1214.18,211.34h2v-10.99h-2v-1.64h5.86v1.64h-2.03v10.99h2.03v1.64h-5.86v-1.64Z" style="fill: #fff; stroke-width: 0px;"/>
      <path d="M1238.68,210.25c-1.15,1.81-2.52,2.99-4.74,2.99-4.17,0-5.48-3.84-5.48-7.37,0-5.7,3.01-7.4,5.32-7.4s3.51,1.15,4.52,3.04l-1.67.85c-.6-1.15-1.43-2.16-2.82-2.16-2.85,0-3.42,3.45-3.42,5.65s.52,5.67,3.42,5.67c1.67,0,2.52-1.01,3.37-2.3l1.51,1.04Z" style="fill: #fff; stroke-width: 0px;"/>
      <path d="M1247.02,208.47c.36,1.75,1.21,3.04,3.12,3.04,1.51,0,2.69-.82,2.69-2.41,0-1.75-1.48-2.19-2.88-2.77-2.08-.88-4.06-1.43-4.06-4.11,0-2.41,1.95-3.75,4.19-3.75,2.38,0,3.78,1.37,4.36,3.59l-1.75.52c-.33-1.4-1.07-2.38-2.63-2.38-1.18,0-2.33.6-2.33,1.89s.82,1.73,1.92,2.22l3.04,1.34c1.29.71,1.97,1.86,1.97,3.34,0,2.71-1.89,4.25-4.52,4.25s-4.33-1.7-4.77-4.25l1.64-.52Z" style="fill: #fff; stroke-width: 0px;"/>
      <path d="M930.89,236.65c-.88.72-2.04,1.19-3.19,1.19-3.54,0-4.15-4.28-4.15-7.01,0-2.57.6-7.07,4.01-7.07,1.54,0,2.67.95,3.43,2.2l-1.21.74c-.49-.88-1.21-1.64-2.3-1.64-2.28,0-2.49,4.19-2.49,5.82,0,4.71,1.38,5.67,2.73,5.67.58,0,1.32-.25,1.79-.64v-4.13h-2.57v-1.23h3.95v6.1Z" style="fill: #fff; stroke-width: 0px;"/>
      <path d="M936.94,226.95h1.38v9.48h5.61v1.23h-6.99v-10.71Z" style="fill: #fff; stroke-width: 0px;"/>
      <path d="M955.74,232.31c0,.86-.06,5.53-3.8,5.53-1.73,0-3.8-1.23-3.8-5.53s2.03-5.55,3.8-5.55,3.8,1.23,3.8,5.55ZM949.58,232.31c0,1.56.29,4.23,2.36,4.23s2.36-2.67,2.36-4.23-.29-4.25-2.36-4.25-2.36,2.67-2.36,4.25Z" style="fill: #fff; stroke-width: 0px;"/>
      <path d="M960.62,237.66v-1.23h1.11v-8.24h-1.11v-1.23h3.37c2.71,0,3.88,1.03,3.88,2.86,0,.92-.39,1.75-1.21,2.2,1.17.37,1.83,1.38,1.83,2.59,0,1.93-1.27,3.06-3.51,3.06h-4.36ZM964.65,231.53c1.19,0,1.79-.76,1.79-1.73,0-1.27-.9-1.62-1.87-1.62h-1.46v3.35h1.54ZM964.71,236.42c1.21,0,2.34-.27,2.34-1.73,0-1.07-.7-1.93-2.01-1.93h-1.93v3.66h1.6Z" style="fill: #fff; stroke-width: 0px;"/>
      <path d="M974.72,234.74l-1.01,3.19-1.36-.49,3.37-10.48h1.77l3.37,10.48-1.36.49-.99-3.19h-3.8ZM976.61,228.55l-1.52,4.95h3.04l-1.52-4.95Z" style="fill: #fff; stroke-width: 0px;"/>
      <path d="M986.27,226.95h1.38v9.48h5.61v1.23h-6.99v-10.71Z" style="fill: #fff; stroke-width: 0px;"/>
      <path d="M1012.95,225.18h-2.96v-1.23h7.23v1.23h-2.9v12.48h-1.38v-12.48Z" style="fill: #fff; stroke-width: 0px;"/>
      <path d="M1022.45,226.95h1.38v4.44h4.23v-4.44h1.38v10.71h-1.38v-5.04h-4.23v5.04h-1.38v-10.71Z" style="fill: #fff; stroke-width: 0px;"/>
      <path d="M1035.34,226.95h6.68v1.23h-5.3v3.21h4.38v1.23h-4.38v3.8h5.3v1.23h-6.68v-10.71Z" style="fill: #fff; stroke-width: 0px;"/>
      <path d="M1048.21,228.98h-.04l-.27,8.67h-1.46l.43-10.71h1.81l1.93,4.65,1.93-4.65h1.81l.43,10.71h-1.46l-.27-8.67h-.04l-2.41,5.65-2.4-5.65Z" style="fill: #fff; stroke-width: 0px;"/>
      <path d="M1060,226.95h6.68v1.23h-5.3v3.21h4.38v1.23h-4.38v3.8h5.3v1.23h-6.68v-10.71Z" style="fill: #fff; stroke-width: 0px;"/>
      <path d="M1085.06,226.95h6.74v1.23h-5.37v3.21h4.5v1.23h-4.5v5.04h-1.38v-10.71Z" style="fill: #fff; stroke-width: 0px;"/>
      <path d="M1103.75,232.31c0,.86-.06,5.53-3.8,5.53-1.73,0-3.8-1.23-3.8-5.53s2.04-5.55,3.8-5.55,3.8,1.23,3.8,5.55ZM1097.58,232.31c0,1.56.29,4.23,2.36,4.23s2.36-2.67,2.36-4.23-.29-4.25-2.36-4.25-2.36,2.67-2.36,4.25Z" style="fill: #fff; stroke-width: 0px;"/>
      <path d="M1109.17,226.95h3.64c1.79,0,3.21.84,3.21,2.92,0,1.32-.88,2.61-2.18,3l2.63,4.34-1.19.72-2.73-4.85h-1.99v4.58h-1.38v-10.71ZM1112.36,231.84c1.34,0,2.22-.76,2.22-1.97,0-.97-.58-1.69-1.81-1.69h-2.22v3.66h1.81Z" style="fill: #fff; stroke-width: 0px;"/>
      <path d="M1134.01,223.95h6.68v1.23h-5.3v4.52h4.38v1.23h-4.38v5.49h5.3v1.23h-6.68v-13.71Z" style="fill: #fff; stroke-width: 0px;"/>
      <path d="M1147.39,234.74l-1.01,3.19-1.36-.49,3.37-10.48h1.77l3.37,10.48-1.36.49-.99-3.19h-3.8ZM1149.28,228.55l-1.52,4.95h3.04l-1.52-4.95Z" style="fill: #fff; stroke-width: 0px;"/>
      <path d="M1158.51,226.95h3.64c1.79,0,3.21.84,3.21,2.92,0,1.32-.88,2.61-2.18,3l2.63,4.34-1.19.72-2.73-4.85h-1.99v4.58h-1.38v-10.71ZM1161.7,231.84c1.34,0,2.22-.76,2.22-1.97,0-.97-.58-1.69-1.81-1.69h-2.22v3.66h1.81Z" style="fill: #fff; stroke-width: 0px;"/>
      <path d="M1173.29,228.18h-2.96v-1.23h7.23v1.23h-2.9v9.48h-1.38v-9.48Z" style="fill: #fff; stroke-width: 0px;"/>
      <path d="M1182.79,226.95h1.38v4.44h4.23v-4.44h1.38v10.71h-1.38v-5.04h-4.23v5.04h-1.38v-10.71Z" style="fill: #fff; stroke-width: 0px;"/>
      <path d="M1207.23,225.18v-1.23h3.62c2.75,0,4.38,1.21,4.38,6.87,0,3.02-.17,6.84-4.34,6.84h-3.66v-1.23h1.11v-11.24h-1.11ZM1209.71,236.42h1.13c1.67,0,2.94-.43,2.94-5.61s-1.4-5.63-2.61-5.63h-1.46v11.24Z" style="fill: #fff; stroke-width: 0px;"/>
      <path d="M1221.39,234.74l-1.01,3.19-1.36-.49,3.37-10.48h1.77l3.37,10.48-1.36.49-.99-3.19h-3.8ZM1223.28,228.55l-1.52,4.95h3.04l-1.52-4.95Z" style="fill: #fff; stroke-width: 0px;"/>
      <path d="M1238.47,226.68l1.29.68-3.47,6.17v4.13h-1.38v-4.13l-3.45-6.17,1.29-.68,2.86,5.51,2.86-5.51Z" style="fill: #fff; stroke-width: 0px;"/>
      <path d="M1256.46,236.42l5.08-6.56c.64-.82,1.15-1.46,1.15-2.57,0-1.29-.86-2.24-2.2-2.24-1.62,0-2.45,1.27-2.65,2.75l-1.36-.19c.33-2.28,1.58-3.86,4.01-3.86,2.16,0,3.64,1.32,3.64,3.49,0,1.32-.66,2.34-1.44,3.35l-4.48,5.82h5.9v1.23h-7.65v-1.23Z" style="fill: #fff; stroke-width: 0px;"/>
      <path d="M1276.44,230.81c0,2.2.37,7.03-3.82,7.03s-3.82-4.67-3.82-7.03c0-3.23-.16-7.05,3.82-7.05,4.36,0,3.82,5.51,3.82,7.05ZM1270.23,230.81c0,5.38.99,5.73,2.38,5.73,1.58,0,2.38-.64,2.38-5.73s-.92-5.75-2.38-5.75c-2.59,0-2.38,3.02-2.38,5.75Z" style="fill: #fff; stroke-width: 0px;"/>
      <path d="M1281.13,236.42l5.08-6.56c.64-.82,1.15-1.46,1.15-2.57,0-1.29-.86-2.24-2.2-2.24-1.62,0-2.45,1.27-2.65,2.75l-1.36-.19c.33-2.28,1.58-3.86,4.01-3.86,2.16,0,3.64,1.32,3.64,3.49,0,1.32-.66,2.34-1.44,3.35l-4.48,5.82h5.9v1.23h-7.65v-1.23Z" style="fill: #fff; stroke-width: 0px;"/>
      <path d="M1293.38,234.22l2.04-10.54,1.38.37-1.77,8.94h3.72v-6.97h1.38v6.97h1.09v1.23h-1.09v3.43h-1.38v-3.43h-5.36Z" style="fill: #fff; stroke-width: 0px;"/>
    </g>
  </g>
  <g id="_圖層_2-2" data-name=" 圖層 2">
    <path d="M252.75,72.43v.07l.79-.07h-.79Z" style="fill: #fff; stroke-width: 0px;"/>
    <path d="M242.97,66.27s.06-.06.06-.08c-.01-.03-.03-.06-.06-.09,0,0-.06,0-.06.06.01.04.03.08.06.11Z" style="fill: #fff; stroke-width: 0px;"/>
    <path d="M242.74,66.47h-.08s0,.09,0,.13l.08-.13Z" style="fill: #fff; stroke-width: 0px;"/>
    <rect x="-173.27" y="-144.3" width="177" height="1307" style="fill: #606060; stroke-width: 0px;"/>
    <rect x="1919.4" y="-175.11" width="480.6" height="1367" style="fill: #606060; stroke-width: 0px;"/>
  </g>
</svg>