<?xml version="1.0" encoding="UTF-8"?>
<svg xmlns="http://www.w3.org/2000/svg" width="387.38" height="348.54" xmlns:xlink="http://www.w3.org/1999/xlink" viewBox="0 0 387.38 348.54">
  <defs>
    <filter id="drop-shadow-1" filterUnits="userSpaceOnUse">
      <feOffset dx="0" dy="0"/>
      <feGaussianBlur result="blur" stdDeviation="3"/>
      <feFlood flood-color="#000" flood-opacity=".15"/>
      <feComposite in2="blur" operator="in"/>
      <feComposite in="SourceGraphic"/>
    </filter>
    <clipPath id="clippath">
      <rect x="31.94" y="33.39" width="283.44" height="283.44" transform="translate(23.71 -20.69) rotate(7.31)" style="fill: none; stroke-width: 0px;"/>
    </clipPath>
    <clipPath id="clippath-1">
      <path d="M270.73,188.39c-10.75,50.53-60.43,82.78-110.96,72.03-50.53-10.75-82.78-60.43-72.03-110.97,10.75-50.53,60.43-82.78,110.96-72.03,50.53,10.75,82.78,60.43,72.03,110.96Z" style="fill: none; stroke-width: 0px;"/>
    </clipPath>
    <clipPath id="clippath-2">
      <path d="M201.1,128.58c1.09-11,11.33-8.63,11.33-8.63-5,14.13-11.33,8.63-11.33,8.63ZM199.08,128.59c-.14-10.99-10.59-8.55-10.59-8.55,3.79,14.1,10.59,8.55,10.59,8.55ZM199.24,144.95c.29-1.81.53-3.58.74-5.27,2.85,1.2,9.38,2.12,14.78-10.58,0,0-9.62-2.24-14.11,3.89.42-5.26.47-9.11.45-10.16,1.01-.87,2.7-2.85,2.96-6.57.38-5.39-2.53-7.65-2.53-7.65,0,0-2.34-2.49-1.25-5.12,0,0-8.78,12.91-.67,19.37.03.97-.17,6.53-1.07,13.89-2.09-10.63-16.03-8.66-16.03-8.66,5.08,14.83,13.38,12.39,15.68,11.37-.34,2.48-.76,5.1-1.27,7.79-3.54-10.18-20.18-9.33-20.18-9.33,5.45,15.53,15.25,15.1,19.16,14.21-.49,2.13-1.04,4.26-1.65,6.35,0,0,1.49.1,1.98.21.72-2.44,1.33-4.93,1.85-7.41,2.82,1.62,11.11,4.55,18.77-10.54,0,0-12.23-3.59-17.6,4.23Z" style="fill: none; stroke-width: 0px;"/>
    </clipPath>
    <filter id="drop-shadow-2" filterUnits="userSpaceOnUse">
      <feOffset dx="2.49" dy="2.49"/>
      <feGaussianBlur result="blur-2" stdDeviation="2.49"/>
      <feFlood flood-color="#1d3537" flood-opacity=".3"/>
      <feComposite in2="blur-2" operator="in"/>
      <feComposite in="SourceGraphic"/>
    </filter>
  </defs>
  <g style="isolation: isolate;">
    <g id="_圖層_2" data-name="圖層 2">
      <g id="Leadpage-100">
        <g id="_業務單位" data-name="業務單位" style="filter: url(#drop-shadow-1);">
          <g>
            <polygon points="307.64 348.54 0 310.86 39.9 0 348.57 41.32 307.64 348.54" style="fill: #f4e1d2; stroke-width: 0px;"/>
            <g style="clip-path: url(#clippath);">
              <g>
                <rect x="-46.24" y="-55.5" width="303.29" height="466.6" transform="translate(-82.13 264.71) rotate(-84.2)" style="fill: #89d7ef; stroke-width: 0px;"/>
                <g>
                  <path d="M199.74,118.1c9.72-5.72,22.62-14.9,34.72-19.85,13.78-5.63,18.75-1.8,13.12,12.29,8.96-3.76,20.59-11.03,30.72-10.05,11.78,1.14,5.08,7.78,4.01,15.17,7.57,1.06,16.8-10.79,23.58-2.12,2.63,3.36.19,7.8,2.15,11.05,2.02,3.34,7.74,4.44,9.96,7.31-14.32,5.09-32.11,1.22-46.97-1.03-11.95-1.81-24.21-2.52-36.19-4.4-6.94-1.09-34.32-2.22-37.42-7.83,1.95-.85,4.36-2.09,6.44-2.46" style="fill: #fff; stroke-width: 0px;"/>
                  <path d="M248.34,174.19c6.57-3.87,15.28-10.07,23.46-13.41,9.31-3.8,12.67-1.22,8.86,8.31,6.05-2.54,13.91-7.45,20.76-6.79,7.96.77,3.43,5.26,2.71,10.25,5.12.71,11.36-7.29,15.94-1.43,1.78,2.27.13,5.27,1.46,7.46,1.36,2.26,5.23,3,6.73,4.94-9.67,3.44-21.7.82-31.74-.69-8.07-1.22-16.36-1.7-24.46-2.97-4.69-.74-23.19-1.5-25.28-5.29,1.32-.57,2.95-1.41,4.35-1.66" style="fill: #fff; stroke-width: 0px;"/>
                  <path d="M-3.74,154.17c8.19-4.31,19.03-11.25,29.23-14.94,11.62-4.2,15.86-1.23,11.21,9.54,7.55-2.81,17.34-8.29,25.93-7.45,9.98.98,4.37,6.01,3.53,11.68,6.42.87,14.14-8.14,19.95-1.43,2.26,2.6.23,5.98,1.92,8.5,1.74,2.58,6.59,3.48,8.49,5.69-12.08,3.79-27.18.66-39.79-1.19-10.13-1.49-20.52-2.14-30.69-3.68-5.88-.9-29.08-1.99-31.75-6.33,1.65-.64,3.68-1.57,5.43-1.83" style="fill: #fff; stroke-width: 0px;"/>
                </g>
                <g>
                  <path d="M270.71,188.39c-10.75,50.53-60.42,82.76-110.94,72.01-50.52-10.75-82.77-60.42-72.01-110.95,10.75-50.52,60.42-82.76,110.95-72.01,50.52,10.75,82.76,60.42,72.01,110.94Z" style="fill: #c5dbbb; stroke-width: 0px;"/>
                  <g style="clip-path: url(#clippath-1);">
                    <path d="M214.49,78.61l-3.08-.62.6-.8-1.81-.09,1.1-.53-.65-.12c-.36-.06-.73-.18-1.12-.29-1.22-.37-2.58-.77-4.1.31l.61-1.81-2.3.58c.31-.42.42-.78.35-1.1-.1-.43-.54-.7-1.28-.78-.53-.06-1.08.15-1.62.35-.15.06-.31.12-.46.17-.28.09-.55.24-.81.39-.06.04-.12.07-.19.1l-.04-.08,1.82-1.67-.2-.16c-1.13-.95-2.14-1.32-3.01-1.1-.56.14-1.05.52-1.46,1.12l-.44-1.41-.21.19c-.16.14-.31.28-.45.4-.29.26-.57.5-.81.78-.85,1.03-1.82.9-2.84.77-.23-.03-.46-.06-.68-.08h-.07s-.05,0-.08,0c-.07-.46-.23-.76-.48-.91-.41-.25-.93.02-1.31.22-.1.06-.2.1-.27.13-.64.25-1.11.02-1.61-.22-.23-.11-.46-.22-.71-.29-.37-.1-.75-.09-1.11-.09-.12,0-.25,0-.37,0-.05-.06-.1-.14-.16-.21-.21-.3-.45-.63-.78-.68-.36-.05-.75.15-1.08.32-.03.02-.07.04-.11.06,0-.24-.07-.45-.19-.61-.35-.46-1.09-.42-1.61-.35-1.21.15-2.43.47-3.6.77l-.49.13c-.31.08-.77.31-1.04.68-.27.38-.49.82-.7,1.24-.05.11-.11.22-.17.33l-.1-.06-.07-.41-.08-.46-.18.05s0,0,0,0l-4.95.76-.05.09c-.23.38-.34.72-.33,1.02-.04-.06-.09-.11-.13-.17-.08-.11-.27.02-.2.13,1.2,1.92,2.94,2.88,4.79,4.04.87.55,1.76,1.17,2.3,2.06.31.52.26,1.07-.05,1.57-.46.75-1.35.4-2.04.61-.36.11-.96.77-.7,1.2.23.38,1.07.89.51,1.46-.38.38-1.04.55-1.49.85-.69.45-.97,1.11-.83,1.9.18,1.01-.21,1.63-.51,2.53-.18.53-.04,1.19.08,1.72.48,2.25,2.04,5.18,4.27,6.06.89.35,1.84-.15,2.56-.64,1.45-1,2.79-2.09,4.34-2.96,3.07-1.71,6.76-3.27,10.22-3.89,2-.35,3.82.03,5.72.6,1.3.39,2.51.48,3.72-.17,1.17-.63,2.45-1.87,2.75-3.21.09-.43.03-.9-.13-1.3-.45-1.14.75-1.37,1.64-1.74,1.36-.56,2.84-1.11,3.5-2.54.36-.79.73-1.56,1.14-2.32.16-.31.38-.65.5-1.01.49.05.97.08,1.45.12.35.02.69.05,1.04.08h.19s.12-1.01.12-1.01Z" style="fill: #95b374; stroke-width: 0px;"/>
                    <path d="M401.93,150.23c-.27-.2-.55-.42-.84-.65-.69-.54-1.4-1.1-2.2-1.49-3.75-1.81-7.81-3.68-12.41-5.71-1.25-.56-2.56-1.02-3.82-1.47-.57-.2-1.13-.4-1.69-.61l-.24-.09-.13,1.52s-.06-.02-.09-.03c-.22-.06-.44-.13-.65-.22-.48-.19-.97-.43-1.44-.67-1.06-.52-2.16-1.07-3.3-1.14-2.19-.14-3.79-.75-5.17-2-.45-.41-.88-.66-1.28-.75-1.24-.28-2.5-.54-3.72-.8-1.05-.22-2.11-.44-3.15-.67-.14-.03-.28-.14-.42-.27-.12-.09-.23-.19-.36-.26-.37-.2-.73-.4-1.1-.6-1.22-.67-2.48-1.36-3.75-1.98-.91-.44-1.88-.69-2.72-.88-.38-.09-1.08-.04-1.35.34-1.06,1.45-1.12,1.48-2.43.94-.16-.07-.34-.15-.52-.23-.7-.33-1.42-.66-1.98-.39-1.98.97-3.05-.44-3.99-1.68-1.5-1.97-3.39-2.81-6.14-2.73-.92.03-1.84-.15-2.6-.5-.16-.07-.32-.15-.47-.22-1.02-.49-2.07-1.01-3.35-.57-.12.04-.36-.03-.49-.15-1.57-1.44-3.41-1.39-5.15-1.12-.2.03-.43-.07-.67-.18-.08-.03-.16-.07-.23-.1v-.12s3.48-1.57,3.48-1.57l-.23-.24c-.16-.17-.32-.36-.46-.54-.32-.39-.61-.76-1-.89-1.73-.53-3.45-.97-5.27-1.44-.57-.15-1.16-.3-1.74-.45l.52-1.36-2.79.81c-.26.08-.53.18-.78.28-.56.21-1.08.42-1.57.38-1.55-.11-3.08-.33-4.7-.57-.64-.09-1.29-.19-1.96-.28l-.28-.04.06.31c.14.78.1,1.32-.12,1.58-.15.18-.41.24-.77.17-.66-.13-1.33-.26-1.99-.4l-1-.2-.35.71,1.67,1.96h0s-3.31-1.68-3.31-1.68l.07.57-1.35.38.8.53c.26.18.5.34.73.49.16.1.31.2.46.3-.22-.1-.46-.18-.7-.26-1.1-.38-2.05-.71-1.84-2.61l.06-.55-2.18,2.2.17.16c.3.27.57.57.85.86.63.69,1.24,1.33,1.99,1.61,1.3.48,2.17.9,2.43,2.08-.01-.03-.02-.05-.04-.08-.18-.36-.38-.74-.66-1-.35-.32-.83-.45-1.29-.57-.19-.05-.38-.1-.57-.17l-.4-.14.35.99c-.09.22-.17.46-.24.69-.19.57-.36,1.1-.68,1.39-.51.48-1.02.53-1.35.5-.41-.05-.8-.26-1.09-.6.1-.06.19-.11.29-.16.44-.23.9-.48,1.2-.9.31-.43.08-1.37-.08-1.89-.16-.49-.35-.98-.54-1.45-.33-.8-.63-1.57-.76-2.39-.13-.88-.35-1.36-1.19-1.49-.5-.08-1-.19-1.59-.31-.28-.06-.59-.12-.92-.19l-.21-.04-.32,3.83,2.39,1.79c-1.03.7-1.6.17-2.26-.45-.34-.32-.71-.65-1.13-.76-.95-.25-1.86-.73-2.66-1.15-.33-.17-.65-.34-.96-.49l-.14-.06-.09.14c-.13.2-.27.43-.4.63-.11.18-.24.37-.32.5-.73-.42-1.55-.33-2.34-.25-1.04.11-2.03.2-2.78-.78-.25-.33-.92-.2-1.12-.15-.51.12-1.02.26-1.52.4-.86.24-1.75.48-2.63.62-.4.06-1.11-.29-1.22-.62l-.11-.33c-.35-1.07-.45-1.15-1.49-1.13h-.25s.58,3.18.58,3.18c-1.13-.72-1.95-.91-2.56-.6-.48.25-.82.8-1.04,1.68l-2.53-1.31-.26.55.86,1c-.53.08-1.16-.06-1.67-.37-.47-.29-.78-.69-.87-1.13-.23-1.1-.79-1.78-1.33-2.43-.09-.11-.19-.23-.28-.35-.03-.04-.05-.11-.09-.21.18.12.36.24.52.36.66.45,1.22.84,1.82,1.18.11.06.23.13.34.2.9.53,1.92,1.14,3.15.37.23-.14.44-.32.64-.5.09-.08.17-.16.27-.23l.16-.13-.1-.18c-.06-.1-.11-.21-.17-.32-.13-.27-.26-.55-.49-.71-.24-.17-.49-.35-.73-.52-1.07-.77-2.17-1.56-3.36-2.12-.31-.15-.64-.22-.95-.28-.65-.13-1.26-.25-1.65-1.05-.2-.4-.44-.64-.74-.71-.48-.1-.98.24-1.42.6l-.21-1.02-2.23-.45c-.12-.07-.2.05-.36.3l-.03.04-.3-.66-.82.78.16-.57-.1-.09c-.42-.41-.84.07-1.12.38-.18.2-.38.43-.51.41-.06,0-.2-.09-.37-.51l-.08-.2-1.64,1-.83-.68-10.11,6.38h.42c-1.74-.02-3.56.2-5.42,1.37l-.35.22,1.11.58-1.42.16.13.91,1.49-.28-2.38.97.69.15c.41.09.56.48.75.92.25.61.56,1.37,1.64,1.05.3-.09.62-.13.94-.17.85-.11,1.81-.23,2.31-1.38l.46.74c-.11.13-.23.27-.2.45.25,1.53.54,3.15.87,4.77.05.25.35.47.52.56.14.07.25.07.34.02l.41-.25c.76-.47,1.55-.95,2.21-1.61.58-.56,1.06-1.24,1.53-1.9.2-.27.39-.55.59-.8l.16-.22-.9-.52,1.74.45-.03-.32c-.04-.34-.14-.49-.22-.6-.02-.03-.03-.05-.04-.07-.1-.21-.23-.42-.35-.64-.3-.51-.61-1.03-.61-1.52.04-.14.53-.44.84-.62.28-.17.57-.34.79-.52,1.41-1.13,3.06-2.48,4.68-3.88.08-.07.13-.16.15-.28l.91,2.18c-.28.21-.55.41-.81.61-.65.49-1.22.92-1.81,1.31-.54.36-.9.94-.99,1.6-.08.64.1,1.24.52,1.68.86.91,1.84,1.78,3.39,1.41.49-.12,1.01-.04,1.56.04.22.03.45.07.67.09l.39.62c-.06.21-.11.42-.16.6-.12.48-.23.9-.37,1.28-.03.09-.1.18-.19.27l.14-1.82-4.05-.82-.42.78,1.32,1.64-1.15,1.22-.93-1.48-.14.05c-.69.26-1.07.55-1.27.95-.15.31-.17.68-.07,1.16-.27.31-.56.72-.46,1.09.07.28.33.44.78.49.86.1,1.08.59,1.09,1.36-.16-.04-.33-.09-.49-.13-.54-.15-1.1-.3-1.67-.3-.66,0-1.27-.21-1.92-.43-.95-.33-1.94-.66-3.05-.26-.39.14-.81.23-1.21.32-.14.03-.28.06-.42.09-.14-.33-.3-.59-.49-.79-.67-1-1.72-1.69-2.97-2.1-.71-.24-1.51-.43-2.19-.04-.26.15-.45.43-.64.64-.52.58-1.17.45-1.85.34-1.78-.3-3.67,1.61-4.7,2.87-.64.79-1.41.93-2.2.26-.29-.25-.62-.49-1-.56-.91-.16-1.94-.17-2.75.32-.16.1-.19.28-.08.43.67.87-.77.39-.98.31-.43-.16-.88-.28-1.33-.37-.57-.11-1.05-.03-1.51.31-1,.73-.2,3.14.39,3.87.74.93,1.69,1.31,1.7,2.65,0,1.21-.62,1.42-1.58.95-1.22-.6-2.11-1.46-3.53-1.5-1.27-.04-3.47.56-3.76,2.02-.1.5.31.98.56,1.37.68,1.05-.18,2.38-.18,3.55,0,1.26-.87,2.23-1.53,3.21-.39.58-.55,1.2-.2,1.82.74,1.32,2.05.29,2.99-.2.08.44.18.97.56,1.18.81.46,1.97.65,2.88.76,1.02.13,2.02-.1,2.98-.46.98-.38,2.23-.8,3.05-1.49.96-.8,1.16-2.17,2.28-2.81.8-.46,1.72-.47,2.37-1.22.79-.9-.88-1.35-1.21-2.04,0-.01.02-.02.03-.03.89-1.24,1.65-.91,2.71-.29.57.34,1.36.3,1.91.16.27-.07.33-.51.43-1.12.01-.09.02-.18.04-.27.07.04.14.09.21.14.35.23.71.47,1.09.42.16-.02.3-.02.43,0,.26,1.27.2,2.54.29,3.87.07,1.08.66,1.79,1.58,2.29,1.52.82,2.66,1.86,2.68,3.74.01.78-.12,1.55-.15,2.32-.04,1.23.58,1.73,1.58.88.63-.53.91-1.16,1.17-1.91.28-.84.63-2.93,1.89-2.59.14.03.27-.03.31-.16.51-1.53-.9-3.22-1.76-4.35-.53-.69-1.11-1.33-1.65-2.01-.69-.86-1.55-1.49-1.79-2.47l1.06-.1.29.3-.6.49.22.17c.17.13.37.26.57.37.32.19.72.43.74.63.13,1.27.89,1.56,1.56,1.82.1.04.21.08.3.12l1.83,1.04.26.47v.02c-.02.16-.06.32-.1.48-.33,1.45-.68,2.95.36,4.26l1.13,2.12-.85.07,2.04,3.22.54-2.67.75.52.55-.7-1.16-1.3-.07-2.23.06-.02,1.29,1.85.07-2.11,2.52.76-.02.21-.05.11c-.27.61-.61,1.36.15,2.03.03.07-.02.39-.05.64-.03.25-.07.53-.1.85v.07s.03.06.03.06c.1.19.19.44.29.7.35.9.78,2.03,1.91,2.53.15.06.87.36,1.16.04.65-.72,1.04-.4,1.6.03.12.09.23.18.35.27.09.06.17.12.25.18.45.31.9.64,1.4.64.63,0,1.25-.14,1.91-.3.19-.05.39-.1.59-.14l-.28,3.12c-.01.13-.02.27-.03.4-.02.28-.04.54-.08.8-.08.47-.2.95-.3,1.41-.04.19-.09.38-.13.57l-.62,1.37c.07-.48.13-.96.2-1.43l.07-.43-.47-.24-1.53,2.44c-.29-.1-.58-.24-.86-.37-.76-.34-1.54-.69-2.32-.59-1.63.21-2.98-.34-4.4-.93l-.19-.08c-.49-.2-1.03-.25-1.56-.29-.19-.02-.39-.04-.58-.06-.42-1.67-1.7-2.33-2.83-2.92l-.23-.12c-.55-.29-.96-.34-1.29-.15-.46.25-.71.88-.97,1.8-.17.62-1.19,1.49-1.39,1.45l-.3-.13c-1.17-.49-2.63-1.1-2.99-2.11-.64-1.75-1.78-2.35-2.88-2.93-.27-.14-.55-.29-.82-.45l-.12-.07-.75.76-.47-2.89.93-.99-.7-1.38,1.15-.98-.17-.18c-.84-.85-1.94-1.65-3.17-.39-.07-.14-.15-.26-.3-.29-.42-.07-.86-.1-1.28-.14-.79-.07-1.61-.13-2.33-.41-2.28-.87-4.56-.55-7.32,1.05-.15-.09-.29-.18-.4-.24-.59-.33-1.23-.58-1.84-.88-.76-.38-.97-.76-1.66-.65h0s-.02,0-.02,0c-.11.02-.23.05-.38.09-.87.29-1.58,1.01-2.43,1.37-.84.36-1.75.64-2.51,1.16-1.38.95-1.69,2.11-1.86,3.51-.44,1.04-1.21,1.47-2.32,1.77-.94.26-1.63.53-2.47,1.03-.74.44-1.57.49-2.25,1.03-.63.49-.57,1.52-.72,2.2-.25,1.08-1.6,1.82-2.39,2.49-.78.67-1.49,1.53-2.06,2.38-1.03,1.53-.63,3.06-.2,4.73.31,1.19.21,2.18-.55,3.18-.5.66-1.37,1.4-1.41,2.3-.03.68.2,1.09.65,1.58.93,1-.74,1.56-1.05,2.37-.54,1.44.63,2.44,1.76,3.13.67.41,1.27.77,1.81,1.24l.49,1.36c-.62,1.74.18,2.86,1.07,3.72.69,1.85,1.63,3.84,3.94,4.21.13.03.26.07.38.1.29.08.59.16.91.15,1.02-.04,2.03-.11,3.1-.18.37-.03.74-.05,1.13-.08.02.02.04.02.06.03.04.01.09.02.14,0l.36.94.14-.02c.28-.04.56-.08.84-.11.69-.09,1.39-.17,2.07-.39.35-.11.6-.48.85-.84.05-.08.1-.15.16-.22l.61.97.16-.19s.08-.09.12-.13c.1-.11.21-.22.3-.37.05-.09.09-.19.12-.28.21.26.45.46.7.38.27-.08.47-.42.64-1.11.07-.3.18-.59.29-.88l-.33,1.64.42.23c1.36.74,2.63,1.43,2.33,3.58l-.03.22,2.96.35c.97,1.19,1.41,2.46,1.32,3.9-.44.25-.7.55-.8.9-.09.32-.02.67.18,1.05-.35.93-.74,1.62-1.51,1.96l-.09.06-.03.09c-.05.14-.03.46.04.61.49,1.11.99,2.21,1.48,3.31l.48,1.05c.06.2.09.43.12.66.1.69.22,1.47.98,1.74-.03.03-.05.05-.07.08-.25.28-.53.59-.47.96.03.21.17.38.43.54-.23.19-.38.4-.45.64-.09.31-.04.64.14,1.02.47.94.46,1.61-.03,2.31-.22.32-.25.91-.14,1.31.58,2.14-.44,3.58-1.61,5.25l-.14.19c-.69.98-1.2,2.11-1.74,3.3-.24.53-.49,1.08-.76,1.62l-.12.25,1.07.28c-.28.18-.48.4-.59.67-.2.45-.16,1.03.11,1.76.29.76.47,1.6.65,2.41l.03.14c.72,3.27.37,6.69.03,9.99-.09.93-.06,2.05.93,2.56-.12.16-.23.31-.18.49.12.49.26.98.39,1.45.21.75.44,1.54.58,2.32.14.74.11,1.59-.07,2.25-.24.86-.14,1.72.27,2.34.3.45.73.75,1.24.85.17.03.36.04.55.04.26-.01.52-.04.78-.05,1.34-.11,2.6-.21,3.72.68.19.15.56.22.81.09.52-.28,1.05-.55,1.57-.82,1.39-.7,2.83-1.44,4.13-2.39,1.23-.9,2.34-2,3.52-3.16.52-.51,1.06-1.05,1.62-1.58l.18-.17-1.38-1.33s.06,0,.09-.01c.48-.06.93-.12,1.07-.45.49-1.12,1.27-1.44,2.25-1.75,2.18-.69,2.85-1.95,2.38-4.5-.26-1.4-.11-1.67-.06-1.72,1.38-1.37,2.9-2.68,4.52-3.91.49-.38,1.04-.67,1.57-.95.71-.38,1.43-.77,2.04-1.34,1.24-1.16,1.26-2.68,1.27-4.16.01-.85.02-1.73.28-2.51l.02-.07v-.07c-.07-.28-.16-.56-.24-.83-.18-.6-.35-1.16-.3-1.7.14-1.61.38-3.24.62-4.82.09-.61.19-1.23.27-1.84.19-.2.37-.41.55-.61.43-.47.87-.96,1.31-1.42.52-.55,1.06-1.08,1.59-1.6.22-.21.43-.42.64-.63.06-.02.14-.05.2-.07.19-.07.39-.13.56-.28.5-.41,1-.84,1.5-1.26.76-.65,1.54-1.32,2.34-1.94.45-.35.94-.66,1.43-.95.83-.51,1.69-1.05,2.34-1.81,1.83-2.15,3.47-4.57,5.12-7.07.47-.71.78-1.52,1.11-2.39.15-.39.31-.8.48-1.21l.15-.35-.33.04c-.54.07-1.03.14-1.5.21-.99.15-1.85.27-2.71.3-.39.01-.79.07-1.18.11-1.63.19-3.16.38-4.01-1.78-.09-.23-.36-.22-.67-.22-.04,0-.08,0-.12,0v-.75s.66-.51.66-.51l-.06-.16c-.1-.3-.19-.62-.28-.93-.2-.7-.4-1.43-.75-2.04-.25-.42-.53-.81-.81-1.19-.8-1.08-1.56-2.1-1.31-3.78.05-.29-.19-.53-.43-.78-.08-.08-.15-.15-.21-.23l-.32-1.42c-.06-.28-.15-.56-.22-.82-.17-.59-.34-1.14-.31-1.69v-.21c.13-2.21.09-2.58-1.4-2.92l1.02-.32-2.69-11.13,1.59,3.23.56-1.91.04.14c.13.39.26.79.38,1.19.29.91.58,1.85.92,2.76.25.68.56,1.35.87,2,.65,1.36,1.26,2.65,1.28,4,.04,1.98.7,3.59,1.33,5.15.4.98.81,1.98,1.05,3.05.09.41.44.68.77.95.1.08.19.15.28.23-.9,1.92-.68,3.84-.34,5.48.17.79.37,1.38,1.42,1.14.68-.16,1.38-.29,2.06-.42,2.89-.55,5.88-1.12,8.35-3.66,1.02.35,1.91-.13,2.77-.59.41-.22.8-.43,1.19-.55.51-.16.92-.69,1.31-1.21.14-.19.28-.37.43-.54.15-.17.28-.37.42-.56.2-.29.39-.57.63-.74,1.03-.73,1.61-1.51,1.72-2.32.09-.65-.12-1.29-.64-1.92-.54-.64-1.16-1.2-1.77-1.74-.24-.22-.49-.43-.73-.66l.23-1.28-.27.06c-.11.03-.22.04-.34.05-.29.03-.6.06-.82.27-1.23,1.13-2.35,1.36-3.53.73-.13-.07-.22.01-.33.19l-.34-.79c-.4-.93-.81-1.87-1.2-2.81-.08-.19-.13-.4-.19-.62-.08-.3-.17-.6-.31-.87-.53-1-1.1-1.99-1.66-2.95-.18-.32-.36-.63-.55-.95l.09-.07c.2-.17.4-.33.59-.5.14-.12.28-.26.42-.39l.12-.12c.16.03.32.05.47.07.42.06.81.11,1.17.26.85.36,1.01,1.24,1.17,2.17.03.2.07.4.11.59.36,1.65,2.95,3.96,4.39,3.52,1.27-.39,1.8.25,2.33,1.57.44,1.1,2.95,2.59,4.07,2.2.26-.09.46-.34.65-.58.03-.03.06-.07.09-.11.93,1.28,2.21,1.81,3.53,1.45,1.03-.28,1.61.13,2.27.92.21.25.34.59.49.95.14.36.29.73.52,1.02.46.58.99,1.09,1.51,1.57.14.13.28.26.41.4l-.92.43v.17c.16,1.56.81,2.42,1.84,2.42.52,0,1.05-.34,1.55-.68.15-.1.31-.2.45-.29.01.04.03.09.04.13.11.38.26.9.12,1.23-.91,2.31-.52,4.5-.14,6.61l.11.62c.3,1.75.58,3.54.84,5.28.25,1.62.51,3.29.79,4.94.1.61.31,1.18.54,1.79.11.3.23.61.34.94l.1.3,3.33-3.57c.24-.2.27-.59.3-1.04.02-.36.05-.76.19-1.09.64-1.49,1.1-2.75.84-4.28-.02-.09.16-.42.33-.56l.39-.31c1.3-1.03,2.64-2.1,4.01-3.06.8-.56,1.64-1.07,2.46-1.55.46-.27.91-.54,1.36-.82.16-.1.34-.36.34-.59,0-.52.11-.89.3-1.11.29-.33.79-.35,1.31-.37.17,0,.34-.01.51-.03.18-.02.37-.02.57-.02.54,0,1.1,0,1.46-.36.35-.34.63-.49.77-.46.19.04.32.41.47.84l.06.18c.28.77.59,1.54.89,2.29.39.97.8,1.98,1.14,3,.31.93.5,1.93.69,2.91.07.37.14.75.23,1.12.06.28.1.58.12.8,0,.08.02.15.02.2l.03.22,2.56-.69c.02.84.2,1.74.38,2.68.38,1.91.81,4.08.04,6.39l-.02.08.02.07s.03.07.06.09c-.1.26-.23.52-.35.78-.37.79-.75,1.6-.59,2.26.24,1.01.83,1.89,1.39,2.74.22.32.44.66.64.99-.48,2.15-.1,4.85.93,6.46.53.83,1.21,1.35,1.97,1.5.15.03.29.05.44.05h.26s-.05-.28-.05-.28c-.06-.34-.16-.69-.26-1.03-.19-.69-.4-1.4-.22-1.88.65-1.77.18-2.87-.8-4.07-.15-.66-.58-1.07-.99-1.47-.51-.5-.99-.97-.96-1.88.02-.66-.11-1.31-.24-1.94-.14-.68-.26-1.31-.22-1.95.06-.84.44-1.71.81-2.56.11-.24.21-.48.3-.72.09-.22.25-.41.42-.61v.14s2.61,2.21,2.61,2.21l.94,2.98,1.39-.26-.58,2.9.35-.19c.46-.26.92-.51,1.36-.75,1.13-.62,2.2-1.2,3.23-1.88.5-.32.98-1.17,1.02-1.8.24-3.27-.27-5.71-1.62-7.7-1.25-1.84-1.67-2.91-1.49-3.81.16-.81.85-1.58,2.32-2.56.77-.2,1.35-.12,1.78.23.51.41.81,1.21.92,2.43l.03.31-1.8.67.57,2.35,1.91-2.32-.25-.86-.14.05.05-.17c.54-1.87,1.59-2.21,3.22-2.18,1.69.03,3.66-.14,5.49-1.6,1.42-1.13,2.13-2.72,2.83-4.25.26-.58.53-1.18.83-1.74.44-.81.81-1.59.62-2.28-.13-.45-.48-.8-1.09-1.05,0-.02,0-.03,0-.04.44-.22.68-.47.75-.79.12-.48-.19-.96-.55-1.42-.36-.47-.63-1.06-.89-1.63-.11-.24-.22-.48-.34-.72-.09-.19-.2-.38-.29-.56-.28-.54-.57-1.1-.77-1.68-.16-.43-.18-1.04-.08-1.16.56-.64,1.18-1.19,1.83-1.77.24-.22.48-.43.72-.66l.24-.22-.27-.14c-.15-.08-.31-.2-.47-.31-.64-.46-1.42-1.03-2.45.01l-2.52-2.88c.23-.13.45-.26.65-.38.56-.32,1-.58,1.44-.86.42-.27.85-.56,1.25-.84.12-.08.24-.16.35-.24.04.13.09.26.14.38.17.47.33.95.47,1.43.09.34.13.71.15.96,0,.09.02.16.02.21l.04.25,2.68-1.08c.12.31.36.54.59.76.47.47.81.8.27,1.63l-.06.1.02.1c.03.17.33.54.52.64.33.18.67.32,1,.47.11.04.21.09.32.14.08.3.16.59.24.89.19.71.39,1.44.53,2.17.23,1.15.43,1.77.85,1.99.43.23,1.03-.02,1.97-.56.32-.18.76-.82.67-1.19-.38-1.62-1.01-3.38-2.7-4.13l-.96-1.97c.09-.04.18-.08.27-.11.34-.14.66-.28.94-.48.28-.19.79-.83.82-1.02l.02-.11-.06-.08c-.41-.53-.19-.87.12-1.35.14-.22.28-.45.36-.7.63-.9,1.2-1,2.03-.38.42.32,1.5-.03,1.83-.49,1.65-2.22,2.55-4.86,2.67-7.83.03-.78-.04-1.44-.22-1.96-.16-.47-.37-.91-.57-1.34-.22-.47-.45-.95-.6-1.45-.66-2.22-2.36-3.62-4.18-3.48l-.17-1.22-.87.74-.42-1.34-1.42-.29c.15-.29.29-.56.43-.83.38-.72.73-1.41,1.05-2.1.92-2.01,2.67-2.81,4.46-2.03.42.18.88.24,1.32.29.28.03.57.07.84.14,1.04.26,1.94.53,2.76.83,0,.09.01.27.01.41,0,.17,0,.37.02.57l.02.26,3.2-1.24-.64-.43c.05-.19.11-.39.16-.59.15-.59.29-1.16.59-1.55.15-.2.94-.19,1.43.02.33.14.62.39.94.65.28.23.56.47.88.64.33.18.96-.06,1.25-.37.28-.3.48-.69.68-1.06.05-.1.1-.21.16-.31l.38.11c.06.27.13.55.2.82.19.69.36,1.34.25,1.93-.17.89-.65,1.88-1.47,3.02-.78,1.08-.88,2.09-.32,3.19.6,1.17,1.25,2.33,1.87,3.46l.31.57c.14.25.27.5.41.75.44.81.89,1.65,1.43,2.4.23.32.61.45.99.59.15.05.31.1.45.17l.26.12v-.33c.04-.54.04-1.04.04-1.51,0-.93,0-1.74.2-2.45.33-1.15.45-3.34-.33-4.38-.6-.79-1.18-1.61-1.74-2.41-.22-.32-.45-.63-.67-.95l.15-.32c.3-.07.61-.15.91-.23.83-.21,1.68-.43,2.53-.57.42-.07.97-.01,1.22.24.39.39.76.56,1.14.52.39-.04.77-.32,1.16-.83.77-1.01,1.69-1.35,2.91-1.05.23.06.46.08.73.11.14.01.29.03.46.05l.66.08-3.86-3.63.38-.21.48-1.54c.32.65.71,1.27,1.3,1.43.42.11.87,0,1.39-.36.07.03.23.15.32.21.22.17.44.34.65.51.43.35.88.71,1.36,1,.33.2.83.16,1.19.03.25-.09.45-.3.69-.54.11-.11.23-.23.38-.35l.22-.2-.23-.16ZM261.44,176.24l.21-.75.49-.79c-.06.28-.11.58-.18.89l-.04.22.71.14-1.2.3Z" style="fill: #95b374; stroke-width: 0px;"/>
                    <path d="M191.32,205.29c-.99-.67-1.99-1.4-2.47-2.41-.62-1.29-1.32-1.95-2.2-2.08-.52-.07-1.02-.35-1.51-.62-.12-.06-.23-.13-.35-.19-.02-.52-.17-1.04-.5-1.55-.63-.98-1.79-1.39-2.76-1.95-1.15-.66-1.07-2.03-2.21-2.66-.73-.4-1.49-.29-1.74-1.3-.15-.63.11-1.39.23-2,.23-1.14.13-2.09-.32-3.16-.48-1.15-1.38-2.12-2.35-2.88-.49-.38-1.03-.64-1.6-.87-.77-.31-1.19-.38-1.29-1.25-.13-1.05-.86-1.76-1.67-2.35-.63-.45-1.33-.8-1.73-1.49-.28-.49-.29-1.13-.34-1.68-.19-2.24-1.99-2.07-3.78-1.69-1.28.27-2.15-1.43-3.37-1.73-.94-.24-1.37-.43-2.03-1.13-.44-.47-1.62-.92-1.71-1.58-.1-.73-.35-1.21-1.16-1.08-.35.06-.68.41-.92.64-.68.67-1.13,1.15-2.2,1.08-2.89-.21-3.19,2.78-5.15,4.06-.21-.12-.43-.29-.68-.52-.59-.55-1.49-1.03-2.17-.86-1.3.33-2.28.1-3.16-.74-.05-.35-.12-.7-.18-1.04-.16-.84-.31-1.63-.18-2.38.13-.8.49-1.57.87-2.38.2-.42.41-.86.57-1.31.27-.7.51-1.5.24-2.13-.17-.41-.54-.68-1.09-.81-.78-.19-1.59-.31-2.38-.43-.34-.05-.69-.1-1.03-.16-.46-.08-.72-.21-.78-.41-.06-.2.06-.54.36-.99.9-1.37,1.8-2.78,2.66-4.15.36-.58.73-1.15,1.09-1.73l.11-.18-.14-.12c-.82-.71-1.67-1-2.45-.82-.73.17-1.39.73-1.91,1.63-.48.82-1.49,1.48-2.69,1.76-1.21.28-2.36.1-3.01-.46-1.33-1.15-1.97-5.35-1.09-7.14.42-.85.88-1.7,1.32-2.52.2-.37.4-.73.59-1.1l.08-.14-.58-.77c.06-.02.13-.04.2-.06.43-.13.84-.26.97-.61.47-1.14,1.16-1.78,2.34-2.14.45-.14.89-.33,1.32-.52.45-.2.92-.4,1.41-.54.73-.2,1.56-.44,2.19-.22.7.24,1.37.69,2,1.13.05.03.09.06.15.1.31.78.64,1.72,1.42,2.14.13.07.34.04.37-.13.16-.77.33-1.65-.07-2.32,1.42-.06,2.77.61,3.8,1.58,1.3,1.22,1.24,2.66.96,4.27-.28,1.58-.13,4.35,2.03,4.6,2.78.34,2.19-6.13,3.06-7.65,1.61-2.81,5.22-3.01,7.68-4.57,1.12-.7,1.51-1.92,1.95-3.09.78-2.06,2.15-.9,3.55-1.66.4-.22.71-.64.95-1.02.58-.88.91-1.48,2.01-1.81,1.28-.39,2.62-.36,3.5-1.49.47-.61.41-1.41.98-2.01.43-.46,1.37-.6,1.95-.83.83-.32,1.54-.95,1.62-1.88.01-.14,0-.27-.04-.38.15-.14.29-.3.43-.46.07-.08.15-.16.21-.24.88.74,2.31.66,3.2-.17.01.02.03.03.04.05.09.3.14.62-.1.76-.12.07-.25.11-.39.15h0c-.42.11-.92.12-1.3.15-.67.06-1.41.08-1.92.55-.59.54-1.12,2.34-.02,2.69.66.21,1.18-.04,1.75-.38,1.04-.62,1.79-1,3.02-1.07,1.42-.08,3.36.02,4.22-1.38.44-.72-.63-1.27-1.12-1.49-.65-.29-1.32-.53-1.94-.87-.19-.1-.78-.96-.75-.96.39-.02.82.13,1.2.21.79.16,1.67.15,1.5-.88-.08-.48-.78-1.08-1.46-1.39-.75-.79-1.58-.81-2.38-.69-.64.1-1.29.3-1.91.49-.42.13-.86.27-1.29.37-.09.02-.24-.08-.38-.17-.02-.02-.05-.03-.08-.05.01-.03.02-.06.04-.09.05-.11.14-.31.19-.34.47-.16.94-.33,1.41-.5,2.07-.76,4.21-1.55,6.33-.75,3.09,1.17,6.07.18,8.58-.95.52-.24,1.23-1.38,1.12-1.97-.09-.52-.34-.92-.7-1.13-.38-.22-.85-.22-1.37,0-.32.15-.69.17-1.08.19-.12,0-.24.01-.35.02v-.07s2.57-.6,2.57-.6l-.26-.29c-.14-.16-.28-.29-.41-.41-.24-.23-.44-.42-.52-.65-.23-.65-.53-1.47-.46-2.2.08-.93.3-1.88.52-2.89.1-.46.21-.93.31-1.44l.08-.39-4.92,2.22c-.08-.14-.17-.28-.26-.41-.52-.8-.87-1.34-.03-2.23.3-.32.1-1.32-.13-1.7-.36-.6-.91-1.08-1.35-1.42-2.3-1.81-3.64-1.56-5.52,1.03-.05.06-.09.13-.14.2-.12.19-.25.38-.38.44-1.15.53-2.18,1.27-1.87,3.13,0,.11-.25.49-.47.63-1.23.76-2.5,1.49-3.83,2.26l-1.47.85-.03.06c-.07.14-.15.32-.23.53-.23.55-.54,1.3-1.01,1.8-.5.51-1.45.82-2.12.7-.19-.08-.57-1.36-.39-1.95.19-.62.63-1.18,1.09-1.78.21-.28.44-.57.65-.88l.15-.22-.21-.11c-.12-.06-.26-.13-.39-.19-.29-.14-.59-.28-.86-.47-1.48-1.07-3.2-2.32-4.87-3.64-.22-.18-.37-.57-.5-.93l-.05-.15c-.14-.37-.25-.76-.38-1.21-.05-.18-.1-.36-.16-.56.11-.13.23-.28.36-.44.35-.43.74-.92,1.19-1.15.82-.41,1.69-.73,2.53-1.04.67-.25,1.36-.5,2.03-.8.17-.08.39-.11.62-.14.6-.08,1.35-.18,1.54-1.34.15-.03.45-.06.65-.06.98.03,1.95.08,3.03.14l1.61.08-.94-2.01c.7-.34.91.13,1.13.62.07.16.14.3.22.41l.06.08h.09c.48-.09.94-.2,1.39-.31.92-.22,1.79-.42,2.58-.28,2.12.38,3.41-.93,4.76-2.31l.38-.38-.17-.16c-1.21-1.16-2.3-1.21-3.53-.17-.55.46-1.25.72-1.94.97-.17.06-.34.12-.5.19-.11.04-.29-.02-.46-.08-.04-.01-.08-.02-.11-.03,0-.04.01-.07.02-.11.04-.22.07-.44.15-.62.08-.2.21-.39.33-.57.05-.09.11-.17.16-.25l.09-.14-.09-.12c-.04-.05-.07-.1-.1-.15-.06-.11-.12-.21-.24-.24-.71-.19-1.08-.33-1.17-.56-.09-.24.07-.73.44-1.6.06-.16.22-.76,0-.94-.22-.18-.58-.31-.87-.23-.63.18-1.24.4-1.89.63-.24.09-.47.17-.71.25l-.26.09.13.25c.38.69.49,1.22.33,1.57-.15.35-.58.58-1.29.67h-.08c-.53.08-1.14.15-1.62.47-.87.56-1.41.45-1.99-.41-.27-.4-.82-.55-1.25-.67h-.04c-.3-.1-.62-.14-.93-.19-.5-.08-.98-.15-1.39-.37-1.11-.61-2.32-1.11-3.65-.65-.6.21-1.17.55-1.77.91-.2.12-.41.25-.63.38-.04-.71-.22-1.22-.56-1.57-.43-.45-1.08-.6-2.04-.49-.42.05-.86-.12-1.42-.34-.18-.07-.37-.14-.58-.22l1.09-.94-.3-.14c-.39-.19-.79-.37-1.17-.54-.88-.4-1.71-.77-2.49-1.25-.68-.42-1.43-.53-2.17-.64-.88-.13-1.8-.27-2.6-.96-.66-.56-1.74-.41-2.79-.27-.52.07-1.06.15-1.54.13h-.17c-1.59-.05-3.24-.1-4.82-.35-.65-.1-1.29-.4-1.92-.68-.29-.13-.57-.26-.86-.38-.15-.11-.3-.23-.44-.35-.34-.28-.7-.57-1.1-.74-.52-.22-1.06-.4-1.58-.57-.66-.22-1.33-.44-1.95-.75-2.71-1.35-5.8-1.93-9.44-1.78-2.1.09-4.23.28-6.29.47l-.55.05c-.4.04-.78.15-1.19.28-.19.06-.38.11-.59.17l-.26.07,1,2.09c-.28.04-.55.1-.82.15-.72.14-1.34.27-1.79.03-1.5-.8-2.83-.38-4.22.06l-.32.1-.15.89,4.17.84v.35c-.32.08-.63.17-.93.27-.78.23-1.59.48-2.38.58-.59.08-1.2.07-1.79.07-.79,0-1.62-.01-2.41.18-.7.16-1.34.66-1.96,1.14-.27.21-.55.42-.82.6l-.17.11.31.76,1.21.25-1.72.96-.02.73,2.96.6-.02.18c-2.97,1.57-6.19,2.35-9.85,2.37l-.02.44c4.21.08,8.41-.86,12.47-1.76,2.32-.52,4.7-1.05,7.07-1.39l-2.64.94.14.82.18-.05c.49-.12.98-.24,1.47-.36,1.32-.33,2.7-.67,4.05-.96.45-.1.95.08,1.21.19.86.38,1.77.8,2.59,1.34.52.34,1.01.78,1.48,1.21.17.16.35.32.53.48.12.1.22.22.33.34.2.22.41.45.67.58.64.33,1.05.88,1.14,1.5.08.53-.09,1.06-.47,1.54-.35.43-.51.81-.48,1.16.03.39.28.66.58.91-.12.12-.26.24-.39.37-.57.52-1.02.94-.95,1.33.18.97-.23,1.64-.62,2.29-.19.3-.36.59-.46.88l-.03.1.05.09c.16.28.29.53.42.77.26.48.49.9.74,1.29.58.93,1.16,1.74,2.28,2.06-.87-.18-1.76-.33-2.45,1.03-.11.21-.41.36-.7.51-.09.05-.19.09-.27.14l.77-.86-.11-.15c-.25-.36-.55-.73-.95-.72-.31,0-.62.23-1,.73l-.31.4c-2.07,2.73-4.2,5.55-6.5,8.09-1.21,1.34-2.24,2.72-1.65,4.94,0,.03-.05.12-.08.18-.07.13-.15.28-.16.44-.02.43-.09.95-.16,1.44-.18,1.29-.34,2.5.16,3.07.3.35.54.81.8,1.3.42.81.88,1.69,1.68,2.07l-.59-.12-.07.15c-.96,2.01-.94,2.11-.51,4.72l.05.3c.07.38-.07.84-.21,1.32-.05.17-.11.36-.15.54l-.61.1.19.3c.11.18.22.35.34.52.25.39.51.79.72,1.22l.02.05c.16.35.5,1.07.39,1.32-.62,1.42-.06,2.26.43,3,.2.3.4.59.51.91l.44,1.18-.07-1.3c-.02-.36-.09-.69-.15-1.02-.08-.4-.15-.78-.14-1.15.1-2.37.13-4.69-.5-6.93-.07-.23-.06-.49-.05-.78,0-.26.01-.54-.03-.8-.09-.49-.03-.93.18-1.25.17-.26.42-.42.72-.44.31-.03.56.06.74.25.23.27.35.72.32,1.33-.17,3.6.85,6.86,1.87,9.58l.1.27c.74,1.94,1.43,3.77.3,5.93-.22.42-.16,1.17.04,1.59,1.06,2.28,2.84,3.67,4.56,5.01.45.35.92.71,1.36,1.09.15.12.29.26.42.4.54.54,1.16,1.15,2.23.88,2.06-.51,2.51-.22,3.43,2.21.7,1.83,3.1,3.31,4.77,3.02-.13.9.2,1.64.52,2.36.36.8.7,1.56.42,2.52-.09.29.14.6.42.97.15.2.34.38.52.56.34.33.66.64.74,1.02.1.49.23.74.43.84.2.11.43.06.66-.04l2.41,2.61.08-.41c.11-.66.31-1.11.62-1.35.29-.24.69-.32,1.21-.22.37.05.6.19.72.4.15.26.15.65.01,1.33-.06.29-.01.57.03.85.03.21.07.42.05.6-.04.36-.06.72-.08,1.09-.06,1-.13,2.02-.49,2.84-.44.98-1.14,1.85-1.81,2.7-.3.37-.6.76-.88,1.14l-3.25,4.1,1,1.63-.58,1.12c-.71.46-1.19,1.13-1.36,1.9-.17.8,0,1.64.48,2.37.45.69.8,1.5.98,2.29.19.84.33,1.71.46,2.56.14.9.3,1.84.51,2.74.4,1.7.89,3.3,1.46,4.77.41,1.04.99,2.09,1.74,3.13.63.86,1.38,1.62,2.1,2.36l.36.37c.45.46.93.89,1.39,1.31.17.15.33.3.5.45-.02.04-.05.08-.07.11-.15.24-.31.49-.31.76,0,.54.06,1.08.1,1.61.09.98.18,1.91,0,2.78-.12.55-.25,1.09-.37,1.62-.38,1.65-.78,3.36-.92,5.13-.09,1.08-.3,2.19-.5,3.25-.19.96-.38,1.96-.48,2.96-.06.65-.12,1.31-.17,1.96-.21,2.45-.42,4.99-1.24,7.47-.43,1.28-.39,2.75-.35,4.16.02.6.03,1.22.01,1.8,0,.22.12.45.25.58,1.06,1.12,1.09,2.61,1.12,4.17,0,.38.01.76.04,1.14l-.09.4-.08.02.02-.11-.17.09-.12-.31-.4.51-.14.75.28.14s.01.07.03.1c0,0,0,0,0,0-.02.05-.02.12-.01.17l-.52.7.05.12c.16.42.33.8.5,1.17.34.74.66,1.45.7,2.16.14,2.56.9,4.78,2.34,6.76.37.53,1.12.68,1.78.81l.19.04h0c.27.06.54-.17.76-.35.07-.05.12-.1.18-.13l.29-.18-1.08-.84,1.34.27v-.34q-.07-1.55,1.45-3.75c.77-1.11.77-1.98,0-2.93-.28-.35-.47-.83-.69-1.39-.08-.2-.16-.41-.25-.63,2.02-.19,2.08-1.63,2.13-2.9.01-.3.02-.61.06-.9l2.57.79-1.47-.91c-.93-.57-1.69-1.16-1.55-2.37l3.16.64-.1-.36c-.4-1.41-.45-2.22-.19-2.62.25-.37.83-.52,1.96-.49.87.03,1.94-.37,2.72-1,.43-.35.7-.93.75-1.63.08-1.09-.34-2.27-1.09-3.02-.47-.47-.56-.79-.33-1.27.19.12.38.25.57.37.53.34,1.08.7,1.6,1.08.65.47,1.29.59,1.86.36.58-.24,1.05-.83,1.36-1.71l1.85-2.05c1.19-.79,1.79-2.07,2.37-3.32.37-.79.76-1.62,1.3-2.28.22-.26.62-.95.49-1.38-.21-.7-.21-1.27-.02-1.72.28-.65.94-1.05,1.84-1.45l.13-.05c1.08-.48,2.2-.97,3.32-1.41.14-.06.39-.01.51.08.51.41,1.01.56,1.5.44.6-.14,1.16-.67,1.74-1.6,2.22-3.66,3.75-6.88,3.99-10.74.04-.68.33-1.46.71-1.95.65-.83,1.38-1.59,2.1-2.33.29-.3.58-.6.86-.9.02-.02.04-.03.07-.06.06-.03.13-.08.18-.16.26-.37.53-.72.79-1.07.63-.84,1.28-1.7,1.79-2.65.78-1.46.41-2.85-1-3.81Z" style="fill: #95b374; stroke-width: 0px;"/>
                  </g>
                  <path d="M165.48,221.9c-7.66-40.59-72.72-15.48-49.54-99.35,3.34-12.1,7.52-23.46,14.18-33.23-20.98,12.95-36.84,34.12-42.38,60.13-10.75,50.52,21.49,100.2,72.01,110.95,38.25,8.14,76-8.37,96.76-38.79-19.76,12.19-86.4,24.9-91.04.28Z" style="fill: #95b374; mix-blend-mode: multiply; opacity: .2; stroke-width: 0px;"/>
                </g>
                <g>
                  <g>
                    <g>
                      <path d="M199.14,185.11c-3.24-2.65-6.68-5.09-10.26-7.31-2.31-1.43-4.72-2.8-6.52-4.78-1.79-1.99-2.91-5.01-2.91-5.01,2.4-.58,4.31,1.33,5.66,3.36-2.59-2.77-4.37-6.22-5.1-9.85.97-.58,2.13.39,2.81,1.27,1.47,1.88,2.93,3.77,4.4,5.65-.79-1.74-1.58-3.48-2.37-5.22-.34-.74-.43-1.94.42-2.03.48-.06.86.36,1.15.73,1.56,2.02,3.12,4.04,4.69,6.06,1.75,2.26,7.88,4.57,13.01,1.63.35-.2.59-.6,1-.69.84-.18,1.56.73,1.52,1.55-.05.82-.57,1.53-.99,2.24-2.07,3.53-1.69,8.21.92,11.39-2.29,1.13-5.48,2.6-7.42,1.02" style="fill: #bb535d; stroke-width: 0px;"/>
                      <path d="M193.49,182.06c1.76,11.36-2.73,30.56,8.52,44.81,4.78,6.06,16.46,15.8,24.54,17.6,16.12,3.6,25.66-3.81,28.7-5.8,8.38-5.49,7.6-24.72,2.65-32.9-5.07-8.39-24.69,9.46-31.39,7.86-6.29-1.5-9.39-7.68-11.64-13.15-2.48-6.01-7.24-19.94-9.89-21.04-.9-.37-6.25,1.73-11.49,2.63" style="fill: #fff; stroke-width: 0px;"/>
                      <path d="M257.9,205.76c-2.78-4.6-9.94-1.3-16.95,2.35-1.44,2.14-2.7,4.41-3.9,6.72-2.05,3.96-3.86,8.04-5.84,12.04-.82,1.66-1.8,3.2-3.22,4.39-1.33,1.12-3.07,1.92-4.77,1.37-2.67-.86-3.78-3.61-5.3-5.75-.82-1.15-1.76-2-3.11-2.42-.95-.3-1.94-.26-2.92-.23-.89.03-1.8.04-2.68-.07-1.78-.21-3.45-.97-4.88-2.05-1.43-1.08-2.7-2.5-3.76-3.96-1.11-1.55-1.94-3.32-2.53-5.15-.31-.95-.51-1.92-.8-2.87-.3-1.01-.57-2.02-.79-3.04-.38-1.74-.65-3.5-.83-5.27-.03-.18-.06-.36-.09-.53-.12-.79-.18-1.57-.21-2.37-.05-1.52-.01-3.06.03-4.58.05-1.6.17-3.19.36-4.77.19-1.59.43-3.16.72-4.73.23-1.23.35-2.46.84-3.59-1.23.31-2.51.61-3.79.83,1.76,11.36-2.73,30.56,8.52,44.81,4.78,6.06,16.46,15.8,24.54,17.6,16.12,3.6,25.66-3.81,28.7-5.8,8.38-5.49,7.6-24.72,2.65-32.9" style="fill: #bac9e7; stroke-width: 0px;"/>
                      <path d="M194.87,185.78c3.52.25,8.88-.7,11.86-2.47" style="fill: none; stroke: #2e4369; stroke-miterlimit: 10; stroke-width: .63px;"/>
                      <g>
                        <path d="M222.58,213.83c-1.3,1.35-2.25,3-2.73,4.78" style="fill: none; stroke: #2e4369; stroke-miterlimit: 10; stroke-width: .32px;"/>
                        <path d="M224.03,214.47c-1.03,2.25-1.25,4.82-.63,7.21" style="fill: none; stroke: #2e4369; stroke-miterlimit: 10; stroke-width: .32px;"/>
                        <path d="M225.81,215.05c-.43,1.45-.25,3.06.51,4.39" style="fill: none; stroke: #2e4369; stroke-miterlimit: 10; stroke-width: .32px;"/>
                      </g>
                    </g>
                    <path d="M274.65,168.54c.71-2.34,1.72-5.01,4.01-5.79,2.58-.88,5.17,1.18,6.85,3.32,2.94,3.77,4.9,8.33,5.65,13.1.56,3.53.48,7.27,2.02,10.48,2.38,4.96,7.88,7.33,12.83,9.6,4.95,2.27,10.28,5.45,11.49,10.84,1.02,4.5-1.19,9.3-.18,13.8,1.81,8.05,12.29,10.5,16.44,17.58,2.33,3.99,2.27,9.32-.15,13.31-2.56,4.21-7.19,6.56-11.61,8.62-4,1.86-10.13,3.88-14.5,4.33-12.24,1.25-42.61-8.57-41.56-43.53.68-22.47,6.92-49.83,8.7-55.65" style="fill: #232743; stroke-width: 0px;"/>
                    <g>
                      <path d="M287.52,293.3c-.3-5.54-.06-11.13.84-16.61.91-5.56,2.62-10.81,4.72-16.02,4.19-10.37,9.82-21.13,9.1-32.68-.39-6.22-2.88-12.11-6.77-16.79-1.7-1.16-3.51-2.2-5.37-3.11-6.24-3.06-13.09-4.88-18.02-6.79-8.96-1.73-18.4.38-25.14,5.19-2.11,1.5-3.96,3.26-5.53,5.2-4.39,7.44-5.32,16.61-4.55,25.12.23,2.51.56,5.02.93,7.51.39,2.63.8,5.29.62,7.96-.38,5.52-2.07,10.88-3.53,16.18-3,10.86-5.38,21.94-6.5,33.17-.56,5.63-.77,11.3-.66,16.95,19.58,6.18,40.35,8.96,60.61,8.06,2.37-.11,3.07.69,4.93-.36-4.15-10.15-5.1-21.92-5.69-32.97" style="fill: #fff; stroke-width: 0px;"/>
                      <path d="M287.52,293.3c-.3-5.54-.06-11.13.84-16.61.91-5.56,2.62-10.81,4.72-16.02,4.19-10.37,9.82-21.13,9.1-32.68-.39-6.22-2.88-12.11-6.77-16.79-1.7-1.16-3.51-2.2-5.37-3.11-6.24-3.06-13.09-4.88-18.02-6.79-6.17-1.19-12.57-.56-18.15,1.52.06.01.13.04.19.04,18.35.65,25.45,4.93,25.2,13.14-.04,1.54.1,3.07.05,4.59-.06,1.87.07,3.72.32,5.58.55,4.06,1.56,8.05,1.73,12.16.16,3.88-.61,7.65-2.27,11.14-1.55,3.27-3.77,6.51-6.46,8.9-.26.24-.73.58-.83.94-.11.36.13.64.36.9.52.55,1.22.92,1.88,1.25.67.33,1.39.53,2.05.91.63.36,1.2.8,1.73,1.31,2.16,2.08,3.38,5.16,3.49,8.2.27,7.49-5.22,13.95-10.37,18.61-5.34,4.83-11.51,8.57-16.76,13.49-5.42,5.08-9.28,11.56-11.89,18.56,15.13,3.39,30.7,4.8,45.98,4.12,2.37-.11,3.07.69,4.93-.36-4.15-10.15-5.1-21.92-5.69-32.97" style="fill: #bac9e7; stroke-width: 0px;"/>
                      <path d="M241.83,243.23c-.76,3.9.16,8.09,2.46,11.24.82,1.12,1.8,2.1,2.58,3.24,1.32,1.92,2.02,4.2,2.71,6.45" style="fill: none; stroke: #2e4369; stroke-miterlimit: 10; stroke-width: .32px;"/>
                      <path d="M242.09,260.87c2.4,2.33,4.81,4.66,7.33,6.85" style="fill: none; stroke: #2e4369; stroke-miterlimit: 10; stroke-width: .32px;"/>
                      <path d="M271.52,228.9c-.33,2.71.35,5.54,1.86,7.78,1.84,2.72,4.86,4.62,5.93,7.75" style="fill: none; stroke: #2e4369; stroke-miterlimit: 10; stroke-width: .32px;"/>
                    </g>
                    <g>
                      <path d="M291.77,296.78c-1.98,1.22-4.07,2.39-5.53,4.22-3.86,4.81-2.38,9.65-1.74,9.81,1.24.3,1.48-4.61,2.75-4.68-.3,4.95-.23,9.89,1.21,14.62.31,1.01,1.36,3.07,2.49,2.42.9-.52-.47-7.58-.97-11.15.19,2.04.49,4.07.9,6.08.4,1.99,1.54,6.43,2.96,5,.33-.34.22-6.41-.98-9.68.7,2.42.72,2.89,1.25,4.71.53,1.82,2.35,5.82,3.35,4.21.75-1.19-1.41-6.69-2.5-9.92.84,1.74,1.68,3.48,2.52,5.22.26.54.72,1.17,1.29.98.58-.2.56-1.05.39-1.66-.79-2.85-2.22-5.51-2.66-8.44-.44-2.93.48-6.42,3.11-7.66-1.79-1.87-3.27-4.05-4.36-6.43-1.37.71-2.57,1.78-3.48,2.35" style="fill: #bb535d; stroke-width: 0px;"/>
                      <path d="M288.74,248.55c5.32,12.85,12.63,19.66,20.17,28.56-3.91,3.78-7.83,7.57-11.74,11.35-3.46,3.35-6.94,7.26-6.94,7.26l6.55,12.12s12.35-4.16,26.86-17.77c3.72-3.49,7.49-7.45,8.41-12.53.73-4.04-.49-8.15-1.86-11.99-5.91-16.53-15.16-30.85-25.31-48.34-8.27-14.25-31.89-6.76-16.14,31.33" style="fill: #fff; stroke-width: 0px;"/>
                      <path d="M330.18,265.56c-5.91-16.53-15.16-30.85-25.31-48.34-2.55-4.4-6.57-6.72-10.44-6.72.36.28.72.56,1.07.86,6.55,5.48,10.86,13.24,13.67,21.35.71,2.06,1.34,4.15,1.89,6.27.28,1.06.53,2.12.77,3.19.25,1.14.41,2.28.6,3.43.4,2.44,1.11,4.86,2.37,6.98,1.11,1.88,2.63,3.48,4.12,5.05,2.85,3.01,5.44,6.23,6.63,10.33,1.14,3.92,1.07,8.19-.13,12.11-1.34,4.34-4.14,7.79-7.55,10.61-1.89,1.56-3.93,2.92-5.9,4.38-2.11,1.57-4.31,3.01-6.5,4.45-1.97,1.3-4.04,2.55-5.76,4.19-.73.7-1.39,1.52-1.74,2.49-.16.44-.24.87-.25,1.31,3.13-1.24,13.77-6.01,25.93-17.42,3.72-3.49,7.49-7.45,8.41-12.53.73-4.04-.49-8.15-1.86-12" style="fill: #bac9e7; stroke-width: 0px;"/>
                      <path d="M310.73,275.82c2.56.57,5.37-.21,7.32-2.03" style="fill: none; stroke: #2e4369; stroke-miterlimit: 10; stroke-width: .32px;"/>
                      <path d="M310.02,277.58c.99,2.35,3.26,4.06,5.74,4.33" style="fill: none; stroke: #2e4369; stroke-miterlimit: 10; stroke-width: .32px;"/>
                      <path d="M311.15,277.07c1.05.88,2.46,1.22,3.82,1.16,1.36-.06,2.67-.5,3.92-1.06.05-.02.1-.06.1-.1,0-.06-.11-.03-.07.01" style="fill: none; stroke: #2e4369; stroke-miterlimit: 10; stroke-width: .32px;"/>
                      <path d="M294.01,294.31c1.5,4.08,3.84,7.83,6.81,10.94" style="fill: none; stroke: #2e4369; stroke-miterlimit: 10; stroke-width: .63px;"/>
                    </g>
                    <path d="M254.75,202.1c-1.75,6.22-.63,12.13,1.6,18.15,8.53-6.34,4-7.45,13.37,3.57,5.34-5.92,10.94-10,16.28-15.92-5.17,4.32-17.12-11.64-32.17-4.86" style="fill: #bac9e7; stroke-width: 0px;"/>
                    <g>
                      <g>
                        <path d="M261.14,168.88c-2.75,3.25-4.76,7.14-5.83,11.29-.97,3.73-1.15,7.79.23,11.37,1.38,3.58,4.55,6.58,8.31,7.02,5.14.6,9.69-3.47,12.67-7.79,1.54-2.23,2.18-3.77,2.71-6.44.98-4.9-.42-11.18-4.44-14.03-4.02-2.85-10.89-4.68-13.65-1.41" style="fill: #bb535d; stroke-width: 0px;"/>
                        <path d="M262.39,186.91c-.12,7.39-1.41,18.25-1.99,22.07-.07.46-.14.97.12,1.35.17.25.46.39.74.52,4.07,1.81,8.8,2.04,13.03.65.27-.09.55-.19.71-.42.18-.24.18-.57.18-.88-.1-7.74,1.91-16.27,1.8-24.01-4.05.34-10.24,1.1-14.6.72" style="fill: #bb535d; stroke-width: 0px;"/>
                        <path d="M275.4,185.99c-.35.77-.64,1.62-.37,2.43.56,1.67,3.31,2.26,5.06,1.44,1.75-.83,2.61-2.55,3.03-4.22.19-.79.27-1.71-.39-2.31-.33-.3-.8-.46-1.26-.58-1.29-.32-5.38,1.78-6.06,3.25" style="fill: #bb535d; stroke-width: 0px;"/>
                        <path d="M271.5,170.08c-2.29-.17-4.65.59-6.43,2.08-1.98,1.66-3.18,4.09-4.91,6.02-1.73,1.94-4.48,3.41-6.81,2.33-2.07-.97-2.73-3.63-2.48-5.94,1.35-12.89,12.37-14.6,16.34-14.81,4.65-.25,11.73,1.24,16.41,7.3,2.86,3.71-2.24,10.51-3.68,15.03-.63-2.64-1.28-5.32-2.72-7.6-1.45-2.27-3.86-4.09-5.71-4.4" style="fill: #232743; stroke-width: 0px;"/>
                        <path d="M270.93,179.07c-.8-.18-1.63-.24-2.45-.17-.22.02-.45.05-.6.19-.16.14-.19.43-.01.55.13.09.3.07.46.04,1.37-.2,2.83.09,4.03.8.18.11.36.22.57.23.21,0,.43-.15.39-.35-.02-.12-.12-.2-.22-.27-.73-.55-1.6-.9-2.16-1.03" style="fill: #232743; stroke-width: 0px;"/>
                        <path d="M269.67,181.49c.06-.53.51-.92,1.01-.86s.87.52.81,1.05-.51.92-1.01.86-.87-.53-.81-1.05" style="fill: #232743; stroke-width: 0px;"/>
                        <path d="M260.58,177.47c-.83,0-1.65.13-2.42.37-.21.07-.42.15-.55.31-.12.17-.09.44.11.52.15.06.31,0,.46-.06,1.29-.49,2.77-.53,4.1-.12.2.06.4.13.6.09.2-.04.38-.24.3-.41-.05-.1-.17-.16-.28-.21-.83-.36-1.76-.5-2.33-.5" style="fill: #232743; stroke-width: 0px;"/>
                        <path d="M259.84,179.93c-.07-.51.29-.97.8-1.03.5-.06.96.31,1.03.81.06.51-.29.97-.8,1.03-.5.06-.96-.3-1.02-.81" style="fill: #232743; stroke-width: 0px;"/>
                        <path d="M264.39,179.82c-.89,2.12-2.28,4.01-4.02,5.47-.24.2-.52.44-.51.76,0,.16.07.3.15.43.47.78,1.43,1.23,2.32,1.07" style="fill: none; stroke: #232743; stroke-miterlimit: 10; stroke-width: .32px;"/>
                        <path d="M258.32,188.42c2.28,1.84,5.56,2.29,8.25,1.13-.8,1.84-2.77,3.14-4.71,2.89-1.94-.24-3.59-2.16-3.54-4.03" style="fill: #fff; stroke-width: 0px;"/>
                        <path d="M276.29,189.51c.12-1.15,1.12-1.98,2.23-1.86,1.11.12,1.92,1.14,1.8,2.29-.12,1.15-1.12,1.98-2.23,1.86-1.11-.12-1.92-1.14-1.8-2.29" style="fill: #fff; stroke-width: 0px;"/>
                      </g>
                      <g>
                        <g>
                          <path d="M261.53,211.85c-1.52.95-1.27,1.39-1.73,3.07-.46,1.67,0,3.63,1.37,4.79,1.38,1.16,3.7,1.28,5.01.08.49-.45.82-1.04,1.05-1.64.61-1.59.6-3.45-.31-4.92-.91-1.47-3.8-2.38-4.71-1.81l-.69.43Z" style="fill: #32436b; stroke-width: 0px;"/>
                          <path d="M262.12,216c-1.45,7.49-3.59,14.86-6.4,21.98-.76,1.92-1.58,3.86-1.83,5.9-.6,4.84,1.34,24.12,3.84,28.42,2.29-2.84,9.25-25.31,9.63-26.61.37-1.28.22-2.65.07-3.98-.89-7.72-1.78-15.44-2.67-23.17-.1-.83-.24-1.75-.91-2.31-.67-.56-2.02-.31-1.72-.24" style="fill: #32436b; stroke-width: 0px;"/>
                        </g>
                        <g>
                          <path d="M254.75,202.1c-.46,2.57.76,5.41.78,8.02.01,2.61.49,5.26,1.74,7.52,1.83-2.61,4.3-4.74,7.1-6.17-1.8-.72-3.19-2.55-3.39-4.53-.13-1.32.25-4.52.5-6.88-.09.79-1.99.49-3.41.79-1.86.39-3.32,1.24-3.32,1.24Z" style="fill: #fff; stroke-width: 0px;"/>
                          <path d="M271.05,208.53c-2.51,1.01-4.88,2.25-7.49,2.89,3.36,1.46,4.04,6.38,7.22,8.23.71-1.75,1.89-3.31,3.38-4.45.99-.76,2.11-1.34,3.06-2.16,2.5-2.15,3.46-5.61,4.27-8.85-2.04-.45-3.94-2.29-5.73-3.1,0,0-.99,5.94-4.7,7.43Z" style="fill: #fff; stroke-width: 0px;"/>
                        </g>
                      </g>
                    </g>
                    <path d="M261.51,197.93c4.03,1.47,9.03-1.29,10.69-5.11-1.51,3.47-2,3.98-4.04,5.8-1.75,1.57-4.53,2.89-6.81,2.72.02-.89.15-3.41.15-3.41Z" style="fill: #9e4350; stroke-width: 0px;"/>
                    <path d="M242.6,222.26c-1.27,3.46-1.31,7.38-.13,10.86.55,1.62,1.45,3.23,2.93,3.99,2.24,1.14,5.08-.08,6.64-2.1,1.56-2.02,2.16-4.63,2.7-7.14.32-1.48.65-2.97.97-4.45-4.47-.14-8.92-.71-13.12-1.15" style="fill: #bac9e7; stroke-width: 0px;"/>
                    <path d="M232.98,275.49s-9.88,25.31-11.61,32.74-.99,9.42-.99,9.42c0,0,23.26,10.44,43.76,11.25,19.42.76,30.74-1.86,30.74-1.86l-7.11-45.81s-18.79,1.52-29.98.35c-13.33-1.4-24.81-6.09-24.81-6.09Z" style="fill: #232743; stroke-width: 0px;"/>
                    <path d="M264.22,277.97c1.37-1.52,2.24-2.84,3.97-4.15,2.02-1.52,3.02-3.62,4.22-5.79" style="fill: none; stroke: #2e4369; stroke-miterlimit: 10; stroke-width: .32px;"/>
                    <g>
                      <g>
                        <path d="M201.1,128.58c1.09-11,11.33-8.63,11.33-8.63-5,14.13-11.33,8.63-11.33,8.63ZM199.08,128.59c-.14-10.99-10.59-8.55-10.59-8.55,3.79,14.1,10.59,8.55,10.59,8.55ZM199.24,144.95c.29-1.81.53-3.58.74-5.27,2.85,1.2,9.38,2.12,14.78-10.58,0,0-9.62-2.24-14.11,3.89.42-5.26.47-9.11.45-10.16,1.01-.87,2.7-2.85,2.96-6.57.38-5.39-2.53-7.65-2.53-7.65,0,0-2.34-2.49-1.25-5.12,0,0-8.78,12.91-.67,19.37.03.97-.17,6.53-1.07,13.89-2.09-10.63-16.03-8.66-16.03-8.66,5.08,14.83,13.38,12.39,15.68,11.37-.34,2.48-.76,5.1-1.27,7.79-3.54-10.18-20.18-9.33-20.18-9.33,5.45,15.53,15.25,15.1,19.16,14.21-.49,2.13-1.04,4.26-1.65,6.35,0,0,1.49.1,1.98.21.72-2.44,1.33-4.93,1.85-7.41,2.82,1.62,11.11,4.55,18.77-10.54,0,0-12.23-3.59-17.6,4.23Z" style="fill: #546f5b; stroke-width: 0px;"/>
                        <g style="clip-path: url(#clippath-2);">
                          <g>
                            <path d="M202.05,154c.4-.42.54-1.56.78-2.2.32-.88.64-1.83,1.12-2.65,1.06-1.8,2.49-3.29,4.11-4.54,2.81-2.17,5.74-3.6,9.29-3.73" style="fill: none; stroke: #598e5f; stroke-miterlimit: 10; stroke-width: .32px;"/>
                            <path d="M204.98,154.42c.87-3.17,3.55-5.73,5.96-7.82,1.4-1.22,2.83-2.42,4.46-3.39.93-.55,2.72-1.21,3.29-1.96" style="fill: none; stroke: #598e5f; stroke-miterlimit: 10; stroke-width: .32px;"/>
                            <path d="M180.99,136.55c1.18,2.48.76,9.28.01,11.37" style="fill: none; stroke: #598e5f; stroke-miterlimit: 10; stroke-width: .32px;"/>
                            <path d="M182.13,136.24c1.31,1.67,4.09,7.78,4.08,9.82-.02,3.35-.6,3.83-1.27,5.58" style="fill: none; stroke: #598e5f; stroke-miterlimit: 10; stroke-width: .32px;"/>
                            <path d="M184.47,137.18c.96,1.08,7.1,6.14,8.06,7.29.91,1.1,1.49,2.32,1.9,3.68.44,1.47,1.2,4.43.45,5.78" style="fill: none; stroke: #598e5f; stroke-miterlimit: 10; stroke-width: .32px;"/>
                            <path d="M203.12,140.53c.33-3.12,1.22-6.07,3.83-8.05,1.41-1.07,3.48-1.99,5.24-2.22,1.03-.13,3.03-.37,3.75.08" style="fill: none; stroke: #598e5f; stroke-miterlimit: 10; stroke-width: .32px;"/>
                            <path d="M204.16,140.56c.5-4.6,5.14-6.46,9.41-6.02" style="fill: none; stroke: #598e5f; stroke-miterlimit: 10; stroke-width: .32px;"/>
                            <path d="M182.33,127.62c.6.64,5.52,2.93,4.83,9.53" style="fill: none; stroke: #598e5f; stroke-miterlimit: 10; stroke-width: .32px;"/>
                            <path d="M187.45,127.7c5.05,2.22,5.03,12.63,4.97,12.51" style="fill: none; stroke: #598e5f; stroke-miterlimit: 10; stroke-width: .32px;"/>
                            <path d="M185.75,127.63c.58,1.29,1.87,2.43,2.62,3.67.68,1.14,1.17,2.36,1.56,3.64.37,1.22,1.23,3.33.64,4.49" style="fill: none; stroke: #598e5f; stroke-miterlimit: 10; stroke-width: .32px;"/>
                            <path d="M202.34,130.21c-.1-2.91,1.4-5.73,3.86-7.58,2.53-1.9,6.02-1.46,8.19-1.42" style="fill: none; stroke: #598e5f; stroke-miterlimit: 10; stroke-width: .32px;"/>
                            <path d="M206.25,129.21c-1.28-3.56,3.43-5.98,6.23-6.08" style="fill: none; stroke: #598e5f; stroke-miterlimit: 10; stroke-width: .32px;"/>
                            <path d="M200.89,104.1c-2.92,2.1-3,7.3-1.73,10.32.88,2.09,3.12,4.18,5.46,4.23" style="fill: none; stroke: #598e5f; stroke-miterlimit: 10; stroke-width: .32px;"/>
                            <path d="M201.44,105.41c-1.35,2.19-1.25,5.62-.29,7.96.56,1.38,2.67,2.84,4.13,2.26" style="fill: none; stroke: #598e5f; stroke-miterlimit: 10; stroke-width: .32px;"/>
                            <path d="M191.67,119.12c5.7,3.86,4.65,9.51,5.13,10.99" style="fill: none; stroke: #598e5f; stroke-miterlimit: 10; stroke-width: .32px;"/>
                            <path d="M189.96,119.05c1.15-.05,2.26,3.51,2.52,4.51.39,1.51,1.79,4.81,1.9,6.29" style="fill: none; stroke: #598e5f; stroke-miterlimit: 10; stroke-width: .32px;"/>
                            <path d="M194.5,119.3c4.36,4.2,3.62,10.29,2.69,11.01" style="fill: none; stroke: #598e5f; stroke-miterlimit: 10; stroke-width: .32px;"/>
                          </g>
                        </g>
                      </g>
                      <polygon points="185.59 154.22 188.22 171.85 200.75 173.16 206.1 156.37 185.59 154.22" style="fill: #32436b; stroke-width: 0px;"/>
                      <path d="M200.39,155.77c-.09,1.46-.27,2.92-.6,4.37-.61,2.68-1.95,5.46-4.33,6.99-1.2.77-2.35,1.12-3.78,1.21-1.18.08-2.8-.02-3.89.62l.43,2.88,12.53,1.31,5.36-16.79-5.71-.6Z" style="fill: #232743; stroke-width: 0px;"/>
                    </g>
                  </g>
                  <path d="M236.3,310.7c2.34-6.1,8.92-6.77,14.41-8.33,5.55-1.58,11.41-2.53,16.64-5.08,4.24-2.06,7.17-4.53,10.08-8.15,0-.17-.09-.23-.29-.18" style="fill: none; stroke: #2e4369; stroke-miterlimit: 10; stroke-width: .32px;"/>
                  <path d="M252.59,317.33c.63-1.72,1.06-3.28,2.43-4.7,2.09-2.18,5.26-3.19,8.02-4.2,8.75-3.2,13.28-7.64,12.6-8.2" style="fill: none; stroke: #2e4369; stroke-miterlimit: 10; stroke-width: .32px;"/>
                </g>
                <g>
                  <g>
                    <path d="M102.95,207.36c17.14,26.07,15.5,62.15,36.01,85.66l-10.57,8.25c-.78.61-1.68,1.25-2.65,1.1-.72-.11-1.3-.64-1.83-1.14-12.11-11.58-22-25.8-26.84-41.84-4.84-16.04-4.33-33.97,3.11-48.99.64-1.28,1.88-2.77,2.78-3.04" style="fill: #232743; stroke-width: 0px;"/>
                    <g>
                      <path d="M70.81,196.21c-11.53-.07-35.92,5.78-35.77,35.04.05,7.92,1.17,38.04-8.12,58.27-.84,1.83-1.78,3.87-1.25,5.8.38,1.39,1.45,2.41,2.55,3.23,4.2,3.18,9.33,4.61,14.36,5.94,18.8,4.96,38.46,9.23,57.63,4.91,1.02-.23,2.12-.54,2.76-1.43.59-.81.65-1.91.68-2.93.84-27.14,1.69-54.27,2.53-81.41.14-4.36.25-8.89-1.34-12.86-1.87-4.66-5.9-7.96-10.3-9.85-4.4-1.88-9.18-2.52-13.91-3.14-4.51-.59-9.03-1.18-9.81-1.58" style="fill: #32436b; stroke-width: 0px;"/>
                      <path d="M94.81,307.32c-3.78.43-7.66,1.08-11.47.68-3.07-.32-6.28-1.43-8.54-3.62-.53-.51-1-1.08-1.4-1.71-.44-.71-.95-1.33-1.31-2.1-.7-1.48-1.07-3.09-1.99-4.46-3.28-4.85-9.36-6.94-12.4-11.99-.37-.62-.75-1.3-.91-2.02-.18-.85-.28-1.71-.27-2.57.01-1.72.38-3.41,1-5.01,1.32-3.45,3.71-6.33,6.33-8.85,2.55-2.45,5.3-4.68,7.64-7.34,1.16-1.32,2.49-2.84,3.09-4.52.56-1.56.82-3.65-.21-5.06-.82-1.12-2.24-1.58-3.54-1.8-1.47-.25-2.98-.25-4.43,0-2.81.49-6.58.45-8.56-1.97-1.97-2.41-.84-6.1.5-8.52.8-1.45,1.65-2.89,2.52-4.3.94-1.51,1.95-2.97,3.07-4.35,2.17-2.68,4.75-5.1,7.75-6.8,3.25-1.84,6.76-2.88,10.31-3.94,1.74-.52,3.48-1.07,5.16-1.79,1.64-.71,3.18-1.74,4.57-2.87,2.14-1.75,4.01-4.07,4.57-6.77,0,0,0,0,0,0,0-.24.03-.48.05-.72,0-.05,0-.1,0-.15-.01-.33-.03-.67-.03-1.01-.01-.5,0-1,0-1.51-.02-.19-.06-.38-.09-.56-.53-.26-1.09-.51-1.68-.76-4.4-1.88-9.18-2.52-13.91-3.14-4.51-.59-9.03-1.18-9.81-1.58-11.53-.07-35.92,5.78-35.76,35.04.04,7.92,1.16,38.04-8.12,58.27-.84,1.83-1.78,3.87-1.25,5.8.38,1.39,1.45,2.41,2.55,3.23,4.2,3.18,9.33,4.61,14.36,5.93,18.8,4.96,38.46,9.23,57.63,4.91,1.02-.23,2.12-.54,2.76-1.43.19-.26.32-.55.41-.85-.93-.1-1.87-.17-2.81-.19-1.93-.05-3.84.15-5.76.37" style="fill: #232743; stroke-width: 0px;"/>
                      <g>
                        <path d="M69.41,239.75c1.04-2.87,3.85-4.72,6.7-5.74,2.86-1.02,5.9-1.41,8.73-2.5,4.85-1.87,8.87-5.85,10.81-10.72" style="fill: none; stroke: #232743; stroke-miterlimit: 10; stroke-width: .32px;"/>
                        <path d="M62.67,279.78c.22-3.09,2.35-5.75,4.83-7.58,2.48-1.83,5.35-3.03,7.99-4.63,6.03-3.64,10.64-9.21,15.13-14.67" style="fill: none; stroke: #232743; stroke-miterlimit: 10; stroke-width: .32px;"/>
                        <path d="M81.3,243.12c4.55-3.52,8.75-7.5,12.51-11.88" style="fill: none; stroke: #232743; stroke-miterlimit: 10; stroke-width: .32px;"/>
                      </g>
                    </g>
                  </g>
                  <g>
                    <path d="M87.56,155.51c-3.75-1.35-7.32-2.6-11.63.56-6.06,4.44-7.55,10.35-6.88,17.46.14,1.45-.48,2.95-1.39,4.08-.93,1.15-2.42,1.66-3.66,2.47-1.56,1.02-2.84,2.83-2.45,4.67.16.79.62,1.52.59,2.33-.03.88-.64,1.64-.84,2.5-.17.76,0,1.56.28,2.28.8,2.08,2.56,3.77,4.68,4.46,1.05.35,2.16.46,3.23.72,2.91.72,5.72,2.57,8.65,1.98,2.47-.5,4.31-2.68,5.25-5.03.94-2.35,1.18-4.91,1.71-7.38.53-2.47,1.44-5.01,3.35-6.66.67-.58,1.44-1.03,2.08-1.65,1.25-1.23,1.82-3.05,1.81-4.81-.01-1.76-.55-3.48-1.26-5.1-1.27-2.89-.4-11.77-3.5-12.89" style="fill: #bb535d; stroke-width: 0px;"/>
                    <path d="M70.48,200.25c.85.86,1.78,1.64,2.78,2.31,2.44,1.62,5.32,2.61,8.24,2.88,2.01.18,4.04-.05,5.99-.57.84-8.79,2.2-17.51,4.08-26.11-4.97-2.14-9.72-4.68-14.72-7.7-.11,10.15-.44,20.93-6.37,29.19" style="fill: #ffb299; stroke-width: 0px;"/>
                    <path d="M79.54,183.89c.2,5.85,8.73,11.65,9.55,8.13.97-4.19-7.03-4.44-9.55-8.13" style="fill: #ff7478; stroke-width: 0px;"/>
                    <g>
                      <path d="M85.19,162.91c-2.92,1.13-6.35,6.1-7.23,9.01-2.07,6.82-1.14,9.92,3.45,15.53,1.43,1.75,3.19,3.33,5.35,4.1,3.81,1.35,8.27-.17,10.98-3.06,2.71-2.89,3.86-6.89,4.01-10.79.15-4.2-.83-8.56-3.42-11.96-2.58-3.41-6.91-5.71-11.25-5.33-1.55.13-1.26,2.27-1.88,2.51" style="fill: #ffb299; stroke-width: 0px;"/>
                      <path d="M79.93,173.78c-1.62-1.02-2.18-3.19-4.14-3.58-1.85-.38-3.34,1.22-3.74,2.73-.67,2.49.2,5.29,2.28,7.3.29.28.61.55,1.02.67.71.21,1.47-.07,2.05-.43,2.5-1.53,3.39-4.6,2.53-6.69" style="fill: #ffb299; stroke-width: 0px;"/>
                      <g>
                        <path d="M84.33,173.55c.8-.54,1.33-1.11,2.65-1.22,1-.09,2.22.04,3.09.55.13-.43-.03-.96-.6-1.1-1.99-.48-4.35.24-5.15,1.76" style="fill: #232743; stroke-width: 0px;"/>
                        <path d="M86.32,173.86c.11-.44.55-.71.99-.6.45.11.72.55.61.99-.11.44-.55.71-.99.61-.44-.11-.71-.55-.61-.99" style="fill: #232743; stroke-width: 0px;"/>
                        <path d="M95.26,174.8c.11-.44.55-.71.99-.6.44.11.71.55.61.99-.1.44-.55.71-.99.61-.44-.11-.71-.55-.61-.99" style="fill: #232743; stroke-width: 0px;"/>
                        <path d="M94.83,172.68c-.08.25-.05.54.08.76.69-.27,1.46-.26,2.18-.1.72.15,1.4.44,2.08.73-.75-.55-1.56-1.01-2.42-1.35-.62-.25-1.38-.43-1.92-.04" style="fill: #232743; stroke-width: 0px;"/>
                        <path d="M93.09,173.96c-.04,1.13.32,2.27,1.01,3.17.37.49.85.92,1.04,1.51.3.92-.32,2.03-1.26,2.25-.78.18-1.58-.18-2.38-.27" style="fill: none; stroke: #bb535d; stroke-miterlimit: 10; stroke-width: .32px;"/>
                        <path d="M88.48,182.4c.88,1,2.01,1.82,3.3,2.13,1.29.31,2.76.05,3.73-.86" style="fill: none; stroke: #bb535d; stroke-miterlimit: 10; stroke-width: .63px;"/>
                        <path d="M83.28,177.95c.25-1.06,1.35-1.7,2.46-1.43,1.11.27,1.8,1.35,1.55,2.4-.25,1.06-1.36,1.7-2.46,1.43-1.11-.27-1.8-1.35-1.55-2.41" style="fill: #ff7478; stroke-width: 0px;"/>
                        <path d="M97.23,179.31c.2-.84,1.08-1.34,1.96-1.13.88.22,1.44,1.07,1.24,1.91-.2.84-1.08,1.34-1.96,1.13-.88-.22-1.44-1.07-1.24-1.91" style="fill: #ff7478; stroke-width: 0px;"/>
                      </g>
                      <g>
                        <path d="M79.21,163.24c1.06,1,2.54,1.54,3.99,1.28,1.45-.26,2.77-.96,4.19-1.34,1.42-.38,3.1-.39,4.21.58,1.2,1.04,1.37,2.88,2.57,3.92,1.34,1.16,3.55.98,4.77,2.26,1.55,1.63.44,4.45,1.7,6.3.88,1.29,2.7,1.7,4.25,1.46,2.86-.44,5.21-2.71,5.98-5.42.76-2.71.04-5.73-1.63-8.07-1.67-2.34-4.21-4.02-6.96-4.98-.77-.27-1.57-.49-2.3-.86-1.79-.91-3-2.64-4.69-3.7-2.72-1.7-6.34-1.43-9.18-.04-2.84,1.39-9.31,6.32-6.9,8.6" style="fill: #bb535d; stroke-width: 0px;"/>
                        <path d="M79.73,162.05c-1.35,1.35-2.43,3-2.95,4.84-.52,1.84-.44,3.88.39,5.59.39.81.96,1.6.96,2.51,0,1.16-.95,2.15-1.01,3.31-.05.99.64,1.97,1.58,2.24-.88-1.09-.28-2.75.58-3.86.86-1.11,2-2.14,2.19-3.54.23-1.68-1-3.4-.44-5,.24-.68.78-1.23,1-1.92.25-.81,0-1.72-.47-2.42-.47-.71-1.13-1.25-1.83-1.75" style="fill: #bb535d; stroke-width: 0px;"/>
                      </g>
                    </g>
                  </g>
                  <g>
                    <path d="M73.61,194.59c-3.4.26-4.92,1.27-9.75,2.1,2.36,1.46,4.1,7.89,5.64,10.21,1.54,2.32,3.87,4.57,6.63,4.34,1.04-2.85,3.08-4.48,5.84-5.7-3.61-1.55-5.88-3.34-8.1-6.61-.54-.8-.79-2.62-.26-4.34" style="fill: #fff; stroke-width: 0px;"/>
                    <path d="M88.29,198.24c-.7,4.52-1.43,5.55-3.7,6.59-.72.33-1.99.32-2.62.71-.18.11-.2-.07,0,0,2.4.84,5.19,2.58,7.36,3.93.72-3.24,2.26-6.43,4.61-8.74-2.32-1.34-3.87-1.85-5.65-2.5" style="fill: #fff; stroke-width: 0px;"/>
                  </g>
                  <g>
                    <g>
                      <path d="M20.52,274.21l31.05-27.23c1.58-1.39,3.98-1.22,5.34.37l18.12,21.06c1.37,1.59,1.2,4.01-.38,5.39l-31.05,27.23c-1.58,1.39-3.97,1.22-5.34-.37l-18.12-21.06c-1.37-1.59-1.2-4.01.39-5.39" style="fill: #448e61; stroke-width: 0px;"/>
                      <polygon points="20.3 277.3 54.04 247.72 74.27 271.24 40.53 300.82 20.3 277.3" style="fill: #fff; stroke-width: 0px;"/>
                      <polygon points="55.78 255.85 59.71 252.4 70.47 264.91 66.53 268.35 55.78 255.85" style="fill: #bddbbb; stroke-width: 0px;"/>
                      <g>
                        <polygon points="49.41 254.28 49.77 253.96 67.81 274.94 67.46 275.26 49.41 254.28" style="fill: #bac9e7; stroke-width: 0px;"/>
                        <polygon points="48.07 255.45 48.43 255.14 66.47 276.12 66.11 276.43 48.07 255.45" style="fill: #bac9e7; stroke-width: 0px;"/>
                        <polygon points="46.8 256.57 47.16 256.26 65.2 277.23 64.84 277.55 46.8 256.57" style="fill: #bac9e7; stroke-width: 0px;"/>
                        <polygon points="42.13 260.66 42.48 260.35 60.53 281.33 60.17 281.64 42.13 260.66" style="fill: #bac9e7; stroke-width: 0px;"/>
                        <polygon points="40.79 261.84 41.14 261.53 59.19 282.5 58.83 282.82 40.79 261.84" style="fill: #bac9e7; stroke-width: 0px;"/>
                        <polygon points="39.52 262.95 39.88 262.64 57.92 283.62 57.56 283.93 39.52 262.95" style="fill: #bac9e7; stroke-width: 0px;"/>
                        <polygon points="37.9 264.09 38.26 263.78 56.31 284.75 55.95 285.07 37.9 264.09" style="fill: #bac9e7; stroke-width: 0px;"/>
                        <polygon points="36.56 265.27 36.92 264.95 54.97 285.93 54.61 286.25 36.56 265.27" style="fill: #bac9e7; stroke-width: 0px;"/>
                        <polygon points="35.29 266.38 35.65 266.07 53.7 287.05 53.34 287.36 35.29 266.38" style="fill: #bac9e7; stroke-width: 0px;"/>
                        <polygon points="28.33 272.77 29.85 271.43 47.08 291.46 45.56 292.8 28.33 272.77" style="fill: #bac9e7; stroke-width: 0px;"/>
                        <polygon points="33.14 268.54 34.4 267.44 38.62 272.35 37.37 273.45 33.14 268.54" style="fill: #bac9e7; stroke-width: 0px;"/>
                        <polygon points="38.91 291.25 40.35 289.98 43.97 294.19 42.52 295.45 38.91 291.25" style="fill: #bac9e7; stroke-width: 0px;"/>
                      </g>
                    </g>
                    <g>
                      <path d="M30.04,293.67c1.36,1.57,2.47,3.31,3.29,5.17.49,1.11,5.01,7.28,9.45,6.69q.65-.09,1.14-.69c.61-.74-.28-.92-.87-1.98.74,1.32,2.3,1.48,3.65.75,1.09-.59.97-2.02-.14-2.71,1.16.48,2.19.16,3.11-.62.72-.61.57-3.44.11-4.25-.46-.82-1.17.99-1.49.48-.1-.16-2.31-1.43.18-1.29.41.03.82-.06,1.23-.09,1.84-.11,5.81-2.71,4.71-3.86-1.85-1.94-10.41-.95-13.5-3.41-.38-.31-.78-.64-1.27-.74-.78-.16-1.51.33-2.13.79-2.57,1.91-5.14,3.83-7.46,5.75" style="fill: #ffb299; stroke-width: 0px;"/>
                      <g>
                        <path d="M51.58,201.28c-5.35-.73-9.68,3.97-13.78,7.52-9.51,8.22-18.56,16.98-27.09,26.22-4.26,4.61-8.58,9.75-9.36,15.99-.6,4.78.99,9.56,2.91,13.97,5.58,12.83,14.21,24.3,24.97,33.17,4.49-4.65,9.77-8.53,15.54-11.41-3.74-11.87-9.79-22.98-17.71-32.54,12.98-6.5,23.19-18.43,27.68-32.32,1.14-3.53,1.93-7.28,1.37-10.94-.56-3.67-2.68-7.25-3.96-8.63l-.56-1.04Z" style="fill: #32436b; stroke-width: 0px;"/>
                        <g>
                          <path d="M22.14,254.11c1.2.45,2.51.58,3.78.39" style="fill: none; stroke: #232743; stroke-miterlimit: 10; stroke-width: .32px;"/>
                          <path d="M23.3,251.3c.64,1.04,1.6,1.87,2.71,2.36" style="fill: none; stroke: #232743; stroke-miterlimit: 10; stroke-width: .32px;"/>
                          <path d="M24.18,247.99c.27,1.95,1.35,3.68,2.4,5.34" style="fill: none; stroke: #232743; stroke-miterlimit: 10; stroke-width: .32px;"/>
                        </g>
                        <g>
                          <path d="M27.02,295.74c3.74-5.6,10-8.87,16.1-11.63" style="fill: none; stroke: #232743; stroke-miterlimit: 10; stroke-width: .32px;"/>
                          <line x1="28.92" y1="294.31" x2="30.47" y2="296.21" style="fill: none; stroke: #232743; stroke-miterlimit: 10; stroke-width: .32px;"/>
                          <path d="M30.04,292.94c.63.73,1.24,1.49,1.81,2.26" style="fill: none; stroke: #232743; stroke-miterlimit: 10; stroke-width: .32px;"/>
                          <path d="M31.77,291.65c.64.69,1.24,1.4,1.82,2.14" style="fill: none; stroke: #232743; stroke-miterlimit: 10; stroke-width: .32px;"/>
                          <path d="M33.63,290.06c.68.68,1.03,1.71,1.87,2.18" style="fill: none; stroke: #232743; stroke-miterlimit: 10; stroke-width: .32px;"/>
                          <path d="M36,288.32c.51.71.98,1.45,1.39,2.22" style="fill: none; stroke: #232743; stroke-miterlimit: 10; stroke-width: .32px;"/>
                          <line x1="38.16" y1="287.12" x2="39.36" y2="289.47" style="fill: none; stroke: #232743; stroke-miterlimit: 10; stroke-width: .32px;"/>
                          <path d="M40.25,286.15c.34.68.68,1.35,1.01,2.03" style="fill: none; stroke: #232743; stroke-miterlimit: 10; stroke-width: .32px;"/>
                          <path d="M42.04,285.13c.32.67.68,1.34,1.07,1.98" style="fill: none; stroke: #232743; stroke-miterlimit: 10; stroke-width: .32px;"/>
                        </g>
                        <path d="M28.23,288.16c-4.22-2.28-7.42-5.31-9.28-9.78-.85-2.04-1.52-4.17-2.56-6.12-1.16-2.18-2.71-3.82-4.49-5.5-2.9-2.73-4.23-6.47-3.99-10.45.46-7.38,4.53-13.07,9.78-17.95,2.64-2.45,5.44-4.75,7.96-7.34,3.11-3.2,5.18-6.6,7.02-10.65,1.98-4.36,5.23-7.26,8.67-10.47,3.25-3.03,6.55-6.03,10.75-7.63l-.53-.99c-5.35-.73-9.68,3.97-13.78,7.52-9.51,8.22-18.56,16.98-27.09,26.22-4.26,4.61-8.58,9.75-9.36,15.99-.6,4.78.99,9.56,2.91,13.97,5.58,12.83,14.21,24.3,24.97,33.17,2.11-2.19,4.4-4.2,6.83-6.02-2.55-1.41-5.26-2.59-7.82-3.97Z" style="fill: #232743; stroke-width: 0px;"/>
                      </g>
                    </g>
                  </g>
                </g>
                <g>
                  <g>
                    <g>
                      <path d="M131.44,231.89c-7.49.55-14.92,2.05-22.03,4.46-3.52,1.19-7.08,2.68-9.63,5.37-2.78,2.94-4.05,6.98-5.09,10.89-4.44,16.72-6.34,34.1-5.64,51.38.06,1.58.24,3.34,1.44,4.37.8.69,1.89.89,2.93,1.07,28.45,4.87,57.05,9.76,85.91,9.92-5.55-19.34,1.52-39.77,3.2-59.82.22-2.65.33-5.38-.6-7.87-1.8-4.78-6.87-7.34-11.52-9.46-12.98-5.91-26.86-11.2-38.97-10.31" style="fill: #fff; stroke-width: 0px;"/>
                      <path d="M177.25,302.75c-.7-.49-1.44-.91-2.18-1.33-1.01-.57-2.08-1.03-3.18-1.41-2.2-.76-4.5-1.16-6.79-1.49-4.64-.66-9.32-1.08-13.72-2.82-12.27-4.86-13.5-9.85-21.48-28.37-.79-1.84-2.42-3.56-2.38-5.62.02-1.13.51-2.18,1.25-3.02.34-.39.72-.6,1.15-.86.45-.27.88-.59,1.33-.86,3.73-2.22,8.31-3.11,12.55-2.04,2.36.6,4.81,1.63,7.3,1.37,2.29-.24,4.33-1.94,5.89-3.51,1.73-1.74,3.19-3.87,4.45-5.97,1.26-2.09,2.3-4.32,3.1-6.62,0,0,0,0,0,0,.03-.18.08-.35.13-.52-11.26-4.79-22.88-8.54-33.23-7.78-7.49.55-14.92,2.05-22.03,4.46-3.52,1.19-7.08,2.68-9.63,5.38-2.78,2.94-4.05,6.98-5.09,10.89-4.44,16.72-6.35,34.1-5.64,51.37.07,1.58.24,3.34,1.44,4.37.8.69,1.89.89,2.93,1.07,28.44,4.87,57.05,9.76,85.91,9.92-1.57-5.46-2.13-11-2.09-16.6" style="fill: #bac9e7; stroke-width: 0px;"/>
                    </g>
                    <path d="M140.99,247.27c.99,15.62,1.98,31.24,2.97,46.86" style="fill: none; stroke: #2e4369; stroke-miterlimit: 10; stroke-width: .63px;"/>
                    <g>
                      <path d="M120.56,262.3c.31,2.63,1.97,4.94,3.84,6.87,1.87,1.93,4.02,3.62,5.67,5.73,2.18,2.78,3.41,6.14,4.6,9.44" style="fill: none; stroke: #2e4369; stroke-miterlimit: 10; stroke-width: .32px;"/>
                      <path d="M120.7,276.79c2.37,3.52,5.12,6.81,8.17,9.79" style="fill: none; stroke: #2e4369; stroke-miterlimit: 10; stroke-width: .32px;"/>
                      <path d="M150.29,275.87c1.38,5.63,5.89,9.99,10.4,13.77" style="fill: none; stroke: #2e4369; stroke-miterlimit: 10; stroke-width: .32px;"/>
                      <path d="M158.75,255.4c2.61,4.01,4.52,8.45,5.61,13.07.21.88.41,1.8,1,2.49" style="fill: none; stroke: #2e4369; stroke-miterlimit: 10; stroke-width: .32px;"/>
                    </g>
                  </g>
                  <g>
                    <path d="M180.15,248.3c-3.52,9.85-5.63,20.2-6.24,30.64-.13,2.28-.19,4.58.29,6.81.69,3.17,2.43,6.01,4.21,8.73,4.6,7.05,9.61,13.83,15.01,20.29.95,1.14,1.94,2.29,3.25,3.01,1.16.63,2.48.88,3.8,1,8.18.73,16.96-3.05,24.35.52-2.93-8.36-5.88-16.76-10.24-24.49-3.17-5.63-7.05-10.83-10.91-16.01-5.6-7.51-11.2-15.02-16.8-22.54-2.11-2.83-4.23-5.67-6.72-7.97" style="fill: #fff; stroke-width: 0px;"/>
                    <path d="M208.39,318.12c-2.17-2.28-3.4-5.25-4.58-8.1-.6-1.45-1.2-2.91-1.92-4.31-.66-1.28-1.45-2.63-2.52-3.62-1.22-1.13-2.85-1.91-4.31-2.67-1.48-.76-2.99-1.51-4.36-2.46-2.84-1.96-4.58-4.86-5.03-8.25-.45-3.43.23-6.88.64-10.28.24-2.03.56-4.04.7-6.08.15-2.14.22-4.29.15-6.43-.12-3.75-.61-7.49-1.41-11.15-1.75-2.32-3.54-4.57-5.59-6.46-3.52,9.85-5.63,20.2-6.24,30.64-.13,2.28-.19,4.58.29,6.81.69,3.17,2.43,6.01,4.21,8.73,4.6,7.05,9.61,13.83,15.01,20.29.95,1.14,1.94,2.29,3.25,3.01,1.16.63,2.48.88,3.8,1,2.72.25,5.51-.01,8.28-.33-.12-.12-.25-.22-.36-.34" style="fill: #bac9e7; stroke-width: 0px;"/>
                  </g>
                  <g>
                    <path d="M131.83,222.32c-.33,6.06-.67,12.13-1,18.19-.02.3-.03.6.1.89.17.36.55.65.92.91,2.3,1.67,5.38,2.06,7.81,3.96,1.95,1.54,4.09.16,6.03-.25,1.08-.23,2.17-.55,2.92-1.17,1.27-1.05,1.27-2.68,1.2-4.15-.28-5.79-.56-11.57-.84-17.36-5.53-.9-11.19-1.1-17.13-1.01" style="fill: #ff9c6e; stroke-width: 0px;"/>
                    <path d="M137.76,196.98c-2.82.11-5.29,2.1-6.64,4.53-1.35,2.43-1.76,5.24-2.01,8-.49,5.27-.43,10.84,2.17,15.5,2.59,4.65,8.4,7.95,13.49,6.2,1.97-.68,3.64-2.03,4.93-3.63,2.86-3.55,3.84-8.18,4.74-12.62.75-3.71,1.47-7.72-.19-11.14-1.43-2.95-4.46-4.92-7.66-5.83-3.2-.9-6.59-1.1-8.83-1.01" style="fill: #ff9c6e; stroke-width: 0px;"/>
                    <path d="M135.63,208.61c-1.21-.14-2.49.54-3.17,1.69,1.95-.7,4.09-.64,5.97.16.24-.24.17-.69-.05-.94-.22-.25-.54-.35-.84-.44-.77-.22-1.55-.45-1.92-.47" style="fill: #232743; stroke-width: 0px;"/>
                    <path d="M144.66,209.06c-.39.1-.77.24-1.13.41-.16.07-.33.18-.36.36-.05.34.4.45.71.42.64-.07,1.28-.13,1.92-.2.94-.09,1.93-.18,2.78.24.37.18.75.47,1.16.39,0-.48-.31-.91-.69-1.15-.38-.24-.83-.32-1.26-.4-1.15-.21-2.3-.28-3.12-.07" style="fill: #232743; stroke-width: 0px;"/>
                    <path d="M135.24,211.48c.05-.5.51-.87,1.03-.82s.89.51.84,1.01-.52.87-1.03.82-.89-.51-.84-1.01" style="fill: #232743; stroke-width: 0px;"/>
                    <path d="M145.06,212.49c.05-.5.54-.85,1.08-.79s.94.51.89,1c-.05.5-.54.85-1.08.8s-.95-.51-.89-1" style="fill: #232743; stroke-width: 0px;"/>
                    <path d="M140.84,210.33c-.13,1.71-.82,3.38-1.96,4.69-.52.6-1.15,1.17-1.37,1.93-.21.76.26,1.77,1.07,1.76" style="fill: none; stroke: #bb535d; stroke-miterlimit: 10; stroke-width: .32px;"/>
                    <path d="M134.93,220.36c2.43,2.05,6.19,2.39,8.95.82-.34,1.01-.9,1.98-1.73,2.67-.83.69-1.94,1.09-3.03.93-1.09-.16-2.03-.86-2.71-1.72-.67-.85-1.12-1.86-1.48-2.69" style="fill: #fff; stroke-width: 0px;"/>
                    <path d="M132.09,192.31c-8.97-1.3-12.17,4.17-10.65,10.78,1.3,5.67,7.75,6.39,10.31,4.31,1.39-1.12,3.52-3.49,4.9-4.61,3.12-2.52,6.81-3.7,9.7-1.47.79.61,1.47,1.41,2.35,1.86,1.42.72,3.2.47,4.53,1.37,1.97,1.34,1.74,6.47,1.45,8.94,4.66.49,5.08-5.08,5.48-8.97.31-2.98,1.1-4.88-1.26-8.51-.5-.76-.91-4.47-4.93-4.89-5.23-.55-4.49-3.47-10.73-3.78-7.85-.39-5.12,5.84-11.16,4.96" style="fill: #232743; stroke-width: 0px;"/>
                    <path d="M152.88,215.25c.45-1.27,1.14-2.47,2.04-3.56.45-.54,1.01-1.08,1.79-1.21.9-.14,1.85.35,2.32,1.03.48.67.57,1.48.52,2.25-.14,2.11-1.27,4.12-3.11,5.52-.77.58-1.88,1.07-2.84.67-1.23-.51-1.19-1.96-.95-3.07.21-.99.42-1.97.23-1.64" style="fill: #ff9c6e; stroke-width: 0px;"/>
                    <path d="M132.19,225.95c1.88,2.47,4.82,4.09,7.91,4.41,3.09.31,6.28-.67,8.69-2.64-2.07,2.65-5.55,4.12-8.88,3.75-3.34-.37-6.42-2.56-7.71-5.52" style="fill: #bb535d; stroke-width: 0px;"/>
                  </g>
                  <g>
                    <path d="M131.24,231.25c-2.2.64-6.32.27-8.52.91-.25.07-.51.15-.68.35-.23.27-.21.67-.18,1.03.38,3.8.76,7.63,1.84,11.29,1.08,3.66,2.92,7.2,5.79,9.71,3.1-3.6,7.3-6.24,11.88-7.49-5.7-4-10.51-8.75-10.14-15.82" style="fill: #fff; stroke-width: 0px;"/>
                    <path d="M141.54,247.06c5.56-2.7,8.01-8.83,7.73-15,4.84,1.31,6.76,2.77,11.22,5.3-3.56,5.97-4.84,11.05-9.58,16.13-.34.36-.78.76-1.26.63-.35-.09-.57-.42-.76-.72-1.79-2.75-4.5-4.88-7.35-6.32" style="fill: #fff; stroke-width: 0px;"/>
                  </g>
                  <g>
                    <g>
                      <path d="M150.43,299.04c13.24,3.56,28.08-3.85,40.74,1.15.89.35,1.82.82,2.24,1.6-3.47,3.46-8.78.58-12.47.95,2.54.08,3.17,3.2,2.1,4.44-.67.78-1.85,1.19-2.29,2.09-.22.44-.23.94-.31,1.41-.56,3.1-4.35,4.97-7.9,5.06-3.55.1-7-1.1-10.46-1.94-3.72-.9-7.57-1.38-11.4-1.43-.54,0-1.16-.04-1.48-.43-.19-.23-.23-.53-.25-.81-.36-4.24.21-8.52,1.49-12.1" style="fill: #ff9c6e; stroke-width: 0px;"/>
                      <g>
                        <path d="M155.56,299.64c.23.52.47,1.04.69,1.56" style="fill: none; stroke: #2e4369; stroke-miterlimit: 10; stroke-width: .63px;"/>
                        <path d="M154.74,299.87c-2.03,3.86-2.65,12.45-.34,12.93,0,0,2.66.35,2.67.08.08-4.4-.25-8.02,2.02-12.87-1.25-.01-3.34-.2-4.35-.14" style="fill: #32436b; stroke-width: 0px;"/>
                        <path d="M153.37,300.96c.16-1.54,1.63-2.65,3.28-2.48,1.65.17,2.86,1.56,2.7,3.1s-1.63,2.65-3.28,2.48-2.86-1.56-2.7-3.11" style="fill: #232743; stroke-width: 0px;"/>
                        <path d="M153.98,300.92c.13-1.27,1.31-2.18,2.63-2.04,1.32.14,2.29,1.28,2.15,2.54-.13,1.27-1.31,2.18-2.63,2.04-1.32-.14-2.28-1.27-2.15-2.54" style="fill: #fff; stroke-width: 0px;"/>
                        <path d="M157.18,299.74c-.26.6-.5,1.22-.86,1.77,0,0-.05-.05-.04-.04l-1.02-1.32" style="fill: none; stroke: #2e4369; stroke-linecap: round; stroke-miterlimit: 10; stroke-width: .32px;"/>
                        <path d="M155.1,299.92c.42.41.8.86,1.14,1.35l.1.08" style="fill: none; stroke: #2e4369; stroke-miterlimit: 10; stroke-width: .32px;"/>
                      </g>
                    </g>
                    <g>
                      <path d="M95.53,242.93c-23.89,17.39-17.51,52.17-12.12,60.9,1.87,3.02,5.84,4.91,9.24,5.95,25.23,7.68,36.34,6.5,53.5,4.89.64-.06,1.31.01,1.9-.25,2.11-.91,1.73-3.93,1.46-6.21-.46-3.89.53-7.93,2.72-11.17-12.02-4.58-25.51-4.29-37.42-9.16-.68-.28-1.38-.59-1.9-1.11-1.36-1.37-1.08-3.62-.72-5.52,1.45-7.63,2.53-15.49,1.15-23.14-1.38-7.64-1.45-16.24-8.33-19.85,0,0-6.18,2.26-9.49,4.67" style="fill: #fff; stroke-width: 0px;"/>
                      <path d="M141.04,294.96c-2.7,3.08-4.79,6.69-6.1,10.57-.17.49,4.23,2.6,7.1,2.83,2.04.17,4.27-.47,5.49-2.12" style="fill: none; stroke: #2e4369; stroke-miterlimit: 10; stroke-width: .63px;"/>
                      <path d="M135.44,308.56c-.74,1.78-.86,3.81-.34,5.67" style="fill: none; stroke: #2e4369; stroke-miterlimit: 10; stroke-width: .63px;"/>
                      <path d="M141.7,302.92c.07-.63.63-1.09,1.27-1.03s1.09.63,1.03,1.27-.63,1.09-1.27,1.03-1.09-.63-1.03-1.27" style="fill: #32436b; stroke-width: 0px;"/>
                      <path d="M110.02,286.46c-3.76-.23-7.57.64-10.7,2.47" style="fill: none; stroke: #2e4369; stroke-miterlimit: 10; stroke-width: .44px;"/>
                      <path d="M111.91,287.89c-3.2.95-6.05,2.78-8.08,5.18" style="fill: none; stroke: #2e4369; stroke-miterlimit: 10; stroke-width: .44px;"/>
                      <path d="M113,289.22c-1.75.89-3.26,2.15-4.39,3.64" style="fill: none; stroke: #2e4369; stroke-miterlimit: 10; stroke-width: .44px;"/>
                    </g>
                  </g>
                  <g>
                    <path d="M196.87,274.05l-17.48,47.72,65.25,6.46,17.3-45.54c1.58-4.17-1.06-8.74-5.46-9.45l-45.69-7.34c-5.99-.96-11.82,2.46-13.91,8.15" style="fill: #32436b; stroke-width: 0px;"/>
                    <path d="M240.67,324.73c-1.72-1.4-3.54-2.67-5.12-4.23-.78-.77-1.4-1.56-1.89-2.55-.46-.94-.81-1.93-1.18-2.9-.71-1.88-1.48-3.68-3.06-5.01-1.43-1.2-3.18-1.93-4.99-2.36-.98-.24-1.98-.34-2.98-.49-1.21-.19-2.4-.44-3.62-.6-2.41-.31-4.85-.58-7.18-1.31-1.65-.52-3.25-1.66-4.46-2.87-1.16-1.17-2.04-2.65-2.31-4.29-.15-.9-.13-1.88-.09-2.8.05-1.14.55-2.2.99-3.23.23-.53.43-1.05.71-1.56.24-.43.48-.84.73-1.27.54-.91,1.1-1.81,1.69-2.69,1.15-1.72,2.39-3.38,3.73-4.95,2.66-3.12,5.72-5.92,9.18-8.14,3.07-1.97,6.39-3.48,9.92-4.37l-19.99-3.21c-5.99-.96-11.82,2.46-13.91,8.15l-17.48,47.72,63.91,6.33c-.67-1.28-1.51-2.46-2.64-3.38" style="fill: #232743; stroke-width: 0px;"/>
                    <rect x="160.05" y="298.73" width="4.4" height="38.08" transform="translate(-170.69 446.03) rotate(-84.02)" style="fill: #32436b; stroke-width: 0px;"/>
                    <path d="M232.27,285s-4.1.85-5.45,3.28c-1.35,2.43.09,5.96,1.54,5.66,1.45-.31,2.76-1.41,3.52-3.04.76-1.63.38-5.89.38-5.89" style="fill: #8ab375; stroke-width: 0px;"/>
                    <path d="M239.53,295.26s-2.35-2.57-5.3-2.53c-2.95.04-6.02,2.52-5.18,3.42.84.91,2.43,1.39,4.36,1.26,1.93-.13,6.12-2.15,6.12-2.15" style="fill: #8ab375; stroke-width: 0px;"/>
                    <path d="M219.77,289.83s.24,3.3,2.14,4.8c1.89,1.51,5.04,1.09,4.95-.08-.09-1.17-.87-2.39-2.16-3.28-1.29-.9-4.93-1.44-4.93-1.44" style="fill: #8ab375; stroke-width: 0px;"/>
                    <path d="M243.48,275.32c3.38.5,6.74,1.09,10.09,1.76.91.18,1.89.41,2.47,1.13.57.71.6,1.71.47,2.61-.21,1.43-.76,2.79-1.3,4.14-1.98,4.9-3.96,9.79-5.93,14.69" style="fill: none; stroke: #232743; stroke-miterlimit: 10; stroke-width: .63px;"/>
                  </g>
                </g>
              </g>
            </g>
          </g>
          <g style="filter: url(#drop-shadow-2);">
            <path d="M173.66,6.82l.26,63.11c1.2,1.36,3.19,3.47,3.23,3.08.16-1.71,5.5.29,5.37,1.66-.09.9,5.82-1,5.69.39.14-1.52,4.96,2.34,4.93,2.63-.11,1.17,5.84-1.58,5.76-.69-.14,1.48,4.73,4.59,4.79,3.96.01-.12,5.3,1.93,5.34,1.43-.07.77,5.5.59,5.62-.66-.2,2.08,5.74-2.22,5.7-1.77-.15,1.55,4.89,5.51,5,4.31,0,.09,5.55-1.12,5.48-.31-.25,2.67,5.44,1.58,5.49.99.09-.91,5.17-4.76,5.09-4,.21-2.19,4.79-2.86,4.74-2.28.04-.41,5.38-1.29,5.34-.85.04-.47,5.08.99,5.31-1.48.14-1.47,5.66,1.56,5.83-.26-.02.23,4.38-4.64,4.39-4.77-.09.9,5.74-2.33,5.67-1.57-.12,1.28,5.68-1.59,5.67-1.52.05-.56,5.95,1.59,6.01.93-.08.89,5.73.25,5.74.19-.04.42,5.58-.25,5.68-1.34.04-.46,5.9-1.71,5.91-1.85-.05.49,5.73,1.33,5.7,1.68,0,.02,5.25,4.41,5.44,2.35-.23,2.47,5.36,1.73,5.31,2.27.03-.32,6.71-1.93,6.69-1.69-.07.75,4.94,3.76,4.98,3.34-.15,1.57,4.13,5.42,4.17,4.98.02-.26,5.37,1.74,5.29,2.6-.1,1.03,6.34.3,6.41-.38-.05.51,5.37,2.43,5.37,2.49-.09.91,5.93-.64,5.92-.47-.03.35,5.54-.4,5.63-1.29.1-1.06,5.92-.63,5.82.42.02-.18,5.79-2.64,5.67-1.32.04-.4,6.07,3.24,6.21,1.78.15-1.61,5.42-2.71,5.42-2.72l1.66-73.38h-213.73Z" style="fill: #f9ede3; stroke-width: 0px;"/>
          </g>
          <g>
            <path d="M232.89,49.63l.07,4.75-18.8.28.16,11.05-5.72.08-.16-11.05-18.46.27-.07-4.75,18.46-.27-.03-2.13-13.96.21-.06-4.17,13.96-.21-.03-2.18-16.38.24-.06-4.36,8.92-.13c-.45-1.11-1.2-2.45-1.85-3.51l3.24-.77-12.36.18-.07-4.51,6.59-.1c-.75-1.83-2.05-4.14-3.19-5.96l4.92-1.72c1.48,2.01,3.13,4.9,3.78,6.73l-2.31.91,4.46-.07-.12-7.9,5.33-.08.12,7.9,3.63-.05-.12-7.9,5.43-.08.12,7.9,4.31-.06-1.75-.51c1.09-1.96,2.35-4.93,3-7.02l6.08,1.31c-1.32,2.25-2.6,4.45-3.79,6.16l6.25-.09.07,4.51-12.79.19,4.57,1.1c-1.05,1.18-2.05,2.26-2.91,3.15l9.35-.14.06,4.36-16.81.25.03,2.18,14.54-.22.06,4.17-14.54.22.03,2.13,18.8-.28ZM207.33,58.2c-3.25,2.81-9.03,5.42-14.01,6.65-.74-1.2-2.27-3.07-3.45-4.12,4.84-.75,10.43-2.48,13.36-4.32l4.1,1.78ZM204.68,32.94c.79,1.2,1.59,2.59,1.99,3.61l-2.61.67,13.23-.2-1.75-.51c.76-1.13,1.75-2.6,2.42-3.77l-13.28.2ZM220.14,55.88c3.95,1.4,9.7,3.73,12.83,5.24l-4.02,3.21c-2.83-1.56-8.54-4.04-12.64-5.68l3.84-2.77Z" style="fill: #0f96b5; stroke-width: 0px;"/>
            <path d="M278.53,29.08c-1.22,2.78-2.78,5.13-4.74,7.15,2.68,1.22,5.7,2.14,8.96,2.73-1.24,1.18-2.81,3.48-3.56,4.95-3.7-.87-7.01-2.27-9.95-4.02-2.83,1.79-6.16,3.15-9.82,4.22-.3-.53-.79-1.25-1.39-2.02-.63,3.02-1.41,5.93-2.25,8.13l-3.9-1.74c.51-1.8,1.05-4.23,1.45-6.71l-2.57.04.25,17.06c.04,2.62-.33,4.17-2.01,5.07-1.63.95-3.81,1.08-6.82,1.12-.17-1.6-.98-3.91-1.73-5.45,1.79.02,3.73,0,4.36-.02.58-.06.77-.16.76-.74l-.15-10.37c-1.64,3.61-3.63,6.89-5.92,9.05-.51-1.64-1.8-4-2.7-5.53,2.63-2.41,5.09-6.23,6.73-10.08l-6.06.09-.08-5.04,11.1-.17c-2.74-1.61-6.4-3.4-9.42-4.56l3.58-3.74c1.17.42,2.53.93,3.85,1.49,1.05-.94,2.1-2.02,3.01-3.1l-11.63.17-.07-4.85,15.65-.23.87-.21,3.72,2.27c-1.61,2.74-4.28,5.73-6.96,8.1,1.42.71,2.64,1.41,3.57,2.08l-2.34,2.51,2.33-.03.77-.25,3.51,1.11-.18,1.12c2.12-.61,4.15-1.37,5.88-2.32-1.28-1.19-2.46-2.53-3.5-3.97-.72.79-1.43,1.48-2.15,2.12-1.13-.9-3.38-2.42-4.75-3.18,3.74-2.77,7.26-7.18,9.08-11.67l5.4,1.37c-.52,1.17-1.08,2.29-1.74,3.42l14.29-.21.07,4.8-2.81.04ZM281.07,46.4s-.07,1.5-.16,2.18c-.65,8.39-1.47,12.14-2.85,13.71-1.05,1.13-2.06,1.53-3.51,1.75-1.21.16-3.19.24-5.43.18-.07-1.6-.74-3.87-1.63-5.31,1.75.17,3.4.19,4.17.18.68-.01,1.06-.11,1.54-.56.67-.64,1.27-2.73,1.73-7.25l-5.62.08c-1.56,5.79-4.93,10.54-12.54,13.66-.65-1.35-2.18-3.36-3.41-4.41,5.78-2.22,8.55-5.36,9.99-9.16l-5.86.09-.07-4.8,7.08-.1c.22-1.41.35-2.82.42-4.32l5.77-.09c-.12,1.46-.25,2.91-.42,4.32l10.81-.16ZM264.92,29.28c1.09,1.49,2.47,2.87,4.08,4.06,1.29-1.18,2.34-2.6,3.14-4.17l-7.22.11Z" style="fill: #0f96b5; stroke-width: 0px;"/>
            <path d="M329.95,57.79l-18.85.28.09,6.15-5.91.09-.09-6.15-18.41.27-.07-4.94,18.41-.27-.04-2.52-13.81.21-.27-18.17,34.36-.51.27,18.17-14.63.22.04,2.52,18.85-.28.07,4.94ZM306.52,30.6l-17.3.26-.14-9.69,17.3-.26.14,9.69ZM301.05,24.43l-6.78.1.04,2.81,6.78-.1-.04-2.81ZM296.72,39.67l8.19-.12-.04-2.57-8.19.12.04,2.57ZM305.01,46.28l-.04-2.62-8.19.12.04,2.62,8.19-.12ZM326.88,30.3l-17.4.26-.14-9.69,17.4-.26.14,9.69ZM319.51,36.76l-8.72.13.04,2.57,8.72-.13-.04-2.57ZM319.61,43.45l-8.72.13.04,2.62,8.72-.13-.04-2.62ZM321.4,24.13l-6.93.1.04,2.81,6.93-.1-.04-2.81Z" style="fill: #0f96b5; stroke-width: 0px;"/>
            <path d="M350.04,20.26c-1.21,3.31-2.66,6.68-4.36,9.86l.5,33.53-5.81.09-.36-24.47c-1,1.27-2,2.5-3,3.63-.55-1.45-2.2-4.57-3.19-5.96,4.3-4.43,8.41-11.37,10.78-18.29l5.45,1.62ZM378.78,55.75l.08,5.57-30.38.45-.08-5.57,16.86-.25c1.55-6.32,3.06-15.75,3.64-22.74l6.02.83c-1.1,7.29-2.77,15.74-4.38,21.83l8.24-.12ZM361.04,26.35c-.37-2.08-1.39-5.17-2.24-7.43l5.46-1.44c1,2.31,2.02,5.35,2.58,7.33l-5.07,1.53,14.92-.22.08,5.57-26.99.4-.08-5.57,11.34-.17ZM355.84,54.73c-.46-5.03-1.75-13.5-3.16-19.97l5.22-1.24c1.55,6.33,3.03,14.64,3.59,19.53l-5.65,1.68Z" style="fill: #0f96b5; stroke-width: 0px;"/>
          </g>
        </g>
      </g>
    </g>
  </g>
</svg>