<?xml version="1.0" encoding="UTF-8"?>
<svg id="_圖層_1" data-name="圖層 1" xmlns="http://www.w3.org/2000/svg" version="1.1" xmlns:xlink="http://www.w3.org/1999/xlink" viewBox="0 0 218 218">
  <defs>
    <style>
      .cls-1 {
        fill: none;
        stroke: #fff;
        stroke-miterlimit: 10;
        stroke-width: 12.5px;
      }

      .cls-2, .cls-3, .cls-4 {
        isolation: isolate;
      }

      .cls-3 {
        fill: #41d992;
        opacity: .4;
      }

      .cls-3, .cls-5 {
        stroke-width: 0px;
      }

      .cls-4 {
        fill: #000;
        font-family: AdobeMingStd-Light-B5pc-H, 'Adobe Ming Std';
        font-size: 122.4px;
        font-weight: 300;
      }

      .cls-6 {
        display: none;
      }

      .cls-5 {
        fill: #4bd996;
      }
    </style>
  </defs>
  <g id="_圖層_8" data-name="圖層 8">
    <g>
      <path class="cls-5" d="M109,0c-1.6,0-3.2,0-4.8.1l.3,8h3.3V0h1.2ZM101.3.3c-1.6,0-3.2.3-4.8.4l.9,8c.8-.1,1.7-.2,2.5-.3h.2c.4,0,.9-.1,1.3-.1V.3h0ZM93.7,1.1c-1.6.2-3.2.5-4.7.8l1.5,7.9c1.5-.3,2.9-.5,4.4-.7l-1.2-8h0ZM86.1,2.4c-1.6.3-3.1.7-4.7,1.1l2,7.8c1.1-.3,2.3-.6,3.5-.8h0c.2-.1.5-.1.7-.1l-1.5-8h0ZM78.7,4.3c-1.5.4-3.1.9-4.6,1.4l2.6,7.6c.8-.3,1.5-.5,2.3-.7h0q0,0,.2-.1h.7c.3-.1.6-.2.9-.3l-2.1-7.9h0ZM71.4,6.7c-1.5.6-3,1.1-4.5,1.8l3.1,7.4c.3-.1.7-.3,1-.4h.3c.8-.3,1.7-.7,2.6-1l-2.5-7.8h0ZM64.3,9.6c-1.5.7-2.9,1.4-4.3,2.1l3.6,7.1c.6-.3,1.2-.6,1.9-.9h0s0,0,0-.1h1.1c.3-.1.5-.3.8-.4l-3.3-7.8h0ZM57.4,13c-1.4.8-2.8,1.6-4.2,2.4l4.1,6.9c.4-.3.9-.5,1.3-.8h0c0,0,0-.1.2-.1h.4s0,0,0-.1h0c.4-.2.7-.4,1.1-.6l-3.2-7.7h0ZM50.7,16.9c-1.3.9-2.7,1.7-4,2.7l4.6,6.6c.5-.4,1.1-.7,1.6-1.1h0c.6-.4,1.1-.7,1.7-1.1l-4-7.1h0ZM44.4,21.2c-1.3.9-2.6,1.9-3.8,2.9l5,6.2c1.1-.9,2.1-1.7,3.2-2.5h0l-4.4-6.6h0ZM38.4,26c-1.2,1-2.4,2.1-3.6,3.2l5.5,5.9c1.1-1,2.2-2,3.3-3l-5.2-6.1h0ZM32.7,31.1c-1.1,1.1-2.3,2.3-3.4,3.4l5.9,5.5h0l-2.5-8.9h0ZM27.4,36.7c-1.1,1.2-2.1,2.4-3.1,3.7l6.2,5c.8-1,1.7-2,2.5-3h0c0,0-5.7-5.7-5.7-5.7h0ZM22.5,42.6c-1,1.3-1.9,2.6-2.8,3.9l6.6,4.6h0v-.2h0c.4-.6.9-1.2,1.3-1.8l-5.1-6.5h0ZM18.1,48.9c-.9,1.3-1.7,2.7-2.6,4.1l6.9,4.1c.6-1,1.2-2,1.9-3h0c.1-.3.2-.4.3-.6l-6.5-4.6h0ZM14,55.4c-.8,1.4-1.5,2.8-2.3,4.2l7.1,3.6c.2-.4.5-.9.7-1.3h0v-.2h0v-.2h0v-.2h0c.2-.4.4-.8.7-1.2h0v-.2h0v-.2h0v-.2h0l-6.2-4.1h0ZM10.5,62.2c-.7,1.4-1.3,2.9-2,4.4l7.4,3.1c.2-.5.5-1.1.7-1.6h0v-.2h0v-.2h0c.3-.7.5-1.3.8-1.9l-6.9-3.6h0ZM7.5,69.3c-.6,1.5-1.1,3-1.7,4.5l7.6,2.6c.1-.2.2-.5.2-.7h0v-.2h0v-.2h0v-.2h0v-.2h0v-.2h0q0-.2.1-.3h0c.2-.7.5-1.4.7-2h0v-.2h0v-.2h0l-6.9-2.7h0ZM4.9,76.5c-.5,1.5-.9,3.1-1.3,4.6l7.7,2c.2-.7.4-1.4.6-2.1h0v-.2h0v-.2h0v-.2h0c0,0-7-3.9-7-3.9h0ZM2.9,84c-.4,1.6-.7,3.1-1,4.7l7.9,1.5c.2-1.1.4-2.1.7-3.2h0v-.2h0c0-.2.1-.4.1-.6l-7.7-2.2h0ZM1.4,91.5c-.3,1.6-.5,3.2-.7,4.8l8,.9c.2-1.5.4-2.9.6-4.4l-7.9-1.3h0ZM.4,99.1c0,1.6-.3,3.2-.3,4.8l8,.4v-1h0c.1-1.2.1-2.2.2-3.3l-7.9-.9H.4ZM0,106.8v4.8l8-.2v-.7h0v-1.1h0v-.2h0v-.2h0v-1.4h0c0,0-8-1-8-1h0ZM8.1,114.1l-8,.4c0,1.6.2,3.2.3,4.8l8-.7c-.1-1.6-.2-3-.3-4.5h0ZM8.7,121.2l-8,1c.2,1.6.4,3.2.7,4.8l7.9-1.3c-.1-.7-.2-1.3-.3-2h0v-.2h0c0-.2,0-.3-.1-.5h0v-.2h0c0-1.1,0-1.4-.2-1.6h0ZM9.8,128.2l-7.8,1.5c.3,1.6.6,3.1,1,4.7l7.8-1.9c-.2-.7-.3-1.4-.5-2.1h0c-.2-.9-.4-1.6-.5-2.2h0ZM11.4,135.1l-7.7,2.1c.4,1.5.9,3.1,1.3,4.6l7.6-2.4c-.1-.3-.2-.6-.3-1h0v-.2h0v-.2h0v-.2h0c-.4-1-.7-1.8-.9-2.7h0ZM13.5,141.9l-7.6,2.6c.5,1.5,1.1,3,1.7,4.5l7.4-2.9c-.5-1.4-1-2.8-1.5-4.2h0ZM16,148.6l-7.4,3.1c.6,1.5,1.3,2.9,2,4.4l7.2-3.5c-.2-.5-.4-.9-.7-1.4h0v-.2h0v-.2h0c-.5-.8-.7-1.5-1.1-2.2q.1,0,0,0t0,0c.1,0,0,0,0,0h0ZM19.1,155l-7.1,3.7c.7,1.4,1.5,2.8,2.3,4.2l7-4c-.6-1.1-1.3-2.3-1.9-3.4h0v-.2h0c-.3,0-.3-.2-.3-.3h0ZM22.5,161.2l-6.9,4.1c.8,1.4,1.7,2.7,2.6,4.1l6.7-4.4c-.1-.1-.1-.2-.2-.2h0v-.2h0v-.2h0c-.3-.5-.5-.9-.8-1.3h0q-1.3-1.8-1.4-1.9.1.1,0,0,.1.1,0,0h0ZM26.4,167.2l-6.5,4.6c.9,1.3,1.9,2.6,2.9,3.9l6.3-4.9c-.2-.3-.4-.5-.6-.8h0c-1-1.4-1.6-2.1-2.1-2.8h0ZM30.7,172.9l-6.2,5.1c1,1.2,2.1,2.5,3.1,3.6l6-5.3c-.9-1-1.8-2.1-2.7-3.2h0c0-.1,0-.2-.2-.2q0,0,0,0,0,0,0,0h0ZM35.4,178.2l-5.8,5.5c1.1,1.2,2.2,2.3,3.4,3.4l5.6-5.7c-.3-.3-.7-.7-1-1h0c-1.1-1.1-1.6-1.6-2.2-2.2h0ZM40.5,183.2l-5.4,5.9c1.2,1.1,2.4,2.2,3.6,3.2l5.2-6.1c-.6-.5-1.2-1-1.8-1.5h0c-.8-.8-1.1-1.1-1.5-1.5h0ZM45.9,187.9l-5,6.2c1.2,1,2.5,2,3.8,2.9l4.7-6.5h0c-1.3-1-2.3-1.8-3.4-2.6h0ZM51.6,192.1l-4.6,6.6c1.3.9,2.7,1.8,4,2.6l4.3-6.8c-.7-.5-1.5-.9-2.2-1.4h0c-.6-.5-1-.7-1.4-1h0ZM57.6,196l-4.1,6.9c1.4.8,2.8,1.6,4.2,2.4l3.8-7.1c-.2-.1-.3-.2-.5-.3h0c0-.1-.2-.1-.3-.2h0c0,0-.2-.1-.2-.1h-.2c0,0-.2-.1-.2-.1h-.2c0,0,0-.1-.2-.1h-.3s0,0,0-.1h-.7c-.3-1-.6-1.2-.9-1.3h0ZM63.8,199.4l-3.6,7.2c1.4.7,2.9,1.4,4.3,2.1l3.3-7.3c-.5-.2-.9-.4-1.4-.6h-.8c-1.3-1.2-1.5-1.3-1.8-1.4h0ZM70.3,202.3l-3.1,7.4c1.5.6,3,1.2,4.5,1.7l2.7-7.5c-1-.4-2-.7-3-1.1h-.2c-.3-.2-.6-.4-.9-.5h0ZM77,204.8l-2.5,7.6c1.5.5,3.1,1,4.6,1.4l2.2-7.7h-.2c-.9-.3-1.9-.6-2.8-.9h-.8c-.3-.3-.4-.4-.5-.4h0ZM83.8,206.8l-2,7.8c1.5.4,3.1.8,4.7,1.1l1.6-7.8h-.3c-.4-.1-.8-.2-1.2-.3h0c-1.2-.4-2-.6-2.7-.8h0ZM90.8,208.4l-1.4,7.9c1.6.3,3.2.5,4.7.8l1.1-7.9c-.4-.1-.8-.1-1.3-.2h0c-1.6-.4-2.3-.5-3-.6h0ZM97.8,209.4l-.9,8c1.6.2,3.2.3,4.8.4l.5-8c-1.5,0-2.9-.3-4.4-.4h0ZM104.9,209.9l-.3,8c1.5.1,3,.1,4.4.1h.4v-8h-.9c-1.6,0-2.6,0-3.6-.1h0ZM116.5,209.7h0q0,0,0,0h0q0,0,0,0h-.5c-1,.1-2,.1-2.9.1h-.2l.2,8c1.6,0,3.2-.1,4.8-.2l-1.4-7.9h0ZM123.5,209c-.4.1-.9.1-1.3.2h0c-.6.1-1.3.2-1.9.2h0c-.2,0-.4,0-.6.1l.8,8c1.6-.2,3.2-.4,4.8-.6l-1.7-7.9h0ZM130.5,207.7c-.8.2-1.6.3-2.4.5h0c-.6.1-1.2.2-1.8.3l1.4,7.9c1.6-.3,3.2-.6,4.7-.9l-1.9-7.8h0ZM137.4,205.9c-.2,0-.3.1-.5.1h-.1c-1.2.3-2.3.6-3.5.9l1.9,7.8c1.5-.4,3.1-.8,4.6-1.2l-2.4-7.6h0ZM144.2,203.7c-1,.4-2.1.8-3.1,1.1h-.5c-.2.1-.4.1-.6.2l2.5,7.6c1.5-.5,3-1,4.5-1.6l-2.8-7.3h0ZM150.8,201c-1.3.6-2.7,1.2-4.1,1.8l3,7.4c1.5-.6,3-1.2,4.4-1.9l-3.3-7.3h0ZM157.1,197.8c-.4.2-.7.4-1.1.6h-.7c-.6.3-1.2.6-1.8.9l3.5,7.2c1.4-.7,2.9-1.4,4.3-2.2l-4.2-6.5h0ZM163.3,194.2c-.5.3-1,.6-1.5,1h-.2c-.1,0-.1.1-.2.1h-.8c-.3.2-.6.3-.9.5l4,6.9c1.4-.8,2.8-1.6,4.1-2.5l-4.5-6h0ZM169.1,190.2c-.1.1-.2.2-.3.2h0c-.4.3-.7.5-1.1.8h-.3c-.4.3-.8.6-1.2.8l4.5,6.6c1.3-.9,2.6-1.8,3.9-2.8l-5.5-5.6h0ZM174.7,185.7l-.3.3h0c-.7.6-1.4,1.2-2.1,1.7h-.4c0,.1,4.9,6.4,4.9,6.4,1.3-1,2.5-2,3.7-3l-5.8-5.4h0ZM179.9,180.9c-.9.9-1.9,1.8-2.8,2.7h-.1c0,.1,5.4,6,5.4,6,1.2-1.1,2.4-2.2,3.5-3.3l-6-5.4h0ZM184.8,175.7h0c-.1.1-.2.2-.2.3h0c-.2.3-.3.5-.5.7h0v.2h0c0,.1,0,.2-.1.2h0c-.4.4-.7.8-1.1,1.2l5.8,5.6c1.1-1.1,2.2-2.3,3.3-3.5l-7.2-4.7h0ZM189.3,170.2c-.9,1.2-1.8,2.3-2.8,3.5l6.1,5.1c1-1.2,2-2.5,3-3.8l-6.3-4.8h0ZM193.5,164.4c-.8,1.2-1.7,2.5-2.5,3.7l6.5,4.7c.9-1.3,1.9-2.6,2.7-4l-6.7-4.4h0ZM197.2,158.3c-.3.6-.7,1.2-1,1.8h0v.2h0v.2h0c-.3.5-.6,1-.9,1.4l6.8,4.2c.8-1.4,1.7-2.7,2.4-4.1l-7.3-3.7h0ZM200.4,152c-.6,1.3-1.3,2.7-2,4l7.1,3.7c.7-1.4,1.5-2.9,2.1-4.3l-7.2-3.4h0ZM203.2,145.5c-.2.5-.4,1-.6,1.5h0v.2h0v.2h0c-.3.7-.6,1.5-.9,2.2l7.3,3.2c.6-1.5,1.3-3,1.8-4.4l-7.6-2.9h0ZM205.5,138.7c-.1.2-.1.4-.2.6h0v.2h0c-.4,1.2-.7,2.3-1.1,3.4l7.5,2.7c.5-1.5,1-3,1.5-4.6l-7.7-2.3h0ZM207.4,131.9c-.1.4-.2.8-.3,1.2h0c-.2.9-.5,1.8-.7,2.7l7.7,2.2c.4-1.5.8-3.1,1.2-4.7l-7.9-1.4h0ZM208.8,124.9c-.2,1-.3,1.9-.5,2.9h0c-.1.4-.2.9-.3,1.3l7.8,1.6c.3-1.6.6-3.2.9-4.7l-7.9-1.1h0ZM209.6,117.8c-.1,1.5-.3,3-.5,4.4l7.9,1c.2-1.6.4-3.2.5-4.8l-7.9-.6h0ZM210,110.7c0,.8,0,1.7-.1,2.5h0c0,.5-.1,1.1-.1,1.6l8,.5c.1-1.6.2-3.2.2-4.8l-8,.2h0ZM217.9,103.2l-8,.4h0v.2h0v.5h0v.2h0c0,.9.1,1.8.1,2.7h8c0-.8-.1-2.4-.1-4h0ZM217.2,95.5l-7.9,1c.2,1.5.3,2.9.4,4.4l8-.6c-.2-1.6-.3-3.2-.5-4.8h0ZM216,87.9l-7.9,1.5c.1.5.2.9.3,1.4h0v.2h0v.2h0v.2h0c.1.5.2,1,.2,1.5l7.9-1.2c.1-.6-.2-2.2-.5-3.8h0ZM214.2,80.4l-7.7,2.1c.2.6.3,1.2.5,1.8h0v.2h0c.2.7.3,1.4.5,2.2l7.8-1.7c-.3-1.4-.7-3-1.1-4.6h0ZM212,73.1l-7.6,2.6c.2.5.4,1.1.5,1.6h0v.2h0v.2h0c.2.8.4,1.5.6,2.2l7.7-2.3c-.2-1.5-.7-3-1.2-4.5h0ZM209.2,65.9l-7.4,3.2c.1,0,.1.3.2.4h0v.2h0v.2h0v.2h0v.2h0v.2h0v.2h0v.2h0v.2h0v.2h0v.2h0v.2h0v.2h0v.2h0v.2h0v.2h0v.2h0v.2h0v.2h0v.2h0v.2h0l7.5-2.8c.9-1.8.3-3.3-.3-4.8h0ZM205.9,59l-7.1,3.7c.7,1.3,1.3,2.6,2,4l7.3-3.4c-.8-1.4-1.5-2.9-2.2-4.3h0ZM202.1,52.3l-6.8,4.2c.3.5.6,1,.9,1.5h0v.2h0v.2h0v.2h0c.3.5.5.9.8,1.4l7-3.9c-.2-1-1.1-2.4-1.9-3.8h0ZM197.9,45.9l-6.5,4.6c.5.7,1,1.4,1.5,2.1h0c0,.2.1.2.1.3h0v.2h0v.2h0c0,0,.1,0,.1.2h0c.2.4.4.7.6,1l6.7-4.4c-.7-1.6-1.6-2.9-2.5-4.2h0ZM193.2,39.8l-6.2,5.1c.1,0,.2.2.3.3h0c.1,0,.1.2.2.3h0v.2h0c.2.3.4.6.6.8l6.4-4.8c.7.6-.3-.7-1.3-1.9h0ZM188.1,34l-5.8,5.5c.1,0,.2.2.3.3h.1c0,0,.1.2.1.2h0c.7.8,1.3,1.6,2,2.3l6-5.2c-.5-.7-1.6-1.9-2.7-3.1h0ZM182.7,28.6l-5.4,5.9c.2,0,.3.3.5.4h.1c0,0,5.7-5.6,5.7-5.6,1.4,1.5.2.4-.9-.7h0ZM176.8,23.7l-5,6.3c.9.7,1.7,1.4,2.5,2.1h.1q.1,0,.2.2h.2c.2.2.3.3.5.5l5.3-6c-1.3-1.1-2.5-2.2-3.8-3.1h0ZM170.7,19.1l-4.5,6.6c.6.4,1.1.8,1.7,1.2h.3c.4.3.9.6,1.3,1l4.8-6.4c-1-.6-2.3-1.5-3.6-2.4h0ZM164.2,15l-4.1,6.9c.3.2.5.3.8.5h.3c.1,0,.1.1.2.1h0c.7.4,1.4.9,2.1,1.3l4.4-6.7c-1-.5-2.4-1.3-3.7-2.1h0ZM157.4,11.3l-3.6,7.2c.1.1.3.1.4.2h.6c.1,0,.2.1.2.1h.1c.7.4,1.5.8,2.2,1.2l3.9-7c-.9-.2-2.4-1-3.8-1.7h0ZM150.4,8.1l-3,7.4c.7.3,1.3.6,2,.8h.3c.5.2,1,.5,1.5.7l3.4-7.3c-1.2-.3-2.7-1-4.2-1.6h0ZM143.2,5.5l-2.5,7.6c.7.2,1.5.5,2.2.8h1.5q.1,0,.2.1h.3l2.8-7.5c-1.5,0-3-.5-4.5-1h0ZM135.8,3.3l-2,7.8c.2.1.5.1.7.2h0c1,.3,2.1.6,3.1.9h0c.1,0,.2.1.3.1l2.3-7.7c-1.3-.5-2.8-.9-4.4-1.3h0ZM128.3,1.7l-1.4,7.9h0c1.3.2,2.6.5,3.9.8l1.8-7.8c-1.1-.3-2.7-.6-4.3-.9h0ZM120.7.6l-.9,8c.2,0,.5.1.7.1h.7c.7.1,1.5.2,2.2.3l1.2-7.9c-.7-.1-2.3-.3-3.9-.5h0ZM113.1.1l-.3,8c.7,0,1.5.1,2.2.1h0c.7,0,1.4.1,2.1.1l.6-8c-1.4-.1-3.1-.2-4.6-.2h0ZM109,0v8h1V0h-1Z"/>
      <circle class="cls-1" cx="109" cy="109" r="101"/>
      <circle class="cls-3" cx="109" cy="109" r="101"/>
    </g>
  </g>
  <g id="_圖層_2" data-name="圖層 2" class="cls-6">
    <text class="cls-4" transform="translate(35.6 171.8)"><tspan x="0" y="0">8</tspan></text>
  </g>
  <g id="_圖層_3" data-name="圖層 3">
    <image class="cls-2" width="512" height="512" transform="translate(43.5 43.9) scale(.3)" xlink:href="button_202404a-1.png"/>
  </g>
</svg>