<?xml version="1.0" encoding="UTF-8"?>
<svg id="_圖層_1" data-name="圖層 1" xmlns="http://www.w3.org/2000/svg" width="218" height="218" viewBox="0 0 218 218">
  <g id="_圖層_8" data-name="圖層 8">
    <path d="m109,0C107.41,0,105.79,0,104.2.1l.35,8h4.45V0h0Zm-7.67.27c-1.59.11-3.2.26-4.78.44l.91,8c.83-.09,1.66-.18,2.49-.25h.62l1.32-.1-.56-8h0v-.09Zm-7.64.8c-1.58.22-3.17.48-4.74.77l1.46,7.87c1.46-.27,2.93-.51,4.4-.71l-1.12-7.94h0Zm-7.57,1.33c-1.55.33-3.12.7-4.67,1.1l2,7.75c1.15-.3,2.3-.58,3.47-.84h.17l.69-.15-1.66-7.86h0Zm-7.45,1.87c-1.53.44-3.07.93-4.58,1.44l2.56,7.59c.75-.25,1.51-.5,2.28-.74h0l.19-.06h.78l.99-.5-2.22-7.73h0Zm-7.3,2.4c-1.5.55-3,1.14-4.47,1.76l3.1,7.38,1-.42h.23c.85-.34,1.7-.67,2.56-1l-2.42-7.73h0Zm-7.12,2.9c-1.45.65-2.91,1.35-4.33,2.07l3.61,7.15,1.87-.92h.06l.12-.06h.59l.82-.38-3.29-7.3h0l.55-.56Zm-6.89,3.43c-1.4.76-2.81,1.55-4.18,2.37l4.11,6.88,1.32-.77h.06l.18-.1h.2l.1-.05h.06l1.95-1.33-3.8-7h0Zm-6.63,3.88c-1.35.85-2.69,1.75-4,2.66l4.58,6.57,1.63-1.11h.06l2-1.38-4.29-6.77h0l.02.03Zm-6.34,4.34c-1.28.94-2.56,1.93-3.8,2.93l5,6.23c1.06-.86,2.14-1.7,3.24-2.51h0l-4.75-6.45h0l.31-.2Zm-6,4.77c-1.21,1-2.42,2.11-3.59,3.19l5.44,5.82c1.09-1.01,2.19-2.01,3.32-3l-5.19-6h.02Zm-5.67,5.18c-1.14,1.11-2.27,2.27-3.35,3.43l5.83,5.4h0l-5.61-5.72h0l3.13-3.11Zm-5.31,5.53c-1.06,1.19-2.1,2.42-3.11,3.66l6.22,5c.82-1.01,1.66-2.01,2.51-3h0l.38-.36-6-5.31h0Zm-4.89,5.92c-1,1.26-1.93,2.57-2.84,3.87l6.56,4.6h0v-.05h0v-.06h0c.45-.61.9-1.21,1.35-1.8l-6.35-4.88h0l1.28-1.68Zm-4.46,6.25c-.88,1.33-1.74,2.69-2.56,4.06l6.87,4.12c.6-1,1.22-2,1.86-3h0v-.05h0l.3-.46-6.68-4.42h0l.21-.25Zm-4,6.55c-.78,1.39-1.55,2.81-2.27,4.23l7.14,3.63.67-1.28h0v-.05h0v-.05h0v-.05h0v-.06h0v-.06h0v-.06h0l1.04-1.67h0v-.06h0v-.05h0v-.05h0v-.05h0v-.05h0v-.06h0l-7-3.94h0l.42-.32Zm-3.56,6.82c-.68,1.44-1.35,2.91-2,4.38l7.38,3.12c.23-.53.45-1.06.69-1.59h0v-.05h0v-.05h0v-.3h0v-.06h0v-.06h0v-.07h0c.27-.6.55-1.2.83-1.79l-6.9-3.53h0Zm-3.05,7.05c-.58,1.48-1.14,3-1.65,4.51l7.58,2.58.25-.72h0v-.06h0v-.06h0v-.13h0v-.06h0v-.06h0v-.06h0v-.06h0v-.06h0v-.06h0v-.06h0v-.06h0l.37-.25h0v-.06h0c.23-.63.46-1.26.7-1.88h0v-.06h0v-.06h0v-.06h0v-.06h0l-7.25-3.21h0Zm-2.54,7.26c-.48,1.52-.91,3.07-1.33,4.62l7.74,2c.19-.72.39-1.44.59-2.15h0v-.06h0v-.06h0v-.06h0v-.06h0v-.06h0v-.05h0v-1.73h0l-7-2.39h0Zm-2.03,7.45c-.36,1.55-.7,3.13-1,4.7l7.87,1.49c.2-1.07.42-2.13.66-3.19h0v-.15h0v-.21h0v-.13h0l.14-.61-7.67-1.9h0Zm-1.49,7.5c-.25,1.57-.48,3.17-.66,4.76l8,.93c.14-1.46.33-2.93.57-4.41l-7.91-1.28h0Zm-1,7.62c-.14,1.58-.25,3.2-.32,4.79l8,.37v-1h0v-.14h0c.06-1.07.14-2.14.24-3.2l-8-.72H.31l.08-.1Zm-.39,7.67v4.79l8-.19v-.67h0v-.12h0v-1.14h0v-.46h0v-.06h0v-.05h0v-.47h0v-1.34h0v-.08h0l-8-.16h0v-.05Zm8.11,7.28l-8,.4c.08,1.59.19,3.2.34,4.79l8-.74c-.14-1.47-.25-2.95-.32-4.44h-.02Zm.6,7.09l-8,1c.19,1.58.42,3.18.68,4.75l7.9-1.3c-.11-.67-.22-1.33-.31-2h.02v-.08h0v-.33h0v-.09h0l-.07-.48h0v-.09h0v-.12h0v-.12h0l-.1-.78h0l-.12-.36Zm1.1,7l-7.81,1.54c.3,1.57.64,3.15,1,4.7l7.79-1.86c-.17-.71-.33-1.42-.48-2.13h0v-.09h0c-.14-.67-.27-1.31-.39-1.93h0l-.11-.23Zm1.59,6.94l-7.74,2.07c.41,1.54.86,3.09,1.34,4.61l7.64-2.41-.3-1h0v-.06h0v-.36h0v-.06h0v-.06h0v-.06h0v-.07h0c-.25-.84-.49-1.69-.72-2.54h0l-.22-.06Zm2.08,6.81l-7.57,2.61c.52,1.51,1.08,3,1.67,4.51l7.42-2.92c-.55-1.37-1.06-2.76-1.54-4.17h0l.02-.03Zm2.52,6.67l-7.37,3.14c.63,1.47,1.29,2.94,2,4.38l7.22-3.46-.66-1.4h0v-.05h0v-.19h0v-.05h0v-.06h0v-.06h0v-.06h0c-.29-.67-.58-1.33-.87-2h0v-.05h0l-.32-.14Zm3,6.44l-7.13,3.65c.73,1.42,1.5,2.84,2.29,4.22l7-4c-.67-1.13-1.29-2.27-1.86-3.42h0v-.06h0v-.05h0l-.23-.36h0l-.07.02Zm3.47,6.21l-6.85,4.15c.82,1.36,1.69,2.73,2.58,4.05l6.73-4.43-.16-.25h0v-.05h0v-.06h0v-.06h0v-.06h0v-.06h0l-.76-1.22h0v-.05h0v-.05h0l-1.54-1.91Zm3.9,6l-6.54,4.62c.92,1.3,1.88,2.6,2.85,3.86l6.33-4.9-.53-.81h0v-.05h0c-.53-.71-1.04-1.42-1.55-2.14h0l-.56-.58Zm4.31,5.67l-6.2,5.07c1,1.23,2.06,2.46,3.12,3.65l6-5.33c-.93-1.05-1.85-2.11-2.74-3.2h0l-.12-.14h0l-.06-.05Zm4.69,5.35l-5.83,5.49c1.09,1.16,2.22,2.31,3.37,3.42l5.59-5.74-1-1h0c-.54-.55-1.08-1.11-1.61-1.67h0l-.52-.5Zm5.06,5l-5.43,5.88c1.17,1.08,2.38,2.15,3.6,3.18l5.17-6.12c-.6-.51-1.2-1-1.79-1.55h0l-.1-.09h0l-1.1-1h0l-.35-.3Zm5.4,4.64l-5,6.25c1.24,1,2.53,2,3.81,2.92l4.73-6.46h-.05c-1.1-.81-2.18-1.64-3.25-2.5h0l-.24-.21Zm5.71,4.25l-4.54,6.56c1.31.91,2.66,1.8,4,2.64l4.26-6.78c-.73-.46-1.46-.93-2.18-1.41h-.05l-1.15-.78h0l-.34-.23Zm6,3.84l-4.08,6.89c1.37.81,2.78,1.61,4.18,2.36l3.77-7.06-.41-.3h0l-.31-.17h-.06l-.24-.13h-.12l-.27-.23h-.12l-.18-.1h-.18l-.13-.24h-.38l-1.42-1h0l-.05-.02Zm6.25,3.41l-3.59,7.16c1.43.71,2.89,1.41,4.34,2.06l3.27-7.31-1.39-.63h-1.52l-.75-.37h0l-.36-.91Zm6.47,3l-3.07,7.4c1.47.61,3,1.2,4.48,1.74l2.74-7.53c-.99-.36-1.99-.74-3-1.13h-.13l-.89-.37h0l-.13-.11Zm6.74,2.43l-2.54,7.6c1.51.51,3.06,1,4.59,1.42l2.2-7.7h-.36c-.94-.27-1.86-.55-2.79-.85h-.82l-.29-.1h0v-.37Zm6.83,2l-2,7.76c1.54.4,3.12.76,4.68,1.09l1.65-7.84h-.57l-1.15-.26h-.44l-2.23-.55h0l.06-.2Zm7,1.52l-1.44,7.88c1.57.29,3.16.54,4.74.76l1.09-7.93-1.25-.18h-.97l-2.2-.38h0l.03-.15Zm7,1l-.88,8c1.58.17,3.19.32,4.78.42l.53-8c-1.49-.1-2.96-.23-4.43-.39h0v-.03Zm7.1.53l-.32,8c1.47.06,3,.09,4.43.09h.37v-8h-1.53c-.96,0-1.92-.02-2.88-.07h0l-.07-.02Zm11.56-.19h-1.11c-.98.06-1.96.11-2.95.14h-.43l.23,8c1.59,0,3.2-.13,4.79-.24l-.58-8h0l.05.1Zm7.08-.77l-1.3.18h-.37l-1.9.22h-.3l-.59.06.79,8c1.59-.16,3.19-.35,4.77-.58l-1.14-7.79h0l.04-.09Zm7-1.26c-.8.17-1.61.34-2.42.49h-.17l-1.78.32,1.35,7.89c1.57-.27,3.16-.58,4.72-.92l-1.7-7.83h0v.05Zm6.9-1.76l-.49.14h-.32c-1.15.33-2.32.64-3.49.92l1.91,7.78c1.55-.38,3.11-.8,4.64-1.25l-2.25-7.69h0v.1Zm6.76-2.24c-1.04.39-2.09.76-3.14,1.11h-.4l-.56.18,2.45,7.62c1.52-.49,3-1,4.54-1.57l-2.79-7.51h0l-.1.17Zm6.58-2.72c-1.33.61-2.7,1.2-4.09,1.75l3,7.43c1.48-.59,3-1.23,4.42-1.89l-3.37-7.22h0l.04-.07Zm6.37-3.17l-1.1.59h-.45l-1.83.91,3.51,7.2c1.43-.7,2.87-1.44,4.27-2.2l-3.82-7h0l-.58.5Zm6.13-3.62l-1.53,1h-.12l-.18.11h-.45l-.86.5,4,6.93c1.38-.8,2.76-1.64,4.1-2.49l-4.31-6.75h0l-.65.7Zm5.86-4l-.33.24h0l-1.11.8h-.16l-1.2.83,4.49,6.63c1.32-.89,2.64-1.83,3.92-2.78l-4.77-6.43h0l-.84.71Zm5.56-4.44l-.34.29h0c-.67.58-1.36,1.15-2.09,1.72h0l-.3.29h-.1l-.1.08h0l4.94,6.3c1.25-1,2.5-2,3.71-3l-5.21-6.08h0l-.51.4Zm5.24-4.82c-.92.91-1.86,1.81-2.82,2.68h0l-.13.11,5.37,5.94c1.18-1.07,2.36-2.18,3.49-3.3l-5.62-5.7h0l-.29.27Zm4.89-5.17h0l-.22.25h0v.05h0l-.5.56h0v.05h0v.05h0v.05h0l-.07.08h0l-1.1,1.16,5.77,5.55c1.1-1.15,2.2-2.34,3.25-3.53l-6-5.29h0l-1.13,1.02Zm4.51-5.5c-.91,1.19-1.85,2.36-2.81,3.49l6.15,5.13c1-1.22,2-2.48,3-3.75l-6.37-4.86h.03Zm4.12-5.81c-.81,1.24-1.66,2.46-2.53,3.66l6.49,4.69c.93-1.29,1.85-2.62,2.73-4l-6.69-4.4h0v.05Zm3.7-6.08c-.34.61-.67,1.21-1,1.81h0v.06h0v.06h0v.05h0v.06h0l-.88,1.44,6.81,4.22c.84-1.35,1.66-2.75,2.44-4.14l-7-3.92h0l-.37.36Zm3.26-6.33c-.63,1.33-1.3,2.67-2,4l7.09,3.73c.74-1.41,1.46-2.86,2.14-4.3l-7.27-3.42h.04Zm2.8-6.54c-.19.49-.38.97-.58,1.46h0v.06h0v.05h0v.06h0v.06h0c-.3.73-.61,1.45-.92,2.17l7.33,3.22c.64-1.46,1.26-3,1.83-4.44l-7.47-2.89h0l-.19.25Zm2.33-6.72l-.19.62h0v.22h0v.06h0c-.35,1.11-.72,2.2-1.11,3.29l7.54,2.69c.54-1.5,1-3,1.51-4.56l-7.65-2.35h0l-.1.03Zm1.85-6.87c-.09.4-.18.79-.28,1.18h0v.08h0c-.23.91-.47,1.82-.72,2.73l7.71,2.15c.43-1.54.83-3.1,1.19-4.66l-7.8-1.81h0l-.1.33Zm1.36-7c-.15.97-.32,1.93-.5,2.88h0v.08h0c-.09.45-.17.89-.26,1.33l7.85,1.6c.32-1.56.61-3.15.85-4.73l-7.91-1.25h0l-.03.09Zm.86-7.06c-.13,1.49-.29,2.96-.48,4.42l7.94,1c.21-1.58.38-3.18.52-4.77l-8-.69h0l.02.04Zm.37-7.11c0,.84-.02,1.68-.07,2.51h0v.09h0c0,.53-.03,1.07-.08,1.6l8,.48c.1-1.59.16-3.2.18-4.79l-8-.13h0l-.03.24Zm7.87-7.54l-8,.42v.05h0v.17h0v.13h0v.45h0v.13h0v.18h0v.12h0c0,.89.02,1.79.06,2.7l8-.07c0-1.59-.06-3.21-.15-4.79h0l.09.51Zm-.67-7.65l-7.95,1c.18,1.47.33,2.94.45,4.43l8-.63c-.13-1.59-.29-3.2-.48-4.78h0l-.02-.02Zm-1.22-7.57l-7.86,1.54c.09.45.17.91.26,1.36h0v.17h0v.15h0v.08h0v.23h0v.15h0v.13h0c.08.5.16,1,.24,1.51l7.92-1.19c-.24-1.58-.51-3.17-.82-4.73h0l.26.6Zm-1.74-7.49l-7.73,2.09c.16.59.32,1.19.47,1.79h0v.07h0v.09h0v.07h0c.18.72.35,1.44.51,2.17l7.82-1.75c-.35-1.56-.74-3.13-1.15-4.66h0l.08.13Zm-2.26-7.34l-7.56,2.64c.19.53.37,1.07.54,1.6h0v.24h0v.05h0v.06h0v.06h0v.06h0c.22.67.43,1.35.64,2.06l7.67-2.3c-.46-1.53-1-3.07-1.48-4.57h0l.19.1Zm-2.79-7.16l-7.36,3.17.17.4h0v.06h0v.05h0v.06h0v.21h0v.05h0v.05h0v.05h0v.05h0v.06h0v.06h0v.06h0v.05h0v.05h0v.05h0v.05h0v.06h0v.06h0v.05h0v.06h0v.06h0v.06h0v.06h0v.06h0v.06h0v.06h0l.98.94h0v.06h0v.05h0v.05h0v.06h0v.05h0v.06h0v.05h0v.05h0v.06h0v.05h0v.05h0v.05h0v.05h0v.05h0v.05h0v.05h0l8-2.45c-.56-1.49-1.17-3-1.8-4.45h.01Zm-3.32-6.94l-7.11,3.68c.67,1.33,1.33,2.67,2,4l7.22-3.37c-.67-1.45-1.38-2.9-2.11-4.31h0Zm-3.77-6.7l-6.84,4.17.89,1.53h0v.06h0v.05h0v.05h0v.05h0v.05h0v.06h0l.76,1.36,7-3.87c-.77-1.4-1.58-2.79-2.41-4.15h0l.6.64Zm-4.23-6.41l-6.53,4.64c.5.67.99,1.37,1.46,2.11h0v.06h0l.18.17h0v.06h0v.05h0v.05h0v.06h0l.11.17h0v.06h0l.57.87,6.72-4.35c-.87-1.34-1.77-2.67-2.7-4h0l.19.05Zm-4.67-6.1l-6.22,5.09.28.35h0l.21.26h0v.05h0v.05h0v.05h0l.56.74,6.4-4.81c-1-1.27-2-2.54-3-3.77h0l1.77,1.99Zm-5.08-5.79l-5.81,5.51.25.27h0l.08.08h0l.13.14h0v.05h0c.67.72,1.33,1.45,2,2.19l6-5.25c-1-1.2-2.13-2.4-3.22-3.56h0l.57.57Zm-5.47-5.39l-5.41,5.9.45.49h0l.1.09h0l8.32-3.09c-1.13-1.13-2.29-2.24-3.47-3.32h0v-.07Zm-5.84-5l-5,6.27c.85.67,1.69,1.36,2.52,2.07h.05l.21.18h.1l.53.45,5.26-6c-1.2-1-2.44-2.08-3.69-3.07h0l.02.1Zm-6.17-4.57l-4.53,6.6,1.71,1.2h.16l1.31,1,4.82-6.4c-1.27-1-2.58-1.9-3.9-2.8h0l.43.4Zm-6.49-4.04l-4.06,6.9.8.48h.16l.17.11h0c.71.43,1.42.88,2.11,1.34l4.36-6.72c-1.34-.87-2.71-1.72-4.08-2.52h0l.54.41Zm-6.76-3.66l-3.56,7.17.44.22h.82l.23.12h.07c.73.38,1.45.77,2.17,1.16l3.87-7c-1.4-.77-2.83-1.52-4.25-2.23h0l.21.56Zm-7-3.17l-3,7.41,2,.84h.22l1.54.7,3.37-7.27c-1.45-.67-2.93-1.32-4.4-1.92h0l.27.24Zm-7.21-2.67l-2.51,7.6,2.19.75h1.22l.19.07h.18l2.85-7.49c-1.49-.57-3-1.11-4.53-1.61h0l.41.68Zm-7.38-2.15l-2,7.76.74.19h.1c1.03.27,2.06.56,3.07.86h.09l.29.09,2.31-7.67c-1.53-.46-3.08-.89-4.63-1.28h0l.03.05Zm-7.5-1.65l-1.41,7.88h.41c1.33.24,2.65.51,3.95.81l1.73-7.74c-1.55-.35-3.14-.67-4.71-1h0l.03.05Zm-7.6-1.09l-.85,8,.74.08h1.48l2.2.31,1.2-7.92c-1.59-.08-3.19-.3-4.78-.47h.01Zm-7.66-.55l-.29,8,2.18.1h.14l2.12.15.64-8c-1.59-.13-3.2-.22-4.79-.28h0v.03ZM109,0V8h1.09L110.17,0h-1.17Z" style="fill: #4bd996; stroke-width: 0px;"/>
    <circle cx="109" cy="109" r="101" style="fill: none; stroke: #fff; stroke-miterlimit: 10; stroke-width: 12.46px;"/>
    <circle cx="109" cy="109" r="101" style="fill: #41d992; isolation: isolate; opacity: .39; stroke-width: 0px;"/>
    <path d="m116.76,121.43c-4.33,5.18-12.91,11-29.91,13.75l-.31,4.91s28.65,1.35,39.26-13.84c.71-1.02.83-2.33.33-3.46h0c-1.24-2.82-4.53-4.1-7.35-2.87-.78.34-1.47.86-2.02,1.51Z" style="fill: #ffeed1; stroke-width: 0px;"/>
    <path d="m107.59,137.63c1.18-.33,2.36-.7,3.54-1.12l-1.21-9.2c-1.17.73-2.37,1.39-3.6,2l1.27,8.32Z" style="fill: #89604a; isolation: isolate; opacity: .25; stroke-width: 0px;"/>
    <path d="m87.24,132.69c-.71-1.1-2-3.18-2.56-2.73s-.26,1.43.09,2.29c-.75.06-1.46.33-2.07.78-1.6-.52-3.52-1-3.45-.34.1,1,1.77,1.65,2.21,1.8h0c-.52-.14-2.7-.67-2.36.32.41.72,1.06,1.26,1.84,1.53v.22c-.85,0-2.14,0-1.87.39.5.45,1.09.79,1.73,1v.22c-.85-.06-2.06,0-1.48.85.8.77,1.83,1.25,2.93,1.37.58.39,1.24.66,1.93.79l.45.09c2.22.44,4.26-.43,4.7-2.65l.29-1.46c.33-1.86-.65-3.71-2.38-4.47Z" style="fill: #ffeed1; stroke-width: 0px;"/>
    <path d="m86.69,133.95l-2.27-2.95c.07.43.18.84.35,1.24-.43.04-.85.15-1.25.32-.27,2.25-.69,5.85-.85,8.16.46.24.95.41,1.46.51l.45.09c.95.21,1.93.13,2.83-.24l-.72-7.13Z" style="fill: #89604a; isolation: isolate; opacity: .25; stroke-width: 0px;"/>
    <path d="m119.55,119l-11.38,8.47,1.83,10.07s11.74-3.69,14-9.05-4.45-9.49-4.45-9.49Z" style="fill: #fc7a3e; stroke-width: 0px;"/>
    <path d="m118.92,119.48l-2.41,1.8c-1.62,4-3.44,9.77-3.2,15,2.09-.84,4.09-1.87,6-3.06l-.39-13.74Z" style="fill: #89604a; isolation: isolate; opacity: .25; stroke-width: 0px;"/>
    <path d="m146.46,152.16s3-27.37-7.18-36.61c-2.92-2.64-12.15-3.18-17.11,0-10.63,6.71-4.45,38.27-4.45,38.27l28.74-1.66Z" style="fill: #fc7a3e; stroke-width: 0px;"/>
    <polygon points="127.4 112.39 126.87 117.06 129.9 117.05 130.13 112.06 127.4 112.39" style="fill: #ffeed1; stroke-width: 0px;"/>
    <polygon points="127.4 112.39 126.87 117.06 129.9 117.05 130.13 112.06 127.4 112.39" style="fill: #89604a; isolation: isolate; opacity: .25; stroke-width: 0px;"/>
    <path d="m136.29,126.43l-20.35,15.36c.41,4.21,1,7.18,1,7.18,27.77-3.51,19.35-22.54,19.35-22.54Z" style="fill: #89604a; isolation: isolate; opacity: .25; stroke-width: 0px;"/>
    <path d="m60,151.75s8.83,3,11.29-9.51c-.02,0-14.56,1.13-11.29,9.51Z" style="fill: #b1d76a; stroke-width: 0px;"/>
    <path d="m60.69,167.42c.02-10.88-.58-21.75-1.82-32.56l-.29.13s2,24.49.18,32l1.93.43Z" style="fill: #89604a; stroke-width: 0px;"/>
    <path d="m59.67,143.58s8.49-.7,7.91-9c0-.02-9.02,2.18-7.91,9Z" style="fill: #18ab7d; stroke-width: 0px;"/>
    <path d="m60.31,154s-1.53-11-13.19-8.3c0,0,1.97,10.48,13.19,8.3Z" style="fill: #18ab7d; stroke-width: 0px;"/>
    <path d="m48.81,135.76s.22,9.95,10.07,8.64c-.01.01.75-9.95-10.07-8.64Z" style="fill: #b1d76a; stroke-width: 0px;"/>
    <path d="m58.82,135.78s5.41.1,4-5.51c.05,0-5.52,1.22-4,5.51Z" style="fill: #b1d76a; stroke-width: 0px;"/>
    <path d="m59,136.14s.25-4.35-4.3-3.43c0,0,.8,4.52,4.3,3.43" style="fill: #18ab7d; stroke-width: 0px;"/>
    <path d="m138.3,59s-29.3-5.72-28.84,24.3c.05,3.35-.76,3.9-1.55,5-.64.89-1.2.44-2.44.34-.44-.02-.81.31-.83.75,0,.08,0,.17.03.25l.61,2.1s-2.38,10,4.61,16.45c7.16,6.63,36.43,11.28,46.66-9s1.83-35.33-18.25-40.19Z" style="fill: #ffeed1; stroke-width: 0px;"/>
    <path d="m147.22,110.1s-9.34-10.58-10.22-19.79l-7,1.63s-1.72-3.73,6.52-14.3c0,0-13.19.58-16.72-15.91,0,0-6.83,2.63-9.1,12,0,0-7.19-2.72-5.72-13.76.82,1.73,1.8,3.38,2.93,4.93,0,0-3.9-8.41-1.07-15.21,0,0,7,4.53,11.81,4.69,0,0-5.32-3.1-6.39-5.88,0,0,9.44,2.7,11.39,2.48s29.57-4.22,40.33,11.37c13.53,19.76-1.03,48.18-16.76,47.75Z" style="fill: #89604a; stroke-width: 0px;"/>
    <path d="m106.74,95.72c3.12,2.09,7.21,2.02,10.26-.17.1-.09.11-.24.02-.34,0,0-.01-.01-.02-.02-.27-.35-.68-.58-1.12-.62-.13-.02-.24.07-.26.2-.01.1.04.2.14.24l1.17,1.17c.1.29.57.16.46-.13-.22-.72-.78-1.28-1.5-1.49l-.12.44c1.45.41-1.25,1.31-1.62,1.42-.74.22-1.5.34-2.27.36-1.76.03-3.5-.44-5-1.36-.09-.03-.19,0-.22.09-.03.07,0,.15.05.2h.03Z" style="fill: #89604a; stroke-width: 0px;"/>
    <path d="m123.5,75.2c-.71-1.15-1.54-2.33-3-2.49s-2.79,1.06-3.73,2.09c-.24.26.15.65.39.39.8-.89,1.68-1.85,3-1.83s2.24,1.06,3,2.08c.07.11.21.15.32.08s.15-.21.08-.32h-.06Z" style="fill: #89604a; stroke-width: 0px;"/>
    <ellipse cx="125.42" cy="96.89" rx="4.38" ry="3.33" transform="translate(-2.9 3.88) rotate(-1.75)" style="fill: #ffe5d4; stroke-width: 0px;"/>
    <path d="m119.88,91.55h0c2.74-.36,4.66-2.87,4.3-5.61,0,0,0-.01,0-.02l-.35-2.63c-.36-2.74-2.87-4.66-5.61-4.3,0,0-.01,0-.02,0h0c-2.74.36-4.66,2.87-4.3,5.61,0,0,0,.01,0,.02l.35,2.63c.36,2.74,2.87,4.66,5.61,4.3,0,0,.01,0,.02,0Z" style="fill: #fff; stroke-width: 0px;"/>
    <path d="m113.89,84.62c-.19-1.43.24-2.87,1.19-3.95.37-.2.78-.33,1.2-.39,2.42-.32,4.7,1.83,5.1,4.82s-1.24,5.67-3.66,6c-.22.02-.43.02-.65,0-1.54-.72-2.61-2.18-2.83-3.87l-.35-2.61Z" style="fill: #89604a; stroke-width: 0px;"/>
    <path d="m131.59,91.72s3.52-9.64,8.64-3.72c3.91,4.53,1.31,13.21-6.58,11.54" style="fill: #ffeed1; stroke-width: 0px;"/>
    <path d="m137.6,88.25c3.63.42,3.68,7.57-.66,8.59s-2.94-9.01.66-8.59Z" style="fill: #89604a; isolation: isolate; opacity: .25; stroke-width: 0px;"/>
    <path d="m121.51,148.43s-17.86,5.57-17.36,15.57c.67,13.5,29.58,7.5,29.58,7.5,0,0,.94,7.64,1.84,6.81,1.8-1.66.69-12,.69-12l-6.75-.51-8-17.37Z" style="fill: #ffeed1; stroke-width: 0px;"/>
    <path d="m132.83,166l-3.32-.25-.33-.71h-.37l-1.81,6.22,2.54,1c1.19-.16,2.18-.32,2.91-.44.08-1.73.23-4.4.38-5.82Z" style="fill: #89604a; isolation: isolate; opacity: .25; stroke-width: 0px;"/>
    <path d="m133.19,172.17l1.63-.44.18-5.73,1.76.18s.66,12.19-.78,13-2.88-5.36-2.79-7.01Z" style="fill: #fc7a3e; stroke-width: 0px;"/>
    <path d="m131.68,163l-.59,9s-19.71,4.75-26.79-3.28,7.38-18.4,15.12-18.75,12.26,13.03,12.26,13.03Z" style="fill: #89604a; stroke-width: 0px;"/>
    <path d="m131.68,163l-.59,9s-19.71,4.75-26.79-3.28,7.38-18.4,15.12-18.75,12.26,13.03,12.26,13.03Z" style="fill: #89604a; isolation: isolate; opacity: .25; stroke-width: 0px;"/>
    <path d="m111.82,163.39s12.73-3.86,19.74.47c-6.52-1.11-13.17-1.27-19.74-.47Z" style="fill: #89604a; isolation: isolate; opacity: .25; stroke-width: 0px;"/>
    <path d="m115.51,148.85c-4.06,8.07,1.73,24.55,1.73,24.55,0,0-8.48,1.93-6.48,2.81s11.76-.13,11.76-.13l-.36-18.23s11.19,9.27,21.9,5.16c3.56-1.36,6.35-6.91,1.84-10.56-10.05-8.14-27.9-8.51-30.39-3.6Z" style="fill: #ffeed1; stroke-width: 0px;"/>
    <path d="m122.35,167.41l-7-.74c.47,2.09,1,3.87,1.34,5.08l5.74.42-.08-4.76Z" style="fill: #89604a; isolation: isolate; opacity: .25; stroke-width: 0px;"/>
    <path d="m116.74,173.21l.58,1.59,5.74-.28v1.77s-12.09,1.66-13,.29,5.04-3.33,6.68-3.37Z" style="fill: #fc7a3e; stroke-width: 0px;"/>
    <path d="m115.14,170.34l8.53.6-.67-11.28s8.77,6.88,18.07,5,9.93-9.87,4-13.68-18.75-9.86-29.5-3.19c-5.28,3.28-.43,22.55-.43,22.55Z" style="fill: #89604a; stroke-width: 0px;"/>
    <path d="m85.52,129.77s18,6.56,23.61-19.1c0,0-29.95,1.74-23.61,19.1Z" style="fill: #b1d76a; stroke-width: 0px;"/>
    <path d="m86.34,162c.49-22.36-.32-44.73-2.43-67l-.61.25s3,50.44-.94,65.92l3.98.83Z" style="fill: #89604a; stroke-width: 0px;"/>
    <path d="m85.22,113s17.49-1.09,16.64-18.24c0-.04-18.65,4.13-16.64,18.24Z" style="fill: #18ab7d; stroke-width: 0px;"/>
    <path d="m86.1,134.41s-2.7-22.58-26.79-17.6c0,0,3.63,21.63,26.79,17.6Z" style="fill: #18ab7d; stroke-width: 0px;"/>
    <path d="m63.19,96.43s0,20.47,20.36,18.19c0,0,1.94-20.45-20.36-18.19Z" style="fill: #b1d76a; stroke-width: 0px;"/>
    <path d="m83.79,96.87s11.13.43,8.55-11.16c0,0-11.5,2.29-8.55,11.16Z" style="fill: #b1d76a; stroke-width: 0px;"/>
    <path d="m84.12,97.61s.7-8.94-8.71-7.23c0,0,1.46,9.32,8.71,7.23" style="fill: #18ab7d; stroke-width: 0px;"/>
    <path d="m127.6,127.27c-2.82,5.71-10.8,14.54-33.36,17.61l-.43,4.9s30.75,2.22,40.73-14.57l-3.22-7.8c-.37-1.04-1.51-1.59-2.55-1.23-.52.18-.95.58-1.17,1.09Z" style="fill: #ffeed1; stroke-width: 0px;"/>
    <path d="m116.11,138.38l3.76,8c2.08-.75,4.09-1.68,6-2.78l-1.42-8-4.87.75c-1.12.74-2.28,1.42-3.47,2.03Z" style="fill: #89604a; isolation: isolate; opacity: .25; stroke-width: 0px;"/>
    <path d="m122,146.24l-5.15-10.44s4.89-5.57,11.37-12.6c4.59-5,11.79,5.88,6.92,13.89-2.9,4.76-7.67,8.08-13.14,9.15Z" style="fill: #fc7a3e; stroke-width: 0px;"/>
    <path d="m94.69,142.41c-.68-1.12-1.93-3.23-2.49-2.79s-.29,1.42,0,2.29c-.75.05-1.47.3-2.09.73-1.59-.56-3.49-1.1-3.44-.43.08,1,1.73,1.69,2.16,1.86h0c-.51-.15-2.69-.73-2.37.26.39.72,1.03,1.28,1.8,1.57v.22c-.85-.05-2.14-.07-1.88.35.48.48,1.06.85,1.7,1.09v.22c-.85-.08-2.06-.07-1.5.82.78.77,1.8,1.26,2.89,1.4.57.41,1.22.69,1.9.84l.44.1c2.21.49,4.27-.33,4.77-2.53l.33-1.41c.42-1.86-.5-3.76-2.22-4.59Z" style="fill: #ffeed1; stroke-width: 0px;"/>
  </g>
</svg>