<svg xmlns="http://www.w3.org/2000/svg" viewBox="0 0 1484.5 59"><defs><style>.cls-1{isolation:isolate;}.cls-2{fill:#1f1e21;mix-blend-mode:overlay;}.cls-3{fill:#66c8d1;}.cls-4{fill:#f2f2f2;}.cls-5{fill:#fff;}.cls-6{opacity:0.7;}.cls-7{fill:#53a6aa;opacity:0.4;}</style></defs><title>discover_top</title><g class="cls-1"><g id="_圖層_2" data-name=" 圖層 2"><rect class="cls-2" x="187.05" y="19.78" width="1108.43" height="418.41" rx="24.1" ry="24.1"/><rect class="cls-3" x="193.67" y="13.16" width="1108.43" height="418.41" rx="24.1" ry="24.1"/><path class="cls-4" d="M1298.1,37.72V407.93A20.11,20.11,0,0,1,1278,428H217.77a20.11,20.11,0,0,1-20.1-20.1V37.72a20.11,20.11,0,0,1,20.1-20.1H1278a20.14,20.14,0,0,1,11.46,3.59A20.1,20.1,0,0,1,1298.1,37.72Z"/><path class="cls-5" d="M1295.1,37.72V42.3A17.11,17.11,0,0,0,1281,25.47a16.88,16.88,0,0,0-3-.27H217.77a17.11,17.11,0,0,0-17.1,17.1V37.72a17.11,17.11,0,0,1,17.1-17.1H1278a17.1,17.1,0,0,1,9.74,3.05A17.14,17.14,0,0,1,1295.1,37.72Z"/><g class="cls-6"><path class="cls-7" d="M1278.23,13.16v4.32a19.8,19.8,0,0,0-3.56-.32H454.35v-4h823.88Z"/></g></g></g></svg>