<svg xmlns="http://www.w3.org/2000/svg" viewBox="0 0 1484.5 270"><defs><style>.cls-1{isolation:isolate;}.cls-2{fill:#1f1e21;mix-blend-mode:overlay;}.cls-3{fill:#66c8d1;}.cls-4{fill:#f2f2f2;}.cls-5{fill:#d3d6d5;opacity:0.7;}</style></defs><title>discover_bottom</title><g class="cls-1"><g id="_圖層_2" data-name=" 圖層 2"><rect class="cls-2" x="187.05" y="-260.22" width="1108.43" height="418.41" rx="24.1" ry="24.1"/><rect class="cls-3" x="193.67" y="-266.84" width="1108.43" height="418.41" rx="24.1" ry="24.1"/><path class="cls-4" d="M1298.1-242.28V127.93A20.11,20.11,0,0,1,1278,148H217.77a20.11,20.11,0,0,1-20.1-20.1V-242.28a20.1,20.1,0,0,1,8.64-16.51,20,20,0,0,1,11.46-3.59H1278a19.81,19.81,0,0,1,3.56.32,19.83,19.83,0,0,1,7.9,3.27A20.1,20.1,0,0,1,1298.1-242.28Z"/><path class="cls-5" d="M1295.1,123.35v4.58a17.14,17.14,0,0,1-7.36,14A16.91,16.91,0,0,1,1278,145H217.77a17.1,17.1,0,0,1-17.1-17.1v-4.58a17.1,17.1,0,0,0,17.1,17.1H1278A17.11,17.11,0,0,0,1295.1,123.35Z"/></g></g></svg>