<svg xmlns="http://www.w3.org/2000/svg" viewBox="0 0 1484.5 59"><defs><style>.cls-1{isolation:isolate;}.cls-2{fill:#1f1e21;mix-blend-mode:overlay;}.cls-3{fill:#66c8d1;}.cls-4{fill:#f2f2f2;}</style></defs><title>discover_middle</title><g class="cls-1"><g id="_圖層_2" data-name=" 圖層 2"><rect class="cls-2" x="187.3" y="-175.22" width="1108.43" height="418.41" rx="24.1" ry="24.1"/><rect class="cls-3" x="193.92" y="-181.84" width="1108.43" height="418.41" rx="24.1" ry="24.1"/><path class="cls-4" d="M1298.35-157.28V212.93a20.11,20.11,0,0,1-20.1,20.1H218a20.11,20.11,0,0,1-20.1-20.1V-157.28a20.1,20.1,0,0,1,8.64-16.51A20,20,0,0,1,218-177.38H1278.25a19.81,19.81,0,0,1,3.56.32,19.83,19.83,0,0,1,7.9,3.27A20.1,20.1,0,0,1,1298.35-157.28Z"/></g></g></svg>