<?xml version="1.0" encoding="UTF-8"?>
<svg id="_圖層_2" data-name=" 圖層 2" xmlns="http://www.w3.org/2000/svg" version="1.1" viewBox="0 0 280 146.9">
  <defs>
    <style>
      .cls-1 {
        fill: none;
        stroke: #fff;
        stroke-miterlimit: 10;
        stroke-width: 1.5px;
      }

      .cls-2 {
        fill: #fff;
      }

      .cls-2, .cls-3, .cls-4 {
        stroke-width: 0px;
      }

      .cls-3 {
        fill: #00b7b2;
      }

      .cls-4 {
        fill: #00827b;
      }
    </style>
  </defs>
  <g id="_版頭版尾" data-name=" 版頭版尾">
    <g id="e-book">
      <rect class="cls-4" width="280" height="146.9" rx="10.1" ry="10.1"/>
      <path class="cls-3" d="M272,146.9H82.4L206.8,0h65.1c4.4,0,8,5.7,8,12.8v121.3c0,7.1-3.6,12.8-8,12.8Z"/>
      <rect class="cls-1" x="7.6" y="11.1" width="264.9" height="124.6" rx="8.7" ry="8.7"/>
      <path class="cls-2" d="M168.2,31.2h-52.8c-5.8,0-10.6,4.7-10.6,10.6v63.4c0,5.8,4.7,10.6,10.6,10.6h59.9V38.2c0-3.9-3.2-7-7-7ZM168.2,94.6h-42.3v-56.3h14.1v31.7l8.8-8.8,8.8,8.8v-31.7h10.6v56.3ZM115.4,38.2h3.5v56.3h-3.5c-1.2,0-2.4.2-3.5.6v-53.4c0-1.9,1.6-3.5,3.5-3.5ZM115.4,108.6c-1.9,0-3.5-1.6-3.5-3.5s1.6-3.5,3.5-3.5h52.8v7h-52.8Z"/>
    </g>
  </g>
</svg>