<?xml version="1.0" encoding="UTF-8"?>
<svg id="_圖層_2" data-name=" 圖層 2" xmlns="http://www.w3.org/2000/svg" version="1.1" viewBox="0 0 280 146.9">
  <defs>
    <style>
      .cls-1 {
        fill: #fff;
      }

      .cls-1, .cls-2, .cls-3 {
        stroke-width: 0px;
      }

      .cls-4 {
        fill: none;
        stroke: #fff;
        stroke-miterlimit: 10;
        stroke-width: 1.5px;
      }

      .cls-2 {
        fill: #00b7b2;
      }

      .cls-3 {
        fill: #00827b;
      }
    </style>
  </defs>
  <g id="_版頭版尾" data-name=" 版頭版尾">
    <g id="e-book">
      <rect class="cls-3" width="280" height="146.9" rx="10.1" ry="10.1"/>
      <path class="cls-2" d="M272,146.9H82.4L206.8,0h65.1c4.4,0,8,5.7,8,12.8v121.3c0,7.1-3.6,12.8-8,12.8h.1Z"/>
      <rect class="cls-4" x="7.6" y="11.1" width="264.9" height="124.6" rx="8.7" ry="8.7"/>
      <g>
        <path class="cls-1" d="M161.5,30.7h-63.8v85.5h84.7V30.7h-20.9ZM150.6,36.1h5.5v11.1h-5.5v-11.1ZM131.3,36.1h13.9v11.1h-13.9v-11.1ZM120.4,36.1h5.5v11.1h-5.5v-11.1ZM103,36.1h12.1v11.1h-12.1v-11.1ZM115.1,110.8h-12.1v-11.1h12.1v11.1h0ZM125.9,110.8h-5.5v-11.1h5.5v11.1ZM145.2,110.8h-13.9v-11.1h13.9v11.1ZM156.1,110.8h-5.5v-11.1h5.5v11.1ZM177,110.8h-15.5v-11.1h15.5v11.1ZM177,94.4h-74v-41.9h74v41.9h0ZM177,47.1h-15.5v-11.1h15.5v11.1Z"/>
        <path class="cls-1" d="M137.2,80.1l9.3-7.2-9.3-7.2v14.3Z"/>
        <path class="cls-1" d="M140,56c-9.6,0-17.5,7.8-17.5,17.5s7.8,17.5,17.5,17.5,17.5-7.8,17.5-17.5-7.8-17.5-17.5-17.5h0ZM140,85.5c-6.7,0-12.1-5.4-12.1-12.1s5.4-12.1,12.1-12.1,12.1,5.4,12.1,12.1-5.4,12.1-12.1,12.1Z"/>
      </g>
    </g>
  </g>
</svg>