<?xml version="1.0" encoding="UTF-8"?>
<svg id="_圖層_2" data-name="圖層 2" xmlns="http://www.w3.org/2000/svg" width="280" height="146.85" xmlns:xlink="http://www.w3.org/1999/xlink" viewBox="0 0 280 146.85">
  <defs>
    <filter id="drop-shadow-2" filterUnits="userSpaceOnUse">
      <feOffset dx="0" dy="2.52"/>
      <feGaussianBlur result="blur" stdDeviation="7.57"/>
      <feFlood flood-color="#000" flood-opacity=".75"/>
      <feComposite in2="blur" operator="in"/>
      <feComposite in="SourceGraphic"/>
    </filter>
  </defs>
  <g id="_版頭版尾" data-name="版頭版尾">
    <g id="e-book">
      <rect x="0" y="0" width="280" height="146.85" rx="10.12" ry="10.12" style="fill: #00827b; stroke-width: 0px;"/>
      <path d="M271.99,146.85H82.42L206.84,0h65.15c4.43,0,8.01,5.72,8.01,12.77v121.31c0,7.05-3.59,12.77-8.01,12.77Z" style="fill: #00b7b2; stroke-width: 0px;"/>
      <rect x="7.56" y="11.13" width="264.88" height="124.59" rx="8.71" ry="8.71" style="fill: none; stroke: #fff; stroke-miterlimit: 10; stroke-width: 1.47px;"/>
      <g style="filter: url(#drop-shadow-2);">
        <path d="M70.89,69.16v2.04h-13.63v-2.04h5.33v-1.06h-4.37v-1.9h4.37v-.96h-4.97v-.89c-.62,1.56-1.3,3.26-1.8,4.39l-1.58-.6v1.27h2.57v2.66h-2.57v1.68l1.01-.72c.48.55,2.11,2.9,2.5,3.48l-1.8,2.06c-.36-.94-1.1-2.52-1.7-3.65v8.93h-2.5v-7.94c-.53,2.04-1.3,4.06-2.3,5.23-.24-.84-.77-2.11-1.18-2.93.96-1.22,1.87-3.43,2.21-5.26l1.27.46v-1.34h-3.07v-2.66h3.07v-7.94h2.5v6.14c.48-1.34.98-3.22,1.25-4.56l2.14.67v-.53h4.97v-1.75h2.76v1.75h5.23v2.04h-5.23v.96h4.75v1.9h-4.75v1.06h5.54ZM49.65,68.64c-.14-1.39-.6-3.53-1.03-5.14l1.97-.48c.46,1.61.96,3.72,1.15,5.09l-2.09.53ZM69.74,81.28c0,1.2-.22,1.82-1.06,2.18-.79.36-1.92.41-3.43.38-.1-.67-.43-1.63-.74-2.26.89.02,1.9.02,2.18.02.31,0,.41-.1.41-.36v-1.01h-6.5c-.29,1.39-.84,2.76-1.75,3.82-.41-.5-1.46-1.49-1.99-1.8,1.39-1.68,1.54-3.94,1.54-5.81v-4.27h11.35v9.1ZM67.1,78.4v-1.15h-6.14c-.02.38-.05.77-.07,1.15h6.22ZM60.95,74.28v1.13h6.14v-1.13h-6.14Z" style="fill: #fff; stroke-width: 0px;"/>
        <path d="M79.67,73.27c-.26,1.85-.62,3.48-1.13,4.9,1.39,2.52,4.1,2.83,8.09,2.86,2.54,0,6.5-.14,9.19-.41-.38.58-.74,1.87-.89,2.64-2.5.17-5.57.22-8.38.22-4.44,0-7.22-.46-9.05-2.98-.79,1.46-1.73,2.57-2.83,3.41-.36-.58-1.3-1.56-1.82-1.92,1.97-1.37,3.36-3.74,4.03-6.94h-1.56c-.5,0-1.18.17-1.39.36-.14-.58-.65-1.78-.91-2.28.38-.1.77-.29,1.15-.77.36-.41,1.2-1.75,1.94-3.02h-2.71v-2.26h4.18l.38-.14,1.73.67c-.74,1.32-2.06,3.58-3.14,5.23h1.32l.46-.07,1.34.5ZM76.74,66.67c-.62-1.01-2.02-2.69-3.12-3.86l2.11-1.32c1.13,1.15,2.5,2.64,3.22,3.6l-2.21,1.58ZM86.97,67.36c-.19.58-.36,1.46-.41,1.94-4.9.82-5.66.96-6.14,1.2-.12-.58-.58-1.61-.94-2.11.38-.19.79-.6.79-1.56v-4.58h6.65v4.56h-4.44v1.18l4.49-.62ZM95.13,77.04h-4.44c1.46.74,3.02,1.63,3.98,2.3l-2.54,1.18c-.86-.74-2.4-1.78-3.84-2.5l1.49-.98h-5.04l2.04.7c-1.2,1.1-3.12,2.23-4.7,2.88-.5-.48-1.51-1.32-2.14-1.7,1.51-.48,3.1-1.15,4.1-1.87h-4.39v-2.06h3.79v-1.49h-2.93v-2.06h2.93v-1.27h2.62v1.27h2.62v-1.27h2.64v1.27h2.95v2.06h-2.95v1.49h3.82v2.06ZM82.48,64v1.08h2.06v-1.08h-2.06ZM86.06,74.97h2.62v-1.49h-2.62v1.49ZM90.52,69.81c-2.16,0-2.69-.82-2.69-2.88v-4.66h6.82v4.56h-4.56v.12c0,.67.1.91.6.91h2.47c.48,0,1.25-.02,1.66-.14.05.6.12,1.39.19,1.92-.41.12-1.13.17-1.78.17h-2.71ZM90.09,64.03v1.08h2.14v-1.08h-2.14Z" style="fill: #fff; stroke-width: 0px;"/>
        <path d="M102.57,79.03c-.65,1.44-1.7,3.1-2.59,4.13-.43-.41-1.42-1.15-1.97-1.49.86-.89,1.68-2.16,2.18-3.36l2.38.72ZM111.47,72.45h-13.42v-2.16h5.38c-.12-.26-.22-.5-.34-.72l1.87-.38h-5.86v-6.89h11.52v6.89h-4.7c.19.34.41.72.55,1.1h4.99v2.16ZM106.14,78.21v3.14c0,1.18-.17,1.75-.98,2.11-.74.34-1.75.36-3.02.36-.12-.72-.46-1.63-.79-2.28.72.02,1.46.02,1.7.02s.31-.07.31-.29v-3.07h-3.86v-4.94h10.8v4.94h-4.15ZM101.82,64.91h5.98v-.89h-5.98v.89ZM101.82,67.46h5.98v-.91h-5.98v.91ZM102.14,76.36h5.38v-1.25h-5.38v1.25ZM120.09,76.05c-1.8,3.22-4.63,5.88-7.78,7.63-.43-.7-1.2-1.58-1.9-2.18.07.19.14.36.22.53l-2.11,1.01c-.36-1.01-1.2-2.66-1.97-3.91l2.02-.84c.6.94,1.34,2.21,1.8,3.14,2.83-1.34,5.62-3.65,7.08-6.36l2.64.98ZM119.11,62.97c-1.63,2.3-4.03,4.39-6.31,5.81-.46-.6-1.3-1.46-2.02-1.99,2.02-1.08,4.39-3.02,5.64-4.92l2.69,1.1ZM119.63,69.45c-1.78,2.42-4.37,4.66-6.82,6.14-.46-.65-1.25-1.46-1.97-1.99,2.18-1.2,4.82-3.22,6.17-5.26l2.62,1.1Z" style="fill: #fff; stroke-width: 0px;"/>
        <path d="M144.28,68.88v2.54h-21.53v-2.54h5.26c-.22-.82-.58-1.75-.96-2.5l2.33-.46h-5.28v-2.52h8.09c-.19-.6-.48-1.22-.74-1.73l2.98-.48c.41.65.77,1.49,1.01,2.21h7.73v2.52h-4.97l2.21.48c-.41.89-.82,1.73-1.2,2.47h5.09ZM125.73,72.88h15.82v11.02h-3v-.82h-9.94v.84h-2.88v-11.04ZM128.61,75.26v1.58h9.94v-1.58h-9.94ZM138.55,80.73v-1.73h-9.94v1.73h9.94ZM129.9,65.92c.58.91,1.06,2.09,1.22,2.95h4.94c.38-.89.82-2.02,1.08-2.95h-7.25Z" style="fill: #fff; stroke-width: 0px;"/>
        <path d="M155.18,72.67c0,1.68-1.39,3.07-3.07,3.07s-3.07-1.39-3.07-3.07,1.39-3.07,3.07-3.07,3.07,1.39,3.07,3.07Z" style="fill: #fff; stroke-width: 0px;"/>
        <path d="M162.78,70.56h-2.62v-5.4h9.07v-.96h-7.99v-1.87h18.82v1.87h-8.04v.96h9.26v5.4h-2.76l-.5,1.7c-1.27-.46-3.74-1.03-5.54-1.32l.55-1.61c1.7.19,4.08.7,5.4,1.13v-3.43h-1.3l.86,1.22c-1.27.53-3.02.91-4.27,1.15l-.89-1.34c.94-.22,2.28-.65,3.29-1.03h-4.1v4.99h-2.78v-4.99h-4.58c1.3.24,2.83.65,3.74.98l-.77,1.54c-.96-.38-2.76-.89-4.13-1.18l.67-1.34h-1.3v3.29c1.46-.17,3.48-.46,5.54-.77l.1,1.63c-1.8.41-3.58.82-5.09,1.15l-.65-1.78ZM178.1,81.38c1.22,0,1.44-.36,1.61-2.38.55.38,1.63.74,2.38.89-.34,2.88-1.13,3.65-3.74,3.65h-5.04c-3.26,0-4.2-.67-4.2-3.17v-.07h-3.98v1.03h-2.74v-8.71h16.63v7.68h-7.18v.07c0,.86.29,1.01,1.73,1.01h4.54ZM165.11,74.54v1.08h3.98v-1.08h-3.98ZM169.1,78.38v-1.08h-3.98v1.08h3.98ZM176.18,74.54h-4.34v1.08h4.34v-1.08ZM176.18,78.38v-1.08h-4.34v1.08h4.34Z" style="fill: #fff; stroke-width: 0px;"/>
        <path d="M206.23,74.68h-9.31v5.78c0,1.61-.36,2.4-1.49,2.86-1.18.46-2.81.53-5.02.5-.17-.84-.74-2.14-1.22-2.95,1.68.1,3.55.1,4.06.07.53-.02.7-.14.7-.55v-5.71h-9.5v-2.86h9.5v-3.34c1.51-.72,3.24-1.8,4.63-2.83h-11.76v-2.83h14.95l.67-.14,2.16,1.66c-2.04,2.02-4.92,4.18-7.68,5.66v1.82h9.31v2.86Z" style="fill: #fff; stroke-width: 0px;"/>
        <path d="M221.22,69.98v.84h7.68v1.73h-7.68v.86h9.43v1.99h-21.53v-1.99h9.24v-.86h-7.56v-1.73h7.56v-.84h-7.03v-1.66h7.03v-.91h-9.22v-1.97h9.22v-.89h-6.77v-1.66h6.77v-1.51h2.86v1.51h6.7v2.54h2.74v1.97h-2.74v2.57h-6.7ZM212.13,76.15h15.91v7.78h-2.88v-.7h-10.27v.72h-2.76v-7.8ZM214.89,77.97v.86h10.27v-.86h-10.27ZM225.16,81.43v-.94h-10.27v.94h10.27ZM221.22,65.44h3.86v-.89h-3.86v.89ZM221.22,68.32h3.86v-.91h-3.86v.91Z" style="fill: #fff; stroke-width: 0px;"/>
      </g>
    </g>
  </g>
</svg>