<?xml version="1.0" encoding="UTF-8"?>
<svg id="_圖層_2" data-name=" 圖層 2" xmlns="http://www.w3.org/2000/svg" version="1.1" viewBox="0 0 280 146.9">
  <defs>
    <style>
      .cls-1 {
        fill: #fff;
      }

      .cls-1, .cls-2, .cls-3 {
        stroke-width: 0px;
      }

      .cls-4 {
        fill: none;
        stroke: #fff;
        stroke-miterlimit: 10;
        stroke-width: 1.5px;
      }

      .cls-2 {
        fill: #00b7b2;
      }

      .cls-3 {
        fill: #00827b;
      }
    </style>
  </defs>
  <g id="_版頭版尾" data-name=" 版頭版尾">
    <g id="e-book">
      <rect class="cls-3" y="0" width="280" height="146.9" rx="10.1" ry="10.1"/>
      <path class="cls-2" d="M272,146.9H82.4L206.8,0h65.1C276.3,0,279.9,5.7,279.9,12.8v121.3c0,7.1-3.6,12.8-8,12.8h.1Z"/>
      <rect class="cls-4" x="7.6" y="11.1" width="264.9" height="124.6" rx="8.7" ry="8.7"/>
    </g>
  </g>
  <path id="Layer_1" class="cls-1" d="M161.3,60.5c-1.9,0-3.5,1.6-3.5,3.5s1.6,3.5,3.5,3.5c1.9,0,3.5-1.6,3.5-3.5,0-1.9-1.6-3.5-3.5-3.5ZM161.3,69.4c-3,0-5.4-2.4-5.4-5.4,0-3,2.4-5.4,5.4-5.4s5.4,2.4,5.4,5.4-2.4,5.4-5.4,5.4ZM161.3,57.9c-.5,0-.9-.4-.9-.9v-1.9c0-.5.4-.9.9-.9s.9.4.9.9v1.9c0,.5-.4.9-.9.9ZM166.2,60c-.2,0-.5,0-.7-.3-.4-.4-.4-1,0-1.3l1.3-1.3c.4-.4.9-.4,1.3,0,.4.4.4.9,0,1.3l-1.3,1.3c-.2.2-.4.3-.7.3h0ZM170.2,64.9h-1.9c-.5,0-.9-.4-.9-.9s.4-.9.9-.9h1.9c.5,0,.9.4.9.9,0,.5-.4.9-.9.9ZM167.6,71.2c-.2,0-.5,0-.7-.3l-1.3-1.3c-.4-.4-.4-1,0-1.3.4-.4.9-.4,1.3,0l1.3,1.3c.4.4.4.9,0,1.3-.2.2-.4.3-.7.3h0ZM161.3,73.9c-.5,0-.9-.4-.9-.9v-1.9c0-.5.4-.9.9-.9s.9.4.9.9v1.9c0,.5-.4.9-.9.9h0ZM155,71.2c-.2,0-.5,0-.7-.3-.4-.4-.4-1,0-1.3l1.3-1.3c.4-.4.9-.4,1.3,0,.4.4.4.9,0,1.3l-1.3,1.3c-.2.2-.4.3-.7.3h0ZM154.3,64.9h-1.9c-.5,0-.9-.4-.9-.9s.4-.9.9-.9h1.9c.5,0,.9.4.9.9s-.4.9-.9.9ZM156.3,60c-.2,0-.5,0-.7-.3l-1.3-1.3c-.4-.4-.4-1,0-1.3.4-.4,1-.4,1.3,0l1.3,1.3c.4.4.4.9,0,1.3-.2.2-.4.3-.7.3h0ZM172.8,52.3h0,0ZM125.8,94.6h46.9v-42.4h-46.9v42.4ZM172.8,96.5h-46.9c-1,0-1.8-.8-1.8-1.8v-42.4c0-1,.8-1.8,1.8-1.8h46.9c1,0,1.8.8,1.8,1.8v42.4c0,1-.8,1.8-1.8,1.8h0ZM164.4,96.5c-.2,0-.4,0-.6-.2-2-1.6-3.9-2.6-6.1-2.8-5.7-.7-8.6-3.3-11.5-5.8-1.2-1.1-2.5-2.2-3.9-3.2-2.2-1.4-6.1-3.2-9.6-4.5-5.1-1.8-6.9-1.6-7.2-1.3-.4.3-1,.2-1.3-.2-.3-.4-.2-1,.2-1.3,2.9-2.3,15.5,3.5,19,5.7,1.6,1,2.9,2.2,4.1,3.3,2.7,2.4,5.3,4.8,10.4,5.4,2.5.3,4.8,1.4,7.1,3.2.4.3.4.9.1,1.3-.2.2-.4.3-.7.3h0ZM160.2,94c-.4,0-.7-.2-.9-.6l-4.2-12.3-4.5,8.7c-.2.5-.8.6-1.3.4-.5-.2-.6-.8-.4-1.3l5.5-10.7c.2-.3.5-.5.9-.5.4,0,.7.3.8.6l4.9,14.3c.2.5,0,1-.6,1.2-.1,0-.2,0-.3,0ZM152.6,84.9c-.3,0-.7-.2-.8-.5l-5-9.7-4.4,8.6c-.2.5-.8.6-1.3.4-.5-.2-.6-.8-.4-1.2l5.3-10.2c.2-.3.5-.5.8-.5.3,0,.7.2.8.5l5.8,11.3c.2.5,0,1-.4,1.3-.1,0-.3.1-.4.1h0ZM126.2,87.1c-.9,0-1.4,0-1.5-.1-.5-.1-.8-.6-.7-1.1.1-.5.6-.8,1.1-.7,0,0,5.4.9,13-4.5.4-.3,1-.2,1.3.2s.2,1-.2,1.3c-6,4.3-10.7,4.9-12.9,4.9h0ZM135.2,96.5c-.2,0-.4,0-.5-.2-.4-.3-.5-.9-.2-1.3.3-.4,6.8-9.6,13.6-8.1.5.1.8.6.7,1.1-.1.5-.6.8-1.1.7-5.6-1.2-11.6,7.3-11.7,7.4-.2.3-.5.4-.8.4ZM133.6,69c-.4,0-.7-.2-.8-.5-1.2-2.5-3-2.4-3-2.4-.5,0-1-.3-1-.8,0-.5.3-1,.8-1,.1,0,2.3-.2,4,2.1,1.7-2.3,3.9-2.1,4-2.1.5,0,.9.5.8,1,0,.5-.5.9-1,.8,0,0-1.8,0-3,2.4-.2.3-.5.5-.8.5ZM141.9,61.2c-.4,0-.7-.2-.8-.5-1.2-2.5-2.9-2.4-3-2.4-.5,0-1-.3-1-.8s.3-1,.9-1c.1,0,2.3-.2,4,2.1,1.7-2.3,3.9-2.1,4-2.1.5,0,.9.5.8,1,0,.5-.5.9-1,.8,0,0-1.8,0-3,2.4-.2.3-.5.5-.8.5h0ZM109.3,63.2c-.5,0-.9-.4-.9-.9v-10.2c0-.5.4-.9.9-.9s.9.4.9.9v10.2c0,.5-.4.9-.9.9ZM109.3,79.5c-.5,0-.9-.4-.9-.9v-10.2c0-.5.4-.9.9-.9s.9.4.9.9v10.2c0,.5-.4.9-.9.9h0ZM109.3,95.7c-.5,0-.9-.4-.9-.9v-10.2c0-.5.4-.9.9-.9s.9.4.9.9v10.2c0,.5-.4.9-.9.9ZM175.6,116h-63.2c-2.2,0-3.9-1.6-3.9-3.7v-11.4c0-.5.4-.9.9-.9s.9.4.9.9v11.4c0,1,.9,1.8,2.1,1.8h63.2c1.1,0,2.1-.8,2.1-1.8V33.2c0-.2-.3-.4-.6-.4h-66.2c-.3,0-.6.2-.6.4v12.7c0,.5-.4.9-.9.9s-.9-.4-.9-.9v-12.7c0-1.3,1.1-2.3,2.4-2.3h66.2c1.3,0,2.4,1,2.4,2.3v79.1c0,2-1.8,3.7-3.9,3.7h0ZM120,116c-.5,0-.9-.4-.9-.9V31.9c0-.5.4-.9.9-.9.5,0,.9.4.9.9v83.2c0,.5-.4.9-.9.9ZM104.5,46.9c-1.2,0-2.1,1-2.1,2.1,0,1.2,1,2.1,2.1,2.1h8.4c1.2,0,2.1-1,2.1-2.1s-1-2.1-2.1-2.1h-8.4ZM112.9,53h-8.4c-2.2,0-4-1.8-4-4s1.8-4,4-4h8.4c2.2,0,4,1.8,4,4,0,2.2-1.8,4-4,4ZM104.5,63.2c-1.2,0-2.1,1-2.1,2.1,0,1.2,1,2.1,2.1,2.1h8.4c1.2,0,2.1-1,2.1-2.1s-1-2.1-2.1-2.1h-8.4ZM112.9,69.3h-8.4c-2.2,0-4-1.8-4-4s1.8-4,4-4h8.4c2.2,0,4,1.8,4,4,0,2.2-1.8,4-4,4ZM104.5,79.5c-1.2,0-2.1,1-2.1,2.1,0,1.2,1,2.1,2.1,2.1h8.4c1.2,0,2.1-1,2.1-2.1s-1-2.1-2.1-2.1h-8.4ZM112.9,85.6h-8.4c-2.2,0-4-1.8-4-4s1.8-4,4-4h8.4c2.2,0,4,1.8,4,4,0,2.2-1.8,4-4,4ZM104.5,95.7c-1.2,0-2.1,1-2.1,2.1,0,1.2,1,2.1,2.1,2.1h8.4c1.2,0,2.1-1,2.1-2.1s-1-2.1-2.1-2.1h-8.4ZM112.9,101.9h-8.4c-2.2,0-4-1.8-4-4s1.8-4,4-4h8.4c2.2,0,4,1.8,4,4,0,2.2-1.8,4-4,4ZM170.4,44.5c-.3,0-.5-.1-.7-.3l-3.7-4.4-3.7,4.4c-.2.3-.7.4-1,.3-.4-.1-.6-.5-.6-.9v-11.7c0-.5.4-.9.9-.9.5,0,.9.4.9.9v9.2l2.7-3.3c.2-.2.4-.3.7-.3s.5.1.7.3l2.7,3.3v-9.2c0-.5.4-.9.9-.9.5,0,.9.4.9.9v11.7c0,.4-.2.7-.6.9-.1,0-.2,0-.3,0h0Z"/>
</svg>