<?xml version="1.0" encoding="UTF-8"?>
<svg id="_圖層_2" data-name=" 圖層 2" xmlns="http://www.w3.org/2000/svg" version="1.1" viewBox="0 0 280 146.9">
  <defs>
    <style>
      .cls-1 {
        fill: #fff;
      }

      .cls-1, .cls-2, .cls-3 {
        stroke-width: 0px;
      }

      .cls-4 {
        fill: none;
        stroke: #fff;
        stroke-miterlimit: 10;
        stroke-width: 1.5px;
      }

      .cls-2 {
        fill: #00b7b2;
      }

      .cls-3 {
        fill: #00827b;
      }
    </style>
  </defs>
  <g id="_版頭版尾" data-name=" 版頭版尾">
    <g id="e-book">
      <rect class="cls-3" width="280" height="146.9" rx="10.1" ry="10.1"/>
      <path class="cls-2" d="M272,146.9H82.4L206.8,0h65.1c4.4,0,8,5.7,8,12.8v121.3c0,7.1-3.6,12.8-8,12.8h.1Z"/>
      <rect class="cls-4" x="7.6" y="11.1" width="264.9" height="124.6" rx="8.7" ry="8.7"/>
      <path class="cls-1" d="M177.9,70.5h-5.7l-.3-1.6c-.4-2.1-2.3-3.6-4.4-3.3-.6,0-1.1.3-1.6.6-.5-1.9-2.3-3.2-4.3-2.9-.6,0-1.1.3-1.6.6-.2-.9-.8-1.8-1.6-2.3-.9-.6-2-.8-3-.6-1.9.4-3.2,2.2-3,4.2-.5-.1-1.1-.1-1.7,0-2,.5-3.4,2.5-3,4.6v.7c.1,0-15.7,0-15.7,0v-.7c.5-2.1-.8-4.1-2.9-4.6-.6-.1-1.1-.1-1.7,0,.2-2-1.1-3.8-3-4.2-1.1-.2-2.1,0-3,.6-.8.5-1.4,1.4-1.6,2.3-.5-.3-1-.5-1.6-.6-2-.3-3.8,1-4.3,2.9-.5-.3-1-.5-1.6-.6-2.1-.3-4,1.2-4.4,3.3l-.3,1.6h-5.7c-1.2,0-2.4.5-3.3,1.3-.9.9-1.3,2-1.3,3.3,0,2.5,2.1,4.6,4.6,4.6h4.1l-2,11.1c-.1.7.3,1.3,1,1.4.7.1,1.3-.3,1.4-1l3.9-21.9c.1-.8.9-1.3,1.6-1.3,1,.1,1.3,1.1,1.2,1.7,0,0-1.8,10.4-1.8,10.4-.1.7.3,1.3,1,1.4,0,0,.1,0,.2,0,.6,0,1.1-.4,1.2-1l2.4-13.6c.1-.8.9-1.3,1.6-1.3,1,.1,1.3,1.1,1.2,1.7l-2.4,13.7c-.1.7.3,1.3,1,1.4,0,0,.1,0,.2,0,.6,0,1.1-.4,1.2-1l3-17c.1-.8.9-1.3,1.7-1.2.7.2,1.2.9,1.1,1.7l-3,16.9c-.1.7.3,1.3,1,1.4,0,0,.1,0,.2,0,.6,0,1.1-.4,1.2-1l2.4-13.7s0,0,0,0c.1-.8,1-1.3,1.7-1.1.7.2,1.2.9,1.1,1.7l-3.2,18c0,.5.1,1,.6,1.3.4.3,1,.3,1.4,0l2.5-1.7c.3-.2.6-.3.9-.3.5,0,1,.3,1.3.7.5.7.4,1.6-.2,2.1l-11,10.2c-.2.2-.3.4-.4.7l-2.5,14.1c-.1.7.3,1.3,1,1.4,0,0,.1,0,.2,0,.6,0,1.1-.4,1.2-1l2.4-13.7,10.7-10c1.5-1.4,1.7-3.7.6-5.4-.8-1.1-2-1.8-3.4-1.8s-1.7.3-2.4.7h0s.9-5.1.9-5.1h19l.9,5.1h0c-.7-.5-1.5-.8-2.4-.8-1.3,0-2.6.7-3.4,1.8-1.2,1.7-.9,4,.6,5.4l10.7,10,2.4,13.7c.1.6.6,1,1.2,1s.1,0,.2,0c.7-.1,1.1-.8,1-1.4l-2.5-14.1c0-.3-.2-.5-.4-.7l-11-10.2c-.6-.5-.7-1.5-.2-2.1.3-.4.8-.7,1.3-.7s.7.1.9.3l2.5,1.7c.4.3,1,.3,1.4,0,.4-.3.6-.8.6-1.3l-3.2-18c-.1-.8.3-1.6,1.1-1.7.8-.2,1.6.4,1.7,1.1,0,0,2.4,13.7,2.4,13.7.1.6.6,1,1.2,1s.1,0,.2,0c.7-.1,1.1-.8,1-1.4l-3-16.9c-.1-.8.3-1.6,1.1-1.7.9-.2,1.6.4,1.7,1.2l3,17c.1.6.6,1,1.2,1s.1,0,.2,0c.7-.1,1.1-.8,1-1.4,0,0-2.4-13.7-2.4-13.7-.1-.9.5-1.6,1.2-1.7.7,0,1.5.5,1.6,1.3l2.4,13.6c.1.6.6,1,1.2,1s.1,0,.2,0c.7-.1,1.1-.8,1-1.4,0,0-1.8-10.4-1.8-10.4-.2-.9.5-1.6,1.2-1.7.7,0,1.5.5,1.6,1.3l3.8,21.7c.1.7.8,1.1,1.4,1,.7-.1,1.1-.8,1-1.4l-1.9-10.9h4.1c1.2,0,2.4-.5,3.3-1.3.9-.9,1.3-2,1.3-3.3,0-2.5-2.1-4.6-4.6-4.6h0ZM106.6,77.2h-4.5c-1.2,0-2.1-.9-2.1-2.1s.2-1.1.6-1.5c.4-.4.9-.6,1.5-.6h5.3l-.7,4.2ZM130.9,77.2l.7-4.2h16.7l.7,4.2h-18.2ZM179.4,76.6c-.4.4-.9.6-1.5.6h-4.5l-.7-4.2h5.3c1.2,0,2.1.9,2.1,2.1,0,.6-.2,1.1-.6,1.5h0ZM104.6,95.6c-.7-.1-1.3.3-1.4,1l-3.2,17.9c-.1.7.3,1.3,1,1.4,0,0,.1,0,.2,0,.6,0,1.1-.4,1.2-1l3.2-17.9c.1-.7-.3-1.3-1-1.4ZM176.8,96.4c-.1-.7-.8-1.1-1.4-1-.7.1-1.1.8-1,1.4l3.2,18.1c.1.6.6,1,1.2,1s.1,0,.2,0c.7-.1,1.1-.8,1-1.4l-3.2-18.1ZM173.2,49.5c5.1,0,9.3-4.2,9.3-9.3s-4.2-9.3-9.3-9.3-9.3,4.2-9.3,9.3c0,5.1,4.2,9.3,9.3,9.3ZM173.2,33.4c3.8,0,6.8,3.1,6.8,6.8s0,1.2-.3,1.8c-.4-3.2-3.2-5.8-6.6-5.8s-3.9,1.8-3.9,3.9,1.8,3.9,3.9,3.9,1.2-.6,1.2-1.2-.6-1.2-1.2-1.2-1.4-.6-1.4-1.4.6-1.4,1.4-1.4c2.3,0,4.1,1.8,4.1,4.1s-1.8,4.1-4.1,4.1c-3.8,0-6.8-3.1-6.8-6.8s3.1-6.8,6.8-6.8ZM132.4,54.7c-.6.5-1,1.2-1.2,1.9-.4,1.2-.2,2.6.4,3.7s1.7,1.9,3,2.2c.8.2,1.6.2,2.3,0,.2.7.5,1.4,1.1,2,.9.9,2.1,1.5,3.4,1.5s2.5-.5,3.4-1.5c.5-.6.9-1.3,1.1-2,.7.2,1.5.3,2.3,0,1.3-.3,2.4-1.1,3-2.2s.8-2.5.4-3.7c-.2-.8-.6-1.4-1.2-1.9.6-.5,1-1.2,1.2-1.9.4-1.2.2-2.6-.4-3.7-.6-1.1-1.7-1.9-3-2.2-.8-.2-1.6-.2-2.3,0-.2-.7-.5-1.4-1.1-2-.9-.9-2.1-1.5-3.4-1.5s-2.5.5-3.4,1.5c-.5.6-.9,1.3-1.1,2-.7-.2-1.5-.3-2.3,0-1.3.3-2.4,1.1-3,2.2-.6,1.1-.8,2.5-.4,3.7.2.8.6,1.4,1.2,1.9h0ZM149,59.1c-.3.5-.8.9-1.4,1-.5.1-1,0-1.4-.2-.4-.3-.7-.6-1-1,0,0,0,0,0,0,0,0,0,0,0,0l-.2-.4c.7-.7,1.2-1.6,1.5-2.6h.4c.5,0,1,.1,1.4.3,0,0,0,0,0,0h0c.4.2.8.6.9,1.1.2.6.1,1.2-.2,1.7h0ZM145.2,50.5s0,0,0,0c0,0,0,0,0,0,.2-.4.6-.8,1-1,0,0,0,0,0,0,.4-.3.9-.4,1.4-.2.6.1,1.1.5,1.4,1,.3.5.4,1.2.2,1.7-.1.5-.5.9-.9,1.1-.4.2-.9.3-1.4.3h-.4c-.2-1-.8-1.9-1.5-2.6l.2-.4ZM143,62.8c-.4.4-1,.7-1.6.7s-1.2-.3-1.6-.7c-.4-.4-.5-.9-.5-1.3,0-.5.2-.9.4-1.4,0,0,0,0,0,0,0,0,0,0,0,0l.2-.4c.5.1,1,.2,1.5.2s1,0,1.5-.2l.2.4s0,0,0,0c.2.4.4.9.4,1.4,0,.5-.1,1-.5,1.3h0ZM139.8,46.5c.4-.4,1-.7,1.6-.7s1.2.3,1.6.7c.4.4.5.9.5,1.3,0,.5-.2.9-.4,1.4,0,0,0,0,0,0l-.2.4c-.5-.1-1-.2-1.5-.2s-1,0-1.5.2l-.2-.4c-.2-.4-.4-.9-.4-1.4,0-.5.1-1,.5-1.3h0ZM141.4,51.9c1.5,0,2.8,1.2,2.8,2.8s-1.2,2.8-2.8,2.8-2.8-1.2-2.8-2.8,1.2-2.8,2.8-2.8ZM133.7,50.2c.3-.5.8-.9,1.4-1,.5-.1,1,0,1.4.2.4.3.7.6,1,1.1,0,0,0,0,0,0l.2.4c-.7.7-1.2,1.6-1.5,2.6h-.4c-.5,0-1-.1-1.4-.3,0,0,0,0,0,0-.4-.2-.7-.6-.9-1.1-.2-.6-.1-1.2.2-1.7ZM133.5,57.3c.1-.5.5-.9.9-1.1,0,0,0,0,0,0,.4-.2.9-.3,1.4-.3h.4c.2,1,.8,1.9,1.5,2.6l-.2.4c-.2.4-.6.8-1,1.1,0,0,0,0,0,0-.4.3-.9.3-1.4.2-.6-.1-1.1-.5-1.4-1-.3-.5-.4-1.2-.2-1.7ZM146.4,39c2.9.8,5.4,2.6,7,5.2s2,5.7,1.2,8.6c-.6,2.2.8,4.4,3,5,.3,0,.7.1,1,.1,1.9,0,3.5-1.3,4-3.1,1.6-6.1,0-12.7-4.1-17.5-.4-.5-1.2-.6-1.8-.1-.5.4-.6,1.2-.1,1.8,3.6,4.2,4.9,9.9,3.5,15.3-.2.7-.8,1.2-1.6,1.2s-.3,0-.4,0c-.9-.2-1.4-1.1-1.2-2,.9-3.6.4-7.3-1.5-10.5-1.9-3.2-4.9-5.5-8.5-6.4-.9-.2-1.4-1.1-1.2-2,.2-.9,1.1-1.4,2-1.2,1.7.4,3.2,1.1,4.7,2,.6.4,1.4.2,1.7-.4.4-.6.2-1.4-.4-1.7-1.7-1-3.5-1.8-5.4-2.3-2.2-.6-4.4.8-5,3-.6,2.2.8,4.4,3,5ZM106.2,61.6c.7.7,1.7,1.2,2.8,1.2s2-.4,2.8-1.2l16.3-16.3c.7-.7,1.2-1.7,1.2-2.8s-.4-2-1.2-2.8l-7.6-7.6c-.7-.7-1.7-1.2-2.8-1.2s-2,.4-2.8,1.2l-16.3,16.3c-.7.7-1.2,1.7-1.2,2.8s.4,2,1.2,2.8l7.6,7.6ZM126.3,41.4c.3.3.4.6.4,1s-.1.7-.4,1l-16.3,16.3c-.3.3-.6.4-1,.4s-.7-.1-1-.4l-1-1,18.4-18.4,1,1ZM121.5,36.6l2,2-18.4,18.4-2-2,18.4-18.4ZM100.4,50.2l16.3-16.3c.3-.3.6-.4,1-.4s.7.1,1,.4l1,1-18.4,18.4-1-1c-.3-.3-.4-.6-.4-1s.1-.7.4-1Z"/>
    </g>
  </g>
</svg>