<?xml version="1.0" encoding="UTF-8"?>
<svg id="_圖層_2" data-name=" 圖層 2" xmlns="http://www.w3.org/2000/svg" version="1.1" viewBox="0 0 280 146.9">
  <defs>
    <style>
      .cls-1 {
        fill: #fff;
      }

      .cls-1, .cls-2, .cls-3 {
        stroke-width: 0px;
      }

      .cls-4 {
        fill: none;
        stroke: #fff;
        stroke-miterlimit: 10;
        stroke-width: 1.5px;
      }

      .cls-2 {
        fill: #00b7b2;
      }

      .cls-3 {
        fill: #00827b;
      }
    </style>
  </defs>
  <g id="_版頭版尾" data-name=" 版頭版尾">
    <g id="e-book">
      <rect class="cls-3" width="280" height="146.9" rx="10.1" ry="10.1"/>
      <path class="cls-2" d="M272,146.9H82.4L206.8,0h65.1c4.4,0,8,5.7,8,12.8v121.3c0,7.1-3.6,12.8-8,12.8h.1Z"/>
      <rect class="cls-4" x="7.6" y="11.1" width="264.9" height="124.6" rx="8.7" ry="8.7"/>
    </g>
  </g>
  <g id="Microphone">
    <path class="cls-1" d="M166.6,68.1c-1.5,0-2.7,1.2-2.7,2.7h0v5.3c0,13.2-10.7,23.9-23.9,23.9s-23.9-10.7-23.9-23.9v-5.3c0-1.5-1.2-2.7-2.7-2.7s-2.7,1.2-2.7,2.7v5.3c0,15.1,11.5,27.7,26.6,29.1v5.4h-8c-1.5,0-2.7,1.2-2.7,2.7s1.2,2.7,2.7,2.7h21.3c1.5,0,2.7-1.2,2.7-2.7s-1.2-2.7-2.7-2.7h-8v-5.4c15-1.4,26.6-14,26.6-29.1v-5.3c0-1.5-1.2-2.7-2.7-2.7h0Z"/>
    <path class="cls-1" d="M134.7,78.8h-13.1c1.5,10.2,10.9,17.2,21,15.8,8.2-1.2,14.6-7.6,15.8-15.8h-13.1v-5.3h13.3v-8h-13.3v-5.3h13.3v-8h-13.3v-5.3h13.1c-1.5-10.2-10.9-17.2-21-15.8-8.2,1.2-14.6,7.6-15.8,15.8h13.1v5.3h-13.3v8h13.3v5.3h-13.3v8h13.3v5.3Z"/>
  </g>
</svg>