<?xml version="1.0" encoding="UTF-8"?>
<svg id="_圖層_2" data-name="圖層 2" xmlns="http://www.w3.org/2000/svg" width="213.68" height="191.04" viewBox="0 0 213.68 191.04">
  <g id="_圖層_5" data-name="圖層 5">
    <g id="Environmental_JoyExplorationTitle">
      <g>
        <rect x="12" y="12" width="189.68" height="99.1" rx="13.16" ry="13.16" style="fill: none; stroke: #0c6d3d; stroke-miterlimit: 10; stroke-width: 24px;"/>
        <rect x="12" y="12" width="189.68" height="99.1" rx="13.16" ry="13.16" style="fill: none; stroke: #fff; stroke-miterlimit: 10; stroke-width: 21px;"/>
        <rect x="12" y="12" width="189.68" height="99.1" rx="13.16" ry="13.16" style="fill: #017f67; stroke-width: 0px;"/>
      </g>
      <g>
        <path d="M35.39,51.88l2.47-.46.02-4.74h-1.3s0-6.38,0-6.38h1.34s.02-3.87.02-3.87h-1.52s-.04-6.38-.04-6.38l9.45.05-.14,6.41h-1.81s-.06,3.83-.06,3.83h1.7s-.18,6.42-.18,6.42h-1.59s-.02,3.65-.02,3.65l2.25-.42.14,1.67c-2.85,4.36-5.97,7.15-9.35,8.39l-1.37-8.16ZM47.24,51.69l-.28-8.51,21.15-.18-.12,8.66h-1.27s2.42,1.6,2.42,1.6c-1.07,1.2-2.47,2.05-4.21,2.55,1.4.35,2.94.51,4.63.5l-3.32,5.38c-3.09-.6-5.54-2.15-7.36-4.67l.08,4.64-6.95.11-.09-4.31c-1.99,1.51-4.24,2.42-6.75,2.72l-.71-1.81c2.64-2.52,4.44-4.75,5.39-6.67l-2.61.02ZM46.22,38.25l22.78-.17-.09,4.02-22.67.14-.02-3.98ZM47.2,37.13l-.03-7.82,21.3-.11-.37,7.86-20.9.07ZM52.04,32.48v1.48s1.66-.03,1.66-.03l.04-1.48-1.7.03ZM60.95,46.76l-6.7-.04v1.12s6.62.03,6.62.03l.08-1.12ZM58.64,32.37l-2.06.03-.04,1.48,2.14-.03-.03-1.49ZM63.9,51.67h-5.14s0,.41,0,.41c.84,1.04,1.85,1.89,3.03,2.55.8-1.01,1.51-2,2.12-2.96v-.04s0,.04,0,.04ZM63.74,32.25l-2.06.03v1.52s1.95-.03,1.95-.03l.12-1.52Z" style="fill: #fff; stroke-width: 0px;"/>
        <path d="M73.29,34.66l1.7-.03.06-5.18,6.08.03-.06,5.11,1.85-.03-.22,7.97-1.74.06-.1,6.12c.58-.17,1.15-.36,1.71-.57l.39,2.54c-2.32,4.5-5.29,7.49-8.92,8.97l-1.33-9.21c.7-.07,1.4-.16,2.1-.28l.07-7.39-1.45.06-.14-8.19ZM84.17,53.36l-.08-11.88,21.19-.04-.31,11.88-3.12.02-.09,2.9,4.24-.38-.36,6.05-10.65.02-.39-8.59h-1.67c-.68,5.49-4.76,8.3-12.25,8.4l-1.01-1.67c3.9-2.03,5.9-4.27,6.01-6.71h-1.52ZM84.16,34.89l-.09-4.46h7.1s-.1-1.41-.1-1.41l7.64.11-.19,1.3h6.88s-.1,4.38-.1,4.38l-2.61.02-.91,1.59h4.16s-.13,3.68-.13,3.68l-21.99.39-.16-3.95,3.01-.02-.21-1.67-2.32.02ZM91.1,49.82l7.13-.11-.03-1.12-7.1.07v1.16ZM98.16,44.89l-7.03.07v1.12s7.06-.11,7.06-.11l-.03-1.09ZM96.22,34.85h-4.27s1.08,1.65,1.08,1.65l2.97-.02.23-1.63v-.04s0,.04,0,.04Z" style="fill: #fff; stroke-width: 0px;"/>
        <path d="M111.82,43.8l6.08.68c-.34,1.04-.77,1.99-1.28,2.85l2.57-.02.63-3.26,5.79.5c-.29,1.04-.88,1.93-1.75,2.67l3.33-.02-.24,3.66-3.59.05-.04.94,2.79-.06v2.43s-2.84.02-2.84.02v.76s2.79-.06,2.79-.06l.02,2.61-2.86.02v.87s3.73-.02,3.73-.02l.02,3.44h-15.54s-.06-9.61-.06-9.61c-.34.17-.69.32-1.05.47l-.75-1.38c.91-2.29,1.65-4.81,2.25-7.56ZM110,30.61h2.61s-.03-1.25-.03-1.25l5.4-.08v1.34s2.53.01,2.53.01v-1.34s5.08.03,5.08.03v1.3s2.64.01,2.64.01l-.09,3.51-2.64.02v1.41s-5.04-.03-5.04-.03v-1.38s-2.53.02-2.53.02v1.45s-5.26.15-5.26.15l-.03-1.59-2.57.02-.05-3.62ZM110.48,43.51l-.11-7.1,7.93-.03-.04,7.1-7.79.03ZM115.24,39.37h-1.27s0,1.19,0,1.19h1.27s0-1.19,0-1.19ZM116.38,51.03v.91s1.99-.03,1.99-.03v-.91s-1.99.03-1.99.03ZM116.43,54.26v.83s2.02-.03,2.02-.03l-.03-.83-1.99.03v-.04.04ZM116.48,58.46h2.03s0-.82,0-.82l-2.03.03v.8ZM119.57,43.37l-.11-7.1,7.97-.03-.04,7.1-7.82.03ZM124.33,39.23h-1.23s0,1.19,0,1.19h1.23s0-1.19,0-1.19ZM129.82,29.41l6.15.9c-.2.89-.42,1.75-.67,2.57l7.82-.07c.06,6.83-1.41,11.14-4.41,12.91l-1.52-.55c.35-2.36.47-4.17.35-5.43l-4.96.12c-.46.84-.96,1.59-1.5,2.24l5.68.72c-.18,2.63-.51,5.02-.98,7.17,2.23,2.38,4.7,3.77,7.4,4.17l-2.4,8.06c-2.96-1.13-5.11-3.65-6.44-7.57-1.35,3.35-3.24,5.79-5.69,7.32l-1.01-1.31c2.13-5.47,3.14-11.5,3.03-18.09-.44.48-.89.91-1.35,1.3l-1.63-.73c1.11-4.17,1.81-8.74,2.1-13.71Z" style="fill: #fff; stroke-width: 0px;"/>
        <path d="M157.37,31.44l3.11-.02.27-2.21,7.35.36-.73,1.84,3.26-.02-.17,4.31.15-.43c.24.03.48.06.72.11l1.59-5.79,3.51.6c-.37,2.2-1.58,4.05-3.61,5.56.65.22,1.28.49,1.88.81l1.76-3.9,3.36,1.32c-.76,1.76-1.58,3.35-2.45,4.77,1.44,2.28,2.43,4.75,2.97,7.4l-2.83,1.07-.32-1.85c-1.87,1.29-3.69,2.08-5.48,2.36l-1.28-5.15,1.59-.06.92-2.06-2.55-3.56-.37,9.27h-12.57s0-.14,0-.14l-2.76,1.04-.32-1.85c-1.87,1.29-3.69,2.08-5.48,2.36l-1.28-5.15,1.59-.06.92-2.06-2.8-3.93.48-1.27c.24.03.48.06.72.11l1.59-5.79,3.51.6c-.37,2.2-1.58,4.05-3.61,5.56.65.22,1.28.49,1.88.81l1.76-3.9,3.36,1.32c-.76,1.76-1.57,3.35-2.45,4.77,1.36,2.18,2.33,4.53,2.9,7.04l-.07-14.2ZM147.65,54.53l-.11-5.98,12.86-.04-.03-1.63,7.42-.03v1.63s12.34-.04,12.34-.04l-.03,6.01-8.04.07c2.58,1.05,5.45,1.63,8.61,1.75l-3.15,6.32c-3.98-.84-7.24-2.32-9.79-4.43l-.02,4.24h-7.06s-.09-4.17-.09-4.17c-3.49,2.32-7.61,3.44-12.37,3.34l-.79-1.78c3.02-1.43,5.47-3.19,7.34-5.29l-7.1.04ZM153.56,40.07c-.58.79-1.18,1.53-1.79,2.2l2.1-.06-.31-2.14v-.04.04ZM165.1,35.32l-2.32.06v1.59s2.27-.02,2.27-.02l.04-1.63ZM162.82,42.11h2.14s.04-1.51.04-1.51h-2.17s0,1.51,0,1.51ZM176.37,40.23c-.58.79-1.18,1.53-1.79,2.2l2.1-.06-.31-2.14Z" style="fill: #fff; stroke-width: 0px;"/>
        <path d="M75.7,66.86l6.12.25-.06,4.67,1.34-.03-.07,6.88-1.3.07-.05,2.64c.46-.12.92-.24,1.38-.35l.64,1.52c-.68.89-1.36,1.72-2.04,2.49l-.14,13.54-5.62,1.42-1.85-6.53,1.7-.35-.02-3.37c-.7.36-1.42.63-2.14.82l-.76-7.61c.94-.09,1.91-.22,2.9-.38l-.02-3.48-2.39.13-.25-7.24,2.64-.06v-5.03ZM83.73,89.75v-5.9s7.49,0,7.49,0l-.03-1.88h2.28s-.06-9.12-.06-9.12l-3.73.02-.08,1.19,2.82.27c-.24,4.71-2.66,7.65-7.25,8.84l-.86-1.45c1.19-1.49,1.95-3.62,2.28-6.4l-2.57.06.08-7.75,21.73-.29.21,7.97-5.8.15v-2.64s-1.47,0-1.47,0l.05,4.27,6.78-.87-.54,6.23-7.06.18v1.27s7.74,0,7.74,0l-.03,5.47-4.78.12c1.03,1.41,2.88,2.29,5.56,2.64l-2.46,6.47c-2.6-.69-4.61-2.28-6.02-4.78l.04,5.87-6.74.22-.05-5.11c-2.13,1.87-4.66,2.87-7.59,3l-.79-1.45c1.63-1.78,3.26-4,4.89-6.67l-4.06.09v-.04.04Z" style="fill: #fff; stroke-width: 0px;"/>
        <path d="M115.66,92.31l6.33,1.88c-2.31,2.84-5.94,4.58-10.89,5.23l-1.08-.95c2.48-2.3,4.36-4.36,5.65-6.16ZM110.79,73.89l11.92-.12v-1.27s-10.57.09-10.57.09l-.16-4.46,10.72-.02v-1.45s8.08.19,8.08.19l-.04,1.27,10.39-.02-.2,4.27-10.36.09-.04,1.23,12.1-.12.13,9.16-6.7.15v-.36c-2.96,2.08-6.05,3.82-9.3,5.2,2.54-.08,4.97-.22,7.32-.4l-.75-1.96,1.96-.79c3.49,1.76,6.11,3.59,7.87,5.51l-7.25,1.88-1.18-3.05c-1.16.38-2.44.74-3.84,1.07l-.38,9.67-7.86.1-.28-8.3c-3.24.42-6.85.75-10.83.99l-1.46-5.01c2.9.16,5.7.26,8.4.3.02,0,.05,0,.07,0l-5.52-3.32.73-1.05c.89-.07,2.02-.03,3.37.13,1.41-1.97,2.42-3.66,3.03-5.05l-2.9-.02-.02,4.06-6.66.07.23-8.69ZM129.12,79.41l6.94,3.01.02-3.98h-8.55c-1.72,1.96-4.05,3.83-6.98,5.6.82.15,1.69.32,2.6.52,2.16-1.63,4.15-3.35,5.97-5.15ZM137.35,92.35c1.27,1.82,3.13,3.9,5.58,6.26l-1.09.94c-4.95-.7-8.41-2.48-10.4-5.34l5.91-1.85v-.04.04Z" style="fill: #fff; stroke-width: 0px;"/>
      </g>
      <g>
        <rect x="32.73" y="150.09" width="130.15" height="29.84" style="fill: #017f67; stroke-width: 0px;"/>
        <polygon points="160.34 138.97 186.37 165 160.34 191.04 160.34 138.97" style="fill: #017f67; fill-rule: evenodd; stroke-width: 0px;"/>
      </g>
    </g>
  </g>
</svg>