<?xml version="1.0" encoding="utf-8"?>
<!-- Generator: Adobe Illustrator 28.3.0, SVG Export Plug-In . SVG Version: 6.00 Build 0)  -->
<svg version="1.1" id="_圖層_2" xmlns="http://www.w3.org/2000/svg" xmlns:xlink="http://www.w3.org/1999/xlink" x="0px" y="0px"
	 width="90px" height="65px" viewBox="0 0 90 65" style="enable-background:new 0 0 90 65;" xml:space="preserve">
<style type="text/css">
	.st0{fill:#828DBC;}
	.st1{fill:#92A0D1;}
	.st2{fill:#A3B3DC;}
	.st3{fill:#4F8861;}
	.st4{fill:#6C7FBC;}
	.st5{fill:#29753F;}
</style>
<path class="st0" d="M68.5,26.2c0-0.1-0.1-0.2-0.2-0.2c-0.1,0-0.1,0.2-0.1,0.3c0,0.3,0.1,0.5,0.1,0.8c0,0.1,0,0.1,0.1,0.2
	c0.1-0.2,0.3-0.3,0.4-0.5C68.7,26.6,68.6,26.4,68.5,26.2z"/>
<path class="st0" d="M66.8,33.3c-0.1-0.4-0.1-0.9-0.1-1.3c0-1.5,0.4-2.9,1.2-4.1c-0.2-0.1-0.3-0.3-0.3-0.4c-0.1-0.2-0.2-0.5-0.2-0.8
	c-0.1-0.5-0.1-1.1-0.3-1.6c-0.1-0.3-0.1-0.5,0-0.7c0.1-0.2,0.2-0.4,0.3-0.7c0.2-0.4,0.5-0.8,0.9-1c0.2-0.1,0.5-0.3,0.4-0.6
	c-0.1-0.2-0.3-0.1-0.5-0.2c-0.1,0-0.2-0.1-0.2-0.1c-0.1-0.1-0.1-0.2-0.1-0.3l0,0c-1.1,0.7-2,1.5-2.9,2.5C65,24.7,65,25.4,65,26.1
	C65,28.7,65.7,31.2,66.8,33.3z"/>
<path class="st0" d="M87.7,32c0-5.4-2.9-10-7.4-11.9c-0.3,0.2-0.7,0.1-1,0c-0.4,0-0.9-0.1-1.3-0.1c-0.8,0-1.6,0-2.4,0
	c0.2,0.1,0.4,0.2,0.6,0.2c0.3,0,0.6,0,1,0.1c0.7,0.1,1.3,0.5,1.9,0.9c0.3,0.2,0.6,0.4,0.9,0.6c0.2,0.1,0.6,0.4,0.4,0.6
	c-0.1,0.1-0.2,0.1-0.3,0c-0.2,0-0.3-0.1-0.5-0.1c-0.2,0-0.4-0.1-0.6-0.1c0,0.1,0.1,0.1,0.1,0.2c0.1,0.1,0.2,0.1,0.2,0.3
	c0.1,0.2-0.1,0.4-0.3,0.4c-0.5,0.1-1-0.2-1.5-0.3c-0.2,0-0.6-0.1-0.8,0c-0.1,0.1-0.1,0.2,0,0.2c0.4,0.2,0.8,0.3,1.2,0.4
	c0.1,0,0.1,0.2,0,0.2c-0.2,0.1-0.3,0.2-0.4,0.4c3.3,1,5.5,4.1,5.5,7.8c0,0.2,0,0.5,0,0.7c0.1,0,0.3,0.1,0.4,0.1c0.4,0.1,1,0.3,1,0.8
	c0,0.1,0,0.3,0,0.4c0,0.1,0.1,0.3,0.2,0.3c0.1,0,0.2-0.1,0.3-0.1c0.1,0,0.2,0,0.2,0.1c0.1,0.1,0.2,0.2,0.2,0.2c0.1,0.1,0.2,0,0.4,0
	c0.3,0,0.4,0.2,0.5,0.5c0.1,0.5,0,1.1-0.4,1.5c-0.2,0.2-0.4,0.3-0.6,0.5c-0.2,0.2-0.1,0.6-0.1,0.8c-0.1,0.3-0.2,0.5-0.4,0.7
	c-0.2,0.3-0.4,0.6-0.7,0.8c-0.4,0.5-0.8,1.1-1.3,1.6L82.6,41c0.4-0.1,0.8-0.2,1.2-0.3C86.2,38.5,87.7,35.4,87.7,32z"/>
<path class="st0" d="M82.9,41.6c-0.3,0.2-0.6,0.5-0.9,0.7C82.3,42.1,82.6,41.8,82.9,41.6z"/>
<path class="st0" d="M83.8,40.8c-0.2,0.2-0.5,0.5-0.8,0.7C83.3,41.3,83.5,41.1,83.8,40.8z"/>
<path class="st0" d="M78.7,39.8c-0.1-0.2-0.2-0.4-0.3-0.5c-0.1,0-0.1-0.1-0.2-0.1c-1.1,0.5-2.4,0.9-3.7,0.9c1.3,0.5,2.6,0.8,4,1
	C78.7,40.7,78.8,40.3,78.7,39.8z"/>
<path class="st1" d="M77.6,39.1c-0.2-0.1-0.4-0.3-0.4-0.6c-0.1-0.3-0.1-0.5-0.2-0.8c-0.3-0.5-0.7-0.9-0.7-1.4c0-0.1,0-0.3,0-0.4
	c-0.5,0.2-1.1,0.3-1.6,0.3c-2.3,0-3.9-1.9-3.9-4.2c0-0.6,0.1-1.1,0.4-1.6c-0.1-0.1-0.2-0.1-0.3-0.2c-0.2-0.1-0.4,0-0.6,0
	c-0.2,0-0.4,0-0.5-0.2c-0.1-0.2-0.1-0.5-0.1-0.7c0-0.5-0.1-1.1-0.2-1.6c-0.1-0.3-0.2-0.6-0.4-0.9c-0.1,0.2-0.3,0.3-0.4,0.5
	c0,0.1,0.1,0.3,0,0.4c-0.1,0.1-0.2,0.2-0.4,0.2l-0.1,0c-0.8,1.2-1.2,2.6-1.2,4.1c0,0.5,0,0.9,0.1,1.3c1.7,3.1,4.4,5.5,7.7,6.8
	c1.3,0,2.5-0.3,3.7-0.9C78,39.2,77.8,39.2,77.6,39.1z"/>
<path class="st1" d="M77.5,24.7c0,0,0,0.1,0,0.1c-0.2,0.2-0.4,0.4-0.6,0.6c-0.2,0.2-0.4,0.3-0.5,0.6c0,0.2,0.2,0.5,0.3,0.6
	c0.3,0.3,0.5,0.7,0.2,1c-0.1,0.1-0.3,0.2-0.4,0.2c-0.1,0-0.1-0.2-0.2-0.2c0-0.1-0.1-0.2-0.1-0.3c-0.1-0.2-0.3-0.1-0.5,0
	c-0.4,0.2-0.8,0.1-1.1-0.1c-0.1-0.1-0.3-0.3-0.5-0.4c-0.2,0-0.4,0.2-0.5,0.3c-0.2,0.1-0.4,0-0.6,0c-0.2-0.1-0.4-0.1-0.6,0
	c-0.4,0.1-0.7,0.5-0.7,0.9c0,0.3,0.1,0.7,0.3,1c0.8-0.7,1.9-1.1,3-1.1c2.2,0,3.8,1.6,4,3.7c0.3,0,0.6,0.1,0.9,0.1
	c0.3,0,0.7,0.1,1,0.1c0.3,0,0.6,0.1,0.8,0.2c0.3,0.2,0.4,0.4,0.7,0.6c0.1,0.1,0.3,0.2,0.5,0.2c0-0.2,0-0.5,0-0.7
	c0-3.7-2.2-6.9-5.5-7.8C77.5,24.3,77.5,24.5,77.5,24.7z"/>
<path class="st2" d="M74.6,36.2c0.6,0,1.1-0.1,1.6-0.3c0.1-0.7,0.6-1.3,1.2-1.5l0,0c-0.1-0.2-0.2-0.5-0.2-0.7
	c-0.1-0.2-0.1-0.4-0.4-0.5c-0.2,0-0.4,0.1-0.6,0.1c-0.2,0-0.4-0.1-0.5-0.2L75.7,33c0,0-0.1,0-0.1,0c-0.1,0-0.2-0.1-0.3-0.1
	c-0.2-0.1-0.4-0.3-0.5-0.5c-0.3-0.4-0.5-0.8-0.9-1.1c-0.4-0.3-0.8-0.5-1.3-0.5c-0.3,0-0.5,0.1-0.8,0c-0.2,0-0.4-0.1-0.6-0.3
	c-0.1-0.1-0.1-0.1-0.2-0.2c-0.2,0.5-0.4,1-0.4,1.6C70.6,34.3,72.2,36.2,74.6,36.2z"/>
<path class="st2" d="M75.1,27.8c-1.1,0-2.2,0.4-3,1.1c0.1,0.1,0.1,0.2,0.2,0.2c0.2,0.2,0.5,0.6,0.8,0.6c0.2,0,0.3-0.1,0.4-0.3
	c0.1-0.2,0.1-0.4,0.2-0.6c0.1-0.2,0.4-0.4,0.7-0.4c0.3,0.1,0.3,0.4,0.3,0.6c-0.1,0.2-0.2,0.4-0.2,0.7c-0.1,0.2-0.3,0.5,0,0.6
	c0.1,0,0.2-0.1,0.3-0.1c0.1,0,0.1-0.1,0.2-0.1c0.1,0,0.3,0.1,0.4,0.2c0.2,0.2,0.3,0.6,0.3,0.9c0,0.2-0.1,0.4,0,0.7
	c0,0.2,0.1,0.3,0.3,0.4c0.5,0.2,1.1-0.4,1.5,0.1c0.2,0,0.3-0.2,0.4-0.3c0.1-0.2,0.2-0.4,0.3-0.6c0.1-0.2,0.3-0.4,0.5-0.4
	c0.2,0,0.3,0.2,0.4,0.4l0.1,0C78.9,29.4,77.3,27.8,75.1,27.8z"/>
<path class="st3" d="M68.1,21.8c0,0.1,0.1,0.1,0.2,0.1c0.2,0,0.4,0,0.5,0.2c0.1,0.3-0.2,0.5-0.4,0.6c-0.4,0.3-0.7,0.6-0.9,1
	c-0.1,0.2-0.2,0.4-0.3,0.7c-0.1,0.3-0.1,0.5,0,0.7c0.2,0.5,0.2,1.1,0.3,1.6c0,0.3,0.1,0.5,0.2,0.8c0.1,0.2,0.2,0.4,0.3,0.4l0.1,0
	c0.2,0,0.3-0.1,0.4-0.2c0.1-0.1,0-0.3,0-0.4c0-0.1,0-0.2-0.1-0.2c-0.1-0.2-0.1-0.5-0.1-0.8c0-0.1,0-0.3,0.1-0.3
	c0.1,0,0.2,0.1,0.2,0.2c0.1,0.2,0.2,0.4,0.3,0.6c0.1,0.3,0.3,0.6,0.4,0.9c0.2,0.5,0.2,1,0.2,1.6c0,0.2,0,0.5,0.1,0.7
	c0.1,0.2,0.3,0.3,0.5,0.2c0.2,0,0.4-0.1,0.6,0c0.1,0,0.2,0.1,0.3,0.2c0.1,0.1,0.1,0.1,0.2,0.2c0.2,0.1,0.4,0.2,0.6,0.3
	c0.3,0,0.5,0,0.8,0c0.5,0,0.9,0.2,1.3,0.5c0.4,0.3,0.6,0.7,0.9,1.1c0.1,0.2,0.3,0.3,0.5,0.5c0.1,0,0.2,0.1,0.3,0.1c0,0,0.1,0,0.1,0
	l0.1,0.1c0.1,0.1,0.3,0.2,0.5,0.2c0.2,0,0.4-0.1,0.6-0.1c0.3,0,0.3,0.3,0.4,0.5c0.1,0.2,0.1,0.5,0.2,0.7l0,0
	c-0.7,0.2-1.2,0.8-1.2,1.5c0,0.1,0,0.3,0,0.4c0.1,0.5,0.5,1,0.7,1.4c0.1,0.2,0.2,0.5,0.2,0.8c0.1,0.2,0.2,0.5,0.4,0.6
	c0.2,0.1,0.3,0.1,0.5,0.1c0.1,0,0.1,0,0.2,0.1c0.2,0.1,0.3,0.3,0.3,0.5c0.1,0.4,0,0.9-0.2,1.3c0.5,0.1,1.1,0.1,1.6,0.1
	c0.9,0,1.7-0.1,2.5-0.2l0.1-0.1c0.5-0.5,0.9-1,1.3-1.6c0.2-0.3,0.4-0.6,0.7-0.8c0.2-0.2,0.4-0.5,0.4-0.7c0.1-0.3-0.1-0.6,0.1-0.8
	c0.2-0.2,0.4-0.3,0.6-0.5c0.4-0.4,0.5-0.9,0.4-1.5c-0.1-0.2-0.2-0.5-0.5-0.5c-0.1,0-0.2,0.1-0.4,0c-0.1-0.1-0.2-0.2-0.2-0.2
	c-0.1-0.1-0.2-0.1-0.2-0.1c-0.1,0-0.2,0.1-0.3,0.1c-0.1,0-0.2-0.2-0.2-0.3c0-0.1,0.1-0.3,0-0.4c-0.1-0.5-0.6-0.7-1-0.8
	c-0.1,0-0.3-0.1-0.4-0.1c-0.2,0-0.3-0.1-0.5-0.2c-0.2-0.2-0.4-0.4-0.7-0.6c-0.2-0.2-0.5-0.2-0.8-0.2c-0.3,0-0.7-0.1-1-0.1
	c-0.3,0-0.6-0.1-0.9-0.1l-0.1,0c-0.1-0.2-0.1-0.4-0.4-0.4c-0.2,0-0.4,0.2-0.5,0.4c-0.1,0.2-0.2,0.4-0.3,0.6
	c-0.1,0.2-0.2,0.3-0.4,0.3c-0.4-0.4-1,0.1-1.5-0.1c-0.2-0.1-0.3-0.2-0.3-0.4c-0.1-0.2,0-0.4,0-0.7c0-0.3-0.1-0.7-0.3-0.9
	c-0.1-0.1-0.2-0.2-0.4-0.2c-0.1,0-0.1,0-0.2,0.1c-0.1,0-0.2,0.1-0.3,0.1c-0.3-0.1-0.1-0.4,0-0.6c0.1-0.2,0.2-0.4,0.2-0.7
	c0.1-0.2,0-0.6-0.3-0.6c-0.3-0.1-0.6,0.2-0.7,0.4c-0.1,0.2-0.1,0.4-0.2,0.6c-0.1,0.2-0.2,0.3-0.4,0.3c-0.3,0-0.6-0.3-0.8-0.6
	c-0.1-0.1-0.1-0.2-0.2-0.2c-0.2-0.3-0.4-0.6-0.3-1c0-0.4,0.4-0.7,0.7-0.9c0.2-0.1,0.4-0.1,0.6,0c0.2,0.1,0.4,0.1,0.6,0
	c0.2-0.1,0.3-0.3,0.5-0.3c0.2,0,0.3,0.3,0.5,0.4c0.3,0.2,0.8,0.3,1.1,0.1c0.2-0.1,0.4-0.2,0.5,0c0.1,0.1,0.1,0.2,0.1,0.3
	c0,0.1,0.1,0.2,0.2,0.2c0.2,0.1,0.3,0,0.4-0.2c0.3-0.4,0-0.8-0.2-1c-0.1-0.2-0.4-0.4-0.3-0.6c0-0.2,0.3-0.4,0.5-0.6
	c0.2-0.2,0.4-0.4,0.6-0.6c0,0,0-0.1,0-0.1c-0.1-0.2-0.1-0.3,0-0.5c0.1-0.2,0.2-0.4,0.4-0.4c0.1,0,0.1-0.2,0-0.2
	c-0.4-0.1-0.8-0.3-1.2-0.4c-0.1,0-0.2-0.1,0-0.2c0.2-0.1,0.6-0.1,0.8,0c0.5,0.1,1,0.4,1.5,0.3c0.2,0,0.4-0.2,0.3-0.4
	c0-0.1-0.1-0.2-0.2-0.3C79,22.5,79,22.4,79,22.4c0.2,0,0.4,0.1,0.6,0.1c0.2,0,0.3,0.1,0.5,0.1c0.1,0,0.2,0.1,0.3,0
	c0.2-0.2-0.2-0.5-0.4-0.6c-0.3-0.2-0.6-0.4-0.9-0.6c-0.6-0.4-1.2-0.7-1.9-0.9c-0.3-0.1-0.6-0.1-1-0.1c-0.2,0-0.4-0.1-0.6-0.2
	c0.8,0,1.6,0,2.4,0c0.4,0,0.9,0.1,1.3,0.1c0.3,0,0.7,0.1,1,0h0c-0.1,0-0.2-0.1-0.3-0.1c-0.1,0-0.2-0.1-0.3-0.1l0,0
	c-0.1,0-0.2-0.1-0.3-0.1l0,0c-0.1,0-0.2-0.1-0.3-0.1l0,0c-0.1,0-0.2-0.1-0.3-0.1l0,0c-0.1,0-0.2-0.1-0.3-0.1l0,0
	c-0.1,0-0.2,0-0.3-0.1l0,0c-0.1,0-0.2,0-0.3-0.1l-0.1,0c-0.1,0-0.2,0-0.2,0l-0.1,0c-0.1,0-0.2,0-0.2,0l-0.1,0c-0.1,0-0.1,0-0.2,0
	l-0.1,0c-0.1,0-0.1,0-0.2,0l-0.1,0c-0.1,0-0.1,0-0.2,0c-0.1,0-0.1,0-0.2,0c-0.1,0-0.1,0-0.2,0c-0.1,0-0.1,0-0.2,0c0,0-0.1,0-0.1,0
	c-0.1,0-0.2,0-0.3,0c-0.2,0-0.3,0-0.5,0l-0.1,0c-0.2,0-0.3,0-0.4,0l0,0c-0.1,0-0.3,0-0.4,0l-0.1,0c-0.1,0-0.3,0-0.4,0.1l-0.1,0
	c-0.1,0-0.3,0-0.4,0.1l-0.1,0c-0.1,0-0.3,0.1-0.4,0.1l-0.1,0c-0.1,0-0.3,0.1-0.4,0.1l0,0c-0.1,0-0.3,0.1-0.4,0.1l-0.1,0
	c-0.3,0.1-0.6,0.2-0.9,0.3l0,0c-0.3,0.1-0.6,0.2-0.9,0.4l0,0c-0.3,0.1-0.6,0.3-0.9,0.4l0,0c-0.3,0.2-0.6,0.3-0.8,0.5l0,0l0,0
	C68,21.6,68.1,21.7,68.1,21.8z"/>
<path class="st4" d="M81.2,41.9c-0.5,0.2-1.1,0.4-1.6,0.6c-0.1,0.1-0.3,0.2-0.4,0.2c-0.1,0.1-0.3,0.2-0.4,0.3
	c-0.1,0.1-0.3,0.2-0.4,0.3c-0.1,0.1-0.2,0.1-0.3,0.2c-0.2,0.1-0.5,0.1-0.6-0.2l0,0l0-0.1l0,0c0-0.1,0-0.2,0.1-0.3l0,0l0-0.1l0-0.1
	c0.2-0.5,0.6-0.9,0.9-1.4l0,0c-1.4-0.1-2.8-0.5-4-1c-0.1,0-0.1,0-0.2,0c-4,0-6.9-2.9-7.5-6.8c-1.2-2.2-1.8-4.6-1.8-7.2
	c0-0.7,0.1-1.4,0.1-2.1l0,0c-0.1,0.1-0.1,0.1-0.2,0.2l0,0c-0.3,0.4-0.7,0.8-0.9,1.3l0,0c0,0.1-0.1,0.1-0.1,0.2l0,0
	c0,0.1-0.1,0.1-0.1,0.2l0,0c-0.2,0.3-0.3,0.6-0.5,0.9l0,0.1c0,0.1-0.1,0.1-0.1,0.2l0,0.1c0,0.1-0.1,0.1-0.1,0.2l0,0.1
	c0,0.1,0,0.1-0.1,0.2l0,0.1c0,0.1,0,0.1-0.1,0.2l0,0.1c0,0.1-0.1,0.2-0.1,0.3l0,0.1c0,0,0,0.1,0,0.1c0,0,0,0.1,0,0.1
	c0,0,0,0.1,0,0.1c0,0,0,0.1,0,0.1c0,0,0,0.1,0,0.1c0,0.1,0,0.1,0,0.2c0,0,0,0.1,0,0.1c0,0.1,0,0.1,0,0.2l0,0.1c0,0.1,0,0.2,0,0.2
	l0,0.1c0,0.1,0,0.2,0,0.3l0,0.1c0,0.1,0,0.1,0,0.2l0,0.1c0,0.1,0,0.1,0,0.2l0,0.1c0,0.1,0,0.1,0,0.2l0,0.1c0,0.1,0,0.1,0,0.2l0,0.1
	c0,0.1,0,0.2,0,0.3c0,0.9,0.1,1.8,0.2,2.6c0,0.2,0.1,0.4,0.1,0.6c0,0.1,0,0.2,0.1,0.3c0,0.2,0.1,0.4,0.2,0.6c0,0.1,0.1,0.2,0.1,0.3
	c0.2,0.5,0.3,1,0.5,1.4c0.1,0.2,0.2,0.4,0.3,0.5c1.9,3.8,5.7,6.4,10.5,6.4c0.1,0,0.2,0,0.3,0l0.1,0c0.1,0,0.2,0,0.2,0
	c0,0,0.1,0,0.1,0c0.1,0,0.1,0,0.2,0c0,0,0.1,0,0.1,0c0.1,0,0.1,0,0.2,0c0,0,0.1,0,0.1,0c0.1,0,0.1,0,0.2,0c0,0,0.1,0,0.1,0
	c0.1,0,0.1,0,0.2,0c0,0,0.1,0,0.1,0c0.1,0,0.1,0,0.2,0c0,0,0.1,0,0.1,0c0.1,0,0.1,0,0.2,0c0,0,0.1,0,0.1,0c0.1,0,0.1,0,0.2,0l0.1,0
	c0.1,0,0.1,0,0.2-0.1l0.1,0c0.1,0,0.1,0,0.2-0.1l0.1,0c0.1,0,0.1,0,0.2-0.1l0.1,0c0.1,0,0.1,0,0.2-0.1l0.1,0c0.1,0,0.2-0.1,0.2-0.1
	l0.1,0c0.1,0,0.2-0.1,0.2-0.1l0.1,0c0.1,0,0.2-0.1,0.3-0.1l0,0c0.1,0,0.2-0.1,0.3-0.1l0,0c0.4-0.2,0.7-0.3,1-0.5
	c0.1-0.1,0.2-0.1,0.3-0.2c0.3-0.1,0.5-0.3,0.8-0.5c0.1-0.1,0.2-0.1,0.2-0.2c0.3-0.2,0.6-0.4,0.9-0.7c0,0,0.1-0.1,0.1-0.1
	c0.3-0.2,0.5-0.4,0.8-0.7c0,0,0.1-0.1,0.1-0.1c0,0,0,0,0,0c-0.4,0.1-0.8,0.2-1.2,0.3C82.2,41.4,81.8,41.7,81.2,41.9z"/>
<path class="st0" d="M66.8,33.3c0.5,3.9,3.4,6.8,7.5,6.8c0.1,0,0.1,0,0.2,0C71.2,38.8,68.5,36.4,66.8,33.3z"/>
<path class="st5" d="M78.5,41.1L78.5,41.1c-0.3,0.5-0.7,1-0.9,1.5l0,0.1l0,0.1l0,0c0,0.1-0.1,0.2-0.1,0.3l0,0l0,0.1l0,0
	c0.1,0.2,0.4,0.3,0.6,0.2c0.1,0,0.2-0.1,0.3-0.2c0.2-0.1,0.3-0.2,0.4-0.3c0.1-0.1,0.3-0.2,0.4-0.3c0.1-0.1,0.3-0.2,0.4-0.2
	c0.5-0.3,1.1-0.4,1.6-0.6c0.5-0.2,1-0.5,1.4-0.9c-0.8,0.1-1.7,0.2-2.5,0.2C79.6,41.2,79,41.2,78.5,41.1z"/>
</svg>
