<?xml version="1.0" encoding="utf-8"?>
<!-- Generator: Adobe Illustrator 28.3.0, SVG Export Plug-In . SVG Version: 6.00 Build 0)  -->
<svg version="1.1" id="_圖層_2" xmlns="http://www.w3.org/2000/svg" xmlns:xlink="http://www.w3.org/1999/xlink" x="0px" y="0px"
	 width="90px" height="65px" viewBox="0 0 90 65" style="enable-background:new 0 0 90 65;" xml:space="preserve">
<style type="text/css">
	.st0{fill:#FFEFD9;}
	.st1{fill:#EA8153;}
	.st2{fill:#4F8861;}
	.st3{fill:#2F663F;}
	.st4{fill:#B9C9E8;}
	.st5{fill:#333E78;}
	.st6{fill:#4759A0;}
	.st7{fill:#C9D8EF;}
	.st8{fill:#FABD57;}
	.st9{fill:#FFFFFF;}
	.st10{fill:#1F0E08;}
	.st11{fill:#C0C7E6;}
	.st12{fill:#1D1400;}
	.st13{fill:#D15529;}
</style>
<path class="st0" d="M29,54.8c0,0,0.1,0,0.2,0c0.2,0,0.4,0,0.7,0c0.2,0,0.5-0.1,0.6-0.2c0.1-0.1,0.1-0.2,0.1-0.3c0-0.1,0-0.1,0-0.2
	c0-0.1-0.1-0.2-0.1-0.2c-0.1,0-0.1-0.1-0.2-0.1c-0.2,0-0.4,0.1-0.6,0.3C29.4,54.3,29.2,54.5,29,54.8C29,54.7,29,54.7,29,54.8z"/>
<path class="st0" d="M29,54.9C29,54.9,29,54.9,29,54.9C29,54.9,29,54.9,29,54.9c0.1,0.2,0.2,0.3,0.3,0.4c0.3,0.2,0.6,0.5,0.9,0.5
	c0.1,0,0.3-0.1,0.4-0.3c0-0.1,0.1-0.1,0.1-0.2c0-0.1,0-0.2-0.1-0.2C30.5,55,30.4,55,30.3,55c-0.2-0.1-0.5-0.1-0.8-0.1
	C29.3,54.9,29.2,54.9,29,54.9z"/>
<path class="st0" d="M39.9,55.5C39.9,55.5,39.9,55.5,39.9,55.5c0.2,0,0.4,0,0.7,0c0.3,0,0.6-0.1,0.7-0.2c0.1-0.1,0.2-0.2,0.2-0.3
	c0-0.1,0-0.1,0-0.2c0-0.1-0.1-0.2-0.1-0.2c-0.1,0-0.1-0.1-0.2-0.1c-0.2,0-0.4,0.2-0.6,0.4c-0.2,0.2-0.4,0.4-0.5,0.6
	C40,55.5,39.9,55.5,39.9,55.5z"/>
<path class="st0" d="M39,7.7c0-0.1,0-0.2,0-0.2c0-0.3-0.1-0.5-0.3-0.6c-0.1-0.2-0.3-0.2-0.4-0.2l-0.1,0c-0.1,0-0.2,0.1-0.3,0.2
	l0.9,1.5c0,0,0,0,0-0.1C39,8.1,39,7.9,39,7.7z"/>
<path class="st0" d="M40,55.7c-0.1,0-0.1,0-0.1,0C39.9,55.7,39.9,55.7,40,55.7c0,0.2,0.1,0.3,0.3,0.4c0.3,0.2,0.6,0.5,0.9,0.5
	c0.1,0,0.1,0,0.2-0.1c0.1,0,0.1-0.1,0.2-0.2c0-0.1,0-0.1,0-0.2c0-0.1,0-0.1-0.1-0.2c-0.1-0.1-0.1-0.1-0.2-0.1
	c-0.2-0.1-0.5-0.1-0.7-0.1C40.4,55.6,40.2,55.6,40,55.7z"/>
<path class="st0" d="M21,24.4L21,24.4L21,24.4l-3.1,2c-0.1,0.1-0.2,0.1-0.3,0.2l-6.1,4.1l5.6,0.5c0.6,0.1,1.1,0.5,1.2,1.1l4.3,0.3
	l-1-0.5c-1.9-0.9-2.7-3.2-1.8-5.1c0.4-0.8,1-1.4,1.8-1.8C21.4,24.9,21.2,24.6,21,24.4z"/>
<rect x="43.1" y="7.6" transform="matrix(0.9715 -0.2372 0.2372 0.9715 -0.7819 10.4659)" class="st0" width="0" height="1.7"/>
<polygon class="st0" points="41.9,7.9 41.9,7.9 42.3,9.6 42.3,9.6 41.9,7.9 "/>
<path d="M33.1,9C33,9,33,8.9,32.9,8.8c-0.5-0.5-0.6-1.2-0.2-1.5c0.4-0.3,1.1-0.2,1.6,0.3c0.2,0.2,0.3,0.4,0.4,0.6
	C34.9,8.1,35,8,35.1,7.8l1.4-0.3c0,0,0,0,0,0c0,0.1,0,0.2,0,0.2c0,0.3,0.1,0.5,0.3,0.7c0.1,0.2,0.3,0.3,0.5,0.3l0.1,0
	c0.2,0,0.3-0.1,0.4-0.3c0.1-0.2,0.1-0.4,0.1-0.6c0-0.1,0-0.2,0-0.2c0-0.3-0.1-0.5-0.3-0.7c-0.1-0.2-0.3-0.3-0.5-0.3l-0.1,0
	c-0.2,0-0.3,0.1-0.4,0.3c-0.1,0.1-0.1,0.3-0.1,0.5l-1.4,0.3c0.1-0.2,0.1-0.4,0.1-0.6c0-0.3-0.1-0.5-0.2-0.7L37.3,6l0.9-0.2l0,0
	c0.9-0.2,1.6-1.2,1.4-2.1c-0.2-1-1.2-1.7-2.2-1.5c-0.8,0.1-1.3,0.7-1.5,1.4l-1.4,0.2c-0.3,0.1-0.6,0.2-0.8,0.3
	c-0.3-0.1-0.7-0.2-1-0.2c-1.3,0-2.4,1.1-2.4,2.4c0,0.6,0.2,1.2,0.6,1.6c-0.2,0.3-0.3,0.7-0.3,1.1c0,1.1,0.7,2,1.7,2.3l0.9-1.7
	C33.2,9.4,33.1,9.2,33.1,9z M36.7,7c0.1-0.1,0.2-0.2,0.3-0.3l0.1,0c0.1,0,0.3,0.1,0.4,0.2c0.1,0.2,0.2,0.4,0.3,0.6
	c0,0.1,0,0.2,0,0.2c0,0.2-0.1,0.4-0.1,0.6c-0.1,0.1-0.2,0.2-0.3,0.3l-0.1,0c-0.1,0-0.3-0.1-0.4-0.2c-0.1-0.2-0.2-0.4-0.3-0.6
	c0-0.1,0-0.2,0-0.2C36.6,7.3,36.7,7.1,36.7,7z"/>
<path class="st1" d="M41.9,7.9L41.9,7.9L41.4,6l0,0c-0.1-0.2-0.3-0.3-0.6-0.3c-0.3,0.1-0.4,0.3-0.4,0.6l0.9,3.5l1-0.2L41.9,7.9z"/>
<path class="st1" d="M41.9,7.8L41.9,7.8l0.4,1.7l1-0.2l-0.4-1.7l-0.1,0l-0.7-2.9l0,0c-0.1-0.2-0.3-0.3-0.6-0.2
	c-0.3,0.1-0.4,0.3-0.4,0.6l0.2,0.8l0.1,0L41.9,7.8z"/>
<path class="st1" d="M42.2,4.7l0.7,2.9l0,0.1h0l0.4,1.7l2-0.5l-1.1-4.5c-0.1-0.3-0.3-0.4-0.6-0.4c-0.2,0.1-0.4,0.2-0.4,0.5l0,0
	l0.7,2.9l0,0.1l-0.1,0l-0.7-2.9l0-0.1l0,0L43,3.9c-0.1-0.3-0.3-0.4-0.6-0.4C42.1,3.6,42,3.9,42,4.2L42.2,4.7L42.2,4.7L42.2,4.7z"/>
<polygon points="41.8,7.8 41.9,7.9 41.9,7.9 41.9,7.9 41.9,7.8 41.5,5.9 41.4,5.9 41.4,5.9 41.4,5.9 41.4,6 "/>
<polygon points="42.8,7.6 42.9,7.6 42.9,7.6 42.9,7.6 42.9,7.6 42.2,4.7 42.2,4.7 42.2,4.7 42.1,4.7 42.1,4.7 "/>
<polygon points="43.1,4.5 43.8,7.4 43.9,7.4 43.9,7.3 43.2,4.5 43.2,4.5 43.2,4.4 43.2,4.4 "/>
<path class="st2" d="M70.6,17.7c-9.9,0-18,7-18.8,16.6l-1.3-0.1c0.2,0.9,0.2,1.8-0.2,2.7l-1,2.2l2.7-0.2c1.4,9.2,9.2,16.6,18.7,16.6
	c10.4,0,18.9-7.6,18.9-18.1S81,17.7,70.6,17.7z M70.6,52.5c-8.8,0-15.9-7.7-15.9-16.5c0-8.8,7.1-15.4,15.9-15.4
	c8.8,0,15.9,7.8,15.9,16.6C86.5,46.1,79.4,52.5,70.6,52.5z"/>
<path class="st3" d="M70.6,20.7c-8.8,0-15.9,6.6-15.9,15.4c0,8.8,7.1,16.5,15.9,16.5c8.8,0,15.9-6.4,15.9-15.2
	C86.5,28.5,79.4,20.7,70.6,20.7z M70.6,51.2c-8.1,0-14.6-7-14.6-15.1C56,28.1,62.5,22,70.6,22c8.1,0,14.6,7.2,14.6,15.2
	C85.2,45.3,78.6,51.2,70.6,51.2z"/>
<path class="st4" d="M70.6,22C62.5,22,56,28.1,56,36.1c0,8.1,6.5,15.1,14.6,15.1c8.1,0,14.6-5.9,14.6-14C85.2,29.2,78.6,22,70.6,22z
	 M75.3,49c-1.1,0.7-2.4,0.5-3-0.4c-0.6-0.9-0.2-2.3,0.9-3c1.1-0.7,2.4-0.5,3,0.4C76.8,46.9,76.4,48.3,75.3,49z M82.1,35
	c1.8,0.9,2.1,3.8,0.8,6.5c-1.4,2.7-3.9,4.1-5.7,3.2c-1.8-0.9-2.1-3.8-0.8-6.5C77.7,35.5,80.3,34.1,82.1,35z"/>
<path class="st2" d="M39.8,36.4C39.8,36.4,39.8,36.4,39.8,36.4l-1.7,3.4l2.3-0.1l1.1-2.4L39.8,36.4z"/>
<path class="st2" d="M22.7,32.5l-4.3-0.3c0,0.1,0,0.2,0,0.2v8.3c0,0.1,0,0.2,0,0.3l10.7-0.7l2-3.9L22.7,32.5z"/>
<path class="st5" d="M18.4,32.4c0-0.1,0-0.2,0-0.2c-0.1-0.6-0.6-1.1-1.2-1.1l-5.6-0.5l-3.4,2.3c0.3,0.4,0.6,1,0.6,1.6
	c0,1.4-1.2,2.6-2.6,2.6c-1.3,0-2.3-0.9-2.6-2.1c-0.1,0-0.3-0.1-0.3-0.2c-0.1-0.2-0.1-0.4,0-0.6l0,0l-0.4,0.3
	c-0.2,0.2-0.6,0.1-0.7-0.1c-0.2-0.2-0.1-0.6,0.1-0.7l0.4-0.3l0,0c-0.2,0.1-0.4,0-0.6-0.2c-0.2-0.2-0.1-0.6,0.1-0.7l0.7-0.5h0l0,0
	c-0.1,0-0.2,0-0.3,0c-1.3,1.2-2.1,2.9-2.1,4.7c0,3.5,2.9,6.4,6.4,6.4C7,43,7,43,7.1,43v0l0.4,0c0,0,0,0,0,0l9.6-0.8
	c0.6-0.1,1.1-0.5,1.2-1.1c0-0.1,0-0.2,0-0.3V32.4z"/>
<polygon class="st5" points="5.2,31.6 6.6,30.7 6.6,30.7 5.2,31.6 5.2,31.6 "/>
<path class="st5" d="M7.9,32.6l-0.1-0.2l-0.1,0C7.7,32.5,7.8,32.5,7.9,32.6z"/>
<path class="st6" d="M7.9,32.6c-0.1-0.1-0.1-0.1-0.2-0.2l-3.8,2.5C3.8,35,3.6,35,3.5,35c0.2,1.2,1.3,2.1,2.6,2.1
	c1.4,0,2.6-1.2,2.6-2.6c0-0.6-0.2-1.2-0.6-1.6l0,0L7.9,32.6z"/>
<path class="st7" d="M76.3,38.2c-1.4,2.7-1,5.6,0.8,6.5c1.8,0.9,4.4-0.5,5.7-3.2c1.4-2.7,1-5.6-0.8-6.5
	C80.3,34.1,77.7,35.5,76.3,38.2z"/>
<path class="st7" d="M73.2,45.6c-1.1,0.7-1.5,2-0.9,3c0.6,0.9,2,1.1,3,0.4c1.1-0.7,1.5-2,0.9-3C75.6,45.1,74.2,44.9,73.2,45.6z"/>
<polygon class="st1" points="36.7,52.6 39.8,53.9 40.6,52.5 37.4,51 "/>
<polygon class="st8" points="36,52.3 35.8,52.6 35.8,52.6 40.5,54.6 40.5,54.6 40.7,54.3 39.8,53.9 36.7,52.6 "/>
<path class="st8" d="M35.8,52.7L34,56.8l-0.7,1.7l4.3,1.9l7,3l0,0l0,0c0.2,0.1,0.4-0.2,0.3-0.4l-6.1-5.9l0.3-0.5L37.7,56l0-0.1
	l0.1,0l1.5,0.6l0.3-0.4L38,55.5l0-0.1l0.1,0l1.5,0.6l0.2-0.4l0,0L38.3,55l0-0.1l0.1,0l1.4,0.6c0-0.1,0.1-0.2,0.2-0.3l0.4-0.6
	L35.8,52.7z M35.8,54.4c0.2-0.3,0.6-0.5,1-0.4c0.6,0.2,0.9,0.9,0.6,1.4c-0.2,0.3-0.6,0.5-1,0.4C35.8,55.6,35.5,54.9,35.8,54.4z"/>
<path class="st9" d="M36.4,55.8c0.4,0.1,0.8-0.1,1-0.4c0.3-0.5,0.1-1.2-0.6-1.4c-0.4-0.1-0.8,0.1-1,0.4
	C35.5,54.9,35.8,55.6,36.4,55.8z"/>
<polygon points="35.8,52.6 35.8,52.6 35.8,52.6 35.8,52.7 35.8,52.7 40.4,54.7 40.4,54.7 40.5,54.6 40.5,54.6 40.5,54.6 "/>
<path d="M38.4,54.9L38.4,54.9L38.4,54.9l1.4,0.7l0,0l0,0c0,0,0.2,0.2,0.5,0.5c0.3,0.2,0.6,0.5,0.9,0.5c0.1,0,0.2,0,0.3-0.1
	c0.1-0.1,0.1-0.1,0.2-0.3c0-0.1,0.1-0.2,0.1-0.2c0-0.1,0-0.2-0.1-0.3c-0.1-0.1-0.3-0.2-0.5-0.2c-0.1,0-0.2,0-0.3,0c0,0,0,0,0,0
	c0.2,0,0.4-0.1,0.5-0.2c0.1-0.1,0.2-0.2,0.2-0.4c0-0.1,0-0.2-0.1-0.3c0-0.1-0.1-0.2-0.2-0.2c-0.1-0.1-0.1-0.1-0.2-0.1
	c-0.2,0-0.3,0.1-0.5,0.2c-0.2,0.2-0.5,0.4-0.7,0.6c-0.1,0.1-0.2,0.3-0.2,0.3L38.4,54.9z M41.3,55.7c0.1,0,0.2,0.1,0.2,0.1
	c0.1,0.1,0.1,0.1,0.1,0.2c0,0.1,0,0.1,0,0.2c0,0.1-0.1,0.2-0.2,0.2c-0.1,0-0.1,0.1-0.2,0.1c-0.3,0-0.6-0.2-0.9-0.5
	c-0.1-0.1-0.3-0.2-0.3-0.3c0,0-0.1-0.1-0.1-0.1c0,0,0.1,0,0.1,0c0.1,0,0.3,0,0.5,0C40.8,55.6,41.1,55.7,41.3,55.7z M40.5,54.8
	c0.2-0.2,0.5-0.4,0.6-0.4c0.1,0,0.1,0,0.2,0.1c0.1,0,0.1,0.1,0.1,0.2c0,0.1,0,0.2,0,0.2c0,0.1-0.1,0.2-0.2,0.3
	c-0.2,0.1-0.5,0.2-0.7,0.2c-0.3,0-0.5,0-0.7,0c0,0,0,0,0,0c0,0,0-0.1,0.1-0.1C40.1,55.3,40.3,55,40.5,54.8z"/>
<polygon points="38,55.4 38,55.5 39.5,56.1 39.5,56.1 39.6,56.1 39.5,56 39.5,56 38.1,55.4 "/>
<polygon points="37.7,55.9 37.7,56 39.2,56.6 39.2,56.6 39.3,56.6 39.2,56.5 39.2,56.5 37.8,55.9 "/>
<polygon class="st10" points="37.6,60.4 33.3,58.5 33.1,59 44.4,63.9 44.6,63.4 44.6,63.4 "/>
<polygon class="st11" points="39.4,27.8 39.4,27.8 39.5,27.9 39.5,27.9 39.6,27.9 39.6,28 39.6,28 39.6,27.9 39.4,27.8 39.4,27.8 
	"/>
<polygon class="st11" points="35.1,29.1 35.1,29.1 35.2,29.1 35.2,29.1 "/>
<path class="st11" d="M35.3,27.9L35.3,27.9L35.3,27.9L35.3,27.9L35.3,27.9l-0.1-0.1l0,0l0,0c0,0,0,0.1-0.1,0.1l0,0l0,0l0,0l0,0
	c0-0.1,0.1-0.1,0.1-0.1L35.3,27.9L35.3,27.9L35.3,27.9z"/>
<path class="st11" d="M35.1,28.5L35.1,28.5L35.1,28.5L35.1,28.5L35,28.6l0,0C35.1,28.6,35.1,28.6,35.1,28.5L35.1,28.5L35.1,28.5
	L35.1,28.5L35.1,28.5z"/>
<polygon class="st11" points="35.2,27.2 35.1,27.2 35.1,27.2 "/>
<rect x="35.3" y="28.2" transform="matrix(0.8926 -0.4509 0.4509 0.8926 -8.9248 18.9345)" class="st11" width="0" height="0"/>
<path class="st11" d="M34.6,28.5L34.6,28.5L34.6,28.5L34.6,28.5c0,0.1,0,0.1,0.1,0.1l0.1,0l0,0l0,0C34.7,28.6,34.6,28.6,34.6,28.5z"
	/>
<polygon class="st11" points="35.1,26.6 35.1,26.6 35.2,26.7 35.1,26.6 35.1,26.6 "/>
<polygon class="st11" points="35,26.7 35,26.7 35,26.6 35,26.6 "/>
<polygon class="st11" points="34.8,26.6 34.8,26.6 34.8,26.6 34.8,26.6 "/>
<polygon class="st11" points="34.9,26.9 34.9,27 34.9,27 34.9,26.9 "/>
<polygon class="st11" points="34.9,27.9 34.9,28 34.9,27.9 34.9,27.9 34.9,27.9 "/>
<polygon class="st11" points="34.9,29.3 34.9,29.3 34.9,29.3 34.9,29.2 "/>
<polygon class="st11" points="35,29.6 34.9,29.6 34.9,29.7 35,29.7 35,29.6 35,29.6 35,29.6 35,29.5 "/>
<polygon class="st11" points="35.3,29.4 35.3,29.4 35.3,29.4 "/>
<polygon class="st11" points="35.6,28.4 35.6,28.4 35.6,28.4 "/>
<path class="st11" d="M35.7,26.9L35.7,26.9L35.7,26.9l0.1,0l0,0c0.1,0,0.1,0,0.1,0.1l0,0l0-0.1l0,0l0,0l0,0h0
	c-0.1,0-0.1-0.1-0.1-0.1l0.1-0.1l0,0l-0.1,0l-0.1,0l0,0c0,0-0.1,0-0.1,0l0,0l0,0l0,0C35.7,26.8,35.7,26.9,35.7,26.9z"/>
<polygon class="st11" points="35.6,28.8 35.6,28.8 35.6,28.7 "/>
<polygon class="st11" points="35.9,26.6 35.9,26.6 36,26.6 "/>
<path class="st11" d="M36,26.6C36.1,26.6,36.1,26.6,36,26.6L36,26.6L36,26.6L36,26.6C36.1,26.6,36,26.5,36,26.6L36,26.6L36,26.6
	L36,26.6L36,26.6L36,26.6z"/>
<polygon class="st11" points="35.7,26.5 35.7,26.5 35.6,26.5 35.6,26.5 35.6,26.5 35.6,26.5 "/>
<polygon class="st11" points="35.6,28.7 35.6,28.7 35.6,28.7 "/>
<path class="st11" d="M35.6,27.3L35.6,27.3l0-0.1L35.6,27.3c-0.1-0.1-0.1-0.2-0.1-0.2l0,0l0,0l-0.1,0l-0.1,0l0,0.1l0,0.1l0,0
	c0,0,0.1-0.1,0.1-0.1C35.5,27.1,35.5,27.2,35.6,27.3L35.6,27.3C35.5,27.3,35.5,27.3,35.6,27.3c0,0.1-0.1,0.2-0.1,0.2
	c0,0-0.1,0-0.1-0.1l0,0l0,0c0,0,0,0.1-0.1,0.1l0,0c0,0,0.1-0.1,0.1-0.1l0,0l0.1,0l0,0l0.1-0.1L35.6,27.3L35.6,27.3z"/>
<polygon class="st11" points="35.4,26.8 35.4,26.8 35.4,26.8 35.4,26.8 35.4,26.8 35.3,26.8 35.3,26.8 35.3,26.8 35.4,26.8 "/>
<polygon class="st11" points="35.5,28.3 35.5,28.3 35.4,28.3 35.5,28.4 35.4,28.4 35.5,28.4 35.5,28.3 "/>
<polygon class="st11" points="35.4,29 35.4,29 35.4,29 "/>
<polygon class="st11" points="35.4,29.1 35.4,29.1 35.4,29.1 "/>
<polygon class="st11" points="35.5,29.2 35.5,29.2 35.5,29.3 35.5,29.3 35.5,29.3 35.5,29.3 35.6,29.2 "/>
<polygon class="st11" points="35.3,29.5 35.3,29.5 35.3,29.5 "/>
<polygon class="st11" points="37.1,26.8 37.1,26.8 37.1,26.8 37.1,26.8 37.1,26.8 "/>
<path class="st11" d="M34.9,26L34.9,26L34.9,26L34.9,26L34.9,26L34.9,26l0-0.1c0,0-0.1,0-0.1,0L34.9,26L34.9,26z"/>
<rect x="33.4" y="28.1" transform="matrix(0.7896 -0.6136 0.6136 0.7896 -10.1932 26.3987)" class="st11" width="0" height="0"/>
<polygon class="st11" points="35.3,26 35.3,26 35.3,26 "/>
<path class="st11" d="M33.7,27.7L33.7,27.7L33.7,27.7L33.7,27.7l-0.1,0.1L33.7,27.7l0.1,0.1l0,0C33.8,27.8,33.7,27.7,33.7,27.7z"/>
<polygon class="st11" points="36.3,26.6 36.3,26.6 36.4,26.6 36.4,26.6 36.4,26.5 36.4,26.5 36.4,26.5 36.4,26.5 36.4,26.5 "/>
<path class="st11" d="M38.4,29.9c0,0,0.1,0.1,0.1,0.1l0,0l0,0c0-0.1,0.1-0.1,0.1-0.1l0.1,0l0,0l0,0l-0.1-0.1L38.4,29.9
	C38.4,29.9,38.4,29.9,38.4,29.9L38.4,29.9L38.4,29.9L38.4,29.9z"/>
<polygon class="st11" points="33.5,28.7 33.5,28.7 33.5,28.7 33.5,28.8 33.5,28.8 33.5,28.7 "/>
<polygon class="st11" points="33.7,28 33.7,28 33.7,28 33.8,28 33.8,28 33.8,28 33.8,28 "/>
<polygon class="st11" points="34.3,27 34.3,27 34.3,27 34.3,27 34.3,27 34.3,27 34.3,27 "/>
<path class="st11" d="M33.2,28.1L33.2,28.1L33.2,28.1L33.2,28.1L33.2,28.1l0-0.1C33.2,28,33.1,28,33.2,28.1L33.2,28.1L33.2,28.1z"/>
<polygon class="st11" points="34.5,26.6 34.5,26.6 34.5,26.6 34.5,26.6 "/>
<path class="st11" d="M36.1,26.8L36.1,26.8L36.1,26.8c0,0,0.1-0.1,0.1-0.1l-0.1,0L36.1,26.8L36.1,26.8L36.1,26.8z"/>
<path class="st11" d="M32.5,28.3L32.5,28.3L32.5,28.3L32.5,28.3L32.5,28.3L32.5,28.3L32.5,28.3L32.5,28.3L32.5,28.3L32.5,28.3
	C32.5,28.2,32.5,28.2,32.5,28.3L32.5,28.3L32.5,28.3z"/>
<path class="st11" d="M37.7,27.2c0,0.1-0.1,0.1-0.1,0.1l0,0.1l0,0.1l0,0.1l0.1,0l0,0l0,0c0.1,0,0.1,0,0.1,0.1c0,0,0.1,0,0.1,0
	c0.1,0,0.1,0.1,0.1,0.1l0,0l0,0c0-0.1,0.1-0.1,0.1-0.1l0,0l0-0.1l0,0l0-0.1c0,0-0.1-0.1-0.1-0.1l0,0l0,0l0,0.1
	c0,0.1-0.1,0.1-0.1,0.1l0,0c0,0-0.1,0-0.1,0l-0.1-0.1c0,0-0.1-0.1-0.1-0.1C37.7,27.2,37.8,27.2,37.7,27.2L37.7,27.2L37.7,27.2
	L37.7,27.2L37.7,27.2L37.7,27.2z"/>
<polygon class="st11" points="34.5,27.2 34.5,27.2 34.5,27.1 34.6,27.1 34.6,27 34.6,27 34.5,27 34.5,27 34.5,27.1 34.5,27.2 "/>
<polygon class="st11" points="34.4,29.1 34.3,29.1 34.3,29.1 34.3,29.1 34.3,29.1 34.3,29.1 34.3,29.1 34.3,29.2 34.3,29.2 
	34.4,29.2 34.4,29.2 34.4,29.1 "/>
<polygon class="st11" points="34.3,27.4 34.3,27.4 34.3,27.4 34.3,27.4 "/>
<polygon class="st11" points="34.2,27.9 34.2,27.9 34.2,27.9 34.2,27.9 34.2,27.9 34.2,27.9 34.3,27.9 34.3,27.9 "/>
<polygon class="st11" points="34.5,28.1 34.5,28.1 34.5,28.2 34.5,28.1 34.5,28.1 "/>
<path class="st11" d="M34.3,28.1L34.3,28.1l-0.1,0l0,0l0,0l0,0C34.2,28.2,34.2,28.2,34.3,28.1L34.3,28.1L34.3,28.1L34.3,28.1
	L34.3,28.1z"/>
<path class="st11" d="M34.6,27.8L34.6,27.8L34.6,27.8l-0.1,0l0,0c0,0,0,0.1-0.1,0.1l0,0L34.6,27.8L34.6,27.8L34.6,27.8L34.6,27.8
	L34.6,27.8z"/>
<polygon class="st11" points="34.7,29.1 34.7,29.1 34.7,29.1 34.7,29.1 "/>
<polygon class="st11" points="34.1,27.3 34.1,27.3 34.2,27.3 "/>
<polygon class="st11" points="39.6,29.1 39.6,29.1 39.6,29.1 "/>
<polygon class="st11" points="34.7,27.2 34.7,27.2 34.7,27.3 34.7,27.3 "/>
<polygon class="st11" points="34,28.5 34,28.5 34,28.5 "/>
<polygon class="st11" points="34.1,28.2 34.1,28.2 34.1,28.2 "/>
<polygon class="st11" points="34.1,27.3 34.1,27.3 34,27.4 34,27.4 34.1,27.4 34.1,27.4 34.1,27.3 "/>
<polygon class="st11" points="35,29.5 35,29.5 35,29.5 "/>
<path class="st11" d="M37.6,30.1L37.6,30.1c-0.2,0-0.2,0-0.2-0.1l0,0l0,0c0,0.1-0.1,0.1-0.1,0.1l-0.1,0l0,0l0,0.1l0,0.1
	c0,0.1-0.1,0.1-0.1,0.1l-0.1,0l-0.1,0l0,0l-0.1,0l0,0c0,0.1-0.1,0.1-0.1,0.1l0,0l0,0l0.1,0l0.1,0l0,0c0,0,0.1,0,0.1,0.1l0,0l0,0
	l0-0.1l0,0l0-0.1c0-0.1,0.1-0.1,0.1-0.1l0,0c0,0,0.1-0.1,0.1-0.1l0-0.1c0-0.1,0.1-0.1,0.1-0.1c0.1,0,0.1,0.1,0.1,0.1l0,0l0,0
	C37.5,30.2,37.5,30.1,37.6,30.1l0.1,0.1l0.1-0.1l0,0l0,0c0,0-0.1-0.1-0.1-0.1l0,0l-0.1,0C37.7,30.1,37.6,30.1,37.6,30.1z"/>
<path class="st11" d="M37.7,29.6L37.7,29.6c0-0.1,0.1-0.2,0.1-0.2l0,0l0-0.1l0,0l-0.1,0l-0.1,0l0,0.1L37.7,29.6L37.7,29.6
	c0,0-0.1,0-0.1,0L37.7,29.6C37.6,29.6,37.6,29.6,37.7,29.6z"/>
<polygon class="st11" points="37.8,30.4 37.8,30.4 37.8,30.4 37.8,30.4 "/>
<path class="st11" d="M36.1,27.1L36.1,27.1L36.1,27.1l-0.1,0.1L36,27.3l0,0l0,0l0,0l0,0l0,0l0.1,0l0,0c0,0-0.1-0.1,0-0.1
	c0,0,0-0.1,0.1-0.1L36.1,27.1L36.1,27.1z"/>
<path class="st11" d="M37.4,27.5L37.4,27.5c0.1,0,0.1,0.1,0.1,0.1l0,0.1l0.1,0l0,0l0-0.1c0,0-0.1-0.1-0.1-0.1l0-0.1l0-0.1l0,0l0,0
	l0,0L37.4,27.5L37.4,27.5z"/>
<path class="st11" d="M37.4,27.2L37.4,27.2L37.4,27.2L37.4,27.2c0.1-0.1,0.1-0.1,0.2-0.1l0,0l0,0L37.5,27l-0.1,0L37.4,27.2
	L37.4,27.2L37.4,27.2z"/>
<path class="st11" d="M37.6,30.4L37.6,30.4L37.6,30.4L37.6,30.4l0.1,0l0.1-0.1l-0.1,0C37.7,30.4,37.6,30.4,37.6,30.4z"/>
<polygon class="st11" points="37.4,28 37.5,28.1 37.5,28.1 37.5,28.1 37.5,28 37.5,28 "/>
<path class="st11" d="M36.4,29.3L36.4,29.3L36.4,29.3L36.4,29.3C36.4,29.3,36.4,29.4,36.4,29.3L36.4,29.3L36.4,29.3l0,0.1L36.4,29.3
	L36.4,29.3z"/>
<path class="st11" d="M36.3,28.4L36.3,28.4l0,0.1l0,0.1l0,0l0,0l0.1,0l0,0l0.1-0.1C36.4,28.5,36.4,28.5,36.3,28.4
	C36.4,28.4,36.4,28.5,36.3,28.4L36.3,28.4z"/>
<polygon class="st11" points="36.6,28.8 36.6,28.8 36.6,28.8 36.6,28.8 "/>
<polygon class="st11" points="37.3,30.4 37.4,30.4 37.3,30.4 "/>
<polygon class="st11" points="36.7,30.3 36.7,30.3 36.7,30.3 36.7,30.2 "/>
<path class="st11" d="M36.8,30L36.8,30L36.8,30L36.8,30c0,0-0.1,0-0.1,0c-0.1,0-0.1-0.1-0.1-0.1c0-0.1,0.1-0.1,0.1-0.1l0,0
	c0,0-0.1-0.1-0.1-0.1l-0.1,0l0,0l0,0l0,0l0,0.1c0,0,0.1,0.1,0.1,0.1l0,0l0,0l0.1,0.1l0.1,0L36.8,30L36.8,30z"/>
<path class="st11" d="M37.5,28.6L37.5,28.6L37.5,28.6L37.5,28.6L37.5,28.6l-0.1,0c0,0,0.1,0.1,0.1,0.1l0,0c0,0,0.1,0,0.1,0.1l0,0
	l0,0C37.5,28.6,37.5,28.6,37.5,28.6z"/>
<path class="st11" d="M36.6,29L36.6,29L36.6,29l-0.1,0l0,0c0,0,0,0.1-0.1,0.1l0,0.1l0,0l0.1,0l0,0c0,0,0-0.1,0.1-0.1l0,0
	C36.5,29,36.5,29,36.6,29z"/>
<path class="st11" d="M35.2,26.2L35.2,26.2L35.2,26.2c0,0,0.1,0,0.1,0c0,0,0.1,0.1,0.1,0.1l0,0l0,0l0,0.1l0.1,0.1l0.1,0
	c0,0-0.1-0.1-0.1-0.1c0,0,0-0.1,0.1-0.1c0,0,0-0.1,0-0.1l0,0l-0.1-0.1l0,0l0,0C35.3,26.2,35.3,26.2,35.2,26.2L35.2,26.2z"/>
<polygon class="st11" points="36.3,26.7 36.3,26.7 36.3,26.7 "/>
<polygon class="st11" points="38.7,28.2 38.7,28.2 38.7,28.2 38.7,28.1 38.7,28.1 "/>
<path class="st11" d="M39.4,30L39.4,30L39.4,30l0.1,0l0-0.1l0,0c0,0-0.1-0.1-0.1-0.1l-0.1,0l0,0C39.4,29.8,39.4,29.9,39.4,30
	L39.4,30z"/>
<polygon class="st11" points="39.1,30.8 39.1,30.8 39.1,30.8 "/>
<path class="st11" d="M34.9,26.3L34.9,26.3L34.9,26.3c0.1,0,0.1,0,0.1,0l0,0l0,0l0,0L34.9,26.3L34.9,26.3L34.9,26.3L34.9,26.3z"/>
<path class="st11" d="M37.6,27.8L37.6,27.8L37.6,27.8l0.1,0c0.1,0,0.1,0.1,0.1,0.1c0,0.1-0.1,0.1-0.1,0.1l-0.1,0l-0.1,0
	c0,0,0,0.1,0,0.1c0,0.1-0.1,0.1-0.1,0.1l-0.1,0l0,0h0l0.1,0l0,0c0,0,0.1,0.1,0.1,0.1l0,0c0,0,0.1,0,0.1,0.1l0,0l0,0l0,0l0.1,0
	c0,0,0.1,0.1,0.1,0.1l0,0.1l0,0l0.1,0l0.1,0l0,0c-0.1,0-0.1-0.1-0.1-0.1c0-0.1,0.1-0.1,0.1-0.1l0,0c0,0,0.1-0.1,0.1-0.1l0,0l0.1,0
	c0,0-0.1-0.1-0.1-0.1l-0.1,0l-0.1,0l0,0l0,0c0,0.1,0,0.1-0.1,0.1c0,0-0.1,0.1-0.1,0.1l-0.1,0c0,0-0.1-0.1-0.1-0.1
	c0-0.1,0-0.1,0.1-0.1c0,0,0-0.1,0-0.1c0-0.1,0.1-0.1,0.1-0.1l0,0l0-0.1c0,0,0,0,0-0.1c0,0,0.1-0.1,0.1-0.1l0,0l0,0c0,0,0-0.1,0-0.1
	c0,0-0.1,0.1-0.1,0.1l-0.1,0c0,0.1-0.1,0.1-0.1,0.1l0,0l-0.1,0L37.6,27.8L37.6,27.8z"/>
<path class="st11" d="M36.3,27.4L36.3,27.4c0.1,0,0.1,0.1,0.1,0.1l0,0l0,0l0.1,0l0,0l0,0l0,0l0,0l0,0l0,0l0,0l-0.1,0l-0.1,0
	L36.3,27.4L36.3,27.4z"/>
<path class="st11" d="M37.2,27.5L37.2,27.5L37.2,27.5l0-0.2c0,0,0-0.1,0.1-0.1l0,0l0.1-0.1l0,0l0,0l-0.1,0l0,0l0,0
	c0,0,0.1,0.1,0.1,0.1c0,0,0,0.1-0.1,0.1C37.1,27.4,37.2,27.5,37.2,27.5z"/>
<polygon class="st11" points="37.8,28.8 37.8,28.8 37.8,28.8 37.8,28.8 37.8,28.8 37.8,28.8 "/>
<path class="st11" d="M37,27.6L37,27.6L37,27.6l-0.1,0l0,0L37,27.6c0,0,0,0.1,0,0.1l0,0l0,0.1l0,0.1c0,0,0.1,0.1,0.1,0.1
	c0,0.1,0,0.1-0.1,0.1l0,0l0,0l0,0l0,0.1l0,0c0,0,0.1,0.1,0.1,0.1l0,0l0.1-0.1l0,0l0-0.1l0,0c0,0,0-0.1,0.1-0.1l0-0.1l0-0.1l0-0.1
	l-0.1-0.1l0,0C37,27.8,37,27.7,37,27.6z"/>
<path class="st11" d="M36.4,27C36.5,27,36.5,27,36.4,27c0.1,0,0.1,0,0.2,0l0,0l0,0L36.4,27L36.4,27L36.4,27L36.4,27L36.4,27L36.4,27
	L36.4,27L36.4,27z"/>
<path class="st11" d="M37.3,29.8C37.2,29.8,37.2,29.8,37.3,29.8L37.3,29.8l-0.1-0.1l0,0l0,0C37.1,29.8,37.2,29.9,37.3,29.8l-0.1,0.1
	C37.2,29.9,37.2,29.8,37.3,29.8c0.1,0,0.2,0.1,0.2,0.1l0,0c0,0,0.1-0.1,0.1-0.1l0,0l0.1,0l0.1,0l0,0l-0.1-0.1c0,0-0.1,0.1-0.1,0.1
	l-0.1,0L37.3,29.8L37.3,29.8z"/>
<path class="st11" d="M35.8,29.2L35.8,29.2L35.8,29.2L35.8,29.2L35.8,29.2c0,0.2-0.1,0.2-0.1,0.2l0,0l0,0l0,0l0,0l0.1-0.1l0,0
	c0-0.1,0.1-0.1,0.1-0.1C35.8,29.3,35.8,29.3,35.8,29.2z"/>
<polygon class="st11" points="36.1,30 36.1,30 36.1,30 36.1,30 36.2,30.1 36.2,30 "/>
<polygon class="st11" points="35.7,28.4 35.7,28.4 35.7,28.4 35.7,28.4 35.7,28.4 "/>
<polygon class="st11" points="35.7,28.6 35.6,28.6 35.6,28.6 35.6,28.6 35.7,28.6 "/>
<path class="st11" d="M36.1,29.3L36.1,29.3L36,29.3l-0.1,0l0,0c0.1,0,0.1,0.1,0.1,0.1l0,0l0,0l0,0L36.1,29.3L36.1,29.3L36.1,29.3z"
	/>
<polygon class="st11" points="36,29.9 35.9,29.9 35.9,29.9 35.9,29.9 35.9,29.9 36,29.9 36,29.9 36,29.9 36,29.9 "/>
<polygon class="st11" points="36,28.5 36,28.4 36,28.4 "/>
<path class="st11" d="M36,28.3L36,28.3L36,28.3c0,0,0.1,0,0.1,0l0,0l0.1,0l0,0l-0.1,0c-0.1,0-0.1-0.1-0.1-0.1c0,0,0-0.1,0.1-0.1l0,0
	l0,0c0,0-0.1,0.1-0.1,0.1l0,0l0,0l0,0l-0.1,0l0,0l0,0l0.1,0C36,28.2,36,28.2,36,28.3z"/>
<path class="st11" d="M36,27.8L36,27.8L36,27.8L36,27.8C36.1,27.8,36,27.8,36,27.8L36,27.8L36,27.8L36,27.8L36,27.8z"/>
<polygon class="st11" points="36.2,28.1 36.2,28.1 36.2,28.1 "/>
<polygon class="st11" points="36.1,27.7 36.1,27.7 36.1,27.7 36.1,27.7 "/>
<rect x="35.8" y="28.2" transform="matrix(0.9995 -3.088760e-02 3.088760e-02 0.9995 -0.8529 1.1181)" class="st11" width="0" height="0"/>
<polygon class="st11" points="35.7,27.5 35.7,27.5 35.7,27.5 35.8,27.5 35.7,27.5 35.7,27.5 35.7,27.5 35.7,27.5 "/>
<polygon class="st11" points="35.8,29 35.8,28.9 35.8,29 35.8,29 "/>
<polygon class="st11" points="36.8,28.3 36.8,28.3 36.8,28.3 36.8,28.3 "/>
<polygon class="st11" points="36.8,28.5 36.8,28.5 36.8,28.5 36.8,28.6 36.8,28.6 36.7,28.6 36.8,28.7 36.8,28.6 36.8,28.6 
	36.8,28.5 "/>
<path class="st11" d="M36.4,27.9L36.4,27.9L36.4,27.9c0,0,0,0.1,0,0.1l0,0.1l0,0l0,0l0,0l0.1,0l0-0.1c0,0,0-0.1,0.1-0.1l0,0
	c-0.1,0-0.1-0.1-0.1-0.1C36.5,27.9,36.5,27.9,36.4,27.9z"/>
<polygon class="st11" points="36.7,27.6 36.7,27.6 36.7,27.6 36.8,27.6 36.8,27.6 "/>
<polygon class="st11" points="36.8,28 36.9,27.9 36.8,27.9 36.8,27.9 36.8,28 36.8,28 "/>
<polygon class="st11" points="36.5,27.8 36.6,27.8 36.5,27.7 36.5,27.8 "/>
<polygon class="st11" points="36.7,29.6 36.6,29.5 36.6,29.5 36.7,29.6 36.7,29.6 36.7,29.6 36.7,29.6 "/>
<path class="st11" d="M36.2,29.6L36.2,29.6L36.2,29.6L36.2,29.6L36.2,29.6l-0.1,0.1l0,0C36.1,29.7,36.2,29.7,36.2,29.6L36.2,29.6
	L36.2,29.6L36.2,29.6z"/>
<polygon class="st11" points="36.9,27.4 36.9,27.5 37,27.4 36.9,27.5 "/>
<path class="st11" d="M36.7,27.2L36.7,27.2c0,0-0.1,0.1-0.1,0.1c0,0-0.1,0-0.1-0.1l0,0.1l0,0c0,0,0.1,0.1,0.1,0.1l0,0l0.1,0
	c0,0,0.1,0,0.1,0l0.1,0l0.1,0l0,0l0,0l0,0C36.8,27.4,36.7,27.3,36.7,27.2C36.7,27.2,36.8,27.2,36.7,27.2c0.1,0,0.1,0,0.2,0l0,0l0,0
	l0-0.1l0,0l0-0.1l0,0l0,0l0,0c-0.1,0-0.1-0.1-0.1-0.1l0-0.1l0-0.1l0,0l0,0c0,0-0.1,0-0.1-0.1l0,0l0,0c0,0,0,0.1-0.1,0.1l0,0l0,0
	c0.1,0,0.1,0.1,0.1,0.1l0,0l0,0c0,0,0.1,0.1,0.1,0.1C36.8,27.1,36.8,27.2,36.7,27.2z"/>
<path class="st11" d="M36.3,30.2L36.3,30.2C36.3,30.2,36.4,30.2,36.3,30.2L36.3,30.2L36.3,30.2L36.3,30.2L36.3,30.2z"/>
<polygon class="st11" points="36.9,30.2 36.9,30.1 36.9,30.1 36.9,30.2 36.9,30.2 "/>
<path class="st11" d="M36.9,28.9C36.8,28.9,36.8,28.9,36.9,28.9l-0.1,0l0,0.1l0,0.1c0,0,0.1,0,0.1,0.1c0,0,0,0.1,0,0.1l0,0l0,0l0,0
	l0,0c0-0.1,0.1-0.1,0.1-0.1l0,0l0-0.1l0,0l0,0c0,0-0.1-0.1-0.1-0.1l0,0c0,0,0-0.1,0-0.1c0-0.1,0.1-0.1,0.2-0.1l0,0l0,0l0,0l0,0l0,0
	l0,0l-0.1,0l-0.1,0l0,0l0,0l0,0.1l0,0.1l0,0.1C37,28.8,36.9,28.9,36.9,28.9z"/>
<path class="st11" d="M37.1,29.3L37.1,29.3L37.1,29.3L37.1,29.3L37.1,29.3C37.2,29.4,37.1,29.4,37.1,29.3L37.1,29.3z"/>
<path class="st11" d="M38.1,28.8L38.1,28.8L38.1,28.8L38.1,28.8L38.1,28.8L38.1,28.8L38.1,28.8L38.1,28.8L38.1,28.8
	C38.2,28.8,38.2,28.8,38.1,28.8z"/>
<path class="st11" d="M50.4,34.3c-0.1-0.5-0.4-0.9-0.7-1.3c-0.1-0.1-0.1-0.1-0.2-0.2c0,0,0,0,0,0c-0.4-0.4-0.8-0.8-1.3-1l-6.6-2.9
	c0,0-0.1,0.1-0.1,0.1l0,0.1c0,0.1-0.1,0.1-0.1,0.1c-0.1,0-0.1-0.1-0.1-0.1c0-0.1,0.1-0.1,0.1-0.1l0-0.1l0,0l-0.1,0v0
	c0,0-0.1,0.1-0.1,0.1c-0.1,0-0.1-0.1-0.1-0.1l0-0.1L41,28.5c0,0-0.1,0.1-0.1,0.1c0,0-0.1-0.1-0.1-0.1l0,0l-0.2-0.1l0,0.1l0,0l0,0
	c0.1,0,0.1,0.1,0.1,0.1c0,0-0.1,0.1-0.1,0.1l0,0l0,0c0,0.1-0.1,0.1-0.1,0.1c-0.1,0-0.1-0.1-0.1-0.1l0,0l0.1-0.1l0,0
	c0,0-0.1,0.1-0.1,0.1l-0.1-0.1l-0.1,0c0,0-0.1-0.1-0.1-0.1c0-0.1,0.1-0.1,0.1-0.1c0,0,0.1,0,0.1,0.1l0,0c0,0,0.1-0.1,0.1-0.1l0.1,0
	l0,0L39.8,28c0,0-0.1,0.1-0.1,0.1l-0.1,0c0,0.1-0.1,0.1-0.1,0.1l-0.1,0l-0.1,0h0v0c0,0-0.1,0.1-0.1,0.1c-0.1,0-0.1-0.1-0.1-0.1
	c0-0.1,0-0.1,0.1-0.1l0-0.1l0,0l0,0c0,0-0.1,0-0.1-0.1l-0.1,0l0,0l0,0c0,0-0.1-0.1-0.1-0.1c0,0,0-0.1,0.1-0.1l-0.1-0.1
	c0,0-0.1,0-0.1,0c0,0-0.1,0-0.1-0.1l0-0.1l-0.1-0.1l0,0.1c0,0.1-0.1,0.1-0.1,0.1l0,0l0,0l0,0c0.1,0,0.1,0,0.1,0.1c0,0,0,0.1-0.1,0.1
	c0.1,0,0.1,0,0.1,0.1l0,0c0,0,0,0.1-0.1,0.1c0,0-0.1,0.1-0.1,0l0,0l0,0l-0.1,0.1l0,0l0,0v0l0.1,0c0.1,0,0.1,0,0.1,0.1l0,0
	c0,0,0.1,0.1,0.1,0.1l0,0.1l0,0c0.1,0,0.1,0.1,0.1,0.1c0,0.1-0.1,0.1-0.1,0.1c0,0-0.1,0-0.1-0.1l0,0l-0.1,0l0,0l0,0.1l0,0l0,0
	c0.1,0,0.1,0.1,0.1,0.1l0,0l0,0l0,0l0,0c0-0.1,0.1-0.1,0.1-0.1c0.1,0,0.1,0.1,0.1,0.1l0.1,0l0,0l0,0l0-0.1c0-0.1,0.1-0.1,0.1-0.1
	c0.1,0,0.1,0.1,0.1,0.1l0,0l0,0c0.1,0,0.1,0.1,0.1,0.1l0,0l0,0l0.1,0.1l0,0l0.1-0.1c0,0,0-0.1,0-0.1c0-0.1,0.1-0.1,0.1-0.1
	c0.1,0,0.1,0.1,0.1,0.1c0,0,0,0.1-0.1,0.1l0.1,0.1c0-0.1,0.1-0.1,0.1-0.1l0,0l0.1,0c0.1,0,0.1,0.1,0.1,0.1c0,0.1-0.1,0.1-0.1,0.1
	c0,0,0.1,0,0.1,0.1l0,0l0,0l0,0l0-0.1l0-0.1c0-0.1,0.1-0.1,0.1-0.1l0,0c0,0,0.1-0.1,0.1-0.1c0.1,0,0.1,0.1,0.1,0.1
	c0,0,0,0.1-0.1,0.1l0,0l0,0.1l0.1,0.1c0.1,0,0.1,0.1,0.1,0.1c0,0.1-0.1,0.1-0.1,0.1c0,0-0.1,0-0.1-0.1l-0.1,0l-0.1,0l0,0l0,0l0,0.1
	c0,0.1-0.1,0.1-0.1,0.1c-0.1,0-0.1-0.1-0.1-0.1l0,0c-0.1,0-0.1-0.1-0.1-0.1l0-0.1c0,0,0-0.1,0.1-0.1l0,0c0,0-0.1-0.1-0.1-0.1
	c0,0.1-0.1,0.1-0.1,0.1l0,0l0,0c0,0,0.1,0.1,0.1,0.1c0,0.1-0.1,0.1-0.1,0.1c-0.1,0-0.1-0.1-0.1-0.1L39,29.2l0,0l-0.1,0l0,0l-0.1,0
	c0,0-0.1,0-0.1-0.1l0,0l-0.1,0c0,0-0.1,0.1-0.1,0.1l-0.1,0l-0.1,0l-0.1,0l0,0l0,0l0,0c0.1,0,0.1,0.1,0.1,0.1l0,0.1
	c0,0.1-0.1,0.1-0.1,0.1c0,0-0.1-0.1-0.1-0.1c0,0,0-0.1,0-0.1l0-0.1l0,0c0,0-0.1-0.1-0.1-0.1L38.1,29l0,0v0c0,0.1-0.1,0.1-0.1,0.1
	L37.8,29c0,0-0.1,0.1-0.1,0.1L37.6,29l0,0c-0.1,0-0.1-0.1-0.1-0.1l0,0l0,0l0,0l0,0l0,0.1c0,0,0,0.1-0.1,0.1c0,0,0,0.1,0,0.1l0,0l0,0
	c0.1,0,0.1,0.1,0.1,0.1l0,0l0,0c0,0,0-0.1,0-0.1l0,0c0-0.1,0.1-0.1,0.1-0.1c0,0,0.1,0,0.1,0.1l0,0c0,0,0.1,0.1,0.1,0.1l0,0l0,0
	l0-0.1c0-0.1,0.1-0.1,0.2-0.1c0,0,0.1,0.1,0.1,0.1l0,0c0,0.1,0,0.1-0.1,0.1l0,0c0,0.1-0.1,0.1-0.1,0.1l0,0l0,0.1c0,0,0,0.1-0.1,0.1
	l0,0c0,0,0,0.1-0.1,0.1l0,0c0,0,0.1,0.1,0.1,0.1l0.1,0c0,0,0-0.1,0.1-0.1l0,0l0,0l0,0l0.1-0.1l0,0l0-0.1c0,0-0.1-0.1-0.1-0.1
	c0-0.1,0.1-0.1,0.1-0.1c0.1,0,0.1,0.1,0.1,0.1l0,0.1l0,0l0.1,0c0,0,0.1,0,0.1,0.1l0,0.1l0,0l0-0.1c-0.1,0-0.1-0.1-0.1-0.1
	c0-0.1,0.1-0.1,0.1-0.1c0,0,0.1,0,0.1,0.1l0.1,0.1l0,0l0-0.1l0-0.1l0-0.1l0,0c-0.1,0-0.1-0.1-0.1-0.1l0-0.1c0,0,0.1-0.1,0.1-0.1
	c0.1,0,0.1,0.1,0.1,0.1l0,0c0,0,0.1,0.1,0.1,0.1l0,0l0,0l0.1,0c0.1,0,0.1,0.1,0.1,0.1c0,0.1-0.1,0.1-0.1,0.1l-0.1,0l-0.1,0l0,0l0,0
	l0,0c0,0,0,0.1,0,0.1c0,0,0,0.1-0.1,0.1l0,0c0,0,0.1,0.1,0.1,0.1c0,0.1-0.1,0.1-0.1,0.1l-0.1,0l0,0.1c0,0-0.1,0.1-0.1,0.1
	c-0.1,0-0.1,0-0.1-0.1c0,0-0.1,0.1-0.1,0.1c-0.1,0-0.1-0.1-0.1-0.1l0,0l0-0.1l-0.1,0l-0.1,0L38,30.1c0,0,0,0.1,0,0.1l0,0l0,0l0.1,0
	c0.1,0,0.1,0.1,0.1,0.1l0,0.1l0,0.1c0,0.1-0.1,0.1-0.1,0.1L38,30.4l0,0l0,0.1l0,0.1l0,0c0,0,0.1,0,0.1,0.1l0,0
	c0-0.1,0.1-0.1,0.1-0.1c0.1,0,0.1,0,0.1,0.1c0,0.1-0.1,0.1-0.1,0.1c0,0-0.1,0-0.1-0.1l0,0l0,0.1c0.1,0,0.1,0.1,0.1,0.1
	c0,0.1,0,0.1-0.1,0.1l0,0l-0.1,0.1l0,0.1l0,0l0,0l0,0c0-0.1,0.1-0.1,0.1-0.1c0,0,0.1,0,0.1,0.1l0.1,0l0,0l0,0l0.1-0.1l0,0l0,0
	c0,0-0.1-0.1,0-0.1l0-0.1c0,0,0-0.1,0.1-0.1l0.1,0c0.1,0,0.1,0.1,0.1,0.1l-0.1,0.1l0,0c0,0,0.1,0.1,0,0.1L38.7,31l0,0.1
	c0,0.1-0.1,0.1-0.1,0.1l0,0l0,0l0,0.1l0,0l0,0l0.1,0l0,0l0.1,0c0,0,0.1,0,0.1,0.1h0c0.1,0,0.1,0.1,0.1,0.1c0,0.1-0.1,0.1-0.1,0.1
	c0,0-0.1,0-0.1-0.1l0,0l0,0l0,0c-0.2-0.2-0.4-0.3-0.7-0.4l0,0l0,0l0,0c0,0,0-0.1,0-0.1c0,0,0.1-0.1,0.1-0.1l0-0.1
	c-0.1,0-0.1,0-0.1-0.1l-0.1,0l-0.1,0l0,0v0c0,0-0.1,0.1-0.1,0.1l-0.1,0c-0.1,0-0.1-0.1-0.1-0.1c0,0,0-0.1,0.1-0.1l0,0l-0.1,0
	c0,0-0.1-0.1-0.1-0.1l0,0c0,0-0.1,0.1-0.1,0.1l0,0l0,0.1l0,0.1c0,0,0,0,0,0L37,30.7l0,0l0,0l-0.4-0.2c0,0,0,0,0.1,0l0,0l0,0l-0.1,0
	l0,0c0,0-0.1-0.1-0.1-0.1l0,0l-0.1-0.1l0,0l0,0l0,0.1c0,0,0,0,0,0l-0.5-0.3l0,0l0,0l0,0l0,0l0,0l0,0l-0.1,0c0,0-0.1-0.1-0.1-0.1l0,0
	l-0.1-0.1l0,0l0,0.1c0.1,0,0.1,0.1,0.1,0.1l0,0l0,0c0,0,0,0,0,0l-2-0.9l0,0l0,0l0,0l0,0l0,0l0,0l0,0L33.5,29c0,0,0-0.1,0.1-0.1l0,0
	l-0.1,0L33.4,29l0,0l-1-0.5l0,0l0,0l0,0l0,0l0,0l0,0l-0.5-0.2c-0.3,0-0.7,0-1-0.1l-8.1-2.4c-0.4-0.1-0.8-0.4-1.2-0.6
	c-0.7,0.4-1.4,1-1.8,1.8c-0.9,1.9-0.1,4.2,1.8,5.1l1,0.5l8.4,4l-2,3.9l-4.5,8.8l1.9,0.9l3.2,1.6l1.9,0.9l6.5-12.9l1.7-3.4
	c0,0,0,0,0,0l1.8,0.8l-1.1,2.4l-4.9,10.5l1.9,0.9l3.2,1.5l1.9,0.9l6.7-14.3l1-2.2C50.6,36,50.7,35.1,50.4,34.3z M38.4,30.5
	c-0.1,0-0.1-0.1-0.1-0.1c0-0.1,0.1-0.1,0.1-0.1c0.1,0,0.1,0.1,0.1,0.1C38.5,30.5,38.4,30.5,38.4,30.5z M44,30.8
	c0.1,0,0.1,0.1,0.1,0.1c0,0.1-0.1,0.1-0.1,0.1c-0.1,0-0.1-0.1-0.1-0.1C43.9,30.8,44,30.8,44,30.8z M43.2,30.2c0.1,0,0.1,0.1,0.1,0.1
	c0,0-0.1,0.1-0.1,0.1c-0.1,0-0.1-0.1-0.1-0.1C43.1,30.3,43.2,30.2,43.2,30.2z M40.5,33.9c0,0.1-0.1,0.1-0.1,0.1
	c-0.1,0-0.1-0.1-0.1-0.1c0-0.1,0.1-0.1,0.1-0.1C40.5,33.8,40.5,33.8,40.5,33.9z M39.6,31.2c0-0.1,0.1-0.1,0.1-0.1
	c0.1,0,0.1,0.1,0.1,0.1l-0.1,0.1c0.1,0,0.1,0.1,0.1,0.1c0,0.1-0.1,0.1-0.1,0.1l0,0c0,0.1-0.1,0.1-0.1,0.1c0,0-0.1-0.1-0.1-0.1
	c0-0.1,0.1-0.1,0.1-0.1l0,0l0.1-0.1C39.6,31.3,39.5,31.2,39.6,31.2z M40.3,29.9c0-0.1,0.1-0.1,0.1-0.1c0.1,0,0.1,0.1,0.1,0.1
	c0,0,0,0.1,0,0.1l0,0c0,0,0.1,0.1,0.1,0.1l0,0c0,0.1-0.1,0.1-0.1,0.1c-0.1,0-0.1-0.1-0.1-0.1l0,0l0-0.1C40.3,30.1,40.3,30,40.3,29.9
	L40.3,29.9z M41.4,33c0,0-0.1-0.1-0.1-0.1c0-0.1,0.1-0.1,0.1-0.1c0.1,0,0.1,0.1,0.1,0.1C41.5,33,41.4,33,41.4,33z M41.6,33.1
	c0.1,0,0.1,0.1,0.1,0.1c0,0.1-0.1,0.1-0.1,0.1c0,0-0.1-0.1-0.1-0.1C41.5,33.2,41.5,33.1,41.6,33.1z M40.7,32.4c0,0-0.1,0.1-0.1,0.1
	l0,0l0,0c0,0.1-0.1,0.1-0.1,0.1c0,0-0.1,0-0.1-0.1l0,0c0,0.1-0.1,0.1-0.1,0.1c-0.1,0-0.1-0.1-0.1-0.1c0-0.1,0.1-0.1,0.1-0.1
	c0,0,0.1,0,0.1,0.1l0,0c0,0,0.1-0.1,0.1-0.1l0-0.1l0,0l-0.1,0c-0.1,0-0.1-0.1-0.1-0.1c0-0.1,0.1-0.1,0.1-0.1l0.1,0l0.1,0
	c0.1,0,0.1,0.1,0.1,0.1l-0.1,0.1C40.7,32.4,40.7,32.4,40.7,32.4z M39.7,31.7c0,0,0.1-0.1,0.1-0.1c0,0,0.1-0.1,0.1-0.1
	c0.1,0,0.1,0.1,0.1,0.1c0,0-0.1,0.1-0.1,0.1c0,0-0.1,0.1-0.1,0.1l0.1,0.1l0,0.1l0,0.1c0,0.1-0.1,0.1-0.1,0.1c-0.1,0-0.1-0.1-0.1-0.1
	l0,0c0,0,0-0.1,0-0.1c0-0.1,0-0.1,0.1-0.1L39.7,31.7z M40.4,31.1c0,0-0.1,0.1-0.1,0.1c-0.1,0-0.1-0.1-0.1-0.1c0,0,0-0.1,0.1-0.1
	c0,0,0.1-0.1,0.1-0.1C40.4,30.9,40.5,30.9,40.4,31.1C40.4,31,40.4,31.1,40.4,31.1z M40.5,31.4c0,0.1-0.1,0.1-0.1,0.1
	c0,0-0.1-0.1-0.1-0.1c0-0.1,0.1-0.1,0.1-0.1C40.5,31.2,40.5,31.3,40.5,31.4z M40.2,31.2L40.2,31.2c0,0.1,0,0.1,0,0.2
	c0,0-0.1,0.1-0.1,0.1c-0.1,0-0.1-0.1-0.1-0.1l0-0.1c0,0-0.1-0.1-0.1-0.1c0-0.1,0.1-0.1,0.1-0.1C40.1,31.1,40.2,31.1,40.2,31.2z
	 M40.2,32.1c0,0.1-0.1,0.1-0.1,0.1c-0.1,0-0.1,0-0.1-0.1C40,32,40,32,40.1,32C40.1,32,40.2,32,40.2,32.1z M39.7,32.2
	c0,0,0.1,0.1,0.1,0.1c0,0.1-0.1,0.1-0.1,0.1c-0.1,0-0.1-0.1-0.1-0.1C39.5,32.2,39.6,32.2,39.7,32.2z M39.6,32.7
	C39.7,32.7,39.7,32.7,39.6,32.7c0.2,0,0.2,0,0.2,0.1c0,0.1-0.1,0.1-0.1,0.1C39.7,32.8,39.7,32.8,39.6,32.7z M40,33L40,33L40,33
	c-0.1,0-0.1-0.1-0.1-0.1c0-0.1,0.1-0.1,0.1-0.1c0.1,0,0.1,0.1,0.1,0.1l0,0l0,0c0.1,0,0.1,0.1,0.1,0.1c0,0.1-0.1,0.1-0.1,0.1
	C40,33.1,40,33,40,33z M40.3,33c0.1,0,0.1,0.1,0.1,0.1c0,0.1-0.1,0.1-0.1,0.1c-0.1,0-0.1-0.1-0.1-0.1C40.2,33,40.2,33,40.3,33z
	 M40.5,33.1c0.1,0,0.1,0.1,0.1,0.1c0,0.1-0.1,0.1-0.1,0.1c-0.1,0-0.1-0.1-0.1-0.1C40.4,33.1,40.4,33.1,40.5,33.1z M40.7,31.8
	c-0.1,0-0.1-0.1-0.1-0.1c0-0.1,0.1-0.1,0.2-0.1c0,0,0.1,0.1,0.1,0.1C40.8,31.7,40.7,31.8,40.7,31.8z M40.8,31.9
	c0,0.1-0.1,0.1-0.1,0.1c0,0-0.1-0.1-0.1-0.1c0-0.1,0.1-0.1,0.1-0.1C40.8,31.8,40.8,31.8,40.8,31.9z M40.7,32c0-0.1,0.1-0.1,0.1-0.1
	c0.1,0,0.1,0.1,0.1,0.1c0,0.1-0.1,0.1-0.1,0.1C40.7,32.2,40.7,32.1,40.7,32z M41,33.1c0.1,0,0.1,0.1,0.1,0.1c0,0.1-0.1,0.1-0.1,0.1
	c-0.1,0-0.1-0.1-0.1-0.1C40.9,33.1,40.9,33.1,41,33.1z M41,32.5c0-0.1,0.1-0.1,0.1-0.1c0,0,0.1,0.1,0.1,0.1l-0.1,0.1l0,0.1
	c0,0.1-0.1,0.1-0.1,0.1c-0.1,0-0.1-0.1-0.1-0.1L41,32.5L41,32.5z M41.2,33.3c0.1,0,0.1,0.1,0.1,0.1c0,0.1-0.1,0.1-0.1,0.1
	c-0.1,0-0.1-0.1-0.1-0.1C41.1,33.4,41.1,33.3,41.2,33.3z M41.4,31.9c0,0.1-0.1,0.1-0.1,0.1c0,0-0.1-0.1-0.1-0.1
	c0-0.1,0.1-0.1,0.1-0.1C41.4,31.8,41.4,31.8,41.4,31.9z M41.3,29.6c0-0.1,0.1-0.1,0.1-0.1c0.1,0,0.1,0.1,0.1,0.1
	c0,0.1-0.1,0.1-0.1,0.1C41.3,29.8,41.3,29.7,41.3,29.6z M41.2,31.5L41.2,31.5c0,0.1,0,0.2-0.1,0.2c-0.1,0-0.1-0.1-0.1-0.1l0.1-0.1
	c0,0,0-0.1,0-0.1c0-0.1,0.1-0.1,0.1-0.1C41.2,31.3,41.2,31.4,41.2,31.5L41.2,31.5z M40.9,30.6c-0.1,0-0.1-0.1-0.1-0.1
	c0-0.1,0.1-0.1,0.1-0.1c0.1,0,0.1,0.1,0.1,0.1C41,30.6,41,30.6,40.9,30.6z M40.9,30.1c0,0-0.1,0-0.1,0c0,0-0.1-0.1-0.1-0.1l0.1-0.1
	l0.1,0C40.9,29.9,40.9,29.9,40.9,30.1L40.9,30.1z M40.7,30.6c0.1,0,0.1,0.1,0.1,0.1l0,0c0,0,0.1,0.1,0.1,0.1c0,0-0.1,0.1-0.1,0.1
	c-0.1,0-0.1-0.1-0.1-0.1l0,0l0,0c0,0-0.1,0.1-0.1,0.1c0,0-0.1-0.1-0.1-0.1c0-0.1,0.1-0.1,0.1-0.1l0.1,0
	C40.6,30.6,40.7,30.6,40.7,30.6z M40.3,30.6c0,0.1-0.1,0.1-0.1,0.1c0,0-0.1-0.1-0.1-0.1c0-0.1,0.1-0.1,0.1-0.1
	C40.3,30.5,40.3,30.5,40.3,30.6z M40.1,30.7c0,0-0.1,0.1-0.1,0.1c0,0-0.1,0-0.1,0l0,0c0,0-0.1-0.1-0.1-0.1c0-0.1,0.1-0.1,0.1-0.1
	l0.1,0l0,0C40.1,30.6,40.1,30.7,40.1,30.7z M39.8,30.5c0,0-0.1-0.1-0.1-0.1c0-0.1,0.1-0.1,0.1-0.1c0.1,0,0.1,0.1,0.1,0.1
	C39.9,30.5,39.8,30.5,39.8,30.5z M39.8,30.9c0,0.1-0.1,0.1-0.1,0.1c0,0-0.1-0.1-0.1-0.1c0-0.1,0.1-0.1,0.1-0.1
	C39.7,30.8,39.8,30.8,39.8,30.9z M39.5,32.1C39.6,32.1,39.6,32.1,39.5,32.1c0,0.2,0,0.2-0.1,0.2l0,0l-0.1,0l0,0c0,0,0,0,0,0
	c0,0,0,0,0,0c0,0-0.1-0.1-0.1-0.1c0,0,0.1-0.1,0.1-0.1l0.1,0c0,0,0.1-0.1,0.1-0.1C39.5,32,39.5,32,39.5,32.1z M42.4,31.7
	c0.1,0,0.1,0.1,0.1,0.1c0,0.1-0.1,0.1-0.1,0.1c-0.1,0-0.1-0.1-0.1-0.1C42.3,31.8,42.3,31.7,42.4,31.7z M42.4,31
	c0-0.1,0.1-0.1,0.1-0.1c0.1,0,0.1,0.1,0.1,0.1c0,0.1-0.1,0.1-0.1,0.1C42.5,31.1,42.4,31.1,42.4,31z M42.2,30.6
	c-0.1,0-0.1-0.1-0.1-0.1c0-0.1,0.1-0.1,0.1-0.1c0.1,0,0.1,0.1,0.1,0.1C42.3,30.5,42.2,30.6,42.2,30.6z M42.1,32.4
	c0,0-0.1,0.1-0.1,0.1c-0.1,0-0.1-0.1-0.1-0.1c0-0.1,0.1-0.1,0.1-0.1C42.1,32.3,42.1,32.4,42.1,32.4z M42,32.8c0,0-0.1,0.1-0.1,0.1
	c-0.1,0-0.1-0.1-0.1-0.1c0-0.1,0.1-0.1,0.1-0.1C41.9,32.7,42,32.7,42,32.8z M41.9,32.3c-0.1,0-0.1-0.1-0.1-0.1
	c0-0.1,0.1-0.1,0.1-0.1c0.1,0,0.1,0.1,0.1,0.1C42,32.2,42,32.3,41.9,32.3z M41.8,30.9c-0.1,0-0.1-0.1-0.1-0.1c0-0.1,0.1-0.1,0.1-0.1
	c0.1,0,0.1,0.1,0.1,0.1C41.9,30.8,41.9,30.9,41.8,30.9z M42.9,30.7c0.1,0,0.1,0.1,0.1,0.1c0,0.1-0.1,0.1-0.1,0.1
	c0,0-0.1-0.1-0.1-0.1C42.8,30.7,42.9,30.7,42.9,30.7z M42.7,33.5c-0.1,0-0.1-0.1-0.1-0.1c0-0.1,0.1-0.1,0.1-0.1
	c0.1,0,0.1,0.1,0.1,0.1C42.8,33.4,42.7,33.5,42.7,33.5z M42.7,29.3c0.1,0,0.1,0.1,0.1,0.1c0,0.1-0.1,0.1-0.1,0.1
	c0,0-0.1-0.1-0.1-0.1C42.5,29.4,42.6,29.3,42.7,29.3z M42.5,30c0,0,0.1,0.1,0.1,0.1c0,0.1-0.1,0.1-0.1,0.1c0,0-0.1-0.1-0.1-0.1
	C42.4,30,42.5,30,42.5,30z M42.3,29.8c0,0,0.1,0.1,0.1,0.1c0,0.1-0.1,0.1-0.1,0.1c-0.1,0-0.1-0.1-0.1-0.1
	C42.2,29.9,42.3,29.8,42.3,29.8z M42,29.3c0,0,0-0.1,0-0.1c0-0.1,0.1-0.1,0.1-0.1c0.1,0,0.1,0.1,0.1,0.1l-0.1,0.1c0,0,0,0.1,0,0.1
	c0,0.1-0.1,0.1-0.1,0.1c0,0-0.1-0.1-0.1-0.1C41.9,29.4,42,29.3,42,29.3z M41.8,30L41.8,30c0.2,0,0.2,0,0.2,0.1
	c0,0.1-0.1,0.1-0.1,0.1l0,0l-0.1,0c-0.1,0-0.1-0.1-0.1-0.1C41.7,30.1,41.8,30,41.8,30z M41.7,31.2c0,0.1-0.1,0.1-0.1,0.1
	c-0.1,0-0.1-0.1-0.1-0.1c0-0.1,0.1-0.1,0.1-0.1C41.7,31.1,41.7,31.1,41.7,31.2z M41.4,29.2L41.4,29.2c0-0.1,0.1-0.1,0.1-0.1
	c0.1,0,0.1,0.1,0.1,0.1c0,0,0,0.1-0.1,0.1v0c0,0.1-0.1,0.1-0.1,0.1c-0.1,0-0.1-0.1-0.1-0.1C41.3,29.2,41.3,29.2,41.4,29.2z
	 M41.3,30.1c0.1,0,0.1,0.1,0.1,0.1c0,0.1-0.1,0.1-0.1,0.1l0,0l0,0c0,0.1-0.1,0.1-0.1,0.1c-0.1,0-0.1-0.1-0.1-0.1
	c0-0.1,0.1-0.1,0.1-0.1l0,0l0,0C41.1,30.2,41.2,30.1,41.3,30.1z M41.2,29.5c0,0-0.1,0.1-0.1,0.1c-0.1,0-0.1-0.1-0.1-0.1
	c0-0.1,0.1-0.1,0.1-0.1C41.2,29.4,41.2,29.5,41.2,29.5z M40.8,29c0-0.1,0.1-0.1,0.1-0.1c0,0,0.1,0.1,0.1,0.1l0,0.1
	c0.1,0,0.1,0.1,0.1,0.1c0,0.1-0.1,0.1-0.1,0.1c0,0-0.1,0-0.1-0.1l0,0l0,0l0,0C40.8,29.2,40.8,29.2,40.8,29L40.8,29z M40.8,29.7
	c0,0.1-0.1,0.1-0.1,0.1c0,0-0.1-0.1-0.1-0.1c0-0.1,0.1-0.1,0.1-0.1C40.8,29.6,40.8,29.7,40.8,29.7z M40.4,29L40.4,29l0.1,0
	c0.1,0,0.1,0.1,0.1,0.1c0,0.1-0.1,0.1-0.1,0.1l0,0l0,0c0,0,0.1,0,0.1,0.1l0.1,0c0.1,0,0.1,0.1,0.1,0.1c0,0.1-0.1,0.1-0.1,0.1
	c0,0-0.1,0-0.1-0.1l0,0l0,0l0,0l0,0.1c0,0.1-0.1,0.1-0.1,0.1c-0.1,0-0.1-0.1-0.1-0.1l0,0l0-0.1l0-0.1l0,0c0,0,0-0.1,0.1-0.1l0,0
	c0,0-0.1-0.1-0.1-0.1C40.3,29,40.3,29,40.4,29z M39.1,28.8c-0.1,0-0.1-0.1-0.1-0.1c0-0.1,0.1-0.1,0.1-0.1c0.1,0,0.1,0.1,0.1,0.1
	C39.2,28.8,39.2,28.8,39.1,28.8z M39.4,28.6C39.4,28.6,39.4,28.5,39.4,28.6l-0.2,0c0,0-0.1,0-0.1-0.1l0,0c-0.1,0-0.1-0.1-0.1-0.1
	l0,0L39,28.3l-0.1-0.1l-0.1-0.1l0,0c0,0,0.1,0.1,0.1,0.1l0,0.1c0.1,0,0.1,0.1,0.1,0.1c0,0.1-0.1,0.1-0.1,0.1c-0.1,0-0.1-0.1-0.1-0.1
	l-0.1,0l-0.1-0.1l0-0.1l0,0c0,0-0.1-0.1-0.1-0.1c0-0.1,0.1-0.1,0.1-0.1l0,0l0,0c0-0.1,0-0.1,0.1-0.1l0-0.1l0-0.1
	c0,0,0.1-0.1,0.1-0.1c0.1,0,0.1,0.1,0.1,0.1l0,0l0,0l0.1,0c0.1,0,0.1,0.1,0.1,0.1c0,0,0,0.1-0.1,0.1l0,0l0.1,0.1
	c0.1,0,0.1,0,0.1,0.1l0,0c0,0,0.1,0,0.1,0.1l0.1,0l0.1-0.1c0,0,0.1,0.1,0.1,0.1c0,0-0.1,0.1-0.1,0.1C39.5,28.5,39.5,28.6,39.4,28.6z
	 M39.6,28.9c-0.1,0-0.1-0.1-0.1-0.1c0-0.1,0.1-0.1,0.1-0.1c0.1,0,0.1,0.1,0.1,0.1C39.8,28.9,39.7,28.9,39.6,28.9z M40,28.5L40,28.5
	c0,0.1,0.1,0.1,0.1,0.2c0,0.1-0.1,0.1-0.1,0.1l0,0l0,0c-0.1,0-0.1-0.1-0.1-0.1l0-0.1l0,0c0,0-0.1-0.1-0.1-0.1l0,0l0,0
	c0-0.1,0.1-0.1,0.1-0.1c0,0,0.1,0,0.1,0.1l0.1,0c0,0,0.1,0.1,0.1,0.1C40.1,28.4,40,28.5,40,28.5z M40.1,28.8c0,0,0.1-0.1,0.1-0.1
	c0,0-0.1-0.1-0.1-0.1c0-0.1,0.1-0.1,0.1-0.1c0.1,0,0.1,0.1,0.1,0.1c0,0-0.1,0.1-0.1,0.1c0,0,0.1,0.1,0.1,0.1c0,0.1-0.1,0.1-0.1,0.1
	C40.1,29,40.1,28.9,40.1,28.8z M40,29.5c0.1,0,0.1,0.1,0.1,0.1c0,0-0.1,0.1-0.1,0.1c-0.1,0-0.1-0.1-0.1-0.1
	C39.9,29.6,40,29.5,40,29.5z M38.7,30.6c0,0-0.1-0.1-0.1-0.1l0,0l0-0.1l0.1-0.1l0.1-0.1c0,0,0.1-0.1,0.1-0.1c0,0,0.1,0.1,0.1,0.1
	c0,0,0,0.1-0.1,0.1l0,0l0,0.1l0,0l0.1,0c0,0,0.1,0,0.1,0l0,0l0,0c0-0.1,0.1-0.1,0.1-0.1l0,0l0.1-0.1l0,0c0,0,0-0.1,0-0.1l0-0.1
	c0,0,0-0.1,0-0.1l0,0l0,0l0-0.1l-0.1,0l0,0l0,0.1c0,0.1-0.1,0.1-0.1,0.1c-0.1,0-0.1-0.1-0.1-0.1c0-0.1,0.1-0.1,0.1-0.1l0.1,0l0-0.1
	c0-0.1,0.1-0.1,0.1-0.1c0,0,0.1,0.1,0.1,0.1l0,0.1l0.1,0l0,0l-0.1-0.1c0-0.1,0.1-0.1,0.1-0.1c0,0,0.1,0.1,0.1,0.1l0.1,0l0,0
	c0,0,0.1-0.1,0.1-0.1c0.1,0,0.1,0.1,0.1,0.1c0,0,0,0.1-0.1,0.1l0.1,0.1l0,0l0,0c0,0,0.1,0,0.1,0l0,0l0,0c0-0.1,0.1-0.1,0.1-0.1
	c0.1,0,0.1,0.1,0.1,0.1c0,0-0.1,0.1-0.1,0.1l0,0l0,0c0,0-0.1,0.1-0.1,0.1l0,0l-0.1,0c-0.1,0-0.1-0.1-0.1-0.1l0,0l0,0l-0.1,0l-0.1,0
	c0,0,0,0.1-0.1,0.1l-0.1,0.1l-0.1,0.1l0,0l0,0l0,0l0,0c0.1,0,0.1,0.1,0.1,0.1c0,0,0,0.1-0.1,0.1l0,0.1l0,0.1c0,0-0.1,0.1-0.1,0.1
	c-0.1,0-0.1,0-0.1-0.1l0,0c0,0-0.1-0.1-0.1-0.1l0-0.1l0,0l0,0c0,0-0.1,0.1-0.1,0.1l0,0l0,0l0,0l0,0c0,0,0.1-0.1,0.1-0.1
	c0.1,0,0.1,0.1,0.1,0.1l0,0c0.1,0,0.1,0.1,0.1,0.1c0,0.1-0.1,0.1-0.1,0.1c-0.1,0-0.1,0-0.1-0.1l-0.1,0c0,0.1-0.1,0.1-0.1,0.1
	c0,0-0.1-0.1-0.1-0.1l0-0.1c0,0-0.1,0-0.1-0.1l0,0C38.8,30.7,38.7,30.7,38.7,30.6L38.7,30.6z M38.8,31.3c0,0-0.1-0.1-0.1-0.1
	l0.1-0.1l0.1,0c0.1,0,0.1,0.1,0.1,0.1l-0.1,0.1C38.9,31.3,38.9,31.3,38.8,31.3z M39,31.5L39,31.5c0-0.1,0.1-0.2,0.1-0.2l0.1,0.1
	l0.1-0.1l0,0l0,0c-0.1,0-0.1-0.1-0.1-0.1c0-0.1,0.1-0.1,0.1-0.1c0.1,0,0.1,0.1,0.1,0.1l0.1,0c0.1,0,0.1,0.1,0.1,0.1
	c0,0,0,0.1-0.1,0.1l-0.1,0.1v0c0,0.1-0.1,0.1-0.1,0.1c0,0-0.1,0-0.1-0.1c0,0-0.1,0.1-0.1,0.1l0,0.1c0,0.1-0.1,0.1-0.1,0.1
	c-0.1,0-0.1-0.1-0.1-0.1C38.9,31.5,38.9,31.5,39,31.5z M39,31.7c0.1,0,0.1,0,0.1,0.1c0,0,0.1,0.1,0.1,0.1c0,0,0,0.1-0.1,0.1
	C39.1,31.9,39,31.9,39,31.7C38.9,31.7,39,31.7,39,31.7z M37.5,30.9C37.5,30.9,37.5,30.9,37.5,30.9L37.5,30.9
	C37.5,30.9,37.5,30.9,37.5,30.9z M40,36.3c-0.1,0-0.1-0.1-0.1-0.1c0-0.1,0.1-0.1,0.1-0.1c0.1,0,0.1,0.1,0.1,0.1
	C40.1,36.3,40.1,36.3,40,36.3z M40.1,35.4C40.1,35.4,40.1,35.4,40.1,35.4C40.1,35.3,40.1,35.4,40.1,35.4
	C40.1,35.4,40.1,35.4,40.1,35.4z M40.2,34.7c0-0.1,0-0.1,0-0.2C40.2,34.5,40.2,34.6,40.2,34.7C40.2,34.7,40.2,34.7,40.2,34.7z
	 M40.4,36.1c0,0-0.1-0.1-0.1-0.1c0-0.1,0.1-0.1,0.1-0.1c0.1,0,0.1,0.1,0.1,0.1C40.5,36.1,40.4,36.1,40.4,36.1z M40.5,34.8
	c0-0.1,0.1-0.1,0.1-0.1c0.1,0,0.1,0.1,0.1,0.1c0,0-0.1,0.1-0.1,0.1C40.5,34.9,40.5,34.9,40.5,34.8z M40.7,35.6
	c-0.1,0-0.1-0.1-0.1-0.1c0-0.1,0.1-0.1,0.1-0.1c0.1,0,0.1,0.1,0.1,0.1C40.8,35.6,40.7,35.6,40.7,35.6z M41,34.4
	c-0.1,0-0.1-0.1-0.1-0.1c0-0.1,0.1-0.1,0.2-0.1c0.1,0,0.1,0.1,0.1,0.1C41.1,34.3,41.1,34.4,41,34.4z M41.4,36.1
	c0-0.1,0.1-0.1,0.1-0.1c0.1,0,0.1,0.1,0.1,0.1c0,0.1-0.1,0.1-0.1,0.1C41.4,36.2,41.4,36.1,41.4,36.1z"/>
<path class="st12" d="M41,29.5c0,0.1,0.1,0.1,0.1,0.1c0,0,0.1-0.1,0.1-0.1c0-0.1,0-0.1-0.1-0.1C41,29.4,41,29.5,41,29.5z"/>
<path class="st12" d="M40.4,30.9c0,0-0.1,0-0.1,0.1c0,0-0.1,0-0.1,0.1c0,0.1,0,0.1,0.1,0.1c0,0,0.1,0,0.1-0.1c0,0,0.1,0,0.1-0.1
	C40.5,30.9,40.4,30.9,40.4,30.9z"/>
<path class="st12" d="M41.8,30.3L41.8,30.3L41.8,30.3c0.1,0,0.2-0.1,0.2-0.1c0-0.1,0-0.1-0.1-0.1l-0.1,0c-0.1,0-0.1,0-0.1,0.1
	C41.7,30.2,41.7,30.3,41.8,30.3z"/>
<path class="st12" d="M40.6,29.7c0,0,0.1,0.1,0.1,0.1c0.1,0,0.1,0,0.1-0.1c0-0.1,0-0.1-0.1-0.1C40.7,29.6,40.6,29.6,40.6,29.7z"/>
<path class="st12" d="M41.4,32.8c-0.1,0-0.1,0-0.1,0.1c0,0,0,0.1,0.1,0.1c0.1,0,0.1,0,0.1-0.1C41.5,32.9,41.5,32.8,41.4,32.8z"/>
<path class="st12" d="M42.5,31.1c0.1,0,0.1,0,0.1-0.1c0,0,0-0.1-0.1-0.1c-0.1,0-0.1,0-0.1,0.1C42.4,31.1,42.5,31.1,42.5,31.1z"/>
<path class="st12" d="M41.8,30.6c-0.1,0-0.1,0-0.1,0.1c0,0,0,0.1,0.1,0.1c0.1,0,0.1,0,0.1-0.1C42,30.7,41.9,30.7,41.8,30.6z"/>
<path class="st12" d="M39.5,32.3c0,0.1,0,0.1,0.1,0.1c0.1,0,0.1,0,0.1-0.1c0-0.1,0-0.1-0.1-0.1C39.6,32.2,39.5,32.2,39.5,32.3z"/>
<path class="st12" d="M42.6,29.5c0.1,0,0.1,0,0.1-0.1c0-0.1,0-0.1-0.1-0.1c-0.1,0-0.1,0-0.1,0.1C42.5,29.5,42.6,29.5,42.6,29.5z"/>
<path class="st12" d="M40.3,30.2L40.3,30.2c0,0.1,0,0.1,0.1,0.1c0.1,0,0.1,0,0.1-0.1l0,0c0-0.1,0-0.1-0.1-0.1l0,0c0,0,0,0,0-0.1
	c0-0.1,0-0.1-0.1-0.1c-0.1,0-0.1,0-0.1,0.1l0,0.1C40.3,30,40.3,30.1,40.3,30.2L40.3,30.2z"/>
<path class="st12" d="M40.7,31.5c-0.1,0-0.1,0-0.2,0.1c0,0.1,0,0.1,0.1,0.1c0.1,0,0.1,0,0.1-0.1C40.8,31.6,40.8,31.5,40.7,31.5z"/>
<path class="st12" d="M41.1,31.3c-0.1,0-0.1,0-0.1,0.1c0,0,0,0.1,0,0.1L41,31.6c0,0.1,0.1,0.1,0.1,0.1c0,0,0.1-0.1,0.1-0.1l0-0.1
	l0.1-0.1C41.2,31.4,41.2,31.3,41.1,31.3z"/>
<path class="st12" d="M40.6,32.1L40.6,32.1l-0.1,0c-0.1,0-0.1,0-0.1,0.1c0,0.1,0,0.1,0.1,0.1l0.1,0l0,0l0,0.1c-0.1,0-0.1,0-0.1,0.1
	l0,0c0,0-0.1-0.1-0.1-0.1c0,0-0.1,0-0.1,0.1c0,0.1,0,0.1,0.1,0.1c0,0,0.1-0.1,0.1-0.1l0,0c0,0,0.1,0.1,0.1,0.1c0.1,0,0.1,0,0.1-0.1
	l0,0l0,0c0,0,0.1,0,0.1-0.1c0,0,0-0.1,0-0.1l0.1-0.1C40.7,32.2,40.7,32.1,40.6,32.1z"/>
<path class="st12" d="M40.1,31.1c-0.1,0-0.1,0-0.1,0.1c0,0,0,0.1,0.1,0.1l0,0.1c0,0.1,0,0.1,0.1,0.1c0,0,0.1,0,0.1-0.1
	c0-0.1,0-0.1-0.1-0.1l0-0.1C40.2,31.1,40.1,31.1,40.1,31.1z"/>
<path class="st12" d="M41.1,30.2L41.1,30.2L41.1,30.2c-0.1,0-0.1,0-0.1,0.1c0,0.1,0,0.1,0.1,0.1c0.1,0,0.1,0,0.1-0.1l0,0l0,0
	c0.1,0,0.1,0,0.1-0.1c0-0.1,0-0.1-0.1-0.1C41.2,30.1,41.1,30.2,41.1,30.2z"/>
<path class="st12" d="M41.5,29.7c0-0.1-0.1-0.1-0.1-0.1c-0.1,0-0.1,0-0.1,0.1c0,0.1,0,0.1,0.1,0.1C41.5,29.8,41.5,29.7,41.5,29.7z"
	/>
<path class="st12" d="M43.2,30.5c0,0,0.1-0.1,0.1-0.1c0-0.1,0-0.1-0.1-0.1c-0.1,0-0.1,0-0.1,0.1C43.1,30.4,43.1,30.4,43.2,30.5z"/>
<path class="st12" d="M40.1,30.6c0,0.1,0.1,0.1,0.1,0.1c0.1,0,0.1-0.1,0.1-0.1c0-0.1,0-0.1-0.1-0.1C40.1,30.5,40.1,30.5,40.1,30.6z"
	/>
<path class="st12" d="M42.5,30.2c0.1,0,0.1,0,0.1-0.1c0-0.1,0-0.1-0.1-0.1c-0.1,0-0.1,0.1-0.1,0.1C42.4,30.1,42.4,30.2,42.5,30.2z"
	/>
<path class="st12" d="M42.3,31.8c0,0.1,0,0.1,0.1,0.1c0.1,0,0.1,0,0.1-0.1c0-0.1,0-0.1-0.1-0.1C42.3,31.7,42.3,31.8,42.3,31.8z"/>
<path class="st12" d="M41.9,32.4c0,0.1,0,0.1,0.1,0.1c0.1,0,0.1,0,0.1-0.1c0-0.1,0-0.1-0.1-0.1C41.9,32.3,41.9,32.3,41.9,32.4z"/>
<path class="st12" d="M44,31c0,0,0.1-0.1,0.1-0.1c0-0.1,0-0.1-0.1-0.1c0,0-0.1,0-0.1,0.1C43.9,31,44,31,44,31z"/>
<path class="st12" d="M42.9,30.9c0.1,0,0.1,0,0.1-0.1c0-0.1,0-0.1-0.1-0.1c-0.1,0-0.1,0-0.1,0.1C42.8,30.9,42.8,30.9,42.9,30.9z"/>
<path class="st12" d="M38.4,30.3c-0.1,0-0.1,0-0.1,0.1c0,0.1,0,0.1,0.1,0.1c0.1,0,0.1,0,0.1-0.1C38.5,30.3,38.5,30.3,38.4,30.3z"/>
<path class="st12" d="M39.3,32L39.3,32c-0.1,0-0.1,0-0.2,0c0,0,0.1,0.1,0.1,0.1c0,0,0,0,0,0c0,0,0,0,0,0l0,0l0.1,0l0,0
	c0.1,0,0.1,0,0.1-0.1c0,0,0-0.1,0-0.1c0,0,0-0.1-0.1-0.1C39.4,32,39.4,32,39.3,32z"/>
<path class="st12" d="M41.2,33.6c0.1,0,0.1,0,0.1-0.1c0,0,0-0.1-0.1-0.1c-0.1,0-0.1,0-0.1,0.1C41.1,33.5,41.1,33.6,41.2,33.6z"/>
<path class="st12" d="M40.5,33.3c0.1,0,0.1,0,0.1-0.1c0-0.1,0-0.1-0.1-0.1c-0.1,0-0.1,0-0.1,0.1C40.4,33.2,40.4,33.3,40.5,33.3z"/>
<path class="st12" d="M40.6,31.9c0,0.1,0,0.1,0.1,0.1c0.1,0,0.1,0,0.1-0.1c0-0.1,0-0.1-0.1-0.1C40.6,31.7,40.6,31.8,40.6,31.9z"/>
<path class="st12" d="M42.3,30.1c0.1,0,0.1,0,0.1-0.1c0-0.1-0.1-0.1-0.1-0.1c-0.1,0-0.1,0-0.1,0.1C42.2,30,42.2,30.1,42.3,30.1z"/>
<path class="st12" d="M42.2,30.4c-0.1,0-0.1,0-0.1,0.1c0,0.1,0,0.1,0.1,0.1c0.1,0,0.1,0,0.1-0.1C42.3,30.4,42.3,30.4,42.2,30.4z"/>
<path class="st12" d="M41.2,31.8c0,0.1,0,0.1,0.1,0.1c0.1,0,0.1,0,0.1-0.1c0-0.1,0-0.1-0.1-0.1C41.2,31.7,41.2,31.8,41.2,31.8z"/>
<path class="st12" d="M40.5,30.6c-0.1,0-0.1,0-0.1,0.1c0,0.1,0,0.1,0.1,0.1c0,0,0.1,0,0.1-0.1l0,0l0,0c0,0.1,0.1,0.1,0.1,0.1
	c0,0,0.1-0.1,0.1-0.1c0,0,0-0.1-0.1-0.1l0,0c0,0,0-0.1-0.1-0.1C40.7,30.6,40.6,30.6,40.5,30.6L40.5,30.6z"/>
<path class="st12" d="M39.8,32.8c0-0.1,0-0.1-0.1-0.1c0,0-0.1,0-0.1,0C39.7,32.8,39.7,32.8,39.8,32.8C39.8,32.9,39.8,32.9,39.8,32.8
	z"/>
<path class="st12" d="M40.1,32C40,32,40,32,40,32.1c0,0.1,0,0.1,0.1,0.1c0.1,0,0.1,0,0.1-0.1C40.2,32,40.1,32,40.1,32z"/>
<path class="st12" d="M41.7,32.8c0,0.1,0.1,0.1,0.1,0.1c0,0,0.1-0.1,0.1-0.1c0-0.1,0-0.1-0.1-0.1C41.8,32.6,41.7,32.7,41.7,32.8z"/>
<path class="st12" d="M41.1,32.8c0.1,0,0.1,0,0.1-0.1l0-0.1l0.1-0.1c0-0.1,0-0.1-0.1-0.1c-0.1,0-0.1,0.1-0.1,0.1l0,0.1L41,32.7
	C41,32.7,41.1,32.8,41.1,32.8z"/>
<path class="st12" d="M41.1,34.2c-0.1,0-0.1,0-0.2,0.1c0,0.1,0,0.1,0.1,0.1c0.1,0,0.1,0,0.1-0.1C41.2,34.2,41.1,34.2,41.1,34.2z"/>
<path class="st12" d="M41.5,31.2c0,0.1,0,0.1,0.1,0.1c0.1,0,0.1,0,0.1-0.1c0-0.1,0-0.1-0.1-0.1C41.5,31,41.5,31.1,41.5,31.2z"/>
<path class="st12" d="M40.7,34.9c0-0.1,0-0.1-0.1-0.1c-0.1,0-0.1,0-0.1,0.1c0,0.1,0,0.1,0.1,0.1C40.7,34.9,40.7,34.9,40.7,34.9z"/>
<path class="st12" d="M42.7,33.2c0,0-0.1,0-0.1,0.1c0,0.1,0,0.1,0.1,0.1c0,0,0.1-0.1,0.1-0.1C42.8,33.3,42.7,33.2,42.7,33.2z"/>
<path class="st12" d="M40.5,28.3c-0.1,0-0.1,0-0.1,0.1l0,0c0,0,0-0.1-0.1-0.1c-0.1,0-0.1,0-0.1,0.1c0,0.1,0,0.1,0.1,0.1l0.1,0
	l0.1,0.1c0,0,0.1,0,0.1-0.1l0,0l-0.1,0.1l0,0c0,0.1,0,0.1,0.1,0.1c0.1,0,0.1,0,0.1-0.1l0,0l0,0c0,0,0.1-0.1,0.1-0.1
	c0-0.1,0-0.1-0.1-0.1l0,0l0,0l0-0.1l0,0l-0.1,0L40.5,28.3L40.5,28.3L40.5,28.3z"/>
<path class="st12" d="M41.5,33.4c0.1,0,0.1,0,0.1-0.1c0-0.1,0-0.1-0.1-0.1c-0.1,0-0.1,0-0.1,0.1C41.4,33.3,41.5,33.4,41.5,33.4z"/>
<path class="st12" d="M40,36.1c-0.1,0-0.1,0-0.1,0.1c0,0.1,0,0.1,0.1,0.1c0.1,0,0.1,0,0.1-0.1C40.1,36.1,40.1,36.1,40,36.1z"/>
<path class="st12" d="M40.2,33c0-0.1,0-0.1-0.1-0.1l0,0l0,0c0,0-0.1-0.1-0.1-0.1c-0.1,0-0.1,0-0.1,0.1c0,0.1,0,0.1,0.1,0.1l0,0l0,0
	c0,0,0.1,0.1,0.1,0.1C40.1,33.1,40.2,33.1,40.2,33z"/>
<path class="st12" d="M39.6,31.9C39.6,31.9,39.6,31.9,39.6,31.9l0,0.1c0,0,0,0.1,0.1,0.1c0.1,0,0.1,0,0.1-0.1l0-0.1l0-0.1l-0.1-0.1
	c0,0,0.1,0,0.1-0.1c0,0,0.1,0,0.1-0.1c0-0.1,0-0.1-0.1-0.1c-0.1,0-0.1,0-0.1,0.1c0,0-0.1,0-0.1,0.1l0.1,0.1
	C39.6,31.8,39.6,31.8,39.6,31.9z"/>
<path class="st12" d="M41,33.3c0.1,0,0.1,0,0.1-0.1c0-0.1,0-0.1-0.1-0.1c-0.1,0-0.1,0-0.1,0.1C40.9,33.3,40.9,33.3,41,33.3z"/>
<path class="st12" d="M40.2,34.5c0,0.1,0,0.1,0,0.2c0,0,0,0,0.1-0.1C40.2,34.6,40.2,34.5,40.2,34.5z"/>
<path class="st12" d="M39.5,30.9c0,0.1,0.1,0.1,0.1,0.1c0.1,0,0.1-0.1,0.1-0.1c0-0.1,0-0.1-0.1-0.1C39.6,30.8,39.5,30.8,39.5,30.9z"
	/>
<path class="st12" d="M40.7,35.4c-0.1,0-0.1,0-0.1,0.1c0,0.1,0.1,0.1,0.1,0.1c0,0,0.1-0.1,0.1-0.1C40.8,35.5,40.8,35.4,40.7,35.4z"
	/>
<path class="st12" d="M40.1,35.4C40.1,35.4,40.1,35.4,40.1,35.4C40.1,35.4,40.1,35.3,40.1,35.4C40.1,35.4,40.1,35.4,40.1,35.4z"/>
<path class="st12" d="M40.3,33.9c0,0.1,0,0.1,0.1,0.1c0.1,0,0.1,0,0.1-0.1c0-0.1,0-0.1-0.1-0.1C40.4,33.8,40.3,33.8,40.3,33.9z"/>
<path class="st12" d="M41.6,36.1c0-0.1,0-0.1-0.1-0.1c0,0-0.1,0-0.1,0.1c0,0.1,0,0.1,0.1,0.1C41.5,36.2,41.6,36.1,41.6,36.1z"/>
<path class="st12" d="M40.4,35.9c-0.1,0-0.1,0-0.1,0.1c0,0.1,0,0.1,0.1,0.1c0.1,0,0.1,0,0.1-0.1C40.5,35.9,40.5,35.9,40.4,35.9z"/>
<path class="st12" d="M39.7,28.4c0-0.1,0-0.1-0.1-0.1l-0.1,0.1l-0.1,0c0,0,0,0-0.1-0.1l0,0c0-0.1,0-0.1-0.1-0.1l-0.1-0.1l0,0
	c0,0,0,0,0.1-0.1c0-0.1,0-0.1-0.1-0.1l-0.1,0l0,0l0,0c0,0-0.1-0.1-0.1-0.1c0,0-0.1,0-0.1,0.1l0,0.1l0,0.1c-0.1,0-0.1,0.1-0.1,0.1
	l0,0l0,0c-0.1,0-0.1,0-0.1,0.1c0,0,0,0.1,0.1,0.1l0,0l0,0.1l0.1,0.1l0.1,0c0,0.1,0,0.1,0.1,0.1c0.1,0,0.1,0,0.1-0.1
	c0-0.1,0-0.1-0.1-0.1l0-0.1c0,0,0-0.1-0.1-0.1l0,0l0.1,0.1l0.1,0.1l0.1,0.1l0,0c0,0,0,0.1,0.1,0.1l0,0c0,0,0.1,0.1,0.1,0.1l0.1,0
	c0,0,0.1,0.1,0.1,0.1c0,0,0.1,0,0.1,0C39.6,28.5,39.6,28.5,39.7,28.4z M38.7,28.2L38.7,28.2L38.7,28.2l0-0.1L38.7,28.2L38.7,28.2z"
	/>
<path class="st12" d="M40.9,29.2L40.9,29.2L40.9,29.2L40.9,29.2c0.1,0.1,0.1,0.1,0.2,0.1c0,0,0.1-0.1,0.1-0.1c0-0.1,0-0.1-0.1-0.1
	l0-0.1c0,0,0-0.1-0.1-0.1c-0.1,0-0.1,0-0.1,0.1l0,0.1C40.8,29.2,40.8,29.2,40.9,29.2z"/>
<path class="st12" d="M38.8,27.6C38.8,27.6,38.8,27.6,38.8,27.6C38.9,27.6,38.9,27.6,38.8,27.6l-0.1-0.1l0,0L38.8,27.6
	C38.7,27.6,38.7,27.6,38.8,27.6z"/>
<path class="st12" d="M34.7,26.1c-0.1,0.2-0.1,0.3-0.2,0.5l0,0l0,0l0,0c-0.1,0.1-0.2,0.3-0.3,0.4l0,0l0,0v0l0,0l0,0l0,0
	c-0.3,0.4-0.7,0.7-1.1,1l0,0l0,0l0,0.1l0,0l0,0l0,0L33.1,28c-0.2,0.1-0.4,0.2-0.6,0.2l0,0l0,0l0,0l0,0l0,0l0,0l0,0l0,0l-0.1-0.1l0,0
	l0,0c-0.2,0.1-0.4,0.1-0.6,0.1l0.5,0.2l0,0l0,0l0,0l0,0l0,0l0,0l1,0.5l0,0l0.1-0.1l0.1,0l0,0c0,0-0.1,0-0.1,0.1l0.3,0.1l0,0l0,0l0,0
	l0,0l0,0l0,0l0,0l2,0.9c0,0,0,0,0,0l0,0l0,0c0,0,0-0.1-0.1-0.1l0-0.1l0,0l0.1,0.1l0,0c0,0.1,0,0.1,0.1,0.1l0.1,0l0,0l0,0l0,0l0,0
	l0,0l0,0l0.5,0.3c0,0,0,0,0,0l0-0.1l0,0l0,0l0.1,0.1l0,0c0,0.1,0,0.1,0.1,0.1l0,0l0.1,0l0,0l0,0c0,0,0,0-0.1,0l0.4,0.2l0,0l0,0
	l0.2,0.1c0,0,0,0,0,0l0-0.1l0-0.1l0,0c0,0,0.1,0,0.1-0.1l0,0c0,0,0,0.1,0.1,0.1l0.1,0l0,0c0,0-0.1,0-0.1,0.1c0,0.1,0,0.1,0.1,0.1
	l0.1,0c0,0,0.1,0,0.1-0.1v0l0,0l0.1,0l0.1,0c0,0.1,0,0.1,0.1,0.1l0,0.1c-0.1,0-0.1,0.1-0.1,0.1c0,0,0,0.1,0,0.1l0,0l0,0l0,0
	c0.2,0.1,0.5,0.2,0.7,0.4l0,0l0,0l0,0c0,0,0.1,0.1,0.1,0.1c0.1,0,0.1,0,0.1-0.1c0-0.1,0-0.1-0.1-0.1h0c0,0-0.1-0.1-0.1-0.1l-0.1,0
	l0,0l-0.1,0l0,0l0,0l0-0.1l0,0l0,0c0.1,0,0.1,0,0.1-0.1l0-0.1l0.1-0.1c0,0,0-0.1,0-0.1l0,0l0.1-0.1c0-0.1,0-0.1-0.1-0.1l-0.1,0
	c0,0-0.1,0-0.1,0.1l0,0.1c0,0,0,0.1,0,0.1l0,0l0,0l-0.1,0.1l0,0l0,0l-0.1,0c0,0,0,0-0.1-0.1c-0.1,0-0.1,0-0.1,0.1l0,0l0,0l0,0l0-0.1
	l0.1-0.1l0,0c0,0,0.1,0,0.1-0.1c0-0.1,0-0.1-0.1-0.1l0-0.1l0,0c0,0,0.1,0.1,0.1,0.1c0.1,0,0.1-0.1,0.1-0.1c0-0.1,0-0.1-0.1-0.1
	c-0.1,0-0.1,0-0.1,0.1l0,0c0,0,0-0.1-0.1-0.1l0,0l0-0.1l0-0.1l0,0l0.1,0.1c0.1,0,0.1,0,0.1-0.1l0-0.1l0-0.1c0-0.1,0-0.1-0.1-0.1
	l-0.1,0l0,0l0,0c0,0,0-0.1,0-0.1l0.1-0.1l0.1,0l0.1,0l0,0.1l0,0c0,0.1,0.1,0.1,0.1,0.1c0,0,0.1,0,0.1-0.1c0,0,0,0,0.1,0.1
	c0,0,0.1,0,0.1-0.1l0-0.1l0.1,0c0.1,0,0.1,0,0.1-0.1c0-0.1,0-0.1-0.1-0.1l0,0c0,0,0.1-0.1,0.1-0.1c0,0,0-0.1,0-0.1l0,0l0,0l0,0
	l0.1,0l0.1,0c0.1,0,0.1,0,0.1-0.1c0-0.1,0-0.1-0.1-0.1l-0.1,0l0,0l0,0c0,0,0-0.1-0.1-0.1l0,0c0-0.1,0-0.1-0.1-0.1
	c-0.1,0-0.1,0-0.1,0.1l0,0.1c0,0.1,0,0.1,0.1,0.1l0,0l0,0.1l0,0.1l0,0.1l0,0l-0.1-0.1c0,0,0-0.1-0.1-0.1c-0.1,0-0.1,0-0.1,0.1
	c0,0.1,0,0.1,0.1,0.1l0,0.1l0,0l0-0.1c0,0,0-0.1-0.1-0.1l-0.1,0l0,0l0-0.1c0-0.1,0-0.1-0.1-0.1c-0.1,0-0.1,0-0.1,0.1
	c0,0.1,0,0.1,0.1,0.1l0,0.1l0,0L38,29.8l0,0l0,0l0,0c0,0-0.1,0-0.1,0.1l-0.1,0c0-0.1,0-0.1-0.1-0.1l0,0c0,0,0.1,0,0.1-0.1l0,0
	c0,0,0.1,0,0.1-0.1l0-0.1l0,0c0.1,0,0.1,0,0.1-0.1l0,0c0.1,0,0.1,0,0.1-0.1l0,0c0-0.1,0-0.1-0.1-0.1c-0.1,0-0.1,0-0.2,0.1l0,0.1l0,0
	l0,0c0,0,0-0.1-0.1-0.1l0,0c0,0-0.1-0.1-0.1-0.1c-0.1,0-0.1,0-0.1,0.1l0,0c0,0,0,0.1,0,0.1l0,0l0,0c0-0.1,0-0.1-0.1-0.1l0,0l0,0
	c0,0,0-0.1,0-0.1c0,0,0.1-0.1,0.1-0.1l0-0.1l0,0l0,0l0,0l0,0c0,0.1,0,0.1,0.1,0.1l0,0l0.1,0.1c0,0,0.1,0,0.1-0.1l0.1,0.1
	c0.1,0,0.1,0,0.1-0.1v0l0,0l0.1,0.1c0,0.1,0.1,0.1,0.1,0.1l0,0l0,0.1c0,0,0,0,0,0.1c0,0,0.1,0.1,0.1,0.1c0.1,0,0.1,0,0.1-0.1l0-0.1
	c0-0.1-0.1-0.1-0.1-0.1l0,0l0,0l0,0l0.1,0l0.1,0l0.1,0c0,0,0.1,0,0.1-0.1l0.1,0l0,0c0,0,0,0.1,0.1,0.1l0.1,0l0,0l0.1,0l0,0l0.1,0.1
	c0,0.1,0,0.1,0.1,0.1c0.1,0,0.1,0,0.1-0.1c0,0,0-0.1-0.1-0.1l0,0l0,0c0.1,0,0.1,0,0.1-0.1c0,0,0.1,0.1,0.1,0.1l0,0
	c0,0-0.1,0-0.1,0.1l0,0.1c0,0.1,0,0.1,0.1,0.1l0,0c0,0.1,0,0.1,0.1,0.1c0.1,0,0.1,0,0.1-0.1l0-0.1l0,0l0,0l0.1,0l0.1,0
	c0,0,0.1,0.1,0.1,0.1c0.1,0,0.1,0,0.1-0.1c0-0.1,0-0.1-0.1-0.1L40,29.2l0-0.1l0,0c0.1,0,0.1,0,0.1-0.1c0,0,0-0.1-0.1-0.1
	c-0.1,0-0.1,0-0.1,0.1l0,0c-0.1,0-0.1,0-0.1,0.1l0,0.1l0,0.1l0,0l0,0l0,0c0,0,0-0.1-0.1-0.1c0.1,0,0.1,0,0.1-0.1c0,0,0-0.1-0.1-0.1
	l-0.1,0l0,0c-0.1,0-0.1,0-0.1,0.1l-0.1-0.1c0,0,0.1,0,0.1-0.1c0-0.1-0.1-0.1-0.1-0.1c-0.1,0-0.1,0-0.1,0.1c0,0.1,0,0.1,0,0.1
	L39.2,29l0,0L39.1,29l0,0l0,0c0-0.1,0-0.1-0.1-0.1l0,0l0,0c0,0-0.1-0.1-0.1-0.1c-0.1,0-0.1,0-0.1,0.1l0,0.1l0,0l0,0l-0.1,0
	c0-0.1,0-0.1-0.1-0.1c-0.1,0-0.1,0-0.1,0.1l0,0l0,0l0,0l0,0c0-0.1,0-0.1-0.1-0.1l0,0l0,0l0-0.1l0,0l0.1,0l0,0c0,0,0,0.1,0.1,0.1
	c0.1,0,0.1,0,0.1-0.1c0-0.1,0-0.1-0.1-0.1l0,0l0-0.1c0,0-0.1-0.1-0.1-0.1l0,0c0,0,0-0.1-0.1-0.1l-0.1,0v0l0,0l0,0l0.1-0.1l0,0l0,0
	c0,0,0.1,0,0.1,0c0,0,0.1,0,0.1-0.1l0,0c0-0.1,0-0.1-0.1-0.1c0,0,0.1-0.1,0.1-0.1c0-0.1,0-0.1-0.1-0.1l0,0l0,0l0,0
	c0.1,0,0.1-0.1,0.1-0.1l0-0.1l0,0l-0.3-0.1c0,0,0,0,0,0c0,0.1,0,0.1,0.1,0.1l0,0.1l0,0l0,0.1l0,0c-0.1,0-0.1,0-0.1,0.1l0,0l0,0
	c0-0.1,0-0.1-0.1-0.1c0,0-0.1,0-0.1,0c0-0.1-0.1-0.1-0.1-0.1l0,0l0,0l-0.1,0l0-0.1l0-0.1l0-0.1c0.1,0,0.1,0,0.1-0.1l0-0.1l0,0l0,0
	l-0.7-0.3l0,0l0,0l0,0l0,0l0,0l0,0l-0.7-0.3l0,0l0,0l0,0l-0.1,0l0,0l0,0l0,0l0-0.1l0,0l0,0L35.3,26l0,0l0,0l0,0l0,0l-0.1-0.1
	c0,0-0.1,0-0.1-0.1l0,0l0,0l0,0.1l0,0l0,0l0,0l0,0l0-0.1l0,0l0,0c0,0-0.1,0-0.1,0L34.7,26.1z M33.4,28.1L33.4,28.1L33.4,28.1
	L33.4,28.1L33.4,28.1z M33.5,28.8L33.5,28.8L33.5,28.8L33.5,28.8L33.5,28.8L33.5,28.8L33.5,28.8z M33.8,28L33.8,28L33.8,28L33.8,28
	L33.8,28L33.8,28L33.8,28L33.8,28z M33.8,27.8L33.8,27.8l-0.1,0l0,0l0,0l0-0.1l0.1,0C33.7,27.7,33.8,27.8,33.8,27.8L33.8,27.8z
	 M38.3,29.8c0,0,0.1,0.1,0.1,0.1l0,0l0.1,0.1l0,0l0,0l-0.1,0c-0.1,0-0.1,0-0.1,0.1l0,0l0,0C38.4,30,38.4,29.9,38.3,29.8L38.3,29.8
	L38.3,29.8L38.3,29.8z M39.6,29.1L39.6,29.1L39.6,29.1L39.6,29.1z M34.7,27.2L34.7,27.2L34.7,27.2L34.7,27.2L34.7,27.2z M34.5,27
	L34.5,27L34.5,27L34.5,27L34.5,27l0,0.1l0,0l0,0l0,0L34.5,27L34.5,27z M34.1,27.3L34.1,27.3L34.1,27.3L34.1,27.3z M34,28.5L34,28.5
	L34,28.5L34,28.5z M34.1,28.2L34.1,28.2L34.1,28.2L34.1,28.2z M34.1,27.4L34.1,27.4L34.1,27.4L34.1,27.4L34.1,27.4L34.1,27.4
	L34.1,27.4L34.1,27.4z M34.3,28.2L34.3,28.2c0,0-0.1-0.1-0.1-0.1l0,0l0,0l0,0L34.3,28.2L34.3,28.2L34.3,28.2L34.3,28.2L34.3,28.2z
	 M34.2,27.9L34.2,27.9L34.2,27.9L34.2,27.9L34.2,27.9L34.2,27.9L34.2,27.9L34.2,27.9L34.2,27.9z M34.3,27.4L34.3,27.4L34.3,27.4
	L34.3,27.4L34.3,27.4z M34.4,29.2L34.4,29.2L34.4,29.2L34.4,29.2l0-0.1l0,0l0,0l0,0l0,0l0,0l0,0L34.4,29.2L34.4,29.2z M34.5,28.2
	L34.5,28.2L34.5,28.2L34.5,28.2L34.5,28.2L34.5,28.2z M34.6,27.9L34.6,27.9l-0.1,0l0,0C34.5,27.9,34.5,27.9,34.6,27.9L34.6,27.9
	L34.6,27.9L34.6,27.9L34.6,27.9L34.6,27.9L34.6,27.9L34.6,27.9z M34.7,29.1L34.7,29.1L34.7,29.1L34.7,29.1L34.7,29.1z M34.8,28.6
	L34.8,28.6c-0.1,0-0.1-0.1-0.1-0.1l0-0.1l0,0l0,0C34.6,28.6,34.7,28.6,34.8,28.6L34.8,28.6L34.8,28.6z M34.8,26.6L34.8,26.6
	L34.8,26.6L34.8,26.6L34.8,26.6z M34.9,27.9L34.9,27.9L34.9,27.9L34.9,27.9L34.9,27.9L34.9,27.9z M34.9,27L34.9,27L34.9,27L34.9,27
	L34.9,27z M34.9,29.3L34.9,29.3L34.9,29.3L34.9,29.3L34.9,29.3z M35,29.6L35,29.6L35,29.6L35,29.6L35,29.6L35,29.6L35,29.6L35,29.6
	L35,29.6z M35,26.7L35,26.7L35,26.7L35,26.7L35,26.7z M35,29.5L35,29.5L35,29.5L35,29.5z M35.1,29.1L35.1,29.1L35.1,29.1L35.1,29.1
	L35.1,29.1z M35.2,28.6L35.2,28.6c-0.1,0-0.1,0-0.1,0l0,0l0,0l0-0.1l0,0L35.2,28.6L35.2,28.6L35.2,28.6L35.2,28.6z M35.2,26.7
	L35.2,26.7L35.2,26.7L35.2,26.7L35.2,26.7L35.2,26.7z M35.2,27.2L35.2,27.2L35.2,27.2L35.2,27.2z M35.3,29.4L35.3,29.4L35.3,29.4
	L35.3,29.4z M35.3,28.2L35.3,28.2L35.3,28.2L35.3,28.2L35.3,28.2z M35.2,27.9c0,0-0.1,0-0.1,0.1l0,0l0,0L35.2,27.9L35.2,27.9
	C35.2,27.9,35.2,27.9,35.2,27.9L35.2,27.9L35.2,27.9L35.2,27.9L35.2,27.9l0.1,0l0,0l0,0l0,0L35.2,27.9L35.2,27.9z M35.3,29.5
	L35.3,29.5L35.3,29.5L35.3,29.5z M35.4,29L35.4,29L35.4,29L35.4,29z M35.4,29.1L35.4,29.1L35.4,29.1L35.4,29.1z M35.4,28.4
	L35.4,28.4L35.4,28.4L35.4,28.4L35.4,28.4L35.4,28.4L35.4,28.4L35.4,28.4z M35.5,29.3L35.5,29.3L35.5,29.3L35.5,29.3L35.5,29.3
	L35.5,29.3L35.5,29.3L35.5,29.3z M35.5,27.5L35.5,27.5l-0.1,0l0,0c0,0-0.1,0-0.1,0.1l0,0c0,0,0.1-0.1,0.1-0.1l0,0l0,0
	C35.3,27.4,35.4,27.4,35.5,27.5c0,0,0-0.1,0.1-0.1c0,0,0-0.1,0-0.1l0,0c0,0,0-0.1-0.1-0.1c-0.1,0-0.1,0-0.1,0.1l0,0l0-0.1l0-0.1
	l0.1,0l0.1,0l0,0l0,0c0,0.1,0,0.1,0.1,0.1l0,0l0,0.1l0,0l0,0L35.5,27.5L35.5,27.5z M35.3,26.8L35.3,26.8L35.3,26.8L35.3,26.8l0.1,0
	L35.3,26.8L35.3,26.8L35.3,26.8L35.3,26.8L35.3,26.8z M35.6,28.7L35.6,28.7L35.6,28.7L35.6,28.7z M35.6,28.8L35.6,28.8L35.6,28.8
	L35.6,28.8z M35.6,28.4L35.6,28.4L35.6,28.4L35.6,28.4z M35.6,26.8L35.6,26.8L35.6,26.8L35.6,26.8c0.1,0,0.1-0.1,0.2-0.1l0,0l0.1,0
	l0.1,0l0,0l-0.1,0.1c0,0.1,0,0.1,0.1,0.1h0l0,0l0,0l0,0l0,0.1l0,0c0,0,0-0.1-0.1-0.1l0,0l0,0l-0.1,0l0,0
	C35.7,26.9,35.7,26.8,35.6,26.8z M35.6,26.5L35.6,26.5L35.6,26.5L35.6,26.5L35.6,26.5L35.6,26.5L35.6,26.5z M35.9,26.6L35.9,26.6
	L35.9,26.6L35.9,26.6z M36,26.5L36,26.5L36,26.5c0,0,0.1,0.1,0.1,0.1l0,0l0,0l0,0C36.1,26.6,36.1,26.6,36,26.5l0,0.1L36,26.5
	L36,26.5z M36.1,26.7L36.1,26.7c0,0,0,0.1,0,0.1l0,0h0L36.1,26.7L36.1,26.7L36.1,26.7z M36.2,27.2C36.1,27.2,36.1,27.2,36.2,27.2
	c-0.1,0.1-0.1,0.2,0,0.2l0,0l-0.1,0l0,0l0,0l0,0l0,0l0,0L36.2,27.2L36.2,27.2L36.2,27.2l0-0.1L36.2,27.2L36.2,27.2z M36.2,28.1
	L36.2,28.1L36.2,28.1L36.2,28.1z M35.9,27.8L35.9,27.8c0.1,0,0.1,0,0.1,0l0,0L35.9,27.8L35.9,27.8L35.9,27.8L35.9,27.8L35.9,27.8z
	 M36.1,27.7L36.1,27.7L36.1,27.7L36.1,27.7L36.1,27.7z M35.8,28.9L35.8,28.9L35.8,28.9L35.8,28.9L35.8,28.9z M35.8,28.2L35.8,28.2
	L35.8,28.2L35.8,28.2L35.8,28.2z M35.7,27.5L35.7,27.5L35.7,27.5L35.7,27.5L35.7,27.5L35.7,27.5L35.7,27.5L35.7,27.5L35.7,27.5z
	 M35.7,28.4L35.7,28.4L35.7,28.4L35.7,28.4L35.7,28.4L35.7,28.4z M35.6,28.6L35.6,28.6L35.6,28.6L35.6,28.6L35.6,28.6L35.6,28.6z
	 M35.7,29.4L35.7,29.4L35.7,29.4L35.7,29.4L35.7,29.4L35.7,29.4l-0.1,0c0.1,0,0.1,0,0.1-0.1l0-0.1l0,0l0,0l0,0c0,0,0,0.1,0.1,0.1
	C35.8,29.3,35.8,29.4,35.7,29.4z M35.8,28.2L35.8,28.2L35.8,28.2L35.8,28.2L35.8,28.2l0.1,0c0,0,0.1,0,0.1-0.1l0,0l0,0
	c0,0-0.1,0.1-0.1,0.1c0,0,0,0.1,0.1,0.1l0.1,0l0,0l-0.1,0l0,0c0,0-0.1,0-0.1,0.1l0,0l0,0c0,0,0-0.1-0.1-0.1H35.8L35.8,28.2z
	 M36,28.5L36,28.5L36,28.5L36,28.5z M36,29.9L36,29.9L36,29.9L36,29.9l-0.1-0.1L36,29.9L36,29.9L36,29.9L36,29.9L36,29.9z M36,29.4
	L36,29.4L36,29.4L36,29.4c0-0.1,0-0.1-0.1-0.1l0,0L36,29.4l0.1-0.1l0,0l0,0L36,29.4L36,29.4z M36.1,30L36.1,30L36.1,30L36.1,30
	L36.1,30L36.1,30L36.1,30z M36.2,29.7c-0.1,0-0.1,0-0.1,0.1l0,0l0,0l0,0l0,0L36.2,29.7L36.2,29.7L36.2,29.7L36.2,29.7L36.2,29.7z
	 M36.4,30.2L36.4,30.2C36.4,30.2,36.3,30.2,36.4,30.2L36.4,30.2L36.4,30.2L36.4,30.2L36.4,30.2z M36.7,26.9L36.7,26.9L36.7,26.9
	c0-0.1-0.1-0.2-0.1-0.2l0,0l0,0c0,0,0.1-0.1,0.1-0.1l0,0l0,0c0,0,0,0.1,0.1,0.1l0,0l0,0l0,0.1L36.7,26.9c0,0,0.1,0,0.1,0l0,0l0,0
	l0,0l0,0.1l0,0l0,0.1l0,0l0,0c0,0-0.1,0-0.1,0c0,0,0,0-0.1,0.1c0,0.1,0,0.1,0.1,0.1l0,0l0,0l0,0l-0.1,0l-0.1,0c0,0,0,0-0.1,0l-0.1,0
	l0,0c0-0.1,0-0.1-0.1-0.1l0,0l0-0.1c0,0,0.1,0.1,0.1,0.1c0,0,0.1,0,0.1-0.1l0,0c0.1,0,0.1-0.1,0.1-0.1C36.8,27,36.8,26.9,36.7,26.9z
	 M37,27.4L37,27.4L37,27.4L37,27.4L37,27.4z M37,28.7L37,28.7l0-0.1l0,0l0,0l0.1,0l0.1,0l0,0l0,0l0,0l0,0l0,0l0,0
	C37.1,28.7,37,28.7,37,28.7c0,0.1,0,0.1,0.1,0.1l0,0c0,0,0,0.1,0.1,0.1l0,0l0,0l0,0.1l0,0c0,0-0.1,0.1-0.1,0.1l0,0l0,0l0,0l0,0
	c0,0,0-0.1,0-0.1c0-0.1,0-0.1-0.1-0.1l0-0.1l0-0.1l0,0c0,0,0,0.1,0.1,0.1C36.9,28.9,37,28.8,37,28.7L37,28.7z M37.2,29.4L37.2,29.4
	L37.2,29.4l-0.1,0L37.2,29.4L37.2,29.4C37.1,29.4,37.2,29.4,37.2,29.4z M36.9,30.1L36.9,30.1L36.9,30.1L36.9,30.1L36.9,30.1
	L36.9,30.1z M36.8,28.6L36.8,28.6L36.8,28.6L36.8,28.6L36.8,28.6L36.8,28.6l0-0.1l0,0L36.8,28.6L36.8,28.6L36.8,28.6z M36.8,28.3
	L36.8,28.3L36.8,28.3L36.8,28.3L36.8,28.3z M36.8,28L36.8,28L36.8,28L36.8,28L36.8,28L36.8,28L36.8,28z M36.7,27.6L36.7,27.6
	L36.7,27.6L36.7,27.6L36.7,27.6L36.7,27.6z M36.7,29.6L36.7,29.6L36.7,29.6L36.7,29.6L36.7,29.6L36.7,29.6L36.7,29.6L36.7,29.6z
	 M36.6,27.8L36.6,27.8L36.6,27.8L36.6,27.8L36.6,27.8z M36.5,27.8c0,0.1,0,0.1,0.1,0.1l0,0c0,0-0.1,0-0.1,0.1l0,0.1l-0.1,0l0,0l0,0
	l0,0l0-0.1c0-0.1,0-0.1-0.1-0.1l0,0l0,0C36.5,27.9,36.5,27.9,36.5,27.8z M36.5,29.1C36.4,29.1,36.4,29.2,36.5,29.1l-0.1,0.1l-0.1,0
	l0,0l0-0.1c0,0,0.1,0,0.1-0.1L36.5,29.1l0.1-0.2l0,0l0,0C36.5,29,36.5,29,36.5,29.1L36.5,29.1z M36.6,28.8L36.6,28.8L36.6,28.8
	L36.6,28.8L36.6,28.8z M36.4,28.4C36.4,28.5,36.4,28.5,36.4,28.4l0,0.2l0,0l-0.1,0l0,0l0,0l0-0.1l0-0.1L36.4,28.4L36.4,28.4
	C36.4,28.5,36.4,28.4,36.4,28.4z M36.4,29.4L36.4,29.4L36.4,29.4c0,0,0-0.1,0-0.1l0,0L36.4,29.4L36.4,29.4L36.4,29.4L36.4,29.4
	L36.4,29.4z M36.6,30.1L36.6,30.1l-0.1-0.1l0,0c0-0.1,0-0.1-0.1-0.1l0-0.1l0,0l0,0l0,0l0.1,0c0,0,0,0.1,0.1,0.1l0,0
	c-0.1,0-0.1,0-0.1,0.1C36.6,30,36.6,30,36.6,30.1c0.1,0,0.1-0.1,0.2-0.1l0,0l0,0l0,0l-0.1,0L36.6,30.1L36.6,30.1z M36.7,30.3
	L36.7,30.3L36.7,30.3L36.7,30.3L36.7,30.3z M37.3,30.4L37.3,30.4L37.3,30.4L37.3,30.4z M37.7,30.4L37.7,30.4l-0.1,0l0,0l0,0
	c0,0,0.1,0,0.1-0.1L37.7,30.4L37.7,30.4z M37.8,30.4L37.8,30.4L37.8,30.4L37.8,30.4L37.8,30.4z M37.8,30L37.8,30
	c0,0.1,0,0.1,0.1,0.1l0,0l0,0l-0.1,0.1l-0.1,0c-0.1,0-0.1,0-0.1,0.1l0,0l0,0c0-0.1,0-0.1-0.1-0.1c-0.1,0-0.1,0-0.1,0.1l0,0.1
	c0,0-0.1,0-0.1,0.1l0,0c-0.1,0-0.1,0-0.1,0.1l0,0.1l0,0l0,0.1l0,0l0,0c0,0-0.1-0.1-0.1-0.1l0,0l-0.1,0l-0.1,0l0,0l0,0
	c0,0,0.1,0,0.1-0.1l0,0l0.1,0l0,0l0.1,0l0.1,0c0.1,0,0.1,0,0.1-0.1l0-0.1l0-0.1l0,0l0.1,0c0.1,0,0.1,0,0.1-0.1l0,0l0,0
	c0,0.1,0,0.1,0.1,0.1l0.1-0.1C37.6,30.1,37.7,30.1,37.8,30L37.8,30z M37.6,29.5L37.6,29.5L37.6,29.5l0-0.1l0.1,0l0.1,0l0,0l0,0.1
	l0,0C37.7,29.4,37.7,29.5,37.6,29.5L37.6,29.5c0,0.1,0,0.1-0.1,0.2l-0.1-0.1C37.6,29.6,37.6,29.6,37.6,29.5z M37.4,29.8L37.4,29.8
	c0.1,0.1,0.2,0,0.2,0l0.1,0.1l0,0l-0.1,0l-0.1,0l0,0c0,0-0.1,0-0.1,0.1l0,0C37.4,29.9,37.4,29.8,37.4,29.8c-0.1,0-0.2,0.1-0.2,0.1
	l0,0c0,0,0-0.1-0.1-0.1l0,0l0,0l0,0l0,0c0,0,0.1,0.1,0.1,0.1L37.4,29.8L37.4,29.8z M37.4,27L37.4,27l0.1,0l0,0l0,0
	c0,0-0.1,0.1-0.1,0.1l0,0l0,0l-0.1,0l0,0l0.1-0.1L37.4,27z M37.4,27.4L37.4,27.4L37.4,27.4L37.4,27.4l0.1,0.1c0,0,0,0.1,0.1,0.1
	l0,0.1l0,0l-0.1,0l0-0.1c0,0,0-0.1-0.1-0.1l0,0l0,0L37.4,27.4L37.4,27.4z M37.5,28.1L37.5,28.1L37.5,28.1L37.5,28.1L37.5,28.1
	L37.5,28.1L37.5,28.1z M37.5,28.7C37.5,28.7,37.5,28.7,37.5,28.7l-0.1-0.1c0,0,0-0.1-0.1-0.1l0,0l0,0l0,0l0.1,0l0,0
	C37.5,28.6,37.5,28.6,37.5,28.7L37.5,28.7L37.5,28.7z M37.8,28.8L37.8,28.8L37.8,28.8L37.8,28.8L37.8,28.8L37.8,28.8L37.8,28.8z
	 M38.2,28.8L38.2,28.8L38.2,28.8L38.2,28.8l-0.1-0.1l0,0L38.2,28.8C38.2,28.8,38.2,28.8,38.2,28.8L38.2,28.8L38.2,28.8z M37.7,27.9
	L37.7,27.9l0.1,0c0.1,0,0.1,0,0.1-0.1l0.1,0c0,0,0.1,0,0.1-0.1c0,0.1,0,0.1,0,0.1l0,0l0,0c0,0-0.1,0-0.1,0.1c0,0,0,0.1,0,0.1l0,0.1
	l0,0c-0.1,0-0.1,0-0.1,0.1c0,0,0,0.1,0,0.1c0,0-0.1,0-0.1,0.1c0,0,0,0.1,0.1,0.1l0.1,0c0,0,0.1,0,0.1-0.1c0,0,0.1,0,0.1-0.1l0,0l0,0
	l0.1,0l0.1,0c0,0,0,0.1,0.1,0.1l-0.1,0l0,0c0,0-0.1,0-0.1,0.1l0,0c-0.1,0-0.1,0-0.1,0.1c0,0.1,0,0.1,0.1,0.1l0,0l-0.1,0l-0.1,0l0,0
	l0-0.1c0-0.1,0-0.1-0.1-0.1l-0.1,0l0,0l0,0l0,0c0,0-0.1-0.1-0.1-0.1l0,0c0-0.1,0-0.1-0.1-0.1l0,0l-0.1,0h0l0,0l0.1,0
	c0.1,0,0.1-0.1,0.1-0.1c0,0,0-0.1,0-0.1l0.1,0l0.1,0c0.1,0,0.1,0,0.1-0.1C37.8,27.9,37.8,27.9,37.7,27.9L37.7,27.9L37.7,27.9l-0.1,0
	L37.7,27.9L37.7,27.9z M37.2,27.3c0,0,0-0.1-0.1-0.1l0,0l0,0l0.1,0l0,0l0,0L37.2,27.3L37.2,27.3C37.2,27.3,37.2,27.3,37.2,27.3
	l0,0.2l0,0l0,0C37.2,27.5,37.1,27.4,37.2,27.3C37.1,27.4,37.2,27.4,37.2,27.3z M37.1,27.8L37.1,27.8l0.1,0.1l0,0.1l0,0.1l0,0.1
	c0,0-0.1,0-0.1,0.1l0,0l0,0.1l0,0L37,28.4l0,0c0,0,0-0.1-0.1-0.1l0,0l0-0.1l0,0l0,0l0,0c0.1,0,0.1,0,0.1-0.1c0,0,0-0.1-0.1-0.1
	L37.1,27.8L37.1,27.8L37.1,27.8c-0.1,0-0.1-0.1-0.2-0.1l0,0l0,0l0.1-0.1l0.1,0.1l0,0C37,27.7,37,27.8,37.1,27.8z M36.4,27L36.4,27
	L36.4,27l0.1,0l0,0l0.1,0l0,0l0,0c0,0-0.1,0-0.1,0C36.5,27,36.5,27,36.4,27L36.4,27L36.4,27L36.4,27z M36.4,27.4L36.4,27.4l0.2,0
	l0,0l0,0l0,0l0,0l0,0l0,0l0,0l-0.1,0l0,0l0,0c0-0.1,0-0.1-0.1-0.1l0,0L36.4,27.4L36.4,27.4z M36.3,26.7L36.3,26.7L36.3,26.7
	L36.3,26.7z M35.3,26.1L35.3,26.1L35.3,26.1l0.1,0.1l0,0c0,0.1,0,0.1,0,0.1c0,0-0.1,0.1-0.1,0.1c0,0,0,0.1,0.1,0.1l-0.1,0l-0.1-0.1
	l0-0.1l0,0l0,0c0-0.1,0-0.1-0.1-0.1c0,0-0.1,0-0.1,0l0,0l0-0.1l0,0C35.3,26.2,35.3,26.2,35.3,26.1z M34.9,26.3L34.9,26.3L34.9,26.3
	L34.9,26.3L34.9,26.3L34.9,26.3C34.9,26.3,34.9,26.4,34.9,26.3L34.9,26.3L34.9,26.3L34.9,26.3L34.9,26.3z"/>
<path class="st12" d="M39.1,32C39.2,32,39.2,32,39.1,32c0.1-0.1,0-0.2,0-0.2c0-0.1,0-0.1-0.1-0.1c0,0-0.1,0-0.1,0.1
	C39,31.9,39.1,31.9,39.1,32z"/>
<path class="st12" d="M37.5,30.9C37.5,30.9,37.5,30.9,37.5,30.9L37.5,30.9C37.5,30.9,37.5,30.9,37.5,30.9z"/>
<path class="st12" d="M37.8,27.2C37.8,27.2,37.7,27.2,37.8,27.2c-0.1,0.1,0,0.2,0.1,0.2l0.1,0.1c0,0,0.1,0,0.1,0l0,0
	c0.1,0,0.1,0,0.1-0.1l0-0.1l0,0l0,0L37.8,27.2L37.8,27.2L37.8,27.2L37.8,27.2z"/>
<path class="st12" d="M38.8,30.7L38.8,30.7c0.1,0,0.1,0.1,0.1,0.1l0,0.1c0,0,0.1,0.1,0.1,0.1c0.1,0,0.1,0,0.1-0.1l0.1,0
	c0,0,0,0.1,0.1,0.1c0.1,0,0.1,0,0.1-0.1c0-0.1,0-0.1-0.1-0.1l0,0c0-0.1,0-0.1-0.1-0.1c0,0-0.1,0-0.1,0.1l0,0l0,0l0,0l0,0
	c0,0,0.1,0,0.1-0.1l0,0l0,0l0,0.1c0,0,0,0.1,0.1,0.1l0,0c0,0,0,0.1,0.1,0.1c0.1,0,0.1,0,0.1-0.1l0-0.1l0-0.1c0,0,0.1,0,0.1-0.1
	c0-0.1,0-0.1-0.1-0.1l0,0l0,0l0,0l0,0l0.1-0.1l0.1-0.1c0,0,0.1,0,0.1-0.1l0.1,0l0.1,0l0,0l0,0c0,0.1,0,0.1,0.1,0.1l0.1,0l0,0
	c0,0,0.1,0,0.1-0.1l0,0l0,0c0,0,0.1-0.1,0.1-0.1c0-0.1,0-0.1-0.1-0.1c-0.1,0-0.1,0-0.1,0.1l0,0l0,0c0,0-0.1,0-0.1,0l0,0l0,0
	l-0.1-0.1c0,0,0.1,0,0.1-0.1c0-0.1,0-0.1-0.1-0.1c-0.1,0-0.1,0-0.1,0.1l0,0l-0.1,0c0,0-0.1-0.1-0.1-0.1c-0.1,0-0.1,0.1-0.1,0.1
	l0.1,0.1l0,0l-0.1,0l0-0.1c0,0-0.1-0.1-0.1-0.1c-0.1,0-0.1,0-0.1,0.1l0,0.1l-0.1,0c0,0-0.1,0.1-0.1,0.1c0,0.1,0,0.1,0.1,0.1
	c0.1,0,0.1,0,0.1-0.1l0-0.1l0,0l0.1,0l0,0.1l0,0l0,0c0,0,0,0.1,0,0.1l0,0.1c0,0,0,0.1,0,0.1l0,0l-0.1,0.1l0,0c-0.1,0-0.1,0-0.1,0.1
	l0,0l0,0c0,0-0.1,0-0.1,0l-0.1,0l0,0l0-0.1l0,0c0,0,0.1,0,0.1-0.1c0-0.1,0-0.1-0.1-0.1c-0.1,0-0.1,0-0.1,0.1l-0.1,0.1l-0.1,0.1
	l0,0.1l0,0c0,0,0,0.1,0.1,0.1l0.1,0C38.7,30.7,38.8,30.7,38.8,30.7z M39.4,29.8L39.4,29.8c0.1,0,0.1,0.1,0.2,0.1l0,0l0,0.1l0,0
	l-0.1,0l0,0l0,0C39.4,29.9,39.4,29.8,39.4,29.8L39.4,29.8z M39.1,30.8L39.1,30.8L39.1,30.8L39.1,30.8z"/>
<path class="st12" d="M40.3,28.9c0,0,0-0.1-0.1-0.1c0,0,0.1-0.1,0.1-0.1c0-0.1,0-0.1-0.1-0.1c-0.1,0-0.1,0-0.1,0.1
	c0,0,0,0.1,0.1,0.1c0,0-0.1,0.1-0.1,0.1c0,0.1,0,0.1,0.1,0.1C40.2,29,40.3,28.9,40.3,28.9z"/>
<path class="st12" d="M39,31.7c0.1,0,0.1,0,0.1-0.1l0-0.1c0,0,0.1,0,0.1-0.1c0,0,0.1,0.1,0.1,0.1c0.1,0,0.1,0,0.1-0.1v0l0.1-0.1
	c0,0,0.1,0,0.1-0.1c0-0.1,0-0.1-0.1-0.1l-0.1,0c0-0.1,0-0.1-0.1-0.1c-0.1,0-0.1,0-0.1,0.1c0,0,0,0.1,0.1,0.1l0,0l0,0l-0.1,0.1
	l-0.1-0.1c-0.1,0-0.1,0.1-0.1,0.1l0,0.1c-0.1,0-0.1,0-0.1,0.1C38.9,31.7,38.9,31.7,39,31.7z"/>
<path class="st12" d="M41.4,28.8c-0.1,0-0.1,0-0.1,0.1c0,0.1,0,0.1,0.1,0.1c0,0,0.1,0,0.1-0.1L41.4,28.8c0.1,0,0.2,0,0.2,0
	c0,0,0,0,0,0l-0.2-0.1l0,0L41.4,28.8L41.4,28.8z"/>
<path class="st12" d="M39.6,31.4c-0.1,0-0.1,0-0.1,0.1c0,0,0,0.1,0.1,0.1c0.1,0,0.1,0,0.1-0.1l0,0c0.1,0,0.1,0,0.1-0.1
	c0-0.1,0-0.1-0.1-0.1l0.1-0.1c0-0.1,0-0.1-0.1-0.1c0,0-0.1,0-0.1,0.1C39.5,31.2,39.6,31.3,39.6,31.4L39.6,31.4L39.6,31.4z"/>
<path class="st12" d="M40,29.7c0,0,0.1-0.1,0.1-0.1c0-0.1,0-0.1-0.1-0.1c0,0-0.1,0.1-0.1,0.1C39.9,29.7,39.9,29.7,40,29.7z"/>
<path class="st12" d="M39.7,28.7c-0.1,0-0.1,0-0.1,0.1c0,0.1,0,0.1,0.1,0.1c0.1,0,0.1,0,0.1-0.1C39.8,28.7,39.7,28.7,39.7,28.7z"/>
<path class="st12" d="M40.3,31.3c0,0,0,0.1,0.1,0.1c0.1,0,0.1,0,0.1-0.1c0-0.1,0-0.1-0.1-0.1C40.4,31.2,40.3,31.3,40.3,31.3z"/>
<path class="st12" d="M40.3,33.2c0.1,0,0.1,0,0.1-0.1c0-0.1,0-0.1-0.1-0.1c-0.1,0-0.1,0-0.2,0.1C40.2,33.1,40.2,33.2,40.3,33.2z"/>
<path class="st12" d="M40.8,29.9L40.8,29.9L40.7,30c0,0.1,0,0.1,0.1,0.1c0,0,0.1,0,0.1,0l0.1-0.1C40.9,29.9,40.9,29.9,40.8,29.9z"/>
<path class="st12" d="M41.9,32.1c0,0-0.1,0-0.1,0.1c0,0.1,0,0.1,0.1,0.1c0,0,0.1-0.1,0.1-0.1C42,32.1,42,32.1,41.9,32.1z"/>
<path class="st12" d="M38.9,27.7c0,0.1,0,0.1,0.1,0.1l0,0l0,0l0.1,0c0,0,0.1,0.1,0.1,0.1l0,0l0,0l0,0.1c-0.1,0-0.1,0-0.1,0.1
	c0,0.1,0,0.1,0.1,0.1c0,0,0.1,0,0.1-0.1v0h0l0.1,0l0.1,0c0,0,0.1-0.1,0.1-0.1l0.1,0c0.1,0,0.1,0,0.1-0.1c0,0,0,0,0,0l-0.2-0.1l0,0
	l0,0l0,0l-0.1,0l-0.1-0.1l0,0l-0.1,0l0,0l0,0l0,0l0,0L38.9,27.7C39,27.6,39,27.6,38.9,27.7C39,27.6,39,27.7,38.9,27.7z"/>
<path class="st12" d="M40.8,32.2c0.1,0,0.1,0,0.1-0.1c0-0.1,0-0.1-0.1-0.1c-0.1,0-0.1,0-0.1,0.1C40.7,32.1,40.7,32.2,40.8,32.2z"/>
<path class="st12" d="M40.3,29.1c0,0.1,0,0.1,0.1,0.1l0,0c0,0-0.1,0.1-0.1,0.1l0,0l0,0.1l0,0.1l0,0c0,0.1,0,0.1,0.1,0.1
	c0.1,0,0.1,0,0.1-0.1l0-0.1l0,0l0,0l0,0c0,0,0.1,0.1,0.1,0.1c0.1,0,0.1,0,0.1-0.1c0,0,0-0.1-0.1-0.1l-0.1,0c0,0-0.1-0.1-0.1-0.1l0,0
	l0,0c0.1,0,0.1,0,0.1-0.1c0-0.1,0-0.1-0.1-0.1l-0.1,0l0,0C40.3,29,40.3,29,40.3,29.1z"/>
<path class="st12" d="M39.1,28.6c-0.1,0-0.1,0-0.1,0.1c0,0.1,0,0.1,0.1,0.1c0.1,0,0.1,0,0.1-0.1C39.3,28.6,39.2,28.6,39.1,28.6z"/>
<path class="st12" d="M41.2,28.8c0,0,0.1-0.1,0.1-0.1v0v0l-0.2-0.1l0,0l0,0.1C41.1,28.7,41.2,28.8,41.2,28.8z"/>
<path class="st12" d="M40,30.6L40,30.6c-0.2-0.1-0.2,0-0.2,0.1c0,0.1,0,0.1,0.1,0.1l0,0c0,0,0,0,0.1,0c0.1,0,0.1,0,0.1-0.1
	C40.1,30.7,40.1,30.6,40,30.6L40,30.6z"/>
<path class="st12" d="M42,29.5c0.1,0,0.1,0,0.1-0.1c0,0,0-0.1,0-0.1l0.1-0.1c0-0.1,0-0.1-0.1-0.1c0,0-0.1,0-0.1,0.1c0,0,0,0.1,0,0.1
	c0,0-0.1,0-0.1,0.1C41.9,29.5,42,29.5,42,29.5z"/>
<path class="st12" d="M40.9,28.6c0.1,0,0.1,0,0.1-0.1c0,0,0,0,0,0l-0.2-0.1l0,0l0,0C40.8,28.5,40.8,28.6,40.9,28.6z"/>
<path class="st12" d="M40,28.3L40,28.3c-0.1,0-0.1,0-0.2,0c-0.1,0-0.1,0-0.1,0.1l0,0l0,0c0,0,0,0.1,0.1,0.1l0,0l0,0.1
	c0,0.1,0,0.1,0.1,0.1l0,0l0,0c0.1,0,0.1,0,0.1-0.1c0-0.1,0-0.1-0.1-0.1l0,0c0.1,0,0.1,0,0.1-0.1C40.1,28.3,40,28.3,40,28.3z"/>
<path class="st12" d="M40.9,30.4c0,0-0.1,0-0.1,0.1c0,0.1,0,0.1,0.1,0.1c0,0,0.1-0.1,0.1-0.1C41,30.5,41,30.4,40.9,30.4z"/>
<path class="st12" d="M39.8,30.3c-0.1,0-0.1,0-0.1,0.1c0,0.1,0,0.1,0.1,0.1c0.1,0,0.1,0,0.1-0.1C39.9,30.4,39.9,30.3,39.8,30.3z"/>
<path class="st12" d="M39,31.2c0-0.1,0-0.1-0.1-0.1l-0.1,0l-0.1,0.1c0,0,0,0.1,0.1,0.1C38.9,31.3,38.9,31.3,39,31.2L39,31.2z"/>
<path class="st12" d="M41.4,29.4c0.1,0,0.1,0,0.1-0.1v0c0,0,0.1-0.1,0.1-0.1c0-0.1,0-0.1-0.1-0.1c0,0-0.1,0-0.1,0.1l0,0
	c0,0-0.1,0-0.1,0.1C41.3,29.3,41.3,29.4,41.4,29.4z"/>
<polygon class="st1" points="25.9,51.7 28.9,53.1 29.7,51.7 26.6,50.1 "/>
<polygon class="st8" points="25.1,51.4 25,51.7 25,51.7 29.5,53.8 29.6,53.8 29.8,53.5 28.9,53.1 25.9,51.7 "/>
<path class="st8" d="M24.9,51.8L24.9,51.8l-2.1,4.6l0,0l-0.5,1.2l4.3,2l6.9,3.2l0,0l0,0c0.2,0.1,0.4-0.2,0.3-0.4l-5.9-6.1l0.4-0.5
	l-1.4-0.7l0-0.1l0.1,0l1.5,0.7l0.3-0.4l-1.4-0.7l0-0.1l0.1,0l1.5,0.7l0.2-0.4l0,0l-1.4-0.7l0-0.1l0.1,0l1.4,0.7
	c0-0.1,0.1-0.2,0.3-0.3l0.4-0.5L24.9,51.8z M24.9,53.5c0.2-0.3,0.6-0.5,1-0.4c0.6,0.2,0.9,0.9,0.5,1.4c-0.2,0.3-0.6,0.5-1,0.4
	C24.8,54.7,24.6,54,24.9,53.5z"/>
<path class="st9" d="M25.4,54.9c0.4,0.1,0.8,0,1-0.4c0.4-0.5,0.1-1.2-0.5-1.4c-0.4-0.1-0.8,0-1,0.4C24.6,54,24.8,54.7,25.4,54.9z"/>
<polygon points="25,51.7 25,51.7 24.9,51.7 24.9,51.8 24.9,51.8 29.5,53.9 29.5,53.9 29.6,53.9 29.6,53.8 29.5,53.8 "/>
<path d="M27.4,54.1L27.4,54.1L27.4,54.1l1.4,0.7l0,0l0,0c0,0,0.2,0.2,0.5,0.5c0.3,0.2,0.6,0.5,0.9,0.5c0.2,0,0.4-0.1,0.5-0.3
	c0-0.1,0.1-0.2,0.1-0.2c0-0.1-0.1-0.2-0.1-0.3c-0.1-0.1-0.3-0.2-0.5-0.2c-0.1,0-0.1,0-0.2,0c0.1,0,0.1,0,0.2,0
	c0.2,0,0.3-0.1,0.4-0.2c0.1-0.1,0.2-0.2,0.2-0.4c0-0.1,0-0.2-0.1-0.2c0-0.1-0.1-0.2-0.2-0.2c-0.1-0.1-0.1-0.1-0.2-0.1
	c-0.2,0-0.3,0.1-0.5,0.2c-0.2,0.2-0.5,0.4-0.7,0.6c-0.1,0.1-0.2,0.3-0.3,0.3L27.4,54.1z M30.3,55c0.1,0,0.2,0.1,0.3,0.1
	c0.1,0.1,0.1,0.1,0.1,0.2c0,0.1,0,0.1-0.1,0.2c-0.1,0.2-0.2,0.3-0.4,0.3c-0.3,0-0.6-0.2-0.9-0.5c-0.1-0.1-0.3-0.2-0.3-0.3
	c0,0-0.1-0.1-0.1-0.1c0,0,0.1,0,0.1,0c0.1,0,0.3,0,0.4,0C29.7,54.9,30.1,54.9,30.3,55z M29.6,54.1c0.2-0.2,0.5-0.3,0.6-0.3
	c0.1,0,0.1,0,0.2,0.1c0.1,0,0.1,0.1,0.1,0.2c0,0.1,0,0.1,0,0.2c0,0.1-0.1,0.2-0.1,0.3c-0.1,0.1-0.4,0.2-0.6,0.2c-0.2,0-0.5,0-0.7,0
	c-0.1,0-0.1,0-0.2,0c0,0,0-0.1,0.1-0.1C29.2,54.5,29.4,54.3,29.6,54.1z"/>
<polygon points="27.1,54.6 27.1,54.6 28.5,55.3 28.5,55.3 28.6,55.3 28.6,55.2 28.6,55.2 27.1,54.6 "/>
<polygon points="26.7,55.1 26.8,55.1 28.2,55.8 28.2,55.8 28.3,55.8 28.3,55.7 28.3,55.7 26.8,55 "/>
<polygon class="st10" points="26.6,59.6 22.2,57.6 22,58 33.2,63.2 33.4,62.8 33.5,62.7 "/>
<path d="M38.2,6.6L38.2,6.6c0.2,0,0.4,0.1,0.5,0.2C38.8,7,38.9,7.2,39,7.5c0,0.1,0,0.2,0,0.2c0,0.2,0,0.4-0.1,0.6c0,0,0,0,0,0.1
	l0.1,0.1c0,0,0.1-0.1,0.1-0.1c0.1-0.2,0.1-0.4,0.1-0.6c0-0.1,0-0.2,0-0.2c0-0.3-0.1-0.5-0.3-0.7c-0.1-0.2-0.3-0.3-0.5-0.3L38.2,6.6
	c-0.2-0.1-0.3,0-0.4,0.1l0.1,0.1C38,6.7,38.1,6.6,38.2,6.6z"/>
<path class="st1" d="M34.9,13.9c0.1,0,0.3,0.1,0.4,0.1l0,0c0,0,0,0,0,0l0.1-0.3c-1.5-0.6-1.7-2.2-1.8-2.8c0.5,0.8,1.2,1.3,1.9,1.3
	c0.1,0,0.1,0,0.2,0c1-0.1,1.9-0.8,2.3-2l0.8-0.8c0.2-0.2,0.3-0.6,0.1-0.8l-0.1-0.1l-0.1-0.1l-0.9-1.5l-0.1-0.1l-0.1-0.1
	c0,0-0.1-0.1-0.1-0.1l0-0.1l0,0c-0.1-0.2-0.2-0.3-0.3-0.4l-2.3,0.4c0.1,0.2,0.2,0.5,0.2,0.7c0,0.2,0,0.4-0.1,0.6l1.4-0.3
	c0-0.2,0.1-0.4,0.1-0.5c0.1-0.2,0.2-0.3,0.4-0.3l0.1,0c0.2,0,0.4,0.1,0.5,0.3c0.1,0.2,0.2,0.4,0.3,0.7c0,0.1,0,0.2,0,0.2
	c0,0.2-0.1,0.5-0.1,0.6c-0.1,0.2-0.2,0.3-0.4,0.3l-0.1,0c-0.2,0-0.4-0.1-0.5-0.3c-0.1-0.2-0.2-0.4-0.3-0.7c0-0.1,0-0.2,0-0.2
	c0,0,0,0,0,0l-1.4,0.3C35,8,34.9,8.1,34.7,8.3c-0.1-0.2-0.2-0.4-0.4-0.6c-0.5-0.5-1.2-0.7-1.6-0.3c-0.4,0.3-0.3,1,0.2,1.5
	C33,8.9,33,9,33.1,9c0,0.2,0,0.4,0.1,0.6l-0.9,1.7l-1,1.8c0.8,0,1.5,0.2,2.3,0.4L34.9,13.9z M33,7.8L33,7.8L33,7.8
	c0,0.1,0,0.2,0,0.2c0,0.1,0,0.2,0.1,0.3c0,0,0.1-0.1,0.1-0.2c0.1-0.1,0.3-0.2,0.6-0.2c0.1,0,0.1,0,0.2,0l0,0.1L34,8
	c-0.1,0-0.1,0-0.2,0c-0.2,0-0.4,0.1-0.5,0.2c-0.1,0.1-0.1,0.2-0.2,0.2c0,0.1,0.1,0.1,0.2,0.2c0.2,0.1,0.3,0.2,0.5,0.2
	c0.1,0,0.2,0,0.3-0.1l0.1,0l0,0.1c-0.1,0.1-0.2,0.2-0.4,0.2c-0.2,0-0.4-0.1-0.6-0.2c-0.2-0.2-0.4-0.4-0.4-0.6
	C32.9,7.9,33,7.8,33,7.8z"/>
<path class="st13" d="M35.6,12.2c-0.8,0-1.5-0.5-1.9-1.3c0,0.6,0.3,2.2,1.8,2.8c0,0,0,0,0,0l0.3-1.5C35.7,12.2,35.7,12.2,35.6,12.2z
	"/>
<path class="st1" d="M36.6,7.8c0,0.3,0.1,0.5,0.3,0.6c0.1,0.2,0.3,0.2,0.4,0.2l0.1,0c0.1,0,0.2-0.1,0.3-0.3c0.1-0.1,0.1-0.3,0.1-0.6
	c0-0.1,0-0.2,0-0.2c0-0.3-0.1-0.5-0.3-0.6c-0.1-0.2-0.3-0.2-0.4-0.2l-0.1,0c-0.1,0-0.2,0.1-0.3,0.3c-0.1,0.1-0.1,0.3-0.1,0.6
	C36.6,7.6,36.6,7.7,36.6,7.8z M37.5,7.4c0.1,0,0.1,0.1,0.1,0.2c0,0.1,0,0.2-0.1,0.2c-0.1,0-0.1-0.1-0.1-0.2
	C37.4,7.5,37.5,7.4,37.5,7.4z"/>
<path d="M37.5,7.8c0.1,0,0.1-0.1,0.1-0.2c0-0.1-0.1-0.2-0.1-0.2c-0.1,0-0.1,0.1-0.1,0.2C37.4,7.7,37.5,7.8,37.5,7.8z"/>
<path class="st1" d="M2.9,31.9L2.9,31.9l1.6-1.1l0.1,0l0,0.1L2.9,31.9L2.9,31.9l-0.7,0.5C2,32.5,1.9,32.8,2,33.1
	c0.1,0.2,0.4,0.3,0.6,0.2l0,0l2.5-1.6l0.1,0l1.4-1L5.5,29l-3,2c-0.2,0.2-0.3,0.5-0.1,0.7c0.1,0.1,0.2,0.2,0.3,0.2
	C2.7,31.9,2.8,31.9,2.9,31.9z"/>
<path class="st1" d="M3.9,34.9l3.8-2.5l0.1,0l-1.1-1.7l-1.4,1l0,0.1l-2.5,1.6l-0.1,0v0l-0.4,0.3c-0.2,0.2-0.3,0.5-0.1,0.7
	c0.2,0.2,0.5,0.3,0.7,0.1l0.4-0.3h0l0-0.1l2.5-1.6l0.1,0l0,0.1l-2.5,1.6l0,0c-0.1,0.2-0.2,0.4,0,0.6C3.3,34.9,3.4,35,3.5,35
	C3.6,35,3.8,35,3.9,34.9z"/>
<polygon points="4.6,30.8 4.6,30.8 4.5,30.8 2.9,31.8 2.9,31.9 2.9,31.9 2.9,31.9 3,31.9 "/>
<polygon points="2.7,33.3 5.1,31.7 5.2,31.6 5.2,31.6 5.2,31.6 5.1,31.6 2.6,33.2 2.6,33.3 2.6,33.3 2.6,33.3 "/>
<polygon points="5.7,32.6 5.7,32.5 5.6,32.5 3.2,34.1 3.2,34.2 3.2,34.2 3.2,34.2 3.2,34.2 "/>
<path class="st8" d="M6.6,30.7L6.6,30.7l1.1,1.7l0.1,0.2l0.2,0.3l0,0l3.4-2.3l6.1-4.1c0.1-0.1,0.2-0.1,0.3-0.2l3-2h0l0-0.1l8-5.3
	l0.1,0l0,0.1l-8,5.3c0.2,0.3,0.4,0.5,0.6,0.7c0.3,0.3,0.7,0.5,1.2,0.6l8.1,2.4c0.3,0.1,0.7,0.1,1,0.1c0.2,0,0.4,0,0.6-0.1
	c0,0,0,0,0,0c0.2-0.1,0.4-0.1,0.6-0.2c0,0,0,0,0.1,0c0.4-0.2,0.8-0.5,1.1-1c0,0,0,0,0,0c0.1-0.1,0.2-0.3,0.3-0.4c0,0,0,0,0,0
	c0.1-0.2,0.1-0.3,0.2-0.5l0.1-0.3l1.6-5.1l0,0l0-0.1l0.8-2.4c0.1-0.4,0.2-0.7,0.2-1.1c0-1.3-0.8-2.5-2-3.1l0-0.1l0,0
	c-0.1,0-0.3-0.1-0.4-0.1l-1.3-0.4c-0.8-0.2-1.6-0.4-2.3-0.4c-1.8-0.1-3.6,0.3-5.1,1.1c-0.2,0.1-0.4,0.2-0.5,0.3L16,20.8
	c-0.1,0.1-0.2,0.1-0.3,0.2L5,28.2L5.5,29L6.6,30.7z"/>
<polygon points="21,24.4 29,19 29,18.9 29,18.9 21,24.3 21,24.3 21,24.3 21,24.4 "/>
<path class="st8" d="M37.4,17.1c0,0.4-0.1,0.7-0.2,1.1l-0.8,2.4l0,0l8.5,3.8c0.3,0.2,0.6,0.3,0.9,0.3c0,0,0,0,0.1,0
	c0.1,0,0.1,0,0.2,0c0,0,0.1,0,0.1,0c0,0,0.1,0,0.1,0c0.1,0,0.1,0,0.2,0c0,0,0,0,0,0c0.9-0.1,1.8-0.7,2.2-1.6
	c0.3-0.7,0.3-1.4,0.1-2.1l-3-12.4l-0.6,0.2l-2,0.5l0,0l-1,0.2l0,0l-1,0.2L40.4,10l1.7,7l-6.5-2.9C36.7,14.7,37.4,15.9,37.4,17.1z"/>
<path d="M33.3,8.6c0.2,0.1,0.4,0.2,0.6,0.2c0.1,0,0.3,0,0.4-0.2l0-0.1l-0.1,0c-0.1,0.1-0.2,0.1-0.3,0.1C33.7,8.7,33.5,8.7,33.3,8.6
	c0-0.1-0.1-0.2-0.1-0.2c0,0,0.1-0.1,0.2-0.2C33.5,8.1,33.6,8,33.8,8C33.9,8,34,8,34,8l0.1,0l0-0.1c-0.1,0-0.2,0-0.2,0
	c-0.3,0-0.5,0.1-0.6,0.2c-0.1,0.1-0.1,0.1-0.1,0.2C33.1,8.2,33,8.1,33,8c0-0.1,0-0.1,0.1-0.2l0-0.1l-0.1,0C33,7.8,32.9,7.9,32.9,8
	C32.9,8.2,33.1,8.5,33.3,8.6z"/>
<path d="M35.3,14L35.3,14L35.3,14c1.3,0.6,2,1.9,2,3.2c0,0.4-0.1,0.7-0.2,1.1l-0.8,2.4l0,0.1l0,0l0.1,0l0,0l0.8-2.4
	c0.1-0.4,0.2-0.7,0.2-1.1c0-1.2-0.7-2.4-1.8-3C35.5,14,35.5,14,35.3,14C35.4,14,35.4,13.9,35.3,14L35.3,14z"/>
</svg>
