<?xml version="1.0" encoding="utf-8"?>
<!-- Generator: Adobe Illustrator 28.2.0, SVG Export Plug-In . SVG Version: 6.00 Build 0)  -->
<svg version="1.1" id="_圖層_2" xmlns="http://www.w3.org/2000/svg" xmlns:xlink="http://www.w3.org/1999/xlink" x="0px" y="0px"
	 width="90px" height="110px" viewBox="0 0 90 110" style="enable-background:new 0 0 90 110;" xml:space="preserve">
<style type="text/css">
	.st0{fill:#9ACFFF;}
	.st1{fill:#57AEC2;}
	.st2{fill:#242A35;}
	.st3{opacity:0.28;fill:#242A35;enable-background:new    ;}
	.st4{fill:#FFFFFF;}
</style>
<g>
	<g>
		<path class="st0" d="M78.4,58c2.3,9.3,3,19.4-0.4,28.5c-3.7,9.9-12.1,18.1-22.3,21.4s-21.8,1.8-30.6-4c-3.7-2.5-6.9-5.7-9.4-9.4
			c-3.4-5-5.5-10.9-5.9-17c-0.5-9.1,2.6-18.1,6.4-26.5s8.4-16.5,11.2-25.3c2.5-8.1,3.3-17.1,0.3-24.9c7.6,3,14.7,7.1,21.1,12.1
			C63.3,24.2,74,40.2,78.4,58z"/>
		<g>
			<path class="st1" d="M15.1,58.8c-0.7,0.4-1.3-0.5-1.6-1l0,0c0-0.1,0.1-0.3,0.1-0.4c0.2-0.6,0.4-1.1,0.7-1.7
				c0.1-0.1,0.1-0.3,0.2-0.4v0.1c0.2,0.5,0.5,1,0.7,1.5C15.3,57.4,15.6,58.4,15.1,58.8z"/>
			<path class="st1" d="M46.2,51.9c-0.4,0.3-0.9,0.6-1.4,0.7c-0.3,0.1-0.7,0.1-1,0.1s-0.7,0.1-1,0.2c-0.3,0.1-0.6,0.3-1,0.3
				c-0.2,0-0.3,0-0.5-0.1c-0.1-0.1-0.3-0.3-0.2-0.4c0.1-0.5,0.7-0.4,0.9-0.7l-0.1-0.1l0,0c-0.2-0.1-0.3-0.2-0.4-0.4
				c0-0.2,0.2-0.3,0.4-0.3s0.5,0,0.7,0.1c0.3,0.1,0.5,0.1,0.8,0.1s0.7,0,1-0.1c0.2-0.1,0.4-0.1,0.6-0.2c0.4-0.1,0.9-0.3,1.3,0
				C46.7,51.3,46.5,51.7,46.2,51.9z"/>
			<g>
				<path class="st1" d="M39.6,53.9c-0.1-0.1-0.3-0.1-0.4-0.1c-0.2,0-0.3,0-0.5,0c-0.1,0-0.3,0-0.4,0.1c-0.1,0-0.2,0.1-0.2,0.2
					c0,0.1,0,0.2,0,0.2c0.1,0.1,0.2,0.2,0.3,0.2l0.1,0.1c0.3,0,0.5,0.1,0.8,0c0.2,0,0.3-0.1,0.4-0.2C39.8,54.2,39.7,54,39.6,53.9z
					 M39.4,54.2L39.4,54.2L39.4,54.2z M39.4,54.2L39.4,54.2L39.4,54.2L39.4,54.2L39.4,54.2L39.4,54.2L39.4,54.2z"/>
			</g>
			<path class="st1" d="M40.9,51.4c0.1,0.3-0.2,0.6-0.4,0.7c-0.2,0.1-0.4,0.2-0.6,0.3c-0.3,0.2-0.7,0.2-1.1,0.2
				c-0.4,0-0.9,0-1.3-0.1c-0.4-0.1-0.9-0.3-1.4-0.3c-0.4,0-0.7,0.4-1.2,0.5c-0.2,0-0.3,0-0.5,0c-0.1,0-0.3,0-0.4,0.1
				c-0.2,0.1-0.4,0.2-0.6,0.2c-0.4-0.1-0.4-0.7-0.3-1c0.2-0.4,0.6-0.6,1-0.7c0.4-0.2,0.9-0.2,1.4-0.3c0.4,0,0.8,0,1.3,0
				c0.4,0.1,0.8,0.2,1.2,0.2s0.8,0,1.1,0c0.4,0,0.7-0.1,1.1-0.1C40.4,51.1,40.8,51.2,40.9,51.4z"/>
			<path class="st1" d="M77.8,63.7c0,0.1,0,0.2,0,0.2c0.1,0.7-0.1,1.5-0.3,2.2c-0.1,0.5-0.3,1.1-0.4,1.7c-0.1,0.4-0.1,0.7-0.2,1.1
				c-0.1,0.5-0.6,1.5-1.2,0.9c-0.6-0.5-0.4-1.5-0.9-2c-0.3,0.2-0.3,0.6-0.3,0.9c0,0.4,0,0.9,0,1.3c0,1.2-0.1,2.4-0.2,3.5
				c0,0.8-0.1,1.5-0.1,2.3c0,0.7,0,1.4-0.2,2c-0.3,1.1-1,1.8-1.7,2.7c-0.7,0.9-1.1,1.9-1.4,3c-0.2,1.1-0.4,2.2-0.9,3.1
				s-1.3,1.6-2.1,2.3c-0.9,0.8-1.1,2-1.7,3s-1.5,1.5-2.4,2.1c-0.5,0.3-0.9,0.7-1.2,1.1c-0.3,0.5-0.3,1.1-0.5,1.7
				c-0.2,0.5-0.6,0.8-0.9,1.2c-0.2,0.2-0.4,0.5-0.2,0.8c0.1,0.1,0.2,0.2,0.4,0.3c0.7,0.5,0.4,1.2,0.2,1.9c-0.1,0.3-0.1,0.5-0.1,0.7
				s-0.1,0.4-0.2,0.5c-0.2,0.2-0.4,0.3-0.5,0.5c-0.2,0.3,0,0.5,0.1,0.8c0.2,0.3,0.3,0.5,0.1,0.8c-0.1,0.1-0.1,0.1-0.2,0.2
				c0,0-0.1,0-0.1,0.1c-0.3,0.1-0.6,0.1-0.9,0c-1-0.4-1.4-1.5-1.8-2.4c-0.2-0.6-0.6-1.2-0.8-1.9c-0.2-0.6-0.3-1.3-0.4-2
				c-0.2-1.6-0.5-3.1-0.9-4.7c-0.3-1.5-0.7-3-0.7-4.5c-0.1-1.5,0-2.9-0.2-4.4c-0.1-1.2-0.4-2.5-1.5-3.1c-0.4-0.3-0.9-0.4-1.4-0.6
				c-0.6-0.2-1.3-0.5-1.9-0.8c-2.7-1.3-4.9-3.4-7.1-5.3c-0.4-0.3-0.9-0.7-1.1-1.2c-0.1-0.4,0-0.8,0-1.2c0-0.4-0.1-0.7-0.3-1
				c-0.1-0.2-0.3-0.4-0.4-0.6c-0.2-0.5-0.2-1,0-1.5s0.5-0.9,0.8-1.3s0.4-0.9,0.6-1.4c0.3-1,0.6-2.2,0.2-3.2c0-0.1-0.1-0.1-0.1-0.2
				l0,0l-0.1-0.1l0,0l0,0c0,0,0,0-0.1-0.1l0,0L42.5,63l0,0l0,0c0,0-0.1,0-0.1-0.1l0,0h-0.1h-0.1c0,0,0,0-0.1,0l0,0H42h-0.1
				c-0.1,0-0.1,0-0.2,0c-0.1,0-0.1,0-0.2,0h-0.1h-0.1c-0.1,0-0.2,0-0.3,0.1l0,0l0,0c-0.1,0-0.1,0-0.2,0.1c-0.1,0-0.2,0.1-0.3,0.1
				c-0.8,0.4-1.5,1.1-2.4,1.1c-1,0-1.9-0.5-2.7-1c-0.4-0.3-0.8-0.6-1.2-0.9c-0.5-0.4-1-0.6-1.7-0.6c-0.6-0.1-1.2,0-1.8,0
				c-0.6-0.1-1.1-0.2-1.7-0.4s-1.1-0.6-1.8-0.6c-0.5-0.1-1,0.1-1.5,0.3c-1,0.4-2,0.8-3.1,0.5c-1.2-0.3-2.1-1.1-2.9-2
				c-0.5-0.5-0.9-1.1-1.4-1.6s-1-0.9-1.5-1.4c-0.4-0.5-0.8-1-1.2-1.5c-0.2-0.2-0.3-0.5-0.5-0.7c0-0.1,0.1-0.2,0.1-0.3
				c0.4-0.9,0.8-1.8,1.2-2.7c3.3-7.3,7.3-14.4,10-21.9c0.1-0.2,0.1-0.4,0.2-0.6c0.3-0.2,0.6-0.3,0.9-0.4c0.5-0.1,1.1-0.1,1.6-0.3
				c0.5-0.1,0.9-0.4,1.3-0.7c0.3-0.2,0.7-0.5,1.2-0.5c0.4,0,0.8,0.4,0.9,0.7c0.4,0.7-0.5,1.3-0.9,1.7c-0.2,0.2-0.3,0.3-0.4,0.5
				s-0.1,0.4-0.2,0.6v0.1c-0.1,0.2-0.3,0.5-0.5,0.6c-0.5,0.3-1,0.4-1.5,0.8c-0.2,0.1-0.3,0.3-0.3,0.5c0.1,0.3,0.5,0.5,0.8,0.6
				c0.4,0.2,0.9,0.3,1.4,0.3c0.2,0,0.3,0.1,0.5,0.1s0.4,0.1,0.6,0s0.1-0.4,0.1-0.6c0-0.2,0-0.4,0.1-0.5c0.1-0.3,0.6-0.6,0.4-1
				c-0.1-0.2-0.4-0.4-0.6-0.5s-0.4-0.3-0.3-0.5c0,0,0,0,0-0.1c0.1-0.2,0.5-0.3,0.8-0.4c0.3,0,0.6-0.1,0.9-0.1
				c0.3-0.1,0.6-0.2,0.9-0.3c0.5-0.1,1-0.2,1.6-0.2c0.5,0,1.1-0.1,1.6,0c0.4,0.1,0.8,0.2,1.2,0.4c0.3,0.2,0.6,0.4,0.9,0.4
				c0.5,0,0.9-0.3,1.4-0.5s0.9-0.2,1.4-0.1c0.4,0.2,0.8,0.5,1.3,0.6c0.3,0.1,0.5,0.1,0.8,0.1s0.7,0.1,1,0.2c0.2,0.1,0.5,0.1,0.6,0.3
				c0.1,0.2,0.1,0.4-0.1,0.6c-0.2,0.4-0.6,0.6-1,0.7c-0.4,0.2-0.9,0.2-1.3,0.2c-0.4,0-0.7-0.1-1-0.1c-0.2,0-0.5-0.1-0.8,0
				c-0.1,0-0.2,0.1-0.2,0.1c0,0.1,0.2,0.3,0.2,0.3c0.3,0.2,0.7,0.1,1,0.1s0.6,0,0.8,0.3c0,0,0,0.1,0,0.2c-0.4,0.9-1.6,1-2.4,1.3
				c-0.5,0.2-0.9,0.5-1.2,0.9c-0.2,0.3-0.4,0.7-0.6,1l0,0c-0.3,1.1-1.2,1.5-2,2.1c-0.6,0.4-0.9,1-1,1.6c-0.1,0.5-0.1,1-0.3,1.5
				c-0.3,0.9-1.1,1.5-1.6,2.2c-0.3,0.4-0.5,0.8-0.6,1.2c-0.1,0.4,0.1,0.9,0.6,1.1c0.7,0.2,1.5-0.3,2.2-0.1c0.4,0.1,0.7,0.3,0.7,0.8
				c0,0.4-0.5,0.8-0.8,1.1c-0.4,0.4-0.9,0.7-1,1.2c-0.1,0.3,0,0.6-0.2,0.9c-0.5,0.5-1,0-1.3-0.4c-0.4-0.6-0.5-1.4-1.1-1.9
				c-0.4-0.4-1-0.7-1.6-0.8c-0.7-0.1-1.3,0.2-1.9,0.6c-0.9,0.8-1.6,1.7-2.7,2c-0.6,0.2-1.1,0.2-1.6,0.5c-0.4,0.2-0.7,0.6-0.9,0.9
				c-0.4,0.8-0.5,1.8-0.6,2.7s-0.5,1.9-0.1,2.8c0.7,1.7,3.1,1.3,4.3,0.5c0.4-0.3,0.7-0.6,0.9-1c0.2-0.4,0.4-0.7,0.7-1.1
				c0.2-0.2,0.5-0.5,0.8-0.5s0.6,0.3,0.8,0.6c0.4,0.8-0.1,1.7-0.1,2.5c0,0.4,0.3,0.8,0.8,0.9c0.4,0.1,0.8-0.1,1.2-0.2
				c0.7-0.3,1.4-0.8,2.1-0.6c0.4,0.1,0.8,0.3,0.9,0.7s0,0.9,0,1.3c0.2,1.2,1.6,2.1,2.8,2.3c0.7,0.1,1.4,0,2.1-0.2
				c0.5-0.2,1-0.4,1.4-0.6c1-0.6,1.5-1.5,2.3-2.3c0.7-0.8,1.7-1.3,2.8-1.5c0.6-0.1,1.2-0.1,1.8-0.1c0.8,0,1.4-0.2,2.1-0.5
				c1-0.5,2.1-0.8,3.2-0.6c1.2,0.2,2.1,0.9,3.1,1.3c1.1,0.5,2.3,0.3,3.5,0.3c1.1,0,2,0.4,2.8,1c1,0.7,1.8,1.7,3,2.2
				c1.2,0.6,2.6,0.6,3.8,1c0.9,0.3,1.8,1,2.8,0.8c1.4-0.2,3.5-1.3,4.4,0.4C77.7,63.2,77.7,63.5,77.8,63.7z"/>
		</g>
		<g>
			<g>
				<path class="st2" d="M15.1,58.8L15.1,58.8L15.1,58.8z"/>
			</g>
		</g>
		<path class="st3" d="M78.4,58c2.3,9.3,3,19.4-0.4,28.5c-3.7,9.9-12.1,18.1-22.3,21.4s-21.8,1.8-30.6-4c-3.7-2.5-6.9-5.7-9.4-9.4
			c7.1,1.6,14.6,0.9,21.4-1.6c8.1-3,15-8.4,19.8-15.6c4.7-7.1,7.3-15.5,7.7-24c0.4-9.2-1.8-18.3-6-26.4c-2.6-5.1-6-9.8-9.9-14
			C63.3,24.2,74,40.2,78.4,58z"/>
		<path class="st4" d="M78.3,76c-0.7,5.6-2.6,11-5.5,15.9c-0.8,1.4-1.8,2.7-2.7,4c-0.2,0.3,0.2,0.7,0.5,0.4
			c3.5-4.5,6.1-9.8,7.5-15.3c0.4-1.6,0.7-3.2,0.9-4.8C78.9,75.8,78.3,75.6,78.3,76z"/>
		<path class="st4" d="M71.5,90.9l-3,3.9c-0.2,0.3,0.2,0.7,0.5,0.4c1-1.3,2-2.6,3-3.9C72.3,90.9,71.8,90.5,71.5,90.9z"/>
		<path class="st4" d="M19.2,95.8c-2.8-3.5-4.8-7.5-5.9-11.9c-0.1-0.4-0.7-0.2-0.6,0.2c1.1,4.4,3.1,8.5,5.9,12
			C18.9,96.4,19.4,96.1,19.2,95.8z"/>
		<path class="st4" d="M19.9,94.9c-1-1.2-1.8-2.5-2.4-3.9c-0.2-0.4-0.8-0.2-0.6,0.2c0.6,1.5,1.4,2.8,2.4,4.1
			C19.7,95.5,20.2,95.2,19.9,94.9z"/>
	</g>
	<g>
		<path class="st1" d="M21.8,64.7c-0.2,0-0.4,0.1-0.5,0.3c-0.1,0.2-0.1,0.4,0,0.5c0.2,0.3,0.4,0.8,0.5,1.2c0.1,0.2,0.3,0.4,0.5,0.4
			c1.9,0,3,0,3.8-0.3c1.1-0.4,1.3-1.3,1.3-2.1V50c0.3-0.2,0.4-0.4,0.4-0.6c0-0.1,0-0.3-0.1-0.4c-0.1-0.1-0.2-0.2-0.4-0.2l-1.6-0.1
			c-0.1,0-0.2,0-0.3,0C25.2,48.8,25,49,25,49.2v15.4c-0.5,0-1.7,0-3,0L21.8,64.7z"/>
		<path class="st1" d="M17,62.2c0.3,0.1,0.8,0.4,1.1,0.6c0.1,0.1,0.2,0.1,0.3,0.1c0.2,0,0.3-0.1,0.4-0.2c1.9-2.4,3-6.1,3.4-7.9
			c0.3-0.1,0.5-0.4,0.5-0.6c0-0.1,0-0.3-0.1-0.4c-0.1-0.1-0.2-0.2-0.3-0.2l-1.7-0.3c-0.1,0-0.3,0-0.4,0.1S20,53.6,20,53.7
			c-0.6,3.1-1.8,6-3.2,7.7c-0.1,0.1-0.2,0.3-0.1,0.5C16.7,62,16.8,62.1,17,62.2z"/>
		<path class="st1" d="M33.3,62.8c0,0.2,0.1,0.3,0.3,0.4c0.1,0,0.2,0.1,0.2,0.1c0.1,0,0.1,0,0.2,0l1.3-0.6c0.2-0.1,0.4-0.4,0.3-0.6
			c-0.5-2.6-2.3-6.2-3.9-8.7c-0.1-0.2-0.4-0.3-0.6-0.2l-1.2,0.5c-0.1,0.1-0.3,0.2-0.3,0.3c-0.1,0.1,0,0.3,0,0.4
			C31.3,57.1,32.8,60.6,33.3,62.8z"/>
		<path class="st1" d="M36.3,58.3h1.8v4.4c-0.8,0.8-1.6,1.5-2.3,2.1c-0.2,0.2-0.3,0.4-0.1,0.7l0.7,1.3c0.1,0.1,0.2,0.2,0.3,0.3h0.1
			c0.1,0,0.2,0,0.3-0.1c0.2-0.1,0.4-0.3,0.4-0.5c0.5-0.5,1.1-1.1,1.7-1.8c1.3,1.3,3.1,2,5.6,2c2.2,0.1,6.7,0,8.6,0
			c0.2,0,0.5-0.2,0.5-0.4c0.1-0.3,0.2-0.8,0.4-1.1c0.1-0.2,0.1-0.4,0-0.5c-0.1-0.2-0.3-0.3-0.5-0.2c-1.1,0.1-2.8,0.1-4.6,0.1
			c0.6,0,1.1-0.1,1.4-0.2c0.9-0.3,0.9-1.1,0.9-1.6v-2.9h2.1c0.3,0,0.5-0.2,0.5-0.5v-1.1c0-0.3-0.2-0.5-0.5-0.5h-2.1v-0.1
			c0.8-0.7,1.5-1.6,2-2.4c0.2-0.1,0.3-0.2,0.4-0.4c0.1-0.2,0-0.5-0.2-0.7l-0.9-0.6c-0.1-0.1-0.3-0.1-0.5-0.1h-3.7
			c0.1-0.2,0.2-0.5,0.3-0.7h4.6c0.3,0,0.5-0.2,0.5-0.5v-1.1c0-0.3-0.2-0.5-0.5-0.5h-3.7c0.1-0.2,0.1-0.4,0.2-0.6
			c0.3-0.1,0.4-0.4,0.5-0.5c0-0.1,0-0.3,0-0.4c-0.1-0.1-0.2-0.2-0.3-0.3l-1.4-0.4c-0.1,0-0.3,0-0.4,0.1c-0.1,0.1-0.2,0.2-0.2,0.3
			c-0.2,0.7-0.4,1.5-0.7,2.4c0,0,0,0-0.1,0h-2.2v-1.5c0.3-0.2,0.4-0.4,0.4-0.6c0-0.1,0-0.3-0.1-0.4c-0.1-0.1-0.2-0.2-0.4-0.2
			l-1.6-0.1c-0.2,0-0.3,0-0.4,0.1c-0.1,0.1-0.2,0.2-0.2,0.4v2.2h-2.2c-0.3,0-0.5,0.2-0.5,0.5c-0.6-0.9-1.6-2-2.3-2.7
			c-0.2-0.2-0.4-0.2-0.6-0.1l-1,0.6c-0.1,0.1-0.2,0.2-0.2,0.4s0,0.3,0.2,0.4c1,1,2.1,2.3,2.5,3.2c0.1,0.1,0.2,0.2,0.3,0.3
			c0.1,0,0.3,0,0.4-0.1l1-0.6c0.1,0.1,0.2,0.1,0.3,0.1h1.3c-0.1,3.4-0.3,6.9-1.6,8.9v-5.7c0-0.3-0.2-0.5-0.5-0.5h-3.5
			c-0.3,0-0.5,0.2-0.5,0.5v1.2C35.7,58.1,36,58.3,36.3,58.3z M44.9,64.5c-0.3,0-0.5,0-0.7-0.1c0.3,0,0.6,0,0.9,0
			c0.6-0.1,1-0.3,1.3-0.7c0.3-0.5,0.5-1.3,0.6-3.9c0.1,0,0.1,0,0.2,0h2.1v2.6h-0.1c-0.3,0-0.8,0-1.3,0c-0.2,0-0.4,0.1-0.5,0.3
			s-0.1,0.4,0,0.5c0.1,0.2,0.3,0.6,0.3,0.9s0.3,0.4,0.5,0.4h0.4C47.2,64.5,45.8,64.5,44.9,64.5z M47.8,55.6h2.7
			c-0.1,0.1-0.2,0.2-0.3,0.4h-0.3c-0.1,0-0.3,0-0.4,0.1c-0.1,0.1-0.2,0.2-0.2,0.4v1.2h-2.1h-0.1c0-0.6,0-1.2,0.1-2
			c0-0.1,0-0.2,0-0.3s0-0.1,0-0.2c0.1,0.1,0.2,0.1,0.3,0.1C47.4,55.4,47.6,55.6,47.8,55.6z M46,54.2c0,0.1,0.1,0.3,0.3,0.3
			c0.1,0,0.2,0.1,0.3,0.2h-2.5c0-0.4,0-0.9,0.1-1.3h2.2c-0.1,0.1-0.1,0.2-0.2,0.3C46,53.9,45.9,54,46,54.2z M42.5,62.8
			c0,0.1,0,0.2,0.1,0.3c0.1,0.2,0.2,0.5,0.2,0.8c0,0.1,0.1,0.2,0.1,0.3c-0.4-0.1-0.7-0.2-1.1-0.4C42.1,63.5,42.3,63.2,42.5,62.8z
			 M42.7,62.4c0.8-1.7,1.1-3.7,1.2-5.5h0.9c-0.1,3.3-0.2,5.1-0.4,5.5c-0.2,0-0.8,0-1.3-0.1C43,62.3,42.8,62.3,42.7,62.4z"/>
		<path class="st1" d="M54.6,66c0.2,0.1,0.6,0.4,0.7,0.6c0.1,0.1,0.3,0.2,0.5,0.2s0.3-0.1,0.4-0.3c0.2-0.4,0.3-0.7,0.5-1.1
			c0,0.1,0,0.1,0,0.2l0.5,1.2c0.1,0.3,0.4,0.4,0.6,0.3c0.2-0.1,0.3-0.1,0.4-0.3c1.7-0.2,4-0.5,6.2-0.8l0,0c0.2,0.2,0.6,0.6,0.7,0.8
			c0.2,0.2,0.5,0.3,0.7,0.1c0.9-0.6,1.7-1.3,2.5-2.2c0.7,1.6,1.6,2.4,2.7,2.4c1.9,0,2.1-1.8,2.3-4.4c0-0.2-0.1-0.5-0.3-0.5
			c-0.2-0.1-0.5-0.3-0.7-0.5c-0.1-0.2-0.4-0.2-0.6-0.1c0,0-0.2,0.1-0.2,0.4c-0.1,1.9-0.2,2.6-0.3,2.8c-0.2-0.1-0.7-0.7-1.1-2.2
			c1-1.6,1.9-3.3,2.6-5.2c0.3-0.1,0.5-0.3,0.5-0.5c0.1-0.1,0.1-0.3,0-0.4c-0.1-0.1-0.2-0.2-0.3-0.3l-1.5-0.4
			c-0.3-0.1-0.6,0.1-0.7,0.4c-0.3,1.1-0.8,2.1-1.3,3.1c-0.2-1-0.3-2.2-0.4-3.4l3.6-0.5c0.1,0,0.3-0.1,0.4-0.2
			c0.1-0.1,0.1-0.3,0.1-0.4L73,53.7c0-0.1-0.1-0.3-0.2-0.4c-0.1-0.1-0.3-0.1-0.4-0.1h-0.3c0.2-0.2,0.4-0.2,0.5-0.3
			c0.2-0.1,0.3-0.4,0.2-0.7c-0.3-0.8-1.3-2.1-2.3-3.2c-0.2-0.2-0.4-0.2-0.6-0.1l-0.7,0.4c0,0,0,0,0-0.1s0-0.3-0.1-0.4
			c-0.1-0.1-0.2-0.2-0.4-0.2l-1.6-0.1c-0.1,0-0.3,0-0.4,0.1c-0.1,0.1-0.2,0.2-0.2,0.4c0,1.7,0.1,3.3,0.1,5l-0.7,0.1
			c0.2-0.7,0.4-1.6,0.4-1.9c0-0.3-0.2-0.5-0.5-0.5h-4.5h3.9c0.3,0,0.5-0.2,0.5-0.5v-0.9c0-0.3-0.2-0.5-0.5-0.5h-3.7
			c0.2-0.2,0.3-0.4,0.3-0.5s0-0.3-0.1-0.4c-0.1-0.1-0.2-0.2-0.4-0.2l-1.6-0.1c-0.2,0-0.3,0-0.4,0.1c-0.1,0.1-0.2,0.2-0.2,0.4v2.7
			h-3.2c-0.3,0-0.5,0.2-0.5,0.5v5.4c0,2.6-0.1,5.6-1.1,7.7C54.2,65.6,54.3,65.9,54.6,66z M57.6,54.2v-0.5h1.5v0.4L57.6,54.2z
			 M61.2,53.8C61.3,53.8,61.3,53.7,61.2,53.8l1.4-0.1L61.2,53.8z M65.5,63.8L65.5,63.8c-0.5,0.1-0.9,0.1-1.3,0.2c-0.1,0-0.3,0-0.4,0
			c0.1-0.2,0.1-0.3,0.2-0.4c0.2-0.1,0.4-0.3,0.5-0.5l0,0h0.3c0.3,0,0.5-0.2,0.5-0.5v-2.9c0-0.1,0-0.2-0.1-0.3h0.3
			c0.3,0,0.5-0.2,0.5-0.5V58c0-0.3-0.2-0.5-0.5-0.5h-0.8c0.3-0.2,0.4-0.5,0.5-0.9c0,0,0,0,0.1,0l1.5-0.2c0.2,2.3,0.4,4.3,0.8,5.9
			c-0.5,0.7-1.1,1.3-1.7,1.9l-0.1-0.1C65.8,63.8,65.7,63.8,65.5,63.8z M63.2,60.9v0.3h-3.5v-0.3H63.2z M57.6,56.1
			C57.7,56.1,57.7,56.1,57.6,56.1l1.5-0.1c0,0.7,0.1,1.1,0.6,1.4h-2.1V56.1z M63.4,55.8h-2.1c-0.1,0-0.1,0-0.2,0v-0.1l2.3-0.2
			C63.4,55.6,63.4,55.7,63.4,55.8z M62,63c-0.1,0.4-0.3,0.8-0.4,1.2c-0.2,0-0.4,0-0.6,0.1c-0.1-0.4-0.2-0.8-0.4-1.3
			C60.6,63,62,63,62,63z M57.1,64.8c-0.1,0-0.3,0.1-0.4,0.2c0.4-1.5,0.7-3.4,0.8-5.7h0.2c-0.1,0.1-0.1,0.2-0.1,0.3v2.9
			c0,0.3,0.2,0.5,0.5,0.5h0.4v0.1c0.2,0.4,0.4,1,0.5,1.4C58.3,64.6,57.7,64.7,57.1,64.8z M70.9,53.3C70.9,53.3,70.9,53.4,70.9,53.3
			l-2,0.4c-0.1-1.1-0.1-2.2-0.1-3.4C69.7,51.3,70.6,52.5,70.9,53.3z"/>
		<path class="st1" d="M35,74.2c-2.7-0.6-5.5-1.7-7.3-2.9v-0.1c0-0.1,0-0.3-0.1-0.4s-0.2-0.2-0.4-0.2l-1.8-0.1c-0.1,0-0.3,0-0.4,0.1
			c-1.5,1.4-4.6,2.9-7.9,3.8c-0.2,0-0.3,0.2-0.4,0.4c-0.1,0.2,0,0.4,0.1,0.5c0.2,0.2,0.4,0.6,0.5,0.8c0.1,0.2,0.4,0.4,0.6,0.3
			c1.1-0.3,2.2-0.7,3.2-1.1l0,0c0,0.2,0.1,0.3,0.2,0.4h-1c-0.3,0-0.5,0.2-0.5,0.5v3.1c0,0.3,0.2,0.5,0.5,0.5h6.4
			c-2.4,0.2-5.2,0.3-7.5,0.4c-0.2,0-0.4,0.1-0.4,0.3c-0.1,0.2-0.1,0.4,0,0.5c0.1,0.2,0.2,0.5,0.2,0.6c0,0.2,0.1,0.3,0.3,0.4h-0.5
			c-0.3,0-0.5,0.2-0.5,0.5v0.9c0,0.3,0.2,0.5,0.5,0.5h6V84h-7.3c-0.3,0-0.5,0.2-0.5,0.5v1c0,0.3,0.2,0.5,0.5,0.5H25v1
			c-0.5,0-1.4,0-2.4,0c-0.2,0-0.4,0.1-0.5,0.3c-0.1,0.2-0.1,0.4,0,0.5c0.2,0.3,0.3,0.6,0.4,0.9c0.1,0.2,0.3,0.4,0.5,0.4
			c0.3,0,0.6,0,0.9,0c1.2,0,1.9,0,2.4-0.2c1-0.3,1.1-1,1.1-1.7v-1h7.5c0.3,0,0.5-0.2,0.5-0.5v-1c0-0.3-0.2-0.5-0.5-0.5h-7.5v-0.1
			h6.1c0.3,0,0.5-0.2,0.5-0.5v-0.9c0-0.3-0.2-0.5-0.5-0.5h-6.2v-0.3c1.8-0.1,3.4-0.3,4.7-0.6c0.1,0,0.1,0,0.2,0c0.2,0,0.4,0,0.5-0.1
			c0.1-0.1,0.2-0.3,0.2-0.4c0-0.2-0.1-0.3-0.2-0.4l-0.6-0.5c0.1-0.1,0.2-0.3,0.2-0.4v-3.1c0-0.3-0.2-0.5-0.5-0.5h-1
			c0.1-0.1,0.2-0.2,0.2-0.4l0,0c1,0.4,2.1,0.7,3,1c0.2,0.1,0.5-0.1,0.6-0.3c0.1-0.3,0.4-0.7,0.6-0.9c0.1-0.1,0.2-0.3,0.1-0.5
			C35.3,74.3,35.2,74.2,35,74.2z M24.9,82L24.9,82l-2.5,0.1C23.3,82.1,24.1,82,24.9,82z M22.2,77.9v-0.3H30v0.3H22.2z M24.1,73.9
			c0.7-0.4,1.4-0.8,1.9-1.2c0.6,0.4,1.3,0.8,2,1.2H24.1z"/>
		<path class="st1" d="M54.1,86.1c-1.2-0.6-2.2-1.5-3.1-2.7c0.8-0.6,1.7-1.3,2.3-1.9c0.2,0,0.5-0.1,0.6-0.3c0.1-0.1,0.1-0.3,0.1-0.4
			s-0.1-0.3-0.2-0.4l-1.1-0.8h0.9c0.3,0,0.5-0.2,0.5-0.5V78c0-0.3-0.2-0.5-0.5-0.5h-2.2c0.3-1.5,0.6-3.1,0.8-4.2
			c0-0.1,0.1-0.2,0.1-0.3c0.1-0.3-0.1-0.5-0.4-0.6L51.4,72c-0.1,0-0.1,0-0.2,0h-3.9v-0.1c0.3-0.1,0.5-0.4,0.5-0.6
			c0-0.1,0-0.3-0.1-0.4s-0.2-0.2-0.4-0.2l-1.5-0.2c-0.3,0-0.5,0.1-0.6,0.4c-0.4,1.7-1,4.3-1.5,5.8c0,0.1,0,0.3,0,0.4
			c0.1,0.1,0.1,0.2,0.2,0.2H43c-0.2,0-0.4,0.2-0.5,0.4c-0.2-0.3-0.4-0.6-0.6-0.9c0,0,0-0.1-0.1-0.1c-0.2-0.2-0.4-0.2-0.6-0.1h-0.1
			c0.5-0.8,1-1.6,1.4-2.2c0.2-0.1,0.4-0.2,0.5-0.4c0.1-0.1,0.1-0.3,0.1-0.4s-0.1-0.3-0.3-0.3l-1.3-0.6c-0.3-0.1-0.6,0-0.7,0.2
			c-0.4,0.9-1,1.9-1.7,2.9c-0.1-0.2-0.3-0.3-0.4-0.5c0.6-1,1.3-2.2,1.7-3.1c0.3-0.1,0.4-0.3,0.5-0.4s0.1-0.3,0-0.4s-0.2-0.2-0.3-0.3
			l-1.3-0.6c-0.1-0.1-0.3-0.1-0.4,0c-0.1,0.1-0.2,0.2-0.3,0.3c-0.3,0.9-0.9,2-1.4,3l-0.1-0.1c-0.1-0.1-0.3-0.1-0.4-0.1
			c-0.1,0-0.3,0.1-0.4,0.2l-0.7,0.8c-0.2,0.2-0.2,0.5,0,0.7c0.8,0.7,1.6,1.6,2.1,2.4c-0.3,0.4-0.6,0.8-0.9,1.2h-1.1
			c-0.2,0-0.3,0.1-0.4,0.2c-0.1,0.1-0.1,0.3-0.1,0.5l0.3,1.4c0,0.1,0.1,0.3,0.2,0.3c0.1,0.1,0.3,0.1,0.4,0.1c0.2,0,0.3-0.1,0.4-0.2
			c0.6,0,1.2-0.1,1.9-0.1v0.7h-0.1l-1.4-0.4c-0.1,0-0.3,0-0.4,0.1c-0.1,0.1-0.2,0.2-0.2,0.4c-0.3,2-0.7,3.6-1.1,4.4
			c-0.1,0.3,0,0.6,0.2,0.7c0.1,0,0.2,0.1,0.3,0.2c0.2,0.1,0.4,0.2,0.6,0.3c0.1,0.1,0.3,0.1,0.4,0.1c0.1,0,0.3-0.1,0.3-0.3
			c0.7-1.3,1.1-3.3,1.3-4.3c0,0,0.1,0,0.1-0.1v5.7c0,0.3,0.2,0.5,0.5,0.5h1.6c0.3,0,0.5-0.2,0.5-0.5v-5.4c0.4,1,0.7,2,0.8,2.6
			c0,0.2,0.1,0.3,0.2,0.4l0,0c-0.1,0.2-0.1,0.4,0.1,0.5l0,0l0.7,1.2c0.1,0.1,0.2,0.2,0.3,0.2s0.3,0,0.4-0.1c0.2-0.1,0.3-0.3,0.4-0.5
			c0.8-0.6,1.9-1.3,3.1-2.2v1.5c-0.4,0-0.9,0-1.5,0c-0.2,0-0.4,0.1-0.5,0.2c-0.1,0.2-0.1,0.4,0,0.5c0.2,0.3,0.3,0.7,0.3,1
			s0.3,0.5,0.5,0.5c2.1,0,3.4,0,3.4-1.9v-2.5c0.9,1.5,2.1,2.6,3.5,3.4c0.1,0.1,0.3,0.1,0.4,0c0.1,0,0.3-0.1,0.3-0.3
			c0.1-0.3,0.5-0.7,0.7-0.9c0.1-0.1,0.2-0.3,0.2-0.5C54.4,86.3,54.3,86.2,54.1,86.1z M40.8,78.8h-1.2c0.2-0.3,0.4-0.6,0.7-0.9
			C40.4,78.2,40.6,78.5,40.8,78.8z M52,79.6c-0.4,0.5-1.1,1.2-1.9,1.9c-0.2-0.6-0.4-1.2-0.6-1.9H52L52,79.6z M49.4,76.9
			c0,0.1-0.1,0.3-0.1,0.4h-3.4c0,0,0-0.1,0.1-0.1l0.1-0.3H49.4z M46.6,74.8c0.1-0.2,0.1-0.5,0.2-0.7H50c0,0.1,0,0.2,0,0.2
			c0,0.2-0.1,0.3-0.1,0.5H46.6z M42.8,81.9l0.9-0.4c0.7,0.7,1.4,1.5,1.7,2.1c0.1,0.1,0.2,0.2,0.3,0.2c-0.7,0.4-1.3,0.8-1.8,1.1
			C43.7,84.1,43.2,83,42.8,81.9C42.8,82,42.8,82,42.8,81.9z M46.8,83.2l0.3-0.2l0,0v0.3c0,0-0.1,0-0.1-0.1
			C46.9,83.2,46.9,83.2,46.8,83.2z M47.1,82.1c-0.5-0.8-1.4-1.8-2.2-2.4c0-0.1-0.1-0.1-0.2-0.1h-0.1h2.5V82.1z M44.4,79.5
			c-0.1,0-0.1,0.1-0.2,0.1L43.8,80c-0.1-0.1-0.1-0.3-0.2-0.4L44.4,79.5L44.4,79.5z M41,80.9c0.1,0,0.2,0,0.4,0s0.3,0,0.5,0
			c0.1,0.2,0.1,0.3,0.2,0.4c0,0,0,0-0.1,0l-0.9,0.3v-0.7H41z"/>
		<path class="st1" d="M72.6,74.7H69v-2.9c0.3-0.2,0.3-0.4,0.3-0.5s0-0.3-0.1-0.4s-0.2-0.2-0.4-0.2l-1.6-0.1c-0.1,0-0.3,0-0.4,0.1
			c-0.1,0.1-0.2,0.2-0.2,0.4v8.5h-2.3c-0.2,0-0.3,0.1-0.4,0.2l0,0c0-0.3-0.2-0.5-0.5-0.5h-2.9V79h2.7c0.3,0,0.5-0.2,0.5-0.5v-6.6
			c0-0.3-0.2-0.5-0.5-0.5h-7.4c-0.3,0-0.5,0.2-0.5,0.5v6.6c0,0.3,0.2,0.5,0.5,0.5h2.5v0.3h-2.7c-0.3,0-0.5,0.2-0.5,0.5v1
			c0,0.3,0.2,0.5,0.5,0.5h2.7v0.5h-0.4c-1.1,0.1-2,0.1-2.8,0.1c-0.2,0-0.3,0.1-0.4,0.2c-0.1,0.1-0.1,0.3-0.1,0.5L55,84
			c0.1,0.3,0.3,0.4,0.6,0.4h0.1c-0.2,1.5-0.5,2.7-1,3.2c-0.2,0.2-0.2,0.3-0.2,0.5s0.1,0.3,0.3,0.4l0.9,0.5c0.1,0,0.2,0.1,0.3,0.1
			s0.3-0.1,0.4-0.2c0.7-0.8,1-1.9,1.2-3c0.1,0.8,0.2,1.5,0.2,2.1c0,0.2,0.1,0.3,0.2,0.4c0.1,0.1,0.3,0.1,0.4,0.1l0.9-0.1
			c0.3,0,0.5-0.3,0.5-0.5c0-0.7-0.1-1.6-0.3-2.4c0.3,0.8,0.6,1.7,0.6,2.3c0,0.1,0.1,0.3,0.2,0.4c0.1,0.1,0.3,0.1,0.4,0.1l0.9-0.2
			c0.3-0.1,0.5-0.3,0.4-0.6c-0.1-0.7-0.4-1.5-0.7-2.3c0.5,0.8,1,1.7,1.2,2.3c0,0.1,0.1,0.3,0.2,0.3c0.2,0.1,0.3,0.1,0.5,0l0.5-0.2
			v1.2c0,0.3,0.2,0.5,0.5,0.5h1.3c0.3,0,0.5-0.2,0.5-0.5v-0.3h4v0.2c0,0.3,0.2,0.5,0.5,0.5h1.2c0.3,0,0.5-0.2,0.5-0.5v-8.3
			c0-0.3-0.2-0.5-0.5-0.5h-2.9v-2.6h3.6c0.3,0,0.5-0.2,0.5-0.5v-1.2C73.1,74.9,72.8,74.7,72.6,74.7z M60.9,84c0-0.1-0.1-0.1-0.2-0.2
			c0.1,0,0.2,0,0.3,0C61,83.9,60.9,83.9,60.9,84z M60.4,73.9v-0.7h0.1v0.1C60.5,73.5,60.4,73.7,60.4,73.9z M61.6,76v0.8h-0.3
			C61.4,76.6,61.5,76.3,61.6,76z M58.2,73.2h0.2v0.5C58.4,73.6,58.3,73.4,58.2,73.2C58.3,73.3,58.2,73.2,58.2,73.2z M63.8,83.6
			L63.8,83.6v1.6c-0.3-0.5-0.7-1.1-1.1-1.6C63.1,83.6,63.4,83.6,63.8,83.6z M63.8,81.1v0.4h-0.1l-3.2,0.2v-0.4h2.9
			C63.5,81.3,63.7,81.2,63.8,81.1z M57.3,84.2L57.3,84.2l-0.4-0.1c0.2,0,0.4,0,0.6,0C57.4,84.1,57.4,84.2,57.3,84.2z M59.5,83.9
			c-0.2,0-0.3,0.1-0.3,0.3l0,0c0-0.1-0.1-0.2-0.2-0.2C59.1,84,59.3,84,59.5,83.9L59.5,83.9z M70,81.8V86h-4v-4.2H70z"/>
	</g>
	<g>
		<g>
			<path class="st4" d="M22.2,53.3c0,0.1-0.2,0.2-0.4,0.2c-0.5,2.4-1.7,5.9-3.4,8c-0.3-0.2-0.8-0.5-1.2-0.7c1.7-2,2.8-5.3,3.3-7.9
				L22.2,53.3z M25.5,48.4l1.7,0.1c0,0.1-0.1,0.2-0.4,0.3v15c0,1-0.3,1.4-0.9,1.6c-0.7,0.2-1.9,0.2-3.6,0.2c-0.1-0.4-0.3-1-0.5-1.3
				c0.8,0,1.7,0,2.3,0c1.3,0,1.5,0,1.5-0.5L25.5,48.4L25.5,48.4z M33.8,61.8c-0.5-2.3-2-5.8-3.7-8.6l1.2-0.5
				c1.7,2.7,3.3,6.2,3.8,8.5L33.8,61.8z"/>
			<path class="st4" d="M39.7,61.9c1,1.5,2.7,2.1,5.1,2.2c0.7,0,1.5,0,2.5,0c2.2,0,4.9-0.1,6.5-0.1c-0.1,0.3-0.3,0.8-0.4,1.2
				c-1.3,0-3.4,0.1-5.4,0.1c-1.2,0-2.3,0-3.2,0c-2.6-0.1-4.4-0.8-5.6-2.3c-0.8,0.8-1.6,1.7-2.3,2.3c0,0.2,0,0.2-0.1,0.3l-0.7-1.3
				c0.7-0.6,1.6-1.4,2.5-2.3v-5.1h-2.3v-1.2h3.5L39.7,61.9L39.7,61.9z M39,52.6c-0.5-1-1.6-2.4-2.6-3.4l1-0.6c1.1,1,2.2,2.3,2.7,3.3
				L39,52.6z M43.4,55.5c-0.2,3.1-0.8,5.7-2.2,7.5c-0.2-0.3-0.6-0.6-0.8-0.8c1.8-2.1,2-5.8,2.1-10.2h-2v-1.1h2.7v-2.8l1.6,0.1
				c0,0.1-0.1,0.2-0.4,0.2v2.4h2.7v1c0.5-1.1,1-2.5,1.3-3.9l1.5,0.4c0,0.1-0.1,0.2-0.4,0.2c-0.1,0.5-0.3,1.1-0.5,1.6h4.5v1.1h-4.9
				c-0.3,0.6-0.5,1.3-0.8,1.8h4.6l0.2-0.1l0.9,0.6c0,0.1-0.1,0.1-0.3,0.1c-0.5,0.8-1.4,1.9-2.2,2.6v0.9h2.7v1.1H51v3.4
				c0,0.6-0.1,0.9-0.5,1.1c-0.4,0.2-1.1,0.2-2.2,0.2c-0.1-0.3-0.2-0.7-0.4-1c0.4,0,0.8,0,1.1,0s0.5,0,0.6,0c0.2,0,0.3-0.1,0.3-0.2
				v-3.4h-2.7v-1.1h2.7v-1.7h0.6c0.4-0.4,0.8-1,1.2-1.5H48v-1c-0.1,0.3-0.3,0.5-0.5,0.7c-0.2-0.2-0.6-0.5-0.9-0.7
				c0.2-0.3,0.5-0.7,0.7-1.2h-3.8c0,0.8-0.1,1.6-0.1,2.4h2.4h0.6c0,0.1,0,0.3,0,0.4c-0.1,5.4-0.2,7.1-0.7,7.7
				c-0.3,0.3-0.5,0.5-1,0.5c-0.2,0-0.4,0-0.7,0s-0.6,0-0.9,0c0-0.3-0.1-0.8-0.3-1.1c0.6,0.1,1.2,0.1,1.4,0.1s0.4,0,0.5-0.2
				c0.2-0.4,0.4-1.9,0.5-6.3L43.4,55.5L43.4,55.5z"/>
			<path class="st4" d="M68.4,54.6c0.1,2,0.4,3.9,0.7,5.4c0.8-1.4,1.5-2.9,2-4.6l1.5,0.4c-0.1,0.1-0.2,0.2-0.4,0.2
				c-0.7,2-1.6,3.9-2.7,5.5c0.5,1.8,1.1,2.9,1.8,2.9c0.4,0,0.7-1,0.7-3.4c0.2,0.3,0.6,0.6,0.9,0.7c-0.2,3-0.6,3.9-1.8,3.9
				c-1.1,0-1.9-1.1-2.5-2.9c-0.9,1.1-1.9,2-3,2.8c-0.2-0.2-0.6-0.7-0.8-0.9l0.4-0.3c-2.7,0.4-5.5,0.8-7.3,1c0,0.1-0.1,0.2-0.2,0.3
				l-0.5-1.2c1.2-0.1,2.9-0.3,4.8-0.5c0.2-0.6,0.5-1.5,0.7-2.1l1.3,0.3c0,0.1-0.2,0.2-0.4,0.2c-0.1,0.4-0.4,1-0.6,1.5
				c0.8-0.1,1.7-0.2,2.5-0.3v0.7c1-0.8,1.9-1.7,2.7-2.8c-0.4-1.9-0.7-4.1-0.9-6.6L65.2,55l-0.1-0.8l-1-0.2c0.1-0.5,0.3-1.1,0.4-1.7
				H57v4.4c0,2.5-0.2,6.2-1.4,8.6c-0.2-0.2-0.7-0.6-0.9-0.7c1.1-2.3,1.2-5.6,1.2-8v-5.4h3.7V48l1.6,0.1c0,0.1-0.1,0.2-0.4,0.2v0.9
				h4.4v0.9h-4.4v1.1h4.4h0.6c0,0.2-0.4,1.9-0.6,2.5l2-0.3c-0.1-1.8-0.1-3.6-0.2-5.4l1.6,0.1c0,0.1-0.1,0.2-0.4,0.3
				c0,1.7,0,3.3,0.1,4.9l4-0.5l0.1,1.1L68.4,54.6L68.4,54.6z M57.4,57.9V57h8v0.9H57.4z M59.6,52.3l1.3,0.1c0,0.1-0.1,0.2-0.3,0.2
				v0.9l3.2-0.3c0,0.1,0,0.2,0.1,0.8l-3.4,0.4V55c0,0.4,0.1,0.4,0.7,0.4h2.1c0.4,0,0.5-0.1,0.5-0.8c0.2,0.1,0.6,0.2,0.8,0.3
				c-0.1,1-0.4,1.3-1.2,1.3H61c-1.6,0-1.6-0.3-1.6-1.8l-2,0.2l0.1-0.7l2.1-0.2V52.3L59.6,52.3z M64.8,58.7v2.9h-6.6v-2.9H64.8z
				 M59.8,61.9c0.3,0.5,0.5,1.3,0.6,1.8l-1,0.2c-0.1-0.5-0.3-1.2-0.5-1.8C58.9,62.1,59.8,61.9,59.8,61.9z M63.7,60.9v-1.4h-4.5v1.4
				H63.7z M70.1,48.5c0.9,0.9,1.9,2.3,2.2,3.1c-0.2,0.1-0.4,0.2-1,0.6C70.9,51.3,70,50,69.1,49C69.1,49,70.1,48.5,70.1,48.5z"/>
			<path class="st4" d="M21.8,74.4v-0.8c-1.2,0.5-2.6,1.1-3.9,1.5c-0.1-0.3-0.4-0.7-0.6-1c3.2-0.9,6.4-2.4,8.1-3.9l1.8,0.1
				c0,0.1-0.2,0.2-0.4,0.2c1.9,1.5,5.3,2.8,8.1,3.4c-0.2,0.3-0.5,0.8-0.7,1.1c-1.2-0.3-2.5-0.7-3.7-1.3v0.8L21.8,74.4L21.8,74.4z
				 M26.7,82.7v1.2h8v1h-8v1.5c0,0.7-0.2,1-0.7,1.2c-0.6,0.2-1.5,0.2-3.1,0.2c-0.1-0.3-0.3-0.7-0.4-1c0.7,0,1.4,0,1.9,0
				c1,0,1.1,0,1.1-0.4v-1.5h-8v-1h8v-1.2h-6.6v-0.9h6.6v-1.2c-1.9,0.1-3.9,0.2-5.8,0.2c0-0.2-0.1-0.6-0.2-0.8
				c4.2-0.1,9.3-0.4,11.9-0.9l1,0.8c-0.1,0-0.1,0.1-0.2,0.1h-0.1c-1.4,0.2-3.2,0.5-5.2,0.6v1.3h6.7v0.9L26.7,82.7L26.7,82.7z
				 M20.4,78.5v-3.1h11.3v3.1H20.4z M21.6,76.3v1.3h8.9v-1.3H21.6z M30.3,73.6c-1.7-0.7-3.2-1.6-4.4-2.4c-1,0.8-2.5,1.7-4.1,2.4
				H30.3z"/>
			<path class="st4" d="M41.4,76.2c0.9,1.2,1.8,2.8,2.1,3.9l-1,0.5c-0.1-0.3-0.2-0.7-0.4-1.1c-0.6,0-1.1,0.1-1.7,0.1v8.1h-1.1v-8
				c-1.1,0-2,0.1-2.8,0.1c0,0.1-0.1,0.2-0.3,0.2l-0.3-1.4h1.3c0.4-0.5,0.8-1.1,1.3-1.7c-0.6-0.9-1.6-2-2.4-2.8l0.7-0.8
				c0.2,0.2,0.4,0.4,0.6,0.6c0.6-1.1,1.4-2.6,1.8-3.7l1.3,0.6c-0.1,0.1-0.2,0.2-0.4,0.2c-0.5,1.1-1.3,2.6-2,3.7
				c0.4,0.5,0.8,0.9,1.1,1.3c0.8-1.2,1.6-2.5,2.1-3.6l1.3,0.6c-0.1,0.1-0.2,0.2-0.4,0.2c-1,1.6-2.5,3.8-3.8,5.5l3.2-0.1
				c-0.3-0.6-0.7-1.3-1.1-1.9L41.4,76.2L41.4,76.2z M38.5,81.4c-0.1,0.1-0.2,0.2-0.4,0.2c-0.3,1.6-0.7,3.4-1.3,4.5
				c-0.3-0.2-0.7-0.4-0.9-0.5c0.5-1.1,0.9-2.9,1.2-4.6L38.5,81.4z M42.1,81c0.5,1.1,1.1,2.5,1.3,3.5c-0.2,0.1-0.5,0.2-1.1,0.4
				c-0.1-1-0.7-2.4-1.2-3.6L42.1,81L42.1,81z M42.5,85.5c1.1-0.6,2.7-1.6,4.2-2.7l0.4,1c-1.4,1-2.8,2-3.7,2.6c0,0.1,0,0.3-0.1,0.3
				L42.5,85.5L42.5,85.5z M48.8,78.1c0.2,1.1,0.5,2.2,1.1,3.3c0.9-0.7,1.9-1.7,2.5-2.4l1.1,1c-0.1,0.1-0.2,0.1-0.4,0.1
				c-0.7,0.7-1.9,1.7-2.8,2.4c0.8,1.4,1.9,2.5,3.5,3.3c-0.3,0.2-0.6,0.7-0.8,1.1c-2.2-1.2-3.5-3.3-4.3-5.3v4.8
				c0,1.3-0.7,1.4-2.9,1.4c0-0.3-0.2-0.8-0.4-1.1c0.4,0,0.8,0,1.1,0c0.9,0,1,0,1-0.3v-8.1h-4.6V77h6.6c0.1-0.5,0.2-1,0.3-1.5h-4.3
				l-0.2,0.7L44.1,76c0.5-1.5,1.2-4,1.5-5.9l1.5,0.2c0,0.1-0.1,0.2-0.4,0.2l-0.2,1.2h4.4h0.3l0.7,0.2c0,0.1-0.1,0.2-0.1,0.3
				c-0.2,1.2-0.6,3.2-1,4.9h2.8v1.1L48.8,78.1L48.8,78.1z M44.4,79.2c0.8,0.7,1.8,1.7,2.3,2.5l-0.9,0.8c-0.4-0.7-1.4-1.8-2.2-2.6
				L44.4,79.2L44.4,79.2z M46.3,72.7c-0.1,0.6-0.3,1.2-0.5,1.8h4.4c0.1-0.6,0.2-1.3,0.3-1.8H46.3L46.3,72.7z"/>
			<path class="st4" d="M57.1,83.9c-0.2,1.4-0.4,2.9-1.2,3.8L55,87.2c0.7-0.8,1-2.2,1.2-3.5L57.1,83.9L57.1,83.9z M63.7,82.2
				c-2.9,0.2-6,0.5-8,0.6c0,0.1-0.1,0.2-0.3,0.2L55,81.6c1,0,2.3-0.1,3.7-0.2v-1.6h-3.2v-1h3.2v-1.4h-3v-6.6h7.4v6.6h-3.2v1.4h3.4v1
				h-3.4v1.5l3.7-0.2L63.7,82.2L63.7,82.2z M56.7,71.8v4.7h2.2v-4.7H56.7z M57.6,75.7c0-0.8-0.3-2-0.6-3l0.7-0.2
				c0.3,0.9,0.6,2.1,0.6,2.9C58.4,75.5,57.6,75.7,57.6,75.7z M58.2,87c0-0.9-0.2-2.3-0.5-3.3l0.9-0.1c0.3,1.1,0.5,2.4,0.5,3.3
				L58.2,87z M60.5,86.7c-0.1-0.8-0.5-2.1-1-3.1c0.5-0.1,0.7-0.1,0.8-0.2c0.5,1,0.9,2.2,1,3.1L60.5,86.7z M62.1,76.5v-4.7h-2.3v4.7
				H62.1z M62,72.9c0,0.1-0.2,0.1-0.4,0.1c-0.2,0.8-0.6,2.1-0.9,2.8l-0.6-0.2c0.3-0.8,0.7-2.2,0.8-3.1L62,72.9L62,72.9z M63,86.2
				c-0.3-0.8-1-2-1.6-2.9l0.8-0.3c0.7,0.9,1.4,2.1,1.7,2.8L63,86.2L63,86.2z M72.5,75.6h-4.2v3.7h3.4v8.3h-1.2v-0.7h-5v0.8h-1.2
				v-8.4h2.8v-9l1.6,0.1c0,0.1-0.1,0.2-0.4,0.3v3.8h4.2V75.6L72.5,75.6z M70.5,85.7v-5.2h-5v5.2H70.5z"/>
		</g>
		<g>
			<path class="st4" d="M22.2,53.3c0,0.1-0.2,0.2-0.4,0.2c-0.5,2.4-1.7,5.9-3.4,8c-0.3-0.2-0.8-0.5-1.2-0.7c1.7-2,2.8-5.3,3.3-7.9
				L22.2,53.3z M25.5,48.4l1.7,0.1c0,0.1-0.1,0.2-0.4,0.3v15c0,1-0.3,1.4-0.9,1.6c-0.7,0.2-1.9,0.2-3.6,0.2c-0.1-0.4-0.3-1-0.5-1.3
				c0.8,0,1.7,0,2.3,0c1.3,0,1.5,0,1.5-0.5L25.5,48.4L25.5,48.4z M33.8,61.8c-0.5-2.3-2-5.8-3.7-8.6l1.2-0.5
				c1.7,2.7,3.3,6.2,3.8,8.5L33.8,61.8z"/>
			<path class="st4" d="M39.7,61.9c1,1.5,2.7,2.1,5.1,2.2c0.7,0,1.5,0,2.5,0c2.2,0,4.9-0.1,6.5-0.1c-0.1,0.3-0.3,0.8-0.4,1.2
				c-1.3,0-3.4,0.1-5.4,0.1c-1.2,0-2.3,0-3.2,0c-2.6-0.1-4.4-0.8-5.6-2.3c-0.8,0.8-1.6,1.7-2.3,2.3c0,0.2,0,0.2-0.1,0.3l-0.7-1.3
				c0.7-0.6,1.6-1.4,2.5-2.3v-5.1h-2.3v-1.2h3.5L39.7,61.9L39.7,61.9z M39,52.6c-0.5-1-1.6-2.4-2.6-3.4l1-0.6c1.1,1,2.2,2.3,2.7,3.3
				L39,52.6z M43.4,55.5c-0.2,3.1-0.8,5.7-2.2,7.5c-0.2-0.3-0.6-0.6-0.8-0.8c1.8-2.1,2-5.8,2.1-10.2h-2v-1.1h2.7v-2.8l1.6,0.1
				c0,0.1-0.1,0.2-0.4,0.2v2.4h2.7v1c0.5-1.1,1-2.5,1.3-3.9l1.5,0.4c0,0.1-0.1,0.2-0.4,0.2c-0.1,0.5-0.3,1.1-0.5,1.6h4.5v1.1h-4.9
				c-0.3,0.6-0.5,1.3-0.8,1.8h4.6l0.2-0.1l0.9,0.6c0,0.1-0.1,0.1-0.3,0.1c-0.5,0.8-1.4,1.9-2.2,2.6v0.9h2.7v1.1H51v3.4
				c0,0.6-0.1,0.9-0.5,1.1c-0.4,0.2-1.1,0.2-2.2,0.2c-0.1-0.3-0.2-0.7-0.4-1c0.4,0,0.8,0,1.1,0s0.5,0,0.6,0c0.2,0,0.3-0.1,0.3-0.2
				v-3.4h-2.7v-1.1h2.7v-1.7h0.6c0.4-0.4,0.8-1,1.2-1.5H48v-1c-0.1,0.3-0.3,0.5-0.5,0.7c-0.2-0.2-0.6-0.5-0.9-0.7
				c0.2-0.3,0.5-0.7,0.7-1.2h-3.8c0,0.8-0.1,1.6-0.1,2.4h2.4h0.6c0,0.1,0,0.3,0,0.4c-0.1,5.4-0.2,7.1-0.7,7.7
				c-0.3,0.3-0.5,0.5-1,0.5c-0.2,0-0.4,0-0.7,0s-0.6,0-0.9,0c0-0.3-0.1-0.8-0.3-1.1c0.6,0.1,1.2,0.1,1.4,0.1s0.4,0,0.5-0.2
				c0.2-0.4,0.4-1.9,0.5-6.3L43.4,55.5L43.4,55.5z"/>
			<path class="st4" d="M68.4,54.6c0.1,2,0.4,3.9,0.7,5.4c0.8-1.4,1.5-2.9,2-4.6l1.5,0.4c-0.1,0.1-0.2,0.2-0.4,0.2
				c-0.7,2-1.6,3.9-2.7,5.5c0.5,1.8,1.1,2.9,1.8,2.9c0.4,0,0.7-1,0.7-3.4c0.2,0.3,0.6,0.6,0.9,0.7c-0.2,3-0.6,3.9-1.8,3.9
				c-1.1,0-1.9-1.1-2.5-2.9c-0.9,1.1-1.9,2-3,2.8c-0.2-0.2-0.6-0.7-0.8-0.9l0.4-0.3c-2.7,0.4-5.5,0.8-7.3,1c0,0.1-0.1,0.2-0.2,0.3
				l-0.5-1.2c1.2-0.1,2.9-0.3,4.8-0.5c0.2-0.6,0.5-1.5,0.7-2.1l1.3,0.3c0,0.1-0.2,0.2-0.4,0.2c-0.1,0.4-0.4,1-0.6,1.5
				c0.8-0.1,1.7-0.2,2.5-0.3v0.7c1-0.8,1.9-1.7,2.7-2.8c-0.4-1.9-0.7-4.1-0.9-6.6L65.2,55l-0.1-0.8l-1-0.2c0.1-0.5,0.3-1.1,0.4-1.7
				H57v4.4c0,2.5-0.2,6.2-1.4,8.6c-0.2-0.2-0.7-0.6-0.9-0.7c1.1-2.3,1.2-5.6,1.2-8v-5.4h3.7V48l1.6,0.1c0,0.1-0.1,0.2-0.4,0.2v0.9
				h4.4v0.9h-4.4v1.1h4.4h0.6c0,0.2-0.4,1.9-0.6,2.5l2-0.3c-0.1-1.8-0.1-3.6-0.2-5.4l1.6,0.1c0,0.1-0.1,0.2-0.4,0.3
				c0,1.7,0,3.3,0.1,4.9l4-0.5l0.1,1.1L68.4,54.6L68.4,54.6z M57.4,57.9V57h8v0.9H57.4z M59.6,52.3l1.3,0.1c0,0.1-0.1,0.2-0.3,0.2
				v0.9l3.2-0.3c0,0.1,0,0.2,0.1,0.8l-3.4,0.4V55c0,0.4,0.1,0.4,0.7,0.4h2.1c0.4,0,0.5-0.1,0.5-0.8c0.2,0.1,0.6,0.2,0.8,0.3
				c-0.1,1-0.4,1.3-1.2,1.3H61c-1.6,0-1.6-0.3-1.6-1.8l-2,0.2l0.1-0.7l2.1-0.2V52.3L59.6,52.3z M64.8,58.7v2.9h-6.6v-2.9H64.8z
				 M59.8,61.9c0.3,0.5,0.5,1.3,0.6,1.8l-1,0.2c-0.1-0.5-0.3-1.2-0.5-1.8C58.9,62.1,59.8,61.9,59.8,61.9z M63.7,60.9v-1.4h-4.5v1.4
				H63.7z M70.1,48.5c0.9,0.9,1.9,2.3,2.2,3.1c-0.2,0.1-0.4,0.2-1,0.6C70.9,51.3,70,50,69.1,49C69.1,49,70.1,48.5,70.1,48.5z"/>
			<path class="st4" d="M21.8,74.4v-0.8c-1.2,0.5-2.6,1.1-3.9,1.5c-0.1-0.3-0.4-0.7-0.6-1c3.2-0.9,6.4-2.4,8.1-3.9l1.8,0.1
				c0,0.1-0.2,0.2-0.4,0.2c1.9,1.5,5.3,2.8,8.1,3.4c-0.2,0.3-0.5,0.8-0.7,1.1c-1.2-0.3-2.5-0.7-3.7-1.3v0.8L21.8,74.4L21.8,74.4z
				 M26.7,82.7v1.2h8v1h-8v1.5c0,0.7-0.2,1-0.7,1.2c-0.6,0.2-1.5,0.2-3.1,0.2c-0.1-0.3-0.3-0.7-0.4-1c0.7,0,1.4,0,1.9,0
				c1,0,1.1,0,1.1-0.4v-1.5h-8v-1h8v-1.2h-6.6v-0.9h6.6v-1.2c-1.9,0.1-3.9,0.2-5.8,0.2c0-0.2-0.1-0.6-0.2-0.8
				c4.2-0.1,9.3-0.4,11.9-0.9l1,0.8c-0.1,0-0.1,0.1-0.2,0.1h-0.1c-1.4,0.2-3.2,0.5-5.2,0.6v1.3h6.7v0.9L26.7,82.7L26.7,82.7z
				 M20.4,78.5v-3.1h11.3v3.1H20.4z M21.6,76.3v1.3h8.9v-1.3H21.6z M30.3,73.6c-1.7-0.7-3.2-1.6-4.4-2.4c-1,0.8-2.5,1.7-4.1,2.4
				H30.3z"/>
			<path class="st4" d="M41.4,76.2c0.9,1.2,1.8,2.8,2.1,3.9l-1,0.5c-0.1-0.3-0.2-0.7-0.4-1.1c-0.6,0-1.1,0.1-1.7,0.1v8.1h-1.1v-8
				c-1.1,0-2,0.1-2.8,0.1c0,0.1-0.1,0.2-0.3,0.2l-0.3-1.4h1.3c0.4-0.5,0.8-1.1,1.3-1.7c-0.6-0.9-1.6-2-2.4-2.8l0.7-0.8
				c0.2,0.2,0.4,0.4,0.6,0.6c0.6-1.1,1.4-2.6,1.8-3.7l1.3,0.6c-0.1,0.1-0.2,0.2-0.4,0.2c-0.5,1.1-1.3,2.6-2,3.7
				c0.4,0.5,0.8,0.9,1.1,1.3c0.8-1.2,1.6-2.5,2.1-3.6l1.3,0.6c-0.1,0.1-0.2,0.2-0.4,0.2c-1,1.6-2.5,3.8-3.8,5.5l3.2-0.1
				c-0.3-0.6-0.7-1.3-1.1-1.9L41.4,76.2L41.4,76.2z M38.5,81.4c-0.1,0.1-0.2,0.2-0.4,0.2c-0.3,1.6-0.7,3.4-1.3,4.5
				c-0.3-0.2-0.7-0.4-0.9-0.5c0.5-1.1,0.9-2.9,1.2-4.6L38.5,81.4z M42.1,81c0.5,1.1,1.1,2.5,1.3,3.5c-0.2,0.1-0.5,0.2-1.1,0.4
				c-0.1-1-0.7-2.4-1.2-3.6L42.1,81L42.1,81z M42.5,85.5c1.1-0.6,2.7-1.6,4.2-2.7l0.4,1c-1.4,1-2.8,2-3.7,2.6c0,0.1,0,0.3-0.1,0.3
				L42.5,85.5L42.5,85.5z M48.8,78.1c0.2,1.1,0.5,2.2,1.1,3.3c0.9-0.7,1.9-1.7,2.5-2.4l1.1,1c-0.1,0.1-0.2,0.1-0.4,0.1
				c-0.7,0.7-1.9,1.7-2.8,2.4c0.8,1.4,1.9,2.5,3.5,3.3c-0.3,0.2-0.6,0.7-0.8,1.1c-2.2-1.2-3.5-3.3-4.3-5.3v4.8
				c0,1.3-0.7,1.4-2.9,1.4c0-0.3-0.2-0.8-0.4-1.1c0.4,0,0.8,0,1.1,0c0.9,0,1,0,1-0.3v-8.1h-4.6V77h6.6c0.1-0.5,0.2-1,0.3-1.5h-4.3
				l-0.2,0.7L44.1,76c0.5-1.5,1.2-4,1.5-5.9l1.5,0.2c0,0.1-0.1,0.2-0.4,0.2l-0.2,1.2h4.4h0.3l0.7,0.2c0,0.1-0.1,0.2-0.1,0.3
				c-0.2,1.2-0.6,3.2-1,4.9h2.8v1.1L48.8,78.1L48.8,78.1z M44.4,79.2c0.8,0.7,1.8,1.7,2.3,2.5l-0.9,0.8c-0.4-0.7-1.4-1.8-2.2-2.6
				L44.4,79.2L44.4,79.2z M46.3,72.7c-0.1,0.6-0.3,1.2-0.5,1.8h4.4c0.1-0.6,0.2-1.3,0.3-1.8H46.3L46.3,72.7z"/>
			<path class="st4" d="M57.1,83.9c-0.2,1.4-0.4,2.9-1.2,3.8L55,87.2c0.7-0.8,1-2.2,1.2-3.5L57.1,83.9L57.1,83.9z M63.7,82.2
				c-2.9,0.2-6,0.5-8,0.6c0,0.1-0.1,0.2-0.3,0.2L55,81.6c1,0,2.3-0.1,3.7-0.2v-1.6h-3.2v-1h3.2v-1.4h-3v-6.6h7.4v6.6h-3.2v1.4h3.4v1
				h-3.4v1.5l3.7-0.2L63.7,82.2L63.7,82.2z M56.7,71.8v4.7h2.2v-4.7H56.7z M57.6,75.7c0-0.8-0.3-2-0.6-3l0.7-0.2
				c0.3,0.9,0.6,2.1,0.6,2.9C58.4,75.5,57.6,75.7,57.6,75.7z M58.2,87c0-0.9-0.2-2.3-0.5-3.3l0.9-0.1c0.3,1.1,0.5,2.4,0.5,3.3
				L58.2,87z M60.5,86.7c-0.1-0.8-0.5-2.1-1-3.1c0.5-0.1,0.7-0.1,0.8-0.2c0.5,1,0.9,2.2,1,3.1L60.5,86.7z M62.1,76.5v-4.7h-2.3v4.7
				H62.1z M62,72.9c0,0.1-0.2,0.1-0.4,0.1c-0.2,0.8-0.6,2.1-0.9,2.8l-0.6-0.2c0.3-0.8,0.7-2.2,0.8-3.1L62,72.9L62,72.9z M63,86.2
				c-0.3-0.8-1-2-1.6-2.9l0.8-0.3c0.7,0.9,1.4,2.1,1.7,2.8L63,86.2L63,86.2z M72.5,75.6h-4.2v3.7h3.4v8.3h-1.2v-0.7h-5v0.8h-1.2
				v-8.4h2.8v-9l1.6,0.1c0,0.1-0.1,0.2-0.4,0.3v3.8h4.2V75.6L72.5,75.6z M70.5,85.7v-5.2h-5v5.2H70.5z"/>
		</g>
	</g>
</g>
</svg>
