<?xml version="1.0" encoding="UTF-8"?>
<svg xmlns="http://www.w3.org/2000/svg" width="151.17" height="189.85" xmlns:xlink="http://www.w3.org/1999/xlink" viewBox="0 0 151.17 189.85">
  <defs>
    <linearGradient id="linear-gradient" x1="-2498.3" y1="389.46" x2="-2477.59" y2="389.46" gradientTransform="translate(-451.38 -2344.69) rotate(-93.86)" gradientUnits="userSpaceOnUse">
      <stop offset="0" stop-color="#81ae46"/>
      <stop offset=".06" stop-color="#85b048"/>
      <stop offset=".4" stop-color="#9dbf56"/>
      <stop offset=".72" stop-color="#abc85e"/>
      <stop offset="1" stop-color="#b0cb61"/>
    </linearGradient>
    <clipPath id="clippath">
      <path id="SVGID-2" data-name="SVGID" d="M111.78,102.33c-2.59-3.06-7.82-1.5-11.67,3.49-1.75,2.26-2.91,4.84-3.42,7.26-.62,2.93-.28,5.65,1.14,7.32,1.65,1.95,4.37,2.03,7.12.54,1.57-.85,3.16-2.21,4.56-4.03,3.6-4.66,4.74-10.67,2.74-13.94-.14-.23-.29-.44-.46-.64" style="fill: url(#linear-gradient); stroke-width: 0px;"/>
    </clipPath>
    <linearGradient id="linear-gradient-2" x1="-1058.61" y1="-499.86" x2="-1058.31" y2="-499.86" gradientTransform="translate(50047.88 -65223.18) rotate(-83.31) scale(84.78 84) skewX(-24.18)" xlink:href="#linear-gradient"/>
    <clipPath id="clippath-1">
      <path id="SVGID-3" data-name="SVGID" d="M104.76,120.48c1.45-.78,2.92-1.96,4.26-3.52,4.12-4.78,5.49-11.25,3.06-14.44-2.43-3.2-7.73-1.92-11.85,2.86-2.01,2.33-3.37,5.07-3.94,7.63" style="fill: none; stroke: #664e4b; stroke-miterlimit: 10; stroke-width: 1.39px;"/>
    </clipPath>
    <clipPath id="clippath-2">
      <path id="SVGID-6" data-name="SVGID" d="M25.47,101.42c3.23-2.37,7.95.36,10.54,6.11,2.59,5.75,2.07,12.35-1.17,14.71-3.24,2.38-7.96-.35-10.55-6.11-2.42-5.37-2.12-11.48.58-14.2.19-.19.39-.36.6-.51" style="fill: #aac362; stroke-width: 0px;"/>
    </clipPath>
    <clipPath id="clippath-3">
      <path id="SVGID-7" data-name="SVGID" d="M28.08,120.71c-1.23-1.1-2.38-2.59-3.32-4.41-2.9-5.6-2.72-12.22.38-14.75,3.11-2.55,7.96-.07,10.86,5.54,1.41,2.74,2.1,5.71,2.06,8.34" style="fill: none; stroke: #664e4b; stroke-miterlimit: 10; stroke-width: 1.39px;"/>
    </clipPath>
    <linearGradient id="linear-gradient-3" x1="-309.67" y1="-73.11" x2="-289.96" y2="-73.11" gradientTransform="translate(-267.32 216.16) rotate(-172.89) scale(1 -1)" xlink:href="#linear-gradient"/>
    <linearGradient id="linear-gradient-4" x1="1346.55" y1="-600.15" x2="1366.26" y2="-600.15" gradientTransform="translate(1220.06 -784.53) rotate(115.55) scale(1 -1)" xlink:href="#linear-gradient"/>
    <clipPath id="clippath-4">
      <path id="SVGID-10" data-name="SVGID" d="M28.05,121.77c-11.58,21.19-3.78,47.75,17.41,59.33,21.2,11.57,47.75,3.78,59.33-17.41,11.57-21.19,3.78-47.75-17.4-59.33-8.23-4.49-17.27-6.07-25.92-5.07-13.64,1.57-26.33,9.52-33.41,22.48" style="fill: #664e4b; stroke-width: 0px;"/>
    </clipPath>
    <linearGradient id="_未命名漸層_3" data-name="未命名漸層 3" x1="24.26" y1="142.73" x2="108.58" y2="142.73" gradientUnits="userSpaceOnUse">
      <stop offset="0" stop-color="#80ae46"/>
      <stop offset=".07" stop-color="#85b149"/>
      <stop offset=".41" stop-color="#9dbf56"/>
      <stop offset=".73" stop-color="#abc85e"/>
      <stop offset="1" stop-color="#b0cb61"/>
    </linearGradient>
    <clipPath id="clippath-5">
      <path id="SVGID-12" data-name="SVGID" d="M37.96,111.63c-17.18,15.72-18.36,42.38-2.64,59.56,15.72,17.18,42.38,18.36,59.56,2.64,17.18-15.71,18.36-42.38,2.65-59.56-9.49-10.37-22.98-14.91-35.96-13.42-8.51.98-16.8,4.55-23.61,10.78" style="fill: url(#_未命名漸層_3); stroke-width: 0px;"/>
    </clipPath>
    <linearGradient id="_未命名漸層_3-2" data-name="未命名漸層 3" x1="-1057.89" y1="-530.12" x2="-1057.66" y2="-530.12" gradientTransform="translate(199626.69 -398054.78) rotate(-90) scale(376.45)" xlink:href="#_未命名漸層_3"/>
    <radialGradient id="_未命名的渐变_89" data-name="未命名的渐变 89" cx="-743.19" cy="-1602.79" fx="-743.19" fy="-1602.79" r="10.89" gradientTransform="translate(527.81 1226.28) rotate(-1.49) scale(.58 .68)" gradientUnits="userSpaceOnUse">
      <stop offset=".46" stop-color="#39201a"/>
      <stop offset="1" stop-color="#62371a"/>
    </radialGradient>
    <clipPath id="clippath-6">
      <path id="SVGID-13" data-name="SVGID" d="M61.07,149.48s-1.91,9.06,7.56,8.69c9.46-.37,7.41-9.4,7.41-9.4,0,0-10.37-3.05-14.97.71Z" style="fill: none; stroke-width: 0px;"/>
    </clipPath>
    <linearGradient id="_未命名的渐变_33" data-name="未命名的渐变 33" x1="38.61" y1="131.22" x2="57.92" y2="131.22" gradientUnits="userSpaceOnUse">
      <stop offset="0" stop-color="#f5e828"/>
      <stop offset=".35" stop-color="#ecae32"/>
      <stop offset=".65" stop-color="#e79012"/>
      <stop offset="1" stop-color="#b71c25"/>
    </linearGradient>
    <linearGradient id="_未命名的渐变_33-2" data-name="未命名的渐变 33" x1="77.93" y1="131.07" x2="97.11" y2="131.07" xlink:href="#_未命名的渐变_33"/>
    <linearGradient id="linear-gradient-5" x1="-1906.16" y1="1324.54" x2="-1890.45" y2="1324.54" gradientTransform="translate(2096.37 -1053.41) rotate(5.96)" gradientUnits="userSpaceOnUse">
      <stop offset="0" stop-color="#46b55e"/>
      <stop offset="1" stop-color="#51c779"/>
    </linearGradient>
    <linearGradient id="linear-gradient-6" x1="-1933.97" y1="1370.7" x2="-1933.97" y2="1285.37" xlink:href="#linear-gradient-5"/>
    <linearGradient id="_新增漸層色票_拷貝" data-name="新增漸層色票 拷貝" x1="-1860.81" y1="1370.38" x2="-1860.81" y2="1274.96" gradientTransform="translate(2096.37 -1053.41) rotate(5.96)" gradientUnits="userSpaceOnUse">
      <stop offset="0" stop-color="#46b55e"/>
      <stop offset="1" stop-color="#51c779"/>
    </linearGradient>
  </defs>
  <g style="isolation: isolate;">
    <g id="_圖層_2" data-name="圖層 2">
      <g id="_圖層_4" data-name="圖層 4">
        <g id="game_btn">
          <g>
            <g>
              <g>
                <g>
                  <path id="SVGID" d="M111.78,102.33c-2.59-3.06-7.82-1.5-11.67,3.49-1.75,2.26-2.91,4.84-3.42,7.26-.62,2.93-.28,5.65,1.14,7.32,1.65,1.95,4.37,2.03,7.12.54,1.57-.85,3.16-2.21,4.56-4.03,3.6-4.66,4.74-10.67,2.74-13.94-.14-.23-.29-.44-.46-.64" style="fill: url(#linear-gradient);"/>
                  <g style="clip-path: url(#clippath);">
                    <polygon points="116.38 135.12 119.99 104.32 92.75 87.91 89.14 118.71 116.38 135.12" style="fill: url(#linear-gradient-2); stroke-width: 0px;"/>
                  </g>
                </g>
                <g>
                  <g style="clip-path: url(#clippath-1);">
                    <polygon points="94.34 86.84 89.09 117.4 115.41 135.24 120.66 104.68 94.34 86.84" style="fill: none; stroke: #664e4b; stroke-miterlimit: 10; stroke-width: 1.39px;"/>
                  </g>
                  <path id="SVGID-4" data-name="SVGID" d="M104.76,120.48c1.45-.78,2.92-1.96,4.26-3.52,4.12-4.78,5.49-11.25,3.06-14.44-2.43-3.2-7.73-1.92-11.85,2.86-2.01,2.33-3.37,5.07-3.94,7.63" style="fill: none; stroke: #664e4b; stroke-miterlimit: 10; stroke-width: 1.39px;"/>
                </g>
              </g>
              <g>
                <g>
                  <path id="SVGID-5" data-name="SVGID" d="M25.47,101.42c3.23-2.37,7.95.36,10.54,6.11,2.59,5.75,2.07,12.35-1.17,14.71-3.24,2.38-7.96-.35-10.55-6.11-2.42-5.37-2.12-11.48.58-14.2.19-.19.39-.36.6-.51" style="fill: #aac362;"/>
                  <g style="clip-path: url(#clippath-2);">
                    <polygon points="13.38 132.24 17.03 101.45 47.33 91.82 43.68 122.61 13.38 132.24" style="fill: #aac362; stroke-width: 0px;"/>
                  </g>
                </g>
                <g>
                  <g style="clip-path: url(#clippath-3);">
                    <polygon points="46.05 90.41 44.04 121.35 14.29 132.58 16.3 101.64 46.05 90.41" style="fill: none; stroke: #664e4b; stroke-miterlimit: 10; stroke-width: 1.39px;"/>
                  </g>
                  <path id="SVGID-8" data-name="SVGID" d="M28.08,120.71c-1.23-1.1-2.38-2.59-3.32-4.41-2.9-5.6-2.72-12.22.38-14.75,3.11-2.55,7.96-.07,10.86,5.54,1.41,2.74,2.1,5.71,2.06,8.34" style="fill: none; stroke: #664e4b; stroke-miterlimit: 10; stroke-width: 1.39px;"/>
                </g>
              </g>
              <g>
                <path d="M48.93,182.65c-5.21,16.11-28.43-1.58-15.33-10.93" style="fill: url(#linear-gradient-3); stroke-width: 0px;"/>
                <path d="M49.27,182.74c-5.67,15.74-28.98-1.81-15.4-10.85" style="fill: none; stroke: #654d49; stroke-miterlimit: 10; stroke-width: 1.59px;"/>
              </g>
              <g>
                <path d="M98.44,171.75c13.63,10.04-10.49,26.47-15.22,11.09" style="fill: url(#linear-gradient-4); stroke-width: 0px;"/>
                <path d="M82.84,182.26c5.27,15.87,29.01-1.08,15.67-10.46" style="fill: none; stroke: #654d49; stroke-miterlimit: 10; stroke-width: 1.59px;"/>
              </g>
              <g>
                <path id="SVGID-9" data-name="SVGID" d="M28.05,121.77c-11.58,21.19-3.78,47.75,17.41,59.33,21.2,11.57,47.75,3.78,59.33-17.41,11.57-21.19,3.78-47.75-17.4-59.33-8.23-4.49-17.27-6.07-25.92-5.07-13.64,1.57-26.33,9.52-33.41,22.48" style="fill: #664e4b;"/>
                <g style="clip-path: url(#clippath-4);">
                  <rect x="13.59" y="94.45" width="106.49" height="101.97" transform="translate(-38.25 24.7) rotate(-16.35)" style="fill: #664e4b; stroke-width: 0px;"/>
                </g>
              </g>
              <g>
                <path id="SVGID-11" data-name="SVGID" d="M37.96,111.63c-17.18,15.72-18.36,42.38-2.64,59.56,15.72,17.18,42.38,18.36,59.56,2.64,17.18-15.71,18.36-42.38,2.65-59.56-9.49-10.37-22.98-14.91-35.96-13.42-8.51.98-16.8,4.55-23.61,10.78" style="fill: url(#_未命名漸層_3);"/>
                <g style="clip-path: url(#clippath-5);">
                  <rect x="2.42" y="80.54" width="128.63" height="129.99" transform="translate(-92.97 134.33) rotate(-61.35)" style="fill: url(#_未命名漸層_3-2); stroke-width: 0px;"/>
                </g>
              </g>
              <path d="M61.07,149.39s-1.9,9.15,7.56,8.77c9.46-.38,7.41-9.48,7.41-9.48,0,0-10.38-3.08-14.97.71Z" style="fill: url(#_未命名的渐变_89); stroke-width: 0px;"/>
              <g>
                <circle cx="87.85" cy="131.36" r="10.74" transform="translate(-19.91 15.77) rotate(-9.22)" style="fill: #fff; stroke-width: 0px;"/>
                <g>
                  <path d="M79.95,127.71c.51.86,1.45,1.44,2.51,1.44,1.61,0,2.92-1.31,2.92-2.92,0-1.12-.64-2.09-1.57-2.59,1.21-.63,2.58-1,4.04-1,4.8,0,8.72,3.92,8.72,8.72,0,4.8-3.92,8.72-8.72,8.72-4.8,0-8.72-3.92-8.72-8.72,0-1.31.3-2.54.82-3.65Z" style="fill: #493d36; stroke-width: 0px;"/>
                  <path d="M87.85,137.47c-3.37,0-6.11-2.75-6.11-6.11s2.75-6.11,6.11-6.11,6.11,2.75,6.11,6.11c0,3.37-2.75,6.11-6.11,6.11Z" style="fill: #181818; fill-rule: evenodd; stroke-width: 0px;"/>
                  <path d="M85.38,126.23c0,1.61-1.31,2.92-2.92,2.92-1.07,0-2.01-.58-2.51-1.44.81-1.74,2.17-3.18,3.87-4.07.93.49,1.57,1.47,1.57,2.59Z" style="fill: #fff; stroke-width: 0px;"/>
                </g>
              </g>
              <g>
                <circle cx="47.63" cy="131.36" r="10.74" transform="translate(-20.99 9.64) rotate(-9.48)" style="fill: #fff; stroke-width: 0px;"/>
                <g>
                  <path d="M39.73,127.71c.51.86,1.45,1.44,2.51,1.44,1.61,0,2.92-1.31,2.92-2.92,0-1.12-.64-2.09-1.57-2.59,1.21-.63,2.58-1,4.04-1,4.8,0,8.72,3.92,8.72,8.72s-3.92,8.72-8.72,8.72-8.72-3.92-8.72-8.72c0-1.31.3-2.54.82-3.65Z" style="fill: #493d36; stroke-width: 0px;"/>
                  <path d="M47.63,137.47c-3.37,0-6.11-2.75-6.11-6.11,0-3.37,2.75-6.11,6.11-6.11,3.37,0,6.11,2.75,6.11,6.11s-2.75,6.11-6.11,6.11Z" style="fill: #181818; fill-rule: evenodd; stroke-width: 0px;"/>
                  <path d="M45.17,126.23c0,1.61-1.31,2.92-2.92,2.92-1.07,0-2-.58-2.51-1.44.81-1.74,2.17-3.18,3.87-4.07.93.49,1.57,1.47,1.57,2.59Z" style="fill: #fff; stroke-width: 0px;"/>
                </g>
              </g>
              <g style="clip-path: url(#clippath-6);">
                <ellipse cx="68.33" cy="159.17" rx="8.48" ry="6.68" transform="translate(-4.12 1.83) rotate(-1.49)" style="fill: #a71f24; stroke-width: 0px;"/>
              </g>
              <path d="M99.69,140.93c4.12,1.5,2.4,7.54-3.06,6.23-5.8-1.4-2.43-8.22,3.06-6.23" style="fill: #e07874; stroke-width: 0px;"/>
              <path d="M38.51,141.63c4.12,1.5,2.4,7.54-3.06,6.23-5.8-1.4-2.43-8.22,3.06-6.23" style="fill: #e07874; stroke-width: 0px;"/>
              <path d="M47.64,121.75s.42,9.27-9.03,9.27c0,0,9.64-.83,9.44,9.69,0,0,3.5-9.87,9.88-10.14,0,0-10.29-.33-10.29-8.81Z" style="fill: url(#_未命名的渐变_33); stroke-width: 0px;"/>
              <path d="M86.9,121.66s.42,9.2-8.96,9.2c0,0,9.57-.82,9.37,9.62,0,0,3.47-9.8,9.81-10.07,0,0-10.21-.32-10.21-8.75Z" style="fill: url(#_未命名的渐变_33-2); stroke-width: 0px;"/>
            </g>
            <g>
              <g>
                <path d="M78.69,21.13c5.3-5.85,27.55-27.15,67.93-13.65l-9.8,27.62-58.12-13.97Z" style="fill: #96b0ad; stroke-width: 0px;"/>
                <path d="M15.1,10.06l-.04-6.99s24.07-5.86,39.04-1.38c14.97,4.47,22.45,12.7,24.59,19.45L15.1,10.06Z" style="fill: #96b0ad; stroke-width: 0px;"/>
                <path d="M10.64,8.62c-2.21,26.38-4.42,52.75-6.64,79.13,20.47,6.17,40.37,12.33,59.72,18.47,20.48-3.95,41.38-7.89,62.7-11.82,7.55-27.15,15.1-54.29,22.65-81.44,0,0-19.61-.45-29.77-.23-10.25.22-36.02,7.23-37.56,8.06-1.62.82-4.11,1.41-5.31.31-.95-1.09-38.55-15.13-65.79-12.5Z" style="fill: #96b0ad; stroke-width: 0px;"/>
                <path d="M148.02,11.36c-.14-.08-.28-.16-.42-.23-.13-.3-.25-.59-.38-.89-40.59-13.7-63.23,4.97-68.54,10.9-2.86-6.35-18.91-26.43-64.82-16.35-.48.6-.96,1.21-1.43,1.81-.1.05-.2.11-.31.16-.5.62-.99,1.24-1.49,1.86,36.79,1.94,63.67,14.61,63.55,14.6,2.52-1.26,5.38-1.31,7.88.17-.12,0,30.07-10.84,67-10.42-.35-.54-.69-1.08-1.04-1.61Z" style="fill: #a7bfbb; stroke-width: 0px;"/>
                <g style="mix-blend-mode: overlay; opacity: .3;">
                  <path d="M133,9.03c.18,0-24.72-7.75-45.77,8.15-.14,0,18.64-14.28,45.77-8.15Z" style="fill: #000; stroke-width: 0px;"/>
                  <path d="M139.64,10.81c.06,0-20.34-3.6-38.09,1.87-.05,0,15.58-4.72,38.09-1.87Z" style="fill: #000; stroke-width: 0px;"/>
                  <path d="M125.66,11.32s-22.11-.13-40.09,8.06c-.03,0,15.74-7.11,40.09-8.06Z" style="fill: #000; stroke-width: 0px;"/>
                  <path d="M120.47,12.61s-17.31,1.8-26.36,4.88c-.04,0,22.68-4.6,26.36-4.88Z" style="fill: #000; stroke-width: 0px;"/>
                </g>
                <g style="mix-blend-mode: overlay; opacity: .3;">
                  <path d="M20.66,4.33c-.2,0,32.67-5.61,51.06,11.81.16,0-16.19-15.61-51.06-11.81Z" style="fill: #000; stroke-width: 0px;"/>
                  <path d="M14.35,5.39c-.07,0,25.76-1.86,44.58,4.99.05,0-16.52-5.94-44.58-4.99Z" style="fill: #000; stroke-width: 0px;"/>
                  <path d="M37.69,7.91s22.32,1.86,36.37,11.37c.02,0-12.31-8.26-36.37-11.37Z" style="fill: #000; stroke-width: 0px;"/>
                  <path d="M26.27,7.53s20.04,2.67,29.7,6.19c.05,0-25.4-5.73-29.7-6.19Z" style="fill: #000; stroke-width: 0px;"/>
                </g>
              </g>
              <path d="M58.45,108.65c5.01-28.67,10.02-57.34,15.02-86.01,0,0,1.97,2.94,5.17,2.3,3.21-.65,4.58-2.28,4.58-2.28-5.4,28.66-10.8,57.32-16.21,85.99,0,0-1.52,2.69-4.57,2.62-3.61-.08-3.99-2.61-3.99-2.61Z" style="fill: url(#linear-gradient-5); stroke-width: 0px;"/>
              <g style="mix-blend-mode: overlay; opacity: .2;">
                <path d="M76.49,34.08c-3.39-.07-4.51-1.59-4.85-2.29-.22,1.26-.44,2.52-.66,3.78,0,0,.54,2.53,4.77,2.62,3.59.08,5.29-2.6,5.29-2.6.24-1.28.49-2.57.73-3.85-.55.67-2.27,2.4-5.28,2.34Z" style="fill: #fff; stroke-width: 0px;"/>
                <path d="M77.55,28.21c-3.39-.07-4.51-1.59-4.85-2.29-.22,1.26-.44,2.52-.66,3.78,0,0,.54,2.53,4.77,2.62,3.59.08,5.29-2.6,5.29-2.6.24-1.28.49-2.57.73-3.85-.55.67-2.27,2.4-5.28,2.34Z" style="fill: #fff; stroke-width: 0px;"/>
              </g>
              <path d="M58.45,108.65c.36,0-56.62-14.02-57.68-14.35-.29-.09-.85-.21-.75-1.27C1.08,81.54,6.9,8.01,7.06,7.48c.99.02,66.79,15.17,66.41,15.16-5.01,28.67-10.02,57.34-15.02,86.01Z" style="fill: url(#linear-gradient-6); stroke-width: 0px;"/>
              <path d="M67.02,108.64c5.4-28.66,10.8-57.32,16.21-85.99-.34,0,67.67-11.14,67.93-10.62-.07.52-23.88,85.14-24,85.53-.2.68-.51.8-1.33.95-.74.14-59.11,10.12-58.81,10.12Z" style="fill: url(#_新增漸層色票_拷貝); stroke-width: 0px;"/>
              <path d="M77.78,25.25c-2.03-.04-3.68-1.05-4.31-2.61C51.85,17.79,29.82,12.94,7.37,8.07c-.23-.05-.37-.32-.31-.59.06-.28.3-.46.53-.41,22.54,4.88,44.66,9.75,66.37,14.61.12.03.21.12.25.24.46,1.39,2.01,2.33,3.87,2.32,1.86,0,3.72-.93,4.64-2.31.09-.14.22-.23.36-.25,22.21-3.38,44.78-6.75,67.7-10.11.62-.11.46.89-.15,1-22.82,3.35-45.28,6.71-67.4,10.08-1.17,1.59-3.22,2.6-5.31,2.6-.05,0-.09,0-.14,0Z" style="fill: #66bf97; stroke-width: 0px;"/>
              <polygon points="19.5 84.73 21.77 64.91 41.04 68.84 37.68 88.91 19.5 84.73" style="fill: #000; mix-blend-mode: overlay; opacity: .2; stroke-width: 0px;"/>
              <path d="M87.72,29.45l-13.31,70.61,48.29-8.31,19.64-70.47-54.62,8.17ZM124.32,55.95l-34.23,5,4.43-23.49,36.47-5.46-6.67,23.95Z" style="fill: #000; mix-blend-mode: overlay; opacity: .2; stroke-width: 0px;"/>
              <path d="M56.72,108.2c1.14.29,1.77.45,1.73.45,5.01-28.67,10.02-57.34,15.02-86.01.04,0-.68-.17-2.01-.48l-14.74,86.05Z" style="fill: #000; mix-blend-mode: overlay; opacity: .2; stroke-width: 0px;"/>
              <path d="M68.92,108.3l17.32-86.16c-1.95.32-3.06.51-3.02.51-5.4,28.66-10.8,57.32-16.21,85.99-.03,0,.66-.12,1.91-.34h0Z" style="fill: #000; mix-blend-mode: overlay; opacity: .2; stroke-width: 0px;"/>
              <path d="M62.7,111.25c1.87-.06,3.12-1.13,3.78-1.89l15.78-85.9c-.74.51-1.92,1.12-3.62,1.47-.24.05-.47.07-.7.09l-15.24,86.23Z" style="fill: #fff; mix-blend-mode: overlay; opacity: .1; stroke-width: 0px;"/>
            </g>
            <g>
              <g>
                <path d="M50.11,37.08l11.03-.19.13-1.31-10.65.5,1.36-9.48,6.1.26-.17.76,10.51-.12-.98,9.38h2.17s-.09,5.37-.09,5.37l-6.27.12.08,3.34c.32.3.63.58.93.86,1.65-1.7,2.68-2.98,3.1-3.83l3.07,3.61c-1.49.92-2.93,1.51-4.3,1.77,1.43,1.15,2.63,1.91,3.62,2.3l-1.95,6.76c-1.93-1.6-3.4-3.68-4.39-6.23l.08,6.48-5.72.84-1.73-5.44c-.94,1.52-2.13,2.98-3.58,4.38l-1.74-6.41c2.21-.51,4.49-1.54,6.85-3.08l-.11-5.24-7.17.12c.12.5.2.99.24,1.45l-3.55,1.11c-.07-.57-.15-1.15-.24-1.72-.89.85-1.86,1.55-2.89,2.11l3.79.13v1.96s2.56,1.79,2.56,1.79l-1.19,5.93-1.38-1.62-.03,4.38h-5.2s-.02-11.88-.02-11.88c-1.15.44-2.37.73-3.65.87l-.98-6.2c.62,0,1.24-.03,1.86-.07.14-.28.26-.54.38-.79l-2.42-5.2.65-1.66c.18.02.36.04.52.07.34-2.37.66-4.41.95-6.14l4.07,1.23c-.64,2.09-1.53,3.97-2.68,5.62.48.23.94.5,1.38.83,1.1-2.58,1.91-4.91,2.43-7l5.21,2.2c-1.14,2.69-2.48,5.11-4.02,7.25l2.21-.62c.92,2.09,1.57,3.95,1.94,5.58l-.11-5.1ZM38.27,47.59l4,.71c-.31,3.63-1.16,6.54-2.53,8.73l-1.83-.45c.25-3.61.37-6.61.36-9ZM45.87,37.54c-.71.99-1.48,1.92-2.3,2.8.9-.16,1.78-.36,2.65-.59-.12-.78-.23-1.52-.35-2.21v-.03.03ZM52.79,49.14l-1.49-5.44,1.21-.59c1.52.48,2.86,1.73,4.04,3.75l-3.75,2.28ZM57.69,52.13l-.07-2.34c-.34.88-.77,1.74-1.27,2.59l1.34-.24ZM61.75,31.2l-4.55.04-.2,1.17,4.65-.15.1-1.07Z" style="fill: none; stroke: #fff; stroke-linecap: round; stroke-linejoin: round; stroke-width: 6.79px;"/>
                <path d="M89.99,40.93l3.89-.04-.44-13.86,6.45.12-.06,3.34,5.07-.08-.33,6.76-4.89.11-.06,3.52,4.86-.04-.31,16.89-13.79.17-.04-2.31-3.69,1.21-2.05-7.17-6.79-.02c-.02,3.15-.39,5.99-1.12,8.52l-3.69-2.41c1.26-2.37,2.28-4.4,3.06-6.11h-2.03s0-4.93,0-4.93l5.34-.11v-1.28s-4.69.04-4.69.04v-4.03s4.68-.04,4.68-.04v-1.34s-5.59.12-5.59.12l-.09-10.75,16.1-.1-.43,10.58-5.2.08v1.41s4.52-.04,4.52-.04v3.96s-4.51.04-4.51.04v1.28s5.24-.11,5.24-.11l.15,5.27h-2.76c1.38,1.13,2.56,2.98,3.53,5.55l-.3-14.2ZM76.53,31.45v2.21s.97-.04.97-.04l-.25-2.21-.72.04ZM78.64,50.67l1.07-.31c.78,1.26,1.45,3.32,2.01,6.17l-3.07.59v-6.45ZM80.08,31.34l-1.27.04.76,2.21h.55s-.04-2.24-.04-2.24v-.04.04ZM81.74,50.81l.83-.66c.97.71,1.92,2.7,2.87,5.96l-2.86,1.01-.84-6.31ZM84.29,31.22l-1.07.04v2.24s.69,0,.69,0l.37-2.28ZM86.63,31.15h-.31s-1.06,2.31-1.06,2.31l1.38-.04v-2.28ZM98.59,47.67h-3s.08,2.94.08,2.94h2.93s0-2.94,0-2.94Z" style="fill: none; stroke: #fff; stroke-linecap: round; stroke-linejoin: round; stroke-width: 6.79px;"/>
                <path d="M21.11,84.39l-.25-4.96,31.09-.24v5s-10.81.06-10.81.06v1.34s8.62-.12,8.62-.12v4.24s-8.71.16-8.71.16l-.03,1.28,11.41-.2-2.06,5.07-14.06.03c-3.65-.11-6.55-1.29-8.69-3.53-1.35,1.4-3.05,2.62-5.09,3.66l-1.76-1.07c1.4-2.97,2.19-6.39,2.39-10.28l7.86,1.19c-.34,1.52-.88,2.89-1.61,4.1,1.1.46,2.59.8,4.45,1.03l-.19-6.86-12.55.09ZM23.68,78.04l-.2-12.86,26.09-.22-.32,12.86-25.58.22ZM41.86,68.59l-10.68.12v1.24s10.69-.16,10.69-.16v-1.21ZM31.19,74.13l10.69-.06v-1.31s-10.69.12-10.69.12v1.24s0-.03,0-.03v.03Z" style="fill: none; stroke: #fff; stroke-linecap: round; stroke-linejoin: round; stroke-width: 6.79px;"/>
                <path d="M68.12,65.65c-1.19,4.07-2.8,7.57-4.84,10.49h1.96s-.1,19.47-.1,19.47l-6.45.22-.06-14.51c-.6.51-1.22.98-1.86,1.42l-1.21-2.62c2.7-5.61,4.16-10.72,4.38-15.31l8.17.84ZM73.22,64.77l8.13.16-.09,7.82,6-.12.02,8.13-6.13.15-.18,14.75-7.69.15-.03-14.72-7,.15-.02-8.17,7-.15-.02-8.17v-.04.04Z" style="fill: none; stroke: #fff; stroke-linecap: round; stroke-linejoin: round; stroke-width: 6.79px;"/>
                <path d="M92.66,65.35l11.41-.13v-1.31s7.06.12,7.06.12v1.07s11.34-.13,11.34-.13v4.31s-24.36.33-24.36.33l-.15,12.2c-.65,6.23-2.46,10.72-5.42,13.49l-1.38-1.58c.82-3.88,1.29-8.08,1.42-12.58l.07-15.79ZM102.52,82.29l6.93.81c-1.33,1.22-2.99,2.24-4.99,3.04,1.08.32,2.08.67,3,1.06,2.27-1.84,3.98-3.51,5.12-5.01l7.48,1.09c-2.75,2.81-6.61,5.18-11.57,7.12,2.27-.07,4.72-.18,7.34-.33-.09-.76-.21-1.56-.35-2.41l2.1-.42c2.44,2.18,4.2,4.66,5.29,7.43l-6.79,1.01c.04-.87.04-1.83,0-2.86-6.2,1.37-11.76,2.34-16.68,2.93l-1.84-5.37c1.7.07,3.54.1,5.52.09.21-.14.4-.28.58-.42-1.7-1.35-3.46-2.53-5.28-3.54l.86-1.42c.69.09,1.36.19,2,.31.53-1.24.95-2.29,1.27-3.14v-.03.03ZM99.37,76.2l2.28.13c0,3.15-.86,5.02-2.61,5.62l-.76-.62c.85-1.2,1.21-2.91,1.09-5.14ZM99.06,75.47l-.04-4.17,3.21-.04v-1.03s4.38,0,4.38,0v1.03s2.72-.04,2.72-.04v4.03s-2.71.08-2.71.08v6.34s-4.23.15-4.23.15l-.08-6.41-3.24.08ZM107.27,76.18h1.76s-.1,3.44-.1,3.44l-1.58.17-.08-3.62ZM110.37,75.93l2.83.1c-.13,2.64-1.41,4.36-3.82,5.14l-.69-.62c1.05-.9,1.62-2.44,1.68-4.62ZM110.06,75.38l-.04-4.24h3.65s0-1.04,0-1.04h4.45s0,1.03,0,1.03h4.41s0,4.02,0,4.02l-4.41.08v6.38s-4.43.08-4.43.08v-6.38s-3.63.08-3.63.08ZM118.85,75.95l2.79-.04-.17,2.38,1.48-.21-.17,3.55-3.62-.03-.32-5.65Z" style="fill: none; stroke: #fff; stroke-linecap: round; stroke-linejoin: round; stroke-width: 6.79px;"/>
              </g>
              <g>
                <path d="M50.11,37.08l11.03-.19.13-1.31-10.65.5,1.36-9.48,6.1.26-.17.76,10.51-.12-.98,9.38h2.17s-.09,5.37-.09,5.37l-6.27.12.08,3.34c.32.3.63.58.93.86,1.65-1.7,2.68-2.98,3.1-3.83l3.07,3.61c-1.49.92-2.93,1.51-4.3,1.77,1.43,1.15,2.63,1.91,3.62,2.3l-1.95,6.76c-1.93-1.6-3.4-3.68-4.39-6.23l.08,6.48-5.72.84-1.73-5.44c-.94,1.52-2.13,2.98-3.58,4.38l-1.74-6.41c2.21-.51,4.49-1.54,6.85-3.08l-.11-5.24-7.17.12c.12.5.2.99.24,1.45l-3.55,1.11c-.07-.57-.15-1.15-.24-1.72-.89.85-1.86,1.55-2.89,2.11l3.79.13v1.96s2.56,1.79,2.56,1.79l-1.19,5.93-1.38-1.62-.03,4.38h-5.2s-.02-11.88-.02-11.88c-1.15.44-2.37.73-3.65.87l-.98-6.2c.62,0,1.24-.03,1.86-.07.14-.28.26-.54.38-.79l-2.42-5.2.65-1.66c.18.02.36.04.52.07.34-2.37.66-4.41.95-6.14l4.07,1.23c-.64,2.09-1.53,3.97-2.68,5.62.48.23.94.5,1.38.83,1.1-2.58,1.91-4.91,2.43-7l5.21,2.2c-1.14,2.69-2.48,5.11-4.02,7.25l2.21-.62c.92,2.09,1.57,3.95,1.94,5.58l-.11-5.1ZM38.27,47.59l4,.71c-.31,3.63-1.16,6.54-2.53,8.73l-1.83-.45c.25-3.61.37-6.61.36-9ZM45.87,37.54c-.71.99-1.48,1.92-2.3,2.8.9-.16,1.78-.36,2.65-.59-.12-.78-.23-1.52-.35-2.21v-.03.03ZM52.79,49.14l-1.49-5.44,1.21-.59c1.52.48,2.86,1.73,4.04,3.75l-3.75,2.28ZM57.69,52.13l-.07-2.34c-.34.88-.77,1.74-1.27,2.59l1.34-.24ZM61.75,31.2l-4.55.04-.2,1.17,4.65-.15.1-1.07Z" style="fill: #117730; stroke-width: 0px;"/>
                <path d="M89.99,40.93l3.89-.04-.44-13.86,6.45.12-.06,3.34,5.07-.08-.33,6.76-4.89.11-.06,3.52,4.86-.04-.31,16.89-13.79.17-.04-2.31-3.69,1.21-2.05-7.17-6.79-.02c-.02,3.15-.39,5.99-1.12,8.52l-3.69-2.41c1.26-2.37,2.28-4.4,3.06-6.11h-2.03s0-4.93,0-4.93l5.34-.11v-1.28s-4.69.04-4.69.04v-4.03s4.68-.04,4.68-.04v-1.34s-5.59.12-5.59.12l-.09-10.75,16.1-.1-.43,10.58-5.2.08v1.41s4.52-.04,4.52-.04v3.96s-4.51.04-4.51.04v1.28s5.24-.11,5.24-.11l.15,5.27h-2.76c1.38,1.13,2.56,2.98,3.53,5.55l-.3-14.2ZM76.53,31.45v2.21s.97-.04.97-.04l-.25-2.21-.72.04ZM78.64,50.67l1.07-.31c.78,1.26,1.45,3.32,2.01,6.17l-3.07.59v-6.45ZM80.08,31.34l-1.27.04.76,2.21h.55s-.04-2.24-.04-2.24v-.04.04ZM81.74,50.81l.83-.66c.97.71,1.92,2.7,2.87,5.96l-2.86,1.01-.84-6.31ZM84.29,31.22l-1.07.04v2.24s.69,0,.69,0l.37-2.28ZM86.63,31.15h-.31s-1.06,2.31-1.06,2.31l1.38-.04v-2.28ZM98.59,47.67h-3s.08,2.94.08,2.94h2.93s0-2.94,0-2.94Z" style="fill: #117730; stroke-width: 0px;"/>
                <path d="M21.11,84.39l-.25-4.96,31.09-.24v5s-10.81.06-10.81.06v1.34s8.62-.12,8.62-.12v4.24s-8.71.16-8.71.16l-.03,1.28,11.41-.2-2.06,5.07-14.06.03c-3.65-.11-6.55-1.29-8.69-3.53-1.35,1.4-3.05,2.62-5.09,3.66l-1.76-1.07c1.4-2.97,2.19-6.39,2.39-10.28l7.86,1.19c-.34,1.52-.88,2.89-1.61,4.1,1.1.46,2.59.8,4.45,1.03l-.19-6.86-12.55.09ZM23.68,78.04l-.2-12.86,26.09-.22-.32,12.86-25.58.22ZM41.86,68.59l-10.68.12v1.24s10.69-.16,10.69-.16v-1.21ZM31.19,74.13l10.69-.06v-1.31s-10.69.12-10.69.12v1.24s0-.03,0-.03v.03Z" style="fill: #117730; stroke-width: 0px;"/>
                <path d="M68.12,65.65c-1.19,4.07-2.8,7.57-4.84,10.49h1.96s-.1,19.47-.1,19.47l-6.45.22-.06-14.51c-.6.51-1.22.98-1.86,1.42l-1.21-2.62c2.7-5.61,4.16-10.72,4.38-15.31l8.17.84ZM73.22,64.77l8.13.16-.09,7.82,6-.12.02,8.13-6.13.15-.18,14.75-7.69.15-.03-14.72-7,.15-.02-8.17,7-.15-.02-8.17v-.04.04Z" style="fill: #117730; stroke-width: 0px;"/>
                <path d="M92.66,65.35l11.41-.13v-1.31s7.06.12,7.06.12v1.07s11.34-.13,11.34-.13v4.31s-24.36.33-24.36.33l-.15,12.2c-.65,6.23-2.46,10.72-5.42,13.49l-1.38-1.58c.82-3.88,1.29-8.08,1.42-12.58l.07-15.79ZM102.52,82.29l6.93.81c-1.33,1.22-2.99,2.24-4.99,3.04,1.08.32,2.08.67,3,1.06,2.27-1.84,3.98-3.51,5.12-5.01l7.48,1.09c-2.75,2.81-6.61,5.18-11.57,7.12,2.27-.07,4.72-.18,7.34-.33-.09-.76-.21-1.56-.35-2.41l2.1-.42c2.44,2.18,4.2,4.66,5.29,7.43l-6.79,1.01c.04-.87.04-1.83,0-2.86-6.2,1.37-11.76,2.34-16.68,2.93l-1.84-5.37c1.7.07,3.54.1,5.52.09.21-.14.4-.28.58-.42-1.7-1.35-3.46-2.53-5.28-3.54l.86-1.42c.69.09,1.36.19,2,.31.53-1.24.95-2.29,1.27-3.14v-.03.03ZM99.37,76.2l2.28.13c0,3.15-.86,5.02-2.61,5.62l-.76-.62c.85-1.2,1.21-2.91,1.09-5.14ZM99.06,75.47l-.04-4.17,3.21-.04v-1.03s4.38,0,4.38,0v1.03s2.72-.04,2.72-.04v4.03s-2.71.08-2.71.08v6.34s-4.23.15-4.23.15l-.08-6.41-3.24.08ZM107.27,76.18h1.76s-.1,3.44-.1,3.44l-1.58.17-.08-3.62ZM110.37,75.93l2.83.1c-.13,2.64-1.41,4.36-3.82,5.14l-.69-.62c1.05-.9,1.62-2.44,1.68-4.62ZM110.06,75.38l-.04-4.24h3.65s0-1.04,0-1.04h4.45s0,1.03,0,1.03h4.41s0,4.02,0,4.02l-4.41.08v6.38s-4.43.08-4.43.08v-6.38s-3.63.08-3.63.08ZM118.85,75.95l2.79-.04-.17,2.38,1.48-.21-.17,3.55-3.62-.03-.32-5.65Z" style="fill: #117730; stroke-width: 0px;"/>
              </g>
            </g>
          </g>
        </g>
      </g>
    </g>
  </g>
</svg>