<?xml version="1.0" encoding="UTF-8"?>
<svg id="_圖層_2" data-name="圖層 2" xmlns="http://www.w3.org/2000/svg" width="103.22" height="123.59" viewBox="0 0 103.22 123.59">
  <g id="_圖層_7" data-name="圖層 7">
    <g id="game_btn">
      <g>
        <path d="M63.82,103.39c14.34-4.56,20.84-24.63,14.47-44.69-6.37-20.06-23.27-32.71-37.61-28.15-14.34,4.56-20.84,24.63-14.47,44.69,6.37,20.06,23.27,32.71,37.61,28.15Z" style="fill: #094f43; fill-rule: evenodd; stroke-width: 0px;"/>
        <g>
          <g>
            <path d="M38.86,65.18c-.89,4.5-3.64,9.75-7.65,12.22-4.59,2.81-6.23-1.05-8.05-5.24-1.66-3.81-3.99-7.76,1.25-9.73,4.12-1.55,10.56.59,14.46,2.75Z" style="fill: #0c5e50; fill-rule: evenodd; stroke-width: 0px;"/>
            <path d="M33.77,62.98c2.21.81,3.08,2.66,2.07,2.93-4.89,1.28-8.92,2.62-8.29,3.75.63,1.13,4.18-.64,8.64-2.78,1.25-.6,1.75,1.54-.04,5.26,1.33-2.21,2.26-4.69,2.71-6.97-1.43-.79-3.21-1.59-5.09-2.19Z" style="fill: #094f43; fill-rule: evenodd; stroke-width: 0px;"/>
            <path d="M22.26,64.35c-1.53,1.74.57,5.47,1.34,7.23.77,1.76,2.08,5.95,3.84,5.82,2.34-.17-2.09-3.61-3.11-6.29-1.02-2.68-.72-8.3-2.07-6.76Z" style="fill: #1d7d6d; fill-rule: evenodd; stroke-width: 0px;"/>
          </g>
          <g>
            <path d="M38.86,65.18c-2.85-3.6-5.06-9.1-4.32-13.75.84-5.32,4.84-4.05,9.21-2.72,3.98,1.21,8.5,2,6.59,7.27-1.5,4.14-7.31,7.65-11.48,9.21Z" style="fill: #116b5c; fill-rule: evenodd; stroke-width: 0px;"/>
            <path d="M43.84,62.73c-2.05,1.15-4.03.62-3.57-.33,2.2-4.55,3.8-8.48,2.53-8.74-1.27-.26-2.22,3.59-3.5,8.37-.36,1.34-2.31.33-3.98-3.44.81,2.45,2.1,4.76,3.54,6.59,1.54-.57,3.29-1.41,4.97-2.45Z" style="fill: #094f43; fill-rule: evenodd; stroke-width: 0px;"/>
            <path d="M50.27,53.09c-.33-2.3-4.53-3.11-6.37-3.67-1.84-.56-5.87-2.28-6.92-.86-1.39,1.89,4.1.75,6.8,1.72,2.7.97,6.78,4.84,6.49,2.81Z" style="fill: #1d7d6d; fill-rule: evenodd; stroke-width: 0px;"/>
          </g>
          <g>
            <path d="M38.85,65.24c3.95-1.07,9.22-.95,12.78,1.28,4.06,2.55,1.62,5.39-1,8.5-2.39,2.83-4.62,6.25-8.26,2.85-2.86-2.68-3.7-8.66-3.51-12.63Z" style="fill: #0c5e50; fill-rule: evenodd; stroke-width: 0px;"/>
            <path d="M39.11,70.17c-.22-2.08.91-3.51,1.52-2.81,2.95,3.39,5.61,6.08,6.27,5.13.66-.95-2.16-3.08-5.63-5.79-.97-.76.54-2,4.21-2.05-2.29-.19-4.63.05-6.64.59-.07,1.46,0,3.19.26,4.93Z" style="fill: #094f43; fill-rule: evenodd; stroke-width: 0px;"/>
            <path d="M44.75,78.82c2,.53,4.14-2.62,5.24-3.92,1.1-1.31,3.92-4.01,3.13-5.36-1.06-1.8-2.05,3.09-3.79,4.96-1.74,1.87-6.34,3.85-4.58,4.33Z" style="fill: #1d7d6d; fill-rule: evenodd; stroke-width: 0px;"/>
          </g>
        </g>
        <g>
          <g>
            <path d="M62.54,46.25c-3.57,2.09-8.74,3.38-12.81,2.14-4.64-1.41-3.01-4.83-1.28-8.56,1.58-3.4,2.85-7.33,7.3-4.97,3.5,1.85,5.91,7.47,6.78,11.39Z" style="fill: #239481; fill-rule: evenodd; stroke-width: 0px;"/>
            <path d="M60.98,41.51c.77,1.97.05,3.67-.74,3.14-3.78-2.53-7.09-4.45-7.48-3.34-.39,1.1,2.93,2.43,7.03,4.16,1.15.49,0,2.1-3.56,3.12,2.28-.42,4.51-1.28,6.32-2.34-.32-1.44-.85-3.11-1.56-4.74Z" style="fill: #187a6a; fill-rule: evenodd; stroke-width: 0px;"/>
            <path d="M53.18,34.57c-2.09,0-3.34,3.65-4.07,5.22-.73,1.57-2.76,4.96-1.63,6.06,1.51,1.47,1.18-3.56,2.38-5.85,1.2-2.29,5.16-5.45,3.32-5.44Z" style="fill: #2da692; fill-rule: evenodd; stroke-width: 0px;"/>
          </g>
          <path d="M62.54,46.25c.72-4.07.69-6.24,3.01-9.6,2.29-3.33,5.62.84,7.34,4.58,1.56,3.41,4.07,9.09-.96,8.78-3.12-.19-5.84-1.89-9.39-3.77Z" style="fill: #239481; fill-rule: evenodd; stroke-width: 0px;"/>
          <path d="M68.33,49.17c-2-.69-3.84-3.07-3.08-3.63.4-.29,4.3-.97,3.72-1.98-.59-1.01-3.21.94-4.05,1.11-1.22.25-2.01-1.5-.98-5.05-1.03,2.83-1.04,4.57-1.4,6.64,1.55,1.14,4.06,2.48,5.79,2.91Z" style="fill: #187a6a; fill-rule: evenodd; stroke-width: 0px;"/>
          <path d="M73.83,48.25c1.35-1.6-.61-4.91-1.33-6.48-.72-1.57-2.7-5.52-4.28-5.38-2.1.19,2.67,3.42,3.63,5.81.96,2.39.79,7.46,1.98,6.05Z" style="fill: #2da692; fill-rule: evenodd; stroke-width: 0px;"/>
          <g>
            <path d="M62.54,46.25c3.46,2.27,6.91,6.34,7.6,10.53.79,4.78-2.99,4.84-7.1,4.94-3.75.09-7.83.7-7.7-4.34.1-3.96,4.07-8.61,7.2-11.13Z" style="fill: #239481; fill-rule: evenodd; stroke-width: 0px;"/>
            <path d="M58.99,49.76c1.43-1.57,3.27-1.67,3.15-.73-.59,4.51-.84,8.33.32,8.19,1.16-.14.88-3.7.61-8.15-.07-1.25,1.88-.94,4.38,1.81-1.39-1.86-3.14-3.47-4.9-4.63-1.15.93-2.41,2.14-3.56,3.51Z" style="fill: #187a6a; fill-rule: evenodd; stroke-width: 0px;"/>
            <path d="M56.22,59.83c.94,1.87,4.76,1.37,6.48,1.33,1.73-.04,5.67.28,6.16-1.23.65-2.01-3.72.52-6.3.46-2.58-.06-7.17-2.21-6.34-.56Z" style="fill: #2da692; fill-rule: evenodd; stroke-width: 0px;"/>
          </g>
        </g>
        <g>
          <g>
            <path d="M32.35,79.12c-.81-4.52-.15-10.41,2.7-14.16,3.26-4.29,6.19-1.27,9.4,1.97,2.93,2.95,6.53,5.79,2.37,9.52-3.28,2.93-10.06,3.28-14.47,2.68Z" style="fill: #0c5e50; fill-rule: evenodd; stroke-width: 0px;"/>
            <path d="M37.89,79.32c-2.35.04-3.84-1.37-2.99-1.98,4.09-2.97,7.36-5.67,6.36-6.5-1-.83-3.66,2.12-7.04,5.72-.95,1.01-2.19-.8-1.87-4.91-.44,2.54-.41,5.19,0,7.48,1.62.22,3.57.31,5.54.2Z" style="fill: #094f43; fill-rule: evenodd; stroke-width: 0px;"/>
            <path d="M48.12,73.87c.8-2.18-2.52-4.89-3.87-6.25-1.35-1.36-4.1-4.79-5.69-4.03-2.12,1,3.26,2.6,5.17,4.73,1.92,2.13,3.68,7.47,4.38,5.55Z" style="fill: #1d7d6d; fill-rule: evenodd; stroke-width: 0px;"/>
          </g>
          <g>
            <path d="M32.35,79.12c3.96,2.32,8.01,6.64,9.02,11.25,1.15,5.26-3.05,5.53-7.6,5.88-4.15.31-8.64,1.21-8.78-4.38-.1-4.4,4.04-9.78,7.36-12.75Z" style="fill: #116b5c; fill-rule: evenodd; stroke-width: 0px;"/>
            <path d="M28.6,83.2c1.49-1.82,3.53-2.03,3.45-.99-.4,5.04-.47,9.28.81,9.06,1.28-.22.77-4.16.22-9.07-.15-1.38,2.03-1.15,4.95,1.76-1.65-1.98-3.68-3.68-5.69-4.86-1.22,1.09-2.56,2.51-3.75,4.09Z" style="fill: #094f43; fill-rule: evenodd; stroke-width: 0px;"/>
            <path d="M26.09,94.52c1.14,2.02,5.35,1.26,7.26,1.11,1.91-.14,6.3,0,6.76-1.71.61-2.26-4.09.79-6.96.86-2.86.08-8.07-2.05-7.07-.27Z" style="fill: #1d7d6d; fill-rule: evenodd; stroke-width: 0px;"/>
          </g>
          <g>
            <path d="M32.34,79.06c-3.29,2.43-8.25,4.23-12.37,3.44-4.71-.9-3.46-4.43-2.15-8.28,1.2-3.51,2.04-7.5,6.66-5.65,3.64,1.46,6.59,6.73,7.85,10.49Z" style="fill: #0c5e50; fill-rule: evenodd; stroke-width: 0px;"/>
            <path d="M30.3,74.56c.96,1.86.43,3.6-.4,3.17-3.98-2.09-7.43-3.64-7.7-2.51-.27,1.12,3.13,2.08,7.34,3.36,1.18.36.23,2.06-3.18,3.44,2.2-.65,4.3-1.72,5.97-2.96-.47-1.38-1.16-2.97-2.03-4.5Z" style="fill: #094f43; fill-rule: evenodd; stroke-width: 0px;"/>
            <path d="M21.91,68.54c-2.05.23-2.91,3.94-3.46,5.56-.55,1.62-2.2,5.16-.97,6.13,1.64,1.29.79-3.63,1.73-6,.94-2.37,4.51-5.89,2.7-5.69Z" style="fill: #1d7d6d; fill-rule: evenodd; stroke-width: 0px;"/>
          </g>
        </g>
        <g>
          <g>
            <path d="M51.37,67.64c-1.29,3.93-4.33,8.31-8.2,10.07-4.41,2.01-5.45-1.63-6.61-5.58-1.06-3.59-2.71-7.38,2.19-8.56,3.85-.93,9.37,1.7,12.62,4.07Z" style="fill: #239481; fill-rule: evenodd; stroke-width: 0px;"/>
            <path d="M47.06,65.11c1.88.97,2.46,2.72,1.52,2.85-4.51.6-8.26,1.35-7.82,2.43.44,1.08,3.8-.11,8.03-1.52,1.18-.4,1.39,1.57-.61,4.7,1.44-1.83,2.54-3.94,3.2-5.93-1.19-.87-2.7-1.77-4.31-2.53Z" style="fill: #187a6a; fill-rule: evenodd; stroke-width: 0px;"/>
            <path d="M36.62,65.05c-1.56,1.39-.09,4.95.4,6.61.49,1.66,1.2,5.55,2.79,5.63,2.11.11-1.47-3.46-2.08-5.96-.61-2.51.28-7.5-1.1-6.27Z" style="fill: #2da692; fill-rule: evenodd; stroke-width: 0px;"/>
          </g>
          <path d="M51.37,67.64c-2.15-3.53-3.6-5.14-4.09-9.19-.48-4.02,4.78-3.08,8.54-1.41,3.42,1.53,9.06,4.13,5.08,7.22-2.47,1.92-5.63,2.44-9.54,3.37Z" style="fill: #239481; fill-rule: evenodd; stroke-width: 0px;"/>
          <path d="M57.64,66c-1.96.8-4.91.23-4.71-.69.11-.48,2.59-3.57,1.48-3.95-1.11-.37-1.79,2.83-2.3,3.51-.76.99-2.5.2-4.07-3.15,1.1,2.8,2.24,4.12,3.33,5.91,1.92-.17,4.69-.82,6.27-1.64Z" style="fill: #187a6a; fill-rule: evenodd; stroke-width: 0px;"/>
          <path d="M61.16,61.68c-.04-2.09-3.7-3.28-5.28-3.99-1.58-.7-5.68-2.36-6.77-1.21-1.45,1.53,4.26.8,6.56,1.97,2.3,1.16,5.52,5.08,5.49,3.23Z" style="fill: #2da692; fill-rule: evenodd; stroke-width: 0px;"/>
          <g>
            <path d="M51.37,67.64c4.09-.58,9.37.19,12.66,2.88,3.76,3.06.95,5.61-2.07,8.4-2.75,2.55-5.41,5.7-8.64,1.83-2.54-3.04-2.63-9.15-1.95-13.11Z" style="fill: #239481; fill-rule: evenodd; stroke-width: 0px;"/>
            <path d="M51.02,72.62c.04-2.12,1.35-3.41,1.88-2.63,2.54,3.77,4.87,6.8,5.65,5.93.78-.87-1.79-3.36-4.93-6.52-.88-.89.79-1.95,4.48-1.53-2.27-.48-4.66-.53-6.73-.23-.25,1.46-.39,3.2-.35,4.98Z" style="fill: #187a6a; fill-rule: evenodd; stroke-width: 0px;"/>
            <path d="M55.6,82c1.94.78,4.48-2.11,5.75-3.29,1.27-1.17,4.44-3.54,3.81-4.99-.84-1.94-2.45,2.85-4.42,4.51s-6.84,3.08-5.13,3.77Z" style="fill: #2da692; fill-rule: evenodd; stroke-width: 0px;"/>
          </g>
        </g>
        <g>
          <g>
            <path d="M25.12,39.57c-3.06,3.16-8.01,5.95-12.52,5.84-5.16-.13-4.46-4.09-3.74-8.41.65-3.93.83-8.32,6.07-7.18,4.12.9,8.18,5.98,10.19,9.75Z" style="fill: #239481; fill-rule: evenodd; stroke-width: 0px;"/>
            <path d="M22.16,35.15c1.35,1.8,1.09,3.75.13,3.43-4.6-1.52-8.53-2.54-8.62-1.3-.08,1.24,3.69,1.66,8.39,2.27,1.32.17.61,2.15-2.77,4.21,2.22-1.08,4.26-2.59,5.81-4.19-.74-1.39-1.76-2.95-2.95-4.42Z" style="fill: #187a6a; fill-rule: evenodd; stroke-width: 0px;"/>
            <path d="M12.19,30.25c-2.14.6-2.39,4.7-2.69,6.51-.3,1.81-1.42,5.87.06,6.68,1.97,1.08.2-3.99.78-6.67.58-2.68,3.75-7.05,1.85-6.52Z" style="fill: #2da692; fill-rule: evenodd; stroke-width: 0px;"/>
          </g>
          <path d="M25.12,39.57c-.42-4.38-1.06-6.6.35-10.7,1.4-4.07,6.01-.73,8.83,2.61,2.57,3.05,6.76,8.16,1.52,9.28-3.25.69-6.52-.28-10.7-1.19Z" style="fill: #239481; fill-rule: evenodd; stroke-width: 0px;"/>
          <path d="M31.88,40.91c-2.25-.14-4.81-2.06-4.19-2.85.32-.41,4.14-2.22,3.25-3.09-.89-.87-3.03,1.88-3.83,2.29-1.19.6-2.49-.97-2.44-4.9-.25,3.19.24,4.98.45,7.21,1.92.73,4.87,1.39,6.76,1.34Z" style="fill: #187a6a; fill-rule: evenodd; stroke-width: 0px;"/>
          <path d="M37.26,38.41c.93-2.02-2.02-4.86-3.21-6.27-1.18-1.41-4.34-4.9-5.92-4.3-2.1.79,3.71,2.75,5.37,4.93,1.67,2.18,2.93,7.43,3.75,5.64Z" style="fill: #2da692; fill-rule: evenodd; stroke-width: 0px;"/>
          <g>
            <path d="M25.12,39.57c4.19,1.34,8.88,4.54,10.79,8.63,2.17,4.68-1.69,5.81-5.88,7.09-3.81,1.16-7.83,2.95-9.12-2.26-1.02-4.09,1.73-9.99,4.21-13.46Z" style="fill: #239481; fill-rule: evenodd; stroke-width: 0px;"/>
            <path d="M22.47,44.17c1.02-2.01,2.88-2.64,3.02-1.64.68,4.79,1.51,8.78,2.66,8.3,1.15-.48-.15-4.05-1.69-8.53-.43-1.26,1.66-1.5,5,.61-1.96-1.51-4.21-2.67-6.34-3.35-.91,1.28-1.86,2.88-2.65,4.61Z" style="fill: #187a6a; fill-rule: evenodd; stroke-width: 0px;"/>
            <path d="M22.5,55.28c1.49,1.65,5.27.05,7.03-.48,1.76-.54,5.89-1.33,5.96-3.01.1-2.24-3.66,1.59-6.33,2.26-2.66.67-7.98-.23-6.66,1.23Z" style="fill: #2da692; fill-rule: evenodd; stroke-width: 0px;"/>
          </g>
        </g>
        <g>
          <g>
            <path d="M43.44,26.55c-3.93-2.37-7.92-6.75-8.87-11.37-1.08-5.27,3.12-5.49,7.68-5.77,4.15-.26,8.66-1.1,8.72,4.5.05,4.4-4.17,9.72-7.53,12.65Z" style="fill: #0c5e50; fill-rule: evenodd; stroke-width: 0px;"/>
            <path d="M47.24,22.52c-1.52,1.8-3.56,1.99-3.46.94.47-5.03.59-9.27-.69-9.07-1.28.2-.82,4.14-.34,9.06.13,1.38-2.05,1.12-4.93-1.83,1.62,2.01,3.63,3.73,5.62,4.93,1.24-1.08,2.59-2.48,3.8-4.04Z" style="fill: #094f43; fill-rule: evenodd; stroke-width: 0px;"/>
            <path d="M49.9,11.23c-1.12-2.04-5.33-1.33-7.25-1.21-1.92.12-6.3-.08-6.78,1.62-.64,2.25,4.1-.73,6.97-.77,2.86-.04,8.05,2.16,7.06.36Z" style="fill: #1d7d6d; fill-rule: evenodd; stroke-width: 0px;"/>
          </g>
          <g>
            <path d="M43.44,26.55c4.36-1.45,10.28-1.64,14.4.64,4.71,2.6,2.15,5.94-.59,9.59-2.5,3.33-4.79,7.3-9.08,3.71-3.38-2.82-4.69-9.48-4.73-13.94Z" style="fill: #116b5c; fill-rule: evenodd; stroke-width: 0px;"/>
            <path d="M44.04,32.06c-.38-2.32.8-4,1.53-3.24,3.52,3.62,6.67,6.47,7.35,5.36.68-1.11-2.62-3.32-6.67-6.15-1.14-.79.48-2.28,4.59-2.56-2.58-.07-5.19.34-7.4,1.08.02,1.64.2,3.58.6,5.51Z" style="fill: #094f43; fill-rule: evenodd; stroke-width: 0px;"/>
            <path d="M50.9,41.41c2.27.47,4.47-3.19,5.63-4.73,1.15-1.53,4.15-4.74,3.17-6.21-1.3-1.95-2.11,3.6-3.94,5.8-1.83,2.2-6.87,4.72-4.86,5.14Z" style="fill: #1d7d6d; fill-rule: evenodd; stroke-width: 0px;"/>
          </g>
          <g>
            <path d="M43.39,26.52c-.34,4.07-2.26,8.99-5.57,11.57-3.78,2.94-5.61-.32-7.64-3.85-1.85-3.21-4.3-6.48.15-8.73,3.49-1.77,9.4-.52,13.07,1.01Z" style="fill: #0c5e50; fill-rule: evenodd; stroke-width: 0px;"/>
            <path d="M38.67,25.08c2.03.5,2.99,2.05,2.12,2.39-4.2,1.61-7.63,3.19-6.96,4.14.67.94,3.63-.98,7.37-3.31,1.05-.65,1.7,1.19.49,4.66.96-2.09,1.54-4.37,1.71-6.44-1.35-.56-3-1.09-4.72-1.44Z" style="fill: #094f43; fill-rule: evenodd; stroke-width: 0px;"/>
            <path d="M28.61,27.42c-1.18,1.69,1.05,4.78,1.9,6.26.85,1.48,2.43,5.06,3.97,4.77,2.05-.38-2.2-2.99-3.37-5.26-1.16-2.27-1.45-7.28-2.5-5.78Z" style="fill: #1d7d6d; fill-rule: evenodd; stroke-width: 0px;"/>
          </g>
        </g>
        <g>
          <g>
            <path d="M63.12,46.93c0,4.59-1.7,10.27-5.17,13.46-3.96,3.64-6.31.16-8.91-3.6-2.36-3.42-5.41-6.85-.64-9.79,3.75-2.31,10.48-1.45,14.72-.07Z" style="fill: #0c5e50; fill-rule: evenodd; stroke-width: 0px;"/>
            <path d="M57.7,45.76c2.32.37,3.54,2.02,2.59,2.48-4.55,2.2-8.25,4.28-7.41,5.27.84.99,3.97-1.43,7.94-4.38,1.11-.83,2.01,1.17.97,5.17.88-2.42,1.32-5.03,1.32-7.36-1.56-.5-3.46-.94-5.42-1.17Z" style="fill: #094f43; fill-rule: evenodd; stroke-width: 0px;"/>
            <path d="M46.66,49.31c-1.17,2.01,1.61,5.25,2.7,6.83,1.09,1.58,3.19,5.44,4.88,4.97,2.26-.61-2.74-3.14-4.25-5.57-1.51-2.43-2.3-8.01-3.33-6.24Z" style="fill: #1d7d6d; fill-rule: evenodd; stroke-width: 0px;"/>
          </g>
          <g>
            <path d="M63.12,46.93c-3.49-2.99-6.71-7.96-6.88-12.67-.2-5.38,3.98-4.91,8.52-4.44,4.14.43,8.72.34,7.86,5.86-.68,4.35-5.7,8.91-9.5,11.24Z" style="fill: #116b5c; fill-rule: evenodd; stroke-width: 0px;"/>
            <path d="M67.53,43.57c-1.79,1.52-3.84,1.38-3.57.36,1.28-4.89,2.1-9.05.8-9.06-1.3,0-1.49,3.95-1.82,8.88-.09,1.38-2.2.77-4.56-2.61,1.27,2.24,2.97,4.27,4.74,5.79,1.4-.86,2.96-2.02,4.41-3.36Z" style="fill: #094f43; fill-rule: evenodd; stroke-width: 0px;"/>
            <path d="M72,32.88c-.77-2.19-5.04-2.18-6.95-2.38-1.91-.2-6.2-1.11-6.95.49-1,2.12,4.17-.05,7,.38,2.83.43,7.58,3.45,6.91,1.51Z" style="fill: #1d7d6d; fill-rule: evenodd; stroke-width: 0px;"/>
          </g>
          <g>
            <path d="M63.12,46.99c3.67-1.81,8.87-2.7,12.78-1.19,4.47,1.72,2.62,4.98.65,8.53-1.8,3.24-3.33,7.02-7.56,4.38-3.32-2.08-5.29-7.79-5.87-11.72Z" style="fill: #0c5e50; fill-rule: evenodd; stroke-width: 0px;"/>
            <path d="M64.32,51.78c-.62-2,.22-3.62.96-3.05,3.55,2.76,6.67,4.89,7.14,3.83.46-1.06-2.72-2.61-6.63-4.61-1.1-.56.14-2.07,3.74-2.82-2.28.25-4.54.93-6.4,1.85.21,1.44.62,3.13,1.2,4.79Z" style="fill: #094f43; fill-rule: evenodd; stroke-width: 0px;"/>
            <path d="M71.51,59.19c2.06.14,3.56-3.36,4.39-4.86.83-1.49,3.08-4.69,2.04-5.86-1.38-1.56-1.42,3.43-2.77,5.6-1.35,2.17-5.48,5-3.66,5.12Z" style="fill: #1d7d6d; fill-rule: evenodd; stroke-width: 0px;"/>
          </g>
        </g>
        <g>
          <rect x="31.88" y="72.01" width="56.96" height="45.19" rx="4.6" ry="4.6" transform="translate(-25.81 22.71) rotate(-17.62)" style="fill: #eba963; stroke-width: 0px;"/>
          <path d="M66.5,68.95c1.96,12.2-10.01,26.01-28.09,31.76-1.85.59-3.7,1.07-5.53,1.45l-5.34-16.81c-.64-2.01,1.33-4.44,4.37-5.41l34.59-10.99Z" style="fill: #f7c48c; fill-rule: evenodd; stroke-width: 0px;"/>
          <path d="M87.88,87.17c.03.55.21,1.1.52,1.65l4.78,15.05c.64,2.01-1.33,4.44-4.37,5.41l-43.23,13.73c-3.04.97-6.05.11-6.68-1.9l-.24-.77c22.48-2.28,45.07-15.29,49.22-33.18Z" style="fill: #d9954c; fill-rule: evenodd; stroke-width: 0px;"/>
        </g>
        <g>
          <g>
            <path d="M87.49,48.51c0,4.14-1.51,9.25-4.64,12.13-3.56,3.29-5.69.15-8.03-3.23-2.13-3.08-4.88-6.16-.59-8.81,3.37-2.08,9.43-1.32,13.26-.08Z" style="fill: #239481; fill-rule: evenodd; stroke-width: 0px;"/>
            <path d="M82.61,47.46c2.09.33,3.19,1.82,2.34,2.23-4.1,1.98-7.42,3.86-6.67,4.76.75.89,3.58-1.3,7.15-3.96,1-.75,1.81,1.06.88,4.65.79-2.18,1.18-4.53,1.18-6.63-1.41-.45-3.11-.84-4.88-1.05Z" style="fill: #187a6a; fill-rule: evenodd; stroke-width: 0px;"/>
            <path d="M72.67,50.67c-1.05,1.81,1.46,4.73,2.44,6.15.98,1.42,2.88,4.89,4.41,4.47,2.03-.56-2.47-2.82-3.84-5.01-1.36-2.19-2.08-7.21-3.01-5.61Z" style="fill: #2da692; fill-rule: evenodd; stroke-width: 0px;"/>
          </g>
          <path d="M87.49,48.51c-3.15-2.68-5.03-3.76-6.76-7.45-1.71-3.66,3.58-4.42,7.67-4.01,3.73.38,9.9,1.09,7.09,5.27-1.74,2.59-4.58,4.08-8,6.19Z" style="fill: #239481; fill-rule: evenodd; stroke-width: 0px;"/>
          <path d="M92.93,44.99c-1.61,1.37-4.59,1.76-4.69.82-.05-.49,1.34-4.2.17-4.21-1.17,0-.81,3.25-1.09,4.05-.41,1.18-2.31.97-4.85-1.71,1.92,2.32,3.42,3.21,5.01,4.57,1.77-.76,4.2-2.25,5.44-3.52Z" style="fill: #187a6a; fill-rule: evenodd; stroke-width: 0px;"/>
          <path d="M94.93,39.79c-.69-1.97-4.55-1.96-6.27-2.14-1.72-.17-6.13-.47-6.81.97-.9,1.91,4.3-.57,6.85-.18,2.55.38,6.84,3.1,6.22,1.35Z" style="fill: #2da692; fill-rule: evenodd; stroke-width: 0px;"/>
          <g>
            <path d="M87.49,48.51c3.71-1.84,8.96-2.75,12.93-1.23,4.53,1.74,2.66,5.03.67,8.63-1.82,3.28-3.36,7.11-7.64,4.44-3.36-2.1-5.36-7.87-5.96-11.84Z" style="fill: #239481; fill-rule: evenodd; stroke-width: 0px;"/>
            <path d="M88.71,53.35c-.63-2.02.21-3.66.96-3.08,3.59,2.79,6.76,4.94,7.22,3.87.47-1.07-2.75-2.63-6.72-4.65-1.11-.57.14-2.09,3.78-2.86-2.31.26-4.59.95-6.47,1.88.22,1.46.63,3.17,1.22,4.84Z" style="fill: #187a6a; fill-rule: evenodd; stroke-width: 0px;"/>
            <path d="M96,60.83c2.09.14,3.59-3.41,4.43-4.92.84-1.51,3.11-4.75,2.05-5.93-1.4-1.58-1.43,3.47-2.79,5.66-1.36,2.19-5.54,5.06-3.69,5.19Z" style="fill: #2da692; fill-rule: evenodd; stroke-width: 0px;"/>
          </g>
        </g>
        <g>
          <g>
            <path d="M69.43,61.71c-1.44,4.36-4.81,9.23-9.1,11.18-4.9,2.23-6.05-1.81-7.34-6.19-1.18-3.99-3.01-8.2,2.44-9.5,4.28-1.03,10.41,1.89,14.01,4.51Z" style="fill: #50bfad; fill-rule: evenodd; stroke-width: 0px;"/>
            <path d="M64.64,58.91c2.09,1.08,2.73,3.02,1.69,3.16-5.01.67-9.17,1.5-8.68,2.7.49,1.2,4.22-.13,8.91-1.69,1.31-.44,1.55,1.74-.68,5.21,1.59-2.03,2.82-4.37,3.55-6.58-1.33-.97-2.99-1.97-4.78-2.8Z" style="fill: #34a18f; fill-rule: evenodd; stroke-width: 0px;"/>
            <path d="M53.05,58.84c-1.74,1.54-.1,5.5.44,7.34.54,1.84,1.33,6.16,3.09,6.25,2.34.12-1.63-3.84-2.31-6.62-.68-2.78.31-8.33-1.23-6.96Z" style="fill: #70dbc9; fill-rule: evenodd; stroke-width: 0px;"/>
          </g>
          <g>
            <path d="M69.43,61.71c-2.38-3.92-3.9-9.65-2.6-14.18,1.49-5.17,5.31-3.42,9.48-1.56,3.8,1.69,8.18,3.03,5.65,8.02-2,3.92-8.19,6.69-12.53,7.73Z" style="fill: #50bfad; fill-rule: evenodd; stroke-width: 0px;"/>
            <path d="M74.66,59.89c-2.18.89-4.07.11-3.5-.77,2.74-4.24,4.82-7.95,3.58-8.36-1.23-.41-2.65,3.29-4.5,7.88-.52,1.29-2.33.04-3.52-3.9.51,2.53,1.49,4.98,2.7,6.97,1.59-.38,3.44-1,5.24-1.82Z" style="fill: #34a18f; fill-rule: evenodd; stroke-width: 0px;"/>
            <path d="M82.24,51.12c-.05-2.32-4.11-3.65-5.87-4.43-1.75-.78-5.55-2.98-6.76-1.7-1.61,1.7,3.98,1.25,6.53,2.54,2.56,1.29,6.13,5.64,6.09,3.59Z" style="fill: #70dbc9; fill-rule: evenodd; stroke-width: 0px;"/>
          </g>
          <g>
            <path d="M69.43,61.71c4.55-.65,10.41.21,14.06,3.2,4.17,3.4,1.06,6.23-2.29,9.33-3.05,2.83-6.01,6.33-9.6,2.03-2.82-3.38-2.92-10.16-2.17-14.56Z" style="fill: #50bfad; fill-rule: evenodd; stroke-width: 0px;"/>
            <path d="M69.03,67.24c.04-2.35,1.5-3.79,2.09-2.92,2.82,4.19,5.41,7.56,6.27,6.58.86-.97-1.99-3.73-5.47-7.24-.98-.98.88-2.16,4.97-1.7-2.52-.53-5.17-.59-7.48-.26-.28,1.62-.44,3.56-.39,5.53Z" style="fill: #34a18f; fill-rule: evenodd; stroke-width: 0px;"/>
            <path d="M74.12,77.66c2.15.87,4.97-2.35,6.38-3.65,1.41-1.3,4.93-3.93,4.23-5.54-.93-2.15-2.72,3.16-4.91,5.01-2.19,1.84-7.6,3.42-5.7,4.19Z" style="fill: #70dbc9; fill-rule: evenodd; stroke-width: 0px;"/>
          </g>
        </g>
        <g>
          <g>
            <path d="M71.24,22.69c-1.43,4.34-4.78,9.18-9.05,11.12-4.87,2.22-6.02-1.8-7.31-6.16-1.17-3.97-2.99-8.15,2.42-9.45,4.26-1.02,10.35,1.88,13.94,4.49Z" style="fill: #50bfad; fill-rule: evenodd; stroke-width: 0px;"/>
            <path d="M66.49,19.9c2.08,1.07,2.72,3.01,1.68,3.15-4.98.67-9.12,1.49-8.64,2.69.48,1.2,4.2-.12,8.86-1.68,1.31-.44,1.54,1.73-.68,5.19,1.59-2.02,2.81-4.35,3.53-6.55-1.32-.96-2.98-1.96-4.76-2.79Z" style="fill: #34a18f; fill-rule: evenodd; stroke-width: 0px;"/>
            <path d="M54.95,19.83c-1.73,1.53-.1,5.47.44,7.3.54,1.83,1.33,6.12,3.08,6.21,2.33.12-1.62-3.82-2.3-6.59-.67-2.77.31-8.28-1.22-6.93Z" style="fill: #70dbc9; fill-rule: evenodd; stroke-width: 0px;"/>
          </g>
          <path d="M71.24,22.69c-2.37-3.9-3.98-5.68-4.51-10.15-.53-4.44,5.28-3.41,9.43-1.56,3.78,1.68,10.01,4.56,5.62,7.98-2.73,2.12-6.22,2.7-10.53,3.73Z" style="fill: #50bfad; fill-rule: evenodd; stroke-width: 0px;"/>
          <path d="M78.17,20.88c-2.17.88-5.42.26-5.2-.76.12-.53,2.86-3.95,1.63-4.36-1.22-.41-1.98,3.13-2.54,3.88-.84,1.1-2.76.22-4.5-3.47,1.22,3.1,2.48,4.55,3.68,6.53,2.12-.19,5.18-.91,6.92-1.81Z" style="fill: #34a18f; fill-rule: evenodd; stroke-width: 0px;"/>
          <path d="M82.06,16.11c-.05-2.31-4.09-3.63-5.84-4.41-1.74-.78-6.27-2.61-7.47-1.34-1.6,1.69,4.71.89,7.25,2.17,2.54,1.28,6.1,5.61,6.06,3.57Z" style="fill: #70dbc9; fill-rule: evenodd; stroke-width: 0px;"/>
          <g>
            <path d="M71.24,22.69c4.52-.65,10.35.21,13.99,3.18,4.15,3.38,1.05,6.19-2.28,9.28-3.04,2.81-5.98,6.3-9.55,2.02-2.8-3.36-2.91-10.11-2.16-14.48Z" style="fill: #50bfad; fill-rule: evenodd; stroke-width: 0px;"/>
            <path d="M70.85,28.19c.04-2.34,1.49-3.77,2.07-2.9,2.81,4.17,5.38,7.52,6.24,6.55.86-.96-1.98-3.71-5.44-7.2-.97-.98.87-2.15,4.95-1.69-2.51-.53-5.14-.59-7.44-.26-.28,1.61-.44,3.54-.39,5.5Z" style="fill: #34a18f; fill-rule: evenodd; stroke-width: 0px;"/>
            <path d="M75.91,38.55c2.14.87,4.95-2.33,6.35-3.63,1.4-1.3,4.9-3.91,4.2-5.51-.93-2.14-2.7,3.15-4.88,4.98-2.18,1.83-7.56,3.4-5.67,4.17Z" style="fill: #70dbc9; fill-rule: evenodd; stroke-width: 0px;"/>
          </g>
        </g>
        <g>
          <g>
            <path d="M20.14,51.18c-4.47,1.06-10.38.72-14.29-1.92-4.46-3.01-1.62-6.11,1.44-9.5,2.79-3.09,5.42-6.85,9.37-2.89,3.11,3.11,3.83,9.86,3.47,14.3Z" style="fill: #0c5e50; fill-rule: evenodd; stroke-width: 0px;"/>
            <path d="M20.03,45.64c.17,2.35-1.15,3.91-1.81,3.09-3.19-3.92-6.07-7.04-6.84-5.99-.77,1.04,2.31,3.53,6.1,6.71,1.06.89-.68,2.23-4.8,2.14,2.56.3,5.2.12,7.47-.41.13-1.63.12-3.58-.11-5.54Z" style="fill: #094f43; fill-rule: evenodd; stroke-width: 0px;"/>
            <path d="M14.03,35.72c-2.22-.67-4.74,2.78-6.02,4.21-1.29,1.43-4.55,4.36-3.71,5.9,1.12,2.06,2.42-3.39,4.44-5.43,2.02-2.03,7.26-4.09,5.3-4.68Z" style="fill: #1d7d6d; fill-rule: evenodd; stroke-width: 0px;"/>
          </g>
          <g>
            <path d="M20.14,51.18c2.1-4.08,6.19-8.37,10.73-9.63,5.19-1.44,5.69,2.73,6.29,7.26.54,4.12,1.69,8.56-3.89,9.01-4.39.35-9.98-3.49-13.13-6.64Z" style="fill: #116b5c; fill-rule: evenodd; stroke-width: 0px;"/>
            <path d="M24.43,54.69c-1.9-1.39-2.23-3.41-1.18-3.39,5.05.12,9.29-.05,9-1.31-.29-1.26-4.19-.53-9.07.28-1.37.23-1.26-1.96,1.49-5.04-1.89,1.75-3.47,3.88-4.53,5.95,1.16,1.16,2.65,2.41,4.29,3.52Z" style="fill: #094f43; fill-rule: evenodd; stroke-width: 0px;"/>
            <path d="M35.87,56.57c1.95-1.25.96-5.41.71-7.32-.25-1.9-.36-6.29-2.08-6.65-2.29-.48,1.01,4.04,1.25,6.9.24,2.85-1.6,8.18.12,7.07Z" style="fill: #1d7d6d; fill-rule: evenodd; stroke-width: 0px;"/>
          </g>
          <g>
            <path d="M20.08,51.19c2.61,3.15,4.68,8,4.12,12.16-.64,4.75-4.23,3.7-8.15,2.6-3.57-1-7.6-1.62-6.01-6.34,1.25-3.71,6.35-6.95,10.04-8.42Z" style="fill: #0c5e50; fill-rule: evenodd; stroke-width: 0px;"/>
            <path d="M15.7,53.47c1.8-1.06,3.57-.63,3.19.23-1.87,4.09-3.22,7.62-2.08,7.83,1.14.2,1.91-3.24,2.95-7.52.29-1.2,2.05-.34,3.61,2.99-.77-2.16-1.96-4.2-3.28-5.8-1.36.54-2.9,1.32-4.38,2.28Z" style="fill: #094f43; fill-rule: evenodd; stroke-width: 0px;"/>
            <path d="M10.15,62.18c.34,2.04,4.09,2.68,5.74,3.14,1.64.46,5.27,1.91,6.18.63,1.2-1.71-3.67-.59-6.08-1.4-2.42-.81-6.13-4.18-5.83-2.38Z" style="fill: #1d7d6d; fill-rule: evenodd; stroke-width: 0px;"/>
          </g>
        </g>
        <g>
          <g>
            <path d="M13.77,69.97c3.67,2.72,9.21,4.74,13.81,3.86,5.26-1,3.87-4.95,2.41-9.25-1.33-3.92-2.26-8.38-7.43-6.32-4.07,1.62-7.37,7.51-8.79,11.71Z" style="fill: #239481; fill-rule: evenodd; stroke-width: 0px;"/>
            <path d="M16.05,64.95c-1.08,2.08-.48,4.02.44,3.54,4.45-2.33,8.31-4.05,8.61-2.79.3,1.26-3.5,2.32-8.21,3.74-1.32.4-.26,2.3,3.55,3.84-2.46-.73-4.8-1.93-6.66-3.31.52-1.55,1.3-3.32,2.28-5.02Z" style="fill: #187a6a; fill-rule: evenodd; stroke-width: 0px;"/>
            <path d="M25.43,58.24c2.29.26,3.24,4.41,3.85,6.21.62,1.81,2.45,5.77,1.07,6.85-1.83,1.44-.88-4.05-1.92-6.7-1.05-2.65-5.03-6.59-3-6.36Z" style="fill: #2da692; fill-rule: evenodd; stroke-width: 0px;"/>
          </g>
          <path d="M13.77,69.97c-.31-4.56-.03-6.93-2.17-10.9-2.13-3.93-6.28.26-8.6,4.17-2.12,3.56-5.54,9.5.02,9.76,3.45.16,6.63-1.39,10.75-3.03Z" style="fill: #239481; fill-rule: evenodd; stroke-width: 0px;"/>
          <path d="M7.07,72.49c2.28-.53,4.58-2.92,3.81-3.62-.4-.36-4.61-1.58-3.85-2.62.76-1.04,3.42,1.42,4.31,1.7,1.32.41,2.38-1.41,1.67-5.43.79,3.23.6,5.14.76,7.46-1.84,1.07-4.76,2.25-6.7,2.52Z" style="fill: #187a6a; fill-rule: evenodd; stroke-width: 0px;"/>
          <path d="M1.14,70.84c-1.29-1.91,1.25-5.32,2.22-6.96.97-1.64,3.62-5.75,5.33-5.4,2.28.46-3.33,3.44-4.67,5.96-1.34,2.52-1.75,8.1-2.89,6.41Z" style="fill: #2da692; fill-rule: evenodd; stroke-width: 0px;"/>
          <g>
            <path d="M13.77,69.97c-4.07,2.08-8.33,6.15-9.59,10.67-1.44,5.16,2.71,5.67,7.22,6.26,4.1.54,8.52,1.69,8.96-3.86.35-4.36-3.46-9.94-6.59-13.07Z" style="fill: #239481; fill-rule: evenodd; stroke-width: 0px;"/>
            <path d="M17.26,74.24c-1.38-1.89-3.39-2.22-3.37-1.17.11,5.02-.06,9.24-1.32,8.95-1.26-.29-.53-4.17.29-9.02.23-1.36-1.95-1.25-5.02,1.47,1.75-1.88,3.86-3.45,5.92-4.5,1.15,1.15,2.4,2.64,3.49,4.27Z" style="fill: #187a6a; fill-rule: evenodd; stroke-width: 0px;"/>
            <path d="M19.11,85.63c-1.25,1.94-5.39.95-7.28.7-1.89-.25-6.26-.36-6.62-2.08-.48-2.28,4.02,1.01,6.86,1.25,2.84.24,8.14-1.58,7.03.13Z" style="fill: #2da692; fill-rule: evenodd; stroke-width: 0px;"/>
          </g>
        </g>
        <g>
          <g>
            <path d="M43.79,45.24c-.83,4.51-3.52,9.8-7.51,12.31-4.55,2.87-6.24-.98-8.11-5.14-1.71-3.79-4.09-7.71,1.13-9.74,4.1-1.6,10.57.46,14.49,2.58Z" style="fill: #239481; fill-rule: evenodd; stroke-width: 0px;"/>
            <path d="M38.67,43.11c2.22.79,3.12,2.63,2.1,2.91-4.87,1.34-8.88,2.72-8.24,3.85.64,1.13,4.17-.7,8.6-2.88,1.24-.61,1.77,1.52.03,5.26,1.3-2.22,2.2-4.71,2.63-7-1.44-.78-3.23-1.55-5.12-2.13Z" style="fill: #187a6a; fill-rule: evenodd; stroke-width: 0px;"/>
            <path d="M27.17,44.61c-1.51,1.76.64,5.46,1.43,7.21.79,1.75,2.15,5.92,3.91,5.77,2.33-.2-2.13-3.58-3.18-6.25-1.05-2.67-.82-8.29-2.16-6.73Z" style="fill: #2da692; fill-rule: evenodd; stroke-width: 0px;"/>
          </g>
          <g>
            <path d="M43.79,45.24c-2.89-3.56-5.17-9.03-4.49-13.7.77-5.33,4.79-4.11,9.18-2.83,3.99,1.16,8.52,1.9,6.68,7.18-1.45,4.15-7.21,7.73-11.37,9.35Z" style="fill: #239481; fill-rule: evenodd; stroke-width: 0px;"/>
            <path d="M48.73,42.73c-2.04,1.18-4.02.66-3.57-.29,2.14-4.57,3.7-8.53,2.42-8.77-1.28-.24-2.18,3.62-3.39,8.41-.34,1.34-2.3.36-4.02-3.39.84,2.44,2.15,4.74,3.62,6.55,1.53-.59,3.27-1.45,4.94-2.51Z" style="fill: #187a6a; fill-rule: evenodd; stroke-width: 0px;"/>
            <path d="M55.05,33.01c-.36-2.29-4.57-3.06-6.41-3.59-1.84-.54-5.9-2.2-6.93-.77-1.36,1.9,4.11.7,6.82,1.64,2.71.93,6.84,4.76,6.52,2.73Z" style="fill: #2da692; fill-rule: evenodd; stroke-width: 0px;"/>
          </g>
          <g>
            <path d="M43.77,45.3c3.93-1.12,9.21-1.06,12.79,1.13,4.09,2.5,1.68,5.37-.9,8.51-2.35,2.86-4.54,6.31-8.22,2.95-2.89-2.64-3.8-8.62-3.67-12.58Z" style="fill: #239481; fill-rule: evenodd; stroke-width: 0px;"/>
            <path d="M44.1,50.23c-.25-2.08.87-3.52,1.49-2.83,2.99,3.36,5.68,6.01,6.33,5.05.64-.96-2.2-3.05-5.7-5.73-.98-.75.51-2.01,4.18-2.1-2.29-.16-4.63.1-6.63.67-.05,1.46.04,3.19.32,4.93Z" style="fill: #187a6a; fill-rule: evenodd; stroke-width: 0px;"/>
            <path d="M49.84,58.81c2,.51,4.1-2.67,5.19-3.99,1.09-1.32,3.87-4.06,3.06-5.4-1.08-1.78-2.02,3.12-3.73,5.01-1.71,1.89-6.29,3.93-4.52,4.38Z" style="fill: #2da692; fill-rule: evenodd; stroke-width: 0px;"/>
          </g>
        </g>
        <g>
          <g>
            <path d="M38.51,69.88c2.62-3.74,3.6-5.93,7.48-8.22,3.85-2.27,5.24,3.46,5.22,8.01-.02,4.14-.15,11-5.05,8.35-3.04-1.64-4.97-4.61-7.65-8.14Z" style="fill: #50bfad; fill-rule: evenodd; stroke-width: 0px;"/>
            <path d="M42.96,75.49c-1.68-1.63-2.42-4.86-1.39-5.07.53-.11,4.76,1.03,4.65-.26-.12-1.29-3.66-.55-4.57-.77-1.34-.32-1.31-2.44,1.37-5.51-2.35,2.36-3.17,4.1-4.5,6,1.02,1.87,2.91,4.38,4.44,5.61Z" style="fill: #34a18f; fill-rule: evenodd; stroke-width: 0px;"/>
            <path d="M48.89,77.13c2.09-.97,1.68-5.21,1.69-7.11.01-1.91-.13-6.79-1.78-7.38-2.19-.79,1.08,4.67.93,7.51-.15,2.85-2.68,7.84-.83,6.98Z" style="fill: #70dbc9; fill-rule: evenodd; stroke-width: 0px;"/>
          </g>
          <g>
            <path d="M38.51,69.88c1.68,4.25,2.97,6.27,2.74,10.76-.22,4.46-5.78,2.47-9.56-.05-3.44-2.3-9.1-6.18-4.19-8.81,3.04-1.63,6.58-1.61,11.01-1.9Z" style="fill: #50bfad; fill-rule: evenodd; stroke-width: 0px;"/>
            <path d="M31.38,70.5c2.28-.51,5.39.66,5,1.63-.2.5-3.48,3.41-2.34,4.02,1.14.61,2.47-2.75,3.16-3.39,1.01-.94,2.76.25,3.85,4.18-.68-3.26-1.68-4.9-2.53-7.05-2.12-.17-5.26.02-7.13.62Z" style="fill: #34a18f; fill-rule: evenodd; stroke-width: 0px;"/>
            <path d="M26.75,74.54c-.34,2.28,3.42,4.26,5.01,5.32,1.59,1.06,5.74,3.63,7.14,2.57,1.86-1.4-4.49-1.67-6.78-3.36-2.29-1.69-5.07-6.56-5.37-4.54Z" style="fill: #70dbc9; fill-rule: evenodd; stroke-width: 0px;"/>
          </g>
          <g>
            <path d="M38.51,69.88c-4.54-.48-6.93-.27-10.81-2.56-3.85-2.26.49-6.26,4.47-8.45,3.63-1.99,9.69-5.2,9.75.36.03,3.45-1.62,6.58-3.41,10.64Z" style="fill: #50bfad; fill-rule: evenodd; stroke-width: 0px;"/>
            <path d="M41.27,63.27c-.61,2.26-3.08,4.47-3.76,3.67-.35-.41-1.41-4.67-2.48-3.94-1.07.73,1.29,3.47,1.54,4.37.37,1.33-1.5,2.33-5.49,1.47,3.2.91,5.12.78,7.42,1.02,1.14-1.8,2.42-4.67,2.76-6.61Z" style="fill: #34a18f; fill-rule: evenodd; stroke-width: 0px;"/>
            <path d="M39.83,57.28c-1.86-1.36-5.37,1.06-7.04,1.97-1.67.92-5.87,3.41-5.59,5.14.38,2.3,3.56-3.21,6.12-4.45,2.56-1.25,8.16-1.46,6.51-2.66Z" style="fill: #70dbc9; fill-rule: evenodd; stroke-width: 0px;"/>
          </g>
        </g>
        <g>
          <g>
            <path d="M25.22,25.72c3.62-2.78,5.21-4.57,9.6-5.6,4.35-1.01,3.96,4.88,2.58,9.2-1.26,3.94-3.44,10.45-7.32,6.45-2.4-2.48-3.36-5.89-4.85-10.06Z" style="fill: #50bfad; fill-rule: evenodd; stroke-width: 0px;"/>
            <path d="M27.77,32.4c-1.12-2.06-.85-5.36.19-5.25.54.06,4.24,2.41,4.51,1.15.27-1.26-3.33-1.62-4.13-2.11-1.18-.71-.52-2.72,2.96-4.85-2.94,1.55-4.25,2.96-6.09,4.37.42,2.09,1.47,5.05,2.55,6.69Z" style="fill: #34a18f; fill-rule: evenodd; stroke-width: 0px;"/>
            <path d="M32.94,35.75c2.29-.3,3.16-4.46,3.74-6.28.58-1.82,1.91-6.52.51-7.58-1.86-1.41-.37,4.77-1.37,7.44-1,2.67-4.91,6.68-2.89,6.41Z" style="fill: #70dbc9; fill-rule: evenodd; stroke-width: 0px;"/>
          </g>
          <g>
            <path d="M25.22,25.72c.33,4.56.95,6.87-.61,11.09-1.55,4.19-6.25.62-9.1-2.91-2.6-3.22-6.83-8.63-1.36-9.66,3.39-.64,6.76.44,11.07,1.49Z" style="fill: #50bfad; fill-rule: evenodd; stroke-width: 0px;"/>
            <path d="M18.23,24.17c2.33.2,4.95,2.24,4.28,3.05-.34.42-4.34,2.21-3.44,3.13.9.92,3.18-1.88,4.03-2.29,1.24-.6,2.56,1.06,2.42,5.14.33-3.31-.13-5.18-.3-7.49-1.97-.8-5.03-1.55-6.99-1.55Z" style="fill: #34a18f; fill-rule: evenodd; stroke-width: 0px;"/>
            <path d="M12.59,26.64c-1.01,2.08,1.99,5.09,3.19,6.58,1.2,1.49,4.39,5.18,6.04,4.6,2.2-.78-3.78-2.94-5.46-5.24-1.68-2.3-2.87-7.77-3.77-5.94Z" style="fill: #70dbc9; fill-rule: evenodd; stroke-width: 0px;"/>
          </g>
          <g>
            <path d="M25.22,25.72c-4.19-1.82-6.53-2.34-9.55-5.68-3-3.32,2.34-5.83,6.8-6.72,4.06-.81,10.81-2.05,9.19,3.27-1,3.3-3.52,5.79-6.45,9.12Z" style="fill: #50bfad; fill-rule: evenodd; stroke-width: 0px;"/>
            <path d="M29.83,20.24c-1.26,1.97-4.28,3.34-4.69,2.38-.21-.5.05-4.87-1.18-4.5-1.24.37.19,3.7.16,4.63-.05,1.38-2.13,1.78-5.68-.24,2.78,1.83,4.65,2.28,6.78,3.2,1.62-1.38,3.71-3.73,4.61-5.48Z" style="fill: #34a18f; fill-rule: evenodd; stroke-width: 0px;"/>
            <path d="M30.25,14.1c-1.37-1.86-5.44-.6-7.31-.23-1.87.37-6.63,1.49-6.87,3.22-.33,2.31,4.35-1.99,7.17-2.41,2.82-.42,8.22,1.06,7.01-.58Z" style="fill: #70dbc9; fill-rule: evenodd; stroke-width: 0px;"/>
          </g>
        </g>
        <g>
          <g>
            <path d="M53.02,18.51c1.5-2.68,2-4.21,4.44-6.01,2.42-1.78,3.74,1.96,4.04,5,.27,2.77.65,7.37-2.81,5.93-2.14-.89-3.64-2.74-5.67-4.93Z" style="fill: #239481; fill-rule: evenodd; stroke-width: 0px;"/>
            <path d="M56.38,21.96c-1.24-.97-1.95-3.09-1.28-3.3.35-.11,3.26.36,3.09-.49-.17-.85-2.49-.12-3.11-.2-.92-.13-1.05-1.54.54-3.78-1.41,1.74-1.84,2.96-2.6,4.32.81,1.18,2.25,2.73,3.35,3.45Z" style="fill: #187a6a; fill-rule: evenodd; stroke-width: 0px;"/>
            <path d="M60.46,22.65c1.34-.79.77-3.6.64-4.87-.12-1.28-.55-4.53-1.7-4.82-1.52-.38,1.04,3.05,1.13,4.96.09,1.91-1.26,5.43-.08,4.73Z" style="fill: #2da692; fill-rule: evenodd; stroke-width: 0px;"/>
          </g>
          <g>
            <path d="M53.02,18.51c1.42,2.73,2.41,3.99,2.57,7.01.16,3-3.7,2.05-6.4.62-2.46-1.3-6.51-3.51-3.41-5.61,1.92-1.3,4.29-1.53,7.23-2.02Z" style="fill: #239481; fill-rule: evenodd; stroke-width: 0px;"/>
            <path d="M48.3,19.41c1.49-.5,3.65.07,3.45.75-.1.35-2.1,2.52-1.29,2.85.8.33,1.47-2.01,1.88-2.49.61-.7,1.86-.02,2.86,2.53-.68-2.13-1.46-3.16-2.18-4.55-1.43.03-3.52.38-4.73.9Z" style="fill: #187a6a; fill-rule: evenodd; stroke-width: 0px;"/>
            <path d="M45.47,22.43c-.07,1.55,2.58,2.62,3.72,3.22,1.13.6,4.09,2.03,4.95,1.23,1.15-1.06-3.12-.81-4.77-1.78-1.65-.98-3.84-4.04-3.91-2.67Z" style="fill: #2da692; fill-rule: evenodd; stroke-width: 0px;"/>
          </g>
          <g>
            <path d="M53.02,18.51c-3.07,0-4.65.29-7.41-.97-2.73-1.25-.1-4.22,2.42-5.96,2.29-1.58,6.13-4.14,6.55-.42.26,2.31-.64,4.51-1.56,7.35Z" style="fill: #239481; fill-rule: evenodd; stroke-width: 0px;"/>
            <path d="M54.42,13.9c-.25,1.55-1.76,3.2-2.26,2.71-.26-.25-1.26-3.03-1.93-2.47-.66.56,1.1,2.23,1.33,2.82.34.86-.84,1.66-3.57,1.36,2.2.39,3.48.17,5.04.18.64-1.28,1.3-3.29,1.39-4.61Z" style="fill: #187a6a; fill-rule: evenodd; stroke-width: 0px;"/>
            <path d="M53.04,9.99c-1.34-.78-3.52,1.07-4.57,1.8-1.06.73-3.7,2.68-3.39,3.82.41,1.51,2.16-2.39,3.79-3.4,1.63-1.01,5.36-1.53,4.18-2.22Z" style="fill: #2da692; fill-rule: evenodd; stroke-width: 0px;"/>
          </g>
        </g>
        <g>
          <g>
            <path d="M39.96,6.88c2.29-.92,3.38-1.62,5.81-1.5,2.41.11,1.35,3.11,0,5.16-1.23,1.86-3.32,4.93-4.75,2.28-.89-1.64-.88-3.55-1.05-5.94Z" style="fill: #50bfad; fill-rule: evenodd; stroke-width: 0px;"/>
            <path d="M40.31,10.73c-.28-1.23.34-2.91.87-2.7.27.11,1.85,1.87,2.18,1.26.33-.62-1.49-1.33-1.84-1.7-.51-.54.13-1.49,2.25-2.09-1.76.37-2.64.92-3.8,1.38-.09,1.15.02,2.84.35,3.85Z" style="fill: #34a18f; fill-rule: evenodd; stroke-width: 0px;"/>
            <path d="M42.5,13.22c1.23.18,2.29-1.86,2.86-2.72.57-.86,1.95-3.11,1.37-3.86-.76-1-.89,2.43-1.8,3.67-.91,1.24-3.53,2.75-2.44,2.91Z" style="fill: #70dbc9; fill-rule: evenodd; stroke-width: 0px;"/>
          </g>
          <g>
            <path d="M39.96,6.88c-.49,2.42-.51,3.71-1.94,5.68-1.42,1.95-3.34-.59-4.3-2.85-.88-2.05-2.29-5.48.71-5.22,1.86.16,3.45,1.22,5.54,2.39Z" style="fill: #50bfad; fill-rule: evenodd; stroke-width: 0px;"/>
            <path d="M36.55,5.05c1.18.44,2.24,1.89,1.78,2.21-.24.17-2.58.51-2.25,1.13.33.61,1.93-.51,2.43-.6.73-.13,1.18.93.5,3.03.66-1.67.69-2.71.94-3.94-.91-.7-2.38-1.54-3.41-1.83Z" style="fill: #34a18f; fill-rule: evenodd; stroke-width: 0px;"/>
            <path d="M33.26,5.51c-.83.93.29,2.94.69,3.89.4.95,1.52,3.33,2.47,3.27,1.25-.08-1.54-2.08-2.07-3.52-.54-1.44-.36-4.46-1.09-3.64Z" style="fill: #70dbc9; fill-rule: evenodd; stroke-width: 0px;"/>
          </g>
          <g>
            <path d="M39.96,6.88c-1.91-1.56-3.05-2.17-4.13-4.35C34.75.37,37.89-.15,40.34.04c2.23.17,5.92.51,4.3,3.04-1,1.57-2.68,2.49-4.68,3.8Z" style="fill: #50bfad; fill-rule: evenodd; stroke-width: 0px;"/>
            <path d="M43.15,4.71c-.94.84-2.71,1.11-2.78.55-.04-.29.74-2.53.04-2.51-.7.01-.44,1.95-.59,2.43-.23.71-1.37.61-2.92-.95,1.18,1.36,2.08,1.87,3.05,2.66,1.05-.48,2.47-1.4,3.2-2.17Z" style="fill: #34a18f; fill-rule: evenodd; stroke-width: 0px;"/>
            <path d="M44.27,1.58c-.44-1.17-2.74-1.11-3.76-1.19-1.03-.08-3.66-.19-4.04.67-.51,1.15,2.55-.4,4.08-.21,1.53.19,4.12,1.75,3.73.72Z" style="fill: #70dbc9; fill-rule: evenodd; stroke-width: 0px;"/>
          </g>
        </g>
        <g>
          <g>
            <path d="M53.22,40.6c1.37-2.05,1.88-3.24,3.95-4.51,2.05-1.27,2.87,1.82,2.9,4.27.03,2.23.03,5.94-2.64,4.56-1.66-.86-2.73-2.44-4.21-4.32Z" style="fill: #50bfad; fill-rule: evenodd; stroke-width: 0px;"/>
            <path d="M55.68,43.59c-.92-.86-1.36-2.6-.8-2.72.29-.06,2.58.51,2.51-.19-.08-.69-1.98-.26-2.48-.37-.73-.16-.73-1.3.68-2.99-1.24,1.3-1.67,2.24-2.36,3.28.57,1,1.62,2.33,2.46,2.98Z" style="fill: #34a18f; fill-rule: evenodd; stroke-width: 0px;"/>
            <path d="M58.9,44.41c1.12-.55.85-2.83.84-3.86-.01-1.03-.14-3.66-1.04-3.97-1.19-.4.63,2.51.58,4.04-.05,1.54-1.37,4.26-.38,3.78Z" style="fill: #70dbc9; fill-rule: evenodd; stroke-width: 0px;"/>
          </g>
          <g>
            <path d="M53.22,40.6c.95,2.27,1.67,3.35,1.59,5.78-.07,2.41-3.09,1.39-5.16.07-1.88-1.2-4.98-3.24-2.36-4.71,1.63-.91,3.54-.94,5.92-1.14Z" style="fill: #50bfad; fill-rule: evenodd; stroke-width: 0px;"/>
            <path d="M49.38,41.01c1.23-.3,2.92.3,2.71.83-.1.27-1.84,1.88-1.22,2.2.62.32,1.31-1.51,1.67-1.86.53-.52,1.49.1,2.12,2.22-.4-1.75-.96-2.63-1.44-3.78-1.15-.07-2.84.07-3.84.41Z" style="fill: #34a18f; fill-rule: evenodd; stroke-width: 0px;"/>
            <path d="M46.92,43.24c-.16,1.24,1.89,2.27,2.76,2.82.87.56,3.14,1.9,3.88,1.32.99-.77-2.44-.85-3.7-1.74-1.25-.89-2.81-3.49-2.95-2.39Z" style="fill: #70dbc9; fill-rule: evenodd; stroke-width: 0px;"/>
          </g>
          <g>
            <path d="M53.22,40.6c-2.46-.21-3.74-.08-5.86-1.27-2.1-1.18.2-3.39,2.33-4.61,1.94-1.11,5.18-2.91,5.27.09.05,1.86-.81,3.57-1.73,5.78Z" style="fill: #50bfad; fill-rule: evenodd; stroke-width: 0px;"/>
            <path d="M54.64,37.01c-.3,1.23-1.62,2.45-1.99,2.02-.19-.22-.81-2.5-1.38-2.1-.57.4.73,1.86.88,2.34.21.71-.78,1.27-2.95.85,1.74.46,2.77.37,4.02.48.59-.98,1.26-2.55,1.42-3.59Z" style="fill: #34a18f; fill-rule: evenodd; stroke-width: 0px;"/>
            <path d="M53.8,33.79c-1.02-.72-2.89.63-3.78,1.14-.89.51-3.14,1.9-2.96,2.83.23,1.24,1.89-1.77,3.26-2.47,1.37-.7,4.39-.87,3.49-1.5Z" style="fill: #70dbc9; fill-rule: evenodd; stroke-width: 0px;"/>
          </g>
        </g>
        <g>
          <g>
            <path d="M11.84,67.15c-.17-2.46-.49-3.71.36-5.99.85-2.26,3.38-.32,4.91,1.6,1.39,1.75,3.66,4.68.71,5.22-1.83.34-3.65-.26-5.97-.84Z" style="fill: #50bfad; fill-rule: evenodd; stroke-width: 0px;"/>
            <path d="M15.61,68.01c-1.26-.12-2.66-1.23-2.3-1.66.19-.22,2.35-1.18,1.87-1.68-.48-.5-1.73,1.01-2.18,1.22-.67.32-1.38-.58-1.29-2.78-.19,1.79.06,2.8.14,4.04,1.06.44,2.71.85,3.77.86Z" style="fill: #34a18f; fill-rule: evenodd; stroke-width: 0px;"/>
            <path d="M18.66,66.69c.55-1.12-1.06-2.76-1.7-3.56-.64-.81-2.35-2.81-3.25-2.5-1.19.41,2.03,1.6,2.93,2.84.9,1.25,1.53,4.21,2.02,3.22Z" style="fill: #70dbc9; fill-rule: evenodd; stroke-width: 0px;"/>
          </g>
          <g>
            <path d="M11.84,67.15c2.15,1.22,3.37,1.63,4.8,3.6,1.42,1.95-1.59,2.99-4.04,3.21-2.23.2-5.92.48-4.75-2.28.73-1.72,2.22-2.91,3.98-4.53Z" style="fill: #50bfad; fill-rule: evenodd; stroke-width: 0px;"/>
            <path d="M9.05,69.82c.79-.99,2.49-1.55,2.65-1.01.08.28-.31,2.61.38,2.48.69-.13.11-1.99.18-2.5.11-.74,1.25-.83,3.03.45-1.39-1.14-2.36-1.49-3.45-2.11-.95.65-2.2,1.79-2.79,2.67Z" style="fill: #34a18f; fill-rule: evenodd; stroke-width: 0px;"/>
            <path d="M8.47,73.1c.63,1.08,2.88.63,3.91.54,1.03-.09,3.64-.42,3.88-1.34.31-1.22-2.45.82-3.99.88-1.54.06-4.35-1.04-3.8-.09Z" style="fill: #70dbc9; fill-rule: evenodd; stroke-width: 0px;"/>
          </g>
          <g>
            <path d="M11.84,67.15c-2.07,1.34-3.01,2.23-5.41,2.59-2.39.35-1.92-2.8-.98-5.07.85-2.07,2.32-5.47,4.22-3.15,1.18,1.44,1.55,3.32,2.17,5.63Z" style="fill: #50bfad; fill-rule: evenodd; stroke-width: 0px;"/>
            <path d="M10.76,63.44c.51,1.16.22,2.92-.34,2.82-.29-.05-2.17-1.48-2.38-.82-.2.67,1.72,1.02,2.13,1.32.6.43.16,1.49-1.81,2.48,1.65-.7,2.42-1.4,3.47-2.08-.13-1.14-.57-2.78-1.08-3.71Z" style="fill: #34a18f; fill-rule: evenodd; stroke-width: 0px;"/>
            <path d="M8.13,61.41c-1.25.06-1.9,2.26-2.29,3.21-.39.95-1.32,3.42-.61,4.05.94.84.41-2.55,1.07-3.94.66-1.39,2.94-3.38,1.84-3.32Z" style="fill: #70dbc9; fill-rule: evenodd; stroke-width: 0px;"/>
          </g>
        </g>
        <g>
          <g>
            <path d="M70.27,33.43c1.81-.73,2.68-1.28,4.6-1.19,1.91.09,1.07,2.47,0,4.09-.98,1.48-2.63,3.9-3.76,1.81-.7-1.3-.7-2.81-.83-4.71Z" style="fill: #239481; fill-rule: evenodd; stroke-width: 0px;"/>
            <path d="M70.55,36.48c-.22-.98.27-2.31.69-2.14.22.09,1.47,1.48,1.72,1,.26-.49-1.18-1.05-1.46-1.35-.4-.43.1-1.18,1.78-1.65-1.39.3-2.09.73-3.01,1.09-.07.91.02,2.25.28,3.05Z" style="fill: #187a6a; fill-rule: evenodd; stroke-width: 0px;"/>
            <path d="M72.29,38.46c.98.14,1.82-1.47,2.27-2.15.45-.68,1.54-2.46,1.09-3.06-.6-.79-.71,1.92-1.43,2.91-.72.98-2.8,2.18-1.93,2.31Z" style="fill: #2da692; fill-rule: evenodd; stroke-width: 0px;"/>
          </g>
          <g>
            <path d="M70.27,33.43c-.39,1.91-.4,2.94-1.54,4.5-1.12,1.55-2.65-.47-3.41-2.25-.7-1.63-1.81-4.34.56-4.14,1.47.13,2.73.96,4.39,1.89Z" style="fill: #239481; fill-rule: evenodd; stroke-width: 0px;"/>
            <path d="M67.58,31.98c.94.35,1.78,1.5,1.41,1.75-.19.13-2.05.41-1.78.89.26.48,1.53-.41,1.93-.48.58-.1.93.73.4,2.4.52-1.32.55-2.15.74-3.12-.72-.56-1.89-1.22-2.7-1.45Z" style="fill: #187a6a; fill-rule: evenodd; stroke-width: 0px;"/>
            <path d="M64.97,32.35c-.66.74.23,2.33.55,3.08s1.21,2.64,1.96,2.59c.99-.07-1.22-1.65-1.64-2.79-.42-1.14-.28-3.53-.86-2.88Z" style="fill: #2da692; fill-rule: evenodd; stroke-width: 0px;"/>
          </g>
          <g>
            <path d="M70.27,33.43c-1.52-1.23-2.42-1.72-3.27-3.45-.85-1.71,1.64-2.13,3.58-1.98,1.77.14,4.69.41,3.41,2.41-.8,1.24-2.12,1.98-3.71,3.01Z" style="fill: #239481; fill-rule: evenodd; stroke-width: 0px;"/>
            <path d="M72.81,31.71c-.75.67-2.15.88-2.21.44-.03-.23.59-2,.03-1.99-.55.01-.35,1.54-.47,1.93-.18.56-1.08.48-2.31-.76.93,1.07,1.65,1.48,2.42,2.1.83-.38,1.96-1.11,2.53-1.72Z" style="fill: #187a6a; fill-rule: evenodd; stroke-width: 0px;"/>
            <path d="M73.69,29.23c-.35-.92-2.17-.88-2.98-.94s-2.9-.15-3.2.53c-.4.91,2.02-.32,3.23-.16,1.21.15,3.26,1.39,2.95.57Z" style="fill: #2da692; fill-rule: evenodd; stroke-width: 0px;"/>
          </g>
        </g>
      </g>
      <g>
        <g>
          <path d="M19.28,45.93c-.06,3.27-.38,7.41-1.65,10.08-.72-.29-1.99-.64-2.7-.79,1.24-2.47,1.52-6.36,1.4-9.17l2.95-.11ZM23.54,39.55l3.36,16.17c.32,1.53.11,2.3-.73,2.89-.9.6-2.31.98-4.35,1.41-.3-.7-1-1.78-1.53-2.4,1.38-.22,2.93-.54,3.39-.66.46-.1.6-.28.52-.68l-3.36-16.17,2.71-.56ZM29.22,43.12c2.32,2.63,4.83,6.06,5.9,8.58l-2.5,1.64c-.95-2.45-3.36-6.06-5.65-8.78l2.26-1.43Z" style="fill: none; stroke: #116b5c; stroke-linecap: round; stroke-linejoin: round; stroke-width: 5px;"/>
          <path d="M37.15,41.05c-.67-.78-1.98-2.04-3.01-2.9l1.69-1.45c1.07.83,2.35,1.94,3.05,2.69l-1.74,1.65ZM41.03,46.37c.11,1.6.09,3.07-.08,4.37,1.69,2.03,4.12,1.83,7.65,1.12,2.25-.47,5.66-1.31,7.98-2.03-.25.58-.33,1.75-.32,2.47-2.15.58-4.81,1.2-7.26,1.71-3.88.81-6.42.9-8.48-.99-.42,1.44-1.05,2.65-1.84,3.58-.42-.44-1.43-1.1-1.96-1.32,1.47-1.57,2.18-3.91,2.19-6.84l-1.22.25c-.48.1-1.08.38-1.21.58-.24-.5-.92-1.45-1.24-1.86.34-.16.64-.4.93-.89.28-.43.82-1.75,1.3-3.01l-2.6.54-.41-1.99,4.03-.84.29-.19,1.66.31c-.49,1.31-1.32,3.54-2.07,5.2l1.13-.24.39-.15,1.14.22ZM41.19,40.52l-1.62.34-.42-2.03,2.81-.58c-.32-.68-.76-1.55-1.16-2.21l2.1-.85c.49.79,1.1,1.83,1.4,2.53l-.16.08,2.03-.42.25,1.2c.47-1.3.74-2.87.84-4.36l2.2.16c-.03.58-.13,1.17-.23,1.75l3.99-.83.42,2.03-4.91,1.02c-.12.48-.27.93-.41,1.38l3.71-.77.37-.21,1.54.75c-.5.98-1.13,2.03-1.81,2.96l.14.69,2.43-.51.41,1.97-2.43.51.53,2.56c.21.99.2,1.58-.43,2.06-.56.47-1.43.69-2.63.94-.19-.6-.66-1.39-1.1-1.92.76-.14,1.54-.3,1.77-.35.25-.05.3-.13.26-.34l-.52-2.52-2.33.48-.41-1.97,2.33-.48-.24-1.17c.32-.37.64-.83.89-1.3l-2.85.59-.26-1.26c-.49-.27-1.25-.64-1.7-.81l.06-.12-2.89.6.34,1.64,3.38-.7s.1.59.16.86c.97,5.6,1.23,7.71.87,8.48-.23.57-.57.82-1.08,1.03-.41.15-1.07.31-1.79.44-.17-.6-.55-1.39-.94-1.88.52-.04.96-.13,1.23-.19.23-.05.36-.14.47-.38.17-.45.04-1.91-.64-5.91l-1.28.27c.36,2.48.43,5.56-.81,8-.4-.35-1.26-.9-1.78-1.09,1.26-2.69.74-6.11.27-8.37l-.37-1.78Z" style="fill: none; stroke: #116b5c; stroke-linecap: round; stroke-linejoin: round; stroke-width: 5px;"/>
          <path d="M59.06,41.35c.61,2.96,1.29,7.48.52,10.61-.41-.31-1.49-.83-1.95-.97.63-2.84-.05-6.55-.6-9.22l-1.18-5.68,3.88-.81-.71-3.42,2.31-.48.22,1.05,4.32-.9.33,1.59-4.32.9.16.78,3.17-.66.28-.12,1.54-.06c0,1.18-.05,2.59-.17,3.49l-1.83.05c.02-.44.02-1.05,0-1.68l-2.56.53.18.88,1.81-.53.43,1.2-1.97.61.03.15c.09.44.17.62.63.52l1.51-.31c.4-.08,1.15-.26,1.44-.43.15.52.25.89.43,1.33-.29.19-.93.35-1.48.46l-2.24.47c-1.55.32-2.01-.3-2.28-1.6l-1.91.59-.41-1.25,2.06-.6-.22-1.07-2.27.47.85,4.11ZM68.14,41.74l-8.2,1.71-.32-1.53,8.2-1.71.32,1.53ZM75.33,37.82c-.16,2.27-.68,4.63-1.53,6.75.46.87.91,1.34,1.25,1.29.31-.07.32-1.1.06-2.88.46.43,1.57.9,2.01,1.05.2,3.59-.66,4.6-1.48,4.75-1.1.18-2.09-.46-3.03-1.75-.49.8-.99,1.54-1.58,2.17-.43-.37-1.08-.78-1.64-1.06l.18.86c-3.01.91-6.16,1.85-8.48,2.48l-.61-1.76,2.23-.62c-.23-.5-.54-1.03-.81-1.47l1.62-.64c.34.5.71,1.1.95,1.62l1.12-.32c.15-.64.31-1.38.36-1.94l2.12-.13c-.17.54-.35,1.04-.53,1.53l1.67-.48.07.31c.77-.82,1.47-1.79,2.04-2.92-.79-1.72-1.54-3.93-2.27-6.51l-1.26.44-.75-2.12,1.41-.49c-.46-1.77-.92-3.66-1.38-5.69l2.29-.48c.39,1.89.83,3.7,1.28,5.4l3.94-1.39.72,2.1-4.08,1.44c.45,1.55.9,2.98,1.33,4.17.41-1.4.67-2.9.76-4.34l2.05.6ZM61.19,47.28l-.69-3.33,7.3-1.52.69,3.33-7.3,1.52ZM62.81,45.72l3.46-.72-.2-.96-3.46.72.2.96ZM72.62,33.92c-.58-.8-1.71-2.14-2.59-3.07l1.64-1.28c.89.91,2.07,2.15,2.67,2.92l-1.72,1.43Z" style="fill: none; stroke: #116b5c; stroke-linecap: round; stroke-linejoin: round; stroke-width: 5px;"/>
          <path d="M29.1,64.2c-.08.13-.18.28-.27.41,2.28.86,5.95,1.28,9.01,1.23-.37.54-.85,1.51-1.02,2.14-1.23-.03-2.57-.17-3.88-.37l.11.54-9.56,1.99-.12-.59c-1.1.71-2.31,1.4-3.52,2-.38-.45-1.19-1.18-1.69-1.49,3.71-1.75,7.23-4.08,8.76-6.39l2.19.53ZM31.49,78.76l8.05-1.67.35,1.7-8.05,1.67.14.69c.24,1.13.06,1.67-.71,2.14-.76.46-1.91.72-3.5,1.04-.25-.56-.77-1.28-1.19-1.74,1.02-.17,2.25-.43,2.55-.49.33-.09.44-.2.38-.49l-.13-.63-8.03,1.67-.35-1.7,8.03-1.67-.16-.78-6.75,1.4-.35-1.68,6.75-1.4-.15-.73c-1.98.5-4.01.94-5.9,1.31-.11-.44-.46-1.06-.73-1.42,4.64-.92,10.14-2.28,12.99-3.42l1.89,1.01c-1.63.67-3.65,1.3-5.8,1.88l.18.86,6.9-1.43.35,1.68-6.9,1.43.16.78ZM35.74,72.25l-13.21,2.75-.79-3.78,13.21-2.75.79,3.78ZM32.78,70.44l-8.41,1.75.18.86,8.41-1.75-.18-.86ZM30.61,67.15c-1.09-.28-2.14-.61-3.07-.96-.7.72-1.5,1.43-2.37,2.09l5.43-1.13Z" style="fill: none; stroke: #116b5c; stroke-linecap: round; stroke-linejoin: round; stroke-width: 5px;"/>
          <path d="M47.19,73.35c-.12-.26-.26-.54-.42-.85-3.88,1.46-4.59,1.83-5,2.16-.2-.42-.77-1.39-1.15-1.95.48-.23.84-.79,1.32-1.74.21-.35.56-1.1.95-2.06-1.55.54-1.99.74-2.27.95-.22-.44-.8-1.41-1.15-1.95.36-.18.59-.65.86-1.34.28-.67,1.02-3.21,1.21-5.53l2.38.4c-.34,1.84-.9,3.86-1.58,5.54l1.43-.41c.34-1.01.65-2.15.88-3.22l2.22.81c-.75,2.5-1.81,5.1-3,7.36l1.98-.7c-.29-.53-.59-1.04-.88-1.5l1.45-.81c.82,1.21,1.79,2.84,2.29,3.86l-1.53.97ZM43.75,75.33c.18,1.71.22,3.78.2,5.08-.51-.13-1.45-.14-1.93-.15.07-1.33-.04-3.27-.21-4.92h1.95ZM45.76,74.37c.56,1.31,1.15,3.02,1.46,4.2l-1.71.84c-.27-1.21-.85-2.95-1.37-4.27l1.61-.77ZM53.36,74.76c-1.03,1.13-2.23,2.32-3.21,3.29l-.92-.86-1.05.65c-.41-1.01-1.23-2.54-1.9-3.67l1.46-.87c.52.83,1.09,1.79,1.53,2.64.86-.79,1.9-1.82,2.95-2.85l1.13,1.67ZM54.89,68.31l1.57,7.57c.23,1.09.16,1.7-.51,2.18-.62.5-1.57.74-2.88.99-.21-.59-.73-1.42-1.15-1.97.82-.15,1.68-.33,1.96-.38.27-.06.32-.13.27-.39l-1.57-7.53-5.01,1.04-.45-2.18,6.88-1.43.02-1.08-6.1,1.27c.2-1.79.3-4.64.3-6.78l2.38-.25c0,.4-.02.84-.04,1.3l3.61-.75.36-.16,1.75-.12c.11,1.9.12,4.15.08,6.09l3.08-.64.45,2.18-4.99,1.04ZM51.06,73.44c-.57-.65-1.74-1.63-2.67-2.33l1.41-1.45c.92.62,2.11,1.53,2.73,2.17l-1.46,1.62ZM54.02,63.18l-.02-1.24-3.52.73-.05,1.26,3.59-.75ZM55.97,71.08c.59-.87,1.39-2.26,1.79-3.19l2.04.85c-.68,1.13-1.47,2.32-2.13,3.13l-1.69-.79ZM57.24,72.05c1.32.56,3.17,1.35,4.12,1.94l-.98,2.02c-.9-.62-2.77-1.52-4.1-2.15l.96-1.82Z" style="fill: none; stroke: #116b5c; stroke-linecap: round; stroke-linejoin: round; stroke-width: 5px;"/>
          <path d="M72.11,69.57l-9.5,1.98-.39-1.89,3.65-.76-.22-1.05-3.23.67-.39-1.89,3.23-.67-.19-.9-3.27.68-1.64-7.91,8.87-1.84,1.64,7.91-3.4.71.19.9,3.36-.7.39,1.89-3.36.7.22,1.05,3.65-.76.39,1.89ZM63.31,63.67l1.76-.37-.95-4.55-1.76.37.18.88.92-.5c.51.88,1.05,2.08,1.27,2.86l-1.02.58c-.21-.81-.67-1.94-1.15-2.8l.73,3.52ZM62.99,75.93c.39-1.09.56-2.76.54-4.05l1.78.26c0,1.34-.05,3.01-.43,4.14l-1.89-.35ZM67.44,58.07l-1.8.38.71,3.44c.12-.88.22-2.19.2-3.04l1.08.15-.19-.92ZM67.16,71.58c.45,1.11.86,2.58,1.05,3.59l-1.55.52c-.17-1.02-.57-2.51-.97-3.63l1.47-.48ZM68.39,62.62l-.62-2.96c-.16.93-.28,1.92-.43,2.56l-.95-.15.19.92,1.8-.38ZM69.23,71c.6,1.01,1.28,2.36,1.58,3.28l-1.47.63c-.28-.93-.94-2.3-1.55-3.33l1.43-.58ZM76.18,60.76l.67,3.21,3.36-.7,2.01,9.65-2.39.5-.15-.73-3.88.81.17.8-2.27.47-.31-1.47-1.4.93c-.41-.9-1.29-2.18-2.09-3.11l1.36-.83c.8.82,1.66,1.98,2.1,2.82l-1.67-8.05,2.75-.57-2.04-9.82,2.43-.51.89,4.3,4.07-.85.48,2.31-4.07.85ZM78.28,66.03l-3.88.81.91,4.38,3.88-.81-.91-4.38Z" style="fill: none; stroke: #116b5c; stroke-linecap: round; stroke-linejoin: round; stroke-width: 5px;"/>
        </g>
        <g>
          <path d="M19.28,45.93c-.06,3.27-.38,7.41-1.65,10.08-.72-.29-1.99-.64-2.7-.79,1.24-2.47,1.52-6.36,1.4-9.17l2.95-.11ZM23.54,39.55l3.36,16.17c.32,1.53.11,2.3-.73,2.89-.9.6-2.31.98-4.35,1.41-.3-.7-1-1.78-1.53-2.4,1.38-.22,2.93-.54,3.39-.66.46-.1.6-.28.52-.68l-3.36-16.17,2.71-.56ZM29.22,43.12c2.32,2.63,4.83,6.06,5.9,8.58l-2.5,1.64c-.95-2.45-3.36-6.06-5.65-8.78l2.26-1.43Z" style="fill: #fff; stroke-width: 0px;"/>
          <path d="M37.15,41.05c-.67-.78-1.98-2.04-3.01-2.9l1.69-1.45c1.07.83,2.35,1.94,3.05,2.69l-1.74,1.65ZM41.03,46.37c.11,1.6.09,3.07-.08,4.37,1.69,2.03,4.12,1.83,7.65,1.12,2.25-.47,5.66-1.31,7.98-2.03-.25.58-.33,1.75-.32,2.47-2.15.58-4.81,1.2-7.26,1.71-3.88.81-6.42.9-8.48-.99-.42,1.44-1.05,2.65-1.84,3.58-.42-.44-1.43-1.1-1.96-1.32,1.47-1.57,2.18-3.91,2.19-6.84l-1.22.25c-.48.1-1.08.38-1.21.58-.24-.5-.92-1.45-1.24-1.86.34-.16.64-.4.93-.89.28-.43.82-1.75,1.3-3.01l-2.6.54-.41-1.99,4.03-.84.29-.19,1.66.31c-.49,1.31-1.32,3.54-2.07,5.2l1.13-.24.39-.15,1.14.22ZM41.19,40.52l-1.62.34-.42-2.03,2.81-.58c-.32-.68-.76-1.55-1.16-2.21l2.1-.85c.49.79,1.1,1.83,1.4,2.53l-.16.08,2.03-.42.25,1.2c.47-1.3.74-2.87.84-4.36l2.2.16c-.03.58-.13,1.17-.23,1.75l3.99-.83.42,2.03-4.91,1.02c-.12.48-.27.93-.41,1.38l3.71-.77.37-.21,1.54.75c-.5.98-1.13,2.03-1.81,2.96l.14.69,2.43-.51.41,1.97-2.43.51.53,2.56c.21.99.2,1.58-.43,2.06-.56.47-1.43.69-2.63.94-.19-.6-.66-1.39-1.1-1.92.76-.14,1.54-.3,1.77-.35.25-.05.3-.13.26-.34l-.52-2.52-2.33.48-.41-1.97,2.33-.48-.24-1.17c.32-.37.64-.83.89-1.3l-2.85.59-.26-1.26c-.49-.27-1.25-.64-1.7-.81l.06-.12-2.89.6.34,1.64,3.38-.7s.1.59.16.86c.97,5.6,1.23,7.71.87,8.48-.23.57-.57.82-1.08,1.03-.41.15-1.07.31-1.79.44-.17-.6-.55-1.39-.94-1.88.52-.04.96-.13,1.23-.19.23-.05.36-.14.47-.38.17-.45.04-1.91-.64-5.91l-1.28.27c.36,2.48.43,5.56-.81,8-.4-.35-1.26-.9-1.78-1.09,1.26-2.69.74-6.11.27-8.37l-.37-1.78Z" style="fill: #fff; stroke-width: 0px;"/>
          <path d="M59.06,41.35c.61,2.96,1.29,7.48.52,10.61-.41-.31-1.49-.83-1.95-.97.63-2.84-.05-6.55-.6-9.22l-1.18-5.68,3.88-.81-.71-3.42,2.31-.48.22,1.05,4.32-.9.33,1.59-4.32.9.16.78,3.17-.66.28-.12,1.54-.06c0,1.18-.05,2.59-.17,3.49l-1.83.05c.02-.44.02-1.05,0-1.68l-2.56.53.18.88,1.81-.53.43,1.2-1.97.61.03.15c.09.44.17.62.63.52l1.51-.31c.4-.08,1.15-.26,1.44-.43.15.52.25.89.43,1.33-.29.19-.93.35-1.48.46l-2.24.47c-1.55.32-2.01-.3-2.28-1.6l-1.91.59-.41-1.25,2.06-.6-.22-1.07-2.27.47.85,4.11ZM68.14,41.74l-8.2,1.71-.32-1.53,8.2-1.71.32,1.53ZM75.33,37.82c-.16,2.27-.68,4.63-1.53,6.75.46.87.91,1.34,1.25,1.29.31-.07.32-1.1.06-2.88.46.43,1.57.9,2.01,1.05.2,3.59-.66,4.6-1.48,4.75-1.1.18-2.09-.46-3.03-1.75-.49.8-.99,1.54-1.58,2.17-.43-.37-1.08-.78-1.64-1.06l.18.86c-3.01.91-6.16,1.85-8.48,2.48l-.61-1.76,2.23-.62c-.23-.5-.54-1.03-.81-1.47l1.62-.64c.34.5.71,1.1.95,1.62l1.12-.32c.15-.64.31-1.38.36-1.94l2.12-.13c-.17.54-.35,1.04-.53,1.53l1.67-.48.07.31c.77-.82,1.47-1.79,2.04-2.92-.79-1.72-1.54-3.93-2.27-6.51l-1.26.44-.75-2.12,1.41-.49c-.46-1.77-.92-3.66-1.38-5.69l2.29-.48c.39,1.89.83,3.7,1.28,5.4l3.94-1.39.72,2.1-4.08,1.44c.45,1.55.9,2.98,1.33,4.17.41-1.4.67-2.9.76-4.34l2.05.6ZM61.19,47.28l-.69-3.33,7.3-1.52.69,3.33-7.3,1.52ZM62.81,45.72l3.46-.72-.2-.96-3.46.72.2.96ZM72.62,33.92c-.58-.8-1.71-2.14-2.59-3.07l1.64-1.28c.89.91,2.07,2.15,2.67,2.92l-1.72,1.43Z" style="fill: #fff; stroke-width: 0px;"/>
          <path d="M29.1,64.2c-.08.13-.18.28-.27.41,2.28.86,5.95,1.28,9.01,1.23-.37.54-.85,1.51-1.02,2.14-1.23-.03-2.57-.17-3.88-.37l.11.54-9.56,1.99-.12-.59c-1.1.71-2.31,1.4-3.52,2-.38-.45-1.19-1.18-1.69-1.49,3.71-1.75,7.23-4.08,8.76-6.39l2.19.53ZM31.49,78.76l8.05-1.67.35,1.7-8.05,1.67.14.69c.24,1.13.06,1.67-.71,2.14-.76.46-1.91.72-3.5,1.04-.25-.56-.77-1.28-1.19-1.74,1.02-.17,2.25-.43,2.55-.49.33-.09.44-.2.38-.49l-.13-.63-8.03,1.67-.35-1.7,8.03-1.67-.16-.78-6.75,1.4-.35-1.68,6.75-1.4-.15-.73c-1.98.5-4.01.94-5.9,1.31-.11-.44-.46-1.06-.73-1.42,4.64-.92,10.14-2.28,12.99-3.42l1.89,1.01c-1.63.67-3.65,1.3-5.8,1.88l.18.86,6.9-1.43.35,1.68-6.9,1.43.16.78ZM35.74,72.25l-13.21,2.75-.79-3.78,13.21-2.75.79,3.78ZM32.78,70.44l-8.41,1.75.18.86,8.41-1.75-.18-.86ZM30.61,67.15c-1.09-.28-2.14-.61-3.07-.96-.7.72-1.5,1.43-2.37,2.09l5.43-1.13Z" style="fill: #fff; stroke-width: 0px;"/>
          <path d="M47.19,73.35c-.12-.26-.26-.54-.42-.85-3.88,1.46-4.59,1.83-5,2.16-.2-.42-.77-1.39-1.15-1.95.48-.23.84-.79,1.32-1.74.21-.35.56-1.1.95-2.06-1.55.54-1.99.74-2.27.95-.22-.44-.8-1.41-1.15-1.95.36-.18.59-.65.86-1.34.28-.67,1.02-3.21,1.21-5.53l2.38.4c-.34,1.84-.9,3.86-1.58,5.54l1.43-.41c.34-1.01.65-2.15.88-3.22l2.22.81c-.75,2.5-1.81,5.1-3,7.36l1.98-.7c-.29-.53-.59-1.04-.88-1.5l1.45-.81c.82,1.21,1.79,2.84,2.29,3.86l-1.53.97ZM43.75,75.33c.18,1.71.22,3.78.2,5.08-.51-.13-1.45-.14-1.93-.15.07-1.33-.04-3.27-.21-4.92h1.95ZM45.76,74.37c.56,1.31,1.15,3.02,1.46,4.2l-1.71.84c-.27-1.21-.85-2.95-1.37-4.27l1.61-.77ZM53.36,74.76c-1.03,1.13-2.23,2.32-3.21,3.29l-.92-.86-1.05.65c-.41-1.01-1.23-2.54-1.9-3.67l1.46-.87c.52.83,1.09,1.79,1.53,2.64.86-.79,1.9-1.82,2.95-2.85l1.13,1.67ZM54.89,68.31l1.57,7.57c.23,1.09.16,1.7-.51,2.18-.62.5-1.57.74-2.88.99-.21-.59-.73-1.42-1.15-1.97.82-.15,1.68-.33,1.96-.38.27-.06.32-.13.27-.39l-1.57-7.53-5.01,1.04-.45-2.18,6.88-1.43.02-1.08-6.1,1.27c.2-1.79.3-4.64.3-6.78l2.38-.25c0,.4-.02.84-.04,1.3l3.61-.75.36-.16,1.75-.12c.11,1.9.12,4.15.08,6.09l3.08-.64.45,2.18-4.99,1.04ZM51.06,73.44c-.57-.65-1.74-1.63-2.67-2.33l1.41-1.45c.92.62,2.11,1.53,2.73,2.17l-1.46,1.62ZM54.02,63.18l-.02-1.24-3.52.73-.05,1.26,3.59-.75ZM55.97,71.08c.59-.87,1.39-2.26,1.79-3.19l2.04.85c-.68,1.13-1.47,2.32-2.13,3.13l-1.69-.79ZM57.24,72.05c1.32.56,3.17,1.35,4.12,1.94l-.98,2.02c-.9-.62-2.77-1.52-4.1-2.15l.96-1.82Z" style="fill: #fff; stroke-width: 0px;"/>
          <path d="M72.11,69.57l-9.5,1.98-.39-1.89,3.65-.76-.22-1.05-3.23.67-.39-1.89,3.23-.67-.19-.9-3.27.68-1.64-7.91,8.87-1.84,1.64,7.91-3.4.71.19.9,3.36-.7.39,1.89-3.36.7.22,1.05,3.65-.76.39,1.89ZM63.31,63.67l1.76-.37-.95-4.55-1.76.37.18.88.92-.5c.51.88,1.05,2.08,1.27,2.86l-1.02.58c-.21-.81-.67-1.94-1.15-2.8l.73,3.52ZM62.99,75.93c.39-1.09.56-2.76.54-4.05l1.78.26c0,1.34-.05,3.01-.43,4.14l-1.89-.35ZM67.44,58.07l-1.8.38.71,3.44c.12-.88.22-2.19.2-3.04l1.08.15-.19-.92ZM67.16,71.58c.45,1.11.86,2.58,1.05,3.59l-1.55.52c-.17-1.02-.57-2.51-.97-3.63l1.47-.48ZM68.39,62.62l-.62-2.96c-.16.93-.28,1.92-.43,2.56l-.95-.15.19.92,1.8-.38ZM69.23,71c.6,1.01,1.28,2.36,1.58,3.28l-1.47.63c-.28-.93-.94-2.3-1.55-3.33l1.43-.58ZM76.18,60.76l.67,3.21,3.36-.7,2.01,9.65-2.39.5-.15-.73-3.88.81.17.8-2.27.47-.31-1.47-1.4.93c-.41-.9-1.29-2.18-2.09-3.11l1.36-.83c.8.82,1.66,1.98,2.1,2.82l-1.67-8.05,2.75-.57-2.04-9.82,2.43-.51.89,4.3,4.07-.85.48,2.31-4.07.85ZM78.28,66.03l-3.88.81.91,4.38,3.88-.81-.91-4.38Z" style="fill: #fff; stroke-width: 0px;"/>
        </g>
      </g>
    </g>
  </g>
</svg>