<?xml version="1.0" encoding="UTF-8"?>
<svg xmlns="http://www.w3.org/2000/svg" width="345.5" height="392.47" xmlns:xlink="http://www.w3.org/1999/xlink" viewBox="0 0 345.5 392.47">
  <defs>
    <filter id="drop-shadow-1" filterUnits="userSpaceOnUse">
      <feOffset dx="2.49" dy="2.49"/>
      <feGaussianBlur result="blur" stdDeviation="2.49"/>
      <feFlood flood-color="#1d3537" flood-opacity=".3"/>
      <feComposite in2="blur" operator="in"/>
      <feComposite in="SourceGraphic"/>
    </filter>
    <clipPath id="clippath">
      <rect x="33.84" y="28.37" width="283.44" height="283.44" transform="translate(-16.41 18.76) rotate(-5.84)" style="fill: none; stroke-width: 0px;"/>
    </clipPath>
    <linearGradient id="linear-gradient" x1="-43.13" y1="78.79" x2="-85.51" y2="19.77" gradientTransform="translate(-31.08 9.78) rotate(-6.79)" gradientUnits="userSpaceOnUse">
      <stop offset="0" stop-color="#defbf8"/>
      <stop offset="1" stop-color="#fff"/>
    </linearGradient>
    <linearGradient id="linear-gradient-2" x1="112.49" y1="301.04" x2="112.49" y2="327.7" gradientTransform="translate(5.12 -5.71)" gradientUnits="userSpaceOnUse">
      <stop offset="0" stop-color="#c0f9f3"/>
      <stop offset="1" stop-color="#12a8a8"/>
    </linearGradient>
    <filter id="drop-shadow-2" filterUnits="userSpaceOnUse">
      <feOffset dx="2.49" dy="2.49"/>
      <feGaussianBlur result="blur-2" stdDeviation="2.49"/>
      <feFlood flood-color="#1d3537" flood-opacity=".3"/>
      <feComposite in2="blur-2" operator="in"/>
      <feComposite in="SourceGraphic"/>
    </filter>
    <filter id="drop-shadow-3" filterUnits="userSpaceOnUse">
      <feOffset dx="2.49" dy="2.49"/>
      <feGaussianBlur result="blur-3" stdDeviation=".75"/>
      <feFlood flood-color="#473328" flood-opacity=".3"/>
      <feComposite in2="blur-3" operator="in"/>
      <feComposite in="SourceGraphic"/>
    </filter>
  </defs>
  <g style="isolation: isolate;">
    <g id="_圖層_2" data-name="圖層 2">
      <g id="Leadpage-100">
        <g id="_一般民眾" data-name="一般民眾">
          <g style="filter: url(#drop-shadow-1);">
            <polygon points="345.5 308.48 37.36 341.81 5.45 30.03 315.42 0 345.5 308.48" style="fill: #f4e1d2; stroke-width: 0px;"/>
            <g style="clip-path: url(#clippath);">
              <g>
                <rect x="-127.5" y="22.75" width="457.94" height="297.66" transform="translate(-19.57 13.2) rotate(-6.79)" style="fill: #c0f9f3; stroke-width: 0px;"/>
                <path d="M226.97,53.16s-50.97-27.87-92.78,6.06c-44.44,36.06-23.78,64.21-24.45,100.44-.28,14.82-1.27,41.12-9.63,54.25-10.62,16.67-34.72,31.05-52.96,33.8-25.71,3.87-51.52-1.31-77.28-1.49-23.32-.17-52.19,2.75-73.89,11.44-4.88,1.96-9.61,4.45-13.96,7.44l9.68,81.34,454.73-54.13-29.12-244.6c-36.93-4.07-41.96,23.95-90.35,5.45Z" style="fill: #c0f9f3; stroke-width: 0px;"/>
                <path d="M-143.49,50.86l10.83,91c23.75-9.16,24.6-47.37,47.37-54.25,26.04-7.86,71.63,17.07,87.52-11.21,10.61-18.88,1.17-33.36-8.08-41.93l-137.64,16.38Z" style="fill: url(#linear-gradient); stroke-width: 0px;"/>
                <path d="M9.41,264.98c-4.21-3.71-11.05-3.97-15.53-.6-.54.41-1.12.88-1.79.86-.49-.02-.93-.3-1.38-.48-.93-.36-2.03-.25-2.87.28-.53.33-.97.82-1.55,1.05-.69.26-1.46.12-2.18-.06-2.29-.58-4.52-1.48-6.88-1.59-5.55-.26-10.25,3.84-14.13,7.82-1.04,1.07-2.23,2.22-3.72,2.24-.84,0-1.65-.36-2.49-.35-2.56.02-3.99,3.29-6.5,3.79-1.7.34-3.32-.68-4.93-1.34-5.02-2.05-11.33-.23-14.49,4.17-1.27,1.77-2.52,4.15-4.7,4.11-.61-.01-1.28-.22-1.8.11-.42.27-.59.81-.99,1.12-.96.73-2.2-.36-3.31-.83-1.34-.57-2.95-.13-4.1.76-1.15.89-1.94,2.17-2.62,3.46-1.17,2.22-3,5.41-2.96,7.93,5.03.44,10.79-.89,15.84-1.35,3.19-.29,6.39-.59,9.52-1.27,8.91-1.94,16.82-6.91,25.19-10.53,15.59-6.75,33.05-8.9,47.89-17.15.52-.29,1.11-.73,1.03-1.31-.05-.33-.3-.59-.55-.81Z" style="fill: #38617a; stroke-width: 0px;"/>
                <path d="M153.13,214.62c-28.28,5.03-51.21,41.16-106.78,68.54-37.65,18.54-112.32,37.06-156.58,47.07l1.93,16.2,454.73-54.13-5.42-45.55c-111.38,6.45-155.24-37.93-187.88-32.13Z" style="fill: #12a8a8; stroke-width: 0px;"/>
                <path d="M176.89,263.74c-40.55-10.27-26.59-22.82-20.4-38.66,2.1-5.38,1.81-8.77.5-10.9-1.3.08-2.59.22-3.86.45-28.28,5.03-51.21,41.16-106.78,68.54-37.65,18.54-112.32,37.06-156.58,47.07l1.93,16.2,323.46-38.5c-1.59-17-13.04-37.8-38.27-44.19Z" style="fill: #0a8a8a; stroke-width: 0px;"/>
                <path d="M244.53,73.01l.08.36c.08.15.17.29.28.42l-.36-.78Z" style="fill: #38617a; stroke-width: 0px;"/>
                <path d="M30.69,262.79c-23.35-3.9-106.34,29.05-144.08,40.88l5.09,42.76,454.73-54.13-3.12-26.25c-5.08.6-11.19,1.33-18.56,2.21-43.52,5.18-271.5-1.71-294.06-5.48Z" style="fill: #09959c; stroke-width: 0px;"/>
                <path d="M24.12,277.74c-8.51-6.47-7.86-11.42-5.12-14.75-32.18,4-99.48,30.36-132.39,40.68l5.09,42.76,51.51-6.13c61.04-8.53,121.45-20.58,121.66-29.57.42-17.95-23.88-20.17-40.75-32.99Z" style="fill: #0a8a8a; stroke-width: 0px;"/>
                <rect x="-111.36" y="294.92" width="457.94" height="24.53" transform="translate(-35.49 16.06) rotate(-6.79)" style="fill: url(#linear-gradient-2); stroke-width: 0px;"/>
                <g>
                  <path d="M192.32,195.31c-1.81-.4-3.19-1.84-3.62-3.65-.61-2.52-2.41-4.77-4.88-5.51-3.45-1.03-7.65,1.47-7.97,5.06-.23-5.07-.75-10.74-4.61-14.02-2.6-2.21-6.25-2.82-9.64-2.4-9.63,1.21-17.24,11.17-15.87,20.78-.96-4.89-7.28-7.42-11.85-5.44-4.58,1.98-7.11,7.23-7.07,12.22-.5-2.91-3.83-4.98-6.67-4.14-1.99.59-3.4,2.52-3.66,4.55-.22,1.74-1.41,3.21-3.05,3.84l-15.72,5.98,111.23-13.12c-5.45-.69-11.09-2.92-16.6-4.15Z" style="fill: #fff; stroke-width: 0px;"/>
                  <g>
                    <path d="M178.71,201.61c-.88.21-3.04.71-3.92.92-.18.2.02,1.38.02,1.64.02,1.02.04,2.04.04,3.06,0,1.72.27,5.16-1,6.44-1.16,1.18-4.91,1.36-5.76,3.27-1.6,3.6-.22,11.78-1.1,13.14-.87,1.35-3.53.83-3.49,3.33.07,4.6-.71,9.33-1.21,13.94-.47,4.49-.06,9.95-2.76,14.06-.54.82-1.2,1.59-2.03,2.28-.53.46-1.14.88-1.82,1.27-3.14,1.78-6.68,2.4-10.03,3.73-3,1.18-6.11,2.2-9.13,3.35-4.81,1.85-17.94,2.05-21.31,5.62-1.06,1.13.84,5.57.81,7.32-.15,9.14,5.06,17.84,2.52,21.36-2.18,3.02-2.28,8.52-2.14,12.42l221.16-26.33-9.78-82.14c-7.55-2.04-15.21-3.82-22.96-5.34-40.79-8.01-84.45-13.08-126.13-3.34Z" style="fill: #38617a; stroke-width: 0px;"/>
                    <path d="M180.57,298.35s-.2,7.76-.23,12.79l49.23-5.86-13.84-7.16-28.76-2.21-6.41,2.44Z" style="fill: #274d60; stroke-width: 0px;"/>
                    <path d="M164.71,293.17l5.77-.67,4.27-2.58-1.86-3.81-33.02-2.18-17.06,3.33s.44,9.52-.38,12.59c-.82,3.07-3.9,6.48-3.9,6.48-2.18,3.02-2.28,8.52-2.14,12.42l47.57-5.66.74-19.92Z" style="fill: #274d60; stroke-width: 0px;"/>
                    <path d="M258.8,267.66l-4.53,18.33-.72,8.6s7.71.85,8.56.9c.85.05,6.48-13.51,12.88-18.65,6.41-5.14,5.01-11.71,5.01-11.71l-11.21-2.38-10,4.91Z" style="fill: #274d60; stroke-width: 0px;"/>
                    <path d="M173.49,231.21l.08,30.37-8.53,4.24,29.88,8.04,1.33-3.8.24-.68c2.37-6.65,7.34-12.03,13.75-14.98,6.45-2.97,13.92-7.24,15.22-11.5,2.35-7.75-19.74-13.33-19.74-13.33l-24.91.77-7.32.87Z" style="fill: #274d60; stroke-width: 0px;"/>
                    <path d="M223.09,252.48l-1.45,28.41,7.81,4.06,10.62-1.26s8.45-21.14,12.37-24.4c3.92-3.25,5.58-7.76,5.58-7.76l-14.06-3.42s-16.09-.5-20.87,4.37Z" style="fill: #274d60; stroke-width: 0px;"/>
                    <path d="M175.3,203.02c.07.05.16.09.25.13,5.23,2.35,18.72,1.25,13.51,4.35-5.21,3.1-27.48,8.24-19.14,10.72,8.34,2.49,17.43.91,14.73,4.21-2.7,3.3-18.33,7.15-8.05,10.4,10.29,3.24,51.32,4.81,48.85,10.07-1.13,2.41-2.69,4.45-3.37,6.11-.83,1.98-.42,3.42,3.38,4.32,4.86,1.15,10.35.29,15.28.15,3.21-.09,13.96-1.58,12.34,4.17-.16.57-.44,1.09-.64,1.64-.81,2.17-.35,4.2,1.2,5.85,3.46,3.69,14.85,4.32,20.22,5.1-1.89,3.09.33,6.84,3.79,8.59,3.47,1.74,7.81,2,11.97,2.19,6.41.29,12.82.55,19.24.76,5.19.17,10.44.32,15.36,1.5,4.56,1.09,8.67,3.01,12.84,4.8l-14.22-119.43c-39.35,4.87-79.95,10.23-97.16,13.63-37.42,7.38-54.75,18.12-50.38,20.74Z" style="fill: #58d289; stroke-width: 0px;"/>
                    <path d="M293.76,199.38c-.17-1.87-1.39-3.59-2.97-4.63-4.1-2.72-10.45-1.64-15.13-1.3-5.37.38-10.72,1-16.06,1.67-6.7.85-13.4,1.8-20.07,2.89,0,0-28.45,6.67-40.34,12.37-11.89,5.7-16.23,15.5-6.17,16.01,8.09.41,16.32-1.06,24.35-1.84,3.86-.38,6.24-1.08,9.6.39,3.97,1.73,6.01,3.94,10.89,3.17,9.13-1.44,16.89-6.86,24.81-11.24,4.97-2.75,10.3-4.7,15.69-6.43,4.67-1.5,9.41-2.52,13.12-5.94,1.25-1.15,2.21-2.69,2.3-4.38.01-.24,0-.47-.01-.71Z" style="fill: #58d289; mix-blend-mode: multiply; opacity: .3; stroke-width: 0px;"/>
                    <path d="M259.77,288.16c-1.07-1.84-1.68-4.06-3.82-5.12-1.43-.7-3.22-.72-4.93-.78-12.05-.42-21.69-5.57-33.41-6.67-14.14-1.33-16.69.08-19.1-2.93-2.4-3-1.82-3.88-13.52-4.68-11.69-.8-20.74-2.46-14.13-4.07,6.27-1.52,2.81-5.32-13.76-3.56-.95.1-1.95.21-2.98.36-19.14,2.55-40.7,13.33-38.91,16.95.78,1.56,2.53,2.29,4.3,2.8,2.33.65,4.67.91,4.82,2.14.26,2.16-3.93,4.3.42,6.52,4.37,2.22,49.92-1.83,46.14.8-3.79,2.64-8.52,2.93-5.03,3.62,3.49.68,15.35.08,15.48,1.17.13,1.08-3.03,3.1,1.34,5.59,4.54,2.57,15.6,1.51,20.99,1.7,7.16.25,13.76.56,18.95,4.13l61.28-7.29c-1.1-.22-2.2-.44-3.3-.66-8.17-1.66-17.28-3.88-20.85-9.99Z" style="fill: #58d289; stroke-width: 0px;"/>
                    <path d="M259.77,288.16c-1.07-1.84-1.68-4.06-3.82-5.12-1.43-.7-3.22-.72-4.93-.78-12.05-.42-21.69-5.57-33.41-6.67-14.14-1.33-16.69.08-19.1-2.93-2.4-3-1.82-3.88-13.52-4.68-11.69-.8-20.74-2.46-14.13-4.07,6.27-1.52,2.81-5.32-13.76-3.56-.95.1-1.95.21-2.98.36-4.06.54-8.23,1.46-12.27,2.59-4.1,6.55-7.67,15.46,2.78,15.95,16.62.78,60.54-.59,58.6,6.25-1.94,6.84-10.79,11.2,12.77,10.05,20.11-.98,28.68-7.82,51.41,5.24l16.51-1.97c-1.1-.22-2.2-.44-3.3-.66-8.17-1.66-17.28-3.88-20.85-9.99Z" style="fill: #58d289; mix-blend-mode: multiply; opacity: .3; stroke-width: 0px;"/>
                  </g>
                  <path d="M201.04,95.33c-1.5.07-3.12.1-4.36-.73-1.18-.8-1.77-2.2-2.67-3.31-2.5-3.07-7.67-2.82-10.43-.19-.75.72-1.98.37-2.32-.61-1.43-4.15-4.23-7.87-8.3-9.32-5.04-1.79-11.74,1.5-11.98,6.84-.44-3.04-4.43-4.55-7.25-3.33-2.82,1.21-4.48,4.22-5.19,7.21.07-4.99-1.99-9.82-3.49-14.58-1.5-4.76-4.86-9.21-9.62-10.71-4.63-1.46-9.76.11-13.79,2.81-8.63,5.79-11.15,16.74-9.13,26.93-1.52-3.95-6.38-6.25-10.4-4.92-2.87.95-5.12,4.57-5.76,8.05-.49,2.67-2.15,4.98-4.61,6.14l-14.85,7.02,140.95-16.78c-5.55.25-11.26-.77-16.81-.53Z" style="fill: #fff; stroke-width: 0px;"/>
                  <path d="M274.82,128.88c-1.04-.1-1.9-.86-2.08-1.89-.34-1.93-2.18-3.64-4.21-3.75-2.62-.14-5.03,1.91-5.82,4.41-.32-2.46-2.55-4.52-5.03-4.66-2.47-.14-4.92,1.67-5.51,4.07-1.29-4.98-1.19-10.52-4.09-14.78-2.99-4.39-8.86-6.38-14.05-5.29-5.19,1.09-9.58,4.95-11.91,9.72-2.33,4.77-2.73,10.33-1.76,15.55-1.17-1.86-2.38-3.78-4.08-5.18-1.7-1.4-4.01-2.24-6.13-1.65-2.02.56-3.52,2.33-4.31,4.28-.62,1.54-.86,3.19-1.01,4.85-.08.82-.58,1.53-1.33,1.89-5.4,2.6-10.85,5.59-16.5,7.48l109.35-13.02-21.54-2.04Z" style="fill: #fff; stroke-width: 0px;"/>
                  <g>
                    <path d="M197.15,94.12c.09.81,5.24.03,5.78.23.54.19.12,1.64,1.39,3.16,1.27,1.52,3.55.72,4.19.26.63-.46.22-1.18,1.32-1,1.1.17,3.13.71,3.2.48.07-.23-.28-3.89-.28-3.89,0,0-3.23-1.3-4.69-1.52-1.45-.21-11.05,1.14-10.92,2.29Z" style="fill: #f1cda5; stroke-width: 0px;"/>
                    <path d="M252.97,79.96s-10.97,9.99-21.82,12.3c-10.85,2.3-18.72-.14-18.72-.14,0,0-1.37,3.69-.7,5.32.67,1.63,14.96,5,25.79,1.9,10.82-3.1,22.04-8.34,22.95-10.82.9-2.48.34-10.8-7.5-8.55Z" style="fill: #00b7a9; stroke-width: 0px;"/>
                    <path d="M247.63,93.5c-.44-.21-4.34,2.14-14.75,4.53-8.66,1.99-18.33-.68-21.33-1.63,0,.39.06.74.18,1.03.67,1.63,14.96,5,25.79,1.9,3.97-1.14,7.98-2.56,11.53-4.03-.6-.86-1.21-1.7-1.42-1.8Z" style="fill: #00b7a9; mix-blend-mode: multiply; opacity: .5; stroke-width: 0px;"/>
                    <path d="M255.75,60.37c-4.27-3.71-8.75-3.27-12.79-1.47-4.04,1.81-3.48,8.37-3.48,8.37.08.89.16,1.77.28,2.65.09.68.34,1.46.21,2.12-.16.8-.64,1.65-.94,2.42-.13.34-.26.76-.03,1.05.14.19.4.26.63.28.24.02.48-.01.71.03,1.28.23,1.36,1.63,1.85,2.65.32.67.83,1.88,1.66,2.06,1.15.26,4.06-2.61,5.78-1.91,1.73.7,2.08,2.36,3.26,2.17,1.18-.19,6.77-3.29,6.77-3.29,0,0-1.89-2.33-1.24-4.22.65-1.89,1.62-9.21-2.65-12.92Z" style="fill: #f1cda5; stroke-width: 0px;"/>
                    <path d="M259.83,66.26c.9-.9.78-2.61-.25-3.37-.12-.09-.26-.17-.33-.31-.11-.22-.02-.48.05-.72.26-.87.07-1.87-.49-2.59-.56-.72-1.47-1.15-2.38-1.12.07-.68.11-1.42-.26-2-.35-.55-1.02-.83-1.67-.88-.65-.05-1.3.11-1.94.26-.18-.8-.56-1.66-1.33-1.96-.51-.2-1.08-.11-1.61.05-1.09.32-2.1.89-2.94,1.65-.73-.7-1.84-.96-2.8-.68-.97.29-1.75,1.12-1.98,2.1-.42-.58-1.26-.74-1.93-.49-.67.25-1.16.84-1.46,1.49s-.42,1.36-.54,2.06c-.36-.12-.74-.08-1.08.08-.56.25-1,.81-1.04,1.43-.05,1,.88,1.92,1.88,1.93-.23.73-.45,1.56-.06,2.21.47.77,1.54.87,2.44.81.83-.06,1.65-.18,2.45-.36-.5.64-.04,1.64.69,2,.72.36,1.58.26,2.38.15,0,1.28.94,2.33,1.92,3.02.42.3.27.41.51,0,.13-.22.13-.68.19-.93.27-1.05,1.17-3.53,2.36-1.73.54.82.94,1.78.96,2.77.02.95.07,1.72.86,2.42.65.58,1.59.81,2.44.61.2-.05.39-.12.6-.13.24-.02.48.04.71.08.77.12,1.59.04,2.24-.39.65-.43,1.06-1.24.89-2-.05-.23-.16-.47-.09-.7.09-.3.43-.44.68-.63.49-.37.69-1.04.61-1.64-.09-.61-.42-1.15-.83-1.61-.08-.09-.17-.19-.19-.31-.04-.23.17-.41.33-.58Z" style="fill: #091b21; stroke-width: 0px;"/>
                    <path d="M256.15,199.27s.14,1.66-2.37,2.99c-2.51,1.32-7.69,2.17-7.55,3.84.14,1.66,6.57,1.26,9.73.74,3.16-.52,7.29-.68,7.56-1.37.28-.69-1.12-6.83-1.12-6.83l-6.26.64Z" style="fill: #091b21; stroke-width: 0px;"/>
                    <path d="M275.28,193.95s.31,1.64-2.06,3.21c-2.37,1.56-7.44,2.93-7.13,4.57.31,1.64,6.66.6,9.75-.23,3.09-.83,7.19-1.4,7.39-2.12.2-.72-1.79-6.68-1.79-6.68l-6.16,1.26Z" style="fill: #091b21; stroke-width: 0px;"/>
                    <path d="M275.89,125.56s-15.64.43-16.18,1.21c-.54.78-.45,19.38,1.28,35.65,1.72,16.26,13.68,32.98,13.68,32.98l7.8-2.12s-8.79-19.64-9.86-29.37c-.45-4.11-1.04-8.71,1.13-18.99,2.17-10.28,2.15-19.35,2.15-19.35Z" style="fill: #17303a; stroke-width: 0px;"/>
                    <path d="M253.56,126.79c-1.02.36-3.25,26.16-4,39.38-.76,13.22,5.4,34.68,5.4,34.68,0,0,6.95-.43,7.5-1.21.54-.78-3.12-21.72-1.37-30.28.89-4.36,3.49-8.79,8.82-22.79,5.33-14,5.98-21,5.98-21,0,0-21.31.87-22.33,1.23Z" style="fill: #234556; stroke-width: 0px;"/>
                    <path d="M263.41,144.43c-3.94,11.42-9.43,21.61-8.61,28.57.49,4.1,2.67,17.29,4.38,27.45,1.57-.2,3.02-.47,3.26-.81.54-.78-3.12-21.72-1.37-30.28.89-4.36,3.49-8.79,8.82-22.79,5.33-14,5.98-21,5.98-21,0,0-6.18.25-12.05.54.7,1.7,2.96,8.5-.43,18.32Z" style="fill: #234556; mix-blend-mode: multiply; opacity: .3; stroke-width: 0px;"/>
                    <path d="M258.3,76.63c-1.19,1.27-2.58,2.27-3.88,3.04-3.8,2.25-6.51,5.98-7.36,10.32-.68,3.49-.72,7.54.6,12.2,2.56,9,2.86,24,3.11,26.12.25,2.12,1.28.09,9.03,1.07,7.75.99,16.18-1.21,17.47-2.8,1.3-1.59-2.46-13.55-4.64-24.74-2.18-11.2-10.19-29.64-14.34-25.21Z" style="fill: #00b7a9; stroke-width: 0px;"/>
                    <path d="M258.3,76.63c-1.19,1.27-2.58,2.27-3.88,3.04-.5.3-.99.62-1.45.97.77,6.97,3.63,29.68,8.44,35.06,4.41,4.94,6.32,8.49,4.99,13.84,5.37-.37,9.96-1.82,10.89-2.95,1.3-1.59-2.46-13.55-4.64-24.74-2.18-11.2-10.19-29.64-14.34-25.21Z" style="fill: #00b7a9; mix-blend-mode: multiply; opacity: .5; stroke-width: 0px;"/>
                    <path d="M244.38,117.25c-1.12.27-1.61-.21-3.3.08-1.69.29-3.42.94-3.3,1.54.12.6,1.88-.18,2.53.1.65.28.14,1.53-1.08,2.03-1.22.5-3.87-.25-3.51.55.36.8,2.98,2.03,5.02,2.1,2.04.07,4.65-2.45,5.84-2.86,1.19-.41,3.57-1.53,3.57-1.53l-1.55-3.74s-3.09,1.47-4.21,1.74Z" style="fill: #f1cda5; stroke-width: 0px;"/>
                    <path d="M251.18,98.53l-1.44,1.52s3.41,7.2,19.06,9.08l.46-2.03s-9.68-1-18.08-8.58Z" style="fill: #091b21; stroke-width: 0px;"/>
                    <path d="M245.7,87.58c-1.32,6.58,3.28,14.05,5.03,15.33,1.76,1.27,3.58-1.04,3.8-2.3.22-1.26-6.96-8.68-4.2-15.55,2.76-6.87,14.24-6.2,14.24-6.2l.16-4.02c-13.36-.26-17.72,6.18-19.04,12.75Z" style="fill: #091b21; stroke-width: 0px;"/>
                    <path d="M274.25,76.21c-4.28-1.3-11,2.35-11,2.35,0,0,5.45,10.5,7.02,15.43,1.57,4.92,2.08,25.79,5.38,27.21,3.3,1.42,18.85-2.24,19.89-5.99,1.04-3.75-5.35-22.77-6.97-26.7-1.62-3.93-10.04-11-14.32-12.3Z" style="fill: #091b21; stroke-width: 0px;"/>
                    <polygon points="266.27 109.69 274.77 116.06 273.73 106.82 266.77 106.33 266.27 109.69" style="fill: #102d35; stroke-width: 0px;"/>
                    <path d="M279.6,72.75c-5.49-2.18-13.77.75-15.7,2.31-1.24,1.01-1.26,2.4-1.12,3.26.08.5.42.93.91,1.07,2.68.77,5.79-1.57,11.22-.63,5.91,1.02,10.58,9.87,11.54,10.93.96,1.05,4.32-.18,5.02-1.27.71-1.09-6.39-13.49-11.88-15.67Z" style="fill: #102d35; stroke-width: 0px;"/>
                    <path d="M292.13,96.92c-.81.36-1.25,1.24-1.05,2.1l2.96,12.79c.23.98,1.19,1.59,2.17,1.39,1.64-.34,4.01-.92,5.17-1.61,1.88-1.12-.26-11.62-2.62-14.48-1.62-1.97-4.8-.99-6.63-.19Z" style="fill: #102d35; stroke-width: 0px;"/>
                    <path d="M275.48,93.2c-.85.22-1.49.94-1.58,1.82-.48,4.42,1.49,17.16,3.47,19.23,2.3,2.42,8.94.7,10.94-1.33,2-2.03-.94-18.53-3.38-20.89-.91-.88-6.89.51-9.45,1.18Z" style="fill: #102d35; stroke-width: 0px;"/>
                    <path d="M259.52,80.54c-4.25-1.19-6.49,2.27-6.49,2.27-1.43,6.87,8.31,18.09,7.77,22.36-.54,4.27-14.27,10.11-14.46,11.03s1.73,4.45,2.21,4.69c.48.24,21.05-8.66,21.21-13.64.16-4.98-3.75-24.9-10.24-26.72Z" style="fill: #00b7a9; stroke-width: 0px;"/>
                    <path d="M263.41,110.46c-5.23,3.46-12.57,7.81-15.55,9.55.3.47.56.82.7.89.01,0,.05,0,.09,0,1.68-.32,20.94-8.82,21.1-13.63.05-1.68-.36-5.06-1.17-8.87.07,3.23-.52,8.98-5.17,12.06Z" style="fill: #00b7a9; mix-blend-mode: multiply; opacity: .5; stroke-width: 0px;"/>
                  </g>
                  <g>
                    <g>
                      <path d="M210.95,155.27c-2.25-.02-2.98.7-3.14,1.36s1.04,2.81,1.37,3.7,1.02,1.78,1.89,2.26c.86.47.81,1.46.81,1.46l2.83-.45s.42-2.3-.08-4.03c-.49-1.73-1.43-4.27-3.69-4.3Z" style="fill: #e8b480; stroke-width: 0px;"/>
                      <path d="M227.29,163.6c-2.48.99-6.81,11.66-8.1,11.47-1.29-.19-4.35-12.3-4.35-12.3l-3.75,1.02s2.68,23.52,6.45,23.13c3.76-.39,17.42-18.53,16.97-21.82-.45-3.29-4.74-2.5-7.22-1.51Z" style="fill: #ffc02f; stroke-width: 0px;"/>
                      <g>
                        <g>
                          <g>
                            <path d="M198.23,157.14c-.19.62-.26,1.35-.17,2.13s.36,1.54.71,2.11c.34.53.98.78,1.6.65l3.11-.67-.64-5.35-3.2.08c-.65.02-1.23.44-1.43,1.06Z" style="fill: #32596d; stroke-width: 0px;"/>
                            <path d="M202.85,156.02c-.91.11-1.51,1.38-1.34,2.85.17,1.46,1.06,2.56,1.97,2.45s1.51-1.38,1.34-2.85-1.06-2.56-1.97-2.45Z" style="fill: #234556; stroke-width: 0px;"/>
                          </g>
                          <g>
                            <path d="M202.98,156.28c-.82.1-1.36,1.25-1.21,2.56.16,1.32.95,2.31,1.78,2.21.07,0,.13-.03.19-.05l10.9-2.34-.31-2.63-11.14.26c-.07,0-.13-.02-.2,0Z" style="fill: #32596d; stroke-width: 0px;"/>
                            <path d="M214.32,156.03c-.45.05-.74.68-.66,1.4s.52,1.26.97,1.2.74-.68.66-1.4-.52-1.26-.97-1.21Z" style="fill: #234556; stroke-width: 0px;"/>
                            <ellipse cx="214.47" cy="157.33" rx=".52" ry=".83" transform="translate(-17.09 26.45) rotate(-6.79)" style="fill: #17303a; stroke-width: 0px;"/>
                          </g>
                        </g>
                        <g>
                          <g>
                            <path d="M194.71,157.56c-.19.62-.26,1.35-.17,2.13s.36,1.54.71,2.11c.34.53.98.78,1.6.65l3.11-.67-.64-5.35-3.2.08c-.65.02-1.23.44-1.43,1.06Z" style="fill: #38617a; stroke-width: 0px;"/>
                            <path d="M199.33,156.43c-.91.11-1.51,1.38-1.34,2.85s1.06,2.56,1.97,2.45c.91-.11,1.51-1.38,1.34-2.85s-1.06-2.56-1.97-2.45Z" style="fill: #234556; stroke-width: 0px;"/>
                          </g>
                          <g>
                            <path d="M199.46,156.7c-.82.1-1.36,1.25-1.21,2.56s.95,2.31,1.78,2.21c.07,0,.13-.03.19-.05l10.9-2.34-.31-2.63-11.14.26c-.07,0-.13-.02-.2,0Z" style="fill: #38617a; stroke-width: 0px;"/>
                            <path d="M210.8,156.45c-.45.05-.74.68-.66,1.4s.52,1.26.97,1.2c.45-.05.74-.68.66-1.4s-.52-1.26-.97-1.21Z" style="fill: #234556; stroke-width: 0px;"/>
                            <path d="M210.86,156.92c-.29.03-.47.43-.42.89s.33.8.62.77.47-.43.42-.89-.33-.8-.62-.77Z" style="fill: #17303a; stroke-width: 0px;"/>
                          </g>
                        </g>
                      </g>
                      <path d="M226.84,147.66c-4.04-3.51-8.28-3.1-12.1-1.39-3.82,1.71-3.29,7.92-3.29,7.92,0,0,.29,4.1,1.11,6.7.82,2.6,1.93,5.6,3.02,5.85,1.08.25,3.84-2.47,5.47-1.81,1.63.66,1.96,2.23,3.08,2.05,1.12-.18,6.4-3.11,6.4-3.11,0,0-1.79-2.21-1.18-3.99.61-1.79,1.53-8.71-2.51-12.22Z" style="fill: #f1cda5; stroke-width: 0px;"/>
                      <path d="M226.58,145.97c-.33-.4-1.56-2.72-4.58-3.07-3.02-.35-3.84,1.51-5.14,1.52-1.3,0-2.32-.37-3.39.07-1.07.44-1.08,1.34-2.27,1.72-1.19.37-1.63,1.82-2.59,1.02,0,0-.22,4.38,2.21,5.42,2.43,1.04,3.37-.76,4.49,1.19,1.12,1.95,3.86,4.6,3.83,4.21-.02-.39.9-5.1,2.44-2.77,1.54,2.32.69,4.1.92,4.83.23.73,3.81,1.91,6.02,1.61,2.21-.3,2.96-6.85,1.27-11.23-1.68-4.38-2.9-4.1-3.22-4.5Z" style="fill: #091b21; stroke-width: 0px;"/>
                      <path d="M217.51,205.76s.14,1.62-2.3,2.91c-2.44,1.29-7.49,2.12-7.35,3.74.14,1.62,6.4,1.22,9.48.72,3.08-.51,7.1-.66,7.37-1.34.27-.68-1.09-6.65-1.09-6.65l-6.09.62Z" style="fill: #091b21; stroke-width: 0px;"/>
                      <path d="M232.96,188.32c-1.53-1.1-15.55-10.16-18.09-5.7-2.54,4.47,1.84,23.65,1.84,23.65,0,0,6.74.25,6.84-1.5.1-1.75-1.85-11.13-1.1-11.25.75-.12,12.75,17.76,22.07,16.99,9.32-.76,9.4-9.64,5.88-13.49-3.52-3.85-17.43-8.7-17.43-8.7Z" style="fill: #17303a; stroke-width: 0px;"/>
                      <path d="M202.96,214.98s.14,1.62-2.3,2.91c-2.44,1.29-7.49,2.12-7.35,3.74.14,1.62,6.4,1.22,9.48.72,3.08-.51,7.1-.66,7.37-1.34.27-.68-1.09-6.65-1.09-6.65l-6.09.62Z" style="fill: #091b21; stroke-width: 0px;"/>
                      <path d="M230.16,198.5c-1.44-.71-18.36-15.89-25.35-12.27-6.99,3.62-2.12,28.24-1.85,28.76.28.52,6.54.57,6.79-.23.25-.8-.15-14.39.68-13.96.83.43,17.44,17.24,25.17,15.78,7.73-1.46,8.22-3.14,10.38-3.79,4.16-1.25,7.75-3.8,8.35-5.74,1.49-4.8-.77-11.63-.77-11.63l-23.39,3.09Z" style="fill: #234556; stroke-width: 0px;"/>
                      <path d="M239.66,199.79s-3.5,10.37-9.28,9.75c-5.78-.62-16.96-13.64-21.65-11.94-3.53,1.28-2.48,12.33-1.74,17.74,1.4-.06,2.66-.25,2.77-.59.25-.8-.15-14.39.68-13.96.83.43,17.44,17.24,25.17,15.78,7.73-1.46,8.22-3.14,10.38-3.79,4.16-1.25,7.75-3.8,8.35-5.74,1.13-3.65.09-8.49-.47-10.59-7.45,1.06-14.2,3.34-14.2,3.34Z" style="fill: #203f4c; stroke-width: 0px;"/>
                      <path d="M236.12,162.94c-9.03-4.35-16.3,5.38-16.27,10.41.02,5.03,6.39,9.61,8.04,14.95.73,2.36.64,8.39.89,10.64.35,3.09,2.52,3.02,5.26,2.92,4.6-.16,12.05,8.93,21.53-1.94,0,0-9.34-32.12-19.44-36.99Z" style="fill: #ffd76f; stroke-width: 0px;"/>
                      <path d="M227.87,172s-2.62-2.77-5.88-4.46c-1.37,2-2.15,4.16-2.14,5.81.02,5.03,6.39,9.61,8.04,14.95.73,2.36.64,8.39.89,10.64.35,3.09,2.52,3.02,5.26,2.92,1.15-.04,2.48.5,3.98,1.16-1.03-2.44-3.12-5.34-4.64-8.03-3.1-5.5-5.51-23-5.51-23Z" style="fill: #ffd76f; mix-blend-mode: multiply; opacity: .5; stroke-width: 0px;"/>
                      <path d="M205.76,155.25c-2.42.6-3.27,1.38-3.59,2.67-.32,1.28-.19,2.68.22,3.67.41.99.43,3.9.43,3.9l3.13-.46s-.25-1.99.42-2.7,1.04-1.29.95-2.7c-.09-1.41-.16-2.73.48-3,.65-.27,1.13-.26,1.08-.43-.05-.18-.7-1.56-3.12-.95Z" style="fill: #f1cda5; stroke-width: 0px;"/>
                      <path d="M223.39,177.92s-2.96.11-1.76,3.19c1.2,3.07,10.63,8.26,10.63,8.26l.82-3.07-2.19-1.41c-2.19-1.41-7.5-6.97-7.5-6.97Z" style="fill: #0cbab5; stroke-width: 0px;"/>
                      <path d="M229.7,169.59c-1.31-4.37-5.88-5.44-8.41-1.64-2.86,4.31-9.95,12.28-10.72,12.79-.99.65-4.01-16.05-4.01-16.05,0,0-3.55-.21-4.54.44-.99.65-1.41,21.61,4.17,24.47,5.57,2.85,25.43-13.09,23.56-19.8-.02-.07-.04-.13-.06-.2Z" style="fill: #ffd76f; stroke-width: 0px;"/>
                      <path d="M229.7,169.59c-.4-1.32-1.09-2.34-1.94-3.01-.87,3.52-3.66,10.99-12.23,15.54-6.25,3.31-9.44,4.87-11.41,5.16.58,1.08,1.26,1.89,2.08,2.31,5.57,2.85,25.43-13.09,23.56-19.8-.02-.07-.04-.13-.06-.2Z" style="fill: #ffd76f; mix-blend-mode: multiply; opacity: .5; stroke-width: 0px;"/>
                    </g>
                    <path d="M254.71,165.71c-.35-.67-7.76-9.79-24.08-3.96,0,0-1.17.08.08,4.5,1.26,4.42,4.45,19.74,4.77,24.7.32,4.96,1.22,6.46,3.83,7.4,2.61.94,19.03-2.89,20.05-7.12,1.01-4.23.32-7.81-.58-11.63-.9-3.82-3.72-13.22-4.06-13.89Z" style="fill: #12a8a8; stroke-width: 0px;"/>
                    <path d="M226.74,160.55c-4.45,2.22-3.93,5.8-3.93,5.8,0,0,5.1-4.61,8.32-4.01,3.23.59,5.5-1.94,5.5-1.94,0,0-5.45-2.06-9.89.16Z" style="fill: #09959c; stroke-width: 0px;"/>
                    <path d="M242.2,195.92c-2.88-.27-7.04-27.34-8.19-35.2-1.09.27-2.21.61-3.39,1.03,0,0-1.17.08.08,4.5,1.26,4.42,4.45,19.74,4.77,24.7.32,4.96,1.22,6.46,3.83,7.4,2.35.84,15.81-2.16,19.28-5.84-5.36,1.52-13.8,3.65-16.38,3.41Z" style="fill: #09959c; stroke-width: 0px;"/>
                    <polygon points="231.03 184.04 230.66 189.92 238.53 195.05 236.39 185.07 231.03 184.04" style="fill: #09959c; stroke-width: 0px;"/>
                    <path d="M250.66,157.87c-2.48-.98-12.75,1.34-16.6,2.26-1.07.26-2.11.63-3.07,1.17-.53.29-.73.5-.55.75.32.44,3.2-.58,4.71.97,1.52,1.55,3.01,9.57,4.11,11.02,1.1,1.44,15.18-1.18,16.91-3.43,1.73-2.26-2.44-11.53-5.51-12.74Z" style="fill: #0cbab5; stroke-width: 0px;"/>
                    <path d="M248.14,180.44c-1.28.39-2.07,1.67-1.84,2.99.59,3.36,1.76,9.26,2.83,9.65,1.49.54,11.48-2.62,13.32-4.35,1.85-1.74.62-9-.99-10.6-1.21-1.19-9.33,1.09-13.32,2.31Z" style="fill: #0cbab5; stroke-width: 0px;"/>
                    <path d="M251.87,188.37c-3.33-1.2-2.91-6.63-2.71-8.25-.36.11-.71.21-1.03.31-1.28.39-2.07,1.67-1.84,2.99.59,3.36,1.76,9.26,2.83,9.65,1.49.54,11.48-2.62,13.32-4.35.74-.69.98-2.26.91-4-3.58,1.38-8.64,4.68-11.49,3.65Z" style="fill: #0cbab5; mix-blend-mode: multiply; opacity: .5; stroke-width: 0px;"/>
                  </g>
                </g>
                <g>
                  <path d="M329.6,272.94s-13.26-24.62-29.71-37.56c-16.44-12.94-26.58-5.25-28.37,1.93-1.79,7.18.75,18.42.75,18.42,0,0,2.75-5.13,5.38-13.38,2.62-8.24.41-14.71,11.23-16.72,10.82-2.01,31.4,21.5,40.72,47.3Z" style="fill: #069940; stroke-width: 0px;"/>
                  <path d="M330.74,276.86s-17.67-21.68-36.25-31.29c-18.59-9.61-27.09-.14-27.5,7.25-.4,7.39,4.21,17.94,4.21,17.94,0,0,1.74-5.56,2.76-14.15,1.02-8.59-2.37-14.52,7.88-18.53,10.24-4.01,34.89,15.2,48.9,38.78Z" style="fill: #088537; stroke-width: 0px;"/>
                  <path d="M332.81,277.81s-17.12-21.96-31.41-28.15c-20.47-8.85-23,13.58-21.63,23.12,0,0,7.62-32.74,24.71-25.75,17.09,7,28.34,30.77,28.34,30.77Z" style="fill: #069940; stroke-width: 0px;"/>
                  <path d="M332.05,277.63s-8-15.98-25.29-17.09c-17.29-1.1-18.73,11.49-18.73,11.49,0,0,15.61-20.6,44.02,5.6Z" style="fill: #069940; stroke-width: 0px;"/>
                  <path d="M329.86,276.91s-32.35-32.17-50.6-21.56c-18.25,10.61-8.14,29.3-8.14,29.3,0,0-3.66-26.02,13.02-26.13,16.68-.11,45.71,18.39,45.71,18.39Z" style="fill: #0eb04b; stroke-width: 0px;"/>
                  <path d="M328.16,279.92c-.61-.53-14.05-12.4-22.57-13.07-8.52-.67-8.68,13.79-8.68,13.79,0,0,1.82-11.47,11.8-9.66,9.97,1.81,19.45,8.94,19.45,8.94Z" style="fill: #0eb04b; stroke-width: 0px;"/>
                  <path d="M331.95,286.36s-14.48-18.59-26.58-23.82c-17.32-7.49-19.46,11.49-18.31,19.57,0,0,6.45-27.71,20.91-21.79,14.46,5.92,23.98,26.04,23.98,26.04Z" style="fill: #04c451; stroke-width: 0px;"/>
                  <g>
                    <path d="M332.59,242c1.02.65-2.54-16.93-3.45-15.69-.9,1.24-1.07,4.34-1.72,3.01-.65-1.32-4.64-10.68-5.57-9.27-.93,1.41-1.89,2.98-1.89,2.98,0,0-5.23-6.09-5.46-4.74-.23,1.35-.45,2.7-.45,2.7,0,0-11.12-8.29-11.26-5.36-.14,2.93,6.92,9.5,6.92,9.5,0,0-5.66.61-4.56,1.32,1.1.71,5.86,2.37,5.86,2.37,0,0-3.97.9-2.73,1.8,1.24.9,7.66,1.98,7.66,1.98,0,0-6.14,1.4-3.02,2.45,3.12,1.05,9.54,2.12,9.54,2.12,0,0-4.14,1.91-2.51,2.53,1.63.62,9.66.4,12.64,2.29Z" style="fill: #088537; stroke-width: 0px;"/>
                    <path d="M331.49,240.48s-1.73-11.79-2.38-11.11c-.65.69-1.52,5.26-1.54,5.04-.02-.21-4.13-11.72-4.76-10.5-.63,1.22-.27,7-.47,6.28-.2-.72-5.54-8.99-5.72-7.32-.17,1.67.18,4.59-.17,3.84s-6.96-6.84-6.38-5.26c.58,1.58,6.53,6.61,6.01,6.52-.52-.09-7.02-1.76-5.64-.84,1.38.92,6.87,2.64,6.87,2.64,0,0-7.24.16-5.07.85,2.17.68,8.07,2.15,8.07,2.15,0,0-5.77,1.21-4.01,1.77,1.76.56,9.81,2.18,9.81,2.18,0,0-5.25,1.93-3.02,2.2,2.23.27,6.78-.61,8.38,1.56Z" style="fill: #069940; stroke-width: 0px;"/>
                  </g>
                  <g>
                    <path d="M222.95,303.8c1.02.65-2.54-16.93-3.45-15.69-.9,1.24-1.07,4.34-1.72,3.01-.65-1.32-4.64-10.68-5.57-9.27-.93,1.41-1.89,2.98-1.89,2.98,0,0-5.23-6.09-5.46-4.74-.23,1.35-.45,2.7-.45,2.7,0,0-11.12-8.29-11.26-5.36-.14,2.93,6.92,9.5,6.92,9.5,0,0-5.66.61-4.56,1.32,1.1.71,5.86,2.37,5.86,2.37,0,0-3.97.9-2.73,1.8,1.24.9,7.66,1.98,7.66,1.98,0,0-6.14,1.4-3.02,2.45,3.12,1.05,9.54,2.12,9.54,2.12,0,0-4.14,1.91-2.51,2.53,1.63.62,9.66.4,12.64,2.29Z" style="fill: #088537; stroke-width: 0px;"/>
                    <path d="M221.85,302.28s-1.73-11.79-2.38-11.11c-.65.69-1.52,5.26-1.54,5.04s-4.13-11.72-4.76-10.5c-.63,1.22-.27,7-.47,6.28-.2-.72-5.54-8.99-5.72-7.32-.17,1.67.18,4.59-.17,3.84-.35-.75-6.96-6.84-6.38-5.26.58,1.58,6.53,6.61,6.01,6.52-.52-.09-7.02-1.76-5.64-.84,1.38.92,6.87,2.64,6.87,2.64,0,0-7.24.16-5.07.85,2.17.68,8.07,2.15,8.07,2.15,0,0-5.77,1.21-4.01,1.77,1.76.56,9.81,2.18,9.81,2.18,0,0-5.25,1.93-3.02,2.2,2.23.27,6.78-.61,8.38,1.56Z" style="fill: #069940; stroke-width: 0px;"/>
                  </g>
                  <path d="M329.74,272.53s-3.04-20.84-15.02-34.8c-11.98-13.96-34.28-13.74-34.28-13.74,0,0,21.82-8.98,34.39,6.79,12.57,15.76,14.91,41.75,14.91,41.75Z" style="fill: #04c451; stroke-width: 0px;"/>
                  <g>
                    <path d="M308.51,286.07c2.02-.19-20.8-19.83-20.72-17.26.08,2.57,3.04,6.86.82,5.76-2.22-1.09-17.14-9.39-16.92-6.56.21,2.82.56,5.9.56,5.9,0,0-13.2-2.69-12.11-.66,1.09,2.03,2.18,4.05,2.18,4.05,0,0-23.27.45-20.45,4.48,2.82,4.03,18.95,5.47,18.95,5.47,0,0-6.87,6.64-4.69,6.45,2.18-.19,10.21-2.88,10.21-2.88,0,0-4.34,5.28-1.77,5.2,2.57-.08,12.19-5.26,12.19-5.26,0,0-6.7,8.18-1.48,6.35,5.22-1.83,14.84-7.01,14.84-7.01,0,0-3.53,6.8-.72,5.94s13.22-9.41,19.12-9.97Z" style="fill: #0eb04b; stroke-width: 0px;"/>
                    <path d="M305.5,285.19s-14.44-13.86-14.59-12.28c-.15,1.58,3.4,8.54,3.16,8.27-.24-.27-17.54-11.29-17.12-9.02.42,2.26,6.85,9.57,5.84,8.81-1-.75-16.6-6.21-15.11-3.82,1.49,2.39,4.97,5.9,3.73,5.27-1.24-.63-16.27-1.9-13.87-.4s15.45,2.05,14.68,2.46c-.77.42-11.12,4.89-8.34,4.69,2.78-.2,11.83-3.58,11.83-3.58,0,0-9.43,7.67-5.85,6.34,3.57-1.33,12.91-5.46,12.91-5.46,0,0-6.41,7.54-3.5,6.47,2.91-1.07,15.25-7.22,15.25-7.22,0,0-4.98,7.96-1.74,6.02,3.24-1.94,8.36-7.79,12.72-6.55Z" style="fill: #069940; stroke-width: 0px;"/>
                  </g>
                  <g>
                    <path d="M262.12,300.78c.52,1.09,6.9-15.67,5.48-15.1-1.42.56-3.23,3.09-3.06,1.62s1.79-11.5.25-10.81c-1.54.69-3.19,1.51-3.19,1.51,0,0-1.17-7.94-2.08-6.92-.91,1.02-1.83,2.04-1.83,2.04,0,0-4.96-12.95-6.65-10.55-1.69,2.4.77,11.73.77,11.73,0,0-5.11-2.51-4.56-1.33.55,1.18,3.68,5.13,3.68,5.13,0,0-3.84-1.37-3.27.06.56,1.42,5.41,5.77,5.41,5.77,0,0-5.94-2.1-3.86.46,2.08,2.55,6.93,6.9,6.93,6.9,0,0-4.52-.6-3.47.8,1.05,1.4,7.95,5.51,9.46,8.7Z" style="fill: #088537; stroke-width: 0px;"/>
                    <path d="M262.01,298.91s4.84-10.89,3.93-10.66c-.91.24-4.09,3.63-3.99,3.44.1-.19,2.78-12.11,1.59-11.42-1.18.69-3.98,5.77-3.76,5.06s.12-10.56-.92-9.24c-1.04,1.32-2.3,3.98-2.2,3.16.1-.82-2.23-9.5-2.58-7.86-.35,1.65,1.98,9.07,1.59,8.72-.39-.35-4.99-5.24-4.32-3.72.68,1.52,4.4,5.9,4.4,5.9,0,0-6.2-3.73-4.74-2,1.47,1.73,5.67,6.13,5.67,6.13,0,0-5.52-2.07-4.33-.65,1.19,1.42,7.13,7.09,7.13,7.09,0,0-5.47-1.18-3.73.24,1.74,1.42,6.06,3.11,6.24,5.8Z" style="fill: #069940; stroke-width: 0px;"/>
                  </g>
                  <g>
                    <path d="M320.6,286.7s-24.08-29.96-43.16-34.9c-19.08-4.94-25.63-.67-25.63-.67,0,0,15.71-3.08,33.55,5.9,17.84,8.98,33.8,31.33,33.8,31.33l1.45-1.66Z" style="fill: #088537; stroke-width: 0px;"/>
                    <g>
                      <path d="M253.83,247.8s3.08-5.23.38-5.58c-2.7-.35-2.96,5.04-2.96,5.04,0,0-1.93-5.25-4.36-3.91-2.43,1.34,2.5,5.74,2.5,5.74,0,0-7.08-.12-5.62,2.25,1.46,2.37,5.84,1.01,5.84,1.01,0,0-3.19,7.05.44,6.89,3.63-.16,3.14-5.8,3.14-5.8,0,0,6.38,4.64,6.16,2.01-.21-2.63-5-4.71-4.62-4.72.38,0,8.76-1.84,5.6-4.5s-6.5,1.57-6.5,1.57Z" style="fill: #ffd76f; stroke-width: 0px;"/>
                      <path d="M252.83,248.65s1.67-4.03.55-3.78c-1.13.24-1.79,4.03-1.83,3.8-.04-.23-1.2-2.91-2.04-1.81s1.39,2.87,1.27,2.87c-.12,0-6.08-.64-4.66,1.02,1.42,1.66,4.76.46,4.76.46,0,0-2.13,4.81-.19,4.56,1.95-.25,1.75-3.91,1.75-3.91,0,0,4.4,4.16,4.19,2.41-.21-1.75-3.26-3.2-3.07-3.28.19-.08,6.1-1.62,4.14-2.57s-4.87.24-4.87.24Z" style="fill: #ebb329; stroke-width: 0px;"/>
                    </g>
                  </g>
                  <g>
                    <path d="M320.46,298.27s-11.94-36.54-28.05-47.9c-16.11-11.36-23.74-9.68-23.74-9.68,0,0,15.78,2.67,29.3,17.37,13.52,14.7,20.55,41.25,20.55,41.25l1.94-1.04Z" style="fill: #088537; stroke-width: 0px;"/>
                    <g>
                      <path d="M271.73,238.29s4.73-3.81,2.33-5.09c-2.4-1.28-4.55,3.67-4.55,3.67,0,0,.05-5.59-2.7-5.2-2.75.39.31,6.25.31,6.25,0,0-6.58-2.61-6.05.12.53,2.73,5.11,3.01,5.11,3.01,0,0-5.48,5.47-2.02,6.6,3.46,1.13,4.99-4.31,4.99-4.31,0,0,4.33,6.59,5.05,4.06.73-2.54-3.01-6.18-2.66-6.05.35.13,8.84,1.37,6.83-2.24-2.01-3.61-6.64-.83-6.64-.83Z" style="fill: #ffd76f; stroke-width: 0px;"/>
                      <path d="M270.5,238.74s2.99-3.18,1.85-3.35c-1.14-.17-3.1,3.14-3.06,2.9.04-.23-.09-3.14-1.27-2.42-1.18.73.29,3.18.18,3.14-.11-.04-5.46-2.75-4.72-.69.74,2.06,4.29,2.11,4.29,2.11,0,0-3.7,3.75-1.79,4.2,1.91.45,3.02-3.04,3.02-3.04,0,0,2.65,5.45,3.07,3.74.42-1.71-1.92-4.15-1.71-4.15.21,0,6.28.64,4.78-.94-1.49-1.58-4.64-1.49-4.64-1.49Z" style="fill: #ebb329; stroke-width: 0px;"/>
                    </g>
                  </g>
                  <g>
                    <path d="M322.42,276.05s-11.94-36.54-28.05-47.9c-16.11-11.36-23.74-9.68-23.74-9.68,0,0,15.78,2.67,29.3,17.37,13.52,14.7,20.55,41.25,20.55,41.25l1.94-1.04Z" style="fill: #088537; stroke-width: 0px;"/>
                    <g>
                      <path d="M273.69,216.07s4.73-3.81,2.33-5.09c-2.4-1.28-4.55,3.67-4.55,3.67,0,0,.05-5.59-2.7-5.2-2.75.39.31,6.25.31,6.25,0,0-6.58-2.61-6.05.12.53,2.73,5.11,3.01,5.11,3.01,0,0-5.48,5.47-2.02,6.6,3.46,1.13,4.99-4.31,4.99-4.31,0,0,4.33,6.59,5.05,4.06.73-2.54-3.01-6.18-2.66-6.05.35.13,8.84,1.37,6.83-2.24-2.01-3.61-6.64-.83-6.64-.83Z" style="fill: #ffd76f; stroke-width: 0px;"/>
                      <path d="M272.45,216.51s2.99-3.18,1.85-3.35c-1.14-.17-3.1,3.14-3.06,2.9s-.09-3.14-1.27-2.42c-1.18.73.29,3.18.18,3.14-.11-.04-5.46-2.75-4.72-.69.74,2.06,4.29,2.11,4.29,2.11,0,0-3.7,3.75-1.79,4.2,1.91.45,3.02-3.04,3.02-3.04,0,0,2.65,5.45,3.07,3.74.42-1.71-1.92-4.15-1.71-4.15.21,0,6.28.64,4.78-.94-1.49-1.58-4.64-1.49-4.64-1.49Z" style="fill: #ebb329; stroke-width: 0px;"/>
                    </g>
                  </g>
                  <g>
                    <path d="M278.03,309.14s-21.02-26.14-37.67-30.45c-16.65-4.31-22.36-.58-22.36-.58,0,0,13.71-2.69,29.27,5.14,15.57,7.83,29.49,27.34,29.49,27.34l1.26-1.45Z" style="fill: #088537; stroke-width: 0px;"/>
                    <g>
                      <path d="M219.76,275.2s2.69-4.57.34-4.87c-2.35-.31-2.58,4.4-2.58,4.4,0,0-1.69-4.58-3.81-3.41-2.12,1.17,2.18,5.01,2.18,5.01,0,0-6.18-.1-4.9,1.96,1.28,2.07,5.09.88,5.09.88,0,0-2.78,6.15.39,6.01s2.74-5.06,2.74-5.06c0,0,5.56,4.05,5.38,1.75-.19-2.3-4.36-4.11-4.03-4.12.33,0,7.64-1.61,4.88-3.93-2.76-2.32-5.67,1.37-5.67,1.37Z" style="fill: #ffd76f; stroke-width: 0px;"/>
                      <path d="M218.89,275.94s1.46-3.52.48-3.3c-.98.21-1.56,3.52-1.6,3.31-.04-.2-1.04-2.54-1.78-1.58-.74.96,1.21,2.5,1.11,2.5s-5.31-.56-4.07.89c1.24,1.45,4.15.4,4.15.4,0,0-1.86,4.2-.17,3.98,1.7-.22,1.53-3.41,1.53-3.41,0,0,3.84,3.63,3.66,2.11-.18-1.53-2.85-2.79-2.68-2.86.17-.07,5.32-1.41,3.61-2.24-1.71-.83-4.25.21-4.25.21Z" style="fill: #ebb329; stroke-width: 0px;"/>
                    </g>
                  </g>
                  <g>
                    <path d="M258.83,303.02s-10.42-31.88-24.48-41.8c-14.05-9.91-20.72-8.44-20.72-8.44,0,0,13.77,2.33,25.57,15.15,11.8,12.83,17.93,36,17.93,36l1.69-.91Z" style="fill: #088537; stroke-width: 0px;"/>
                    <g>
                      <path d="M216.31,250.68s4.13-3.32,2.03-4.44c-2.09-1.12-3.97,3.2-3.97,3.2,0,0,.04-4.88-2.36-4.53-2.4.34.27,5.46.27,5.46,0,0-5.75-2.28-5.28.1.47,2.38,4.46,2.62,4.46,2.62,0,0-4.78,4.77-1.76,5.76s4.35-3.76,4.35-3.76c0,0,3.77,5.75,4.41,3.54.64-2.21-2.63-5.39-2.32-5.28.31.11,7.72,1.2,5.96-1.95-1.76-3.15-5.79-.73-5.79-.73Z" style="fill: #ffd76f; stroke-width: 0px;"/>
                      <path d="M215.23,251.07s2.61-2.77,1.61-2.92c-1-.15-2.7,2.74-2.67,2.53.04-.2-.08-2.74-1.11-2.11-1.03.64.25,2.77.16,2.74-.1-.04-4.77-2.4-4.12-.61.65,1.79,3.74,1.84,3.74,1.84,0,0-3.23,3.27-1.56,3.66,1.67.39,2.64-2.65,2.64-2.65,0,0,2.31,4.76,2.68,3.26s-1.68-3.62-1.49-3.62c.18,0,5.48.56,4.17-.82-1.3-1.38-4.05-1.3-4.05-1.3Z" style="fill: #ebb329; stroke-width: 0px;"/>
                    </g>
                  </g>
                  <g>
                    <path d="M327.16,259.96s.29-33.54-9.87-47.42c-10.16-13.88-16.94-14.61-16.94-14.61,0,0,12.31,6.6,19.4,22.52,7.09,15.92,5.51,39.83,5.51,39.83l1.9-.32Z" style="fill: #088537; stroke-width: 0px;"/>
                    <g>
                      <path d="M303.56,196.79s4.97-1.83,3.34-3.56c-1.63-1.73-4.78,1.77-4.78,1.77,0,0,1.59-4.61-.79-5.05-2.38-.44-1.48,5.26-1.48,5.26,0,0-4.72-3.99-5.04-1.59-.32,2.41,3.39,3.91,3.39,3.91,0,0-6.05,3-3.51,4.9,2.54,1.9,5.32-2.18,5.32-2.18,0,0,1.74,6.66,3.05,4.76,1.31-1.89-.77-5.95-.51-5.74.26.21,6.93,3.6,6.27.05-.66-3.55-5.26-2.53-5.26-2.53Z" style="fill: #ffd76f; stroke-width: 0px;"/>
                      <path d="M302.41,196.81s3.36-1.8,2.46-2.25c-.9-.46-3.44,1.73-3.34,1.55.1-.18.8-2.63-.38-2.35-1.18.27-.65,2.71-.73,2.64s-3.75-3.79-3.71-1.89c.04,1.91,2.96,2.94,2.96,2.94,0,0-4.1,2.07-2.65,2.97,1.45.9,3.35-1.67,3.35-1.67,0,0,.67,5.25,1.5,3.95.82-1.3-.44-3.97-.26-3.91.18.05,5.01,2.28,4.22.55-.79-1.73-3.42-2.53-3.42-2.53Z" style="fill: #ebb329; stroke-width: 0px;"/>
                    </g>
                  </g>
                  <g>
                    <path d="M266.37,312.86s-10.42-31.88-24.48-41.8c-14.05-9.91-20.72-8.44-20.72-8.44,0,0,13.77,2.33,25.57,15.15,11.8,12.83,17.93,36,17.93,36l1.69-.91Z" style="fill: #088537; stroke-width: 0px;"/>
                    <g>
                      <path d="M223.85,260.52s4.13-3.32,2.03-4.44c-2.09-1.12-3.97,3.2-3.97,3.2,0,0,.04-4.88-2.36-4.53-2.4.34.27,5.46.27,5.46,0,0-5.75-2.28-5.28.1.47,2.38,4.46,2.62,4.46,2.62,0,0-4.78,4.77-1.76,5.76s4.35-3.76,4.35-3.76c0,0,3.77,5.75,4.41,3.54.64-2.21-2.63-5.39-2.32-5.28.31.11,7.72,1.2,5.96-1.95-1.76-3.15-5.79-.73-5.79-.73Z" style="fill: #ffd76f; stroke-width: 0px;"/>
                      <path d="M222.77,260.91s2.61-2.77,1.61-2.92c-1-.15-2.7,2.74-2.67,2.53.04-.2-.08-2.74-1.11-2.11-1.03.64.25,2.77.16,2.74-.1-.04-4.77-2.4-4.12-.61.65,1.79,3.74,1.84,3.74,1.84,0,0-3.23,3.27-1.56,3.66,1.67.39,2.64-2.65,2.64-2.65,0,0,2.31,4.76,2.68,3.26.37-1.49-1.68-3.62-1.49-3.62.18,0,5.48.56,4.17-.82-1.3-1.38-4.05-1.3-4.05-1.3Z" style="fill: #ebb329; stroke-width: 0px;"/>
                    </g>
                  </g>
                  <g>
                    <path d="M309.99,286.4c.94,1.15-21-.67-19.62-1.95,1.38-1.28,5.13-1.93,3.42-2.53s-13.68-4.12-12.1-5.45c1.58-1.34,3.36-2.73,3.36-2.73,0,0-8.17-5.5-6.56-5.97,1.61-.47,3.23-.94,3.23-.94,0,0-11.7-12.35-8.15-12.95,3.55-.6,12.57,7.07,12.57,7.07,0,0-.07-6.99.95-5.75,1.02,1.24,3.73,6.79,3.73,6.79,0,0,.52-4.97,1.8-3.59,1.28,1.38,3.51,9.05,3.51,9.05,0,0,.83-7.68,2.55-4.03,1.72,3.66,3.96,11.33,3.96,11.33,0,0,1.73-5.32,2.73-3.42.99,1.9,1.88,11.71,4.61,15.08Z" style="fill: #04c451; stroke-width: 0px;"/>
                    <path d="M307.98,285.29s-14.62-.42-13.88-1.3c.74-.89,6.19-2.61,5.93-2.6-.26.01-14.88-3.35-13.48-4.29,1.4-.94,8.5-1.34,7.59-1.48-.91-.14-11.75-5.46-9.74-5.92,2.01-.45,5.62-.43,4.66-.76-.96-.32-9.34-7.5-7.32-7.02,2.01.48,8.99,7,8.81,6.39s-3.15-8.3-1.83-6.75c1.32,1.55,4.2,8,4.2,8,0,0-.84-8.84.3-6.3,1.14,2.54,3.78,9.52,3.78,9.52,0,0,.64-7.2,1.58-5.14.94,2.07,4.06,11.65,4.06,11.65,0,0,1.6-6.68,2.24-3.99.65,2.68.23,8.35,3.11,9.99Z" style="fill: #0eb04b; stroke-width: 0px;"/>
                  </g>
                  <g>
                    <path d="M318.33,293.69c.21,1.47-17.7-11.31-15.86-11.71,1.84-.39,5.4.96,4.24-.42-1.16-1.39-9.65-10.53-7.61-10.87,2.04-.34,4.29-.63,4.29-.63,0,0-4.21-8.91-2.58-8.49,1.63.42,3.26.84,3.26.84,0,0-3.73-16.6-.38-15.3,3.35,1.3,7.19,12.5,7.19,12.5,0,0,3.52-6.04,3.76-4.45.24,1.58-.27,7.75-.27,7.75,0,0,2.99-4,3.38-2.16.39,1.84-1.61,9.57-1.61,9.57,0,0,4.64-6.18,4.25-2.16-.39,4.02-2.39,11.76-2.39,11.76,0,0,4.21-3.69,4.09-1.55-.12,2.14-4.38,11.03-3.75,15.31Z" style="fill: #04c451; stroke-width: 0px;"/>
                    <path d="M317.18,291.71s-12.35-7.84-11.26-8.22,6.65.93,6.42.8c-.23-.13-11.07-10.49-9.39-10.58,1.68-.09,7.99,3.19,7.28,2.61-.71-.58-7.3-10.7-5.35-10.07,1.96.64,5.05,2.5,4.39,1.73-.66-.77-4.18-11.22-2.7-9.78,1.48,1.44,4.14,10.62,4.3,9.99.16-.62,1.54-8.75,1.88-6.74.34,2.01-.48,9.02-.48,9.02,0,0,3.8-8.03,3.48-5.26-.32,2.77-1.63,10.12-1.63,10.12,0,0,4.24-5.86,3.98-3.61-.25,2.25-2.47,12.09-2.47,12.09,0,0,4.79-4.92,3.97-2.29-.82,2.64-4.08,7.29-2.44,10.17Z" style="fill: #0eb04b; stroke-width: 0px;"/>
                  </g>
                  <g>
                    <path d="M265.94,295.9c1,.59-15.52,5.28-14.86,3.96.66-1.31,3.22-2.82,1.8-2.79-1.41.03-11.12.75-10.33-.66.79-1.41,1.71-2.92,1.71-2.92,0,0-7.48-1.77-6.43-2.56,1.05-.79,2.1-1.57,2.1-1.57,0,0-11.94-5.81-9.51-7.22,2.43-1.41,11.12,1.71,11.12,1.71,0,0-1.97-5.08-.88-4.46,1.08.62,4.59,3.94,4.59,3.94,0,0-.98-3.77.33-3.12,1.31.66,5.05,5.64,5.05,5.64,0,0-1.51-5.84.76-3.64,2.26,2.2,6,7.19,6,7.19,0,0-.2-4.36,1.05-3.25,1.25,1.12,4.59,8.04,7.51,9.74Z" style="fill: #04c451; stroke-width: 0px;"/>
                    <path d="M264.17,295.63s-10.79,3.71-10.49,2.86c.3-.85,3.81-3.6,3.61-3.52s-11.78,1.64-11.02.57c.76-1.07,5.84-3.31,5.14-3.16-.7.15-10.08-.76-8.74-1.64,1.34-.88,3.98-1.86,3.19-1.83-.79.03-8.88-2.92-7.28-3.12,1.6-.2,8.49,2.65,8.19,2.25-.3-.4-4.58-5.2-3.19-4.43,1.39.77,5.26,4.69,5.26,4.69,0,0-3.04-6.23-1.51-4.69,1.53,1.54,5.37,5.92,5.37,5.92,0,0-1.51-5.44-.26-4.18,1.25,1.25,6.16,7.39,6.16,7.39,0,0-.67-5.32.54-3.53s2.46,6.04,5.01,6.44Z" style="fill: #0eb04b; stroke-width: 0px;"/>
                  </g>
                </g>
                <rect x="-127.5" y="22.75" width="457.94" height="297.66" transform="translate(-19.57 13.2) rotate(-6.79)" style="fill: none; stroke-width: 0px;"/>
                <g>
                  <path d="M1.4,306.42c-.33-.42-.88-1.12-1.46-1.87.54-.17.9-.43.58-.84-.31-.39-.86-1.09-1.4-1.8.5-.13.88-.35.59-.71-.46-.59-1.59-2.04-2.14-2.76-.15-.19-.45-.16-.54.06-.37.83-1.12,2.51-1.44,3.19-.19.42.23.54.74.55-.37.81-.73,1.62-.94,2.08-.22.47.19.64.76.68-.39.86-.76,1.68-.98,2.16-.64,1.39,3.24.63,3.24.63,0,0,3.95-.17,3-1.37Z" style="fill: #38617a; stroke-width: 0px;"/>
                  <g>
                    <path d="M19.16,304.31c-.33-.42-.88-1.12-1.46-1.87.54-.17.9-.43.58-.84-.31-.39-.86-1.09-1.4-1.8.5-.13.88-.35.59-.71-.46-.59-1.59-2.04-2.14-2.76-.15-.19-.45-.16-.54.06-.37.83-1.12,2.51-1.44,3.19-.19.42.23.54.74.55-.37.81-.73,1.62-.94,2.08-.22.47.19.64.76.68-.39.86-.76,1.68-.98,2.16-.64,1.39,3.24.63,3.24.63,0,0,3.95-.17,3-1.37Z" style="fill: #38617a; stroke-width: 0px;"/>
                    <rect x="15.52" y="305.15" width="1.59" height="1.74" transform="translate(-36.06 4.07) rotate(-6.79)" style="fill: #38617a; stroke-width: 0px;"/>
                  </g>
                  <g>
                    <path d="M60.02,299.44c-.33-.42-.88-1.12-1.46-1.87.54-.17.9-.43.58-.84-.31-.39-.86-1.09-1.4-1.8.5-.13.88-.35.59-.71-.46-.59-1.59-2.04-2.14-2.76-.15-.19-.45-.16-.54.06-.37.83-1.12,2.51-1.44,3.19-.19.42.23.54.74.55-.37.81-.73,1.62-.94,2.08-.22.47.19.64.76.68-.39.86-.76,1.68-.98,2.16-.64,1.39,3.24.63,3.24.63,0,0,3.95-.17,3-1.37Z" style="fill: #38617a; stroke-width: 0px;"/>
                    <rect x="56.37" y="300.28" width="1.59" height="1.74" transform="translate(-35.2 8.87) rotate(-6.79)" style="fill: #38617a; stroke-width: 0px;"/>
                  </g>
                  <g>
                    <path d="M36.93,302.19c-.33-.42-.88-1.12-1.46-1.87.54-.17.9-.43.58-.84-.31-.39-.86-1.09-1.4-1.8.5-.13.88-.35.59-.71-.46-.59-1.59-2.04-2.14-2.76-.15-.19-.45-.16-.54.06-.37.83-1.12,2.51-1.44,3.19-.19.42.23.54.74.55-.37.81-.73,1.62-.94,2.08-.22.47.19.64.76.68-.39.86-.76,1.68-.98,2.16-.64,1.39,3.24.63,3.24.63,0,0,3.95-.17,3-1.37Z" style="fill: #38617a; stroke-width: 0px;"/>
                    <rect x="33.28" y="303.03" width="1.59" height="1.74" transform="translate(-35.68 6.16) rotate(-6.79)" style="fill: #38617a; stroke-width: 0px;"/>
                  </g>
                  <g>
                    <path d="M54.7,300.08c-.33-.42-.88-1.12-1.46-1.87.54-.17.9-.43.58-.84-.31-.39-.86-1.09-1.4-1.8.5-.13.88-.35.59-.71-.46-.59-1.59-2.04-2.14-2.76-.15-.19-.45-.16-.54.06-.37.83-1.12,2.51-1.44,3.19-.19.42.23.54.74.55-.37.81-.73,1.62-.94,2.08-.22.47.19.64.76.68-.39.86-.76,1.68-.98,2.16-.64,1.39,3.24.63,3.24.63,0,0,3.95-.17,3-1.37Z" style="fill: #38617a; stroke-width: 0px;"/>
                    <rect x="51.05" y="300.92" width="1.59" height="1.74" transform="translate(-35.31 8.24) rotate(-6.79)" style="fill: #38617a; stroke-width: 0px;"/>
                  </g>
                  <g>
                    <path d="M66.78,298.64c-.33-.42-.88-1.12-1.46-1.87.54-.17.9-.43.58-.84-.31-.39-.86-1.09-1.4-1.8.5-.13.88-.35.59-.71-.46-.59-1.59-2.04-2.14-2.76-.15-.19-.45-.16-.54.06-.37.83-1.12,2.51-1.44,3.19-.19.42.23.54.74.55-.37.81-.73,1.62-.94,2.08-.22.47.19.64.76.68-.39.86-.76,1.68-.98,2.16-.64,1.39,3.24.63,3.24.63,0,0,3.95-.17,3-1.37Z" style="fill: #38617a; stroke-width: 0px;"/>
                    <rect x="63.13" y="299.48" width="1.59" height="1.74" transform="translate(-35.05 9.66) rotate(-6.79)" style="fill: #38617a; stroke-width: 0px;"/>
                  </g>
                  <g>
                    <path d="M78.86,297.2c-.33-.42-.88-1.12-1.46-1.87.54-.17.9-.43.58-.84-.31-.39-.86-1.09-1.4-1.8.5-.13.88-.35.59-.71-.46-.59-1.59-2.04-2.14-2.76-.15-.19-.45-.16-.54.06-.37.83-1.12,2.51-1.44,3.19-.19.42.23.54.74.55-.37.81-.73,1.62-.94,2.08-.22.47.19.64.76.68-.39.86-.76,1.68-.98,2.16-.64,1.39,3.24.63,3.24.63,0,0,3.95-.17,3-1.37Z" style="fill: #38617a; stroke-width: 0px;"/>
                    <rect x="75.22" y="298.04" width="1.59" height="1.74" transform="translate(-34.8 11.08) rotate(-6.79)" style="fill: #38617a; stroke-width: 0px;"/>
                  </g>
                  <g>
                    <path d="M90.94,295.76c-.33-.42-.88-1.12-1.46-1.87.54-.17.9-.43.58-.84-.31-.39-.86-1.09-1.4-1.8.5-.13.88-.35.59-.71-.46-.59-1.59-2.04-2.14-2.76-.15-.19-.45-.16-.54.06-.37.83-1.12,2.51-1.44,3.19-.19.42.23.54.74.55-.37.81-.73,1.62-.94,2.08-.22.47.19.64.76.68-.39.86-.76,1.68-.98,2.16-.64,1.39,3.24.63,3.24.63,0,0,3.95-.17,3-1.37Z" style="fill: #38617a; stroke-width: 0px;"/>
                    <rect x="87.3" y="296.6" width="1.59" height="1.74" transform="translate(-34.54 12.5) rotate(-6.79)" style="fill: #38617a; stroke-width: 0px;"/>
                  </g>
                  <g>
                    <path d="M103.03,294.32c-.33-.42-.88-1.12-1.46-1.87.54-.17.9-.43.58-.84-.31-.39-.86-1.09-1.4-1.8.5-.13.88-.35.59-.71-.46-.59-1.59-2.04-2.14-2.76-.15-.19-.45-.16-.54.06-.37.83-1.12,2.51-1.44,3.19-.19.42.23.54.74.55-.37.81-.73,1.62-.94,2.08-.22.47.19.64.76.68-.39.86-.76,1.68-.98,2.16-.64,1.39,3.24.63,3.24.63,0,0,3.95-.17,3-1.37Z" style="fill: #38617a; stroke-width: 0px;"/>
                    <rect x="99.38" y="295.17" width="1.59" height="1.74" transform="translate(-34.29 13.92) rotate(-6.79)" style="fill: #38617a; stroke-width: 0px;"/>
                  </g>
                  <g>
                    <path d="M115.11,292.89c-.33-.42-.88-1.12-1.46-1.87.54-.17.9-.43.58-.84-.31-.39-.86-1.09-1.4-1.8.5-.13.88-.35.59-.71-.46-.59-1.59-2.04-2.14-2.76-.15-.19-.45-.16-.54.06-.37.83-1.12,2.51-1.44,3.19-.19.42.23.54.74.55-.37.81-.73,1.62-.94,2.08-.22.47.19.64.76.68-.39.86-.76,1.68-.98,2.16-.64,1.39,3.24.63,3.24.63,0,0,3.95-.17,3-1.37Z" style="fill: #38617a; stroke-width: 0px;"/>
                    <rect x="111.46" y="293.73" width="1.59" height="1.74" transform="translate(-34.04 15.33) rotate(-6.79)" style="fill: #38617a; stroke-width: 0px;"/>
                  </g>
                  <g>
                    <path d="M5.77,306.37c-.26-.33-.69-.89-1.15-1.47.42-.13.71-.34.45-.66-.24-.31-.68-.86-1.11-1.42.39-.1.69-.28.47-.56-.37-.46-1.25-1.61-1.69-2.18-.12-.15-.35-.12-.43.05-.29.66-.89,1.98-1.13,2.51-.15.33.18.43.59.44-.29.64-.58,1.28-.74,1.64-.17.37.15.51.6.54-.31.68-.6,1.32-.77,1.7-.51,1.1,2.56.49,2.56.49,0,0,3.12-.13,2.37-1.08Z" style="fill: #38617a; stroke-width: 0px;"/>
                    <rect x="2.89" y="307.04" width="1.26" height="1.37" transform="translate(-36.35 2.57) rotate(-6.79)" style="fill: #38617a; stroke-width: 0px;"/>
                  </g>
                  <g>
                    <path d="M23.4,304.28c-.26-.33-.69-.89-1.15-1.47.42-.13.71-.34.45-.66-.24-.31-.68-.86-1.11-1.42.39-.1.69-.28.47-.56-.37-.46-1.25-1.61-1.69-2.18-.12-.15-.35-.12-.43.05-.29.66-.89,1.98-1.13,2.51-.15.33.18.43.59.44-.29.64-.58,1.28-.74,1.64-.17.37.15.51.6.54-.31.68-.6,1.32-.77,1.7-.51,1.1,2.56.49,2.56.49,0,0,3.12-.13,2.37-1.08Z" style="fill: #38617a; stroke-width: 0px;"/>
                    <rect x="20.53" y="304.94" width="1.26" height="1.37" transform="translate(-35.98 4.64) rotate(-6.79)" style="fill: #38617a; stroke-width: 0px;"/>
                  </g>
                  <g>
                    <path d="M28.99,304.03c-.2-.25-.53-.68-.88-1.13.32-.1.54-.26.35-.5-.19-.24-.52-.66-.85-1.08.3-.08.53-.21.36-.43-.28-.35-.96-1.23-1.29-1.66-.09-.12-.27-.09-.33.04-.22.5-.68,1.51-.87,1.92-.12.25.14.33.45.33-.22.49-.44.98-.57,1.25-.13.28.12.39.46.41-.23.52-.46,1.01-.59,1.3-.39.84,1.95.38,1.95.38,0,0,2.38-.1,1.81-.83Z" style="fill: #38617a; stroke-width: 0px;"/>
                    <rect x="26.79" y="304.54" width=".96" height="1.05" transform="translate(-35.87 5.36) rotate(-6.79)" style="fill: #38617a; stroke-width: 0px;"/>
                  </g>
                  <g>
                    <path d="M40.08,302.81c-.18-.23-.49-.62-.81-1.04.3-.09.5-.24.32-.47-.17-.22-.48-.61-.78-1,.28-.07.49-.2.33-.39-.26-.33-.88-1.13-1.19-1.53-.08-.11-.25-.09-.3.04-.21.46-.62,1.39-.8,1.77-.11.23.13.3.41.31-.2.45-.41.9-.52,1.15-.12.26.11.36.42.38-.22.48-.42.93-.54,1.2-.36.77,1.8.35,1.8.35,0,0,2.2-.09,1.67-.76Z" style="fill: #38617a; stroke-width: 0px;"/>
                    <rect x="38.06" y="303.28" width=".88" height=".97" transform="translate(-35.64 6.68) rotate(-6.79)" style="fill: #38617a; stroke-width: 0px;"/>
                  </g>
                  <g>
                    <path d="M44.15,301.96c-.24-.3-.64-.81-1.05-1.35.39-.12.65-.31.42-.61-.22-.28-.62-.79-1.01-1.3.36-.1.63-.25.43-.51-.34-.42-1.15-1.47-1.55-1.99-.11-.14-.32-.11-.39.05-.27.6-.81,1.81-1.04,2.3-.14.3.16.39.54.4-.26.59-.53,1.17-.68,1.5-.16.34.14.46.55.49-.28.62-.55,1.21-.71,1.56-.47,1.01,2.34.45,2.34.45,0,0,2.86-.12,2.17-.99Z" style="fill: #38617a; stroke-width: 0px;"/>
                    <rect x="41.51" y="302.56" width="1.15" height="1.26" transform="translate(-35.54 7.1) rotate(-6.79)" style="fill: #38617a; stroke-width: 0px;"/>
                  </g>
                  <g>
                    <path d="M81.46,297.89c-.18-.23-.49-.62-.81-1.04.3-.09.5-.24.32-.47-.17-.22-.48-.61-.78-1,.28-.07.49-.2.33-.39-.26-.33-.88-1.13-1.19-1.53-.08-.11-.25-.09-.3.04-.21.46-.62,1.39-.8,1.77-.11.23.13.3.41.31-.2.45-.41.9-.52,1.15-.12.26.11.36.42.38-.22.48-.42.93-.54,1.2-.36.77,1.8.35,1.8.35,0,0,2.2-.09,1.67-.76Z" style="fill: #38617a; stroke-width: 0px;"/>
                    <rect x="79.44" y="298.36" width=".88" height=".97" transform="translate(-34.76 11.54) rotate(-6.79)" style="fill: #38617a; stroke-width: 0px;"/>
                  </g>
                  <g>
                    <path d="M86.51,296.76c-.26-.33-.69-.89-1.15-1.47.42-.13.71-.34.45-.66-.24-.31-.68-.86-1.11-1.42.39-.1.69-.28.47-.56-.37-.46-1.25-1.61-1.69-2.18-.12-.15-.35-.12-.43.05-.29.66-.89,1.98-1.13,2.51-.15.33.18.43.59.44-.29.64-.58,1.28-.74,1.64-.17.37.15.51.6.54-.31.68-.6,1.32-.77,1.7-.51,1.1,2.56.49,2.56.49,0,0,3.12-.13,2.37-1.08Z" style="fill: #38617a; stroke-width: 0px;"/>
                    <rect x="83.63" y="297.43" width="1.26" height="1.37" transform="translate(-34.65 12.05) rotate(-6.79)" style="fill: #38617a; stroke-width: 0px;"/>
                  </g>
                  <g>
                    <path d="M98.02,295.92c-.18-.23-.49-.62-.81-1.04.3-.09.5-.24.32-.47-.17-.22-.48-.61-.78-1,.28-.07.49-.2.33-.39-.26-.33-.88-1.13-1.19-1.53-.08-.11-.25-.09-.3.04-.21.46-.62,1.39-.8,1.77-.11.23.13.3.41.31-.2.45-.41.9-.52,1.15-.12.26.11.36.42.38-.22.48-.42.93-.54,1.2-.36.77,1.8.35,1.8.35,0,0,2.2-.09,1.67-.76Z" style="fill: #38617a; stroke-width: 0px;"/>
                    <rect x="95.99" y="296.39" width=".88" height=".97" transform="translate(-34.41 13.48) rotate(-6.79)" style="fill: #38617a; stroke-width: 0px;"/>
                  </g>
                  <g>
                    <path d="M95.36,295.71c-.26-.33-.69-.89-1.15-1.47.42-.13.71-.34.45-.66-.24-.31-.68-.86-1.11-1.42.39-.1.69-.28.47-.56-.37-.46-1.25-1.61-1.69-2.18-.12-.15-.35-.12-.43.05-.29.66-.89,1.98-1.13,2.51-.15.33.18.43.59.44-.29.64-.58,1.28-.74,1.64-.17.37.15.51.6.54-.31.68-.6,1.32-.77,1.7-.51,1.1,2.56.49,2.56.49,0,0,3.12-.13,2.37-1.08Z" style="fill: #38617a; stroke-width: 0px;"/>
                    <rect x="92.49" y="296.37" width="1.26" height="1.37" transform="translate(-34.46 13.09) rotate(-6.79)" style="fill: #38617a; stroke-width: 0px;"/>
                  </g>
                  <g>
                    <path d="M118.23,293.14c-.24-.3-.64-.81-1.05-1.35.39-.12.65-.31.42-.61-.22-.28-.62-.79-1.01-1.3.36-.1.63-.25.43-.51-.34-.42-1.15-1.47-1.55-1.99-.11-.14-.32-.11-.39.05-.27.6-.81,1.81-1.04,2.3-.14.3.16.39.54.4-.26.59-.53,1.17-.68,1.5-.16.34.14.46.55.49-.28.62-.55,1.21-.71,1.56-.47,1.01,2.34.45,2.34.45,0,0,2.86-.12,2.17-.99Z" style="fill: #38617a; stroke-width: 0px;"/>
                    <rect x="115.59" y="293.75" width="1.15" height="1.26" transform="translate(-33.98 15.8) rotate(-6.79)" style="fill: #38617a; stroke-width: 0px;"/>
                  </g>
                  <g>
                    <path d="M70.2,299.02c-.21-.27-.57-.73-.94-1.21.35-.11.58-.28.37-.54-.2-.25-.55-.71-.91-1.16.32-.09.57-.23.38-.46-.3-.38-1.03-1.32-1.39-1.79-.1-.12-.29-.1-.35.04-.24.54-.73,1.62-.93,2.06-.12.27.15.35.48.36-.24.53-.47,1.05-.61,1.34-.14.3.13.41.49.44-.25.56-.49,1.08-.63,1.4-.42.9,2.1.41,2.1.41,0,0,2.56-.11,1.94-.89Z" style="fill: #38617a; stroke-width: 0px;"/>
                    <rect x="67.84" y="299.57" width="1.03" height="1.12" transform="translate(-35 10.18) rotate(-6.79)" style="fill: #38617a; stroke-width: 0px;"/>
                  </g>
                  <g>
                    <path d="M108.82,294.63c-.18-.23-.49-.62-.81-1.04.3-.09.5-.24.32-.47-.17-.22-.48-.61-.78-1,.28-.07.49-.2.33-.39-.26-.33-.88-1.13-1.19-1.53-.08-.11-.25-.09-.3.04-.21.46-.62,1.39-.8,1.77-.11.23.13.3.41.31-.2.45-.41.9-.52,1.15-.12.26.11.36.42.38-.22.48-.42.93-.54,1.2-.36.77,1.8.35,1.8.35,0,0,2.2-.09,1.67-.76Z" style="fill: #38617a; stroke-width: 0px;"/>
                    <rect x="106.79" y="295.1" width=".88" height=".97" transform="translate(-34.19 14.75) rotate(-6.79)" style="fill: #38617a; stroke-width: 0px;"/>
                  </g>
                  <g>
                    <path d="M106.25,294.73c-.21-.27-.57-.73-.94-1.21.35-.11.58-.28.37-.54-.2-.25-.55-.71-.91-1.16.32-.09.57-.23.38-.46-.3-.38-1.03-1.32-1.39-1.79-.1-.12-.29-.1-.35.04-.24.54-.73,1.62-.93,2.06-.12.27.15.35.48.36-.24.53-.47,1.05-.61,1.34-.14.3.13.41.49.44-.25.56-.49,1.08-.63,1.4-.42.9,2.1.41,2.1.41,0,0,2.56-.11,1.94-.89Z" style="fill: #38617a; stroke-width: 0px;"/>
                    <rect x="103.89" y="295.28" width="1.03" height="1.12" transform="translate(-34.24 14.42) rotate(-6.79)" style="fill: #38617a; stroke-width: 0px;"/>
                  </g>
                  <g>
                    <path d="M33.1,303.12c-.26-.33-.69-.89-1.15-1.47.42-.13.71-.34.45-.66-.24-.31-.68-.86-1.11-1.42.39-.1.69-.28.47-.56-.37-.46-1.25-1.61-1.69-2.18-.12-.15-.35-.12-.43.05-.29.66-.89,1.98-1.13,2.51-.15.33.18.43.59.44-.29.64-.58,1.28-.74,1.64-.17.37.15.51.6.54-.31.68-.6,1.32-.77,1.7-.51,1.1,2.56.49,2.56.49,0,0,3.12-.13,2.37-1.08Z" style="fill: #38617a; stroke-width: 0px;"/>
                    <rect x="30.22" y="303.79" width="1.26" height="1.37" transform="translate(-35.77 5.78) rotate(-6.79)" style="fill: #38617a; stroke-width: 0px;"/>
                  </g>
                  <g>
                    <path d="M74.88,298.15c-.26-.33-.69-.89-1.15-1.47.42-.13.71-.34.45-.66-.24-.31-.68-.86-1.11-1.42.39-.1.69-.28.47-.56-.37-.46-1.25-1.61-1.69-2.18-.12-.15-.35-.12-.43.05-.29.66-.89,1.98-1.13,2.51-.15.33.18.43.59.44-.29.64-.58,1.28-.74,1.64-.17.37.15.51.6.54-.31.68-.6,1.32-.77,1.7-.51,1.1,2.56.49,2.56.49,0,0,3.12-.13,2.37-1.08Z" style="fill: #38617a; stroke-width: 0px;"/>
                    <rect x="72" y="298.81" width="1.26" height="1.37" transform="translate(-34.89 10.68) rotate(-6.79)" style="fill: #38617a; stroke-width: 0px;"/>
                  </g>
                  <g>
                    <path d="M50.24,301.08c-.26-.33-.69-.89-1.15-1.47.42-.13.71-.34.45-.66-.24-.31-.68-.86-1.11-1.42.39-.1.69-.28.47-.56-.37-.46-1.25-1.61-1.69-2.18-.12-.15-.35-.12-.43.05-.29.66-.89,1.98-1.13,2.51-.15.33.18.43.59.44-.29.64-.58,1.28-.74,1.64-.17.37.15.51.6.54-.31.68-.6,1.32-.77,1.7-.51,1.1,2.56.49,2.56.49,0,0,3.12-.13,2.37-1.08Z" style="fill: #38617a; stroke-width: 0px;"/>
                    <rect x="47.36" y="301.74" width="1.26" height="1.37" transform="translate(-35.41 7.79) rotate(-6.79)" style="fill: #38617a; stroke-width: 0px;"/>
                  </g>
                  <g>
                    <path d="M9.38,306.17c-.23-.29-.6-.77-1-1.28.37-.12.62-.3.4-.58-.21-.27-.59-.75-.96-1.24.34-.09.6-.24.41-.49-.32-.4-1.09-1.4-1.47-1.9-.1-.13-.31-.11-.37.04-.26.57-.77,1.72-.99,2.19-.13.29.16.37.51.38-.25.56-.5,1.12-.65,1.43-.15.32.13.44.52.47-.27.59-.52,1.15-.67,1.48-.44.96,2.23.43,2.23.43,0,0,2.72-.11,2.06-.94Z" style="fill: #38617a; stroke-width: 0px;"/>
                    <rect x="6.88" y="306.75" width="1.09" height="1.19" transform="translate(-36.28 3.03) rotate(-6.79)" style="fill: #38617a; stroke-width: 0px;"/>
                  </g>
                </g>
              </g>
            </g>
          </g>
          <g style="filter: url(#drop-shadow-2);">
            <path d="M5.45,293.26l.13,69.43c.89-.28,1.59-.64,1.58-.74-.07-.43,5.21.4,5.11-.27-.37-2.36,5.3,1.08,5.12-.05.06.39,5.03.1,5.07.39.21,1.35,4.95,4.37,4.76,3.22-.09-.55,5.17.34,5.11-.05.25,1.58,5.09,1.15,5.03.8.02.15,4.76-.66,5.09,1.44.06.35,5.07-.39,5.11-.11-.03-.2,4.56-3.13,4.71-2.14-.05-.29,4.55-1.91,4.66-1.2.07.41,5.56,1.78,5.37.53-.04-.24,3.66-5.15,3.89-3.68.16.99,5.93.3,5.9.09-.02-.15,3.8-4.66,3.89-4.09.01.09,6.11,2.3,5.99,1.52.09.55,4.16-3.53,4.42-1.91-.31-1.97,4.41,4.2,4.25,3.15.32,2,4.76-1.77,4.78-1.66.09.54,4.29,2.29,4.25,2.02-.33-2.06,4.43-1.05,4.7.69-.1-.6,4.93,1.42,4.95,1.49.04.28,4.31-1.91,4.01-3.81-.28-1.75,4.75.23,4.72.05-.31-1.96,5.04,1.96,4.68-.32.27,1.69,4.73,1.24,4.88,2.2.18,1.17,4.62-3.17,4.75-2.33-.18-1.17,5.82,3.22,5.49,1.13-.29-1.87,4.84,6.08,4.49,3.85-.1-.62,5.05,7.22,4.42,3.2.16,1.03,6.4-1.21,6.43-1.01.19,1.21,4,6.36,3.74,4.69.18,1.16,5.21-.29,5.42,1.04.04.25,4.54,1.46,4.77,2.92.32,2.06,5.21-.11,5.4,1.09-.32-2.03,5.38.15,5.13-1.4-.1-.65,4.45-3.33,4.77-1.3-.03-.22,5.64,2.17,5.55,1.57.11.69,4.31-2.82,4.32-2.78-.15-.93,4.48-3.09,4.74-1.47.04.26,4.66-1.76,4.69-1.58-.34-2.14,6.12,2.71,5.97,1.73.19,1.17,3.6-4.31,3.58-4.39.12.78,5.69,1.18,5.63.77.36,2.31,4.96-2.02,5.23-.31-.08-.53,4.36-2.16,4.31-2.47-.25-1.56,4.12-.93,3.68-3.69-.21-1.31,4.41-2.67,4.56-1.71-.16-.99,5.36-.92,5.51.05.43,2.75,4.09-2.22,4.01-2.78.21,1.34,4.21-1.65,4.17-1.92-.14-.9,4.02-2.14,3.99-2.32.08.5,4.67-1.61,4.78-.93.24,1.5,5.41,2.08,5.13.32.02.11,4.56-2.29,4.79-.86-.09-.57,4.93-.54,4.86-.98v-58.79s-266.45,3.67-266.45,3.67Z" style="fill: #f9ede3; stroke-width: 0px;"/>
          </g>
          <g style="filter: url(#drop-shadow-3);">
            <circle cx="20.71" cy="48.72" r="20.71" style="fill: #2c282e; stroke-width: 0px;"/>
            <path d="M9.65,38.25c.52,2.2,3.22,3.44,6.03,2.78,2.81-.66,4.67-2.99,4.15-5.18-.52-2.2-3.22-3.44-6.03-2.78-2.81.66-4.67,2.99-4.15,5.18Z" style="fill: #2c282e; mix-blend-mode: screen; stroke-width: 0px;"/>
          </g>
          <g>
            <path d="M88.47,319.69v6.25s-44.57.08-44.57.08v-6.25s44.57-.08,44.57-.08Z" style="fill: #00716d; stroke-width: 0px;"/>
            <path d="M136.16,321.88c-1.25,6.25-3.47,11.06-6.47,14.79,2.33,1.64,5.09,2.9,8.1,3.81-1.26,1.12-2.9,3.3-3.67,4.8-3.25-1.16-6.06-2.65-8.54-4.64-2.76,2.19-5.95,3.74-9.49,4.86-.63-1.26-2.19-3.53-3.25-4.5-.19,1.74-.82,2.72-2.13,3.44-1.6.83-4.02.88-7.46.89-.15-1.36-.88-3.58-1.51-4.89,2.04.09,4.36.09,5.09.09.68-.05.92-.24.92-.97l-.03-14.05c-2.57.3-5.18.59-7.61.84-.28,6.59-1.23,14.2-3.7,19.58-.97-.87-3.25-2.42-4.42-2.9,2.03-4.66,2.79-10.62,3.02-16.19l-2.67.3-.49-5.23,3.29-.2v-1.55s-.03-14.49-.03-14.49h5.04c.53-1.71,1.06-3.65,1.3-5.2l5.82.67c-.68,1.65-1.3,3.15-1.83,4.51h7.37s.03,14.67.03,14.67l.97-.1.11,4.51-1.07.15.03,14.73c0,.48,0,.92-.05,1.36,3.39-.93,6.3-2.24,8.86-3.94-2.62-2.9-4.66-6.34-6.32-10.26l3.05-.93h-3.39s0-5.03,0-5.03l16.91-.03.92-.15,3.3,1.25ZM103.82,336.43c-.78-1.99-2.34-5.08-3.74-7.41l3.58-1.75c1.51,2.18,3.11,5.13,3.94,7.02l-3.78,2.14ZM100.25,321.36c2.33-.2,4.89-.4,7.46-.6l-.02-10.61h-7.46s0,3.02,0,3.02l3.29-1.65c1.41,2.03,2.96,4.7,3.74,6.44l-3.68,2.04c-.68-1.7-2.09-4.31-3.36-6.39v6.49s.01,1.26.01,1.26ZM121.6,309.6c0,3.78-.66,8.19-4.44,10.77-.83-.97-3.11-2.9-4.22-3.63,3.1-2.04,3.38-4.71,3.38-7.27v-6.64s16.03-.03,16.03-.03l.02,9.4c0,1.31.05,1.79.63,1.79h1.79c.58,0,1.65-.1,2.28-.35.1,1.41.2,3.25.4,4.55-.68.29-1.74.34-2.67.34h-2.37c-4.51.01-5.38-1.92-5.39-6.43v-4.41s-5.44,0-5.44,0v1.89ZM120.71,325.83c1.22,2.76,2.87,5.33,5,7.5,1.74-2.04,3.14-4.56,4.06-7.52l-9.06.02Z" style="fill: #00716d; stroke-width: 0px;"/>
            <path d="M170.49,329.28c2.14,6.01,5.3,10.17,7.97,10.16,1.21,0,1.69-2.04,1.97-6.84,1.31,1.16,3.4,2.22,5,2.7-.81,8.05-2.89,9.84-7.25,9.85-6.06.01-11.16-6.67-13.84-15.87l-12.65.02.02,9.06,11.53-2.44c.05,1.65.35,4.17.64,5.48-14.24,3.32-16.62,3.81-18.12,4.64-.39-1.45-1.7-3.97-2.58-5.08,1.07-.68,2.47-2.04,2.46-4.17l-.06-34.07,35.28-.06.03,15.75-12.65.02c.15,1.89.44,3.68.79,5.47l15.31-.03v5.38s-13.85.02-13.85.02ZM151.65,308.04v5.09s23.37-.04,23.37-.04v-5.09s-23.37.04-23.37.04ZM163.07,323.91c-.34-1.79-.59-3.58-.74-5.47l-10.66.02v5.48s11.4-.02,11.4-.02Z" style="fill: #00716d; stroke-width: 0px;"/>
            <path d="M203.15,326.17c-.29,1.7-.72,3.44-1.3,5.24,2.18,1.59,4.8,3.72,6.16,5.17l-3,4.08c-1.12-1.35-3.2-3.14-5.15-4.79-1.69,2.86-4.21,5.53-7.84,7.57-.68-1.31-2.28-3.44-3.45-4.45,6.49-3.11,8.17-8.79,9.04-12.81h5.52ZM227.96,325.01c-.29,1.79-.67,3.68-1.2,5.58,1.6,2.71,4.52,6.24,7.62,8.18-1.16.92-2.95,2.86-3.77,4.13-2.23-1.69-4.37-4.4-6.02-6.92-1.59,2.86-3.87,5.48-7.26,7.57-.58-1.21-1.8-2.81-2.91-3.92v6.2s-5.71.01-5.71.01l-.04-21.66c-5.09.35-10.08.55-14.49.66-.83-1.4-2.29-4.12-3.35-5.32,12.6.17,28.35-.73,37.36-2.25l4.27,4.26c-5.04.98-11.43,1.72-18.07,2.26l.03,14.78c5.76-3.5,7.2-9.32,7.92-13.54h5.62ZM231.05,315.84l-39.11.07-.03-13.91,39.11-.07.03,13.91ZM203.12,307.03h-5.72s0,3.84,0,3.84h5.72s0-3.84,0-3.84ZM214.12,307.01h-5.77s0,3.84,0,3.84h5.77s0-3.84,0-3.84ZM225.26,306.99h-5.91s0,3.84,0,3.84h5.91s0-3.84,0-3.84Z" style="fill: #00716d; stroke-width: 0px;"/>
          </g>
        </g>
      </g>
    </g>
  </g>
</svg>