<?xml version="1.0" encoding="UTF-8"?>
<svg xmlns="http://www.w3.org/2000/svg" width="10.47cm" height="11.36cm" xmlns:xlink="http://www.w3.org/1999/xlink" viewBox="0 0 296.7 321.9">
  <defs>
    <clipPath id="clippath">
      <rect x="29.01" y="24.4" width="243.4" height="243.4" transform="translate(-14.09 16.1) rotate(-5.84)" style="fill: #ffd2c7; stroke-width: 0px;"/>
    </clipPath>
    <clipPath id="clippath-4">
      <path d="M182.49,234.82l-9.83,1.13s-1.57,2.79-5.17,3.61c-3.6.83-6.31,3.1-6.29,5.73l23.76-2.88s-.56-3.05-2.47-7.58Z" style="fill: #dd514e; stroke-width: 0px;"/>
    </clipPath>
    <clipPath id="clippath-5">
      <path d="M189.57,233.96l9.81-1.26s2.19,2.33,5.89,2.27c3.69-.06,6.87,1.5,7.47,4.06l-23.76,2.88s-.18-3.09.59-7.96Z" style="fill: #dd514e; stroke-width: 0px;"/>
    </clipPath>
    <clipPath id="clippath-6">
      <path d="M141.79,81.01l4.67,1.43c1.89.58,3.27,2.22,3.51,4.18l5.99,48.08-37.16,4.5-5.83-48.13c-.24-2.01.74-3.97,2.5-4.97l4.29-2.45,22.03-2.65Z" style="fill: none; stroke-width: 0px;"/>
    </clipPath>
    <clipPath id="clippath-7">
      <path d="M236.92,233.02s6.23,2.69,8.49-2.98l22.66,8.72-33.18,3.82,2.04-9.55Z" style="fill: #603232; stroke-width: 0px;"/>
    </clipPath>
    <clipPath id="clippath-8">
      <path d="M216.87,235.45s-5.41,4.1-8.95-.87l-19.92,13.88,33.13-4.22-4.26-8.79Z" style="fill: #603232; stroke-width: 0px;"/>
    </clipPath>
  </defs>
  <g style="isolation: isolate;">
    <g id="_圖層_1" data-name="圖層 1">
      <polygon points="296.7 264.9 32.1 293.5 4.7 25.8 270.8 0 296.7 264.9" style="fill: #fff3eb; stroke-width: 0px;"/>
      <g>
        <rect x="29.01" y="24.4" width="243.4" height="243.4" transform="translate(-14.09 16.1) rotate(-5.84)" style="fill: #ffd2c7;"/>
        <g style="clip-path: url(#clippath);">
          <rect x="-47.8" y="4.5" width="366.9" height="278.3" style="fill: #ffd2c7; stroke-width: 0px;"/>
        </g>
      </g>
      <path d="M173.77,41.28s-4.26-2.06-5.41,3.93c0,0-10.72-5.24-15.85,8.49,0,0-7-4.25-10.48,5.13l71.81-10.33s-4.75-8.31-11.27-4.49c0,0-2.62-8.08-10.45-7.94-3.4-4.7-14.63-8.32-18.35,5.21Z" style="fill: #fff; stroke-width: 0px;"/>
      <path d="M51.38,97.68s-2.52-1.22-3.2,2.33c0,0-6.35-3.1-9.39,5.03,0,0-4.15-2.52-6.21,3.04l42.54-6.12s-2.81-4.92-6.67-2.66c0,0-1.55-4.79-6.19-4.7-2.01-2.79-8.67-4.93-10.87,3.08Z" style="fill: #fff; stroke-width: 0px;"/>
      <path d="M222.45,73.5s-3.75-1.81-4.76,3.46c0,0-9.44-4.61-13.96,7.48,0,0-6.16-3.74-9.22,4.51l63.21-9.09s-4.18-7.32-9.92-3.95c0,0-2.31-7.12-9.2-6.99-2.99-4.14-12.88-7.32-16.16,4.58Z" style="fill: #fff; stroke-width: 0px;"/>
      <g>
        <g>
          <path d="M181.13,66.35c.55-2.98.06-5.66-2.7-7.2-2.32-1.3-2.73-3.59-2.73-3.59l-9.61,10.91-12.21-8.45s-.11,2.63-2.03,4.35c-2.35,2.12-1.59,4.81-.35,7.57,1.25,2.76-1.16,3.37-1.38,6.89,0,0,4-.66,7.16,2.36,1.67,1.59,5.97,1.95,10.52,1.12,4.61-.28,8.71-1.66,9.95-3.61,2.34-3.68,6.38-4,6.38-4-1.06-3.37-3.54-3.38-2.99-6.36Z" style="stroke-width: 0px;"/>
          <g>
            <path d="M157.22,63.64s-1.69-1.01-2.64.55c-1.45,2.37,2.02,5.92,4.39,3.59l-1.74-4.14Z" style="fill: #f8b498; stroke-width: 0px;"/>
            <path d="M155.83,65.29s.83-.38,1.98,1.33" style="fill: none; stroke: #db7368; stroke-linecap: round; stroke-linejoin: round; stroke-width: .37px;"/>
          </g>
          <g>
            <path d="M173.76,61.64s1.4-1.39,2.7-.1c1.98,1.96-.55,6.24-3.4,4.54l.7-4.44Z" style="fill: #f8b498; stroke-width: 0px;"/>
            <path d="M175.5,62.9s-.9-.17-1.61,1.76" style="fill: none; stroke: #db7368; stroke-linecap: round; stroke-linejoin: round; stroke-width: .37px;"/>
          </g>
          <ellipse cx="165.05" cy="58.54" rx="9.94" ry="9.7" transform="translate(-5.84 20.28) rotate(-6.91)" style="stroke-width: 0px;"/>
          <polygon points="164.05 71.67 164.62 81.95 171.21 81.15 169 70.96 164.05 71.67" style="fill: #f8b498; stroke-width: 0px;"/>
          <path d="M163.96,72.1s1.35,3.32,3.5,3.02c1.77-.24,1.64-3.64,1.64-3.64l-5.15.62Z" style="fill: #db7368; stroke-width: 0px;"/>
          <path d="M156.62,58.84s.76,14.99,9.8,13.89c9.78-1.19,6.95-15.92,6.95-15.92,0,0-.87-6.69-9.26-5.67-7.7.93-7.49,7.7-7.49,7.7Z" style="fill: #f8b498; stroke-width: 0px;"/>
          <g>
            <path d="M169.43,62.16c.05.39-.23.75-.63.8s-.75-.23-.8-.63.23-.75.63-.8.75.23.8.63Z" style="fill: #603232; stroke-width: 0px;"/>
            <path d="M162.99,62.95c.05.39-.23.75-.63.8s-.75-.23-.8-.63.23-.75.63-.8.75.23.8.63Z" style="fill: #603232; stroke-width: 0px;"/>
            <path d="M163.44,67.71l4.51-.55s-.17,1.18-2.09,1.41-2.42-.87-2.42-.87Z" style="fill: #f8f6f3;"/>
            <polyline points="165 64.92 165.14 66.08 165.98 65.99" style="fill: none; stroke: #db7368; stroke-linecap: round; stroke-linejoin: round; stroke-width: .37px;"/>
            <path d="M168.43,58.11s-1.87-.13-1.84.86c0,0,.04.67,1.67.75,1.63.08,2.76.01,2.88-.63.11-.64-1.84-1.01-2.71-.98Z" style="fill: #603232; stroke-width: 0px;"/>
            <path d="M160.16,59.24s-1.78.32-1.53,1.28c0,0,.18.64,1.73.33s2.63-.65,2.55-1.36c-.09-.83-1.94-.48-2.75-.24Z" style="fill: #603232; stroke-width: 0px;"/>
          </g>
          <path d="M154.34,60.55s14.17-4,13.71-10.25c0,0-3.79-4.99-10.48-.7-5.79,3.72-3.23,10.94-3.23,10.94Z" style="stroke-width: 0px;"/>
          <path d="M165.83,50.57s1.26,4.54,8.62,8.63c0,0,3.46-5.33-.37-8.61-3.84-3.29-8.25-.02-8.25-.02Z" style="stroke-width: 0px;"/>
        </g>
        <g>
          <path d="M160.94,87.18c.02.17.02.34,0,.51l-4.59,23.58c0,.13,0,.26-.02.39-.23,1.91-2.31,3.37-4.34,3.69l-2.12-14.21,2.03-14.02c.18-2.21,2.17-3.82,4.37-3.54,1.93.25,4.43,1.74,4.66,3.61Z" style="fill: #f8b498; stroke-width: 0px;"/>
          <g>
            <path d="M190.72,113.14c1.56-.89,2.35-2.7,1.93-4.45l-6.06-25.23c-.41-2.18-2.55-3.58-4.71-3.08h0c-2.06.48-3.37,2.51-2.94,4.59l6.83,25.45c.6,2.63,2.58,4.06,4.93,2.73h0Z" style="fill: #f8b498; stroke-width: 0px;"/>
            <g>
              <path d="M197,137.52l3.29-.83-7.33-27.36c-.73-2.78-3.61-5.93-6.16-4.59h0c-2.12,1.11-1.57,3.98-.85,6.26,2.25,7.14,11.05,26.52,11.05,26.52Z" style="fill: #f8b498; stroke-width: 0px;"/>
              <path d="M196.73,136.72s-.32,2.69,2.85,4.56l1.59,3.17c.25.49.82.73,1.34.55h0c.56-.19.87-.8.7-1.37l-.62-2.04.55.5c.88.79,1.46,1.86,1.65,3.02l.56,3.32c.06.38.33.69.69.82h0c.7.24,1.42-.29,1.39-1.03l-.18-4.44c-.07-1.72-.87-3.33-2.21-4.41l-6.65-5.56-1.67,2.92Z" style="fill: #f8b498; stroke-width: 0px;"/>
            </g>
          </g>
          <g>
            <polygon points="167.34 78.7 154.19 83.92 163.14 113.02 180.81 110.88 181.99 80.36 167.34 78.7" style="fill: #f8b498; stroke-width: 0px;"/>
            <g>
              <polygon points="163.14 113.02 156.57 96.26 162.48 89.23 169.34 92.49 175.47 87.65 182.95 92.92 180.81 110.88 163.14 113.02" style="fill: #f8f6f3; stroke-width: 0px;"/>
              <line x1="162.48" y1="89.23" x2="161.5" y2="81.13" style="fill: none; stroke: #f8f6f3; stroke-linecap: round; stroke-linejoin: round; stroke-width: .49px;"/>
              <line x1="175.37" y1="87.67" x2="174.39" y2="79.57" style="fill: none; stroke: #f8f6f3; stroke-linecap: round; stroke-linejoin: round; stroke-width: .49px;"/>
            </g>
          </g>
        </g>
        <g>
          <g>
            <polygon points="175.63 238.76 182.34 237.06 176.91 173.21 166.27 176.24 175.63 238.76" style="fill: #f8b498; stroke-width: 0px;"/>
            <g>
              <g>
                <path d="M182.49,234.82l-9.83,1.13s-1.57,2.79-5.17,3.61c-3.6.83-6.31,3.1-6.29,5.73l23.76-2.88s-.56-3.05-2.47-7.58Z" style="fill: #dd514e;"/>
                <g style="clip-path: url(#clippath-4);">
                  <path d="M162.47,239.76s5.4-.58,6.69,5.95l-9.21,1.12s-.36-6.18,2.52-7.06Z" style="fill: #f8f6f3; stroke-width: 0px;"/>
                </g>
              </g>
              <rect x="161.21" y="243.84" width="23.94" height="1.64" transform="translate(374.54 466.7) rotate(173.09)" style="fill: #f8f6f3; stroke-width: 0px;"/>
              <path d="M170.15,238.28s.72-.09,2.28.81" style="fill: none; stroke: #f8f6f3; stroke-linecap: round; stroke-linejoin: round; stroke-width: .52px;"/>
              <path d="M171.57,237.3s.72-.09,2.28.81" style="fill: none; stroke: #f8f6f3; stroke-linecap: round; stroke-linejoin: round; stroke-width: .52px;"/>
              <path d="M168.78,239.19s1.33-.09,2.25.83" style="fill: none; stroke: #f8f6f3; stroke-linecap: round; stroke-linejoin: round; stroke-width: .52px;"/>
            </g>
          </g>
          <g>
            <polygon points="197.16 236.15 190.25 236.1 180.26 172.81 191.32 173.21 197.16 236.15" style="fill: #f8b498; stroke-width: 0px;"/>
            <g>
              <g>
                <path d="M189.57,233.96l9.81-1.26s2.19,2.33,5.89,2.27c3.69-.06,6.87,1.5,7.47,4.06l-23.76,2.88s-.18-3.09.59-7.96Z" style="fill: #dd514e;"/>
                <g style="clip-path: url(#clippath-5);">
                  <path d="M210.19,233.97s-5.39.72-5.08,7.37l9.21-1.12s-1.12-6.08-4.13-6.26Z" style="fill: #f8f6f3; stroke-width: 0px;"/>
                </g>
              </g>
              <rect x="188.99" y="240.47" width="23.94" height="1.64" transform="translate(-27.58 25.94) rotate(-6.91)" style="fill: #f8f6f3; stroke-width: 0px;"/>
              <path d="M202.38,234.38s-.72.08-2.02,1.33" style="fill: none; stroke: #f8f6f3; stroke-linecap: round; stroke-linejoin: round; stroke-width: .52px;"/>
              <path d="M200.76,233.76s-.72.08-2.02,1.33" style="fill: none; stroke: #f8f6f3; stroke-linecap: round; stroke-linejoin: round; stroke-width: .52px;"/>
              <path d="M203.92,234.93s-1.31.23-1.98,1.35" style="fill: none; stroke: #f8f6f3; stroke-linecap: round; stroke-linejoin: round; stroke-width: .52px;"/>
            </g>
          </g>
          <path d="M163.14,113.02s-9.69,20.77-1.89,85.08l40.21-4.87s-1.95-48.66-20.65-82.34l-17.67,2.14Z" style="fill: #ff9527; stroke-width: 0px;"/>
        </g>
      </g>
      <g>
        <g>
          <polygon points="91.12 111.61 105.78 101.92 102.27 93.3 92.16 100.01 91.12 111.61" style="fill: #db7368; stroke-width: 0px;"/>
          <g>
            <path d="M94.31,75.32l-4.54-1.48-6.99,31.62c-1.01,3.39,1.39,6.85,4.93,7.07h0c2.94.19,5.5-1.97,5.82-4.9l.78-32.31Z" style="fill: #f8b498; stroke-width: 0px;"/>
            <g>
              <path d="M94.31,75.32l2.07-2.43c1.08-1.27,1.85-2.78,2.24-4.4l.69-2.85c.16-.68-.32-1.34-1.02-1.39h0c-.59-.04-1.14.28-1.4.81l-1.36,2.8-.39-9.8c-.02-.53-.5-.91-1.02-.82l-.35.06c-.41.07-.71.42-.72.83l-.15,4.85-1.03-5.89c-.06-.52-.56-.88-1.07-.76l-.25.06c-.43.1-.72.51-.67.94l.84,6.27-1.86-4.35c-.16-.53-.78-.78-1.26-.5l-.1.06c-.33.19-.5.57-.42.95l1.2,4.9-1.14-1.9c-.22-.61-.99-.78-1.44-.32h0c-.21.22-.3.53-.22.83l3.72,13.68,5.14-1.62Z" style="fill: #f8b498; stroke-width: 0px;"/>
              <path d="M95.53,67.86s-2.34.62-3.48,3.42" style="fill: none; stroke: #db7368; stroke-linecap: round; stroke-linejoin: round; stroke-width: .36px;"/>
            </g>
            <line x1="93.79" y1="99.42" x2="93.5" y2="105.41" style="fill: none; mix-blend-mode: multiply; stroke: #db7368; stroke-linecap: round; stroke-linejoin: round; stroke-width: .4px;"/>
          </g>
        </g>
        <g>
          <g>
            <g>
              <g>
                <polygon points="144.91 245.52 135.43 246.67 120.78 256.96 147.69 253.37 144.91 245.52" style="fill: #ff9527; stroke-width: 0px;"/>
                <path d="M141.31,256.1c.89-.11,1.7.55,1.83,1.47l5.07-.67-.52-3.54-26.91,3.59.52,3.54,18.59-2.48h0c-.11-.95.52-1.8,1.43-1.91Z" style="fill: #603232; stroke-width: 0px;"/>
                <line x1="129.26" y1="250.55" x2="132.47" y2="251.03" style="fill: none; stroke: #fac864; stroke-linecap: round; stroke-linejoin: round; stroke-width: 1.03px;"/>
                <line x1="132.1" y1="248.63" x2="135.31" y2="249.1" style="fill: none; stroke: #fac864; stroke-linecap: round; stroke-linejoin: round; stroke-width: 1.03px;"/>
              </g>
              <rect x="134.41" y="232.7" width="9.73" height="13.46" transform="translate(-27.8 18.5) rotate(-6.91)" style="fill: #f8b498; stroke-width: 0px;"/>
            </g>
            <g>
              <g>
                <polygon points="161.98 243.45 171.46 242.3 188.15 248.79 161.16 251.73 161.98 243.45" style="fill: #ff9527; stroke-width: 0px;"/>
                <path d="M168.01,252.87c-.89.11-1.52.94-1.43,1.87l-5.08.56-.34-3.56,26.99-2.95.34,3.56-18.64,2.03h0c-.11-.95-.94-1.62-1.84-1.51Z" style="fill: #603232; stroke-width: 0px;"/>
                <line x1="178.39" y1="244.6" x2="175.92" y2="246.25" style="fill: none; stroke: #fac864; stroke-linecap: round; stroke-linejoin: round; stroke-width: 1.03px;"/>
                <line x1="175.16" y1="243.41" x2="173.12" y2="244.52" style="fill: none; stroke: #fac864; stroke-linecap: round; stroke-linejoin: round; stroke-width: 1.03px;"/>
              </g>
              <polygon points="168.99 229.05 159.33 230.22 161.98 243.45 171.64 242.28 168.99 229.05" style="fill: #f8b498; stroke-width: 0px;"/>
            </g>
            <g>
              <path d="M153.36,128.64c1.67,7.66,19.91,109.53,19.91,109.53l-15.08,1.83-17.65-90.31-2.71.38,9.28,91.27-14.41,1.75s-12.36-95.07-13.29-110.09l33.95-4.36Z" style="fill: #603232; stroke-width: 0px;"/>
              <line x1="134.01" y1="150.55" x2="145.06" y2="149.21" style="fill: none; mix-blend-mode: multiply; stroke: #603232; stroke-linecap: round; stroke-linejoin: round; stroke-width: .46px;"/>
            </g>
          </g>
          <g>
            <path d="M120.33,47.52s3.49-6.16,11.35-3.28c8.62,3.15,5.31,12.6,5.31,12.6l-17.84-1.19,1.18-8.12Z" style="stroke-width: 0px;"/>
            <path d="M118.2,59.15s-5.65-8.4,2.13-11.63l2.03,4.63-4.16,7Z" style="stroke-width: 0px;"/>
            <g>
              <path d="M122.57,62.81c.27,1.78-.96,3.44-2.74,3.71-1.78.27-3.44-.96-3.71-2.74-.27-1.78.96-3.44,2.74-3.71,1.78-.27,3.44.96,3.71,2.74Z" style="fill: #f8b498; stroke-width: 0px;"/>
              <path d="M117.45,63.07s1.21-.78,2.71,1.31" style="fill: none; stroke: #db7368; stroke-linecap: round; stroke-linejoin: round; stroke-width: .36px;"/>
            </g>
            <g>
              <path d="M134.41,61.47c.22,1.79,1.84,3.06,3.63,2.85s3.06-1.84,2.85-3.63-1.84-3.06-3.63-2.85-3.06,1.84-2.85,3.63Z" style="fill: #f8b498; stroke-width: 0px;"/>
              <path d="M139.42,60.35s-1.38-.43-2.27,1.98" style="fill: none; stroke: #db7368; stroke-linecap: round; stroke-linejoin: round; stroke-width: .36px;"/>
            </g>
            <path d="M133.56,69.15s-1.67,1.51-3.3,2.03c-1.63.52-3.36-.25-3.38-.26-.02,0-2.08-.88-2.08-.88l.5,10.76.24.15c3.1,1.99,7.18,1.52,9.75-1.12l.38-.39-2.1-10.3Z" style="fill: #f8b498; stroke-width: 0px;"/>
            <path d="M123.87,69.01s2.54,5.72,6.71,5.15c3.43-.47,3.28-6.36,3.28-6.36l-9.98,1.21Z" style="fill: #db7368; stroke-width: 0px;"/>
            <path d="M136.56,55.49c.46,3.66.34,6.89.1,9.19-.23,2.26-1.98,4.04-3.86,5.53l-.34.27c-1.98,1.58-3.75,1.84-6.1.85h0c-2.36-.99-4.62-2.41-5.39-4.7-1.4-4.17-2.1-8.91-2.1-8.91,0,0-2.44-9.76,7.11-10.78,9.56-1.03,10.57,8.55,10.57,8.55Z" style="fill: #f8b498; stroke-width: 0px;"/>
            <g>
              <path d="M124.73,59.87c.05.43-.25.81-.68.87s-.81-.25-.87-.68.25-.81.68-.87.81.25.87.68Z" style="fill: #603232; stroke-width: 0px;"/>
              <path d="M132.3,58.95c.05.43-.25.81-.68.87s-.81-.25-.87-.68.25-.81.68-.87.81.25.87.68Z" style="fill: #603232; stroke-width: 0px;"/>
              <polyline points="127.29 61.61 127.44 62.85 128.44 62.73" style="fill: none; stroke: #db7368; stroke-linecap: round; stroke-linejoin: round; stroke-width: .36px;"/>
              <path d="M120.68,57.05l4.99-1.07s-.61-1.25-2.62-.79c-2.06.47-2.37,1.86-2.37,1.86Z" style="fill: #dd514e; stroke-width: 0px;"/>
              <path d="M133.69,55.47l-5.1.16s.29-1.36,2.36-1.4c2.11-.04,2.74,1.24,2.74,1.24Z" style="fill: #dd514e; stroke-width: 0px;"/>
              <path d="M125.92,64.82l4.98-.6s-.05,1.55-2.38,1.84-2.6-1.23-2.6-1.23Z" style="fill: #fff; stroke-width: 0px;"/>
            </g>
            <g>
              <path d="M119.77,62.37s-1.1-12.18-1.29-12.51c0,0-3.82,4.5,1.29,12.51Z" style="stroke-width: 0px;"/>
              <path d="M136.77,60.22l-2.24-13.1s4.64,3.61,2.24,13.1Z" style="stroke-width: 0px;"/>
            </g>
            <path d="M122.12,48.33s-2.86,1.16-2.41,4.06c.45,2.89-1.17,5.99-1.17,5.99l-1.25-2.8s-1.35-5.33,4.83-7.25Z" style="stroke-width: 0px;"/>
            <path d="M121.41,48.66s2.06-1.53,4.6.97c2.17,2.14,7.42,3.97,10.07,1.3,0,0-2.68-6.46-9.95-5.44-7.27,1.02-4.71,3.17-4.71,3.17Z" style="stroke-width: 0px;"/>
          </g>
          <g>
            <path d="M117.09,102.7l-16.81,6.64-10.47,4.12c-2.08.78-4.42.39-6.12-1.03-1.8-1.49-2.59-3.87-2.06-6.14l.03-.12,5.12-27.36,8.54-.44-.54,17.75s6.63-4.4,22.83-10.32l-.53,16.89Z" style="fill: #918d55; stroke-width: 0px;"/>
            <g>
              <g>
                <polygon points="160.66 135.02 166.78 146.37 170.35 145.55 165.74 130.46 160.66 135.02" style="fill: #f8b498; stroke-width: 0px;"/>
                <path d="M166.38,144.51s-1.45,3.56.56,7.39l-.2,4.14c-.03.64.39,1.23.98,1.38h0c.64.16,1.27-.24,1.41-.92l.51-2.41.26.84c.41,1.33.39,2.75-.06,4.03l-1.27,3.64c-.14.41-.06.89.21,1.24h0c.53.68,1.52.6,1.89-.15l2.24-4.52c.87-1.75.97-3.85.28-5.76l-3.71-10.26-3.1,1.36Z" style="fill: #f8b498; stroke-width: 0px;"/>
              </g>
              <path d="M145.19,82.05s5.33.67,9.03,8.11c7.41,14.9,18.19,55.92,18.19,55.92l-9.66,3.06-20.34-51.76,2.77-15.33Z" style="fill: #918d55; stroke-width: 0px;"/>
            </g>
            <g>
              <g>
                <path d="M141.79,81.01l4.67,1.43c1.89.58,3.27,2.22,3.51,4.18l5.99,48.08-37.16,4.5-5.83-48.13c-.24-2.01.74-3.97,2.5-4.97l4.29-2.45,22.03-2.65Z" style="fill: #918d55; stroke-width: 0px;"/>
                <g style="clip-path: url(#clippath-6);">
                  <rect x="111.99" y="97.75" width="39.96" height="10.14" transform="translate(-11.41 16.63) rotate(-6.91)" style="fill: #918d55; mix-blend-mode: multiply; opacity: .4; stroke-width: 0px;"/>
                  <rect x="113.93" y="113.78" width="39.96" height="10.14" transform="translate(-13.33 16.98) rotate(-6.91)" style="fill: #918d55; mix-blend-mode: multiply; opacity: .4; stroke-width: 0px;"/>
                </g>
                <g>
                  <path d="M130.48,77.65l11.31,3.36s-9.83,11.32-22.03,2.65l10.72-6Z" style="fill: #f8b498; stroke-width: 0px;"/>
                  <path d="M119.76,83.66s4.38,4.06,11.53,3.2,10.5-5.84,10.5-5.84" style="fill: none; stroke: #fff; stroke-miterlimit: 10; stroke-width: 1.03px;"/>
                </g>
              </g>
              <line x1="155.28" y1="129.22" x2="151.3" y2="97.26" style="fill: none; mix-blend-mode: multiply; stroke: #fac864; stroke-linecap: round; stroke-linejoin: round; stroke-width: .46px;"/>
              <line x1="114.89" y1="106.96" x2="114.24" y2="101.59" style="fill: none; mix-blend-mode: multiply; stroke: #fac864; stroke-linecap: round; stroke-linejoin: round; stroke-width: .46px;"/>
            </g>
          </g>
        </g>
      </g>
      <g>
        <g>
          <path d="M204.72,47.49s4.57-2.74,6.78,1.13c2.12,3.72-3.97,8.25-3.97,8.25l-2.81-9.38Z" style="stroke-width: 0px;"/>
          <g>
            <path d="M197.65,64.84c.27,1.8-.97,3.49-2.78,3.76-1.8.27-3.49-.97-3.76-2.78s.97-3.49,2.78-3.76c1.8-.27,3.49.97,3.76,2.78Z" style="fill: #db7368; stroke-width: 0px;"/>
            <path d="M192.46,65.1s1.23-.79,2.74,1.32" style="fill: none; mix-blend-mode: multiply; stroke: #db7368; stroke-linecap: round; stroke-linejoin: round; stroke-width: .4px;"/>
          </g>
          <g>
            <path d="M209.63,63.48c.22,1.81,1.87,3.1,3.68,2.88s3.1-1.87,2.88-3.68-1.87-3.1-3.68-2.88-3.1,1.87-2.88,3.68Z" style="fill: #db7368; stroke-width: 0px;"/>
            <path d="M214.7,62.35s-1.39-.44-2.29,2" style="fill: none; mix-blend-mode: multiply; stroke: #db7368; stroke-linecap: round; stroke-linejoin: round; stroke-width: .4px;"/>
          </g>
          <path d="M208.77,71.26s-1.69,1.53-3.34,2.06c-1.65.53-3.4-.25-3.42-.26-.02,0-2.1-.89-2.1-.89l.5,10.89.24.15c3.14,2.01,7.26,1.54,9.87-1.13l.38-.39-2.13-10.43Z" style="fill: #db7368; stroke-width: 0px;"/>
          <path d="M198.96,71.12s2.57,5.79,6.79,5.21c3.47-.48,3.32-6.44,3.32-6.44l-10.1,1.22Z" style="fill: #db7368; mix-blend-mode: multiply; stroke-width: 0px;"/>
          <path d="M211.81,57.43c.47,3.7.34,6.97.1,9.3-.24,2.29-1.5,4.02-3.39,5.53l-.35.27c-2.01,1.6-4.82,1.98-7.19.99h0c-2.39-1-4.17-2.5-4.95-4.82-1.42-4.23-2.12-9.02-2.12-9.02,0,0-2.47-9.87,7.2-10.91,9.67-1.04,10.7,8.65,10.7,8.65Z" style="fill: #db7368; stroke-width: 0px;"/>
          <g>
            <circle cx="199.05" cy="61.96" r=".79" style="fill: #603232; stroke-width: 0px;"/>
            <circle cx="206.71" cy="61.03" r=".79" style="fill: #603232; stroke-width: 0px;"/>
            <polyline points="202.31 62.72 202.57 64.88 203.96 64.71" style="fill: none; mix-blend-mode: multiply; stroke: #db7368; stroke-linecap: round; stroke-linejoin: round; stroke-width: .4px;"/>
            <path d="M195.73,59.01l5.05-1.08s-.62-1.27-2.66-.8c-2.09.48-2.39,1.88-2.39,1.88Z" style="fill: #603232; stroke-width: 0px;"/>
            <path d="M208.9,57.41l-5.16.16s.3-1.38,2.39-1.41c2.14-.04,2.77,1.26,2.77,1.26Z" style="fill: #603232; stroke-width: 0px;"/>
            <path d="M201.04,66.87l5.04-.61s-.05,1.57-2.41,1.86-2.63-1.25-2.63-1.25Z" style="fill: #f8f6f3; stroke-width: 0px;"/>
          </g>
          <g>
            <path d="M194.82,64.39s.12-11.02-.8-12.72c0,0-4.38,4.61.8,12.72Z" style="stroke-width: 0px;"/>
            <path d="M212.02,62.22s-2.86-10.16-2.78-13.2c0,0,5.2,3.59,2.78,13.2Z" style="stroke-width: 0px;"/>
          </g>
          <path d="M208.81,48.33l-4.53-.13-.49-.72-2.31.64-2.39-.07-.3.82-4.37,1.21-.31,2.45.48,2.73s.33-3.2,2.86-2.88c.6.08,1.32.23,2.15.3.78.07,1.51.06,2.19-.01.08,0,.16-.02.25-.03.08-.01.17-.02.25-.03.68-.09,1.39-.26,2.13-.51.79-.26,1.47-.54,2.01-.8,2.18-1.07,3.4,1.98,3.4,1.98l-.12-2.63-.88-2.31Z" style="stroke-width: 0px;"/>
          <path d="M209.05,51.05s-2.58,2.94-6.53,1.4c0,0-8.74,6.96-12.17.95-2.86-5.01,5.49-13.29,15.98-6.37l2.72,4.02Z" style="stroke-width: 0px;"/>
        </g>
        <g>
          <g>
            <polygon points="233.5 216.21 237.33 235.01 245.75 234.26 243.04 211.73 233.5 216.21" style="fill: #db7368; stroke-width: 0px;"/>
            <g>
              <g>
                <path d="M236.92,233.02s6.23,2.69,8.49-2.98l22.66,8.72-33.18,3.82,2.04-9.55Z" style="fill: #603232;"/>
                <g style="clip-path: url(#clippath-7);">
                  <path d="M263.46,232.48s-8.04,2.22-6.17,12.32l13.7-5.6-7.52-6.72Z" style="fill: #f8f6f3; stroke-width: 0px;"/>
                </g>
              </g>
              <rect x="234.94" y="240.66" width="33.4" height="2.92" transform="translate(-26.02 30.34) rotate(-6.56)" style="fill: #f8f6f3; stroke-width: 0px;"/>
              <path d="M248.6,235.26c.08-.05.16-.12.21-.2,1.08-1.84,2.28-2.84,2.29-2.84.24-.19.26-.53.06-.75-.2-.22-.56-.24-.79-.05-.06.04-1.35,1.11-2.54,3.14-.15.26-.06.58.21.72.18.09.39.08.55,0Z" style="fill: #f8f6f3; stroke-width: 0px;"/>
              <path d="M251.48,236.29c.08-.05.16-.12.21-.2,1.08-1.84,2.28-2.84,2.29-2.84.24-.19.26-.53.06-.75-.2-.22-.56-.24-.79-.05-.06.04-1.35,1.11-2.54,3.14-.15.26-.06.58.21.72.18.09.39.08.55,0Z" style="fill: #f8f6f3; stroke-width: 0px;"/>
              <path d="M254.35,237.32c.08-.05.16-.12.21-.2,1.08-1.84,2.28-2.83,2.29-2.84.24-.19.26-.53.06-.75-.2-.22-.56-.24-.79-.05-.06.04-1.35,1.11-2.54,3.14-.15.26-.06.58.21.72.18.09.39.08.55,0Z" style="fill: #f8f6f3; stroke-width: 0px;"/>
            </g>
          </g>
          <g>
            <polygon points="214.28 218.54 217.09 237.46 208.73 238.74 203.94 216.47 214.28 218.54" style="fill: #db7368; stroke-width: 0px;"/>
            <g>
              <g>
                <path d="M216.87,235.45s-5.41,4.1-8.95-.87l-19.92,13.88,33.13-4.22-4.26-8.79Z" style="fill: #603232;"/>
                <g style="clip-path: url(#clippath-8);">
                  <path d="M190.97,241.27s8.33.23,8.94,10.49l-14.64-2.17,5.7-8.32Z" style="fill: #f8f6f3; stroke-width: 0px;"/>
                </g>
              </g>
              <rect x="188.04" y="246.34" width="33.4" height="2.92" transform="translate(-29.68 27.87) rotate(-7.26)" style="fill: #f8f6f3; stroke-width: 0px;"/>
              <path d="M206.06,240.42c-.09-.03-.18-.07-.25-.15-1.49-1.53-2.89-2.21-2.9-2.22-.27-.13-.38-.45-.24-.72.14-.26.48-.37.75-.24.06.03,1.58.76,3.22,2.44.21.22.19.55-.03.75-.15.13-.36.17-.54.12Z" style="fill: #f8f6f3; stroke-width: 0px;"/>
              <path d="M203.51,242.1c-.09-.03-.18-.07-.25-.15-1.49-1.53-2.89-2.21-2.9-2.22-.27-.13-.38-.45-.24-.72.14-.26.48-.37.75-.24.06.03,1.58.76,3.22,2.44.21.22.19.55-.03.75-.15.13-.36.17-.54.12Z" style="fill: #f8f6f3; stroke-width: 0px;"/>
              <path d="M200.97,243.79c-.09-.03-.18-.07-.25-.15-1.49-1.53-2.89-2.21-2.9-2.22-.27-.13-.38-.45-.24-.72.14-.26.48-.37.75-.24.06.03,1.58.76,3.22,2.44.21.21.19.55-.03.75-.15.13-.36.17-.54.12Z" style="fill: #f8f6f3; stroke-width: 0px;"/>
            </g>
          </g>
          <g>
            <path d="M214.6,144.2l17.45,81.58,14.82-1.8-17.54-97.93-18.58.6-15.3,1.09.18,52.98c.08,4.84,4.38,8.51,9.17,7.82h0c3.76-.54,6.63-3.63,6.89-7.42l2.91-36.93Z" style="fill: #6e97fd; stroke-width: 0px;"/>
            <line x1="207.88" y1="144.2" x2="217.57" y2="144.25" style="fill: none; mix-blend-mode: multiply; opacity: .4; stroke: #6e97fd; stroke-linecap: round; stroke-linejoin: round; stroke-width: .46px;"/>
            <polygon points="250.03 225.07 230.49 227.44 228.48 218.7 248.01 216.33 250.03 225.07" style="fill: #6e97fd; stroke-width: 0px;"/>
            <polygon points="211.69 181.13 218.08 226.19 202.44 228.08 195.64 180.73 211.69 181.13" style="fill: #6e97fd; stroke-width: 0px;"/>
            <rect x="200.16" y="220.97" width="19.68" height="8.92" transform="translate(-25.6 26.91) rotate(-6.91)" style="fill: #6e97fd; stroke-width: 0px;"/>
            <polygon points="250.03 225.07 230.49 227.44 228.48 218.7 248.01 216.33 250.03 225.07" style="fill: #f8f6f3; mix-blend-mode: overlay; opacity: .4; stroke-width: 0px;"/>
            <rect x="200.16" y="220.97" width="19.68" height="8.92" transform="translate(-25.6 26.91) rotate(-6.91)" style="fill: #f8f6f3; mix-blend-mode: overlay; opacity: .4; stroke-width: 0px;"/>
          </g>
        </g>
        <g>
          <g>
            <path d="M222.5,84.71l-11.6-3.03-10.49,1.37-13.06,8.16c-1.01.78-.64,2.07-.1,3.23l7.62,36.64,34.68-4.69-2.3-37.89c.15-1.27-3.53-3.37-4.74-3.79Z" style="fill: #603232; stroke-width: 0px;"/>
            <path d="M192.92,88.39c4.42,7.48,21.74,8.82,26.61-3.86" style="fill: none; mix-blend-mode: multiply; stroke: #603232; stroke-linecap: round; stroke-linejoin: round; stroke-width: .46px;"/>
            <path d="M200.41,83.05l-2.92,1.8s.6,5.19,8.97,3.9c8.59-1.32,7.98-6.2,7.98-6.2l-3.53-.86-10.49,1.37Z" style="fill: #db7368; stroke-width: 0px;"/>
          </g>
          <g>
            <g>
              <polygon points="243.58 105.62 218.87 97.3 229.62 89.01 240.76 94.17 243.58 105.62" style="fill: #db7368; stroke-width: 0px;"/>
              <g>
                <path d="M226.82,71.78l3.92-2.84,16.59,28.26c2.03,2.95.79,7.03-2.54,8.35h0c-2.77,1.1-5.91-.18-7.14-2.9l-10.83-30.87Z" style="fill: #db7368; stroke-width: 0px;"/>
                <g>
                  <path d="M226.82,71.78l-2.75-1.7c-1.44-.89-2.64-2.1-3.53-3.53l-1.55-2.53c-.37-.6-.11-1.39.55-1.66h0c.55-.22,1.19-.09,1.6.34l2.19,2.27-2.8-9.67c-.14-.51.2-1.03.73-1.11l.35-.05c.42-.06.82.18.96.58l1.78,4.73-.97-6.1c-.11-.52.26-1.02.79-1.06l.26-.02c.44-.04.85.26.94.7l1.28,6.4.31-4.87c0-.56.51-.99,1.06-.88l.11.02c.38.08.66.39.7.78l.5,5.19.38-2.28c.02-.65.71-1.06,1.29-.76h0c.27.14.45.42.47.73l.81,14.43-5.45.04Z" style="fill: #db7368; stroke-width: 0px;"/>
                  <path d="M223.32,64.97s2.44-.13,4.42,2.21" style="fill: none; mix-blend-mode: multiply; stroke: #db7368; stroke-linecap: round; stroke-linejoin: round; stroke-width: .4px;"/>
                </g>
                <line x1="234.84" y1="94.83" x2="236.99" y2="100.5" style="fill: none; mix-blend-mode: multiply; stroke: #db7368; stroke-linecap: round; stroke-linejoin: round; stroke-width: .4px;"/>
              </g>
            </g>
            <g>
              <path d="M220.89,84.37c8.98,1.58,15.83,7.93,15.83,7.93l-4.95,13.72-15.8-5.13,4.91-16.53Z" style="fill: #603232; stroke-width: 0px;"/>
              <line x1="228.23" y1="104.87" x2="223.74" y2="103.42" style="fill: none; mix-blend-mode: multiply; stroke: #603232; stroke-linecap: round; stroke-linejoin: round; stroke-width: .46px;"/>
            </g>
          </g>
          <g>
            <g>
              <path d="M181.99,104.03l-2.97,19.61c-.23,3.09,3.75,6.08,6.74,6.49h0c2.95.41,2.07-1.76,2.47-4.78l5-18.82-11.24-2.5Z" style="fill: #db7368; stroke-width: 0px;"/>
              <g>
                <path d="M179.8,125.78c1.4,3.76,14.68,10.83,14.68,10.83l7.02-.79-14.86-16.05-6.84,6.01Z" style="fill: #db7368; stroke-width: 0px;"/>
                <path d="M203.9,137.41s1.9.68,3.61.11c.95-.31.96-1.65.02-2-2.44-.9-7.6-3.07-9.58-3.53l-3.42-.52-2.74,3.48,2.69,1.66s.96,3.03,2.29,3.94c0,0,5.28.18,7.14-3.13Z" style="fill: #db7368; stroke-width: 0px;"/>
              </g>
              <line x1="189.02" y1="122.34" x2="186.64" y2="119.77" style="fill: none; mix-blend-mode: multiply; stroke: #db7368; stroke-linecap: round; stroke-linejoin: round; stroke-width: .4px;"/>
            </g>
            <g>
              <path d="M187.34,91.21s-8.38,3.98-8.3,19.7l17.9,3.05,2.99-15.58-12.6-7.17Z" style="fill: #603232; stroke-width: 0px;"/>
              <g>
                <rect x="195.28" y="101.83" width="10.36" height="10.36" transform="translate(-11.42 24.9) rotate(-6.91)" style="fill: #f8f6f3; mix-blend-mode: overlay; opacity: .4; stroke-width: 0px;"/>
                <polyline points="194.98 104.84 200.45 107.01 205.28 103.81" style="fill: none; mix-blend-mode: multiply; stroke: #603232; stroke-linecap: round; stroke-linejoin: round; stroke-width: .46px;"/>
              </g>
              <line x1="191.33" y1="113.33" x2="189.51" y2="104.81" style="fill: none; mix-blend-mode: multiply; stroke: #603232; stroke-linecap: round; stroke-linejoin: round; stroke-width: .46px;"/>
            </g>
          </g>
        </g>
      </g>
      <g>
        <g>
          <g>
            <g>
              <path d="M122.85,256.07l5.36,2.38c.57.25.95.91.84,1.57-.09.52-.49.95-1.63,1.07-2.52.27-13.87-.63-13.87-.63l.12,1.44-5.23.46s-.96-7.39.53-8.5l13.87,2.21Z" style="fill: #603232; stroke-width: 0px;"/>
              <path d="M115.6,252.07l7.25,4s-.66,2.6-4.71,1.25c-4.05-1.35-9.16-3.47-9.16-3.47l.55-1.99,6.08.2Z" style="fill: #f8b498; stroke-width: 0px;"/>
            </g>
            <polygon points="109.52 251.87 106.98 230.63 113.81 230.5 115.85 254.28 109.52 251.87" style="fill: #f8b498; stroke-width: 0px;"/>
          </g>
          <g>
            <g>
              <path d="M64.68,261.07l-4.87,3.25c-.52.34-.79,1.06-.56,1.69.18.5.65.85,1.79.78,2.53-.17,13.56-2.99,13.56-2.99l.13,1.5,5.15-.51s-.24-7.44-1.9-8.27l-13.29,4.55Z" style="fill: #603232; stroke-width: 0px;"/>
              <path d="M71.14,255.89l-6.46,5.18s1.1,2.45,4.86.43c3.76-2.02,8.43-4.98,8.43-4.98l-.88-1.86-5.95,1.23Z" style="fill: #f8b498; stroke-width: 0px;"/>
            </g>
            <polygon points="77.09 254.66 80.62 232.9 73.87 233.93 70.72 258.65 77.09 254.66" style="fill: #f8b498; stroke-width: 0px;"/>
          </g>
          <g>
            <g>
              <path d="M100.27,121.46s10.41,12.49,11.41,27.03c1,14.55,5.41,96.23,5.41,96.23l-11.04.95-12.75-102.26-1.53.5-10.61,103.94-10.39-.21,3.44-95.08c.37-5.31,1.33-10.56,2.95-15.63,1.38-4.33,3.36-9.3,6.03-13.24l17.07-2.23Z" style="fill: #fb80a2; stroke-width: 0px;"/>
              <line x1="88.61" y1="144.5" x2="95.56" y2="142.67" style="fill: none; mix-blend-mode: multiply; stroke: #fb80a2; stroke-linecap: round; stroke-linejoin: round; stroke-width: .46px;"/>
            </g>
            <line x1="81.88" y1="131.84" x2="79.32" y2="141.93" style="fill: none; mix-blend-mode: multiply; stroke: #fb80a2; stroke-linecap: round; stroke-linejoin: round; stroke-width: .46px;"/>
          </g>
        </g>
        <path d="M71.15,67.65s-.11,7.8-8.35,14.78c-8.79,7.44-.23,25.21,16.87,22.88,18.59-2.54,24.27-27.18,10.53-44.35l-19.05,6.69Z" style="stroke-width: 0px;"/>
        <g>
          <g>
            <path d="M104.18,95.96l-1.89,12.3-2.03,13.2-17.18,2.27-6.72-12.25-5.45-9.93c-.83-2.07-.12-4.38,1.38-6.05.78-.88,1.77-1.59,2.86-2l11.04-4.15,10.97.3c.11,0,.22,0,.32.02.52.04,1.04.13,1.56.29,2.8.82,5.3,3.19,5.12,6Z" style="fill: #918d55; stroke-width: 0px;"/>
            <path d="M75.16,93.5l11.04-4.15,10.97.3-.21.21c-5.75,5.73-14.5,7.19-21.81,3.64h0Z" style="fill: #f8b498; stroke-width: 0px;"/>
          </g>
          <g>
            <path d="M114.26,118.05l-11.9,12.54,2.59,3.7,14.1-10.34c2.27-1.74,3.11-4.87,1.81-7.43-.06-.13-.13-.25-.2-.37l-2.04-3.44-4.36,5.35Z" style="fill: #f8b498; stroke-width: 0px;"/>
            <g>
              <path d="M119.41,116.57l-5.02,2.16c-.77.33-1.65.19-2.27-.37-1.58-1.42-7.1-5.02-9.83-10.1-.87-1.6-1.45-3.35-1.55-5.22l-3.43-5.06-.09-5.22-.05-3.11c.11,0,.22,0,.32.02.49.02.96.08,1.43.15,4.74.77,8.31,3.8,9.42,5.98l12.29,17.4c.64,1.27.07,2.81-1.23,3.37Z" style="fill: #918d55; stroke-width: 0px;"/>
              <line x1="102.38" y1="108.43" x2="104.1" y2="100.34" style="fill: none; mix-blend-mode: multiply; stroke: #918d55; stroke-linecap: round; stroke-linejoin: round; stroke-width: .46px;"/>
            </g>
            <path d="M106.72,130.78c-.26.28-1.3,7.9-1.3,7.9l-3.05-8.09,4.35.19Z" style="fill: #f8b498; stroke-width: 0px;"/>
            <line x1="101.99" y1="129.65" x2="105.8" y2="139.7" style="fill: none; mix-blend-mode: multiply; stroke: #fb80a2; stroke-linecap: round; stroke-linejoin: round; stroke-width: .46px;"/>
          </g>
          <g>
            <g>
              <path d="M76.19,105.53c-.48,1.54,1.52.96.36,2.24-4.46,4.93-15.57,9.92-17.53,10.94-.74.38-.35-1.58-1.01-2.09l-3.25-2.58c-1.12-.86-1.29-2.5-.36-3.57l16.2-13.85c1.44-1.64,4.23-3.31,8.08-3.31.97,0,2,.1,3.1.34l-.36,2.72-.67,5.08-4.56,4.06Z" style="fill: #918d55; stroke-width: 0px;"/>
              <path d="M99.03,91.78c-.52.67-1.22.91-1.8.98-.59.08-1.05-.03-1.05-.03,0,0,1.1,2.67-1.67,3.86-2.76,1.19-3.7-.87-3.7-.87,0,0-.4,3.21-3.23,3.56-2.82.35-3.35-1.86-3.35-1.86,0,0-.95,1.8-3.97,1.59-3.02-.22-2.83-3.52-2.83-3.52,0,0-.5.26-1.19.53-1.45.57-3.75,1.18-3.94-.52-.03-.2-.02-.44.02-.72.83-.5,1.77-.93,2.84-1.28l11.04-4.15,10.97.3c.11,0,.22,0,.32.02.49.02.96.08,1.43.15.04.04.09.09.13.14.32.39.58,1.03-.03,1.83Z" style="fill: #fff; stroke-width: 0px;"/>
              <line x1="78.24" y1="114.37" x2="72.24" y2="102.5" style="fill: none; mix-blend-mode: multiply; stroke: #918d55; stroke-linecap: round; stroke-linejoin: round; stroke-width: .46px;"/>
            </g>
            <g>
              <path d="M53.28,86.7l-4.35-.26,4.54,27.97c.04,2.89,2.75,4.99,5.55,4.3h0c2.33-.57,3.8-2.87,3.34-5.23l-9.08-26.79Z" style="fill: #f8b498; stroke-width: 0px;"/>
              <g>
                <g>
                  <path d="M52.93,87.83l1.27-.74c.93-.55,1.63-1.41,1.98-2.43l.97-2.84s.54-1.49-2.6-1.84c-3.14-.35-3.32-.37-3.5.54,0,0,.26,1.39,2.16,2.12l-.26,5.2Z" style="fill: #f8b498; stroke-width: 0px;"/>
                  <path d="M48.97,87.35s-2.61-2.39-1.48-7.69c.13-.61.57-1.11,1.16-1.33.9-.33,3.46-1.08,4.47.04l1.46,3.23-1.64,6.23-3.96-.48Z" style="fill: #f8b498; stroke-width: 0px;"/>
                  <path d="M55.24,80.79l3.72-8.08c.22-.48.02-1.05-.46-1.28h0c-.48-.23-1.05-.03-1.29.44l-3.03,6.06-.74-.04-.9-7.09c-.06-.5-.53-.84-1.02-.76h0c-.43.07-.75.45-.73.89l.25,9.57,4.2.28Z" style="fill: #f8b498; stroke-width: 0px;"/>
                </g>
                <path d="M55.53,80.15s-4.04-1.39-4.5.37c0,0-.41,1.3,2.16,2.12,0,0-1.74.07-2.24,1.87" style="fill: none; stroke: #db7368; stroke-linecap: round; stroke-linejoin: round; stroke-width: .36px;"/>
              </g>
            </g>
          </g>
        </g>
        <g>
          <g>
            <path d="M77.6,75.78c.34,1.69-.75,3.33-2.44,3.67-1.69.34-3.33-.76-3.67-2.44-.34-1.69.75-3.33,2.44-3.67,1.69-.34,3.33.75,3.67,2.44Z" style="fill: #f8b498; stroke-width: 0px;"/>
            <path d="M72.73,76.26s1.12-.81,2.65,1.12" style="fill: none; stroke: #db7368; stroke-linecap: round; stroke-linejoin: round; stroke-width: .36px;"/>
          </g>
          <g>
            <path d="M88.85,73.94c.29,1.7,1.9,2.84,3.6,2.55,1.7-.29,2.84-1.9,2.55-3.6-.29-1.7-1.9-2.84-3.6-2.55-1.7.29-2.84,1.9-2.55,3.6Z" style="fill: #f8b498; stroke-width: 0px;"/>
            <path d="M93.57,72.64s-1.34-.35-2.07,2" style="fill: none; stroke: #db7368; stroke-linecap: round; stroke-linejoin: round; stroke-width: .36px;"/>
          </g>
          <path d="M92.44,65.63c.94,5.45-3.04,10.69-8.88,11.69-5.84,1-11.34-2.6-12.27-8.06-.94-5.45,3.04-10.69,8.88-11.69,5.84-1,11.34,2.6,12.27,8.06Z" style="stroke-width: 0px;"/>
          <path d="M87.25,80.53s-1.12,1.45-2.28,1.96c-1.16.51-2.5-.21-2.52-.22-.02,0-1.6-.82-1.6-.82l1.17,10.22.19.14c2.44,1.86,5.41,1.38,7.12-1.15l.25-.37-2.32-9.77Z" style="fill: #f8b498; stroke-width: 0px;"/>
          <path d="M79.67,80.28s2.72,5.62,5.76,5.04c2.49-.48,2.24-6.11,2.24-6.11l-8,1.07Z" style="fill: #db7368; stroke-width: 0px;"/>
          <path d="M90.55,67.73c.59,3.32.6,6.28.46,8.4-.13,2.08-1.25,3.71-2.98,5.18l-.31.27c-1.83,1.55-4.46,2.04-6.73,1.26h0c-2.29-.78-4.02-2.04-4.85-4.1-1.51-3.75-2.36-8.04-2.36-8.04,0,0-2.25-8.88,6.83-10.32,9.08-1.44,9.95,7.35,9.95,7.35Z" style="fill: #f8b498; stroke-width: 0px;"/>
          <g>
            <polyline points="82.21 73.9 82.44 75.2 83.33 75.04" style="fill: none; stroke: #db7368; stroke-linecap: round; stroke-linejoin: round; stroke-width: .36px;"/>
            <path d="M75.26,70.28l4.71-1.25s-.64-1.17-2.54-.63c-1.95.55-2.17,1.89-2.17,1.89Z" style="fill: #603232; stroke-width: 0px;"/>
            <path d="M88.42,68.02l-4.86.39s.22-1.31,2.19-1.45c2.02-.13,2.68,1.06,2.68,1.06Z" style="fill: #603232; stroke-width: 0px;"/>
            <path d="M79.48,72.55c.07.4-.2.79-.61.86-.4.07-.79-.2-.86-.61-.07-.4.2-.79.61-.86.4-.07.79.2.86.61Z" style="fill: #603232; stroke-width: 0px;"/>
            <path d="M86.67,71.32c.07.4-.2.79-.61.86s-.79-.2-.86-.61c-.07-.4.2-.79.61-.86.4-.07.79.2.86.61Z" style="fill: #603232; stroke-width: 0px;"/>
            <path d="M80.51,77.43s2.23.76,5.32-.91" style="fill: none; stroke: #db7368; stroke-linecap: round; stroke-linejoin: round; stroke-width: .36px;"/>
          </g>
          <path d="M90.2,65.69s-13.24,2.79-14.02-5.13c0,0,11.05-5.29,14.02,5.13Z" style="stroke-width: 0px;"/>
          <path d="M73.21,68.61s4.35-2.76,3.52-7.56c0,0-4.7,1.38-3.52,7.56Z" style="stroke-width: 0px;"/>
        </g>
      </g>
      <path d="M4.7,251.8l.1,59.6c.8-.2,1.4-.5,1.4-.6-.1-.4,4.5.3,4.4-.2-.3-2,4.6.9,4.4,0,.1.3,4.3.1,4.4.3.2,1.2,4.2,3.7,4.1,2.8-.1-.5,4.4.3,4.4,0,.2,1.4,4.4,1,4.3.7,0,.1,4.1-.6,4.4,1.2,0,.3,4.4-.3,4.4-.1,0-.2,3.9-2.7,4-1.8,0-.2,3.9-1.6,4-1,.1.4,4.8,1.5,4.6.5,0-.2,3.1-4.4,3.3-3.2.1.8,5.1.3,5.1.1,0-.1,3.3-4,3.3-3.5,0,.1,5.3,2,5.1,1.3.1.5,3.6-3,3.8-1.6-.3-1.7,3.8,3.6,3.6,2.7.3,1.7,4.1-1.5,4.1-1.4.1.5,3.7,2,3.6,1.7-.3-1.8,3.8-.9,4,.6-.1-.5,4.2,1.2,4.2,1.3,0,.2,3.7-1.6,3.4-3.3-.2-1.5,4.1.2,4,0-.3-1.7,4.3,1.7,4-.3.2,1.5,4.1,1.1,4.2,1.9.2,1,4-2.7,4.1-2-.2-1,5,2.8,4.7,1-.3-1.6,4.2,5.2,3.9,3.3-.1-.5,4.3,6.2,3.8,2.7.1.9,5.5-1,5.5-.9.2,1,3.4,5.5,3.2,4,.2,1,4.5-.3,4.7.9,0,.2,3.9,1.3,4.1,2.5.3,1.8,4.5-.1,4.6.9-.3-1.7,4.6.1,4.4-1.2-.1-.6,3.8-2.9,4.1-1.1,0-.2,4.8,1.9,4.8,1.3.1.6,3.7-2.4,3.7-2.4-.1-.8,3.8-2.7,4.1-1.3,0,.2,4-1.5,4-1.4-.3-1.8,5.3,2.3,5.1,1.5.2,1,3.1-3.7,3.1-3.8.1.7,4.9,1,4.8.7.3,2,4.3-1.7,4.5-.3-.1-.5,3.7-1.9,3.7-2.1-.2-1.3,3.5-.8,3.2-3.2-.2-1.1,3.8-2.3,3.9-1.5-.1-.9,4.6-.8,4.7,0,.4,2.4,3.5-1.9,3.4-2.4.2,1.1,3.6-1.4,3.6-1.6-.1-.8,3.4-1.8,3.4-2,.1.4,4-1.4,4.1-.8.2,1.3,4.6,1.8,4.4.3,0,.1,3.9-2,4.1-.7-.1-.5,4.2-.5,4.2-.8v-50.5l-228.5,3.2h0Z" style="fill: #fff3eb; stroke-width: 0px;"/>
      <g>
        <path d="M76,274.5v5.4l-38.3.1v-5.4l38.3-.1Z" style="fill: #25847d; stroke-width: 0px;"/>
        <path d="M116.9,276.4c-1.1,5.4-3,9.5-5.6,12.7,2,1.4,4.4,2.5,7,3.3-1.1,1-2.5,2.8-3.2,4.1-2.8-1-5.2-2.3-7.3-4-2.4,1.9-5.1,3.2-8.1,4.2-.5-1.1-1.9-3-2.8-3.9-.2,1.5-.7,2.3-1.8,3-1.4.7-3.5.8-6.4.8-.1-1.2-.8-3.1-1.3-4.2,1.7.1,3.7.1,4.4.1.6,0,.8-.2.8-.8v-12.1c-2.2.3-4.5.5-6.5.7-.2,5.7-1.1,12.2-3.2,16.8-.8-.7-2.8-2.1-3.8-2.5,1.7-4,2.4-9.1,2.6-13.9l-2.3.3-.4-4.5,2.8-.2v-13.7h4.2c.5-1.5.9-3.1,1.1-4.5l5,.6c-.6,1.4-1.1,2.7-1.6,3.9h6.3v12.6l.8-.1.1,3.9-.9.1v13.9c2.9-.8,5.4-1.9,7.6-3.4-2.3-2.5-4-5.4-5.4-8.8l2.6-.8h-2.9v-4.3h14.5l.8-.1,2.9.8h0ZM89.2,288.9c-.7-1.7-2-4.4-3.2-6.4l3-1.5c1.3,1.9,2.7,4.4,3.4,6l-3.2,1.9ZM86.1,276c2-.2,4.2-.3,6.4-.5v-9.1h-6.4v2.6l2.8-1.4c1.2,1.7,2.5,4,3.2,5.5l-3.2,1.8c-.6-1.5-1.8-3.7-2.9-5.5v5.6l.1,1h0ZM104.4,265.8c0,3.2-.6,7-3.8,9.2-.7-.8-2.7-2.5-3.6-3.1,2.7-1.8,2.9-4,2.9-6.2v-5.7h13.8v8.1c0,1.1,0,1.5.5,1.5h1.5c.5,0,1.4-.1,2-.3.1,1.2.2,2.8.3,3.9-.6.2-1.5.3-2.3.3h-2c-3.9,0-4.6-1.7-4.6-5.5v-3.8h-4.7v1.6h0ZM103.7,279.8c1,2.4,2.5,4.6,4.3,6.4,1.5-1.8,2.7-3.9,3.5-6.5l-7.8.1h0Z" style="fill: #25847d; stroke-width: 0px;"/>
        <path d="M146.4,282.8c1.8,5.2,4.6,8.7,6.8,8.7,1,0,1.5-1.8,1.7-5.9,1.1,1,2.9,1.9,4.3,2.3-.7,6.9-2.5,8.5-6.2,8.5-5.2,0-9.6-5.7-11.9-13.6h-10.9v7.8l9.9-2.1c0,1.4.3,3.6.6,4.7-12.2,2.9-14.3,3.3-15.6,4-.3-1.3-1.5-3.4-2.2-4.4.9-.6,2.1-1.8,2.1-3.6v-29.3l30.3-.1v13.5h-10.9c.1,1.6.4,3.2.7,4.7h13.2v4.6l-11.9.2h0ZM130.2,264.5v4.4h20.1v-4.4h-20.1ZM140,278.1c-.3-1.5-.5-3.1-.6-4.7h-9.2v4.7h9.8Z" style="fill: #25847d; stroke-width: 0px;"/>
        <path d="M174.5,280.1c-.2,1.5-.6,3-1.1,4.5,1.9,1.4,4.1,3.2,5.3,4.4l-2.6,3.5c-1-1.2-2.7-2.7-4.4-4.1-1.5,2.5-3.6,4.7-6.7,6.5-.6-1.1-2-3-3-3.8,5.6-2.7,7-7.5,7.8-11h4.7ZM195.8,279.1c-.2,1.5-.6,3.2-1,4.8,1.4,2.3,3.9,5.4,6.6,7-1,.8-2.5,2.5-3.2,3.5-1.9-1.5-3.8-3.8-5.2-5.9-1.4,2.5-3.3,4.7-6.2,6.5-.5-1-1.5-2.4-2.5-3.4v5.3h-4.9v-18.6c-4.4.3-8.7.5-12.4.6-.7-1.2-2-3.5-2.9-4.6,10.8.1,24.3-.6,32.1-1.9l3.7,3.7c-4.3.8-9.8,1.5-15.5,1.9v12.7c4.9-3,6.2-8,6.8-11.6h4.6ZM198.4,271.2l-33.6.1v-11.9l33.6-.1v11.9ZM174.4,263.6h-4.9v3.3h4.9v-3.3ZM183.9,263.6h-5v3.3h5v-3.3ZM193.4,263.6h-5.1v3.3h5.1v-3.3Z" style="fill: #25847d; stroke-width: 0px;"/>
      </g>
    </g>
  </g>
</svg>