<?xml version="1.0" encoding="UTF-8"?>
<svg xmlns="http://www.w3.org/2000/svg" width="419.85" height="476.93" xmlns:xlink="http://www.w3.org/1999/xlink" viewBox="0 0 419.85 476.93">
  <defs>
    <filter id="drop-shadow-1" filterUnits="userSpaceOnUse">
      <feOffset dx="3.03" dy="3.03"/>
      <feGaussianBlur result="blur" stdDeviation="3.03"/>
      <feFlood flood-color="#1d3537" flood-opacity=".3"/>
      <feComposite in2="blur" operator="in"/>
      <feComposite in="SourceGraphic"/>
    </filter>
    <clipPath id="clippath">
      <rect x="41.12" y="34.48" width="344.43" height="344.43" transform="translate(-19.94 22.79) rotate(-5.84)" style="fill: none; stroke-width: 0px;"/>
    </clipPath>
    <linearGradient id="linear-gradient" x1="-57.4" y1="97.29" x2="-108.89" y2="25.57" gradientTransform="translate(-33 9.76) rotate(-6.79)" gradientUnits="userSpaceOnUse">
      <stop offset="0" stop-color="#defbf8"/>
      <stop offset="1" stop-color="#fff"/>
    </linearGradient>
    <linearGradient id="linear-gradient-2" x1="131.72" y1="367.36" x2="131.72" y2="399.77" gradientTransform="translate(11.2 -8.48)" gradientUnits="userSpaceOnUse">
      <stop offset="0" stop-color="#c0f9f3"/>
      <stop offset="1" stop-color="#12a8a8"/>
    </linearGradient>
    <filter id="drop-shadow-2" filterUnits="userSpaceOnUse">
      <feOffset dx="3.03" dy="3.03"/>
      <feGaussianBlur result="blur-2" stdDeviation="3.03"/>
      <feFlood flood-color="#1d3537" flood-opacity=".3"/>
      <feComposite in2="blur-2" operator="in"/>
      <feComposite in="SourceGraphic"/>
    </filter>
    <filter id="drop-shadow-3" filterUnits="userSpaceOnUse">
      <feOffset dx="3.03" dy="3.03"/>
      <feGaussianBlur result="blur-3" stdDeviation=".91"/>
      <feFlood flood-color="#473328" flood-opacity=".3"/>
      <feComposite in2="blur-3" operator="in"/>
      <feComposite in="SourceGraphic"/>
    </filter>
  </defs>
  <g style="isolation: isolate;">
    <g id="_圖層_2" data-name="圖層 2">
      <g id="Leadpage-100">
        <g id="general_public">
          <g style="filter: url(#drop-shadow-1);">
            <polygon points="419.85 374.86 45.4 415.37 6.62 36.49 383.29 0 419.85 374.86" style="fill: #fff; stroke-width: 0px;"/>
            <g style="clip-path: url(#clippath);">
              <g>
                <rect x="-154.94" y="27.64" width="556.49" height="361.72" transform="translate(-23.78 16.04) rotate(-6.79)" style="fill: #c0f9f3; stroke-width: 0px;"/>
                <path d="M275.81,64.6s-61.93-33.86-112.74,7.36c-54,43.82-28.9,78.02-29.72,122.06-.33,18.01-1.54,49.97-11.71,65.92-12.91,20.25-42.19,37.74-64.35,41.07-31.24,4.7-62.61-1.59-93.91-1.81-28.34-.2-63.42,3.34-89.79,13.91-5.93,2.38-11.68,5.4-16.96,9.04l11.77,98.84,552.59-65.78-35.38-297.23c-44.87-4.95-50.99,29.1-109.79,6.62Z" style="fill: #c0f9f3; stroke-width: 0px;"/>
                <path d="M-174.37,61.8l13.16,110.59c28.86-11.13,29.9-57.57,57.56-65.92,31.64-9.55,87.04,20.75,106.35-13.62,12.89-22.94,1.42-40.54-9.82-50.95l-167.26,19.91Z" style="fill: url(#linear-gradient); stroke-width: 0px;"/>
                <path d="M11.44,322c-5.11-4.5-13.42-4.82-18.87-.73-.66.49-1.36,1.07-2.18,1.04-.6-.02-1.12-.37-1.68-.58-1.13-.43-2.46-.3-3.49.34-.65.4-1.18,1-1.89,1.27-.84.32-1.78.14-2.65-.08-2.78-.7-5.49-1.8-8.36-1.94-6.74-.31-12.46,4.66-17.17,9.5-1.26,1.3-2.72,2.7-4.53,2.72-1.02.01-2-.44-3.02-.43-3.11.03-4.85,4-7.9,4.61-2.06.41-4.04-.83-5.99-1.63-6.1-2.49-13.77-.29-17.61,5.06-1.54,2.15-3.06,5.05-5.71,5-.74-.01-1.56-.27-2.19.13-.51.32-.72.99-1.2,1.36-1.17.89-2.67-.44-4.02-1.01-1.63-.69-3.58-.16-4.98.92-1.4,1.08-2.35,2.64-3.18,4.21-1.42,2.69-3.65,6.57-3.6,9.63,6.11.54,13.11-1.08,19.25-1.64,3.88-.36,7.77-.71,11.57-1.54,10.83-2.36,20.44-8.4,30.61-12.8,18.94-8.2,40.16-10.82,58.2-20.84.63-.35,1.35-.88,1.25-1.59-.06-.4-.37-.72-.67-.98Z" style="fill: #38617a; stroke-width: 0px;"/>
                <path d="M186.08,260.81c-34.37,6.11-62.23,50.02-129.76,83.28-45.75,22.53-136.49,45.03-190.28,57.2l2.34,19.69,552.59-65.78-6.59-55.36c-135.34,7.83-188.64-46.09-228.31-39.04Z" style="fill: #12a8a8; stroke-width: 0px;"/>
                <path d="M214.95,320.49c-49.28-12.48-32.32-27.73-24.79-46.97,2.56-6.54,2.19-10.65.61-13.25-1.58.1-3.15.27-4.69.54-34.37,6.11-62.23,50.02-129.76,83.28-45.75,22.53-136.49,45.03-190.28,57.2l2.34,19.69,393.06-46.79c-1.93-20.66-15.85-45.94-46.5-53.7Z" style="fill: #0a8a8a; stroke-width: 0px;"/>
                <path d="M297.15,88.72l.09.44c.09.18.21.36.34.51l-.44-.95Z" style="fill: #38617a; stroke-width: 0px;"/>
                <path d="M37.29,319.34c-28.37-4.73-129.22,35.3-175.09,49.68l6.19,51.97,552.59-65.78-3.8-31.89c-6.17.73-13.6,1.62-22.55,2.68-52.89,6.3-329.92-2.08-357.34-6.65Z" style="fill: #09959c; stroke-width: 0px;"/>
                <path d="M29.31,337.5c-10.34-7.86-9.55-13.88-6.22-17.92-39.1,4.86-120.89,36.9-160.88,49.44l6.19,51.97,62.6-7.45c74.17-10.37,147.58-25.01,147.83-35.94.51-21.81-29.02-24.51-49.51-40.09Z" style="fill: #0a8a8a; stroke-width: 0px;"/>
                <rect x="-135.32" y="358.38" width="556.49" height="29.81" transform="translate(-43.12 19.51) rotate(-6.79)" style="fill: url(#linear-gradient-2); stroke-width: 0px;"/>
                <g>
                  <path d="M233.7,237.34c-2.2-.49-3.88-2.24-4.4-4.43-.74-3.07-2.92-5.79-5.94-6.69-4.19-1.26-9.3,1.79-9.69,6.15-.28-6.16-.91-13.05-5.61-17.04-3.15-2.68-7.6-3.43-11.71-2.91-11.7,1.47-20.94,13.58-19.29,25.25-1.16-5.95-8.85-9.02-14.41-6.61-5.56,2.41-8.64,8.79-8.59,14.85-.61-3.54-4.66-6.05-8.1-5.03-2.42.72-4.13,3.06-4.45,5.53-.27,2.12-1.71,3.91-3.71,4.67l-19.1,7.26,135.16-15.95c-6.63-.84-13.47-3.55-20.17-5.04Z" style="fill: #fff; stroke-width: 0px;"/>
                  <g>
                    <path d="M217.17,245c-1.07.26-3.7.86-4.77,1.12-.22.24.02,1.68.03,1.99.02,1.24.05,2.48.04,3.71,0,2.09.33,6.27-1.22,7.83-1.41,1.43-5.96,1.65-7,3.98-1.95,4.37-.27,14.31-1.34,15.97-1.06,1.64-4.29,1.01-4.24,4.04.09,5.59-.87,11.34-1.47,16.94-.58,5.45-.08,12.09-3.35,17.09-.65.99-1.46,1.93-2.47,2.77-.65.56-1.39,1.07-2.21,1.55-3.82,2.17-8.12,2.92-12.18,4.53-3.64,1.44-7.42,2.67-11.09,4.07-5.85,2.24-21.8,2.5-25.9,6.83-1.28,1.37,1.02,6.77.99,8.89-.19,11.1,6.15,21.67,3.06,25.95-2.64,3.67-2.77,10.36-2.6,15.1l268.76-31.99-11.88-99.82c-9.17-2.47-18.48-4.64-27.9-6.49-49.57-9.74-102.62-15.9-153.27-4.06Z" style="fill: #38617a; stroke-width: 0px;"/>
                    <path d="M219.43,362.55s-.24,9.43-.28,15.55l59.83-7.12-16.82-8.7-34.94-2.69-7.79,2.96Z" style="fill: #274d60; stroke-width: 0px;"/>
                    <path d="M200.16,356.26l7.02-.81,5.19-3.14-2.26-4.63-40.13-2.64-20.73,4.05s.54,11.57-.46,15.29c-1,3.73-4.73,7.88-4.73,7.88-2.64,3.67-2.77,10.36-2.6,15.1l57.8-6.88.9-24.21Z" style="fill: #274d60; stroke-width: 0px;"/>
                    <path d="M314.5,325.25l-5.51,22.28-.87,10.45s9.37,1.04,10.41,1.1c1.04.06,7.87-16.42,15.66-22.66,7.79-6.24,6.09-14.23,6.09-14.23l-13.62-2.89-12.15,5.96Z" style="fill: #274d60; stroke-width: 0px;"/>
                    <path d="M210.82,280.96l.09,36.91-10.37,5.16,36.32,9.77,1.61-4.62.29-.83c2.87-8.08,8.92-14.62,16.71-18.21,7.84-3.61,16.92-8.79,18.49-13.98,2.86-9.41-23.99-16.2-23.99-16.2l-30.27.94-8.89,1.06Z" style="fill: #274d60; stroke-width: 0px;"/>
                    <path d="M271.1,306.81l-1.76,34.52,9.49,4.94,12.91-1.54s10.26-25.69,15.03-29.65c4.77-3.95,6.78-9.43,6.78-9.43l-17.09-4.15s-19.55-.61-25.36,5.31Z" style="fill: #274d60; stroke-width: 0px;"/>
                    <path d="M213.02,246.71c.09.06.19.11.31.16,6.36,2.86,22.75,1.51,16.42,5.28-6.33,3.77-33.4,10.01-23.26,13.02,10.14,3.03,21.18,1.1,17.9,5.12-3.28,4.02-22.28,8.69-9.79,12.64,12.5,3.94,62.37,5.85,59.37,12.24-1.37,2.93-3.27,5.41-4.1,7.43-1.01,2.41-.51,4.16,4.11,5.25,5.91,1.39,12.58.35,18.57.18,3.9-.11,16.96-1.92,15,5.07-.19.69-.54,1.32-.78,1.99-.98,2.64-.42,5.1,1.46,7.11,4.21,4.48,18.04,5.24,24.57,6.2-2.29,3.75.4,8.31,4.6,10.44,4.22,2.12,9.49,2.43,14.54,2.67,7.79.35,15.58.66,23.38.92,6.3.21,12.69.39,18.67,1.82,5.54,1.32,10.54,3.66,15.6,5.83l-17.28-145.14c-47.82,5.91-97.16,12.43-118.07,16.56-45.47,8.97-66.53,22.02-61.22,25.2Z" style="fill: #58d289; stroke-width: 0px;"/>
                    <path d="M356.98,242.28c-.21-2.27-1.69-4.36-3.61-5.63-4.99-3.3-12.7-1.99-18.39-1.58-6.52.46-13.03,1.21-19.52,2.03-8.15,1.03-16.28,2.18-24.39,3.51,0,0-34.57,8.11-49.02,15.03-14.45,6.92-19.72,18.83-7.49,19.46,9.83.5,19.83-1.29,29.59-2.24,4.69-.46,7.58-1.31,11.66.47,4.82,2.1,7.31,4.78,13.23,3.85,11.09-1.75,20.53-8.34,30.15-13.66,6.04-3.34,12.52-5.71,19.07-7.82,5.68-1.83,11.43-3.07,15.95-7.22,1.51-1.39,2.69-3.27,2.8-5.33.02-.29,0-.58-.02-.86Z" style="fill: #58d289; mix-blend-mode: multiply; opacity: .3; stroke-width: 0px;"/>
                    <path d="M315.67,350.17c-1.3-2.23-2.05-4.93-4.64-6.22-1.74-.85-3.92-.87-5.99-.94-14.64-.51-26.36-6.76-40.61-8.11-17.18-1.61-20.28.09-23.21-3.56-2.91-3.64-2.21-4.72-16.43-5.69-14.2-.97-25.21-2.99-17.17-4.94,7.61-1.85,3.42-6.46-16.72-4.33-1.16.12-2.36.26-3.62.43-23.26,3.1-49.46,16.2-47.28,20.6.94,1.9,3.07,2.78,5.22,3.4,2.83.79,5.68,1.1,5.86,2.6.31,2.63-4.78,5.22.52,7.92,5.3,2.69,60.66-2.23,56.07.97-4.6,3.21-10.36,3.56-6.11,4.4,4.24.82,18.65.1,18.81,1.42.16,1.31-3.68,3.76,1.63,6.79,5.52,3.12,18.96,1.83,25.51,2.07,8.7.3,16.72.68,23.03,5.02l74.46-8.86c-1.34-.27-2.67-.54-4.01-.81-9.93-2.01-20.99-4.72-25.33-12.15Z" style="fill: #58d289; stroke-width: 0px;"/>
                    <path d="M315.67,350.17c-1.3-2.23-2.05-4.93-4.64-6.22-1.74-.85-3.92-.87-5.99-.94-14.64-.51-26.36-6.76-40.61-8.11-17.18-1.61-20.28.09-23.21-3.56-2.91-3.64-2.21-4.72-16.43-5.69-14.2-.97-25.21-2.99-17.17-4.94,7.61-1.85,3.42-6.46-16.72-4.33-1.16.12-2.36.26-3.62.43-4.94.66-10.01,1.77-14.91,3.15-4.98,7.96-9.32,18.79,3.38,19.38,20.2.94,73.56-.72,71.2,7.59-2.36,8.32-13.11,13.61,15.51,12.21,24.44-1.19,34.86-9.5,62.48,6.37l20.06-2.39c-1.34-.27-2.67-.54-4.01-.81-9.93-2.01-20.99-4.72-25.33-12.15Z" style="fill: #58d289; mix-blend-mode: multiply; opacity: .3; stroke-width: 0px;"/>
                  </g>
                  <path d="M244.3,115.85c-1.82.08-3.79.12-5.3-.89-1.44-.97-2.15-2.68-3.25-4.02-3.04-3.73-9.32-3.43-12.68-.23-.91.87-2.41.45-2.82-.74-1.74-5.04-5.14-9.57-10.09-11.33-6.12-2.18-14.27,1.83-14.56,8.32-.54-3.7-5.38-5.52-8.81-4.05-3.43,1.47-5.44,5.13-6.3,8.77.08-6.06-2.42-11.94-4.25-17.72-1.83-5.78-5.91-11.19-11.69-13.01-5.62-1.77-11.86.13-16.75,3.42-10.49,7.04-13.56,20.34-11.1,32.73-1.84-4.8-7.75-7.6-12.63-5.98-3.49,1.15-6.22,5.56-7,9.78-.59,3.25-2.62,6.05-5.6,7.46l-18.04,8.53,171.28-20.39c-6.75.3-13.68-.94-20.43-.64Z" style="fill: #fff; stroke-width: 0px;"/>
                  <path d="M333.95,156.61c-1.26-.12-2.31-1.05-2.53-2.3-.41-2.34-2.64-4.43-5.12-4.56-3.18-.18-6.11,2.32-7.07,5.36-.39-2.99-3.1-5.5-6.11-5.66-3.01-.17-5.98,2.03-6.7,4.95-1.57-6.06-1.45-12.79-4.97-17.96-3.63-5.33-10.76-7.75-17.07-6.42-6.31,1.33-11.64,6.02-14.48,11.81-2.83,5.79-3.32,12.56-2.14,18.9-1.42-2.27-2.89-4.59-4.96-6.29-2.07-1.7-4.88-2.72-7.45-2-2.45.69-4.28,2.83-5.23,5.2-.75,1.87-1.04,3.88-1.22,5.9-.09,1-.71,1.86-1.61,2.3-6.56,3.16-13.18,6.79-20.05,9.09l132.88-15.82-26.18-2.48Z" style="fill: #fff; stroke-width: 0px;"/>
                  <g>
                    <path d="M239.57,114.38c.11.98,6.37.04,7.03.27.66.23.15,1.99,1.69,3.84,1.55,1.84,4.32.88,5.09.32.77-.56.27-1.43,1.6-1.22,1.33.21,3.8.86,3.89.58.09-.28-.34-4.73-.34-4.73,0,0-3.93-1.59-5.7-1.84-1.77-.26-13.43,1.39-13.27,2.78Z" style="fill: #f1cda5; stroke-width: 0px;"/>
                    <path d="M307.41,97.17s-13.33,12.14-26.51,14.94c-13.19,2.8-22.74-.17-22.74-.17,0,0-1.66,4.49-.85,6.46.81,1.98,18.18,6.08,31.34,2.31,13.15-3.77,26.79-10.13,27.89-13.15,1.1-3.01.41-13.12-9.11-10.39Z" style="fill: #00b7a9; stroke-width: 0px;"/>
                    <path d="M300.92,113.62c-.54-.26-5.28,2.6-17.92,5.5-10.53,2.42-22.28-.83-25.92-1.98.01.47.07.9.22,1.25.81,1.98,18.18,6.08,31.34,2.31,4.82-1.38,9.7-3.11,14.01-4.9-.72-1.05-1.47-2.07-1.72-2.19Z" style="fill: #00b7a9; mix-blend-mode: multiply; opacity: .5; stroke-width: 0px;"/>
                    <path d="M310.79,73.36c-5.19-4.51-10.63-3.98-15.55-1.78-4.91,2.2-4.23,10.18-4.23,10.18.09,1.08.2,2.15.34,3.23.11.83.42,1.77.26,2.58-.2.98-.78,2.01-1.15,2.94-.16.42-.31.92-.04,1.28.18.23.48.32.77.33.29.02.58-.01.86.04,1.56.28,1.65,1.98,2.25,3.23.39.82,1.01,2.28,2.01,2.51,1.39.32,4.93-3.17,7.03-2.32,2.1.85,2.52,2.87,3.96,2.63,1.43-.24,8.23-4,8.23-4,0,0-2.3-2.83-1.51-5.13.79-2.3,1.97-11.19-3.22-15.69Z" style="fill: #f1cda5; stroke-width: 0px;"/>
                    <path d="M315.75,80.52c1.1-1.1.94-3.17-.3-4.09-.15-.11-.31-.21-.4-.37-.14-.26-.02-.58.06-.87.31-1.06.08-2.27-.59-3.14-.68-.88-1.79-1.4-2.89-1.36.09-.83.14-1.73-.31-2.43-.43-.67-1.24-1.01-2.03-1.07-.79-.06-1.58.13-2.35.32-.22-.97-.68-2.02-1.61-2.38-.62-.24-1.32-.13-1.95.06-1.32.39-2.56,1.08-3.57,2.01-.88-.85-2.23-1.17-3.41-.82-1.17.35-2.13,1.36-2.41,2.55-.51-.7-1.53-.9-2.34-.6-.81.3-1.41,1.02-1.77,1.81s-.51,1.65-.65,2.51c-.44-.15-.9-.1-1.32.09-.68.31-1.22.98-1.26,1.74-.06,1.22,1.07,2.33,2.29,2.35-.28.88-.55,1.89-.07,2.68.57.94,1.87,1.06,2.96.99,1-.07,2-.22,2.98-.44-.6.77-.05,2,.83,2.43.88.43,1.92.31,2.89.18,0,1.55,1.14,2.83,2.34,3.67.52.36.32.49.62,0,.16-.26.16-.82.23-1.13.33-1.28,1.42-4.29,2.87-2.11.66,1,1.14,2.17,1.17,3.37.02,1.15.09,2.09,1.04,2.94.8.7,1.94.99,2.97.75.24-.06.48-.14.73-.16.29-.02.58.05.87.1.93.15,1.94.05,2.72-.48.79-.52,1.29-1.51,1.08-2.43-.07-.28-.2-.57-.11-.85.11-.37.52-.53.83-.76.6-.45.84-1.26.74-2-.1-.74-.51-1.4-1.01-1.95-.1-.11-.21-.23-.24-.38-.05-.28.2-.5.4-.7Z" style="fill: #091b21; stroke-width: 0px;"/>
                    <path d="M311.27,242.15s.17,2.02-2.87,3.63c-3.05,1.61-9.35,2.64-9.17,4.66.17,2.02,7.98,1.53,11.82.9,3.84-.63,8.86-.83,9.19-1.67.33-.84-1.36-8.3-1.36-8.3l-7.6.78Z" style="fill: #091b21; stroke-width: 0px;"/>
                    <path d="M334.52,235.69s.37,1.99-2.5,3.9c-2.87,1.9-9.04,3.56-8.66,5.55.37,2,8.09.73,11.85-.28,3.76-1.01,8.73-1.7,8.98-2.57.25-.87-2.18-8.12-2.18-8.12l-7.49,1.53Z" style="fill: #091b21; stroke-width: 0px;"/>
                    <path d="M335.26,152.58s-19,.52-19.66,1.47c-.66.95-.54,23.56,1.55,43.32,2.09,19.76,16.62,40.07,16.62,40.07l9.48-2.58s-10.68-23.86-11.98-35.7c-.55-5-1.26-10.58,1.38-23.07,2.63-12.49,2.61-23.51,2.61-23.51Z" style="fill: #17303a; stroke-width: 0px;"/>
                    <path d="M308.13,154.07c-1.24.44-3.94,31.79-4.87,47.85-.92,16.06,6.56,42.14,6.56,42.14,0,0,8.45-.52,9.11-1.47.66-.95-3.79-26.4-1.66-36.8,1.09-5.3,4.24-10.68,10.72-27.69,6.48-17.01,7.27-25.52,7.27-25.52,0,0-25.89,1.05-27.13,1.49Z" style="fill: #234556; stroke-width: 0px;"/>
                    <path d="M320.1,175.51c-4.79,13.87-11.47,26.25-10.46,34.72.59,4.98,3.24,21.01,5.33,33.36,1.9-.24,3.68-.58,3.96-.99.66-.95-3.79-26.4-1.66-36.8,1.09-5.3,4.24-10.68,10.72-27.69,6.48-17.01,7.27-25.52,7.27-25.52,0,0-7.51.31-14.64.66.85,2.07,3.6,10.32-.52,22.27Z" style="fill: #234556; mix-blend-mode: multiply; opacity: .3; stroke-width: 0px;"/>
                    <path d="M313.88,93.12c-1.44,1.54-3.13,2.76-4.71,3.69-4.62,2.73-7.91,7.27-8.94,12.54-.83,4.24-.88,9.16.73,14.83,3.11,10.94,3.47,29.17,3.78,31.74.31,2.57,1.56.1,10.97,1.3,9.42,1.2,19.66-1.47,21.24-3.4,1.57-1.93-2.99-16.46-5.64-30.07-2.65-13.6-12.39-36.01-17.43-30.64Z" style="fill: #00b7a9; stroke-width: 0px;"/>
                    <path d="M313.88,93.12c-1.44,1.54-3.13,2.76-4.71,3.69-.61.36-1.2.76-1.76,1.18.94,8.47,4.41,36.07,10.26,42.61,5.36,6,7.68,10.32,6.06,16.82,6.53-.45,12.1-2.21,13.23-3.59,1.57-1.93-2.99-16.46-5.64-30.07-2.65-13.6-12.39-36.01-17.43-30.64Z" style="fill: #00b7a9; mix-blend-mode: multiply; opacity: .5; stroke-width: 0px;"/>
                    <path d="M296.96,142.48c-1.36.32-1.96-.25-4.01.1-2.05.35-4.16,1.14-4.01,1.87.14.73,2.28-.22,3.07.12.79.33.17,1.86-1.32,2.46-1.48.61-4.7-.3-4.27.67.44.97,3.62,2.47,6.1,2.55,2.48.08,5.65-2.98,7.1-3.47,1.44-.49,4.34-1.86,4.34-1.86l-1.88-4.55s-3.76,1.79-5.11,2.11Z" style="fill: #f1cda5; stroke-width: 0px;"/>
                    <path d="M305.23,119.73l-1.75,1.85s4.14,8.75,23.16,11.03l.56-2.46s-11.76-1.21-21.97-10.42Z" style="fill: #091b21; stroke-width: 0px;"/>
                    <path d="M298.58,106.42c-1.6,7.99,3.98,17.08,6.12,18.62,2.13,1.55,4.35-1.27,4.62-2.8.27-1.53-8.46-10.54-5.1-18.89,3.36-8.35,17.31-7.54,17.31-7.54l.19-4.88c-16.24-.32-21.53,7.5-23.13,15.49Z" style="fill: #091b21; stroke-width: 0px;"/>
                    <path d="M333.27,92.61c-5.2-1.58-13.37,2.86-13.37,2.86,0,0,6.62,12.76,8.53,18.74,1.91,5.98,2.53,31.34,6.54,33.07,4.01,1.73,22.91-2.73,24.17-7.28,1.26-4.56-6.5-27.67-8.47-32.44-1.97-4.77-12.21-13.37-17.4-14.95Z" style="fill: #091b21; stroke-width: 0px;"/>
                    <polygon points="323.56 133.29 333.9 141.04 332.63 129.81 324.17 129.21 323.56 133.29" style="fill: #102d35; stroke-width: 0px;"/>
                    <path d="M339.76,88.4c-6.67-2.65-16.73.91-19.07,2.81-1.51,1.23-1.53,2.91-1.36,3.96.1.6.51,1.13,1.1,1.3,3.26.93,7.04-1.9,13.64-.76,7.18,1.24,12.86,12,14.02,13.28,1.17,1.28,5.25-.22,6.11-1.54.86-1.32-7.77-16.39-14.44-19.04Z" style="fill: #102d35; stroke-width: 0px;"/>
                    <path d="M355,117.77c-.99.43-1.52,1.51-1.28,2.56l3.6,15.54c.27,1.18,1.44,1.94,2.63,1.69,2-.42,4.88-1.12,6.29-1.96,2.29-1.36-.32-14.12-3.18-17.6-1.97-2.39-5.84-1.2-8.06-.23Z" style="fill: #102d35; stroke-width: 0px;"/>
                    <path d="M334.77,113.26c-1.04.27-1.81,1.15-1.92,2.21-.58,5.38,1.82,20.85,4.22,23.36,2.8,2.93,10.87.85,13.3-1.62,2.43-2.47-1.14-22.51-4.11-25.38-1.1-1.07-8.38.62-11.49,1.43Z" style="fill: #102d35; stroke-width: 0px;"/>
                    <path d="M315.36,97.88c-5.16-1.45-7.88,2.76-7.88,2.76-1.73,8.34,10.1,21.98,9.44,27.17-.66,5.19-17.34,12.28-17.57,13.41s2.1,5.41,2.69,5.7c.58.3,25.58-10.53,25.77-16.57.19-6.05-4.55-30.26-12.44-32.47Z" style="fill: #00b7a9; stroke-width: 0px;"/>
                    <path d="M320.1,134.23c-6.35,4.2-15.28,9.49-18.9,11.61.36.57.68.99.86,1.08.02,0,.06,0,.11,0,2.04-.39,25.45-10.72,25.64-16.57.07-2.04-.43-6.14-1.42-10.77.09,3.92-.63,10.91-6.29,14.66Z" style="fill: #00b7a9; mix-blend-mode: multiply; opacity: .5; stroke-width: 0px;"/>
                  </g>
                  <g>
                    <g>
                      <path d="M256.34,188.69c-2.74-.02-3.62.85-3.81,1.65s1.26,3.42,1.67,4.49c.41,1.07,1.24,2.17,2.29,2.74,1.05.58.98,1.78.98,1.78l3.44-.55s.51-2.8-.09-4.9c-.6-2.1-1.74-5.19-4.48-5.22Z" style="fill: #e8b480; stroke-width: 0px;"/>
                      <path d="M276.2,198.81c-3.01,1.2-8.27,14.17-9.85,13.94-1.57-.23-5.29-14.95-5.29-14.95l-4.55,1.24s3.26,28.59,7.84,28.11c4.57-.47,21.17-22.51,20.63-26.52-.55-4-5.76-3.03-8.78-1.83Z" style="fill: #ffc02f; stroke-width: 0px;"/>
                      <g>
                        <g>
                          <g>
                            <path d="M240.88,190.96c-.23.75-.32,1.64-.21,2.59s.43,1.87.87,2.56c.41.65,1.2.95,1.94.79l3.79-.81-.77-6.51-3.88.09c-.79.02-1.5.53-1.73,1.29Z" style="fill: #32596d; stroke-width: 0px;"/>
                            <path d="M246.5,189.59c-1.11.13-1.84,1.68-1.63,3.46.21,1.78,1.28,3.11,2.39,2.98,1.11-.13,1.84-1.68,1.63-3.46s-1.28-3.11-2.39-2.98Z" style="fill: #234556; stroke-width: 0px;"/>
                          </g>
                          <g>
                            <path d="M246.66,189.91c-1,.12-1.66,1.51-1.47,3.12.19,1.6,1.16,2.8,2.16,2.68.08,0,.15-.04.23-.07l13.24-2.85-.38-3.2-13.54.32c-.08,0-.16-.02-.24,0Z" style="fill: #32596d; stroke-width: 0px;"/>
                            <path d="M260.44,189.61c-.55.06-.9.83-.8,1.7.1.87.63,1.53,1.18,1.46s.9-.83.8-1.7-.63-1.53-1.18-1.46Z" style="fill: #234556; stroke-width: 0px;"/>
                            <ellipse cx="260.63" cy="191.19" rx=".63" ry="1.01" transform="translate(-20.77 32.15) rotate(-6.79)" style="fill: #17303a; stroke-width: 0px;"/>
                          </g>
                        </g>
                        <g>
                          <g>
                            <path d="M236.61,191.47c-.23.75-.32,1.64-.21,2.59s.43,1.87.87,2.56c.41.65,1.2.95,1.94.79l3.79-.81-.77-6.51-3.88.09c-.79.02-1.5.53-1.73,1.29Z" style="fill: #38617a; stroke-width: 0px;"/>
                            <path d="M242.23,190.1c-1.11.13-1.84,1.68-1.63,3.46s1.28,3.11,2.39,2.98c1.11-.13,1.84-1.68,1.63-3.46s-1.28-3.11-2.39-2.98Z" style="fill: #234556; stroke-width: 0px;"/>
                          </g>
                          <g>
                            <path d="M242.39,190.42c-1,.12-1.66,1.51-1.47,3.12.19,1.6,1.16,2.8,2.16,2.68.08,0,.15-.04.23-.07l13.24-2.85-.38-3.2-13.54.32c-.08,0-.16-.02-.24,0Z" style="fill: #38617a; stroke-width: 0px;"/>
                            <path d="M256.17,190.12c-.55.06-.9.83-.8,1.7s.63,1.53,1.18,1.46c.55-.07.9-.83.8-1.7s-.63-1.53-1.18-1.46Z" style="fill: #234556; stroke-width: 0px;"/>
                            <path d="M256.23,190.69c-.35.04-.58.53-.51,1.08s.4.97.75.93.58-.53.51-1.08-.4-.97-.75-.93Z" style="fill: #17303a; stroke-width: 0px;"/>
                          </g>
                        </g>
                      </g>
                      <path d="M275.65,179.44c-4.91-4.26-10.06-3.76-14.71-1.69-4.65,2.08-4,9.62-4,9.62,0,0,.35,4.99,1.34,8.14.99,3.15,2.35,6.8,3.67,7.1,1.32.3,4.66-3,6.65-2.2,1.99.8,2.39,2.71,3.74,2.49,1.36-.22,7.78-3.78,7.78-3.78,0,0-2.17-2.68-1.43-4.85.74-2.17,1.86-10.58-3.05-14.84Z" style="fill: #f1cda5; stroke-width: 0px;"/>
                      <path d="M275.33,177.38c-.4-.48-1.89-3.3-5.56-3.73-3.67-.43-4.66,1.84-6.24,1.85-1.58.01-2.82-.45-4.12.08-1.3.53-1.31,1.63-2.75,2.09-1.44.45-1.98,2.21-3.15,1.24,0,0-.27,5.33,2.69,6.59,2.96,1.26,4.1-.93,5.45,1.45,1.36,2.38,4.69,5.59,4.66,5.11-.03-.48,1.09-6.2,2.96-3.37,1.87,2.82.84,4.98,1.12,5.86.28.89,4.63,2.32,7.32,1.96,2.69-.36,3.59-8.32,1.55-13.65-2.05-5.33-3.52-4.98-3.92-5.47Z" style="fill: #091b21; stroke-width: 0px;"/>
                      <path d="M264.32,250.04s.17,1.97-2.8,3.53c-2.97,1.56-9.11,2.57-8.93,4.54.17,1.97,7.78,1.49,11.52.87,3.74-.62,8.63-.8,8.95-1.63.33-.82-1.33-8.08-1.33-8.08l-7.41.76Z" style="fill: #091b21; stroke-width: 0px;"/>
                      <path d="M283.09,228.85c-1.86-1.33-18.89-12.35-21.98-6.92-3.09,5.43,2.23,28.74,2.23,28.74,0,0,8.19.3,8.31-1.83.12-2.13-2.25-13.52-1.34-13.67.91-.15,15.49,21.58,26.82,20.65,11.32-.93,11.42-11.72,7.14-16.4-4.28-4.68-21.18-10.57-21.18-10.57Z" style="fill: #17303a; stroke-width: 0px;"/>
                      <path d="M246.64,261.24s.17,1.97-2.8,3.53c-2.97,1.56-9.11,2.57-8.94,4.54.17,1.97,7.78,1.49,11.52.87,3.74-.62,8.63-.8,8.95-1.63.33-.82-1.33-8.08-1.33-8.08l-7.41.76Z" style="fill: #091b21; stroke-width: 0px;"/>
                      <path d="M279.69,241.21c-1.76-.86-22.31-19.31-30.81-14.91-8.5,4.39-2.58,34.31-2.25,34.95.34.64,7.95.69,8.25-.28.3-.97-.19-17.49.82-16.96,1.01.53,21.2,20.95,30.59,19.18,9.39-1.77,9.99-3.82,12.61-4.61,5.05-1.52,9.42-4.62,10.15-6.97,1.81-5.83-.94-14.14-.94-14.14l-28.43,3.75Z" style="fill: #234556; stroke-width: 0px;"/>
                      <path d="M291.23,242.79s-4.25,12.6-11.28,11.85c-7.03-.75-20.61-16.58-26.31-14.51-4.28,1.55-3.01,14.98-2.12,21.56,1.7-.07,3.23-.3,3.36-.72.3-.97-.19-17.49.82-16.96,1.01.53,21.2,20.95,30.59,19.18,9.39-1.77,9.99-3.82,12.61-4.61,5.05-1.52,9.42-4.62,10.15-6.97,1.38-4.44.11-10.31-.57-12.86-9.05,1.29-17.26,4.06-17.26,4.06Z" style="fill: #203f4c; stroke-width: 0px;"/>
                      <path d="M286.93,198c-10.98-5.28-19.8,6.54-19.77,12.65.03,6.11,7.77,11.67,9.77,18.17.89,2.87.77,10.2,1.08,12.93.42,3.75,3.06,3.67,6.39,3.55,5.59-.2,14.64,10.85,26.16-2.36,0,0-11.35-39.04-23.63-44.95Z" style="fill: #ffd76f; stroke-width: 0px;"/>
                      <path d="M276.9,209.01s-3.18-3.37-7.14-5.41c-1.66,2.43-2.61,5.05-2.6,7.06.03,6.11,7.77,11.67,9.77,18.17.89,2.87.77,10.2,1.08,12.93.42,3.75,3.06,3.67,6.39,3.55,1.4-.05,3.02.61,4.84,1.41-1.25-2.96-3.79-6.48-5.64-9.76-3.77-6.69-6.7-27.95-6.7-27.95Z" style="fill: #ffd76f; mix-blend-mode: multiply; opacity: .5; stroke-width: 0px;"/>
                      <path d="M250.04,188.65c-2.94.73-3.97,1.68-4.37,3.24-.39,1.56-.23,3.26.27,4.46.5,1.2.52,4.74.52,4.74l3.8-.56s-.3-2.42.51-3.28c.82-.86,1.27-1.56,1.15-3.28-.11-1.71-.2-3.32.59-3.65.78-.33,1.37-.31,1.31-.53-.06-.22-.85-1.89-3.8-1.16Z" style="fill: #f1cda5; stroke-width: 0px;"/>
                      <path d="M271.47,216.21s-3.6.14-2.14,3.87c1.46,3.73,12.91,10.04,12.91,10.04l1-3.74-2.66-1.71c-2.66-1.71-9.11-8.46-9.11-8.46Z" style="fill: #0cbab5; stroke-width: 0px;"/>
                      <path d="M279.13,206.08c-1.6-5.31-7.15-6.61-10.21-1.99-3.47,5.24-12.09,14.93-13.02,15.54-1.2.79-4.87-19.51-4.87-19.51,0,0-4.31-.26-5.51.53-1.2.79-1.71,26.27,5.06,29.73,6.77,3.47,30.91-15.9,28.63-24.06-.02-.08-.05-.16-.07-.24Z" style="fill: #ffd76f; stroke-width: 0px;"/>
                      <path d="M279.13,206.08c-.48-1.61-1.33-2.84-2.36-3.66-1.05,4.28-4.45,13.36-14.86,18.88-7.6,4.03-11.47,5.91-13.87,6.28.7,1.31,1.53,2.3,2.53,2.81,6.77,3.47,30.91-15.9,28.63-24.06-.02-.08-.05-.16-.07-.24Z" style="fill: #ffd76f; mix-blend-mode: multiply; opacity: .5; stroke-width: 0px;"/>
                    </g>
                    <path d="M309.52,201.37c-.42-.82-9.43-11.89-29.27-4.81,0,0-1.43.1.1,5.47,1.53,5.37,5.4,23.98,5.8,30.01.39,6.03,1.48,7.85,4.65,8.99,3.17,1.14,23.13-3.51,24.36-8.65,1.23-5.14.39-9.49-.71-14.13-1.1-4.64-4.52-16.06-4.94-16.88Z" style="fill: #12a8a8; stroke-width: 0px;"/>
                    <path d="M275.53,195.1c-5.4,2.7-4.78,7.05-4.78,7.05,0,0,6.19-5.6,10.12-4.88,3.92.72,6.69-2.36,6.69-2.36,0,0-6.62-2.51-12.02.19Z" style="fill: #09959c; stroke-width: 0px;"/>
                    <path d="M294.32,238.09c-3.5-.33-8.55-33.22-9.95-42.78-1.32.33-2.69.74-4.12,1.25,0,0-1.43.1.1,5.47,1.53,5.37,5.4,23.98,5.8,30.01.39,6.03,1.48,7.85,4.65,8.99,2.85,1.02,19.21-2.62,23.42-7.1-6.51,1.84-16.77,4.44-19.91,4.15Z" style="fill: #09959c; stroke-width: 0px;"/>
                    <polygon points="280.74 223.64 280.29 230.79 289.86 237.03 287.26 224.89 280.74 223.64" style="fill: #09959c; stroke-width: 0px;"/>
                    <path d="M304.6,191.84c-3.02-1.19-15.49,1.62-20.18,2.75-1.3.31-2.56.77-3.73,1.42-.64.36-.89.61-.67.92.39.53,3.88-.71,5.73,1.18,1.84,1.89,3.65,11.63,4.99,13.39,1.34,1.76,18.45-1.43,20.55-4.17,2.1-2.74-2.96-14.01-6.7-15.48Z" style="fill: #0cbab5; stroke-width: 0px;"/>
                    <path d="M301.53,219.27c-1.56.48-2.51,2.03-2.23,3.64.71,4.08,2.14,11.26,3.44,11.72,1.81.65,13.94-3.18,16.19-5.29,2.24-2.11.76-10.94-1.21-12.88-1.47-1.45-11.33,1.32-16.19,2.81Z" style="fill: #0cbab5; stroke-width: 0px;"/>
                    <path d="M306.07,228.91c-4.04-1.45-3.54-8.06-3.29-10.02-.44.13-.86.26-1.25.38-1.56.48-2.51,2.03-2.23,3.64.71,4.08,2.14,11.26,3.44,11.72,1.81.65,13.94-3.18,16.19-5.29.89-.84,1.19-2.75,1.11-4.86-4.35,1.68-10.5,5.68-13.96,4.44Z" style="fill: #0cbab5; mix-blend-mode: multiply; opacity: .5; stroke-width: 0px;"/>
                  </g>
                </g>
                <g>
                  <path d="M400.53,331.68s-16.12-29.91-36.1-45.64c-19.98-15.73-32.3-6.38-34.47,2.35-2.17,8.73.91,22.38.91,22.38,0,0,3.35-6.24,6.53-16.26,3.19-10.02.5-17.87,13.64-20.32,13.14-2.44,38.16,26.12,49.48,57.48Z" style="fill: #069940; stroke-width: 0px;"/>
                  <path d="M401.91,336.44s-21.47-26.34-44.05-38.02c-22.59-11.68-32.92-.18-33.41,8.81-.49,8.98,5.11,21.81,5.11,21.81,0,0,2.11-6.76,3.35-17.2,1.24-10.44-2.88-17.65,9.57-22.52,12.45-4.87,42.39,18.47,59.43,47.13Z" style="fill: #088537; stroke-width: 0px;"/>
                  <path d="M404.43,337.6s-20.8-26.69-38.17-34.2c-24.88-10.76-27.94,16.5-26.29,28.1,0,0,9.26-39.79,30.03-31.29,20.77,8.5,34.44,37.39,34.44,37.39Z" style="fill: #069940; stroke-width: 0px;"/>
                  <path d="M403.5,337.37s-9.72-19.42-30.73-20.76c-21.01-1.34-22.76,13.96-22.76,13.96,0,0,18.97-25.03,53.49,6.8Z" style="fill: #069940; stroke-width: 0px;"/>
                  <path d="M400.84,336.49s-39.31-39.09-61.48-26.2c-22.18,12.9-9.9,35.6-9.9,35.6,0,0-4.45-31.62,15.83-31.75,20.27-.13,55.55,22.34,55.55,22.34Z" style="fill: #0eb04b; stroke-width: 0px;"/>
                  <path d="M398.77,340.16c-.74-.64-17.07-15.07-27.43-15.89-10.36-.82-10.54,16.76-10.54,16.76,0,0,2.22-13.94,14.33-11.74,12.12,2.21,23.64,10.87,23.64,10.87Z" style="fill: #0eb04b; stroke-width: 0px;"/>
                  <path d="M403.39,347.98s-17.6-22.59-32.3-28.94c-21.05-9.1-23.65,13.96-22.25,23.78,0,0,7.83-33.67,25.41-26.48,17.57,7.2,29.14,31.64,29.14,31.64Z" style="fill: #04c451; stroke-width: 0px;"/>
                  <g>
                    <path d="M404.15,294.08c1.24.79-3.09-20.57-4.19-19.07-1.1,1.5-1.31,5.27-2.09,3.66-.79-1.61-5.63-12.98-6.76-11.27-1.13,1.71-2.3,3.63-2.3,3.63,0,0-6.36-7.4-6.63-5.76-.28,1.64-.55,3.28-.55,3.28,0,0-13.51-10.08-13.68-6.52-.17,3.56,8.41,11.54,8.41,11.54,0,0-6.88.75-5.55,1.6,1.33.86,7.12,2.88,7.12,2.88,0,0-4.83,1.09-3.32,2.19,1.5,1.1,9.31,2.41,9.31,2.41,0,0-7.46,1.7-3.66,2.97,3.8,1.27,11.6,2.58,11.6,2.58,0,0-5.03,2.32-3.05,3.08,1.98.75,11.74.49,15.36,2.79Z" style="fill: #088537; stroke-width: 0px;"/>
                    <path d="M402.83,292.23s-2.11-14.33-2.89-13.5c-.78.83-1.84,6.39-1.87,6.13-.02-.26-5.02-14.24-5.78-12.76-.76,1.48-.33,8.51-.57,7.63-.24-.88-6.74-10.92-6.95-8.9-.21,2.03.22,5.58-.2,4.67s-8.46-8.31-7.75-6.39c.71,1.92,7.93,8.03,7.3,7.92-.63-.11-8.53-2.14-6.85-1.02,1.68,1.12,8.35,3.2,8.35,3.2,0,0-8.79.2-6.16,1.03,2.63.83,9.8,2.61,9.8,2.61,0,0-7.01,1.47-4.87,2.15,2.14.68,11.92,2.64,11.92,2.64,0,0-6.38,2.34-3.67,2.67,2.72.33,8.24-.74,10.18,1.9Z" style="fill: #069940; stroke-width: 0px;"/>
                  </g>
                  <g>
                    <path d="M270.92,369.17c1.24.79-3.09-20.57-4.19-19.07-1.1,1.5-1.31,5.27-2.09,3.66-.79-1.61-5.63-12.98-6.76-11.27-1.13,1.71-2.3,3.63-2.3,3.63,0,0-6.36-7.4-6.63-5.76-.28,1.64-.55,3.28-.55,3.28,0,0-13.51-10.08-13.68-6.52-.17,3.56,8.41,11.54,8.41,11.54,0,0-6.88.75-5.55,1.6,1.33.86,7.12,2.88,7.12,2.88,0,0-4.83,1.09-3.32,2.19,1.5,1.1,9.31,2.41,9.31,2.41,0,0-7.46,1.7-3.66,2.97,3.8,1.27,11.6,2.58,11.6,2.58,0,0-5.03,2.32-3.05,3.08,1.98.75,11.74.49,15.36,2.79Z" style="fill: #088537; stroke-width: 0px;"/>
                    <path d="M269.59,367.33s-2.11-14.33-2.89-13.5c-.78.83-1.84,6.39-1.87,6.13s-5.02-14.24-5.78-12.76c-.76,1.48-.33,8.51-.57,7.63-.24-.88-6.74-10.92-6.95-8.9-.21,2.03.22,5.58-.2,4.67-.43-.91-8.46-8.31-7.75-6.39.71,1.92,7.93,8.03,7.3,7.92-.63-.11-8.53-2.14-6.85-1.02,1.68,1.12,8.35,3.2,8.35,3.2,0,0-8.79.2-6.16,1.03,2.63.83,9.8,2.61,9.8,2.61,0,0-7.01,1.47-4.87,2.15,2.14.68,11.92,2.64,11.92,2.64,0,0-6.38,2.34-3.67,2.67,2.72.33,8.24-.74,10.18,1.9Z" style="fill: #069940; stroke-width: 0px;"/>
                  </g>
                  <path d="M400.7,331.18s-3.7-25.32-18.26-42.28c-14.56-16.96-41.66-16.7-41.66-16.7,0,0,26.52-10.91,41.79,8.25,15.28,19.16,18.12,50.74,18.12,50.74Z" style="fill: #04c451; stroke-width: 0px;"/>
                  <g>
                    <path d="M374.9,347.63c2.46-.24-25.27-24.09-25.18-20.97.09,3.12,3.69,8.33.99,7.01-2.7-1.33-20.83-11.41-20.57-7.98.26,3.43.69,7.17.69,7.17,0,0-16.05-3.27-14.72-.81,1.33,2.46,2.65,4.92,2.65,4.92,0,0-28.28.54-24.85,5.44,3.43,4.9,23.03,6.65,23.03,6.65,0,0-8.35,8.07-5.7,7.83,2.65-.24,12.4-3.5,12.4-3.5,0,0-5.28,6.41-2.15,6.32,3.12-.09,14.82-6.39,14.82-6.39,0,0-8.14,9.94-1.8,7.72,6.34-2.22,18.03-8.52,18.03-8.52,0,0-4.28,8.26-.88,7.22s16.07-11.43,23.24-12.12Z" style="fill: #0eb04b; stroke-width: 0px;"/>
                    <path d="M371.25,346.55s-17.54-16.84-17.72-14.92c-.18,1.91,4.13,10.37,3.83,10.05-.3-.33-21.31-13.72-20.8-10.96.51,2.75,8.32,11.63,7.1,10.71-1.22-.92-20.17-7.55-18.37-4.64,1.81,2.9,6.04,7.17,4.54,6.4-1.5-.77-19.78-2.31-16.86-.49,2.92,1.82,18.78,2.49,17.84,2.99-.94.51-13.51,5.94-10.13,5.7,3.38-.25,14.37-4.35,14.37-4.35,0,0-11.46,9.32-7.11,7.71,4.34-1.61,15.69-6.63,15.69-6.63,0,0-7.79,9.16-4.25,7.86,3.54-1.3,18.53-8.77,18.53-8.77,0,0-6.05,9.68-2.12,7.32,3.94-2.36,10.16-9.47,15.46-7.96Z" style="fill: #069940; stroke-width: 0px;"/>
                  </g>
                  <g>
                    <path d="M318.53,365.5c.63,1.33,8.39-19.04,6.65-18.35-1.73.69-3.92,3.75-3.72,1.97s2.18-13.98.31-13.14c-1.87.84-3.88,1.84-3.88,1.84,0,0-1.42-9.65-2.53-8.41-1.11,1.24-2.22,2.48-2.22,2.48,0,0-6.03-15.74-8.08-12.82-2.05,2.91.93,14.25.93,14.25,0,0-6.21-3.05-5.54-1.61.67,1.44,4.47,6.24,4.47,6.24,0,0-4.66-1.66-3.98.07.69,1.73,6.58,7.01,6.58,7.01,0,0-7.22-2.55-4.69.55,2.53,3.1,8.42,8.38,8.42,8.38,0,0-5.49-.73-4.22.97,1.27,1.7,9.66,6.69,11.49,10.57Z" style="fill: #088537; stroke-width: 0px;"/>
                    <path d="M318.39,363.24s5.88-13.24,4.77-12.95c-1.11.29-4.98,4.41-4.85,4.18.12-.23,3.37-14.72,1.93-13.87-1.44.84-4.83,7.02-4.57,6.15.27-.87.15-12.83-1.11-11.23-1.26,1.6-2.79,4.83-2.67,3.84.13-1-2.71-11.55-3.14-9.55-.43,2,2.41,11.03,1.93,10.6-.47-.42-6.07-6.37-5.24-4.52.82,1.84,5.34,7.17,5.34,7.17,0,0-7.54-4.53-5.76-2.43,1.78,2.11,6.89,7.45,6.89,7.45,0,0-6.71-2.51-5.26-.79,1.44,1.72,8.66,8.61,8.66,8.61,0,0-6.65-1.43-4.53.29,2.12,1.73,7.36,3.78,7.59,7.05Z" style="fill: #069940; stroke-width: 0px;"/>
                  </g>
                  <g>
                    <path d="M389.59,348.39s-29.27-36.41-52.45-42.41c-23.19-6-31.14-.81-31.14-.81,0,0,19.09-3.74,40.77,7.16,21.68,10.91,41.07,38.07,41.07,38.07l1.76-2.02Z" style="fill: #088537; stroke-width: 0px;"/>
                    <g>
                      <path d="M308.45,301.13s3.75-6.36.47-6.78c-3.28-.43-3.6,6.13-3.6,6.13,0,0-2.35-6.37-5.3-4.75-2.95,1.63,3.04,6.98,3.04,6.98,0,0-8.61-.14-6.83,2.73,1.78,2.88,7.09,1.23,7.09,1.23,0,0-3.88,8.57.54,8.37,4.42-.2,3.82-7.04,3.82-7.04,0,0,7.75,5.64,7.49,2.44-.26-3.2-6.07-5.73-5.62-5.73.46,0,10.64-2.24,6.8-5.47-3.84-3.24-7.9,1.9-7.9,1.9Z" style="fill: #ffd76f; stroke-width: 0px;"/>
                      <path d="M307.24,302.16s2.03-4.9.67-4.6c-1.37.3-2.18,4.9-2.23,4.61-.05-.28-1.45-3.54-2.48-2.2-1.03,1.34,1.69,3.49,1.55,3.49-.14,0-7.39-.78-5.67,1.24,1.72,2.02,5.78.56,5.78.56,0,0-2.59,5.85-.23,5.54,2.36-.31,2.13-4.75,2.13-4.75,0,0,5.35,5.06,5.09,2.93-.26-2.13-3.97-3.89-3.73-3.99.24-.1,7.41-1.97,5.03-3.13s-5.91.29-5.91.29Z" style="fill: #ebb329; stroke-width: 0px;"/>
                    </g>
                  </g>
                  <g>
                    <path d="M389.42,362.46s-14.52-44.4-34.09-58.21c-19.57-13.81-28.85-11.76-28.85-11.76,0,0,19.18,3.24,35.61,21.1,16.43,17.86,24.97,50.13,24.97,50.13l2.36-1.27Z" style="fill: #088537; stroke-width: 0px;"/>
                    <g>
                      <path d="M330.21,289.57s5.75-4.62,2.83-6.18c-2.92-1.56-5.53,4.46-5.53,4.46,0,0,.06-6.79-3.28-6.31-3.34.48.38,7.6.38,7.6,0,0-8-3.18-7.35.14.65,3.32,6.2,3.65,6.2,3.65,0,0-6.65,6.65-2.45,8.02,4.2,1.38,6.06-5.24,6.06-5.24,0,0,5.26,8.01,6.14,4.93.89-3.08-3.66-7.5-3.23-7.35.43.16,10.74,1.67,8.3-2.72-2.45-4.39-8.07-1.01-8.07-1.01Z" style="fill: #ffd76f; stroke-width: 0px;"/>
                      <path d="M328.71,290.11s3.63-3.86,2.25-4.07c-1.39-.21-3.77,3.81-3.71,3.53.05-.28-.11-3.82-1.55-2.94-1.43.89.35,3.86.22,3.81-.13-.05-6.64-3.34-5.74-.84.9,2.5,5.21,2.56,5.21,2.56,0,0-4.49,4.55-2.17,5.1,2.32.55,3.67-3.69,3.67-3.69,0,0,3.22,6.62,3.73,4.54.51-2.08-2.34-5.04-2.08-5.05.25,0,7.63.78,5.81-1.15-1.81-1.93-5.64-1.81-5.64-1.81Z" style="fill: #ebb329; stroke-width: 0px;"/>
                    </g>
                  </g>
                  <g>
                    <path d="M391.8,335.46s-14.52-44.4-34.09-58.21c-19.57-13.81-28.85-11.76-28.85-11.76,0,0,19.18,3.24,35.61,21.1,16.43,17.86,24.97,50.13,24.97,50.13l2.36-1.27Z" style="fill: #088537; stroke-width: 0px;"/>
                    <g>
                      <path d="M332.58,262.57s5.75-4.62,2.83-6.18c-2.92-1.56-5.53,4.46-5.53,4.46,0,0,.06-6.79-3.28-6.31-3.34.48.38,7.6.38,7.6,0,0-8-3.18-7.35.14.65,3.32,6.2,3.65,6.2,3.65,0,0-6.65,6.65-2.45,8.02,4.2,1.38,6.06-5.24,6.06-5.24,0,0,5.26,8.01,6.14,4.93.89-3.08-3.66-7.5-3.23-7.35.43.16,10.74,1.67,8.3-2.72-2.45-4.39-8.07-1.01-8.07-1.01Z" style="fill: #ffd76f; stroke-width: 0px;"/>
                      <path d="M331.08,263.11s3.63-3.86,2.25-4.07c-1.39-.21-3.77,3.81-3.71,3.53s-.11-3.82-1.55-2.94c-1.43.89.35,3.86.22,3.81-.13-.05-6.64-3.34-5.74-.84.9,2.5,5.21,2.57,5.21,2.57,0,0-4.49,4.55-2.17,5.1,2.32.55,3.67-3.69,3.67-3.69,0,0,3.22,6.62,3.73,4.54.51-2.08-2.34-5.04-2.08-5.05.25,0,7.63.78,5.81-1.15-1.81-1.93-5.64-1.81-5.64-1.81Z" style="fill: #ebb329; stroke-width: 0px;"/>
                    </g>
                  </g>
                  <g>
                    <path d="M337.86,375.67s-25.54-31.77-45.77-37.01c-20.23-5.24-27.18-.71-27.18-.71,0,0,16.66-3.27,35.57,6.25,18.92,9.52,35.84,33.22,35.84,33.22l1.54-1.76Z" style="fill: #088537; stroke-width: 0px;"/>
                    <g>
                      <path d="M267.05,334.42s3.27-5.55.41-5.92c-2.86-.37-3.14,5.35-3.14,5.35,0,0-2.05-5.56-4.63-4.14-2.58,1.42,2.65,6.09,2.65,6.09,0,0-7.51-.13-5.96,2.38,1.55,2.51,6.19,1.07,6.19,1.07,0,0-3.38,7.48.47,7.31s3.33-6.15,3.33-6.15c0,0,6.76,4.92,6.53,2.13-.23-2.79-5.3-5-4.9-5,.4,0,9.28-1.95,5.93-4.78-3.35-2.82-6.9,1.66-6.9,1.66Z" style="fill: #ffd76f; stroke-width: 0px;"/>
                      <path d="M266,335.32s1.78-4.27.58-4.01c-1.2.26-1.9,4.27-1.94,4.03-.04-.25-1.27-3.09-2.17-1.92-.9,1.17,1.48,3.04,1.35,3.04s-6.45-.68-4.95,1.08c1.5,1.76,5.04.49,5.04.49,0,0-2.26,5.1-.2,4.83,2.06-.27,1.86-4.15,1.86-4.15,0,0,4.67,4.42,4.44,2.56-.22-1.86-3.46-3.39-3.26-3.48.21-.08,6.47-1.72,4.39-2.73-2.08-1.01-5.16.26-5.16.26Z" style="fill: #ebb329; stroke-width: 0px;"/>
                    </g>
                  </g>
                  <g>
                    <path d="M314.53,368.23s-12.67-38.74-29.74-50.79c-17.08-12.05-25.17-10.26-25.17-10.26,0,0,16.74,2.83,31.07,18.42,14.33,15.59,21.79,43.74,21.79,43.74l2.06-1.11Z" style="fill: #088537; stroke-width: 0px;"/>
                    <g>
                      <path d="M262.86,304.63s5.02-4.04,2.47-5.39c-2.55-1.36-4.82,3.89-4.82,3.89,0,0,.05-5.93-2.86-5.51-2.91.42.33,6.63.33,6.63,0,0-6.98-2.77-6.42.13.57,2.9,5.41,3.19,5.41,3.19,0,0-5.81,5.8-2.14,7s5.29-4.57,5.29-4.57c0,0,4.59,6.99,5.36,4.3.77-2.69-3.19-6.55-2.82-6.41.37.14,9.38,1.45,7.24-2.37-2.14-3.83-7.04-.88-7.04-.88Z" style="fill: #ffd76f; stroke-width: 0px;"/>
                      <path d="M261.55,305.1s3.17-3.37,1.96-3.55c-1.21-.18-3.29,3.33-3.24,3.08.05-.25-.1-3.33-1.35-2.56-1.25.77.31,3.37.19,3.32-.12-.04-5.79-2.92-5.01-.74.78,2.18,4.55,2.24,4.55,2.24,0,0-3.92,3.97-1.9,4.45,2.02.48,3.21-3.22,3.21-3.22,0,0,2.81,5.78,3.25,3.96.45-1.82-2.04-4.4-1.82-4.4.22,0,6.66.68,5.07-1-1.58-1.68-4.92-1.58-4.92-1.58Z" style="fill: #ebb329; stroke-width: 0px;"/>
                    </g>
                  </g>
                  <g>
                    <path d="M397.57,315.9s.35-40.76-11.99-57.63c-12.34-16.86-20.59-17.75-20.59-17.75,0,0,14.96,8.02,23.57,27.36,8.61,19.35,6.7,48.41,6.7,48.41l2.3-.39Z" style="fill: #088537; stroke-width: 0px;"/>
                    <g>
                      <path d="M368.88,239.13s6.04-2.22,4.06-4.32c-1.98-2.1-5.81,2.15-5.81,2.15,0,0,1.94-5.6-.96-6.13-2.89-.53-1.8,6.39-1.8,6.39,0,0-5.73-4.85-6.12-1.93-.39,2.93,4.11,4.75,4.11,4.75,0,0-7.35,3.64-4.26,5.95,3.09,2.31,6.47-2.65,6.47-2.65,0,0,2.12,8.09,3.71,5.79,1.59-2.3-.94-7.22-.62-6.98.31.25,8.42,4.37,7.62.06-.8-4.31-6.39-3.08-6.39-3.08Z" style="fill: #ffd76f; stroke-width: 0px;"/>
                      <path d="M367.49,239.16s4.08-2.18,2.99-2.74c-1.09-.56-4.18,2.1-4.05,1.89.12-.22.97-3.19-.46-2.86-1.43.33-.78,3.29-.88,3.21s-4.56-4.61-4.51-2.3c.05,2.32,3.59,3.57,3.59,3.57,0,0-4.98,2.52-3.22,3.61,1.77,1.1,4.07-2.03,4.07-2.03,0,0,.82,6.37,1.82,4.79,1-1.58-.53-4.82-.32-4.75.21.06,6.09,2.77,5.13.67-.96-2.1-4.16-3.07-4.16-3.07Z" style="fill: #ebb329; stroke-width: 0px;"/>
                    </g>
                  </g>
                  <g>
                    <path d="M323.69,380.18s-12.67-38.74-29.74-50.79c-17.08-12.05-25.17-10.26-25.17-10.26,0,0,16.74,2.83,31.07,18.42,14.33,15.59,21.79,43.74,21.79,43.74l2.06-1.11Z" style="fill: #088537; stroke-width: 0px;"/>
                    <g>
                      <path d="M272.02,316.58s5.02-4.04,2.47-5.39c-2.55-1.36-4.82,3.89-4.82,3.89,0,0,.05-5.93-2.86-5.51-2.91.42.33,6.63.33,6.63,0,0-6.98-2.77-6.42.13.57,2.9,5.41,3.19,5.41,3.19,0,0-5.81,5.8-2.14,7s5.29-4.57,5.29-4.57c0,0,4.59,6.99,5.36,4.3.77-2.69-3.19-6.55-2.82-6.41.37.14,9.38,1.45,7.24-2.37-2.14-3.83-7.04-.88-7.04-.88Z" style="fill: #ffd76f; stroke-width: 0px;"/>
                      <path d="M270.71,317.05s3.17-3.37,1.96-3.55c-1.21-.18-3.29,3.33-3.24,3.08.05-.25-.1-3.33-1.35-2.56-1.25.77.31,3.37.19,3.32-.12-.04-5.79-2.92-5.01-.74.78,2.18,4.55,2.24,4.55,2.24,0,0-3.92,3.97-1.9,4.45,2.02.48,3.21-3.22,3.21-3.22,0,0,2.81,5.78,3.25,3.96.45-1.82-2.04-4.4-1.82-4.4.22,0,6.66.68,5.07-1-1.58-1.68-4.92-1.58-4.92-1.58Z" style="fill: #ebb329; stroke-width: 0px;"/>
                    </g>
                  </g>
                  <g>
                    <path d="M376.69,348.04c1.14,1.4-25.51-.81-23.84-2.37,1.68-1.55,6.23-2.35,4.16-3.07-2.07-.73-16.62-5-14.7-6.62,1.92-1.62,4.09-3.32,4.09-3.32,0,0-9.93-6.69-7.97-7.26,1.96-.57,3.92-1.14,3.92-1.14,0,0-14.22-15.01-9.91-15.74,4.31-.72,15.27,8.59,15.27,8.59,0,0-.08-8.49,1.16-6.99,1.24,1.5,4.53,8.26,4.53,8.26,0,0,.64-6.04,2.19-4.36,1.55,1.68,4.27,11,4.27,11,0,0,1-9.34,3.1-4.89,2.09,4.45,4.81,13.76,4.81,13.76,0,0,2.11-6.47,3.31-4.16,1.21,2.31,2.29,14.23,5.6,18.32Z" style="fill: #04c451; stroke-width: 0px;"/>
                    <path d="M374.26,346.68s-17.77-.51-16.86-1.58c.9-1.08,7.52-3.17,7.2-3.15-.32.01-18.08-4.07-16.38-5.22,1.7-1.14,10.33-1.63,9.22-1.79-1.1-.17-14.28-6.64-11.84-7.19,2.44-.55,6.83-.53,5.66-.92-1.17-.39-11.35-9.12-8.9-8.53,2.44.59,10.92,8.51,10.71,7.76s-3.83-10.09-2.23-8.2c1.61,1.89,5.11,9.72,5.11,9.72,0,0-1.02-10.75.37-7.66,1.39,3.09,4.59,11.57,4.59,11.57,0,0,.78-8.75,1.92-6.24,1.14,2.51,4.94,14.15,4.94,14.15,0,0,1.94-8.12,2.73-4.85.79,3.26.28,10.15,3.78,12.13Z" style="fill: #0eb04b; stroke-width: 0px;"/>
                  </g>
                  <g>
                    <path d="M386.83,356.89c.26,1.79-21.51-13.75-19.27-14.23,2.23-.48,6.56,1.17,5.15-.51-1.41-1.68-11.73-12.8-9.24-13.21,2.48-.41,5.21-.76,5.21-.76,0,0-5.11-10.82-3.13-10.31,1.98.51,3.96,1.02,3.96,1.02,0,0-4.54-20.17-.46-18.59,4.08,1.58,8.73,15.19,8.73,15.19,0,0,4.27-7.34,4.57-5.41.29,1.92-.33,9.41-.33,9.41,0,0,3.63-4.86,4.11-2.63.48,2.23-1.96,11.63-1.96,11.63,0,0,5.64-7.51,5.16-2.62-.47,4.89-2.91,14.29-2.91,14.29,0,0,5.12-4.48,4.97-1.88-.15,2.6-5.32,13.4-4.56,18.61Z" style="fill: #04c451; stroke-width: 0px;"/>
                    <path d="M385.43,354.48s-15.01-9.52-13.68-9.99,8.08,1.13,7.8.97c-.28-.15-13.45-12.74-11.41-12.86,2.04-.12,9.71,3.88,8.84,3.18-.86-.71-8.87-13.01-6.5-12.23,2.38.78,6.14,3.04,5.33,2.11-.81-.93-5.09-13.64-3.28-11.88,1.8,1.75,5.03,12.9,5.23,12.15.2-.75,1.87-10.63,2.28-8.19.41,2.44-.58,10.96-.58,10.96,0,0,4.62-9.76,4.23-6.39-.39,3.36-1.98,12.29-1.98,12.29,0,0,5.15-7.12,4.84-4.38-.31,2.74-3,14.69-3,14.69,0,0,5.82-5.98,4.83-2.78-.99,3.21-4.95,8.86-2.96,12.36Z" style="fill: #0eb04b; stroke-width: 0px;"/>
                  </g>
                  <g>
                    <path d="M323.17,359.57c1.22.71-18.85,6.41-18.06,4.82.8-1.59,3.91-3.43,2.19-3.39-1.71.04-13.51.91-12.55-.8.96-1.71,2.07-3.55,2.07-3.55,0,0-9.09-2.16-7.81-3.11,1.28-.96,2.55-1.91,2.55-1.91,0,0-14.51-7.06-11.56-8.77,2.95-1.71,13.51,2.08,13.51,2.08,0,0-2.39-6.18-1.07-5.42,1.32.76,5.58,4.78,5.58,4.78,0,0-1.19-4.58.4-3.79,1.59.8,6.14,6.86,6.14,6.86,0,0-1.83-7.1.92-4.42,2.75,2.67,7.29,8.73,7.29,8.73,0,0-.24-5.3,1.28-3.95,1.51,1.36,5.58,9.77,9.12,11.84Z" style="fill: #04c451; stroke-width: 0px;"/>
                    <path d="M321.02,359.25s-13.11,4.51-12.75,3.47c.37-1.03,4.62-4.38,4.39-4.28s-14.32,1.99-13.39.69c.92-1.3,7.09-4.02,6.24-3.84-.85.18-12.25-.93-10.62-2,1.63-1.07,4.84-2.26,3.88-2.22-.96.04-10.79-3.54-8.84-3.79,1.95-.24,10.31,3.21,9.95,2.73-.36-.49-5.57-6.32-3.88-5.38,1.69.94,6.4,5.69,6.4,5.69,0,0-3.7-7.57-1.83-5.69,1.86,1.87,6.53,7.19,6.53,7.19,0,0-1.83-6.61-.31-5.08,1.52,1.52,7.49,8.98,7.49,8.98,0,0-.81-6.46.66-4.29s2.99,7.34,6.09,7.82Z" style="fill: #0eb04b; stroke-width: 0px;"/>
                  </g>
                </g>
                <rect x="-154.94" y="27.64" width="556.49" height="361.72" transform="translate(-23.78 16.04) rotate(-6.79)" style="fill: none; stroke-width: 0px;"/>
                <g>
                  <path d="M1.7,372.36c-.4-.51-1.07-1.36-1.77-2.27.65-.2,1.09-.52.7-1.02-.38-.48-1.04-1.33-1.71-2.19.61-.16,1.07-.43.72-.86-.56-.71-1.93-2.47-2.61-3.35-.18-.23-.54-.19-.66.08-.45,1.01-1.37,3.05-1.75,3.87-.23.51.28.66.9.67-.44.99-.89,1.97-1.14,2.53-.26.57.24.78.92.83-.47,1.04-.92,2.04-1.19,2.62-.78,1.69,3.94.76,3.94.76,0,0,4.81-.2,3.65-1.66Z" style="fill: #38617a; stroke-width: 0px;"/>
                  <g>
                    <path d="M23.29,369.79c-.4-.51-1.07-1.36-1.77-2.27.65-.2,1.09-.52.7-1.02-.38-.48-1.04-1.33-1.71-2.19.61-.16,1.07-.43.72-.86-.56-.71-1.93-2.47-2.61-3.35-.18-.23-.54-.19-.66.08-.45,1.01-1.37,3.05-1.75,3.87-.23.51.28.66.9.67-.45.99-.89,1.97-1.14,2.53-.26.57.24.78.92.83-.47,1.04-.92,2.04-1.19,2.62-.78,1.69,3.94.76,3.94.76,0,0,4.81-.2,3.65-1.66Z" style="fill: #38617a; stroke-width: 0px;"/>
                    <rect x="18.86" y="370.81" width="1.93" height="2.11" transform="translate(-43.82 4.95) rotate(-6.79)" style="fill: #38617a; stroke-width: 0px;"/>
                  </g>
                  <g>
                    <path d="M72.93,363.88c-.4-.51-1.07-1.36-1.77-2.27.65-.2,1.09-.52.7-1.02-.38-.48-1.04-1.33-1.71-2.19.61-.16,1.07-.43.72-.86-.56-.71-1.93-2.47-2.61-3.35-.18-.23-.54-.19-.66.08-.45,1.01-1.37,3.05-1.75,3.87-.23.51.28.66.9.67-.45.99-.89,1.97-1.15,2.53-.26.57.24.78.92.83-.47,1.04-.92,2.04-1.19,2.62-.78,1.69,3.94.76,3.94.76,0,0,4.81-.2,3.65-1.66Z" style="fill: #38617a; stroke-width: 0px;"/>
                    <rect x="68.5" y="364.9" width="1.93" height="2.11" transform="translate(-42.77 10.78) rotate(-6.79)" style="fill: #38617a; stroke-width: 0px;"/>
                  </g>
                  <g>
                    <path d="M44.88,367.22c-.4-.51-1.07-1.36-1.77-2.27.65-.2,1.09-.52.7-1.02-.38-.48-1.04-1.33-1.71-2.19.61-.16,1.07-.43.72-.86-.56-.71-1.93-2.47-2.61-3.35-.18-.23-.54-.19-.66.08-.45,1.01-1.37,3.05-1.75,3.87-.23.51.28.66.9.67-.45.99-.89,1.97-1.15,2.53-.26.57.24.78.92.83-.47,1.04-.92,2.04-1.19,2.62-.78,1.69,3.94.76,3.94.76,0,0,4.81-.2,3.65-1.66Z" style="fill: #38617a; stroke-width: 0px;"/>
                    <rect x="40.45" y="368.24" width="1.93" height="2.11" transform="translate(-43.36 7.48) rotate(-6.79)" style="fill: #38617a; stroke-width: 0px;"/>
                  </g>
                  <g>
                    <path d="M66.47,364.65c-.4-.51-1.07-1.36-1.77-2.27.65-.2,1.09-.52.7-1.02-.38-.48-1.04-1.33-1.71-2.19.61-.16,1.07-.43.72-.86-.56-.71-1.93-2.47-2.61-3.35-.18-.23-.54-.19-.66.08-.45,1.01-1.37,3.05-1.75,3.87-.23.51.28.66.9.67-.45.99-.89,1.97-1.15,2.53-.26.57.24.78.92.83-.47,1.04-.92,2.04-1.19,2.62-.78,1.69,3.94.76,3.94.76,0,0,4.81-.2,3.65-1.66Z" style="fill: #38617a; stroke-width: 0px;"/>
                    <rect x="62.04" y="365.67" width="1.93" height="2.11" transform="translate(-42.91 10.02) rotate(-6.79)" style="fill: #38617a; stroke-width: 0px;"/>
                  </g>
                  <g>
                    <path d="M81.15,362.9c-.4-.51-1.07-1.36-1.77-2.27.65-.2,1.09-.52.7-1.02-.38-.48-1.04-1.33-1.71-2.19.61-.16,1.07-.43.72-.86-.56-.71-1.93-2.47-2.61-3.35-.18-.23-.54-.19-.66.08-.45,1.01-1.37,3.05-1.75,3.87-.23.51.28.66.9.67-.44.99-.89,1.97-1.14,2.53-.26.57.24.78.92.83-.47,1.04-.92,2.04-1.19,2.62-.78,1.69,3.94.76,3.94.76,0,0,4.81-.2,3.65-1.66Z" style="fill: #38617a; stroke-width: 0px;"/>
                    <rect x="76.72" y="363.93" width="1.93" height="2.11" transform="translate(-42.6 11.74) rotate(-6.79)" style="fill: #38617a; stroke-width: 0px;"/>
                  </g>
                  <g>
                    <path d="M95.83,361.15c-.4-.51-1.07-1.36-1.77-2.27.65-.2,1.09-.52.7-1.02-.38-.48-1.04-1.33-1.71-2.19.61-.16,1.07-.43.72-.86-.56-.71-1.93-2.47-2.61-3.35-.18-.23-.54-.19-.66.08-.45,1.01-1.37,3.05-1.75,3.87-.23.51.28.66.9.67-.44.99-.89,1.97-1.14,2.53-.26.57.24.78.92.83-.47,1.04-.92,2.04-1.19,2.62-.78,1.69,3.94.76,3.94.76,0,0,4.81-.2,3.65-1.66Z" style="fill: #38617a; stroke-width: 0px;"/>
                    <rect x="91.4" y="362.18" width="1.93" height="2.11" transform="translate(-42.29 13.46) rotate(-6.79)" style="fill: #38617a; stroke-width: 0px;"/>
                  </g>
                  <g>
                    <path d="M110.52,359.41c-.4-.51-1.07-1.36-1.77-2.27.65-.2,1.09-.52.7-1.02-.38-.48-1.04-1.33-1.71-2.19.61-.16,1.07-.43.72-.86-.56-.71-1.93-2.47-2.61-3.35-.18-.23-.54-.19-.66.08-.45,1.01-1.37,3.05-1.75,3.87-.23.51.28.66.9.67-.44.99-.89,1.97-1.14,2.53-.26.57.24.78.92.83-.47,1.04-.92,2.04-1.19,2.62-.78,1.69,3.94.76,3.94.76,0,0,4.81-.2,3.65-1.66Z" style="fill: #38617a; stroke-width: 0px;"/>
                    <rect x="106.08" y="360.43" width="1.93" height="2.11" transform="translate(-41.98 15.19) rotate(-6.79)" style="fill: #38617a; stroke-width: 0px;"/>
                  </g>
                  <g>
                    <path d="M125.2,357.66c-.4-.51-1.07-1.36-1.77-2.27.65-.2,1.09-.52.7-1.02-.38-.48-1.04-1.33-1.71-2.19.61-.16,1.07-.43.72-.86-.56-.71-1.93-2.47-2.61-3.35-.18-.23-.54-.19-.66.08-.45,1.01-1.37,3.05-1.75,3.87-.23.51.28.66.9.67-.44.99-.89,1.97-1.14,2.53-.26.57.24.78.92.83-.47,1.04-.92,2.04-1.19,2.62-.78,1.69,3.94.76,3.94.76,0,0,4.81-.2,3.65-1.66Z" style="fill: #38617a; stroke-width: 0px;"/>
                    <rect x="120.77" y="358.68" width="1.93" height="2.11" transform="translate(-41.67 16.91) rotate(-6.79)" style="fill: #38617a; stroke-width: 0px;"/>
                  </g>
                  <g>
                    <path d="M139.88,355.91c-.4-.51-1.07-1.36-1.77-2.27.65-.2,1.09-.52.7-1.02-.38-.48-1.04-1.33-1.71-2.19.61-.16,1.07-.43.72-.86-.56-.71-1.93-2.47-2.61-3.35-.18-.23-.54-.19-.66.08-.45,1.01-1.37,3.05-1.75,3.87-.23.51.28.66.9.67-.44.99-.89,1.97-1.14,2.53-.26.57.24.78.92.83-.47,1.04-.92,2.04-1.19,2.62-.78,1.69,3.94.76,3.94.76,0,0,4.81-.2,3.65-1.66Z" style="fill: #38617a; stroke-width: 0px;"/>
                    <rect x="135.45" y="356.93" width="1.93" height="2.11" transform="translate(-41.36 18.63) rotate(-6.79)" style="fill: #38617a; stroke-width: 0px;"/>
                  </g>
                  <g>
                    <path d="M7.01,372.3c-.32-.4-.84-1.08-1.4-1.79.51-.16.86-.41.55-.8-.3-.38-.82-1.05-1.35-1.73.48-.13.84-.34.57-.68-.45-.56-1.52-1.95-2.06-2.65-.14-.18-.43-.15-.52.06-.36.8-1.08,2.4-1.38,3.06-.18.4.22.52.71.53-.35.78-.7,1.56-.9,1.99-.21.45.19.62.72.65-.37.82-.73,1.61-.94,2.07-.62,1.33,3.11.6,3.11.6,0,0,3.79-.16,2.88-1.31Z" style="fill: #38617a; stroke-width: 0px;"/>
                    <rect x="3.51" y="373.11" width="1.53" height="1.67" transform="translate(-44.17 3.13) rotate(-6.79)" style="fill: #38617a; stroke-width: 0px;"/>
                  </g>
                  <g>
                    <path d="M28.44,369.75c-.32-.4-.84-1.08-1.4-1.79.51-.16.86-.41.55-.8-.3-.38-.82-1.05-1.35-1.73.48-.13.84-.34.57-.68-.45-.56-1.52-1.95-2.06-2.65-.14-.18-.43-.15-.52.06-.36.8-1.08,2.4-1.38,3.06-.18.4.22.52.71.53-.35.78-.7,1.56-.9,1.99-.21.45.19.62.72.65-.37.82-.73,1.61-.94,2.07-.62,1.33,3.11.6,3.11.6,0,0,3.79-.16,2.88-1.31Z" style="fill: #38617a; stroke-width: 0px;"/>
                    <rect x="24.94" y="370.56" width="1.53" height="1.67" transform="translate(-43.72 5.64) rotate(-6.79)" style="fill: #38617a; stroke-width: 0px;"/>
                  </g>
                  <g>
                    <path d="M35.23,369.45c-.24-.31-.64-.82-1.07-1.37.39-.12.66-.32.42-.61-.23-.29-.63-.8-1.03-1.32.37-.1.64-.26.43-.52-.34-.43-1.16-1.49-1.57-2.02-.11-.14-.33-.11-.4.05-.27.61-.82,1.84-1.05,2.33-.14.3.17.4.54.4-.27.6-.54,1.19-.69,1.52-.16.34.14.47.55.5-.28.63-.55,1.23-.72,1.58-.47,1.02,2.37.46,2.37.46,0,0,2.9-.12,2.2-1Z" style="fill: #38617a; stroke-width: 0px;"/>
                    <rect x="32.56" y="370.07" width="1.17" height="1.27" transform="translate(-43.59 6.52) rotate(-6.79)" style="fill: #38617a; stroke-width: 0px;"/>
                  </g>
                  <g>
                    <path d="M48.71,367.98c-.22-.28-.59-.76-.98-1.26.36-.11.61-.29.39-.57-.21-.26-.58-.74-.95-1.21.34-.09.59-.24.4-.48-.31-.4-1.07-1.37-1.45-1.86-.1-.13-.3-.11-.37.04-.25.56-.76,1.69-.97,2.15-.13.28.15.36.5.37-.25.55-.49,1.1-.64,1.4-.15.32.13.43.51.46-.26.58-.51,1.13-.66,1.46-.43.94,2.19.42,2.19.42,0,0,2.67-.11,2.03-.92Z" style="fill: #38617a; stroke-width: 0px;"/>
                    <rect x="46.24" y="368.55" width="1.07" height="1.17" transform="translate(-43.3 8.12) rotate(-6.79)" style="fill: #38617a; stroke-width: 0px;"/>
                  </g>
                  <g>
                    <path d="M53.64,366.93c-.29-.37-.77-.99-1.28-1.64.47-.15.79-.38.51-.74-.27-.34-.75-.96-1.23-1.58.44-.12.77-.31.52-.62-.41-.51-1.39-1.79-1.88-2.42-.13-.17-.39-.14-.48.06-.33.73-.99,2.2-1.26,2.8-.17.37.2.47.65.48-.32.71-.64,1.43-.83,1.82-.19.41.17.56.66.6-.34.76-.66,1.47-.86,1.89-.57,1.22,2.85.55,2.85.55,0,0,3.47-.15,2.64-1.2Z" style="fill: #38617a; stroke-width: 0px;"/>
                    <rect x="50.44" y="367.67" width="1.4" height="1.53" transform="translate(-43.19 8.63) rotate(-6.79)" style="fill: #38617a; stroke-width: 0px;"/>
                  </g>
                  <g>
                    <path d="M98.99,361.99c-.22-.28-.59-.76-.98-1.26.36-.11.61-.29.39-.57-.21-.26-.58-.74-.95-1.21.34-.09.59-.24.4-.48-.31-.4-1.07-1.37-1.45-1.86-.1-.13-.3-.11-.37.04-.25.56-.76,1.69-.97,2.15-.13.28.15.36.5.37-.25.55-.49,1.1-.64,1.4-.15.32.13.43.51.46-.26.58-.51,1.13-.66,1.46-.43.94,2.19.42,2.19.42,0,0,2.67-.11,2.03-.92Z" style="fill: #38617a; stroke-width: 0px;"/>
                    <rect x="96.53" y="362.56" width="1.07" height="1.17" transform="translate(-42.24 14.02) rotate(-6.79)" style="fill: #38617a; stroke-width: 0px;"/>
                  </g>
                  <g>
                    <path d="M105.12,360.62c-.32-.4-.84-1.08-1.4-1.79.51-.16.86-.41.55-.8-.3-.38-.82-1.05-1.35-1.73.48-.13.84-.34.57-.68-.45-.56-1.52-1.95-2.06-2.65-.14-.18-.43-.15-.52.06-.36.8-1.08,2.4-1.38,3.06-.18.4.22.52.71.53-.35.78-.7,1.56-.9,1.99-.21.45.19.62.72.65-.37.82-.73,1.61-.94,2.07-.62,1.33,3.11.6,3.11.6,0,0,3.79-.16,2.88-1.31Z" style="fill: #38617a; stroke-width: 0px;"/>
                    <rect x="101.63" y="361.43" width="1.53" height="1.67" transform="translate(-42.1 14.64) rotate(-6.79)" style="fill: #38617a; stroke-width: 0px;"/>
                  </g>
                  <g>
                    <path d="M119.11,359.6c-.22-.28-.59-.76-.98-1.26.36-.11.61-.29.39-.57-.21-.26-.58-.74-.95-1.21.34-.09.59-.24.4-.48-.31-.4-1.07-1.37-1.45-1.86-.1-.13-.3-.11-.37.04-.25.56-.76,1.69-.97,2.15-.13.28.15.36.5.37-.25.55-.49,1.1-.64,1.4-.15.32.13.43.51.46-.26.58-.51,1.13-.66,1.46-.43.94,2.19.42,2.19.42,0,0,2.67-.11,2.03-.92Z" style="fill: #38617a; stroke-width: 0px;"/>
                    <rect x="116.65" y="360.16" width="1.07" height="1.17" transform="translate(-41.82 16.38) rotate(-6.79)" style="fill: #38617a; stroke-width: 0px;"/>
                  </g>
                  <g>
                    <path d="M115.89,359.34c-.32-.4-.84-1.08-1.4-1.79.51-.16.86-.41.55-.8-.3-.38-.82-1.05-1.35-1.73.48-.13.84-.34.57-.68-.45-.56-1.52-1.95-2.06-2.65-.14-.18-.43-.15-.52.06-.36.8-1.08,2.4-1.38,3.06-.18.4.22.52.71.53-.35.78-.7,1.56-.9,1.99-.21.45.19.62.72.65-.37.82-.73,1.61-.94,2.07-.62,1.33,3.11.6,3.11.6,0,0,3.79-.16,2.88-1.31Z" style="fill: #38617a; stroke-width: 0px;"/>
                    <rect x="112.39" y="360.15" width="1.53" height="1.67" transform="translate(-41.88 15.91) rotate(-6.79)" style="fill: #38617a; stroke-width: 0px;"/>
                  </g>
                  <g>
                    <path d="M143.67,356.22c-.29-.37-.77-.99-1.28-1.64.47-.15.79-.38.51-.74-.27-.34-.75-.96-1.23-1.58.44-.12.77-.31.52-.62-.41-.51-1.39-1.79-1.88-2.42-.13-.17-.39-.14-.48.06-.33.73-.99,2.2-1.26,2.8-.17.37.2.47.65.48-.32.71-.64,1.43-.83,1.82-.19.41.17.56.66.6-.34.76-.66,1.47-.86,1.89-.57,1.22,2.85.55,2.85.55,0,0,3.47-.15,2.64-1.2Z" style="fill: #38617a; stroke-width: 0px;"/>
                    <rect x="140.47" y="356.96" width="1.4" height="1.53" transform="translate(-41.29 19.19) rotate(-6.79)" style="fill: #38617a; stroke-width: 0px;"/>
                  </g>
                  <g>
                    <path d="M85.3,363.37c-.26-.33-.69-.88-1.15-1.47.42-.13.71-.34.45-.66-.24-.31-.67-.86-1.1-1.41.39-.1.69-.28.47-.56-.36-.46-1.25-1.6-1.69-2.17-.12-.15-.35-.12-.43.05-.29.66-.88,1.97-1.13,2.5-.15.33.18.42.59.43-.29.64-.58,1.28-.74,1.63-.17.37.15.5.59.53-.3.68-.59,1.32-.77,1.7-.51,1.09,2.55.49,2.55.49,0,0,3.11-.13,2.36-1.08Z" style="fill: #38617a; stroke-width: 0px;"/>
                    <rect x="82.44" y="364.03" width="1.25" height="1.37" transform="translate(-42.53 12.38) rotate(-6.79)" style="fill: #38617a; stroke-width: 0px;"/>
                  </g>
                  <g>
                    <path d="M132.24,358.03c-.22-.28-.59-.76-.98-1.26.36-.11.61-.29.39-.57-.21-.26-.58-.74-.95-1.21.34-.09.59-.24.4-.48-.31-.4-1.07-1.37-1.45-1.86-.1-.13-.3-.11-.37.04-.25.56-.76,1.69-.97,2.15-.13.28.15.36.5.37-.25.55-.49,1.1-.64,1.4-.15.32.13.43.51.46-.26.58-.51,1.13-.66,1.46-.43.94,2.19.42,2.19.42,0,0,2.67-.11,2.03-.92Z" style="fill: #38617a; stroke-width: 0px;"/>
                    <rect x="129.77" y="358.6" width="1.07" height="1.17" transform="translate(-41.54 17.92) rotate(-6.79)" style="fill: #38617a; stroke-width: 0px;"/>
                  </g>
                  <g>
                    <path d="M129.12,358.16c-.26-.33-.69-.88-1.15-1.47.42-.13.71-.34.45-.66-.24-.31-.67-.86-1.1-1.41.39-.1.69-.28.47-.56-.36-.46-1.25-1.6-1.69-2.17-.12-.15-.35-.12-.43.05-.29.66-.88,1.97-1.13,2.5-.15.33.18.42.59.43-.29.64-.58,1.28-.74,1.63-.17.37.15.5.59.53-.3.68-.59,1.32-.77,1.7-.51,1.09,2.55.49,2.55.49,0,0,3.11-.13,2.36-1.08Z" style="fill: #38617a; stroke-width: 0px;"/>
                    <rect x="126.25" y="358.82" width="1.25" height="1.37" transform="translate(-41.6 17.52) rotate(-6.79)" style="fill: #38617a; stroke-width: 0px;"/>
                  </g>
                  <g>
                    <path d="M40.22,368.35c-.32-.4-.84-1.08-1.4-1.79.51-.16.86-.41.55-.8-.3-.38-.82-1.05-1.35-1.73.48-.13.84-.34.57-.68-.45-.56-1.52-1.95-2.06-2.65-.14-.18-.43-.15-.52.06-.36.8-1.08,2.4-1.38,3.06-.18.4.22.52.71.53-.35.78-.7,1.56-.9,1.99-.21.45.19.62.72.65-.37.82-.73,1.61-.94,2.07-.62,1.33,3.11.6,3.11.6,0,0,3.79-.16,2.88-1.31Z" style="fill: #38617a; stroke-width: 0px;"/>
                    <rect x="36.72" y="369.16" width="1.53" height="1.67" transform="translate(-43.47 7.03) rotate(-6.79)" style="fill: #38617a; stroke-width: 0px;"/>
                  </g>
                  <g>
                    <path d="M90.99,362.31c-.32-.4-.84-1.08-1.4-1.79.51-.16.86-.41.55-.8-.3-.38-.82-1.05-1.35-1.73.48-.13.84-.34.57-.68-.45-.56-1.52-1.95-2.06-2.65-.14-.18-.43-.15-.52.06-.36.8-1.08,2.4-1.38,3.06-.18.4.22.52.71.53-.35.78-.7,1.56-.9,1.99-.21.45.19.62.72.65-.37.82-.73,1.61-.94,2.07-.62,1.33,3.11.6,3.11.6,0,0,3.79-.16,2.88-1.31Z" style="fill: #38617a; stroke-width: 0px;"/>
                    <rect x="87.5" y="363.11" width="1.53" height="1.67" transform="translate(-42.4 12.98) rotate(-6.79)" style="fill: #38617a; stroke-width: 0px;"/>
                  </g>
                  <g>
                    <path d="M61.05,365.87c-.32-.4-.84-1.08-1.4-1.79.51-.16.86-.41.55-.8-.3-.38-.82-1.05-1.35-1.73.48-.13.84-.34.57-.68-.45-.56-1.52-1.95-2.06-2.65-.14-.18-.43-.15-.52.06-.36.8-1.08,2.4-1.38,3.06-.18.4.22.52.71.53-.35.78-.7,1.56-.9,1.99-.21.45.19.62.72.65-.37.82-.73,1.61-.94,2.07-.62,1.33,3.11.6,3.11.6,0,0,3.79-.16,2.88-1.31Z" style="fill: #38617a; stroke-width: 0px;"/>
                    <rect x="57.55" y="366.68" width="1.53" height="1.67" transform="translate(-43.03 9.47) rotate(-6.79)" style="fill: #38617a; stroke-width: 0px;"/>
                  </g>
                  <g>
                    <path d="M11.4,372.06c-.28-.35-.74-.94-1.22-1.56.45-.14.75-.36.48-.7-.26-.33-.72-.91-1.17-1.5.42-.11.73-.29.5-.59-.39-.49-1.32-1.7-1.79-2.3-.12-.16-.37-.13-.45.05-.31.7-.94,2.09-1.2,2.66-.16.35.19.45.62.46-.31.68-.61,1.36-.79,1.74-.18.39.16.54.63.57-.32.72-.63,1.4-.82,1.8-.54,1.16,2.71.52,2.71.52,0,0,3.3-.14,2.51-1.14Z" style="fill: #38617a; stroke-width: 0px;"/>
                    <rect x="8.36" y="372.76" width="1.33" height="1.45" transform="translate(-44.08 3.69) rotate(-6.79)" style="fill: #38617a; stroke-width: 0px;"/>
                  </g>
                </g>
              </g>
            </g>
          </g>
          <g style="filter: url(#drop-shadow-2);">
            <path d="M6.62,356.36l.15,84.38c1.08-.34,1.94-.77,1.92-.9-.08-.53,6.33.48,6.2-.33-.45-2.87,6.44,1.32,6.23-.06.08.48,6.11.12,6.16.48.26,1.64,6.01,5.3,5.79,3.91-.1-.67,6.28.42,6.21-.06.3,1.92,6.18,1.4,6.12.98.03.19,5.78-.8,6.19,1.75.07.43,6.16-.47,6.21-.13-.04-.24,5.54-3.8,5.73-2.6-.06-.35,5.53-2.33,5.66-1.46.08.5,6.76,2.16,6.52.64-.05-.3,4.45-6.25,4.73-4.47.19,1.2,7.21.37,7.16.11-.03-.18,4.62-5.66,4.73-4.97.02.11,7.43,2.79,7.28,1.85.11.67,5.06-4.29,5.37-2.32-.38-2.4,5.36,5.11,5.16,3.83.38,2.43,5.78-2.15,5.8-2.02.1.66,5.21,2.78,5.16,2.46-.4-2.51,5.38-1.28,5.71.84-.12-.73,6,1.72,6.01,1.81.05.34,5.23-2.33,4.87-4.63-.34-2.13,5.77.28,5.73.06-.38-2.38,6.13,2.38,5.69-.39.32,2.06,5.75,1.51,5.93,2.67.22,1.42,5.62-3.85,5.78-2.84-.22-1.42,7.07,3.91,6.67,1.37-.36-2.27,5.88,7.39,5.45,4.68-.12-.75,6.14,8.77,5.37,3.88.2,1.26,7.78-1.47,7.82-1.23.23,1.46,4.86,7.73,4.54,5.7.22,1.41,6.33-.36,6.59,1.26.05.3,5.52,1.78,5.8,3.55.39,2.5,6.33-.13,6.56,1.33-.39-2.47,6.54.19,6.24-1.7-.12-.78,5.41-4.05,5.8-1.58-.04-.26,6.86,2.63,6.74,1.91.13.84,5.24-3.43,5.25-3.38-.18-1.14,5.44-3.76,5.75-1.78.05.32,5.66-2.14,5.7-1.92-.41-2.6,7.44,3.3,7.25,2.1.23,1.43,4.37-5.23,4.35-5.33.15.95,6.92,1.43,6.84.94.44,2.81,6.03-2.45,6.36-.38-.1-.64,5.29-2.63,5.23-3-.3-1.9,5-1.13,4.47-4.49-.25-1.59,5.36-3.25,5.55-2.07-.19-1.21,6.51-1.12,6.69.06.53,3.34,4.97-2.7,4.87-3.37.26,1.62,5.12-2.01,5.07-2.33-.17-1.1,4.88-2.59,4.84-2.82.1.6,5.68-1.95,5.81-1.13.29,1.82,6.57,2.53,6.23.38.02.14,5.55-2.78,5.82-1.05-.11-.7,6-.65,5.91-1.19v-71.44s-323.79,4.46-323.79,4.46Z" style="fill: #fff; stroke-width: 0px;"/>
          </g>
          <g style="filter: url(#drop-shadow-3);">
            <circle cx="25.17" cy="59.2" r="25.17" style="fill: #2c282e; stroke-width: 0px;"/>
            <path d="M11.73,46.48c.63,2.67,3.91,4.18,7.33,3.37,3.42-.81,5.67-3.63,5.04-6.3-.63-2.67-3.91-4.18-7.33-3.37-3.42.81-5.67,3.63-5.04,6.3Z" style="fill: #2c282e; mix-blend-mode: screen; stroke-width: 0px;"/>
          </g>
          <g>
            <path d="M107.52,388.49v7.6s-54.17.1-54.17.1v-7.6s54.17-.1,54.17-.1Z" style="fill: #00716d; stroke-width: 0px;"/>
            <path d="M165.48,391.15c-1.52,7.6-4.22,13.44-7.86,17.98,2.83,2,6.19,3.52,9.84,4.64-1.53,1.36-3.53,4.01-4.47,5.84-3.95-1.41-7.37-3.23-10.38-5.64-3.35,2.66-7.24,4.55-11.53,5.91-.77-1.53-2.66-4.3-3.96-5.47-.23,2.12-1,3.3-2.58,4.19-1.94,1-4.89,1.07-9.07,1.08-.18-1.65-1.07-4.36-1.84-5.95,2.47.11,5.3.11,6.18.11.82-.06,1.12-.3,1.12-1.18l-.03-17.08c-3.12.36-6.3.72-9.25,1.02-.34,8.01-1.5,17.26-4.49,23.8-1.18-1.06-3.95-2.94-5.37-3.52,2.46-5.66,3.39-12.9,3.68-19.68l-3.24.36-.6-6.36,4-.24v-1.88s-.03-17.61-.03-17.61h6.13c.64-2.07,1.29-4.43,1.58-6.32l7.07.81c-.82,2-1.58,3.83-2.23,5.48l8.95-.02.03,17.85,1.18-.12.13,5.48-1.3.18.03,17.91c0,.59,0,1.12-.06,1.65,4.12-1.13,7.65-2.72,10.77-4.79-3.19-3.53-5.67-7.71-7.68-12.47l3.71-1.13h-4.12s-.01-6.12-.01-6.12l20.56-.04,1.12-.18,4.01,1.52ZM126.17,408.83c-.95-2.41-2.84-6.18-4.55-9l4.35-2.13c1.83,2.65,3.78,6.24,4.79,8.53l-4.59,2.6ZM121.83,390.52c2.83-.24,5.95-.48,9.07-.72l-.02-12.9-9.07.02v3.65s4.01-2.01,4.01-2.01c1.71,2.47,3.6,5.71,4.55,7.83l-4.47,2.48c-.83-2.06-2.54-5.24-4.08-7.77v7.89s.02,1.53.02,1.53ZM147.78,376.22c0,4.59-.81,9.96-5.4,13.09-1-1.18-3.78-3.53-5.13-4.41,3.77-2.48,4.11-5.72,4.11-8.84v-8.07s19.48-.04,19.48-.04l.02,11.43c0,1.59.06,2.18.77,2.18h2.18c.71,0,2-.13,2.77-.42.12,1.71.24,3.95.48,5.54-.82.35-2.12.42-3.24.42h-2.89c-5.48.02-6.54-2.34-6.55-7.82v-5.36s-6.61.01-6.61.01v2.3ZM146.7,395.96c1.48,3.35,3.49,6.47,6.08,9.12,2.12-2.48,3.82-5.54,4.93-9.14l-11.01.02Z" style="fill: #00716d; stroke-width: 0px;"/>
            <path d="M207.19,400.15c2.6,7.3,6.44,12.36,9.68,12.35,1.47,0,2.06-2.48,2.4-8.31,1.59,1.41,4.13,2.7,6.07,3.29-.98,9.78-3.51,11.96-8.81,11.97-7.36.01-13.56-8.1-16.82-19.29l-15.37.03.02,11.01,14.01-2.97c.06,2,.42,5.06.78,6.65-17.31,4.04-20.19,4.63-22.02,5.64-.47-1.77-2.07-4.83-3.13-6.18,1.29-.83,3-2.48,2.99-5.07l-.07-41.41,42.88-.08.03,19.14-15.37.03c.18,2.3.54,4.48.95,6.65l18.61-.03v6.54s-16.83.03-16.83.03ZM184.29,374.33v6.18s28.4-.05,28.4-.05v-6.18s-28.4.05-28.4.05ZM198.17,393.62c-.42-2.18-.71-4.36-.9-6.65l-12.96.02v6.66s13.85-.02,13.85-.02Z" style="fill: #00716d; stroke-width: 0px;"/>
            <path d="M246.88,396.36c-.35,2.06-.88,4.18-1.58,6.36,2.65,1.94,5.84,4.52,7.49,6.29l-3.64,4.95c-1.36-1.65-3.89-3.82-6.25-5.82-2.06,3.48-5.11,6.72-9.53,9.21-.83-1.59-2.78-4.18-4.19-5.41,7.89-3.78,9.93-10.68,10.99-15.57h6.71ZM277.03,394.96c-.35,2.18-.82,4.48-1.46,6.78,1.95,3.29,5.49,7.59,9.27,9.94-1.41,1.12-3.59,3.48-4.59,5.01-2.71-2.06-5.31-5.35-7.32-8.41-1.94,3.48-4.7,6.66-8.82,9.2-.71-1.47-2.19-3.41-3.54-4.76v7.54s-6.94.01-6.94.01l-.05-26.33c-6.18.42-12.25.67-17.61.8-1-1.71-2.78-5-4.08-6.47,15.31.21,34.45-.89,45.41-2.73l5.19,5.17c-6.12,1.19-13.9,2.09-21.96,2.75l.03,17.96c7-4.25,8.76-11.32,9.63-16.45h6.83ZM280.78,383.82l-47.53.09-.03-16.9,47.53-.09.03,16.9ZM246.83,373.1h-6.95s0,4.67,0,4.67h6.95s0-4.67,0-4.67ZM260.2,373.08h-7.01s0,4.67,0,4.67h7.01s0-4.67,0-4.67ZM273.75,373.05h-7.19s0,4.67,0,4.67h7.19s0-4.67,0-4.67Z" style="fill: #00716d; stroke-width: 0px;"/>
          </g>
        </g>
      </g>
    </g>
  </g>
</svg>