<?xml version="1.0" encoding="UTF-8"?>
<svg xmlns="http://www.w3.org/2000/svg" width="571.48" height="487.2" viewBox="0 0 571.48 487.2">
  <g style="isolation: isolate;">
    <g id="_圖層_2" data-name="圖層 2">
      <g id="_圖層_4" data-name="圖層 4">
        <g id="left_earth">
          <g>
            <g>
              <g>
                <path d="M349.18,459.48l-.08.15c.03-.05.05-.1.08-.15Z" style="fill: #e6e6e6; opacity: .5; stroke-width: 0px;"/>
                <path d="M349.19,459.47h0s0,0,0,.01h0Z" style="fill: #e6e6e6; stroke-width: 0px;"/>
                <g>
                  <circle cx="285.07" cy="328.55" r="138.69" transform="translate(-36.29 35.4) rotate(-6.68)" style="fill: #005baa; stroke-width: 0px;"/>
                  <path d="M372.16,220.62c19.23,23.81,30.76,54.1,30.76,87.09,0,76.6-62.09,138.69-138.69,138.69-32.99,0-63.28-11.53-87.09-30.76,25.42,31.47,64.32,51.6,107.93,51.6,76.6,0,138.69-62.09,138.69-138.69,0-43.61-20.13-82.5-51.6-107.93Z" style="fill: #cfe3f6; mix-blend-mode: multiply; stroke-width: 0px;"/>
                  <path d="M182.99,241.13l-4.28,9.13.83,8.03,3.53,7.93,1.77,8.28,1.72,8.58,2.85,7.43,10.13,5.98h6.14l6.99,4.61,7.48,1.41,4.44,6.76,4.74,7.08,6.04,4.35,4.81-3.62,4.84,2.1,2.04,5.28-.63,7.63-9.58,12.92-.63,10.81,6.98,7.03,5.57,14.32,6.99,4.13,11.1,6.23,1.25,18.25-3.58,18.16,20.44,13.92,7.1-.26,2.39-6.04,12.21-4.21,15.24-12.08,5.15-8.49,11.83-9.12,8.72-3.32,8.47-21.38,10.52-11.62v-6.77l-17.66-8.93-9.75,1.05-11.96-8.82-4.35-9.35-8.94-5.74-8.94,3.05-6.83-4.55-8.76-9.04h-12.79l-12.52-3.68-9.02,3.06-4.73,4.62-7.62-4.66-9.34,2.58-1.01-14.13-2.27-5.63-10.58-.49,6.58-12.36-4.15-4.23-7.09,5.52-2.67,4.95-8.42-.38-.57-12.82,8.3-12.16,16.82-4.31,8.72,2.35,1.13,5.61,4.01,5.73,3.68-3.42-3.67-11.31,14-9.49,5.44-10.85,12.08-5.13,12.61-7.4-.7-4.08-11.65.46,4.2-4.33,12.33,1.76,9.6-3.6-3.84-3.97-11.49-6.3-7.5.8-4.78-3.87-6.57.97-7.04,8.8-3.02,8.14-3.71-7.16-11.02-3.83,2.51-5.1,13.7-4.29,12.91-3.58,2.03,4.13,10.63,1.62,2.77-2.62-9.97-4.06,1.12-2.43,8.64.38,12.49,5.37,7.53,4.51,10.87,2.18-1.63-5.86,7.86-1.98.75-1.08c-12.16-3.49-25.01-5.36-38.29-5.36-34.68,0-66.38,12.73-90.7,33.77l-1.75,5.21-9.64,12.3Z" style="fill: #d4ca6a; stroke-width: 0px;"/>
                  <path d="M378.56,232.75l-1.31,4.04,5.41,5.01,5.87,9.54v14.98l4.74,3.68,3.95,8.67-5.67,7.82,2.78,19.24,11.39,13.74,4.11,7.8,9.19-2.45,3.97-10.94c-3.98-37.88-23.21-71.21-51.44-93.76l.56,8.23,6.45,4.4Z" style="fill: #d4ca6a; stroke-width: 0px;"/>
                </g>
              </g>
              <path d="M210.41,5.22c-18.72-2.15-45.51-5.22-45.51-5.22-1.63,3.55-3.21,7.36-4.75,11.42l46.44,4.52c2.28-6.74,3.82-10.73,3.82-10.73Z" style="fill: #fff; opacity: .65; stroke-width: 0px;"/>
              <path d="M417.24,26.65l-44.76,3.82s.55,3.59,1.25,10.01l44.68-3.83c-.74-6.45-1.17-10-1.17-10Z" style="fill: #fff; opacity: .65; stroke-width: 0px;"/>
              <path d="M427.89,446.01c.32-.5.63-1.03.94-1.58-47.97,14.62-102.98,24.99-150.88,27.08-39.76,1.73-97.46-4.7-127.78-8.6,1.58,2.67,3.23,4.97,4.97,6.87,18.79,20.61,238.79,28.77,272.75-23.76Z" style="fill: #fff; opacity: .75; stroke-width: 0px;"/>
              <path d="M421.26,296.57c.76,38.01-10.79,107.25-18.77,155.27,8.95-2.32,17.76-4.8,26.34-7.41,28.71-51.76-3.7-349.23-10.42-407.77l-44.68,3.83c1.9,17.58,4.86,56.43.39,101.25-4.72,47.32-136.57,60.02-173.35,22.14-30.1-31-4.47-117.53,5.83-147.93l-46.44-4.52c-40.63,107.46-48.12,387.05-9.99,451.48,7.11.92,15.73,1.97,25.28,3.03-12.89-78.86-32.99-215.19-25.28-256.03,9.29-49.17,26.25,162.07,52.39,258.74,25.47,2.26,53.22,3.83,75.39,2.87,22.84-.99,47.29-3.87,71.83-8.2,13.49-39.69,28.98-87.43,32.16-106.32,4.54-27,3.25,29.68-11.22,102.29,4.12-.86,8.23-1.76,12.33-2.69,18.64-80.56,37.35-203.35,38.22-160.01Z" style="fill: #fff; opacity: .45; stroke-width: 0px;"/>
              <path d="M150.17,209.9c-7.72,40.84,12.39,177.17,25.28,256.03,8.45.93,17.62,1.87,27.11,2.71-26.13-96.67-43.1-307.91-52.39-258.74Z" style="fill: #fff; opacity: .7; stroke-width: 0px;"/>
              <path d="M421.26,296.57c-.87-43.33-19.58,79.46-38.22,160.01,6.54-1.49,13.03-3.07,19.45-4.74,7.98-48.02,19.53-117.27,18.77-155.27Z" style="fill: #fff; opacity: .7; stroke-width: 0px;"/>
              <path d="M381.94,356.99c-3.18,18.89-18.66,66.63-32.16,106.32,6.98-1.23,13.97-2.58,20.93-4.03,14.47-72.6,15.76-129.29,11.22-102.29Z" style="fill: #fff; opacity: .7; stroke-width: 0px;"/>
              <path d="M408.38,45.26s13.29,154.87,10.03,187.83c-3.26,32.96,17.42-30.51-10.03-187.83Z" style="fill: #fff; opacity: .7; stroke-width: 0px;"/>
              <path d="M164.77,26.65s-19.42,43.14-20.44,83c-1.02,39.86,20.44-83,20.44-83Z" style="fill: #fff; opacity: .7; stroke-width: 0px;"/>
            </g>
            <g>
              <path d="M295.41,245.18s29.16,109.41,23.6,187.56c0,0,19.42-25.61,32.23-19.5,0,0-3.02-45.39-55.83-168.06Z" style="fill: #f1f2f2; opacity: .7; stroke-width: 0px;"/>
              <path d="M295.41,245.18s-28.54,97.98,23.6,187.56c0,0-35.75-28.93-56.55-22.55,0,0-15.22-59.48,32.95-165.01Z" style="fill: #f1f2f2; opacity: .7; stroke-width: 0px;"/>
              <path d="M319.01,432.73c5.56-78.14-23.6-187.56-23.6-187.56,0,0-28.54,97.98,23.6,187.56Z" style="fill: #91bde5; mix-blend-mode: multiply; stroke-width: 0px;"/>
            </g>
            <g>
              <ellipse cx="432.23" cy="481.81" rx="51.25" ry="5.39" style="fill: #cfe3f6; mix-blend-mode: multiply; stroke-width: 0px;"/>
              <g>
                <path d="M415.77,473.8s0,0,0,0c-3.19,2.21-6.66,4.54-9.7,6.76-.68.49-.43,1.2.4,1.21,4.14.06,8.86.05,13.04,0,.67,0,.9-.45.56-1.03-1.32-2.23-2.96-4.62-4.3-6.94Z" style="fill: #003651; stroke-width: 0px;"/>
                <path d="M389.4,430.08s-.01-.01-.02-.02c9.13-11.81,17.17-23.96,25.38-36.4,0,0,0,0,0,0,.98-1.48,2.36-2.85,5.49-3.6,2.91-.69,6-.11,8.26,1.84,3.85,3.32,4.33,8.77,1.09,12.77-.22.27-.45.52-.69.76,0,0,0,0,0,0-8.33,9.83-16.01,19.17-24.63,28.42-1.02,1.09-1.28,2.68-.69,4.04,5.27,12.01,9.31,24.5,13.66,36.88-2.63,1.06-5.26,2.11-7.89,3.17-6.66-13.83-12.65-27-20.21-40.38,0,0,.02,0,.03-.01-.13-.22-.28-.42-.39-.66-1.15-2.38-.87-4.96.6-6.82Z" style="fill: #005589; stroke-width: 0px;"/>
              </g>
              <g>
                <path d="M344.76,341.65c-.56.92-1.02,1.76-1.49,2.73-.46.97-.24,2.07.8,2.63,1.03.56,1.98,1.26,3.16,1.72s3.08-.79,3.67-1.88c.59-1.09.63-3.43-.37-4.21-1.01-.78-2.07-1.22-3.1-1.78-1.03-.56-2.1-.13-2.66.79Z" style="fill: #fdc99d; stroke-width: 0px;"/>
                <path d="M351.76,343.23c2.44,1.35,16.81,7.47,24.96,11.53,1.36.68,2.94.73,4.36.19,8.69-3.31,15.39-6.73,25.23-10.2,1.45,2.75,3.1,5.09,4.52,7.86-12.67,7.27-17.33,8.08-31.06,11.38,0,0,0-.01,0-.02-1.05.32-2.23.19-3.29-.41-9.3-4.91-18.77-8.63-27.88-14.05,1.01-2.12,2.41-4.03,3.18-6.29Z" style="fill: #58595b; stroke-width: 0px;"/>
              </g>
              <g>
                <g>
                  <path d="M339.45,335.87l-27.07-67.17s5.54-1.94,10.43,10.19c4.89,12.13,19.85,49.25,19.85,49.25l-3.2,7.73Z" style="fill: #e6e7e8; stroke-width: 0px;"/>
                  <path d="M334.69,334.96c-5.25,2.12-7.8,8.09-5.68,13.35,2.12,5.25,8.09,7.8,13.35,5.68,5.25-2.12,7.8-8.09,5.68-13.35-2.12-5.25-8.09-7.8-13.35-5.68ZM341.02,350.67c-3.42,1.38-7.31-.28-8.69-3.7-1.38-3.42.28-7.31,3.7-8.69,3.42-1.38,7.31.28,8.69,3.7,1.38,3.42-.28,7.31-3.7,8.69Z" style="fill: #f8983e; stroke-width: 0px;"/>
                  <path d="M348.04,340.64l-7.89-19.58s-2.98.44-3.38,3.82c-.95,8.11,3.39,7.53-2.08,10.08l13.35,5.68Z" style="fill: #f8983e; stroke-width: 0px;"/>
                </g>
                <path d="M356.1,322.06l-60.15-40.46s-3.05,5.02,7.81,12.32c10.85,7.3,44.05,29.64,44.05,29.64l8.29-1.49Z" style="fill: #fff; stroke-width: 0px;"/>
                <path d="M358.92,331.41c4.7,3.16,11.07,1.92,14.24-2.79,3.16-4.7,1.92-11.07-2.79-14.24-4.7-3.16-11.07-1.92-14.24,2.79-3.16,4.7-1.92,11.07,2.79,14.24ZM360.92,328.44c-3.06-2.06-3.87-6.21-1.81-9.27,2.06-3.06,6.21-3.87,9.27-1.81,3.06,2.06,3.87,6.21,1.81,9.27-2.06,3.06-6.21,3.87-9.27,1.81Z" style="fill: #f8983e; stroke-width: 0px;"/>
                <path d="M358.92,331.41l-17.52-11.78s1.05-2.83,4.44-2.51c8.13.76,6.66,4.87,10.3.06l2.79,14.24Z" style="fill: #f8983e; stroke-width: 0px;"/>
                <path d="M332.32,311.6c1.24-.24,2.05-1.43,1.81-2.67-.24-1.24-1.43-2.05-2.67-1.81-1.24.24-2.05,1.43-1.81,2.67.24,1.24,1.43,2.05,2.67,1.81Z" style="fill: #231f20; stroke-width: 0px;"/>
              </g>
              <g>
                <path d="M464.71,469.37s0,0,0,0c-.83,3.79-1.86,7.85-2.62,11.54-.17.82.48,1.18,1.1.63,3.08-2.73,6.54-5.9,9.59-8.73.49-.45.36-.94-.27-1.14-2.46-.78-5.25-1.53-7.79-2.3Z" style="fill: #003651; stroke-width: 0px;"/>
                <path d="M430.23,392.75c0-.49.04-.99.12-1.5.85-5.18,5.5-8.42,10.66-7.56,5.16.86,8.45,5.45,7.61,10.62-2.52,13.17-4.86,26.37-7.59,39.5-.45,2.15.19,4.38,1.7,5.98,8.94,9.44,17.45,19.26,25.88,29.16-2.09,1.91-4.17,3.83-6.25,5.74-11.14-10.5-21.49-20.21-33.24-30.03,0,0,.01-.01.02-.02-.28-.21-.57-.42-.83-.67-1.54-1.52-2.19-3.5-1.97-5.42,0,0-.02,0-.03,0,1.53-15.09,2.7-30.66,3.91-45.8Z" style="fill: #005589; stroke-width: 0px;"/>
              </g>
              <path d="M448.5,394.94l-1.34,7.1s-19.89,7.63-35.08-4.31l1.11-1.56,35.31-1.24Z" style="fill: #003651; stroke-width: 0px;"/>
              <path d="M408.47,333.14h4.26c2.04,0,3.7,1.66,3.7,3.7v10.2h-11.66v-10.2c0-2.04,1.66-3.7,3.7-3.7Z" transform="translate(872.8 605.82) rotate(170.26)" style="fill: #fdc99d; stroke-width: 0px;"/>
              <path d="M411.18,337.74l-7.06-.84c-3.14-.37-5.38-3.22-5.01-6.36l1.93-16.15,21.08,2.51-6.58,17.41c-.26,2.15-2.21,3.68-4.36,3.43Z" style="fill: #fdc99d; stroke-width: 0px;"/>
              <path d="M429.73,335.64l-31.49,12.15c-2.51,1.08-2.73,2.86-1.95,5.3,5.01,15.68,13.83,17.46,13.86,42.53,8.06,5.8,31.78,12.02,41.48-2.57-18.01-32.79-12.88-28.64-21.9-57.4Z" style="fill: #6d6e71; stroke-width: 0px;"/>
              <path d="M400.94,344.85l.64,1.65,18.66-7.19-.63-1.65c-.17-.45-.67-.67-1.12-.5l-17.06,6.58c-.44.17-.66.67-.49,1.11Z" style="fill: #fff; stroke-width: 0px;"/>
              <rect x="400.76" y="316.55" width="13.1" height="1.14" transform="translate(774.19 680.25) rotate(-173.2)" style="fill: #fdc99d; mix-blend-mode: multiply; stroke-width: 0px;"/>
              <path d="M416.67,311.64s5.42.65,6.16,6.62c1.04,8.28-7.3,16.11-7.3,16.11,0,0,.55-4.73.57-4.74.35-.41,4.47-5.13,1.66-7.16-.78-.56-3.61,3.72-3.61,3.72-.1.24-.37.4-.63.37h0c-.25-.03-.42-.22-.42-.47l.08-8.11c0-.43-.29-.78-.71-.83l-13.34-1.58c-.21-.02-.38-.2-.4-.42-.16-1.31-.43-5.71,2.91-5.31.69.08,15.03,1.79,15.03,1.79Z" style="fill: #003651; stroke-width: 0px;"/>
              <path d="M420.24,339.31l-.35,2.11c-1.45,8.8-12.54,11.88-18.31,5.08h0s18.66-7.19,18.66-7.19Z" style="fill: #fff; stroke-width: 0px;"/>
              <path d="M430.04,345.43s-20.52,12.54-30.3,15.99l-2.01-4.39,32.31-11.6Z" style="fill: #bcbec0; mix-blend-mode: multiply; stroke-width: 0px;"/>
              <g>
                <path d="M364.54,328.95c-.73.81-1.34,1.53-1.97,2.42-.64.88-.57,2.05.4,2.76.97.71,1.87,1.55,2.98,2.22,1.11.68,3.31-.09,4.1-1.1s1.11-3.34.23-4.31-1.93-1.65-2.9-2.35c-.97-.7-2.11-.45-2.84.36Z" style="fill: #fdc99d; stroke-width: 0px;"/>
                <path d="M396.52,348.59c1.19.66,2.63.74,3.88.19,10.01-4.39,18.05-8.41,27.03-12.72,2.42-1.24,5.24-.2,6.48,2.21s.23,5.25-2.21,6.38c-10.58,4.91-20.63,10.14-32.09,13.45,0,0,0,0,0,0,0,0,0,0-.01,0,0,0,0,0,0,0-1,.29-2.11.18-3.14-.36-10.54-5.76-20.06-12.63-29.22-20.34,1.36-1.92,3.11-3.52,4.24-5.63,2.42,1.9,16.44,12.03,25.04,16.8Z" style="fill: #6d6e71; stroke-width: 0px;"/>
              </g>
            </g>
          </g>
          <g id="_競技切磋" data-name="競技切磋">
            <path d="M446.89,136.36l-7.64,3.39,4.73-7.6c-31.88-30.1-57.39-30.67-57.39-30.67l-5.05,8.33-1.28-9.21c-25.75-.64-46,21.93-46,21.93,0,0,10.44,4.93,19.22,26.41,8.78,21.48,30.1,26.51,30.1,26.51l8.18-6.52-1.6,7.48s2.38,3.5,24.54,8.52c22.16,5.02,49.38-5.99,49.38-5.99-17.81-8.58-36.68-17.99-55.27-27.54-5.75,1.05-11.53,2.91-17.09,4.85,4.88-3.24,10.86-5.26,16.57-5.11-14.43-7.42-28.68-14.92-42.13-22.18,8.76,4.22,17.77,8.64,26.88,13.18-1.94-2.04-3.54-4.36-4.84-6.85-1.35-2.76-2.66-5.89-2.05-9.15,1,6,4.63,10.86,7.29,16.19,12.18,6.07,24.52,12.35,36.66,18.64-3.11-5.18-4.76-11.51-3.55-17.76.43,6.25,2.1,12.13,3.97,17.98,11.49,5.96,22.79,11.93,33.56,17.75,2.83-23.07-17.18-42.57-17.18-42.57Z" style="fill: #000; opacity: .22; stroke-width: 0px;"/>
            <path d="M446.79,134.77l-7.64,3.39,4.73-7.6c-31.88-30.1-57.39-30.67-57.39-30.67l-5.05,8.33-1.28-9.21c-25.75-.64-46,21.93-46,21.93,0,0,10.44,4.93,19.22,26.41,8.78,21.48,30.1,26.51,30.1,26.51l8.18-6.52-1.6,7.48s2.38,3.5,24.54,8.52c22.16,5.02,49.38-5.99,49.38-5.99-17.81-8.58-36.68-17.99-55.27-27.54-5.75,1.05-11.53,2.91-17.09,4.85,4.88-3.24,10.86-5.26,16.57-5.11-14.43-7.42-28.68-14.92-42.13-22.18,8.76,4.22,17.77,8.64,26.88,13.18-1.94-2.04-3.54-4.36-4.84-6.85-1.35-2.76-2.66-5.89-2.05-9.15,1,6,4.63,10.86,7.29,16.19,12.18,6.07,24.52,12.35,36.66,18.64-3.11-5.18-4.76-11.51-3.55-17.76.43,6.25,2.1,12.13,3.97,17.98,11.49,5.96,22.79,11.93,33.56,17.75,2.83-23.07-17.18-42.57-17.18-42.57Z" style="fill: #fdd985; stroke-width: 0px;"/>
            <g style="opacity: .41;">
              <path d="M396.6,135.2c.1.67.34,1.68.53,2.16-3.48,2.04-4.13,2.5-4.51,2.93l-.02-.19c-.17-.72-.53-1.87-.89-2.47.38-.22.67-.55.67-1.42v-2.78h-1.06c-.29,3.24-1.03,5.9-3.86,7.58-.29-.6-1.01-1.56-1.58-1.97,2.26-1.27,2.78-3.26,2.98-5.62h-1.44v-5.5h8.64v5.5h-1.25v2.76l1.8-.98h0ZM396.82,127.11h-10.44v-2.21h2.11c-.19-.62-.43-1.27-.65-1.85l2.26-.48c.31.72.65,1.58.84,2.33h1.61c.24-.77.53-1.66.65-2.35l2.52.43-.79,1.92h1.87l.02,2.21h0ZM396.72,122.43h-9.91v-2.16h3.65c-.14-.43-.29-.84-.43-1.2l2.52-.5c.24.5.46,1.15.65,1.7h3.53v2.16h-.01ZM389.74,131.57h3.82v-1.8h-3.82v1.8ZM405.96,138.65c.14,0,.31-.02.38-.07.1-.05.17-.19.24-.48.05-.31.07-.98.1-1.85.43.41,1.3.84,1.94,1.06-.05.91-.17,1.92-.34,2.33s-.48.72-.84.89c-.34.17-.91.24-1.32.24h-1.32c-.58,0-1.25-.17-1.63-.58-.43-.38-.6-.86-.6-2.35v-4.44h-.96c-.34,3.46-1.25,6.17-4.78,7.85-.29-.62-.98-1.56-1.49-1.99,2.86-1.25,3.53-3.29,3.79-5.86h-1.42v-5.45h9.24v5.45h-1.87v4.51c0,.34,0,.53.07.65.07.07.17.1.31.1h.5ZM407.91,127.11h-10.71v-2.23h1.9c-.19-.62-.38-1.27-.6-1.82l2.23-.46c.31.72.62,1.56.82,2.28h1.49c.26-.77.55-1.66.7-2.33l2.47.41c-.29.7-.58,1.32-.84,1.92h2.54v2.23h0ZM407.4,122.43h-9.94v-2.16h3.48c-.12-.41-.26-.82-.38-1.18l2.5-.46c.22.48.43,1.08.6,1.63h3.74v2.16h0ZM400.06,131.55h4.42v-1.78h-4.42v1.78Z" style="fill: none; stroke: #230918; stroke-linecap: round; stroke-linejoin: round; stroke-width: 2px;"/>
              <path d="M418.37,131.5c-.84.24-1.7.48-2.57.7v5.74c0,1.39-.26,2.06-1.08,2.52-.79.43-1.94.5-3.65.5-.1-.72-.46-1.85-.79-2.59.94.02,1.92.02,2.23.02.34,0,.46-.12.46-.48v-4.94l-2.33.58-.74-2.71c.89-.19,1.92-.41,3.07-.7v-4.25h-2.76v-2.64h2.76v-4.54h2.83v4.54h2.35v2.64h-2.35v3.55l2.21-.55.36,2.62h0ZM431.67,128.26c-.91,3.31-2.45,5.95-4.49,7.97,1.58,1.1,3.43,1.9,5.57,2.42-.6.58-1.42,1.73-1.82,2.47-2.33-.7-4.3-1.7-5.98-3.02-1.87,1.3-3.98,2.26-6.34,2.95-.31-.77-.98-1.97-1.51-2.59,2.11-.5,4.06-1.27,5.74-2.35-1.39-1.61-2.52-3.5-3.41-5.71l.72-.22h-1.25v-2.57h4.73v-2.88h-5.16v-2.64h5.16v-3.43h2.83v3.43h5.38v2.64h-5.38v2.88h2.88l.5-.12,1.82.77h.01ZM422.21,130.18c.67,1.58,1.63,3.02,2.83,4.25,1.25-1.18,2.3-2.62,3.02-4.25h-5.86,0Z" style="fill: none; stroke: #230918; stroke-linecap: round; stroke-linejoin: round; stroke-width: 2px;"/>
              <path d="M395.33,160.64c.05.79.26,1.92.43,2.52-5.62,2.57-6.55,3.12-7.15,3.65-.19-.7-.82-1.92-1.25-2.52.53-.31,1.25-.98,1.25-2.04v-5.3l-2.4.46-.46-2.62,2.86-.55v-5.78h2.76v5.26l3.91-.74.48,2.57-4.39.86v5.9l3.96-1.66h0ZM407.95,149.26s-.02,1.08-.05,1.44c-.26,11.93-.53,16.08-1.44,17.4-.67.96-1.27,1.25-2.18,1.44-.89.14-2.16.12-3.46.07-.05-.82-.41-2.09-.94-2.9,1.27.1,2.4.1,2.98.1.41,0,.65-.1.91-.48.7-.79.98-4.66,1.2-14.33h-3.67c-.17,7.58-.77,14.19-6.67,18-.43-.77-1.27-1.78-2.02-2.3,5.38-3.22,5.71-8.93,5.81-15.7h-3.34v-2.74h12.87Z" style="fill: none; stroke: #230918; stroke-linecap: round; stroke-linejoin: round; stroke-width: 2px;"/>
              <path d="M432.36,166.9v2.57h-11.76v-2.06c-.7.98-1.51,1.82-2.42,2.54-.38-.53-1.37-1.51-1.94-1.94.6-.41,1.13-.89,1.61-1.42h-3.7v1.87h-2.4v-5.78c-.19.29-.38.58-.58.86-.26-.67-1.03-2.09-1.56-2.71,1.58-2.28,2.45-5.71,2.95-9.41h-2.3v-2.59h8.76v2.59h-3.79c-.22,1.46-.48,2.93-.82,4.32h4.06v10.08c1.18-1.56,1.92-3.55,2.38-5.83h-1.82v-2.35h5.16v-1.34h-4.2v-2.21h4.2v-1.27h-4.73v-2.26h2.26c-.29-.72-.74-1.54-1.2-2.18l2.33-.89c.65.79,1.3,1.9,1.56,2.62l-1.03.46h4.58l-1.32-.41c.48-.74,1.1-1.9,1.42-2.66l2.83.74c-.58.89-1.13,1.7-1.61,2.33h2.64v2.26h-5.02v1.27h4.56v2.21h-4.56v1.34h5.35v2.35h-8.66c-.12.55-.26,1.1-.38,1.63h8.21v2.47h-3.36v2.81h4.32-.02ZM416.02,158.19h-1.87v5.95h1.87v-5.95ZM422.71,163.16c-.48,1.39-1.06,2.64-1.78,3.74h4.39v-2.81h-2.62v-.94h.01Z" style="fill: none; stroke: #230918; stroke-linecap: round; stroke-linejoin: round; stroke-width: 2px;"/>
            </g>
            <g>
              <path d="M396.6,135.2c.1.67.34,1.68.53,2.16-3.48,2.04-4.13,2.5-4.51,2.93l-.02-.19c-.17-.72-.53-1.87-.89-2.47.38-.22.67-.55.67-1.42v-2.78h-1.06c-.29,3.24-1.03,5.9-3.86,7.58-.29-.6-1.01-1.56-1.58-1.97,2.26-1.27,2.78-3.26,2.98-5.62h-1.44v-5.5h8.64v5.5h-1.25v2.76l1.8-.98h0ZM396.82,127.11h-10.44v-2.21h2.11c-.19-.62-.43-1.27-.65-1.85l2.26-.48c.31.72.65,1.58.84,2.33h1.61c.24-.77.53-1.66.65-2.35l2.52.43-.79,1.92h1.87l.02,2.21h0ZM396.72,122.43h-9.91v-2.16h3.65c-.14-.43-.29-.84-.43-1.2l2.52-.5c.24.5.46,1.15.65,1.7h3.53v2.16h-.01ZM389.74,131.57h3.82v-1.8h-3.82v1.8ZM405.96,138.65c.14,0,.31-.02.38-.07.1-.05.17-.19.24-.48.05-.31.07-.98.1-1.85.43.41,1.3.84,1.94,1.06-.05.91-.17,1.92-.34,2.33s-.48.72-.84.89c-.34.17-.91.24-1.32.24h-1.32c-.58,0-1.25-.17-1.63-.58-.43-.38-.6-.86-.6-2.35v-4.44h-.96c-.34,3.46-1.25,6.17-4.78,7.85-.29-.62-.98-1.56-1.49-1.99,2.86-1.25,3.53-3.29,3.79-5.86h-1.42v-5.45h9.24v5.45h-1.87v4.51c0,.34,0,.53.07.65.07.07.17.1.31.1h.5ZM407.91,127.11h-10.71v-2.23h1.9c-.19-.62-.38-1.27-.6-1.82l2.23-.46c.31.72.62,1.56.82,2.28h1.49c.26-.77.55-1.66.7-2.33l2.47.41c-.29.7-.58,1.32-.84,1.92h2.54v2.23h0ZM407.4,122.43h-9.94v-2.16h3.48c-.12-.41-.26-.82-.38-1.18l2.5-.46c.22.48.43,1.08.6,1.63h3.74v2.16h0ZM400.06,131.55h4.42v-1.78h-4.42v1.78Z" style="fill: #fff; stroke-width: 0px;"/>
              <path d="M418.37,131.5c-.84.24-1.7.48-2.57.7v5.74c0,1.39-.26,2.06-1.08,2.52-.79.43-1.94.5-3.65.5-.1-.72-.46-1.85-.79-2.59.94.02,1.92.02,2.23.02.34,0,.46-.12.46-.48v-4.94l-2.33.58-.74-2.71c.89-.19,1.92-.41,3.07-.7v-4.25h-2.76v-2.64h2.76v-4.54h2.83v4.54h2.35v2.64h-2.35v3.55l2.21-.55.36,2.62h0ZM431.67,128.26c-.91,3.31-2.45,5.95-4.49,7.97,1.58,1.1,3.43,1.9,5.57,2.42-.6.58-1.42,1.73-1.82,2.47-2.33-.7-4.3-1.7-5.98-3.02-1.87,1.3-3.98,2.26-6.34,2.95-.31-.77-.98-1.97-1.51-2.59,2.11-.5,4.06-1.27,5.74-2.35-1.39-1.61-2.52-3.5-3.41-5.71l.72-.22h-1.25v-2.57h4.73v-2.88h-5.16v-2.64h5.16v-3.43h2.83v3.43h5.38v2.64h-5.38v2.88h2.88l.5-.12,1.82.77h.01ZM422.21,130.18c.67,1.58,1.63,3.02,2.83,4.25,1.25-1.18,2.3-2.62,3.02-4.25h-5.86,0Z" style="fill: #fff; stroke-width: 0px;"/>
              <path d="M395.33,160.64c.05.79.26,1.92.43,2.52-5.62,2.57-6.55,3.12-7.15,3.65-.19-.7-.82-1.92-1.25-2.52.53-.31,1.25-.98,1.25-2.04v-5.3l-2.4.46-.46-2.62,2.86-.55v-5.78h2.76v5.26l3.91-.74.48,2.57-4.39.86v5.9l3.96-1.66h0ZM407.95,149.26s-.02,1.08-.05,1.44c-.26,11.93-.53,16.08-1.44,17.4-.67.96-1.27,1.25-2.18,1.44-.89.14-2.16.12-3.46.07-.05-.82-.41-2.09-.94-2.9,1.27.1,2.4.1,2.98.1.41,0,.65-.1.91-.48.7-.79.98-4.66,1.2-14.33h-3.67c-.17,7.58-.77,14.19-6.67,18-.43-.77-1.27-1.78-2.02-2.3,5.38-3.22,5.71-8.93,5.81-15.7h-3.34v-2.74h12.87Z" style="fill: #fff; stroke-width: 0px;"/>
              <path d="M432.36,166.9v2.57h-11.76v-2.06c-.7.98-1.51,1.82-2.42,2.54-.38-.53-1.37-1.51-1.94-1.94.6-.41,1.13-.89,1.61-1.42h-3.7v1.87h-2.4v-5.78c-.19.29-.38.58-.58.86-.26-.67-1.03-2.09-1.56-2.71,1.58-2.28,2.45-5.71,2.95-9.41h-2.3v-2.59h8.76v2.59h-3.79c-.22,1.46-.48,2.93-.82,4.32h4.06v10.08c1.18-1.56,1.92-3.55,2.38-5.83h-1.82v-2.35h5.16v-1.34h-4.2v-2.21h4.2v-1.27h-4.73v-2.26h2.26c-.29-.72-.74-1.54-1.2-2.18l2.33-.89c.65.79,1.3,1.9,1.56,2.62l-1.03.46h4.58l-1.32-.41c.48-.74,1.1-1.9,1.42-2.66l2.83.74c-.58.89-1.13,1.7-1.61,2.33h2.64v2.26h-5.02v1.27h4.56v2.21h-4.56v1.34h5.35v2.35h-8.66c-.12.55-.26,1.1-.38,1.63h8.21v2.47h-3.36v2.81h4.32-.02ZM416.02,158.19h-1.87v5.95h1.87v-5.95ZM422.71,163.16c-.48,1.39-1.06,2.64-1.78,3.74h4.39v-2.81h-2.62v-.94h.01Z" style="fill: #fff; stroke-width: 0px;"/>
            </g>
          </g>
          <g id="_自我學習" data-name="自我學習">
            <path d="M112.73,259.34l-7.64,3.39,4.73-7.6c-31.88-30.1-57.39-30.67-57.39-30.67l-5.05,8.33-1.28-9.21C20.34,222.92.09,245.49.09,245.49c0,0,10.44,4.93,19.22,26.41,8.78,21.48,30.1,26.51,30.1,26.51l8.18-6.52-1.6,7.48s2.38,3.5,24.54,8.52c22.16,5.02,49.38-5.99,49.38-5.99-17.81-8.58-36.68-17.99-55.27-27.54-5.75,1.05-11.53,2.91-17.09,4.85,4.88-3.24,10.86-5.26,16.57-5.11-14.43-7.42-28.68-14.92-42.13-22.18,8.76,4.22,17.77,8.64,26.88,13.18-1.94-2.04-3.54-4.36-4.84-6.85-1.35-2.76-2.66-5.89-2.05-9.15,1,6,4.63,10.86,7.29,16.19,12.18,6.07,24.52,12.35,36.66,18.64-3.11-5.18-4.76-11.51-3.55-17.76.43,6.25,2.1,12.13,3.97,17.98,11.49,5.96,22.79,11.93,33.56,17.75,2.83-23.07-17.18-42.57-17.18-42.57Z" style="fill: #000; opacity: .22; stroke-width: 0px;"/>
            <path d="M112.63,257.75l-7.64,3.39,4.73-7.6c-31.88-30.1-57.39-30.67-57.39-30.67l-5.05,8.33-1.28-9.21c-25.75-.64-46,21.93-46,21.93,0,0,10.44,4.93,19.22,26.41,8.78,21.48,30.1,26.51,30.1,26.51l8.18-6.52-1.6,7.48s2.38,3.5,24.54,8.52c22.16,5.02,49.38-5.99,49.38-5.99-17.81-8.58-36.68-17.99-55.27-27.54-5.75,1.05-11.53,2.91-17.09,4.85,4.88-3.24,10.86-5.26,16.57-5.11-14.43-7.42-28.68-14.92-42.13-22.18,8.76,4.22,17.77,8.64,26.88,13.18-1.94-2.04-3.54-4.36-4.84-6.85-1.35-2.76-2.66-5.89-2.05-9.15,1,6,4.63,10.86,7.29,16.19,12.18,6.07,24.52,12.35,36.66,18.64-3.11-5.18-4.76-11.51-3.55-17.76.43,6.25,2.1,12.13,3.97,17.98,11.49,5.96,22.79,11.93,33.56,17.75,2.83-23.07-17.18-42.57-17.18-42.57Z" style="fill: #79daa7; stroke-width: 0px;"/>
            <g style="opacity: .41;">
              <g>
                <path d="M65.87,241.75v19.27h-3.05v-1.18h-11.4v1.2h-2.9v-19.3h6.14c.26-1.03.53-2.18.65-3.14l3.46.38c-.36.96-.74,1.9-1.13,2.76h8.23ZM51.42,244.49v2.47h11.4v-2.47h-11.4ZM51.42,249.6v2.47h11.4v-2.47h-11.4ZM62.82,257.21v-2.5h-11.4v2.5h11.4Z" style="fill: #fff; stroke-width: 0px;"/>
                <path d="M91.07,250.03c-1.08,1.94-2.42,3.7-3.98,5.26.65,1.85,1.39,2.95,2.11,2.95.5,0,.79-1.15.91-3.98.62.67,1.58,1.32,2.35,1.63-.46,4.2-1.34,5.26-3.53,5.26-1.75,0-3.1-1.44-4.13-3.79-1.39,1.15-2.9,2.14-4.44,2.93-.41-.67-1.2-1.66-1.9-2.3,1.85-.84,3.7-2.02,5.35-3.38-.53-1.9-.94-4.08-1.22-6.43h-4.87v2.74c1.22-.22,2.47-.46,3.7-.67l.22,2.59-3.91.79v4.1c0,1.56-.34,2.33-1.3,2.78-.94.46-2.38.58-4.32.55-.12-.79-.6-2.09-1.01-2.88,1.34.07,2.74.05,3.17.02.43,0,.58-.12.58-.5v-3.48c-1.54.31-3.02.62-4.3.86l-.7-2.88c1.37-.22,3.1-.48,4.99-.82v-3.22h-4.54v-2.71h4.54v-2.74c-1.3.22-2.62.38-3.84.53-.12-.7-.5-1.75-.82-2.4,3.36-.46,7.08-1.22,9.53-2.02l1.92,2.42c-1.2.36-2.52.67-3.91.96v3.24h4.61c-.19-2.16-.26-4.39-.29-6.58h3c-.05,2.23.05,4.46.24,6.58h6.53v2.71h-6.24c.19,1.44.43,2.83.7,4.06.86-1.03,1.66-2.11,2.28-3.26l2.52,1.08h0ZM89.32,244.75c-.62-1.1-2.11-2.81-3.41-3.96l2.16-1.46c1.27,1.1,2.86,2.69,3.55,3.82l-2.3,1.61h0Z" style="fill: #fff; stroke-width: 0px;"/>
                <path d="M67.86,285.48h-9.17v1.73c0,1.27-.29,1.9-1.27,2.28-.98.34-2.3.36-4.1.36-.12-.77-.53-1.73-.86-2.4,1.13.05,2.57.05,2.93.02.38,0,.5-.07.5-.36v-1.63h-9.72v-2.26h9.72v-.7c.86-.34,1.78-.87,2.64-1.39h-7.7v-1.99h10.44l.6-.14,1.61,1.46c-1.32.96-2.95,1.94-4.58,2.76h8.98v2.26h-.02ZM49.31,280.97h-2.71v-4.92h1.8l-.43-7.13c1.44-.24,3.58-.89,4.85-1.34l1.18,1.66c-.94.36-2.16.67-3.29.91l.05.7h3.05v1.78h-2.95l.05.82h2.95v1.22c.58-.29,1.18-.58,1.68-.91-.46-.29-.91-.55-1.34-.79l1.32-1.13c.48.24.98.53,1.51.82.34-.31.67-.67.94-1.01l1.87.55c-.36.5-.79.98-1.27,1.44.58.38,1.08.74,1.46,1.1l-1.44,1.25c-.36-.36-.84-.74-1.39-1.18-.65.48-1.3.89-1.94,1.25h7.78l.1-.84h-2.83v-1.78h3l.05-.82h-2.93v-1.78h3.05l.05-.79h-3.22v-1.8h6c-.12,2.52-.31,5.57-.5,7.8h1.78v4.92h-2.83v-2.86h-15.41v2.86h-.04ZM51.04,276.05h3.89c-.26-.31-.72-.77-1.08-1.11v.26h-2.86l.05.84h0ZM58.48,271.63c-.31-.31-.77-.65-1.25-1.01-.65.48-1.3.89-1.94,1.2-.31-.34-1.03-.96-1.49-1.27.62-.24,1.25-.58,1.82-.94-.46-.26-.86-.5-1.3-.72l1.27-1.1c.46.22.96.48,1.46.77.31-.31.62-.62.86-.96l1.87.55c-.34.46-.74.91-1.2,1.32.48.34.91.67,1.25.96l-1.37,1.2h.02Z" style="fill: #fff; stroke-width: 0px;"/>
                <path d="M76.6,275.92c-1.92.84-3.96,1.68-5.66,2.38l-.98-2.33c1.56-.48,3.91-1.3,6.22-2.09l.43,2.04h0ZM82.57,278.06c-.29.62-.62,1.22-.94,1.75h7.61v10.11h-2.98v-.87h-10.27v.87h-2.83v-10.11h5.64c.19-.46.36-.96.5-1.39l-.07.02c-.74.31-1.8.31-3.26.31-.1-.62-.43-1.46-.72-2.02.82.02,1.75.02,2.02.02s.36-.1.36-.34v-5.71h-4.63c.96.53,2.09,1.25,2.66,1.8l-1.44,1.82c-.6-.67-1.94-1.61-3.02-2.18l1.2-1.44h-1.82v-2.21h9.62v7.94c0,.53-.05.94-.19,1.25l2.57.36v.02ZM86.27,281.97h-10.27v1.39h10.27v-1.39ZM86.27,286.89v-1.39h-10.27v1.39h10.27ZM91.05,276.38c0,1.15-.24,1.73-1.06,2.09-.79.36-1.94.38-3.5.36-.12-.67-.46-1.56-.77-2.16.91.05,1.97.05,2.26.05.31-.02.41-.1.41-.36v-5.64h-4.58c.98.5,2.09,1.2,2.66,1.7l-1.3,1.73c.72-.26,1.46-.5,2.21-.77l.43,2.04c-2.06.79-4.27,1.61-6.05,2.26l-.96-2.14c1.1-.34,2.57-.79,4.13-1.32-.67-.67-1.99-1.54-3.02-2.09l1.15-1.42h-1.56v-2.21h9.55v7.87h0Z" style="fill: #fff; stroke-width: 0px;"/>
              </g>
              <g>
                <path d="M65.87,241.75v19.27h-3.05v-1.18h-11.4v1.2h-2.9v-19.3h6.14c.26-1.03.53-2.18.65-3.14l3.46.38c-.36.96-.74,1.9-1.13,2.76h8.23ZM51.42,244.49v2.47h11.4v-2.47h-11.4ZM51.42,249.6v2.47h11.4v-2.47h-11.4ZM62.82,257.21v-2.5h-11.4v2.5h11.4Z" style="fill: none; stroke: #230918; stroke-linecap: round; stroke-linejoin: round; stroke-width: 2px;"/>
                <path d="M91.07,250.03c-1.08,1.94-2.42,3.7-3.98,5.26.65,1.85,1.39,2.95,2.11,2.95.5,0,.79-1.15.91-3.98.62.67,1.58,1.32,2.35,1.63-.46,4.2-1.34,5.26-3.53,5.26-1.75,0-3.1-1.44-4.13-3.79-1.39,1.15-2.9,2.14-4.44,2.93-.41-.67-1.2-1.66-1.9-2.3,1.85-.84,3.7-2.02,5.35-3.38-.53-1.9-.94-4.08-1.22-6.43h-4.87v2.74c1.22-.22,2.47-.46,3.7-.67l.22,2.59-3.91.79v4.1c0,1.56-.34,2.33-1.3,2.78-.94.46-2.38.58-4.32.55-.12-.79-.6-2.09-1.01-2.88,1.34.07,2.74.05,3.17.02.43,0,.58-.12.58-.5v-3.48c-1.54.31-3.02.62-4.3.86l-.7-2.88c1.37-.22,3.1-.48,4.99-.82v-3.22h-4.54v-2.71h4.54v-2.74c-1.3.22-2.62.38-3.84.53-.12-.7-.5-1.75-.82-2.4,3.36-.46,7.08-1.22,9.53-2.02l1.92,2.42c-1.2.36-2.52.67-3.91.96v3.24h4.61c-.19-2.16-.26-4.39-.29-6.58h3c-.05,2.23.05,4.46.24,6.58h6.53v2.71h-6.24c.19,1.44.43,2.83.7,4.06.86-1.03,1.66-2.11,2.28-3.26l2.52,1.08h0ZM89.32,244.75c-.62-1.1-2.11-2.81-3.41-3.96l2.16-1.46c1.27,1.1,2.86,2.69,3.55,3.82l-2.3,1.61h0Z" style="fill: none; stroke: #230918; stroke-linecap: round; stroke-linejoin: round; stroke-width: 2px;"/>
                <path d="M67.86,285.48h-9.17v1.73c0,1.27-.29,1.9-1.27,2.28-.98.34-2.3.36-4.1.36-.12-.77-.53-1.73-.86-2.4,1.13.05,2.57.05,2.93.02.38,0,.5-.07.5-.36v-1.63h-9.72v-2.26h9.72v-.7c.86-.34,1.78-.87,2.64-1.39h-7.7v-1.99h10.44l.6-.14,1.61,1.46c-1.32.96-2.95,1.94-4.58,2.76h8.98v2.26h-.02ZM49.31,280.97h-2.71v-4.92h1.8l-.43-7.13c1.44-.24,3.58-.89,4.85-1.34l1.18,1.66c-.94.36-2.16.67-3.29.91l.05.7h3.05v1.78h-2.95l.05.82h2.95v1.22c.58-.29,1.18-.58,1.68-.91-.46-.29-.91-.55-1.34-.79l1.32-1.13c.48.24.98.53,1.51.82.34-.31.67-.67.94-1.01l1.87.55c-.36.5-.79.98-1.27,1.44.58.38,1.08.74,1.46,1.1l-1.44,1.25c-.36-.36-.84-.74-1.39-1.18-.65.48-1.3.89-1.94,1.25h7.78l.1-.84h-2.83v-1.78h3l.05-.82h-2.93v-1.78h3.05l.05-.79h-3.22v-1.8h6c-.12,2.52-.31,5.57-.5,7.8h1.78v4.92h-2.83v-2.86h-15.41v2.86h-.04ZM51.04,276.05h3.89c-.26-.31-.72-.77-1.08-1.11v.26h-2.86l.05.84h0ZM58.48,271.63c-.31-.31-.77-.65-1.25-1.01-.65.48-1.3.89-1.94,1.2-.31-.34-1.03-.96-1.49-1.27.62-.24,1.25-.58,1.82-.94-.46-.26-.86-.5-1.3-.72l1.27-1.1c.46.22.96.48,1.46.77.31-.31.62-.62.86-.96l1.87.55c-.34.46-.74.91-1.2,1.32.48.34.91.67,1.25.96l-1.37,1.2h.02Z" style="fill: none; stroke: #230918; stroke-linecap: round; stroke-linejoin: round; stroke-width: 2px;"/>
                <path d="M76.6,275.92c-1.92.84-3.96,1.68-5.66,2.38l-.98-2.33c1.56-.48,3.91-1.3,6.22-2.09l.43,2.04h0ZM82.57,278.06c-.29.62-.62,1.22-.94,1.75h7.61v10.11h-2.98v-.87h-10.27v.87h-2.83v-10.11h5.64c.19-.46.36-.96.5-1.39l-.07.02c-.74.31-1.8.31-3.26.31-.1-.62-.43-1.46-.72-2.02.82.02,1.75.02,2.02.02s.36-.1.36-.34v-5.71h-4.63c.96.53,2.09,1.25,2.66,1.8l-1.44,1.82c-.6-.67-1.94-1.61-3.02-2.18l1.2-1.44h-1.82v-2.21h9.62v7.94c0,.53-.05.94-.19,1.25l2.57.36v.02ZM86.27,281.97h-10.27v1.39h10.27v-1.39ZM86.27,286.89v-1.39h-10.27v1.39h10.27ZM91.05,276.38c0,1.15-.24,1.73-1.06,2.09-.79.36-1.94.38-3.5.36-.12-.67-.46-1.56-.77-2.16.91.05,1.97.05,2.26.05.31-.02.41-.1.41-.36v-5.64h-4.58c.98.5,2.09,1.2,2.66,1.7l-1.3,1.73c.72-.26,1.46-.5,2.21-.77l.43,2.04c-2.06.79-4.27,1.61-6.05,2.26l-.96-2.14c1.1-.34,2.57-.79,4.13-1.32-.67-.67-1.99-1.54-3.02-2.09l1.15-1.42h-1.56v-2.21h9.55v7.87h0Z" style="fill: none; stroke: #230918; stroke-linecap: round; stroke-linejoin: round; stroke-width: 2px;"/>
              </g>
            </g>
            <g>
              <path d="M65.87,241.75v19.27h-3.05v-1.18h-11.4v1.2h-2.9v-19.3h6.14c.26-1.03.53-2.18.65-3.14l3.46.38c-.36.96-.74,1.9-1.13,2.76h8.23ZM51.42,244.49v2.47h11.4v-2.47h-11.4ZM51.42,249.6v2.47h11.4v-2.47h-11.4ZM62.82,257.21v-2.5h-11.4v2.5h11.4Z" style="fill: #fff; stroke-width: 0px;"/>
              <path d="M91.07,250.03c-1.08,1.94-2.42,3.7-3.98,5.26.65,1.85,1.39,2.95,2.11,2.95.5,0,.79-1.15.91-3.98.62.67,1.58,1.32,2.35,1.63-.46,4.2-1.34,5.26-3.53,5.26-1.75,0-3.1-1.44-4.13-3.79-1.39,1.15-2.9,2.14-4.44,2.93-.41-.67-1.2-1.66-1.9-2.3,1.85-.84,3.7-2.02,5.35-3.38-.53-1.9-.94-4.08-1.22-6.43h-4.87v2.74c1.22-.22,2.47-.46,3.7-.67l.22,2.59-3.91.79v4.1c0,1.56-.34,2.33-1.3,2.78-.94.46-2.38.58-4.32.55-.12-.79-.6-2.09-1.01-2.88,1.34.07,2.74.05,3.17.02.43,0,.58-.12.58-.5v-3.48c-1.54.31-3.02.62-4.3.86l-.7-2.88c1.37-.22,3.1-.48,4.99-.82v-3.22h-4.54v-2.71h4.54v-2.74c-1.3.22-2.62.38-3.84.53-.12-.7-.5-1.75-.82-2.4,3.36-.46,7.08-1.22,9.53-2.02l1.92,2.42c-1.2.36-2.52.67-3.91.96v3.24h4.61c-.19-2.16-.26-4.39-.29-6.58h3c-.05,2.23.05,4.46.24,6.58h6.53v2.71h-6.24c.19,1.44.43,2.83.7,4.06.86-1.03,1.66-2.11,2.28-3.26l2.52,1.08h0ZM89.32,244.75c-.62-1.1-2.11-2.81-3.41-3.96l2.16-1.46c1.27,1.1,2.86,2.69,3.55,3.82l-2.3,1.61h0Z" style="fill: #fff; stroke-width: 0px;"/>
              <path d="M67.86,285.48h-9.17v1.73c0,1.27-.29,1.9-1.27,2.28-.98.34-2.3.36-4.1.36-.12-.77-.53-1.73-.86-2.4,1.13.05,2.57.05,2.93.02.38,0,.5-.07.5-.36v-1.63h-9.72v-2.26h9.72v-.7c.86-.34,1.78-.87,2.64-1.39h-7.7v-1.99h10.44l.6-.14,1.61,1.46c-1.32.96-2.95,1.94-4.58,2.76h8.98v2.26h-.02ZM49.31,280.97h-2.71v-4.92h1.8l-.43-7.13c1.44-.24,3.58-.89,4.85-1.34l1.18,1.66c-.94.36-2.16.67-3.29.91l.05.7h3.05v1.78h-2.95l.05.82h2.95v1.22c.58-.29,1.18-.58,1.68-.91-.46-.29-.91-.55-1.34-.79l1.32-1.13c.48.24.98.53,1.51.82.34-.31.67-.67.94-1.01l1.87.55c-.36.5-.79.98-1.27,1.44.58.38,1.08.74,1.46,1.1l-1.44,1.25c-.36-.36-.84-.74-1.39-1.18-.65.48-1.3.89-1.94,1.25h7.78l.1-.84h-2.83v-1.78h3l.05-.82h-2.93v-1.78h3.05l.05-.79h-3.22v-1.8h6c-.12,2.52-.31,5.57-.5,7.8h1.78v4.92h-2.83v-2.86h-15.41v2.86h-.04ZM51.04,276.05h3.89c-.26-.31-.72-.77-1.08-1.11v.26h-2.86l.05.84h0ZM58.48,271.63c-.31-.31-.77-.65-1.25-1.01-.65.48-1.3.89-1.94,1.2-.31-.34-1.03-.96-1.49-1.27.62-.24,1.25-.58,1.82-.94-.46-.26-.86-.5-1.3-.72l1.27-1.1c.46.22.96.48,1.46.77.31-.31.62-.62.86-.96l1.87.55c-.34.46-.74.91-1.2,1.32.48.34.91.67,1.25.96l-1.37,1.2h.02Z" style="fill: #fff; stroke-width: 0px;"/>
              <path d="M76.6,275.92c-1.92.84-3.96,1.68-5.66,2.38l-.98-2.33c1.56-.48,3.91-1.3,6.22-2.09l.43,2.04h0ZM82.57,278.06c-.29.62-.62,1.22-.94,1.75h7.61v10.11h-2.98v-.87h-10.27v.87h-2.83v-10.11h5.64c.19-.46.36-.96.5-1.39l-.07.02c-.74.31-1.8.31-3.26.31-.1-.62-.43-1.46-.72-2.02.82.02,1.75.02,2.02.02s.36-.1.36-.34v-5.71h-4.63c.96.53,2.09,1.25,2.66,1.8l-1.44,1.82c-.6-.67-1.94-1.61-3.02-2.18l1.2-1.44h-1.82v-2.21h9.62v7.94c0,.53-.05.94-.19,1.25l2.57.36v.02ZM86.27,281.97h-10.27v1.39h10.27v-1.39ZM86.27,286.89v-1.39h-10.27v1.39h10.27ZM91.05,276.38c0,1.15-.24,1.73-1.06,2.09-.79.36-1.94.38-3.5.36-.12-.67-.46-1.56-.77-2.16.91.05,1.97.05,2.26.05.31-.02.41-.1.41-.36v-5.64h-4.58c.98.5,2.09,1.2,2.66,1.7l-1.3,1.73c.72-.26,1.46-.5,2.21-.77l.43,2.04c-2.06.79-4.27,1.61-6.05,2.26l-.96-2.14c1.1-.34,2.57-.79,4.13-1.32-.67-.67-1.99-1.54-3.02-2.09l1.15-1.42h-1.56v-2.21h9.55v7.87h0Z" style="fill: #fff; stroke-width: 0px;"/>
            </g>
          </g>
          <g id="_參加活動" data-name="參加活動">
            <path d="M515.84,266.48l-1.05-8.29,5.93,6.71c37.98-21.91,45.83-46.19,45.83-46.19l-6.53-7.23,9.2,1.41c8-24.49-7.82-50.35-7.82-50.35,0,0-7.71,8.59-30.81,10.85-23.1,2.26-34.03,21.23-34.03,21.23l3.91,9.7-6.71-3.68s-4.04,1.28-15.2,21.07c-11.16,19.79-8.41,49.02-8.41,49.02,13.33-14.6,27.75-29.98,42.23-45.05.64-5.81.52-11.88.26-17.77,1.7,5.61,1.92,11.91.15,17.34,11.24-11.7,22.51-23.2,33.32-34-6.55,7.18-13.37,14.55-20.33,21.97,2.51-1.27,5.19-2.14,7.95-2.68,3.03-.5,6.41-.86,9.35.66-6.04-.76-11.73,1.32-17.6,2.34-9.31,9.93-18.86,19.95-28.37,29.77,5.86-1.49,12.39-1.26,18.03,1.69-6.11-1.38-12.22-1.47-18.36-1.35-9.01,9.3-17.97,18.41-26.63,27.07,21.29,9.33,45.71-4.26,45.71-4.26Z" style="fill: #000; opacity: .22; stroke-width: 0px;"/>
            <path d="M515.75,264.89l-1.05-8.29,5.93,6.71c37.98-21.91,45.83-46.19,45.83-46.19l-6.53-7.23,9.2,1.41c8-24.49-7.82-50.35-7.82-50.35,0,0-7.71,8.59-30.81,10.85-23.1,2.26-34.03,21.23-34.03,21.23l3.91,9.7-6.71-3.68s-4.04,1.28-15.2,21.07c-11.16,19.79-8.41,49.02-8.41,49.02,13.33-14.6,27.75-29.98,42.23-45.05.64-5.81.52-11.88.26-17.77,1.7,5.61,1.92,11.91.15,17.34,11.24-11.7,22.51-23.2,33.32-34-6.55,7.18-13.37,14.55-20.33,21.97,2.51-1.27,5.19-2.14,7.95-2.68,3.03-.5,6.41-.86,9.35.66-6.04-.76-11.73,1.32-17.6,2.34-9.31,9.93-18.86,19.95-28.37,29.77,5.86-1.49,12.39-1.26,18.03,1.69-6.11-1.38-12.22-1.47-18.36-1.35-9.01,9.3-17.97,18.41-26.63,27.07,21.29,9.33,45.71-4.26,45.71-4.26Z" style="fill: #a4db4c; stroke-width: 0px;"/>
            <g style="opacity: .41;">
              <path d="M516.85,208.06c-.1-.29-.24-.6-.38-.94-1.85.12-3.02.22-3.84.31,2.04,1.2,4.54,2.18,7.06,2.76-.62.5-1.39,1.54-1.8,2.18-3.82-1.08-7.44-3.1-10.03-5.64-1.46,1.68-3.31,3.02-5.4,4.13,2.16-.6,4.66-1.51,6.07-2.47l1.99,1.03c-1.99,1.44-5.04,2.66-7.54,3.36-.31-.46-.82-1.08-1.34-1.56-1.06.53-2.16.96-3.31,1.34-.29-.6-1.03-1.73-1.54-2.28,2.52-.67,4.85-1.68,6.72-3-3.48.24-4.18.38-4.66.55-.17-.53-.6-1.61-.91-2.23.29-.07.62-.29.89-.62.24-.31,1.03-1.34,1.44-2.47l.07.02c-.14-.53-.5-1.54-.74-2.16.48-.07.98-.26,1.58-.58.67-.31,2.69-1.34,4.13-2.59l2.5,1.22c-.86.6-1.87,1.22-2.88,1.75l6.29-.14c-.6-.5-1.2-.98-1.78-1.37l2.16-1.01c1.66,1.2,3.84,2.95,4.92,4.18l-2.28,1.1c-.24-.26-.53-.6-.89-.96-10.01.38-11.78.38-12.79.65l2.23.89c-.36.62-.86,1.27-1.37,1.87l1.7-.07c-.17-.36-.34-.7-.53-.98l2.04-.58c.29.55.62,1.18.91,1.78.65-.67,1.2-1.39,1.61-2.21l2.62.74c-.14.26-.29.5-.43.74.19.24.43.48.67.7.26-.07.58-.29.82-.62.19-.29.84-1.3,1.15-2.35l2.52.98c-.31.55-.7,1.2-1.15,1.78l2.02-.1c-.24-.36-.48-.7-.72-1.01l1.97-.77c.96,1.1,1.97,2.66,2.35,3.72l-2.11.91v.02ZM515.96,214.09c-3.17,3.34-8.69,4.92-14.83,5.74-.24-.7-.77-1.66-1.27-2.28,5.74-.55,11.14-1.87,13.8-4.56l2.3,1.1h0ZM513.17,211.66c-2.59,2.16-6.77,3.67-10.7,4.49-.29-.6-.89-1.44-1.42-2.02,3.67-.6,7.85-1.82,9.99-3.53l2.14,1.06h-.01Z" style="fill: none; stroke: #230918; stroke-linecap: round; stroke-linejoin: round; stroke-width: 2px;"/>
              <path d="M532.13,201.68s0,.94-.02,1.3c-.22,10.22-.38,13.9-1.13,15-.55.82-1.06,1.06-1.85,1.22-.7.14-1.78.14-2.9.1-.05-.79-.31-2.04-.82-2.86.96.07,1.82.1,2.28.1.36,0,.58-.1.82-.43.46-.65.65-3.62.79-11.64h-2.42c-.24,6.41-1.08,11.78-4.18,15.34-.43-.7-1.37-1.66-2.09-2.09,2.69-3.05,3.34-7.63,3.5-13.25h-2.78v-2.78h2.81c.02-1.27.02-2.59.02-3.96h2.81c0,1.34,0,2.66-.02,3.96h5.18ZM542.17,200.12v19.01h-2.86v-1.49h-3.1v1.66h-2.76v-19.18h8.72ZM539.31,214.88v-12.03h-3.1v12.03h3.1Z" style="fill: none; stroke: #230918; stroke-linecap: round; stroke-linejoin: round; stroke-width: 2px;"/>
              <path d="M501.44,237.75c-.98-.7-3.05-1.82-4.46-2.59l1.54-2.11c1.32.65,3.46,1.68,4.51,2.33l-1.58,2.38h0ZM497.31,246.39c1.27-1.8,3.12-4.78,4.56-7.56l2.09,1.92c-1.27,2.52-2.78,5.26-4.25,7.58l-2.4-1.94ZM502.47,231.2c-.94-.72-2.98-1.85-4.37-2.64l1.61-2.06c1.34.67,3.43,1.73,4.46,2.4l-1.7,2.3h0ZM513.1,235.88v3.02h4.9v9.58h-2.71v-.86h-7.2v.98h-2.59v-9.7h4.9v-3.02h-6.38v-2.74h6.38v-2.81c-1.56.24-3.17.41-4.66.55-.12-.7-.5-1.8-.84-2.45,4.08-.41,8.59-1.2,11.23-2.26l2.18,2.26c-1.54.58-3.34,1.06-5.21,1.42v3.29h6.1v2.74h-6.1,0ZM515.29,241.49h-7.2v3.53h7.2v-3.53Z" style="fill: none; stroke: #230918; stroke-linecap: round; stroke-linejoin: round; stroke-width: 2px;"/>
              <path d="M542.77,231.58s-.02.94-.02,1.27c-.22,9.82-.41,13.3-1.18,14.4-.55.79-1.1,1.03-1.9,1.2-.72.14-1.82.12-2.98.1-.05-.79-.36-1.94-.84-2.74,1.06.1,1.97.12,2.42.12.36,0,.6-.1.82-.41.5-.65.74-3.58.89-11.33h-2.16c-.31,6.43-1.42,11.38-5.45,14.57-.36-.58-1.06-1.37-1.68-1.9-3.46.36-6.91.72-9.5.94l-.34-2.4c1.34-.1,3.02-.22,4.87-.34v-1.44h-4.22v-2.02h4.22v-.94h-4.13v-7.42h4.13v-.94h-4.73v-2.06h4.73v-.96c-1.39.1-2.76.17-4.06.19-.1-.58-.36-1.46-.62-2.02,3.55-.19,7.71-.6,10.35-1.18l1.25,2.14c-1.27.26-2.76.48-4.32.65v1.18h4.61v1.32h2.26c.02-1.58.02-3.24.02-5.02h2.74c0,1.75,0,3.43-.05,5.02h4.87v.02ZM523.85,236.12h1.87v-1.06h-1.87v1.06ZM525.73,238.9v-1.08h-1.87v1.08h1.87ZM528.32,244.85c1.37-.1,2.78-.22,4.18-.34,1.87-2.59,2.45-6.02,2.62-10.32h-2.18v-1.87h-4.61v.94h4.25v7.42h-4.25v.94h4.34v2.02h-4.34v1.22h-.01ZM530.19,236.12v-1.06h-1.87v1.06h1.87ZM528.32,237.82v1.08h1.87v-1.08h-1.87Z" style="fill: none; stroke: #230918; stroke-linecap: round; stroke-linejoin: round; stroke-width: 2px;"/>
            </g>
            <g>
              <path d="M516.85,208.06c-.1-.29-.24-.6-.38-.94-1.85.12-3.02.22-3.84.31,2.04,1.2,4.54,2.18,7.06,2.76-.62.5-1.39,1.54-1.8,2.18-3.82-1.08-7.44-3.1-10.03-5.64-1.46,1.68-3.31,3.02-5.4,4.13,2.16-.6,4.66-1.51,6.07-2.47l1.99,1.03c-1.99,1.44-5.04,2.66-7.54,3.36-.31-.46-.82-1.08-1.34-1.56-1.06.53-2.16.96-3.31,1.34-.29-.6-1.03-1.73-1.54-2.28,2.52-.67,4.85-1.68,6.72-3-3.48.24-4.18.38-4.66.55-.17-.53-.6-1.61-.91-2.23.29-.07.62-.29.89-.62.24-.31,1.03-1.34,1.44-2.47l.07.02c-.14-.53-.5-1.54-.74-2.16.48-.07.98-.26,1.58-.58.67-.31,2.69-1.34,4.13-2.59l2.5,1.22c-.86.6-1.87,1.22-2.88,1.75l6.29-.14c-.6-.5-1.2-.98-1.78-1.37l2.16-1.01c1.66,1.2,3.84,2.95,4.92,4.18l-2.28,1.1c-.24-.26-.53-.6-.89-.96-10.01.38-11.78.38-12.79.65l2.23.89c-.36.62-.86,1.27-1.37,1.87l1.7-.07c-.17-.36-.34-.7-.53-.98l2.04-.58c.29.55.62,1.18.91,1.78.65-.67,1.2-1.39,1.61-2.21l2.62.74c-.14.26-.29.5-.43.74.19.24.43.48.67.7.26-.07.58-.29.82-.62.19-.29.84-1.3,1.15-2.35l2.52.98c-.31.55-.7,1.2-1.15,1.78l2.02-.1c-.24-.36-.48-.7-.72-1.01l1.97-.77c.96,1.1,1.97,2.66,2.35,3.72l-2.11.91v.02ZM515.96,214.09c-3.17,3.34-8.69,4.92-14.83,5.74-.24-.7-.77-1.66-1.27-2.28,5.74-.55,11.14-1.87,13.8-4.56l2.3,1.1h0ZM513.17,211.66c-2.59,2.16-6.77,3.67-10.7,4.49-.29-.6-.89-1.44-1.42-2.02,3.67-.6,7.85-1.82,9.99-3.53l2.14,1.06h-.01Z" style="fill: #fff; stroke-width: 0px;"/>
              <path d="M532.13,201.68s0,.94-.02,1.3c-.22,10.22-.38,13.9-1.13,15-.55.82-1.06,1.06-1.85,1.22-.7.14-1.78.14-2.9.1-.05-.79-.31-2.04-.82-2.86.96.07,1.82.1,2.28.1.36,0,.58-.1.82-.43.46-.65.65-3.62.79-11.64h-2.42c-.24,6.41-1.08,11.78-4.18,15.34-.43-.7-1.37-1.66-2.09-2.09,2.69-3.05,3.34-7.63,3.5-13.25h-2.78v-2.78h2.81c.02-1.27.02-2.59.02-3.96h2.81c0,1.34,0,2.66-.02,3.96h5.18ZM542.17,200.12v19.01h-2.86v-1.49h-3.1v1.66h-2.76v-19.18h8.72ZM539.31,214.88v-12.03h-3.1v12.03h3.1Z" style="fill: #fff; stroke-width: 0px;"/>
              <path d="M501.44,237.75c-.98-.7-3.05-1.82-4.46-2.59l1.54-2.11c1.32.65,3.46,1.68,4.51,2.33l-1.58,2.38h0ZM497.31,246.39c1.27-1.8,3.12-4.78,4.56-7.56l2.09,1.92c-1.27,2.52-2.78,5.26-4.25,7.58l-2.4-1.94ZM502.47,231.2c-.94-.72-2.98-1.85-4.37-2.64l1.61-2.06c1.34.67,3.43,1.73,4.46,2.4l-1.7,2.3h0ZM513.1,235.88v3.02h4.9v9.58h-2.71v-.86h-7.2v.98h-2.59v-9.7h4.9v-3.02h-6.38v-2.74h6.38v-2.81c-1.56.24-3.17.41-4.66.55-.12-.7-.5-1.8-.84-2.45,4.08-.41,8.59-1.2,11.23-2.26l2.18,2.26c-1.54.58-3.34,1.06-5.21,1.42v3.29h6.1v2.74h-6.1,0ZM515.29,241.49h-7.2v3.53h7.2v-3.53Z" style="fill: #fff; stroke-width: 0px;"/>
              <path d="M542.77,231.58s-.02.94-.02,1.27c-.22,9.82-.41,13.3-1.18,14.4-.55.79-1.1,1.03-1.9,1.2-.72.14-1.82.12-2.98.1-.05-.79-.36-1.94-.84-2.74,1.06.1,1.97.12,2.42.12.36,0,.6-.1.82-.41.5-.65.74-3.58.89-11.33h-2.16c-.31,6.43-1.42,11.38-5.45,14.57-.36-.58-1.06-1.37-1.68-1.9-3.46.36-6.91.72-9.5.94l-.34-2.4c1.34-.1,3.02-.22,4.87-.34v-1.44h-4.22v-2.02h4.22v-.94h-4.13v-7.42h4.13v-.94h-4.73v-2.06h4.73v-.96c-1.39.1-2.76.17-4.06.19-.1-.58-.36-1.46-.62-2.02,3.55-.19,7.71-.6,10.35-1.18l1.25,2.14c-1.27.26-2.76.48-4.32.65v1.18h4.61v1.32h2.26c.02-1.58.02-3.24.02-5.02h2.74c0,1.75,0,3.43-.05,5.02h4.87v.02ZM523.85,236.12h1.87v-1.06h-1.87v1.06ZM525.73,238.9v-1.08h-1.87v1.08h1.87ZM528.32,244.85c1.37-.1,2.78-.22,4.18-.34,1.87-2.59,2.45-6.02,2.62-10.32h-2.18v-1.87h-4.61v.94h4.25v7.42h-4.25v.94h4.34v2.02h-4.34v1.22h-.01ZM530.19,236.12v-1.06h-1.87v1.06h1.87ZM528.32,237.82v1.08h1.87v-1.08h-1.87Z" style="fill: #fff; stroke-width: 0px;"/>
            </g>
          </g>
          <g id="_環境教學" data-name="環境教學">
            <path d="M185.52,186.7l-.95-7.45,5.32,6.03c34.11-19.68,41.16-41.48,41.16-41.48l-5.87-6.49,8.26,1.27c7.18-21.99-7.02-45.22-7.02-45.22,0,0-6.93,7.71-27.67,9.74-20.74,2.03-30.56,19.07-30.56,19.07l3.51,8.72-6.03-3.3s-3.63,1.15-13.65,18.92c-10.02,17.77-7.56,44.03-7.56,44.03,11.97-13.11,24.92-26.92,37.93-40.46.58-5.22.47-10.67.23-15.95,1.53,5.03,1.73,10.7.13,15.57,10.1-10.51,20.22-20.84,29.93-30.53-5.88,6.45-12.01,13.07-18.26,19.73,2.26-1.14,4.66-1.92,7.14-2.41,2.72-.45,5.75-.77,8.4.6-5.42-.69-10.54,1.18-15.81,2.1-8.36,8.92-16.94,17.92-25.48,26.74,5.26-1.34,11.13-1.13,16.2,1.52-5.49-1.24-10.98-1.32-16.49-1.21-8.09,8.35-16.14,16.53-23.92,24.31,19.12,8.37,41.05-3.82,41.05-3.82Z" style="fill: #000; opacity: .22; stroke-width: 0px;"/>
            <path d="M185.42,185.11l-.95-7.45,5.32,6.03c34.11-19.68,41.16-41.48,41.16-41.48l-5.87-6.49,8.26,1.27c7.18-21.99-7.02-45.22-7.02-45.22,0,0-6.93,7.71-27.67,9.74-20.74,2.03-30.56,19.07-30.56,19.07l3.51,8.72-6.03-3.3s-3.63,1.15-13.65,18.92c-10.02,17.77-7.56,44.03-7.56,44.03,11.97-13.11,24.92-26.92,37.93-40.46.58-5.22.47-10.67.23-15.95,1.53,5.03,1.73,10.7.13,15.57,10.1-10.51,20.22-20.84,29.93-30.53-5.88,6.45-12.01,13.07-18.26,19.73,2.26-1.14,4.66-1.92,7.14-2.41,2.72-.45,5.75-.77,8.4.6-5.42-.69-10.54,1.18-15.81,2.1-8.36,8.92-16.94,17.92-25.48,26.74,5.26-1.34,11.13-1.13,16.2,1.52-5.49-1.24-10.98-1.32-16.49-1.21-8.09,8.35-16.14,16.53-23.92,24.31,19.12,8.37,41.05-3.82,41.05-3.82Z" style="fill: #ffbfa1; stroke-width: 0px;"/>
            <g style="opacity: .41;">
              <path d="M187.06,136.6c-.94.48-1.87.96-2.76,1.34.96.7,2.06,1.25,3.36,1.58-.58.53-1.34,1.49-1.68,2.18-3.22-1.08-5.28-3.31-6.53-6.38-.7.6-1.46,1.13-2.33,1.63v2.06l3.38-.65c-.07.62-.1,1.56-.05,2.09-4.42.96-5.21,1.18-5.66,1.46-.12-.55-.58-1.46-.91-1.92.43-.19.96-.67.96-1.63v-.22c-.67.29-1.32.5-1.97.72-.26-.41-.7-.94-1.1-1.39l.02.17c-2.21.65-4.56,1.25-6.5,1.78l-.48-2.59c.7-.14,1.46-.34,2.35-.55v-5.9h-1.87v-2.47h1.87v-4.46h-2.04v-2.5h6.5v2.5h-1.97v4.46h1.75v2.47h-1.75v5.3l1.8-.48.22,1.63c1.7-.46,3.48-1.13,4.92-1.94h-2.76v-5.26h11.95v5.26h-4.01c.26.6.62,1.15,1.03,1.63.86-.5,1.78-1.13,2.38-1.61l1.87,1.68h.01ZM187.13,128.8h-14.69v-2.26h14.69v2.26ZM186.36,125.77h-13.06v-5.45h13.06v5.45ZM177.12,122.24h-1.51v1.61h1.51v-1.61ZM176.35,132.95h6.74v-1.34h-6.74v1.34ZM180.51,122.24h-1.51v1.61h1.51v-1.61ZM183.94,122.24h-1.58v1.61h1.58v-1.61Z" style="fill: none; stroke: #230918; stroke-linecap: round; stroke-linejoin: round; stroke-width: 2px;"/>
              <path d="M197.18,136.19c-2.47,1.03-5.21,2.14-7.37,2.98l-.94-2.93c.79-.24,1.73-.53,2.76-.89v-7.39h-2.33v-2.71h2.33v-5.38h2.78v5.38h2.04v2.71h-2.04v6.43c.74-.26,1.46-.53,2.21-.79l.55,2.59h.01ZM208.25,139.43c.19,0,.38,0,.5-.05s.22-.19.29-.48c.05-.29.07-.94.1-1.8.48.46,1.51.94,2.18,1.18-.07.89-.17,1.85-.36,2.26-.22.41-.55.7-1.01.89-.36.14-1.03.22-1.49.22h-1.54c-.62,0-1.39-.19-1.82-.58-.46-.41-.67-.91-.67-2.38v-2.9h-1.73c-.41,3.17-1.61,5.14-6.1,6.26-.24-.65-.91-1.7-1.46-2.18,3.7-.72,4.56-1.94,4.9-4.08h-1.99v-7.25h11.5v7.25h-2.47v2.98c0,.31,0,.48.1.58.1.07.24.1.43.1h.65v-.02ZM210.72,127.72h-13.61v-2.35h2.9c-.12-.53-.34-1.1-.53-1.58l2.3-.46c.29.6.6,1.44.74,2.04h2.71c.26-.67.53-1.44.7-2.04l2.59.48c-.29.55-.53,1.08-.79,1.56h2.98v2.35h.01ZM210.1,123.3h-12.31v-2.3h4.75c-.14-.38-.29-.79-.41-1.13l2.69-.5c.22.48.46,1.1.65,1.63h4.63v2.3ZM200.66,131.32h6.14v-1.01h-6.14v1.01ZM200.66,133.98h6.14v-1.01h-6.14v1.01Z" style="fill: none; stroke: #230918; stroke-linecap: round; stroke-linejoin: round; stroke-width: 2px;"/>
              <path d="M186.07,155.36c-.5,3.55-1.32,6.48-2.59,8.93,1.08,1.7,2.5,3.07,4.25,3.98-.65.58-1.54,1.7-1.97,2.5-1.63-.98-2.98-2.28-4.03-3.84-1.34,1.58-3,2.88-5.09,3.94-.26-.67-1.1-1.99-1.63-2.59,2.26-1.01,3.94-2.35,5.16-4.1-.65-1.49-1.2-3.1-1.63-4.85-.36.58-.72,1.15-1.1,1.66-.31-.36-.98-.98-1.58-1.49-.94,1.08-2.14,2.18-3.31,3.1v.6c1.39-.12,2.81-.24,4.2-.36v2.42c-1.39.14-2.81.29-4.2.41v2.38c0,1.25-.22,1.9-1.06,2.28s-1.97.41-3.48.41c-.1-.74-.46-1.73-.82-2.42.94.02,1.97.02,2.28.02.31-.02.41-.1.41-.34v-2.06c-1.66.17-3.24.31-4.56.46l-.29-2.54c1.34-.12,3.02-.24,4.85-.41v-1.32c.65-.46,1.34-1.06,1.99-1.68h-2.5c-.84.65-1.75,1.2-2.69,1.73-.38-.55-1.34-1.66-1.9-2.16,1.66-.79,3.17-1.8,4.56-3h-4.27v-2.45h3.65v-1.61h-2.74v-2.4h2.74v-2.18h2.64v2.18h2.14v1.54c.6-.98,1.13-2.04,1.56-3.12l2.62.77c-.72,1.75-1.63,3.36-2.64,4.82h1.7v1.9c1.1-2.28,1.87-5.14,2.33-8.09l2.9.46c-.24,1.32-.53,2.66-.86,3.91h6.38v2.64h-1.42v-.03ZM171.36,154.55h.38c.43-.53.84-1.03,1.2-1.61h-1.58v1.61h0ZM175.3,158.75c.41-.5.79-1.1,1.15-1.75h-3.36c-.36.43-.72.84-1.13,1.22h1.99l.5-.14.84.67h.01ZM180.39,155.36c.34,1.99.82,3.89,1.46,5.59.58-1.63,1.01-3.5,1.27-5.59h-2.74.01Z" style="fill: none; stroke: #230918; stroke-linecap: round; stroke-linejoin: round; stroke-width: 2px;"/>
              <path d="M211.11,166.38h-9.17v1.73c0,1.27-.29,1.9-1.27,2.28-.98.34-2.3.36-4.1.36-.12-.77-.53-1.73-.86-2.4,1.13.05,2.57.05,2.93.02.38,0,.5-.07.5-.36v-1.63h-9.72v-2.26h9.72v-.7c.86-.34,1.78-.86,2.64-1.39h-7.7v-1.99h10.44l.6-.14,1.61,1.46c-1.32.96-2.95,1.94-4.58,2.76h8.98v2.26h-.02ZM192.55,161.87h-2.71v-4.92h1.8l-.43-7.13c1.44-.24,3.58-.89,4.85-1.34l1.18,1.66c-.94.36-2.16.67-3.29.91l.05.7h3.05v1.78h-2.95l.05.82h2.95v1.22c.58-.29,1.18-.58,1.68-.91-.46-.29-.91-.55-1.34-.79l1.32-1.13c.48.24.98.53,1.51.82.34-.31.67-.67.94-1.01l1.87.55c-.36.5-.79.98-1.27,1.44.58.38,1.08.74,1.46,1.1l-1.44,1.25c-.36-.36-.84-.74-1.39-1.18-.65.48-1.3.89-1.94,1.25h7.78l.1-.84h-2.83v-1.78h3l.05-.82h-2.93v-1.78h3.05l.05-.79h-3.22v-1.8h6c-.12,2.52-.31,5.57-.5,7.8h1.78v4.92h-2.83v-2.86h-15.41v2.86h-.04ZM194.28,156.95h3.89c-.26-.31-.72-.77-1.08-1.1v.26h-2.86l.05.84h0ZM201.72,152.53c-.31-.31-.77-.65-1.25-1.01-.65.48-1.3.89-1.94,1.2-.31-.34-1.03-.96-1.49-1.27.62-.24,1.25-.58,1.82-.94-.46-.26-.86-.5-1.3-.72l1.27-1.1c.46.22.96.48,1.46.77.31-.31.62-.62.86-.96l1.87.55c-.34.46-.74.91-1.2,1.32.48.34.91.67,1.25.96l-1.37,1.2h.02Z" style="fill: none; stroke: #230918; stroke-linecap: round; stroke-linejoin: round; stroke-width: 2px;"/>
            </g>
            <g>
              <path d="M187.06,136.6c-.94.48-1.87.96-2.76,1.34.96.7,2.06,1.25,3.36,1.58-.58.53-1.34,1.49-1.68,2.18-3.22-1.08-5.28-3.31-6.53-6.38-.7.6-1.46,1.13-2.33,1.63v2.06l3.38-.65c-.07.62-.1,1.56-.05,2.09-4.42.96-5.21,1.18-5.66,1.46-.12-.55-.58-1.46-.91-1.92.43-.19.96-.67.96-1.63v-.22c-.67.29-1.32.5-1.97.72-.26-.41-.7-.94-1.1-1.39l.02.17c-2.21.65-4.56,1.25-6.5,1.78l-.48-2.59c.7-.14,1.46-.34,2.35-.55v-5.9h-1.87v-2.47h1.87v-4.46h-2.04v-2.5h6.5v2.5h-1.97v4.46h1.75v2.47h-1.75v5.3l1.8-.48.22,1.63c1.7-.46,3.48-1.13,4.92-1.94h-2.76v-5.26h11.95v5.26h-4.01c.26.6.62,1.15,1.03,1.63.86-.5,1.78-1.13,2.38-1.61l1.87,1.68h.01ZM187.13,128.8h-14.69v-2.26h14.69v2.26ZM186.36,125.77h-13.06v-5.45h13.06v5.45ZM177.12,122.24h-1.51v1.61h1.51v-1.61ZM176.35,132.95h6.74v-1.34h-6.74v1.34ZM180.51,122.24h-1.51v1.61h1.51v-1.61ZM183.94,122.24h-1.58v1.61h1.58v-1.61Z" style="fill: #fff; stroke-width: 0px;"/>
              <path d="M197.18,136.19c-2.47,1.03-5.21,2.14-7.37,2.98l-.94-2.93c.79-.24,1.73-.53,2.76-.89v-7.39h-2.33v-2.71h2.33v-5.38h2.78v5.38h2.04v2.71h-2.04v6.43c.74-.26,1.46-.53,2.21-.79l.55,2.59h.01ZM208.25,139.43c.19,0,.38,0,.5-.05s.22-.19.29-.48c.05-.29.07-.94.1-1.8.48.46,1.51.94,2.18,1.18-.07.89-.17,1.85-.36,2.26-.22.41-.55.7-1.01.89-.36.14-1.03.22-1.49.22h-1.54c-.62,0-1.39-.19-1.82-.58-.46-.41-.67-.91-.67-2.38v-2.9h-1.73c-.41,3.17-1.61,5.14-6.1,6.26-.24-.65-.91-1.7-1.46-2.18,3.7-.72,4.56-1.94,4.9-4.08h-1.99v-7.25h11.5v7.25h-2.47v2.98c0,.31,0,.48.1.58.1.07.24.1.43.1h.65v-.02ZM210.72,127.72h-13.61v-2.35h2.9c-.12-.53-.34-1.1-.53-1.58l2.3-.46c.29.6.6,1.44.74,2.04h2.71c.26-.67.53-1.44.7-2.04l2.59.48c-.29.55-.53,1.08-.79,1.56h2.98v2.35h.01ZM210.1,123.3h-12.31v-2.3h4.75c-.14-.38-.29-.79-.41-1.13l2.69-.5c.22.48.46,1.1.65,1.63h4.63v2.3ZM200.66,131.32h6.14v-1.01h-6.14v1.01ZM200.66,133.98h6.14v-1.01h-6.14v1.01Z" style="fill: #fff; stroke-width: 0px;"/>
              <path d="M186.07,155.36c-.5,3.55-1.32,6.48-2.59,8.93,1.08,1.7,2.5,3.07,4.25,3.98-.65.58-1.54,1.7-1.97,2.5-1.63-.98-2.98-2.28-4.03-3.84-1.34,1.58-3,2.88-5.09,3.94-.26-.67-1.1-1.99-1.63-2.59,2.26-1.01,3.94-2.35,5.16-4.1-.65-1.49-1.2-3.1-1.63-4.85-.36.58-.72,1.15-1.1,1.66-.31-.36-.98-.98-1.58-1.49-.94,1.08-2.14,2.18-3.31,3.1v.6c1.39-.12,2.81-.24,4.2-.36v2.42c-1.39.14-2.81.29-4.2.41v2.38c0,1.25-.22,1.9-1.06,2.28s-1.97.41-3.48.41c-.1-.74-.46-1.73-.82-2.42.94.02,1.97.02,2.28.02.31-.02.41-.1.41-.34v-2.06c-1.66.17-3.24.31-4.56.46l-.29-2.54c1.34-.12,3.02-.24,4.85-.41v-1.32c.65-.46,1.34-1.06,1.99-1.68h-2.5c-.84.65-1.75,1.2-2.69,1.73-.38-.55-1.34-1.66-1.9-2.16,1.66-.79,3.17-1.8,4.56-3h-4.27v-2.45h3.65v-1.61h-2.74v-2.4h2.74v-2.18h2.64v2.18h2.14v1.54c.6-.98,1.13-2.04,1.56-3.12l2.62.77c-.72,1.75-1.63,3.36-2.64,4.82h1.7v1.9c1.1-2.28,1.87-5.14,2.33-8.09l2.9.46c-.24,1.32-.53,2.66-.86,3.91h6.38v2.64h-1.42v-.03ZM171.36,154.55h.38c.43-.53.84-1.03,1.2-1.61h-1.58v1.61h0ZM175.3,158.75c.41-.5.79-1.1,1.15-1.75h-3.36c-.36.43-.72.84-1.13,1.22h1.99l.5-.14.84.67h.01ZM180.39,155.36c.34,1.99.82,3.89,1.46,5.59.58-1.63,1.01-3.5,1.27-5.59h-2.74.01Z" style="fill: #fff; stroke-width: 0px;"/>
              <path d="M211.11,166.38h-9.17v1.73c0,1.27-.29,1.9-1.27,2.28-.98.34-2.3.36-4.1.36-.12-.77-.53-1.73-.86-2.4,1.13.05,2.57.05,2.93.02.38,0,.5-.07.5-.36v-1.63h-9.72v-2.26h9.72v-.7c.86-.34,1.78-.86,2.64-1.39h-7.7v-1.99h10.44l.6-.14,1.61,1.46c-1.32.96-2.95,1.94-4.58,2.76h8.98v2.26h-.02ZM192.55,161.87h-2.71v-4.92h1.8l-.43-7.13c1.44-.24,3.58-.89,4.85-1.34l1.18,1.66c-.94.36-2.16.67-3.29.91l.05.7h3.05v1.78h-2.95l.05.82h2.95v1.22c.58-.29,1.18-.58,1.68-.91-.46-.29-.91-.55-1.34-.79l1.32-1.13c.48.24.98.53,1.51.82.34-.31.67-.67.94-1.01l1.87.55c-.36.5-.79.98-1.27,1.44.58.38,1.08.74,1.46,1.1l-1.44,1.25c-.36-.36-.84-.74-1.39-1.18-.65.48-1.3.89-1.94,1.25h7.78l.1-.84h-2.83v-1.78h3l.05-.82h-2.93v-1.78h3.05l.05-.79h-3.22v-1.8h6c-.12,2.52-.31,5.57-.5,7.8h1.78v4.92h-2.83v-2.86h-15.41v2.86h-.04ZM194.28,156.95h3.89c-.26-.31-.72-.77-1.08-1.1v.26h-2.86l.05.84h0ZM201.72,152.53c-.31-.31-.77-.65-1.25-1.01-.65.48-1.3.89-1.94,1.2-.31-.34-1.03-.96-1.49-1.27.62-.24,1.25-.58,1.82-.94-.46-.26-.86-.5-1.3-.72l1.27-1.1c.46.22.96.48,1.46.77.31-.31.62-.62.86-.96l1.87.55c-.34.46-.74.91-1.2,1.32.48.34.91.67,1.25.96l-1.37,1.2h.02Z" style="fill: #fff; stroke-width: 0px;"/>
            </g>
          </g>
        </g>
      </g>
    </g>
  </g>
</svg>