<?xml version="1.0" encoding="UTF-8"?>
<svg id="_圖層_2" data-name=" 圖層 2" xmlns="http://www.w3.org/2000/svg" version="1.1" viewBox="0 0 319.9 79.9">
  <defs>
    <style>
      .cls-1 {
        fill: #bef286;
      }

      .cls-1, .cls-2, .cls-3, .cls-4, .cls-5, .cls-6, .cls-7, .cls-8 {
        stroke-width: 0px;
      }

      .cls-2 {
        fill: #62c332;
      }

      .cls-9 {
        fill: none;
        stroke: #fff;
        stroke-width: 3px;
      }

      .cls-3 {
        fill: #f9cc3e;
      }

      .cls-4 {
        fill: #ea877d;
      }

      .cls-5 {
        fill: #ea8675;
      }

      .cls-6 {
        fill: #a4fbff;
      }

      .cls-7 {
        fill: #fff;
      }

      .cls-8 {
        fill: #00a4f8;
      }
    </style>
  </defs>
  <g id="_第一cut" data-name=" 第一cut">
    <g id="logo">
      <g>
        <g>
          <path class="cls-9" d="M39.4,7.2l-.2.3-.7,1h0l-.2.3h0l-.3.4h0l-.3.5h0l-.3.4-.7.9-.5.7-1.2,1.6-.3.3h0c0,0-.2.3-.2.3h0c0,0-.3.5-.3.5l-1.2,1.5-.2.3h0l-.7.9-.7.9-.3.5h0l-.2.3-2.1,2.8h0l-.6.8h0l-.6.8h0l-.6.9h0c0,.1-.8,1.2-.8,1.2l-.2.4h15.4l-.7,1.1h0c0,0-.4.7-.4.7h0c0,0-.2.4-.2.4h0l-.2.3h0l-.7,1-.8,1.1-.4.6-.4.6-.4.6-1,1.4-.2.3-.7.9h0c0,0-.3.5-.3.5l-.2.3-.4.6-.2.3-.7.9h0l-.5.7-.2.2-2,2.5-.4.6-.2.3-1,1.4-.3.4h0l-.7.9h0l-.7,1h0l-.3.3-.5.7c0,.1-.1.2-.2.4h15.4v13.3c0,.6,0,.5-.5.5H12V5.5h0c.2,0,.3,0,.5,0h26.3c.5,0,1,0,1.5,0l-.5.9h0c0,.1-.5.7-.5.7h0Z"/>
          <path class="cls-9" d="M70.5,38.3h0l.4-.2.9-.5,1-.7h0l.8-.8,2.3-2.8.4-.6.5-1.1.5-1.2.4-1.9v-.4h0v-2.1c.1,0-16.6,0-16.6,0h-1c0,.1-2.8.9-2.8.9l-1,.4h0l-.2.2-1.2.7-1.8,1.4h0c0,.1-.6.7-.6.7h0l-.2.3-.6.7-.9,1.4c.1.3-.1.5-.3.6l-.7,1.4-.2.5-.3,1.4-.2.7v.7c0,0,0,.9,0,.9,0,.6.3.8.9.8h14.6-.2c0-.1.2-.1.2-.1-.1,0-.3,0-.5,0h-14.7c0,0,14.7,0,14.7,0,.2,0,.4,0,.5.1h0v.4h1.4c0,0,2.1-.4,2.1-.4h.4c0-.1.3-.2.3-.2l1.9-.7h0Z"/>
          <path class="cls-9" d="M72.9,57.4l-.5.5-.8.5h0l-1.4.7h0l-1,.4h0l-2.5.7h-.2l-1,.2h-16.9v-.6l.5-2.9.3-1.2v-.4h.1l1.9-3.3.3-.3.4-.4,1.4-1.4h0c0,0,.4-.4.4-.4l.4-.3.7-.5,3.2-1.5h.1l1.2-.2h.4c0,0,.4-.2.4-.2h.8c0,0,.2.1.3.2h15.9c.2,0,.4.1.5.3v.4l-.2,1.2v.4h0l-.2.8v.3c-.1.4-.3.8-.4,1.2,0,0,0,0,0,0l-.3.8-.2.3-.6,1.1-.5.8h0l-.4.6-.6.7-1.7,1.5h0Z"/>
          <path class="cls-9" d="M55.8,6.8l1.6-.7h.7c0-.1.5-.4.5-.4h.5c0-.1,1-.3,1-.3h1.6-.4,1.2c0,0-.5,0-.5,0h0c0,0,15.2,0,15.2,0,.2,0,.3,0,.5,0h0c.2,0,.4,0,.3.3s0,.7,0,1l-.2,1.1v.4c0,0-.4,1.5-.4,1.5h0l-.3.7v.4c0,0-.5.7-.5.7v.2l-.6,1.1-.7.9-.4.5-.5.7h0l-1.2,1.2-.3.2h0l-.7.5-.5.3-.2.2s0,0,0,0l-.5.3h0l-.3.2h-.4c0,.1-.2.2-.2.2l-1.8.7h0l-.7.2h-.6c0,0-1,.2-1,.2,0,0,0-.1-.1-.1h-15.9c-.2,0-.3,0-.5,0h-.3v-2.3c.2-.5.3-.9.4-1.4h0c0,0,.6-1.7.6-1.7l.4-.8.3-.5h0M50.6,12.3l.2-.4h0l.5-.7.4-.5.6-.7.3-.3.5-.6h0l.8-.7h0l.7-.5-4,4.4h0Z"/>
        </g>
        <g>
          <path class="cls-2" d="M39.4,7.2l-.2.3-.7,1h0l-.2.3h0l-.3.4h0l-.3.5h0l-.3.4-.7.9-.5.7-1.2,1.6-.3.3h0c0,0-.2.3-.2.3h0c0,0-.3.5-.3.5l-1.2,1.5-.2.3h0l-.7.9-.7.9-.3.5h0l-.2.3-2.1,2.8h0l-.6.8h0l-.6.8h0l-.6.9h0c0,.1-.8,1.2-.8,1.2l-.2.4h15.4l-.7,1.1h0c0,0-.4.7-.4.7h0c0,0-.2.4-.2.4h0l-.2.3h0l-.7,1-.8,1.1-.4.6-.4.6-.4.6-1,1.4-.2.3-.7.9h0c0,0-.3.5-.3.5l-.2.3-.4.6-.2.3-.7.9h0l-.5.7-.2.2-2,2.5-.4.6-.2.3-1,1.4-.3.4h0l-.7.9h0l-.7,1h0l-.3.3-.5.7c0,.1-.1.2-.2.4h15.4v13.3c0,.6,0,.5-.5.5H12V5.5h0c.2,0,.3,0,.5,0h26.3c.5,0,1,0,1.5,0l-.5.9h0c0,.1-.5.7-.5.7h0Z"/>
          <path class="cls-8" d="M70.5,38.3h0l.4-.2.9-.5,1-.7h0l.8-.8,2.3-2.8.4-.6.5-1.1.5-1.2.4-1.9v-.4h0v-2.1c.1,0-16.6,0-16.6,0h-1c0,.1-2.8.9-2.8.9l-1,.4h0l-.2.2-1.2.7-1.8,1.4h0c0,.1-.6.7-.6.7h0l-.2.3-.6.7-.9,1.4c.1.3-.1.5-.3.6l-.7,1.4-.2.5-.3,1.4-.2.7v.7c0,0,0,.9,0,.9,0,.6.3.8.9.8h14.6-.2c0-.1.2-.1.2-.1-.1,0-.3,0-.5,0h-14.7c0,0,14.7,0,14.7,0,.2,0,.4,0,.5.1h0v.4h1.4c0,0,2.1-.4,2.1-.4h.4c0-.1.3-.2.3-.2l1.9-.7h0Z"/>
          <path class="cls-8" d="M72.9,57.4l-.5.5-.8.5h0l-1.4.7h0l-1,.4h0l-2.5.7h-.2l-1,.2h-16.9v-.6l.5-2.9.3-1.2v-.4h.1l1.9-3.3.3-.3.4-.4,1.4-1.4h0c0,0,.4-.4.4-.4l.4-.3.7-.5,3.2-1.5h.1l1.2-.2h.4c0,0,.4-.2.4-.2h.8c0,0,.2.1.3.2h15.9c.2,0,.4.1.5.3v.4l-.2,1.2v.4h0l-.2.8v.3c-.1.4-.3.8-.4,1.2,0,0,0,0,0,0l-.3.8-.2.3-.6,1.1-.5.8h0l-.4.6-.6.7-1.7,1.5h0Z"/>
          <path class="cls-8" d="M55.8,6.8l1.6-.7h.7c0-.1.5-.4.5-.4h.5c0-.1,1-.3,1-.3h1.6-.4,1.2c0,0-.5,0-.5,0h0c0,0,15.2,0,15.2,0,.2,0,.3,0,.5,0h0c.2,0,.4,0,.3.3s0,.7,0,1l-.2,1.1v.4c0,0-.4,1.5-.4,1.5h0l-.3.7v.4c0,0-.5.7-.5.7v.2l-.6,1.1-.7.9-.4.5-.5.7h0l-1.2,1.2-.3.2h0l-.7.5-.5.3-.2.2s0,0,0,0l-.5.3h0l-.3.2h-.4c0,.1-.2.2-.2.2l-1.8.7h0l-.7.2h-.6c0,0-1,.2-1,.2,0,0,0-.1-.1-.1h-15.9c-.2,0-.3,0-.5,0h-.3v-2.3c.2-.5.3-.9.4-1.4h0c0,0,.6-1.7.6-1.7l.4-.8.3-.5h0M50.6,12.3l.2-.4h0l.5-.7.4-.5.6-.7.3-.3.5-.6h0l.8-.7h0l.7-.5-4,4.4h0Z"/>
        </g>
      </g>
      <path class="cls-5" d="M87.6,33.2c0-.4.1-.7.7-.7,1.3-.5,2.3-1.3,3.2-2.3v-4.1c.2-1.4.3-2.8.4-4.3,0-.3-.1-.4-.3-.4s-.5,0-.7,0l-1.7.7c-.6.2-.9,0-.9-.6-.2-.5,0-.7.6-.9.5-.1.8-.2,1-.2.3-.1.6-.2.8-.2l1.1-.3c.3-2.2.5-4.3.5-6.5l-.8.2c-.2,0-.5,0-.7,0s-.4,0-.9,0-.8,0-.8,0c0-.1,0-.2-.1-.4-.2-.5,0-.8.8-.9.3.1.7.1,1,0s.7-.1,1,0c.1,0,.4,0,.9,0,.5,0,.8,0,1,0h1.5s.3,0,.8,0c.5,0,.8,0,.8,0,.8,0,1.6,0,2.4-.1.3,0,.7,0,1,0s.7,0,1,0h.5c.3.2.3.4.1.6.2.2.1.5,0,.7-.2.1-.5.1-.8,0-.7,0-1.3,0-1.8.2-.2.7-.3,1.4-.2,2.2,0,.9,0,1.8,0,2.7.7,0,1.3-.2,1.9-.5.4,0,.7.4.7.9-.5.3-1.1.6-1.8.7-.6.1-1,.5-1,1v7c.5-.3,1.1-.5,1.7-.7.7-.5,1.5-.8,2.3-1,.2,0,.4,0,.6,0,.3.2.4.5.2.8l-13.2,9.9c-.2.2-.5.4-.7.4-.5-1.1-1.1-2.2-1.7-3.4h0ZM89.3,34.4c0,0,0,.1.2.1.2,0,.2-.1-.2-.1ZM92,28.8v1.6c.4-.6.5-1.2.4-1.9,0-1.1,0-2.2.1-3.4,0-.3-.2-.3-.3,0,0,.5,0,.9-.1,1.3,0,.8,0,1.6,0,2.4ZM92.4,19.6h0c.3-.9.4-1.9.4-3h-.1l-.3,3ZM93.5,23.5v.2c.1,0,.6-2,.6-2-.4.2-.5.5-.4,1,0,.2,0,.5-.1.7ZM94,21.5c.1,0,.2-.2.1-.4-.1,0-.2.2-.1.4ZM94.7,30.1c-.1,0-.2,0-.2.1,0,.3.2.2.2-.1ZM94.9,26.1v-.2c0-.2,0-.1,0,.2ZM95.1,13.9c.1.3.2,0,.3-.6-.4,0-.5.2-.3.6ZM95.7,15c0,.2-.1.4-.1.6.1-.1.2-.3.1-.6ZM95.8,26.3v.2c.2-.5.2-.9.1-1.3,0,0-.1,1.1-.1,1.1ZM97.2,21.7l.2.3v-1.2c-.2.2-.2.5-.2.9ZM104.3,16.9v-.2c1.1-.2,2.1-.3,3.2-.2,0,0,.3,0,.7,0,.4,0,.6,0,.7,0h1.7c.2,0,.4,0,.6,0h2.7c.6-.1,1.1-.2,1.7-.2s1.1,0,1.7-.1c.6-.1,1.1-.1,1.6-.1,1.7-.2,3.4-.3,5.1-.3s.2,0,.6,0c.3,0,.5,0,.6,0l2.5-.3c.5,0,.9,0,1.4,0s1,0,1.5-.2c.1,0,.4,0,.7,0,.4,0,.6,0,.7,0h.5c.6-.2,1.1,0,1.4.5-.9.6-2,.9-3.3.9-.5,0-1.1,0-1.7,0-.4,0-.7,0-.9.1l-2.1.2c-.2,0-.4,0-.6,0-.6.1-1.3.2-1.9.1-.5,0-.9,0-1.3.1h-1.6c-.4.2-.7.2-1.1.2h-1.1c-.4,0-.6,0-.6,0l-3.2.2c-.5,0-1,.1-1.5.1-1.5.2-3.1.3-4.6.4-.5,0-.9.1-1.3.1l-2.5.2c-.1-.3-.2-.6-.1-.9h0ZM106.4,11.4c.3-3.2.6-6.4.7-9.6-.2-.5,0-.9.6-1.2.3-.1.6-.2,1-.2h.6c.1.1.4.1.9.2.5,0,.9,0,1.1,0h1c.4.2.6.2.7.2.2,0,.4,0,.6,0l7.3.2c2.6.3,5.1.4,7.7.5.2,0,.5,0,.9,0,1.1,0,2.2.1,3.3.6.3,0,.4.2.4.5.1,1.1,0,2.3-.4,3.4,0,1.5-.2,3-.6,4.5,0,.5,0,.9-.4,1.2-.7.2-1.5.3-2.3.2-.3.2-.7.2-1.1.2-.4,0-.6,0-.7,0h-2.9c-.8,0-1.7,0-2.4,0-.8,0-1.7,0-2.4,0h-3c-.3,0-.7,0-1,0s-.7,0-1,0c-.3,0-.5,0-.6,0-.4.1-.8.1-1.2,0-.2,0-.5,0-.8,0-.8,0-1.7,0-2.4,0s-1.5,0-2.3,0-.6,0-.9-.2c-.4-.2-.5-.5-.4-1h0ZM112.7,42.3v-1.4c.2-.9.2-1.9.2-2.9,0-.7,0-1.5-.2-2.2l-5.1,4c-.2.3-.5.4-.8.4-.4-.3-.3-.7.2-1,.3-.2.5-.5.6-.7,1.7-2.5,3.2-5,4.5-7.7.2-.2.4-.5.5-.8-.7.2-1.3.4-1.9.6-.2.2-.6.2-.9.2,0-.1-.2-.3-.3-.4-.2.1-.4,0-.6-.2v-2.9c0-.8,0-1.6.2-2.4,0-1.6,0-3.2,0-4.9,0-.2.2-.4.5-.5.3-.1.5-.1.6,0l2.7-.2c.8,0,1.6-.1,2.4-.1h3.2c0,0,.3-.1.8-.1.4,0,.7,0,.8,0h3.1c0,0,.3-.1.8-.1.4,0,.7,0,.8,0,.5-.1,1.1-.2,1.7-.1.4.2.8.6,1,1-.2.9-.4,1.8-.5,2.6l-1.2,4.9c-.4.3-.8.4-1.3.4-.4.2-.8.2-1.2,0-.2,0-.4,0-.6.1-.7.3-1.3.5-2.1.5-.3.1-.7.1-1,0-.2.2-.4.2-.7.2-.7.9-.9,2-.7,3.2,0,2.3,0,4.7,0,7,.8-.4,1.6-.9,2.3-1.4.3-.1.6,0,.8.1.4.2.4.4.2.7-2.7,1.5-5.4,3-8.1,4.5-.4,0-.7-.3-.7-.7h0ZM108.8,2.3c.2.2.3.2.4,0,0-.3-.2-.3-.4,0ZM109,37.8c.2,0,.4,0,.6-.2-.3-.2-.5-.2-.6.2ZM109.2,11.4h.3c-.2-.3-.3-.3-.3,0ZM109.7,29.7c0,0,0,.1.1.1.3,0,.2-.1-.1-.1ZM110.2,11.1c0,0-.1,0-.1.1,0,.2.1.2.1-.1ZM110.8,22.7c.2-.2.3-.5,0-.7v.7ZM111.1,10.8v.6c.8.1,1.5.2,2.2.1.1,0,.2,0,.2-.2,0-.2,0-.5.1-.7l.6-6.6c0-.6,0-1.2.1-1.7.2-.3.1-.5,0-.7-1,0-2,0-2.9.1.2.2.3.5.4.8-.4,2.2-.5,4.5-.4,6.8,0,.5-.1,1-.1,1.6h0ZM112.5,34l-1,1.3c.2,0,.4,0,.7-.5.4-.3.6-.6.4-.8ZM113.1,33.5l-.4.3c.1.1.2,0,.4-.3ZM113,25.6h.1c0,0,0-1.3,0-1.3-.2.4-.2.9-.2,1.3ZM113.6,28.6v.3c-.1,0,6.8-1.9,6.8-1.9,0-.6,0-1.3.2-2,.3-1.7.6-3.3.7-5,0-.2,0-.3-.1-.3l-2.1.3c-.4,0-.9,0-1.4.1-1,0-2,0-3,.1-.3,0-.6,0-.7.2,0,.9,0,1.8-.2,2.6,0,1.5,0,3.1-.3,4.6-.1.2-.1.5,0,.9h0ZM114.3,35.2c-.1.6-.2,1.3-.1,2h.1v-2c0,0,0,0,0,0ZM115.4,31.3c.2,0,.4-.2.5-.7-.2.1-.4.4-.5.7ZM115.6,32.8c0,.2,0,.2.2.1,0-.5,0-.5-.2-.1ZM116.9,9.3c.1.6.2,1.3.2,2.1.1,0,.4,0,.9,0h1.2c.2,0,.5,0,.7-.2.4-2.2.8-4.4,1-6.7.1-.8.1-1.6,0-2.4l-2.9-.2-.2,2.2c-.2,1.8-.5,3.5-.9,5.3h0ZM117.2,35.5v.3c.2.3.3.3.2-.2s-.1-.5-.2-.1h0ZM119.4,30.5c.3-.2.6-.2.8,0,.7,0,1.4.3,2,.9.3,0,.4.2.4.4.8.2,1.7.5,2.4.9l1.4-1.6c.9-1.5,1.8-3,2.8-4.4,1.5.5,2.8,1.2,3.9,2.3-1.4,1.8-2.9,3.6-4.5,5.3.5.3,1,.5,1.6.6,1.6.5,3,1.1,4.5,1.7.2.2.3.6,0,1-.6,1.3-1.3,2.5-2.1,3.7-.6.2-1,0-1.2-.4l-4.3-3.5c-1.8-1-3.4-2.3-4.8-3.8-1.2-.9-2.1-2-2.9-3.2h0ZM123.8,10.5c-.2.2-.4.4-.6.5h1.3c.5-.2.8-.2.8-.2.9-.1,1.3-.8,1-1.9.2-.3.2-.7.2-1,0-.3,0-.6.1-.8.4-1.6.6-3.1.6-4.7h-2.1c0,0-.1.7-.1.7-.2.9-.4,1.9-.5,2.9-.2.2-.3.4-.2.7-.2,1.3-.3,2.6-.5,3.9h0ZM123.2,20c0,0,.1,0,.2.1.2.2.3.1.3-.2-.2-.2-.4-.2-.5,0ZM124.4,20c0,.3,0,.5.2.5,0-.3,0-.5-.2-.5ZM125.5,20.1c.2.2.3.2.4-.1h-.4Z"/>
      <path class="cls-1" d="M134.6,29.5c.5-.2,1.1-.3,1.7-.4.6,0,1.2,0,1.7-.2.4-.1.6-.2.7-.2h.4c0,0,0-8.5,0-8.5-.8-.2-1.6-.2-2.5-.2s-.7-.2-.9-.6c0-.2.2-.4.4-.4,1.1,0,2.1,0,3.1-.1.2-.9.2-1.8,0-2.7,0-.2,0-.4,0-.7.4-.9,1.3-1.2,2.5-1,.3.1.6.2,1,.1.4,0,.9,0,1.3,0,.3,0,.6,0,1,0,.2,0,.3.2.3.5.2,1.3.2,2.5.2,3.8.4.1.8.2,1.2.1.6,0,1.1.2,1.4.7,0,.4-.2.6-.6.6s-.8,0-1,0h-1c-.2.5-.2,1.1-.2,1.6-.1.8-.1,1.6,0,2.5.1,1,.1,1.9,0,2.9.2,0,.5,0,.9,0,.4-.1.6-.1.7-.1l1.1-.3c.4,0,.9-.1,1.3-.2.2-.2.4-.3.6,0-.3.6-.8,1-1.4,1.1-3.4,1.7-6.9,3.3-10.6,4.8-.3.2-.6.3-1,.4-.9-.7-1.6-1.6-2.1-2.8-.2-.2-.3-.4-.2-.7h0ZM142.9,17.2c0,.4.1.8.3,1.1v-.8c-.1-.4-.2-.4-.3-.2h0ZM143.7,17c.2.3.2.2.2-.4-.2,0-.2.1-.2.4ZM143.7,27.8c.1.2.2.1.2-.3-.1-.2-.2-.1-.2.3ZM143.8,27.2c.1-.2.1-.4,0-.6v.6ZM143.9,23.9v-.7c.2-.3.2-.6,0-1,0,0,0,1.7,0,1.7ZM150,42.3c0-.5.2-1,.7-1.4.1-.2.3-.3.4-.4.6-1.1,1.2-2.1,1.9-3.1l3.7-6.9c.2-.3.1-.4-.4-.4-.3,0-.5,0-.8-.1-.2-.2-.5-.2-.7-.2-.4,0-.6-.2-.6-.8,0-.4,0-.7-.1-1.1,0-.3,0-.6,0-.8l-.4-4.3c0-1,0-2,.1-3,.4-.4,1.1-.6,1.9-.5.3,0,.5,0,.6,0h1.5c.5,0,1,0,1.6,0h1c.4.2.7.2,1,.2s.8,0,1.2,0h3.1c.8.1,1.5.2,2.2.2.4,0,.9,0,1.3,0,.3,0,.7.1,1,.1.7-.1,1.3,0,1.8.6.4.2.7.5.7,1-.1,2.9-.5,5.7-1.3,8.5,0,.4-.2.6-.6.7-.3.1-.6.2-1,.1-.5,0-.9.2-1.2.5,0,1.1,0,2.2-.1,3.2,0,.4,0,.8,0,1.3v1.6c.3.5.8.7,1.3.6l6.4-1.2c0-1.8,0-3.6-.2-5.5,0-.3.1-.5.4-.5s.5,0,.7-.1.4-.1.6-.1c.4-.1.7,0,1,.1.6,1.3,1.1,2.6,1.3,4,.2.6.3,1.3.2,2-.8,1.1-2,1.6-3.6,1.5-.1,0-.4,0-.7,0h-.8c-.3,0-.4,0-.4.1-.9,0-1.8.3-2.6.5-.4,0-.8.1-1.1.1l-1.8.3c-.2,0-.5.1-.7.1h-2.1c-.4,0-.8,0-1.1,0-.4.1-.7.2-1.1.1-.4,0-.8,0-1-.4-.6-.2-.9-.6-.9-1.2,0-.7,0-1.5.2-2.2l.5-5.1c-.1-.2-.3-.2-.4,0-.9,1.7-2.1,3.2-3.4,4.6-.6.8-1.3,1.6-2.1,2.3-.2,0-.4,0-.4.3,0,.3-.2.4-.5.4-1.4,1.5-2.9,2.8-4.5,4-.4,0-.8,0-1.1.3-.4.2-.6.1-.7-.2h0ZM151.8,16.1v-.4c.3-.4.6-.5,1-.5,1,0,1.9,0,2.8.1.5,0,1,0,1.5,0h3.2c.5,0,1.1,0,1.7,0h.6c0,0,0-.2-.2-.4,0-.8.1-1.6.5-2.4.1-.8.2-1.7.3-2.6.3-.6.5-1.3.6-2,0-.3.1-.4.3-.4l.4.2c.3-.2.5-.2.8,0,1.1-.2,2,0,2.8.5-.3,2.1-.7,4.2-1.3,6.2-.1.5.1.7.7.5.5,0,1.1,0,1.7,0,1.3-.2,2.7-.3,4-.2h0c0-.1.2,0,.4.1.5,0,.9.2,1.3.5.2.3.2.6,0,.8l-3.8.4c-.2,0-.5-.1-.8-.1-.4,0-.7,0-1.1-.1-.4,0-.7,0-1,0-.3,0-.6,0-.9,0s-.4,0-.5,0c-.9,0-1.9,0-2.8,0-.1,0-.4,0-.7,0h-8.2c-.2.1-.5.1-.8.1-.4,0-.9,0-1.3.1-.6.2-1,0-1.3-.5h0ZM152.7,6.1l-.5-.5c.1-.2.3-.5.5-.7.6,0,1.3,0,1.9.1,1.4,0,2.9,0,4.3-.1l-3.5-4.5c0-.2.2-.4.5-.4,1.4,0,2.7,0,4,.4,1,1.2,2,2.3,3.1,3.4,0,.3,0,.6,0,1h4c.7,0,1.3,0,1.9,0,.4.4.3.7-.1.9-.7.2-1.5.3-2.3.2-1.3,0-2.6,0-4-.1-.5,0-.8,0-.9,0h-2.9c-.5,0-1,0-1.5,0h-.9c-.5,0-.9,0-1.3,0s-.8,0-1.2,0h-1.1c0-.1,0-.1,0-.1ZM157,13.6l-2.1-4.4c-.2-.2-.3-.5-.3-.8.3-.4.6-.5,1-.5,1.1-.4,1.9,0,2.6.9.7.6,1.4,1.3,1.9,2.2.3.2.4.4.5.7-.7.7-1.4,1.4-2.3,2-.2.2-.4.2-.6,0-.2,0-.4,0-.6-.1h0ZM155.7,21.5c.2.3.2.2.1-.2,0-.2-.1-.1-.1.2ZM158.8,29.1c0,0,0,.1.1.1h6.2c.2,0,.3-.4.4-.7l.5-5.7c0-.7.1-1.4.4-2,0-.2-.2-.3-.6-.3h-.7c-.1,0-.4,0-.8,0-.4,0-.6,0-.7,0h-5.2c-.3-.1-.4,0-.5.2,0,1.3.1,2.6.4,3.9l3.9.2c.3,0,.5,0,.6,0h.2s.2,0,.6,0c.4,0,.7,0,1,.1.3.2.3.5,0,.7-.3.3-.6.4-1.1.4-.1,0-.3,0-.6,0-.3,0-.5,0-.8,0-.3,0-.6,0-.8,0l-2.4-.2c-.4-.1-.6,0-.8.1v2.5c.2.4.3.8.5,1.1h0ZM165.9,30.8h.1c0-.4,0-.4-.1,0ZM168.3,31.5c0-.2.1-.4.1-.5-.1,0-.2.2-.1.5ZM169.2,22.6c0,.2.1.2.2-.2,0-.3-.1-.2-.2.2ZM169.2,23.1s0,0,0,.1c0,.2,0,.2,0-.1ZM179.4,35.7c.2,0,.2,0,.1-.2,0-.3-.1-.2-.1.2Z"/>
      <path class="cls-3" d="M194.3,35.8c-2.1-1.5-4.1-2.9-6.2-4.4.2-.3.3-.5.3-.6.9-.2,1.8,0,2.7.8.4-1.2.7-2.5.8-3.8,0-.7.1-1.4.1-2.1-1.1.5-2.2.9-3.3,1.2-.2.3-.5.5-.9.5-.3.2-.6.1-.8-.2l-.5-4.1c0-.3.2-.5.5-.5l3.1-.5c0,0,.3-.1.6-.2.4,0,.6,0,.7,0l1.2-.3.6-4.9c.2-.6.2-1.3.1-1.9-.9,0-1.7,0-2.6.2-.3,0-.5.1-.8.1s-.6,0-.9,0h-1.2c0-.6.1-1.1.6-1.4.3,0,.5,0,.6-.1.6-.1,1.3-.2,2-.2.7,0,1.4,0,2,0l.4-.2c.2-1.5.4-3,.8-4.4-.1-.4,0-.8.5-1,.8,0,1.6-.2,2.4-.4.4,0,.8,0,1.1-.2s.8-.3,1.2-.1c.4,0,.8,0,1.1.3,0,1.5-.1,3-.4,4.4-.2.7,0,1.1.4,1.2.2-.1.5-.2.7-.2s.6,0,.8,0h.3c.3,0,.4,0,.4.3.3.3.3.7,0,1-.3.1-.5.2-.6.2h-.6c-.1,0-.4,0-.8-.1-.4,0-.8.1-1.1.4l-.4,2.6c-.3,1.1-.5,2.2-.6,3.3.3,0,.5,0,.7-.2s.4-.2.7-.2h.6c.5-.3.9-.2,1.4,0,.3-.2.5-.2.6,0,.3.3.5.3.6,0,0,.5-.2.8-.7.9-.4,0-.7,0-.8.4l-3.5,1.5-.3,2.8c-.5,3.3-1,6.6-1.4,9.9,0,.5-.3.8-.8.8-.6-.2-1.2-.4-1.9-.6h0ZM188.7,25.8c-.1,0-.2.1-.2.3.2,0,.3,0,.2-.3ZM191.8,24.9c-.2,0-.4.1-.4.3.3,0,.4-.1.4-.3ZM194.6,18.4h.1c0-.5,0-.5-.1,0ZM195.6,15.4c.3,0,.4-.3.3-.8-.3.1-.4.4-.3.8ZM196.1,18.8c0,0-.1.2-.1.3,0,.1.1,0,.1-.3ZM197.5,18c0,.1-.1.3-.1.5.1.2.2,0,.1-.5ZM197.6,16.9v-.3c0-.1,0,0,0,.3ZM197.9,14.6c-.2.4-.3.8-.1,1.3v-1.3ZM218.8,44.1h-1.5c-.4,0-.6,0-.6,0l-2.8-.2c-.6-.2-.8-.6-.5-1.3.2-1.4.3-2.8.3-4.2.2-1.7.4-3.4.6-5.1l-2.4,2.2c-.9.6-1.8,1.2-2.8,1.7-1.3,1-2.7,1.9-4.2,2.7-.5,0-.6-.3-.4-.8.2-.2.3-.4.5-.5.3-.3.5-.6.6-1,.5-.4.9-.9,1.2-1.5.3-.2.5-.5.6-.8l3.6-6c.3,0,.4-.2.5-.4h-4.6c-.3-.4-.4-.8-.2-1.4.3-.1.7-.2,1-.3h3.7c.9.1,1.8.2,2.7.2h.9c.2-.3.3-.6.3-1,0-1.2.1-2.4.3-3.7.3-.7.3-1.4.3-2.2.2,0,.3,0,.3-.3.1-.3.4-.3.7,0,1.1-.1,2.1,0,3.1.5.8,0,1.5.3,2.2.6.3,0,.5,0,.6.3v4.6c-.2.6-.2,1,0,1.4.1,0,.4,0,.9,0h1c.5,0,.9.1,1.4.1h1.4c.4.2.7.2.8.2s.3.2.4.7l-.6,1c-.3.1-.6.1-.8,0-.5-.2-1-.1-1.5,0l3.7,7.3c-.9,1-1.8,2-2.8,3-.2.2-.4.3-.6.5-.2,0-.4,0-.6,0-1.5-2.5-2.6-5.2-3.5-8.1-.2.9-.3,1.8-.3,2.7-.4,2-.6,4.1-.8,6.2.2.6.1,1.3-.2,1.9,0,.2,0,.4,0,.6,0,.4-.3.5-.6.3-.3-.2-.6-.2-1,.2,0,0,0-.1-.3-.3h0ZM226.3,10.5c0-.5,0-.9.3-1.2,0-1.4.3-2.8.6-4.2-.1-.3-.4-.4-.8-.2-.4-.1-.7-.1-1,0-1.6,0-3.3,0-4.9-.1-.3,0-.4,0-.6-.2-.3,0-.5,0-.8,0-.3,0-.5,0-.6,0-.6-.1-1.2-.2-1.9-.1-.2-.1-.3-.1-.4,0h-1.7c-.2,0-.4,0-.6-.1-.8,0-1.6,0-2.4-.1l-1.6,6.4c-.2.4-.4.5-.8.3-.9,0-1.8,0-2.6-.2-.4-.1-.7-.2-1-.2s-.4-.3-.4-.7l.8-5.8c0-.8.5-1.2,1.2-1.2.7-.2,1.4-.2,2.1-.1,0,0,.3,0,.7,0s.6,0,.8,0h3c.8.1,1.6.2,2.4.2,1.1,0,2.2.1,3.3.3.4,0,.7,0,.8,0,.6,0,1.2,0,1.7,0h1.7c0,0,.3,0,.7,0s.6,0,.8,0h1.2c2,0,3.9,0,5.8.4.3,0,.7,0,1,.3.4.1.7.4.9.7-.1.7-.5,1.5-1.2,2.2-1.6,1.3-3.1,2.7-4.6,4.1-.2-.1-.5-.2-.8-.2-.5,0-.7-.2-.8-.6h0ZM209.2,36.4c.4,0,.7-.2,1-.6-.4,0-.8.2-1,.6ZM211.9,18c-.6-1-1.4-2-2.2-2.8-.3-.3-.3-.6,0-.9,1.1-.7,2.1-1.6,3-2.6.4-.3.6-.5.7-.5.6-.4,1.2-.9,1.8-1.4.3-.3.6-.4,1-.4s.4,0,.5.3c.3.5.3,1-.1,1.5l-4,7.1-.6-.2h0ZM217.7,33.1h.2c0,.1,0-1.2,0-1.2l-.3,1.2h0ZM218.5,30.6c0,.6,0,1.2.1,1.7l.3-2.4c0-.3,0-.6-.2-.8-.2.4-.2.9-.2,1.4h0ZM220.2,39.1c.2,0,.3-.1.2-.5-.2,0-.2.3-.2.5ZM223.1,18.6l-1.4-3.4c-.1-.9.3-1.6,1.3-2.1.2-.1.5-.2.8-.2.4.1.7.4.8.9,1,1.5,2,2.9,3,4.4.4.5.8,1,1.2,1.5,0,1-.4,1.9-1.1,2.5-.8.6-1.3,1.4-1.8,2.2-.5,0-.8-.4-.8-1-.8-1.5-1.5-3.1-2.1-4.8h0ZM224.9,33.2c0,.3,0,.5.3.6,0-.3,0-.5-.3-.6Z"/>
      <path class="cls-6" d="M233.8,21.1c.1-.4.2-.7.2-1.1.2-1.2.2-2.3.2-3.5.1-.5,0-1.1,0-1.6,0-.3,0-.5.2-.7l2.8-.2c.3-.1.6-.1.9,0l3.1-.3c.3,0,.6,0,.9,0,1.3-.2,2.6-.3,3.9-.4,0-.3,0-.5.1-.7v-3.3c0-.2-.3-.3-.8-.2-.5,0-.9,0-1.3,0-.4,0-.9,0-1.3,0s-.4,0-.7,0c-.3,0-.4-.2-.4-.4s0-.3.3-.4h2.6c.2,0,.5-.1.9-.1s.6,0,.8,0c.1-.8.2-1.6.2-2.5-.2-.6-.2-1.2,0-1.9.5-.5,1.1-.7,1.9-.5.3,0,.6,0,.9.2.4,0,.6,0,.7,0l1.7.4c.6-.1,1.1,0,1.6.3l-.2,2.8c0,.4,0,.7.2,1,0,0,.2,0,.5,0,.4,0,.8,0,1.2-.1.9-.2,1.6,0,1.9.8-.3.4-.7.4-1.3.2-.2-.1-.4-.1-.7-.1-.3,0-.6,0-.9,0s-.6,0-.9,0v1.6c-.1.7-.1,1.4,0,2.2h3.1c0,0,.1-.2.1-.2.3,0,.7-.1,1.1-.1h1.1c.4,0,.7-.1,1.1-.1s.7,0,1.1,0c0,0,.3,0,.6,0s.6,0,.7,0h2c.2,0,.4-.1.6-.2.9,0,1.8,0,2.6.2.2.4.2.8,0,1.3-.4.4-.7.9-1,1.5-1,.9-1.9,1.9-2.8,2.9-.2.2-.5.4-.8.4,0,0,0,.1-.2.2-.2.1-.4,0-.5-.2-.1-1.5,0-3.1.6-4.6,0-.4,0-.5-.4-.5-.2,0-.4.1-.6.1-1.1.1-2.3.1-3.4.1-.5.2-1,.3-1.5.3-.9,0-1.8,0-2.6.1-.4,0-.7,0-1.1.1l-1.9.3c-.2.1-.5,0-.8-.1-.4,0-.7,0-1.1.1-.4-.1-.9,0-1.5.1-.4,0-.6,0-.7.3-.2.4-.4.4-.6,0-.1-.2-.2-.3-.4-.3l-2.2.2c-.3,0-.7,0-1.1,0-.2,0-.4,0-.5.1-.9,0-1.8.1-2.7.2-.3,0-.5.1-.6.4v2c-.3.9-.5,1.8-.5,2.8,0,.6-.1,1-.5,1.2-1,.1-1.9.4-2.9.7-.2.1-.5.2-.7.2-.4,0-.6-.2-.5-.7h0ZM236.2,15.9c-.2.4-.2.8-.2,1.3.2-.2.3-.4.3-.7.1-.2,0-.4,0-.5h0ZM235.9,17.4v.5c0-.2,0-.4,0-.5ZM236.2,20.7h.2c0-.2-.1-.2-.2,0ZM255.4,44.4h-.3c0,.1-2-.8-2-.8-.3-.1-.5-.2-.6-.2-.6-.5-1.3-.8-2.1-1-.3-.2-.6-.4-.9-.5-.3-.1-.3-.4,0-.8.7-.1,1.3,0,1.9.6,0,.1.2.2.5.2l.2-1.8c0-.3,0-.5.1-.8,0-2.1,0-4.2.2-6.2-.2,0-.4,0-.6.2s-.3.3-.6.2c-.2,0-.4,0-.7,0-.3,0-.5.1-.6.1-.9.2-1.8.4-2.7.6-.1.1-.3.2-.5.2h-.3c-.2-.3-.2-.6-.1-.9,0-.2.1-.4.2-.6.6-1.2,1.2-2.5,1.9-3.8.2-.4,0-.5-.3-.6-.3,0-.6,0-.9,0h-4.8c-.2-.2-.5-.2-.9,0-.6.1-1.2,0-1.7-.3-.2-.3-.1-.6.1-.9.4-.5.7-1,.9-1.6.3-.4.4-.9.5-1.3l2.6-5.4c0-.2,0-.4.2-.6.4-.8.7-1.6,1-2.4.1-.4.4-.6.7-.7,1.7.2,3.2.7,4.7,1.5.8.1,1.4.4,1.9.7-.3.7-.7,1.3-1.3,1.9-.9,1.5-1.8,3-2.9,4.5-.2.2-.3.4-.5.6-.6.9-1.2,1.8-1.8,2.8-.2.2-.1.4.1.4h2.6c.5-.9.9-1.7,1.5-2.6,1.8,0,3.6.3,5.4.9-.2.8-.5,1.6-1.1,2.3-.5,1-1,2-1.6,3-.2.4-.2.5.2.3l5.2-1.4c.3-.1.5-.2.6-.2h.3c-.3-.6-.7-1.1-1.2-1.5,0-.3.1-.5.4-.6.2,0,.5,0,.7,0,1.5.1,2.8.5,4.2,1.1.2,0,.4,0,.5.2.4,0,.8.1,1.2.4.1.6,0,1.2-.4,1.8-.3.6-.6,1.1-.9,1.6,0,.3-.2.6-.5.6l-2.2-2c-.6-.3-1.3-.3-2.1,0l-.6,5.8c0,.5,0,1-.1,1.5,0,.2,0,.4-.1.6l-.5,5.2c0,.4-.4.6-.9.6l-.6-.2c-.2-.2-.5-.3-.8-.4h0ZM242.2,42.6c-.1,0-.2,0-.2-.2,0-.5-.2-1-.5-1.4-.2-.3-.3-.7-.3-1.1,0-1.1.5-1.7,1.8-2,.3-.3.6-.4.8-.4.9-.7,2-1.2,3-1.6.2-.1.4-.1.5,0,.1-.2.3-.3.5-.2.4.4.3.8-.2,1.3-1.5,2.1-3,4.2-4.4,6.3-.1.1-.4.2-.6.2-.4,0-.5-.3-.4-.9ZM243.1,23.1c-.1,0-.2,0-.2.3.1,0,.2,0,.2-.3ZM244.4,19.9c-.1,0-.2,0-.2.2,0,.3,0,.2.2-.2ZM244.9,18.4c-.4.3-.6.8-.6,1.4l.6-1.4ZM244.4,22.1s0,0,0,.2c.1,0,.2,0,0-.2ZM245.2,27.2c-.1,0-.2.1-.2.2.2,0,.3,0,.2-.2ZM245.3,24.5c0,.3,0,.3.2,0,.3-.3.3-.5,0-.5,0,.2-.1.4-.2.5ZM245.6,25.7c-.1,0-.2,0-.2.1,0,.2,0,.2.2-.1ZM247.1,19c-.1,0-.2.2-.2.4l.2-.4ZM247.4,23.3s0,0,0,0c0,.1,0,.1,0,0ZM248.1,22.4c-.1,0-.2,0-.2.2,0,.3,0,.3.2-.2ZM250.6,5.3c0,.2,0,.3.2.3.1-.2,0-.3-.2-.3ZM251,11.4v.9c.1,0,.2-.5.2-.5,0-.2,0-.4-.2-.3ZM252,10.7c-.1,0-.2,0-.2.1,0,.3.1.3.2-.1ZM252.6,30.4c-.1,0-.2.2-.2.3.1,0,.2-.1.2-.3ZM253,29.6c0,0-.1,0-.1.2-.1.1-.2.3-.2.5.2-.2.3-.4.3-.6ZM253.1,37.3v.2c.1,0,.2-.9.2-.9,0-.2,0-.4-.1-.5v1.3ZM253.5,28.7l-.4.6c0,.2.1.1.3-.2.2-.2.2-.3.1-.4h0ZM253.3,42.2c.1.3.2.3.2-.2,0-.2-.1-.1-.2.2ZM254.3,27c-.1.1-.2.3-.2.5.3-.2.4-.4.2-.5ZM254.5,26.3c0,0,0,.1,0,.2,0,.2,0,.2.3-.3-.2-.2-.3-.2-.2.1h0ZM254.8,43.1h.1v-2c.2-.3.1-.5,0-.4,0,.7,0,1.5,0,2.3h0ZM255,40.5v-.2c0-.2,0-.2,0,.2ZM255.2,32.5l.2,2.1v-1.7c0-.3,0-.5.2-.7-.3,0-.4,0-.4.3h0ZM255.9,40.2v-1c0,.3,0,.7,0,1ZM257.2,37.4v.9c0-.2,0-.5,0-.9ZM257.2,32.6c.1,0,.1,0,0-.1,0-.2,0-.2,0,.1ZM259.7,28.3c.1.2.3.3.4.3-.1-.2-.2-.3-.4-.3ZM261.1,38.5c0-.2,0-.4,0-.6-.1-.3-.2-.6-.2-.9,0-1,.6-1.5,1.7-1.5.2-.1.5-.2.7-.2.4.6.6,1.2.9,1.8.5.8.9,1.7,1.3,2.6.4.6.2,1.1-.4,1.4-.8.6-1.6,1.1-2.5,1.6-.2-.1-.4-.2-.5-.3l-1-4h0ZM264.5,13.7c-.1,0-.2.1-.2.2,0,.1.1,0,.2-.2Z"/>
      <path class="cls-4" d="M269.5,39.2v-1c.3-.6.4-1.2.4-1.8.5-1.4.8-2.9.9-4.5,0-.4,0-.8.2-1.1,0-1.4.3-2.8.6-4.3,0-.7.2-1.3.4-1.9,0-.3,0-.5,0-.7.2-.5.3-1.1.4-1.6,0-1.1.3-1.9,1.1-2.4.3-.2.8-.4,1.3-.4.3,0,.6-.1.9-.1s.6,0,.9,0h.4c.2-.1.5-.2.9-.2s.6,0,.7,0h.8c.2-.1.5-.1.7-.2l1.7-.2c.3,0,.6-.1.7-.1h.2c.5-.2,1-.2,1.7-.2.5,0,1.1,0,1.7,0h.3c.6,1,.6,2.1,0,3.3-.2,1-.5,2-.8,3-.1,1.5-.7,2.7-1.7,3.7-.6,0-1.2,0-1.9.5-1.5.4-3.1.8-4.6,1.2-.8,0-1.4.3-1.9.9-.1,1.8-.5,3.5-1,5.1,0,.3,0,.6.1.9,1.7-.5,3.4-1.2,5.1-1.8l-.5-1.5c-.3-.6-.3-1,0-1.4.9.3,1.7.8,2.5,1.3.7.5,1.3,1.1,1.9,1.7.2.3.4.6.5.9-.6.9-1.3,1.6-2.2,2.3-.1.3-.4.4-.7.4-.3.2-.6,0-.7-.3.2-.3.1-.7-.1-1,0-.2,0-.4-.2-.6,0-.3-.2-.5-.5-.6-.2,0-.5,0-.6.1-2.9,1-5.7,2-8.6,3.2-.4.2-.6.3-.8.3-.4,0-.5-.3-.4-.7h0ZM269.8,18.5l.6-1.5c0-.3,0-.6.2-.9,0-.2.1-.4.2-.6l1.1-3.4c1.1-3.1,2.1-6.2,3-9.3,0-.4,0-.7.4-1,.5-.4,1-.4,1.5,0,.5.4,1,.7,1.5.8,1,.2,1.8.7,2.4,1.5-.3,1-.8,2-1.4,2.9l2.2.7c1.4.4,2.6.9,3.8,1.5,1.4.2,2.8.7,4,1.5.1.1.4.2.7.2v.4c-.6,1.3-1.3,2.6-2.1,3.9-.5.6-1,.6-1.5,0l-7.8-7.1c-1.5,2.4-3.1,4.6-4.8,6.9-1,1.3-2,2.5-3.3,3.5-.2.2-.4.4-.6.4-.1-.1-.2-.3-.1-.6h0ZM271.3,17c-.2,0-.3.1-.3.4.2,0,.3-.2.3-.4ZM271.6,36.4c0,0-.1.2-.1.4.3-.1.3-.3.1-.4ZM272.1,29.9c-.2.2-.2.5-.2.7.2-.2.2-.4.2-.7ZM272.8,15.6l-.5.2c0,.3.2.3.5-.2ZM273.5,21.3c.1,0,.2-.1.1-.4v.4ZM280.4,24.1c0,.2,0,.3-.2.4-1.2.5-2.4,1-3.5,1.5l-.9,3.2c0,.3.4.3.8,0,1.3-.3,2.6-.7,4-1.1.3-1,.5-2,.6-3,.1-.6.2-1.2.1-1.8.3-1.2.6-2.4.7-3.6-.8,0-1.5,0-2.3,0s-1.5.2-2.3.5c-.1.2-.2.3-.2.4,0,1.3-.2,2.6-.6,3.9.5,0,1-.1,1.5-.4.5-.3,1-.4,1.5-.4h0c.2,0,.4.1.5.4h0ZM276.3,3c.2,0,.3,0,.3-.2-.2,0-.3,0-.3.2ZM277.9,12.7c0-.2,0-.3.2-.4.3,0,.7,0,1,0,.2.3.5.4.7.4l2.3,1c.7.4.8,1,.1,1.7-.9.6-1.8,1.2-2.6,1.8-.3-.2-.6-.6-.7-1-.6-1.1-.9-2.2-1-3.5ZM278.1,3.8c.2.2.5.3.9.3-.2-.2-.5-.3-.9-.3ZM279.5,4.9c-.2.1-.4.3-.3.7.2-.2.3-.5.3-.7ZM281.7,26.7c0,.1,0,.4,0,.7.2-.2.3-.5,0-.7ZM281.9,25.6c-.2.2-.3.4-.2.8.2-.2.3-.5.2-.8ZM285.1,10.2s.2,0,.4,0h-.4ZM289,12.1c0,0,.1-.1.1-.2,0-.2-.1-.2-.1.2ZM290.1,18.4c0-.2,0-.3.1-.3,0-.4,0-.7.2-1,.2-.9.4-1.8.8-2.8.3-1.1.7-2.1,1.2-3.1.6,0,1.2,0,1.8-.2,0,0,.3,0,.7,0s.6,0,.7,0,.4,0,.7,0h2.1c.3,0,.6,0,.7,0,.2-.1.5-.2.7-.2s.5,0,.8,0c.4-.1.8-.2,1.2-.2.3,0,.7-.1,1-.1s.7,0,1,0l6.2-.6c1.1,0,2.2-.1,3.4-.1h.9c0,.2.2.2.4,0,.5.9.2,1.7-.7,2.6l-2.7,2.8c-.2.2-.5.3-.8.1-.3-.1-.4-.4-.4-.6-.3-.5-.5-1.1-.7-1.7-.2-.3-.2-.7-.2-1.1s-.2-.7-.6-.9c-.4,0-.7,0-1,.1s-.6.1-.9.2c-.1,0-.3,0-.6,0-1,0-2.1.1-3.1.2-.4.1-.8.2-1.3.2h-1.6c-.1,0-.4,0-.8.2-.4,0-.7,0-.7,0-.5,0-1,0-1.5.2-.4,0-.7,0-1,.1-.3.8-.5,1.7-.5,2.6-.2.2-.2.6-.2,1.1-.2.3-.3.7-.4,1.1-.2.5-.6.8-1,1-.6,0-1.2.2-1.7.4-.4-.2-.8-.1-1.2.2-.3.2-.6.4-.9.4v-.4c-.1,0,0,0,0,0ZM292,14.4c-.2.3-.3.7-.4,1.1.2-.3.4-.7.4-1.1ZM292.2,13.6c0,0-.1,0-.1.1s0,0,.1-.1ZM294.7,15.1c0,0-.1.1-.1.3.1,0,.2-.1.1-.3ZM296.8,41.9c.2-1.6.2-3.1.2-4.7,0-.2,0-.3.2-.4v-3.9c0-1,0-1.9.1-2.9.1-1.5.1-3.1,0-4.6,0-1.2-.1-2.4-.1-3.6,0-1,0-2-.1-3,0-.3,0-.6.2-.7.5,0,1.1,0,1.6-.2.5,0,1,.1,1.5.1.7,0,1.4.1,2,0,.5,0,1,0,1.6,0,.7,0,1.2,0,1.7.1h3.4l.8.8c.3,2.3.5,4.5.6,6.7l-1.5.5c-2.1,0-4.1.3-6,.7v5.1c0,.4,0,.6.1.7.3-.1.7-.1,1.1,0,.3,0,.5,0,.6,0h.6c.3,0,.6,0,1,0,.3,0,.6,0,1,0h1.7c.7-.1,1.4-.1,2.2-.2.3,0,.8,0,1.3,0,.5,0,.9.3,1.1.7.2,2.2.3,4.5.2,6.8l-.4,1.2c-.2.4-.4.6-.7.6-1.3,0-2.6,0-4,.3-.3,0-.5,0-.7.2-.3-.1-.7-.1-1,0-.3,0-.7.2-1,.2s-.7,0-1,0l-2.5.2c-.4,0-.6,0-.6,0l-2,.3c-.3,0-.6,0-.8.1-.4,0-.7.1-.9.1-.5.1-1,0-1.2-.3,0-.4,0-.8-.2-1h0ZM298.2,41.1c0,.2,0,.3.2.4,0-.3,0-.5-.2-.4ZM298.2,41.9c.1,0,.2,0,.1-.1,0-.3-.1-.2-.1.1ZM299.7,8.8l.2-.6c-.3-.7-.5-1.3-.7-2-.3-.7-.5-1.4-.4-2.2-.3-.2-.4-.4-.2-.6,1.9.2,3.7.9,5.4,2,.3.2.6.3.9.4,0,.2,0,.5,0,.7-.9,1.2-2,2.3-3.1,3.3-.7,0-1.3-.4-1.9-1.1h0ZM298.6,35.4c0,.2,0,.3.1.4,0-1.1,0-2.2-.2-3.4,0,1,0,2,.1,3h0ZM301.8,40.3v.2c.2.2.2.2,0-.2ZM301.9,22.7h0c0,.1,0-1.2,0-1.2v1.2c0,0,0,0,0,0ZM302.8,25.9h.4c0,0,.2-.1.6-.1l1-.2c.7,0,1-.2,1.2-.8,0-1.4,0-2.9,0-4.4,0-.5,0-.9-.2-1.3h-3.1c0,1.4,0,2.7,0,4-.1,1-.1,1.9,0,2.8ZM303.1,41.2l.2.2,4.5-.3c.2-.4.4-.8.3-1.4.2-2,.3-4,.2-5.9h-3c-.4,0-.8,0-1.2.2-.2,0-.5,0-.7,0s-.4.1-.5.5c-.1,2.2,0,4.4.2,6.5h0ZM309.1,34l-.2,3.5c0,.4,0,.7.1.9.2-1.4.3-2.9.2-4.4-.1,0-.2,0-.2,0ZM310.3,38.3c.1-.1.2-.3.1-.6-.1.2-.2.4-.1.6ZM311.8,34c0,.2.2.5.4.7.1,0,.2-.2.1-.6-.2-.3-.4-.3-.6-.1h0ZM313,39.3c-.1.1-.1.3,0,.6v-.6ZM313,36.1c.2,0,.3-.1.2-.6-.2,0-.2.2-.2.6Z"/>
      <g>
        <path class="cls-7" d="M90.7,51.4h6.8v1.2h-5.3v3.7h4.4v1.3h-4.4v4.3h5.5v1.3h-6.9v-11.7h0Z"/>
        <path class="cls-7" d="M99.9,54.4h1.2v1.2h.2c.8-.8,1.7-1.5,2.9-1.5,1.8,0,2.7,1.2,2.7,3.4v5.5h-1.5v-5.3c0-1.6-.5-2.3-1.7-2.3s-1.5.5-2.4,1.3v6.3h-1.5v-8.7h0Z"/>
        <path class="cls-7" d="M108.4,54.4h1.5l1.6,5c.3.8.5,1.7.8,2.6h0c.3-.8.5-1.7.8-2.6l1.7-5h1.4l-3.1,8.7h-1.7l-3.1-8.7h0Z"/>
        <path class="cls-7" d="M117.8,51.7c0-.6.4-.9,1-.9s1,.3,1,.9-.4.9-1,.9-1-.4-1-.9ZM118.1,54.4h1.5v8.7h-1.5v-8.7Z"/>
        <path class="cls-7" d="M122.4,54.4h1.2v1.6h.2c.6-1.1,1.5-1.8,2.5-1.8s.7,0,.9.2l-.3,1.3c-.3-.1-.5-.1-.8-.1-.7,0-1.6.5-2.2,2v5.6h-1.5v-8.7h0Z"/>
        <path class="cls-7" d="M127.8,58.8c0-2.9,1.9-4.6,4-4.6s4,1.7,4,4.6-1.9,4.5-4,4.5-4-1.7-4-4.5ZM134.4,58.8c0-2-1-3.4-2.5-3.4s-2.5,1.4-2.5,3.4,1,3.3,2.5,3.3,2.5-1.3,2.5-3.3Z"/>
        <path class="cls-7" d="M137.8,54.4h1.2v1.2h.2c.7-.8,1.5-1.4,2.5-1.4,1.6,0,2.2,1.1,2.2,3.1v5.8h-1.5v-5.6c0-1.4-.3-2-1.3-2s-1.2.4-1.8,1.3v6.3h-1.5v-8.7ZM145.3,54.4h1v1.1h.2c.3-.8.8-1.3,1.6-1.3s1.1.5,1.2,1.4c.3-.8.8-1.4,1.5-1.4s1.5.8,1.5,2.3v6.6h-1.3v-6.3c0-.9-.3-1.3-.7-1.3s-.7.4-1,1.2v6.5h-1.1v-6.3c0-.8-.2-1.3-.7-1.3s-.8.4-1,1.2v6.5h-1.3v-8.7h0Z"/>
        <path class="cls-7" d="M153.5,58.8c0-2.8,1.9-4.6,3.9-4.6s3.5,1.6,3.5,4.1,0,.6,0,.8h-5.9c.1,1.9,1.2,3,2.9,3s1.5-.3,2.2-.7l.5,1c-.8.5-1.7.9-2.9.9-2.3,0-4.2-1.7-4.2-4.5h0ZM159.6,58.1c0-1.8-.8-2.7-2.2-2.7s-2.3,1-2.5,2.7h4.7Z"/>
        <path class="cls-7" d="M163,54.4h1.2v1.2h.2c.8-.8,1.7-1.5,2.9-1.5,1.8,0,2.7,1.2,2.7,3.4v5.5h-1.5v-5.3c0-1.6-.5-2.3-1.6-2.3s-1.5.5-2.4,1.3v6.3h-1.5v-8.7h0Z"/>
        <path class="cls-7" d="M173.1,60.4v-4.8h-1.3v-1.1h1.4c0,0,.2-2.5.2-2.5h1.2v2.4h2.4v1.2h-2.4v4.8c0,1.1.3,1.7,1.3,1.7s.7-.1,1-.2l.3,1.1c-.5.2-1.1.3-1.6.3-1.9,0-2.5-1.2-2.5-2.9h0Z"/>
        <path class="cls-7" d="M177.9,60.9c0-1.9,1.6-2.8,5.4-3.2,0-1.1-.4-2.2-1.8-2.2s-1.9.5-2.6.9l-.6-1c.8-.5,2-1.1,3.4-1.1,2.1,0,3,1.4,3,3.6v5.3h-1.2v-1h-.2c-.8.7-1.8,1.2-2.9,1.2s-2.5-.9-2.5-2.5h0ZM183.3,61v-2.4c-2.9.3-3.9,1.1-3.9,2.2s.7,1.4,1.5,1.4,1.5-.4,2.4-1.2h0Z"/>
        <path class="cls-7" d="M187.5,61.4v-11h1.5v11.1c0,.5.2.6.4.6s.1,0,.3,0l.2,1.1c-.2,0-.5.1-.9.1-1.1,0-1.5-.7-1.5-1.9h0Z"/>
        <path class="cls-7" d="M195.8,51.4h2.9c3.6,0,5.5,2.1,5.5,5.8s-1.9,5.9-5.5,5.9h-3v-11.7h0ZM198.6,61.9c2.8,0,4.1-1.7,4.1-4.7s-1.4-4.6-4.1-4.6h-1.3v9.3h1.3Z"/>
        <path class="cls-7" d="M206.4,51.7c0-.6.4-.9,1-.9s1,.3,1,.9-.4.9-1,.9-1-.4-1-.9ZM206.6,54.4h1.5v8.7h-1.5v-8.7Z"/>
        <path class="cls-7" d="M210.1,62.1l.7-1c.8.6,1.5,1,2.6,1s1.7-.6,1.7-1.4-1-1.3-2-1.7c-1.2-.5-2.6-1-2.6-2.5s1.1-2.5,3-2.5,2,.5,2.7,1l-.7.9c-.6-.5-1.2-.8-2-.8s-1.6.6-1.6,1.2.9,1.1,1.9,1.5c1.3.5,2.7,1,2.7,2.6s-1.1,2.6-3.2,2.6-2.4-.5-3.2-1.2h0Z"/>
        <path class="cls-7" d="M217.9,58.8c0-2.9,2-4.6,4.2-4.6s1.9.5,2.5,1l-.8,1c-.5-.5-1-.8-1.7-.8-1.6,0-2.7,1.4-2.7,3.4s1.1,3.3,2.7,3.3,1.5-.4,2.1-.9l.6,1c-.8.7-1.8,1.1-2.8,1.1-2.3,0-4.1-1.7-4.1-4.5h0Z"/>
        <path class="cls-7" d="M225.6,58.8c0-2.9,1.9-4.6,4-4.6s4,1.7,4,4.6-1.9,4.5-4,4.5-4-1.7-4-4.5ZM232.2,58.8c0-2-1-3.4-2.5-3.4s-2.5,1.4-2.5,3.4,1,3.3,2.5,3.3,2.5-1.3,2.5-3.3Z"/>
        <path class="cls-7" d="M234.6,54.4h1.5l1.6,5c.3.8.5,1.7.8,2.6h0c.3-.8.5-1.7.8-2.6l1.6-5h1.4l-3.1,8.7h-1.7l-3.1-8.7h0Z"/>
        <path class="cls-7" d="M243.5,58.8c0-2.8,1.9-4.6,3.9-4.6s3.5,1.6,3.5,4.1,0,.6,0,.8h-5.9c.1,1.9,1.2,3,2.9,3s1.5-.3,2.2-.7l.5,1c-.8.5-1.7.9-2.9.9-2.3,0-4.2-1.7-4.2-4.5h0ZM249.6,58.1c0-1.8-.8-2.7-2.2-2.7s-2.3,1-2.5,2.7h4.7Z"/>
        <path class="cls-7" d="M253,54.4h1.2v1.6h.2c.6-1.1,1.5-1.8,2.5-1.8s.7,0,.9.2l-.3,1.3c-.3-.1-.5-.1-.9-.1-.7,0-1.6.5-2.2,2v5.6h-1.5v-8.7h0Z"/>
        <path class="cls-7" d="M258.8,66.7l.3-1.2c.2,0,.4.1.7.1,1,0,1.6-.8,2-1.9l.2-.7-3.5-8.7h1.5l1.8,4.8c.3.8.6,1.7.8,2.4h0c.2-.8.5-1.7.7-2.4l1.5-4.8h1.4l-3.3,9.4c-.6,1.7-1.5,3-3.2,3s-.8,0-1-.2h0Z"/>
        <path class="cls-7" d="M271.1,57.3c0-3.8,2.2-6.1,5.2-6.1s2.5.7,3.2,1.5l-.8,1c-.6-.7-1.4-1.1-2.4-1.1-2.2,0-3.7,1.8-3.7,4.8s1.4,4.8,3.6,4.8,2-.5,2.7-1.3l.8.9c-.9,1.1-2.1,1.7-3.6,1.7-2.9,0-5.1-2.3-5.1-6.1h0Z"/>
        <path class="cls-7" d="M281.2,58.8c0-2.8,1.9-4.6,3.9-4.6s3.5,1.6,3.5,4.1,0,.6,0,.8h-5.9c.1,1.9,1.2,3,2.9,3s1.5-.3,2.2-.7l.5,1c-.8.5-1.7.9-2.9.9-2.3,0-4.2-1.7-4.2-4.5h0ZM287.3,58.1c0-1.8-.8-2.7-2.2-2.7s-2.3,1-2.5,2.7h4.7Z"/>
        <path class="cls-7" d="M290.7,54.4h1.2v1.2h.2c.8-.8,1.7-1.5,2.9-1.5,1.8,0,2.7,1.2,2.7,3.4v5.5h-1.5v-5.3c0-1.6-.5-2.3-1.6-2.3s-1.5.5-2.4,1.3v6.3h-1.5v-8.7h0Z"/>
        <path class="cls-7" d="M300.7,60.4v-4.8h-1.3v-1.1h1.4c0,0,.2-2.5.2-2.5h1.2v2.4h2.4v1.2h-2.4v4.8c0,1.1.3,1.7,1.3,1.7s.7-.1,1-.2l.3,1.1c-.5.2-1.1.3-1.6.3-1.9,0-2.5-1.2-2.5-2.9h0Z"/>
        <path class="cls-7" d="M305.6,58.8c0-2.8,1.9-4.6,3.9-4.6s3.5,1.6,3.5,4.1,0,.6,0,.8h-5.9c.1,1.9,1.2,3,2.9,3s1.5-.3,2.2-.7l.5,1c-.8.5-1.7.9-2.9.9-2.3,0-4.2-1.7-4.2-4.5h0ZM311.7,58.1c0-1.8-.8-2.7-2.2-2.7s-2.3,1-2.5,2.7h4.7Z"/>
        <path class="cls-7" d="M315.1,54.4h1.2v1.6h.2c.6-1.1,1.5-1.8,2.5-1.8s.7,0,.9.2l-.3,1.3c-.3-.1-.5-.1-.9-.1-.7,0-1.6.5-2.2,2v5.6h-1.5v-8.7h0Z"/>
      </g>
    </g>
  </g>
</svg>