<?xml version="1.0" encoding="utf-8"?>
<!-- Generator: Adobe Illustrator 28.2.0, SVG Export Plug-In . SVG Version: 6.00 Build 0)  -->
<svg version="1.1" id="_圖層_2" xmlns="http://www.w3.org/2000/svg" xmlns:xlink="http://www.w3.org/1999/xlink" x="0px" y="0px"
	 width="319.9px" height="73.3px" viewBox="0 0 319.9 73.3" style="enable-background:new 0 0 319.9 73.3;" xml:space="preserve">
<style type="text/css">
	.st0{fill:#FFFFFF;}
	.st1{fill:none;stroke:#FFFFFF;stroke-width:3;}
	.st2{fill:#62C332;}
	.st3{fill:#00A4F8;}
	.st4{fill:#BEF286;}
	.st5{fill:#F9CC3E;}
	.st6{fill:#A4FBFF;}
</style>
<g id="logo">
	<rect x="6.3" y="3.2" class="st0" width="75.5" height="65.4"/>
	<g>
		<g>
			<path class="st1" d="M39.4,11.5l-0.2,0.3l-0.7,1l0,0l-0.2,0.3l0,0L38,13.5l0,0L37.7,14l0,0l-0.3,0.4l-0.7,0.9L36.2,16L35,17.6
				l-0.3,0.3l0,0l-0.2,0.3l0,0l-0.3,0.5L33,20.2l-0.2,0.3l0,0l-0.7,0.9l-0.7,0.9l-0.3,0.5l0,0l-0.2,0.3l-2.1,2.8l0,0l-0.6,0.8l0,0
				l-0.6,0.8l0,0L27,28.4l0,0c0,0.1-0.8,1.2-0.8,1.2L26,30h15.4l-0.7,1.1l0,0l-0.4,0.7l0,0l-0.2,0.4l0,0l-0.2,0.3l0,0l-0.7,1
				l-0.8,1.1L38,35.2l-0.4,0.6l-0.4,0.6l-1,1.4L36,38.1L35.3,39l0,0L35,39.5l-0.2,0.3l-0.4,0.6l-0.2,0.3l-0.7,0.9l0,0L33,42.3
				l-0.2,0.2l-2,2.5l-0.4,0.6l-0.2,0.3l-1,1.4l-0.3,0.4l0,0l-0.7,0.9l0,0l-0.7,1l0,0l-0.3,0.3l-0.5,0.7c0,0.1-0.1,0.2-0.2,0.4h15.4
				v13.3c0,0.6,0,0.5-0.5,0.5H12v-55l0,0c0.2,0,0.3,0,0.5,0h26.3c0.5,0,1,0,1.5,0l-0.5,0.9l0,0c0,0.1-0.5,0.7-0.5,0.7l0,0L39.4,11.5
				z"/>
			<path class="st1" d="M70.5,42.6L70.5,42.6l0.4-0.2l0.9-0.5l1-0.7l0,0l0.8-0.8l2.3-2.8l0.4-0.6l0.5-1.1l0.5-1.2l0.4-1.9v-0.4l0,0
				v-2.1c0.1,0-16.6,0-16.6,0h-1c0,0.1-2.8,0.9-2.8,0.9l-1,0.4l0,0l-0.2,0.2l-1.2,0.7l-1.8,1.4l0,0c0,0.1-0.6,0.7-0.6,0.7l0,0
				l-0.2,0.3l-0.6,0.7L50.8,37c0.1,0.3-0.1,0.5-0.3,0.6L49.8,39l-0.2,0.5l-0.3,1.4l-0.2,0.7v0.7v0.9c0,0.6,0.3,0.8,0.9,0.8h14.6
				h-0.2c0-0.1,0.2-0.1,0.2-0.1c-0.1,0-0.3,0-0.5,0H49.4h14.7c0.2,0,0.4,0,0.5,0.1l0,0v0.4H66l2.1-0.4h0.4c0-0.1,0.3-0.2,0.3-0.2
				l1.9-0.7l0,0L70.5,42.6z"/>
			<path class="st1" d="M72.9,61.7l-0.5,0.5l-0.8,0.5l0,0l-1.4,0.7l0,0l-1,0.4l0,0l-2.5,0.7h-0.2l-1,0.2H48.6v-0.6l0.5-2.9l0.3-1.2
				v-0.4h0.1l1.9-3.3l0.3-0.3l0.4-0.4l1.4-1.4l0,0l0.4-0.4l0.4-0.3L55,53l3.2-1.5h0.1l1.2-0.2h0.4l0.4-0.2h0.8c0,0,0.2,0.1,0.3,0.2
				h15.9c0.2,0,0.4,0.1,0.5,0.3V52l-0.2,1.2v0.4l0,0l-0.2,0.8v0.3c-0.1,0.4-0.3,0.8-0.4,1.2l0,0l-0.3,0.8L76.5,57l-0.6,1.1l-0.5,0.8
				l0,0L75,59.5l-0.6,0.7l-1.7,1.5l0,0L72.9,61.7z"/>
			<path class="st1" d="M55.8,11.1l1.6-0.7h0.7c0-0.1,0.5-0.4,0.5-0.4h0.5c0-0.1,1-0.3,1-0.3h1.6h-0.4h1.2H62l0,0h15.2
				c0.2,0,0.3,0,0.5,0l0,0c0.2,0,0.4,0,0.3,0.3s0,0.7,0,1l-0.2,1.1v0.4L77.4,14l0,0l-0.3,0.7v0.4l-0.5,0.7V16L76,17.1L75.3,18
				l-0.4,0.5l-0.5,0.7l0,0l-1.2,1.2l-0.3,0.2l0,0l-0.7,0.5l-0.5,0.3l-0.2,0.2l0,0L71,21.9l0,0l-0.3,0.2h-0.4c0,0.1-0.2,0.2-0.2,0.2
				L68.3,23l0,0l-0.7,0.2H67l-1,0.2c0,0,0-0.1-0.1-0.1H50c-0.2,0-0.3,0-0.5,0h-0.3V21c0.2-0.5,0.3-0.9,0.4-1.4l0,0l0.6-1.7l0.4-0.8
				l0.3-0.5l0,0 M50.6,16.6l0.2-0.4l0,0l0.5-0.7l0.4-0.5l0.6-0.7l0.3-0.3l0.5-0.6l0,0l0.8-0.7l0,0l0.7-0.5L50.6,16.6
				C50.6,16.6,50.6,16.6,50.6,16.6z"/>
		</g>
		<g>
			<path class="st2" d="M39.4,11.5l-0.2,0.3l-0.7,1l0,0l-0.2,0.3l0,0L38,13.5l0,0L37.7,14l0,0l-0.3,0.4l-0.7,0.9L36.2,16L35,17.6
				l-0.3,0.3l0,0l-0.2,0.3l0,0l-0.3,0.5L33,20.2l-0.2,0.3l0,0l-0.7,0.9l-0.7,0.9l-0.3,0.5l0,0l-0.2,0.3l-2.1,2.8l0,0l-0.6,0.8l0,0
				l-0.6,0.8l0,0L27,28.4l0,0c0,0.1-0.8,1.2-0.8,1.2L26,30h15.4l-0.7,1.1l0,0l-0.4,0.7l0,0l-0.2,0.4l0,0l-0.2,0.3l0,0l-0.7,1
				l-0.8,1.1L38,35.2l-0.4,0.6l-0.4,0.6l-1,1.4L36,38.1L35.3,39l0,0L35,39.5l-0.2,0.3l-0.4,0.6l-0.2,0.3l-0.7,0.9l0,0L33,42.3
				l-0.2,0.2l-2,2.5l-0.4,0.6l-0.2,0.3l-1,1.4l-0.3,0.4l0,0l-0.7,0.9l0,0l-0.7,1l0,0l-0.3,0.3l-0.5,0.7c0,0.1-0.1,0.2-0.2,0.4h15.4
				v13.3c0,0.6,0,0.5-0.5,0.5H12v-55l0,0c0.2,0,0.3,0,0.5,0h26.3c0.5,0,1,0,1.5,0l-0.5,0.9l0,0c0,0.1-0.5,0.7-0.5,0.7l0,0L39.4,11.5
				z"/>
			<path class="st3" d="M70.5,42.6L70.5,42.6l0.4-0.2l0.9-0.5l1-0.7l0,0l0.8-0.8l2.3-2.8l0.4-0.6l0.5-1.1l0.5-1.2l0.4-1.9v-0.4l0,0
				v-2.1c0.1,0-16.6,0-16.6,0h-1c0,0.1-2.8,0.9-2.8,0.9l-1,0.4l0,0l-0.2,0.2l-1.2,0.7l-1.8,1.4l0,0c0,0.1-0.6,0.7-0.6,0.7l0,0
				l-0.2,0.3l-0.6,0.7L50.8,37c0.1,0.3-0.1,0.5-0.3,0.6L49.8,39l-0.2,0.5l-0.3,1.4l-0.2,0.7v0.7v0.9c0,0.6,0.3,0.8,0.9,0.8h14.6
				h-0.2c0-0.1,0.2-0.1,0.2-0.1c-0.1,0-0.3,0-0.5,0H49.4h14.7c0.2,0,0.4,0,0.5,0.1l0,0v0.4H66l2.1-0.4h0.4c0-0.1,0.3-0.2,0.3-0.2
				l1.9-0.7l0,0L70.5,42.6z"/>
			<path class="st3" d="M72.9,61.7l-0.5,0.5l-0.8,0.5l0,0l-1.4,0.7l0,0l-1,0.4l0,0l-2.5,0.7h-0.2l-1,0.2H48.6v-0.6l0.5-2.9l0.3-1.2
				v-0.4h0.1l1.9-3.3l0.3-0.3l0.4-0.4l1.4-1.4l0,0l0.4-0.4l0.4-0.3L55,53l3.2-1.5h0.1l1.2-0.2h0.4l0.4-0.2h0.8c0,0,0.2,0.1,0.3,0.2
				h15.9c0.2,0,0.4,0.1,0.5,0.3V52l-0.2,1.2v0.4l0,0l-0.2,0.8v0.3c-0.1,0.4-0.3,0.8-0.4,1.2l0,0l-0.3,0.8L76.5,57l-0.6,1.1l-0.5,0.8
				l0,0L75,59.5l-0.6,0.7l-1.7,1.5l0,0L72.9,61.7z"/>
			<path class="st3" d="M55.8,11.1l1.6-0.7h0.7c0-0.1,0.5-0.4,0.5-0.4h0.5c0-0.1,1-0.3,1-0.3h1.6h-0.4h1.2H62l0,0h15.2
				c0.2,0,0.3,0,0.5,0l0,0c0.2,0,0.4,0,0.3,0.3s0,0.7,0,1l-0.2,1.1v0.4L77.4,14l0,0l-0.3,0.7v0.4l-0.5,0.7V16L76,17.1L75.3,18
				l-0.4,0.5l-0.5,0.7l0,0l-1.2,1.2l-0.3,0.2l0,0l-0.7,0.5l-0.5,0.3l-0.2,0.2l0,0L71,21.9l0,0l-0.3,0.2h-0.4c0,0.1-0.2,0.2-0.2,0.2
				L68.3,23l0,0l-0.7,0.2H67l-1,0.2c0,0,0-0.1-0.1-0.1H50c-0.2,0-0.3,0-0.5,0h-0.3V21c0.2-0.5,0.3-0.9,0.4-1.4l0,0l0.6-1.7l0.4-0.8
				l0.3-0.5l0,0 M50.6,16.6l0.2-0.4l0,0l0.5-0.7l0.4-0.5l0.6-0.7l0.3-0.3l0.5-0.6l0,0l0.8-0.7l0,0l0.7-0.5L50.6,16.6
				C50.6,16.6,50.6,16.6,50.6,16.6z"/>
		</g>
	</g>
	<path class="st4" d="M87.6,37.5c0-0.4,0.1-0.7,0.7-0.7c1.3-0.5,2.3-1.3,3.2-2.3v-4.1c0.2-1.4,0.3-2.8,0.4-4.3
		c0-0.3-0.1-0.4-0.3-0.4s-0.5,0-0.7,0l-1.7,0.7c-0.6,0.2-0.9,0-0.9-0.6c-0.2-0.5,0-0.7,0.6-0.9c0.5-0.1,0.8-0.2,1-0.2
		c0.3-0.1,0.6-0.2,0.8-0.2l1.1-0.3c0.3-2.2,0.5-4.3,0.5-6.5l-0.8,0.2c-0.2,0-0.5,0-0.7,0s-0.4,0-0.9,0s-0.8,0-0.8,0
		c0-0.1,0-0.2-0.1-0.4c-0.2-0.5,0-0.8,0.8-0.9c0.3,0.1,0.7,0.1,1,0s0.7-0.1,1,0c0.1,0,0.4,0,0.9,0s0.8,0,1,0h1.5c0,0,0.3,0,0.8,0
		s0.8,0,0.8,0c0.8,0,1.6,0,2.4-0.1c0.3,0,0.7,0,1,0s0.7,0,1,0h0.5c0.3,0.2,0.3,0.4,0.1,0.6c0.2,0.2,0.1,0.5,0,0.7
		c-0.2,0.1-0.5,0.1-0.8,0c-0.7,0-1.3,0-1.8,0.2c-0.2,0.7-0.3,1.4-0.2,2.2c0,0.9,0,1.8,0,2.7c0.7,0,1.3-0.2,1.9-0.5
		c0.4,0,0.7,0.4,0.7,0.9c-0.5,0.3-1.1,0.6-1.8,0.7c-0.6,0.1-1,0.5-1,1v7c0.5-0.3,1.1-0.5,1.7-0.7c0.7-0.5,1.5-0.8,2.3-1
		c0.2,0,0.4,0,0.6,0c0.3,0.2,0.4,0.5,0.2,0.8L90.4,41c-0.2,0.2-0.5,0.4-0.7,0.4c-0.5-1.1-1.1-2.2-1.7-3.4l0,0L87.6,37.5z M89.3,38.7
		c0,0,0,0.1,0.2,0.1S89.7,38.7,89.3,38.7z M92,33.1v1.6c0.4-0.6,0.5-1.2,0.4-1.9c0-1.1,0-2.2,0.1-3.4c0-0.3-0.2-0.3-0.3,0
		c0,0.5,0,0.9-0.1,1.3C92.1,31.5,92.1,32.3,92,33.1L92,33.1z M92.4,23.9L92.4,23.9c0.3-0.9,0.4-1.9,0.4-3h-0.1L92.4,23.9z
		 M93.5,27.8V28c0.1,0,0.6-2,0.6-2c-0.4,0.2-0.5,0.5-0.4,1C93.7,27.2,93.7,27.5,93.5,27.8L93.5,27.8z M94,25.8
		c0.1,0,0.2-0.2,0.1-0.4C94,25.4,93.9,25.6,94,25.8z M94.7,34.4c-0.1,0-0.2,0-0.2,0.1C94.5,34.8,94.7,34.7,94.7,34.4z M94.9,30.4
		v-0.2C94.9,30,94.9,30.1,94.9,30.4z M95.1,18.2c0.1,0.3,0.2,0,0.3-0.6C95,17.6,94.9,17.8,95.1,18.2z M95.7,19.3
		c0,0.2-0.1,0.4-0.1,0.6C95.7,19.8,95.8,19.6,95.7,19.3z M95.8,30.6v0.2c0.2-0.5,0.2-0.9,0.1-1.3C95.9,29.5,95.8,30.6,95.8,30.6z
		 M97.2,26l0.2,0.3v-1.2C97.2,25.3,97.2,25.6,97.2,26z M104.3,21.2V21c1.1-0.2,2.1-0.3,3.2-0.2c0,0,0.3,0,0.7,0c0.4,0,0.6,0,0.7,0
		h1.7c0.2,0,0.4,0,0.6,0h2.7c0.6-0.1,1.1-0.2,1.7-0.2s1.1,0,1.7-0.1s1.1-0.1,1.6-0.1c1.7-0.2,3.4-0.3,5.1-0.3s0.2,0,0.6,0
		c0.3,0,0.5,0,0.6,0l2.5-0.3c0.5,0,0.9,0,1.4,0s1,0,1.5-0.2c0.1,0,0.4,0,0.7,0c0.4,0,0.6,0,0.7,0h0.5c0.6-0.2,1.1,0,1.4,0.5
		c-0.9,0.6-2,0.9-3.3,0.9c-0.5,0-1.1,0-1.7,0c-0.4,0-0.7,0-0.9,0.1l-2.1,0.2c-0.2,0-0.4,0-0.6,0c-0.6,0.1-1.3,0.2-1.9,0.1
		c-0.5,0-0.9,0-1.3,0.1h-1.6c-0.4,0.2-0.7,0.2-1.1,0.2h-1.1c-0.4,0-0.6,0-0.6,0l-3.2,0.2c-0.5,0-1,0.1-1.5,0.1
		c-1.5,0.2-3.1,0.3-4.6,0.4c-0.5,0-0.9,0.1-1.3,0.1l-2.5,0.2c-0.1-0.3-0.2-0.6-0.1-0.9l0,0L104.3,21.2z M106.4,15.7
		c0.3-3.2,0.6-6.4,0.7-9.6c-0.2-0.5,0-0.9,0.6-1.2c0.3-0.1,0.6-0.2,1-0.2h0.6c0.1,0.1,0.4,0.1,0.9,0.2c0.5,0,0.9,0,1.1,0h1
		c0.4,0.2,0.6,0.2,0.7,0.2c0.2,0,0.4,0,0.6,0l7.3,0.2c2.6,0.3,5.1,0.4,7.7,0.5c0.2,0,0.5,0,0.9,0c1.1,0,2.2,0.1,3.3,0.6
		c0.3,0,0.4,0.2,0.4,0.5c0.1,1.1,0,2.3-0.4,3.4c0,1.5-0.2,3-0.6,4.5c0,0.5,0,0.9-0.4,1.2c-0.7,0.2-1.5,0.3-2.3,0.2
		c-0.3,0.2-0.7,0.2-1.1,0.2c-0.4,0-0.6,0-0.7,0h-2.9c-0.8,0-1.7,0-2.4,0c-0.8,0-1.7,0-2.4,0h-3c-0.3,0-0.7,0-1,0s-0.7,0-1,0
		s-0.5,0-0.6,0c-0.4,0.1-0.8,0.1-1.2,0c-0.2,0-0.5,0-0.8,0c-0.8,0-1.7,0-2.4,0s-1.5,0-2.3,0s-0.6,0-0.9-0.2c-0.4-0.2-0.5-0.5-0.4-1
		l0,0L106.4,15.7z M112.7,46.6v-1.4c0.2-0.9,0.2-1.9,0.2-2.9c0-0.7,0-1.5-0.2-2.2l-5.1,4c-0.2,0.3-0.5,0.4-0.8,0.4
		c-0.4-0.3-0.3-0.7,0.2-1c0.3-0.2,0.5-0.5,0.6-0.7c1.7-2.5,3.2-5,4.5-7.7c0.2-0.2,0.4-0.5,0.5-0.8c-0.7,0.2-1.3,0.4-1.9,0.6
		c-0.2,0.2-0.6,0.2-0.9,0.2c0-0.1-0.2-0.3-0.3-0.4c-0.2,0.1-0.4,0-0.6-0.2v-2.9c0-0.8,0-1.6,0.2-2.4c0-1.6,0-3.2,0-4.9
		c0-0.2,0.2-0.4,0.5-0.5s0.5-0.1,0.6,0l2.7-0.2c0.8,0,1.6-0.1,2.4-0.1h3.2c0,0,0.3-0.1,0.8-0.1c0.4,0,0.7,0,0.8,0h3.1
		c0,0,0.3-0.1,0.8-0.1c0.4,0,0.7,0,0.8,0c0.5-0.1,1.1-0.2,1.7-0.1c0.4,0.2,0.8,0.6,1,1c-0.2,0.9-0.4,1.8-0.5,2.6l-1.2,4.9
		c-0.4,0.3-0.8,0.4-1.3,0.4c-0.4,0.2-0.8,0.2-1.2,0c-0.2,0-0.4,0-0.6,0.1c-0.7,0.3-1.3,0.5-2.1,0.5c-0.3,0.1-0.7,0.1-1,0
		c-0.2,0.2-0.4,0.2-0.7,0.2c-0.7,0.9-0.9,2-0.7,3.2c0,2.3,0,4.7,0,7c0.8-0.4,1.6-0.9,2.3-1.4c0.3-0.1,0.6,0,0.8,0.1
		c0.4,0.2,0.4,0.4,0.2,0.7c-2.7,1.5-5.4,3-8.1,4.5c-0.4,0-0.7-0.3-0.7-0.7l0,0L112.7,46.6z M108.8,6.6c0.2,0.2,0.3,0.2,0.4,0
		C109.2,6.3,109,6.3,108.8,6.6z M109,42.1c0.2,0,0.4,0,0.6-0.2C109.3,41.7,109.1,41.7,109,42.1z M109.2,15.7h0.3
		C109.3,15.4,109.2,15.4,109.2,15.7z M109.7,34c0,0,0,0.1,0.1,0.1C110.1,34.1,110,34,109.7,34z M110.2,15.4c0,0-0.1,0-0.1,0.1
		C110.1,15.7,110.2,15.7,110.2,15.4z M110.8,27c0.2-0.2,0.3-0.5,0-0.7V27z M111.1,15.1v0.6c0.8,0.1,1.5,0.2,2.2,0.1
		c0.1,0,0.2,0,0.2-0.2s0-0.5,0.1-0.7l0.6-6.6c0-0.6,0-1.2,0.1-1.7c0.2-0.3,0.1-0.5,0-0.7c-1,0-2,0-2.9,0.1c0.2,0.2,0.3,0.5,0.4,0.8
		c-0.4,2.2-0.5,4.5-0.4,6.8c0,0.5-0.1,1-0.1,1.6l0,0L111.1,15.1z M112.5,38.3l-1,1.3c0.2,0,0.4,0,0.7-0.5
		C112.6,38.8,112.8,38.5,112.5,38.3L112.5,38.3z M113.1,37.8l-0.4,0.3C112.8,38.2,112.9,38.1,113.1,37.8z M113,29.9L113,29.9
		l0.1-1.3C112.9,29,112.9,29.5,113,29.9L113,29.9z M113.6,32.9v0.3c-0.1,0,6.8-1.9,6.8-1.9c0-0.6,0-1.3,0.2-2c0.3-1.7,0.6-3.3,0.7-5
		c0-0.2,0-0.3-0.1-0.3l-2.1,0.3c-0.4,0-0.9,0-1.4,0.1c-1,0-2,0-3,0.1c-0.3,0-0.6,0-0.7,0.2c0,0.9,0,1.8-0.2,2.6c0,1.5,0,3.1-0.3,4.6
		C113.4,32.1,113.4,32.4,113.6,32.9L113.6,32.9L113.6,32.9z M114.3,39.5c-0.1,0.6-0.2,1.3-0.1,2h0.1V39.5L114.3,39.5z M115.4,35.6
		c0.2,0,0.4-0.2,0.5-0.7C115.7,35,115.5,35.3,115.4,35.6z M115.6,37.1c0,0.2,0,0.2,0.2,0.1C115.8,36.7,115.8,36.7,115.6,37.1z
		 M116.9,13.6c0.1,0.6,0.2,1.3,0.2,2.1c0.1,0,0.4,0,0.9,0h1.2c0.2,0,0.5,0,0.7-0.2c0.4-2.2,0.8-4.4,1-6.7c0.1-0.8,0.1-1.6,0-2.4
		L118,6.2l-0.2,2.2C117.6,10.2,117.3,11.9,116.9,13.6L116.9,13.6L116.9,13.6z M117.2,39.8v0.3c0.2,0.3,0.3,0.3,0.2-0.2
		S117.3,39.4,117.2,39.8L117.2,39.8z M119.4,34.8c0.3-0.2,0.6-0.2,0.8,0c0.7,0,1.4,0.3,2,0.9c0.3,0,0.4,0.2,0.4,0.4
		c0.8,0.2,1.7,0.5,2.4,0.9l1.4-1.6c0.9-1.5,1.8-3,2.8-4.4c1.5,0.5,2.8,1.2,3.9,2.3c-1.4,1.8-2.9,3.6-4.5,5.3c0.5,0.3,1,0.5,1.6,0.6
		c1.6,0.5,3,1.1,4.5,1.7c0.2,0.2,0.3,0.6,0,1c-0.6,1.3-1.3,2.5-2.1,3.7c-0.6,0.2-1,0-1.2-0.4l-4.3-3.5c-1.8-1-3.4-2.3-4.8-3.8
		c-1.2-0.9-2.1-2-2.9-3.2l0,0V34.8z M123.8,14.8c-0.2,0.2-0.4,0.4-0.6,0.5h1.3c0.5-0.2,0.8-0.2,0.8-0.2c0.9-0.1,1.3-0.8,1-1.9
		c0.2-0.3,0.2-0.7,0.2-1s0-0.6,0.1-0.8c0.4-1.6,0.6-3.1,0.6-4.7h-2.1L125,7.4c-0.2,0.9-0.4,1.9-0.5,2.9c-0.2,0.2-0.3,0.4-0.2,0.7
		c-0.2,1.3-0.3,2.6-0.5,3.9l0,0L123.8,14.8z M123.2,24.3c0,0,0.1,0,0.2,0.1c0.2,0.2,0.3,0.1,0.3-0.2c-0.2-0.2-0.4-0.2-0.5,0V24.3z
		 M124.4,24.3c0,0.3,0,0.5,0.2,0.5C124.6,24.5,124.6,24.3,124.4,24.3z M125.5,24.4c0.2,0.2,0.3,0.2,0.4-0.1h-0.4V24.4z"/>
	<path class="st4" d="M134.6,33.8c0.5-0.2,1.1-0.3,1.7-0.4c0.6,0,1.2,0,1.7-0.2c0.4-0.1,0.6-0.2,0.7-0.2h0.4v-8.5
		c-0.8-0.2-1.6-0.2-2.5-0.2s-0.7-0.2-0.9-0.6c0-0.2,0.2-0.4,0.4-0.4c1.1,0,2.1,0,3.1-0.1c0.2-0.9,0.2-1.8,0-2.7c0-0.2,0-0.4,0-0.7
		c0.4-0.9,1.3-1.2,2.5-1c0.3,0.1,0.6,0.2,1,0.1c0.4,0,0.9,0,1.3,0c0.3,0,0.6,0,1,0c0.2,0,0.3,0.2,0.3,0.5c0.2,1.3,0.2,2.5,0.2,3.8
		c0.4,0.1,0.8,0.2,1.2,0.1c0.6,0,1.1,0.2,1.4,0.7c0,0.4-0.2,0.6-0.6,0.6s-0.8,0-1,0h-1c-0.2,0.5-0.2,1.1-0.2,1.6
		c-0.1,0.8-0.1,1.6,0,2.5c0.1,1,0.1,1.9,0,2.9c0.2,0,0.5,0,0.9,0c0.4-0.1,0.6-0.1,0.7-0.1l1.1-0.3c0.4,0,0.9-0.1,1.3-0.2
		c0.2-0.2,0.4-0.3,0.6,0c-0.3,0.6-0.8,1-1.4,1.1c-3.4,1.7-6.9,3.3-10.6,4.8c-0.3,0.2-0.6,0.3-1,0.4c-0.9-0.7-1.6-1.6-2.1-2.8
		C134.6,34.3,134.5,34.1,134.6,33.8L134.6,33.8L134.6,33.8z M142.9,21.5c0,0.4,0.1,0.8,0.3,1.1v-0.8c-0.1-0.4-0.2-0.4-0.3-0.2l0,0
		V21.5z M143.7,21.3c0.2,0.3,0.2,0.2,0.2-0.4C143.7,20.9,143.7,21,143.7,21.3z M143.7,32.1c0.1,0.2,0.2,0.1,0.2-0.3
		C143.8,31.6,143.7,31.7,143.7,32.1z M143.8,31.5c0.1-0.2,0.1-0.4,0-0.6V31.5z M143.9,28.2v-0.7c0.2-0.3,0.2-0.6,0-1V28.2z
		 M150,46.6c0-0.5,0.2-1,0.7-1.4c0.1-0.2,0.3-0.3,0.4-0.4c0.6-1.1,1.2-2.1,1.9-3.1l3.7-6.9c0.2-0.3,0.1-0.4-0.4-0.4
		c-0.3,0-0.5,0-0.8-0.1c-0.2-0.2-0.5-0.2-0.7-0.2c-0.4,0-0.6-0.2-0.6-0.8c0-0.4,0-0.7-0.1-1.1c0-0.3,0-0.6,0-0.8l-0.4-4.3
		c0-1,0-2,0.1-3c0.4-0.4,1.1-0.6,1.9-0.5c0.3,0,0.5,0,0.6,0h1.5c0.5,0,1,0,1.6,0h1c0.4,0.2,0.7,0.2,1,0.2s0.8,0,1.2,0h3.1
		c0.8,0.1,1.5,0.2,2.2,0.2c0.4,0,0.9,0,1.3,0c0.3,0,0.7,0.1,1,0.1c0.7-0.1,1.3,0,1.8,0.6c0.4,0.2,0.7,0.5,0.7,1
		c-0.1,2.9-0.5,5.7-1.3,8.5c0,0.4-0.2,0.6-0.6,0.7c-0.3,0.1-0.6,0.2-1,0.1c-0.5,0-0.9,0.2-1.2,0.5c0,1.1,0,2.2-0.1,3.2
		c0,0.4,0,0.8,0,1.3v1.6c0.3,0.5,0.8,0.7,1.3,0.6l6.4-1.2c0-1.8,0-3.6-0.2-5.5c0-0.3,0.1-0.5,0.4-0.5s0.5,0,0.7-0.1
		c0.2-0.1,0.4-0.1,0.6-0.1c0.4-0.1,0.7,0,1,0.1c0.6,1.3,1.1,2.6,1.3,4c0.2,0.6,0.3,1.3,0.2,2c-0.8,1.1-2,1.6-3.6,1.5
		c-0.1,0-0.4,0-0.7,0h-0.8c-0.3,0-0.4,0-0.4,0.1c-0.9,0-1.8,0.3-2.6,0.5c-0.4,0-0.8,0.1-1.1,0.1l-1.8,0.3c-0.2,0-0.5,0.1-0.7,0.1
		h-2.1c-0.4,0-0.8,0-1.1,0c-0.4,0.1-0.7,0.2-1.1,0.1c-0.4,0-0.8,0-1-0.4c-0.6-0.2-0.9-0.6-0.9-1.2c0-0.7,0-1.5,0.2-2.2l0.5-5.1
		c-0.1-0.2-0.3-0.2-0.4,0c-0.9,1.7-2.1,3.2-3.4,4.6c-0.6,0.8-1.3,1.6-2.1,2.3c-0.2,0-0.4,0-0.4,0.3s-0.2,0.4-0.5,0.4
		c-1.4,1.5-2.9,2.8-4.5,4c-0.4,0-0.8,0-1.1,0.3c-0.4,0.2-0.6,0.1-0.7-0.2l0,0L150,46.6z M151.8,20.4V20c0.3-0.4,0.6-0.5,1-0.5
		c1,0,1.9,0,2.8,0.1c0.5,0,1,0,1.5,0h3.2c0.5,0,1.1,0,1.7,0h0.6c0,0,0-0.2-0.2-0.4c0-0.8,0.1-1.6,0.5-2.4c0.1-0.8,0.2-1.7,0.3-2.6
		c0.3-0.6,0.5-1.3,0.6-2c0-0.3,0.1-0.4,0.3-0.4l0.4,0.2c0.3-0.2,0.5-0.2,0.8,0c1.1-0.2,2,0,2.8,0.5c-0.3,2.1-0.7,4.2-1.3,6.2
		c-0.1,0.5,0.1,0.7,0.7,0.5c0.5,0,1.1,0,1.7,0c1.3-0.2,2.7-0.3,4-0.2l0,0c0-0.1,0.2,0,0.4,0.1c0.5,0,0.9,0.2,1.3,0.5
		c0.2,0.3,0.2,0.6,0,0.8l-3.8,0.4c-0.2,0-0.5-0.1-0.8-0.1c-0.4,0-0.7,0-1.1-0.1c-0.4,0-0.7,0-1,0s-0.6,0-0.9,0s-0.4,0-0.5,0
		c-0.9,0-1.9,0-2.8,0c-0.1,0-0.4,0-0.7,0h-8.2c-0.2,0.1-0.5,0.1-0.8,0.1c-0.4,0-0.9,0-1.3,0.1c-0.6,0.2-1,0-1.3-0.5l0,0L151.8,20.4z
		 M152.7,10.4l-0.5-0.5c0.1-0.2,0.3-0.5,0.5-0.7c0.6,0,1.3,0,1.9,0.1c1.4,0,2.9,0,4.3-0.1l-3.5-4.5c0-0.2,0.2-0.4,0.5-0.4
		c1.4,0,2.7,0,4,0.4c1,1.2,2,2.3,3.1,3.4c0,0.3,0,0.6,0,1h4c0.7,0,1.3,0,1.9,0c0.4,0.4,0.3,0.7-0.1,0.9c-0.7,0.2-1.5,0.3-2.3,0.2
		c-1.3,0-2.6,0-4-0.1c-0.5,0-0.8,0-0.9,0h-2.9c-0.5,0-1,0-1.5,0h-0.9c-0.5,0-0.9,0-1.3,0s-0.8,0-1.2,0h-1.1c0-0.1,0-0.1,0-0.1V10.4z
		 M157,17.9l-2.1-4.4c-0.2-0.2-0.3-0.5-0.3-0.8c0.3-0.4,0.6-0.5,1-0.5c1.1-0.4,1.9,0,2.6,0.9c0.7,0.6,1.4,1.3,1.9,2.2
		c0.3,0.2,0.4,0.4,0.5,0.7c-0.7,0.7-1.4,1.4-2.3,2c-0.2,0.2-0.4,0.2-0.6,0C157.5,18,157.3,18,157,17.9L157,17.9L157,17.9z
		 M155.7,25.8c0.2,0.3,0.2,0.2,0.1-0.2C155.8,25.4,155.7,25.5,155.7,25.8z M158.8,33.4c0,0,0,0.1,0.1,0.1h6.2c0.2,0,0.3-0.4,0.4-0.7
		l0.5-5.7c0-0.7,0.1-1.4,0.4-2c0-0.2-0.2-0.3-0.6-0.3h-0.7c-0.1,0-0.4,0-0.8,0c-0.4,0-0.6,0-0.7,0h-5.2c-0.3-0.1-0.4,0-0.5,0.2
		c0,1.3,0.1,2.6,0.4,3.9l3.9,0.2c0.3,0,0.5,0,0.6,0h0.2c0,0,0.2,0,0.6,0c0.4,0,0.7,0,1,0.1c0.3,0.2,0.3,0.5,0,0.7
		c-0.3,0.3-0.6,0.4-1.1,0.4c-0.1,0-0.3,0-0.6,0s-0.5,0-0.8,0s-0.6,0-0.8,0l-2.4-0.2c-0.4-0.1-0.6,0-0.8,0.1v2.5
		c0.2,0.4,0.3,0.8,0.5,1.1l0,0L158.8,33.4z M165.9,35.1h0.1C166,34.7,166,34.7,165.9,35.1z M168.3,35.8c0-0.2,0.1-0.4,0.1-0.5
		C168.3,35.3,168.2,35.5,168.3,35.8z M169.2,26.9c0,0.2,0.1,0.2,0.2-0.2C169.4,26.4,169.3,26.5,169.2,26.9z M169.2,27.4
		c0,0,0,0,0,0.1C169.2,27.7,169.2,27.7,169.2,27.4z M179.4,40c0.2,0,0.2,0,0.1-0.2C179.5,39.5,179.4,39.6,179.4,40z"/>
	<path class="st5" d="M194.3,40.1c-2.1-1.5-4.1-2.9-6.2-4.4c0.2-0.3,0.3-0.5,0.3-0.6c0.9-0.2,1.8,0,2.7,0.8c0.4-1.2,0.7-2.5,0.8-3.8
		c0-0.7,0.1-1.4,0.1-2.1c-1.1,0.5-2.2,0.9-3.3,1.2c-0.2,0.3-0.5,0.5-0.9,0.5c-0.3,0.2-0.6,0.1-0.8-0.2l-0.5-4.1
		c0-0.3,0.2-0.5,0.5-0.5l3.1-0.5c0,0,0.3-0.1,0.6-0.2c0.4,0,0.6,0,0.7,0l1.2-0.3l0.6-4.9c0.2-0.6,0.2-1.3,0.1-1.9
		c-0.9,0-1.7,0-2.6,0.2c-0.3,0-0.5,0.1-0.8,0.1s-0.6,0-0.9,0h-1.2c0-0.6,0.1-1.1,0.6-1.4c0.3,0,0.5,0,0.6-0.1c0.6-0.1,1.3-0.2,2-0.2
		s1.4,0,2,0l0.4-0.2c0.2-1.5,0.4-3,0.8-4.4c-0.1-0.4,0-0.8,0.5-1c0.8,0,1.6-0.2,2.4-0.4c0.4,0,0.8,0,1.1-0.2s0.8-0.3,1.2-0.1
		c0.4,0,0.8,0,1.1,0.3c0,1.5-0.1,3-0.4,4.4c-0.2,0.7,0,1.1,0.4,1.2c0.2-0.1,0.5-0.2,0.7-0.2s0.6,0,0.8,0h0.3c0.3,0,0.4,0,0.4,0.3
		c0.3,0.3,0.3,0.7,0,1c-0.3,0.1-0.5,0.2-0.6,0.2h-0.6c-0.1,0-0.4,0-0.8-0.1c-0.4,0-0.8,0.1-1.1,0.4l-0.4,2.6
		c-0.3,1.1-0.5,2.2-0.6,3.3c0.3,0,0.5,0,0.7-0.2s0.4-0.2,0.7-0.2h0.6c0.5-0.3,0.9-0.2,1.4,0c0.3-0.2,0.5-0.2,0.6,0
		c0.3,0.3,0.5,0.3,0.6,0c0,0.5-0.2,0.8-0.7,0.9c-0.4,0-0.7,0-0.8,0.4l-3.5,1.5l-0.3,2.8c-0.5,3.3-1,6.6-1.4,9.9
		c0,0.5-0.3,0.8-0.8,0.8c-0.6-0.2-1.2-0.4-1.9-0.6l0,0L194.3,40.1z M188.7,30.1c-0.1,0-0.2,0.1-0.2,0.3
		C188.7,30.4,188.8,30.4,188.7,30.1z M191.8,29.2c-0.2,0-0.4,0.1-0.4,0.3C191.7,29.5,191.8,29.4,191.8,29.2z M194.6,22.7h0.1
		C194.7,22.2,194.7,22.2,194.6,22.7z M195.6,19.7c0.3,0,0.4-0.3,0.3-0.8C195.6,19,195.5,19.3,195.6,19.7z M196.1,23.1
		c0,0-0.1,0.2-0.1,0.3C196,23.5,196.1,23.4,196.1,23.1z M197.5,22.3c0,0.1-0.1,0.3-0.1,0.5C197.5,23,197.6,22.8,197.5,22.3z
		 M197.6,21.2v-0.3C197.6,20.8,197.6,20.9,197.6,21.2z M197.9,18.9c-0.2,0.4-0.3,0.8-0.1,1.3v-1.3H197.9z M218.8,48.4h-1.5
		c-0.4,0-0.6,0-0.6,0l-2.8-0.2c-0.6-0.2-0.8-0.6-0.5-1.3c0.2-1.4,0.3-2.8,0.3-4.2c0.2-1.7,0.4-3.4,0.6-5.1l-2.4,2.2
		c-0.9,0.6-1.8,1.2-2.8,1.7c-1.3,1-2.7,1.9-4.2,2.7c-0.5,0-0.6-0.3-0.4-0.8c0.2-0.2,0.3-0.4,0.5-0.5c0.3-0.3,0.5-0.6,0.6-1
		c0.5-0.4,0.9-0.9,1.2-1.5c0.3-0.2,0.5-0.5,0.6-0.8l3.6-6c0.3,0,0.4-0.2,0.5-0.4h-4.6c-0.3-0.4-0.4-0.8-0.2-1.4
		c0.3-0.1,0.7-0.2,1-0.3h3.7c0.9,0.1,1.8,0.2,2.7,0.2h0.9c0.2-0.3,0.3-0.6,0.3-1c0-1.2,0.1-2.4,0.3-3.7c0.3-0.7,0.3-1.4,0.3-2.2
		c0.2,0,0.3,0,0.3-0.3c0.1-0.3,0.4-0.3,0.7,0c1.1-0.1,2.1,0,3.1,0.5c0.8,0,1.5,0.3,2.2,0.6c0.3,0,0.5,0,0.6,0.3v4.6
		c-0.2,0.6-0.2,1,0,1.4c0.1,0,0.4,0,0.9,0h1c0.5,0,0.9,0.1,1.4,0.1h1.4c0.4,0.2,0.7,0.2,0.8,0.2s0.3,0.2,0.4,0.7l-0.6,1
		c-0.3,0.1-0.6,0.1-0.8,0c-0.5-0.2-1-0.1-1.5,0l3.7,7.3c-0.9,1-1.8,2-2.8,3c-0.2,0.2-0.4,0.3-0.6,0.5c-0.2,0-0.4,0-0.6,0
		c-1.5-2.5-2.6-5.2-3.5-8.1c-0.2,0.9-0.3,1.8-0.3,2.7c-0.4,2-0.6,4.1-0.8,6.2c0.2,0.6,0.1,1.3-0.2,1.9c0,0.2,0,0.4,0,0.6
		c0,0.4-0.3,0.5-0.6,0.3s-0.6-0.2-1,0.2c0,0,0-0.1-0.3-0.3l0,0L218.8,48.4z M226.3,14.8c0-0.5,0-0.9,0.3-1.2c0-1.4,0.3-2.8,0.6-4.2
		c-0.1-0.3-0.4-0.4-0.8-0.2c-0.4-0.1-0.7-0.1-1,0c-1.6,0-3.3,0-4.9-0.1c-0.3,0-0.4,0-0.6-0.2c-0.3,0-0.5,0-0.8,0s-0.5,0-0.6,0
		c-0.6-0.1-1.2-0.2-1.9-0.1c-0.2-0.1-0.3-0.1-0.4,0h-1.7c-0.2,0-0.4,0-0.6-0.1c-0.8,0-1.6,0-2.4-0.1l-1.6,6.4
		c-0.2,0.4-0.4,0.5-0.8,0.3c-0.9,0-1.8,0-2.6-0.2c-0.4-0.1-0.7-0.2-1-0.2s-0.4-0.3-0.4-0.7l0.8-5.8c0-0.8,0.5-1.2,1.2-1.2
		c0.7-0.2,1.4-0.2,2.1-0.1c0,0,0.3,0,0.7,0s0.6,0,0.8,0h3c0.8,0.1,1.6,0.2,2.4,0.2c1.1,0,2.2,0.1,3.3,0.3c0.4,0,0.7,0,0.8,0
		c0.6,0,1.2,0,1.7,0h1.7c0,0,0.3,0,0.7,0s0.6,0,0.8,0h1.2c2,0,3.9,0,5.8,0.4c0.3,0,0.7,0,1,0.3c0.4,0.1,0.7,0.4,0.9,0.7
		c-0.1,0.7-0.5,1.5-1.2,2.2c-1.6,1.3-3.1,2.7-4.6,4.1c-0.2-0.1-0.5-0.2-0.8-0.2c-0.5,0-0.7-0.2-0.8-0.6l0,0L226.3,14.8z M209.2,40.7
		c0.4,0,0.7-0.2,1-0.6C209.8,40.1,209.4,40.3,209.2,40.7z M211.9,22.3c-0.6-1-1.4-2-2.2-2.8c-0.3-0.3-0.3-0.6,0-0.9
		c1.1-0.7,2.1-1.6,3-2.6c0.4-0.3,0.6-0.5,0.7-0.5c0.6-0.4,1.2-0.9,1.8-1.4c0.3-0.3,0.6-0.4,1-0.4s0.4,0,0.5,0.3
		c0.3,0.5,0.3,1-0.1,1.5l-4,7.1l-0.6-0.2l0,0L211.9,22.3z M217.7,37.4h0.2c0,0.1,0-1.2,0-1.2l-0.3,1.2l0,0H217.7z M218.5,34.9
		c0,0.6,0,1.2,0.1,1.7l0.3-2.4c0-0.3,0-0.6-0.2-0.8c-0.2,0.4-0.2,0.9-0.2,1.4l0,0L218.5,34.9z M220.2,43.4c0.2,0,0.3-0.1,0.2-0.5
		C220.2,42.9,220.2,43.2,220.2,43.4z M223.1,22.9l-1.4-3.4c-0.1-0.9,0.3-1.6,1.3-2.1c0.2-0.1,0.5-0.2,0.8-0.2
		c0.4,0.1,0.7,0.4,0.8,0.9c1,1.5,2,2.9,3,4.4c0.4,0.5,0.8,1,1.2,1.5c0,1-0.4,1.9-1.1,2.5c-0.8,0.6-1.3,1.4-1.8,2.2
		c-0.5,0-0.8-0.4-0.8-1c-0.8-1.5-1.5-3.1-2.1-4.8l0,0L223.1,22.9z M224.9,37.5c0,0.3,0,0.5,0.3,0.6
		C225.2,37.8,225.2,37.6,224.9,37.5z"/>
	<path class="st6" d="M233.8,25.4c0.1-0.4,0.2-0.7,0.2-1.1c0.2-1.2,0.2-2.3,0.2-3.5c0.1-0.5,0-1.1,0-1.6c0-0.3,0-0.5,0.2-0.7
		l2.8-0.2c0.3-0.1,0.6-0.1,0.9,0l3.1-0.3c0.3,0,0.6,0,0.9,0c1.3-0.2,2.6-0.3,3.9-0.4c0-0.3,0-0.5,0.1-0.7v-3.3
		c0-0.2-0.3-0.3-0.8-0.2c-0.5,0-0.9,0-1.3,0c-0.4,0-0.9,0-1.3,0s-0.4,0-0.7,0s-0.4-0.2-0.4-0.4s0-0.3,0.3-0.4h2.6
		c0.2,0,0.5-0.1,0.9-0.1s0.6,0,0.8,0c0.1-0.8,0.2-1.6,0.2-2.5c-0.2-0.6-0.2-1.2,0-1.9c0.5-0.5,1.1-0.7,1.9-0.5c0.3,0,0.6,0,0.9,0.2
		c0.4,0,0.6,0,0.7,0l1.7,0.4c0.6-0.1,1.1,0,1.6,0.3l-0.2,2.8c0,0.4,0,0.7,0.2,1c0,0,0.2,0,0.5,0c0.4,0,0.8,0,1.2-0.1
		c0.9-0.2,1.6,0,1.9,0.8c-0.3,0.4-0.7,0.4-1.3,0.2c-0.2-0.1-0.4-0.1-0.7-0.1s-0.6,0-0.9,0s-0.6,0-0.9,0v1.6c-0.1,0.7-0.1,1.4,0,2.2
		h3.1l0.1-0.2c0.3,0,0.7-0.1,1.1-0.1h1.1c0.4,0,0.7-0.1,1.1-0.1s0.7,0,1.1,0c0,0,0.3,0,0.6,0s0.6,0,0.7,0h2c0.2,0,0.4-0.1,0.6-0.2
		c0.9,0,1.8,0,2.6,0.2c0.2,0.4,0.2,0.8,0,1.3c-0.4,0.4-0.7,0.9-1,1.5c-1,0.9-1.9,1.9-2.8,2.9c-0.2,0.2-0.5,0.4-0.8,0.4
		c0,0,0,0.1-0.2,0.2s-0.4,0-0.5-0.2c-0.1-1.5,0-3.1,0.6-4.6c0-0.4,0-0.5-0.4-0.5c-0.2,0-0.4,0.1-0.6,0.1c-1.1,0.1-2.3,0.1-3.4,0.1
		c-0.5,0.2-1,0.3-1.5,0.3c-0.9,0-1.8,0-2.6,0.1c-0.4,0-0.7,0-1.1,0.1l-1.9,0.3c-0.2,0.1-0.5,0-0.8-0.1c-0.4,0-0.7,0-1.1,0.1
		c-0.4-0.1-0.9,0-1.5,0.1c-0.4,0-0.6,0-0.7,0.3c-0.2,0.4-0.4,0.4-0.6,0c-0.1-0.2-0.2-0.3-0.4-0.3l-2.2,0.2c-0.3,0-0.7,0-1.1,0
		c-0.2,0-0.4,0-0.5,0.1c-0.9,0-1.8,0.1-2.7,0.2c-0.3,0-0.5,0.1-0.6,0.4v2c-0.3,0.9-0.5,1.8-0.5,2.8c0,0.6-0.1,1-0.5,1.2
		c-1,0.1-1.9,0.4-2.9,0.7c-0.2,0.1-0.5,0.2-0.7,0.2c-0.4,0-0.6-0.2-0.5-0.7l0,0L233.8,25.4z M236.2,20.2c-0.2,0.4-0.2,0.8-0.2,1.3
		c0.2-0.2,0.3-0.4,0.3-0.7c0.1-0.2,0-0.4,0-0.5l0,0L236.2,20.2z M235.9,21.7v0.5C235.9,22,235.9,21.8,235.9,21.7z M236.2,25h0.2
		C236.4,24.8,236.3,24.8,236.2,25z M255.4,48.7h-0.3c0,0.1-2-0.8-2-0.8c-0.3-0.1-0.5-0.2-0.6-0.2c-0.6-0.5-1.3-0.8-2.1-1
		c-0.3-0.2-0.6-0.4-0.9-0.5c-0.3-0.1-0.3-0.4,0-0.8c0.7-0.1,1.3,0,1.9,0.6c0,0.1,0.2,0.2,0.5,0.2l0.2-1.8c0-0.3,0-0.5,0.1-0.8
		c0-2.1,0-4.2,0.2-6.2c-0.2,0-0.4,0-0.6,0.2s-0.3,0.3-0.6,0.2c-0.2,0-0.4,0-0.7,0s-0.5,0.1-0.6,0.1c-0.9,0.2-1.8,0.4-2.7,0.6
		c-0.1,0.1-0.3,0.2-0.5,0.2h-0.3c-0.2-0.3-0.2-0.6-0.1-0.9c0-0.2,0.1-0.4,0.2-0.6c0.6-1.2,1.2-2.5,1.9-3.8c0.2-0.4,0-0.5-0.3-0.6
		c-0.3,0-0.6,0-0.9,0h-4.8c-0.2-0.2-0.5-0.2-0.9,0c-0.6,0.1-1.2,0-1.7-0.3c-0.2-0.3-0.1-0.6,0.1-0.9c0.4-0.5,0.7-1,0.9-1.6
		c0.3-0.4,0.4-0.9,0.5-1.3l2.6-5.4c0-0.2,0-0.4,0.2-0.6c0.4-0.8,0.7-1.6,1-2.4c0.1-0.4,0.4-0.6,0.7-0.7c1.7,0.2,3.2,0.7,4.7,1.5
		c0.8,0.1,1.4,0.4,1.9,0.7c-0.3,0.7-0.7,1.3-1.3,1.9c-0.9,1.5-1.8,3-2.9,4.5c-0.2,0.2-0.3,0.4-0.5,0.6c-0.6,0.9-1.2,1.8-1.8,2.8
		c-0.2,0.2-0.1,0.4,0.1,0.4h2.6c0.5-0.9,0.9-1.7,1.5-2.6c1.8,0,3.6,0.3,5.4,0.9c-0.2,0.8-0.5,1.6-1.1,2.3c-0.5,1-1,2-1.6,3
		c-0.2,0.4-0.2,0.5,0.2,0.3l5.2-1.4c0.3-0.1,0.5-0.2,0.6-0.2h0.3c-0.3-0.6-0.7-1.1-1.2-1.5c0-0.3,0.1-0.5,0.4-0.6c0.2,0,0.5,0,0.7,0
		c1.5,0.1,2.8,0.5,4.2,1.1c0.2,0,0.4,0,0.5,0.2c0.4,0,0.8,0.1,1.2,0.4c0.1,0.6,0,1.2-0.4,1.8c-0.3,0.6-0.6,1.1-0.9,1.6
		c0,0.3-0.2,0.6-0.5,0.6l-2.2-2c-0.6-0.3-1.3-0.3-2.1,0l-0.6,5.8c0,0.5,0,1-0.1,1.5c0,0.2,0,0.4-0.1,0.6l-0.5,5.2
		c0,0.4-0.4,0.6-0.9,0.6l-0.6-0.2c-0.2-0.2-0.5-0.3-0.8-0.4l0,0L255.4,48.7z M242.2,46.9c-0.1,0-0.2,0-0.2-0.2c0-0.5-0.2-1-0.5-1.4
		c-0.2-0.3-0.3-0.7-0.3-1.1c0-1.1,0.5-1.7,1.8-2c0.3-0.3,0.6-0.4,0.8-0.4c0.9-0.7,2-1.2,3-1.6c0.2-0.1,0.4-0.1,0.5,0
		c0.1-0.2,0.3-0.3,0.5-0.2c0.4,0.4,0.3,0.8-0.2,1.3c-1.5,2.1-3,4.2-4.4,6.3c-0.1,0.1-0.4,0.2-0.6,0.2
		C242.2,47.8,242.1,47.5,242.2,46.9L242.2,46.9z M243.1,27.4c-0.1,0-0.2,0-0.2,0.3C243,27.7,243.1,27.7,243.1,27.4z M244.4,24.2
		c-0.1,0-0.2,0-0.2,0.2C244.2,24.7,244.2,24.6,244.4,24.2z M244.9,22.7c-0.4,0.3-0.6,0.8-0.6,1.4L244.9,22.7z M244.4,26.4
		c0,0,0,0,0,0.2C244.5,26.6,244.6,26.6,244.4,26.4z M245.2,31.5c-0.1,0-0.2,0.1-0.2,0.2C245.2,31.7,245.3,31.7,245.2,31.5z
		 M245.3,28.8c0,0.3,0,0.3,0.2,0c0.3-0.3,0.3-0.5,0-0.5C245.5,28.5,245.4,28.7,245.3,28.8z M245.6,30c-0.1,0-0.2,0-0.2,0.1
		C245.4,30.3,245.4,30.3,245.6,30z M247.1,23.3c-0.1,0-0.2,0.2-0.2,0.4L247.1,23.3z M247.4,27.6L247.4,27.6
		C247.4,27.7,247.4,27.7,247.4,27.6z M248.1,26.7c-0.1,0-0.2,0-0.2,0.2C247.9,27.2,247.9,27.2,248.1,26.7z M250.6,9.6
		c0,0.2,0,0.3,0.2,0.3C250.9,9.7,250.8,9.6,250.6,9.6z M251,15.7v0.9c0.1,0,0.2-0.5,0.2-0.5C251.2,15.9,251.2,15.7,251,15.7
		L251,15.7z M252,15c-0.1,0-0.2,0-0.2,0.1C251.8,15.4,251.9,15.4,252,15z M252.6,34.7c-0.1,0-0.2,0.2-0.2,0.3
		C252.5,35,252.6,34.9,252.6,34.7z M253,33.9c0,0-0.1,0-0.1,0.2c-0.1,0.1-0.2,0.3-0.2,0.5C252.9,34.4,253,34.2,253,33.9L253,33.9z
		 M253.1,41.6v0.2c0.1,0,0.2-0.9,0.2-0.9c0-0.2,0-0.4-0.1-0.5L253.1,41.6L253.1,41.6z M253.5,33l-0.4,0.6c0,0.2,0.1,0.1,0.3-0.2
		C253.6,33.2,253.6,33.1,253.5,33L253.5,33L253.5,33z M253.3,46.5c0.1,0.3,0.2,0.3,0.2-0.2C253.5,46.1,253.4,46.2,253.3,46.5z
		 M254.3,31.3c-0.1,0.1-0.2,0.3-0.2,0.5C254.4,31.6,254.5,31.4,254.3,31.3z M254.5,30.6c0,0,0,0.1,0,0.2c0,0.2,0,0.2,0.3-0.3
		c-0.2-0.2-0.3-0.2-0.2,0.1l0,0L254.5,30.6z M254.8,47.4h0.1v-2c0.2-0.3,0.1-0.5,0-0.4c0,0.7,0,1.5,0,2.3l0,0L254.8,47.4z M255,44.8
		v-0.2C255,44.4,255,44.4,255,44.8z M255.2,36.8l0.2,2.1v-1.7c0-0.3,0-0.5,0.2-0.7C255.3,36.5,255.2,36.5,255.2,36.8
		C255.2,36.8,255.2,36.8,255.2,36.8z M255.9,44.5v-1C255.9,43.8,255.9,44.2,255.9,44.5z M257.2,41.7v0.9
		C257.2,42.4,257.2,42.1,257.2,41.7z M257.2,36.9C257.3,36.9,257.3,36.9,257.2,36.9C257.2,36.6,257.2,36.6,257.2,36.9z M259.7,32.6
		c0.1,0.2,0.3,0.3,0.4,0.3C260,32.7,259.9,32.6,259.7,32.6z M261.1,42.8c0-0.2,0-0.4,0-0.6c-0.1-0.3-0.2-0.6-0.2-0.9
		c0-1,0.6-1.5,1.7-1.5c0.2-0.1,0.5-0.2,0.7-0.2c0.4,0.6,0.6,1.2,0.9,1.8c0.5,0.8,0.9,1.7,1.3,2.6c0.4,0.6,0.2,1.1-0.4,1.4
		c-0.8,0.6-1.6,1.1-2.5,1.6c-0.2-0.1-0.4-0.2-0.5-0.3l-1-4l0,0V42.8z M264.5,18c-0.1,0-0.2,0.1-0.2,0.2
		C264.3,18.3,264.4,18.2,264.5,18z"/>
	<path class="st6" d="M269.5,43.5v-1c0.3-0.6,0.4-1.2,0.4-1.8c0.5-1.4,0.8-2.9,0.9-4.5c0-0.4,0-0.8,0.2-1.1c0-1.4,0.3-2.8,0.6-4.3
		c0-0.7,0.2-1.3,0.4-1.9c0-0.3,0-0.5,0-0.7c0.2-0.5,0.3-1.1,0.4-1.6c0-1.1,0.3-1.9,1.1-2.4c0.3-0.2,0.8-0.4,1.3-0.4
		c0.3,0,0.6-0.1,0.9-0.1s0.6,0,0.9,0h0.4c0.2-0.1,0.5-0.2,0.9-0.2s0.6,0,0.7,0h0.8c0.2-0.1,0.5-0.1,0.7-0.2l1.7-0.2
		c0.3,0,0.6-0.1,0.7-0.1h0.2c0.5-0.2,1-0.2,1.7-0.2c0.5,0,1.1,0,1.7,0h0.3c0.6,1,0.6,2.1,0,3.3c-0.2,1-0.5,2-0.8,3
		c-0.1,1.5-0.7,2.7-1.7,3.7c-0.6,0-1.2,0-1.9,0.5c-1.5,0.4-3.1,0.8-4.6,1.2c-0.8,0-1.4,0.3-1.9,0.9c-0.1,1.8-0.5,3.5-1,5.1
		c0,0.3,0,0.6,0.1,0.9c1.7-0.5,3.4-1.2,5.1-1.8l-0.5-1.5c-0.3-0.6-0.3-1,0-1.4c0.9,0.3,1.7,0.8,2.5,1.3c0.7,0.5,1.3,1.1,1.9,1.7
		c0.2,0.3,0.4,0.6,0.5,0.9c-0.6,0.9-1.3,1.6-2.2,2.3c-0.1,0.3-0.4,0.4-0.7,0.4c-0.3,0.2-0.6,0-0.7-0.3c0.2-0.3,0.1-0.7-0.1-1
		c0-0.2,0-0.4-0.2-0.6c0-0.3-0.2-0.5-0.5-0.6c-0.2,0-0.5,0-0.6,0.1c-2.9,1-5.7,2-8.6,3.2c-0.4,0.2-0.6,0.3-0.8,0.3
		c-0.4,0-0.5-0.3-0.4-0.7l0,0L269.5,43.5z M269.8,22.8l0.6-1.5c0-0.3,0-0.6,0.2-0.9c0-0.2,0.1-0.4,0.2-0.6l1.1-3.4
		c1.1-3.1,2.1-6.2,3-9.3c0-0.4,0-0.7,0.4-1c0.5-0.4,1-0.4,1.5,0s1,0.7,1.5,0.8c1,0.2,1.8,0.7,2.4,1.5c-0.3,1-0.8,2-1.4,2.9l2.2,0.7
		c1.4,0.4,2.6,0.9,3.8,1.5c1.4,0.2,2.8,0.7,4,1.5c0.1,0.1,0.4,0.2,0.7,0.2v0.4c-0.6,1.3-1.3,2.6-2.1,3.9c-0.5,0.6-1,0.6-1.5,0
		l-7.8-7.1c-1.5,2.4-3.1,4.6-4.8,6.9c-1,1.3-2,2.5-3.3,3.5c-0.2,0.2-0.4,0.4-0.6,0.4c-0.1-0.1-0.2-0.3-0.1-0.6l0,0L269.8,22.8z
		 M271.3,21.3c-0.2,0-0.3,0.1-0.3,0.4C271.2,21.7,271.3,21.5,271.3,21.3z M271.6,40.7c0,0-0.1,0.2-0.1,0.4
		C271.8,41,271.8,40.8,271.6,40.7z M272.1,34.2c-0.2,0.2-0.2,0.5-0.2,0.7C272.1,34.7,272.1,34.5,272.1,34.2z M272.8,19.9l-0.5,0.2
		C272.3,20.4,272.5,20.4,272.8,19.9z M273.5,25.6c0.1,0,0.2-0.1,0.1-0.4v0.4H273.5z M280.4,28.4c0,0.2,0,0.3-0.2,0.4
		c-1.2,0.5-2.4,1-3.5,1.5l-0.9,3.2c0,0.3,0.4,0.3,0.8,0c1.3-0.3,2.6-0.7,4-1.1c0.3-1,0.5-2,0.6-3c0.1-0.6,0.2-1.2,0.1-1.8
		c0.3-1.2,0.6-2.4,0.7-3.6c-0.8,0-1.5,0-2.3,0s-1.5,0.2-2.3,0.5c-0.1,0.2-0.2,0.3-0.2,0.4c0,1.3-0.2,2.6-0.6,3.9
		c0.5,0,1-0.1,1.5-0.4s1-0.4,1.5-0.4l0,0c0.2,0,0.4,0.1,0.5,0.4l0,0H280.4z M276.3,7.3c0.2,0,0.3,0,0.3-0.2
		C276.4,7.1,276.3,7.1,276.3,7.3z M277.9,17c0-0.2,0-0.3,0.2-0.4c0.3,0,0.7,0,1,0c0.2,0.3,0.5,0.4,0.7,0.4l2.3,1
		c0.7,0.4,0.8,1,0.1,1.7c-0.9,0.6-1.8,1.2-2.6,1.8c-0.3-0.2-0.6-0.6-0.7-1C278.3,19.4,278,18.3,277.9,17z M278.1,8.1
		c0.2,0.2,0.5,0.3,0.9,0.3C278.8,8.2,278.5,8.1,278.1,8.1z M279.5,9.2c-0.2,0.1-0.4,0.3-0.3,0.7C279.4,9.7,279.5,9.4,279.5,9.2z
		 M281.7,31c0,0.1,0,0.4,0,0.7C281.9,31.5,282,31.2,281.7,31z M281.9,29.9c-0.2,0.2-0.3,0.4-0.2,0.8C281.9,30.5,282,30.2,281.9,29.9
		z M285.1,14.5c0,0,0.2,0,0.4,0H285.1z M289,16.4c0,0,0.1-0.1,0.1-0.2C289.1,16,289,16,289,16.4z M290.1,22.7c0-0.2,0-0.3,0.1-0.3
		c0-0.4,0-0.7,0.2-1c0.2-0.9,0.4-1.8,0.8-2.8c0.3-1.1,0.7-2.1,1.2-3.1c0.6,0,1.2,0,1.8-0.2c0,0,0.3,0,0.7,0s0.6,0,0.7,0s0.4,0,0.7,0
		h2.1c0.3,0,0.6,0,0.7,0c0.2-0.1,0.5-0.2,0.7-0.2s0.5,0,0.8,0c0.4-0.1,0.8-0.2,1.2-0.2c0.3,0,0.7-0.1,1-0.1s0.7,0,1,0l6.2-0.6
		c1.1,0,2.2-0.1,3.4-0.1h0.9c0,0.2,0.2,0.2,0.4,0c0.5,0.9,0.2,1.7-0.7,2.6l-2.7,2.8c-0.2,0.2-0.5,0.3-0.8,0.1
		c-0.3-0.1-0.4-0.4-0.4-0.6c-0.3-0.5-0.5-1.1-0.7-1.7c-0.2-0.3-0.2-0.7-0.2-1.1c0-0.4-0.2-0.7-0.6-0.9c-0.4,0-0.7,0-1,0.1
		s-0.6,0.1-0.9,0.2c-0.1,0-0.3,0-0.6,0c-1,0-2.1,0.1-3.1,0.2c-0.4,0.1-0.8,0.2-1.3,0.2h-1.6c-0.1,0-0.4,0-0.8,0.2
		c-0.4,0-0.7,0-0.7,0c-0.5,0-1,0-1.5,0.2c-0.4,0-0.7,0-1,0.1c-0.3,0.8-0.5,1.7-0.5,2.6c-0.2,0.2-0.2,0.6-0.2,1.1
		c-0.2,0.3-0.3,0.7-0.4,1.1c-0.2,0.5-0.6,0.8-1,1c-0.6,0-1.2,0.2-1.7,0.4c-0.4-0.2-0.8-0.1-1.2,0.2c-0.3,0.2-0.6,0.4-0.9,0.4v-0.4
		c-0.1,0,0,0,0,0L290.1,22.7z M292,18.7c-0.2,0.3-0.3,0.7-0.4,1.1C291.8,19.5,292,19.1,292,18.7z M292.2,17.9c0,0-0.1,0-0.1,0.1
		S292.1,18,292.2,17.9z M294.7,19.4c0,0-0.1,0.1-0.1,0.3C294.7,19.7,294.8,19.6,294.7,19.4z M296.8,46.2c0.2-1.6,0.2-3.1,0.2-4.7
		c0-0.2,0-0.3,0.2-0.4v-3.9c0-1,0-1.9,0.1-2.9c0.1-1.5,0.1-3.1,0-4.6c0-1.2-0.1-2.4-0.1-3.6c0-1,0-2-0.1-3c0-0.3,0-0.6,0.2-0.7
		c0.5,0,1.1,0,1.6-0.2c0.5,0,1,0.1,1.5,0.1c0.7,0,1.4,0.1,2,0c0.5,0,1,0,1.6,0c0.7,0,1.2,0,1.7,0.1h3.4l0.8,0.8
		c0.3,2.3,0.5,4.5,0.6,6.7l-1.5,0.5c-2.1,0-4.1,0.3-6,0.7v5.1c0,0.4,0,0.6,0.1,0.7c0.3-0.1,0.7-0.1,1.1,0c0.3,0,0.5,0,0.6,0h0.6
		c0.3,0,0.6,0,1,0c0.3,0,0.6,0,1,0h1.7c0.7-0.1,1.4-0.1,2.2-0.2c0.3,0,0.8,0,1.3,0s0.9,0.3,1.1,0.7c0.2,2.2,0.3,4.5,0.2,6.8
		l-0.4,1.2c-0.2,0.4-0.4,0.6-0.7,0.6c-1.3,0-2.6,0-4,0.3c-0.3,0-0.5,0-0.7,0.2c-0.3-0.1-0.7-0.1-1,0c-0.3,0-0.7,0.2-1,0.2
		s-0.7,0-1,0l-2.5,0.2c-0.4,0-0.6,0-0.6,0l-2,0.3c-0.3,0-0.6,0-0.8,0.1c-0.4,0-0.7,0.1-0.9,0.1c-0.5,0.1-1,0-1.2-0.3
		c0-0.4,0-0.8-0.2-1l0,0L296.8,46.2z M298.2,45.4c0,0.2,0,0.3,0.2,0.4C298.4,45.5,298.4,45.3,298.2,45.4z M298.2,46.2
		c0.1,0,0.2,0,0.1-0.1C298.3,45.8,298.2,45.9,298.2,46.2z M299.7,13.1l0.2-0.6c-0.3-0.7-0.5-1.3-0.7-2c-0.3-0.7-0.5-1.4-0.4-2.2
		c-0.3-0.2-0.4-0.4-0.2-0.6c1.9,0.2,3.7,0.9,5.4,2c0.3,0.2,0.6,0.3,0.9,0.4c0,0.2,0,0.5,0,0.7c-0.9,1.2-2,2.3-3.1,3.3
		c-0.7,0-1.3-0.4-1.9-1.1l0,0L299.7,13.1z M298.6,39.7c0,0.2,0,0.3,0.1,0.4c0-1.1,0-2.2-0.2-3.4C298.5,37.7,298.5,38.7,298.6,39.7
		L298.6,39.7z M301.8,44.6v0.2C302,45,302,45,301.8,44.6z M301.9,27L301.9,27c0,0.1,0-1.2,0-1.2V27L301.9,27z M302.8,30.2h0.4
		c0,0,0.2-0.1,0.6-0.1l1-0.2c0.7,0,1-0.2,1.2-0.8c0-1.4,0-2.9,0-4.4c0-0.5,0-0.9-0.2-1.3h-3.1c0,1.4,0,2.7,0,4c-0.1,1-0.1,1.9,0,2.8
		H302.8z M303.1,45.5l0.2,0.2l4.5-0.3c0.2-0.4,0.4-0.8,0.3-1.4c0.2-2,0.3-4,0.2-5.9h-3c-0.4,0-0.8,0-1.2,0.2c-0.2,0-0.5,0-0.7,0
		s-0.4,0.1-0.5,0.5c-0.1,2.2,0,4.4,0.2,6.5l0,0V45.5z M309.1,38.3l-0.2,3.5c0,0.4,0,0.7,0.1,0.9c0.2-1.4,0.3-2.9,0.2-4.4
		c-0.1,0-0.2,0-0.2,0H309.1z M310.3,42.6c0.1-0.1,0.2-0.3,0.1-0.6C310.3,42.2,310.2,42.4,310.3,42.6z M311.8,38.3
		c0,0.2,0.2,0.5,0.4,0.7c0.1,0,0.2-0.2,0.1-0.6c-0.2-0.3-0.4-0.3-0.6-0.1l0,0L311.8,38.3z M313,43.6c-0.1,0.1-0.1,0.3,0,0.6V43.6z
		 M313,40.4c0.2,0,0.3-0.1,0.2-0.6C313,39.8,313,40,313,40.4z"/>
	<g>
		<path class="st0" d="M86.7,50.7h6.8v1.2h-5.3v3.7h4.4v1.3h-4.4v4.3h5.5v1.3h-6.9L86.7,50.7L86.7,50.7L86.7,50.7z"/>
		<path class="st0" d="M95.9,53.7h1.2v1.2h0.2c0.8-0.8,1.7-1.5,2.9-1.5c1.8,0,2.7,1.2,2.7,3.4v5.5h-1.5V57c0-1.6-0.5-2.3-1.7-2.3
			s-1.5,0.5-2.4,1.3v6.3h-1.5v-8.7l0,0L95.9,53.7z"/>
		<path class="st0" d="M104.4,53.7h1.5l1.6,5c0.3,0.8,0.5,1.7,0.8,2.6l0,0c0.3-0.8,0.5-1.7,0.8-2.6l1.7-5h1.4l-3.1,8.7h-1.7
			L104.4,53.7L104.4,53.7L104.4,53.7z"/>
		<path class="st0" d="M113.8,51c0-0.6,0.4-0.9,1-0.9s1,0.3,1,0.9s-0.4,0.9-1,0.9S113.8,51.5,113.8,51z M114.1,53.7h1.5v8.7h-1.5
			V53.7z"/>
		<path class="st0" d="M118.4,53.7h1.2v1.6h0.2c0.6-1.1,1.5-1.8,2.5-1.8s0.7,0,0.9,0.2l-0.3,1.3c-0.3-0.1-0.5-0.1-0.8-0.1
			c-0.7,0-1.6,0.5-2.2,2v5.6h-1.5L118.4,53.7L118.4,53.7L118.4,53.7z"/>
		<path class="st0" d="M123.8,58.1c0-2.9,1.9-4.6,4-4.6s4,1.7,4,4.6s-1.9,4.5-4,4.5S123.8,60.9,123.8,58.1z M130.4,58.1
			c0-2-1-3.4-2.5-3.4s-2.5,1.4-2.5,3.4s1,3.3,2.5,3.3S130.4,60.1,130.4,58.1z"/>
		<path class="st0" d="M133.8,53.7h1.2v1.2h0.2c0.7-0.8,1.5-1.4,2.5-1.4c1.6,0,2.2,1.1,2.2,3.1v5.8h-1.5v-5.6c0-1.4-0.3-2-1.3-2
			s-1.2,0.4-1.8,1.3v6.3h-1.5L133.8,53.7L133.8,53.7z M141.3,53.7h1v1.1h0.2c0.3-0.8,0.8-1.3,1.6-1.3s1.1,0.5,1.2,1.4
			c0.3-0.8,0.8-1.4,1.5-1.4s1.5,0.8,1.5,2.3v6.6H147v-6.3c0-0.9-0.3-1.3-0.7-1.3s-0.7,0.4-1,1.2v6.5h-1.1v-6.3
			c0-0.8-0.2-1.3-0.7-1.3s-0.8,0.4-1,1.2v6.5h-1.3v-8.7l0,0L141.3,53.7z"/>
		<path class="st0" d="M149.5,58.1c0-2.8,1.9-4.6,3.9-4.6s3.5,1.6,3.5,4.1s0,0.6,0,0.8H151c0.1,1.9,1.2,3,2.9,3s1.5-0.3,2.2-0.7
			l0.5,1c-0.8,0.5-1.7,0.9-2.9,0.9C151.4,62.6,149.5,60.9,149.5,58.1L149.5,58.1z M155.6,57.4c0-1.8-0.8-2.7-2.2-2.7s-2.3,1-2.5,2.7
			H155.6z"/>
		<path class="st0" d="M159,53.7h1.2v1.2h0.2c0.8-0.8,1.7-1.5,2.9-1.5c1.8,0,2.7,1.2,2.7,3.4v5.5h-1.5V57c0-1.6-0.5-2.3-1.6-2.3
			s-1.5,0.5-2.4,1.3v6.3H159L159,53.7L159,53.7L159,53.7z"/>
		<path class="st0" d="M169.1,59.7v-4.8h-1.3v-1.1h1.4l0.2-2.5h1.2v2.4h2.4v1.2h-2.4v4.8c0,1.1,0.3,1.7,1.3,1.7s0.7-0.1,1-0.2
			l0.3,1.1c-0.5,0.2-1.1,0.3-1.6,0.3C169.7,62.6,169.1,61.4,169.1,59.7L169.1,59.7L169.1,59.7z"/>
		<path class="st0" d="M173.9,60.2c0-1.9,1.6-2.8,5.4-3.2c0-1.1-0.4-2.2-1.8-2.2s-1.9,0.5-2.6,0.9l-0.6-1c0.8-0.5,2-1.1,3.4-1.1
			c2.1,0,3,1.4,3,3.6v5.3h-1.2v-1h-0.2c-0.8,0.7-1.8,1.2-2.9,1.2S173.9,61.8,173.9,60.2L173.9,60.2L173.9,60.2z M179.3,60.3v-2.4
			c-2.9,0.3-3.9,1.1-3.9,2.2s0.7,1.4,1.5,1.4S178.4,61.1,179.3,60.3L179.3,60.3z"/>
		<path class="st0" d="M183.5,60.7v-11h1.5v11.1c0,0.5,0.2,0.6,0.4,0.6s0.1,0,0.3,0l0.2,1.1c-0.2,0-0.5,0.1-0.9,0.1
			C183.9,62.6,183.5,61.9,183.5,60.7C183.5,60.7,183.5,60.7,183.5,60.7z"/>
		<path class="st0" d="M191.8,50.7h2.9c3.6,0,5.5,2.1,5.5,5.8s-1.9,5.9-5.5,5.9h-3V50.7l0,0H191.8z M194.6,61.2
			c2.8,0,4.1-1.7,4.1-4.7s-1.4-4.6-4.1-4.6h-1.3v9.3H194.6z"/>
		<path class="st0" d="M202.4,51c0-0.6,0.4-0.9,1-0.9s1,0.3,1,0.9s-0.4,0.9-1,0.9S202.4,51.5,202.4,51z M202.6,53.7h1.5v8.7h-1.5
			V53.7z"/>
		<path class="st0" d="M206.1,61.4l0.7-1c0.8,0.6,1.5,1,2.6,1s1.7-0.6,1.7-1.4s-1-1.3-2-1.7c-1.2-0.5-2.6-1-2.6-2.5s1.1-2.5,3-2.5
			s2,0.5,2.7,1l-0.7,0.9c-0.6-0.5-1.2-0.8-2-0.8s-1.6,0.6-1.6,1.2s0.9,1.1,1.9,1.5c1.3,0.5,2.7,1,2.7,2.6s-1.1,2.6-3.2,2.6
			s-2.4-0.5-3.2-1.2l0,0L206.1,61.4z"/>
		<path class="st0" d="M213.9,58.1c0-2.9,2-4.6,4.2-4.6s1.9,0.5,2.5,1l-0.8,1c-0.5-0.5-1-0.8-1.7-0.8c-1.6,0-2.7,1.4-2.7,3.4
			s1.1,3.3,2.7,3.3s1.5-0.4,2.1-0.9l0.6,1c-0.8,0.7-1.8,1.1-2.8,1.1C215.7,62.6,213.9,60.9,213.9,58.1L213.9,58.1z"/>
		<path class="st0" d="M221.6,58.1c0-2.9,1.9-4.6,4-4.6s4,1.7,4,4.6s-1.9,4.5-4,4.5S221.6,60.9,221.6,58.1z M228.2,58.1
			c0-2-1-3.4-2.5-3.4s-2.5,1.4-2.5,3.4s1,3.3,2.5,3.3S228.2,60.1,228.2,58.1z"/>
		<path class="st0" d="M230.6,53.7h1.5l1.6,5c0.3,0.8,0.5,1.7,0.8,2.6l0,0c0.3-0.8,0.5-1.7,0.8-2.6l1.6-5h1.4l-3.1,8.7h-1.7
			l-3.1-8.7l0,0H230.6z"/>
		<path class="st0" d="M239.5,58.1c0-2.8,1.9-4.6,3.9-4.6s3.5,1.6,3.5,4.1s0,0.6,0,0.8H241c0.1,1.9,1.2,3,2.9,3s1.5-0.3,2.2-0.7
			l0.5,1c-0.8,0.5-1.7,0.9-2.9,0.9C241.4,62.6,239.5,60.9,239.5,58.1L239.5,58.1z M245.6,57.4c0-1.8-0.8-2.7-2.2-2.7s-2.3,1-2.5,2.7
			H245.6z"/>
		<path class="st0" d="M249,53.7h1.2v1.6h0.2c0.6-1.1,1.5-1.8,2.5-1.8s0.7,0,0.9,0.2l-0.3,1.3c-0.3-0.1-0.5-0.1-0.9-0.1
			c-0.7,0-1.6,0.5-2.2,2v5.6h-1.5L249,53.7L249,53.7L249,53.7z"/>
		<path class="st0" d="M254.8,66l0.3-1.2c0.2,0,0.4,0.1,0.7,0.1c1,0,1.6-0.8,2-1.9l0.2-0.7l-3.5-8.7h1.5l1.8,4.8
			c0.3,0.8,0.6,1.7,0.8,2.4l0,0c0.2-0.8,0.5-1.7,0.7-2.4l1.5-4.8h1.4l-3.3,9.4c-0.6,1.7-1.5,3-3.2,3s-0.8,0-1-0.2l0,0L254.8,66z"/>
		<path class="st0" d="M267.1,56.6c0-3.8,2.2-6.1,5.2-6.1s2.5,0.7,3.2,1.5l-0.8,1c-0.6-0.7-1.4-1.1-2.4-1.1c-2.2,0-3.7,1.8-3.7,4.8
			s1.4,4.8,3.6,4.8s2-0.5,2.7-1.3l0.8,0.9c-0.9,1.1-2.1,1.7-3.6,1.7c-2.9,0-5.1-2.3-5.1-6.1l0,0L267.1,56.6z"/>
		<path class="st0" d="M277.2,58.1c0-2.8,1.9-4.6,3.9-4.6s3.5,1.6,3.5,4.1s0,0.6,0,0.8h-5.9c0.1,1.9,1.2,3,2.9,3s1.5-0.3,2.2-0.7
			l0.5,1c-0.8,0.5-1.7,0.9-2.9,0.9C279.1,62.6,277.2,60.9,277.2,58.1L277.2,58.1z M283.3,57.4c0-1.8-0.8-2.7-2.2-2.7s-2.3,1-2.5,2.7
			H283.3z"/>
		<path class="st0" d="M286.7,53.7h1.2v1.2h0.2c0.8-0.8,1.7-1.5,2.9-1.5c1.8,0,2.7,1.2,2.7,3.4v5.5h-1.5V57c0-1.6-0.5-2.3-1.6-2.3
			s-1.5,0.5-2.4,1.3v6.3h-1.5L286.7,53.7L286.7,53.7L286.7,53.7z"/>
		<path class="st0" d="M296.7,59.7v-4.8h-1.3v-1.1h1.4l0.2-2.5h1.2v2.4h2.4v1.2h-2.4v4.8c0,1.1,0.3,1.7,1.3,1.7s0.7-0.1,1-0.2
			l0.3,1.1c-0.5,0.2-1.1,0.3-1.6,0.3C297.3,62.6,296.7,61.4,296.7,59.7L296.7,59.7z"/>
		<path class="st0" d="M301.6,58.1c0-2.8,1.9-4.6,3.9-4.6s3.5,1.6,3.5,4.1s0,0.6,0,0.8h-5.9c0.1,1.9,1.2,3,2.9,3s1.5-0.3,2.2-0.7
			l0.5,1c-0.8,0.5-1.7,0.9-2.9,0.9C303.5,62.6,301.6,60.9,301.6,58.1L301.6,58.1z M307.7,57.4c0-1.8-0.8-2.7-2.2-2.7s-2.3,1-2.5,2.7
			H307.7z"/>
		<path class="st0" d="M311.1,53.7h1.2v1.6h0.2c0.6-1.1,1.5-1.8,2.5-1.8s0.7,0,0.9,0.2l-0.3,1.3c-0.3-0.1-0.5-0.1-0.9-0.1
			c-0.7,0-1.6,0.5-2.2,2v5.6H311L311.1,53.7L311.1,53.7L311.1,53.7z"/>
	</g>
</g>
</svg>
