<?xml version="1.0" encoding="UTF-8"?>
<svg id="_圖層_2" data-name="圖層 2" xmlns="http://www.w3.org/2000/svg" width="319.9" height="79.9" xmlns:xlink="http://www.w3.org/1999/xlink" viewBox="0 0 319.9 79.9">
  <defs>
    <filter id="drop-shadow-1" filterUnits="userSpaceOnUse">
      <feOffset dx="0" dy="0"/>
      <feGaussianBlur result="blur" stdDeviation="2"/>
      <feFlood flood-color="#000" flood-opacity=".75"/>
      <feComposite in2="blur" operator="in"/>
      <feComposite in="SourceGraphic"/>
    </filter>
  </defs>
  <g id="_第一cut" data-name="第一cut">
    <g id="logo" style="filter: url(#drop-shadow-1);">
      <path d="M31.94,3l-.27.39-.87,1.16h0l-.29.39h0l-.37.48h0l-.4.56h0l-.37.48-.77,1.05-.6.77-1.43,1.92-.31.4v.1l-.23.27v.1l-.39.5-1.45,1.71-.29.4h0l-.79,1.05-.76,1.03-.35.53h-.1l-.29.37-2.42,3.22h0l-.68.89h0l-.73.97h0l-.74,1-.11.16-.95,1.19-.29.47h17.91l-.81,1.24v.1l-.52.66v.1l-.19.31h0l-.29.39h0l-.87,1.16-.95,1.24-.5.68-.45.73-.48.68-1.14,1.61-.29.39-.77,1.06v.1l-.39.48-.29.39-.48.66-.29.39-.77,1.06h0l-.6.77-.18.26-2.37,2.9-.52.66-.29.39-1.14,1.61-.37.48h0l-.77,1.06h0l-.87,1.14h0l-.31.39-.6.76c-.08.15-.16.29-.23.44h17.88v15.44c0,.73.1.64-.63.64H0V.99h.1c.2.05.4.08.6.1h30.63c.6,0,1.18,0,1.76.1l-.56,1v.15h0l-.58.68Z" style="fill: #fff; stroke-width: 0px;"/>
      <path d="M68.06,39.23h0l.48-.27,1.05-.6,1.16-.87h0l.97-.92,2.68-3.22.48-.74.55-1.26.61-1.45.5-2.18v-.5h.08l.13-2.5h-19.46l-1.16.16-3.22.89-1.16.47h0l-.29.18-1.35.79-2.13,1.61-.1.16-.73.71h0l-.29.32-.74.77-1.08,1.61c.15.4-.16.53-.39.69l-.84,1.61-.19.56-.4,1.61-.18.87-.11.76v1.05q0,.98,1.05.98h16.96l-.21-.15h.21c-.17-.05-.35-.08-.53-.1h-17.07v-.1h17.09c.21.02.42.06.63.13h-.1v.52h.29l1.29-.1,2.48-.39h0l.52-.16.37-.11,2.16-.85Z" style="fill: #fff; stroke-width: 0px;"/>
      <path d="M70.93,61.38l-.58.55-.98.64h0l-1.61.87h0l-1.13.5h0l-2.9.84h-.18l-1.16.18h-19.62v-.74l.55-3.39.4-1.34.15-.5h0l2.22-3.85.31-.37.42-.5,1.61-1.61.11-.11.5-.35.45-.32.79-.55,3.68-1.72h.16l1.34-.29.48-.1.5-.16h.97c.1,0,.21.16.32.18h18.47c.26,0,.5.14.63.37v.48l-.18,1.35-.08.48h0l-.19.89v.34c-.16.47-.31.92-.45,1.37-.01.03-.01.07,0,.1l-.4.97-.18.32-.69,1.29-.55.9h0l-.48.66-.69.87-2,1.76Z" style="fill: #fff; stroke-width: 0px;"/>
      <path d="M51.02,2.53l1.84-.85h.29l.47-.15.6-.26.56-.13,1.13-.19h1.87-.5,1.37v.1h-.61v.1h17.73c.19-.02.37-.05.55-.1h0c.29,0,.42,0,.4.37-.02.37,0,.79,0,1.19l-.18,1.32-.11.48-.4,1.72h0l-.31.79-.11.44-.45.79v.18l-.68,1.24-.82,1.08-.52.64-.64.81h0l-1.45,1.34-.32.27h0l-.77.56-.58.39-.29.18s-.07-.01-.1,0l-.58.34h0l-.4.19h-.18l-.27.13-.19.1-2.13.76h0l-.87.18-.66.11-1.14.18s-.1-.15-.13-.15h-18.54c-.19.02-.37.05-.55.1h-.37v-.97l.11-1.71c.13-.55.26-1.1.37-1.61,0-.03,0-.06,0-.1l.68-1.92.45-.97.31-.56h0M44.96,8.95l.29-.5h0l.56-.87.48-.56.66-.77.31-.31.56-.66h0l.97-.84h0l.77-.61-4.61,5.13Z" style="fill: #fff; stroke-width: 0px;"/>
      <path d="M87.57,33.23c-.08-.41.14-.65.67-.73,1.26-.53,2.32-1.28,3.17-2.26l.06-4.15c.16-1.38.26-2.81.31-4.27,0-.28-.11-.43-.34-.43s-.46.02-.7.06l-1.65.73c-.57.24-.88.04-.92-.61-.2-.45-.02-.73.55-.85.49-.12.83-.2,1.04-.24.33-.12.61-.18.85-.18l1.1-.31c.32-2.16.49-4.33.49-6.53l-.85.18c-.24.04-.49.06-.73.06-.12,0-.43-.03-.92-.09-.49-.06-.77-.09-.85-.09,0-.12-.04-.24-.12-.37-.16-.53.1-.81.79-.85.33.12.67.13,1.04.03.37-.1.69-.13.98-.09.12,0,.43,0,.92-.03.49-.02.81-.05.98-.09h1.53s.31-.02.79-.06c.49-.04.77-.06.85-.06.81.04,1.63,0,2.44-.12.32,0,.67-.02,1.04-.06.37-.04.71-.06,1.04-.06h.49c.28.16.33.35.12.55.16.24.14.49-.06.73-.24.12-.53.14-.85.06-.65-.08-1.26-.02-1.83.18-.2.69-.28,1.42-.24,2.2-.04.9-.06,1.79-.06,2.69.65-.08,1.28-.24,1.89-.49.45.08.67.37.67.85-.53.33-1.14.57-1.83.73-.61.12-.96.47-1.04,1.04l-.06,7.02c.57-.28,1.16-.53,1.77-.73.69-.45,1.46-.79,2.32-1.04.24.08.45.06.61-.06.33.24.39.51.18.79l-13.18,9.95c-.24.24-.49.37-.73.37-.49-1.1-1.06-2.22-1.71-3.36ZM89.33,34.39c0,.08.06.12.18.12.24-.08.18-.12-.18-.12ZM91.96,28.78l.12,1.65c.28-.57.37-1.2.24-1.89-.04-1.1,0-2.22.12-3.36-.08-.28-.18-.31-.3-.06.04.45,0,.88-.12,1.28.04.81.02,1.61-.06,2.38ZM92.45,19.62l.06.12c.32-.98.45-2.01.37-3.11h-.12l-.31,2.99ZM93.49,23.47l.12.24.43-1.95c-.37.16-.51.51-.43,1.04.04.24,0,.47-.12.67ZM93.97,21.51c.12-.04.16-.18.12-.43-.12.04-.16.18-.12.43ZM94.71,30.12c-.12,0-.2.04-.24.12.08.29.16.24.24-.12ZM94.89,26.15l.12-.24c-.08-.2-.12-.12-.12.24ZM95.07,13.95c.12.29.22.08.31-.61-.41.04-.51.24-.31.61ZM95.68,15.04c-.08.24-.12.43-.12.55.12-.12.16-.31.12-.55ZM95.8,26.34l.06.24c.12-.45.14-.89.06-1.34l-.12,1.1ZM97.15,21.7l.18.31v-1.16c-.16.24-.22.53-.18.85ZM104.35,16.94l.06-.24c1.02-.24,2.05-.33,3.11-.24.08,0,.3-.03.67-.09.37-.06.59-.09.67-.09h1.71c.16,0,.37-.02.61-.06l2.69-.06c.57-.08,1.13-.12,1.68-.12s1.1-.05,1.65-.15c.55-.1,1.07-.15,1.56-.15,1.71-.2,3.42-.31,5.13-.31.04,0,.24-.02.61-.06.28,0,.49-.02.61-.06l2.5-.31c.45-.04.93-.06,1.43-.06s1.01-.08,1.5-.24c.12,0,.37,0,.73-.03.37-.02.61-.05.73-.09l.49-.06c.65-.16,1.12.04,1.4.61-.94.65-2.03.94-3.3.85-.53.04-1.1.02-1.71-.06-.37.04-.67.08-.92.12l-2.08.18c-.24.04-.45.06-.61.06-.61.12-1.26.16-1.95.12-.49,0-.94.04-1.34.12l-1.59.12c-.37.04-.73.06-1.1.06h-1.1c-.37.04-.57.06-.61.06l-3.23.24c-.49.08-.98.12-1.46.12-1.51.2-3.05.33-4.64.37-.49.08-.92.12-1.28.12l-2.5.24c-.12-.28-.16-.59-.12-.92ZM106.36,11.38c.32-3.21.57-6.43.73-9.64-.16-.53.02-.92.55-1.16.28-.12.61-.18.98-.18l.61.12c.12,0,.44.02.95.06.51.04.89.06,1.13.06l.98.12c.37.04.61.06.73.06.2-.08.39-.06.55.06l7.32.24c2.56.29,5.13.45,7.69.49.24.04.53.06.85.06,1.14-.08,2.24.12,3.3.61.28,0,.43.16.43.49.12,1.14,0,2.26-.37,3.36,0,1.51-.18,2.99-.55,4.46.04.49-.08.9-.37,1.22-.73.24-1.49.33-2.26.24-.33.16-.69.22-1.1.18-.37.04-.61.06-.73.06l-2.87-.06c-.85,0-1.67.02-2.44.06-.85.04-1.67.06-2.44.06l-2.99-.06c-.33.04-.67.07-1.04.09-.37.02-.7.04-1.01.06-.3.02-.52.03-.64.03-.37.12-.75.1-1.16-.06-.24-.04-.51-.06-.79-.06-.85,0-1.65.03-2.38.09s-1.51.09-2.32.09c-.29,0-.59-.06-.92-.18-.37-.2-.51-.53-.43-.98ZM112.71,42.33l.12-1.4c.04-.94.08-1.89.12-2.87,0-.73-.08-1.46-.24-2.2l-5.13,4.03c-.24.29-.51.43-.79.43-.37-.33-.31-.65.18-.98.33-.2.51-.45.55-.73,1.67-2.48,3.17-5.04,4.52-7.69.24-.24.41-.51.49-.79-.65.16-1.28.37-1.89.61-.24.16-.55.24-.92.24-.08-.12-.18-.26-.31-.43-.24.12-.43.06-.55-.18l.06-2.93c-.04-.81,0-1.63.12-2.44-.04-1.59-.02-3.21.06-4.88.04-.24.19-.42.46-.52.26-.1.48-.11.64-.03l2.68-.18c.77-.08,1.59-.12,2.44-.12h3.23c.04-.08.31-.12.79-.12.41-.04.67-.06.79-.06l3.05-.06s.31-.06.79-.06c.41.04.67.06.79.06.53-.12,1.1-.16,1.71-.12.45.24.77.59.98,1.04-.2.9-.37,1.77-.49,2.62l-1.16,4.88c-.37.29-.79.43-1.28.43-.37.16-.75.18-1.16.06-.24,0-.45.04-.61.12-.65.29-1.34.47-2.07.55-.33.12-.67.14-1.04.06-.2.16-.45.24-.73.24-.65.9-.9,1.95-.73,3.17.04,2.32.02,4.66-.06,7.02.81-.41,1.59-.87,2.32-1.4.28-.12.57-.08.85.12.37.16.43.39.18.67-2.69,1.55-5.39,3.05-8.12,4.52-.45-.04-.67-.26-.67-.67ZM108.8,2.35c.2.2.33.18.37-.06-.04-.33-.16-.31-.37.06ZM108.99,37.81c.2,0,.39-.08.55-.24-.29-.24-.47-.16-.55.24ZM109.23,11.38h.31c-.2-.33-.31-.33-.31,0ZM109.72,29.69c0,.08.04.12.12.12.28-.08.24-.12-.12-.12ZM110.21,11.14c-.08,0-.12.04-.12.12.08.24.12.2.12-.12ZM110.76,22.73c.24-.2.26-.45.06-.73l-.06.73ZM111.06,10.83l.12.55c.65.12,1.34.16,2.07.12.12,0,.18-.08.18-.24-.04-.24,0-.47.12-.67l.55-6.59c-.04-.61,0-1.18.12-1.71.16-.28.14-.53-.06-.73-1.02-.04-1.99,0-2.93.12.2.24.33.51.37.79-.37,2.24-.51,4.5-.43,6.77-.08.49-.12,1.02-.12,1.59ZM112.53,34.03l-1.04,1.34c.16.08.39-.08.67-.49.45-.33.57-.61.37-.85ZM113.14,33.48l-.37.31c.12.12.24.02.37-.31ZM113.02,25.6l.12.06.06-1.4c-.16.41-.22.85-.18,1.34ZM113.63,28.65l-.12.31,6.96-1.89c0-.65.08-1.3.24-1.95.33-1.67.57-3.34.73-5,.04-.16,0-.26-.12-.31l-2.07.31c-.45-.04-.92,0-1.4.12-.98,0-1.97.04-2.99.12-.33-.08-.55,0-.67.24.08.9,0,1.77-.24,2.62.04,1.55-.06,3.07-.31,4.58-.12.24-.12.53,0,.85ZM114.3,35.25c-.12.61-.16,1.26-.12,1.95h.12l.06-2.01-.06.06ZM115.4,31.34c.24.04.41-.18.49-.67-.2.12-.37.35-.49.67ZM115.58,32.81c0,.16.08.2.24.12,0-.45-.08-.49-.24-.12ZM116.86,9.31c.12.65.18,1.34.18,2.07.12,0,.43-.02.92-.06l1.22-.06c.24.04.47,0,.67-.12.41-2.2.75-4.41,1.04-6.65.12-.81.14-1.63.06-2.44l-2.93-.18-.24,2.2c-.2,1.75-.51,3.5-.92,5.25ZM117.17,35.55v.31c.2.33.27.27.21-.18-.06-.45-.13-.49-.21-.12ZM119.42,30.49c.28-.24.55-.24.79,0,.73.04,1.4.33,2.01.85.28.08.43.22.43.43.85.2,1.67.51,2.44.92l1.4-1.59c.89-1.5,1.83-2.97,2.81-4.39,1.5.45,2.81,1.22,3.91,2.32-1.38,1.83-2.89,3.6-4.52,5.31.49.29,1.02.49,1.59.61,1.55.53,3.03,1.1,4.46,1.71.24.24.26.59.06,1.04-.61,1.3-1.32,2.54-2.14,3.72-.57.24-.98.1-1.22-.43l-4.33-3.48c-1.75-1.02-3.36-2.28-4.82-3.78-1.18-.94-2.14-2.01-2.87-3.23ZM123.82,10.53c-.24.24-.45.41-.61.49l1.28-.12c.49-.04.77-.06.85-.06.94-.12,1.28-.75,1.04-1.89.16-.33.24-.67.24-1.04-.04-.28,0-.55.12-.79.41-1.55.59-3.11.55-4.7l-2.14-.06-.12.73c-.2.94-.37,1.89-.49,2.87-.24.16-.33.39-.24.67-.16,1.26-.33,2.56-.49,3.91ZM123.21,20.05c.08.04.14.08.18.12.2.2.31.14.31-.18-.2-.2-.37-.18-.49.06ZM124.37,19.99c-.04.33.02.51.18.55.08-.28.02-.47-.18-.55ZM125.53,20.11c.16.24.31.2.43-.12l-.43.12Z" style="fill: #ea8675; stroke-width: 0px;"/>
      <path d="M134.63,29.46c.52-.2,1.09-.32,1.69-.36.6.08,1.17,0,1.69-.24.36-.12.58-.18.66-.18l.42-.06.06-8.44c-.76-.16-1.61-.24-2.53-.24-.36,0-.66-.2-.9-.6.04-.24.18-.36.42-.36,1.05.04,2.07,0,3.08-.12.16-.88.18-1.79.06-2.71-.08-.2-.06-.42.06-.66.44-.88,1.29-1.21,2.53-.97.28.12.6.16.97.12.44-.08.88-.06,1.33.06.28.04.6.06.97.06.2.08.3.24.3.48.16,1.29.22,2.55.18,3.8.36.12.76.16,1.21.12.6,0,1.07.22,1.39.66,0,.4-.21.6-.63.6s-.75.02-1,.06h-1.03c-.16.52-.22,1.07-.18,1.63-.12.8-.14,1.65-.06,2.53.12.97.12,1.93,0,2.9.2.04.49.01.87-.09.38-.1.61-.15.69-.15l1.09-.3c.44-.04.88-.12,1.33-.24.2-.24.4-.26.6-.06-.28.64-.76,1.01-1.45,1.09-3.38,1.73-6.9,3.32-10.56,4.76-.28.2-.6.32-.97.36-.93-.68-1.61-1.61-2.05-2.77-.24-.16-.32-.38-.24-.66ZM142.95,17.21c0,.4.1.76.3,1.09l-.06-.84c-.08-.36-.16-.44-.24-.24ZM143.74,17.03c.16.32.22.2.18-.36-.16,0-.22.12-.18.36ZM143.74,27.77c.12.2.18.1.18-.3-.12-.2-.18-.1-.18.3ZM143.8,27.16c.12-.16.12-.36,0-.6v.6ZM143.92,23.85l.12-.72c.08-.32.06-.64-.06-.97l-.06,1.69ZM150.01,42.3c0-.52.22-.98.66-1.39.12-.2.26-.34.42-.42.6-1.09,1.25-2.13,1.93-3.14l3.74-6.94c.24-.28.12-.4-.36-.36-.28.08-.54.04-.78-.12-.24-.16-.48-.22-.72-.18-.44.04-.64-.24-.6-.84.04-.36,0-.74-.12-1.15.08-.32.06-.6-.06-.84l-.36-4.28c-.08-.97-.04-1.95.12-2.96.44-.44,1.09-.6,1.93-.48.28.04.48.06.6.06h1.51c.48,0,1.03.02,1.63.06l1.03.12c.36.04.7.06,1.03.06.44,0,.84-.02,1.21-.06l3.08.06c.76.08,1.51.12,2.23.12.44-.08.88-.06,1.33.06.32.08.66.12,1.03.12.72-.12,1.31.08,1.75.6.44.16.66.48.66.97-.12,2.86-.54,5.69-1.27,8.5,0,.36-.2.58-.6.66-.32.12-.64.16-.97.12-.52,0-.93.16-1.21.48.04,1.09,0,2.15-.12,3.2-.04.36-.04.78,0,1.27l-.06,1.57c.36.48.82.68,1.39.6l6.39-1.15c0-1.81-.06-3.64-.18-5.49,0-.32.12-.48.36-.48s.48-.05.72-.15c.24-.1.44-.15.6-.15.36-.12.68-.08.96.12.6,1.29,1.05,2.63,1.33,4.04.2.64.28,1.31.24,1.99-.8,1.13-2.01,1.63-3.62,1.51-.12,0-.36.02-.72.06l-.78.12c-.28-.08-.4-.08-.36,0-.88.08-1.75.26-2.59.54-.4.08-.76.12-1.09.12l-1.75.3c-.24.08-.48.12-.72.12h-2.05c-.4.04-.78.06-1.15.06-.36.12-.74.16-1.15.12-.44.08-.78-.06-1.03-.42-.56-.2-.87-.6-.91-1.21-.04-.72.02-1.45.18-2.17l.48-5.13c-.12-.16-.26-.16-.42,0-.93,1.69-2.05,3.24-3.38,4.64-.6.84-1.29,1.63-2.05,2.35-.24-.08-.39.01-.45.27-.06.26-.23.39-.51.39-1.41,1.45-2.92,2.77-4.52,3.98-.44-.08-.82.02-1.15.3-.36.2-.6.14-.72-.18ZM151.82,16.07l.12-.42c.2-.36.5-.54.91-.54.96,0,1.91.04,2.83.12.52,0,1.03-.02,1.51-.06h3.2c.52.04,1.09.06,1.69.06h.6c0-.08-.08-.2-.24-.36-.04-.84.14-1.65.54-2.41.12-.84.22-1.71.3-2.59.28-.6.48-1.27.6-1.99,0-.28.1-.42.3-.42l.42.18c.28-.16.54-.16.78,0,1.09-.2,2.03-.02,2.83.54-.28,2.09-.7,4.16-1.27,6.21-.12.52.1.7.66.54.52-.04,1.09-.06,1.69-.06,1.33-.2,2.67-.28,4.04-.24l.06-.12c.08,0,.2.08.36.24.52,0,.94.16,1.27.48.2.28.18.56-.06.84l-3.8.36c-.24-.08-.5-.12-.78-.12-.36.04-.74,0-1.15-.12-.36,0-.68.03-.97.09-.28.06-.58.09-.9.09-.2,0-.36-.02-.48-.06-.93-.04-1.85-.02-2.77.06-.12,0-.36-.02-.72-.06l-8.2.06c-.24.04-.5.06-.78.06-.44-.04-.88,0-1.33.12-.56.16-.99,0-1.27-.48ZM152.66,6.05l-.48-.48c.12-.24.28-.46.48-.66.64,0,1.27.04,1.87.12,1.45.04,2.87,0,4.28-.12l-3.5-4.52c0-.24.16-.36.48-.36,1.37-.08,2.71.06,4.04.42.97,1.21,2.01,2.35,3.14,3.44.08.32.06.64-.06.97l4.04-.06c.68-.04,1.33,0,1.93.12.36.36.32.66-.12.9-.72.2-1.49.26-2.29.18-1.33.04-2.65,0-3.98-.12-.48.04-.78.06-.9.06h-2.9c-.52.04-1.03.06-1.51.06h-.9c-.48,0-.92.03-1.3.09-.38.06-.79.09-1.24.09l-1.09-.12ZM157,13.65l-2.11-4.4c-.2-.24-.3-.5-.3-.78.28-.36.6-.54.97-.54,1.09-.36,1.95-.06,2.59.9.72.6,1.35,1.33,1.87,2.17.28.2.44.44.48.72-.68.68-1.45,1.35-2.29,1.99-.2.2-.4.22-.6.06-.24.04-.44,0-.6-.12ZM155.74,21.49c.16.28.2.22.12-.18-.08-.2-.12-.14-.12.18ZM158.81,29.09c0,.08.04.12.12.12l6.21.12c.16-.2.3-.48.42-.84l.54-5.73c-.04-.72.1-1.41.42-2.05,0-.2-.2-.3-.6-.3h-.72c-.12,0-.37-.02-.75-.06-.38-.04-.61-.06-.69-.06h-5.19c-.28-.12-.44-.06-.48.18,0,1.33.12,2.63.36,3.92l3.86.18c.28.04.48.06.6.06h.24s.24-.02.6-.06c.36-.04.7,0,1.03.12.32.24.32.46,0,.66-.28.32-.64.44-1.09.36-.12,0-.31,0-.57-.03-.26-.02-.54-.04-.84-.06-.3-.02-.57-.05-.81-.09l-2.35-.18c-.36-.12-.62-.08-.78.12l.06,2.47c.12.4.26.78.42,1.15ZM165.93,30.84h.12c-.04-.36-.08-.36-.12,0ZM168.34,31.51c.08-.24.12-.4.12-.48-.12.04-.16.2-.12.48ZM169.19,22.64c.08.24.14.16.18-.24-.08-.32-.14-.24-.18.24ZM169.25,23.12s-.06,0-.06.12c.04.24.06.2.06-.12ZM179.38,35.67c.2,0,.24-.08.12-.24-.08-.32-.12-.24-.12.24Z" style="fill: #bef286; stroke-width: 0px;"/>
      <path d="M194.33,35.79c-2.06-1.46-4.11-2.93-6.17-4.43.17-.26.26-.45.26-.58.9-.17,1.8.09,2.7.77.43-1.2.71-2.46.84-3.79.09-.68.13-1.37.13-2.06-1.07.47-2.19.88-3.34,1.22-.21.3-.51.45-.9.45-.34.17-.6.11-.77-.19l-.51-4.11c0-.34.17-.51.51-.51l3.09-.51c.04-.09.26-.14.64-.16.39-.02.62-.03.71-.03l1.22-.26.64-4.95c.17-.64.21-1.29.13-1.93-.86-.04-1.71.02-2.57.19-.26.09-.53.13-.8.13s-.57.02-.87.06h-1.16c-.09-.64.13-1.11.64-1.41.26.04.47,0,.64-.13.64-.13,1.31-.18,1.99-.16.68.02,1.35.01,1.99-.03l.45-.19c.17-1.5.43-2.98.77-4.43-.13-.43.04-.77.51-1.03.81,0,1.63-.15,2.44-.45.39.09.76.02,1.12-.19.36-.21.78-.26,1.25-.13.39-.09.75,0,1.09.26,0,1.5-.15,2.98-.45,4.43-.21.69-.09,1.09.39,1.22.21-.13.46-.2.74-.22.28-.02.55-.03.8-.03h.32c.3-.04.45.06.45.32.3.34.28.66-.06.96-.26.13-.47.19-.64.19l-.58-.13c-.13.04-.4.05-.8.03-.41-.02-.76.12-1.06.42l-.39,2.63c-.3,1.07-.49,2.19-.58,3.34.26,0,.48-.05.67-.16.19-.11.42-.16.67-.16l.64-.06c.47-.21.94-.19,1.41.06.3-.17.49-.17.58,0,.26.3.47.32.64.06,0,.51-.24.81-.71.9-.39-.04-.66.09-.84.39l-3.53,1.48-.32,2.76c-.51,3.3-.96,6.6-1.35,9.9-.04.51-.3.79-.77.84-.6-.21-1.24-.41-1.93-.58ZM188.74,25.83c-.13,0-.19.11-.19.32.21.04.28-.06.19-.32ZM191.76,24.87c-.22.04-.36.15-.45.32.3,0,.45-.11.45-.32ZM194.58,18.44l.13-.13c.04-.39,0-.34-.13.13ZM195.61,15.35c.26-.04.36-.3.32-.77-.26.13-.36.39-.32.77ZM196.06,18.76c-.09.09-.13.19-.13.32.09.13.13.02.13-.32ZM197.54,17.99c-.09.13-.13.3-.13.51.13.17.17,0,.13-.51ZM197.61,16.9l.06-.32c0-.13-.02-.02-.06.32ZM197.93,14.65c-.22.39-.26.81-.13,1.29l.13-1.29ZM218.75,44.08h-1.48c-.39.04-.6.06-.64.06l-2.83-.19c-.6-.17-.77-.6-.51-1.29.17-1.37.26-2.76.26-4.18.21-1.67.41-3.36.58-5.08l-2.44,2.25c-.9.64-1.84,1.2-2.83,1.67-1.29,1.03-2.7,1.93-4.24,2.7-.47-.04-.6-.3-.39-.77.17-.21.34-.36.51-.45.3-.26.51-.58.64-.96.47-.43.86-.94,1.16-1.54.3-.21.49-.47.58-.77l3.6-5.98c.26-.04.43-.17.51-.39l-4.63-.06c-.34-.3-.41-.75-.19-1.35.34-.13.66-.21.96-.26l3.66.06c.9.09,1.8.13,2.7.13h.9c.17-.3.26-.62.26-.96.04-1.2.13-2.42.26-3.66.26-.68.34-1.41.26-2.19.17,0,.26-.09.26-.26.13-.26.36-.28.71-.06,1.07-.13,2.12.02,3.15.45.77.09,1.52.3,2.25.64.3-.09.51,0,.64.26v4.56c-.21.6-.19,1.05.06,1.35.13,0,.43-.02.9-.06h1.03c.47.09.92.13,1.35.13l1.41.13c.39.04.66.06.84.06s.32.24.45.71l-.58.96c-.3.13-.56.11-.77-.06-.47-.17-.96-.15-1.48.06l3.73,7.33c-.9.99-1.82,1.97-2.76,2.96-.22.17-.43.32-.64.45-.22-.09-.43-.06-.64.06-1.46-2.48-2.61-5.18-3.47-8.1-.22.86-.32,1.76-.32,2.7-.39,2.01-.64,4.07-.77,6.17.17.64.11,1.26-.19,1.86-.04.17-.04.39,0,.64-.09.43-.28.53-.58.29-.3-.23-.62-.16-.96.23.09-.04,0-.13-.26-.26ZM226.33,10.47c-.09-.47,0-.88.26-1.22.09-1.41.28-2.81.58-4.18-.13-.3-.39-.36-.77-.19-.39-.13-.73-.13-1.03,0-1.63.04-3.28,0-4.95-.13-.26,0-.45-.06-.58-.19-.26,0-.54.02-.84.06-.26-.04-.47-.04-.64,0-.6-.13-1.24-.17-1.93-.13-.17-.13-.3-.13-.39,0l-1.67-.06c-.17,0-.39-.02-.64-.06-.81.04-1.63,0-2.44-.13l-1.61,6.43c-.17.39-.45.49-.84.32-.9.09-1.76.02-2.57-.19-.39-.13-.72-.2-1-.22-.28-.02-.42-.27-.42-.74l.84-5.78c.09-.77.47-1.18,1.16-1.22.68-.17,1.39-.21,2.12-.13.09.04.32.08.71.1.39.02.64.03.77.03l3.02.06c.81.09,1.61.13,2.38.13,1.11,0,2.23.11,3.34.32.43.04.71.06.84.06.6.04,1.16.06,1.67.06h1.67c.09.04.32.08.71.1.39.02.64.03.77.03l1.22.06c1.97-.13,3.9-.02,5.78.32.34-.04.66.04.96.26.43.13.73.36.9.71-.13.73-.54,1.46-1.22,2.19-1.59,1.33-3.13,2.7-4.63,4.11-.22-.13-.47-.19-.77-.19-.47,0-.73-.19-.77-.58ZM209.24,36.37c.39,0,.71-.19.96-.58-.43-.04-.75.15-.96.58ZM211.94,18.05c-.6-1.03-1.35-1.97-2.25-2.83-.26-.34-.28-.64-.06-.9,1.11-.73,2.12-1.58,3.02-2.57.39-.34.62-.51.71-.51.64-.39,1.24-.86,1.8-1.41.26-.3.6-.45,1.03-.45.21,0,.39.09.51.26.3.51.26,1.03-.13,1.54l-3.98,7.07-.64-.19ZM217.66,33.09l.19.13.06-1.35-.26,1.22ZM218.49,30.65c-.04.6,0,1.18.13,1.74l.26-2.38c0-.3-.06-.56-.19-.77-.17.43-.24.9-.19,1.41ZM220.23,39.07c.21.04.28-.13.19-.51-.17.09-.24.26-.19.51ZM223.12,18.57l-1.41-3.41c-.13-.94.3-1.65,1.29-2.12.21-.13.47-.19.77-.19.43.13.71.43.84.9,1.03,1.46,2.03,2.94,3.02,4.43.43.47.84.99,1.22,1.54,0,1.03-.38,1.86-1.12,2.51-.75.64-1.34,1.37-1.77,2.18-.51-.04-.77-.39-.77-1.03-.81-1.54-1.5-3.15-2.06-4.82ZM224.85,33.16c-.04.26.04.45.26.58,0-.3-.09-.49-.26-.58Z" style="fill: #f9cc3e; stroke-width: 0px;"/>
      <path d="M233.83,21.09c.14-.35.21-.72.21-1.11.18-1.16.25-2.33.21-3.49.11-.53.09-1.06-.05-1.59-.07-.28,0-.51.21-.69l2.81-.16c.32-.11.62-.12.9-.05l3.12-.26c.32,0,.64-.02.95-.05,1.27-.18,2.58-.3,3.92-.37-.07-.28-.04-.51.11-.69l.11-3.34c-.14-.21-.44-.28-.9-.21-.46,0-.9.03-1.32.08-.42.05-.85.08-1.27.08-.21,0-.45,0-.71-.03-.26-.02-.4-.17-.4-.45,0-.21.09-.34.26-.37h2.65c.25-.07.54-.11.87-.11s.61-.02.82-.05c.11-.81.16-1.64.16-2.49-.18-.6-.16-1.24.05-1.91.46-.49,1.08-.65,1.85-.48.32.04.64.09.95.16.39.04.64.05.74.05l1.69.37c.6-.11,1.15,0,1.64.32l-.16,2.81c-.07.39-.02.71.16.95.03,0,.21.02.53.05.39.04.78,0,1.17-.11.92-.25,1.55.02,1.91.79-.32.35-.74.41-1.27.16-.21-.11-.45-.15-.71-.13-.26.02-.55.04-.85.08-.3.04-.61.05-.93.05v1.59c-.11.71-.11,1.43,0,2.17l3.12-.05.11-.11c.32-.07.67-.11,1.06-.11h1.06c.39-.07.74-.11,1.06-.11s.67-.02,1.06-.05c.07,0,.27-.03.61-.08.34-.05.56-.08.66-.08l1.96-.11c.21.04.41,0,.58-.11.92-.03,1.8.02,2.65.16.25.39.23.81-.05,1.27-.35.42-.69.94-1.01,1.54-.95.92-1.87,1.87-2.75,2.86-.21.25-.48.37-.79.37,0,.04-.07.11-.21.21-.25.14-.41.09-.48-.16-.14-1.52.07-3.05.64-4.61.03-.35-.09-.51-.37-.48-.21.07-.42.11-.64.11-1.13.11-2.26.14-3.39.11-.53.18-1.04.26-1.54.26-.88,0-1.77.04-2.65.11-.39,0-.74.04-1.06.11l-1.85.32c-.25.11-.51.07-.79-.11-.39-.03-.74,0-1.06.11-.42-.11-.92-.07-1.48.11-.35-.07-.58.04-.69.32-.18.35-.39.35-.64,0-.11-.18-.25-.26-.42-.26l-2.17.16c-.32.07-.67.07-1.06,0-.21-.03-.39,0-.53.11-.88.07-1.78.12-2.7.16-.28,0-.48.14-.58.42l-.05,1.96c-.28.88-.42,1.8-.42,2.75.07.56-.11.95-.53,1.16-.99.14-1.94.37-2.86.69-.21.11-.46.16-.74.16-.42,0-.58-.23-.48-.69ZM236.16,15.95c-.18.39-.25.81-.21,1.27.18-.18.26-.42.26-.74.11-.21.09-.39-.05-.53ZM235.95,17.44v.48c.07-.21.07-.37,0-.48ZM236.16,20.67h.21c-.07-.21-.14-.21-.21,0ZM255.38,44.39l-.26.11-2.01-.95c-.28-.11-.48-.18-.58-.21-.64-.46-1.32-.78-2.06-.95-.28-.25-.58-.41-.9-.48-.32-.14-.34-.41-.05-.79.71-.14,1.34.05,1.91.58.03.11.21.16.53.16l.16-1.75c-.04-.28,0-.55.11-.79,0-2.08.07-4.16.21-6.25-.25-.07-.44,0-.58.19-.14.19-.34.26-.58.19-.18-.03-.42,0-.74.08-.32.09-.51.13-.58.13-.92.18-1.82.37-2.7.58-.14.14-.32.21-.53.21l-.26-.05c-.18-.25-.21-.53-.11-.85.07-.18.12-.37.16-.58.64-1.24,1.25-2.51,1.85-3.81.18-.35.07-.55-.32-.58-.32-.03-.6-.05-.85-.05l-4.77-.05c-.25-.11-.53-.11-.85,0-.6.11-1.16,0-1.69-.32-.18-.28-.14-.58.11-.9.42-.46.71-1.01.85-1.64.28-.42.44-.86.48-1.32l2.59-5.45c0-.21.07-.41.21-.58.39-.78.72-1.59,1.01-2.44.11-.39.35-.62.74-.69,1.66.25,3.23.74,4.71,1.48.78.11,1.41.35,1.91.74-.28.71-.71,1.32-1.27,1.85-.85,1.55-1.82,3.05-2.91,4.5-.18.18-.34.39-.48.64-.64.88-1.24,1.8-1.8,2.75-.18.21-.14.35.11.42h2.65c.46-.85.95-1.73,1.48-2.65,1.8,0,3.58.28,5.35.85-.18.81-.53,1.59-1.06,2.33-.49,1.02-1.02,2.01-1.59,2.97-.21.39-.16.49.16.32l5.24-1.43c.32-.11.51-.18.58-.21l.32-.05c-.28-.56-.67-1.06-1.16-1.48-.04-.32.11-.51.42-.58.25-.03.48-.05.69-.05,1.45.14,2.84.49,4.18,1.06.25-.07.42-.02.53.16.42,0,.81.14,1.16.42.11.64-.02,1.22-.37,1.75-.28.57-.58,1.11-.9,1.64-.04.35-.21.56-.53.64l-2.17-1.96c-.64-.32-1.34-.32-2.12,0l-.58,5.77c.04.53,0,1.04-.11,1.54.03.25,0,.44-.11.58l-.48,5.24c-.07.42-.37.64-.9.64l-.64-.21c-.25-.21-.51-.34-.79-.37ZM242.2,42.64c-.14,0-.21-.05-.21-.16-.04-.49-.19-.97-.48-1.43-.21-.35-.3-.72-.26-1.11-.07-1.06.53-1.71,1.8-1.96.28-.28.55-.42.79-.42.95-.67,1.96-1.2,3.02-1.59.18-.11.35-.12.53-.05.11-.21.28-.28.53-.21.39.39.32.81-.21,1.27-1.52,2.08-3,4.2-4.45,6.35-.14.11-.35.16-.64.16-.39-.07-.53-.35-.42-.85ZM243.1,23.1c-.11,0-.16.09-.16.26.11,0,.16-.09.16-.26ZM244.37,19.87c-.11,0-.18.05-.21.16,0,.28.07.23.21-.16ZM244.95,18.39c-.35.32-.55.78-.58,1.38l.58-1.38ZM244.42,22.15s-.05.05-.05.16c.14.07.16.02.05-.16ZM245.16,27.23c-.14.04-.21.11-.21.21.25,0,.32-.07.21-.21ZM245.27,24.53c-.07.32,0,.3.21-.05.28-.32.28-.48,0-.48-.04.21-.11.39-.21.53ZM245.64,25.7c-.11,0-.16.04-.16.11,0,.25.05.21.16-.11ZM247.12,18.97c-.14.04-.21.16-.21.37l.21-.37ZM247.39,23.26s-.05.02-.05.05c.04.14.05.12.05-.05ZM248.07,22.41c-.11,0-.18.05-.21.16-.07.32,0,.26.21-.16ZM250.56,5.31c0,.18.05.28.16.32.11-.21.05-.32-.16-.32ZM250.99,11.35l.11.85.05-.53c.07-.25.02-.35-.16-.32ZM251.99,10.66c-.11,0-.16.04-.16.11.07.32.12.28.16-.11ZM252.57,30.41c-.11.07-.16.18-.16.32.14-.03.19-.14.16-.32ZM253,29.61c-.07,0-.11.05-.11.16-.14.14-.21.3-.21.48.18-.21.28-.42.32-.64ZM253.05,37.34l.11.16.05-.9c.03-.21,0-.39-.11-.53l-.05,1.27ZM253.48,28.71l-.37.64c.03.18.12.11.26-.21.18-.18.21-.32.11-.42ZM253.26,42.22c.14.35.21.3.21-.16-.04-.18-.11-.12-.21.16ZM254.32,26.97c-.11.14-.18.32-.21.53.28-.18.35-.35.21-.53ZM254.48,26.33c0,.07-.02.12-.05.16,0,.25.09.16.26-.26-.25-.21-.32-.18-.21.11ZM254.8,43.12h.11l.11-1.96c.07-.35.02-.48-.16-.37.03.74.02,1.52-.05,2.33ZM254.96,40.52v-.21c.03-.25.03-.18,0,.21ZM255.17,32.53l.16,2.12.05-1.69c-.04-.28.02-.51.16-.69-.28-.07-.41.02-.37.26ZM255.86,40.15l.11-1.01c-.14.32-.18.65-.11,1.01ZM257.23,37.4l-.11.9c.11-.21.14-.51.11-.9ZM257.23,32.58c.11.04.12,0,.05-.11-.04-.21-.05-.18-.05.11ZM259.67,28.29c.14.25.28.34.42.26-.11-.21-.25-.3-.42-.26ZM261.15,38.46c.07-.21.05-.42-.05-.64-.11-.28-.16-.58-.16-.9.07-.95.64-1.45,1.69-1.48.21-.14.46-.19.74-.16.35.57.65,1.18.9,1.85.49.85.93,1.71,1.32,2.59.39.6.25,1.08-.42,1.43-.78.6-1.61,1.13-2.49,1.59-.18-.14-.35-.23-.53-.26l-1.01-4.02ZM264.49,13.73c-.11.04-.16.11-.16.21.07.11.12.04.16-.21Z" style="fill: #a4fbff; stroke-width: 0px;"/>
      <path d="M269.54,39.21l.12-.99c.21-.58.29-1.17.25-1.79.49-1.4.8-2.88.93-4.45-.04-.41.02-.78.18-1.11.08-1.4.27-2.82.56-4.26.04-.7.18-1.34.43-1.91-.04-.29-.04-.53,0-.74.21-.53.33-1.07.37-1.61-.08-1.07.29-1.85,1.11-2.35.33-.25.76-.39,1.3-.43.33-.08.63-.12.9-.12s.57-.02.9-.06l.37-.06c.21-.08.5-.13.89-.15.39-.02.63-.03.71-.03l.8-.12c.25,0,.47-.02.68-.06l1.67-.25c.33-.08.56-.12.68-.12l.25-.06c.49-.12,1.05-.19,1.67-.19.53-.04,1.11-.04,1.73,0l.31-.06c.62,1.03.64,2.16.06,3.4-.25,1.03-.52,2.04-.8,3.03-.12,1.48-.68,2.72-1.67,3.7-.58-.08-1.19.08-1.85.49-1.52.37-3.07.78-4.63,1.23-.78,0-1.4.29-1.85.86-.12,1.77-.45,3.48-.99,5.12-.04.33,0,.62.12.86,1.73-.53,3.44-1.15,5.12-1.85l-.49-1.54c-.29-.58-.27-1.05.06-1.42.86.33,1.69.76,2.47,1.3.7.54,1.34,1.11,1.91,1.73.25.29.41.6.49.93-.58.86-1.3,1.63-2.16,2.28-.12.29-.35.41-.68.37-.33.16-.56.06-.68-.31.16-.33.12-.68-.12-1.05.08-.25.02-.43-.18-.56-.08-.29-.25-.47-.49-.56-.25,0-.45.04-.62.12-2.88.95-5.74,2.02-8.58,3.21-.37.21-.64.31-.8.31-.37-.04-.52-.29-.43-.74ZM269.79,18.53l.56-1.48c-.04-.33.02-.62.18-.86.04-.21.12-.39.25-.56l1.11-3.4c1.11-3.05,2.1-6.15,2.96-9.32-.08-.37.04-.7.37-.99.49-.37,1.01-.36,1.54.03.53.39,1.03.67,1.48.83.99.17,1.77.66,2.35,1.48-.33.99-.78,1.96-1.36,2.9l2.22.68c1.36.41,2.63.93,3.83,1.54,1.44.25,2.78.74,4.01,1.48.12.12.37.19.74.19l.06.43c-.66,1.32-1.38,2.63-2.16,3.95-.45.62-.97.6-1.54-.06l-7.84-7.1c-1.52,2.35-3.13,4.65-4.82,6.92-.95,1.28-2.04,2.45-3.27,3.52-.25.25-.43.37-.56.37-.12-.12-.17-.31-.12-.56ZM271.27,16.98c-.21,0-.31.12-.31.37.21-.04.31-.16.31-.37ZM271.58,36.37c-.08.04-.12.19-.12.43.29-.12.33-.27.12-.43ZM272.07,29.89c-.16.21-.23.45-.18.74.16-.16.23-.41.18-.74ZM272.81,15.56l-.49.25c.04.33.21.25.49-.25ZM273.49,21.3c.12,0,.16-.14.12-.43l-.12.43ZM280.41,24.14c0,.21-.08.33-.25.37-1.19.45-2.35.97-3.46,1.54l-.86,3.21c.08.29.35.31.8.06,1.32-.33,2.65-.7,4.01-1.11.29-.99.49-2,.62-3.03.12-.58.16-1.17.12-1.79.33-1.19.58-2.41.74-3.64-.78,0-1.54.03-2.28.09-.74.06-1.5.22-2.28.46-.12.17-.18.31-.18.43-.04,1.32-.23,2.61-.56,3.89.49,0,.99-.14,1.48-.43.49-.29,1.01-.43,1.54-.43h.06c.25,0,.41.12.49.37ZM276.33,3.03c.21,0,.31-.08.31-.25-.21-.04-.31.04-.31.25ZM277.94,12.66c0-.16.08-.29.25-.37.33-.08.66-.06.99.06.25.29.49.41.74.37l2.28.99c.74.45.78,1.01.12,1.67-.86.62-1.75,1.21-2.65,1.79-.33-.25-.56-.58-.68-.99-.58-1.07-.93-2.24-1.05-3.52ZM278.06,3.77c.21.21.49.31.86.31-.21-.21-.49-.31-.86-.31ZM279.54,4.88c-.25.12-.35.35-.31.68.21-.25.31-.47.31-.68ZM281.71,26.68c-.04.12-.06.35-.06.68.25-.25.27-.47.06-.68ZM281.89,25.63c-.21.17-.27.43-.18.8.21-.25.27-.51.18-.8ZM285.1,10.19s.18.06.43.06l-.43-.06ZM289.05,12.11c.08-.04.12-.1.12-.19-.08-.25-.12-.19-.12.19ZM290.1,18.4c-.04-.21,0-.31.12-.31-.08-.37,0-.7.25-.99.16-.9.43-1.83.8-2.78.29-1.07.68-2.1,1.17-3.09.62,0,1.21-.08,1.79-.25.08,0,.31-.02.68-.06.37-.04.62-.06.74-.06s.35-.02.68-.06h2.1c.33.04.56.06.68.06.25-.12.49-.19.74-.19s.51-.02.8-.06c.37-.12.76-.19,1.17-.19.33-.08.68-.12,1.05-.12s.72-.02,1.05-.06l6.24-.62c1.11-.08,2.24-.12,3.4-.12h.86c.08.17.23.17.43,0,.45.86.21,1.73-.74,2.59l-2.72,2.84c-.25.25-.52.3-.8.15-.29-.14-.43-.36-.43-.65-.29-.53-.52-1.11-.68-1.73-.16-.33-.25-.68-.25-1.05,0-.45-.18-.74-.56-.86-.37,0-.69.04-.96.12-.27.08-.57.14-.9.19-.12,0-.33-.02-.62-.06-1.03.08-2.08.14-3.15.19-.37.12-.8.19-1.3.19l-1.61.06c-.12,0-.39.03-.8.09-.41.06-.66.09-.74.09-.49-.04-.99.02-1.48.19-.37-.04-.7,0-.99.12-.33.82-.49,1.71-.49,2.65-.17.25-.23.6-.19,1.05-.16.33-.29.7-.37,1.11-.21.45-.56.8-1.05,1.05-.62.04-1.19.19-1.73.43-.37-.16-.76-.1-1.17.19-.29.25-.6.37-.93.37l-.12-.43ZM291.95,14.45c-.21.33-.33.7-.37,1.11.25-.29.37-.66.37-1.11ZM292.2,13.59c-.08,0-.12.05-.12.15s.04.05.12-.15ZM294.67,15.07c-.08,0-.12.1-.12.31.12,0,.16-.1.12-.31ZM296.77,41.93c.16-1.56.23-3.13.19-4.69,0-.21.06-.35.18-.43l.06-3.89c-.08-.95-.06-1.91.06-2.9.12-1.52.1-3.07-.06-4.63-.08-1.19-.12-2.39-.12-3.58-.04-.99-.08-1.98-.12-2.96-.04-.33.02-.56.18-.68.53,0,1.07-.08,1.61-.25.53.08,1.05.12,1.54.12.7.08,1.38.1,2.04.06.49.04,1.03.06,1.61.06.66-.04,1.23,0,1.73.12h3.4l.8.8c.29,2.26.49,4.51.62,6.73l-1.48.49c-2.06.04-4.08.27-6.05.68v5.12c-.04.37,0,.62.12.74.33-.12.7-.14,1.11-.06.29,0,.49-.02.62-.06h.56c.29,0,.62-.02.99-.06.29-.04.62-.06.99-.06l1.73-.06c.7-.04,1.44-.08,2.22-.12.33,0,.75.03,1.27.09.51.06.9.28,1.14.65.21,2.22.27,4.49.18,6.79l-.37,1.23c-.16.37-.41.56-.74.56-1.32,0-2.63.1-3.95.31-.29-.04-.54.02-.74.19-.33-.12-.66-.13-.99-.03-.33.1-.68.15-1.05.15s-.7.02-.99.06l-2.47.25c-.37.04-.58.06-.62.06l-2.04.31c-.29,0-.56.04-.8.12-.37.08-.68.12-.93.12-.54.12-.95.02-1.23-.31.08-.41.02-.76-.19-1.05ZM298.19,41.06c-.04.21.02.33.19.37.08-.33.02-.45-.19-.37ZM298.25,41.93c.12,0,.16-.04.12-.12-.08-.29-.12-.25-.12.12ZM299.73,8.83l.19-.56c-.29-.66-.54-1.34-.74-2.04-.33-.7-.47-1.42-.43-2.16-.33-.16-.39-.37-.19-.62,1.93.21,3.72.89,5.37,2.04.29.21.6.33.93.37.08.25.06.47-.06.68-.91,1.19-1.96,2.31-3.15,3.33-.66,0-1.3-.35-1.91-1.05ZM298.62,35.38c-.04.17,0,.31.12.43.08-1.11,0-2.24-.25-3.4-.04.99,0,1.98.12,2.96ZM301.77,40.32v.25c.21.25.21.17,0-.25ZM301.89,22.72l.06.12v-1.36l-.06,1.23ZM302.82,25.94h.37c.04-.08.25-.12.62-.12l1.05-.19c.66.08,1.05-.19,1.17-.8.04-1.44.02-2.9-.06-4.38.04-.45-.02-.88-.18-1.3h-3.09c-.04,1.36-.02,2.7.06,4.01-.12.95-.1,1.87.06,2.78ZM303.13,41.25l.18.25,4.45-.31c.25-.37.35-.82.31-1.36.25-1.98.33-3.95.25-5.93h-2.96c-.37,0-.76.08-1.17.25-.25.08-.49.09-.74.03-.25-.06-.41.11-.49.52-.12,2.18-.06,4.36.19,6.54ZM309.12,33.96l-.18,3.46c-.04.37,0,.66.12.86.21-1.44.29-2.9.25-4.38-.12,0-.19.02-.19.06ZM310.29,38.35c.12-.12.16-.33.12-.62-.12.17-.16.37-.12.62ZM311.83,33.96c.04.25.19.47.43.68.12-.04.16-.23.12-.56-.17-.29-.35-.33-.56-.12ZM312.95,39.27c-.12.12-.12.31,0,.56v-.56ZM312.95,36.06c.21.08.27-.12.18-.62-.16.04-.23.25-.18.62Z" style="fill: #ea877d; stroke-width: 0px;"/>
      <g>
        <path d="M90.66,51.4h6.77v1.25h-5.28v3.68h4.45v1.26h-4.45v4.27h5.46v1.26h-6.95v-11.73Z" style="fill: #fff; stroke-width: 0px;"/>
        <path d="M99.94,54.44h1.2l.13,1.25h.05c.83-.82,1.73-1.47,2.91-1.47,1.82,0,2.66,1.18,2.66,3.41v5.51h-1.46v-5.31c0-1.63-.5-2.32-1.65-2.32-.9,0-1.5.45-2.39,1.33v6.31h-1.46v-8.69Z" style="fill: #fff; stroke-width: 0px;"/>
        <path d="M108.45,54.44h1.52l1.63,4.95c.27.85.54,1.74.82,2.56h.06c.26-.82.54-1.71.8-2.56l1.65-4.95h1.44l-3.09,8.69h-1.7l-3.14-8.69Z" style="fill: #fff; stroke-width: 0px;"/>
        <path d="M117.77,51.7c0-.59.43-.94,1.01-.94s1.01.35,1.01.94c0,.54-.43.94-1.01.94s-1.01-.4-1.01-.94ZM118.05,54.44h1.46v8.69h-1.46v-8.69Z" style="fill: #fff; stroke-width: 0px;"/>
        <path d="M122.45,54.44h1.2l.13,1.58h.05c.61-1.1,1.49-1.81,2.47-1.81.38,0,.66.05.93.19l-.27,1.28c-.29-.11-.5-.14-.85-.14-.72,0-1.62.51-2.19,2v5.59h-1.46v-8.69Z" style="fill: #fff; stroke-width: 0px;"/>
        <path d="M127.82,58.79c0-2.9,1.9-4.58,4.03-4.58s4.03,1.68,4.03,4.58-1.9,4.55-4.03,4.55-4.03-1.66-4.03-4.55ZM134.39,58.79c0-2-1.02-3.36-2.53-3.36s-2.51,1.36-2.51,3.36,1.01,3.33,2.51,3.33,2.53-1.33,2.53-3.33Z" style="fill: #fff; stroke-width: 0px;"/>
        <path d="M137.77,54.42h1.18l.11,1.2h.06c.67-.78,1.46-1.39,2.48-1.39,1.57,0,2.21,1.07,2.21,3.14v5.76h-1.47v-5.6c0-1.41-.32-2.05-1.26-2.05-.67,0-1.22.43-1.84,1.3v6.35h-1.47v-8.71ZM145.33,54.42h1.02l.11,1.07h.06c.3-.77.75-1.26,1.55-1.26.69,0,1.07.53,1.22,1.38.27-.82.78-1.38,1.52-1.38.91,0,1.46.82,1.46,2.34v6.56h-1.26v-6.34c0-.9-.26-1.31-.69-1.31s-.72.42-.98,1.2v6.45h-1.07v-6.34c0-.83-.21-1.31-.66-1.31s-.75.42-1.02,1.2v6.45h-1.26v-8.71Z" style="fill: #fff; stroke-width: 0px;"/>
        <path d="M153.52,58.79c0-2.82,1.9-4.58,3.92-4.58,2.21,0,3.46,1.6,3.46,4.08,0,.32-.03.62-.06.83h-5.86c.1,1.86,1.23,3.04,2.88,3.04.85,0,1.54-.26,2.18-.69l.53.96c-.77.5-1.7.9-2.88.9-2.3,0-4.16-1.68-4.16-4.55ZM159.62,58.09c0-1.76-.8-2.71-2.16-2.71-1.23,0-2.32.99-2.5,2.71h4.66Z" style="fill: #fff; stroke-width: 0px;"/>
        <path d="M163.04,54.44h1.2l.13,1.25h.05c.83-.82,1.73-1.47,2.91-1.47,1.82,0,2.66,1.18,2.66,3.41v5.51h-1.46v-5.31c0-1.63-.5-2.32-1.65-2.32-.9,0-1.5.45-2.39,1.33v6.31h-1.46v-8.69Z" style="fill: #fff; stroke-width: 0px;"/>
        <path d="M173.07,60.44v-4.82h-1.3v-1.1l1.36-.08.18-2.43h1.22v2.43h2.35v1.18h-2.35v4.85c0,1.07.34,1.68,1.34,1.68.3,0,.7-.11.99-.22l.29,1.09c-.5.16-1.07.32-1.6.32-1.86,0-2.48-1.15-2.48-2.9Z" style="fill: #fff; stroke-width: 0px;"/>
        <path d="M177.92,60.87c0-1.89,1.65-2.83,5.35-3.25,0-1.12-.37-2.19-1.79-2.19-1.01,0-1.92.46-2.61.93l-.58-1.01c.8-.51,2.03-1.14,3.43-1.14,2.11,0,3.01,1.42,3.01,3.57v5.35h-1.2l-.13-1.04h-.05c-.83.69-1.81,1.25-2.88,1.25-1.46,0-2.54-.9-2.54-2.46ZM183.26,61.02v-2.43c-2.93.35-3.92,1.07-3.92,2.19,0,.99.67,1.39,1.54,1.39s1.54-.4,2.39-1.15Z" style="fill: #fff; stroke-width: 0px;"/>
        <path d="M187.49,61.4v-11.01h1.46v11.11c0,.45.19.62.42.62.08,0,.14,0,.3-.03l.21,1.12c-.21.08-.46.13-.85.13-1.09,0-1.54-.7-1.54-1.94Z" style="fill: #fff; stroke-width: 0px;"/>
        <path d="M195.76,51.4h2.95c3.6,0,5.54,2.1,5.54,5.83s-1.94,5.91-5.47,5.91h-3.01v-11.73ZM198.58,61.91c2.77,0,4.13-1.73,4.13-4.69s-1.36-4.63-4.13-4.63h-1.33v9.32h1.33Z" style="fill: #fff; stroke-width: 0px;"/>
        <path d="M206.35,51.7c0-.59.43-.94,1.01-.94s1.01.35,1.01.94c0,.54-.43.94-1.01.94s-1.01-.4-1.01-.94ZM206.62,54.44h1.46v8.69h-1.46v-8.69Z" style="fill: #fff; stroke-width: 0px;"/>
        <path d="M210.05,62.14l.72-.96c.75.61,1.54,1.02,2.58,1.02,1.15,0,1.71-.61,1.71-1.36,0-.88-1.02-1.28-1.98-1.65-1.22-.45-2.59-1.04-2.59-2.51,0-1.38,1.1-2.46,2.99-2.46,1.07,0,2.02.45,2.71.98l-.7.94c-.61-.45-1.22-.77-2-.77-1.09,0-1.58.58-1.58,1.25,0,.83.94,1.14,1.92,1.5,1.26.48,2.66.99,2.66,2.64,0,1.41-1.12,2.58-3.17,2.58-1.23,0-2.42-.51-3.25-1.2Z" style="fill: #fff; stroke-width: 0px;"/>
        <path d="M217.85,58.79c0-2.9,1.97-4.58,4.19-4.58,1.14,0,1.92.48,2.54,1.02l-.75.98c-.51-.46-1.04-.78-1.74-.78-1.57,0-2.72,1.36-2.72,3.36s1.09,3.33,2.69,3.33c.8,0,1.5-.37,2.05-.86l.62.98c-.77.7-1.76,1.1-2.8,1.1-2.3,0-4.08-1.66-4.08-4.55Z" style="fill: #fff; stroke-width: 0px;"/>
        <path d="M225.61,58.79c0-2.9,1.9-4.58,4.03-4.58s4.03,1.68,4.03,4.58-1.9,4.55-4.03,4.55-4.03-1.66-4.03-4.55ZM232.18,58.79c0-2-1.02-3.36-2.53-3.36s-2.51,1.36-2.51,3.36,1.01,3.33,2.51,3.33,2.53-1.33,2.53-3.33Z" style="fill: #fff; stroke-width: 0px;"/>
        <path d="M234.64,54.44h1.52l1.63,4.95c.27.85.54,1.74.82,2.56h.06c.26-.82.54-1.71.8-2.56l1.65-4.95h1.44l-3.09,8.69h-1.7l-3.14-8.69Z" style="fill: #fff; stroke-width: 0px;"/>
        <path d="M243.52,58.79c0-2.82,1.9-4.58,3.92-4.58,2.21,0,3.46,1.6,3.46,4.08,0,.32-.03.62-.06.83h-5.86c.1,1.86,1.23,3.04,2.88,3.04.85,0,1.54-.26,2.18-.69l.53.96c-.77.5-1.7.9-2.88.9-2.3,0-4.16-1.68-4.16-4.55ZM249.62,58.09c0-1.76-.8-2.71-2.16-2.71-1.23,0-2.32.99-2.5,2.71h4.66Z" style="fill: #fff; stroke-width: 0px;"/>
        <path d="M253.04,54.44h1.2l.13,1.58h.05c.61-1.1,1.49-1.81,2.47-1.81.38,0,.66.05.93.19l-.27,1.28c-.29-.11-.5-.14-.85-.14-.72,0-1.62.51-2.19,2v5.59h-1.46v-8.69Z" style="fill: #fff; stroke-width: 0px;"/>
        <path d="M258.83,66.7l.29-1.17c.18.06.43.14.66.14.99,0,1.62-.8,1.97-1.87l.19-.66-3.49-8.71h1.52l1.78,4.83c.26.75.56,1.65.83,2.43h.08c.24-.78.5-1.66.74-2.43l1.55-4.83h1.42l-3.28,9.41c-.61,1.71-1.5,3.03-3.23,3.03-.42,0-.75-.06-1.02-.18Z" style="fill: #fff; stroke-width: 0px;"/>
        <path d="M271.08,57.27c0-3.79,2.22-6.1,5.2-6.1,1.42,0,2.55.7,3.22,1.46l-.8.96c-.61-.66-1.39-1.12-2.4-1.12-2.22,0-3.7,1.82-3.7,4.75s1.41,4.82,3.65,4.82c1.12,0,1.97-.5,2.72-1.31l.82.93c-.93,1.07-2.08,1.68-3.6,1.68-2.91,0-5.11-2.26-5.11-6.07Z" style="fill: #fff; stroke-width: 0px;"/>
        <path d="M281.18,58.79c0-2.82,1.9-4.58,3.92-4.58,2.21,0,3.46,1.6,3.46,4.08,0,.32-.03.62-.06.83h-5.86c.1,1.86,1.23,3.04,2.88,3.04.85,0,1.54-.26,2.18-.69l.53.96c-.77.5-1.7.9-2.88.9-2.3,0-4.16-1.68-4.16-4.55ZM287.28,58.09c0-1.76-.8-2.71-2.16-2.71-1.23,0-2.32.99-2.5,2.71h4.66Z" style="fill: #fff; stroke-width: 0px;"/>
        <path d="M290.7,54.44h1.2l.13,1.25h.05c.83-.82,1.73-1.47,2.91-1.47,1.82,0,2.66,1.18,2.66,3.41v5.51h-1.46v-5.31c0-1.63-.5-2.32-1.65-2.32-.9,0-1.5.45-2.39,1.33v6.31h-1.46v-8.69Z" style="fill: #fff; stroke-width: 0px;"/>
        <path d="M300.73,60.44v-4.82h-1.3v-1.1l1.36-.08.18-2.43h1.22v2.43h2.35v1.18h-2.35v4.85c0,1.07.34,1.68,1.34,1.68.3,0,.7-.11.99-.22l.29,1.09c-.5.16-1.07.32-1.6.32-1.86,0-2.48-1.15-2.48-2.9Z" style="fill: #fff; stroke-width: 0px;"/>
        <path d="M305.61,58.79c0-2.82,1.9-4.58,3.92-4.58,2.21,0,3.46,1.6,3.46,4.08,0,.32-.03.62-.06.83h-5.86c.1,1.86,1.23,3.04,2.88,3.04.85,0,1.54-.26,2.18-.69l.53.96c-.77.5-1.7.9-2.88.9-2.3,0-4.16-1.68-4.16-4.55ZM311.71,58.09c0-1.76-.8-2.71-2.16-2.71-1.23,0-2.32.99-2.5,2.71h4.66Z" style="fill: #fff; stroke-width: 0px;"/>
        <path d="M315.13,54.44h1.2l.13,1.58h.05c.61-1.1,1.49-1.81,2.47-1.81.38,0,.66.05.93.19l-.27,1.28c-.29-.11-.5-.14-.85-.14-.72,0-1.62.51-2.19,2v5.59h-1.46v-8.69Z" style="fill: #fff; stroke-width: 0px;"/>
      </g>
    </g>
  </g>
</svg>