<?xml version="1.0" encoding="utf-8"?>
<!-- Generator: Adobe Illustrator 28.2.0, SVG Export Plug-In . SVG Version: 6.00 Build 0)  -->
<svg version="1.1" id="_圖層_2" xmlns="http://www.w3.org/2000/svg" xmlns:xlink="http://www.w3.org/1999/xlink" x="0px" y="0px"
	 width="156.9px" height="185.2px" viewBox="0 0 156.9 185.2" style="enable-background:new 0 0 156.9 185.2;" xml:space="preserve"
	>
<style type="text/css">
	.st0{fill:url(#Flower_Part_00000119081405821860004240000017053365264466444473_);}
	.st1{fill:url(#Flower_Part_00000003799077905258742560000011711723566063381429_);}
	.st2{fill:url(#Flower_Part_00000051353064782462785330000004120095345959704746_);}
	.st3{fill:url(#Flower_Part_00000101095244939813870150000007032887529365607601_);}
	.st4{fill:url(#Flower_Part_00000152221830275194756080000004261825753768682889_);}
	.st5{fill:url(#Flower_Part_00000006691923033549372930000006557131580195221935_);}
	.st6{fill:url(#Flower_Part_00000142885672075303352730000003447093177107660679_);}
	.st7{fill:url(#Flower_Part_00000124120096874687396500000017761013932759708863_);}
	.st8{fill:url(#Flower_Part_00000181806907530396918000000013542684378305860249_);}
	.st9{fill:url(#Flower_Part_00000155141330316296571000000016898972353980576643_);}
	.st10{fill:url(#Flower_Part_00000153690203567790681910000013327930624493791373_);}
	.st11{fill:#FFFFFF;}
	.st12{fill:none;stroke:#FFFFFF;stroke-width:3.4682;stroke-linecap:round;stroke-linejoin:round;}
	.st13{fill:#CC7564;}
</style>
<g id="Flower_00000123437941481043822630000000205759797228897410_">
	
		<linearGradient id="Flower_Part_00000119826528992224608840000002336259081435809932_" gradientUnits="userSpaceOnUse" x1="217.1738" y1="-59.6807" x2="236.4317" y2="-110.7714" gradientTransform="matrix(0.8832 -0.469 0.469 0.8832 -98.3577 236.4766)">
		<stop  offset="0.4166" style="stop-color:#FFAF55"/>
		<stop  offset="1" style="stop-color:#FFD890"/>
	</linearGradient>
	
		<path id="Flower_Part_00000107571709718094606320000005779719162146372524_" style="fill:url(#Flower_Part_00000119826528992224608840000002336259081435809932_);" d="
		M66.9,100.7c0,0-20.5-9.5-29.1-30.3C26.3,42.8,59.2,38.5,69.3,44.1c11.3,6.2,22.3-1.9,19.3,13.7s-16.3,35.9-12.8,42
		c3.6,6,3.6,6,3.6,6L66.9,100.7z"/>
	
		<linearGradient id="Flower_Part_00000183241831083190629900000004654757396939450498_" gradientUnits="userSpaceOnUse" x1="131.1715" y1="-58.6747" x2="195.7854" y2="-58.6747" gradientTransform="matrix(0.8832 -0.469 0.469 0.8832 -98.3577 236.4766)">
		<stop  offset="0.4166" style="stop-color:#FFAF55"/>
		<stop  offset="1" style="stop-color:#FFD890"/>
	</linearGradient>
	
		<path id="Flower_Part_00000158746516081853212670000004830641297622814379_" style="fill:url(#Flower_Part_00000183241831083190629900000004654757396939450498_);" d="
		M74,106.1c0,0-16.4-7.3-26.5-16.8c-10.1-9.5-21.4-22-32.5-3.4s1.8,27.2-2.1,35.1c-3.8,7.8,1.7,15.1,24.8,4.5
		C60.7,114.8,74,106.1,74,106.1z"/>
	
		<linearGradient id="Flower_Part_00000182507868645136672740000000775809411926145688_" gradientUnits="userSpaceOnUse" x1="234.6646" y1="-40.6545" x2="295.0307" y2="-40.6545" gradientTransform="matrix(0.8832 -0.469 0.469 0.8832 -98.3577 236.4766)">
		<stop  offset="0.4166" style="stop-color:#FFAF55"/>
		<stop  offset="1" style="stop-color:#FFD890"/>
	</linearGradient>
	
		<path id="Flower_Part_00000111189371789843697360000007593230155142649757_" style="fill:url(#Flower_Part_00000182507868645136672740000000775809411926145688_);" d="
		M80.6,103.3c0,0-4.4-6.7,4.1-28.6c8.5-21.9,13.8-24.4,27.3-21.4c13.5,3,16.2,8.2,21,24c4.8,15.8,11.8,20.1-10.2,26.6
		C100.8,110.3,80.6,103.3,80.6,103.3z"/>
	
		<linearGradient id="Flower_Part_00000072971953261471221860000001048956758991647674_" gradientUnits="userSpaceOnUse" x1="153.3412" y1="4.2795" x2="199.8506" y2="-13.5314" gradientTransform="matrix(0.8832 -0.469 0.469 0.8832 -98.3577 236.4766)">
		<stop  offset="0.4166" style="stop-color:#FFAF55"/>
		<stop  offset="1" style="stop-color:#FFD890"/>
	</linearGradient>
	
		<path id="Flower_Part_00000051374020628287201170000004140494545084893843_" style="fill:url(#Flower_Part_00000072971953261471221860000001048956758991647674_);" d="
		M73.8,108.8c0,0-10.5,9.9-19.4,12.9c-8.9,3.1-20.6,3.4-21.6,11.8c-1,8.5,19.3,22.2,21.6,25.7c2.4,3.4,22.4,15.7,32-2.1
		C96.1,139.3,73.8,108.8,73.8,108.8z"/>
	
		<linearGradient id="Flower_Part_00000137125107624934398400000008916425514312652210_" gradientUnits="userSpaceOnUse" x1="219.4377" y1="-14.0498" x2="254.3593" y2="28.1647" gradientTransform="matrix(0.8832 -0.469 0.469 0.8832 -98.3577 236.4766)">
		<stop  offset="0.4166" style="stop-color:#FFAF55"/>
		<stop  offset="1" style="stop-color:#FFD890"/>
	</linearGradient>
	
		<path id="Flower_Part_00000171709041372271644270000014015492744753391245_" style="fill:url(#Flower_Part_00000137125107624934398400000008916425514312652210_);" d="
		M76,107.6c0,0,12.6,29.9,14.6,37.4c2,7.5,9.5,11.6,25.7,0.1c16.2-11.6,10-19.1,19.2-26.7C144.7,110.8,97.4,98.1,76,107.6z"/>
	
		<linearGradient id="Flower_Part_00000163037954289778576230000003054978314496886666_" gradientUnits="userSpaceOnUse" x1="213.5441" y1="-45.0677" x2="204.9017" y2="-84.532" gradientTransform="matrix(0.8832 -0.469 0.469 0.8832 -98.3577 236.4766)">
		<stop  offset="0" style="stop-color:#FFAF55"/>
		<stop  offset="1" style="stop-color:#FFD890"/>
	</linearGradient>
	
		<path id="Flower_Part_00000150816744693644816060000004599248921810847643_" style="fill:url(#Flower_Part_00000163037954289778576230000003054978314496886666_);" d="
		M68.8,102.4c0,0-17,0.7-29.8-10.2c-17.1-14.5,3.4-28.6,12.1-28.4c9.6,0.3,14.2-8.9,17.6,2.6C72,77.9,70,96,74.5,98.8
		c4.4,2.8,4.4,2.8,4.4,2.8L68.8,102.4z"/>
	
		<linearGradient id="Flower_Part_00000118374953109375868850000001227250098675929535_" gradientUnits="userSpaceOnUse" x1="168.0601" y1="-38.3771" x2="220.4758" y2="-38.3771" gradientTransform="matrix(0.8832 -0.469 0.469 0.8832 -98.3577 236.4766)">
		<stop  offset="0" style="stop-color:#FFD890"/>
		<stop  offset="0.8252" style="stop-color:#FFAF55"/>
	</linearGradient>
	
		<path id="Flower_Part_00000055667295218789179040000015968679060741092494_" style="fill:url(#Flower_Part_00000118374953109375868850000001227250098675929535_);" d="
		M80.6,103.3c0,0-18.6,1-28.6-1.9c-10-2.9-21.9-7.4-22.9,8.9c-1.1,16.2,10.5,17.6,10.6,24.1c0.1,6.6,6.3,9.5,18.1-5.5
		C69.5,114,80.6,103.3,80.6,103.3z"/>
	
		<linearGradient id="Flower_Part_00000177446336519113550720000014821424225915914380_" gradientUnits="userSpaceOnUse" x1="218.0767" y1="-34.7345" x2="252.8969" y2="-61.6192" gradientTransform="matrix(0.8832 -0.469 0.469 0.8832 -98.3577 236.4766)">
		<stop  offset="0" style="stop-color:#FFAF55"/>
		<stop  offset="1" style="stop-color:#FFD890"/>
	</linearGradient>
	
		<path id="Flower_Part_00000046315564085670909130000005140711971597319307_" style="fill:url(#Flower_Part_00000177446336519113550720000014821424225915914380_);" d="
		M78.9,99.5c0,0-5.2-3-7-20.5C70,61.5,72.7,58,82.7,55.4c10.1-2.6,13.6-0.1,22.3,8.8c8.6,8.9,14.8,9.4,2.3,21.2
		C94.8,97.3,78.9,99.5,78.9,99.5z"/>
	
		<linearGradient id="Flower_Part_00000034808635785321468890000001824427698307452850_" gradientUnits="userSpaceOnUse" x1="193.8936" y1="0.8711" x2="228.0077" y2="-23.5463" gradientTransform="matrix(0.8832 -0.469 0.469 0.8832 -98.3577 236.4766)">
		<stop  offset="0" style="stop-color:#FFD890"/>
		<stop  offset="1" style="stop-color:#FFAF55"/>
	</linearGradient>
	
		<path id="Flower_Part_00000060740609254848376010000008687307289460140694_" style="fill:url(#Flower_Part_00000034808635785321468890000001824427698307452850_);" d="
		M76.2,105.5c0,0-3.6,10.2-8.5,15.3c-4.9,5.1-12.6,9.3-10.4,15.3c2.2,6,20.5,8.3,23.2,9.7c2.8,1.5,20.3,2.8,20.7-12.4
		C101.6,118.3,76.2,105.5,76.2,105.5z"/>
	
		<linearGradient id="Flower_Part_00000042708333353611045080000006594967183988255901_" gradientUnits="userSpaceOnUse" x1="213.6559" y1="-30.1432" x2="255.356" y2="-12.0195" gradientTransform="matrix(0.8832 -0.469 0.469 0.8832 -98.3577 236.4766)">
		<stop  offset="0" style="stop-color:#FFAF55"/>
		<stop  offset="0.8693" style="stop-color:#FFD890"/>
	</linearGradient>
	
		<path id="Flower_Part_00000008853268392343457900000011963033438650793348_" style="fill:url(#Flower_Part_00000042708333353611045080000006594967183988255901_);" d="
		M77.3,104c0,0,18.6,15.7,22.6,20c3.9,4.3,10.3,4.5,17.2-8.7c6.9-13.3,0.2-16.2,3.7-24.4C124.2,82.6,88.3,90.3,77.3,104z"/>
	
		<linearGradient id="Flower_Part_00000070090071254588993790000009512748674964179902_" gradientUnits="userSpaceOnUse" x1="207.515" y1="-36.2487" x2="230.3261" y2="-36.2487" gradientTransform="matrix(0.8832 -0.469 0.469 0.8832 -98.3577 236.4766)">
		<stop  offset="0" style="stop-color:#FFAF55"/>
		<stop  offset="1" style="stop-color:#FFD890"/>
	</linearGradient>
	
		<path id="Flower_Part_00000107580600753111282110000003423744120364601230_" style="fill:url(#Flower_Part_00000070090071254588993790000009512748674964179902_);" d="
		M81.2,95.4c4.1,2.9,5.1,8.6,2.3,12.7c-2.9,4.1-8.6,5.1-12.7,2.3c-4.1-2.9-5.1-8.6-2.3-12.7C71.4,93.5,77.1,92.5,81.2,95.4z"/>
</g>
<g>
	<g>
		<path class="st11" d="M52.9,94.9l2.8-1.6l0.6,1.4c-2.4,1.6-5.2,3.4-6.8,4.4c0,0.2,0,0.3-0.2,0.5L48,97.7c0.9-0.5,2.1-1.2,3.4-2
			L50,87.2l-3.1,0.5L46.7,86l3.1-0.5l-1-6.1l2.2-0.2c0,0.2-0.1,0.3-0.5,0.5l0.9,5.7l2.9-0.5l0.2,1.6l-2.9,0.5L52.9,94.9L52.9,94.9z
			 M60.3,97.9c0.2,1.4,0.6,1.7,2.4,1.4l6.6-1c1.5-0.2,1.7-1,1.4-4.2c0.5,0.2,1.2,0.5,1.7,0.5c0.3,3.6-0.1,4.9-2.8,5.3l-6.7,1
			c-2.9,0.5-3.8,0-4.3-2.8l-1.4-8.7L54.9,91l-0.9-1.4l3-2l-1.2-7.1l2.2-0.2c0,0.2-0.1,0.3-0.5,0.5l0.9,5.8l3.5-2.2l-1.2-7.2L63,77
			c0,0.2-0.1,0.3-0.5,0.5l0.9,6l3.8-2.4l0.3-0.3l1.5,0.3c0,0.1-0.1,0.2-0.2,0.3c0.8,4.9,1.4,9,1.4,10.1c0,1.6-0.8,2-3.6,2.4
			c-0.1-0.5-0.3-1.2-0.7-1.5c0.7,0,1.5-0.2,1.8-0.2c0.5-0.1,0.7-0.2,0.7-0.9c0-0.7-0.5-3.9-1.2-8.2l-3.7,2.3l1.6,9.9l-1.6,0.2
			l-1.5-9.1l-3.5,2.2L60.3,97.9L60.3,97.9z"/>
		<path class="st11" d="M72.3,76.4L94,72.8l3.7,22.9L96,96l-0.1-1l-18.5,3l0.1,1l-1.6,0.2L72.3,76.4L72.3,76.4z M77.3,96.4l18.5-3
			l-3-18.7l-18.5,3C74.2,77.7,77.3,96.4,77.3,96.4z M85.1,82.8l7.3-1.2l0.2,1.2l-15.8,2.5l-0.2-1.2l7.1-1.2l-0.2-1.3L79,82.4l-0.7-4
			l10.4-1.7l0.7,4l-4.5,0.7L85.1,82.8L85.1,82.8z M80.2,94.4l-1.4-8.3l12.1-2l1.4,8.3L80.2,94.4z M80.1,79.2l0.3,1.8l7.4-1.2
			L87.5,78L80.1,79.2z M80.4,87.1l0.9,6l9.1-1.5l-0.9-6C89.7,85.5,80.4,87.1,80.4,87.1z M83.1,91.6L82.5,88l5.5-0.9l0.6,3.6
			L83.1,91.6z M83.8,88.8l0.2,1.6l3.2-0.6L87,88.2L83.8,88.8z"/>
		<path class="st11" d="M60.1,120.2l-2.9,1.5l1.3,7.7c0.3,2-0.5,2.3-3.8,2.8c-0.1-0.5-0.5-1-0.8-1.5c0.7-0.1,1.4-0.1,1.8-0.2
			c1-0.2,1.2-0.2,1.2-0.7l-1.2-7.3l-2.5,1.3c0,0.2-0.1,0.3-0.3,0.5l-0.9-1.8c0.9-0.5,2.2-0.9,3.5-1.6l-0.9-5.9l-3.4,0.6l-0.2-1.6
			l3.4-0.6l-0.9-5.4l2.2-0.2c0,0.2-0.1,0.3-0.5,0.5l0.8,4.9l3.1-0.5l0.2,1.6l-3.1,0.5l0.9,5.4l2.7-1.3L60.1,120.2L60.1,120.2z
			 M60.6,109.5l0.5,3.1l-1.5,0.2l-0.7-4.6l14.5-2.3l0.8,4.7l-1.6,0.2l-0.6-3.2L60.6,109.5L60.6,109.5z M65.4,109.7
			c0,0.2-0.1,0.3-0.5,0.5c0.2,3.7-0.3,6.4-4.3,8.4c-0.2-0.3-0.8-0.9-1.2-1.2c3.6-1.7,4-4,3.7-7.6C63.3,109.9,65.4,109.7,65.4,109.7z
			 M75.9,119.7l-5.9,0.9c2,2.3,5,4.3,7.6,5.2c-0.3,0.3-0.8,1-1,1.5c-2.5-1-5.5-3.2-7.6-5.7l1.3,8.1l-1.7,0.2l-1.3-8
			c-1.2,3.1-3.4,6.1-5.7,7.9c-0.3-0.3-0.9-0.9-1.4-1.2c2.4-1.6,4.6-4.5,5.8-7.5l-5.4,0.9l-0.2-1.6l6.6-1l-0.5-2.9l2.2-0.2
			c0,0.2-0.1,0.3-0.5,0.5l0.3,2.4l7.2-1.2L75.9,119.7L75.9,119.7z M67.5,109.1l2.1-0.2c0,0.2-0.1,0.3-0.5,0.5l0.8,4.6
			c0.1,0.6,0.2,0.6,0.9,0.5l2.3-0.3c0.6-0.1,0.7-0.3,0.5-2.2c0.3,0.2,1,0.3,1.5,0.3c0.2,2.4-0.1,3-1.5,3.2l-2.7,0.5
			c-1.8,0.3-2.3-0.1-2.5-1.7L67.5,109.1L67.5,109.1z"/>
		<path class="st11" d="M94.2,114.3c2.5,0.9,5.8,2.5,7.5,3.7l-1,1.3c-0.5-0.3-1-0.7-1.8-1.2c-2.5,0.5-5.1,1-7.6,1.5l1,6.6l-1.7,0.2
			l-1-6.5c-3.6,0.7-6.9,1.3-9.4,1.7c0,0.2-0.1,0.3-0.3,0.5l-1-1.8c1.5-0.2,3.5-0.6,5.7-0.9c0.6-0.5,1.2-1,1.8-1.6
			c-1.5-0.8-3.7-1.7-5.5-2.3l1-1.2c0.5,0.1,1,0.3,1.5,0.5c1-1.2,2.3-2.5,3.1-3.8l-7.1,1.2l0.6,3.5l-1.6,0.2l-0.8-5l10.2-1.6
			l-0.5-2.9L76.9,108l-0.2-1.5l10.2-1.6l-0.3-2.4l2.3-0.2c0,0.2-0.1,0.3-0.5,0.5l0.3,2l10.2-1.6l0.2,1.5L89,106.1l0.5,2.9l10.4-1.7
			l0.8,5l-1.7,0.2l-0.6-3.5l-10.4,1.7l0.9,0.3c-0.1,0.1-0.2,0.2-0.6,0.2c-0.9,1.2-2.3,2.8-3.6,4c1,0.3,2,0.8,2.8,1.3
			c2-1.8,3.8-3.8,5.1-5.4l2.1,0.8c-0.1,0.1-0.3,0.2-0.6,0.2c-1.8,2-4.5,4.6-6.9,6.7l9.6-1.7c-1.3-0.6-2.5-1.3-3.7-1.6L94.2,114.3
			L94.2,114.3z M87.2,122c0,0.1-0.2,0.2-0.6,0.2c-1.4,1.8-3.8,3.9-5.9,5.4c-0.3-0.2-1-0.7-1.5-0.9c2.1-1.3,4.4-3.4,5.8-5.2L87.2,122
			L87.2,122z M95.4,119.9c2.4,0.7,5.7,2.1,7.3,3.1c-0.7,0.7-0.9,1-1.3,1.3c-1.5-1-4.7-2.4-7.2-3.2L95.4,119.9L95.4,119.9z"/>
	</g>
	<g>
		<path class="st12" d="M52.9,94.9l2.8-1.6l0.6,1.4c-2.4,1.6-5.2,3.4-6.8,4.4c0,0.2,0,0.3-0.2,0.5L48,97.7c0.9-0.5,2.1-1.2,3.4-2
			L50,87.2l-3.1,0.5L46.7,86l3.1-0.5l-1-6.1l2.2-0.2c0,0.2-0.1,0.3-0.5,0.5l0.9,5.7l2.9-0.5l0.2,1.6l-2.9,0.5L52.9,94.9L52.9,94.9z
			 M60.3,97.9c0.2,1.4,0.6,1.7,2.4,1.4l6.6-1c1.5-0.2,1.7-1,1.4-4.2c0.5,0.2,1.2,0.5,1.7,0.5c0.3,3.6-0.1,4.9-2.8,5.3l-6.7,1
			c-2.9,0.5-3.8,0-4.3-2.8l-1.4-8.7L54.9,91l-0.9-1.4l3-2l-1.2-7.1l2.2-0.2c0,0.2-0.1,0.3-0.5,0.5l0.9,5.8l3.5-2.2l-1.2-7.2L63,77
			c0,0.2-0.1,0.3-0.5,0.5l0.9,6l3.8-2.4l0.3-0.3l1.5,0.3c0,0.1-0.1,0.2-0.2,0.3c0.8,4.9,1.4,9,1.4,10.1c0,1.6-0.8,2-3.6,2.4
			c-0.1-0.5-0.3-1.2-0.7-1.5c0.7,0,1.5-0.2,1.8-0.2c0.5-0.1,0.7-0.2,0.7-0.9c0-0.7-0.5-3.9-1.2-8.2l-3.7,2.3l1.6,9.9l-1.6,0.2
			l-1.5-9.1l-3.5,2.2L60.3,97.9L60.3,97.9z"/>
		<path class="st12" d="M72.3,76.4L94,72.8l3.7,22.9L96,96l-0.1-1l-18.5,3l0.1,1l-1.6,0.2L72.3,76.4L72.3,76.4z M77.3,96.4l18.5-3
			l-3-18.7l-18.5,3C74.2,77.7,77.3,96.4,77.3,96.4z M85.1,82.8l7.3-1.2l0.2,1.2l-15.8,2.5l-0.2-1.2l7.1-1.2l-0.2-1.3L79,82.4l-0.7-4
			l10.4-1.7l0.7,4l-4.5,0.7L85.1,82.8L85.1,82.8z M80.2,94.4l-1.4-8.3l12.1-2l1.4,8.3L80.2,94.4z M80.1,79.2l0.3,1.8l7.4-1.2
			L87.5,78L80.1,79.2z M80.4,87.1l0.9,6l9.1-1.5l-0.9-6C89.7,85.5,80.4,87.1,80.4,87.1z M83.1,91.6L82.5,88l5.5-0.9l0.6,3.6
			L83.1,91.6z M83.8,88.8l0.2,1.6l3.2-0.6L87,88.2L83.8,88.8z"/>
		<path class="st12" d="M60.1,120.2l-2.9,1.5l1.3,7.7c0.3,2-0.5,2.3-3.8,2.8c-0.1-0.5-0.5-1-0.8-1.5c0.7-0.1,1.4-0.1,1.8-0.2
			c1-0.2,1.2-0.2,1.2-0.7l-1.2-7.3l-2.5,1.3c0,0.2-0.1,0.3-0.3,0.5l-0.9-1.8c0.9-0.5,2.2-0.9,3.5-1.6l-0.9-5.9l-3.4,0.6l-0.2-1.6
			l3.4-0.6l-0.9-5.4l2.2-0.2c0,0.2-0.1,0.3-0.5,0.5l0.8,4.9l3.1-0.5l0.2,1.6l-3.1,0.5l0.9,5.4l2.7-1.3L60.1,120.2L60.1,120.2z
			 M60.6,109.5l0.5,3.1l-1.5,0.2l-0.7-4.6l14.5-2.3l0.8,4.7l-1.6,0.2l-0.6-3.2L60.6,109.5L60.6,109.5z M65.4,109.7
			c0,0.2-0.1,0.3-0.5,0.5c0.2,3.7-0.3,6.4-4.3,8.4c-0.2-0.3-0.8-0.9-1.2-1.2c3.6-1.7,4-4,3.7-7.6C63.3,109.9,65.4,109.7,65.4,109.7z
			 M75.9,119.7l-5.9,0.9c2,2.3,5,4.3,7.6,5.2c-0.3,0.3-0.8,1-1,1.5c-2.5-1-5.5-3.2-7.6-5.7l1.3,8.1l-1.7,0.2l-1.3-8
			c-1.2,3.1-3.4,6.1-5.7,7.9c-0.3-0.3-0.9-0.9-1.4-1.2c2.4-1.6,4.6-4.5,5.8-7.5l-5.4,0.9l-0.2-1.6l6.6-1l-0.5-2.9l2.2-0.2
			c0,0.2-0.1,0.3-0.5,0.5l0.3,2.4l7.2-1.2L75.9,119.7L75.9,119.7z M67.5,109.1l2.1-0.2c0,0.2-0.1,0.3-0.5,0.5l0.8,4.6
			c0.1,0.6,0.2,0.6,0.9,0.5l2.3-0.3c0.6-0.1,0.7-0.3,0.5-2.2c0.3,0.2,1,0.3,1.5,0.3c0.2,2.4-0.1,3-1.5,3.2l-2.7,0.5
			c-1.8,0.3-2.3-0.1-2.5-1.7L67.5,109.1L67.5,109.1z"/>
		<path class="st12" d="M94.2,114.3c2.5,0.9,5.8,2.5,7.5,3.7l-1,1.3c-0.5-0.3-1-0.7-1.8-1.2c-2.5,0.5-5.1,1-7.6,1.5l1,6.6l-1.7,0.2
			l-1-6.5c-3.6,0.7-6.9,1.3-9.4,1.7c0,0.2-0.1,0.3-0.3,0.5l-1-1.8c1.5-0.2,3.5-0.6,5.7-0.9c0.6-0.5,1.2-1,1.8-1.6
			c-1.5-0.8-3.7-1.7-5.5-2.3l1-1.2c0.5,0.1,1,0.3,1.5,0.5c1-1.2,2.3-2.5,3.1-3.8l-7.1,1.2l0.6,3.5l-1.6,0.2l-0.8-5l10.2-1.6
			l-0.5-2.9L76.9,108l-0.2-1.5l10.2-1.6l-0.3-2.4l2.3-0.2c0,0.2-0.1,0.3-0.5,0.5l0.3,2l10.2-1.6l0.2,1.5L89,106.1l0.5,2.9l10.4-1.7
			l0.8,5l-1.7,0.2l-0.6-3.5l-10.4,1.7l0.9,0.3c-0.1,0.1-0.2,0.2-0.6,0.2c-0.9,1.2-2.3,2.8-3.6,4c1,0.3,2,0.8,2.8,1.3
			c2-1.8,3.8-3.8,5.1-5.4l2.1,0.8c-0.1,0.1-0.3,0.2-0.6,0.2c-1.8,2-4.5,4.6-6.9,6.7l9.6-1.7c-1.3-0.6-2.5-1.3-3.7-1.6L94.2,114.3
			L94.2,114.3z M87.2,122c0,0.1-0.2,0.2-0.6,0.2c-1.4,1.8-3.8,3.9-5.9,5.4c-0.3-0.2-1-0.7-1.5-0.9c2.1-1.3,4.4-3.4,5.8-5.2L87.2,122
			L87.2,122z M95.4,119.9c2.4,0.7,5.7,2.1,7.3,3.1c-0.7,0.7-0.9,1-1.3,1.3c-1.5-1-4.7-2.4-7.2-3.2L95.4,119.9L95.4,119.9z"/>
	</g>
	<g>
		<path class="st13" d="M52.9,94.9l2.8-1.6l0.6,1.4c-2.4,1.6-5.2,3.4-6.8,4.4c0,0.2,0,0.3-0.2,0.5L48,97.7c0.9-0.5,2.1-1.2,3.4-2
			L50,87.2l-3.1,0.5L46.7,86l3.1-0.5l-1-6.1l2.2-0.2c0,0.2-0.1,0.3-0.5,0.5l0.9,5.7l2.9-0.5l0.2,1.6l-2.9,0.5L52.9,94.9L52.9,94.9z
			 M60.3,97.9c0.2,1.4,0.6,1.7,2.4,1.4l6.6-1c1.5-0.2,1.7-1,1.4-4.2c0.5,0.2,1.2,0.5,1.7,0.5c0.3,3.6-0.1,4.9-2.8,5.3l-6.7,1
			c-2.9,0.5-3.8,0-4.3-2.8l-1.4-8.7L54.9,91l-0.9-1.4l3-2l-1.2-7.1l2.2-0.2c0,0.2-0.1,0.3-0.5,0.5l0.9,5.8l3.5-2.2l-1.2-7.2L63,77
			c0,0.2-0.1,0.3-0.5,0.5l0.9,6l3.8-2.4l0.3-0.3l1.5,0.3c0,0.1-0.1,0.2-0.2,0.3c0.8,4.9,1.4,9,1.4,10.1c0,1.6-0.8,2-3.6,2.4
			c-0.1-0.5-0.3-1.2-0.7-1.5c0.7,0,1.5-0.2,1.8-0.2c0.5-0.1,0.7-0.2,0.7-0.9c0-0.7-0.5-3.9-1.2-8.2l-3.7,2.3l1.6,9.9l-1.6,0.2
			l-1.5-9.1l-3.5,2.2L60.3,97.9L60.3,97.9z"/>
		<path class="st13" d="M72.3,76.4L94,72.8l3.7,22.9L96,96l-0.1-1l-18.5,3l0.1,1l-1.6,0.2L72.3,76.4L72.3,76.4z M77.3,96.4l18.5-3
			l-3-18.7l-18.5,3C74.2,77.7,77.3,96.4,77.3,96.4z M85.1,82.8l7.3-1.2l0.2,1.2l-15.8,2.5l-0.2-1.2l7.1-1.2l-0.2-1.3L79,82.4l-0.7-4
			l10.4-1.7l0.7,4l-4.5,0.7L85.1,82.8L85.1,82.8z M80.2,94.4l-1.4-8.3l12.1-2l1.4,8.3L80.2,94.4z M80.1,79.2l0.3,1.8l7.4-1.2
			L87.5,78L80.1,79.2z M80.4,87.1l0.9,6l9.1-1.5l-0.9-6C89.7,85.5,80.4,87.1,80.4,87.1z M83.1,91.6L82.5,88l5.5-0.9l0.6,3.6
			L83.1,91.6z M83.8,88.8l0.2,1.6l3.2-0.6L87,88.2L83.8,88.8z"/>
		<path class="st13" d="M60.1,120.2l-2.9,1.5l1.3,7.7c0.3,2-0.5,2.3-3.8,2.8c-0.1-0.5-0.5-1-0.8-1.5c0.7-0.1,1.4-0.1,1.8-0.2
			c1-0.2,1.2-0.2,1.2-0.7l-1.2-7.3l-2.5,1.3c0,0.2-0.1,0.3-0.3,0.5l-0.9-1.8c0.9-0.5,2.2-0.9,3.5-1.6l-0.9-5.9l-3.4,0.6l-0.2-1.6
			l3.4-0.6l-0.9-5.4l2.2-0.2c0,0.2-0.1,0.3-0.5,0.5l0.8,4.9l3.1-0.5l0.2,1.6l-3.1,0.5l0.9,5.4l2.7-1.3L60.1,120.2L60.1,120.2z
			 M60.6,109.5l0.5,3.1l-1.5,0.2l-0.7-4.6l14.5-2.3l0.8,4.7l-1.6,0.2l-0.6-3.2L60.6,109.5L60.6,109.5z M65.4,109.7
			c0,0.2-0.1,0.3-0.5,0.5c0.2,3.7-0.3,6.4-4.3,8.4c-0.2-0.3-0.8-0.9-1.2-1.2c3.6-1.7,4-4,3.7-7.6C63.3,109.9,65.4,109.7,65.4,109.7z
			 M75.9,119.7l-5.9,0.9c2,2.3,5,4.3,7.6,5.2c-0.3,0.3-0.8,1-1,1.5c-2.5-1-5.5-3.2-7.6-5.7l1.3,8.1l-1.7,0.2l-1.3-8
			c-1.2,3.1-3.4,6.1-5.7,7.9c-0.3-0.3-0.9-0.9-1.4-1.2c2.4-1.6,4.6-4.5,5.8-7.5l-5.4,0.9l-0.2-1.6l6.6-1l-0.5-2.9l2.2-0.2
			c0,0.2-0.1,0.3-0.5,0.5l0.3,2.4l7.2-1.2L75.9,119.7L75.9,119.7z M67.5,109.1l2.1-0.2c0,0.2-0.1,0.3-0.5,0.5l0.8,4.6
			c0.1,0.6,0.2,0.6,0.9,0.5l2.3-0.3c0.6-0.1,0.7-0.3,0.5-2.2c0.3,0.2,1,0.3,1.5,0.3c0.2,2.4-0.1,3-1.5,3.2l-2.7,0.5
			c-1.8,0.3-2.3-0.1-2.5-1.7L67.5,109.1L67.5,109.1z"/>
		<path class="st13" d="M94.2,114.3c2.5,0.9,5.8,2.5,7.5,3.7l-1,1.3c-0.5-0.3-1-0.7-1.8-1.2c-2.5,0.5-5.1,1-7.6,1.5l1,6.6l-1.7,0.2
			l-1-6.5c-3.6,0.7-6.9,1.3-9.4,1.7c0,0.2-0.1,0.3-0.3,0.5l-1-1.8c1.5-0.2,3.5-0.6,5.7-0.9c0.6-0.5,1.2-1,1.8-1.6
			c-1.5-0.8-3.7-1.7-5.5-2.3l1-1.2c0.5,0.1,1,0.3,1.5,0.5c1-1.2,2.3-2.5,3.1-3.8l-7.1,1.2l0.6,3.5l-1.6,0.2l-0.8-5l10.2-1.6
			l-0.5-2.9L76.9,108l-0.2-1.5l10.2-1.6l-0.3-2.4l2.3-0.2c0,0.2-0.1,0.3-0.5,0.5l0.3,2l10.2-1.6l0.2,1.5L89,106.1l0.5,2.9l10.4-1.7
			l0.8,5l-1.7,0.2l-0.6-3.5l-10.4,1.7l0.9,0.3c-0.1,0.1-0.2,0.2-0.6,0.2c-0.9,1.2-2.3,2.8-3.6,4c1,0.3,2,0.8,2.8,1.3
			c2-1.8,3.8-3.8,5.1-5.4l2.1,0.8c-0.1,0.1-0.3,0.2-0.6,0.2c-1.8,2-4.5,4.6-6.9,6.7l9.6-1.7c-1.3-0.6-2.5-1.3-3.7-1.6L94.2,114.3
			L94.2,114.3z M87.2,122c0,0.1-0.2,0.2-0.6,0.2c-1.4,1.8-3.8,3.9-5.9,5.4c-0.3-0.2-1-0.7-1.5-0.9c2.1-1.3,4.4-3.4,5.8-5.2L87.2,122
			L87.2,122z M95.4,119.9c2.4,0.7,5.7,2.1,7.3,3.1c-0.7,0.7-0.9,1-1.3,1.3c-1.5-1-4.7-2.4-7.2-3.2L95.4,119.9L95.4,119.9z"/>
	</g>
</g>
</svg>
