<?xml version="1.0" encoding="UTF-8"?>
<svg xmlns="http://www.w3.org/2000/svg" width="132.98" height="137.03" xmlns:xlink="http://www.w3.org/1999/xlink" viewBox="0 0 132.98 137.03">
  <defs>
    <linearGradient id="linear-gradient" x1="68.69" y1="81.62" x2="82.64" y2="81.62" gradientTransform="translate(-28.14 41.14) rotate(-26.44)" gradientUnits="userSpaceOnUse">
      <stop offset="0" stop-color="#46b55e"/>
      <stop offset="1" stop-color="#51c779"/>
    </linearGradient>
    <linearGradient id="linear-gradient-2" x1="44" y1="122.6" x2="44" y2="46.84" xlink:href="#linear-gradient"/>
    <linearGradient id="_新增漸層色票_拷貝" data-name="新增漸層色票 拷貝" x1="108.95" y1="122.32" x2="108.95" y2="37.6" gradientTransform="translate(-28.14 41.14) rotate(-26.44)" gradientUnits="userSpaceOnUse">
      <stop offset="0" stop-color="#46b55e"/>
      <stop offset="1" stop-color="#51c779"/>
    </linearGradient>
  </defs>
  <g style="isolation: isolate;">
    <g id="_圖層_2" data-name="圖層 2">
      <g id="_圖層_7" data-name="圖層 7">
        <g id="map_btn">
          <g>
            <g>
              <path d="M60.22,42.55c1.19-6.91,7.74-33.46,44.43-42.55l5.79,25.37-50.22,17.18Z" style="fill: #96b0ad; stroke-width: 0px;"/>
              <path d="M7.29,64.5l-3.36-5.22s15.25-15.84,28.61-19.61c13.35-3.77,22.88-1.16,27.69,2.88L7.29,64.5Z" style="fill: #96b0ad; stroke-width: 0px;"/>
              <path d="M3.26,65.54c10.89,20.83,21.78,41.65,32.67,62.48,18.28-5.11,36.13-9.97,53.56-14.56,13.48-12.7,27.27-25.6,41.38-38.69-7.26-23.94-14.51-47.88-21.77-71.82,0,0-14.91,8.99-22.42,14-7.58,5.05-23.56,22.56-24.32,23.91-.82,1.39-2.41,3.02-3.83,2.76-1.23-.37-36.09,6.99-55.26,21.94Z" style="fill: #96b0ad; stroke-width: 0px;"/>
              <path d="M107.55,2.23c-.14,0-.28.02-.43.02-.24-.16-.47-.32-.71-.49-36.95,9.04-45.03,33.81-46.19,40.78-5.16-3.4-26.75-10.82-56.37,18.59-.07.68-.14,1.36-.21,2.04-.05.09-.1.18-.15.27-.08.7-.15,1.4-.23,2.1,28.5-16.05,54.68-19.34,54.59-19.29,1.29-2.14,3.41-3.54,5.99-3.62-.09.06,17.39-22.43,45.27-39.69-.52-.24-1.03-.48-1.55-.71Z" style="fill: #a7bfbb; stroke-width: 0px;"/>
              <g style="mix-blend-mode: overlay; opacity: .3;">
                <path d="M95.18,7.64c.13-.08-22.22,5.95-30.43,27.88-.11.06,7.18-19.57,30.43-27.88Z" style="fill: #000; stroke-width: 0px;"/>
                <path d="M101,5.81s-16.96,6.98-27.67,19.52c-.04.02,9.43-10.95,27.67-19.52Z" style="fill: #000; stroke-width: 0px;"/>
                <path d="M90.76,12.84s-16.64,10.42-26.22,25.11c-.02.01,8.42-12.82,26.22-25.11Z" style="fill: #000; stroke-width: 0px;"/>
                <path d="M87.49,16.28s-12.12,9.59-17.44,16.2c-.03.02,14.81-14.24,17.44-16.2Z" style="fill: #000; stroke-width: 0px;"/>
              </g>
              <g style="mix-blend-mode: overlay; opacity: .3;">
                <path d="M8.73,57.56c-.15.09,21.82-19.74,43.89-15.44.12-.07-19.57-4-43.89,15.44Z" style="fill: #000; stroke-width: 0px;"/>
                <path d="M4.5,61.36c-.05.03,18.43-13.65,35.79-17.47.04-.02-15.21,3.41-35.79,17.47Z" style="fill: #000; stroke-width: 0px;"/>
                <path d="M23.2,52.14s17.62-9.23,32.67-8.78c.02-.01-13.16-.34-32.67,8.78Z" style="fill: #000; stroke-width: 0px;"/>
                <path d="M14.45,57.29s16.29-7.53,25.21-9.49c.04-.02-21.76,7.79-25.21,9.49Z" style="fill: #000; stroke-width: 0px;"/>
              </g>
            </g>
            <path d="M86.69,117.78c-9.89-23.87-19.77-47.75-29.66-71.62,0,0,2.87,1.27,4.97-.74,2.1-2.01,2.35-3.89,2.35-3.89,9.59,24.06,19.17,48.11,28.76,72.17,0,0,.14,2.74-2.18,4.14-2.74,1.66-4.23-.06-4.24-.05Z" style="fill: url(#linear-gradient); stroke-width: 0px;"/>
            <g style="mix-blend-mode: overlay; opacity: .2;">
              <path d="M64.74,53.3c-2.58,1.56-4.14.95-4.72.59.44,1.05.87,2.1,1.31,3.15,0,0,1.61,1.64,4.83-.3,2.73-1.65,2.72-4.47,2.73-4.47-.43-1.08-.86-2.16-1.28-3.23-.1.77-.56,2.88-2.85,4.26Z" style="fill: #fff; stroke-width: 0px;"/>
              <path d="M62.73,48.39c-2.58,1.56-4.14.95-4.72.59.44,1.05.87,2.1,1.31,3.15,0,0,1.61,1.64,4.83-.3,2.73-1.65,2.72-4.47,2.73-4.47-.43-1.08-.86-2.16-1.28-3.23-.1.77-.56,2.88-2.85,4.26Z" style="fill: #fff; stroke-width: 0px;"/>
            </g>
            <path d="M86.69,117.78c.27-.16-49.11,16.42-50.07,16.69-.26.07-.74.25-1.17-.6C30.79,124.75.16,66.87.03,66.39c.76-.46,57.28-20.41,56.99-20.23,9.89,23.87,19.77,47.75,29.66,71.62Z" style="fill: url(#linear-gradient-2); stroke-width: 0px;"/>
            <path d="M93.11,113.7c-9.59-24.06-19.17-48.11-28.76-72.17-.26.16,45.43-40.55,45.87-40.28.19.42,22.6,75.19,22.7,75.53.17.6,0,.84-.54,1.35-.49.46-39.5,35.71-39.27,35.57Z" style="fill: url(#_新增漸層色票_拷貝); stroke-width: 0px;"/>
            <path d="M61.5,46.07c-1.54.93-3.26.96-4.47.09-18.51,6.65-37.34,13.49-56.48,20.53-.2.07-.43-.06-.51-.3-.09-.24,0-.48.2-.56,19.22-7.07,38.12-13.94,56.7-20.62.1-.04.21-.01.31.06,1,.82,2.61.79,4-.1,1.39-.88,2.35-2.47,2.38-3.94,0-.14.06-.28.15-.35,15.05-13.1,30.36-26.36,45.93-39.79.41-.38.77.45.36.82-15.51,13.37-30.75,26.58-45.73,39.63-.12,1.75-1.18,3.48-2.74,4.48-.03.02-.07.04-.1.06Z" style="fill: #66bf97; stroke-width: 0px;"/>
            <polygon points="46.11 118.38 38.38 102.44 54.69 96.22 61.73 112.86 46.11 118.38" style="fill: #000; mix-blend-mode: overlay; opacity: .2; stroke-width: 0px;"/>
            <path d="M70.95,44.49l23.62,59.26,32.25-29.21-18.8-62.17-37.06,32.11ZM110.99,46.94l-23.28,20.03-7.86-19.72,24.75-21.44,6.39,21.13Z" style="fill: #000; mix-blend-mode: overlay; opacity: .2; stroke-width: 0px;"/>
            <path d="M85.18,118.27c.99-.33,1.54-.5,1.51-.49-9.89-23.87-19.77-47.75-29.66-71.62.03-.02-.59.2-1.74.59l29.89,71.52Z" style="fill: #000; mix-blend-mode: overlay; opacity: .2; stroke-width: 0px;"/>
            <path d="M94.37,112.53l-28.01-72.82c-1.31,1.17-2.05,1.84-2.02,1.82,9.59,24.06,19.17,48.11,28.76,72.17-.02.02.43-.41,1.27-1.16h0Z" style="fill: #000; mix-blend-mode: overlay; opacity: .2; stroke-width: 0px;"/>
            <path d="M91.11,117.71c1.37-.93,1.8-2.33,1.94-3.21l-29.04-71.9c-.31.73-.9,1.76-2.01,2.82-.16.15-.32.28-.48.4l29.6,71.89Z" style="fill: #fff; mix-blend-mode: overlay; opacity: .1; stroke-width: 0px;"/>
          </g>
          <g>
            <g>
              <path d="M54.09,68.29c-.14-.33-.32-.68-.5-1.09-4.93,1.72-5.84,2.15-6.37,2.55-.23-.53-.93-1.78-1.38-2.49.61-.27,1.09-.96,1.72-2.15.28-.44.74-1.37,1.26-2.56-1.97.63-2.53.87-2.9,1.13-.27-.56-.96-1.8-1.38-2.49.45-.22.76-.8,1.13-1.66.37-.83,1.39-4.01,1.71-6.92l2.99.58c-.49,2.31-1.26,4.84-2.17,6.92l1.81-.47c.46-1.26.89-2.68,1.22-4.03l2.78,1.09c-1.03,3.12-2.44,6.37-4.02,9.18l2.51-.81c-.34-.68-.71-1.33-1.06-1.92l1.85-.97c.99,1.55,2.17,3.64,2.76,4.93l-1.95,1.18ZM49.69,70.68c.17,2.16.15,4.77.09,6.4-.64-.19-1.82-.22-2.43-.25.14-1.67.05-4.12-.11-6.21l2.45.05ZM52.26,69.53c.66,1.66,1.35,3.84,1.71,5.34l-2.18,1c-.31-1.54-.98-3.75-1.58-5.42l2.06-.92ZM61.83,70.26c-1.34,1.39-2.88,2.85-4.15,4.04l-1.13-1.11-1.34.79c-.48-1.28-1.47-3.25-2.28-4.69l1.87-1.05c.63,1.06,1.32,2.28,1.84,3.37,1.11-.97,2.45-2.23,3.81-3.49l1.38,2.14ZM63.96,62.19l1.74,9.59c.25,1.38.14,2.14-.71,2.73-.79.61-2.01.89-3.66,1.16-.25-.75-.88-1.82-1.39-2.52,1.04-.16,2.13-.36,2.48-.42.35-.06.41-.16.35-.48l-1.73-9.54-6.35,1.15-.5-2.76,8.71-1.58.06-1.35-7.73,1.4c.31-2.25.53-5.83.59-8.53l3-.24c-.02.5-.06,1.05-.09,1.63l4.57-.83.46-.19,2.2-.1c.08,2.4.02,5.24-.09,7.67l3.9-.71.5,2.76-6.32,1.15ZM58.96,68.53c-.7-.83-2.14-2.11-3.29-3.02l1.82-1.78c1.13.81,2.61,2,3.36,2.82l-1.89,1.99ZM63.03,55.7l.02-1.57-4.46.81-.1,1.58,4.54-.82ZM65.23,65.72c.77-1.07,1.82-2.8,2.35-3.97l2.54,1.13c-.9,1.4-1.92,2.87-2.78,3.88l-2.11-1.04ZM66.8,66.97c1.64.75,3.95,1.81,5.13,2.58l-1.3,2.51c-1.11-.81-3.44-2.01-5.09-2.84l1.26-2.26Z" style="fill: none; stroke: #117730; stroke-linecap: round; stroke-linejoin: round; stroke-width: 4px;"/>
              <path d="M85.61,64.33l-12.03,2.18-.43-2.39,4.62-.84-.24-1.33-4.09.74-.43-2.39,4.09-.74-.21-1.14-4.14.75-1.81-10.01,11.23-2.04,1.81,10.01-4.3.78.21,1.14,4.25-.77.43,2.39-4.25.77.24,1.33,4.62-.84.43,2.39ZM74.72,56.62l2.23-.4-1.04-5.76-2.23.4.2,1.12,1.18-.6c.62,1.12,1.25,2.65,1.51,3.65l-1.3.7c-.24-1.03-.78-2.47-1.36-3.57l.81,4.46ZM73.92,72.05c.52-1.36.8-3.46.81-5.08l2.24.39c-.05,1.68-.16,3.79-.68,5.2l-2.37-.5ZM79.32,66.71c.53,1.41,1,3.27,1.21,4.55l-1.98.6c-.18-1.28-.63-3.18-1.11-4.6l1.87-.56ZM80.11,49.69l-2.28.41.79,4.36c.18-1.1.35-2.75.35-3.82l1.36.22-.21-1.17ZM81.15,55.46l-.68-3.75c-.23,1.17-.41,2.41-.62,3.21l-1.19-.22.21,1.17,2.28-.41ZM81.94,66.04c.73,1.29,1.53,3.01,1.88,4.19l-1.87.75c-.32-1.18-1.11-2.93-1.84-4.25l1.82-.69ZM91.03,53.37l.74,4.06,4.25-.77,2.21,12.22-3.03.55-.17-.93-4.91.89.18,1.01-2.87.52-.34-1.86-1.8,1.12c-.48-1.15-1.55-2.79-2.53-3.99l1.74-1c.99,1.06,2.02,2.54,2.55,3.63l-1.85-10.2,3.48-.63-2.25-12.43,3.08-.56.99,5.44,5.15-.93.53,2.92-5.15.93ZM93.51,60.08l-4.91.89,1.01,5.55,4.91-.89-1.01-5.55Z" style="fill: none; stroke: #117730; stroke-linecap: round; stroke-linejoin: round; stroke-width: 4px;"/>
              <path d="M53.33,103.06c.7-.07,1.42-.17,2.14-.3,1.49-.27,6.59-1.19,8.46-1.62-.29.79-.52,2.26-.52,3.19l-7.57,1.37c-4.86.88-8.27.81-11.06-1.86-.64,1.93-1.61,3.56-2.95,4.9-.56-.5-1.99-1.45-2.79-1.77,2.41-2.16,3.52-5.27,3.48-8.94l3.25-.09c-.03.88-.1,1.72-.17,2.53,1.15,1.66,2.63,2.4,4.43,2.63l-1.22-6.75-10.36,1.88-.51-2.79,23.43-4.25.5,2.79-9.85,1.79.36,1.99,8.18-1.48.5,2.74-8.18,1.48.47,2.58ZM58.62,90.47l-18.43,3.34-1.67-9.22,18.43-3.34,1.67,9.22ZM54.14,84.06l-12.16,2.2.24,1.33,12.16-2.2-.24-1.33ZM54.76,87.46l-12.16,2.2.25,1.35,12.16-2.2-.25-1.35Z" style="fill: none; stroke: #117730; stroke-linecap: round; stroke-linejoin: round; stroke-width: 4px;"/>
              <path d="M70.88,78.86c-.36,1.79-.79,3.68-1.39,5.49l3.38,18.65-3.11.56-2.48-13.71c-.5,1-1.02,1.94-1.56,2.75-.43-.72-1.62-2.28-2.29-2.96,2-2.89,3.65-7.11,4.28-11.2l3.17.41ZM88.48,86.87l-6.53,1.18,2.34,12.94-3.29.6-2.34-12.94-6.83,1.24-.56-3.11,6.83-1.24-1.52-8.37,3.29-.6,1.52,8.37,6.53-1.18.56,3.11Z" style="fill: none; stroke: #117730; stroke-linecap: round; stroke-linejoin: round; stroke-width: 4px;"/>
              <path d="M94.02,78.46l.83,4.57c.78,4.33,1.65,11.22.46,15.88-.63-.46-2.17-1.23-2.86-1.4,1.01-4.27.11-9.98-.6-13.94l-1.32-7.3,9.96-1.8c-.23-.53-.5-1.09-.71-1.52l3.08-1.16c.39.62.8,1.39,1.11,2.05l9.06-1.64.5,2.74-19.5,3.53ZM99.49,87.48l-1.01-5.55-2.9.52-.43-2.36,2.9-.52-.22-1.22,2.36-.43.22,1.22,3.21-.58.43,2.36-3.21.58,1.01,5.55-2.36.43ZM98.12,84c.25,1.35.35,3.01-.63,4.37-.39-.31-1.24-.79-1.74-.95.87-.93.79-2.28.63-3.19l-.19-1.04,1.73-.31.2,1.12ZM111.56,89.1c1.66,1.29,4.01,3.2,5.24,4.37l-2.18,1.74c-.34-.35-.77-.79-1.26-1.23-12.32,3.17-13.8,3.46-14.7,3.95-.2-.48-.81-1.72-1.2-2.39.88-.3,1.71-.83,2.95-1.74.54-.35,1.56-1.08,2.73-2.06-3.39.83-4,1.08-4.4,1.32-.19-.46-.75-1.59-1.14-2.21.52-.15,1.04-.49,1.61-.98.63-.44,2.56-2.06,3.92-3.78-.63-.13-.86-.64-1.03-1.57l-.4-2.23,1.67-.3.41,2.26c.07.4.12.53.39.48.21-.04.61-.11.83-.23.08.26.12.53.2.81.77-.91.73-2.05.58-2.88l-.18-1.01,1.73-.31.2,1.09c.23,1.28.32,2.85-.7,4.16-.36-.32-1.09-.71-1.59-.89l.07.26c-.2.12-.56.21-.91.27l-.48.09h-.03s1.81.75,1.81.75c-1.1,1.19-2.42,2.39-3.72,3.39l3.92-.9c1.08-.99,2.15-2.04,3.08-3.14l2.62,1.14c-2.38,2.49-5.02,4.72-7.61,6.62l7.31-1.87c-.62-.52-1.26-1.03-1.81-1.51l2.06-1.47ZM108.96,85.82l-1.02-5.6-3.19.58-.43-2.36,3.19-.58-.22-1.22,2.36-.43.22,1.22,3.77-.68.43,2.36-3.77.68,1.02,5.6-2.36.43ZM114.23,83.27c.27-.05.77-.17,1.02-.29.1.39.22.89.35,1.31-.22.12-.67.23-1.07.3l-.93.17c-1.38.25-1.73-.32-1.97-1.65l-.48-2.66,1.78-.32.49,2.68c.08.43.13.58.45.52l.37-.07Z" style="fill: none; stroke: #117730; stroke-linecap: round; stroke-linejoin: round; stroke-width: 4px;"/>
            </g>
            <g>
              <path d="M54.09,68.29c-.14-.33-.32-.68-.5-1.09-4.93,1.72-5.84,2.15-6.37,2.55-.23-.53-.93-1.78-1.38-2.49.61-.27,1.09-.96,1.72-2.15.28-.44.74-1.37,1.26-2.56-1.97.63-2.53.87-2.9,1.13-.27-.56-.96-1.8-1.38-2.49.45-.22.76-.8,1.13-1.66.37-.83,1.39-4.01,1.71-6.92l2.99.58c-.49,2.31-1.26,4.84-2.17,6.92l1.81-.47c.46-1.26.89-2.68,1.22-4.03l2.78,1.09c-1.03,3.12-2.44,6.37-4.02,9.18l2.51-.81c-.34-.68-.71-1.33-1.06-1.92l1.85-.97c.99,1.55,2.17,3.64,2.76,4.93l-1.95,1.18ZM49.69,70.68c.17,2.16.15,4.77.09,6.4-.64-.19-1.82-.22-2.43-.25.14-1.67.05-4.12-.11-6.21l2.45.05ZM52.26,69.53c.66,1.66,1.35,3.84,1.71,5.34l-2.18,1c-.31-1.54-.98-3.75-1.58-5.42l2.06-.92ZM61.83,70.26c-1.34,1.39-2.88,2.85-4.15,4.04l-1.13-1.11-1.34.79c-.48-1.28-1.47-3.25-2.28-4.69l1.87-1.05c.63,1.06,1.32,2.28,1.84,3.37,1.11-.97,2.45-2.23,3.81-3.49l1.38,2.14ZM63.96,62.19l1.74,9.59c.25,1.38.14,2.14-.71,2.73-.79.61-2.01.89-3.66,1.16-.25-.75-.88-1.82-1.39-2.52,1.04-.16,2.13-.36,2.48-.42.35-.06.41-.16.35-.48l-1.73-9.54-6.35,1.15-.5-2.76,8.71-1.58.06-1.35-7.73,1.4c.31-2.25.53-5.83.59-8.53l3-.24c-.02.5-.06,1.05-.09,1.63l4.57-.83.46-.19,2.2-.1c.08,2.4.02,5.24-.09,7.67l3.9-.71.5,2.76-6.32,1.15ZM58.96,68.53c-.7-.83-2.14-2.11-3.29-3.02l1.82-1.78c1.13.81,2.61,2,3.36,2.82l-1.89,1.99ZM63.03,55.7l.02-1.57-4.46.81-.1,1.58,4.54-.82ZM65.23,65.72c.77-1.07,1.82-2.8,2.35-3.97l2.54,1.13c-.9,1.4-1.92,2.87-2.78,3.88l-2.11-1.04ZM66.8,66.97c1.64.75,3.95,1.81,5.13,2.58l-1.3,2.51c-1.11-.81-3.44-2.01-5.09-2.84l1.26-2.26Z" style="fill: #fff; stroke-width: 0px;"/>
              <path d="M85.61,64.33l-12.03,2.18-.43-2.39,4.62-.84-.24-1.33-4.09.74-.43-2.39,4.09-.74-.21-1.14-4.14.75-1.81-10.01,11.23-2.04,1.81,10.01-4.3.78.21,1.14,4.25-.77.43,2.39-4.25.77.24,1.33,4.62-.84.43,2.39ZM74.72,56.62l2.23-.4-1.04-5.76-2.23.4.2,1.12,1.18-.6c.62,1.12,1.25,2.65,1.51,3.65l-1.3.7c-.24-1.03-.78-2.47-1.36-3.57l.81,4.46ZM73.92,72.05c.52-1.36.8-3.46.81-5.08l2.24.39c-.05,1.68-.16,3.79-.68,5.2l-2.37-.5ZM79.32,66.71c.53,1.41,1,3.27,1.21,4.55l-1.98.6c-.18-1.28-.63-3.18-1.11-4.6l1.87-.56ZM80.11,49.69l-2.28.41.79,4.36c.18-1.1.35-2.75.35-3.82l1.36.22-.21-1.17ZM81.15,55.46l-.68-3.75c-.23,1.17-.41,2.41-.62,3.21l-1.19-.22.21,1.17,2.28-.41ZM81.94,66.04c.73,1.29,1.53,3.01,1.88,4.19l-1.87.75c-.32-1.18-1.11-2.93-1.84-4.25l1.82-.69ZM91.03,53.37l.74,4.06,4.25-.77,2.21,12.22-3.03.55-.17-.93-4.91.89.18,1.01-2.87.52-.34-1.86-1.8,1.12c-.48-1.15-1.55-2.79-2.53-3.99l1.74-1c.99,1.06,2.02,2.54,2.55,3.63l-1.85-10.2,3.48-.63-2.25-12.43,3.08-.56.99,5.44,5.15-.93.53,2.92-5.15.93ZM93.51,60.08l-4.91.89,1.01,5.55,4.91-.89-1.01-5.55Z" style="fill: #fff; stroke-width: 0px;"/>
              <path d="M53.33,103.06c.7-.07,1.42-.17,2.14-.3,1.49-.27,6.59-1.19,8.46-1.62-.29.79-.52,2.26-.52,3.19l-7.57,1.37c-4.86.88-8.27.81-11.06-1.86-.64,1.93-1.61,3.56-2.95,4.9-.56-.5-1.99-1.45-2.79-1.77,2.41-2.16,3.52-5.27,3.48-8.94l3.25-.09c-.03.88-.1,1.72-.17,2.53,1.15,1.66,2.63,2.4,4.43,2.63l-1.22-6.75-10.36,1.88-.51-2.79,23.43-4.25.5,2.79-9.85,1.79.36,1.99,8.18-1.48.5,2.74-8.18,1.48.47,2.58ZM58.62,90.47l-18.43,3.34-1.67-9.22,18.43-3.34,1.67,9.22ZM54.14,84.06l-12.16,2.2.24,1.33,12.16-2.2-.24-1.33ZM54.76,87.46l-12.16,2.2.25,1.35,12.16-2.2-.25-1.35Z" style="fill: #fff; stroke-width: 0px;"/>
              <path d="M70.88,78.86c-.36,1.79-.79,3.68-1.39,5.49l3.38,18.65-3.11.56-2.48-13.71c-.5,1-1.02,1.94-1.56,2.75-.43-.72-1.62-2.28-2.29-2.96,2-2.89,3.65-7.11,4.28-11.2l3.17.41ZM88.48,86.87l-6.53,1.18,2.34,12.94-3.29.6-2.34-12.94-6.83,1.24-.56-3.11,6.83-1.24-1.52-8.37,3.29-.6,1.52,8.37,6.53-1.18.56,3.11Z" style="fill: #fff; stroke-width: 0px;"/>
              <path d="M94.02,78.46l.83,4.57c.78,4.33,1.65,11.22.46,15.88-.63-.46-2.17-1.23-2.86-1.4,1.01-4.27.11-9.98-.6-13.94l-1.32-7.3,9.96-1.8c-.23-.53-.5-1.09-.71-1.52l3.08-1.16c.39.62.8,1.39,1.11,2.05l9.06-1.64.5,2.74-19.5,3.53ZM99.49,87.48l-1.01-5.55-2.9.52-.43-2.36,2.9-.52-.22-1.22,2.36-.43.22,1.22,3.21-.58.43,2.36-3.21.58,1.01,5.55-2.36.43ZM98.12,84c.25,1.35.35,3.01-.63,4.37-.39-.31-1.24-.79-1.74-.95.87-.93.79-2.28.63-3.19l-.19-1.04,1.73-.31.2,1.12ZM111.56,89.1c1.66,1.29,4.01,3.2,5.24,4.37l-2.18,1.74c-.34-.35-.77-.79-1.26-1.23-12.32,3.17-13.8,3.46-14.7,3.95-.2-.48-.81-1.72-1.2-2.39.88-.3,1.71-.83,2.95-1.74.54-.35,1.56-1.08,2.73-2.06-3.39.83-4,1.08-4.4,1.32-.19-.46-.75-1.59-1.14-2.21.52-.15,1.04-.49,1.61-.98.63-.44,2.56-2.06,3.92-3.78-.63-.13-.86-.64-1.03-1.57l-.4-2.23,1.67-.3.41,2.26c.07.4.12.53.39.48.21-.04.61-.11.83-.23.08.26.12.53.2.81.77-.91.73-2.05.58-2.88l-.18-1.01,1.73-.31.2,1.09c.23,1.28.32,2.85-.7,4.16-.36-.32-1.09-.71-1.59-.89l.07.26c-.2.12-.56.21-.91.27l-.48.09h-.03s1.81.75,1.81.75c-1.1,1.19-2.42,2.39-3.72,3.39l3.92-.9c1.08-.99,2.15-2.04,3.08-3.14l2.62,1.14c-2.38,2.49-5.02,4.72-7.61,6.62l7.31-1.87c-.62-.52-1.26-1.03-1.81-1.51l2.06-1.47ZM108.96,85.82l-1.02-5.6-3.19.58-.43-2.36,3.19-.58-.22-1.22,2.36-.43.22,1.22,3.77-.68.43,2.36-3.77.68,1.02,5.6-2.36.43ZM114.23,83.27c.27-.05.77-.17,1.02-.29.1.39.22.89.35,1.31-.22.12-.67.23-1.07.3l-.93.17c-1.38.25-1.73-.32-1.97-1.65l-.48-2.66,1.78-.32.49,2.68c.08.43.13.58.45.52l.37-.07Z" style="fill: #fff; stroke-width: 0px;"/>
            </g>
          </g>
        </g>
      </g>
    </g>
  </g>
</svg>