<?xml version="1.0" encoding="UTF-8"?>
<svg xmlns="http://www.w3.org/2000/svg" width="456.5" height="311.87" xmlns:xlink="http://www.w3.org/1999/xlink" viewBox="0 0 456.5 311.87">
  <defs>
    <linearGradient id="linear-gradient" x1="795.35" y1="128.63" x2="814.2" y2="128.63" gradientTransform="translate(-735.4 272.9) rotate(-7.11)" gradientUnits="userSpaceOnUse">
      <stop offset="0" stop-color="#81ae46"/>
      <stop offset=".06" stop-color="#85b048"/>
      <stop offset=".4" stop-color="#9dbf56"/>
      <stop offset=".72" stop-color="#abc85e"/>
      <stop offset="1" stop-color="#b0cb61"/>
    </linearGradient>
    <linearGradient id="linear-gradient-2" x1="-1041.58" y1="735.3" x2="-1021.77" y2="735.3" gradientTransform="translate(54.21 -988.4) rotate(-123.54) scale(1 -1)" xlink:href="#linear-gradient"/>
    <linearGradient id="linear-gradient-3" x1="-1041.58" y1="735.3" x2="-1021.77" y2="735.3" gradientTransform="translate(54.21 -988.4) rotate(-123.54) scale(1 -1)" xlink:href="#linear-gradient"/>
    <clipPath id="clippath">
      <path id="SVGID-2" data-name="SVGID" d="M.78,274.95c.19-3.83,5.07-5.68,10.9-4.13,2.64.7,5.02,1.98,6.82,3.53,2.17,1.87,3.5,4.13,3.39,6.22-.12,2.44-2.14,4.08-5.1,4.55-1.69.27-3.68.15-5.81-.41-5.45-1.45-9.8-5.36-10.19-9-.03-.25-.03-.5-.02-.75" style="fill: url(#linear-gradient-3); stroke-width: 0px;"/>
    </clipPath>
    <linearGradient id="linear-gradient-4" x1="-694.18" y1="1041.8" x2="-693.89" y2="1041.8" gradientTransform="translate(-5682.53 -131364.34) rotate(-134.09) scale(84.78 -84) skewX(-24.18)" xlink:href="#linear-gradient"/>
    <clipPath id="clippath-1">
      <path id="SVGID-3" data-name="SVGID" d="M16.66,284.67c-1.56.25-3.36.2-5.28-.2-5.91-1.24-10.71-5.36-10.72-9.19-.01-3.85,4.76-5.95,10.67-4.71,2.88.61,5.51,1.9,7.43,3.51" style="fill: none; stroke: #664e4b; stroke-miterlimit: 10; stroke-width: 1.33px;"/>
    </clipPath>
    <linearGradient id="linear-gradient-5" x1="658" y1="-177.85" x2="676.85" y2="-177.85" gradientTransform="translate(-421.17 -224.83) rotate(64.45)" xlink:href="#linear-gradient"/>
    <clipPath id="clippath-2">
      <path id="SVGID-6" data-name="SVGID" d="M89.83,244.57c11.08,20.27,3.62,45.68-16.66,56.76-20.28,11.07-45.69,3.62-56.76-16.66-11.07-20.27-3.62-45.69,16.65-56.76,7.87-4.3,16.52-5.81,24.8-4.85,13.05,1.5,25.19,9.11,31.97,21.51" style="fill: #664e4b; stroke-width: 0px;"/>
    </clipPath>
    <linearGradient id="_未命名漸層_3" data-name="未命名漸層 3" x1="-182.53" y1="264.62" x2="-101.86" y2="264.62" gradientTransform="translate(-89.08) rotate(-180) scale(1 -1)" gradientUnits="userSpaceOnUse">
      <stop offset="0" stop-color="#80ae46"/>
      <stop offset=".07" stop-color="#85b149"/>
      <stop offset=".41" stop-color="#9dbf56"/>
      <stop offset=".73" stop-color="#abc85e"/>
      <stop offset="1" stop-color="#b0cb61"/>
    </linearGradient>
    <clipPath id="clippath-3">
      <path id="SVGID-8" data-name="SVGID" d="M80.34,234.86c16.44,15.04,17.57,40.55,2.53,56.99-15.04,16.44-40.55,17.57-56.99,2.53-16.43-15.03-17.57-40.55-2.53-56.99,9.08-9.92,21.99-14.27,34.4-12.84,8.14.94,16.08,4.36,22.59,10.31" style="fill: url(#_未命名漸層_3); stroke-width: 0px;"/>
    </clipPath>
    <linearGradient id="_未命名漸層_3-2" data-name="未命名漸層 3" x1="-692.93" y1="1030.74" x2="-692.71" y2="1030.74" gradientTransform="translate(260863.51 388290.53) scale(376.45 -376.45)" xlink:href="#_未命名漸層_3"/>
    <radialGradient id="_未命名的渐变_89" data-name="未命名的渐变 89" cx="-1179.83" cy="-1880.13" fx="-1179.83" fy="-1880.13" r="10.41" gradientTransform="translate(-822.85 2277.96) rotate(176.98) scale(.83 -1.04)" gradientUnits="userSpaceOnUse">
      <stop offset=".46" stop-color="#39201a"/>
      <stop offset="1" stop-color="#62371a"/>
    </radialGradient>
    <clipPath id="clippath-4">
      <path id="SVGID-9" data-name="SVGID" d="M64.07,268.36s3.64,13.19-9.35,13.68c-12.98.5-11.21-13.07-11.21-13.07,0,0,13.84-5.67,20.56-.61Z" style="fill: none; stroke-width: 0px;"/>
    </clipPath>
    <clipPath id="clippath-5">
      <path id="SVGID-11" data-name="SVGID" d="M60.6,273.98c-2.96,2.43-1.54,7.46,3.18,11.21,4.72,3.76,10.96,4.83,13.92,2.39,2.97-2.44,1.55-7.46-3.18-11.22-4.41-3.51-10.14-4.67-13.3-2.81-.22.13-.43.27-.62.43" style="fill: #aac362; stroke-width: 0px;"/>
    </clipPath>
    <clipPath id="clippath-6">
      <path id="SVGID-12" data-name="SVGID" d="M77.88,280.95c-.73-1.4-1.84-2.82-3.31-4.12-4.51-4.01-10.69-5.4-13.77-3.12-3.1,2.28-1.94,7.37,2.58,11.37,2.21,1.96,4.8,3.29,7.25,3.88" style="fill: none; stroke: #664e4b; stroke-miterlimit: 10; stroke-width: 1.33px;"/>
    </clipPath>
    <linearGradient id="linear-gradient-6" x1="689.38" y1="175.27" x2="709.19" y2="175.27" gradientTransform="translate(285.16 -415.61) rotate(91.06) scale(1 -1)" xlink:href="#linear-gradient"/>
    <linearGradient id="linear-gradient-7" x1="689.38" y1="175.27" x2="709.19" y2="175.27" gradientTransform="translate(285.16 -415.61) rotate(91.06) scale(1 -1)" xlink:href="#linear-gradient"/>
    <clipPath id="clippath-7">
      <path id="SVGID-15" data-name="SVGID" d="M454.6,295.1c-2.33,3.04-7.4,1.8-11.32-2.79-1.78-2.08-3.01-4.48-3.61-6.78-.73-2.77-.53-5.38.74-7.05,1.49-1.94,4.08-2.14,6.78-.85,1.54.74,3.12,1.97,4.55,3.64,3.66,4.29,5.03,9.97,3.27,13.19-.12.22-.26.43-.41.63" style="fill: url(#linear-gradient-7); stroke-width: 0px;"/>
    </clipPath>
    <linearGradient id="linear-gradient-8" x1="-679.96" y1="1031.47" x2="-679.67" y2="1031.47" gradientTransform="translate(-69016 110165.33) rotate(80.5) scale(84.78 -84) skewX(-24.18)" xlink:href="#linear-gradient"/>
    <clipPath id="clippath-8">
      <path id="SVGID-16" data-name="SVGID" d="M447.04,278.08c1.42.68,2.88,1.74,4.23,3.16,4.16,4.37,5.77,10.49,3.6,13.65-2.17,3.17-7.3,2.2-11.46-2.18-2.03-2.14-3.45-4.69-4.13-7.11" style="fill: none; stroke: #664e4b; stroke-miterlimit: 10; stroke-width: 1.33px;"/>
    </clipPath>
    <clipPath id="clippath-9">
      <path id="SVGID-19" data-name="SVGID" d="M359.27,268.73c1.01-3.69,6.18-4.45,11.53-1.67,5.36,2.77,8.88,8.03,7.86,11.73-1.02,3.71-6.18,4.46-11.54,1.68-5.01-2.6-8.41-7.35-8-10.99.03-.25.08-.5.14-.74" style="fill: #aac362; stroke-width: 0px;"/>
    </clipPath>
    <clipPath id="clippath-10">
      <path id="SVGID-20" data-name="SVGID" d="M372.68,281.66c-1.57-.09-3.32-.53-5.11-1.34-5.5-2.49-9.29-7.55-8.47-11.29.82-3.76,5.93-4.78,11.43-2.29,2.69,1.22,4.96,3.04,6.5,5.03" style="fill: none; stroke: #664e4b; stroke-miterlimit: 10; stroke-width: 1.33px;"/>
    </clipPath>
    <linearGradient id="linear-gradient-9" x1="409.29" y1="349.57" x2="428.15" y2="349.57" gradientTransform="translate(318.99 -230.06) rotate(117.68) scale(1 -1)" xlink:href="#linear-gradient"/>
    <linearGradient id="linear-gradient-10" x1="215.76" y1="59.11" x2="234.61" y2="59.11" gradientTransform="translate(614.54 278.99) rotate(-170.77) scale(1 -1)" xlink:href="#linear-gradient"/>
    <clipPath id="clippath-11">
      <path id="SVGID-22" data-name="SVGID" d="M371.35,258.03c-5.58,21.41,7.29,43.32,28.72,48.86,21.44,5.55,43.31-7.3,48.86-28.74,5.57-21.42-7.3-43.3-28.74-48.84-8.3-2.16-16.69-1.56-24.16,1.26-11.77,4.44-21.29,14.36-24.68,27.46" style="fill: none; stroke: #4b3938; stroke-miterlimit: 10; stroke-width: 1.04px;"/>
    </clipPath>
    <linearGradient id="linear-gradient-11" x1="-694.57" y1="1033.14" x2="-694.37" y2="1033.14" gradientTransform="translate(-28947.76 487999.5) rotate(149.54) scale(392.5)" gradientUnits="userSpaceOnUse">
      <stop offset="0" stop-color="#a5bc60"/>
      <stop offset="1" stop-color="#a5bc60"/>
      <stop offset="1" stop-color="#7ba046"/>
    </linearGradient>
    <clipPath id="clippath-12">
      <path id="SVGID-24" data-name="SVGID" d="M378.07,246.93c-11.71,17.72-6.81,41.56,10.89,53.23,17.73,11.73,41.57,6.83,53.25-10.88,11.69-17.7,6.81-41.56-10.89-53.25-10.7-7.06-23.65-8.1-34.79-3.89-7.32,2.75-13.84,7.76-18.47,14.79" style="fill: none; stroke-width: 0px;"/>
    </clipPath>
    <linearGradient id="linear-gradient-12" x1="-693.86" y1="1031.86" x2="-693.65" y2="1031.86" gradientTransform="translate(-349906.49 310706.83) rotate(-165.46) scale(376.45)" gradientUnits="userSpaceOnUse">
      <stop offset="0" stop-color="#7ba046"/>
      <stop offset=".36" stop-color="#92af54"/>
      <stop offset=".71" stop-color="#a0b85c"/>
      <stop offset="1" stop-color="#a5bc60"/>
    </linearGradient>
    <clipPath id="clippath-13">
      <path id="SVGID-25" data-name="SVGID" d="M426.21,260.02c-5.12.36-8.98,4.81-8.62,9.93.36,5.12,4.8,8.98,9.93,8.62,5.12-.36,8.98-4.8,8.62-9.93-.32-4.58-3.91-8.15-8.33-8.6-.52-.05-1.05-.06-1.6-.02" style="fill: none; stroke-width: 0px;"/>
    </clipPath>
    <linearGradient id="linear-gradient-13" x1="-692.6" y1="1032.48" x2="-692.39" y2="1032.48" gradientTransform="translate(-90986.05 -61048.4) rotate(-90) scale(88.54)" gradientUnits="userSpaceOnUse">
      <stop offset="0" stop-color="#221714"/>
      <stop offset=".35" stop-color="#322b29"/>
      <stop offset=".7" stop-color="#3d3837"/>
      <stop offset="1" stop-color="#413d3c"/>
    </linearGradient>
    <clipPath id="clippath-14">
      <path id="SVGID-26" data-name="SVGID" d="M425.72,263.65c-3.19.22-5.6,2.99-5.37,6.18.22,3.19,2.99,5.6,6.18,5.37,3.2-.23,5.6-2.99,5.37-6.19-.2-2.85-2.43-5.08-5.19-5.36-.33-.03-.66-.04-1-.01" style="fill: none; stroke-width: 0px;"/>
    </clipPath>
    <linearGradient id="linear-gradient-14" x1="-698.53" y1="1027.23" x2="-698.32" y2="1027.23" gradientTransform="translate(38963.81 -56399.69) scale(55.17)" gradientUnits="userSpaceOnUse">
      <stop offset="0" stop-color="#888989"/>
      <stop offset="0" stop-color="#878888"/>
      <stop offset=".37" stop-color="#717170"/>
      <stop offset=".71" stop-color="#636362"/>
      <stop offset="1" stop-color="#5f5f5e"/>
    </linearGradient>
    <clipPath id="clippath-15">
      <path id="SVGID-27" data-name="SVGID" d="M390.92,253.28c-5.12.36-8.98,4.81-8.62,9.93.36,5.12,4.8,8.98,9.93,8.62,5.12-.36,8.99-4.8,8.62-9.93-.32-4.58-3.91-8.15-8.33-8.6-.52-.05-1.05-.06-1.6-.02" style="fill: none; stroke-width: 0px;"/>
    </clipPath>
    <linearGradient id="linear-gradient-15" x1="-692.25" y1="1032.28" x2="-692.04" y2="1032.28" gradientTransform="translate(-91006.56 -61019.19) rotate(-90) scale(88.54)" xlink:href="#linear-gradient-13"/>
    <clipPath id="clippath-16">
      <path id="SVGID-28" data-name="SVGID" d="M390.06,256.92c-3.19.22-5.6,2.99-5.37,6.18.22,3.19,2.99,5.6,6.18,5.37,3.2-.23,5.6-3,5.38-6.19-.2-2.85-2.43-5.08-5.19-5.36-.33-.03-.66-.04-1-.01" style="fill: none; stroke-width: 0px;"/>
    </clipPath>
    <linearGradient id="linear-gradient-16" x1="-699.17" y1="1027.07" x2="-698.96" y2="1027.07" gradientTransform="translate(38960.07 -56399.37) scale(55.17)" xlink:href="#linear-gradient-14"/>
    <radialGradient id="_未命名的渐变_89-2" data-name="未命名的渐变 89" cx="4764.69" cy="-1167.33" fx="4764.69" fy="-1167.33" r="10.31" gradientTransform="translate(-1343.19 657.03) rotate(11.98) scale(.34 .62)" xlink:href="#_未命名的渐变_89"/>
    <clipPath id="clippath-17">
      <path id="SVGID-29" data-name="SVGID" d="M402.7,281.17s-2.82,7.5,2.39,8.49c5.21.99,5.87-7.02,5.87-7.02,0,0-3.91-4-8.26-1.47Z" style="fill: none; stroke-width: 0px;"/>
    </clipPath>
  </defs>
  <g style="isolation: isolate;">
    <g id="_圖層_2" data-name="圖層 2">
      <g id="_圖層_1-2" data-name="圖層 1">
        <g>
          <g>
            <g>
              <g>
                <path d="M166.81,41.74c2.48-11.32-12.73-15.21-24.41-8.49,0,0,8.49-10.26-2.83-16.98-11.32-6.72-22.28-8.84-25.47-7.07-3.18,1.77-5.66,5.66-3.89,19.45,1.77,13.79,8.14,15.56,13.8,14.86,0,0-28.19,18.39-15.69,24.05,12.51,5.66,58.49-25.82,58.49-25.82Z" style="fill: #9d5424; stroke-width: 0px;"/>
                <path d="M109.78,24.39c2.61,15.11,7.39,16.54,9.28,14.03,2.3-3.05-3.54-22.5-1.95-23.57,1.59-1.06,18.97,15,23.88,10.08,1.73-1.74,1.3-5.01-1-8.4-.14-.09-.27-.18-.42-.27-11.32-6.72-22.28-8.84-25.47-7.07-2.83,1.57-5.09,4.82-4.33,15.19Z" style="fill: #9d5424; mix-blend-mode: screen; opacity: .42; stroke-width: 0px;"/>
              </g>
              <g>
                <path d="M282.35,41.74c-2.48-11.32,12.73-15.21,24.41-8.49,0,0-8.49-10.26,2.83-16.98,11.32-6.72,22.28-8.84,25.47-7.07,3.18,1.77,5.66,5.66,3.89,19.45-1.77,13.79-8.14,15.56-13.8,14.86,0,0,28.19,18.39,15.69,24.05-12.51,5.66-58.49-25.82-58.49-25.82Z" style="fill: #9d5424; stroke-width: 0px;"/>
                <path d="M339.38,24.39c-2.61,15.11-7.39,16.54-9.28,14.03-2.3-3.05,3.54-22.5,1.95-23.57-1.59-1.06-18.97,15-23.88,10.08-1.73-1.74-1.3-5.01,1-8.4.14-.09.27-.18.42-.27,11.32-6.72,22.28-8.84,25.47-7.07,2.83,1.57,5.09,4.82,4.33,15.19Z" style="fill: #9d5424; mix-blend-mode: screen; opacity: .42; stroke-width: 0px;"/>
              </g>
            </g>
            <g>
              <g>
                <g>
                  <path d="M84.04,162.71c-4.01-10.14,6.37-16.98,6.37-16.98,0,0-7.55-7.78-11.79-21.46-4.24-13.68-5.19-22.4-3.3-22.64,1.89-.24,20.75,10.14,28.18,23.93,8.95,16.62,7.43,34.55,7.43,34.55l-26.88,2.59Z" style="fill: #eae6e0; stroke-width: 0px;"/>
                  <path d="M103.49,125.57c-3.42-6.34-9.25-11.96-14.74-16.16.67,4.74.96,9.5.97,14.37.01,5.7-1.59,10.86-4.46,15.04,2.8,4.49,5.14,6.91,5.14,6.91,0,0-10.38,6.84-6.37,16.98l26.88-2.59s1.52-17.92-7.43-34.55Z" style="fill: #be9c64; opacity: .48; stroke-width: 0px;"/>
                </g>
                <g>
                  <polygon points="87.34 174.03 108.56 281.09 125.07 283.21 127.9 256.8 111.02 163.65 87.34 169.08 87.34 174.03" style="fill: #eae6e0; stroke-width: 0px;"/>
                  <path d="M108.58,190.11c3.68,1.91,6.48,4.63,8.65,7.86l-6.22-34.32-23.68,5.42v4.95l2.87,14.49c5.66-2.02,13.15-1.12,18.37,1.59Z" style="fill: #be9c64; opacity: .48; stroke-width: 0px;"/>
                  <g>
                    <line x1="104.55" y1="170.26" x2="123.89" y2="262.22" style="fill: none; stroke: #be9c64; stroke-linecap: round; stroke-linejoin: round; stroke-width: .63px;"/>
                    <line x1="98.66" y1="181.22" x2="118.47" y2="279.56" style="fill: none; stroke: #be9c64; stroke-linecap: round; stroke-linejoin: round; stroke-width: .63px;"/>
                  </g>
                </g>
                <g>
                  <path d="M97.24,169.08l16.51-1.89v-10.85s-28.32-13.08-36.61.71c-15.21,25.29,20.87,33.07,20.1,12.03Z" style="fill: #eae6e0; stroke-width: 0px;"/>
                  <path d="M97.24,169.08c.01-6.37-11.79-10.05-14.44-3.52" style="fill: none; stroke: #be9c64; stroke-linecap: round; stroke-linejoin: round; stroke-width: .63px;"/>
                </g>
              </g>
              <g>
                <g>
                  <polygon points="363.76 174.03 342.53 281.09 326.03 283.21 323.2 256.8 340.08 163.65 363.76 169.08 363.76 174.03" style="fill: #eae6e0; stroke-width: 0px;"/>
                  <path d="M326.36,253.02c2.71-20.05,9.58-40.71,22.82-56.32,3.13-3.69,7.16-5.98,11.48-7.03l3.1-15.64v-4.95l-23.68-5.42-16.88,93.15,1.52,14.22c.26-6.1.85-12.15,1.64-18Z" style="fill: #be9c64; opacity: .48; stroke-width: 0px;"/>
                  <g>
                    <line x1="346.54" y1="170.26" x2="327.2" y2="262.22" style="fill: none; stroke: #be9c64; stroke-linecap: round; stroke-linejoin: round; stroke-width: .63px;"/>
                    <line x1="352.44" y1="181.22" x2="332.63" y2="279.56" style="fill: none; stroke: #be9c64; stroke-linecap: round; stroke-linejoin: round; stroke-width: .63px;"/>
                  </g>
                </g>
                <g>
                  <g>
                    <path d="M367.06,162.71c4.01-10.14-6.37-16.98-6.37-16.98,0,0,7.55-7.78,11.79-21.46,4.24-13.68,5.19-22.4,3.3-22.64-1.89-.24-20.75,10.14-28.18,23.93-8.95,16.62-7.43,34.55-7.43,34.55l26.88,2.59Z" style="fill: #eae6e0; stroke-width: 0px;"/>
                    <path d="M360.69,145.73s.49-.5,1.28-1.47c-.14-.19-.28-.37-.41-.56-3.29-4.58-4.93-10.09-5.59-15.63-.23-1.94-.02-3.64.13-5.65.15-2.04.19-3.83.76-5.75.41-1.37.88-2.68,1.41-3.92-4.14,3.66-8.1,8.04-10.67,12.82-8.95,16.62-7.43,34.55-7.43,34.55l26.88,2.59c4.01-10.14-6.37-16.98-6.37-16.98Z" style="fill: #be9c64; opacity: .48; stroke-width: 0px;"/>
                  </g>
                  <g>
                    <path d="M353.85,169.08l-16.51-1.89v-10.85s28.32-13.08,36.61.71c15.21,25.29-20.87,33.07-20.1,12.03Z" style="fill: #eae6e0; stroke-width: 0px;"/>
                    <path d="M353.85,169.08c-.01-6.37,11.79-10.05,14.44-3.52" style="fill: none; stroke: #be9c64; stroke-linecap: round; stroke-linejoin: round; stroke-width: .63px;"/>
                  </g>
                </g>
              </g>
            </g>
            <g>
              <polygon points="225.62 89.14 93.57 89.14 127.9 272.19 225.62 272.19 323.35 272.19 357.68 89.14 225.62 89.14" style="fill: #9d5424; stroke-width: 0px;"/>
              <g>
                <g>
                  <path d="M197.3,166.3c-.75,1.3-1.48,2.62-2.19,3.95h61.04c-.72-1.33-1.44-2.65-2.19-3.95-12.61-21.85-44.05-21.85-56.66,0Z" style="fill: #26283f; stroke-width: 0px;"/>
                  <g>
                    <path d="M222.96,141.49c-18.63,0-31.83,21.22-31.83,21.22v-21.22h31.83Z" style="fill: #eae6e0; stroke-width: 0px;"/>
                    <path d="M228.29,141.49c18.63,0,31.83,21.22,31.83,21.22v-21.22h-31.83Z" style="fill: #eae6e0; stroke-width: 0px;"/>
                  </g>
                  <path d="M226.7,109.84c-4.76,9.12-18.83,16.61-35.58,23.63h71.15c-16.75-7.02-30.82-14.51-35.58-23.63Z" style="fill: #26283f; stroke-width: 0px;"/>
                </g>
                <g>
                  <polygon points="258.35 262.22 192.9 262.22 191.13 178.98 260.12 178.98 258.35 262.22" style="fill: #9d5424; mix-blend-mode: multiply; opacity: .62; stroke-width: 0px;"/>
                  <line x1="225.62" y1="178.98" x2="225.62" y2="262.22" style="fill: none; stroke: #9d5424; stroke-linecap: round; stroke-linejoin: round; stroke-width: .47px;"/>
                  <g>
                    <rect x="221.4" y="220.6" width="2" height="8.73" style="fill: #26283f; stroke-width: 0px;"/>
                    <rect x="227.65" y="220.6" width="2" height="8.73" style="fill: #26283f; stroke-width: 0px;"/>
                  </g>
                  <g style="opacity: .63;">
                    <rect x="198.41" y="186.76" width="20.99" height="22.64" style="fill: #9d5424; stroke-width: 0px;"/>
                    <rect x="198.41" y="238.72" width="20.99" height="18.08" style="fill: #9d5424; stroke-width: 0px;"/>
                    <rect x="232.13" y="238.72" width="20.99" height="18.08" style="fill: #9d5424; stroke-width: 0px;"/>
                    <rect x="232.13" y="215.02" width="20.99" height="18.08" style="fill: #9d5424; stroke-width: 0px;"/>
                    <rect x="198.41" y="215.02" width="20.99" height="18.08" style="fill: #9d5424; stroke-width: 0px;"/>
                    <rect x="232.13" y="186.76" width="20.99" height="22.64" style="fill: #9d5424; stroke-width: 0px;"/>
                  </g>
                </g>
              </g>
              <g>
                <g>
                  <polygon points="139.45 178.98 117.05 178.98 126.95 231.33 145.11 231.33 139.45 178.98" style="fill: #be9c64; stroke-width: 0px;"/>
                  <path d="M141.19,195.08l-1.74-16.1h-15.28c-2.01,2.05-3.99,4.13-5.94,6.24l4.75,25.09c5.95-5.23,12.03-10.3,18.21-15.24Z" style="fill: #be9c64; mix-blend-mode: screen; opacity: .8; stroke-width: 0px;"/>
                  <path d="M126.37,228.27l.58,3.07h18.16l-1.93-17.81c-5.73,4.76-11.34,9.67-16.81,14.74Z" style="fill: #be9c64; mix-blend-mode: screen; opacity: .8; stroke-width: 0px;"/>
                  <g>
                    <line x1="127.9" y1="178.98" x2="135.44" y2="231.33" style="fill: none; stroke: #9d5424; stroke-miterlimit: 10; stroke-width: .63px;"/>
                    <line x1="121.64" y1="203.25" x2="142.08" y2="203.25" style="fill: none; stroke: #9d5424; stroke-miterlimit: 10; stroke-width: .63px;"/>
                  </g>
                </g>
                <g>
                  <polygon points="138.04 170.26 134.03 126.4 108.56 126.4 115.4 170.26 138.04 170.26" style="fill: #be9c64; stroke-width: 0px;"/>
                  <path d="M135.83,146.07l-1.8-19.68h-25.47l6.21,39.83c6.86-6.88,13.98-13.5,21.06-20.16Z" style="fill: #be9c64; mix-blend-mode: screen; opacity: .8; stroke-width: 0px;"/>
                  <path d="M132.99,170.26h5.05l-.41-4.44c-1.55,1.47-3.1,2.95-4.64,4.44Z" style="fill: #be9c64; mix-blend-mode: screen; opacity: .8; stroke-width: 0px;"/>
                  <g>
                    <line x1="120.35" y1="126.4" x2="126.25" y2="170.26" style="fill: none; stroke: #9d5424; stroke-miterlimit: 10; stroke-width: .63px;"/>
                    <line x1="111.98" y1="148.33" x2="136.03" y2="148.33" style="fill: none; stroke: #9d5424; stroke-miterlimit: 10; stroke-width: .63px;"/>
                  </g>
                </g>
              </g>
              <g>
                <g>
                  <polygon points="311.64 178.98 334.04 178.98 324.14 231.33 305.98 231.33 311.64 178.98" style="fill: #be9c64; stroke-width: 0px;"/>
                  <path d="M330.78,196.24l3.27-17.26h-22.4l-5.06,46.83c8.27-9.7,15.77-20,24.2-29.57Z" style="fill: #be9c64; mix-blend-mode: screen; opacity: .8; stroke-width: 0px;"/>
                  <g>
                    <line x1="323.2" y1="178.98" x2="315.65" y2="231.33" style="fill: none; stroke: #9d5424; stroke-miterlimit: 10; stroke-width: .63px;"/>
                    <line x1="329.45" y1="203.25" x2="309.02" y2="203.25" style="fill: none; stroke: #9d5424; stroke-miterlimit: 10; stroke-width: .63px;"/>
                  </g>
                </g>
                <g>
                  <polygon points="313.06 170.26 317.06 126.4 342.53 126.4 335.69 170.26 313.06 170.26" style="fill: #be9c64; stroke-width: 0px;"/>
                  <path d="M336.56,126.4h-19.5l-2.23,24.35c7.68-7.69,14.99-15.74,21.72-24.35Z" style="fill: #be9c64; mix-blend-mode: screen; opacity: .8; stroke-width: 0px;"/>
                  <path d="M317.14,170.26h18.55l3.52-22.58c-6.96,7.91-14.38,15.38-22.07,22.58Z" style="fill: #be9c64; mix-blend-mode: screen; opacity: .8; stroke-width: 0px;"/>
                  <g>
                    <line x1="330.74" y1="126.4" x2="324.85" y2="170.26" style="fill: none; stroke: #9d5424; stroke-miterlimit: 10; stroke-width: .63px;"/>
                    <line x1="339.11" y1="148.33" x2="315.06" y2="148.33" style="fill: none; stroke: #9d5424; stroke-miterlimit: 10; stroke-width: .63px;"/>
                  </g>
                </g>
              </g>
            </g>
            <g>
              <polygon points="225.62 0 78.38 77.11 87.34 96.21 225.62 96.21 363.91 96.21 372.87 77.11 225.62 0" style="fill: #eae6e0; stroke-width: 0px;"/>
              <polygon points="225.62 8.6 372.22 78.51 372.87 77.11 225.62 0 78.38 77.11 79.03 78.51 225.62 8.6" style="fill: #eae6e0; mix-blend-mode: screen; stroke-width: 0px;"/>
              <polygon points="225.62 20.16 107.62 78.53 225.62 78.53 343.63 78.53 225.62 20.16" style="fill: #be9c64; opacity: .48; stroke-width: 0px;"/>
              <path d="M242.13,70.36c-17.93.47-35.76,1.16-53.66-.2-15.07-1.15-30.44-3.67-44.4-9.66l-36.44,18.02h236.01l-34.29-16.96c-21.87,5.76-44.62,8.2-67.21,8.79Z" style="fill: #be9c64; opacity: .48; stroke-width: 0px;"/>
            </g>
            <g>
              <g>
                <polygon points="187.09 262.22 182.62 255.03 151.53 255.03 145.11 262.22 187.09 262.22" style="fill: #eae6e0; stroke-width: 0px;"/>
                <g>
                  <polygon points="187.09 262.22 182.62 255.03 151.53 255.03 145.11 262.22 187.09 262.22" style="fill: #be9c64; opacity: .48; stroke-width: 0px;"/>
                  <g>
                    <polygon points="182.62 255.03 151.53 255.03 141.69 112.48 183.43 112.48 182.62 255.03" style="fill: #eae6e0; stroke-width: 0px;"/>
                    <path d="M161.11,128.74c10.95,6.44,18.35,16.68,21.84,28.86.08.27.15.55.22.82l.26-45.94h-41.74l1.02,14.75c6.12-1.97,12.95-1.7,18.4,1.5Z" style="fill: #be9c64; opacity: .48; stroke-width: 0px;"/>
                    <g>
                      <line x1="148.93" y1="126.4" x2="158.32" y2="250.79" style="fill: none; stroke: #be9c64; stroke-linecap: round; stroke-linejoin: round; stroke-width: .63px;"/>
                      <line x1="158.32" y1="120.26" x2="164.68" y2="250.79" style="fill: none; stroke: #be9c64; stroke-linecap: round; stroke-linejoin: round; stroke-width: .63px;"/>
                      <line x1="168.46" y1="120.26" x2="171.76" y2="250.79" style="fill: none; stroke: #be9c64; stroke-linecap: round; stroke-linejoin: round; stroke-width: .63px;"/>
                      <line x1="176.95" y1="126.4" x2="176.95" y2="250.79" style="fill: none; stroke: #be9c64; stroke-linecap: round; stroke-linejoin: round; stroke-width: .63px;"/>
                    </g>
                  </g>
                  <g>
                    <path d="M151.24,114.78h20.69s.71,9.2,12.56,8.67c11.85-.53,16.27-21.58,0-27.24h-46.51c-14.33,0-19.38,23.83,0,25.82,13.97,1.44,13.26-7.25,13.26-7.25Z" style="fill: #eae6e0; stroke-width: 0px;"/>
                    <path d="M180.92,101.57c4.37.21,8.63.9,12.7,2.29-1.6-3.24-4.54-6.05-9.12-7.65h-46.51c-7.25,0-12.12,6.1-12.66,12.38,3.94-3.57,10.12-9.2,55.6-7.02Z" style="fill: #be9c64; opacity: .48; stroke-width: 0px;"/>
                    <g>
                      <path d="M171.94,114.78c-2.3-13.97,18.57-10.08,13.62-2.3" style="fill: none; stroke: #be9c64; stroke-linecap: round; stroke-linejoin: round; stroke-width: .63px;"/>
                      <path d="M151.24,114.78c.71-7.07-10.79-11.85-14.15-3.36" style="fill: none; stroke: #be9c64; stroke-linecap: round; stroke-linejoin: round; stroke-width: .63px;"/>
                    </g>
                  </g>
                </g>
              </g>
              <g>
                <polygon points="265.78 262.22 270.25 255.03 301.34 255.03 307.76 262.22 265.78 262.22" style="fill: #eae6e0; stroke-width: 0px;"/>
                <g>
                  <g>
                    <polygon points="265.78 262.22 270.25 255.03 301.34 255.03 307.76 262.22 265.78 262.22" style="fill: #be9c64; opacity: .48; stroke-width: 0px;"/>
                    <g>
                      <polygon points="270.25 255.03 301.34 255.03 311.18 112.48 269.44 112.48 270.25 255.03" style="fill: #eae6e0; stroke-width: 0px;"/>
                      <path d="M275.14,153.58c6.96-13.54,19.57-22.64,34.7-21.71l1.34-19.39h-41.74l.31,54.69c1.37-4.67,3.14-9.22,5.39-13.59Z" style="fill: #be9c64; opacity: .48; stroke-width: 0px;"/>
                      <g>
                        <line x1="303.94" y1="126.4" x2="294.55" y2="250.79" style="fill: none; stroke: #be9c64; stroke-linecap: round; stroke-linejoin: round; stroke-width: .63px;"/>
                        <line x1="294.55" y1="120.26" x2="288.18" y2="250.79" style="fill: none; stroke: #be9c64; stroke-linecap: round; stroke-linejoin: round; stroke-width: .63px;"/>
                        <line x1="284.41" y1="120.26" x2="281.11" y2="250.79" style="fill: none; stroke: #be9c64; stroke-linecap: round; stroke-linejoin: round; stroke-width: .63px;"/>
                        <line x1="275.92" y1="126.4" x2="275.92" y2="250.79" style="fill: none; stroke: #be9c64; stroke-linecap: round; stroke-linejoin: round; stroke-width: .63px;"/>
                      </g>
                    </g>
                  </g>
                  <g>
                    <path d="M301.63,114.78h-20.69s-.71,9.2-12.56,8.67c-11.85-.53-16.27-21.58,0-27.24h46.51c14.33,0,19.38,23.83,0,25.82-13.97,1.44-13.26-7.25-13.26-7.25Z" style="fill: #eae6e0; stroke-width: 0px;"/>
                    <path d="M279.56,100.65c5.4-.47,30.27-1.66,37.51-.21,3.31.67,6.45,1.87,9.28,3.54-1.94-4.35-6.04-7.77-11.46-7.77h-46.51c-6.33,2.2-9.51,6.73-10.36,11.47,6.08-4.32,14.07-6.38,21.55-7.03Z" style="fill: #be9c64; opacity: .48; stroke-width: 0px;"/>
                    <g>
                      <path d="M280.93,114.78c2.3-13.97-18.57-10.08-13.62-2.3" style="fill: none; stroke: #be9c64; stroke-linecap: round; stroke-linejoin: round; stroke-width: .63px;"/>
                      <path d="M301.63,114.78c-.71-7.07,10.79-11.85,14.15-3.36" style="fill: none; stroke: #be9c64; stroke-linecap: round; stroke-linejoin: round; stroke-width: .63px;"/>
                    </g>
                  </g>
                </g>
              </g>
            </g>
            <g>
              <rect x="119.42" y="262.22" width="212.4" height="14.62" style="fill: #26283f; stroke-width: 0px;"/>
              <path d="M331.83,276.84H119.42v-7.31c70.8,3.54,141.6,3.54,212.4,0v7.31Z" style="fill: #26283f; mix-blend-mode: multiply; opacity: .62; stroke-width: 0px;"/>
              <rect x="104.55" y="275.9" width="242.14" height="14.62" style="fill: #26283f; stroke-width: 0px;"/>
              <path d="M346.7,290.52H104.55v-7.31c80.71,4.87,161.43,4.87,242.14,0v7.31Z" style="fill: #26283f; mix-blend-mode: multiply; opacity: .62; stroke-width: 0px;"/>
              <rect x="96.06" y="290.52" width="259.13" height="17.85" style="fill: #26283f; stroke-width: 0px;"/>
              <path d="M355.19,308.37H96.06v-8.92c86.38,5.95,172.76,5.95,259.13,0v8.92Z" style="fill: #26283f; mix-blend-mode: multiply; opacity: .62; stroke-width: 0px;"/>
            </g>
          </g>
          <g>
            <g>
              <path d="M109.96,74.56c.95-.59,1.42-.88,2.38-1.46-.66-1.91-.99-2.86-1.64-4.77-.55.21-.82.31-1.37.53-.91-2.55-1.36-3.83-2.27-6.38.57-.22.86-.33,1.43-.55-.54-1.56-.8-2.34-1.34-3.9-.66.25-.99.38-1.64.63-.93-2.55-1.39-3.82-2.32-6.37,4.16-1.62,6.25-2.39,10.45-3.86.77,2.62,1.16,3.93,1.94,6.55-.79.28-1.18.42-1.97.7.49,1.56.73,2.34,1.22,3.9.73-.26,1.1-.39,1.83-.65.76,2.62,1.14,3.93,1.91,6.56-.67.24-1.01.36-1.68.6.48,1.48.72,2.22,1.2,3.7.88-.51,1.32-.77,2.2-1.27.27.66.41.98.69,1.64-1.54,5.46-3.73,9.45-6.69,12.02-1.71-3.05-2.57-4.57-4.31-7.61ZM122.13,69.78c-1.21-3.41-1.82-5.12-3.04-8.53,9-3.25,13.55-4.7,22.7-7.26.83,3.6,1.24,5.4,2.07,9-.54.14-.8.21-1.34.36,1.19.38,1.78.58,2.95.97-.82,1.55-2.07,2.82-3.75,3.85,1.55-.05,3.19-.33,4.95-.81-.85,2.6-1.26,3.9-2.06,6.5-3.31.26-6.24-.6-8.83-2.61.56,1.89.84,2.84,1.4,4.74-2.82.91-4.22,1.38-7.02,2.36-.56-1.75-.84-2.62-1.41-4.37-1.57,2.22-3.57,3.92-6.01,5.14-.53-.63-.79-.95-1.32-1.58,1.85-3.52,3.01-6.42,3.4-8.72-1.08.38-1.63.57-2.71.96ZM116.71,56.53c9.84-3.57,14.81-5.15,24.83-7.91.36,1.68.54,2.52.91,4.19-9.85,2.7-14.74,4.25-24.42,7.75-.52-1.61-.79-2.42-1.31-4.03ZM117.41,55.02c-1.02-3.17-1.53-4.75-2.55-7.92,9.46-3.37,14.23-4.87,23.84-7.51.63,3.3.94,4.95,1.58,8.25-9.22,2.53-13.8,3.97-22.87,7.19ZM121.26,48.48c.18.61.27.91.45,1.52.73-.26,1.1-.38,1.83-.63-.16-.61-.24-.92-.4-1.53-.75.26-1.13.39-1.88.65ZM135.1,60.06c-2.86.84-4.29,1.27-7.14,2.18.13.46.2.69.33,1.15,2.81-.89,4.22-1.32,7.04-2.15-.09-.47-.14-.71-.23-1.18ZM128.54,46.03c-.92.29-1.37.44-2.29.74.15.61.23.92.38,1.54.94-.31,1.41-.46,2.36-.76-.18-.61-.27-.91-.45-1.51ZM139.56,64.2c-2.16.62-3.25.95-5.4,1.61.04.16.07.25.11.41,1.18.8,2.47,1.36,3.88,1.67.56-1.29,1.03-2.52,1.41-3.69,0-.02,0-.02,0-.04,0,.02,0,.02,0,.04ZM134.19,44.22c-.92.28-1.38.42-2.3.7.16.63.25.94.41,1.57.87-.27,1.3-.4,2.16-.66-.11-.64-.17-.96-.28-1.61Z" style="fill: none; stroke: #5b3e27; stroke-linecap: round; stroke-linejoin: round; stroke-width: 5.66px;"/>
              <path d="M145.46,43.84c.76-.2,1.14-.3,1.89-.5-.45-2.16-.68-3.25-1.12-5.41,2.76-.66,4.14-.98,6.92-1.58.4,2.14.6,3.22,1.01,5.36.83-.2,1.24-.29,2.07-.48.55,3.36.83,5.04,1.39,8.4-.76.19-1.13.29-1.89.49.47,2.57.71,3.86,1.18,6.43.59-.31,1.16-.65,1.71-1,.37,1.03.56,1.54.93,2.57-1.55,5.25-4,9.07-7.41,11.55-1.41-3.7-2.12-5.54-3.57-9.22.73-.26,1.45-.54,2.17-.85-.65-3.08-.98-4.63-1.63-7.71-.63.18-.94.27-1.56.46-.83-3.39-1.25-5.09-2.09-8.48ZM161.38,60.63c-.99-4.97-1.48-7.46-2.47-12.43,9.31-1.99,14-2.81,23.4-4.11.48,5.06.72,7.59,1.21,12.64-1.33.19-2,.29-3.33.5.13,1.23.19,1.85.32,3.08,1.77-.43,2.66-.63,4.44-1.03.16,2.59.24,3.88.4,6.46-4.43.6-6.65.95-11.06,1.72-.73-3.6-1.09-5.39-1.83-8.99-.71.12-1.07.18-1.78.31.22,5.93-3.53,9.58-11.22,11.43-.56-.61-.84-.91-1.4-1.51,3.6-3.04,5.28-5.81,4.92-8.39-.65.13-.97.2-1.61.33ZM157.66,41.27c-.4-1.86-.59-2.79-.99-4.65,3.23-.68,4.84-1,8.08-1.61-.15-.59-.22-.88-.37-1.47,3.51-.61,5.26-.88,8.78-1.4,0,.56-.01.85-.02,1.41,3.15-.5,4.72-.74,7.88-1.16.18,1.87.28,2.8.46,4.66-1.18.17-1.77.26-2.95.44-.32.73-.49,1.1-.81,1.83,1.87-.28,2.81-.42,4.69-.68.13,1.58.2,2.36.33,3.94-9.78,1.48-14.64,2.41-24.31,4.64-.39-1.64-.58-2.46-.98-4.1,1.34-.3,2.01-.44,3.35-.72-.22-.68-.33-1.02-.56-1.7-1.04.22-1.56.34-2.6.57ZM168.11,55.43c3.06-.62,4.59-.91,7.67-1.45-.08-.47-.12-.71-.21-1.18-3.07.53-4.6.81-7.66,1.41.08.49.12.73.2,1.22ZM174.95,48.9c-3.07.53-4.61.81-7.67,1.41.08.47.12.71.19,1.18,3.07-.62,4.6-.91,7.68-1.45-.08-.46-.12-.69-.2-1.14ZM171.21,38.65c-1.93.33-2.89.5-4.81.86.6.6.9.9,1.49,1.5,1.33-.25,1.99-.37,3.33-.6,0-.7,0-1.06,0-1.76,0-.02,0-.02,0-.04,0,.02,0,.02,0,.04Z" style="fill: none; stroke: #5b3e27; stroke-linecap: round; stroke-linejoin: round; stroke-width: 5.66px;"/>
              <path d="M189.82,45.69c2.71-.01,4.07,0,6.78.04-.29,1.14-.67,2.2-1.15,3.17,1.12-.12,1.69-.17,2.81-.28.17-1.41.25-2.12.43-3.53,2.58,0,3.86,0,6.43.06-.26,1.13-.85,2.12-1.75,2.98,1.46-.11,2.19-.16,3.65-.26-.02,1.57-.03,2.35-.05,3.92-1.55.12-2.33.18-3.88.31,0,.4.01.61.02,1.01,1.2-.11,1.8-.17,3.01-.27.05,1.04.08,1.55.13,2.59-1.21.09-1.82.13-3.03.23.02.32.03.49.05.81,1.19-.11,1.79-.16,2.98-.26.07,1.11.11,1.67.18,2.78-1.21.09-1.82.13-3.03.23.02.37.03.56.06.93,1.58-.12,2.37-.18,3.94-.28.09,1.47.13,2.2.22,3.67-6.5.38-9.75.66-16.23,1.4-.45-4.08-.67-6.12-1.12-10.2-.35.22-.7.43-1.08.63-.39-.55-.58-.82-.97-1.37.71-2.55,1.25-5.32,1.6-8.32ZM186.31,31.91c1.2-.14,1.8-.2,2.99-.33-.07-.54-.1-.81-.17-1.34,2.48-.31,3.73-.45,6.21-.71.04.57.07.86.11,1.43,1.17-.1,1.75-.15,2.92-.24-.04-.57-.06-.86-.1-1.43,2.34-.18,3.51-.26,5.86-.4.03.56.04.84.07,1.39,1.22-.07,1.83-.11,3.04-.17.03,1.5.05,2.25.08,3.76-1.2.08-1.81.12-3.01.2.03.6.05.91.08,1.51-2.28.14-3.43.22-5.71.39-.04-.59-.06-.88-.1-1.47-1.15.11-1.73.16-2.88.28.05.62.07.93.12,1.54-2.37.28-3.56.44-5.93.76-.08-.68-.12-1.02-.2-1.69-1.17.14-1.75.21-2.92.36-.19-1.54-.29-2.31-.48-3.84ZM188.31,45.55c-.37-3.01-.55-4.52-.92-7.53,3.58-.43,5.37-.63,8.95-.96.23,3.03.34,4.54.58,7.57-3.44.32-5.17.51-8.6.93ZM193.17,40.57c-.57.05-.85.08-1.42.14.05.51.07.76.11,1.27.57-.06.85-.08,1.41-.14-.04-.51-.07-.76-.11-1.27ZM195.53,52.86c.03.39.05.58.08.96.86-.09,1.29-.14,2.15-.23-.03-.39-.04-.58-.07-.97-.86.09-1.29.13-2.15.23ZM195.89,56.29c.03.35.04.53.07.89.86-.09,1.3-.14,2.16-.23-.04-.35-.06-.53-.11-.88-.85.09-1.28.13-2.13.23,0-.02,0-.02,0-.04,0,.02,0,.02,0,.04ZM196.34,60.76c.86-.08,1.29-.12,2.14-.19-.03-.36-.04-.53-.07-.89-.86.09-1.29.13-2.14.23.03.34.04.51.07.85ZM198.35,44.38c-.28-3.02-.42-4.53-.71-7.56,3.6-.32,5.41-.46,9.02-.68.14,3.03.21,4.55.36,7.58-3.47.22-5.2.35-8.66.66ZM203.35,39.56c-.55.04-.83.05-1.38.09.03.51.05.77.08,1.28.55-.04.83-.06,1.38-.09-.03-.51-.04-.77-.07-1.28ZM209.03,28.7c2.86.24,4.29.38,7.14.69-.2.96-.43,1.88-.69,2.77,3.58-.14,5.37-.18,8.96-.23.09,7.31-1.54,11.9-4.82,13.86-.67-.22-1.01-.33-1.69-.55.33-2.54.43-4.48.27-5.82-2.23.1-3.34.16-5.56.3-.49.92-1.01,1.74-1.58,2.46,2.54.19,3.81.3,6.35.54-.14,2.82-.44,5.38-.89,7.69,2.49,2.47,5.16,3.91,8.06,4.33-1.02,3.45-1.52,5.18-2.48,8.64-3.11-1.17-5.43-3.79-6.99-7.94-1.33,3.63-3.23,6.31-5.71,8.09-.45-.54-.67-.8-1.13-1.34,1.93-5.97,2.78-12.46,2.36-19.49-.46.54-.94,1.02-1.43,1.46-.73-.28-1.1-.41-1.84-.69,1-4.52,1.57-9.45,1.67-14.78Z" style="fill: none; stroke: #5b3e27; stroke-linecap: round; stroke-linejoin: round; stroke-width: 5.66px;"/>
              <path d="M240.81,30.81c1.43.06,2.15.09,3.58.16.17-.94.26-1.4.43-2.34,3.39.35,5.08.55,8.46.99-.4.76-.6,1.14-.99,1.9,1.5.11,2.25.17,3.74.31-.23,1.83-.35,2.74-.58,4.57.08-.18.12-.27.21-.45.27.05.54.12.81.2.93-2.4,1.4-3.59,2.36-5.98,1.59.42,2.39.63,3.98,1.07-.67,2.29-2.24,4.1-4.69,5.47.72.31,1.4.67,2.04,1.08.95-1.58,1.44-2.36,2.41-3.93,1.48.74,2.21,1.11,3.67,1.86-1.07,1.76-2.18,3.34-3.32,4.73,1.36,2.61,2.15,5.37,2.42,8.27-1.29.3-1.93.45-3.22.76-.06-.8-.08-1.2-.14-2-2.19,1.14-4.26,1.77-6.24,1.88-.37-2.25-.55-3.37-.94-5.62.71.04,1.06.06,1.77.1.48-.84.73-1.26,1.21-2.09-1-1.63-1.51-2.45-2.53-4.07-.5,3.93-.74,5.9-1.23,9.84-5.52-.5-8.28-.68-13.81-.94,0-.06,0-.09,0-.16-1.23.39-1.85.58-3.07.98-.11-.8-.17-1.19-.29-1.99-2.1,1.31-4.12,2.1-6.08,2.37-.53-2.21-.79-3.32-1.34-5.53.71-.02,1.06-.03,1.77-.04.42-.87.64-1.31,1.06-2.18-1.22-1.71-1.84-2.56-3.1-4.25.22-.54.33-.81.56-1.35.27.03.55.08.82.13.76-2.46,1.14-3.7,1.92-6.15,1.62.29,2.43.44,4.04.75-.5,2.33-1.94,4.26-4.28,5.83.73.25,1.44.56,2.11.91.84-1.65,1.26-2.47,2.12-4.11,1.52.62,2.28.93,3.79,1.56-.94,1.84-1.93,3.5-2.96,4.98,1.46,2.39,2.43,4.94,2.94,7.66.22-6.07.34-9.1.56-15.17ZM229.36,55.18c-.02-2.56-.03-3.84-.05-6.39,5.62.05,8.43.14,14.04.44.02-.7.03-1.05.06-1.74,3.26.17,4.89.28,8.14.53-.06.7-.08,1.04-.14,1.74,5.39.43,8.08.7,13.45,1.35-.3,2.55-.46,3.83-.76,6.38-3.43-.4-5.15-.58-8.59-.89,2.66,1.39,5.64,2.34,8.98,2.89-1.65,2.51-2.46,3.78-4.05,6.31-4.05-1.38-7.32-3.27-9.85-5.74-.14,1.81-.22,2.71-.36,4.52-2.95-.24-4.42-.35-7.37-.52.06-1.78.08-2.67.14-4.45-3.82,2.27-8.16,3.28-13.15,3.1-.32-.77-.48-1.15-.81-1.91,3.21-1.5,5.85-3.3,7.93-5.46-3.04-.1-4.57-.13-7.61-.15ZM236.15,39.87c-.68.83-1.37,1.59-2.06,2.29.94,0,1.4,0,2.34,0-.11-.92-.17-1.38-.28-2.3,0-.02,0-.02,0-.04,0,.02,0,.02,0,.04ZM249.41,35.48c-1.05-.05-1.58-.08-2.64-.12-.04.68-.07,1.02-.11,1.7,1.03.06,1.55.09,2.58.15.07-.69.1-1.04.17-1.73ZM246.39,42.55c.95.07,1.43.1,2.38.18.06-.65.09-.97.16-1.62-.97-.08-1.46-.11-2.43-.18-.04.65-.06.97-.1,1.62ZM261.66,41.89c-.74.77-1.48,1.48-2.22,2.12.93.07,1.4.11,2.33.19-.05-.93-.07-1.39-.12-2.31Z" style="fill: none; stroke: #5b3e27; stroke-linecap: round; stroke-linejoin: round; stroke-width: 5.66px;"/>
              <path d="M275.18,32.34c2.79.53,4.19.81,6.97,1.4-.34,1.97-.5,2.95-.84,4.92.61.09.91.14,1.52.23-.5,2.9-.75,4.34-1.24,7.24-.58-.07-.87-.11-1.45-.18-.2,1.11-.29,1.67-.49,2.78.52-.04,1.05-.08,1.57-.11.18.69.27,1.04.45,1.73-.9.81-1.77,1.55-2.64,2.23-.95,5.71-1.43,8.56-2.38,14.27-2.43.2-3.64.31-6.05.56-.39-2.88-.59-4.32-1.01-7.2.74-.04,1.11-.07,1.86-.11.19-1.43.28-2.14.47-3.57-.8.27-1.6.45-2.41.53.1-3.27.14-4.91.22-8.18,1.04.05,2.12.07,3.23.06.19-1.47.29-2.21.48-3.68-1.07-.1-1.6-.15-2.66-.25.28-3.09.43-4.63.71-7.72,1.2.14,1.8.22,3,.38.29-2.13.43-3.2.72-5.33ZM280.45,57.99c.4-2.49.6-3.73,1.01-6.22,3.26.59,4.88.9,8.13,1.57.14-.79.2-1.19.34-1.98.99.21,1.49.32,2.48.54.72-3.83,1.07-5.75,1.79-9.58-1.67-.35-2.51-.52-4.18-.85-.13.5-.19.74-.32,1.24,1.24.37,1.86.55,3.09.93-1.21,4.88-4.44,7.38-9.65,7.7-.27-.68-.41-1.02-.69-1.7,1.56-1.33,2.78-3.42,3.65-6.27-1.15-.19-1.73-.29-2.88-.47.57-3.26.85-4.89,1.42-8.15,9.93,1.68,14.88,2.7,24.72,5.14-.68,3.33-1.03,5-1.71,8.33-2.57-.6-3.85-.89-6.43-1.45.25-1.1.37-1.65.61-2.75-.66-.16-.99-.24-1.65-.4-.36,1.79-.53,2.68-.89,4.47,3.06.34,4.59.52,7.66.94-.84,2.52-1.26,3.79-2.1,6.31-3.07-.71-4.6-1.05-7.68-1.68-.11.53-.17.79-.28,1.32,3.34.78,5.01,1.19,8.34,2.06-.55,2.27-.82,3.4-1.37,5.67-2.03-.48-3.05-.7-5.08-1.15.77,1.73,2.52,3.12,5.23,4.22-1.67,2.41-2.49,3.63-4.12,6.06-2.51-1.4-4.22-3.54-5.15-6.49-.5,2.46-.74,3.68-1.24,6.14-2.79-.55-4.18-.81-6.97-1.29.38-2.15.57-3.22.96-5.37-2.6,1.5-5.41,2.04-8.47,1.63-.23-.67-.34-1.01-.58-1.68,2-1.58,4.11-3.6,6.34-6.07-1.74-.3-2.6-.44-4.34-.72,0-.01,0-.02,0-.04,0,.01,0,.02,0,.04Z" style="fill: none; stroke: #5b3e27; stroke-linecap: round; stroke-linejoin: round; stroke-width: 5.66px;"/>
              <path d="M313.53,68.66c2.42,1.56,3.62,2.35,6,3.95-3.22,2.14-7.4,2.77-12.62,2.02-.34-.51-.51-.77-.86-1.29,3.13-1.68,5.63-3.23,7.47-4.69ZM313.27,48.16c5.27,1.42,7.9,2.18,13.13,3.83.15-.52.23-.78.39-1.29-4.66-1.47-6.99-2.16-11.68-3.46.4-1.86.6-2.79,1-4.65,4.81,1.36,7.21,2.08,11.98,3.62.18-.59.27-.89.44-1.48,3.59,1.25,5.37,1.9,8.93,3.25-.18.51-.28.76-.46,1.27,4.6,1.63,6.89,2.48,11.44,4.29-.7,1.67-1.05,2.51-1.75,4.19-4.49-1.74-6.75-2.57-11.28-4.14-.18.49-.27.74-.45,1.23,5.28,1.82,7.9,2.79,13.13,4.84-1.28,3.68-1.92,5.52-3.2,9.21-2.83-1.07-4.24-1.59-7.08-2.6.05-.15.08-.22.13-.36-3.83.93-7.64,1.52-11.47,1.77,2.68.82,5.26,1.59,7.76,2.3-.05-.91-.07-1.36-.13-2.27.93-.02,1.39-.02,2.32-.03,3.06,3.14,5.11,6.06,6.2,8.7-3.24-.45-4.86-.65-8.09-1.01-.07-1.41-.1-2.11-.18-3.53-1.33-.06-2.77-.19-4.33-.37-1.42,3.86-2.12,5.79-3.53,9.66-3.17-1.08-4.76-1.59-7.94-2.58.88-3.43,1.32-5.14,2.19-8.57-3.48-.66-7.32-1.47-11.54-2.38-.08-2.24-.13-3.36-.23-5.6,3.03,1.01,5.95,1.98,8.79,2.9.02,0,.05.02.08.02-1.94-2.08-2.93-3.11-4.93-5.16.42-.34.64-.51,1.06-.85.97.21,2.16.6,3.56,1.2,2.06-1.57,3.64-2.96,4.7-4.18-1.25-.4-1.88-.6-3.13-.98-.47,1.66-.7,2.5-1.17,4.16-2.86-.84-4.29-1.24-7.17-2,1-3.57,1.5-5.35,2.51-8.92ZM331.59,60.08c2.59,2.26,3.86,3.4,6.37,5.71.55-1.6.83-2.4,1.39-4-3.65-1.38-5.48-2.04-9.15-3.3-2.48,1.37-5.54,2.44-9.17,3.27.83.43,1.7.9,2.61,1.42,2.78-.92,5.43-1.95,7.95-3.1ZM335.87,76.29c.67,2.32,1.82,5.15,3.4,8.48-.57.2-.86.3-1.42.5-4.66-2.67-7.54-5.72-8.63-9.35,2.66.12,3.99.19,6.66.37,0-.01,0-.02.01-.04,0,.01,0,.02-.01.04Z" style="fill: none; stroke: #5b3e27; stroke-linecap: round; stroke-linejoin: round; stroke-width: 5.66px;"/>
            </g>
            <g>
              <path d="M106.37,72.55c.95-.6,1.43-.9,2.39-1.49-.67-1.9-1.01-2.85-1.68-4.76-.55.22-.83.32-1.38.54-.93-2.55-1.39-3.82-2.32-6.36.58-.23.86-.34,1.44-.57-.55-1.55-.82-2.33-1.37-3.89-.66.26-.99.39-1.66.65-.95-2.54-1.42-3.81-2.37-6.35,4.19-1.67,6.29-2.47,10.51-3.99.79,2.61,1.19,3.92,1.99,6.53-.79.29-1.19.43-1.98.72.5,1.56.75,2.34,1.25,3.89.74-.27,1.11-.41,1.84-.67.78,2.62,1.17,3.92,1.96,6.54-.68.25-1.02.37-1.69.62.49,1.48.74,2.22,1.23,3.69.88-.52,1.33-.78,2.22-1.3.28.65.42.98.7,1.63-1.53,5.49-3.72,9.5-6.69,12.11-1.74-3.04-2.61-4.55-4.38-7.57ZM118.64,67.62c-1.24-3.4-1.86-5.1-3.11-8.5,9.06-3.36,13.64-4.86,22.87-7.53.85,3.59,1.28,5.39,2.14,8.98-.54.15-.81.22-1.35.37,1.2.37,1.8.56,2.99.94-.82,1.56-2.08,2.85-3.77,3.89,1.56-.07,3.22-.36,4.99-.87-.84,2.61-1.25,3.92-2.04,6.53-3.34.3-6.3-.53-8.93-2.51.58,1.89.86,2.83,1.44,4.72-2.84.94-4.25,1.43-7.07,2.44-.58-1.74-.87-2.61-1.44-4.35-1.58,2.24-3.58,3.96-6.04,5.21-.54-.63-.8-.94-1.34-1.56,1.85-3.55,3.01-6.46,3.39-8.76-1.09.39-1.64.59-2.73.99ZM113.1,54.42c9.9-3.69,14.91-5.33,25-8.19.37,1.67.56,2.51.94,4.19-9.92,2.81-14.85,4.42-24.6,8.03-.54-1.61-.81-2.41-1.34-4.02ZM113.8,52.9c-1.05-3.16-1.57-4.74-2.61-7.9,9.52-3.48,14.33-5.04,24.01-7.78.65,3.3.98,4.94,1.64,8.24-9.29,2.63-13.9,4.12-23.03,7.45ZM117.65,46.31c.18.61.27.91.46,1.51.74-.26,1.1-.39,1.84-.65-.16-.61-.25-.92-.41-1.53-.76.27-1.13.4-1.89.67ZM131.67,57.74c-2.88.87-4.32,1.32-7.19,2.26.14.46.2.69.34,1.15,2.83-.93,4.25-1.37,7.09-2.23-.09-.47-.14-.71-.24-1.18ZM124.98,43.78c-.92.3-1.38.46-2.3.76.16.61.24.92.4,1.53.95-.32,1.42-.48,2.37-.79-.19-.6-.28-.91-.47-1.51ZM136.19,61.84c-2.18.65-3.27.98-5.44,1.67.05.16.07.25.11.41,1.19.79,2.5,1.33,3.92,1.63.56-1.29,1.03-2.53,1.41-3.71,0-.02,0-.02,0-.04,0,.02,0,.02,0,.04ZM130.67,41.9c-.93.29-1.39.43-2.31.72.17.63.25.94.42,1.57.87-.28,1.31-.41,2.18-.68-.12-.64-.17-.96-.29-1.6Z" style="fill: none; stroke: #fff; stroke-linecap: round; stroke-linejoin: round; stroke-width: 4.4px;"/>
              <path d="M142.03,41.4c.76-.21,1.14-.32,1.91-.52-.47-2.16-.7-3.24-1.16-5.4,2.78-.69,4.18-1.02,6.97-1.66.42,2.14.63,3.21,1.05,5.35.83-.2,1.25-.31,2.08-.51.58,3.36.87,5.03,1.45,8.39-.76.2-1.14.3-1.9.51.49,2.57.74,3.85,1.23,6.42.59-.32,1.17-.66,1.72-1.02.38,1.02.58,1.54.96,2.56-1.54,5.27-3.99,9.12-7.41,11.63-1.44-3.68-2.18-5.52-3.65-9.19.73-.27,1.46-.56,2.19-.87-.68-3.08-1.01-4.62-1.69-7.7-.63.19-.95.28-1.57.48-.86-3.38-1.29-5.07-2.15-8.46ZM158.19,58.03c-1.03-4.97-1.54-7.45-2.57-12.41,9.39-2.09,14.11-2.96,23.59-4.34.52,5.05.78,7.58,1.3,12.63-1.34.2-2.01.31-3.35.53.14,1.23.2,1.85.34,3.08,1.79-.44,2.68-.66,4.48-1.08.18,2.58.27,3.88.45,6.46-4.47.65-6.7,1.01-11.16,1.83-.76-3.59-1.14-5.38-1.9-8.97-.72.13-1.07.19-1.79.32.26,5.93-3.5,9.62-11.26,11.55-.56-.6-.85-.9-1.42-1.5,3.61-3.08,5.3-5.87,4.92-8.45-.65.14-.98.21-1.63.35ZM154.33,38.7c-.41-1.86-.62-2.79-1.03-4.64,3.25-.72,4.88-1.06,8.14-1.69-.15-.59-.23-.88-.38-1.46,3.53-.64,5.3-.94,8.85-1.48,0,.56,0,.85,0,1.41,3.17-.54,4.76-.78,7.94-1.24.2,1.86.3,2.8.5,4.66-1.19.18-1.78.27-2.97.47-.32.74-.48,1.11-.8,1.84,1.89-.3,2.83-.45,4.72-.72.14,1.57.22,2.36.36,3.93-9.86,1.57-14.76,2.55-24.5,4.88-.4-1.64-.6-2.46-1.01-4.09,1.35-.31,2.03-.46,3.38-.76-.23-.68-.34-1.02-.57-1.7-1.05.23-1.57.35-2.62.59ZM164.96,52.76c3.09-.65,4.63-.96,7.73-1.53-.09-.47-.13-.71-.21-1.18-3.1.56-4.64.85-7.72,1.49.08.49.13.73.21,1.22ZM171.82,46.16c-3.1.56-4.64.86-7.73,1.49.08.47.12.71.2,1.18,3.09-.65,4.64-.96,7.74-1.53-.08-.46-.13-.68-.21-1.14ZM167.98,35.94c-1.94.35-2.91.53-4.85.91.61.59.91.89,1.52,1.49,1.34-.26,2.01-.39,3.35-.64,0-.71-.01-1.06-.02-1.76,0-.02,0-.02,0-.04,0,.02,0,.02,0,.04Z" style="fill: none; stroke: #fff; stroke-linecap: round; stroke-linejoin: round; stroke-width: 4.4px;"/>
              <path d="M186.81,42.8c2.74-.04,4.11-.04,6.84-.02-.28,1.14-.66,2.2-1.14,3.18,1.13-.13,1.7-.19,2.83-.31.16-1.41.24-2.12.41-3.54,2.6-.03,3.9-.03,6.49,0-.26,1.13-.84,2.13-1.75,3,1.47-.12,2.21-.18,3.68-.29,0,1.57-.01,2.35-.02,3.92-1.57.13-2.35.2-3.91.35.01.4.02.6.03,1.01,1.21-.12,1.82-.18,3.03-.29.06,1.04.09,1.55.15,2.59-1.22.1-1.83.15-3.05.26.02.32.03.49.06.81,1.2-.12,1.8-.18,3-.29.08,1.11.12,1.67.2,2.78-1.22.1-1.84.15-3.06.26.03.37.04.56.06.93,1.59-.14,2.39-.2,3.98-.32.1,1.47.15,2.2.25,3.67-6.56.44-9.84.75-16.38,1.55-.48-4.07-.72-6.11-1.19-10.19-.35.22-.71.43-1.08.64-.39-.54-.59-.82-.99-1.36.7-2.56,1.22-5.34,1.56-8.34ZM183.17,29.05c1.21-.15,1.81-.22,3.02-.36-.07-.54-.11-.81-.18-1.34,2.5-.33,3.76-.49,6.26-.77.05.57.07.86.12,1.43,1.18-.11,1.76-.16,2.94-.27-.04-.57-.07-.86-.11-1.43,2.36-.2,3.54-.29,5.91-.46.03.56.05.84.08,1.39,1.23-.08,1.84-.12,3.07-.2.04,1.5.07,2.25.11,3.76-1.22.09-1.82.13-3.04.23.04.6.06.9.09,1.51-2.3.16-3.46.25-5.76.45-.05-.59-.07-.88-.11-1.47-1.16.12-1.74.18-2.91.3.05.62.08.93.13,1.54-2.39.31-3.59.47-5.98.82-.09-.68-.13-1.01-.21-1.69-1.18.15-1.77.23-2.94.39-.2-1.54-.3-2.3-.51-3.84ZM185.28,42.67c-.39-3.01-.59-4.51-.98-7.52,3.61-.47,5.41-.68,9.03-1.05.25,3.03.38,4.54.63,7.56-3.47.36-5.21.56-8.68,1.01ZM190.16,37.64c-.57.06-.86.09-1.43.15.05.51.07.76.12,1.27.57-.06.86-.09,1.43-.15-.05-.51-.07-.76-.12-1.27ZM192.62,49.92c.03.39.05.58.09.96.87-.1,1.3-.15,2.16-.25-.03-.39-.05-.58-.08-.96-.87.1-1.3.15-2.17.25ZM193.01,53.34c.03.35.05.53.08.89.87-.1,1.31-.15,2.18-.25-.05-.35-.07-.53-.11-.88-.86.1-1.29.14-2.15.25,0-.02,0-.02,0-.04,0,.02,0,.02,0,.04ZM193.49,57.81c.86-.09,1.3-.13,2.16-.21-.03-.36-.04-.53-.07-.89-.87.1-1.3.15-2.16.25.03.34.05.51.08.85ZM195.41,41.41c-.31-3.02-.46-4.53-.77-7.55,3.63-.36,5.45-.51,9.09-.76.17,3.03.25,4.55.41,7.58-3.5.25-5.25.39-8.74.74ZM200.42,36.54c-.56.04-.84.06-1.39.1.03.51.05.77.09,1.28.56-.04.83-.06,1.39-.1-.03-.51-.05-.77-.08-1.28ZM206.08,25.63c2.89.22,4.33.34,7.21.62-.2.96-.42,1.89-.68,2.77,3.61-.17,5.42-.23,9.03-.3.15,7.31-1.47,11.91-4.76,13.9-.68-.22-1.02-.32-1.71-.54.32-2.54.4-4.48.23-5.82-2.25.12-3.37.19-5.61.35-.49.93-1.01,1.75-1.58,2.48,2.57.17,3.85.27,6.41.49-.12,2.82-.4,5.38-.84,7.7,2.54,2.45,5.24,3.86,8.17,4.26-1,3.46-1.49,5.19-2.44,8.66-3.15-1.14-5.51-3.75-7.11-7.87-1.32,3.64-3.22,6.34-5.71,8.14-.46-.53-.69-.8-1.15-1.33,1.91-5.99,2.72-12.48,2.25-19.52-.46.54-.94,1.03-1.43,1.47-.74-.27-1.12-.4-1.86-.67.98-4.53,1.52-9.46,1.58-14.79Z" style="fill: none; stroke: #fff; stroke-linecap: round; stroke-linejoin: round; stroke-width: 4.4px;"/>
              <path d="M238.15,27.47c1.45.05,2.17.07,3.61.14.16-.94.25-1.41.41-2.34,3.42.33,5.13.51,8.54.92-.4.76-.59,1.14-.98,1.9,1.51.1,2.27.16,3.78.28-.22,1.83-.33,2.75-.54,4.58.08-.18.12-.27.2-.45.27.05.55.11.82.19.92-2.4,1.39-3.6,2.33-6,1.61.41,2.41.61,4.02,1.04-.65,2.29-2.23,4.11-4.69,5.51.72.3,1.41.66,2.07,1.06.95-1.58,1.43-2.37,2.4-3.95,1.5.72,2.24,1.09,3.72,1.83-1.07,1.77-2.17,3.35-3.31,4.76,1.39,2.6,2.22,5.35,2.51,8.25-1.3.31-1.95.46-3.24.79-.06-.8-.09-1.2-.16-2-2.2,1.15-4.29,1.8-6.28,1.92-.39-2.24-.59-3.37-.99-5.61.72.03,1.07.05,1.79.09.48-.84.72-1.26,1.21-2.1-1.02-1.62-1.54-2.43-2.59-4.05-.47,3.94-.7,5.91-1.16,9.85-5.57-.45-8.36-.62-13.94-.83,0-.06,0-.09,0-.16-1.24.4-1.86.6-3.09,1.01-.12-.79-.18-1.19-.3-1.99-2.11,1.33-4.14,2.13-6.12,2.42-.55-2.21-.83-3.31-1.39-5.52.72-.02,1.07-.04,1.79-.06.42-.88.63-1.32,1.06-2.19-1.25-1.7-1.88-2.54-3.16-4.22.22-.54.33-.81.55-1.35.28.03.55.07.83.12.74-2.47,1.12-3.7,1.89-6.17,1.64.28,2.45.42,4.08.72-.49,2.34-1.92,4.28-4.27,5.87.74.25,1.46.55,2.14.9.83-1.65,1.25-2.48,2.1-4.13,1.54.6,2.31.91,3.84,1.53-.93,1.85-1.92,3.52-2.95,5.01,1.49,2.37,2.49,4.92,3.03,7.63.18-6.07.27-9.11.44-15.18ZM226.78,51.93c-.04-2.56-.06-3.83-.1-6.39,5.67,0,8.51.07,14.17.32.02-.7.03-1.05.04-1.74,3.29.14,4.93.24,8.22.47-.05.7-.08,1.04-.13,1.74,5.44.38,8.16.63,13.58,1.25-.29,2.55-.43,3.83-.71,6.38-3.47-.38-5.2-.54-8.68-.82,2.69,1.37,5.71,2.3,9.09,2.82-1.64,2.53-2.45,3.79-4.03,6.34-4.1-1.35-7.42-3.21-9.99-5.67-.13,1.81-.2,2.71-.33,4.52-2.98-.22-4.47-.31-7.45-.46.04-1.78.06-2.67.11-4.45-3.84,2.3-8.21,3.34-13.25,3.21-.33-.76-.49-1.14-.83-1.91,3.23-1.52,5.88-3.35,7.96-5.53-3.07-.07-4.61-.09-7.68-.09ZM233.52,36.56c-.68.83-1.37,1.6-2.06,2.31.95,0,1.42-.01,2.36-.01-.12-.92-.18-1.38-.3-2.3,0-.02,0-.02,0-.04,0,.02,0,.02,0,.04ZM246.86,32.07c-1.06-.04-1.6-.06-2.66-.1-.04.68-.06,1.02-.1,1.7,1.04.05,1.56.07,2.6.13.06-.69.09-1.04.15-1.74ZM243.88,39.17c.96.06,1.44.09,2.4.16.06-.65.09-.97.14-1.62-.98-.07-1.47-.1-2.45-.16-.04.65-.06.97-.09,1.62ZM259.27,38.39c-.74.78-1.48,1.49-2.22,2.14.94.07,1.41.1,2.36.17-.05-.92-.08-1.39-.14-2.31Z" style="fill: none; stroke: #fff; stroke-linecap: round; stroke-linejoin: round; stroke-width: 4.4px;"/>
              <path d="M272.82,28.74c2.82.51,4.23.78,7.04,1.35-.32,1.97-.48,2.95-.8,4.92.61.09.92.13,1.53.22-.48,2.9-.71,4.35-1.19,7.25-.59-.07-.88-.1-1.46-.17-.19,1.11-.28,1.67-.47,2.78.53-.04,1.05-.08,1.58-.12.19.69.28,1.04.46,1.73-.9.81-1.78,1.56-2.64,2.25-.91,5.71-1.36,8.57-2.27,14.29-2.45.21-3.67.33-6.1.6-.42-2.88-.63-4.32-1.08-7.19.75-.05,1.12-.07,1.87-.12.18-1.43.26-2.14.44-3.57-.81.27-1.62.46-2.42.55.07-3.27.1-4.91.15-8.18,1.05.04,2.14.05,3.25.03.18-1.48.27-2.21.46-3.69-1.08-.1-1.61-.14-2.69-.23.26-3.09.39-4.63.64-7.73,1.21.14,1.82.21,3.03.35.27-2.13.4-3.2.67-5.34ZM278.37,54.36c.38-2.49.58-3.74.96-6.23,3.29.56,4.94.87,8.22,1.52.13-.79.2-1.19.33-1.99,1,.2,1.5.31,2.51.52.69-3.84,1.03-5.76,1.72-9.59-1.69-.34-2.53-.5-4.22-.82-.12.5-.18.74-.31,1.24,1.25.36,1.88.54,3.13.91-1.18,4.89-4.41,7.41-9.66,7.77-.28-.68-.42-1.02-.71-1.7,1.56-1.35,2.77-3.44,3.62-6.3-1.16-.19-1.74-.28-2.91-.45.54-3.27.82-4.9,1.36-8.16,10.03,1.61,15.03,2.6,24.96,4.98-.66,3.34-.99,5.01-1.65,8.35-2.6-.59-3.89-.87-6.5-1.4.24-1.1.36-1.65.59-2.76-.67-.16-1-.24-1.67-.39-.34,1.79-.51,2.69-.86,4.48,3.09.32,4.63.49,7.73.89-.83,2.53-1.24,3.8-2.06,6.33-3.1-.69-4.65-1.02-7.76-1.63-.11.53-.16.79-.27,1.32,3.38.75,5.07,1.16,8.43,2-.53,2.27-.79,3.41-1.32,5.68-2.05-.46-3.08-.69-5.14-1.11.79,1.73,2.57,3.1,5.31,4.19-1.66,2.43-2.48,3.64-4.1,6.09-2.54-1.38-4.29-3.52-5.26-6.46-.48,2.46-.71,3.69-1.19,6.15-2.82-.53-4.23-.78-7.05-1.25.37-2.15.55-3.23.92-5.38-2.61,1.52-5.44,2.07-8.53,1.69-.24-.67-.36-1-.6-1.67,2-1.59,4.11-3.63,6.34-6.12-1.75-.29-2.63-.42-4.39-.69,0-.01,0-.02,0-.04,0,.01,0,.02,0,.04Z" style="fill: none; stroke: #fff; stroke-linecap: round; stroke-linejoin: round; stroke-width: 4.4px;"/>
              <path d="M311.83,64.81c2.46,1.54,3.68,2.33,6.09,3.92-3.22,2.16-7.43,2.81-12.7,2.1-.35-.51-.52-.77-.88-1.28,3.14-1.7,5.65-3.27,7.49-4.74ZM311.36,44.3c5.33,1.39,7.98,2.14,13.27,3.75.15-.52.23-.78.38-1.3-4.71-1.44-7.07-2.12-11.81-3.38.39-1.86.58-2.8.97-4.66,4.86,1.33,7.28,2.04,12.11,3.55.17-.59.26-.89.43-1.48,3.63,1.23,5.43,1.86,9.03,3.2-.18.51-.27.76-.45,1.27,4.65,1.6,6.96,2.45,11.57,4.22-.69,1.68-1.04,2.52-1.72,4.2-4.54-1.72-6.83-2.53-11.41-4.07-.18.49-.26.74-.44,1.23,5.33,1.79,7.99,2.74,13.27,4.77-1.25,3.69-1.87,5.54-3.12,9.23-2.86-1.06-4.29-1.57-7.16-2.56.05-.15.07-.22.12-.37-3.85.95-7.69,1.56-11.54,1.84,2.71.8,5.32,1.56,7.84,2.26-.06-.91-.09-1.36-.15-2.27.93-.02,1.4-.03,2.33-.05,3.12,3.12,5.21,6.04,6.34,8.67-3.27-.43-4.9-.63-8.16-.97-.08-1.41-.12-2.12-.21-3.53-1.34-.05-2.8-.17-4.37-.34-1.39,3.87-2.08,5.81-3.46,9.69-3.21-1.06-4.81-1.57-8.04-2.54.85-3.44,1.28-5.15,2.12-8.59-3.52-.64-7.4-1.42-11.66-2.32-.1-2.24-.16-3.36-.28-5.6,3.06,1,6.02,1.95,8.89,2.85.02,0,.05.02.08.02-1.98-2.07-2.98-3.1-5.02-5.14.42-.34.64-.52,1.06-.86.98.2,2.19.59,3.6,1.18,2.06-1.58,3.64-2.98,4.7-4.21-1.26-.39-1.9-.59-3.17-.97-.45,1.67-.68,2.5-1.13,4.17-2.89-.82-4.34-1.21-7.24-1.96.97-3.58,1.46-5.36,2.44-8.94ZM329.94,56.12c2.63,2.24,3.92,3.38,6.48,5.68.54-1.61.81-2.41,1.36-4.01-3.69-1.36-5.54-2.01-9.25-3.25-2.48,1.38-5.55,2.47-9.21,3.33.84.42,1.72.89,2.64,1.41,2.79-.94,5.45-1.98,7.98-3.15ZM334.43,72.32c.69,2.32,1.89,5.14,3.51,8.47-.57.2-.86.3-1.43.51-4.73-2.65-7.66-5.69-8.8-9.31,2.68.1,4.02.17,6.72.33,0-.01,0-.02.01-.04,0,.01,0,.02-.01.04Z" style="fill: none; stroke: #fff; stroke-linecap: round; stroke-linejoin: round; stroke-width: 4.4px;"/>
            </g>
            <g>
              <path d="M106.37,72.55c.95-.6,1.43-.9,2.39-1.49-.67-1.9-1.01-2.85-1.68-4.76-.55.22-.83.32-1.38.54-.93-2.55-1.39-3.82-2.32-6.36.58-.23.86-.34,1.44-.57-.55-1.55-.82-2.33-1.37-3.89-.66.26-.99.39-1.66.65-.95-2.54-1.42-3.81-2.37-6.35,4.19-1.67,6.29-2.47,10.51-3.99.79,2.61,1.19,3.92,1.99,6.53-.79.29-1.19.43-1.98.72.5,1.56.75,2.34,1.25,3.89.74-.27,1.11-.41,1.84-.67.78,2.62,1.17,3.92,1.96,6.54-.68.25-1.02.37-1.69.62.49,1.48.74,2.22,1.23,3.69.88-.52,1.33-.78,2.22-1.3.28.65.42.98.7,1.63-1.53,5.49-3.72,9.5-6.69,12.11-1.74-3.04-2.61-4.55-4.38-7.57ZM118.64,67.62c-1.24-3.4-1.86-5.1-3.11-8.5,9.06-3.36,13.64-4.86,22.87-7.53.85,3.59,1.28,5.39,2.14,8.98-.54.15-.81.22-1.35.37,1.2.37,1.8.56,2.99.94-.82,1.56-2.08,2.85-3.77,3.89,1.56-.07,3.22-.36,4.99-.87-.84,2.61-1.25,3.92-2.04,6.53-3.34.3-6.3-.53-8.93-2.51.58,1.89.86,2.83,1.44,4.72-2.84.94-4.25,1.43-7.07,2.44-.58-1.74-.87-2.61-1.44-4.35-1.58,2.24-3.58,3.96-6.04,5.21-.54-.63-.8-.94-1.34-1.56,1.85-3.55,3.01-6.46,3.39-8.76-1.09.39-1.64.59-2.73.99ZM113.1,54.42c9.9-3.69,14.91-5.33,25-8.19.37,1.67.56,2.51.94,4.19-9.92,2.81-14.85,4.42-24.6,8.03-.54-1.61-.81-2.41-1.34-4.02ZM113.8,52.9c-1.05-3.16-1.57-4.74-2.61-7.9,9.52-3.48,14.33-5.04,24.01-7.78.65,3.3.98,4.94,1.64,8.24-9.29,2.63-13.9,4.12-23.03,7.45ZM117.65,46.31c.18.61.27.91.46,1.51.74-.26,1.1-.39,1.84-.65-.16-.61-.25-.92-.41-1.53-.76.27-1.13.4-1.89.67ZM131.67,57.74c-2.88.87-4.32,1.32-7.19,2.26.14.46.2.69.34,1.15,2.83-.93,4.25-1.37,7.09-2.23-.09-.47-.14-.71-.24-1.18ZM124.98,43.78c-.92.3-1.38.46-2.3.76.16.61.24.92.4,1.53.95-.32,1.42-.48,2.37-.79-.19-.6-.28-.91-.47-1.51ZM136.19,61.84c-2.18.65-3.27.98-5.44,1.67.05.16.07.25.11.41,1.19.79,2.5,1.33,3.92,1.63.56-1.29,1.03-2.53,1.41-3.71,0-.02,0-.02,0-.04,0,.02,0,.02,0,.04ZM130.67,41.9c-.93.29-1.39.43-2.31.72.17.63.25.94.42,1.57.87-.28,1.31-.41,2.18-.68-.12-.64-.17-.96-.29-1.6Z" style="fill: #db5800; stroke-width: 0px;"/>
              <path d="M142.03,41.4c.76-.21,1.14-.32,1.91-.52-.47-2.16-.7-3.24-1.16-5.4,2.78-.69,4.18-1.02,6.97-1.66.42,2.14.63,3.21,1.05,5.35.83-.2,1.25-.31,2.08-.51.58,3.36.87,5.03,1.45,8.39-.76.2-1.14.3-1.9.51.49,2.57.74,3.85,1.23,6.42.59-.32,1.17-.66,1.72-1.02.38,1.02.58,1.54.96,2.56-1.54,5.27-3.99,9.12-7.41,11.63-1.44-3.68-2.18-5.52-3.65-9.19.73-.27,1.46-.56,2.19-.87-.68-3.08-1.01-4.62-1.69-7.7-.63.19-.95.28-1.57.48-.86-3.38-1.29-5.07-2.15-8.46ZM158.19,58.03c-1.03-4.97-1.54-7.45-2.57-12.41,9.39-2.09,14.11-2.96,23.59-4.34.52,5.05.78,7.58,1.3,12.63-1.34.2-2.01.31-3.35.53.14,1.23.2,1.85.34,3.08,1.79-.44,2.68-.66,4.48-1.08.18,2.58.27,3.88.45,6.46-4.47.65-6.7,1.01-11.16,1.83-.76-3.59-1.14-5.38-1.9-8.97-.72.13-1.07.19-1.79.32.26,5.93-3.5,9.62-11.26,11.55-.56-.6-.85-.9-1.42-1.5,3.61-3.08,5.3-5.87,4.92-8.45-.65.14-.98.21-1.63.35ZM154.33,38.7c-.41-1.86-.62-2.79-1.03-4.64,3.25-.72,4.88-1.06,8.14-1.69-.15-.59-.23-.88-.38-1.46,3.53-.64,5.3-.94,8.85-1.48,0,.56,0,.85,0,1.41,3.17-.54,4.76-.78,7.94-1.24.2,1.86.3,2.8.5,4.66-1.19.18-1.78.27-2.97.47-.32.74-.48,1.11-.8,1.84,1.89-.3,2.83-.45,4.72-.72.14,1.57.22,2.36.36,3.93-9.86,1.57-14.76,2.55-24.5,4.88-.4-1.64-.6-2.46-1.01-4.09,1.35-.31,2.03-.46,3.38-.76-.23-.68-.34-1.02-.57-1.7-1.05.23-1.57.35-2.62.59ZM164.96,52.76c3.09-.65,4.63-.96,7.73-1.53-.09-.47-.13-.71-.21-1.18-3.1.56-4.64.85-7.72,1.49.08.49.13.73.21,1.22ZM171.82,46.16c-3.1.56-4.64.86-7.73,1.49.08.47.12.71.2,1.18,3.09-.65,4.64-.96,7.74-1.53-.08-.46-.13-.68-.21-1.14ZM167.98,35.94c-1.94.35-2.91.53-4.85.91.61.59.91.89,1.52,1.49,1.34-.26,2.01-.39,3.35-.64,0-.71-.01-1.06-.02-1.76,0-.02,0-.02,0-.04,0,.02,0,.02,0,.04Z" style="fill: #db5800; stroke-width: 0px;"/>
              <path d="M186.81,42.8c2.74-.04,4.11-.04,6.84-.02-.28,1.14-.66,2.2-1.14,3.18,1.13-.13,1.7-.19,2.83-.31.16-1.41.24-2.12.41-3.54,2.6-.03,3.9-.03,6.49,0-.26,1.13-.84,2.13-1.75,3,1.47-.12,2.21-.18,3.68-.29,0,1.57-.01,2.35-.02,3.92-1.57.13-2.35.2-3.91.35.01.4.02.6.03,1.01,1.21-.12,1.82-.18,3.03-.29.06,1.04.09,1.55.15,2.59-1.22.1-1.83.15-3.05.26.02.32.03.49.06.81,1.2-.12,1.8-.18,3-.29.08,1.11.12,1.67.2,2.78-1.22.1-1.84.15-3.06.26.03.37.04.56.06.93,1.59-.14,2.39-.2,3.98-.32.1,1.47.15,2.2.25,3.67-6.56.44-9.84.75-16.38,1.55-.48-4.07-.72-6.11-1.19-10.19-.35.22-.71.43-1.08.64-.39-.54-.59-.82-.99-1.36.7-2.56,1.22-5.34,1.56-8.34ZM183.17,29.05c1.21-.15,1.81-.22,3.02-.36-.07-.54-.11-.81-.18-1.34,2.5-.33,3.76-.49,6.26-.77.05.57.07.86.12,1.43,1.18-.11,1.76-.16,2.94-.27-.04-.57-.07-.86-.11-1.43,2.36-.2,3.54-.29,5.91-.46.03.56.05.84.08,1.39,1.23-.08,1.84-.12,3.07-.2.04,1.5.07,2.25.11,3.76-1.22.09-1.82.13-3.04.23.04.6.06.9.09,1.51-2.3.16-3.46.25-5.76.45-.05-.59-.07-.88-.11-1.47-1.16.12-1.74.18-2.91.3.05.62.08.93.13,1.54-2.39.31-3.59.47-5.98.82-.09-.68-.13-1.01-.21-1.69-1.18.15-1.77.23-2.94.39-.2-1.54-.3-2.3-.51-3.84ZM185.28,42.67c-.39-3.01-.59-4.51-.98-7.52,3.61-.47,5.41-.68,9.03-1.05.25,3.03.38,4.54.63,7.56-3.47.36-5.21.56-8.68,1.01ZM190.16,37.64c-.57.06-.86.09-1.43.15.05.51.07.76.12,1.27.57-.06.86-.09,1.43-.15-.05-.51-.07-.76-.12-1.27ZM192.62,49.92c.03.39.05.58.09.96.87-.1,1.3-.15,2.16-.25-.03-.39-.05-.58-.08-.96-.87.1-1.3.15-2.17.25ZM193.01,53.34c.03.35.05.53.08.89.87-.1,1.31-.15,2.18-.25-.05-.35-.07-.53-.11-.88-.86.1-1.29.14-2.15.25,0-.02,0-.02,0-.04,0,.02,0,.02,0,.04ZM193.49,57.81c.86-.09,1.3-.13,2.16-.21-.03-.36-.04-.53-.07-.89-.87.1-1.3.15-2.16.25.03.34.05.51.08.85ZM195.41,41.41c-.31-3.02-.46-4.53-.77-7.55,3.63-.36,5.45-.51,9.09-.76.17,3.03.25,4.55.41,7.58-3.5.25-5.25.39-8.74.74ZM200.42,36.54c-.56.04-.84.06-1.39.1.03.51.05.77.09,1.28.56-.04.83-.06,1.39-.1-.03-.51-.05-.77-.08-1.28ZM206.08,25.63c2.89.22,4.33.34,7.21.62-.2.96-.42,1.89-.68,2.77,3.61-.17,5.42-.23,9.03-.3.15,7.31-1.47,11.91-4.76,13.9-.68-.22-1.02-.32-1.71-.54.32-2.54.4-4.48.23-5.82-2.25.12-3.37.19-5.61.35-.49.93-1.01,1.75-1.58,2.48,2.57.17,3.85.27,6.41.49-.12,2.82-.4,5.38-.84,7.7,2.54,2.45,5.24,3.86,8.17,4.26-1,3.46-1.49,5.19-2.44,8.66-3.15-1.14-5.51-3.75-7.11-7.87-1.32,3.64-3.22,6.34-5.71,8.14-.46-.53-.69-.8-1.15-1.33,1.91-5.99,2.72-12.48,2.25-19.52-.46.54-.94,1.03-1.43,1.47-.74-.27-1.12-.4-1.86-.67.98-4.53,1.52-9.46,1.58-14.79Z" style="fill: #db5800; stroke-width: 0px;"/>
              <path d="M238.15,27.47c1.45.05,2.17.07,3.61.14.16-.94.25-1.41.41-2.34,3.42.33,5.13.51,8.54.92-.4.76-.59,1.14-.98,1.9,1.51.1,2.27.16,3.78.28-.22,1.83-.33,2.75-.54,4.58.08-.18.12-.27.2-.45.27.05.55.11.82.19.92-2.4,1.39-3.6,2.33-6,1.61.41,2.41.61,4.02,1.04-.65,2.29-2.23,4.11-4.69,5.51.72.3,1.41.66,2.07,1.06.95-1.58,1.43-2.37,2.4-3.95,1.5.72,2.24,1.09,3.72,1.83-1.07,1.77-2.17,3.35-3.31,4.76,1.39,2.6,2.22,5.35,2.51,8.25-1.3.31-1.95.46-3.24.79-.06-.8-.09-1.2-.16-2-2.2,1.15-4.29,1.8-6.28,1.92-.39-2.24-.59-3.37-.99-5.61.72.03,1.07.05,1.79.09.48-.84.72-1.26,1.21-2.1-1.02-1.62-1.54-2.43-2.59-4.05-.47,3.94-.7,5.91-1.16,9.85-5.57-.45-8.36-.62-13.94-.83,0-.06,0-.09,0-.16-1.24.4-1.86.6-3.09,1.01-.12-.79-.18-1.19-.3-1.99-2.11,1.33-4.14,2.13-6.12,2.42-.55-2.21-.83-3.31-1.39-5.52.72-.02,1.07-.04,1.79-.06.42-.88.63-1.32,1.06-2.19-1.25-1.7-1.88-2.54-3.16-4.22.22-.54.33-.81.55-1.35.28.03.55.07.83.12.74-2.47,1.12-3.7,1.89-6.17,1.64.28,2.45.42,4.08.72-.49,2.34-1.92,4.28-4.27,5.87.74.25,1.46.55,2.14.9.83-1.65,1.25-2.48,2.1-4.13,1.54.6,2.31.91,3.84,1.53-.93,1.85-1.92,3.52-2.95,5.01,1.49,2.37,2.49,4.92,3.03,7.63.18-6.07.27-9.11.44-15.18ZM226.78,51.93c-.04-2.56-.06-3.83-.1-6.39,5.67,0,8.51.07,14.17.32.02-.7.03-1.05.04-1.74,3.29.14,4.93.24,8.22.47-.05.7-.08,1.04-.13,1.74,5.44.38,8.16.63,13.58,1.25-.29,2.55-.43,3.83-.71,6.38-3.47-.38-5.2-.54-8.68-.82,2.69,1.37,5.71,2.3,9.09,2.82-1.64,2.53-2.45,3.79-4.03,6.34-4.1-1.35-7.42-3.21-9.99-5.67-.13,1.81-.2,2.71-.33,4.52-2.98-.22-4.47-.31-7.45-.46.04-1.78.06-2.67.11-4.45-3.84,2.3-8.21,3.34-13.25,3.21-.33-.76-.49-1.14-.83-1.91,3.23-1.52,5.88-3.35,7.96-5.53-3.07-.07-4.61-.09-7.68-.09ZM233.52,36.56c-.68.83-1.37,1.6-2.06,2.31.95,0,1.42-.01,2.36-.01-.12-.92-.18-1.38-.3-2.3,0-.02,0-.02,0-.04,0,.02,0,.02,0,.04ZM246.86,32.07c-1.06-.04-1.6-.06-2.66-.1-.04.68-.06,1.02-.1,1.7,1.04.05,1.56.07,2.6.13.06-.69.09-1.04.15-1.74ZM243.88,39.17c.96.06,1.44.09,2.4.16.06-.65.09-.97.14-1.62-.98-.07-1.47-.1-2.45-.16-.04.65-.06.97-.09,1.62ZM259.27,38.39c-.74.78-1.48,1.49-2.22,2.14.94.07,1.41.1,2.36.17-.05-.92-.08-1.39-.14-2.31Z" style="fill: #db5800; stroke-width: 0px;"/>
              <path d="M272.82,28.74c2.82.51,4.23.78,7.04,1.35-.32,1.97-.48,2.95-.8,4.92.61.09.92.13,1.53.22-.48,2.9-.71,4.35-1.19,7.25-.59-.07-.88-.1-1.46-.17-.19,1.11-.28,1.67-.47,2.78.53-.04,1.05-.08,1.58-.12.19.69.28,1.04.46,1.73-.9.81-1.78,1.56-2.64,2.25-.91,5.71-1.36,8.57-2.27,14.29-2.45.21-3.67.33-6.1.6-.42-2.88-.63-4.32-1.08-7.19.75-.05,1.12-.07,1.87-.12.18-1.43.26-2.14.44-3.57-.81.27-1.62.46-2.42.55.07-3.27.1-4.91.15-8.18,1.05.04,2.14.05,3.25.03.18-1.48.27-2.21.46-3.69-1.08-.1-1.61-.14-2.69-.23.26-3.09.39-4.63.64-7.73,1.21.14,1.82.21,3.03.35.27-2.13.4-3.2.67-5.34ZM278.37,54.36c.38-2.49.58-3.74.96-6.23,3.29.56,4.94.87,8.22,1.52.13-.79.2-1.19.33-1.99,1,.2,1.5.31,2.51.52.69-3.84,1.03-5.76,1.72-9.59-1.69-.34-2.53-.5-4.22-.82-.12.5-.18.74-.31,1.24,1.25.36,1.88.54,3.13.91-1.18,4.89-4.41,7.41-9.66,7.77-.28-.68-.42-1.02-.71-1.7,1.56-1.35,2.77-3.44,3.62-6.3-1.16-.19-1.74-.28-2.91-.45.54-3.27.82-4.9,1.36-8.16,10.03,1.61,15.03,2.6,24.96,4.98-.66,3.34-.99,5.01-1.65,8.35-2.6-.59-3.89-.87-6.5-1.4.24-1.1.36-1.65.59-2.76-.67-.16-1-.24-1.67-.39-.34,1.79-.51,2.69-.86,4.48,3.09.32,4.63.49,7.73.89-.83,2.53-1.24,3.8-2.06,6.33-3.1-.69-4.65-1.02-7.76-1.63-.11.53-.16.79-.27,1.32,3.38.75,5.07,1.16,8.43,2-.53,2.27-.79,3.41-1.32,5.68-2.05-.46-3.08-.69-5.14-1.11.79,1.73,2.57,3.1,5.31,4.19-1.66,2.43-2.48,3.64-4.1,6.09-2.54-1.38-4.29-3.52-5.26-6.46-.48,2.46-.71,3.69-1.19,6.15-2.82-.53-4.23-.78-7.05-1.25.37-2.15.55-3.23.92-5.38-2.61,1.52-5.44,2.07-8.53,1.69-.24-.67-.36-1-.6-1.67,2-1.59,4.11-3.63,6.34-6.12-1.75-.29-2.63-.42-4.39-.69,0-.01,0-.02,0-.04,0,.01,0,.02,0,.04Z" style="fill: #db5800; stroke-width: 0px;"/>
              <path d="M311.83,64.81c2.46,1.54,3.68,2.33,6.09,3.92-3.22,2.16-7.43,2.81-12.7,2.1-.35-.51-.52-.77-.88-1.28,3.14-1.7,5.65-3.27,7.49-4.74ZM311.36,44.3c5.33,1.39,7.98,2.14,13.27,3.75.15-.52.23-.78.38-1.3-4.71-1.44-7.07-2.12-11.81-3.38.39-1.86.58-2.8.97-4.66,4.86,1.33,7.28,2.04,12.11,3.55.17-.59.26-.89.43-1.48,3.63,1.23,5.43,1.86,9.03,3.2-.18.51-.27.76-.45,1.27,4.65,1.6,6.96,2.45,11.57,4.22-.69,1.68-1.04,2.52-1.72,4.2-4.54-1.72-6.83-2.53-11.41-4.07-.18.49-.26.74-.44,1.23,5.33,1.79,7.99,2.74,13.27,4.77-1.25,3.69-1.87,5.54-3.12,9.23-2.86-1.06-4.29-1.57-7.16-2.56.05-.15.07-.22.12-.37-3.85.95-7.69,1.56-11.54,1.84,2.71.8,5.32,1.56,7.84,2.26-.06-.91-.09-1.36-.15-2.27.93-.02,1.4-.03,2.33-.05,3.12,3.12,5.21,6.04,6.34,8.67-3.27-.43-4.9-.63-8.16-.97-.08-1.41-.12-2.12-.21-3.53-1.34-.05-2.8-.17-4.37-.34-1.39,3.87-2.08,5.81-3.46,9.69-3.21-1.06-4.81-1.57-8.04-2.54.85-3.44,1.28-5.15,2.12-8.59-3.52-.64-7.4-1.42-11.66-2.32-.1-2.24-.16-3.36-.28-5.6,3.06,1,6.02,1.95,8.89,2.85.02,0,.05.02.08.02-1.98-2.07-2.98-3.1-5.02-5.14.42-.34.64-.52,1.06-.86.98.2,2.19.59,3.6,1.18,2.06-1.58,3.64-2.98,4.7-4.21-1.26-.39-1.9-.59-3.17-.97-.45,1.67-.68,2.5-1.13,4.17-2.89-.82-4.34-1.21-7.24-1.96.97-3.58,1.46-5.36,2.44-8.94ZM329.94,56.12c2.63,2.24,3.92,3.38,6.48,5.68.54-1.61.81-2.41,1.36-4.01-3.69-1.36-5.54-2.01-9.25-3.25-2.48,1.38-5.55,2.47-9.21,3.33.84.42,1.72.89,2.64,1.41,2.79-.94,5.45-1.98,7.98-3.15ZM334.43,72.32c.69,2.32,1.89,5.14,3.51,8.47-.57.2-.86.3-1.43.51-4.73-2.65-7.66-5.69-8.8-9.31,2.68.1,4.02.17,6.72.33,0-.01,0-.02.01-.04,0,.01,0,.02-.01.04Z" style="fill: #db5800; stroke-width: 0px;"/>
            </g>
          </g>
          <g>
            <g>
              <path d="M69.84,302.81c4.99,15.41,27.2-1.51,14.67-10.45" style="fill: url(#linear-gradient); stroke-width: 0px;"/>
              <path d="M69.53,302.9c5.42,15.06,27.72-1.73,14.74-10.38" style="fill: none; stroke: #654d49; stroke-miterlimit: 10; stroke-width: 1.52px;"/>
            </g>
            <g>
              <g>
                <path id="SVGID" d="M.78,274.95c.19-3.83,5.07-5.68,10.9-4.13,2.64.7,5.02,1.98,6.82,3.53,2.17,1.87,3.5,4.13,3.39,6.22-.12,2.44-2.14,4.08-5.1,4.55-1.69.27-3.68.15-5.81-.41-5.45-1.45-9.8-5.36-10.19-9-.03-.25-.03-.5-.02-.75" style="fill: url(#linear-gradient-2);"/>
                <g style="clip-path: url(#clippath);">
                  <polygon points="16.34 302.54 -4.3 281.24 6.86 252.94 27.5 274.24 16.34 302.54" style="fill: url(#linear-gradient-4); stroke-width: 0px;"/>
                </g>
              </g>
              <g>
                <g style="clip-path: url(#clippath-1);">
                  <polygon points="5.03 253.04 26.78 273.22 17.14 302.07 -4.6 281.89 5.03 253.04" style="fill: none; stroke: #664e4b; stroke-miterlimit: 10; stroke-width: 1.33px;"/>
                </g>
                <path id="SVGID-4" data-name="SVGID" d="M16.66,284.67c-1.56.25-3.36.2-5.28-.2-5.91-1.24-10.71-5.36-10.72-9.19-.01-3.85,4.76-5.95,10.67-4.71,2.88.61,5.51,1.9,7.43,3.51" style="fill: none; stroke: #664e4b; stroke-miterlimit: 10; stroke-width: 1.33px;"/>
              </g>
            </g>
            <g>
              <path d="M22.48,292.39c-13.04,9.61,10.04,25.33,14.56,10.61" style="fill: url(#linear-gradient-5); stroke-width: 0px;"/>
              <path d="M37.41,302.44c-5.04,15.19-27.76-1.04-14.99-10.01" style="fill: none; stroke: #654d49; stroke-miterlimit: 10; stroke-width: 1.52px;"/>
            </g>
            <g>
              <path id="SVGID-5" data-name="SVGID" d="M89.83,244.57c11.08,20.27,3.62,45.68-16.66,56.76-20.28,11.07-45.69,3.62-56.76-16.66-11.07-20.27-3.62-45.69,16.65-56.76,7.87-4.3,16.52-5.81,24.8-4.85,13.05,1.5,25.19,9.11,31.97,21.51" style="fill: #664e4b;"/>
              <g style="clip-path: url(#clippath-2);">
                <rect x="3.94" y="216.27" width="97.56" height="101.88" transform="translate(-218.52 242.55) rotate(-73.65)" style="fill: #664e4b; stroke-width: 0px;"/>
              </g>
            </g>
            <g>
              <path id="SVGID-7" data-name="SVGID" d="M80.34,234.86c16.44,15.04,17.57,40.55,2.53,56.99-15.04,16.44-40.55,17.57-56.99,2.53-16.43-15.03-17.57-40.55-2.53-56.99,9.08-9.92,21.99-14.27,34.4-12.84,8.14.94,16.08,4.36,22.59,10.31" style="fill: url(#_未命名漸層_3);"/>
              <g style="clip-path: url(#clippath-3);">
                <rect x="-9.37" y="205.77" width="124.36" height="123.07" transform="translate(-121.69 58.04) rotate(-28.65)" style="fill: url(#_未命名漸層_3-2); stroke-width: 0px;"/>
              </g>
            </g>
            <g>
              <path d="M64.07,268.26s3.64,13.19-9.35,13.68c-12.98.5-11.21-13.07-11.21-13.07,0,0,13.84-5.67,20.56-.61Z" style="fill: url(#_未命名的渐变_89); stroke-width: 0px;"/>
              <g style="clip-path: url(#clippath-4);">
                <ellipse cx="55.25" cy="283.5" rx="11.64" ry="9.9" transform="translate(-14.87 3.31) rotate(-3.02)" style="fill: #a71f24; stroke-width: 0px;"/>
              </g>
            </g>
            <ellipse cx="72.06" cy="249.76" rx="11.99" ry="11.42" transform="translate(-25.57 8.84) rotate(-5.97)" style="fill: #fff; stroke-width: 0px;"/>
            <ellipse cx="73.08" cy="249.55" rx="7.43" ry="8.1" transform="translate(-18.76 6.28) rotate(-4.36)" style="fill: #060001; stroke-width: 0px;"/>
            <ellipse cx="77.4" cy="249.89" rx="1.39" ry="1.52" transform="translate(-18.78 6.61) rotate(-4.36)" style="fill: #fff; stroke-width: 0px;"/>
            <ellipse cx="76.94" cy="244.48" rx="2.63" ry="2.87" transform="translate(-18.37 6.56) rotate(-4.36)" style="fill: #fff; stroke-width: 0px;"/>
            <ellipse cx="34.31" cy="254.44" rx="11.99" ry="11.42" transform="translate(-26.26 4.94) rotate(-5.97)" style="fill: #fff; stroke-width: 0px;"/>
            <ellipse cx="35.33" cy="254.24" rx="7.43" ry="8.1" transform="translate(-19.23 3.42) rotate(-4.36)" style="fill: #060001; stroke-width: 0px;"/>
            <ellipse cx="39.65" cy="254.58" rx="1.39" ry="1.52" transform="translate(-19.24 3.75) rotate(-4.36)" style="fill: #fff; stroke-width: 0px;"/>
            <ellipse cx="39.19" cy="249.17" rx="2.63" ry="2.87" transform="translate(-18.83 3.7) rotate(-4.36)" style="fill: #fff; stroke-width: 0px;"/>
            <ellipse cx="27.86" cy="253.96" rx="2.63" ry="2.87" transform="translate(-19.23 2.85) rotate(-4.36)" style="fill: #fff; stroke-width: 0px;"/>
            <ellipse cx="65.22" cy="250.19" rx="2.63" ry="2.87" transform="translate(-18.83 5.68) rotate(-4.36)" style="fill: #fff; stroke-width: 0px;"/>
            <g>
              <g>
                <path id="SVGID-10" data-name="SVGID" d="M60.6,273.98c-2.96,2.43-1.54,7.46,3.18,11.21,4.72,3.76,10.96,4.83,13.92,2.39,2.97-2.44,1.55-7.46-3.18-11.22-4.41-3.51-10.14-4.67-13.3-2.81-.22.13-.43.27-.62.43" style="fill: #aac362;"/>
                <g style="clip-path: url(#clippath-5);">
                  <polygon points="92.04 270.03 62.62 266.16 46.55 291.99 75.96 295.86 92.04 270.03" style="fill: #aac362; stroke-width: 0px;"/>
                </g>
              </g>
              <g>
                <g style="clip-path: url(#clippath-6);">
                  <polygon points="45.55 290.46 74.71 295.9 92.14 270.96 62.97 265.53 45.55 290.46" style="fill: none; stroke: #664e4b; stroke-miterlimit: 10; stroke-width: 1.33px;"/>
                </g>
                <path id="SVGID-13" data-name="SVGID" d="M77.88,280.95c-.73-1.4-1.84-2.82-3.31-4.12-4.51-4.01-10.69-5.4-13.77-3.12-3.1,2.28-1.94,7.37,2.58,11.37,2.21,1.96,4.8,3.29,7.25,3.88" style="fill: none; stroke: #664e4b; stroke-miterlimit: 10; stroke-width: 1.33px;"/>
              </g>
            </g>
            <g>
              <g>
                <g>
                  <path d="M21.99,230.74c.19,2.34-1.96,4.41-4.78,4.64-2.83.22-5.27-1.5-5.45-3.84-.18-2.34,1.96-4.41,4.79-4.63,2.83-.22,5.26,1.5,5.44,3.84" style="fill: #e4d343; stroke-width: 0px;"/>
                  <path d="M27.16,229.99c1.26,1.98.35,4.82-2.04,6.34-2.39,1.52-5.35,1.16-6.62-.82-1.26-1.98-.34-4.82,2.05-6.34,2.39-1.52,5.35-1.16,6.61.82" style="fill: #e4d343; stroke-width: 0px;"/>
                  <path d="M20.8,235.18c.79,2.21-.75,4.77-3.43,5.71-2.67.94-5.47-.09-6.25-2.3-.78-2.21.76-4.77,3.43-5.71,2.68-.94,5.48.09,6.26,2.3" style="fill: #e4d343; stroke-width: 0px;"/>
                </g>
                <g>
                  <path d="M26.95,229.49c-1.86,1.43-4.77.76-6.49-1.49-1.72-2.26-1.6-5.23.26-6.66,1.87-1.43,4.77-.76,6.49,1.5,1.73,2.25,1.61,5.23-.26,6.66" style="fill: #e4b531; stroke-width: 0px;"/>
                  <path d="M34.13,224.26c1.26,1.98.35,4.82-2.04,6.34-2.39,1.52-5.35,1.15-6.62-.83-1.26-1.97-.35-4.82,2.04-6.34,2.4-1.52,5.35-1.15,6.61.82" style="fill: #e4b531; stroke-width: 0px;"/>
                  <path d="M27.77,229.45c.78,2.21-.76,4.77-3.43,5.72-2.68.94-5.48-.09-6.26-2.3-.78-2.21.76-4.77,3.43-5.72,2.68-.94,5.47.09,6.26,2.3" style="fill: #e4b531; stroke-width: 0px;"/>
                </g>
              </g>
              <g>
                <path d="M16.88,232.73c0,.95.31,1.71.92,2.45l.14.15.15.14.15.15.16.14.18.12.17.13c.39.24.76.42,1.18.58l.23.06.21.05.21.06.24.03c4.22.59,6.6-3.46,7.9-6.78.19-.5.38-1,.56-1.5.05-.11.09-.23.15-.34.43-1.08.94-2.18,1.81-2.95l.12-.1c1.05-.79,2.35-1.01,3.59-.6l.08.03.07.03.08.02.1.05c.06-.11.13-.21.18-.32.15-.27.29-.55.43-.84.03-.07.06-.14.08-.21l-.23-.09c-1.76-.68-3.48-.47-5.01.5-1.72,1.18-2.5,3.08-3.24,4.94-1.03,2.66-2.36,6.41-5.65,6.93-1.91.22-4.15-.91-4.14-3.12.25-2.06,2.82-2.89,4.14-2.77,1.24-.03,2.28.38,3.44,1.15.12.09.25.18.37.28l.04.02.04.02.05.02h.03s.03,0,.03,0h.05s.03,0,.03,0l.05-.02h.03s.05-.03.05-.03h.02s.03-.03.03-.03l.04-.03.03-.03.02-.02.02-.03.02-.04v-.02s.03-.04.03-.04v-.03s.02-.04.02-.04v-.04s0-.04,0-.04l-.02-.04v-.03s-.02-.05-.02-.05v-.03s-.04-.04-.04-.04l-.02-.04-.02-.02-.04-.03-.18-.12c-.56-.38-.98-.65-1.59-.93-2.75-1.21-7.28-.41-7.47,3.33" style="fill: #0c8140; stroke-width: 0px;"/>
                <path d="M30.84,229.61c.31-.06.62-.12.94-.22,4.39-1.22,7.31-5.18,7.43-9.51l-1.5-.16c-.03,4.32-2.72,8.31-6.87,9.89" style="fill: #78af32; stroke-width: 0px;"/>
                <path d="M28.48,231.89h-.03s-.04,0-.04,0h-.04s-.04-.01-.04-.01h-.03s-.05.02-.05.02h-.03s-.03.03-.03.03h-.03s-.03.03-.03.03l-.02.04-.02.02-.03.03-.02.04-.02.04v.03s-.03.04-.03.04v.03s-.01.03-.01.03v.03s0,.05,0,.05v.03s0,.05,0,.05l.02.03v.04s.04.03.04.03l.02.04c.08.07.16.11.26.16l.25.09.24.09.25.09.26.08.25.07.27.08.27.06.26.05c1.14.21,2.22.27,3.38.12l.28-.05.29-.06.28-.06.27-.07.29-.1.27-.11c2-.86,3.29-2.36,3.52-4.55l.02-.21v-.19s0-.2,0-.2v-.2s-.04-.21-.04-.21l-.02-.19-.03-.21-.06-.21c0-.09-.03-.18-.06-.27-.03-.1-.07-.21-.1-.32-.03-.04-.04-.08-.05-.13-.05-.12-.1-.25-.18-.39l-.04-.09-1.08,1.47.04.14.02.12.02.13.02.12v.14s.03.12.03.12v.12s0,.13,0,.13l-.02.13v.12s-.02.14-.02.14l-.02.11-.02.13c-.72,3.1-4.51,3.86-7.19,3.57l-.26-.04-.25-.04-.25-.05-.23-.06c-.23-.06-.48-.13-.71-.23" style="fill: #78af32; stroke-width: 0px;"/>
              </g>
            </g>
          </g>
          <g>
            <g>
              <g>
                <path id="SVGID-14" data-name="SVGID" d="M454.6,295.1c-2.33,3.04-7.4,1.8-11.32-2.79-1.78-2.08-3.01-4.48-3.61-6.78-.73-2.77-.53-5.38.74-7.05,1.49-1.94,4.08-2.14,6.78-.85,1.54.74,3.12,1.97,4.55,3.64,3.66,4.29,5.03,9.97,3.27,13.19-.12.22-.26.43-.41.63" style="fill: url(#linear-gradient-6);"/>
                <g style="clip-path: url(#clippath-7);">
                  <polygon points="457.45 263.55 462.35 292.81 437.09 309.77 432.2 280.51 457.45 263.55" style="fill: url(#linear-gradient-8); stroke-width: 0px;"/>
                </g>
              </g>
              <g>
                <g style="clip-path: url(#clippath-8);">
                  <polygon points="438.65 310.72 432.21 281.76 456.53 263.48 462.97 292.44 438.65 310.72" style="fill: none; stroke: #664e4b; stroke-miterlimit: 10; stroke-width: 1.33px;"/>
                </g>
                <path id="SVGID-17" data-name="SVGID" d="M447.04,278.08c1.42.68,2.88,1.74,4.23,3.16,4.16,4.37,5.77,10.49,3.6,13.65-2.17,3.17-7.3,2.2-11.46-2.18-2.03-2.14-3.45-4.69-4.13-7.11" style="fill: none; stroke: #664e4b; stroke-miterlimit: 10; stroke-width: 1.33px;"/>
              </g>
            </g>
            <g>
              <g>
                <path id="SVGID-18" data-name="SVGID" d="M359.27,268.73c1.01-3.69,6.18-4.45,11.53-1.67,5.36,2.77,8.88,8.03,7.86,11.73-1.02,3.71-6.18,4.46-11.54,1.68-5.01-2.6-8.41-7.35-8-10.99.03-.25.08-.5.14-.74" style="fill: #aac362;"/>
                <g style="clip-path: url(#clippath-9);">
                  <polygon points="368.5 299.04 352.96 273.77 369.98 248.55 385.52 273.82 368.5 299.04" style="fill: #aac362; stroke-width: 0px;"/>
                </g>
              </g>
              <g>
                <g style="clip-path: url(#clippath-10);">
                  <polygon points="368.17 248.26 385.04 272.67 369.38 298.75 352.52 274.35 368.17 248.26" style="fill: none; stroke: #664e4b; stroke-miterlimit: 10; stroke-width: 1.33px;"/>
                </g>
                <path id="SVGID-21" data-name="SVGID" d="M372.68,281.66c-1.57-.09-3.32-.53-5.11-1.34-5.5-2.49-9.29-7.55-8.47-11.29.82-3.76,5.93-4.78,11.43-2.29,2.69,1.22,4.96,3.04,6.5,5.03" style="fill: none; stroke: #664e4b; stroke-miterlimit: 10; stroke-width: 1.33px;"/>
              </g>
            </g>
            <g>
              <g>
                <path d="M439.06,295.1c12.68,10.08-10.97,24.94-14.94,10.06" style="fill: url(#linear-gradient-9); stroke-width: 0px;"/>
                <path d="M423.77,304.59c4.47,15.36,27.78,0,15.35-9.44" style="fill: none; stroke: #654d49; stroke-miterlimit: 10; stroke-width: 1.52px;"/>
              </g>
              <g>
                <path d="M391.99,303.4c-5.55,15.22-27.13-2.52-14.27-10.99" style="fill: url(#linear-gradient-10); stroke-width: 0px;"/>
                <path d="M392.3,303.5c-5.98,14.84-27.64-2.76-14.34-10.92" style="fill: none; stroke: #654d49; stroke-miterlimit: 10; stroke-width: 1.52px;"/>
              </g>
              <g>
                <g style="clip-path: url(#clippath-11);">
                  <path d="M473.46,285.4c1.42-1.89,2.51-3.88,3.33-5.92l-46.05-78.29-89.88,52.83,50.61,86.06,82.56-48.54c-1.67-1.47-2.34-3.79-.57-6.14Z" style="fill: url(#linear-gradient-11); stroke-width: 0px;"/>
                </g>
                <path id="SVGID-23" data-name="SVGID" d="M371.35,258.03c-5.58,21.41,7.29,43.32,28.72,48.86,21.44,5.55,43.31-7.3,48.86-28.74,5.57-21.42-7.3-43.3-28.74-48.84-8.3-2.16-16.69-1.56-24.16,1.26-11.77,4.44-21.29,14.36-24.68,27.46" style="fill: none; stroke: #4b3938; stroke-miterlimit: 10; stroke-width: 1.04px;"/>
              </g>
              <g style="clip-path: url(#clippath-12);">
                <path d="M475.42,247.05c-3.37-6.43-5.13-13.26-3.45-20.45.1-.42.23-.79.39-1.14l-103.35-26.82-29.44,113.54,114.71,29.72,23.83-91.96c-.02-.16-.03-.32-.05-.48-1.03-.37-1.97-1.14-2.64-2.42Z" style="fill: url(#linear-gradient-12); stroke-width: 0px;"/>
              </g>
              <g>
                <g>
                  <g>
                    <path d="M437.52,234.94c-.2,2.24,1.83,4.25,4.55,4.47,2.72.22,5.04-1.41,5.25-3.63.17-2.28-1.85-4.25-4.56-4.47-2.72-.22-5.05,1.4-5.23,3.63" style="fill: #d1c44a; stroke-width: 0px;"/>
                    <path d="M432.56,234.19c-1.21,1.9-.34,4.63,1.93,6.1,2.26,1.46,5.1,1.12,6.31-.75,1.21-1.89.37-4.61-1.91-6.09-2.26-1.46-5.12-1.13-6.33.74" style="fill: #d1c44a; stroke-width: 0px;"/>
                    <path d="M438.62,239.2c-.77,2.11.69,4.58,3.25,5.5,2.54.9,5.24-.05,6.01-2.16.76-2.13-.71-4.59-3.26-5.52-2.56-.89-5.25.07-6.01,2.18" style="fill: #d1c44a; stroke-width: 0px;"/>
                  </g>
                  <g>
                    <path d="M432.75,233.72c1.8,1.39,4.56.74,6.24-1.39,1.64-2.18,1.57-5.02-.21-6.39-1.78-1.39-4.56-.76-6.24,1.4-1.66,2.12-1.57,5.02.21,6.37" style="fill: #d4ab39; stroke-width: 0px;"/>
                    <path d="M425.92,228.66c-1.23,1.89-.36,4.63,1.9,6.12,2.28,1.46,5.14,1.15,6.35-.76,1.22-1.88.36-4.61-1.92-6.08-2.27-1.5-5.12-1.15-6.33.72" style="fill: #d4ab39; stroke-width: 0px;"/>
                    <path d="M431.98,233.68c-.76,2.11.69,4.57,3.24,5.49,2.59.92,5.25-.04,6.01-2.17.76-2.11-.69-4.56-3.24-5.48-2.59-.94-5.24.06-6.02,2.17" style="fill: #d4ab39; stroke-width: 0px;"/>
                  </g>
                </g>
                <g>
                  <path d="M442.37,236.89c.01.93-.29,1.66-.88,2.34l-.13.13-.15.15-.13.13-.15.11-.19.15-.15.11c-.37.21-.74.39-1.13.56l-.23.05-.21.05-.21.07-.22.02c-4.05.55-6.31-3.34-7.53-6.55-.17-.45-.35-.96-.52-1.43-.03-.11-.08-.23-.14-.32-.41-1.04-.9-2.09-1.73-2.84l-.11-.11c-1-.74-2.24-.95-3.42-.58l-.08.03-.06.02h-.08s-.09.05-.09.05c-.05-.07-.13-.17-.18-.28-.14-.28-.29-.53-.4-.8-.04-.09-.05-.15-.08-.21l.23-.09c1.69-.64,3.35-.44,4.8.5,1.64,1.15,2.39,2.95,3.09,4.74.96,2.56,2.21,6.18,5.35,6.67,1.82.24,3.99-.83,4.01-2.96-.26-1.96-2.71-2.77-3.97-2.67-1.17-.03-2.19.34-3.29,1.07-.11.11-.27.19-.37.28l-.02.02h-.06s-.02,0-.02,0l-.04.02h-.03s-.04-.03-.04-.03l-.04.02h-.06s-.06-.04-.06-.04h-.03s-.04,0-.04,0l-.02-.02-.04-.04v-.02s-.04-.03-.04-.03l-.04-.04v-.06s-.01-.02-.01-.02l-.02-.02v-.08s0-.02,0-.02v-.04s0-.02,0-.02l.02-.04v-.02s.02-.04.02-.04l.03-.06.02-.03.07-.04.15-.13c.55-.33.95-.62,1.54-.88,2.61-1.12,6.97-.33,7.11,3.24" style="fill: #1b783d; stroke-width: 0px;"/>
                  <path d="M429.02,233.81c-.3-.04-.58-.1-.9-.2-4.2-1.19-6.97-5-7.07-9.17l1.43-.14c.03,4.13,2.57,7.99,6.53,9.51" style="fill: #71a037; stroke-width: 0px;"/>
                  <path d="M431.27,236.02h.04s.06,0,.06,0l.02-.02h.04s.02,0,.02,0l.04.03h.04s.04,0,.04,0l.02.02.04.03.02.04.02.02.02.02h.02s.04.06.04.06v.04s0,.02,0,.02v.04l.04.03v.04l-.03.06h0v.06s-.02.02-.02.02v.04s-.05.02-.05.02l-.02.04c-.09.07-.15.09-.26.14l-.23.11-.23.08-.25.08-.25.06-.23.09-.27.08-.26.04-.25.07c-1.09.2-2.12.23-3.24.08l-.28-.04-.26-.06-.28-.06-.26-.06-.25-.12-.26-.1c-1.93-.83-3.15-2.28-3.38-4.36v-.2s0-.21,0-.21v-.18s0-.2,0-.2l.04-.2v-.19s.05-.2.05-.2l.07-.2c-.01-.1.04-.17.04-.26.02-.1.09-.2.12-.29.03-.04.03-.1.03-.12.07-.14.09-.26.17-.39l.02-.08,1.03,1.41-.03.14-.03.12-.04.16v.08s-.01.15-.01.15v.12s-.02.1-.02.1l.02.12.03.15-.03.1.03.14.04.11v.12c.68,2.94,4.31,3.72,6.88,3.45l.27-.02.22-.04.25-.06.23-.06c.21-.03.45-.1.67-.19" style="fill: #71a037; stroke-width: 0px;"/>
                </g>
              </g>
              <g>
                <g>
                  <g>
                    <path d="M437.52,234.94c-.2,2.24,1.83,4.25,4.55,4.47,2.72.22,5.04-1.41,5.25-3.63.17-2.28-1.85-4.25-4.56-4.47-2.72-.22-5.05,1.4-5.23,3.63" style="fill: #d1c44a; stroke-width: 0px;"/>
                    <path d="M432.56,234.19c-1.21,1.9-.34,4.63,1.93,6.1,2.26,1.46,5.1,1.12,6.31-.75,1.21-1.89.37-4.61-1.91-6.09-2.26-1.46-5.12-1.13-6.33.74" style="fill: #d1c44a; stroke-width: 0px;"/>
                    <path d="M438.62,239.2c-.77,2.11.69,4.58,3.25,5.5,2.54.9,5.24-.05,6.01-2.16.76-2.13-.71-4.59-3.26-5.52-2.56-.89-5.25.07-6.01,2.18" style="fill: #d1c44a; stroke-width: 0px;"/>
                  </g>
                  <g>
                    <path d="M432.75,233.72c1.8,1.39,4.56.74,6.24-1.39,1.64-2.18,1.57-5.02-.21-6.39-1.78-1.39-4.56-.76-6.24,1.4-1.66,2.12-1.57,5.02.21,6.37" style="fill: #d4ab39; stroke-width: 0px;"/>
                    <path d="M425.92,228.66c-1.23,1.89-.36,4.63,1.9,6.12,2.28,1.46,5.14,1.15,6.35-.76,1.22-1.88.36-4.61-1.92-6.08-2.27-1.5-5.12-1.15-6.33.72" style="fill: #d4ab39; stroke-width: 0px;"/>
                    <path d="M431.98,233.68c-.76,2.11.69,4.57,3.24,5.49,2.59.92,5.25-.04,6.01-2.17.76-2.11-.69-4.56-3.24-5.48-2.59-.94-5.24.06-6.02,2.17" style="fill: #d4ab39; stroke-width: 0px;"/>
                  </g>
                </g>
                <g>
                  <path d="M442.37,236.89c.01.93-.29,1.66-.88,2.34l-.13.13-.15.15-.13.13-.15.11-.19.15-.15.11c-.37.21-.74.39-1.13.56l-.23.05-.21.05-.21.07-.22.02c-4.05.55-6.31-3.34-7.53-6.55-.17-.45-.35-.96-.52-1.43-.03-.11-.08-.23-.14-.32-.41-1.04-.9-2.09-1.73-2.84l-.11-.11c-1-.74-2.24-.95-3.42-.58l-.08.03-.06.02h-.08s-.09.05-.09.05c-.05-.07-.13-.17-.18-.28-.14-.28-.29-.53-.4-.8-.04-.09-.05-.15-.08-.21l.23-.09c1.69-.64,3.35-.44,4.8.5,1.64,1.15,2.39,2.95,3.09,4.74.96,2.56,2.21,6.18,5.35,6.67,1.82.24,3.99-.83,4.01-2.96-.26-1.96-2.71-2.77-3.97-2.67-1.17-.03-2.19.34-3.29,1.07-.11.11-.27.19-.37.28l-.02.02h-.06s-.02,0-.02,0l-.04.02h-.03s-.04-.03-.04-.03l-.04.02h-.06s-.06-.04-.06-.04h-.03s-.04,0-.04,0l-.02-.02-.04-.04v-.02s-.04-.03-.04-.03l-.04-.04v-.06s-.01-.02-.01-.02l-.02-.02v-.08s0-.02,0-.02v-.04s0-.02,0-.02l.02-.04v-.02s.02-.04.02-.04l.03-.06.02-.03.07-.04.15-.13c.55-.33.95-.62,1.54-.88,2.61-1.12,6.97-.33,7.11,3.24" style="fill: #1b783d; stroke-width: 0px;"/>
                  <path d="M429.02,233.81c-.3-.04-.58-.1-.9-.2-4.2-1.19-6.97-5-7.07-9.17l1.43-.14c.03,4.13,2.57,7.99,6.53,9.51" style="fill: #71a037; stroke-width: 0px;"/>
                  <path d="M431.27,236.02h.04s.06,0,.06,0l.02-.02h.04s.02,0,.02,0l.04.03h.04s.04,0,.04,0l.02.02.04.03.02.04.02.02.02.02h.02s.04.06.04.06v.04s0,.02,0,.02v.04l.04.03v.04l-.03.06h0v.06s-.02.02-.02.02v.04s-.05.02-.05.02l-.02.04c-.09.07-.15.09-.26.14l-.23.11-.23.08-.25.08-.25.06-.23.09-.27.08-.26.04-.25.07c-1.09.2-2.12.23-3.24.08l-.28-.04-.26-.06-.28-.06-.26-.06-.25-.12-.26-.1c-1.93-.83-3.15-2.28-3.38-4.36v-.2s0-.21,0-.21v-.18s0-.2,0-.2l.04-.2v-.19s.05-.2.05-.2l.07-.2c-.01-.1.04-.17.04-.26.02-.1.09-.2.12-.29.03-.04.03-.1.03-.12.07-.14.09-.26.17-.39l.02-.08,1.03,1.41-.03.14-.03.12-.04.16v.08s-.01.15-.01.15v.12s-.02.1-.02.1l.02.12.03.15-.03.1.03.14.04.11v.12c.68,2.94,4.31,3.72,6.88,3.45l.27-.02.22-.04.25-.06.23-.06c.21-.03.45-.1.67-.19" style="fill: #71a037; stroke-width: 0px;"/>
                </g>
              </g>
              <g>
                <path d="M415.28,269.85c.44,6.38,5.98,11.19,12.36,10.74,6.39-.45,11.19-5.98,10.74-12.36-.45-6.38-5.98-11.19-12.36-10.74-6.38.45-11.19,5.98-10.74,12.36" style="fill: #fff; stroke-width: 0px;"/>
                <g style="clip-path: url(#clippath-13);">
                  <rect x="413.15" y="255.89" width="27.37" height="27.55" transform="translate(-56.65 415.07) rotate(-49.02)" style="fill: url(#linear-gradient-13); stroke-width: 0px;"/>
                </g>
                <g style="clip-path: url(#clippath-14);">
                  <rect x="418.91" y="262.66" width="14.38" height="14" transform="translate(-17.87 30.57) rotate(-4.02)" style="fill: url(#linear-gradient-14); stroke-width: 0px;"/>
                </g>
                <g>
                  <path d="M424.12,267.68c.16,2.3,2.16,4.03,4.45,3.86,2.3-.16,4.03-2.15,3.87-4.45-.16-2.3-2.15-4.03-4.45-3.87-2.29.16-4.03,2.15-3.87,4.45" style="fill: #fff; stroke-width: 0px;"/>
                  <path d="M422.28,273.51c.07,1.03.96,1.81,1.99,1.73,1.03-.07,1.81-.96,1.73-1.99-.07-1.03-.97-1.8-1.99-1.73-1.03.07-1.81.97-1.73,2" style="fill: #fff; stroke-width: 0px;"/>
                </g>
              </g>
              <path d="M430.12,283.39c-.21,1.31,2.18,2.79,5.35,3.31,3.17.51,5.91-.14,6.12-1.45.21-1.32-2.18-2.8-5.35-3.31-3.17-.51-5.91.13-6.12,1.45" style="fill: #e9b3b7; stroke-width: 0px;"/>
              <path d="M373.68,271.31c-.46,1.25,1.63,3.15,4.65,4.24,3.02,1.09,5.83.95,6.28-.3.45-1.25-1.63-3.15-4.65-4.23-3.02-1.09-5.83-.95-6.28.3" style="fill: #e9b3b7; stroke-width: 0px;"/>
              <g>
                <path d="M379.99,263.11c.44,6.38,5.98,11.19,12.36,10.74,6.38-.45,11.19-5.98,10.74-12.36-.45-6.38-5.98-11.19-12.36-10.74-6.38.45-11.19,5.98-10.74,12.36" style="fill: #fff; stroke-width: 0px;"/>
                <g style="clip-path: url(#clippath-15);">
                  <rect x="377.85" y="249.15" width="27.37" height="27.55" transform="translate(-63.73 386.07) rotate(-49.02)" style="fill: url(#linear-gradient-15); stroke-width: 0px;"/>
                </g>
                <g style="clip-path: url(#clippath-16);">
                  <rect x="383.26" y="255.92" width="14.38" height="14" transform="translate(-17.48 28.03) rotate(-4.02)" style="fill: url(#linear-gradient-16); stroke-width: 0px;"/>
                </g>
                <g>
                  <path d="M388.46,260.95c.16,2.3,2.16,4.03,4.45,3.87,2.3-.16,4.03-2.15,3.87-4.45-.16-2.3-2.15-4.03-4.45-3.87-2.3.16-4.03,2.15-3.87,4.45" style="fill: #fff; stroke-width: 0px;"/>
                  <path d="M386.62,266.77c.07,1.03.97,1.81,1.99,1.73,1.03-.07,1.81-.96,1.73-1.99-.07-1.03-.97-1.8-1.99-1.73-1.03.07-1.81.97-1.73,1.99" style="fill: #fff; stroke-width: 0px;"/>
                </g>
              </g>
              <g>
                <path d="M402.72,281.11s-2.82,7.5,2.39,8.49c5.21.99,5.87-7.02,5.87-7.02,0,0-3.49-3.73-8.26-1.47Z" style="fill: url(#_未命名的渐变_89-2); stroke-width: 0px;"/>
                <g style="clip-path: url(#clippath-17);">
                  <ellipse cx="404.88" cy="289.63" rx="5.87" ry="4.75" transform="translate(37.53 625.59) rotate(-78.02)" style="fill: #a71f24; stroke-width: 0px;"/>
                </g>
              </g>
            </g>
          </g>
        </g>
      </g>
    </g>
  </g>
</svg>