<?xml version="1.0" encoding="UTF-8"?>
<svg xmlns="http://www.w3.org/2000/svg" width="180.55" height="233.21" xmlns:xlink="http://www.w3.org/1999/xlink" viewBox="0 0 180.55 233.21">
  <defs>
    <linearGradient id="linear-gradient" x1="-2094.19" y1="121.14" x2="-2073.49" y2="121.14" gradientTransform="translate(-133.54 -1959.58) rotate(-93.86)" gradientUnits="userSpaceOnUse">
      <stop offset="0" stop-color="#81ae46"/>
      <stop offset=".06" stop-color="#85b048"/>
      <stop offset=".4" stop-color="#9dbf56"/>
      <stop offset=".72" stop-color="#abc85e"/>
      <stop offset="1" stop-color="#b0cb61"/>
    </linearGradient>
    <clipPath id="clippath">
      <path id="SVGID-2" data-name="SVGID" d="M134.7,102.33c-2.59-3.06-7.82-1.5-11.67,3.49-1.75,2.26-2.91,4.84-3.42,7.26-.62,2.93-.28,5.65,1.14,7.32,1.65,1.95,4.37,2.03,7.12.54,1.57-.85,3.16-2.21,4.56-4.03,3.6-4.66,4.74-10.67,2.74-13.94-.14-.23-.29-.44-.46-.64" style="fill: url(#linear-gradient); stroke-width: 0px;"/>
    </clipPath>
    <linearGradient id="linear-gradient-2" x1="-721.32" y1="-459.66" x2="-721.02" y2="-459.66" gradientTransform="translate(43562.47 -38734.99) rotate(-83.31) scale(84.78 84) skewX(-24.18)" xlink:href="#linear-gradient"/>
    <clipPath id="clippath-1">
      <path id="SVGID-3" data-name="SVGID" d="M127.67,120.48c1.45-.78,2.92-1.96,4.26-3.52,4.12-4.78,5.49-11.25,3.06-14.44-2.43-3.2-7.73-1.92-11.85,2.86-2.01,2.33-3.37,5.07-3.94,7.63" style="fill: none; stroke: #664e4b; stroke-miterlimit: 10; stroke-width: 1.39px;"/>
    </clipPath>
    <clipPath id="clippath-2">
      <path id="SVGID-6" data-name="SVGID" d="M48.39,101.42c3.23-2.37,7.95.36,10.54,6.11,2.59,5.75,2.07,12.35-1.17,14.71-3.24,2.38-7.96-.35-10.55-6.11-2.42-5.37-2.12-11.48.58-14.2.19-.19.39-.36.6-.51" style="fill: #aac362; stroke-width: 0px;"/>
    </clipPath>
    <clipPath id="clippath-3">
      <path id="SVGID-7" data-name="SVGID" d="M51,120.71c-1.23-1.1-2.38-2.59-3.32-4.41-2.9-5.6-2.72-12.22.38-14.75,3.11-2.55,7.96-.07,10.86,5.54,1.41,2.74,2.1,5.71,2.06,8.34" style="fill: none; stroke: #664e4b; stroke-miterlimit: 10; stroke-width: 1.39px;"/>
    </clipPath>
    <linearGradient id="linear-gradient-3" x1="348.26" y1="-33.67" x2="367.97" y2="-33.67" gradientTransform="translate(413.35 258.43) rotate(-172.89) scale(1 -1)" xlink:href="#linear-gradient"/>
    <linearGradient id="linear-gradient-4" x1="1782.07" y1="-860.22" x2="1801.78" y2="-860.22" gradientTransform="translate(1665.46 -1065.27) rotate(115.55) scale(1 -1)" xlink:href="#linear-gradient"/>
    <clipPath id="clippath-4">
      <path id="SVGID-10" data-name="SVGID" d="M50.96,121.77c-11.58,21.19-3.78,47.75,17.41,59.33,21.2,11.57,47.75,3.78,59.33-17.41,11.57-21.19,3.78-47.75-17.4-59.33-8.23-4.49-17.27-6.07-25.92-5.07-13.64,1.57-26.33,9.52-33.41,22.48" style="fill: #664e4b; stroke-width: 0px;"/>
    </clipPath>
    <linearGradient id="_未命名漸層_3" data-name="未命名漸層 3" x1="47.17" y1="142.73" x2="131.49" y2="142.73" gradientUnits="userSpaceOnUse">
      <stop offset="0" stop-color="#80ae46"/>
      <stop offset=".07" stop-color="#85b149"/>
      <stop offset=".41" stop-color="#9dbf56"/>
      <stop offset=".73" stop-color="#abc85e"/>
      <stop offset="1" stop-color="#b0cb61"/>
    </linearGradient>
    <clipPath id="clippath-5">
      <path id="SVGID-12" data-name="SVGID" d="M60.87,111.63c-17.18,15.72-18.36,42.38-2.64,59.56,15.72,17.18,42.38,18.36,59.56,2.64,17.18-15.71,18.36-42.38,2.65-59.56-9.49-10.37-22.98-14.91-35.96-13.42-8.51.98-16.8,4.55-23.61,10.78" style="fill: url(#_未命名漸層_3); stroke-width: 0px;"/>
    </clipPath>
    <linearGradient id="_未命名漸層_3-2" data-name="未命名漸層 3" x1="-718.18" y1="-486.42" x2="-717.96" y2="-486.42" gradientTransform="translate(183199.3 -270172.6) rotate(-90) scale(376.45)" xlink:href="#_未命名漸層_3"/>
    <radialGradient id="_未命名的渐变_89" data-name="未命名的渐变 89" cx="-946.93" cy="-1635.92" fx="-946.93" fy="-1635.92" r="10.89" gradientTransform="translate(669.44 1245.63) rotate(-1.49) scale(.58 .68)" gradientUnits="userSpaceOnUse">
      <stop offset=".46" stop-color="#39201a"/>
      <stop offset="1" stop-color="#62371a"/>
    </radialGradient>
    <clipPath id="clippath-6">
      <path id="SVGID-13" data-name="SVGID" d="M83.99,149.48s-1.91,9.06,7.56,8.69c9.46-.37,7.41-9.4,7.41-9.4,0,0-10.37-3.05-14.97.71Z" style="fill: none; stroke-width: 0px;"/>
    </clipPath>
    <linearGradient id="_未命名的渐变_33" data-name="未命名的渐变 33" x1="61.52" y1="131.22" x2="80.84" y2="131.22" gradientUnits="userSpaceOnUse">
      <stop offset="0" stop-color="#f5e828"/>
      <stop offset=".35" stop-color="#ecae32"/>
      <stop offset=".65" stop-color="#e79012"/>
      <stop offset="1" stop-color="#b71c25"/>
    </linearGradient>
    <linearGradient id="_未命名的渐变_33-2" data-name="未命名的渐变 33" x1="100.85" y1="131.07" x2="120.03" y2="131.07" xlink:href="#_未命名的渐变_33"/>
    <linearGradient id="linear-gradient-5" x1="-1886.1" y1="1357.6" x2="-1870.4" y2="1357.6" gradientTransform="translate(2102.77 -1088.38) rotate(5.96)" gradientUnits="userSpaceOnUse">
      <stop offset="0" stop-color="#46b55e"/>
      <stop offset="1" stop-color="#51c779"/>
    </linearGradient>
    <linearGradient id="linear-gradient-6" x1="-1913.91" y1="1403.76" x2="-1913.91" y2="1318.44" xlink:href="#linear-gradient-5"/>
    <linearGradient id="_新增漸層色票_拷貝" data-name="新增漸層色票 拷貝" x1="-1840.76" y1="1403.45" x2="-1840.76" y2="1308.02" gradientTransform="translate(2102.77 -1088.38) rotate(5.96)" gradientUnits="userSpaceOnUse">
      <stop offset="0" stop-color="#46b55e"/>
      <stop offset="1" stop-color="#51c779"/>
    </linearGradient>
  </defs>
  <g style="isolation: isolate;">
    <g id="_圖層_2" data-name="圖層 2">
      <g id="_圖層_4" data-name="圖層 4">
        <g id="map_btn">
          <g>
            <path d="M0,232.98c2.48.32,5.01.31,7.48-.03,2.16-12,3.67-24.09,4.53-36.22-1.39.25-4.73-.22-5.82.38-1.13.62-.87,1.65-.9,2.74-.11,3.78-.23,7.55-.64,11.32-.21,1.91-3.32,21.98-4.66,21.81Z" style="fill: #3b4044; stroke-width: 0px;"/>
            <path d="M5.25,201.3c1.95.92,3.44,2.56,4.2,4.4.76,1.84.94,3.81,1.19,5.77.57-4.73,1-8.88,1.44-13.35,0-.09-4.72-.28-5.16-.28-1.11.01-1.59.09-1.59.09-.05.8-.05,2.57-.08,3.37Z" style="fill: #1f2123; stroke-width: 0px;"/>
            <path d="M180.55,232.98c-2.48.32-5.01.31-7.48-.03-2.16-12-3.67-24.09-4.53-36.22,1.39.25,4.73-.22,5.82.38,1.13.62.87,1.65.9,2.74.11,3.78.23,7.55.64,11.32.21,1.91,3.32,21.98,4.66,21.81Z" style="fill: #3b4044; stroke-width: 0px;"/>
            <path d="M175.31,201.87c-.02-.67-.04-1.35-.06-2.02-.02-.63.06-1.24-.09-1.76-.21-.01-.64-.03-1.38-.03-.39,0-4.3-.07-5.15-.02.34,4.53.77,9.06,1.29,13.58.24-1.95.4-4.09,1.17-5.92.76-1.84,2.28-2.84,4.22-3.76,0-.02,0-.04,0-.06Z" style="fill: #1f2123; stroke-width: 0px;"/>
            <rect x="25.41" y="196.23" width="6.88" height="29.47" style="fill: #1f2123; stroke-width: 0px;"/>
            <rect x="150.12" y="196.23" width="6.88" height="29.47" style="fill: #1f2123; stroke-width: 0px;"/>
            <path d="M26.98,150.82c2.2.11,4.39.23,6.59.34.06,11.76.13,23.51.19,35.27,0,.52-.01,1.1-.31,1.47-.23.28-.57.36-.89.41-1.77.3-6.65,1.19-7.13-1.61-.16-.93.82-2.89.96-3.88.29-2.07.24-4.33.32-6.44.09-2.14.76-25.54.28-25.56Z" style="fill: #3b4044; stroke-width: 0px;"/>
            <path d="M156.16,150.08c-2.2.12-4.39.23-6.59.35-.06,11.99-.13,23.97-.19,35.96,0,.53.01,1.12.31,1.49.23.29.57.37.89.42,1.77.3,6.65,1.21,7.13-1.64.16-.95-.82-2.95-.96-3.95-.29-2.11-.24-4.42-.32-6.56-.09-2.18-.76-26.04-.28-26.06Z" style="fill: #3b4044; stroke-width: 0px;"/>
            <path d="M13.21,180.67h155.84c2.35,0,4.26,1.91,4.26,4.26v4.13H8.95v-4.13c0-2.35,1.91-4.26,4.26-4.26Z" style="fill: #7a4e35; stroke-width: 0px;"/>
            <path d="M9.42,183.64h163.21c2.41,0,4.36,1.95,4.36,4.36v4.03H5.06v-4.03c0-2.41,1.95-4.36,4.36-4.36Z" style="fill: #875839; stroke-width: 0px;"/>
            <path d="M9.81,183.37c-2.11,0-3.89,1.27-4.44,2.99l171.39.25c-.55-1.73-2.14-3.25-4.25-3.25H9.81Z" style="fill: #99653f; stroke-width: 0px;"/>
            <path d="M5.85,187.84h169.7c2.45,0,4.44,1.99,4.44,4.44v3.95H1.4v-3.95c0-2.45,1.99-4.44,4.44-4.44Z" style="fill: #99653f; stroke-width: 0px;"/>
            <rect x="5.06" y="196.23" width="170.55" height="1.86" style="fill: #3b4044; stroke-width: 0px;"/>
            <rect x="12.01" y="159.67" width="158.3" height="12.16" rx="2.6" ry="2.6" style="fill: #99653f; stroke-width: 0px;"/>
            <rect x="12.01" y="144" width="158.3" height="12.16" rx="2.6" ry="2.6" style="fill: #99653f; stroke-width: 0px;"/>
            <polygon points="26.85 171.82 33.76 171.82 33.7 175.02 26.81 173.16 26.85 171.82" style="fill: #1f2123; stroke-width: 0px;"/>
            <polygon points="27.09 156.16 33.66 156.16 33.6 159.36 27.14 157.76 27.09 156.16" style="fill: #1f2123; stroke-width: 0px;"/>
            <polygon points="149.42 171.82 156.34 171.82 156.41 175.23 149.45 173.42 149.42 171.82" style="fill: #1f2123; stroke-width: 0px;"/>
            <polygon points="149.53 156.16 156.09 156.16 156.03 159.36 149.53 157.9 149.53 156.16" style="fill: #1f2123; stroke-width: 0px;"/>
            <path d="M175.28,187.84H6.11c-2.6,0-4.71,1.88-4.71,4.2h178.59c0-2.32-2.11-4.2-4.71-4.2Z" style="fill: #ad7149; stroke-width: 0px;"/>
            <path d="M170.3,153.7v-7.24c0-1.36-1.23-2.46-2.76-2.46h-23.41c-26.62,6.13-54.7,8.01-82.29,9.51-11.48.62-22.97,1.19-34.46,1.45-4.05.09-8.13.14-12.14-.42-.37-.05-1.7-.35-3.18-.52.18,1.21,1.3,2.14,2.7,2.14h152.79c1.52,0,2.76-1.1,2.76-2.46Z" style="fill: #935d35; stroke-width: 0px;"/>
            <path d="M168.47,144.11c.26.38.47.86.47,1.34v7.24c0,1.36-1.23,2.46-2.76,2.46H13.4c-.34,0-.67-.07-.97-.17.53.85,1.35,1.17,2.34,1.17h152.79c1.52,0,2.76-1.1,2.76-2.46v-7.24c0-1.05-.8-1.99-1.84-2.34Z" style="fill: #7a4e35; stroke-width: 0px;"/>
            <path d="M170.16,169.37v-7.24c0-1.36-1.23-2.46-2.76-2.46h-23.41c-26.62,6.13-54.7,8.01-82.29,9.51-11.48.62-22.97,1.19-34.46,1.45-4.05.09-8.13.14-12.14-.42-.37-.05-1.56-.33-3.04-.5.18,1.21,1.16,2.12,2.56,2.12h152.79c1.52,0,2.76-1.1,2.76-2.46Z" style="fill: #935d35; stroke-width: 0px;"/>
            <path d="M15.41,149.61c5.12-.62,10.2-.39,15.31.17,5.04.55,10.06,1.3,15.13,1.42,5.19.12,10.37-.3,15.55-.54,5.19-.23,10.38-.15,15.57.13,5.3.29,10.58.74,15.88,1.08,5.19.34,10.38.53,15.58.6,10.07.14,20.13-.13,30.2-.27,10.39-.14,20.78-.15,31.17-.34.44,0,.44-.69,0-.68-9.28.17-18.56.21-27.84.31-10.01.11-20.01.41-30.02.35-5.2-.03-10.39-.15-15.58-.42-5.19-.28-10.37-.71-15.56-1.05-5.29-.35-10.59-.6-15.89-.47-5.19.13-10.36.62-15.55.72-5.73.12-11.39-.51-17.09-1.07-5.57-.54-11.31-1.02-16.85,0-.03,0-.02.05,0,.05h0Z" style="fill: #7a4e35; stroke-width: 0px;"/>
            <path d="M46.45,149.08c4.21-.16,8.42-.56,12.62-.88,4.15-.31,8.4-.92,12.56-.6,2.11.16,4.16.67,6.23,1.07,1.95.37,3.91.58,5.89.65,4.05.14,8.11-.15,12.16-.28,15.82-.48,31.65-.06,47.48-.41,8.81-.2,17.63-.62,26.39-1.62.41-.05.41-.69,0-.64-15.76,1.81-31.66,1.79-47.5,1.8-7.87,0-15.75,0-23.62.18-3.94.1-7.87.33-11.81.38-2.06.03-4.13-.02-6.18-.24-2.1-.22-4.16-.71-6.24-1.07-4.58-.79-9.2-.18-13.79.23-4.73.43-9.48.75-14.19,1.35-.05,0-.05.07,0,.07h0Z" style="fill: #7a4e35; stroke-width: 0px;"/>
            <path d="M16.62,167.24c.16,1.52,2.89,1.23,3.88,1.21,2.43-.04,4.83-.38,7.22-.78,5.15-.86,10.29-1.9,15.52-1.06,2.53.41,5,1.08,7.52,1.54,2.54.46,5.12.71,7.69.86,5.14.29,10.3.28,15.44.32,10.2.08,20.39,0,30.59-.21,10.35-.21,20.7-.56,31.04-1.02,10.07-.45,20.13-1.01,30.19-1.69,1.25-.08,2.49-.17,3.74-.26.51-.04.52-.84,0-.8-9.85.72-19.7,1.33-29.57,1.82-10.08.5-20.17.88-30.26,1.15-10.05.26-20.1.4-30.15.39-4.86,0-9.73-.04-14.59-.12-5.28-.09-10.55-.28-15.74-1.37-2.38-.5-4.75-1.08-7.17-1.34-2.49-.27-5-.13-7.48.2-4.86.64-9.66,1.94-14.59,2.07-.86.02-2.96.25-3.2-.92,0-.05-.09-.04-.08.01h0Z" style="fill: #7a4e35; stroke-width: 0px;"/>
            <path d="M14.3,163.64s0-.01,0-.01,0,.01,0,.01h0Z" style="fill: #7a4e35; stroke-width: 0px;"/>
            <path d="M16.31,163.76c5.06.25,10.15.12,15.21.11,5.07-.01,10.14-.05,15.21-.07,2.46-.01,4.91-.03,7.37-.04,2.45-.01,4.92-.18,7.28.61,2.09.7,4.08,1.03,6.28,1.08,2.53.05,5.06.05,7.59.07,20.05.1,40.1-.33,60.12-1.3,11.28-.55,22.56-1.26,33.82-2.11.44-.03.44-.73,0-.69-20.08,1.66-40.21,2.7-60.35,3.22-10.02.26-20.04.38-30.07.37-2.45,0-4.91-.01-7.36-.03-2.45-.02-5.01.13-7.43-.35-1.03-.21-2-.61-3-.91-1.09-.32-2.2-.43-3.33-.45-2.46-.05-4.93.02-7.39.04-5.66.04-11.32.06-16.97.12-5.65.06-11.33-.03-16.97.32-.03,0-.03.05,0,.05h0Z" style="fill: #7a4e35; stroke-width: 0px;"/>
            <path d="M168.53,159.83c.26.38.41.82.41,1.29v7.24c0,1.36-1.23,2.46-2.76,2.46H13.4c-.34,0-.67-.06-.97-.16.49.7,1.35,1.16,2.34,1.16h152.79c1.52,0,2.76-1.1,2.76-2.46v-7.24c0-1.05-.74-1.95-1.78-2.3Z" style="fill: #7a4e35; stroke-width: 0px;"/>
          </g>
          <g>
            <g>
              <g>
                <g>
                  <path id="SVGID" d="M134.7,102.33c-2.59-3.06-7.82-1.5-11.67,3.49-1.75,2.26-2.91,4.84-3.42,7.26-.62,2.93-.28,5.65,1.14,7.32,1.65,1.95,4.37,2.03,7.12.54,1.57-.85,3.16-2.21,4.56-4.03,3.6-4.66,4.74-10.67,2.74-13.94-.14-.23-.29-.44-.46-.64" style="fill: url(#linear-gradient);"/>
                  <g style="clip-path: url(#clippath);">
                    <polygon points="139.29 135.12 142.9 104.32 115.67 87.91 112.06 118.71 139.29 135.12" style="fill: url(#linear-gradient-2); stroke-width: 0px;"/>
                  </g>
                </g>
                <g>
                  <g style="clip-path: url(#clippath-1);">
                    <polygon points="117.25 86.84 112 117.4 138.33 135.24 143.57 104.68 117.25 86.84" style="fill: none; stroke: #664e4b; stroke-miterlimit: 10; stroke-width: 1.39px;"/>
                  </g>
                  <path id="SVGID-4" data-name="SVGID" d="M127.67,120.48c1.45-.78,2.92-1.96,4.26-3.52,4.12-4.78,5.49-11.25,3.06-14.44-2.43-3.2-7.73-1.92-11.85,2.86-2.01,2.33-3.37,5.07-3.94,7.63" style="fill: none; stroke: #664e4b; stroke-miterlimit: 10; stroke-width: 1.39px;"/>
                </g>
              </g>
              <g>
                <g>
                  <path id="SVGID-5" data-name="SVGID" d="M48.39,101.42c3.23-2.37,7.95.36,10.54,6.11,2.59,5.75,2.07,12.35-1.17,14.71-3.24,2.38-7.96-.35-10.55-6.11-2.42-5.37-2.12-11.48.58-14.2.19-.19.39-.36.6-.51" style="fill: #aac362;"/>
                  <g style="clip-path: url(#clippath-2);">
                    <polygon points="36.29 132.24 39.94 101.45 70.25 91.82 66.6 122.61 36.29 132.24" style="fill: #aac362; stroke-width: 0px;"/>
                  </g>
                </g>
                <g>
                  <g style="clip-path: url(#clippath-3);">
                    <polygon points="68.96 90.41 66.95 121.35 37.2 132.58 39.21 101.64 68.96 90.41" style="fill: none; stroke: #664e4b; stroke-miterlimit: 10; stroke-width: 1.39px;"/>
                  </g>
                  <path id="SVGID-8" data-name="SVGID" d="M51,120.71c-1.23-1.1-2.38-2.59-3.32-4.41-2.9-5.6-2.72-12.22.38-14.75,3.11-2.55,7.96-.07,10.86,5.54,1.41,2.74,2.1,5.71,2.06,8.34" style="fill: none; stroke: #664e4b; stroke-miterlimit: 10; stroke-width: 1.39px;"/>
                </g>
              </g>
              <g>
                <path d="M71.85,182.65c-5.21,16.11-28.43-1.58-15.33-10.93" style="fill: url(#linear-gradient-3); stroke-width: 0px;"/>
                <path d="M72.18,182.74c-5.67,15.74-28.98-1.81-15.4-10.85" style="fill: none; stroke: #654d49; stroke-miterlimit: 10; stroke-width: 1.59px;"/>
              </g>
              <g>
                <path d="M121.35,171.75c13.63,10.04-10.49,26.47-15.22,11.09" style="fill: url(#linear-gradient-4); stroke-width: 0px;"/>
                <path d="M105.75,182.26c5.27,15.87,29.01-1.08,15.67-10.46" style="fill: none; stroke: #654d49; stroke-miterlimit: 10; stroke-width: 1.59px;"/>
              </g>
              <g>
                <path id="SVGID-9" data-name="SVGID" d="M50.96,121.77c-11.58,21.19-3.78,47.75,17.41,59.33,21.2,11.57,47.75,3.78,59.33-17.41,11.57-21.19,3.78-47.75-17.4-59.33-8.23-4.49-17.27-6.07-25.92-5.07-13.64,1.57-26.33,9.52-33.41,22.48" style="fill: #664e4b;"/>
                <g style="clip-path: url(#clippath-4);">
                  <rect x="36.5" y="94.45" width="106.49" height="101.97" transform="translate(-37.32 31.16) rotate(-16.35)" style="fill: #664e4b; stroke-width: 0px;"/>
                </g>
              </g>
              <g>
                <path id="SVGID-11" data-name="SVGID" d="M60.87,111.63c-17.18,15.72-18.36,42.38-2.64,59.56,15.72,17.18,42.38,18.36,59.56,2.64,17.18-15.71,18.36-42.38,2.65-59.56-9.49-10.37-22.98-14.91-35.96-13.42-8.51.98-16.8,4.55-23.61,10.78" style="fill: url(#_未命名漸層_3);"/>
                <g style="clip-path: url(#clippath-5);">
                  <rect x="25.34" y="80.54" width="128.63" height="129.99" transform="translate(-81.05 154.43) rotate(-61.35)" style="fill: url(#_未命名漸層_3-2); stroke-width: 0px;"/>
                </g>
              </g>
              <path d="M83.98,149.39s-1.9,9.15,7.56,8.77c9.46-.38,7.41-9.48,7.41-9.48,0,0-10.38-3.08-14.97.71Z" style="fill: url(#_未命名的渐变_89); stroke-width: 0px;"/>
              <g>
                <circle cx="110.76" cy="131.36" r="10.74" transform="translate(-19.61 19.44) rotate(-9.22)" style="fill: #fff; stroke-width: 0px;"/>
                <g>
                  <path d="M102.86,127.71c.51.86,1.45,1.44,2.51,1.44,1.61,0,2.92-1.31,2.92-2.92,0-1.12-.64-2.09-1.57-2.59,1.21-.63,2.58-1,4.04-1,4.8,0,8.72,3.92,8.72,8.72,0,4.8-3.92,8.72-8.72,8.72-4.8,0-8.72-3.92-8.72-8.72,0-1.31.3-2.54.82-3.65Z" style="fill: #493d36; stroke-width: 0px;"/>
                  <path d="M110.76,137.47c-3.37,0-6.11-2.75-6.11-6.11s2.75-6.11,6.11-6.11,6.11,2.75,6.11,6.11c0,3.37-2.75,6.11-6.11,6.11Z" style="fill: #181818; fill-rule: evenodd; stroke-width: 0px;"/>
                  <path d="M108.3,126.23c0,1.61-1.31,2.92-2.92,2.92-1.07,0-2.01-.58-2.51-1.44.81-1.74,2.17-3.18,3.87-4.07.93.49,1.57,1.47,1.57,2.59Z" style="fill: #fff; stroke-width: 0px;"/>
                </g>
              </g>
              <g>
                <circle cx="70.55" cy="131.36" r="10.74" transform="translate(-20.68 13.42) rotate(-9.48)" style="fill: #fff; stroke-width: 0px;"/>
                <g>
                  <path d="M62.64,127.71c.51.86,1.45,1.44,2.51,1.44,1.61,0,2.92-1.31,2.92-2.92,0-1.12-.64-2.09-1.57-2.59,1.21-.63,2.58-1,4.04-1,4.8,0,8.72,3.92,8.72,8.72s-3.92,8.72-8.72,8.72-8.72-3.92-8.72-8.72c0-1.31.3-2.54.82-3.65Z" style="fill: #493d36; stroke-width: 0px;"/>
                  <path d="M70.55,137.47c-3.37,0-6.11-2.75-6.11-6.11,0-3.37,2.75-6.11,6.11-6.11,3.37,0,6.11,2.75,6.11,6.11s-2.75,6.11-6.11,6.11Z" style="fill: #181818; fill-rule: evenodd; stroke-width: 0px;"/>
                  <path d="M68.08,126.23c0,1.61-1.31,2.92-2.92,2.92-1.07,0-2-.58-2.51-1.44.81-1.74,2.17-3.18,3.87-4.07.93.49,1.57,1.47,1.57,2.59Z" style="fill: #fff; stroke-width: 0px;"/>
                </g>
              </g>
              <g style="clip-path: url(#clippath-6);">
                <ellipse cx="91.24" cy="159.17" rx="8.48" ry="6.68" transform="translate(-4.12 2.43) rotate(-1.49)" style="fill: #a71f24; stroke-width: 0px;"/>
              </g>
              <path d="M122.6,140.93c4.12,1.5,2.4,7.54-3.06,6.23-5.8-1.4-2.43-8.22,3.06-6.23" style="fill: #e07874; stroke-width: 0px;"/>
              <path d="M61.42,141.63c4.12,1.5,2.4,7.54-3.06,6.23-5.8-1.4-2.43-8.22,3.06-6.23" style="fill: #e07874; stroke-width: 0px;"/>
              <path d="M70.55,121.75s.42,9.27-9.03,9.27c0,0,9.64-.83,9.44,9.69,0,0,3.5-9.87,9.88-10.14,0,0-10.29-.33-10.29-8.81Z" style="fill: url(#_未命名的渐变_33); stroke-width: 0px;"/>
              <path d="M109.81,121.66s.42,9.2-8.96,9.2c0,0,9.57-.82,9.37,9.62,0,0,3.47-9.8,9.81-10.07,0,0-10.21-.32-10.21-8.75Z" style="fill: url(#_未命名的渐变_33-2); stroke-width: 0px;"/>
            </g>
            <g>
              <g>
                <path d="M101.6,21.13c5.3-5.85,27.55-27.15,67.93-13.65l-9.8,27.62-58.12-13.97Z" style="fill: #96b0ad; stroke-width: 0px;"/>
                <path d="M38.01,10.06l-.04-6.99s24.07-5.86,39.04-1.38c14.97,4.47,22.45,12.7,24.59,19.45l-63.59-11.07Z" style="fill: #96b0ad; stroke-width: 0px;"/>
                <path d="M33.55,8.62c-2.21,26.38-4.42,52.75-6.64,79.13,20.47,6.17,40.37,12.33,59.72,18.47,20.48-3.95,41.38-7.89,62.7-11.82,7.55-27.15,15.1-54.29,22.65-81.44,0,0-19.61-.45-29.77-.23-10.25.22-36.02,7.23-37.56,8.06-1.62.82-4.11,1.41-5.31.31-.95-1.09-38.55-15.13-65.79-12.5Z" style="fill: #96b0ad; stroke-width: 0px;"/>
                <path d="M170.94,11.36c-.14-.08-.28-.16-.42-.23-.13-.3-.25-.59-.38-.89-40.59-13.7-63.23,4.97-68.54,10.9-2.86-6.35-18.91-26.43-64.82-16.35-.48.6-.96,1.21-1.43,1.81-.1.05-.2.11-.31.16-.5.62-.99,1.24-1.49,1.86,36.79,1.94,63.67,14.61,63.55,14.6,2.52-1.26,5.38-1.31,7.88.17-.12,0,30.07-10.84,67-10.42-.35-.54-.69-1.08-1.04-1.61Z" style="fill: #a7bfbb; stroke-width: 0px;"/>
                <g style="mix-blend-mode: overlay; opacity: .3;">
                  <path d="M155.91,9.03c.18,0-24.72-7.75-45.77,8.15-.14,0,18.64-14.28,45.77-8.15Z" style="fill: #000; stroke-width: 0px;"/>
                  <path d="M162.55,10.81c.06,0-20.34-3.6-38.09,1.87-.05,0,15.58-4.72,38.09-1.87Z" style="fill: #000; stroke-width: 0px;"/>
                  <path d="M148.57,11.32s-22.11-.13-40.09,8.06c-.03,0,15.74-7.11,40.09-8.06Z" style="fill: #000; stroke-width: 0px;"/>
                  <path d="M143.39,12.61s-17.31,1.8-26.36,4.88c-.04,0,22.68-4.6,26.36-4.88Z" style="fill: #000; stroke-width: 0px;"/>
                </g>
                <g style="mix-blend-mode: overlay; opacity: .3;">
                  <path d="M43.57,4.33c-.2,0,32.67-5.61,51.06,11.81.16,0-16.19-15.61-51.06-11.81Z" style="fill: #000; stroke-width: 0px;"/>
                  <path d="M37.26,5.39c-.07,0,25.76-1.86,44.58,4.99.05,0-16.52-5.94-44.58-4.99Z" style="fill: #000; stroke-width: 0px;"/>
                  <path d="M60.61,7.91s22.32,1.86,36.37,11.37c.02,0-12.31-8.26-36.37-11.37Z" style="fill: #000; stroke-width: 0px;"/>
                  <path d="M49.18,7.53s20.04,2.67,29.7,6.19c.05,0-25.4-5.73-29.7-6.19Z" style="fill: #000; stroke-width: 0px;"/>
                </g>
              </g>
              <path d="M81.36,108.65c5.01-28.67,10.02-57.34,15.02-86.01,0,0,1.97,2.94,5.17,2.3,3.21-.65,4.58-2.28,4.58-2.28-5.4,28.66-10.8,57.32-16.21,85.99,0,0-1.52,2.69-4.57,2.62-3.61-.08-3.99-2.61-3.99-2.61Z" style="fill: url(#linear-gradient-5); stroke-width: 0px;"/>
              <g style="mix-blend-mode: overlay; opacity: .2;">
                <path d="M99.41,34.08c-3.39-.07-4.51-1.59-4.85-2.29-.22,1.26-.44,2.52-.66,3.78,0,0,.54,2.53,4.77,2.62,3.59.08,5.29-2.6,5.29-2.6.24-1.28.49-2.57.73-3.85-.55.67-2.27,2.4-5.28,2.34Z" style="fill: #fff; stroke-width: 0px;"/>
                <path d="M100.46,28.21c-3.39-.07-4.51-1.59-4.85-2.29-.22,1.26-.44,2.52-.66,3.78,0,0,.54,2.53,4.77,2.62,3.59.08,5.29-2.6,5.29-2.6.24-1.28.49-2.57.73-3.85-.55.67-2.27,2.4-5.28,2.34Z" style="fill: #fff; stroke-width: 0px;"/>
              </g>
              <path d="M81.36,108.65c.36,0-56.62-14.02-57.68-14.35-.29-.09-.85-.21-.75-1.27,1.07-11.49,6.88-85.02,7.05-85.55.99.02,66.79,15.17,66.41,15.16-5.01,28.67-10.02,57.34-15.02,86.01Z" style="fill: url(#linear-gradient-6); stroke-width: 0px;"/>
              <path d="M89.93,108.64c5.4-28.66,10.8-57.32,16.21-85.99-.34,0,67.67-11.14,67.93-10.62-.07.52-23.88,85.14-24,85.53-.2.68-.51.8-1.33.95-.74.14-59.11,10.12-58.81,10.12Z" style="fill: url(#_新增漸層色票_拷貝); stroke-width: 0px;"/>
              <path d="M100.69,25.25c-2.03-.04-3.68-1.05-4.31-2.61-21.62-4.85-43.65-9.7-66.1-14.57-.23-.05-.37-.32-.31-.59.06-.28.3-.46.53-.41,22.54,4.88,44.66,9.75,66.37,14.61.12.03.21.12.25.24.46,1.39,2.01,2.33,3.87,2.32,1.86,0,3.72-.93,4.64-2.31.09-.14.22-.23.36-.25,22.21-3.38,44.78-6.75,67.7-10.11.62-.11.46.89-.15,1-22.82,3.35-45.28,6.71-67.4,10.08-1.17,1.59-3.22,2.6-5.31,2.6-.05,0-.09,0-.14,0Z" style="fill: #66bf97; stroke-width: 0px;"/>
              <polygon points="42.41 84.73 44.68 64.91 63.95 68.84 60.59 88.91 42.41 84.73" style="fill: #000; mix-blend-mode: overlay; opacity: .2; stroke-width: 0px;"/>
              <path d="M110.64,29.45l-13.31,70.61,48.29-8.31,19.64-70.47-54.62,8.17ZM147.23,55.95l-34.23,5,4.43-23.49,36.47-5.46-6.67,23.95Z" style="fill: #000; mix-blend-mode: overlay; opacity: .2; stroke-width: 0px;"/>
              <path d="M79.63,108.2c1.14.29,1.77.45,1.73.45,5.01-28.67,10.02-57.34,15.02-86.01.04,0-.68-.17-2.01-.48l-14.74,86.05Z" style="fill: #000; mix-blend-mode: overlay; opacity: .2; stroke-width: 0px;"/>
              <path d="M91.84,108.3l17.32-86.16c-1.95.32-3.06.51-3.02.51-5.4,28.66-10.8,57.32-16.21,85.99-.03,0,.66-.12,1.91-.34h0Z" style="fill: #000; mix-blend-mode: overlay; opacity: .2; stroke-width: 0px;"/>
              <path d="M85.61,111.25c1.87-.06,3.12-1.13,3.78-1.89l15.78-85.9c-.74.51-1.92,1.12-3.62,1.47-.24.05-.47.07-.7.09l-15.24,86.23Z" style="fill: #fff; mix-blend-mode: overlay; opacity: .1; stroke-width: 0px;"/>
            </g>
            <g>
              <g>
                <path d="M73.02,37.08l11.03-.19.14-1.31-10.65.5,1.36-9.48,6.1.26-.17.76,10.51-.12-.98,9.38h2.17s-.09,5.37-.09,5.37l-6.27.12.08,3.34c.32.3.63.58.93.86,1.65-1.7,2.68-2.98,3.09-3.83l3.07,3.61c-1.49.92-2.93,1.51-4.31,1.77,1.43,1.15,2.63,1.91,3.62,2.3l-1.95,6.76c-1.93-1.6-3.4-3.68-4.39-6.23l.08,6.48-5.72.84-1.73-5.44c-.94,1.52-2.13,2.98-3.58,4.38l-1.74-6.41c2.21-.51,4.49-1.54,6.85-3.08l-.11-5.24-7.17.12c.12.5.2.99.24,1.45l-3.55,1.11c-.07-.57-.15-1.15-.25-1.72-.89.85-1.86,1.55-2.89,2.11l3.79.13v1.96s2.56,1.79,2.56,1.79l-1.19,5.93-1.38-1.62-.03,4.38h-5.2s-.02-11.88-.02-11.88c-1.15.44-2.37.73-3.65.87l-.98-6.2c.62,0,1.24-.03,1.86-.07.14-.28.26-.54.38-.79l-2.42-5.2.65-1.66c.18.02.36.04.52.07.34-2.37.66-4.41.95-6.14l4.07,1.23c-.64,2.09-1.53,3.97-2.68,5.62.48.23.94.5,1.38.83,1.1-2.58,1.91-4.91,2.43-7l5.21,2.2c-1.14,2.69-2.48,5.11-4.02,7.25l2.2-.62c.92,2.09,1.57,3.95,1.94,5.58l-.11-5.1ZM61.19,47.59l4,.71c-.31,3.63-1.16,6.54-2.53,8.73l-1.83-.45c.25-3.61.37-6.61.36-9ZM68.78,37.54c-.71.99-1.48,1.92-2.3,2.8.9-.16,1.78-.36,2.65-.59-.12-.78-.23-1.52-.35-2.21v-.03.03ZM75.7,49.14l-1.49-5.44,1.21-.59c1.52.48,2.86,1.73,4.04,3.75l-3.75,2.28ZM80.6,52.13l-.07-2.34c-.34.88-.77,1.74-1.27,2.59l1.34-.24ZM84.66,31.2l-4.55.04-.2,1.17,4.65-.15.1-1.07Z" style="fill: none; stroke: #fff; stroke-linecap: round; stroke-linejoin: round; stroke-width: 6.79px;"/>
                <path d="M112.91,40.93l3.89-.04-.44-13.86,6.45.12-.06,3.34,5.07-.08-.33,6.76-4.89.11-.06,3.52,4.86-.04-.31,16.89-13.79.17-.04-2.31-3.69,1.21-2.05-7.17-6.79-.02c-.02,3.15-.39,5.99-1.12,8.52l-3.69-2.41c1.26-2.37,2.28-4.4,3.06-6.11h-2.03s0-4.93,0-4.93l5.34-.11v-1.28s-4.69.04-4.69.04v-4.03s4.68-.04,4.68-.04v-1.34s-5.59.12-5.59.12l-.09-10.75,16.1-.1-.43,10.58-5.2.08v1.41s4.52-.04,4.52-.04v3.96s-4.51.04-4.51.04v1.28s5.24-.11,5.24-.11l.15,5.27h-2.76c1.38,1.13,2.56,2.98,3.53,5.55l-.3-14.2ZM99.45,31.45v2.21s.97-.04.97-.04l-.25-2.21-.72.04ZM101.55,50.67l1.07-.31c.78,1.26,1.45,3.32,2.01,6.17l-3.07.59v-6.45ZM103,31.34l-1.27.04.76,2.21h.55s-.04-2.24-.04-2.24v-.04.04ZM104.66,50.81l.83-.66c.97.71,1.92,2.7,2.87,5.96l-2.86,1.01-.84-6.31ZM107.2,31.22l-1.07.04v2.24s.69,0,.69,0l.37-2.28ZM109.55,31.15h-.31s-1.06,2.31-1.06,2.31l1.38-.04v-2.28ZM121.51,47.67h-3s.08,2.94.08,2.94h2.93s0-2.94,0-2.94Z" style="fill: none; stroke: #fff; stroke-linecap: round; stroke-linejoin: round; stroke-width: 6.79px;"/>
                <path d="M44.03,84.39l-.25-4.96,31.09-.24v5s-10.81.06-10.81.06v1.34s8.62-.12,8.62-.12v4.24s-8.71.16-8.71.16l-.03,1.28,11.41-.2-2.06,5.07-14.06.03c-3.65-.11-6.55-1.29-8.69-3.53-1.35,1.4-3.05,2.62-5.09,3.66l-1.76-1.07c1.4-2.97,2.19-6.39,2.39-10.28l7.86,1.19c-.34,1.52-.88,2.89-1.61,4.1,1.1.46,2.59.8,4.45,1.03l-.19-6.86-12.55.09ZM46.6,78.04l-.2-12.86,26.09-.22-.32,12.86-25.58.22ZM64.78,68.59l-10.69.12v1.24s10.69-.16,10.69-.16v-1.21ZM54.1,74.13l10.69-.06v-1.31s-10.69.12-10.69.12v1.24s0-.03,0-.03v.03Z" style="fill: none; stroke: #fff; stroke-linecap: round; stroke-linejoin: round; stroke-width: 6.79px;"/>
                <path d="M91.04,65.65c-1.19,4.07-2.8,7.57-4.84,10.49h1.96s-.1,19.47-.1,19.47l-6.44.22-.06-14.51c-.6.51-1.22.98-1.86,1.42l-1.21-2.62c2.7-5.61,4.16-10.72,4.38-15.31l8.17.84ZM96.14,64.77l8.13.16-.09,7.82,6-.12.02,8.13-6.13.15-.18,14.75-7.69.15-.03-14.72-7,.15-.02-8.17,7-.15-.02-8.17v-.04.04Z" style="fill: none; stroke: #fff; stroke-linecap: round; stroke-linejoin: round; stroke-width: 6.79px;"/>
                <path d="M115.58,65.35l11.41-.13v-1.31s7.06.12,7.06.12v1.07s11.34-.13,11.34-.13v4.31s-24.36.33-24.36.33l-.15,12.2c-.65,6.23-2.46,10.72-5.42,13.49l-1.38-1.58c.82-3.88,1.29-8.08,1.42-12.58l.07-15.79ZM125.44,82.29l6.93.81c-1.33,1.22-2.99,2.24-4.99,3.04,1.08.32,2.08.67,3,1.06,2.27-1.84,3.98-3.51,5.13-5.01l7.48,1.09c-2.75,2.81-6.61,5.18-11.57,7.12,2.27-.07,4.72-.18,7.34-.33-.09-.76-.21-1.56-.35-2.41l2.1-.42c2.44,2.18,4.2,4.66,5.29,7.43l-6.79,1.01c.04-.87.04-1.83,0-2.86-6.2,1.37-11.76,2.34-16.68,2.93l-1.84-5.37c1.7.07,3.54.1,5.52.09.21-.14.4-.28.58-.42-1.7-1.35-3.46-2.53-5.28-3.54l.86-1.42c.69.09,1.36.19,2,.31.53-1.24.95-2.29,1.27-3.14v-.03.03ZM122.29,76.2l2.28.13c0,3.15-.86,5.02-2.61,5.62l-.76-.62c.85-1.2,1.21-2.91,1.09-5.14ZM121.97,75.47l-.04-4.17,3.21-.04v-1.03s4.38,0,4.38,0v1.03s2.72-.04,2.72-.04v4.03s-2.71.08-2.71.08v6.34s-4.23.15-4.23.15l-.08-6.41-3.24.08ZM130.18,76.18h1.76s-.1,3.44-.1,3.44l-1.58.17-.08-3.62ZM133.28,75.93l2.83.1c-.13,2.64-1.4,4.36-3.82,5.14l-.69-.62c1.06-.9,1.62-2.44,1.68-4.62ZM132.97,75.38l-.04-4.24h3.65s0-1.04,0-1.04h4.45s0,1.03,0,1.03h4.41s0,4.02,0,4.02l-4.41.08v6.38s-4.43.08-4.43.08v-6.38s-3.63.08-3.63.08ZM141.76,75.95l2.79-.04-.17,2.38,1.48-.21-.17,3.55-3.62-.03-.32-5.65Z" style="fill: none; stroke: #fff; stroke-linecap: round; stroke-linejoin: round; stroke-width: 6.79px;"/>
              </g>
              <g>
                <path d="M73.02,37.08l11.03-.19.14-1.31-10.65.5,1.36-9.48,6.1.26-.17.76,10.51-.12-.98,9.38h2.17s-.09,5.37-.09,5.37l-6.27.12.08,3.34c.32.3.63.58.93.86,1.65-1.7,2.68-2.98,3.09-3.83l3.07,3.61c-1.49.92-2.93,1.51-4.31,1.77,1.43,1.15,2.63,1.91,3.62,2.3l-1.95,6.76c-1.93-1.6-3.4-3.68-4.39-6.23l.08,6.48-5.72.84-1.73-5.44c-.94,1.52-2.13,2.98-3.58,4.38l-1.74-6.41c2.21-.51,4.49-1.54,6.85-3.08l-.11-5.24-7.17.12c.12.5.2.99.24,1.45l-3.55,1.11c-.07-.57-.15-1.15-.25-1.72-.89.85-1.86,1.55-2.89,2.11l3.79.13v1.96s2.56,1.79,2.56,1.79l-1.19,5.93-1.38-1.62-.03,4.38h-5.2s-.02-11.88-.02-11.88c-1.15.44-2.37.73-3.65.87l-.98-6.2c.62,0,1.24-.03,1.86-.07.14-.28.26-.54.38-.79l-2.42-5.2.65-1.66c.18.02.36.04.52.07.34-2.37.66-4.41.95-6.14l4.07,1.23c-.64,2.09-1.53,3.97-2.68,5.62.48.23.94.5,1.38.83,1.1-2.58,1.91-4.91,2.43-7l5.21,2.2c-1.14,2.69-2.48,5.11-4.02,7.25l2.2-.62c.92,2.09,1.57,3.95,1.94,5.58l-.11-5.1ZM61.19,47.59l4,.71c-.31,3.63-1.16,6.54-2.53,8.73l-1.83-.45c.25-3.61.37-6.61.36-9ZM68.78,37.54c-.71.99-1.48,1.92-2.3,2.8.9-.16,1.78-.36,2.65-.59-.12-.78-.23-1.52-.35-2.21v-.03.03ZM75.7,49.14l-1.49-5.44,1.21-.59c1.52.48,2.86,1.73,4.04,3.75l-3.75,2.28ZM80.6,52.13l-.07-2.34c-.34.88-.77,1.74-1.27,2.59l1.34-.24ZM84.66,31.2l-4.55.04-.2,1.17,4.65-.15.1-1.07Z" style="fill: #117730; stroke-width: 0px;"/>
                <path d="M112.91,40.93l3.89-.04-.44-13.86,6.45.12-.06,3.34,5.07-.08-.33,6.76-4.89.11-.06,3.52,4.86-.04-.31,16.89-13.79.17-.04-2.31-3.69,1.21-2.05-7.17-6.79-.02c-.02,3.15-.39,5.99-1.12,8.52l-3.69-2.41c1.26-2.37,2.28-4.4,3.06-6.11h-2.03s0-4.93,0-4.93l5.34-.11v-1.28s-4.69.04-4.69.04v-4.03s4.68-.04,4.68-.04v-1.34s-5.59.12-5.59.12l-.09-10.75,16.1-.1-.43,10.58-5.2.08v1.41s4.52-.04,4.52-.04v3.96s-4.51.04-4.51.04v1.28s5.24-.11,5.24-.11l.15,5.27h-2.76c1.38,1.13,2.56,2.98,3.53,5.55l-.3-14.2ZM99.45,31.45v2.21s.97-.04.97-.04l-.25-2.21-.72.04ZM101.55,50.67l1.07-.31c.78,1.26,1.45,3.32,2.01,6.17l-3.07.59v-6.45ZM103,31.34l-1.27.04.76,2.21h.55s-.04-2.24-.04-2.24v-.04.04ZM104.66,50.81l.83-.66c.97.71,1.92,2.7,2.87,5.96l-2.86,1.01-.84-6.31ZM107.2,31.22l-1.07.04v2.24s.69,0,.69,0l.37-2.28ZM109.55,31.15h-.31s-1.06,2.31-1.06,2.31l1.38-.04v-2.28ZM121.51,47.67h-3s.08,2.94.08,2.94h2.93s0-2.94,0-2.94Z" style="fill: #117730; stroke-width: 0px;"/>
                <path d="M44.03,84.39l-.25-4.96,31.09-.24v5s-10.81.06-10.81.06v1.34s8.62-.12,8.62-.12v4.24s-8.71.16-8.71.16l-.03,1.28,11.41-.2-2.06,5.07-14.06.03c-3.65-.11-6.55-1.29-8.69-3.53-1.35,1.4-3.05,2.62-5.09,3.66l-1.76-1.07c1.4-2.97,2.19-6.39,2.39-10.28l7.86,1.19c-.34,1.52-.88,2.89-1.61,4.1,1.1.46,2.59.8,4.45,1.03l-.19-6.86-12.55.09ZM46.6,78.04l-.2-12.86,26.09-.22-.32,12.86-25.58.22ZM64.78,68.59l-10.69.12v1.24s10.69-.16,10.69-.16v-1.21ZM54.1,74.13l10.69-.06v-1.31s-10.69.12-10.69.12v1.24s0-.03,0-.03v.03Z" style="fill: #117730; stroke-width: 0px;"/>
                <path d="M91.04,65.65c-1.19,4.07-2.8,7.57-4.84,10.49h1.96s-.1,19.47-.1,19.47l-6.44.22-.06-14.51c-.6.51-1.22.98-1.86,1.42l-1.21-2.62c2.7-5.61,4.16-10.72,4.38-15.31l8.17.84ZM96.14,64.77l8.13.16-.09,7.82,6-.12.02,8.13-6.13.15-.18,14.75-7.69.15-.03-14.72-7,.15-.02-8.17,7-.15-.02-8.17v-.04.04Z" style="fill: #117730; stroke-width: 0px;"/>
                <path d="M115.58,65.35l11.41-.13v-1.31s7.06.12,7.06.12v1.07s11.34-.13,11.34-.13v4.31s-24.36.33-24.36.33l-.15,12.2c-.65,6.23-2.46,10.72-5.42,13.49l-1.38-1.58c.82-3.88,1.29-8.08,1.42-12.58l.07-15.79ZM125.44,82.29l6.93.81c-1.33,1.22-2.99,2.24-4.99,3.04,1.08.32,2.08.67,3,1.06,2.27-1.84,3.98-3.51,5.13-5.01l7.48,1.09c-2.75,2.81-6.61,5.18-11.57,7.12,2.27-.07,4.72-.18,7.34-.33-.09-.76-.21-1.56-.35-2.41l2.1-.42c2.44,2.18,4.2,4.66,5.29,7.43l-6.79,1.01c.04-.87.04-1.83,0-2.86-6.2,1.37-11.76,2.34-16.68,2.93l-1.84-5.37c1.7.07,3.54.1,5.52.09.21-.14.4-.28.58-.42-1.7-1.35-3.46-2.53-5.28-3.54l.86-1.42c.69.09,1.36.19,2,.31.53-1.24.95-2.29,1.27-3.14v-.03.03ZM122.29,76.2l2.28.13c0,3.15-.86,5.02-2.61,5.62l-.76-.62c.85-1.2,1.21-2.91,1.09-5.14ZM121.97,75.47l-.04-4.17,3.21-.04v-1.03s4.38,0,4.38,0v1.03s2.72-.04,2.72-.04v4.03s-2.71.08-2.71.08v6.34s-4.23.15-4.23.15l-.08-6.41-3.24.08ZM130.18,76.18h1.76s-.1,3.44-.1,3.44l-1.58.17-.08-3.62ZM133.28,75.93l2.83.1c-.13,2.64-1.4,4.36-3.82,5.14l-.69-.62c1.06-.9,1.62-2.44,1.68-4.62ZM132.97,75.38l-.04-4.24h3.65s0-1.04,0-1.04h4.45s0,1.03,0,1.03h4.41s0,4.02,0,4.02l-4.41.08v6.38s-4.43.08-4.43.08v-6.38s-3.63.08-3.63.08ZM141.76,75.95l2.79-.04-.17,2.38,1.48-.21-.17,3.55-3.62-.03-.32-5.65Z" style="fill: #117730; stroke-width: 0px;"/>
              </g>
            </g>
          </g>
        </g>
      </g>
    </g>
  </g>
</svg>