<?xml version="1.0" encoding="utf-8"?>
<!-- Generator: Adobe Illustrator 19.2.1, SVG Export Plug-In . SVG Version: 6.00 Build 0)  -->
<svg version="1.1" id="uuid-03a5d68e-f285-4098-80d6-238669709ffe"
	 xmlns="http://www.w3.org/2000/svg" xmlns:xlink="http://www.w3.org/1999/xlink" x="0px" y="0px" width="130.4px" height="43.1px"
	 viewBox="0 0 130.4 43.1" style="enable-background:new 0 0 130.4 43.1;" xml:space="preserve">
<style type="text/css">
	.st0{fill:#FF6E52;}
</style>
<g>
	<path class="st0" d="M1,7.2l0.6-5.6l7.1,2.9L8.4,6.8L1,7.2z M3.8,15.9l-2.7-4l7.2-3.8l1.9,2.3L3.8,15.9z M4.7,16.2l3.4-0.1l0,0.6
		l18.2-0.3l0.7,15.8h-5.8l0-0.5l-9.5,0.1l2.2,3.6L3.2,38l-1.1-2.5L9,31.9L4,32L4.7,16.2z M20.6,27.5L9.2,27.2l0.1,1.1l12.3,0.8
		l0.8-9.1l-14-1l0.2,1.6l12,0.2l0,2.4L8.8,23.4L9,24.7l11.6-0.4V27.5z M16.6,12.2l-6.3,3.5l-1.6-2.3l8.9-7L14.1,6l-2,3.2L10,8.4
		l0.6-7.1l5.9,0.8l-0.9,1.4l10.9-0.3l2.7,4.2L26,10.4l-2.3-1.2l0.9-2.1l-4.6-0.5l2.2,2.5L20,10.3l10,1.6l-2.4,4.4L16.6,12.2z
		 M28.4,38.8l-10.8-3.2l0.6-2.7l11.7,0.7L28.4,38.8z"/>
	<path class="st0" d="M39.9,7.9l6-0.3v4.4L30,10.8l0-2.4l6.2-0.3L34,3.9h8L39.9,7.9z M31.4,24.1H35l0.1,0.8l9.3-0.7l0.9,11.7h-6
		l0.1-0.7l-8.9,0.2L31.4,24.1z M31.8,12.9l12.4,1.2l0,2.4l-12.4,0.9V12.9z M44.2,22.7l-12.4-0.5l0-2.4l12.4-1.6V22.7z M36.2,31.2
		l4,0.6l0.6-2.9L35.6,28L36.2,31.2z M50.6,17.3l0.4-7.2l-3.7,0.5l0-5.7L64,5.6l1.3,26.2l3.4-2.6l0.1,6.8h-9.4l1-27.2l-5.9,0.8l0.4,8
		l4,0.3l0,3.3l-3.9,0.4l0.8,14.2L49.4,36l0.8-13.8l-3.8,0.4L46.3,17L50.6,17.3z"/>
	<path class="st0" d="M73.6,25.4l-3.7-1.9l4-4.2l2.3,3l2.6-3L74,17.3L71.3,20l-2.5-1.7l3.4-6.9l-2.8,0.1l0.1-5l13.8,1.1l0,3.4
		L76,11.2l2.5,1.3l-1.8,1.9l5.8,0.6l0.7,8.7l-11.4,8.5l-2.4-2L73.6,25.4z M89.9,11.9l-1,13.5h-3.4l-1-13.5H89.9z M98.4,32.4H91
		l0.1-1.9l-1.9-0.2l0-2.9l2.2-0.4l1.3-19.9l4.8,0L98.4,32.4z"/>
	<path class="st0" d="M123,9.2l-7.6-0.4l-0.2,2.4l7,0.4l0,2.8l-7.4,0.5l-0.2,2.3l9.4-0.5l0.1,5.4l-13.8-0.8l3,3.4l-5.3,2.6h3.4
		l0.6,5.8l2.8,0.2v3.4l-2.4,0l0.2,1.5l-8,0.2l0.7-9.8L100,31l-1.8-2.4l8.4-7.7l-5.8-0.4l0-2.8l9.4-0.5L110,15l-7.4,0.4v-5l7,0.4
		l-0.3-2.5l-7.4-0.5l0-2.8l7.1-0.4l-0.2-2.6h7.4l-0.2,2.2L123,4V9.2z M124.4,28.3l5.4,3.7l-5.6,5.4l-10.6-12.9l2.1-2.2l4.9,3.4
		l4.2-4l3.6,5.4L124.4,28.3z"/>
</g>
</svg>
