<?xml version="1.0" encoding="UTF-8"?>
<svg id="a" data-name=" 圖層 2" xmlns="http://www.w3.org/2000/svg" width="156.9" height="185.2" xmlns:xlink="http://www.w3.org/1999/xlink" viewBox="0 0 156.9 185.2">
  <defs>
    <style>
      .f {
        fill: #352003;
      }

      .f, .g, .h, .i, .j, .k, .l, .m, .n {
        stroke-width: 0px;
      }

      .g {
        fill: #bcddc1;
      }

      .o {
        opacity: .31;
      }

      .h {
        fill: #6cb073;
      }

      .i {
        fill: #af855f;
      }

      .p {
        clip-path: url(#d);
      }

      .q {
        opacity: .35;
      }

      .j {
        fill: none;
      }

      .r {
        clip-path: url(#b);
      }

      .k {
        fill: #95c19a;
      }

      .s {
        opacity: .54;
      }

      .t {
        clip-path: url(#e);
      }

      .l {
        fill: #7f5738;
        opacity: .72;
      }

      .u {
        clip-path: url(#c);
      }

      .m {
        fill: #fff;
      }

      .n {
        fill: #938f8f;
      }
    </style>
    <clipPath id="b">
      <rect class="j" x="58.85" y="8.66" width="63.87" height="133.74" transform="translate(-10.05 14.06) rotate(-8.39)"/>
    </clipPath>
    <clipPath id="c">
      <rect class="j" x="13.68" y="15.49" width="61.61" height="133.74" transform="translate(-11.55 7.38) rotate(-8.39)"/>
    </clipPath>
    <clipPath id="d">
      <path class="j" d="M93.25,62.59s2.51,15.3,2.45,28.52c-.06,13.23,1.19,33.6,8.07,32.59,6.88-1.02.29-28.68-1.26-34.08-1.55-5.4-4.31-25.8-4.03-27.31.26-1.39,5.23-.28,6.46-5.6.78-3.39-1.31-27.58-4.84-27.68-2.78-.08.69,21.68-2.26,22.12s-3.11-21.08-6.59-20.81c-3.48.27,1.99,21.98-1.03,21.94-3.02-.04-4.17-21.49-7.58-20.74s.56,24.22,1.19,26.82c.63,2.6,5.42,6.05,9.42,4.24Z"/>
    </clipPath>
    <clipPath id="e">
      <path class="j" d="M71.86,102.82c-1.96-5.71-6.46-33.08-6.46-33.08,0,0,13.65-6.32,7.88-23.68-4.46-13.42-16.55-15.9-23.48-5.39-6.93,10.51-1.81,28.36,10.44,29.9,0,0,5.69,24.61,6.79,33.44.94,7.59.93,26.12,7.75,24.75,6.17-1.24-1.64-22.19-2.92-25.93Z"/>
    </clipPath>
  </defs>
  <rect class="k" x="15.73" y="16.4" width="111.38" height="133.74" transform="translate(-11.39 11.32) rotate(-8.39)"/>
  <g>
    <rect class="g" x="58.85" y="8.66" width="63.87" height="133.74" transform="translate(-10.05 14.06) rotate(-8.39)"/>
    <g class="s">
      <g class="r">
        <g>
          <path class="k" d="M53.21,11.8c2.77,17.83,5.49,35.67,8.15,53.52s5.24,35.49,7.78,53.24c1.45,10.14,2.88,20.29,4.29,30.43.23,1.67,2.37,2.58,3.84,2.18,1.8-.49,2.41-2.16,2.18-3.84-2.49-17.86-5.03-35.72-7.63-53.57s-5.23-35.5-7.92-53.23c-1.54-10.14-3.1-20.27-4.67-30.4-.26-1.67-2.35-2.59-3.84-2.18-1.78.49-2.44,2.17-2.18,3.84h0Z"/>
          <path class="k" d="M63.04,10.06c2.52,17.81,5.08,35.62,7.68,53.42,2.6,17.79,5.25,35.58,7.94,53.36,1.53,10.09,3.07,20.17,4.62,30.26.26,1.67,2.35,2.59,3.84,2.18,1.78-.49,2.44-2.17,2.18-3.84-2.75-17.87-5.46-35.75-8.13-53.63-2.65-17.76-5.25-35.53-7.81-53.3-1.45-10.03-2.88-20.07-4.29-30.11-.24-1.67-2.36-2.58-3.84-2.18-1.8.49-2.42,2.16-2.18,3.84h0Z"/>
          <path class="k" d="M73.49,8.87c2.78,17.81,5.51,35.62,8.18,53.44s5.22,35.33,7.74,53.01c1.43,10.05,2.84,20.1,4.23,30.16.23,1.67,2.37,2.58,3.84,2.18,1.8-.49,2.41-2.16,2.18-3.84-2.45-17.73-4.97-35.44-7.54-53.15-2.58-17.71-5.21-35.4-7.91-53.09-1.54-10.12-3.11-20.25-4.69-30.36-.26-1.67-2.35-2.59-3.84-2.18-1.78.49-2.44,2.17-2.18,3.84h0Z"/>
          <path class="k" d="M82.57,6.84c2.81,17.86,5.56,35.73,8.24,53.61s5.27,35.65,7.8,53.49c1.44,10.12,2.85,20.24,4.24,30.36.23,1.67,2.37,2.58,3.84,2.18,1.8-.49,2.41-2.16,2.18-3.84-2.47-17.94-5-35.87-7.61-53.79s-5.25-35.64-7.98-53.44c-1.54-10.08-3.11-20.15-4.7-30.23-.26-1.67-2.34-2.59-3.84-2.18-1.78.49-2.44,2.17-2.18,3.84h0Z"/>
          <path class="k" d="M92.04,5.66c2.72,17.78,5.41,35.56,8.05,53.34,2.66,17.88,5.28,35.78,7.87,53.67,1.47,10.18,2.93,20.35,4.37,30.53.24,1.67,2.36,2.58,3.84,2.18,1.8-.49,2.42-2.16,2.18-3.84-2.55-17.96-5.13-35.91-7.76-53.85-2.61-17.85-5.26-35.69-7.95-53.53-1.52-10.06-3.04-20.11-4.58-30.16-.26-1.67-2.35-2.59-3.84-2.18-1.78.49-2.44,2.17-2.18,3.84h0Z"/>
          <path class="k" d="M101.9,3.99c2.47,17.85,5,35.69,7.6,53.52,2.61,17.96,5.29,35.91,8.03,53.84,1.54,10.1,3.1,20.19,4.69,30.29.26,1.67,2.35,2.59,3.84,2.18,1.78-.49,2.44-2.17,2.18-3.84-2.8-17.88-5.54-35.76-8.22-53.66-2.68-17.93-5.3-35.86-7.85-53.81-1.43-10.06-2.84-20.12-4.24-30.19-.23-1.67-2.37-2.58-3.84-2.18-1.8.49-2.41,2.16-2.18,3.84h0Z"/>
        </g>
      </g>
    </g>
  </g>
  <g>
    <rect class="g" x="13.68" y="15.49" width="61.61" height="133.74" transform="translate(-11.55 7.38) rotate(-8.39)"/>
    <g class="s">
      <g class="u">
        <g>
          <path class="k" d="M7.84,18.49c2.77,17.83,5.48,35.68,8.15,53.53s5.24,35.49,7.78,53.24c1.45,10.14,2.88,20.29,4.3,30.43.23,1.64,2.32,2.54,3.77,2.14,1.77-.49,2.37-2.12,2.14-3.77-2.49-17.86-5.04-35.72-7.64-53.56-2.59-17.75-5.23-35.5-7.92-53.23-1.54-10.14-3.09-20.27-4.67-30.41-.25-1.64-2.31-2.54-3.77-2.14-1.75.48-2.39,2.13-2.14,3.77h0Z"/>
          <path class="k" d="M17.32,16.8c2.52,17.81,5.08,35.62,7.69,53.42,2.6,17.79,5.25,35.58,7.93,53.36,1.52,10.09,3.06,20.17,4.61,30.26.25,1.64,2.31,2.54,3.77,2.14,1.75-.48,2.39-2.13,2.14-3.77-2.75-17.87-5.46-35.75-8.12-53.63s-5.25-35.53-7.81-53.3c-1.45-10.03-2.88-20.07-4.3-30.1-.23-1.64-2.32-2.54-3.77-2.14-1.76.48-2.37,2.12-2.14,3.77h0Z"/>
          <path class="k" d="M27.4,15.66c2.78,17.81,5.5,35.62,8.17,53.44,2.64,17.66,5.22,35.33,7.74,53.01,1.43,10.05,2.84,20.1,4.24,30.15.23,1.64,2.32,2.54,3.77,2.14,1.77-.49,2.37-2.12,2.14-3.77-2.46-17.73-4.97-35.44-7.55-53.15-2.58-17.71-5.21-35.4-7.91-53.09-1.54-10.12-3.1-20.25-4.68-30.37-.26-1.64-2.3-2.54-3.77-2.14-1.75.48-2.4,2.13-2.14,3.77h0Z"/>
          <path class="k" d="M36.16,13.68c2.81,17.86,5.55,35.73,8.23,53.61s5.27,35.65,7.8,53.49c1.44,10.12,2.85,20.24,4.25,30.36.23,1.64,2.32,2.54,3.77,2.14,1.77-.49,2.37-2.12,2.14-3.77-2.47-17.94-5.01-35.87-7.62-53.79-2.59-17.82-5.25-35.64-7.97-53.44-1.54-10.08-3.11-20.16-4.69-30.23-.26-1.64-2.3-2.54-3.77-2.14-1.74.48-2.4,2.13-2.14,3.77h0Z"/>
          <path class="k" d="M45.29,12.55c2.72,17.78,5.4,35.56,8.05,53.34,2.66,17.89,5.28,35.78,7.87,53.67,1.47,10.18,2.93,20.35,4.37,30.53.23,1.64,2.32,2.54,3.77,2.14,1.76-.48,2.37-2.12,2.14-3.77-2.55-17.96-5.14-35.91-7.77-53.85s-5.26-35.69-7.95-53.53c-1.51-10.06-3.04-20.11-4.58-30.16-.25-1.64-2.31-2.54-3.77-2.14-1.75.48-2.39,2.13-2.14,3.77h0Z"/>
          <path class="k" d="M54.81,10.93c2.48,17.85,5.01,35.69,7.61,53.52s5.29,35.91,8.03,53.85c1.54,10.1,3.1,20.2,4.68,30.29.26,1.64,2.3,2.54,3.77,2.14,1.75-.48,2.4-2.13,2.14-3.77-2.8-17.88-5.53-35.76-8.21-53.66-2.68-17.93-5.3-35.86-7.86-53.81-1.43-10.06-2.85-20.12-4.24-30.19-.23-1.64-2.32-2.54-3.77-2.14-1.77.49-2.37,2.12-2.14,3.77h0Z"/>
        </g>
      </g>
    </g>
  </g>
  <g>
    <path class="i" d="M93.25,62.59s2.51,15.3,2.45,28.52c-.06,13.23,1.19,33.6,8.07,32.59,6.88-1.02.29-28.68-1.26-34.08-1.55-5.4-4.31-25.8-4.03-27.31.26-1.39,5.23-.28,6.46-5.6.78-3.39-1.31-27.58-4.84-27.68-2.78-.08.69,21.68-2.26,22.12s-3.11-21.08-6.59-20.81c-3.48.27,1.99,21.98-1.03,21.94-3.02-.04-4.17-21.49-7.58-20.74s.56,24.22,1.19,26.82c.63,2.6,5.42,6.05,9.42,4.24Z"/>
    <g class="p">
      <g class="q">
        <path class="f" d="M79.83,30.05c.57,5.64,1.14,11.27,1.7,16.91.47,4.68.51,9.8,2.98,13.95.16.27.54.19.64-.08,3.59-10.1-3.74-20.63.15-30.65h-.67c5.18,13.54.65,29.01,7.41,42.12.17.34.62.14.65-.18.7-7.31.77-14.67.17-21.99-.55-6.72-2.41-14.02.56-20.43h-.6c1.24,2.93,1.48,6.09,1.58,9.24s.2,6.37.33,9.56c.26,6.28.59,12.56.99,18.84.82,12.71,1.95,25.4,3.39,38.06.72,6.3,1.18,12.85,4.04,18.62.17.33.63.14.65-.18.88-12.42-1.11-24.78-2.38-37.1-1.27-12.28-2.14-24.61-2.05-36.96.05-7.09.43-14.17,1.21-21.21l-.65.18c1.66,2.76,1.54,5.96,1.3,9.06-.26,3.38-.44,6.75-.36,10.14.06,2.78.04,5.76.75,8.47.53,2.03,1.63,3.79,3.67,4.51.43.15.61-.53.19-.67-2.58-.9-3.3-3.76-3.57-6.2-.34-3.14-.41-6.34-.35-9.5.05-2.95.39-5.87.5-8.81.09-2.57-.17-5.11-1.52-7.35-.19-.32-.62-.15-.65.18-1.38,12.45-1.48,25-.82,37.5.65,12.31,2.2,24.52,3.42,36.78.7,6.98,1.12,13.99.62,21l.65-.18c-2.73-5.5-3.2-11.76-3.89-17.77s-1.35-12.5-1.92-18.76c-1.14-12.69-1.98-25.4-2.51-38.13-.15-3.57-.23-7.15-.38-10.73-.12-3.06-.45-6.08-1.65-8.92-.1-.23-.5-.22-.6,0-2.91,6.28-1.34,13.22-.74,19.81.69,7.64.65,15.33-.09,22.97l.65-.18c-6.72-13.02-2.18-28.48-7.34-41.95-.13-.33-.55-.33-.67,0-3.9,10.06,3.44,20.57-.15,30.65l.64-.08c-2.56-4.3-2.5-9.76-2.99-14.6-.53-5.31-1.07-10.61-1.6-15.92-.04-.44-.74-.45-.7,0h0Z"/>
      </g>
    </g>
  </g>
  <g>
    <g>
      <g>
        <path class="i" d="M60.24,70.57s5.69,24.61,6.79,33.44c.94,7.59.93,26.12,7.75,24.75,6.17-1.24-1.64-22.19-2.92-25.93-1.96-5.71-6.46-33.08-6.46-33.08,0,0,13.65-6.32,7.88-23.68-4.46-13.42-16.55-15.9-23.48-5.39-6.93,10.51-1.81,28.36,10.44,29.9Z"/>
        <path class="l" d="M69.68,50.77c1.06,7.83-2.19,14.79-7.25,15.55-5.07.75-10.03-4.98-11.1-12.81-1.06-7.83,2.19-14.79,7.25-15.55,5.07-.75,10.03,4.98,11.1,12.81Z"/>
      </g>
      <path class="f" d="M62.42,66.31c8.62-4.41,7.85-16.57,3.52-23.75-1.62-2.42-4.24-4.26-7.36-4.61,3.58-.52,7.22,1.72,9.22,4.76,4.6,7.31,4.58,20.97-5.37,23.6h0Z"/>
    </g>
    <g class="t">
      <g class="o">
        <path class="f" d="M72.6,40.64c-1.29-2.23-2.79-4.32-5.41-5.01-.3-.08-.49.23-.38.49,3.31,7.54,6.34,15.19,9.09,22.95l.32-.42c-2.68-.07-3.46-3.69-4.33-5.67-1.13-2.58-2.35-5.12-3.65-7.62-2.63-5.04-5.61-9.9-8.88-14.55-.15-.21-.54-.22-.61.08-1.36,6.53,3.8,12.22,6.95,17.4,3.66,6.03,6.75,12.49,7.83,19.53l.56-.32c-7.97-9.97-11.78-22.62-20.24-32.25-.49-.56-.99-1.1-1.51-1.64-.29-.3-.75-.99-1.16-1.1-.8-.2-1.38.84-1.47,1.47-.14.97.31,1.91.67,2.79.5,1.23,1.08,2.43,1.72,3.59,2.8,5.13,6.57,9.64,10.03,14.33,3.81,5.16,7.38,10.73,8.26,17.21l.61-.26c-4.23-5.91-8.46-11.83-12.69-17.74-2.04-2.85-4.02-5.74-6.12-8.54-1.5-2.01-3.23-3.74-5.68-4.49-.22-.07-.4.11-.42.32-.13,1.49.47,2.76,1.23,4.01.88,1.45,1.83,2.85,2.79,4.25,1.96,2.88,3.99,5.71,5.95,8.59,3.85,5.67,7.46,11.6,9.33,18.24l.56-.32c-7.11-6.67-9.99-17.17-19.22-21.6-.25-.12-.58.08-.49.38,4.25,13.78,19.52,21.37,22.4,35.73l.56-.32c-2.44-3.1-4.88-6.19-7.32-9.29-.17-.22-.6-.04-.57.24.6,4.89,3.57,8.93,6.35,12.83s6.01,8.46,5.71,13.68l.62-.17c-3.01-4.31-5.97-8.65-8.88-13.02-.17-.26-.64-.18-.62.17.48,10.85,10.83,17.9,12.52,28.38l.56-.32c-2.94-2.59-5.52-5.52-7.66-8.81-.06-.09-.17-.18-.29-.16-3.63.34-.26,5.42.6,6.72,2.16,3.24,5.07,6.6,4.55,10.76-.05.42.61.42.67,0,.59-4.75-3.04-8.45-5.35-12.19-.57-.93-1.48-2.17-1.45-3.31.01-.52.06-.84.56-1,.56-.17.56.17.84.59.41.59.83,1.17,1.27,1.74,1.72,2.23,3.66,4.27,5.78,6.13.26.23.61,0,.56-.32-1.68-10.42-12.02-17.46-12.5-28.2l-.62.17c2.92,4.37,5.88,8.71,8.88,13.02.19.27.6.17.62-.17.61-10.45-10.83-16.55-12.05-26.51l-.57.24c2.44,3.1,4.88,6.19,7.32,9.29.22.28.61-.03.56-.32-2.89-14.4-18.15-21.96-22.4-35.73l-.49.38c9.16,4.4,12.03,14.87,19.09,21.5.24.22.65,0,.56-.32-1.77-6.28-5.07-11.95-8.68-17.34-1.86-2.78-3.8-5.5-5.7-8.25-.97-1.4-1.92-2.81-2.84-4.23-1-1.55-2.21-3.16-2.04-5.1l-.42.32c2.92.89,4.66,3.3,6.36,5.67,1.97,2.76,3.94,5.51,5.91,8.27,3.94,5.51,7.88,11.02,11.83,16.53.23.32.66.12.61-.26-1.46-10.66-9.73-18.59-15.52-27.1-1.48-2.17-2.85-4.43-3.96-6.81-.46-1-1.49-2.72-1.15-3.9s1.17-.14,1.62.32c.61.63,1.19,1.28,1.76,1.95,3.9,4.57,6.82,9.84,9.64,15.12,3.08,5.76,6.11,11.56,10.21,16.67.23.29.6-.04.56-.32-.99-6.48-3.69-12.51-6.97-18.14-1.65-2.83-3.52-5.5-5.2-8.31-1.84-3.07-3.36-6.47-2.6-10.12l-.61.08c3.62,5.15,6.88,10.55,9.72,16.18,1.42,2.83,2.69,5.72,3.94,8.63.72,1.7,1.75,3.31,3.78,3.36.2,0,.39-.22.32-.42-2.77-7.81-5.83-15.52-9.16-23.11l-.38.49c2.44.64,3.81,2.63,5.01,4.71.21.37.79.04.57-.34h0Z"/>
      </g>
    </g>
  </g>
  <path class="n" d="M15.63,38.87l18.08,16.14c.3.27.5.62.55,1.01l11.11,75.32c.16,1.06,1.28,1.72,2.4,1.43l.19-.05c.94-.25,1.55-1.1,1.42-1.99l-11.09-76.3c-.06-.39-.25-.75-.56-1.02l-19.39-17.13c-.74-.65-1.92-.64-2.67.03h0c-.8.71-.82,1.87-.04,2.56Z"/>
  <rect class="h" x="15.69" y="77.53" width="113.01" height="33.11" transform="translate(-12.96 11.55) rotate(-8.39)"/>
  <g>
    <path class="m" d="M33.37,106.13c-2.45,1.73-4.61,3.09-6.48,4.08l-.88-2c.84-.41,1.69-.89,2.55-1.44l-1.35-9.13-2.38.35-.31-2.09,2.38-.35-.84-5.69,2.22-.33.84,5.69,2.23-.33.31,2.09-2.23.33,1.2,8.11c.77-.47,1.52-.98,2.23-1.52l.51,2.23ZM47.7,103.91c.18,1.65.13,2.8-.14,3.43-.27.64-.86,1.08-1.76,1.33-.9.25-2.51.54-4.84.89-1.83.27-3.08.42-3.75.45-.67.03-1.23-.14-1.66-.51-.43-.36-.71-.97-.84-1.82l-1.17-7.9-1.62.93-.6-2.2,1.87-1.11-.82-5.56,2.16-.32.69,4.64,2.74-1.57-.94-6.38,2.16-.32.81,5.48,4.85-2.87c.54,4.24.72,7.91.53,11.01l-2.2-.33c.15-2.34.11-4.71-.12-7.09l-2.72,1.6,1.37,9.31-2.16.32-1.24-8.4-2.74,1.61,1.27,8.63c.07.48.29.71.65.71.36,0,1.5-.15,3.42-.43s3.23-.49,3.84-.62.9-.46.91-1.02-.06-1.36-.19-2.39l2.23.5Z"/>
    <path class="m" d="M72.22,105.23l-2.18.32-.19-1.3-15.54,2.29.18,1.24-2.13.31-3.14-21.28,19.86-2.93,3.15,21.34ZM69.56,102.31l-2.39-16.19-15.54,2.29,2.39,16.19,15.54-2.29ZM67.39,93.04l-13.95,2.06-.22-1.52,5.95-.88-.12-.84-4.96.73-.54-3.65,11.97-1.77.54,3.65-4.92.73.12.84,5.92-.87.22,1.52ZM67.95,101.72l-12.54,1.85-1.14-7.75,12.54-1.85,1.14,7.75ZM65.65,100.56l-.71-4.79-8.34,1.23.71,4.79,8.34-1.23ZM63.69,89.84l-.15-.99-7.67,1.13.15.99,7.67-1.13ZM64.22,99.98l-5.73.85-.48-3.25,5.73-.85.48,3.25ZM62.18,99.06l-.13-.87-2.01.3.13.87,2.01-.3Z"/>
    <path class="m" d="M81.47,92.95c-.66.53-1.28.99-1.88,1.39l1.09,7.39c.1.66-.08,1.2-.53,1.64-.45.44-1.55.79-3.31,1.06l-.87-2.13,2.19-.35c.26-.04.37-.21.32-.51l-.85-5.78c-.72.46-1.46.89-2.24,1.27l-.91-2.05c.94-.44,1.88-.97,2.8-1.59l-.71-4.81-2.65.39-.3-2.06,2.65-.39-.59-4,2.11-.31.59,4,1.72-.25.3,2.06-1.72.25.56,3.77c.53-.28,1.03-.64,1.5-1.05l.72,2.05ZM97.57,99.07l-1.13,1.86c-2.32-1.27-4.34-2.84-6.07-4.7l.91,6.15-2.13.31-.92-6.21c-1.55,2.59-3.28,4.74-5.18,6.45l-1.63-1.58c2.43-2.09,4.23-4.37,5.39-6.82l-4.5.66-.3-2,5.61-.83-.33-2.22,2.13-.31.33,2.22,6.41-.95.3,2-5.49.81c1.48,1.71,3.68,3.43,6.59,5.15ZM86.98,84.37c.55,3.42-.72,5.98-3.79,7.67l-1.58-1.55c2.74-1.28,3.86-3.22,3.35-5.82l2.01-.3ZM94.94,85.63l-2.16.32-.47-3.2-9.17,1.35.46,3.1-2.16.32-.76-5.14,13.48-1.99.77,5.24ZM95.48,88.97l-3.67.54c-.81.12-1.42.04-1.83-.24s-.67-.83-.79-1.66l-.51-3.48,1.96-.29.47,3.2c.06.4.3.57.73.51l3.36-.5.28,1.9Z"/>
    <path class="m" d="M108.22,95.93c-1.36,1.56-3.31,3.11-5.83,4.66l-1.48-1.58c2.45-1.5,4.25-2.87,5.42-4.09l1.9,1.01ZM120.35,85.61l-2.23.33-.39-2.63-16.02,2.36.38,2.61-2.24.33-.68-4.59,9.12-1.35-.22-1.49-8.49,1.25-.28-1.89,8.49-1.25-.21-1.45,2.23-.33.21,1.45,8.6-1.27.28,1.89-8.6,1.27.22,1.49,9.14-1.35.68,4.62ZM121.55,92.21l-1.51,1.41c-.75-.77-1.34-1.32-1.77-1.67l-6.05,1.45.52,3.53c.11.73-.04,1.31-.45,1.74-.41.44-1.61.81-3.63,1.11l-1.04-1.95c.55-.06,1.02-.11,1.39-.17.72-.11,1.16-.21,1.31-.32s.21-.28.18-.52l-.43-2.95c-2.45.5-5.12.98-8,1.43l-.51-1.7c2.74-1,5.35-2.36,7.85-4.08-2.15.46-4.17.83-6.08,1.11l-.49-1.45c1.9-.83,3.97-2.29,6.2-4.37l2.08.76c-1.02,1-2.22,1.91-3.6,2.74.87-.15,1.74-.32,2.63-.5,1.55-.33,2.41-.55,2.56-.68,1.09-.84,1.94-1.52,2.55-2.05l1.96,1.01c-3.41,2.67-6.7,4.89-9.88,6.66,2.63-.51,5.74-1.23,9.31-2.17-.61-.46-1.22-.91-1.86-1.32l1.54-1.34c1.77,1.18,3.51,2.6,5.24,4.28ZM122.38,95.94l-1.04,1.78c-2.05-.95-4.39-1.74-7.01-2.36l1.18-1.86c2.65.68,4.94,1.5,6.88,2.44Z"/>
  </g>
</svg>