<?xml version="1.0" encoding="utf-8"?>
<!-- Generator: Adobe Illustrator 28.2.0, SVG Export Plug-In . SVG Version: 6.00 Build 0)  -->
<svg version="1.1" id="_圖層_2" xmlns="http://www.w3.org/2000/svg" xmlns:xlink="http://www.w3.org/1999/xlink" x="0px" y="0px"
	 width="156.9px" height="185.2px" viewBox="0 0 156.9 185.2" style="enable-background:new 0 0 156.9 185.2;" xml:space="preserve"
	>
<style type="text/css">
	.st0{fill:#C2D2EC;}
	.st1{fill:#FFFFFF;}
	.st2{opacity:0.67;fill:#FFFFFF;}
	.st3{fill:#9ACFFF;}
	.st4{fill:#79B8FF;}
	.st5{fill:none;stroke:#FFFFFF;stroke-width:3;stroke-linecap:round;stroke-linejoin:round;}
	.st6{fill:#3BA2FF;}
</style>
<g transform="matrix( 1.32513427734375, 0, 0, 1.32513427734375, -67.8,-104) ">
	<g id="Layer0_12_MEMBER_0_FILL">
		<path class="st0" d="M75,112.5c-7.7,2.6-11.4,4.7-11.1,6.3c0.7,1.6,4.8,2.3,12.6,2c8.1-0.3,17.8-1.4,29-3.5
			c11.2-2,20.6-4.4,28.3-6.9c7.4-2.5,11.2-4.5,11.3-6.1c0-0.1,0-0.2,0-0.3c-0.3-1.6-4.5-2.3-12.7-2c-8.1,0.3-17.7,1.5-28.9,3.5
			C92.1,107.7,82.7,110,75,112.5z"/>
		<path class="st1" d="M76.5,120.8c-7.7,0.3-11.9-0.4-12.6-2c9.4,33.1,19.5,65.9,30.1,98.4c19.7,2.4,38.8-1.1,57.3-10.4
			c-1.4-34.1-3.6-68.3-6.3-102.5c-0.1,1.6-3.8,3.6-11.3,6.1c-7.6,2.6-17.1,4.9-28.3,6.9C94.2,119.4,84.6,120.5,76.5,120.8z"/>
		<path class="st2" d="M77.8,113.2c-7.1,2.2-10.5,3.8-10.3,5c0.5,1.2,4.3,1.5,11.4,1.1c7.4-0.5,16.2-1.6,26.5-3.5
			c10.3-1.9,18.9-3.9,26-6c6.8-2,10.3-3.7,10.4-4.8c0-0.1,0-0.1,0-0.2c-0.2-1.2-4-1.5-11.5-1c-7.3,0.5-16.1,1.7-26.4,3.5
			C93.5,109.1,84.9,111.1,77.8,113.2z"/>
	</g>
</g>
<g transform="matrix( 1.32513427734375, 0, 0, 1.32513427734375, -67.8,-104) ">
	<g>
		<g id="Layer0_12_MEMBER_0_MEMBER_0_FILL">
			<path class="st3" d="M109,135.5c-7.3,1.3-13.8,2.3-19.5,3c-2.1,0.2-4.1,0.4-5.9,0.5c-6.5,0.6-10.1,0.5-10.8-0.3l23.4,74.5
				c18.1,0.9,35.5-2.2,52.1-9.3l-4.3-78c-0.6,0.9-3.9,2.2-9.9,3.9C127.2,131.8,118.8,133.7,109,135.5z"/>
			<path class="st4" d="M72.6,138.5c0,0.1,0.1,0.2,0.1,0.2c0.7,0.8,4.3,0.9,10.8,0.3c1.9-0.2,3.8-0.3,5.9-0.5
				c5.7-0.7,12.3-1.7,19.5-3c9.9-1.8,18.3-3.7,25.1-5.6c6-1.7,9.3-3,9.9-3.9c0.1-0.1,0.1-0.3,0.1-0.4c-0.2-0.9-3.8-1.1-10.8-0.5
				c-7.1,0.6-15.6,1.8-25.5,3.6c-9.9,1.8-18.2,3.7-25.1,5.6C75.8,136.1,72.4,137.6,72.6,138.5z"/>
		</g>
	</g>
</g>
<g transform="matrix( 1.32513427734375, 0, 0, 1.32513427734375, -67.8,-104) ">
	<g>
		<g id="Layer0_12_MEMBER_3_FILL">
			<path class="st1" d="M131.4,141.6c-0.5-0.3-1-0.4-1.5-0.3c-0.6,0.1-1,0.4-1.4,0.8c-0.3,0.5-0.4,1-0.3,1.6c0.1,0.6,0.4,1,0.8,1.3
				c0.5,0.3,1,0.5,1.6,0.4c0.6-0.1,1-0.4,1.3-0.9c0.4-0.5,0.5-1,0.4-1.5C132.2,142.4,131.9,141.9,131.4,141.6 M104.2,197.9
				c-0.6,0.1-1,0.4-1.4,0.8c-0.3,0.5-0.4,1-0.3,1.6c0.1,0.6,0.4,1,0.8,1.3c0.5,0.3,1,0.5,1.6,0.4c0.6-0.1,1-0.4,1.3-0.9
				c0.4-0.5,0.5-1,0.4-1.5c-0.1-0.6-0.4-1-0.9-1.4C105.3,197.9,104.8,197.8,104.2,197.9 M134.9,180.3c0.4-0.5,0.5-1,0.4-1.5
				s-0.4-1-0.9-1.4c-0.5-0.3-1-0.4-1.5-0.3c-0.6,0.1-1,0.4-1.4,0.8c-0.3,0.5-0.4,1-0.3,1.6c0.1,0.6,0.4,1,0.8,1.3
				c0.5,0.3,1,0.5,1.6,0.4C134.1,181.1,134.6,180.8,134.9,180.3z"/>
			<path class="st1" d="M116.3,207.7c0.3-0.1,0.5-0.2,0.7-0.5c0.2-0.3,0.3-0.6,0.2-0.9c-0.1-0.3-0.2-0.5-0.5-0.7
				c-0.3-0.2-0.5-0.2-0.8-0.2c-0.3,0.1-0.6,0.2-0.8,0.5c-0.2,0.3-0.2,0.6-0.2,0.9c0.1,0.3,0.2,0.6,0.5,0.8
				C115.7,207.7,116,207.7,116.3,207.7 M138.8,162.6c-0.2,0.3-0.2,0.6-0.2,0.9c0.1,0.3,0.2,0.6,0.5,0.8c0.3,0.2,0.6,0.2,0.9,0.2
				c0.3-0.1,0.5-0.2,0.7-0.5c0.2-0.3,0.3-0.6,0.2-0.9c-0.1-0.3-0.2-0.5-0.5-0.7c-0.3-0.2-0.5-0.2-0.8-0.2
				C139.2,162.2,138.9,162.3,138.8,162.6 M92.4,169.4c0.3-0.1,0.5-0.2,0.7-0.5c0.2-0.3,0.3-0.6,0.2-0.9c-0.1-0.3-0.2-0.5-0.5-0.7
				c-0.3-0.2-0.5-0.2-0.8-0.2c-0.3,0.1-0.6,0.2-0.8,0.5c-0.2,0.3-0.2,0.6-0.2,0.9c0.1,0.3,0.2,0.6,0.5,0.8
				C91.8,169.4,92.1,169.4,92.4,169.4 M141.8,192.7c-0.2,0.3-0.2,0.6-0.2,0.9c0.1,0.3,0.2,0.6,0.5,0.8c0.3,0.2,0.6,0.2,0.9,0.2
				c0.3-0.1,0.5-0.2,0.7-0.5c0.2-0.3,0.3-0.6,0.2-0.9c-0.1-0.3-0.2-0.5-0.5-0.7c-0.3-0.2-0.5-0.2-0.8-0.2
				C142.2,192.3,142,192.5,141.8,192.7 M89.6,147.9c0.3-0.4,0.4-0.8,0.3-1.3c-0.1-0.5-0.3-0.9-0.8-1.2c-0.4-0.3-0.8-0.4-1.3-0.3
				c-0.5,0.1-0.9,0.3-1.2,0.7c-0.3,0.4-0.3,0.9-0.3,1.3c0.1,0.5,0.3,0.8,0.7,1.1c0.4,0.3,0.9,0.4,1.4,0.3
				C88.9,148.5,89.3,148.3,89.6,147.9z"/>
			<path class="st1" d="M129.8,199c0.3-0.3,0.3-0.7,0.3-1c-0.1-0.3-0.3-0.6-0.6-0.9c-0.3-0.2-0.6-0.3-1-0.2
				c-0.4,0.1-0.7,0.3-0.9,0.6c-0.2,0.3-0.3,0.7-0.2,1c0.1,0.4,0.3,0.7,0.6,0.9c0.3,0.2,0.6,0.3,1,0.2
				C129.3,199.5,129.5,199.3,129.8,199 M111.8,143.4c0.3-0.3,0.3-0.7,0.3-1c-0.1-0.3-0.3-0.6-0.6-0.9c-0.3-0.2-0.6-0.3-1-0.2
				c-0.4,0.1-0.7,0.3-0.9,0.6c-0.2,0.3-0.3,0.7-0.2,1c0.1,0.4,0.3,0.7,0.6,0.9c0.3,0.2,0.6,0.3,1,0.2
				C111.3,143.9,111.6,143.7,111.8,143.4z"/>
		</g>
	</g>
</g>
<g>
	<path class="st3" d="M68.3,63.9c-1.4-1.2-3.8-1.1-5.1,0.2c-1.6,1.5-1.4,4.4,0.3,5.8c1.7,1.4,4.5,0.9,5.8-0.9
		C70.4,67.1,69.5,64.9,68.3,63.9z"/>
	<path class="st1" d="M65.5,64.7C65.5,64.7,65.5,64.6,65.5,64.7c0-0.1,0-0.1,0-0.1c0,0,0,0,0,0c0,0,0,0,0,0c0,0-0.1-0.1-0.1-0.1
		c0,0,0,0,0,0c0,0,0,0,0,0c0,0-0.1-0.1-0.1-0.1c0,0-0.2-0.1-0.2-0.1c0,0,0,0,0,0c0,0,0,0,0,0c-0.1,0-0.2,0-0.3,0
		c-0.1,0-0.2,0-0.3,0.1c-0.1,0-0.2,0.1-0.2,0.2c-0.1,0.1-0.1,0.2-0.1,0.2c0,0.1,0,0.1,0,0.2c0,0.1,0,0.3,0.1,0.4
		c0,0.1,0.1,0.1,0.1,0.2c0.1,0.1,0.2,0.2,0.3,0.2c0,0,0,0,0,0c0,0,0,0,0,0c0,0,0,0,0,0c0.1,0,0.1,0.1,0.2,0.1c0.1,0,0.1,0,0.2,0
		c0.1,0,0.2,0,0.2-0.1l0.1-0.1c0,0,0.1-0.1,0.1-0.1c0,0,0,0,0,0c0-0.1,0.1-0.1,0.1-0.2c0,0,0,0,0,0c0,0,0,0,0,0c0,0,0,0,0,0
		c0,0,0-0.1,0-0.2c0,0,0,0,0,0c0,0,0,0,0,0c0,0,0,0,0,0c0,0,0-0.2,0-0.2c0,0,0,0,0,0C65.6,64.8,65.6,64.8,65.5,64.7
		C65.6,64.7,65.5,64.7,65.5,64.7z"/>
	<path class="st1" d="M68.3,65.4c0-0.1-0.1-0.1-0.1-0.2c0,0-0.1-0.1-0.1-0.1c-0.1-0.1-0.2-0.1-0.3-0.2c-0.2-0.1-0.4-0.2-0.6-0.2
		c-0.1,0-0.2,0-0.4,0c-0.1,0-0.2,0.1-0.3,0.1c-0.1,0.1-0.2,0.2-0.3,0.3c0,0.1-0.1,0.1-0.1,0.2l0,0.2c0,0.1,0,0.1,0,0.2
		c0,0.1,0.1,0.2,0.1,0.3c0,0.1,0.1,0.1,0.1,0.1c0,0,0.1,0.1,0.2,0.1c0,0,0.1,0,0.1,0.1c0.1,0.1,0.2,0.1,0.2,0.2
		c0.1,0.1,0.2,0.1,0.4,0.2c0,0,0.1,0,0.1,0c0,0,0.1,0,0.1,0c0,0,0.1,0,0.1,0c0.1,0,0.2,0,0.2,0c0.1,0,0.1,0,0.1-0.1
		c0.1,0,0.1-0.1,0.2-0.2c0,0,0,0,0,0c0,0-0.1,0.1-0.1,0.1c0-0.1,0.1-0.1,0.1-0.2c0,0,0,0,0,0c0,0,0,0,0,0c0,0,0.1-0.1,0.1-0.2
		c0-0.1,0-0.2,0-0.3c0-0.1,0-0.2,0-0.3C68.4,65.6,68.4,65.5,68.3,65.4z"/>
	<path class="st4" d="M62.7,66.5c-0.2,0.8,0.1,1.7,0.5,2.4c0.1,0.2,0.3,0.4,0.5,0.6c0.5,0.5,1.3,0.6,2,0.6c0.5,0,1-0.1,1.4-0.3
		c0.4-0.2,0.8-0.6,0.9-1c0.1-0.5,0-1-0.4-1.3c-0.4-0.3-1-0.2-1.5-0.1c-0.5,0.1-1,0.3-1.5,0.2c-0.5-0.1-0.9-0.4-1.1-0.9
		c-0.1-0.2-0.1-0.4-0.3-0.5c-0.1-0.1-0.3-0.1-0.4,0C62.8,66.3,62.7,66.5,62.7,66.5z"/>
</g>
<g>
	<path class="st3" d="M97.4,25c0.3-3,0.7-6,1-8.9c0.1-0.7,0.2-1.5,0.6-2.1c1.1-1.8,4.1-1.6,5.3,0.2c1.2,1.7,0.9,4.2-0.3,6
		c-1.2,1.8-3,3-4.7,4.2C98.7,24.6,98.2,24.9,97.4,25z"/>
	<path class="st4" d="M98.4,23c0.6-0.8,0.7-1.8,0.7-2.7c0-0.9-0.2-1.9-0.2-2.8c0-0.7,0.1-1.3,0.4-2c0.2-0.5,0.5-1.1,0.9-1.4
		c0.9-0.7,2.4-0.5,3,0.5c0.2,0.3,0.3,0.8,0.1,1.1c-0.2,0.4-0.8,0.5-1.2,0.8c-0.7,0.5-0.8,1.4-1,2.2C100.7,20.4,100,22.2,98.4,23z"/>
	<g>
		<path class="st1" d="M103.2,19C103.2,19,103.3,19,103.2,19C103.3,19,103.2,19,103.2,19C103.2,19,103.2,19,103.2,19z"/>
		<path class="st1" d="M103.3,19.1C103.3,19,103.2,19,103.3,19.1c-0.1-0.1-0.1-0.2-0.2-0.2c-0.1-0.1-0.3-0.1-0.4,0
			c-0.2,0.1-0.3,0.2-0.4,0.4c-0.1,0.1-0.2,0.3-0.3,0.4c-0.2,0.4-0.4,0.9-0.4,1.4c0,0.1,0,0.1,0,0.2c0,0.2,0.1,0.3,0.3,0.4
			c0.5,0.2,1-0.4,1.2-0.8c0.1-0.3,0.3-0.6,0.3-0.9C103.5,19.5,103.4,19.3,103.3,19.1C103.3,19.1,103.3,19.1,103.3,19.1z"/>
	</g>
	<path class="st1" d="M101.2,22.2C101.2,22.2,101.2,22.2,101.2,22.2C101.2,22.2,101.2,22.2,101.2,22.2
		C101.2,22.2,101.2,22.2,101.2,22.2C101.2,22.2,101.2,22.2,101.2,22.2C101.2,22.2,101.2,22.2,101.2,22.2
		C101.2,22.2,101.2,22.2,101.2,22.2c0,0.1,0,0.1,0,0.2c0,0,0,0,0,0c0,0,0,0,0,0c0,0,0,0.1,0,0.1c0,0,0,0,0,0c0,0,0,0,0,0
		c0,0,0,0,0,0c0,0,0,0,0,0l0,0c0,0,0,0.1,0,0.1c0,0,0,0,0,0c0,0,0,0,0,0c0,0,0,0,0,0c0,0,0,0.1-0.1,0.1c0,0,0,0,0,0c0,0,0,0,0,0
		c0,0,0,0,0,0c0,0,0,0,0,0c0,0-0.1,0.1-0.1,0.1c0,0,0,0,0,0c0,0,0,0,0,0c0,0-0.1,0-0.1,0.1c0,0,0,0,0,0c0,0,0,0,0,0c0,0-0.1,0-0.1,0
		c0,0,0,0,0,0c0,0,0,0,0,0c0,0,0,0,0,0c0,0,0,0,0,0c0,0-0.1,0-0.1,0c0,0-0.1,0-0.1,0c0,0,0,0,0,0c0,0,0,0,0,0c0,0,0,0,0,0
		c0,0,0,0,0,0c0,0-0.1,0-0.1-0.1c-0.1-0.1-0.1-0.1-0.1-0.2c0-0.1,0-0.1,0-0.2c0-0.1,0-0.1,0-0.2c0-0.1,0.1-0.1,0.1-0.2c0,0,0,0,0,0
		c0,0,0,0,0,0c0,0,0-0.1,0.1-0.1c0,0,0,0,0,0c0,0,0,0,0,0c0,0,0.1-0.1,0.1-0.1c0,0,0,0,0,0c0,0,0,0,0,0c0,0,0,0,0,0c0,0,0.1,0,0.1,0
		c0,0,0,0,0,0c0,0,0,0,0,0c0,0,0,0,0,0c0,0,0,0,0,0c0,0,0.1,0,0.1,0c0.1,0,0.1,0,0.2,0c0,0,0.1,0,0.1,0c0,0,0.1,0,0.1,0.1
		c0,0,0,0,0,0c0,0,0,0,0,0l0,0c0,0,0,0,0,0c0,0,0,0,0,0c0,0,0,0,0,0c0,0,0,0,0,0C101.1,22,101.1,22.1,101.2,22.2
		C101.2,22.1,101.2,22.2,101.2,22.2z"/>
</g>
<g>
	<path class="st3" d="M76.6,34.8c-0.2-1.5-0.5-3-1.1-4.3c-0.6-1.3-1.8-2.6-3.2-2.9c-2.2-0.6-4.7,1-5.6,3.1c-0.9,2.1-0.6,4.6,0.1,6.8
		c0.8,2.6,2.1,5,3.8,7c1,1.2,2.2,2.3,3.7,2.6c1.8,0.4,3.5-0.5,5-1.5c2.9-2.1,5.1-5.1,6.2-8.4c0.4-1.2,0.7-2.5,0.5-3.8
		c-0.2-1.3-0.9-2.5-2-3.1c-1.4-0.8-3.2-0.4-4.5,0.6C78.2,31.6,77.3,33,76.6,34.8z"/>
	<path class="st1" d="M73.2,29.4C73.2,29.3,73.1,29.3,73.2,29.4c-0.1-0.2-0.2-0.3-0.2-0.3c0,0-0.1-0.1-0.1-0.1
		c-0.1-0.1-0.2-0.2-0.3-0.2c-0.1-0.1-0.2-0.1-0.3-0.2c-0.1-0.1-0.3-0.1-0.5-0.1c-0.1,0-0.3,0-0.4,0.1c-0.1,0-0.2,0.1-0.3,0.2
		c-0.1,0.1-0.2,0.3-0.3,0.4c0,0.1-0.1,0.3-0.1,0.4c0,0.1,0,0.2,0,0.2c0,0.1,0,0.3,0.1,0.4c0,0.1,0.1,0.2,0.1,0.2
		c0.1,0.1,0.2,0.2,0.3,0.3c0,0,0.1,0,0.1,0.1c0.1,0,0.2,0.1,0.3,0.1c0,0,0,0,0.1,0c0,0,0.2,0,0.3,0c0,0,0,0,0,0c0,0,0.2,0,0.3,0
		c0,0,0,0,0.1,0c0.1,0,0.2,0,0.3,0c0.1,0,0.2,0,0.3-0.1c0.1-0.1,0.2-0.2,0.3-0.3c0.1-0.2,0.1-0.2,0.1-0.5c0,0,0,0,0-0.1
		c0-0.1,0-0.2,0-0.4c0,0,0,0,0,0C73.2,29.5,73.2,29.4,73.2,29.4z"/>
	<g>
		<path class="st1" d="M74.5,35.8C74.5,35.8,74.5,35.8,74.5,35.8c-0.1,0-0.1-0.1-0.2-0.1C74.4,35.7,74.4,35.7,74.5,35.8z"/>
		<path class="st1" d="M75.3,33c-0.2-0.3-0.4-0.6-0.6-0.8c-0.4-0.3-0.8-0.5-1.2-0.6c-0.2,0-0.6,0.1-0.7,0.3
			c-0.2,0.2-0.3,0.4-0.3,0.7c0,0.1,0,0.2,0,0.3c0,0.3,0.1,0.4,0.2,0.7c0.1,0.2,0.3,0.4,0.5,0.6c0.1,0.2,0.2,0.4,0.3,0.6
			c0.3,0.5,0.7,0.9,1.2,1.1c0,0,0.1,0,0.1,0.1c0.3,0.1,0.6,0,0.8-0.1c0.2-0.2,0.3-0.4,0.4-0.7c0-0.1,0-0.1,0-0.2c0-0.1,0-0.3,0-0.4
			c0-0.1,0-0.3-0.1-0.4C75.6,33.7,75.5,33.3,75.3,33z"/>
	</g>
	<path class="st4" d="M69.6,40.3c0.4,1.1,1,2.2,1.7,3.1c0.9,1.1,2.1,2.1,3.6,2.2c1.3,0.1,2.5-0.5,3.5-1.3c1.8-1.3,3.3-3,4.2-5
		c0.5-1.1,0.9-2.3,0.6-3.4c-0.1-0.2-0.1-0.4-0.3-0.5c-0.4-0.4-1.1-0.1-1.6,0.2c-2,1.3-3.7,3.2-6,3.9c-0.3,0.1-0.7,0.2-1,0.1
		c-0.5-0.1-0.8-0.5-1.2-0.7c-0.6-0.4-1.3-0.6-2-0.5c-0.4,0-0.9,0.2-1.2,0.5C69.4,39.4,69.5,40.1,69.6,40.3z"/>
</g>
<path class="st3" d="M93.1,2c-1.5,0.3-0.9,2.6,0.5,2.3C95.1,4,94.6,1.7,93.1,2z"/>
<path class="st3" d="M79.3-2.4C79.3-2.4,79.3-2.4,79.3-2.4C79.3-2.4,79.3-2.4,79.3-2.4z"/>
<g>
	<g>
		<path class="st1" d="M69.2,115.6l2.4-1.4l0.5,1.2c-2.1,1.4-4.5,2.9-5.9,3.8c0,0.2,0,0.3-0.2,0.4L65,118c0.8-0.4,1.8-1,2.9-1.7
			l-1.2-7.4l-2.7,0.4l-0.2-1.4l2.7-0.4l-0.9-5.3l1.9-0.2c0,0.2-0.1,0.3-0.4,0.4l0.8,4.9l2.5-0.4l0.2,1.4l-2.5,0.4L69.2,115.6
			L69.2,115.6z M75.6,118.2c0.2,1.2,0.5,1.5,2.1,1.2l5.7-0.9c1.3-0.2,1.5-0.9,1.2-3.6c0.4,0.2,1,0.4,1.5,0.4
			c0.3,3.1-0.1,4.2-2.4,4.6l-5.8,0.9c-2.5,0.4-3.3,0-3.7-2.4l-1.2-7.5l-2.1,1.3l-0.8-1.2l2.6-1.7l-1-6.1l1.9-0.2
			c0,0.2-0.1,0.3-0.4,0.4l0.8,5l3-1.9l-1-6.2l1.9-0.2c0,0.2-0.1,0.3-0.4,0.4l0.8,5.2l3.3-2.1l0.3-0.3l1.3,0.3c0,0.1-0.1,0.2-0.2,0.3
			c0.7,4.2,1.2,7.8,1.2,8.7c0,1.4-0.7,1.7-3.1,2.1c-0.1-0.4-0.3-1-0.6-1.3c0.6,0,1.3-0.2,1.6-0.2c0.4-0.1,0.6-0.2,0.6-0.8
			c0-0.6-0.4-3.4-1-7.1l-3.2,2l1.4,8.6l-1.4,0.2l-1.3-7.9l-3,1.9L75.6,118.2L75.6,118.2z"/>
		<path class="st1" d="M86,99.6l18.8-3.1l3.2,19.8l-1.5,0.2l-0.1-0.9l-16,2.6l0.1,0.9l-1.4,0.2L86,99.6L86,99.6z M90.3,116.9l16-2.6
			l-2.6-16.2l-16,2.6C87.6,100.7,90.3,116.9,90.3,116.9z M97.1,105.1l6.3-1l0.2,1l-13.7,2.2l-0.2-1l6.1-1l-0.2-1.1l-3.8,0.6
			l-0.6-3.5l9-1.5l0.6,3.5l-3.9,0.6L97.1,105.1L97.1,105.1z M92.8,115.2l-1.2-7.2l10.5-1.7l1.2,7.2
			C103.3,113.5,92.8,115.2,92.8,115.2z M92.7,102l0.3,1.6l6.4-1l-0.3-1.6L92.7,102z M93,108.8l0.8,5.2l7.9-1.3l-0.8-5.2
			C101,107.5,93,108.8,93,108.8z M95.3,112.7l-0.5-3.1l4.8-0.8l0.5,3.1L95.3,112.7z M95.9,110.3l0.2,1.4l2.8-0.5l-0.2-1.4
			L95.9,110.3z"/>
		<path class="st1" d="M75.4,137.5l-2.5,1.3l1.1,6.7c0.3,1.7-0.4,2-3.3,2.4c-0.1-0.4-0.4-0.9-0.7-1.3c0.6-0.1,1.2-0.1,1.6-0.2
			c0.9-0.2,1-0.2,1-0.6l-1-6.3l-2.2,1.1c0,0.2-0.1,0.3-0.3,0.4l-0.8-1.6c0.8-0.4,1.9-0.8,3-1.4l-0.8-5.1l-2.9,0.5l-0.2-1.4l2.9-0.5
			l-0.8-4.7l1.9-0.2c0,0.2-0.1,0.3-0.4,0.4l0.7,4.2l2.7-0.4l0.2,1.4l-2.7,0.4l0.8,4.7l2.3-1.1L75.4,137.5L75.4,137.5z M75.9,128.2
			l0.4,2.7l-1.3,0.2l-0.6-4l12.5-2l0.7,4.1l-1.4,0.2l-0.5-2.8L75.9,128.2L75.9,128.2z M80,128.4c0,0.2-0.1,0.3-0.4,0.4
			c0.2,3.2-0.3,5.5-3.7,7.3c-0.2-0.3-0.7-0.8-1-1c3.1-1.5,3.5-3.5,3.2-6.6C78.2,128.6,80,128.4,80,128.4z M89.1,137l-5.1,0.8
			c1.7,2,4.3,3.7,6.6,4.5c-0.3,0.3-0.7,0.9-0.9,1.3c-2.2-0.9-4.8-2.8-6.6-4.9l1.1,7l-1.5,0.2l-1.1-6.9c-1,2.7-2.9,5.3-4.9,6.8
			c-0.3-0.3-0.8-0.8-1.2-1c2.1-1.4,4-3.9,5-6.5l-4.7,0.8l-0.2-1.4l5.7-0.9l-0.4-2.5l1.9-0.2c0,0.2-0.1,0.3-0.4,0.4l0.3,2.1l6.2-1
			L89.1,137L89.1,137z M81.8,127.9l1.8-0.2c0,0.2-0.1,0.3-0.4,0.4l0.7,4c0.1,0.5,0.2,0.5,0.8,0.4l2-0.3c0.5-0.1,0.6-0.3,0.4-1.9
			c0.3,0.2,0.9,0.3,1.3,0.3c0.2,2.1-0.1,2.6-1.3,2.8l-2.3,0.4c-1.6,0.3-2-0.1-2.2-1.5L81.8,127.9L81.8,127.9z"/>
		<path class="st1" d="M104.9,132.4c2.2,0.8,5,2.2,6.5,3.2l-0.9,1.1c-0.4-0.3-0.9-0.6-1.6-1c-2.2,0.4-4.4,0.9-6.6,1.3l0.9,5.7
			l-1.5,0.2l-0.9-5.6c-3.1,0.6-6,1.1-8.1,1.5c0,0.2-0.1,0.3-0.3,0.4l-0.9-1.6c1.3-0.2,3-0.5,4.9-0.8c0.5-0.4,1-0.9,1.6-1.4
			c-1.3-0.7-3.2-1.5-4.8-2l0.9-1c0.4,0.1,0.9,0.3,1.3,0.4c0.9-1,2-2.2,2.7-3.3l-6.1,1l0.5,3l-1.4,0.2l-0.7-4.3l8.8-1.4l-0.4-2.5
			l-8.8,1.4l-0.2-1.3l8.8-1.4l-0.3-2.1l2-0.2c0,0.2-0.1,0.3-0.4,0.4l0.3,1.7l8.8-1.4l0.2,1.3l-8.8,1.4l0.4,2.5l9-1.5l0.7,4.3
			l-1.5,0.2l-0.5-3l-9,1.5l0.8,0.3c-0.1,0.1-0.2,0.2-0.5,0.2c-0.8,1-2,2.4-3.1,3.5c0.9,0.3,1.7,0.7,2.4,1.1c1.7-1.6,3.3-3.3,4.4-4.7
			l1.8,0.7c-0.1,0.1-0.3,0.2-0.5,0.2c-1.6,1.7-3.9,4-6,5.8l8.3-1.5c-1.1-0.5-2.2-1.1-3.2-1.4L104.9,132.4L104.9,132.4z M98.9,139
			c0,0.1-0.2,0.2-0.5,0.2c-1.2,1.6-3.3,3.4-5.1,4.7c-0.3-0.2-0.9-0.6-1.3-0.8c1.8-1.1,3.8-2.9,5-4.5L98.9,139L98.9,139z M106,137.2
			c2.1,0.6,4.9,1.8,6.3,2.7c-0.6,0.6-0.8,0.9-1.1,1.1c-1.3-0.9-4.1-2.1-6.2-2.8L106,137.2L106,137.2z"/>
	</g>
	<g>
		<path class="st5" d="M69.2,115.6l2.4-1.4l0.5,1.2c-2.1,1.4-4.5,2.9-5.9,3.8c0,0.2,0,0.3-0.2,0.4L65,118c0.8-0.4,1.8-1,2.9-1.7
			l-1.2-7.4l-2.7,0.4l-0.2-1.4l2.7-0.4l-0.9-5.3l1.9-0.2c0,0.2-0.1,0.3-0.4,0.4l0.8,4.9l2.5-0.4l0.2,1.4l-2.5,0.4L69.2,115.6
			L69.2,115.6z M75.6,118.2c0.2,1.2,0.5,1.5,2.1,1.2l5.7-0.9c1.3-0.2,1.5-0.9,1.2-3.6c0.4,0.2,1,0.4,1.5,0.4
			c0.3,3.1-0.1,4.2-2.4,4.6l-5.8,0.9c-2.5,0.4-3.3,0-3.7-2.4l-1.2-7.5l-2.1,1.3l-0.8-1.2l2.6-1.7l-1-6.1l1.9-0.2
			c0,0.2-0.1,0.3-0.4,0.4l0.8,5l3-1.9l-1-6.2l1.9-0.2c0,0.2-0.1,0.3-0.4,0.4l0.8,5.2l3.3-2.1l0.3-0.3l1.3,0.3c0,0.1-0.1,0.2-0.2,0.3
			c0.7,4.2,1.2,7.8,1.2,8.7c0,1.4-0.7,1.7-3.1,2.1c-0.1-0.4-0.3-1-0.6-1.3c0.6,0,1.3-0.2,1.6-0.2c0.4-0.1,0.6-0.2,0.6-0.8
			c0-0.6-0.4-3.4-1-7.1l-3.2,2l1.4,8.6l-1.4,0.2l-1.3-7.9l-3,1.9L75.6,118.2L75.6,118.2z"/>
		<path class="st5" d="M86,99.6l18.8-3.1l3.2,19.8l-1.5,0.2l-0.1-0.9l-16,2.6l0.1,0.9l-1.4,0.2L86,99.6L86,99.6z M90.3,116.9l16-2.6
			l-2.6-16.2l-16,2.6C87.6,100.7,90.3,116.9,90.3,116.9z M97.1,105.1l6.3-1l0.2,1l-13.7,2.2l-0.2-1l6.1-1l-0.2-1.1l-3.8,0.6
			l-0.6-3.5l9-1.5l0.6,3.5l-3.9,0.6L97.1,105.1L97.1,105.1z M92.8,115.2l-1.2-7.2l10.5-1.7l1.2,7.2
			C103.3,113.5,92.8,115.2,92.8,115.2z M92.7,102l0.3,1.6l6.4-1l-0.3-1.6L92.7,102z M93,108.8l0.8,5.2l7.9-1.3l-0.8-5.2
			C101,107.5,93,108.8,93,108.8z M95.3,112.7l-0.5-3.1l4.8-0.8l0.5,3.1L95.3,112.7z M95.9,110.3l0.2,1.4l2.8-0.5l-0.2-1.4
			L95.9,110.3z"/>
		<path class="st5" d="M75.4,137.5l-2.5,1.3l1.1,6.7c0.3,1.7-0.4,2-3.3,2.4c-0.1-0.4-0.4-0.9-0.7-1.3c0.6-0.1,1.2-0.1,1.6-0.2
			c0.9-0.2,1-0.2,1-0.6l-1-6.3l-2.2,1.1c0,0.2-0.1,0.3-0.3,0.4l-0.8-1.6c0.8-0.4,1.9-0.8,3-1.4l-0.8-5.1l-2.9,0.5l-0.2-1.4l2.9-0.5
			l-0.8-4.7l1.9-0.2c0,0.2-0.1,0.3-0.4,0.4l0.7,4.2l2.7-0.4l0.2,1.4l-2.7,0.4l0.8,4.7l2.3-1.1L75.4,137.5L75.4,137.5z M75.9,128.2
			l0.4,2.7l-1.3,0.2l-0.6-4l12.5-2l0.7,4.1l-1.4,0.2l-0.5-2.8L75.9,128.2L75.9,128.2z M80,128.4c0,0.2-0.1,0.3-0.4,0.4
			c0.2,3.2-0.3,5.5-3.7,7.3c-0.2-0.3-0.7-0.8-1-1c3.1-1.5,3.5-3.5,3.2-6.6C78.2,128.6,80,128.4,80,128.4z M89.1,137l-5.1,0.8
			c1.7,2,4.3,3.7,6.6,4.5c-0.3,0.3-0.7,0.9-0.9,1.3c-2.2-0.9-4.8-2.8-6.6-4.9l1.1,7l-1.5,0.2l-1.1-6.9c-1,2.7-2.9,5.3-4.9,6.8
			c-0.3-0.3-0.8-0.8-1.2-1c2.1-1.4,4-3.9,5-6.5l-4.7,0.8l-0.2-1.4l5.7-0.9l-0.4-2.5l1.9-0.2c0,0.2-0.1,0.3-0.4,0.4l0.3,2.1l6.2-1
			L89.1,137L89.1,137z M81.8,127.9l1.8-0.2c0,0.2-0.1,0.3-0.4,0.4l0.7,4c0.1,0.5,0.2,0.5,0.8,0.4l2-0.3c0.5-0.1,0.6-0.3,0.4-1.9
			c0.3,0.2,0.9,0.3,1.3,0.3c0.2,2.1-0.1,2.6-1.3,2.8l-2.3,0.4c-1.6,0.3-2-0.1-2.2-1.5L81.8,127.9L81.8,127.9z"/>
		<path class="st5" d="M104.9,132.4c2.2,0.8,5,2.2,6.5,3.2l-0.9,1.1c-0.4-0.3-0.9-0.6-1.6-1c-2.2,0.4-4.4,0.9-6.6,1.3l0.9,5.7
			l-1.5,0.2l-0.9-5.6c-3.1,0.6-6,1.1-8.1,1.5c0,0.2-0.1,0.3-0.3,0.4l-0.9-1.6c1.3-0.2,3-0.5,4.9-0.8c0.5-0.4,1-0.9,1.6-1.4
			c-1.3-0.7-3.2-1.5-4.8-2l0.9-1c0.4,0.1,0.9,0.3,1.3,0.4c0.9-1,2-2.2,2.7-3.3l-6.1,1l0.5,3l-1.4,0.2l-0.7-4.3l8.8-1.4l-0.4-2.5
			l-8.8,1.4l-0.2-1.3l8.8-1.4l-0.3-2.1l2-0.2c0,0.2-0.1,0.3-0.4,0.4l0.3,1.7l8.8-1.4l0.2,1.3l-8.8,1.4l0.4,2.5l9-1.5l0.7,4.3
			l-1.5,0.2l-0.5-3l-9,1.5l0.8,0.3c-0.1,0.1-0.2,0.2-0.5,0.2c-0.8,1-2,2.4-3.1,3.5c0.9,0.3,1.7,0.7,2.4,1.1c1.7-1.6,3.3-3.3,4.4-4.7
			l1.8,0.7c-0.1,0.1-0.3,0.2-0.5,0.2c-1.6,1.7-3.9,4-6,5.8l8.3-1.5c-1.1-0.5-2.2-1.1-3.2-1.4L104.9,132.4L104.9,132.4z M98.9,139
			c0,0.1-0.2,0.2-0.5,0.2c-1.2,1.6-3.3,3.4-5.1,4.7c-0.3-0.2-0.9-0.6-1.3-0.8c1.8-1.1,3.8-2.9,5-4.5L98.9,139L98.9,139z M106,137.2
			c2.1,0.6,4.9,1.8,6.3,2.7c-0.6,0.6-0.8,0.9-1.1,1.1c-1.3-0.9-4.1-2.1-6.2-2.8L106,137.2L106,137.2z"/>
	</g>
	<g>
		<path class="st6" d="M69.2,115.6l2.4-1.4l0.5,1.2c-2.1,1.4-4.5,2.9-5.9,3.8c0,0.2,0,0.3-0.2,0.4L65,118c0.8-0.4,1.8-1,2.9-1.7
			l-1.2-7.4l-2.7,0.4l-0.2-1.4l2.7-0.4l-0.9-5.3l1.9-0.2c0,0.2-0.1,0.3-0.4,0.4l0.8,4.9l2.5-0.4l0.2,1.4l-2.5,0.4L69.2,115.6
			L69.2,115.6z M75.6,118.2c0.2,1.2,0.5,1.5,2.1,1.2l5.7-0.9c1.3-0.2,1.5-0.9,1.2-3.6c0.4,0.2,1,0.4,1.5,0.4
			c0.3,3.1-0.1,4.2-2.4,4.6l-5.8,0.9c-2.5,0.4-3.3,0-3.7-2.4l-1.2-7.5l-2.1,1.3l-0.8-1.2l2.6-1.7l-1-6.1l1.9-0.2
			c0,0.2-0.1,0.3-0.4,0.4l0.8,5l3-1.9l-1-6.2l1.9-0.2c0,0.2-0.1,0.3-0.4,0.4l0.8,5.2l3.3-2.1l0.3-0.3l1.3,0.3c0,0.1-0.1,0.2-0.2,0.3
			c0.7,4.2,1.2,7.8,1.2,8.7c0,1.4-0.7,1.7-3.1,2.1c-0.1-0.4-0.3-1-0.6-1.3c0.6,0,1.3-0.2,1.6-0.2c0.4-0.1,0.6-0.2,0.6-0.8
			c0-0.6-0.4-3.4-1-7.1l-3.2,2l1.4,8.6l-1.4,0.2l-1.3-7.9l-3,1.9L75.6,118.2L75.6,118.2z"/>
		<path class="st6" d="M86,99.6l18.8-3.1l3.2,19.8l-1.5,0.2l-0.1-0.9l-16,2.6l0.1,0.9l-1.4,0.2L86,99.6L86,99.6z M90.3,116.9l16-2.6
			l-2.6-16.2l-16,2.6C87.6,100.7,90.3,116.9,90.3,116.9z M97.1,105.1l6.3-1l0.2,1l-13.7,2.2l-0.2-1l6.1-1l-0.2-1.1l-3.8,0.6
			l-0.6-3.5l9-1.5l0.6,3.5l-3.9,0.6L97.1,105.1L97.1,105.1z M92.8,115.2l-1.2-7.2l10.5-1.7l1.2,7.2
			C103.3,113.5,92.8,115.2,92.8,115.2z M92.7,102l0.3,1.6l6.4-1l-0.3-1.6L92.7,102z M93,108.8l0.8,5.2l7.9-1.3l-0.8-5.2
			C101,107.5,93,108.8,93,108.8z M95.3,112.7l-0.5-3.1l4.8-0.8l0.5,3.1L95.3,112.7z M95.9,110.3l0.2,1.4l2.8-0.5l-0.2-1.4
			L95.9,110.3z"/>
		<path class="st6" d="M75.4,137.5l-2.5,1.3l1.1,6.7c0.3,1.7-0.4,2-3.3,2.4c-0.1-0.4-0.4-0.9-0.7-1.3c0.6-0.1,1.2-0.1,1.6-0.2
			c0.9-0.2,1-0.2,1-0.6l-1-6.3l-2.2,1.1c0,0.2-0.1,0.3-0.3,0.4l-0.8-1.6c0.8-0.4,1.9-0.8,3-1.4l-0.8-5.1l-2.9,0.5l-0.2-1.4l2.9-0.5
			l-0.8-4.7l1.9-0.2c0,0.2-0.1,0.3-0.4,0.4l0.7,4.2l2.7-0.4l0.2,1.4l-2.7,0.4l0.8,4.7l2.3-1.1L75.4,137.5L75.4,137.5z M75.9,128.2
			l0.4,2.7l-1.3,0.2l-0.6-4l12.5-2l0.7,4.1l-1.4,0.2l-0.5-2.8L75.9,128.2L75.9,128.2z M80,128.4c0,0.2-0.1,0.3-0.4,0.4
			c0.2,3.2-0.3,5.5-3.7,7.3c-0.2-0.3-0.7-0.8-1-1c3.1-1.5,3.5-3.5,3.2-6.6C78.2,128.6,80,128.4,80,128.4z M89.1,137l-5.1,0.8
			c1.7,2,4.3,3.7,6.6,4.5c-0.3,0.3-0.7,0.9-0.9,1.3c-2.2-0.9-4.8-2.8-6.6-4.9l1.1,7l-1.5,0.2l-1.1-6.9c-1,2.7-2.9,5.3-4.9,6.8
			c-0.3-0.3-0.8-0.8-1.2-1c2.1-1.4,4-3.9,5-6.5l-4.7,0.8l-0.2-1.4l5.7-0.9l-0.4-2.5l1.9-0.2c0,0.2-0.1,0.3-0.4,0.4l0.3,2.1l6.2-1
			L89.1,137L89.1,137z M81.8,127.9l1.8-0.2c0,0.2-0.1,0.3-0.4,0.4l0.7,4c0.1,0.5,0.2,0.5,0.8,0.4l2-0.3c0.5-0.1,0.6-0.3,0.4-1.9
			c0.3,0.2,0.9,0.3,1.3,0.3c0.2,2.1-0.1,2.6-1.3,2.8l-2.3,0.4c-1.6,0.3-2-0.1-2.2-1.5L81.8,127.9L81.8,127.9z"/>
		<path class="st6" d="M104.9,132.4c2.2,0.8,5,2.2,6.5,3.2l-0.9,1.1c-0.4-0.3-0.9-0.6-1.6-1c-2.2,0.4-4.4,0.9-6.6,1.3l0.9,5.7
			l-1.5,0.2l-0.9-5.6c-3.1,0.6-6,1.1-8.1,1.5c0,0.2-0.1,0.3-0.3,0.4l-0.9-1.6c1.3-0.2,3-0.5,4.9-0.8c0.5-0.4,1-0.9,1.6-1.4
			c-1.3-0.7-3.2-1.5-4.8-2l0.9-1c0.4,0.1,0.9,0.3,1.3,0.4c0.9-1,2-2.2,2.7-3.3l-6.1,1l0.5,3l-1.4,0.2l-0.7-4.3l8.8-1.4l-0.4-2.5
			l-8.8,1.4l-0.2-1.3l8.8-1.4l-0.3-2.1l2-0.2c0,0.2-0.1,0.3-0.4,0.4l0.3,1.7l8.8-1.4l0.2,1.3l-8.8,1.4l0.4,2.5l9-1.5l0.7,4.3
			l-1.5,0.2l-0.5-3l-9,1.5l0.8,0.3c-0.1,0.1-0.2,0.2-0.5,0.2c-0.8,1-2,2.4-3.1,3.5c0.9,0.3,1.7,0.7,2.4,1.1c1.7-1.6,3.3-3.3,4.4-4.7
			l1.8,0.7c-0.1,0.1-0.3,0.2-0.5,0.2c-1.6,1.7-3.9,4-6,5.8l8.3-1.5c-1.1-0.5-2.2-1.1-3.2-1.4L104.9,132.4L104.9,132.4z M98.9,139
			c0,0.1-0.2,0.2-0.5,0.2c-1.2,1.6-3.3,3.4-5.1,4.7c-0.3-0.2-0.9-0.6-1.3-0.8c1.8-1.1,3.8-2.9,5-4.5L98.9,139L98.9,139z M106,137.2
			c2.1,0.6,4.9,1.8,6.3,2.7c-0.6,0.6-0.8,0.9-1.1,1.1c-1.3-0.9-4.1-2.1-6.2-2.8L106,137.2L106,137.2z"/>
	</g>
</g>
</svg>
