<?xml version="1.0" encoding="UTF-8"?>
<svg id="_圖層_2" data-name="圖層 2" xmlns="http://www.w3.org/2000/svg" width="20" height="20" viewBox="0 0 20 20">
  <g id="_第一cut" data-name="第一cut">
    <path id="menu8_img" d="M5.17,16.55c.57,0,1.03-.46,1.03-1.03s-.46-1.03-1.03-1.03c-.77,0-1.43.52-1.62,1.26l-.03.1c-1.59-.14-2.84-1.47-2.84-3.09v-.47c-.26-.09-.49-.23-.69-.41v.88c0,2.09,1.7,3.79,3.79,3.79h1.38ZM11.03,4.83v2.07h2.07v-.69h-1.38v-.69h1.38v-2.07h-2.07v.69h1.38v.69h-1.38ZM13.79,3.45v2.07h1.38v1.38h.69v-1.38h.69v-.69h-.69v-.69h-.69v.69h-.69v-1.38h-.69ZM13.79,8.28h-.69v-.69h-.69v2.07h.69v-.69h.69v.69h.69v-2.07h-.69v.69ZM15.17,8.97h.69v.69h-.69v-.69ZM3.79,17.24c-.31,0-.61-.03-.9-.09-.61.65-1,1.48-1.09,2.39l-.05.46h1v-1.24c0-.22-.09-.43-.24-.59l.49-.49c.29.29.45.67.45,1.08v1.24h.77l.6-2.39-.15-.37h-.87ZM1.38,11.72h.13c-.08-.33-.13-.68-.13-1.03v-1.72c-.76,0-1.38.62-1.38,1.38s.62,1.38,1.38,1.38ZM5.44,17.93l-.52,2.07h1.53l-.52-2.07h-.5ZM7.37,16.31l-.8,1.33.59,2.36h.42v-1.24c0-.41.16-.79.45-1.08l.49.49c-.16.16-.24.37-.24.59v1.24h1.34l-.05-.46c-.14-1.39-.98-2.59-2.2-3.23h0ZM1.39,8.28c.17-1.93,1.8-3.45,3.78-3.45h1.38c1.98,0,3.6,1.52,3.78,3.45h.02c.24,0,.47.04.69.12v-.12c0-2.28-1.86-4.14-4.14-4.14h-2.07c-2.28,0-4.14,1.86-4.14,4.14v.12c.22-.08.45-.12.69-.12h.02ZM9.46,7.55c-.12-.33-.3-.64-.52-.91.02.08.03.17.03.26,0,.11-.01.23-.04.33l.54.32ZM7.14,5.58c-.19-.04-.39-.06-.59-.06h-1.38c-1.14,0-2.13.62-2.67,1.53.23-.1.47-.15.74-.15.17,0,.34.02.51.07l1.87.41c.65.14,1.31.21,1.97.21.38,0,.69-.31.69-.69s-.31-.69-.69-.69h-.05c-.26,0-.5.15-.62.38l-.06.12-.62-.31.06-.12c.17-.35.48-.6.84-.7ZM18.94,4.23c-.03-.09-.07-.17-.11-.25-.2-.45-.15-.98.11-1.4l-1.52-1.52c-.42.26-.94.31-1.4.11-.08-.04-.17-.07-.25-.11-.46-.18-.8-.58-.91-1.06h-2.15c-.11.48-.45.89-.91,1.06-.08.03-.17.07-.25.1-.45.2-.98.15-1.4-.11l-1.52,1.52c.24.38.3.84.16,1.26.32.14.63.31.91.51.7-1.55,2.27-2.63,4.08-2.63,2.48,0,4.48,2.01,4.48,4.48s-2.01,4.48-4.48,4.48c-.49,0-.95-.08-1.39-.22-.02.37-.14.72-.33,1.02.33.21.56.54.65.93h2.15c.11-.48.45-.89.91-1.06.08-.03.17-.07.25-.11.45-.2.98-.15,1.4.11l1.52-1.52c-.26-.42-.31-.94-.11-1.4.04-.08.07-.17.11-.25.18-.46.58-.8,1.06-.91v-2.15c-.48-.11-.89-.45-1.06-.91h0ZM10.34,8.97v1.72c0,.36-.05.7-.13,1.03h.13c.76,0,1.38-.62,1.38-1.38s-.62-1.38-1.38-1.38ZM15.46,16.55l-.57,3.45h1.94l-.57-3.45h-.8ZM12.41,18.62h2.01l.36-2.18c.06-.33.34-.58.68-.58h.8c.34,0,.62.24.68.58l.36,2.18h2.01v-4.14h-6.9v4.14ZM9.32,8.27l-.72-.43c-.25.27-.61.44-1.01.44-.71,0-1.42-.08-2.12-.23l-1.89-.41c-.13-.04-.23-.05-.34-.05-.64,0-1.17.52-1.17,1.17v1.94c0,1.46.83,2.73,2.04,3.36.32-.16.68-.26,1.06-.26.53,0,1.01.25,1.32.63,1.79-.3,3.16-1.86,3.16-3.74v-1.83c0-.24-.13-.47-.33-.59h0ZM3.79,9.66c-.19,0-.34.15-.34.34v.34h-.69v-.34c0-.57.46-1.03,1.03-1.03s1.03.46,1.03,1.03v.34h-.69v-.34c0-.19-.15-.34-.34-.34ZM7.15,12.44c-.15.59-.68,1-1.29,1s-1.14-.41-1.29-1l-.09-.38h2.76l-.09.38ZM8.97,10.34h-.69v-.34c0-.19-.15-.34-.34-.34s-.34.15-.34.34v.34h-.69v-.34c0-.57.46-1.03,1.03-1.03s1.03.46,1.03,1.03v.34Z" style="fill: #fff; stroke-width: 0px;"/>
  </g>
</svg>