<?xml version="1.0" encoding="UTF-8"?>
<svg id="_圖層_2" data-name="圖層 2" xmlns="http://www.w3.org/2000/svg" width="139.27mm" height="46.66mm" viewBox="0 0 394.79 132.26">
  <g id="_圖層_1-2" data-name="圖層 1">
    <g id="Quick_menu">
      <g>
        <path d="m358.32,70.65l25.36-53.69-38.52,11.06c-35.65,10.23-73.64,8.77-108.39-4.19l-11.42-4.26c-23.15-8.63-47.75-12.15-72.13-10.52,3.35,2.79,3.6,8.91-1.71,9.67-13.8,1.97-25.83,8.79-38.58,13.96-13.49,5.47-27.92,8.26-42.4,9.38-13.62,1.06-27.28.59-40.91,1.03-1.59,8.96-1.24,18.33-1.06,27.32.28,13.71,1.49,30.1-2.2,44.35,23.7,5.99,48.43,6.92,72.56,2.68,5.27-.93,10.52-2.1,15.71-3.53l2.48-.68c36.01-9.86,74.25-7.84,109.02,5.78l3.35,1.31c35.27,13.81,74.1,15.69,110.54,5.36l54.78-15.54-36.47-39.5Z" style="fill: #c36023; stroke-width: 0px;"/>
        <path d="m371.8,84.47l-48.95,18.51c-32.56,12.31-68.26,13.63-101.64,3.74l-3.17-.94c-32.9-9.75-68.08-8.62-100.29,3.23l-2.22.82c-32.66,12.02-68.36,13.01-101.65,2.82l-13.9-4.25V19.49l11.86,3.74c33.98,10.75,65.67,8.33,99.04-4.17h0c31.6-11.84,66.15-13.34,98.66-4.29l10.79,3c32.84,9.14,67.74,7.52,99.58-4.64L354.35,0l-19.03,51.15,36.48,33.32Z" style="fill: #f5b12d; stroke-width: 0px;"/>
        <g>
          <line x1="21.25" y1="28.83" x2="21.25" y2="30.83" style="fill: none; stroke: #163273; stroke-linecap: round; stroke-linejoin: round; stroke-width: 3px;"/>
          <line x1="21.27" y1="40.41" x2="21.4" y2="102.7" style="fill: none; stroke: #163273; stroke-dasharray: 0 0 3.83 9.58; stroke-linecap: round; stroke-linejoin: round; stroke-width: 3px;"/>
          <line x1="21.41" y1="107.49" x2="21.42" y2="109.49" style="fill: none; stroke: #163273; stroke-linecap: round; stroke-linejoin: round; stroke-width: 3px;"/>
        </g>
      </g>
      <g>
        <polygon points="302.17 77.02 297.17 73.37 291.33 75.42 293.25 69.53 289.5 64.61 295.69 64.62 299.21 59.53 301.11 65.42 307.05 67.2 302.03 70.83 302.17 77.02" style="fill: #fff; stroke-width: 0px;"/>
        <polygon points="57.75 61.26 52.8 64.98 46.93 63.02 48.94 68.88 45.25 73.85 51.45 73.75 55.04 78.79 56.86 72.87 62.76 71.01 57.69 67.46 57.75 61.26" style="fill: #fff; stroke-width: 0px;"/>
      </g>
    </g>
  </g>
</svg>