<?xml version="1.0" encoding="UTF-8"?>
<svg id="_圖層_2" data-name="圖層 2" xmlns="http://www.w3.org/2000/svg" width="141.46" height="147.04" viewBox="0 0 141.46 147.04">
  <g id="_圖層_4" data-name="圖層 4">
    <g id="SituationalExploration_Title">
      <g>
        <path d="M11.39,18.1l3.76-.06c1.34,12.25,1.48,22.85.44,31.8l-5.46-1.88,1.25-29.86ZM18.1,12.45l9.41.13v7.46c1.67.29,2.99.84,3.95,1.63l-2.57,11.35-1.32-.82.06,36.38-9.85.31.31-56.45ZM31.21,13.96l11.1-.12-.06-1.82h13.36v1.69l10.98-.12-.19,7.15-10.91.12-.06,1.69,8.72-.12-.13,4.52-8.66.13v1.63l12.8-.19-.31,6.4-37.51.44-.06-6.27,12.48-.19v-1.63l-9.91.13-.12-4.39,9.85-.19v-1.76l-11.16.19-.19-7.28ZM31.84,37.29l34.56-.38.06,30.8-11.92,1.44-3.76-8.09,2.82-.44-.06-1.94-9.47.19-.06,9.66-12.04.19-.13-31.42ZM53.48,53.54l-.06-2.57-9.28.12v2.7l9.35-.25v-.06.06ZM53.29,43.62l-9.09.38v2.01l9.16-.19-.06-2.2Z" style="fill: none; stroke: #5b3e27; stroke-linecap: round; stroke-linejoin: round; stroke-width: 11px;"/>
        <path d="M75.24,21.61l2.95-.06.06-8.97h10.54l-.06,8.84,3.2-.06-.31,13.8-3.01.13-.12,10.6c1-.29,1.99-.63,2.95-1l.69,4.39c-3.97,7.82-9.09,13.03-15.37,15.62l-2.38-15.93c1.21-.12,2.43-.29,3.64-.5l.06-12.8-2.51.12-.31-14.17ZM94.25,53.91l-.25-20.57,36.69-.25-.44,20.57-5.39.06-.12,5.02,7.34-.69-.56,10.48-18.44.12-.75-14.87h-2.88c-1.13,9.53-8.18,14.43-21.14,14.68l-1.76-2.88c6.73-3.55,10.18-7.44,10.35-11.67h-2.63ZM94.06,21.92l-.19-7.71,12.29-.06-.19-2.45,13.23.12-.31,2.26,11.92-.06-.12,7.59-4.52.06-1.57,2.76,7.21-.06-.19,6.4-38.07.88-.31-6.84,5.21-.06-.38-2.88-4.01.06ZM118.39,39.11l-12.17.19v1.94l12.23-.25-.06-1.88ZM106.23,47.7l12.36-.25-.06-1.94-12.29.19v2.01ZM114.94,21.73l-7.4.06,1.88,2.82,5.14-.06.38-2.82v-.06.06Z" style="fill: none; stroke: #5b3e27; stroke-linecap: round; stroke-linejoin: round; stroke-width: 11px;"/>
        <path d="M15.47,80.01l10.6.38-.06,8.09,2.32-.06-.06,11.92-2.26.12-.06,4.58c.79-.21,1.59-.42,2.38-.63l1.13,2.63c-1.17,1.55-2.34,2.99-3.51,4.33l-.13,23.46-9.72,2.51-3.26-11.29,2.95-.63-.06-5.83c-1.21.63-2.45,1.11-3.7,1.44l-1.38-13.17c1.63-.17,3.3-.4,5.02-.69l-.06-6.02-4.14.25-.5-12.54,4.58-.12-.06-8.72ZM29.58,119.59l-.06-10.22,12.98-.06-.06-3.26h3.95l-.19-15.81-6.46.06-.13,2.07,4.89.44c-.38,8.15-4.54,13.28-12.48,15.37l-1.51-2.51c2.05-2.59,3.34-6.29,3.89-11.1l-4.45.12.06-13.42,37.63-.69.44,13.8-10.04.31v-4.58h-2.57l.13,7.4,11.73-1.57-.88,10.79-12.23.38v2.2l13.42-.06v9.47l-8.28.25c1.8,2.42,5.02,3.93,9.66,4.52l-4.2,11.23c-4.52-1.17-8.01-3.91-10.47-8.22l.13,10.16-11.67.44-.13-8.84c-3.68,3.26-8.05,5.02-13.11,5.27l-1.38-2.51c2.8-3.09,5.6-6.96,8.4-11.6l-7.02.19v-.06.06Z" style="fill: none; stroke: #5b3e27; stroke-linecap: round; stroke-linejoin: round; stroke-width: 11px;"/>
        <path d="M76.31,91.87l20.64-.31v-2.2l-18.32.25-.31-7.71,18.57-.13v-2.51l13.99.25-.06,2.2,18-.12-.31,7.4-17.94.25-.06,2.13,20.95-.31.31,15.87-11.6.31v-.63c-5.1,3.64-10.45,6.67-16.06,9.09,4.39-.17,8.61-.42,12.67-.75l-1.32-3.39,3.39-1.38c6.06,3.01,10.62,6.17,13.67,9.47l-12.54,3.32-2.07-5.27c-2.01.67-4.22,1.3-6.65,1.88l-.56,16.75-13.61.25-.56-14.36c-5.6.75-11.85,1.36-18.75,1.82l-2.57-8.66c5.02.25,9.87.4,14.55.44h.13l-9.6-5.71,1.25-1.82c1.55-.13,3.49-.06,5.83.19,2.42-3.43,4.16-6.36,5.21-8.78h-5.02v7.02l-11.54.19.31-15.05ZM84.9,123.73l10.98,3.2c-3.97,4.93-10.25,7.99-18.82,9.16l-1.88-1.63c4.26-4.01,7.5-7.59,9.72-10.73ZM108.11,101.28l12.04,5.14v-6.9l-14.8.06c-2.97,3.43-6.98,6.69-12.04,9.79,1.42.25,2.93.54,4.52.88,3.72-2.84,7.15-5.83,10.29-8.97ZM122.47,123.61c2.22,3.14,5.46,6.73,9.72,10.79l-1.88,1.63c-8.57-1.17-14.59-4.22-18.06-9.16l10.22-3.26v-.06.06Z" style="fill: none; stroke: #5b3e27; stroke-linecap: round; stroke-linejoin: round; stroke-width: 11px;"/>
      </g>
      <g>
        <path d="M7.39,13.1l3.76-.06c1.34,12.25,1.48,22.85.44,31.8l-5.46-1.88,1.25-29.86ZM14.1,7.45l9.41.13v7.46c1.67.29,2.99.84,3.95,1.63l-2.57,11.35-1.32-.82.06,36.38-9.85.31.31-56.45ZM27.21,8.96l11.1-.12-.06-1.82h13.36v1.69l10.98-.12-.19,7.15-10.91.12-.06,1.69,8.72-.12-.13,4.52-8.66.13v1.63l12.8-.19-.31,6.4-37.51.44-.06-6.27,12.48-.19v-1.63l-9.91.13-.12-4.39,9.85-.19v-1.76l-11.16.19-.19-7.28ZM27.84,32.29l34.56-.38.06,30.8-11.92,1.44-3.76-8.09,2.82-.44-.06-1.94-9.47.19-.06,9.66-12.04.19-.13-31.42ZM49.48,48.54l-.06-2.57-9.28.12v2.7l9.35-.25v-.06.06ZM49.29,38.62l-9.09.38v2.01l9.16-.19-.06-2.2Z" style="fill: none; stroke: #fff; stroke-linecap: round; stroke-linejoin: round; stroke-width: 7px;"/>
        <path d="M71.24,16.61l2.95-.06.06-8.97h10.54l-.06,8.84,3.2-.06-.31,13.8-3.01.13-.12,10.6c1-.29,1.99-.63,2.95-1l.69,4.39c-3.97,7.82-9.09,13.03-15.37,15.62l-2.38-15.93c1.21-.12,2.43-.29,3.64-.5l.06-12.8-2.51.12-.31-14.17ZM90.25,48.91l-.25-20.57,36.69-.25-.44,20.57-5.39.06-.12,5.02,7.34-.69-.56,10.48-18.44.12-.75-14.87h-2.88c-1.13,9.53-8.18,14.43-21.14,14.68l-1.76-2.88c6.73-3.55,10.18-7.44,10.35-11.67h-2.63ZM90.06,16.92l-.19-7.71,12.29-.06-.19-2.45,13.23.12-.31,2.26,11.92-.06-.12,7.59-4.52.06-1.57,2.76,7.21-.06-.19,6.4-38.07.88-.31-6.84,5.21-.06-.38-2.88-4.01.06ZM114.39,34.11l-12.17.19v1.94l12.23-.25-.06-1.88ZM102.23,42.7l12.36-.25-.06-1.94-12.29.19v2.01ZM110.94,16.73l-7.4.06,1.88,2.82,5.14-.06.38-2.82v-.06.06Z" style="fill: none; stroke: #fff; stroke-linecap: round; stroke-linejoin: round; stroke-width: 7px;"/>
        <path d="M11.47,75.01l10.6.38-.06,8.09,2.32-.06-.06,11.92-2.26.12-.06,4.58c.79-.21,1.59-.42,2.38-.63l1.13,2.63c-1.17,1.55-2.34,2.99-3.51,4.33l-.13,23.46-9.72,2.51-3.26-11.29,2.95-.63-.06-5.83c-1.21.63-2.45,1.11-3.7,1.44l-1.38-13.17c1.63-.17,3.3-.4,5.02-.69l-.06-6.02-4.14.25-.5-12.54,4.58-.12-.06-8.72ZM25.58,114.59l-.06-10.22,12.98-.06-.06-3.26h3.95l-.19-15.81-6.46.06-.13,2.07,4.89.44c-.38,8.15-4.54,13.28-12.48,15.37l-1.51-2.51c2.05-2.59,3.34-6.29,3.89-11.1l-4.45.12.06-13.42,37.63-.69.44,13.8-10.04.31v-4.58h-2.57l.13,7.4,11.73-1.57-.88,10.79-12.23.38v2.2l13.42-.06v9.47l-8.28.25c1.8,2.42,5.02,3.93,9.66,4.52l-4.2,11.23c-4.52-1.17-8.01-3.91-10.47-8.22l.13,10.16-11.67.44-.13-8.84c-3.68,3.26-8.05,5.02-13.11,5.27l-1.38-2.51c2.8-3.09,5.6-6.96,8.4-11.6l-7.02.19v-.06.06Z" style="fill: none; stroke: #fff; stroke-linecap: round; stroke-linejoin: round; stroke-width: 7px;"/>
        <path d="M72.31,86.87l20.64-.31v-2.2l-18.32.25-.31-7.71,18.57-.13v-2.51l13.99.25-.06,2.2,18-.12-.31,7.4-17.94.25-.06,2.13,20.95-.31.31,15.87-11.6.31v-.63c-5.1,3.64-10.45,6.67-16.06,9.09,4.39-.17,8.61-.42,12.67-.75l-1.32-3.39,3.39-1.38c6.06,3.01,10.62,6.17,13.67,9.47l-12.54,3.32-2.07-5.27c-2.01.67-4.22,1.3-6.65,1.88l-.56,16.75-13.61.25-.56-14.36c-5.6.75-11.85,1.36-18.75,1.82l-2.57-8.66c5.02.25,9.87.4,14.55.44h.13l-9.6-5.71,1.25-1.82c1.55-.13,3.49-.06,5.83.19,2.42-3.43,4.16-6.36,5.21-8.78h-5.02v7.02l-11.54.19.31-15.05ZM80.9,118.73l10.98,3.2c-3.97,4.93-10.25,7.99-18.82,9.16l-1.88-1.63c4.26-4.01,7.5-7.59,9.72-10.73ZM104.11,96.28l12.04,5.14v-6.9l-14.8.06c-2.97,3.43-6.98,6.69-12.04,9.79,1.42.25,2.93.54,4.52.88,3.72-2.84,7.15-5.83,10.29-8.97ZM118.47,118.61c2.22,3.14,5.46,6.73,9.72,10.79l-1.88,1.63c-8.57-1.17-14.59-4.22-18.06-9.16l10.22-3.26v-.06.06Z" style="fill: none; stroke: #fff; stroke-linecap: round; stroke-linejoin: round; stroke-width: 7px;"/>
      </g>
      <g>
        <path d="M7.39,13.1l3.76-.06c1.34,12.25,1.48,22.85.44,31.8l-5.46-1.88,1.25-29.86ZM14.1,7.45l9.41.13v7.46c1.67.29,2.99.84,3.95,1.63l-2.57,11.35-1.32-.82.06,36.38-9.85.31.31-56.45ZM27.21,8.96l11.1-.12-.06-1.82h13.36v1.69l10.98-.12-.19,7.15-10.91.12-.06,1.69,8.72-.12-.13,4.52-8.66.13v1.63l12.8-.19-.31,6.4-37.51.44-.06-6.27,12.48-.19v-1.63l-9.91.13-.12-4.39,9.85-.19v-1.76l-11.16.19-.19-7.28ZM27.84,32.29l34.56-.38.06,30.8-11.92,1.44-3.76-8.09,2.82-.44-.06-1.94-9.47.19-.06,9.66-12.04.19-.13-31.42ZM49.48,48.54l-.06-2.57-9.28.12v2.7l9.35-.25v-.06.06ZM49.29,38.62l-9.09.38v2.01l9.16-.19-.06-2.2Z" style="fill: #db5800; stroke-width: 0px;"/>
        <path d="M71.24,16.61l2.95-.06.06-8.97h10.54l-.06,8.84,3.2-.06-.31,13.8-3.01.13-.12,10.6c1-.29,1.99-.63,2.95-1l.69,4.39c-3.97,7.82-9.09,13.03-15.37,15.62l-2.38-15.93c1.21-.12,2.43-.29,3.64-.5l.06-12.8-2.51.12-.31-14.17ZM90.25,48.91l-.25-20.57,36.69-.25-.44,20.57-5.39.06-.12,5.02,7.34-.69-.56,10.48-18.44.12-.75-14.87h-2.88c-1.13,9.53-8.18,14.43-21.14,14.68l-1.76-2.88c6.73-3.55,10.18-7.44,10.35-11.67h-2.63ZM90.06,16.92l-.19-7.71,12.29-.06-.19-2.45,13.23.12-.31,2.26,11.92-.06-.12,7.59-4.52.06-1.57,2.76,7.21-.06-.19,6.4-38.07.88-.31-6.84,5.21-.06-.38-2.88-4.01.06ZM114.39,34.11l-12.17.19v1.94l12.23-.25-.06-1.88ZM102.23,42.7l12.36-.25-.06-1.94-12.29.19v2.01ZM110.94,16.73l-7.4.06,1.88,2.82,5.14-.06.38-2.82v-.06.06Z" style="fill: #db5800; stroke-width: 0px;"/>
        <path d="M11.47,75.01l10.6.38-.06,8.09,2.32-.06-.06,11.92-2.26.12-.06,4.58c.79-.21,1.59-.42,2.38-.63l1.13,2.63c-1.17,1.55-2.34,2.99-3.51,4.33l-.13,23.46-9.72,2.51-3.26-11.29,2.95-.63-.06-5.83c-1.21.63-2.45,1.11-3.7,1.44l-1.38-13.17c1.63-.17,3.3-.4,5.02-.69l-.06-6.02-4.14.25-.5-12.54,4.58-.12-.06-8.72ZM25.58,114.59l-.06-10.22,12.98-.06-.06-3.26h3.95l-.19-15.81-6.46.06-.13,2.07,4.89.44c-.38,8.15-4.54,13.28-12.48,15.37l-1.51-2.51c2.05-2.59,3.34-6.29,3.89-11.1l-4.45.12.06-13.42,37.63-.69.44,13.8-10.04.31v-4.58h-2.57l.13,7.4,11.73-1.57-.88,10.79-12.23.38v2.2l13.42-.06v9.47l-8.28.25c1.8,2.42,5.02,3.93,9.66,4.52l-4.2,11.23c-4.52-1.17-8.01-3.91-10.47-8.22l.13,10.16-11.67.44-.13-8.84c-3.68,3.26-8.05,5.02-13.11,5.27l-1.38-2.51c2.8-3.09,5.6-6.96,8.4-11.6l-7.02.19v-.06.06Z" style="fill: #db5800; stroke-width: 0px;"/>
        <path d="M72.31,86.87l20.64-.31v-2.2l-18.32.25-.31-7.71,18.57-.13v-2.51l13.99.25-.06,2.2,18-.12-.31,7.4-17.94.25-.06,2.13,20.95-.31.31,15.87-11.6.31v-.63c-5.1,3.64-10.45,6.67-16.06,9.09,4.39-.17,8.61-.42,12.67-.75l-1.32-3.39,3.39-1.38c6.06,3.01,10.62,6.17,13.67,9.47l-12.54,3.32-2.07-5.27c-2.01.67-4.22,1.3-6.65,1.88l-.56,16.75-13.61.25-.56-14.36c-5.6.75-11.85,1.36-18.75,1.82l-2.57-8.66c5.02.25,9.87.4,14.55.44h.13l-9.6-5.71,1.25-1.82c1.55-.13,3.49-.06,5.83.19,2.42-3.43,4.16-6.36,5.21-8.78h-5.02v7.02l-11.54.19.31-15.05ZM80.9,118.73l10.98,3.2c-3.97,4.93-10.25,7.99-18.82,9.16l-1.88-1.63c4.26-4.01,7.5-7.59,9.72-10.73ZM104.11,96.28l12.04,5.14v-6.9l-14.8.06c-2.97,3.43-6.98,6.69-12.04,9.79,1.42.25,2.93.54,4.52.88,3.72-2.84,7.15-5.83,10.29-8.97ZM118.47,118.61c2.22,3.14,5.46,6.73,9.72,10.79l-1.88,1.63c-8.57-1.17-14.59-4.22-18.06-9.16l10.22-3.26v-.06.06Z" style="fill: #db5800; stroke-width: 0px;"/>
      </g>
    </g>
  </g>
</svg>