<?xml version="1.0" encoding="UTF-8"?>
<svg id="_圖層_2" data-name=" 圖層 2" xmlns="http://www.w3.org/2000/svg" version="1.1" viewBox="0 0 83.8 94.2">
  <defs>
    <style>
      .cls-1 {
        fill: #f49138;
      }

      .cls-1, .cls-2, .cls-3, .cls-4, .cls-5 {
        stroke-width: 0px;
      }

      .cls-6 {
        stroke-width: 1.5px;
      }

      .cls-6, .cls-7 {
        fill: none;
        stroke: #1e2e42;
      }

      .cls-2 {
        fill: #1e2e42;
      }

      .cls-7 {
        stroke-width: 5px;
      }

      .cls-7, .cls-8 {
        font-family: GenJyuuGothicX-P-Heavy, 'Gen Jyuu Gothic XP';
        font-size: 17.7px;
        font-weight: 800;
      }

      .cls-8, .cls-5 {
        fill: #fff;
      }

      .cls-3 {
        fill: #73959e;
      }

      .cls-4 {
        fill: #bedee7;
      }
    </style>
  </defs>
  <g id="_第3cut" data-name=" 第3cut">
    <g>
      <circle class="cls-1" cx="58.5" cy="25.5" r="24.3"/>
      <path class="cls-5" d="M53.6,38.5l17-13c.5-.4.5-1.2,0-1.6l-17-13c-.7-.5-1.6,0-1.6.8v26c0,.8.9,1.3,1.6.8Z"/>
    </g>
    <g>
      <circle class="cls-6" cx="58.5" cy="25.5" r="24.3"/>
      <path class="cls-6" d="M53.6,38.5l17-13c.5-.4.5-1.2,0-1.6l-17-13c-.7-.5-1.6,0-1.6.8v26c0,.8.9,1.3,1.6.8Z"/>
    </g>
  </g>
  <g>
    <g>
      <path class="cls-5" d="M21.9,87s15.3-4.8,17.4-9.6,5.6-11.7,1-17.1c-4.5-5.4-13.4-9.2-17.3-9.8-3.9-.6-8.6,0-12.6,7.7-4.1,7.7-4.2,11.1-4.8,12.9,0,0-3.6-1.2-4.8,3.2-1.2,4.4,4.1,14.3,13.1,18.3,9,4.1,9.3-4.5,8-5.6Z"/>
      <path class="cls-4" d="M14,92.6c9,4.1,9.3-4.5,8-5.6,0,0,15.3-4.8,17.4-9.6,1.8-4.2,4.6-9.9,2.5-14.8-1,1.1-2,2.1-3,3.1-1.9,1.9-4,3.6-6.2,5.2-.7.5-1.4,1-2.2,1.4-1.1.6-2.4,1.1-3.5,1.5-.4.1-.7.3-1.1.4-2.9.8-5.7.8-8.6.1-1.3-.3-2.5-.9-3.7-1.5-1.1-.7-2.2-1.5-3.1-2.4-.9-.9-1.7-2.1-2.5-3.2-.3-.4-.5-.9-.7-1.3,0,0,0-.1,0-.2-.9,2.7-1.1,4.3-1.5,5.4,0,0-3.6-1.2-4.8,3.2-1.2,4.4,4.1,14.3,13.1,18.3ZM11,83.7c1.6.4,2.7.9,3.8,1.6,1.3.8,1.7,2.4,1,3.7-.7,1.3-2,1.5-3.3.7-1.1-.7-2.1-1.2-2.6-2.4-1.5-3.2-.3-4,1.2-3.6Z"/>
      <path class="cls-3" d="M6.2,70.6c.2,0,.2.3.3.6.9,3.5,3.1,6.8,5.9,9.1.8.7,1.7,1.3,2.6,1.9.7.4,1.1.6,1,.7,0,0-.5,0-1.2-.3-3.1-1.3-5.7-3.8-7.5-6.6-.5-.8-1-1.7-1.4-2.6-.1-.2-1.1-2.5-1.1-2.6.3-.2.8-.3,1.2-.4.1,0,.2,0,.3,0Z"/>
      <path class="cls-2" d="M13.7,93.1c-4.2-1.9-8-5.2-10.6-9.3-2.4-3.6-3.4-7.4-2.8-9.8.9-3.3,3.1-3.7,4.3-3.7s.5,0,.7,0c0-.3.1-.6.2-.9.5-2.1,1.3-5.6,4.5-11.6,1.6-3,3.4-5.2,5.4-6.5,1.7-1.1,3.5-1.6,5.6-1.6s1.4,0,2.2.2c2.2.3,5.5,1.5,8.6,3.1,2.7,1.4,6.4,3.7,9,6.8,2,2.4,2.7,5.3,2.2,8.8-.5,2.9-1.7,5.8-2.8,8.2-.1.3-.2.5-.4.8-.9,2.1-4.2,4.5-9.8,6.9-3,1.3-5.9,2.3-7.2,2.8.4,1,.4,2.4,0,3.7-.3.9-.8,1.7-1.5,2.2-.8.6-1.9,1-3.1,1s-2.8-.4-4.5-1.1ZM11.1,58.5c-3.1,5.9-3.6,9.3-3.8,11.4-.3,2.6,0,4.1-.2,4.6l-.8-1.7-.5-.5s-.6-.4-1.1-.4c-1.1,0-2.4.2-3,2.6-.6,2,.5,5.5,2.6,8.8,2.5,3.9,6.1,7,10.1,8.8,1.5.7,2.9,1,4,1,2.2,0,3.2-1.6,3.3-2.7,0-2-.3-2.9-.5-3.2l-.3-.4,1.1-.3c4.2-1.3,15.4-5.5,17-9.3.1-.3.2-.5.4-.8,2-4.6,4.3-10.4.3-15.2-4.4-5.3-12.7-9.4-16.4-10-.7-.1-1.4-.2-2-.2-2.6,0-6.4.8-10,7.5Z"/>
    </g>
    <g>
      <path class="cls-5" d="M30.3,80.6c.9-.7,1.8-1.3,2.5-2.1.5-.5,1-1.1,1.4-1.6.7-.9,1.5-1.8,2.4-2.6.1,0,.3-.2.4-.2,1.2-.5,2.3-1.2,3-2.4.3-.5.5-.9.6-1.5.6.6,4.8,5,4.1,8.5-.8,3.8-7.1,7.8-10.5,8.4-3.5.6-11.1,1.2-13.8-.6l.8-.6c3.4-1,6.3-3.1,9.1-5.2Z"/>
      <path class="cls-4" d="M40.5,70.1s3.3,3.2,4.1,6.4c-.3-1.1-3.8,1.3-4.3,1.6-1.8,1.2-3.4,2.7-4,4.9-.4,1.4-.4,3.8-2.2,4.1-3.5.6-11.1,1.2-13.8-.6l20.1-16.4Z"/>
      <path class="cls-3" d="M44.2,75.6c.2.4-5.6-.4-8.7,1.9l5.3-6s2.1,1.8,3.4,4.1Z"/>
      <path class="cls-2" d="M27.1,88.2c2.9,0,5.8-.4,7.2-.6,1.9-.3,4.4-1.5,6.5-3.1,1.5-1.1,4-3.3,4.5-5.8.8-4-4.2-8.9-4.4-9.1l-.8.9.4-.4-1.2,1.1c1.1.8,5.5,4,4.8,7.4-.7,3.4-6.7,7.4-10,8-4,.7-10.2,1.1-13.8,0l-.2.4c1.5,1,4.2,1.3,7,1.3Z"/>
    </g>
    <path class="cls-3" d="M22.2,59.8c.3.2.9-.8,1.2-1.1.5-.9,1-1.3,1.2-2.1.1-.3-.3-.5-.7-.5-1,0-1.6.7-1.8,1.7,0,.4-.3,1.4-.1,1.8,0,.1.1.2.2.3Z"/>
    <path class="cls-3" d="M17.3,56.4c0,.1.3,0,.5-.1.5-.4,1.2-1.5,1.4-2,.2-.4.4-.8-.1-1.2-.6-.4-1.1.5-1.4.9-.2.4-.4,1.1-.5,1.5,0,.2,0,.6,0,.8Z"/>
    <g>
      <path class="cls-5" d="M49.3,45.8c2.4-1.6,3.6-1.9,5.3-1.1,3.6,1.7,3,4.1,3,4.2,0,7.2-16.8,22.8-16.8,22.8,0,0-2.3,1.9-3.8,4.2l-1.5-17.6c.9-.7,13.8-12.4,13.8-12.4Z"/>
      <path class="cls-4" d="M48.9,57.3c1.6-1.5,3-3.2,4.4-4.9,1.4-1.8,2.8-3.7,3.9-5.8.7,1.1.5,2,.5,2.1,0,7.2-16.8,22.8-16.8,22.8,0,0-2.8,2.6-4.3,4.9l-1.1-7.7c.1-.1,9.9-8,13.4-11.4Z"/>
      <path class="cls-2" d="M35.7,58.3c5.5-3.8,9.2-8.6,14-12.1,1.4-1,3-1.9,4.8-1.4,1,.3,1.9,1.4,2.2,2.4,1.4,4-1,7.6-3.5,10.5-5,5.7-9.6,9.7-14.5,15.5-.4.5-3.4,4.1-1.6,3.1,1.5-.9,2.2-1.6,3.1-2.5,5-5.1,11.8-11.5,15.7-17.5.6-.8,2.4-4.4,2.4-6.7-.2-2.5-1-3.9-2.2-5-2.5-2.2-5.5-.5-7.7,1.2-2.5,2-4.8,4.1-7.2,6.2-1.1,1-2.3,2-3.3,3.1-.3.3-2.8,2.6-2.7,2.8,0,.1.3.3.4.4,0,0,0,0,0,0Z"/>
    </g>
  </g>
  <g>
    <text class="cls-7" transform="translate(2.4 25)"><tspan x="0" y="0">向右</tspan><tspan x="0" y="19.4">移動</tspan></text>
    <text class="cls-8" transform="translate(2.4 25)"><tspan x="0" y="0">向右</tspan><tspan x="0" y="19.4">移動</tspan></text>
  </g>
</svg>