<?xml version="1.0" encoding="UTF-8"?>
<svg id="_圖層_2" data-name="圖層 2" xmlns="http://www.w3.org/2000/svg" width="1259.84" height="253.54" xmlns:xlink="http://www.w3.org/1999/xlink" viewBox="0 0 1259.84 253.54">
  <defs>
    <clipPath id="clippath">
      <rect x="971.19" y="11.52" width="160.34" height="119.42" style="fill: none; stroke-width: 0px;"/>
    </clipPath>
  </defs>
  <g id="_第一cut" data-name="第一cut">
    <g id="train">
      <g>
        <rect x="1004.73" y="131.09" width="233.57" height="93.44" style="fill: #417aa7; stroke-width: 0px;"/>
        <rect x="1154.49" y="131.09" width="78.31" height="93.44" style="fill: #e6af32; stroke-width: 0px;"/>
        <rect x="1188.6" y="131.09" width="8.78" height="93.44" style="fill: #e25131; stroke-width: 0px;"/>
        <rect x="1154.49" y="131.09" width="8.78" height="93.44" style="fill: #e25131; stroke-width: 0px;"/>
        <path d="m1238.3,224.53c-11.86,0-21.54-20.99-21.54-46.72s9.68-46.72,21.54-46.72c11.86,0,21.54,20.99,21.54,46.72,0,25.73-9.68,46.72-21.54,46.72Z" style="fill: #e6af32; fill-rule: evenodd; stroke-width: 0px;"/>
        <path d="m1233.4,125.37h0c-2.7,0-4.9,1.97-4.9,4.38v94.74c0,2.41,2.21,4.38,4.9,4.38h0c2.7,0,4.9-1.97,4.9-4.38v-94.74c0-2.41-2.21-4.38-4.9-4.38Z" style="fill: #e25131; fill-rule: evenodd; stroke-width: 0px;"/>
        <rect x="1004.73" y="8.41" width="149.76" height="134.2" style="fill: #417aa7; stroke-width: 0px;"/>
        <rect x="1016.07" y="20.11" width="127.08" height="110.8" style="fill: #fff; stroke-width: 0px;"/>
        <circle cx="1179.6" cy="216.3" r="33.21" transform="translate(-19.2 182.84) rotate(-8.79)" style="fill: #e6af32; stroke-width: 0px;"/>
        <circle cx="1179.6" cy="216.3" r="33.21" transform="translate(-19.2 182.84) rotate(-8.79)" style="fill: #f4da9a; stroke: #d6ac62; stroke-miterlimit: 22.93; stroke-width: 8.05px;"/>
        <circle cx="1043.93" cy="216.3" r="33.21" style="fill: #e6af32; stroke-width: 0px;"/>
        <circle cx="1043.93" cy="216.3" r="33.21" style="fill: #f4da9a; stroke: #d6ac62; stroke-miterlimit: 22.93; stroke-width: 8.05px;"/>
        <g>
          <rect x="991.94" y="186.45" width="12.79" height="8.63" style="fill: #417aa7; stroke-width: 0px;"/>
          <rect x="984.18" y="178.68" width="7.77" height="24.17" style="fill: #417aa7; stroke-width: 0px;"/>
        </g>
        <path d="m1179.6,224.16c-4.33,0-7.86-3.53-7.86-7.86,0-4.33,3.53-7.86,7.86-7.86,4.33,0,7.86,3.53,7.86,7.86,0,4.33-3.53,7.86-7.86,7.86Z" style="fill: #b2793c; fill-rule: evenodd; stroke-width: 0px;"/>
        <path d="m1043.93,224.16c-4.33,0-7.86-3.53-7.86-7.86,0-4.33,3.53-7.86,7.86-7.86,4.33,0,7.86,3.53,7.86,7.86s-3.53,7.86-7.86,7.86Z" style="fill: #b2793c; fill-rule: evenodd; stroke-width: 0px;"/>
        <path d="m996.06,6.77h0c0,3.72,3.41,6.77,7.58,6.77h151.94c4.17,0,7.58-3.04,7.58-6.77h0c0-3.72-3.41-6.77-7.58-6.77h-151.94c-4.17,0-7.58,3.04-7.58,6.77Z" style="fill: #e6af32; fill-rule: evenodd; stroke-width: 0px;"/>
        <g>
          <rect x="1203.91" y="110.93" width="14.87" height="19.99" style="fill: #e25131; stroke-width: 0px;"/>
          <polygon points="1225.44 107.62 1197.31 107.62 1203.91 117.56 1218.78 117.56 1225.44 107.62" style="fill: #417aa7; fill-rule: evenodd; stroke-width: 0px;"/>
          <path d="m1211.34,96.5c-7.74,0-14.03,4.97-14.03,11.12h28.13c0-6.15-6.3-11.12-14.09-11.12h0Z" style="fill: #52ada6; fill-rule: evenodd; stroke-width: 0px;"/>
          <rect x="1176.2" y="114.46" width="12.23" height="16.47" style="fill: #e25131; stroke-width: 0px;"/>
          <polygon points="1182.32 99.65 1176.2 114.46 1188.44 114.46 1182.32 99.65" style="fill: #417aa7; fill-rule: evenodd; stroke-width: 0px;"/>
        </g>
      </g>
      <g id="index_btn5">
        <rect id="index_btn5_bg_hover" x="808.36" y=".43" width="156.25" height="202.23" rx="10.9" ry="10.9" style="fill: #e09d0a; stroke-width: 0px;"/>
        <rect id="index_btn5_bg" x="808.36" y=".43" width="156.25" height="202.23" rx="10.9" ry="10.9" style="fill: #e09d0a; stroke-width: 0px;"/>
        <rect x="801.55" y="186.45" width="168.09" height="37.57" style="fill: #3e3e3f; stroke-width: 0px;"/>
        <g>
          <rect x="969.64" y="186.45" width="5.04" height="8.63" style="fill: #417aa7; stroke-width: 0px;"/>
          <rect x="974.68" y="178.68" width="7.77" height="24.17" style="fill: #417aa7; stroke-width: 0px;"/>
        </g>
        <g>
          <path d="m927.02,249.51c-14.04,0-25.5-11.45-25.5-25.5,0-14.04,11.45-25.5,25.5-25.5,14.04,0,25.5,11.45,25.5,25.5,0,14.04-11.45,25.5-25.5,25.5Z" style="fill: #f4da9a; fill-rule: evenodd; stroke: #d6ac62; stroke-miterlimit: 22.93; stroke-width: 8.05px;"/>
          <path d="m844.17,249.51c-14.04,0-25.5-11.45-25.5-25.5,0-14.04,11.45-25.5,25.5-25.5,14.04,0,25.5,11.45,25.5,25.5,0,14.04-11.45,25.5-25.5,25.5Z" style="fill: #f4da9a; fill-rule: evenodd; stroke: #d6ac62; stroke-miterlimit: 22.93; stroke-width: 8.05px;"/>
        </g>
        <g>
          <rect x="795.1" y="186.45" width="6.45" height="8.63" style="fill: #417aa7; stroke-width: 0px;"/>
          <rect x="787.34" y="178.68" width="7.77" height="24.17" style="fill: #417aa7; stroke-width: 0px;"/>
        </g>
        <path d="m927.63,232.61c-4.33,0-7.86-3.53-7.86-7.86,0-4.33,3.53-7.86,7.86-7.86,4.33,0,7.86,3.53,7.86,7.86,0,4.33-3.53,7.86-7.86,7.86Z" style="fill: #b2793c; fill-rule: evenodd; stroke-width: 0px;"/>
        <path d="m844.05,232.61c-4.33,0-7.86-3.53-7.86-7.86,0-4.33,3.53-7.86,7.86-7.86s7.86,3.53,7.86,7.86c0,4.33-3.53,7.86-7.86,7.86Z" style="fill: #b2793c; fill-rule: evenodd; stroke-width: 0px;"/>
        <g>
          <path d="m847.48,131.29c-2.09.65-4.28,1.35-6.01,1.87l-.34-1.53c.74-.18,1.62-.43,2.59-.72v-6.33h-2.09v-1.49h2.09v-5h-2.32v-1.51h6.01v1.51h-2.21v5h1.96v1.49h-1.96v5.9l2.09-.65.18,1.46Zm13.94-1.06c-.97.61-2.12,1.26-3.13,1.73,1.04.97,2.34,1.73,3.85,2.14-.36.29-.81.88-1.01,1.28-3.09-1.01-5.27-3.33-6.37-6.33-.79.7-1.73,1.37-2.75,1.96v2.59l3.76-.86c-.04.36-.02.95,0,1.24-4.3,1.1-4.93,1.31-5.31,1.53-.09-.36-.38-.95-.59-1.24.29-.16.74-.5.74-1.4v-1.13c-.81.38-1.64.74-2.43.99-.2-.36-.63-.88-.97-1.15,1.96-.52,4.23-1.53,5.79-2.68h-3.36v-4.62h10.61v4.62h-4.12c.34.77.79,1.53,1.33,2.16.99-.54,2.12-1.31,2.81-1.85l1.15.99Zm.25-7.16h-13.54v-1.37h13.54v1.37Zm-.77-2.5h-11.85v-4.73h11.85v4.73Zm-8.31-3.51h-2.12v2.3h2.12v-2.3Zm-1.42,10.61h7.48v-2.12h-7.48v2.12Zm4.82-10.61h-2.21v2.3h2.21v-2.3Zm3.45,0h-2.25v2.3h2.25v-2.3Z" style="fill: #fff; stroke-width: 0px;"/>
          <path d="m870.91,130.03c-2.25.92-4.68,1.87-6.58,2.59l-.54-1.69c.79-.25,1.76-.59,2.81-.97v-7.88h-2.48v-1.58h2.48v-5.2h1.62v5.2h2.19v1.58h-2.19v7.3l2.36-.88.32,1.53Zm10.79,3.96c.32,0,.65-.02.77-.09.18-.04.34-.23.41-.47.04-.32.07-1.01.09-1.91.34.29.9.59,1.35.72-.05.88-.14,1.8-.27,2.18-.18.34-.43.59-.83.7-.34.11-.95.18-1.37.18h-1.51c-.52,0-1.19-.11-1.53-.38-.41-.27-.56-.63-.56-1.82v-3.33h-2c-.36,3.24-1.51,4.96-5.61,5.92-.16-.38-.59-1.01-.88-1.31,3.65-.74,4.62-2,4.91-4.62h-2.34v-6.37h10.23v6.37h-2.73v3.49c0,.34.02.56.2.63.14.09.34.11.61.11h1.08Zm2.03-11.78h-12.5v-1.44h3.18c-.11-.61-.41-1.49-.7-2.16l1.37-.29c.29.7.68,1.64.81,2.23l-.83.23h3.74c.34-.72.74-1.71.95-2.39l1.55.34c-.34.72-.7,1.44-.99,2.05h3.42v1.44Zm-.59-4.1h-11.24v-1.42h4.86c-.18-.5-.43-1.01-.63-1.49l1.55-.29c.27.54.56,1.22.77,1.78h4.68v1.42Zm-9.28,7.88h7.07v-1.46h-7.07v1.46Zm0,2.61h7.07v-1.51h-7.07v1.51Z" style="fill: #fff; stroke-width: 0px;"/>
          <path d="m905.59,120.77c-.54,3.6-1.37,6.55-2.75,8.96,1.1,1.91,2.55,3.47,4.35,4.41-.41.34-.92.95-1.17,1.42-1.71-1.01-3.09-2.45-4.19-4.26-1.33,1.78-3.04,3.22-5.25,4.37-.18-.41-.68-1.15-1.01-1.51,2.34-1.1,4.08-2.59,5.36-4.53-.88-1.82-1.53-3.94-2.05-6.24-.43.99-.97,1.87-1.51,2.66-.25-.27-.79-.77-1.22-1.06-.92,1.08-2.21,2.16-3.4,2.97v.9c1.44-.18,2.93-.38,4.41-.59l.02,1.46c-1.49.2-2.97.41-4.44.63v3.45c0,.86-.18,1.26-.81,1.51-.61.25-1.58.25-3,.25-.09-.45-.31-1.01-.54-1.46,1.13.05,2.07.02,2.37.02.31-.02.38-.09.38-.34v-3.22c-1.67.23-3.2.45-4.48.61l-.2-1.53c1.28-.16,2.91-.36,4.68-.56v-1.55c.86-.5,1.82-1.28,2.57-2h-3.51c-.88.68-1.78,1.31-2.73,1.85-.25-.32-.86-.97-1.19-1.28,1.82-.92,3.49-2.14,4.91-3.56h-4.75v-1.49h3.9v-2.23h-2.95v-1.44h2.95v-2.36h1.55v2.36h2.32v1.37c.61-1.01,1.15-2.07,1.6-3.2l1.55.45c-.77,1.85-1.71,3.51-2.82,5.04h2.73v1.49h-3.92c-.52.56-1.04,1.13-1.6,1.64h3.29l.32-.09.79.59c1.71-2.34,2.86-5.92,3.51-9.66l1.67.27c-.25,1.35-.54,2.66-.9,3.9h6.58v1.58h-1.42Zm-13.69.29h.68c.59-.7,1.1-1.46,1.6-2.23h-2.27v2.23Zm10.02,6.82c.95-1.98,1.53-4.35,1.96-7.12h-3.94c.43,2.59,1.08,5.02,1.98,7.12Z" style="fill: #fff; stroke-width: 0px;"/>
          <path d="m929.08,118.72h-5.95c1.82,1.26,3.92,3,5,4.21l-1.42.97c-.41-.47-.95-1.04-1.55-1.62-11.53.59-12.68.61-13.45.88-.09-.34-.32-1.13-.5-1.6.52-.09,1.1-.5,1.89-1.17.38-.25,1.1-.88,1.96-1.67h-5.65v-1.51h7.16c.72-.77,1.46-1.62,2.12-2.46l1.67.7c-.52.59-1.06,1.19-1.6,1.76h10.31v1.51Zm-2.34,14.93c0,1.01-.27,1.44-1.04,1.67-.74.23-2.07.2-4.03.2-.07-.45-.27-1.01-.47-1.44,1.4.04,2.91.04,3.24.02.41,0,.54-.14.54-.45v-2.88c-3.56.72-7.25,1.49-10.02,1.98l-.54-1.51c2.54-.38,6.64-1.04,10.56-1.73v-4.12h-11.17v2.64c0,2.36-.38,5.56-2.59,7.75-.25-.31-.95-.88-1.33-1.04,2.03-1.96,2.3-4.66,2.3-6.76v-4.01h14.55v9.68Zm-3.04-12.63c-.74-.61-1.51-1.19-2.25-1.71l.95-.59h-5.14c-1.04.99-2.09,1.89-3.13,2.7l9.57-.41Zm-8.63,5.29c2.75.38,6.31,1.26,8.22,2.05l-.52,1.24c-1.87-.81-5.43-1.78-8.24-2.21l.54-1.08Z" style="fill: #fff; stroke-width: 0px;"/>
        </g>
      </g>
      <g id="index_btn4">
        <rect id="index_btn4_bg_hover" x="611.53" y=".43" width="156.25" height="202.23" rx="10.9" ry="10.9" style="fill: #513503; stroke-width: 0px;"/>
        <rect id="index_btn4_bg" x="611.53" y=".43" width="156.25" height="202.23" rx="10.9" ry="10.9" style="fill: #5c4921; stroke-width: 0px;"/>
        <rect x="604.72" y="186.45" width="168.09" height="37.57" style="fill: #3e3e3f; stroke-width: 0px;"/>
        <g>
          <rect x="772.81" y="186.45" width="5.04" height="8.63" style="fill: #417aa7; stroke-width: 0px;"/>
          <rect x="777.85" y="178.68" width="7.77" height="24.17" style="fill: #417aa7; stroke-width: 0px;"/>
        </g>
        <g>
          <path d="m730.19,249.51c-14.04,0-25.5-11.45-25.5-25.5s11.45-25.5,25.5-25.5c14.04,0,25.5,11.45,25.5,25.5,0,14.04-11.45,25.5-25.5,25.5Z" style="fill: #f4da9a; fill-rule: evenodd; stroke: #d6ac62; stroke-miterlimit: 22.93; stroke-width: 8.05px;"/>
          <path d="m647.34,249.51c-14.04,0-25.5-11.45-25.5-25.5,0-14.04,11.45-25.5,25.5-25.5,14.04,0,25.5,11.45,25.5,25.5s-11.45,25.5-25.5,25.5Z" style="fill: #f4da9a; fill-rule: evenodd; stroke: #d6ac62; stroke-miterlimit: 22.93; stroke-width: 8.05px;"/>
        </g>
        <g>
          <rect x="598.27" y="186.45" width="6.45" height="8.63" style="fill: #417aa7; stroke-width: 0px;"/>
          <rect x="590.5" y="178.68" width="7.77" height="24.17" style="fill: #417aa7; stroke-width: 0px;"/>
        </g>
        <path d="m730.8,232.61c-4.33,0-7.86-3.53-7.86-7.86s3.53-7.86,7.86-7.86c4.33,0,7.86,3.53,7.86,7.86,0,4.33-3.53,7.86-7.86,7.86Z" style="fill: #b2793c; fill-rule: evenodd; stroke-width: 0px;"/>
        <path d="m647.21,232.61c-4.33,0-7.86-3.53-7.86-7.86,0-4.33,3.53-7.86,7.86-7.86s7.86,3.53,7.86,7.86c0,4.33-3.53,7.86-7.86,7.86Z" style="fill: #b2793c; fill-rule: evenodd; stroke-width: 0px;"/>
        <g>
          <path d="m649.66,118.43c-1.1,1.76-2.48,3.29-3.85,4.41-.27-.34-.86-.99-1.22-1.31,2.07-1.53,3.94-3.94,5.02-6.51l1.62.45c-.25.56-.5,1.08-.79,1.62h13.83v1.33h-14.62Zm1.17,12.48c-1.04,1.76-2.97,3.65-4.66,4.59-.25-.38-.72-.9-1.06-1.22,1.64-.77,3.51-2.36,4.48-3.9l1.24.52Zm2.23-1.19v5.88h-1.6v-5.88h-6.04v-1.35h6.04v-3.92h1.6v3.92h5.9v1.35h-5.9Zm8.33-7.09c-.02,6.96.16,11.33,1.96,11.33.47,0,.59-1.33.63-3.27.34.38.79.77,1.15.99-.14,2.95-.5,3.92-1.87,3.92-3.13,0-3.47-4.37-3.51-11.64h-12.86v-1.33h14.5Zm-13.18,2.05c.74.86,1.53,2.03,1.8,2.84l-1.33.56c-.27-.79-.99-1.98-1.73-2.86l1.26-.54Zm.97-3.51v-1.28h13.38v1.28h-13.38Zm5.77,9.28c1.49,1.06,3.31,2.59,4.23,3.63l-1.06,1.01c-.86-1.04-2.68-2.66-4.14-3.76l.97-.88Zm2.86-5.18c-.81,1.06-1.73,2.23-2.45,3l-1.08-.47c.68-.86,1.58-2.18,2.05-3.09l1.49.56Z" style="fill: #fff; stroke-width: 0px;"/>
          <path d="m672.88,115.59c-.5,1.67-1.13,3.33-1.85,4.93v15.11h-1.6v-12.03c-.52.9-1.06,1.71-1.62,2.41-.14-.38-.59-1.31-.9-1.69,1.85-2.27,3.45-5.7,4.44-9.17l1.53.43Zm-.04,4.35h1.49v11.33h-1.49v-11.33Zm9.1,9.82c-.47,2.07-1.98,4.3-6.35,5.9-.23-.36-.72-.95-1.08-1.24,3.9-1.26,5.29-3.02,5.74-4.66h-5v-1.46h5.25v-2.93h-2.45c-.5.95-1.08,1.78-1.67,2.45-.29-.23-.92-.65-1.31-.88,1.22-1.24,2.21-3.18,2.79-5.14l1.51.36c-.18.61-.41,1.22-.65,1.78h8.09v1.42h-4.66v2.93h5.41v1.46h-5.61Zm5.59-8.09h-12.32v-1.44h8.09c.18-.88.32-1.85.45-2.68h-7.27v-1.42h7.59l.27-.09,1.15.14c-.16,1.31-.38,2.77-.59,4.05h2.64v1.44Zm-4.37,8.49c1.55,1.33,3.63,3.22,4.71,4.35l-1.24.99c-.99-1.15-3.04-3.09-4.62-4.5l1.15-.83Z" style="fill: #fff; stroke-width: 0px;"/>
          <path d="m706.35,129.89c-1.08,1.24-2.54,2.23-4.21,3.02,2.48.7,5.32,1.13,8.09,1.37-.29.36-.68.95-.86,1.37-3.18-.34-6.37-.97-9.19-1.94-2.95,1.04-6.42,1.62-9.82,2.03-.16-.38-.52-1.06-.79-1.42,3-.25,6.01-.68,8.63-1.42-1.46-.63-2.79-1.4-3.87-2.3-1.08.86-2.27,1.53-3.45,2.05-.18-.29-.7-.97-.99-1.24,2.34-.95,4.71-2.45,5.92-4.32l1.46.45c-.23.36-.5.7-.74,1.04h12.81v1.31h-3Zm-14.8-5.5c-.18,1.31-.47,2.77-.83,3.76-.23-.13-.7-.45-.97-.59.36-.95.54-2.21.68-3.4l1.13.23Zm3.83-.65c-.04-.25-.14-.56-.23-.9-3.92.59-4.5.7-4.84.86-.07-.25-.27-.88-.41-1.22.38-.05.83-.41,1.35-.92.27-.25.83-.86,1.49-1.62-1.76.13-2.18.23-2.43.31-.07-.27-.27-.9-.43-1.22.32-.07.61-.32.92-.68.32-.38,1.42-1.89,2.03-3.36l1.26.45c-.68,1.26-1.49,2.5-2.25,3.45l1.8-.09c.43-.54.88-1.15,1.22-1.73l1.22.54c-1.19,1.71-2.57,3.33-3.9,4.59l2.68-.31c-.16-.47-.36-.97-.56-1.37l1.01-.27c.5,1.04.97,2.39,1.13,3.18l-1.06.32Zm-2.64,3.81c0-.86-.2-2.16-.41-3.18l1.04-.23c.25,1.01.45,2.32.5,3.15l-1.13.25Zm2.39-.47c-.11-.77-.41-1.94-.7-2.84l.99-.27c.32.88.65,2.05.77,2.79l-1.06.32Zm.34,2.82c1.19.95,2.79,1.73,4.66,2.41,1.67-.65,3.09-1.42,4.17-2.41h-8.83Zm7.86-11.89h-6.96v-1.04h2.95c-.2-.52-.47-1.08-.77-1.58l1.26-.41c.41.56.79,1.4.99,1.98h2.52v1.04Zm-.47,2h-6.01v-.99h6.01v.99Zm-.02,2.05h-5.99v-1.04h5.99v1.04Zm-5.88,5.16v-4.03h5.77v4.03h-5.77Zm1.1-1.01h3.51v-2h-3.51v2Zm10.86-2.48c-.04-.27-.11-.63-.23-.99-4.01.54-4.59.68-4.93.86-.07-.27-.25-.88-.41-1.19.41-.07.83-.43,1.35-.92.27-.25.83-.86,1.46-1.62-1.8.16-2.23.25-2.48.36-.07-.29-.27-.9-.41-1.22.29-.07.59-.31.9-.68.32-.38,1.42-1.87,2.05-3.31l1.24.45c-.65,1.26-1.49,2.5-2.3,3.42l1.85-.09c.45-.54.88-1.17,1.24-1.76l1.19.52c-1.19,1.67-2.5,3.27-3.78,4.53l2.7-.31c-.16-.47-.36-.97-.56-1.4l1.06-.25c.5,1.04.99,2.43,1.13,3.29l-1.08.32Zm-3.83.63c-.18,1.17-.47,2.57-.77,3.47-.23-.16-.74-.45-1.01-.59.32-.92.5-2.09.63-3.18l1.15.29Zm1.26,3.11c0-.86-.16-2.18-.41-3.2l1.04-.18c.27.99.45,2.32.47,3.15l-1.1.23Zm2.52-.16c-.14-.88-.5-2.23-.81-3.27l.99-.27c.38,1.04.72,2.39.88,3.24l-1.06.29Z" style="fill: #fff; stroke-width: 0px;"/>
          <path d="m717.4,125.79c-.52,2-1.24,4.23-2.12,5.88.45.25.97.7,1.85,1.22,1.6.95,3.72,1.1,6.42,1.1,3.02,0,6.67-.2,9.23-.47-.18.43-.45,1.22-.45,1.67-1.71.11-6.1.27-8.83.27-3,0-5-.23-6.73-1.24-.9-.54-1.76-1.31-2.27-1.31-.41,0-1.04,1.42-1.53,2.81l-1.13-1.44c.68-1.1,1.35-2.03,1.94-2.5.72-1.28,1.4-3.13,1.82-4.77h-2.75c.59-1.35,1.33-3.31,1.91-5.11h-2.45v-1.42h4.37c-.54,1.62-1.24,3.51-1.82,5.07h1.53l.25-.07.77.32Zm-2.95-6.51c-.25-.97-.72-2.52-1.08-3.69l1.33-.36c.38,1.17.86,2.64,1.13,3.6l-1.37.45Zm7.82-2.16h-4.5v-1.24h14.41v1.24h-4.82v1.24h4.1v4.08h-6.87c-.18.41-.38.81-.61,1.17h8.22v1.24h-3.9c1.53.95,3.06,2.03,3.96,2.84l-.95,1.01c-.63-.56-1.58-1.31-2.61-2.03v2.14c0,.68-.14.99-.7,1.22-.59.18-1.44.18-2.91.18-.09-.36-.29-.74-.47-1.08,1.15.04,2.03.04,2.3.02.32-.02.38-.09.38-.34v-1.46h-5.45v3.27c0,.59.25.72,1.6.72h4.95c.97,0,1.15-.25,1.26-1.73.34.18.9.36,1.33.45-.18,1.98-.68,2.48-2.48,2.48h-5.14c-2.34,0-3.04-.34-3.04-1.89v-3.24c-.72.52-1.51.95-2.32,1.33-.2-.29-.77-.83-1.1-1.1,1.64-.68,3.13-1.6,4.3-2.77h-3.38v-1.24h4.41c.27-.36.52-.77.72-1.17h-4.5v-4.08h3.78v-1.24Zm-2.3,4.23h2.3v-1.91h-2.3v1.91Zm3.13,3.49c-.34.45-.74.86-1.17,1.26h5.99c-.63-.45-1.28-.88-1.91-1.26h-2.91Zm2.91-7.73h-2.39v1.24h2.39v-1.24Zm-2.39,4.23h2.39v-1.91h-2.39v1.91Zm3.74-1.91v1.91h2.54v-1.91h-2.54Z" style="fill: #fff; stroke-width: 0px;"/>
        </g>
      </g>
      <g id="index_btn3">
        <rect id="index_btn3_bg_hover" x="414.93" y=".43" width="156.25" height="202.23" rx="10.9" ry="10.9" style="fill: #005c7c; stroke-width: 0px;"/>
        <rect x="408.12" y="186.45" width="168.09" height="37.57" style="fill: #3e3e3f; stroke-width: 0px;"/>
        <g>
          <rect x="576.21" y="186.45" width="5.04" height="8.63" style="fill: #417aa7; stroke-width: 0px;"/>
          <rect x="581.25" y="178.68" width="7.77" height="24.17" style="fill: #417aa7; stroke-width: 0px;"/>
        </g>
        <g>
          <path d="m533.59,249.51c-14.04,0-25.5-11.45-25.5-25.5s11.45-25.5,25.5-25.5c14.04,0,25.5,11.45,25.5,25.5,0,14.04-11.45,25.5-25.5,25.5Z" style="fill: #f4da9a; fill-rule: evenodd; stroke: #d6ac62; stroke-miterlimit: 22.93; stroke-width: 8.05px;"/>
          <path d="m450.74,249.51c-14.04,0-25.5-11.45-25.5-25.5,0-14.04,11.45-25.5,25.5-25.5,14.04,0,25.5,11.45,25.5,25.5s-11.45,25.5-25.5,25.5Z" style="fill: #f4da9a; fill-rule: evenodd; stroke: #d6ac62; stroke-miterlimit: 22.93; stroke-width: 8.05px;"/>
        </g>
        <g>
          <rect x="401.67" y="186.45" width="6.45" height="8.63" style="fill: #417aa7; stroke-width: 0px;"/>
          <rect x="393.9" y="178.68" width="7.77" height="24.17" style="fill: #417aa7; stroke-width: 0px;"/>
        </g>
        <path d="m534.2,232.61c-4.33,0-7.86-3.53-7.86-7.86s3.53-7.86,7.86-7.86c4.33,0,7.86,3.53,7.86,7.86,0,4.33-3.53,7.86-7.86,7.86Z" style="fill: #b2793c; fill-rule: evenodd; stroke-width: 0px;"/>
        <path d="m450.61,232.61c-4.33,0-7.86-3.53-7.86-7.86,0-4.33,3.53-7.86,7.86-7.86s7.86,3.53,7.86,7.86c0,4.33-3.53,7.86-7.86,7.86Z" style="fill: #b2793c; fill-rule: evenodd; stroke-width: 0px;"/>
        <g>
          <path d="m454.59,121.22h-6.44v-1.35h6.44v1.35Zm1.78,11.62c-1.8,1.08-4.64,2.14-6.87,2.75-.29-.34-.86-.97-1.24-1.26,2.3-.47,5-1.28,6.6-2.16l1.51.68Zm-2.34-15.16h-5.38v-1.31h5.38v1.31Zm-2.93,5.29h14.57v9.03h-14.57v-9.03Zm1.62,2.66h11.28v-1.53h-11.28v1.53Zm0,2.61h11.28v-1.53h-11.28v1.53Zm0,2.66h11.28v-1.58h-11.28v1.58Zm5.41-13.04c-.5.86-1.08,1.64-1.69,2.25-.27-.25-.9-.68-1.26-.86,1.17-1.06,2.09-2.64,2.59-4.28l1.51.34c-.14.43-.32.83-.47,1.24h7.54l.27-.07,1.13.38c-.56,1.15-1.28,2.45-1.89,3.24l-1.33-.47c.34-.47.74-1.13,1.06-1.78h-3.58v.29c0,.23-.02.47-.07.74,1.19,1.35,3.65,2.23,6.6,2.48-.32.31-.74.92-.95,1.33-2.57-.36-4.73-1.26-6.13-2.64-.74,1.1-2.52,2.14-6.49,2.75-.18-.36-.61-.97-.9-1.24,5.83-.79,6.37-2.32,6.37-3.49v-.23h-2.32Zm3.38,14.28c2.41.74,5.04,1.71,6.62,2.43l-1.46.97c-1.44-.72-3.87-1.69-6.31-2.5l1.15-.9Z" style="fill: #fff; stroke-width: 0px;"/>
          <path d="m474.21,124.89c-.86-.65-2.52-1.71-3.78-2.41l.97-1.17c1.22.68,2.93,1.62,3.81,2.23l-.99,1.35Zm1.42,3.18c-.92,2.36-2.18,5.13-3.24,7.21l-1.49-.92c.99-1.73,2.39-4.68,3.42-7.21l1.31.92Zm-.36-9.05c-.86-.68-2.52-1.78-3.74-2.57l.97-1.15c1.22.7,2.91,1.73,3.76,2.39l-.99,1.33Zm3.51,3.27c0,3.92-.38,9.48-3.04,13.24-.27-.29-.99-.72-1.37-.88,2.54-3.6,2.77-8.67,2.77-12.36v-6.15h13.69v1.53h-12.05v4.62Zm3.58,7.36c-.74,1.64-1.87,3.45-2.84,4.62-.32-.25-.95-.63-1.35-.86,1.04-1.08,2.03-2.68,2.68-4.17l1.51.41Zm3.33-1.67v5.88c0,.83-.14,1.26-.77,1.51-.61.25-1.55.25-3.06.23-.07-.43-.27-1.01-.47-1.44,1.08.04,2.07.02,2.32.02.29-.02.38-.09.38-.34v-5.86h-4.03v-7.73h3.4c.25-.72.52-1.64.65-2.27l1.87.38c-.32.65-.63,1.31-.92,1.89h4.91v7.73h-4.28Zm-4.12-4.48h6.85v-1.96h-6.85v1.96Zm0,3.2h6.85v-1.98h-6.85v1.98Zm7.07,2.36c.88,1.37,2,3.22,2.57,4.3l-1.53.68c-.5-1.13-1.6-3-2.48-4.41l1.44-.56Z" style="fill: #fff; stroke-width: 0px;"/>
          <path d="m498.73,120.39c-.45.86-.99,1.73-1.58,2.57v12.61h-1.55v-10.61c-.68.83-1.37,1.55-2.03,2.16-.16-.36-.61-1.17-.9-1.53,1.69-1.44,3.49-3.6,4.62-5.77l1.44.56Zm-.45-4.8c-1.1,1.8-2.86,3.83-4.44,5.16-.18-.34-.63-.97-.9-1.26,1.42-1.15,3.02-3,3.81-4.46l1.53.56Zm9.95,6.01v2.43h3.94v11.51h-1.64v-1.04h-6.19v1.04h-1.55v-11.51h3.83v-2.43h-4.8v2.59c0,3.72-.27,8.11-2.18,11.42-.29-.25-.86-.56-1.28-.72,1.76-3.13,1.98-7.34,1.98-10.7v-7.34c3.72-.32,8.13-.88,10.61-1.51l1.31,1.19c-2.79.7-6.82,1.19-10.43,1.49v2.18h4.8v-2.3h1.62v2.3h5.09v1.4h-5.09Zm2.3,3.78h-6.19v1.8h6.19v-1.8Zm0,3h-6.19v1.76h6.19v-1.76Zm0,4.84v-1.89h-6.19v1.89h6.19Z" style="fill: #fff; stroke-width: 0px;"/>
          <path d="m521.62,131.29c-2.09.65-4.28,1.35-6.01,1.87l-.34-1.53c.74-.18,1.62-.43,2.59-.72v-6.33h-2.09v-1.49h2.09v-5h-2.32v-1.51h6.01v1.51h-2.21v5h1.96v1.49h-1.96v5.9l2.09-.65.18,1.46Zm13.94-1.06c-.97.61-2.12,1.26-3.13,1.73,1.04.97,2.34,1.73,3.85,2.14-.36.29-.81.88-1.01,1.28-3.09-1.01-5.27-3.33-6.37-6.33-.79.7-1.73,1.37-2.75,1.96v2.59l3.76-.86c-.05.36-.02.95,0,1.24-4.3,1.1-4.93,1.31-5.32,1.53-.09-.36-.38-.95-.59-1.24.29-.16.74-.5.74-1.4v-1.13c-.81.38-1.64.74-2.43.99-.2-.36-.63-.88-.97-1.15,1.96-.52,4.23-1.53,5.79-2.68h-3.36v-4.62h10.61v4.62h-4.12c.34.77.79,1.53,1.33,2.16.99-.54,2.12-1.31,2.82-1.85l1.15.99Zm.25-7.16h-13.54v-1.37h13.54v1.37Zm-.77-2.5h-11.85v-4.73h11.85v4.73Zm-8.31-3.51h-2.12v2.3h2.12v-2.3Zm-1.42,10.61h7.48v-2.12h-7.48v2.12Zm4.82-10.61h-2.21v2.3h2.21v-2.3Zm3.45,0h-2.25v2.3h2.25v-2.3Z" style="fill: #fff; stroke-width: 0px;"/>
        </g>
      </g>
      <g id="index_btn2">
        <rect id="index_btn2_bg_hover" x="218.1" y=".43" width="156.25" height="202.23" rx="10.9" ry="10.9" style="fill: #008e8a; stroke-width: 0px;"/>
        <rect id="index_btn2_bg" x="218.1" y=".43" width="156.25" height="202.23" rx="10.9" ry="10.9" style="fill: #44a5a6; stroke-width: 0px;"/>
        <rect x="211.29" y="186.45" width="168.09" height="37.57" style="fill: #3e3e3f; stroke-width: 0px;"/>
        <g>
          <rect x="379.37" y="186.45" width="5.04" height="8.63" style="fill: #417aa7; stroke-width: 0px;"/>
          <rect x="384.42" y="178.68" width="7.77" height="24.17" style="fill: #417aa7; stroke-width: 0px;"/>
        </g>
        <g>
          <path d="m336.76,249.51c-14.04,0-25.5-11.45-25.5-25.5s11.45-25.5,25.5-25.5c14.04,0,25.5,11.45,25.5,25.5s-11.45,25.5-25.5,25.5Z" style="fill: #f4da9a; fill-rule: evenodd; stroke: #d6ac62; stroke-miterlimit: 22.93; stroke-width: 8.05px;"/>
          <path d="m253.9,249.51c-14.04,0-25.5-11.45-25.5-25.5s11.45-25.5,25.5-25.5c14.04,0,25.5,11.45,25.5,25.5,0,14.04-11.45,25.5-25.5,25.5Z" style="fill: #f4da9a; fill-rule: evenodd; stroke: #d6ac62; stroke-miterlimit: 22.93; stroke-width: 8.05px;"/>
        </g>
        <g>
          <rect x="204.84" y="186.45" width="6.45" height="8.63" style="fill: #417aa7; stroke-width: 0px;"/>
          <rect x="197.07" y="178.68" width="7.77" height="24.17" style="fill: #417aa7; stroke-width: 0px;"/>
        </g>
        <path d="m337.37,232.61c-4.33,0-7.86-3.53-7.86-7.86,0-4.33,3.53-7.86,7.86-7.86,4.33,0,7.86,3.53,7.86,7.86s-3.53,7.86-7.86,7.86Z" style="fill: #b2793c; fill-rule: evenodd; stroke-width: 0px;"/>
        <path d="m253.78,232.61c-4.33,0-7.86-3.53-7.86-7.86,0-4.33,3.53-7.86,7.86-7.86s7.86,3.53,7.86,7.86c0,4.33-3.53,7.86-7.86,7.86Z" style="fill: #b2793c; fill-rule: evenodd; stroke-width: 0px;"/>
        <g>
          <path d="m236.81,121.13c-1.08,5.86-3.72,10.02-6.89,12.25-.25-.36-.92-1.01-1.33-1.26,2.86-1.87,5.14-5.25,6.22-9.68h-5.5v-1.67h6.08l.34-.07,1.08.43Zm10.65-.81c-1.49,1.71-3.45,3.74-5.02,5.07,1.91,2.77,4.35,5.11,7.05,6.37-.38.34-.95,1.01-1.24,1.51-3.49-1.85-6.4-5.41-8.45-9.46v9.5c0,1.1-.27,1.64-.92,1.94-.68.31-1.8.36-3.51.36-.07-.5-.36-1.33-.63-1.82,1.28.04,2.45.04,2.79.04.38-.02.52-.14.52-.52v-18.22h1.76v5.41c.5,1.24,1.1,2.48,1.8,3.65,1.51-1.4,3.27-3.38,4.35-4.91l1.51,1.08Z" style="fill: #fff; stroke-width: 0px;"/>
          <path d="m271.56,128.79v1.55h-20.29v-1.55h2.27l-.43-11.89c1.4-.5,3.09-1.17,4.17-1.73l.81,1.37c-1.04.43-2.27.86-3.42,1.22l.09,2.64h3.02v1.44h-2.97l.09,2.75h2.97v1.44h-2.91l.09,2.77h12.77c.05-.79.11-1.73.16-2.7h-2.93v-1.42h2.97c.05-.9.07-1.82.11-2.77h-2.97v-1.44h3c.02-.97.04-1.91.04-2.82h-3.24v-1.46h4.77c-.02,3.94-.14,9.28-.34,12.61h2.16Zm-12.3,2.93c-1.85,1.4-4.53,2.91-6.71,3.85-.23-.34-.68-.9-.99-1.26,2.14-.88,4.84-2.36,6.26-3.6l1.44,1.01Zm1.73-8.06c-.23,1.58-.7,3.13-1.37,4.21-.25-.2-.83-.56-1.17-.72.7-.99,1.04-2.34,1.24-3.72l1.31.23Zm1.55-1.19h-3.58v-7.27h1.46v2.09h3.72v1.42h-3.72v2.41h2.95v.02h.61v5.92c0,.7-.14.99-.63,1.22-.5.2-1.28.2-2.36.2-.07-.36-.25-.81-.43-1.15.79.04,1.46.04,1.69.02.25,0,.29-.09.29-.29v-4.59Zm1.94,8.18c2.39,1.13,4.95,2.52,6.55,3.6l-1.1,1.26c-1.53-1.08-4.03-2.57-6.37-3.72l.92-1.15Z" style="fill: #fff; stroke-width: 0px;"/>
          <path d="m293.97,132.98v1.64h-20.04v-1.64h9.08v-9.08h-7.66v-1.64h7.66v-7.14h1.76v7.14h7.77v1.64h-7.77v9.08h9.21Z" style="fill: #fff; stroke-width: 0px;"/>
          <path d="m302.19,129.53c-1.98.81-4.03,1.67-5.72,2.32l-.45-1.58c.79-.23,1.71-.59,2.75-.97v-7.27h-2.34v-1.6h2.34v-5.07h1.4v5.07h2.07v1.6h-2.07v6.76l1.73-.68.29,1.42Zm13.67,1.22c-.83.65-1.89,1.26-2.79,1.73,1.04.79,2.32,1.35,3.81,1.69-.34.29-.72.86-.95,1.26-3.11-.86-5.34-2.82-6.55-5.5-.7.56-1.53,1.1-2.43,1.58v2.18l3.69-.7c-.02.38.02.92.05,1.24-4.19.92-4.82,1.1-5.18,1.35-.09-.34-.36-.92-.56-1.19.29-.14.7-.41.7-1.22v-1.04c-1.24.56-2.57,1.04-3.81,1.4-.18-.29-.61-.9-.86-1.17,2.34-.56,4.93-1.46,6.69-2.66h-5.18v-1.17h3.67v-1.22h-2.36v-1.06h2.36v-1.17h-3.06v-1.15h3.06v-1.1h-2.5v-3.65h5.2v3.65h-1.22v1.1h3.9v-1.08h-1.24v-3.67h5.29v3.67h-2.57v1.08h2.95v1.15h-2.95v1.17h2.52v1.06h-2.52v1.22h3.72v1.17h-6.04c.34.72.83,1.37,1.42,1.96.9-.5,1.98-1.22,2.66-1.71l1.08.79Zm.83-12.48h-14.32v-1.35h6.46c-.23-.56-.5-1.15-.77-1.64l1.35-.41c.43.61.81,1.44,1.06,2.05h6.22v1.35Zm-11.78,3.6h2.64v-1.71h-2.64v1.71Zm2.73,4.39h3.9v-1.17h-3.9v1.17Zm0,2.27h3.9v-1.22h-3.9v1.22Zm3.92-6.62h2.73v-1.76h-2.73v1.76Z" style="fill: #fff; stroke-width: 0px;"/>
          <path d="m324.78,131.29c-2.09.65-4.28,1.35-6.01,1.87l-.34-1.53c.74-.18,1.62-.43,2.59-.72v-6.33h-2.09v-1.49h2.09v-5h-2.32v-1.51h6.01v1.51h-2.21v5h1.96v1.49h-1.96v5.9l2.09-.65.18,1.46Zm13.94-1.06c-.97.61-2.12,1.26-3.13,1.73,1.04.97,2.34,1.73,3.85,2.14-.36.29-.81.88-1.01,1.28-3.09-1.01-5.27-3.33-6.37-6.33-.79.7-1.73,1.37-2.75,1.96v2.59l3.76-.86c-.04.36-.02.95,0,1.24-4.3,1.1-4.93,1.31-5.31,1.53-.09-.36-.38-.95-.59-1.24.29-.16.74-.5.74-1.4v-1.13c-.81.38-1.64.74-2.43.99-.2-.36-.63-.88-.97-1.15,1.96-.52,4.23-1.53,5.79-2.68h-3.36v-4.62h10.61v4.62h-4.12c.34.77.79,1.53,1.33,2.16.99-.54,2.12-1.31,2.82-1.85l1.15.99Zm.25-7.16h-13.54v-1.37h13.54v1.37Zm-.77-2.5h-11.85v-4.73h11.85v4.73Zm-8.31-3.51h-2.12v2.3h2.12v-2.3Zm-1.42,10.61h7.48v-2.12h-7.48v2.12Zm4.82-10.61h-2.21v2.3h2.21v-2.3Zm3.45,0h-2.25v2.3h2.25v-2.3Z" style="fill: #fff; stroke-width: 0px;"/>
          <path d="m348.2,130.03c-2.25.92-4.68,1.87-6.58,2.59l-.54-1.69c.79-.25,1.76-.59,2.82-.97v-7.88h-2.48v-1.58h2.48v-5.2h1.62v5.2h2.18v1.58h-2.18v7.3l2.36-.88.32,1.53Zm10.79,3.96c.32,0,.65-.02.77-.09.18-.04.34-.23.41-.47.05-.32.07-1.01.09-1.91.34.29.9.59,1.35.72-.04.88-.14,1.8-.27,2.18-.18.34-.43.59-.83.7-.34.11-.95.18-1.37.18h-1.51c-.52,0-1.19-.11-1.53-.38-.41-.27-.56-.63-.56-1.82v-3.33h-2c-.36,3.24-1.51,4.96-5.61,5.92-.16-.38-.59-1.01-.88-1.31,3.65-.74,4.62-2,4.91-4.62h-2.34v-6.37h10.23v6.37h-2.73v3.49c0,.34.02.56.2.63.14.09.34.11.61.11h1.08Zm2.03-11.78h-12.5v-1.44h3.18c-.11-.61-.41-1.49-.7-2.16l1.37-.29c.29.7.68,1.64.81,2.23l-.83.23h3.74c.34-.72.74-1.71.95-2.39l1.55.34c-.34.72-.7,1.44-.99,2.05h3.42v1.44Zm-.59-4.1h-11.24v-1.42h4.86c-.18-.5-.43-1.01-.63-1.49l1.55-.29c.27.54.56,1.22.77,1.78h4.68v1.42Zm-9.28,7.88h7.07v-1.46h-7.07v1.46Zm0,2.61h7.07v-1.51h-7.07v1.51Z" style="fill: #fff; stroke-width: 0px;"/>
        </g>
      </g>
      <g id="index_btn1">
        <rect id="index_btn1_bg_hover" x="21.03" y=".43" width="156.25" height="202.23" rx="10.9" ry="10.9" style="fill: #aa1837; stroke-width: 0px;"/>
        <rect id="index_btn1_bg" x="21.03" y=".43" width="156.25" height="202.23" rx="10.9" ry="10.9" style="fill: #d43b56; stroke-width: 0px;"/>
        <rect x="14.22" y="186.45" width="168.09" height="37.57" style="fill: #3e3e3f; stroke-width: 0px;"/>
        <g>
          <rect x="182.31" y="186.45" width="5.04" height="8.63" style="fill: #417aa7; stroke-width: 0px;"/>
          <rect x="187.35" y="178.68" width="7.77" height="24.17" style="fill: #417aa7; stroke-width: 0px;"/>
        </g>
        <g>
          <path d="m139.69,249.51c-14.04,0-25.5-11.45-25.5-25.5s11.45-25.5,25.5-25.5c14.04,0,25.5,11.45,25.5,25.5s-11.45,25.5-25.5,25.5Z" style="fill: #f4da9a; fill-rule: evenodd; stroke: #d6ac62; stroke-miterlimit: 22.93; stroke-width: 8.05px;"/>
          <path d="m56.83,249.51c-14.04,0-25.5-11.45-25.5-25.5s11.45-25.5,25.5-25.5c14.04,0,25.5,11.45,25.5,25.5s-11.45,25.5-25.5,25.5Z" style="fill: #f4da9a; fill-rule: evenodd; stroke: #d6ac62; stroke-miterlimit: 22.93; stroke-width: 8.05px;"/>
        </g>
        <g>
          <rect x="7.77" y="186.45" width="6.45" height="8.63" style="fill: #417aa7; stroke-width: 0px;"/>
          <rect x="0" y="178.68" width="7.77" height="24.17" style="fill: #417aa7; stroke-width: 0px;"/>
        </g>
        <path d="m140.3,232.61c-4.33,0-7.86-3.53-7.86-7.86,0-4.33,3.53-7.86,7.86-7.86,4.33,0,7.86,3.53,7.86,7.86,0,4.33-3.53,7.86-7.86,7.86Z" style="fill: #b2793c; fill-rule: evenodd; stroke-width: 0px;"/>
        <path d="m56.71,232.61c-4.33,0-7.86-3.53-7.86-7.86,0-4.33,3.53-7.86,7.86-7.86s7.86,3.53,7.86,7.86c0,4.33-3.53,7.86-7.86,7.86Z" style="fill: #b2793c; fill-rule: evenodd; stroke-width: 0px;"/>
        <g>
          <path d="m54.47,123.18c1.58,4.95,4.5,9.03,8.85,10.81-.41.38-.97,1.08-1.26,1.58-4.32-2.05-7.18-6.04-8.96-11.15-1.08,4.32-3.51,8.65-8.99,11.15-.25-.45-.79-1.04-1.26-1.37,5.59-2.43,7.84-6.76,8.76-11.01h-8.31v-1.71h8.58c.34-2.36.32-4.62.34-6.4h1.8c-.02,1.8-.05,4.03-.36,6.4h9.3v1.71h-8.49Z" style="fill: #fff; stroke-width: 0px;"/>
          <path d="m70.42,118.43c-1.1,1.76-2.48,3.29-3.85,4.41-.27-.34-.86-.99-1.22-1.31,2.07-1.53,3.94-3.94,5.02-6.51l1.62.45c-.25.56-.5,1.08-.79,1.62h13.83v1.33h-14.62Zm1.17,12.48c-1.04,1.76-2.97,3.65-4.66,4.59-.25-.38-.72-.9-1.06-1.22,1.64-.77,3.51-2.36,4.48-3.9l1.24.52Zm2.23-1.19v5.88h-1.6v-5.88h-6.04v-1.35h6.04v-3.92h1.6v3.92h5.9v1.35h-5.9Zm8.33-7.09c-.02,6.96.16,11.33,1.96,11.33.47,0,.59-1.33.63-3.27.34.38.79.77,1.15.99-.14,2.95-.5,3.92-1.87,3.92-3.13,0-3.47-4.37-3.51-11.64h-12.86v-1.33h14.5Zm-13.18,2.05c.74.86,1.53,2.03,1.8,2.84l-1.33.56c-.27-.79-.99-1.98-1.73-2.86l1.26-.54Zm.97-3.51v-1.28h13.38v1.28h-13.38Zm5.77,9.28c1.49,1.06,3.31,2.59,4.23,3.63l-1.06,1.01c-.86-1.04-2.68-2.66-4.14-3.76l.97-.88Zm2.86-5.18c-.81,1.06-1.73,2.23-2.45,3l-1.08-.47c.68-.86,1.58-2.18,2.05-3.09l1.49.56Z" style="fill: #fff; stroke-width: 0px;"/>
          <path d="m93.93,131.29c-2.09.65-4.28,1.35-6.01,1.87l-.34-1.53c.74-.18,1.62-.43,2.59-.72v-6.33h-2.09v-1.49h2.09v-5h-2.32v-1.51h6.01v1.51h-2.21v5h1.96v1.49h-1.96v5.9l2.09-.65.18,1.46Zm13.94-1.06c-.97.61-2.12,1.26-3.13,1.73,1.04.97,2.34,1.73,3.85,2.14-.36.29-.81.88-1.01,1.28-3.09-1.01-5.27-3.33-6.37-6.33-.79.7-1.73,1.37-2.75,1.96v2.59l3.76-.86c-.05.36-.02.95,0,1.24-4.3,1.1-4.93,1.31-5.32,1.53-.09-.36-.38-.95-.59-1.24.29-.16.74-.5.74-1.4v-1.13c-.81.38-1.64.74-2.43.99-.2-.36-.63-.88-.97-1.15,1.96-.52,4.23-1.53,5.79-2.68h-3.36v-4.62h10.61v4.62h-4.12c.34.77.79,1.53,1.33,2.16.99-.54,2.12-1.31,2.82-1.85l1.15.99Zm.25-7.16h-13.54v-1.37h13.54v1.37Zm-.77-2.5h-11.85v-4.73h11.85v4.73Zm-8.31-3.51h-2.12v2.3h2.12v-2.3Zm-1.42,10.61h7.48v-2.12h-7.48v2.12Zm4.82-10.61h-2.21v2.3h2.21v-2.3Zm3.45,0h-2.25v2.3h2.25v-2.3Z" style="fill: #fff; stroke-width: 0px;"/>
          <path d="m117.35,130.03c-2.25.92-4.68,1.87-6.58,2.59l-.54-1.69c.79-.25,1.76-.59,2.82-.97v-7.88h-2.48v-1.58h2.48v-5.2h1.62v5.2h2.18v1.58h-2.18v7.3l2.36-.88.32,1.53Zm10.79,3.96c.32,0,.65-.02.77-.09.18-.04.34-.23.41-.47.05-.32.07-1.01.09-1.91.34.29.9.59,1.35.72-.04.88-.14,1.8-.27,2.18-.18.34-.43.59-.83.7-.34.11-.95.18-1.37.18h-1.51c-.52,0-1.19-.11-1.53-.38-.41-.27-.56-.63-.56-1.82v-3.33h-2c-.36,3.24-1.51,4.96-5.61,5.92-.16-.38-.59-1.01-.88-1.31,3.65-.74,4.62-2,4.91-4.62h-2.34v-6.37h10.23v6.37h-2.73v3.49c0,.34.02.56.2.63.14.09.34.11.61.11h1.08Zm2.03-11.78h-12.5v-1.44h3.18c-.11-.61-.41-1.49-.7-2.16l1.37-.29c.29.7.68,1.64.81,2.23l-.83.23h3.74c.34-.72.74-1.71.95-2.39l1.55.34c-.34.72-.7,1.44-.99,2.05h3.42v1.44Zm-.59-4.1h-11.24v-1.42h4.86c-.18-.5-.43-1.01-.63-1.49l1.55-.29c.27.54.56,1.22.77,1.78h4.68v1.42Zm-9.28,7.88h7.07v-1.46h-7.07v1.46Zm0,2.61h7.07v-1.51h-7.07v1.51Z" style="fill: #fff; stroke-width: 0px;"/>
          <path d="m153.32,128.79v1.55h-20.29v-1.55h2.27l-.43-11.89c1.4-.5,3.09-1.17,4.17-1.73l.81,1.37c-1.04.43-2.27.86-3.42,1.22l.09,2.64h3.02v1.44h-2.97l.09,2.75h2.97v1.44h-2.91l.09,2.77h12.77c.05-.79.11-1.73.16-2.7h-2.93v-1.42h2.97c.05-.9.07-1.82.11-2.77h-2.97v-1.44h3c.02-.97.04-1.91.04-2.82h-3.24v-1.46h4.77c-.02,3.94-.14,9.28-.34,12.61h2.16Zm-12.3,2.93c-1.85,1.4-4.53,2.91-6.71,3.85-.23-.34-.68-.9-.99-1.26,2.14-.88,4.84-2.36,6.26-3.6l1.44,1.01Zm1.73-8.06c-.23,1.58-.7,3.13-1.37,4.21-.25-.2-.83-.56-1.17-.72.7-.99,1.04-2.34,1.24-3.72l1.31.23Zm1.55-1.19h-3.58v-7.27h1.46v2.09h3.72v1.42h-3.72v2.41h2.95v.02h.61v5.92c0,.7-.14.99-.63,1.22-.5.2-1.28.2-2.36.2-.07-.36-.25-.81-.43-1.15.79.04,1.46.04,1.69.02.25,0,.29-.09.29-.29v-4.59Zm1.94,8.18c2.39,1.13,4.95,2.52,6.55,3.6l-1.1,1.26c-1.53-1.08-4.03-2.57-6.37-3.72l.92-1.15Z" style="fill: #fff; stroke-width: 0px;"/>
          <path d="m97.04,160.5v1.49h-20.34v-1.49h2.68v-5.52h14.93v5.52h2.73Zm-9.73-6.87h-9.82v-10.68h9.46v1.33h-3.83v1.69h3.29v4.32h-3.29v2.03h4.19v1.31Zm-8.29-9.35v1.69h2.68v-1.69h-2.68Zm5.95,2.88h-5.95v1.96h5.95v-1.96Zm-5.95,5.16h2.68v-2.03h-2.68v2.03Zm1.94,8.18h2.86v-4.14h-2.86v4.14Zm4.39-4.14v4.14h2.91v-4.14h-2.91Zm4.66-9.59c-.56,1.22-1.19,2.3-1.89,3.18-.25-.25-.92-.74-1.28-.97,1.42-1.64,2.48-4.23,3.06-6.89l1.53.34c-.23.99-.52,1.96-.86,2.88h6.44v1.46h-7Zm-.95,5.83v-1.51h7.52v1.51h-7.52Zm.74,3.76v4.14h2.86v-4.14h-2.86Z" style="fill: #fff; stroke-width: 0px;"/>
          <path d="m99.99,148.29c1.31.52,2.91,1.37,3.69,2.07l-.95,1.37c-.77-.7-2.36-1.64-3.69-2.23l.95-1.22Zm2.64,6.01l1.33.88c-.83,2.34-1.96,5.09-2.93,7.16l-1.51-.9c.9-1.73,2.18-4.62,3.11-7.14Zm-1.64-12c1.26.59,2.79,1.53,3.56,2.27l-.99,1.33c-.72-.74-2.27-1.78-3.54-2.41l.97-1.19Zm6.69,15.72c-.77,1.73-2.05,3.54-3.24,4.66-.27-.25-.95-.7-1.31-.92,1.19-1.04,2.34-2.61,3-4.14l1.55.41Zm4.03-14.95v14.08h-6.51v-14.08h6.51Zm-5.07,4.23h3.56v-2.75h-3.56v2.75Zm0,4.17h3.56v-2.77h-3.56v2.77Zm0,4.21h3.56v-2.82h-3.56v2.82Zm3.78,1.87c.92,1.06,2.05,2.55,2.57,3.45l-1.33.83c-.5-.95-1.6-2.48-2.5-3.58l1.26-.7Zm4.46-13.18v12.79h-1.49v-12.79h1.49Zm3.94-2.3v18.45c0,1.04-.25,1.51-.88,1.78-.63.27-1.69.32-3.54.32-.07-.43-.27-1.15-.5-1.58,1.33.04,2.52.02,2.86,0,.38,0,.54-.11.54-.5v-18.47h1.51Z" style="fill: #fff; stroke-width: 0px;"/>
        </g>
      </g>
      <g>
        <path d="m697.8,93.45c-1.12-.32-2.31-.49-3.34-.99-3.89-1.87-5.93-5.03-6.12-9.34-.06-1.31.89-2.3,2.12-2.3,1.2,0,2.1.94,2.13,2.25.08,3.24,2.62,5.92,5.81,6.12,3.27.21,6.15-2.12,6.63-5.35.53-3.62-2.26-6.98-5.92-7.11-.27,0-.53,0-.8,0-10.8,0-21.6-.01-32.41.01-1.31,0-2.23-.43-2.68-1.69v-.96c.48-1.24,1.4-1.65,2.71-1.64,10.91.03,21.81.01,32.72.02,4.78,0,8.79,2.88,10.2,7.3,1.99,6.2-2.15,12.73-8.62,13.6-.1.01-.19.06-.29.1h-2.13Z" style="fill: #fff; stroke-width: 0px;"/>
        <path d="m717.71,58.86c-.12.57-.21,1.15-.37,1.71-1.25,4.59-5.36,7.75-10.13,7.76-11.07.01-22.14,0-33.21,0-1.33,0-2.29-.91-2.28-2.15,0-1.23.96-2.11,2.31-2.11,11,0,22,0,32.99,0,3.32,0,5.86-2.19,6.37-5.47.51-3.34-2.19-6.74-5.56-6.98-3.75-.27-6.69,2.33-6.87,6.09-.07,1.39-.96,2.28-2.24,2.24-1.23-.04-2.06-1.01-2-2.39.03-.72.1-1.46.27-2.16,1.13-4.79,5.61-8.41,11.06-8.05,4.76.31,8.9,4.2,9.56,9.09.01.1.06.19.1.29v2.13Z" style="fill: #fff; stroke-width: 0px;"/>
        <path d="m663.21,57.37c.45-1.27,1.38-1.7,2.68-1.69,5.8.03,11.6.02,17.4.01,3.04,0,5.5-1.91,6.2-4.76.83-3.37-1.23-6.71-4.67-7.56-3.23-.8-6.64,1.29-7.44,4.57-.12.5-.17,1.01-.2,1.52-.08,1.24-.98,2.14-2.15,2.12-1.21-.02-2.12-1-2.11-2.27.03-4.3,2.84-8.28,6.94-9.72.81-.29,1.67-.43,2.51-.64.71,0,1.42,0,2.13,0,.6.13,1.21.24,1.8.41,4.64,1.32,7.86,5.73,7.63,10.43-.25,5.02-3.74,9.09-8.6,9.98-.73.13-1.48.16-2.22.16-5.73.01-11.46-.02-17.19.03-1.31,0-2.23-.4-2.71-1.64v-.96Z" style="fill: #fff; stroke-width: 0px;"/>
      </g>
      <g>
        <path d="m886.57,39.92c.97.17,1.95.3,2.92.51,6.77,1.46,12.5,7.33,13.83,14.13,1.03,5.29.02,10.15-3.06,14.58-.63.91-1.39,1.73-2.03,2.64-1.5,2.13-2.24,4.51-2.2,7.13.01.84.01,1.68,0,2.52-.03,2.08-.96,3.58-2.87,4.46-.19.09-.36.35-.4.57-.81,3.59-4.11,6.15-7.79,6.03-3.42-.11-6.46-2.66-7.22-6.03-.05-.22-.25-.49-.45-.59-1.8-.85-2.74-2.26-2.82-4.24-.04-.8-.03-1.61,0-2.41.09-3.34-1.01-6.22-3.19-8.74-3.12-3.61-4.57-7.83-4.51-12.59.09-7.02,4.63-13.76,11.11-16.46,1.83-.76,3.72-1.25,5.69-1.42.12,0,.23-.05.34-.08.89,0,1.78,0,2.67,0Zm6.4,37.04c.18-.82.33-1.63.55-2.41.67-2.48,2.08-4.53,3.68-6.51,2.85-3.54,3.92-7.61,3.22-12.11-.51-3.26-1.94-6.09-4.29-8.39-3.47-3.4-7.68-4.95-12.52-4.43-5.81.63-10.08,3.67-12.41,9-2.57,5.88-1.65,11.43,2.45,16.4,1.49,1.81,2.68,3.75,3.3,6.02.22.8.37,1.62.55,2.44h15.48Zm-15.44,3.13c0,.17,0,.32,0,.47,0,.41-.02.82.02,1.23.08.77.7,1.34,1.5,1.35,4.12.01,8.24.01,12.36,0,.71,0,1.3-.43,1.43-1.1.12-.64.09-1.3.12-1.95h-15.43Zm11.99,6.16h-8.58c.55,1.81,2.43,3.17,4.32,3.15,1.89-.02,3.73-1.37,4.26-3.15Z" style="fill: #fff; stroke-width: 0px;"/>
        <path d="m858.94,59.53c.41-.88,1.1-1.21,2.06-1.14.82.05,1.64,0,2.46.01.95.01,1.63.66,1.63,1.54,0,.88-.68,1.53-1.63,1.54-.82.01-1.64-.04-2.46.01-.95.06-1.66-.25-2.06-1.14v-.82Z" style="fill: #fff; stroke-width: 0px;"/>
        <path d="m864.66,51.62c-.04.79-.31,1.26-.87,1.53-.55.27-1.14.26-1.59-.16-.85-.79-1.69-1.6-2.46-2.46-.54-.59-.43-1.5.14-2.04.55-.52,1.43-.6,2.01-.07.83.76,1.63,1.57,2.39,2.39.23.24.3.63.38.8Z" style="fill: #fff; stroke-width: 0px;"/>
        <path d="m907.49,53.33c-.77-.04-1.24-.31-1.51-.86-.26-.53-.27-1.11.13-1.55.8-.88,1.65-1.74,2.53-2.54.55-.5,1.44-.39,1.96.13.53.52.66,1.41.17,1.96-.81.9-1.69,1.74-2.57,2.57-.2.19-.55.23-.7.28Z" style="fill: #fff; stroke-width: 0px;"/>
        <path d="m862.97,66.55c.74.03,1.22.29,1.5.84.28.55.28,1.14-.13,1.59-.81.88-1.65,1.73-2.54,2.53-.53.48-1.41.37-1.93-.13-.54-.51-.69-1.41-.2-1.96.82-.92,1.71-1.76,2.61-2.61.19-.18.53-.21.68-.27Z" style="fill: #fff; stroke-width: 0px;"/>
        <path d="m907.56,66.54c.2.11.6.24.89.5.73.67,1.42,1.38,2.11,2.09.67.69.66,1.63.03,2.24-.62.59-1.53.57-2.21-.08-.73-.7-1.44-1.41-2.14-2.14-.47-.49-.56-1.09-.28-1.71.27-.59.76-.86,1.59-.9Z" style="fill: #fff; stroke-width: 0px;"/>
        <path d="m908.48,58.4c.5,0,.99-.01,1.49,0,.88.03,1.54.69,1.54,1.53,0,.84-.65,1.52-1.53,1.54-1.03.02-2.05.02-3.08,0-.88-.02-1.54-.69-1.54-1.53,0-.86.66-1.52,1.58-1.54.51-.01,1.03,0,1.54,0Z" style="fill: #fff; stroke-width: 0px;"/>
        <path d="m885.7,46.08c5.71.27,10.45,4.28,11.6,9.87.15.73.2,1.49.24,2.24.05.99-.58,1.71-1.47,1.74-.89.03-1.56-.64-1.59-1.64-.11-3.09-1.39-5.57-3.87-7.4-1.44-1.06-3.08-1.61-4.86-1.72-.22-.01-.45,0-.67-.03-.82-.1-1.4-.78-1.37-1.59.03-.8.67-1.44,1.49-1.48.17,0,.34,0,.51,0Z" style="fill: #fff; stroke-width: 0px;"/>
      </g>
      <path id="Layer_1" d="m281.08,63.3c1.25-.72,6.32-3.76,7.34-4.12,4.24-1.52,5.19,3.01,10.32,5.91,2.48,1.4,6.26,1.7,7.28,3.73.84,2.12-1.31,4.09-3.94,3.04-1.46-.57-2.33,1.64-.87,2.21,4.21,1.67,7.94-1.52,7.34-5.04l8.38-4.86c3.4-1.94,5.55,2.68,2.77,4.3l-14.14,8.14c-3.16,1.85-5.97,2.09-9.75,1.01-2.8-.78-6.12-2.48-9.81-5.82l-4.92-8.5Zm14.71,25.33c-1.46-.69-2.92-1.37-6.32-.03-2.45.95-3.46.51-4.44.03-1.49-.69-2.95-1.37-6.32-.03-3.16,1.22-4.15.27-4.15.27-1.13-1.1-2.77.6-1.64,1.7,0,0,2.06,2.06,6.65.24,2.45-.95,3.43-.48,4.44-.03,1.46.69,2.92,1.37,6.32.03,2.45-.95,3.46-.48,4.44-.03,1.49.69,2.95,1.37,6.32.03,2.45-.95,3.46-.48,4.47-.03,1.46.69,2.92,1.37,6.32.03,3.16-1.22,4.12-.24,4.12-.24,1.13,1.07,2.77-.63,1.67-1.7,0-.03-2.06-2.06-6.65-.27-2.45.95-3.46.51-4.47.03-1.46-.69-2.92-1.37-6.32-.03-2.45.95-3.43.51-4.44.03Zm-.15-4.86c-3.4-1.31-4.86-.63-6.32.03-.98.48-2,.95-4.44-.03-4.59-1.79-6.65.27-6.65.27-1.13,1.1.54,2.8,1.64,1.7.03,0,.98-.98,4.15.27,3.4,1.31,4.86.66,6.32-.03.98-.48,2-.92,4.44.03,3.4,1.31,4.86.66,6.32-.03,1.01-.48,2-.92,4.47.03,3.37,1.31,4.83.66,6.29-.03,1.01-.48,2.03-.92,4.47.03,4.98,1.94,8.14-.45,6.68-1.94-.48-.48-1.22-.48-1.7-.03,0,0-.95.98-4.12-.27-3.4-1.31-4.86-.63-6.32.03-1.01.48-2,.95-4.44-.03-3.4-1.31-4.86-.63-6.32.03-1.01.48-2.03.95-4.47-.03Zm3.1-42.48c-10.35,11.75-3.55,18.02,2.27,16.88,3.85,10.32,26.49,3.76,8.32-16.88-.48-.54-1.22-.6-1.73-.15-.81.72-3.19,3.97-3.64,4.68-.89-1.46-2-2.95-3.25-4.39-.27-.33-.51-.6-1.04-.6-.33,0-.69.15-.92.45Zm-2.42,13.01c-1.7-2.63.45-6.89,3.34-10.41,1.13,1.37,2.15,2.86,2.86,4.33-1.22,2.33-2.18,5.04-2,7.64-1.55.3-3.31-.21-4.21-1.55Zm17.39,2.48c-1.61,6.41-14.53,5.04-9.78-6,1.1-2.51,2.74-4.83,4.47-6.92,4.86,5.85,6.03,10.14,5.31,12.92Zm-25.24-.12c-.69.18-1.49.48-2.15.87l-13.28,7.67c-.57.33-.78,1.04-.45,1.64h.03l8.02,13.93c.51.98,1.79.89,2.18-.03l2.66-6.18c6.32,5.25,14.29,8.17,21.09,4.24l14.32-8.26c3.79-2.18,3.04-7.91-1.19-9.04-1.55-.42-2.74-.06-4.06.69l-8.08,4.68c-1.88-2.36-5.43-2.57-7.67-3.85-4.89-2.74-6.18-7.85-11.43-6.35Zm-9.46,7.85l4.71,8.14-2.15,4.95-6.32-10.95,3.76-2.15Z" style="fill: #fff; stroke-width: 0px;"/>
      <path d="m468.21,66.2c-.04-9.35,5.37-18.36,13.66-22.7-.89-1.59-2.93-4.6.15-5.22,4.81-.51,8.27,3.65,11.9,5.85-4.92,1.93-4.08,16.08-8.63,5.79-5.94,3.12-9.82,9.58-9.8,16.28-1.76.03-3.63-1.04-3.42-2.89-.07.39-.21.76-.41,1.1-.72,1.13-2.01,1.76-3.44,1.79Zm53.62-11.9c-.62-3.08-3.63-1.04-5.22-.15-4.34-8.29-13.36-13.7-22.7-13.66.03,1.82,1.11,3.53,2.89,3.84-1.84-.21-2.92,1.67-2.89,3.42,6.71-.02,13.17,3.86,16.28,9.8-10.3,4.55,3.85,3.71,5.79,8.63,2.2-3.63,6.36-7.09,5.85-11.9Zm-5.65,13.69c-.19.34-.34.71-.41,1.1.21-1.84-1.67-2.92-3.42-2.89.02,6.71-3.86,13.17-9.8,16.28-4.55-10.3-3.71,3.85-8.63,5.79,3.63,2.2,7.09,6.36,11.9,5.85,3.08-.62,1.04-3.63.15-5.22,8.29-4.34,13.7-13.36,13.66-22.7-1.43.03-2.72.67-3.44,1.79Zm-24.06,20.47c-.34-.19-.71-.34-1.1-.41,1.84.21,2.92-1.67,2.89-3.42-6.71.02-13.17-3.86-16.28-9.8,10.3-4.55-3.85-3.71-5.79-8.63-2.2,3.63-6.36,7.09-5.85,11.9.62,3.08,3.63,1.04,5.22.15,4.34,8.29,13.36,13.7,22.7,13.66-.03-1.43-.67-2.72-1.79-3.44Z" style="fill: #fff; stroke-width: 0px;"/>
      <g>
        <path d="m114.63,68.79c.62,4.72-1.26,9.64-5.34,12.69-6.01,4.5-14.55,3.27-19.05-2.74-4.44-5.93-3.29-14.32,2.51-18.87l1.29,1.72,2.19-8.01-8.29-.15,1.27,1.7c-8.41,6.49-10.08,18.59-3.69,27.12,6.45,8.61,18.69,10.38,27.31,3.93,6.18-4.63,8.83-12.23,7.46-19.35" style="fill: none; stroke: #fff; stroke-linecap: round; stroke-linejoin: round; stroke-width: 2.33px;"/>
        <path d="m106.46,70.06c0,3.04-2.46,5.5-5.5,5.5s-5.5-2.46-5.5-5.5,2.46-5.5,5.5-5.5" style="fill: none; stroke: #fff; stroke-linecap: round; stroke-linejoin: round; stroke-width: 2.33px;"/>
        <g>
          <path d="m127.24,43.97c3,6.45,1.85,14.35-3.48,19.66-5.33,5.31-13.24,6.42-19.67,3.39-3-6.45-1.85-14.35,3.48-19.66,5.33-5.31,13.24-6.42,19.67-3.39Z" style="fill: none; stroke: #fff; stroke-linecap: round; stroke-linejoin: round; stroke-width: 2.33px;"/>
          <line x1="127.24" y1="43.97" x2="104.78" y2="66.32" style="fill: none; stroke: #fff; stroke-linecap: round; stroke-linejoin: round; stroke-width: 2.33px;"/>
          <line x1="104.04" y1="67.07" x2="101.27" y2="69.82" style="fill: none; stroke: #fff; stroke-linecap: round; stroke-linejoin: round; stroke-width: 2.33px;"/>
          <line x1="115.83" y1="43.54" x2="116.29" y2="54.77" style="fill: none; stroke: #fff; stroke-linecap: round; stroke-linejoin: round; stroke-width: 2.33px;"/>
          <line x1="108.21" y1="47.25" x2="108.83" y2="62.27" style="fill: none; stroke: #fff; stroke-linecap: round; stroke-linejoin: round; stroke-width: 2.33px;"/>
          <line x1="127.62" y1="55.38" x2="116.39" y2="54.87" style="fill: none; stroke: #fff; stroke-linecap: round; stroke-linejoin: round; stroke-width: 2.33px;"/>
          <line x1="123.88" y1="62.99" x2="108.86" y2="62.3" style="fill: none; stroke: #fff; stroke-linecap: round; stroke-linejoin: round; stroke-width: 2.33px;"/>
        </g>
      </g>
      <g style="clip-path: url(#clippath);">
        <g>
          <g>
            <path d="m1026.68,186.17c-.37-.33-.69-.72-.94-1.18-1.19-2.15-.4-4.85,1.75-6.04,11.12-6.13,23.34-13.17,28.51-16.54-4.13-4.76-15.84-14.94-26.2-23.15-1.92-1.53-2.25-4.32-.72-6.25,1.53-1.92,4.32-2.25,6.25-.72.07.06,7.35,5.83,14.58,12.11,14.64,12.73,16.02,16.02,16.21,18.52.11,1.48-.36,2.87-1.33,3.92-2.89,3.13-24.04,14.95-33,19.89-1.69.93-3.73.65-5.1-.57Z" style="fill: #dda07d; stroke-width: 0px;"/>
            <path d="m1024.22,138.95l25.43,21.16c.99.82,2.38.98,3.51.38,2.13-1.13,5.49-3.38,7.46-7.04.69-1.29.39-2.9-.71-3.87l-21.06-18.66c-.36-.32-.78-.55-1.25-.68-2.43-.67-10.3-2.19-14.16,4.77-.73,1.32-.39,2.99.77,3.96Z" style="fill: #2e3446; stroke-width: 0px;"/>
            <path d="m1025.99,179.62l27.93-16.34s.14,4.09,5.11,8.09l-27.98,16.01s-3.71,1.17-5.38-2.09c-1.67-3.26.32-5.67.32-5.67Z" style="fill: #fdffff; stroke-width: 0px;"/>
            <g>
              <path d="m1009.36,191.42s3.45,11.23,15.85,18.22c.77.43,1.75.31,2.35-.35,1.29-1.4,2.76-4.22-.81-8.01-4.42-4.68-4.13-12.48-7.57-13.65-3.44-1.17-8.24.22-9.81,3.78Z" style="fill: #2e3446; stroke-width: 0px;"/>
              <path d="m1019.95,195.4l11.67-7.35s-4.06-3.66-5.17-8.94l-14.34,9.33s1.34,6.44,7.85,6.96Z" style="fill: #2e3446; stroke-width: 0px;"/>
              <path d="m1027.88,202.69s-2.32-1.92-6.66,2.15c0,0-6.8-5.51-10.69-15.16,0,0-1.25.74-1.59,2.02,0,0,2.55,6.58,8.03,11.87,4.16,4.01,7.47,6.21,8.83,7.04.4.25.92.19,1.26-.14,1.24-1.21,3.75-4.37.83-7.78Z" style="fill: #fdffff; stroke-width: 0px;"/>
              <path d="m1019.62,190.36c-1.05,1.19-2.5,1.62-3.24.97s-.48-2.14.57-3.33c1.05-1.19,2.5-1.62,3.24-.97.74.65.48,2.14-.57,3.33Z" style="fill: #fdffff; stroke-width: 0px;"/>
            </g>
          </g>
          <path d="m1084.58,126.91c-10.6,0-17.23-2.75-20.17-8.31-6.4-12.12,9.86-31.27,11.73-33.42,1.29-1.48,3.54-1.63,5.02-.34,1.48,1.29,1.63,3.54.34,5.02h0c-5.83,6.69-13.92,19.5-10.8,25.42,2.13,4.03,10.25,5.42,22.87,3.92,1.95-.23,3.72,1.16,3.95,3.11.23,1.95-1.16,3.72-3.11,3.95-3.59.43-6.87.64-9.84.64Z" style="fill: #dda07d; stroke-width: 0px;"/>
          <path d="m1051.94,211.32c-.48,0-.97-.08-1.45-.24-2.32-.8-3.56-3.33-2.76-5.65,5.08-14.76,10.47-31.46,11.27-35.57-2.23-4.25-16.2-20.75-28.51-34.32-1.65-1.82-1.51-4.63.31-6.28,1.82-1.65,4.63-1.51,6.28.31.07.08,7.59,8.37,14.99,17.05,16,18.74,15.95,20.87,15.91,22.93-.09,4.24-8.31,28.54-11.84,38.79-.63,1.84-2.36,3-4.2,3Zm7.29-41h0,0Z" style="fill: #ffc099; stroke-width: 0px;"/>
          <path d="m1037.67,141.53l-11.25-2.02c-5.34-.96-8.92-6.12-7.96-11.46h0c.96-5.34,6.12-8.92,11.46-7.96l11.25,2.02c5.34.96,8.92,6.12,7.96,11.46h0c-.96,5.34-6.12,8.92-11.46,7.96Z" style="fill: #353f5f; stroke-width: 0px;"/>
          <path d="m1029.1,138.3l21.43,25.21c.83.98,2.17,1.37,3.4.97,2.3-.75,5.99-2.39,8.56-5.66.9-1.16.88-2.79-.04-3.94l-17.55-21.99c-.3-.38-.68-.68-1.11-.89-2.28-1.08-9.77-3.92-14.77,2.27-.95,1.18-.9,2.88.08,4.03Z" style="fill: #353f5f; stroke-width: 0px;"/>
          <path d="m1047.08,206.87l11.16-35.04s2.82,2.96,9.19,2.67l-11.41,34.83s-2,3.33-5.41,2c-3.41-1.33-3.53-4.46-3.53-4.46Z" style="fill: #fdffff; stroke-width: 0px;"/>
          <path d="m1079.48,88.31h-.01c-.02-6.72-15.66-12.6-22.94-10.23-7.97,2.59-34.28,43.84-34.28,43.84,0,0,17.2,6.78,26.05,6.79,0,0,8.21-9.32,16.2-18.97,3.15-.09,7.17-.8,9.74-3.49,4.74-4.96,5.24-17.93,5.24-17.93Z" style="fill: #5faff9; stroke-width: 0px;"/>
          <path d="m1065.16,124.92c-10.75,0-17.59-2.85-20.82-8.62-7.02-12.56,8.35-32.57,10.12-34.81,1.22-1.54,3.46-1.8,5-.58,1.54,1.22,1.8,3.46.58,5h0c-3.73,4.72-13.48,19.79-9.49,26.92,2.43,4.34,10.72,5.91,23.35,4.4,1.95-.23,3.72,1.16,3.95,3.11.23,1.95-1.16,3.72-3.11,3.95-3.48.42-6.68.62-9.58.62Z" style="fill: #ffc099; stroke-width: 0px;"/>
          <path d="m1074.47,117.16s8.35-.29,10.19,2.11c1.3,1.7,4.71,8.17.48,9.11-1.86.41-2.34-.88-2.59-2.49-.33-2.1-2.3-2.99-3.43-3.23-1.7-.37-2.83,1.29-2.83,1.6,0,.25-3.8.3-3.8.3l1.98-7.39Z" style="fill: #ffc099; stroke-width: 0px;"/>
          <g>
            <path d="m1042.46,226.74s10.03,6.12,23.94,3.12c.86-.19,1.51-.93,1.53-1.81.03-1.9-.74-4.99-5.92-5.45-6.41-.57-11.37-6.6-14.72-5.19-3.35,1.41-6.02,5.63-4.83,9.34Z" style="fill: #2e3446; stroke-width: 0px;"/>
            <path d="m1053.02,222.69l3.85-13.24s-5.46-.05-9.8-3.26l-4.54,16.5s5.28,3.93,10.49,0Z" style="fill: #2e3446; stroke-width: 0px;"/>
            <path d="m1063.79,222.89s-3.01.1-3.55,6.03c0,0-8.74.39-18.06-4.25,0,0-.45,1.38.15,2.57,0,0,6.27,3.24,13.88,3.56,5.77.24,9.71-.31,11.28-.59.46-.08.82-.47.85-.94.12-1.73-.09-5.76-4.54-6.37Z" style="fill: #fdffff; stroke-width: 0px;"/>
            <path d="m1049.44,219.14c0,1.59-.8,2.87-1.78,2.87s-1.78-1.29-1.78-2.87.8-2.87,1.78-2.87,1.78,1.29,1.78,2.87Z" style="fill: #fdffff; stroke-width: 0px;"/>
          </g>
          <g>
            <g>
              <path d="m1059.08,56.28c-33.74-16.33-44.18,3.21-55.96,25.97,0,0,15.53,7.41,29.09-8.66,13.57-16.06,27.49-13.39,27.49-13.39l-.62-3.93Z" style="fill: #3c2a2a; stroke-width: 0px;"/>
              <path d="m1057.88,54.27l-1.85-.79c-1.44-.62-3,.59-2.77,2.14l.48,3.24c.15,1.01,1.04,1.75,2.06,1.71l3.63-.13-1.54-6.16Z" style="fill: #ffe1e1; stroke-width: 0px;"/>
            </g>
            <path d="m1072.66,69h2.15c2.51,0,4.55,2.04,4.55,4.55v6c0,2.51-2.04,4.55-4.55,4.55h-2.15c-2.51,0-4.55-2.04-4.55-4.55v-6c0-2.51,2.04-4.55,4.55-4.55Z" transform="translate(100.15 -382.68) rotate(21.18)" style="fill: #ffc099; stroke-width: 0px;"/>
            <path d="m1077.01,69.72l-1.09-.42c-2.59-1-5.52.29-6.52,2.88l-1.58,4.07c2.54,3.86,5.68,5.83,8.74,6.73.65-.53,1.2-1.22,1.52-2.06l1.81-4.68c1-2.59-.29-5.52-2.88-6.52Z" style="fill: #d88d64; stroke-width: 0px;"/>
            <path d="m1075.81,38.12h6.87c8.01,0,14.52,6.51,14.52,14.52v11.14c0,8.01-6.51,14.52-14.52,14.52h-6.87c-8.01,0-14.52-6.51-14.52-14.52v-11.14c0-8.01,6.51-14.52,14.52-14.52Z" transform="translate(9.72 -97.58) rotate(5.2)" style="fill: #ffc099; stroke-width: 0px;"/>
            <path d="m1089.88,39.01c9.1-3.88,18.47,4.55,11.38,11.65-7.1,7.1-18.34-.27-18.34-.27,0,0-1.87,8.57-11.65,6.83,0,0-2.68,12.18-9.51,11.25,0,0-8.11-10.47-2.41-23.29,4.82-10.84,22.09-13.39,30.52-6.16Z" style="fill: #3c2a2a; stroke-width: 0px;"/>
            <g>
              <path d="m1075.04,58.14c0,2.36-1.91,4.27-4.27,4.27s-4.27-1.91-4.27-4.27,1.91-4.27,4.27-4.27,4.27,1.91,4.27,4.27Z" style="fill: #ffc099; stroke-width: 0px;"/>
              <path d="m1072.99,58.14c0,1.22-.99,2.22-2.22,2.22s-2.22-.99-2.22-2.22.99-2.22,2.22-2.22,2.22.99,2.22,2.22Z" style="fill: #eca87e; stroke-width: 0px;"/>
            </g>
            <g>
              <g>
                <path d="m1082.27,57.43c-.18,1.01.49,1.97,1.5,2.15,1.01.18,1.97-.49,2.15-1.5.18-1.01-.49-1.97-1.5-2.15-1.01-.18-1.97.49-2.15,1.5Z" style="fill: #333d42; stroke-width: 0px;"/>
                <path d="m1092.05,58.93c-.16.9.44,1.76,1.34,1.92.9.16,1.76-.44,1.92-1.34.16-.9-.44-1.76-1.34-1.92-.9-.16-1.76.44-1.92,1.34Z" style="fill: #333d42; stroke-width: 0px;"/>
                <path d="m1091.47,65.4c.13.02.27,0,.39-.1.9-.72,1.31-1.49,1.19-2.28-.17-1.19-1.46-1.96-2.07-2.26l-.17-3.82c-.01-.27-.24-.47-.51-.46-.27.01-.48.24-.47.51l.2,4.43.29.12c.45.19,1.65.85,1.76,1.63.06.42-.22.89-.84,1.38-.21.17-.25.47-.08.68.08.1.18.16.3.18Z" style="fill: #d88d64; stroke-width: 0px;"/>
              </g>
              <g>
                <path d="m1080.44,62.97l10.24,4.95s-2.81,4.67-7.99,2.23c-4.55-2.14-2.25-7.18-2.25-7.18Z" style="fill: #333d42; stroke-width: 0px;"/>
                <path d="m1082.4,66.41c-.86-.71-1.7-1.12-2.5-1.35-.18,1.64.15,3.85,2.79,5.09.53.25,1.03.41,1.51.52.17-1.35-.15-2.91-1.8-4.27Z" style="fill: #ff83a0; stroke-width: 0px;"/>
                <path d="m1080.44,62.97c1.14,5.56,6.83,6.63,10.24,4.95l-10.24-4.95Z" style="fill: #fff; stroke-width: 0px;"/>
              </g>
            </g>
            <path d="m1099.39,39.14c-5.47,3.29-15.06,5.31-30.36-2.64-1.81.7-3.51,1.64-5,2.8,5.25,2.6,12.09,5.01,20.49,6.09,9.33,1.19,15.16-.2,18.79-2.23-.67-1.67-2.08-3.1-3.92-4.02Z" style="fill: #5f4433; stroke-width: 0px;"/>
          </g>
        </g>
      </g>
    </g>
  </g>
</svg>