<?xml version="1.0" encoding="utf-8"?>
<!-- Generator: Adobe Illustrator 28.2.0, SVG Export Plug-In . SVG Version: 6.00 Build 0)  -->
<svg version="1.1" id="_圖層_2" xmlns="http://www.w3.org/2000/svg" xmlns:xlink="http://www.w3.org/1999/xlink" x="0px" y="0px"
	 width="1259.8px" height="253.5px" viewBox="0 0 1259.8 253.5" style="enable-background:new 0 0 1259.8 253.5;"
	 xml:space="preserve">
<style type="text/css">
	.st0{fill:#CCF1FF;}
	.st1{fill:#A0DCF9;}
	.st2{fill:#8FD2F7;}
	.st3{fill:#A9E2FC;}
	.st4{opacity:0.48;fill:#E8F8FC;}
	.st5{fill:#D9EFFC;}
	.st6{fill:#EBFBFF;}
	.st7{fill:#A0DEF9;}
	.st8{fill:#417AA7;}
	.st9{fill:#E6AF32;}
	.st10{fill:#E25131;}
	.st11{fill-rule:evenodd;clip-rule:evenodd;fill:#E6AF32;}
	.st12{fill-rule:evenodd;clip-rule:evenodd;fill:#E25131;}
	.st13{fill:#FFFFFF;}
	.st14{fill:#F4DA9A;stroke:#D6AC62;stroke-width:8.05;stroke-miterlimit:22.93;}
	.st15{fill-rule:evenodd;clip-rule:evenodd;fill:#B2793C;}
	.st16{fill-rule:evenodd;clip-rule:evenodd;fill:#417AA7;}
	.st17{fill-rule:evenodd;clip-rule:evenodd;fill:#52ADA6;}
	.st18{fill:#3E3E3F;}
	.st19{fill-rule:evenodd;clip-rule:evenodd;fill:#F4DA9A;stroke:#D6AC62;stroke-width:8.05;stroke-miterlimit:22.93;}
	.st20{fill:#FFFFFF;stroke:#5289D9;stroke-width:3;stroke-linecap:round;stroke-linejoin:round;stroke-miterlimit:10;}
	.st21{fill:none;stroke:#FFFFFF;stroke-width:2.33;stroke-linecap:round;stroke-linejoin:round;}
	.st22{clip-path:url(#SVGID_00000062875647249388260220000004671752525627269279_);}
	.st23{fill:#DDA07D;}
	.st24{fill:#2E3446;}
	.st25{fill:#FDFFFF;}
	.st26{fill:#FFC099;}
	.st27{fill:#353F5F;}
	.st28{fill:#5FAFF9;}
	.st29{fill:#3C2A2A;}
	.st30{fill:#FFE1E1;}
	.st31{fill:#D88D64;}
	.st32{fill:#ECA87E;}
	.st33{fill:#333D42;}
	.st34{fill:#FF83A0;}
	.st35{fill:#5F4433;}
</style>
<g>
	<polygon class="st0" points="38,177.7 37,172.8 22.5,4.9 177.2,4.9 162.6,172.7 161.7,177.7 97.6,183.3 	"/>
	<g>
		<path class="st1" d="M162.6,172.7v10.7c0,0.2-0.1,0.4-0.3,0.5c-1.5,0.9-5.9,1.7-12.6,2.3h-0.1c-1.4,0.1-2.9,0.3-4.5,0.4
			c-5.8,0.5-12.8,0.8-20.5,1.1c-7.6,0.2-15.9,0.4-24.7,0.4c-7,0-13.8-0.1-20.1-0.3c-7.6-0.2-14.5-0.5-20.5-0.9
			c-3.4-0.2-6.4-0.5-9.1-0.7h-0.1l-0.2,0c-5.1-0.5-9.5-1.6-11.5-2.2c-0.8-0.2-1.2-0.7-1.2-1.3v-10.1H162.6z"/>
		<ellipse class="st0" cx="99.8" cy="172.7" rx="62.8" ry="4.1"/>
	</g>
	<g>
		<path class="st2" d="M153.9,170.5c0,0.3-0.4,0.5-1.3,0.8c-5.5,1.6-27.9,2.9-54.7,2.9s-45.6-1.2-51.1-2.9c-0.8-0.2-1.3-0.5-1.3-0.8
			c0-2,21.4-3.6,52.3-3.6C128.8,166.9,153.9,168.5,153.9,170.5z"/>
		<path class="st2" d="M162.2,46.1C162.2,46.1,162.2,46.1,162.2,46.1L162.2,46.1l-8.4,124.4c0,0.3-0.4,0.5-1.3,0.8H46.8
			c-0.8-0.2-1.3-0.5-1.3-0.8L37.3,46.1v0c0-0.6,2-1.1,5.5-1.6h113.9C160.2,45,162.2,45.5,162.2,46.1z"/>
	</g>
	<path class="st3" d="M162.2,46.1C162.2,46.1,162.2,46.1,162.2,46.1L162.2,46.1c-0.2,2.2-28.1,4-62.5,4c-34.4,0-62.4-1.8-62.5-3.9v0
		c0-0.6,2-1.1,5.5-1.6c9.8-1.4,31.6-2.3,56.9-2.3c25.3,0,47.1,1,56.9,2.3C160.2,45,162.2,45.5,162.2,46.1z"/>
	<path class="st4" d="M82.5,9.7l-2.6,163L79.7,188c-7.6-0.2-14.5-0.5-20.5-0.9l-1.1-14.3L45.7,8.4L46,7.6l10.1-1.7l26.2,2.8
		L82.5,9.7z"/>
	<path class="st5" d="M158.5,8.4l-12.2,161.5l-0.2,2.8l-0.2,2.8l-0.8,11.2c-5.8,0.5-12.8,0.8-20.5,1.1l-0.2-11.3l-0.1-7.6L121.7,9.7
		l0.1-0.9L148,6l10.1,1.7L158.5,8.4z"/>
	<ellipse class="st6" cx="99.7" cy="4.9" rx="77.4" ry="4.9"/>
	<path class="st7" d="M174.6,4.9c0,2.2-33.5,3.9-74.8,3.9S25.1,7.1,25.1,4.9S58.5,1,99.8,1S174.6,2.7,174.6,4.9z"/>
</g>
<g>
	<polygon class="st0" points="234.3,177.7 233.2,172.8 218.7,4.9 373.5,4.9 358.8,172.7 357.9,177.7 293.8,183.3 	"/>
	<g>
		<path class="st1" d="M358.8,172.7v10.7c0,0.2-0.1,0.4-0.3,0.5c-1.5,0.9-5.9,1.7-12.6,2.3h-0.1c-1.4,0.1-2.9,0.3-4.5,0.4
			c-5.8,0.5-12.8,0.8-20.5,1.1c-7.6,0.2-15.9,0.4-24.7,0.4c-7,0-13.8-0.1-20.1-0.3c-7.6-0.2-14.5-0.5-20.5-0.9
			c-3.4-0.2-6.4-0.5-9.1-0.7h-0.1l-0.2,0c-5.1-0.5-9.5-1.6-11.5-2.2c-0.8-0.2-1.2-0.7-1.2-1.3v-10.1H358.8z"/>
		<ellipse class="st0" cx="296" cy="172.7" rx="62.8" ry="4.1"/>
	</g>
	<g>
		<path class="st2" d="M350.1,170.5c0,0.3-0.4,0.5-1.3,0.8c-5.5,1.6-27.9,2.9-54.7,2.9s-45.6-1.2-51.1-2.9c-0.8-0.2-1.3-0.5-1.3-0.8
			c0-2,21.4-3.6,52.3-3.6C325.1,166.9,350.1,168.5,350.1,170.5z"/>
		<path class="st2" d="M358.5,46.1C358.5,46.1,358.5,46.1,358.5,46.1L358.5,46.1l-8.4,124.4c0,0.3-0.4,0.5-1.3,0.8H243.1
			c-0.8-0.2-1.3-0.5-1.3-0.8l-8.2-124.4v0c0-0.6,2-1.1,5.5-1.6H353C356.5,45,358.5,45.5,358.5,46.1z"/>
	</g>
	<path class="st3" d="M358.5,46.1C358.5,46.1,358.5,46.1,358.5,46.1L358.5,46.1c-0.2,2.2-28.1,4-62.5,4c-34.4,0-62.4-1.8-62.5-3.9v0
		c0-0.6,2-1.1,5.5-1.6c9.8-1.4,31.6-2.3,56.9-2.3c25.3,0,47.1,1,56.9,2.3C356.5,45,358.5,45.5,358.5,46.1z"/>
	<path class="st4" d="M278.7,9.7l-2.6,163l-0.2,15.2c-7.6-0.2-14.5-0.5-20.5-0.9l-1.1-14.3L241.9,8.4l0.4-0.8l10.1-1.7l26.2,2.8
		L278.7,9.7z"/>
	<path class="st5" d="M354.7,8.4l-12.2,161.5l-0.2,2.8l-0.2,2.8l-0.8,11.2c-5.8,0.5-12.8,0.8-20.5,1.1l-0.2-11.3l-0.1-7.6L317.9,9.7
		l0.1-0.9L344.2,6l10.1,1.7L354.7,8.4z"/>
	<ellipse class="st6" cx="296" cy="4.9" rx="77.4" ry="4.9"/>
	<path class="st7" d="M370.9,4.9c0,2.2-33.5,3.9-74.8,3.9s-74.8-1.8-74.8-3.9S254.8,1,296.1,1S370.9,2.7,370.9,4.9z"/>
</g>
<g>
	<polygon class="st0" points="431.2,177.7 430.1,172.8 415.6,4.9 570.4,4.9 555.7,172.7 554.8,177.7 490.7,183.3 	"/>
	<g>
		<path class="st1" d="M555.7,172.7v10.7c0,0.2-0.1,0.4-0.3,0.5c-1.5,0.9-5.9,1.7-12.6,2.3h-0.1c-1.4,0.1-2.9,0.3-4.5,0.4
			c-5.8,0.5-12.8,0.8-20.5,1.1c-7.6,0.2-15.9,0.4-24.7,0.4c-7,0-13.8-0.1-20.1-0.3c-7.6-0.2-14.5-0.5-20.5-0.9
			c-3.4-0.2-6.4-0.5-9.1-0.7h-0.1l-0.2,0c-5.1-0.5-9.5-1.6-11.5-2.2c-0.8-0.2-1.2-0.7-1.2-1.3v-10.1H555.7z"/>
		<ellipse class="st0" cx="492.9" cy="172.7" rx="62.8" ry="4.1"/>
	</g>
	<g>
		<path class="st2" d="M547,170.5c0,0.3-0.4,0.5-1.3,0.8c-5.5,1.6-27.9,2.9-54.7,2.9c-26.8,0-45.6-1.2-51.1-2.9
			c-0.8-0.2-1.3-0.5-1.3-0.8c0-2,21.4-3.6,52.3-3.6C522,166.9,547,168.5,547,170.5z"/>
		<path class="st2" d="M555.4,46.1C555.4,46.1,555.4,46.1,555.4,46.1L555.4,46.1L547,170.5c0,0.3-0.4,0.5-1.3,0.8H440
			c-0.8-0.2-1.3-0.5-1.3-0.8l-8.2-124.4v0c0-0.6,2-1.1,5.5-1.6h113.9C553.4,45,555.4,45.5,555.4,46.1z"/>
	</g>
	<path class="st3" d="M555.4,46.1C555.4,46.1,555.4,46.1,555.4,46.1L555.4,46.1c-0.2,2.2-28.1,4-62.5,4c-34.4,0-62.4-1.8-62.5-3.9v0
		c0-0.6,2-1.1,5.5-1.6c9.8-1.4,31.6-2.3,56.9-2.3c25.3,0,47.1,1,56.9,2.3C553.4,45,555.4,45.5,555.4,46.1z"/>
	<path class="st4" d="M475.6,9.7l-2.6,163l-0.2,15.2c-7.6-0.2-14.5-0.5-20.5-0.9l-1.1-14.3L438.8,8.4l0.4-0.8l10.1-1.7l26.2,2.8
		L475.6,9.7z"/>
	<path class="st5" d="M551.6,8.4l-12.2,161.5l-0.2,2.8l-0.2,2.8l-0.8,11.2c-5.8,0.5-12.8,0.8-20.5,1.1l-0.2-11.3l-0.1-7.6L514.8,9.7
		l0.1-0.9L541.1,6l10.1,1.7L551.6,8.4z"/>
	<ellipse class="st6" cx="492.9" cy="4.9" rx="77.4" ry="4.9"/>
	<path class="st7" d="M567.8,4.9c0,2.2-33.5,3.9-74.8,3.9s-74.8-1.8-74.8-3.9S451.7,1,493,1S567.8,2.7,567.8,4.9z"/>
</g>
<g>
	<polygon class="st0" points="627.8,177.7 626.8,172.8 612.3,4.9 767,4.9 752.4,172.7 751.4,177.7 687.3,183.3 	"/>
	<g>
		<path class="st1" d="M752.4,172.7v10.7c0,0.2-0.1,0.4-0.3,0.5c-1.5,0.9-5.9,1.7-12.6,2.3h-0.1c-1.4,0.1-2.9,0.3-4.5,0.4
			c-5.8,0.5-12.8,0.8-20.5,1.1c-7.6,0.2-15.9,0.4-24.7,0.4c-7,0-13.8-0.1-20.1-0.3c-7.6-0.2-14.5-0.5-20.5-0.9
			c-3.4-0.2-6.4-0.5-9.1-0.7h-0.1l-0.2,0c-5.1-0.5-9.5-1.6-11.5-2.2c-0.8-0.2-1.2-0.7-1.2-1.3v-10.1H752.4z"/>
		<ellipse class="st0" cx="689.6" cy="172.7" rx="62.8" ry="4.1"/>
	</g>
	<g>
		<path class="st2" d="M743.7,170.5c0,0.3-0.4,0.5-1.3,0.8c-5.5,1.6-27.9,2.9-54.7,2.9c-26.8,0-45.6-1.2-51.1-2.9
			c-0.8-0.2-1.3-0.5-1.3-0.8c0-2,21.4-3.6,52.3-3.6C718.6,166.9,743.7,168.5,743.7,170.5z"/>
		<path class="st2" d="M752,46.1C752,46.1,752,46.1,752,46.1L752,46.1l-8.4,124.4c0,0.3-0.4,0.5-1.3,0.8H636.6
			c-0.8-0.2-1.3-0.5-1.3-0.8l-8.2-124.4v0c0-0.6,2-1.1,5.5-1.6h113.9C750,45,752,45.5,752,46.1z"/>
	</g>
	<path class="st3" d="M752,46.1C752,46.1,752,46.1,752,46.1L752,46.1c-0.2,2.2-28.1,4-62.5,4c-34.4,0-62.4-1.8-62.5-3.9v0
		c0-0.6,2-1.1,5.5-1.6c9.8-1.4,31.6-2.3,56.9-2.3c25.3,0,47.1,1,56.9,2.3C750,45,752,45.5,752,46.1z"/>
	<path class="st4" d="M672.3,9.7l-2.6,163l-0.2,15.2c-7.6-0.2-14.5-0.5-20.5-0.9l-1.1-14.3L635.5,8.4l0.4-0.8L646,5.9l26.2,2.8
		L672.3,9.7z"/>
	<path class="st5" d="M748.3,8.4l-12.2,161.5l-0.2,2.8l-0.2,2.8l-0.8,11.2c-5.8,0.5-12.8,0.8-20.5,1.1l-0.2-11.3l-0.1-7.6L711.5,9.7
		l0.1-0.9L737.8,6l10.1,1.7L748.3,8.4z"/>
	<ellipse class="st6" cx="689.5" cy="4.9" rx="77.4" ry="4.9"/>
	<path class="st7" d="M764.4,4.9c0,2.2-33.5,3.9-74.8,3.9s-74.8-1.8-74.8-3.9S648.3,1,689.6,1S764.4,2.7,764.4,4.9z"/>
</g>
<g>
	<polygon class="st0" points="824.7,177.7 823.7,172.8 809.2,4.9 963.9,4.9 949.3,172.7 948.4,177.7 884.3,183.3 	"/>
	<g>
		<path class="st1" d="M949.3,172.7v10.7c0,0.2-0.1,0.4-0.3,0.5c-1.5,0.9-5.9,1.7-12.6,2.3h-0.1c-1.4,0.1-2.9,0.3-4.5,0.4
			c-5.8,0.5-12.8,0.8-20.5,1.1c-7.6,0.2-15.9,0.4-24.7,0.4c-7,0-13.8-0.1-20.1-0.3c-7.6-0.2-14.5-0.5-20.5-0.9
			c-3.4-0.2-6.4-0.5-9.1-0.7h-0.1l-0.2,0c-5.1-0.5-9.5-1.6-11.5-2.2c-0.8-0.2-1.2-0.7-1.2-1.3v-10.1H949.3z"/>
		<ellipse class="st0" cx="886.5" cy="172.7" rx="62.8" ry="4.1"/>
	</g>
	<g>
		<path class="st2" d="M940.6,170.5c0,0.3-0.4,0.5-1.3,0.8c-5.5,1.6-27.9,2.9-54.7,2.9c-26.8,0-45.6-1.2-51.1-2.9
			c-0.8-0.2-1.3-0.5-1.3-0.8c0-2,21.4-3.6,52.3-3.6C915.5,166.9,940.6,168.5,940.6,170.5z"/>
		<path class="st2" d="M948.9,46.1C948.9,46.1,948.9,46.1,948.9,46.1L948.9,46.1l-8.4,124.4c0,0.3-0.4,0.5-1.3,0.8H833.5
			c-0.8-0.2-1.3-0.5-1.3-0.8L824,46.1v0c0-0.6,2-1.1,5.5-1.6h113.9C946.9,45,948.9,45.5,948.9,46.1z"/>
	</g>
	<path class="st3" d="M948.9,46.1C948.9,46.1,948.9,46.1,948.9,46.1L948.9,46.1c-0.2,2.2-28.1,4-62.5,4c-34.4,0-62.4-1.8-62.5-3.9v0
		c0-0.6,2-1.1,5.5-1.6c9.8-1.4,31.6-2.3,56.9-2.3c25.3,0,47.1,1,56.9,2.3C946.9,45,948.9,45.5,948.9,46.1z"/>
	<path class="st4" d="M869.2,9.7l-2.6,163l-0.2,15.2c-7.6-0.2-14.5-0.5-20.5-0.9l-1.1-14.3L832.4,8.4l0.4-0.8l10.1-1.7l26.2,2.8
		L869.2,9.7z"/>
	<path class="st5" d="M945.2,8.4L933,169.9l-0.2,2.8l-0.2,2.8l-0.8,11.2c-5.8,0.5-12.8,0.8-20.5,1.1l-0.2-11.3l-0.1-7.6L908.4,9.7
		l0.1-0.9L934.7,6l10.1,1.7L945.2,8.4z"/>
	<ellipse class="st6" cx="886.4" cy="4.9" rx="77.4" ry="4.9"/>
	<path class="st7" d="M961.3,4.9c0,2.2-33.5,3.9-74.8,3.9s-74.8-1.8-74.8-3.9S845.2,1,886.5,1S961.3,2.7,961.3,4.9z"/>
</g>
<g>
	<rect x="1004.7" y="131.1" class="st8" width="233.6" height="93.4"/>
	<rect x="1154.5" y="131.1" class="st9" width="78.3" height="93.4"/>
	<rect x="1188.6" y="131.1" class="st10" width="8.8" height="93.4"/>
	<rect x="1154.5" y="131.1" class="st10" width="8.8" height="93.4"/>
	<path class="st11" d="M1238.3,224.5c-11.9,0-21.5-21-21.5-46.7s9.7-46.7,21.5-46.7s21.5,21,21.5,46.7S1250.2,224.5,1238.3,224.5z"
		/>
	<path class="st12" d="M1233.4,125.4L1233.4,125.4c-2.7,0-4.9,2-4.9,4.4v94.7c0,2.4,2.2,4.4,4.9,4.4l0,0c2.7,0,4.9-2,4.9-4.4v-94.7
		C1238.3,127.3,1236.1,125.4,1233.4,125.4z"/>
	<rect x="1004.7" y="8.4" class="st8" width="149.8" height="134.2"/>
	<rect x="1016.1" y="20.1" class="st13" width="127.1" height="110.8"/>
	
		<ellipse transform="matrix(0.9883 -0.1528 0.1528 0.9883 -19.2055 182.7994)" class="st9" cx="1179.6" cy="216.3" rx="33.2" ry="33.2"/>
	
		<ellipse transform="matrix(0.9883 -0.1528 0.1528 0.9883 -19.2055 182.7994)" class="st14" cx="1179.6" cy="216.3" rx="33.2" ry="33.2"/>
	
		<ellipse transform="matrix(0.2298 -0.9732 0.9732 0.2298 593.5703 1182.6083)" class="st9" cx="1043.9" cy="216.3" rx="33.2" ry="33.2"/>
	
		<ellipse transform="matrix(0.2298 -0.9732 0.9732 0.2298 593.5703 1182.6083)" class="st14" cx="1043.9" cy="216.3" rx="33.2" ry="33.2"/>
	<g>
		<rect x="991.9" y="186.4" class="st8" width="12.8" height="8.6"/>
		<rect x="984.2" y="178.7" class="st8" width="7.8" height="24.2"/>
	</g>
	<path class="st15" d="M1179.6,224.2c-4.3,0-7.9-3.5-7.9-7.9s3.5-7.9,7.9-7.9s7.9,3.5,7.9,7.9S1183.9,224.2,1179.6,224.2z"/>
	<path class="st15" d="M1043.9,224.2c-4.3,0-7.9-3.5-7.9-7.9s3.5-7.9,7.9-7.9s7.9,3.5,7.9,7.9S1048.3,224.2,1043.9,224.2z"/>
	<path class="st11" d="M996.1,6.8L996.1,6.8c0,3.7,3.4,6.8,7.6,6.8h151.9c4.2,0,7.6-3,7.6-6.8l0,0c0-3.7-3.4-6.8-7.6-6.8h-151.9
		C999.5,0,996.1,3,996.1,6.8L996.1,6.8z"/>
	<g>
		<rect x="1203.9" y="110.9" class="st10" width="14.9" height="20"/>
		<polygon class="st16" points="1225.4,107.6 1197.3,107.6 1203.9,117.6 1218.8,117.6 		"/>
		<path class="st17" d="M1211.3,96.5c-7.7,0-14,5-14,11.1h28.1C1225.4,101.5,1219.1,96.5,1211.3,96.5L1211.3,96.5L1211.3,96.5z"/>
		<rect x="1176.2" y="114.5" class="st10" width="12.2" height="16.5"/>
		<polygon class="st16" points="1182.3,99.7 1176.2,114.5 1188.4,114.5 		"/>
	</g>
</g>
<rect x="801.5" y="186.4" class="st18" width="168.1" height="37.6"/>
<g>
	<rect x="969.6" y="186.4" class="st8" width="5" height="8.6"/>
	<rect x="974.7" y="178.7" class="st8" width="7.8" height="24.2"/>
</g>
<g>
	<path class="st19" d="M927,249.5c-14,0-25.5-11.4-25.5-25.5c0-14,11.5-25.5,25.5-25.5c14,0,25.5,11.4,25.5,25.5
		C952.5,238,941.1,249.5,927,249.5z"/>
	<path class="st19" d="M844.2,249.5c-14,0-25.5-11.4-25.5-25.5c0-14,11.5-25.5,25.5-25.5c14,0,25.5,11.4,25.5,25.5
		C869.7,238,858.2,249.5,844.2,249.5z"/>
</g>
<g>
	<rect x="795.1" y="186.4" class="st8" width="6.5" height="8.6"/>
	<rect x="787.3" y="178.7" class="st8" width="7.8" height="24.2"/>
</g>
<path class="st15" d="M927.6,232.6c-4.3,0-7.9-3.5-7.9-7.9s3.5-7.9,7.9-7.9c4.3,0,7.9,3.5,7.9,7.9S932,232.6,927.6,232.6z"/>
<path class="st15" d="M844,232.6c-4.3,0-7.9-3.5-7.9-7.9s3.5-7.9,7.9-7.9s7.9,3.5,7.9,7.9S848.4,232.6,844,232.6z"/>
<g>
	<path class="st20" d="M847.5,131.3c-2.1,0.6-4.3,1.4-6,1.9l-0.3-1.5c0.7-0.2,1.6-0.4,2.6-0.7v-6.3h-2.1v-1.5h2.1v-5h-2.3v-1.5h6
		v1.5h-2.2v5h2v1.5h-2v5.9l2.1-0.6L847.5,131.3L847.5,131.3z M861.4,130.2c-1,0.6-2.1,1.3-3.1,1.7c1,1,2.3,1.7,3.8,2.1
		c-0.4,0.3-0.8,0.9-1,1.3c-3.1-1-5.3-3.3-6.4-6.3c-0.8,0.7-1.7,1.4-2.8,2v2.6l3.8-0.9c0,0.4,0,0.9,0,1.2c-4.3,1.1-4.9,1.3-5.3,1.5
		c-0.1-0.4-0.4-0.9-0.6-1.2c0.3-0.2,0.7-0.5,0.7-1.4v-1.1c-0.8,0.4-1.6,0.7-2.4,1c-0.2-0.4-0.6-0.9-1-1.1c2-0.5,4.2-1.5,5.8-2.7
		h-3.4v-4.6h10.6v4.6h-4.1c0.3,0.8,0.8,1.5,1.3,2.2c1-0.5,2.1-1.3,2.8-1.9L861.4,130.2L861.4,130.2z M861.7,123.1h-13.5v-1.4h13.5
		V123.1z M860.9,120.6H849v-4.7h11.8V120.6z M852.6,117.1h-2.1v2.3h2.1V117.1z M851.2,127.7h7.5v-2.1h-7.5V127.7z M856,117.1h-2.2
		v2.3h2.2V117.1z M859.4,117.1h-2.2v2.3h2.2V117.1z"/>
	<path class="st20" d="M870.9,130c-2.2,0.9-4.7,1.9-6.6,2.6l-0.5-1.7c0.8-0.2,1.8-0.6,2.8-1v-7.9h-2.5v-1.6h2.5v-5.2h1.6v5.2h2.2
		v1.6h-2.2v7.3l2.4-0.9L870.9,130L870.9,130z M881.7,134c0.3,0,0.7,0,0.8-0.1c0.2,0,0.3-0.2,0.4-0.5c0-0.3,0.1-1,0.1-1.9
		c0.3,0.3,0.9,0.6,1.3,0.7c0,0.9-0.1,1.8-0.3,2.2c-0.2,0.3-0.4,0.6-0.8,0.7c-0.3,0.1-1,0.2-1.4,0.2h-1.5c-0.5,0-1.2-0.1-1.5-0.4
		c-0.4-0.3-0.6-0.6-0.6-1.8v-3.3h-2c-0.4,3.2-1.5,5-5.6,5.9c-0.2-0.4-0.6-1-0.9-1.3c3.7-0.7,4.6-2,4.9-4.6h-2.3v-6.4h10.2v6.4h-2.7
		v3.5c0,0.3,0,0.6,0.2,0.6c0.1,0.1,0.3,0.1,0.6,0.1L881.7,134L881.7,134z M883.7,122.2h-12.5v-1.4h3.2c-0.1-0.6-0.4-1.5-0.7-2.2
		l1.4-0.3c0.3,0.7,0.7,1.6,0.8,2.2l-0.8,0.2h3.7c0.3-0.7,0.7-1.7,1-2.4l1.5,0.3c-0.3,0.7-0.7,1.4-1,2.1h3.4L883.7,122.2L883.7,122.2
		z M883.1,118.1h-11.2v-1.4h4.9c-0.2-0.5-0.4-1-0.6-1.5l1.5-0.3c0.3,0.5,0.6,1.2,0.8,1.8h4.7L883.1,118.1L883.1,118.1z M873.9,126
		h7.1v-1.5h-7.1V126z M873.9,128.6h7.1v-1.5h-7.1V128.6z"/>
	<path class="st20" d="M905.6,120.8c-0.5,3.6-1.4,6.6-2.8,9c1.1,1.9,2.5,3.5,4.3,4.4c-0.4,0.3-0.9,0.9-1.2,1.4
		c-1.7-1-3.1-2.4-4.2-4.3c-1.3,1.8-3,3.2-5.2,4.4c-0.2-0.4-0.7-1.1-1-1.5c2.3-1.1,4.1-2.6,5.4-4.5c-0.9-1.8-1.5-3.9-2-6.2
		c-0.4,1-1,1.9-1.5,2.7c-0.2-0.3-0.8-0.8-1.2-1.1c-0.9,1.1-2.2,2.2-3.4,3v0.9c1.4-0.2,2.9-0.4,4.4-0.6l0,1.5c-1.5,0.2-3,0.4-4.4,0.6
		v3.4c0,0.9-0.2,1.3-0.8,1.5c-0.6,0.2-1.6,0.2-3,0.2c-0.1-0.4-0.3-1-0.5-1.5c1.1,0.1,2.1,0,2.4,0c0.3,0,0.4-0.1,0.4-0.3v-3.2
		c-1.7,0.2-3.2,0.4-4.5,0.6l-0.2-1.5c1.3-0.2,2.9-0.4,4.7-0.6v-1.6c0.9-0.5,1.8-1.3,2.6-2h-3.5c-0.9,0.7-1.8,1.3-2.7,1.8
		c-0.2-0.3-0.9-1-1.2-1.3c1.8-0.9,3.5-2.1,4.9-3.6h-4.8v-1.5h3.9v-2.2h-3v-1.4h3V115h1.5v2.4h2.3v1.4c0.6-1,1.2-2.1,1.6-3.2l1.5,0.4
		c-0.8,1.8-1.7,3.5-2.8,5h2.7v1.5h-3.9c-0.5,0.6-1,1.1-1.6,1.6h3.3l0.3-0.1l0.8,0.6c1.7-2.3,2.9-5.9,3.5-9.7l1.7,0.3
		c-0.2,1.3-0.5,2.7-0.9,3.9h6.6v1.6L905.6,120.8L905.6,120.8z M891.9,121.1h0.7c0.6-0.7,1.1-1.5,1.6-2.2h-2.3L891.9,121.1
		L891.9,121.1z M901.9,127.9c1-2,1.5-4.3,2-7.1h-3.9C900.4,123.3,901,125.8,901.9,127.9z"/>
	<path class="st20" d="M929.1,118.7h-6c1.8,1.3,3.9,3,5,4.2l-1.4,1c-0.4-0.5-1-1-1.5-1.6c-11.5,0.6-12.7,0.6-13.5,0.9
		c-0.1-0.3-0.3-1.1-0.5-1.6c0.5-0.1,1.1-0.5,1.9-1.2c0.4-0.2,1.1-0.9,2-1.7h-5.7v-1.5h7.2c0.7-0.8,1.5-1.6,2.1-2.5l1.7,0.7
		c-0.5,0.6-1.1,1.2-1.6,1.8h10.3L929.1,118.7L929.1,118.7z M926.7,133.6c0,1-0.3,1.4-1,1.7c-0.7,0.2-2.1,0.2-4,0.2
		c-0.1-0.4-0.3-1-0.5-1.4c1.4,0,2.9,0,3.2,0c0.4,0,0.5-0.1,0.5-0.4v-2.9c-3.6,0.7-7.2,1.5-10,2l-0.5-1.5c2.5-0.4,6.6-1,10.6-1.7
		v-4.1h-11.2v2.6c0,2.4-0.4,5.6-2.6,7.8c-0.2-0.3-1-0.9-1.3-1c2-2,2.3-4.7,2.3-6.8v-4h14.5L926.7,133.6L926.7,133.6z M923.7,121
		c-0.7-0.6-1.5-1.2-2.2-1.7l1-0.6h-5.1c-1,1-2.1,1.9-3.1,2.7L923.7,121L923.7,121z M915.1,126.3c2.8,0.4,6.3,1.3,8.2,2.1l-0.5,1.2
		c-1.9-0.8-5.4-1.8-8.2-2.2L915.1,126.3L915.1,126.3z"/>
</g>
<rect x="604.7" y="186.4" class="st18" width="168.1" height="37.6"/>
<g>
	<rect x="772.8" y="186.4" class="st8" width="5" height="8.6"/>
	<rect x="777.8" y="178.7" class="st8" width="7.8" height="24.2"/>
</g>
<g>
	<path class="st19" d="M730.2,249.5c-14,0-25.5-11.4-25.5-25.5s11.5-25.5,25.5-25.5c14,0,25.5,11.4,25.5,25.5
		C755.7,238,744.2,249.5,730.2,249.5z"/>
	<path class="st19" d="M647.3,249.5c-14,0-25.5-11.4-25.5-25.5c0-14,11.5-25.5,25.5-25.5c14,0,25.5,11.4,25.5,25.5
		S661.4,249.5,647.3,249.5z"/>
</g>
<g>
	<rect x="598.3" y="186.4" class="st8" width="6.5" height="8.6"/>
	<rect x="590.5" y="178.7" class="st8" width="7.8" height="24.2"/>
</g>
<path class="st15" d="M730.8,232.6c-4.3,0-7.9-3.5-7.9-7.9s3.5-7.9,7.9-7.9c4.3,0,7.9,3.5,7.9,7.9S735.1,232.6,730.8,232.6z"/>
<path class="st15" d="M647.2,232.6c-4.3,0-7.9-3.5-7.9-7.9s3.5-7.9,7.9-7.9s7.9,3.5,7.9,7.9S651.5,232.6,647.2,232.6z"/>
<g>
	<path class="st20" d="M649.7,118.4c-1.1,1.8-2.5,3.3-3.8,4.4c-0.3-0.3-0.9-1-1.2-1.3c2.1-1.5,3.9-3.9,5-6.5l1.6,0.4
		c-0.2,0.6-0.5,1.1-0.8,1.6h13.8v1.3L649.7,118.4L649.7,118.4z M650.8,130.9c-1,1.8-3,3.6-4.7,4.6c-0.2-0.4-0.7-0.9-1.1-1.2
		c1.6-0.8,3.5-2.4,4.5-3.9L650.8,130.9L650.8,130.9z M653.1,129.7v5.9h-1.6v-5.9h-6v-1.4h6v-3.9h1.6v3.9h5.9v1.4H653.1z
		 M661.4,122.6c0,7,0.2,11.3,2,11.3c0.5,0,0.6-1.3,0.6-3.3c0.3,0.4,0.8,0.8,1.2,1c-0.1,2.9-0.5,3.9-1.9,3.9c-3.1,0-3.5-4.4-3.5-11.6
		h-12.9v-1.3H661.4L661.4,122.6z M648.2,124.7c0.7,0.9,1.5,2,1.8,2.8l-1.3,0.6c-0.3-0.8-1-2-1.7-2.9
		C646.9,125.2,648.2,124.7,648.2,124.7z M649.2,121.2v-1.3h13.4v1.3H649.2z M654.9,130.5c1.5,1.1,3.3,2.6,4.2,3.6l-1.1,1
		c-0.9-1-2.7-2.7-4.1-3.8L654.9,130.5L654.9,130.5z M657.8,125.3c-0.8,1.1-1.7,2.2-2.5,3l-1.1-0.5c0.7-0.9,1.6-2.2,2-3.1
		L657.8,125.3L657.8,125.3z"/>
	<path class="st20" d="M672.9,115.6c-0.5,1.7-1.1,3.3-1.8,4.9v15.1h-1.6v-12c-0.5,0.9-1.1,1.7-1.6,2.4c-0.1-0.4-0.6-1.3-0.9-1.7
		c1.8-2.3,3.5-5.7,4.4-9.2L672.9,115.6L672.9,115.6z M672.8,119.9h1.5v11.3h-1.5C672.8,131.3,672.8,119.9,672.8,119.9z M681.9,129.8
		c-0.5,2.1-2,4.3-6.3,5.9c-0.2-0.4-0.7-0.9-1.1-1.2c3.9-1.3,5.3-3,5.7-4.7h-5v-1.5h5.2v-2.9H678c-0.5,0.9-1.1,1.8-1.7,2.4
		c-0.3-0.2-0.9-0.7-1.3-0.9c1.2-1.2,2.2-3.2,2.8-5.1l1.5,0.4c-0.2,0.6-0.4,1.2-0.7,1.8h8.1v1.4h-4.7v2.9h5.4v1.5L681.9,129.8
		L681.9,129.8z M687.5,121.7h-12.3v-1.4h8.1c0.2-0.9,0.3-1.8,0.5-2.7h-7.3v-1.4h7.6l0.3-0.1l1.2,0.1c-0.2,1.3-0.4,2.8-0.6,4.1h2.6
		L687.5,121.7L687.5,121.7z M683.2,130.2c1.5,1.3,3.6,3.2,4.7,4.4l-1.2,1c-1-1.1-3-3.1-4.6-4.5L683.2,130.2L683.2,130.2z"/>
	<path class="st20" d="M706.3,129.9c-1.1,1.2-2.5,2.2-4.2,3c2.5,0.7,5.3,1.1,8.1,1.4c-0.3,0.4-0.7,0.9-0.9,1.4
		c-3.2-0.3-6.4-1-9.2-1.9c-3,1-6.4,1.6-9.8,2c-0.2-0.4-0.5-1.1-0.8-1.4c3-0.2,6-0.7,8.6-1.4c-1.5-0.6-2.8-1.4-3.9-2.3
		c-1.1,0.9-2.3,1.5-3.5,2.1c-0.2-0.3-0.7-1-1-1.2c2.3-0.9,4.7-2.4,5.9-4.3l1.5,0.4c-0.2,0.4-0.5,0.7-0.7,1h12.8v1.3L706.3,129.9
		L706.3,129.9z M691.5,124.4c-0.2,1.3-0.5,2.8-0.8,3.8c-0.2-0.1-0.7-0.4-1-0.6c0.4-0.9,0.5-2.2,0.7-3.4L691.5,124.4L691.5,124.4z
		 M695.4,123.7c0-0.2-0.1-0.6-0.2-0.9c-3.9,0.6-4.5,0.7-4.8,0.9c-0.1-0.2-0.3-0.9-0.4-1.2c0.4-0.1,0.8-0.4,1.3-0.9
		c0.3-0.2,0.8-0.9,1.5-1.6c-1.8,0.1-2.2,0.2-2.4,0.3c-0.1-0.3-0.3-0.9-0.4-1.2c0.3-0.1,0.6-0.3,0.9-0.7c0.3-0.4,1.4-1.9,2-3.4
		l1.3,0.4c-0.7,1.3-1.5,2.5-2.2,3.4l1.8-0.1c0.4-0.5,0.9-1.2,1.2-1.7l1.2,0.5c-1.2,1.7-2.6,3.3-3.9,4.6l2.7-0.3
		c-0.2-0.5-0.4-1-0.6-1.4l1-0.3c0.5,1,1,2.4,1.1,3.2L695.4,123.7L695.4,123.7z M692.7,127.5c0-0.9-0.2-2.2-0.4-3.2l1-0.2
		c0.2,1,0.5,2.3,0.5,3.2L692.7,127.5L692.7,127.5z M695.1,127.1c-0.1-0.8-0.4-1.9-0.7-2.8l1-0.3c0.3,0.9,0.7,2.1,0.8,2.8
		C696.2,126.8,695.1,127.1,695.1,127.1z M695.5,129.9c1.2,0.9,2.8,1.7,4.7,2.4c1.7-0.6,3.1-1.4,4.2-2.4H695.5L695.5,129.9z
		 M703.3,118h-7v-1h3c-0.2-0.5-0.5-1.1-0.8-1.6l1.3-0.4c0.4,0.6,0.8,1.4,1,2h2.5L703.3,118L703.3,118z M702.9,120h-6v-1h6V120z
		 M702.8,122.1h-6v-1h6V122.1z M697,127.2v-4h5.8v4H697z M698.1,126.2h3.5v-2h-3.5V126.2z M708.9,123.7c0-0.3-0.1-0.6-0.2-1
		c-4,0.5-4.6,0.7-4.9,0.9c-0.1-0.3-0.2-0.9-0.4-1.2c0.4-0.1,0.8-0.4,1.3-0.9c0.3-0.2,0.8-0.9,1.5-1.6c-1.8,0.2-2.2,0.2-2.5,0.4
		c-0.1-0.3-0.3-0.9-0.4-1.2c0.3-0.1,0.6-0.3,0.9-0.7c0.3-0.4,1.4-1.9,2-3.3l1.2,0.4c-0.7,1.3-1.5,2.5-2.3,3.4l1.8-0.1
		c0.5-0.5,0.9-1.2,1.2-1.8l1.2,0.5c-1.2,1.7-2.5,3.3-3.8,4.5l2.7-0.3c-0.2-0.5-0.4-1-0.6-1.4l1.1-0.2c0.5,1,1,2.4,1.1,3.3
		L708.9,123.7L708.9,123.7z M705.1,124.4c-0.2,1.2-0.5,2.6-0.8,3.5c-0.2-0.2-0.7-0.4-1-0.6c0.3-0.9,0.5-2.1,0.6-3.2L705.1,124.4
		L705.1,124.4z M706.3,127.5c0-0.9-0.2-2.2-0.4-3.2l1-0.2c0.3,1,0.5,2.3,0.5,3.2C707.4,127.2,706.3,127.5,706.3,127.5z M708.9,127.3
		c-0.1-0.9-0.5-2.2-0.8-3.3l1-0.3c0.4,1,0.7,2.4,0.9,3.2L708.9,127.3L708.9,127.3z"/>
	<path class="st20" d="M717.4,125.8c-0.5,2-1.2,4.2-2.1,5.9c0.5,0.2,1,0.7,1.8,1.2c1.6,0.9,3.7,1.1,6.4,1.1c3,0,6.7-0.2,9.2-0.5
		c-0.2,0.4-0.5,1.2-0.5,1.7c-1.7,0.1-6.1,0.3-8.8,0.3c-3,0-5-0.2-6.7-1.2c-0.9-0.5-1.8-1.3-2.3-1.3c-0.4,0-1,1.4-1.5,2.8l-1.1-1.4
		c0.7-1.1,1.3-2,1.9-2.5c0.7-1.3,1.4-3.1,1.8-4.8h-2.8c0.6-1.3,1.3-3.3,1.9-5.1h-2.5v-1.4h4.4c-0.5,1.6-1.2,3.5-1.8,5.1h1.5l0.2-0.1
		L717.4,125.8L717.4,125.8z M714.5,119.3c-0.2-1-0.7-2.5-1.1-3.7l1.3-0.4c0.4,1.2,0.9,2.6,1.1,3.6L714.5,119.3L714.5,119.3z
		 M722.3,117.1h-4.5v-1.2h14.4v1.2h-4.8v1.2h4.1v4.1h-6.9c-0.2,0.4-0.4,0.8-0.6,1.2h8.2v1.2h-3.9c1.5,0.9,3.1,2,4,2.8l-1,1
		c-0.6-0.6-1.6-1.3-2.6-2v2.1c0,0.7-0.1,1-0.7,1.2c-0.6,0.2-1.4,0.2-2.9,0.2c-0.1-0.4-0.3-0.7-0.5-1.1c1.2,0,2,0,2.3,0
		c0.3,0,0.4-0.1,0.4-0.3v-1.5h-5.5v3.3c0,0.6,0.2,0.7,1.6,0.7h5c1,0,1.2-0.2,1.3-1.7c0.3,0.2,0.9,0.4,1.3,0.4
		c-0.2,2-0.7,2.5-2.5,2.5h-5.1c-2.3,0-3-0.3-3-1.9v-3.2c-0.7,0.5-1.5,1-2.3,1.3c-0.2-0.3-0.8-0.8-1.1-1.1c1.6-0.7,3.1-1.6,4.3-2.8
		h-3.4v-1.2h4.4c0.3-0.4,0.5-0.8,0.7-1.2h-4.5v-4.1h3.8L722.3,117.1L722.3,117.1z M720,121.3h2.3v-1.9H720V121.3z M723.1,124.8
		c-0.3,0.4-0.7,0.9-1.2,1.3h6c-0.6-0.4-1.3-0.9-1.9-1.3H723.1L723.1,124.8z M726,117.1h-2.4v1.2h2.4V117.1z M723.6,121.3h2.4v-1.9
		h-2.4V121.3z M727.4,119.4v1.9h2.5v-1.9H727.4z"/>
</g>
<rect x="408.1" y="186.4" class="st18" width="168.1" height="37.6"/>
<g>
	<rect x="576.2" y="186.4" class="st8" width="5" height="8.6"/>
	<rect x="581.2" y="178.7" class="st8" width="7.8" height="24.2"/>
</g>
<g>
	<path class="st19" d="M533.6,249.5c-14,0-25.5-11.4-25.5-25.5s11.5-25.5,25.5-25.5c14,0,25.5,11.4,25.5,25.5
		C559.1,238,547.6,249.5,533.6,249.5z"/>
	<path class="st19" d="M450.7,249.5c-14,0-25.5-11.4-25.5-25.5c0-14,11.5-25.5,25.5-25.5c14,0,25.5,11.4,25.5,25.5
		S464.8,249.5,450.7,249.5z"/>
</g>
<g>
	<rect x="401.7" y="186.4" class="st8" width="6.5" height="8.6"/>
	<rect x="393.9" y="178.7" class="st8" width="7.8" height="24.2"/>
</g>
<path class="st15" d="M534.2,232.6c-4.3,0-7.9-3.5-7.9-7.9s3.5-7.9,7.9-7.9c4.3,0,7.9,3.5,7.9,7.9S538.5,232.6,534.2,232.6z"/>
<path class="st15" d="M450.6,232.6c-4.3,0-7.9-3.5-7.9-7.9s3.5-7.9,7.9-7.9s7.9,3.5,7.9,7.9S454.9,232.6,450.6,232.6z"/>
<g>
	<path class="st20" d="M454.6,121.2h-6.4v-1.3h6.4V121.2z M456.4,132.8c-1.8,1.1-4.6,2.1-6.9,2.8c-0.3-0.3-0.9-1-1.2-1.3
		c2.3-0.5,5-1.3,6.6-2.2L456.4,132.8L456.4,132.8z M454,117.7h-5.4v-1.3h5.4V117.7z M451.1,123h14.6v9h-14.6
		C451.1,132,451.1,123,451.1,123z M452.7,125.6H464v-1.5h-11.3V125.6z M452.7,128.2H464v-1.5h-11.3V128.2z M452.7,130.9H464v-1.6
		h-11.3V130.9z M458.1,117.9c-0.5,0.9-1.1,1.6-1.7,2.2c-0.3-0.2-0.9-0.7-1.3-0.9c1.2-1.1,2.1-2.6,2.6-4.3l1.5,0.3
		c-0.1,0.4-0.3,0.8-0.5,1.2h7.5l0.3-0.1l1.1,0.4c-0.6,1.2-1.3,2.4-1.9,3.2l-1.3-0.5c0.3-0.5,0.7-1.1,1.1-1.8H462v0.3
		c0,0.2,0,0.5-0.1,0.7c1.2,1.3,3.6,2.2,6.6,2.5c-0.3,0.3-0.7,0.9-1,1.3c-2.6-0.4-4.7-1.3-6.1-2.6c-0.7,1.1-2.5,2.1-6.5,2.8
		c-0.2-0.4-0.6-1-0.9-1.2c5.8-0.8,6.4-2.3,6.4-3.5v-0.2L458.1,117.9L458.1,117.9z M461.5,132.1c2.4,0.7,5,1.7,6.6,2.4l-1.5,1
		c-1.4-0.7-3.9-1.7-6.3-2.5L461.5,132.1z"/>
	<path class="st20" d="M474.2,124.9c-0.9-0.7-2.5-1.7-3.8-2.4l1-1.2c1.2,0.7,2.9,1.6,3.8,2.2L474.2,124.9L474.2,124.9z M475.6,128.1
		c-0.9,2.4-2.2,5.1-3.2,7.2l-1.5-0.9c1-1.7,2.4-4.7,3.4-7.2L475.6,128.1L475.6,128.1z M475.3,119c-0.9-0.7-2.5-1.8-3.7-2.6l1-1.2
		c1.2,0.7,2.9,1.7,3.8,2.4L475.3,119L475.3,119z M478.8,122.3c0,3.9-0.4,9.5-3,13.2c-0.3-0.3-1-0.7-1.4-0.9
		c2.5-3.6,2.8-8.7,2.8-12.4v-6.2h13.7v1.5h-12C478.8,117.7,478.8,122.3,478.8,122.3z M482.4,129.6c-0.7,1.6-1.9,3.4-2.8,4.6
		c-0.3-0.2-1-0.6-1.4-0.9c1-1.1,2-2.7,2.7-4.2L482.4,129.6z M485.7,128v5.9c0,0.8-0.1,1.3-0.8,1.5c-0.6,0.2-1.5,0.2-3.1,0.2
		c-0.1-0.4-0.3-1-0.5-1.4c1.1,0,2.1,0,2.3,0c0.3,0,0.4-0.1,0.4-0.3V128h-4v-7.7h3.4c0.2-0.7,0.5-1.6,0.6-2.3l1.9,0.4
		c-0.3,0.7-0.6,1.3-0.9,1.9h4.9v7.7H485.7z M481.6,123.5h6.9v-2h-6.9V123.5z M481.6,126.7h6.9v-2h-6.9V126.7z M488.6,129.1
		c0.9,1.4,2,3.2,2.6,4.3l-1.5,0.7c-0.5-1.1-1.6-3-2.5-4.4L488.6,129.1L488.6,129.1z"/>
	<path class="st20" d="M498.7,120.4c-0.5,0.9-1,1.7-1.6,2.6v12.6h-1.5V125c-0.7,0.8-1.4,1.6-2,2.2c-0.2-0.4-0.6-1.2-0.9-1.5
		c1.7-1.4,3.5-3.6,4.6-5.8L498.7,120.4L498.7,120.4z M498.3,115.6c-1.1,1.8-2.9,3.8-4.4,5.2c-0.2-0.3-0.6-1-0.9-1.3
		c1.4-1.2,3-3,3.8-4.5L498.3,115.6z M508.2,121.6v2.4h3.9v11.5h-1.6v-1h-6.2v1h-1.5V124h3.8v-2.4h-4.8v2.6c0,3.7-0.3,8.1-2.2,11.4
		c-0.3-0.2-0.9-0.6-1.3-0.7c1.8-3.1,2-7.3,2-10.7v-7.3c3.7-0.3,8.1-0.9,10.6-1.5l1.3,1.2c-2.8,0.7-6.8,1.2-10.4,1.5v2.2h4.8v-2.3
		h1.6v2.3h5.1v1.4L508.2,121.6L508.2,121.6z M510.5,125.4h-6.2v1.8h6.2V125.4z M510.5,128.4h-6.2v1.8h6.2V128.4z M510.5,133.2v-1.9
		h-6.2v1.9H510.5z"/>
	<path class="st20" d="M521.6,131.3c-2.1,0.6-4.3,1.4-6,1.9l-0.3-1.5c0.7-0.2,1.6-0.4,2.6-0.7v-6.3h-2.1v-1.5h2.1v-5h-2.3v-1.5h6
		v1.5h-2.2v5h2v1.5h-2v5.9l2.1-0.6L521.6,131.3L521.6,131.3z M535.6,130.2c-1,0.6-2.1,1.3-3.1,1.7c1,1,2.3,1.7,3.8,2.1
		c-0.4,0.3-0.8,0.9-1,1.3c-3.1-1-5.3-3.3-6.4-6.3c-0.8,0.7-1.7,1.4-2.8,2v2.6l3.8-0.9c0,0.4,0,0.9,0,1.2c-4.3,1.1-4.9,1.3-5.3,1.5
		c-0.1-0.4-0.4-0.9-0.6-1.2c0.3-0.2,0.7-0.5,0.7-1.4v-1.1c-0.8,0.4-1.6,0.7-2.4,1c-0.2-0.4-0.6-0.9-1-1.1c2-0.5,4.2-1.5,5.8-2.7
		h-3.4v-4.6h10.6v4.6h-4.1c0.3,0.8,0.8,1.5,1.3,2.2c1-0.5,2.1-1.3,2.8-1.9L535.6,130.2L535.6,130.2z M535.8,123.1h-13.5v-1.4h13.5
		V123.1z M535,120.6h-11.8v-4.7H535V120.6z M526.7,117.1h-2.1v2.3h2.1V117.1z M525.3,127.7h7.5v-2.1h-7.5V127.7z M530.1,117.1h-2.2
		v2.3h2.2V117.1z M533.6,117.1h-2.2v2.3h2.2V117.1z"/>
</g>
<rect x="211.3" y="186.4" class="st18" width="168.1" height="37.6"/>
<g>
	<rect x="379.4" y="186.4" class="st8" width="5" height="8.6"/>
	<rect x="384.4" y="178.7" class="st8" width="7.8" height="24.2"/>
</g>
<g>
	<path class="st19" d="M336.8,249.5c-14,0-25.5-11.4-25.5-25.5s11.5-25.5,25.5-25.5c14,0,25.5,11.4,25.5,25.5
		S350.8,249.5,336.8,249.5z"/>
	<path class="st19" d="M253.9,249.5c-14,0-25.5-11.4-25.5-25.5s11.4-25.5,25.5-25.5c14,0,25.5,11.4,25.5,25.5
		C279.4,238,267.9,249.5,253.9,249.5z"/>
</g>
<g>
	<rect x="204.8" y="186.4" class="st8" width="6.4" height="8.6"/>
	<rect x="197.1" y="178.7" class="st8" width="7.8" height="24.2"/>
</g>
<path class="st15" d="M337.4,232.6c-4.3,0-7.9-3.5-7.9-7.9s3.5-7.9,7.9-7.9s7.9,3.5,7.9,7.9S341.7,232.6,337.4,232.6z"/>
<path class="st15" d="M253.8,232.6c-4.3,0-7.9-3.5-7.9-7.9s3.5-7.9,7.9-7.9c4.3,0,7.9,3.5,7.9,7.9S258.1,232.6,253.8,232.6
	L253.8,232.6z"/>
<g>
	<g>
		<path class="st20" d="M282,121.1c-1.1,5.9-3.7,10-6.9,12.3c-0.2-0.4-0.9-1-1.3-1.3c2.9-1.9,5.1-5.2,6.2-9.7h-5.5v-1.7h6.1l0.3-0.1
			L282,121.1L282,121.1z M292.6,120.3c-1.5,1.7-3.5,3.7-5,5.1c1.9,2.8,4.4,5.1,7.1,6.4c-0.4,0.3-1,1-1.2,1.5
			c-3.5-1.9-6.4-5.4-8.4-9.5v9.5c0,1.1-0.3,1.6-0.9,1.9c-0.7,0.3-1.8,0.4-3.5,0.4c-0.1-0.5-0.4-1.3-0.6-1.8c1.3,0,2.4,0,2.8,0
			c0.4,0,0.5-0.1,0.5-0.5v-18.2h1.8v5.4c0.5,1.2,1.1,2.5,1.8,3.7c1.5-1.4,3.3-3.4,4.4-4.9L292.6,120.3L292.6,120.3z"/>
		<path class="st20" d="M316.7,128.8v1.6h-20.3v-1.6h2.3l-0.4-11.9c1.4-0.5,3.1-1.2,4.2-1.7l0.8,1.4c-1,0.4-2.3,0.9-3.4,1.2l0.1,2.6
			h3v1.4h-3l0.1,2.8h3v1.4h-2.9l0.1,2.8H313c0-0.8,0.1-1.7,0.2-2.7h-2.9v-1.4h3c0-0.9,0.1-1.8,0.1-2.8h-3v-1.4h3c0-1,0-1.9,0-2.8
			h-3.2v-1.5h4.8c0,3.9-0.1,9.3-0.3,12.6L316.7,128.8L316.7,128.8z M304.4,131.7c-1.9,1.4-4.5,2.9-6.7,3.9c-0.2-0.3-0.7-0.9-1-1.3
			c2.1-0.9,4.8-2.4,6.3-3.6L304.4,131.7z M306.2,123.7c-0.2,1.6-0.7,3.1-1.4,4.2c-0.2-0.2-0.8-0.6-1.2-0.7c0.7-1,1-2.3,1.2-3.7
			L306.2,123.7L306.2,123.7z M307.7,122.5h-3.6v-7.3h1.5v2.1h3.7v1.4h-3.7v2.4h3v0h0.6v5.9c0,0.7-0.1,1-0.6,1.2
			c-0.5,0.2-1.3,0.2-2.4,0.2c-0.1-0.4-0.2-0.8-0.4-1.2c0.8,0,1.5,0,1.7,0c0.2,0,0.3-0.1,0.3-0.3L307.7,122.5L307.7,122.5z
			 M309.7,130.6c2.4,1.1,5,2.5,6.5,3.6l-1.1,1.3c-1.5-1.1-4-2.6-6.4-3.7L309.7,130.6L309.7,130.6z"/>
	</g>
	<g>
		<path class="st20" d="M271.5,160.2v1.6h-20v-1.6h9.1v-9.1h-7.7v-1.6h7.7v-7.1h1.8v7.1h7.8v1.6h-7.8v9.1H271.5L271.5,160.2z"/>
		<path class="st20" d="M279.7,156.7c-2,0.8-4,1.7-5.7,2.3l-0.5-1.6c0.8-0.2,1.7-0.6,2.8-1v-7.3h-2.3v-1.6h2.3v-5.1h1.4v5.1h2.1v1.6
			h-2.1v6.8l1.7-0.7L279.7,156.7L279.7,156.7z M293.4,157.9c-0.8,0.6-1.9,1.3-2.8,1.7c1,0.8,2.3,1.4,3.8,1.7c-0.3,0.3-0.7,0.9-1,1.3
			c-3.1-0.9-5.3-2.8-6.5-5.5c-0.7,0.6-1.5,1.1-2.4,1.6v2.2l3.7-0.7c0,0.4,0,0.9,0,1.2c-4.2,0.9-4.8,1.1-5.2,1.4
			c-0.1-0.3-0.4-0.9-0.6-1.2c0.3-0.1,0.7-0.4,0.7-1.2v-1c-1.2,0.6-2.6,1-3.8,1.4c-0.2-0.3-0.6-0.9-0.9-1.2c2.3-0.6,4.9-1.5,6.7-2.7
			H280v-1.2h3.7v-1.2h-2.4v-1.1h2.4v-1.2h-3.1v-1.1h3.1V150h-2.5v-3.6h5.2v3.6h-1.2v1.1h3.9V150h-1.2v-3.7h5.3v3.7h-2.6v1.1h3v1.1
			h-3v1.2h2.5v1.1h-2.5v1.2h3.7v1.2h-6c0.3,0.7,0.8,1.4,1.4,2c0.9-0.5,2-1.2,2.7-1.7L293.4,157.9L293.4,157.9z M294.2,145.5h-14.3
			v-1.3h6.5c-0.2-0.6-0.5-1.2-0.8-1.6l1.4-0.4c0.4,0.6,0.8,1.4,1.1,2.1h6.2V145.5z M282.4,149.1h2.6v-1.7h-2.6V149.1z M285.1,153.5
			h3.9v-1.2h-3.9V153.5z M285.1,155.7h3.9v-1.2h-3.9V155.7z M289.1,149.1h2.7v-1.8h-2.7V149.1z"/>
		<path class="st20" d="M302.3,158.5c-2.1,0.6-4.3,1.4-6,1.9l-0.3-1.5c0.7-0.2,1.6-0.4,2.6-0.7v-6.3h-2.1v-1.5h2.1v-5h-2.3v-1.5h6
			v1.5H300v5h2v1.5h-2v5.9l2.1-0.6L302.3,158.5L302.3,158.5z M316.2,157.4c-1,0.6-2.1,1.3-3.1,1.7c1,1,2.3,1.7,3.9,2.1
			c-0.4,0.3-0.8,0.9-1,1.3c-3.1-1-5.3-3.3-6.4-6.3c-0.8,0.7-1.7,1.4-2.8,2v2.6l3.8-0.9c0,0.4,0,0.9,0,1.2c-4.3,1.1-4.9,1.3-5.3,1.5
			c-0.1-0.4-0.4-0.9-0.6-1.2c0.3-0.2,0.7-0.5,0.7-1.4v-1.1c-0.8,0.4-1.6,0.7-2.4,1c-0.2-0.4-0.6-0.9-1-1.1c2-0.5,4.2-1.5,5.8-2.7
			h-3.4v-4.6H315v4.6h-4.1c0.3,0.8,0.8,1.5,1.3,2.2c1-0.5,2.1-1.3,2.8-1.9L316.2,157.4L316.2,157.4z M316.5,150.3h-13.5v-1.4h13.5
			V150.3z M315.7,147.8h-11.9V143h11.9V147.8z M307.4,144.3h-2.1v2.3h2.1V144.3z M306,154.9h7.5v-2.1H306V154.9z M310.8,144.3h-2.2
			v2.3h2.2V144.3z M314.2,144.3H312v2.3h2.2V144.3z"/>
		<path class="st20" d="M325.7,157.2c-2.2,0.9-4.7,1.9-6.6,2.6l-0.5-1.7c0.8-0.2,1.8-0.6,2.8-1v-7.9h-2.5v-1.6h2.5v-5.2h1.6v5.2h2.2
			v1.6H323v7.3l2.4-0.9L325.7,157.2L325.7,157.2z M336.5,161.2c0.3,0,0.6,0,0.8-0.1c0.2,0,0.3-0.2,0.4-0.5c0-0.3,0.1-1,0.1-1.9
			c0.3,0.3,0.9,0.6,1.4,0.7c0,0.9-0.1,1.8-0.3,2.2c-0.2,0.3-0.4,0.6-0.8,0.7c-0.3,0.1-1,0.2-1.4,0.2h-1.5c-0.5,0-1.2-0.1-1.5-0.4
			c-0.4-0.3-0.6-0.6-0.6-1.8V157h-2c-0.4,3.2-1.5,5-5.6,5.9c-0.2-0.4-0.6-1-0.9-1.3c3.6-0.7,4.6-2,4.9-4.6h-2.3v-6.4h10.2v6.4h-2.7
			v3.5c0,0.3,0,0.6,0.2,0.6c0.1,0.1,0.3,0.1,0.6,0.1L336.5,161.2L336.5,161.2z M338.5,149.4H326V148h3.2c-0.1-0.6-0.4-1.5-0.7-2.2
			l1.4-0.3c0.3,0.7,0.7,1.6,0.8,2.2l-0.8,0.2h3.7c0.3-0.7,0.7-1.7,1-2.4l1.5,0.3c-0.3,0.7-0.7,1.4-1,2.1h3.4V149.4L338.5,149.4z
			 M337.9,145.3h-11.2v-1.4h4.9c-0.2-0.5-0.4-1-0.6-1.5l1.5-0.3c0.3,0.5,0.6,1.2,0.8,1.8h4.7L337.9,145.3L337.9,145.3z M328.6,153.2
			h7.1v-1.5h-7.1V153.2z M328.6,155.8h7.1v-1.5h-7.1V155.8z"/>
	</g>
</g>
<rect x="14.2" y="186.4" class="st18" width="168.1" height="37.6"/>
<g>
	<rect x="182.3" y="186.4" class="st8" width="5" height="8.6"/>
	<rect x="187.4" y="178.7" class="st8" width="7.8" height="24.2"/>
</g>
<g>
	<path class="st19" d="M139.7,249.5c-14,0-25.5-11.4-25.5-25.5s11.4-25.5,25.5-25.5c14,0,25.5,11.4,25.5,25.5
		S153.7,249.5,139.7,249.5z"/>
	<path class="st19" d="M56.8,249.5c-14,0-25.5-11.4-25.5-25.5s11.5-25.5,25.5-25.5c14,0,25.5,11.4,25.5,25.5S70.9,249.5,56.8,249.5z
		"/>
</g>
<g>
	<rect x="7.8" y="186.4" class="st8" width="6.4" height="8.6"/>
	<rect y="178.7" class="st8" width="7.8" height="24.2"/>
</g>
<path class="st15" d="M140.3,232.6c-4.3,0-7.9-3.5-7.9-7.9s3.5-7.9,7.9-7.9s7.9,3.5,7.9,7.9S144.6,232.6,140.3,232.6z"/>
<path class="st15" d="M56.7,232.6c-4.3,0-7.9-3.5-7.9-7.9s3.5-7.9,7.9-7.9s7.9,3.5,7.9,7.9S61,232.6,56.7,232.6z"/>
<g>
	<path class="st20" d="M54.5,123.2c1.6,5,4.5,9,8.8,10.8c-0.4,0.4-1,1.1-1.3,1.6c-4.3-2.1-7.2-6-9-11.2c-1.1,4.3-3.5,8.7-9,11.2
		c-0.2-0.4-0.8-1-1.3-1.4c5.6-2.4,7.8-6.8,8.8-11h-8.3v-1.7h8.6c0.3-2.4,0.3-4.6,0.3-6.4H54c0,1.8,0,4-0.4,6.4H63v1.7L54.5,123.2
		L54.5,123.2z"/>
	<path class="st20" d="M70.4,118.4c-1.1,1.8-2.5,3.3-3.8,4.4c-0.3-0.3-0.9-1-1.2-1.3c2.1-1.5,3.9-3.9,5-6.5l1.6,0.4
		c-0.2,0.6-0.5,1.1-0.8,1.6H85v1.3L70.4,118.4L70.4,118.4z M71.6,130.9c-1,1.8-3,3.6-4.7,4.6c-0.2-0.4-0.7-0.9-1.1-1.2
		c1.6-0.8,3.5-2.4,4.5-3.9L71.6,130.9L71.6,130.9z M73.8,129.7v5.9h-1.6v-5.9h-6v-1.4h6v-3.9h1.6v3.9h5.9v1.4H73.8z M82.2,122.6
		c0,7,0.2,11.3,2,11.3c0.5,0,0.6-1.3,0.6-3.3c0.3,0.4,0.8,0.8,1.2,1c-0.1,2.9-0.5,3.9-1.9,3.9c-3.1,0-3.5-4.4-3.5-11.6H67.6v-1.3
		C67.6,122.6,82.1,122.6,82.2,122.6z M69,124.7c0.7,0.9,1.5,2,1.8,2.8l-1.3,0.6c-0.3-0.8-1-2-1.7-2.9C67.7,125.2,69,124.7,69,124.7z
		 M69.9,121.2v-1.3h13.4v1.3H69.9z M75.7,130.5c1.5,1.1,3.3,2.6,4.2,3.6l-1.1,1c-0.9-1-2.7-2.7-4.1-3.8
		C74.7,131.3,75.7,130.5,75.7,130.5z M78.6,125.3c-0.8,1.1-1.7,2.2-2.4,3l-1.1-0.5c0.7-0.9,1.6-2.2,2.1-3.1L78.6,125.3L78.6,125.3z"
		/>
	<path class="st20" d="M93.9,131.3c-2.1,0.6-4.3,1.4-6,1.9l-0.3-1.5c0.7-0.2,1.6-0.4,2.6-0.7v-6.3h-2.1v-1.5h2.1v-5h-2.3v-1.5h6v1.5
		h-2.2v5h2v1.5h-2v5.9l2.1-0.6L93.9,131.3L93.9,131.3z M107.9,130.2c-1,0.6-2.1,1.3-3.1,1.7c1,1,2.3,1.7,3.8,2.1
		c-0.4,0.3-0.8,0.9-1,1.3c-3.1-1-5.3-3.3-6.4-6.3c-0.8,0.7-1.7,1.4-2.8,2v2.6l3.8-0.9c-0.1,0.4,0,0.9,0,1.2
		c-4.3,1.1-4.9,1.3-5.3,1.5c-0.1-0.4-0.4-0.9-0.6-1.2c0.3-0.2,0.7-0.5,0.7-1.4v-1.1c-0.8,0.4-1.6,0.7-2.4,1c-0.2-0.4-0.6-0.9-1-1.1
		c2-0.5,4.2-1.5,5.8-2.7h-3.4v-4.6h10.6v4.6h-4.1c0.3,0.8,0.8,1.5,1.3,2.2c1-0.5,2.1-1.3,2.8-1.9L107.9,130.2L107.9,130.2z
		 M108.1,123.1H94.6v-1.4h13.5V123.1z M107.4,120.6H95.5v-4.7h11.8V120.6z M99,117.1h-2.1v2.3H99V117.1z M97.6,127.7h7.5v-2.1h-7.5
		V127.7z M102.4,117.1h-2.2v2.3h2.2V117.1z M105.9,117.1h-2.2v2.3h2.2V117.1z"/>
	<path class="st20" d="M117.3,130c-2.2,0.9-4.7,1.9-6.6,2.6l-0.5-1.7c0.8-0.2,1.8-0.6,2.8-1v-7.9h-2.5v-1.6h2.5v-5.2h1.6v5.2h2.2
		v1.6h-2.2v7.3l2.4-0.9L117.3,130L117.3,130z M128.1,134c0.3,0,0.6,0,0.8-0.1c0.2,0,0.3-0.2,0.4-0.5c0.1-0.3,0.1-1,0.1-1.9
		c0.3,0.3,0.9,0.6,1.4,0.7c0,0.9-0.1,1.8-0.3,2.2c-0.2,0.3-0.4,0.6-0.8,0.7c-0.3,0.1-0.9,0.2-1.4,0.2h-1.5c-0.5,0-1.2-0.1-1.5-0.4
		c-0.4-0.3-0.6-0.6-0.6-1.8v-3.3h-2c-0.4,3.2-1.5,5-5.6,5.9c-0.2-0.4-0.6-1-0.9-1.3c3.7-0.7,4.6-2,4.9-4.6h-2.3v-6.4H129v6.4h-2.7
		v3.5c0,0.3,0,0.6,0.2,0.6c0.1,0.1,0.3,0.1,0.6,0.1L128.1,134L128.1,134z M130.2,122.2h-12.5v-1.4h3.2c-0.1-0.6-0.4-1.5-0.7-2.2
		l1.4-0.3c0.3,0.7,0.7,1.6,0.8,2.2l-0.8,0.2h3.7c0.3-0.7,0.7-1.7,0.9-2.4l1.6,0.3c-0.3,0.7-0.7,1.4-1,2.1h3.4V122.2L130.2,122.2z
		 M129.6,118.1h-11.2v-1.4h4.9c-0.2-0.5-0.4-1-0.6-1.5l1.6-0.3c0.3,0.5,0.6,1.2,0.8,1.8h4.7L129.6,118.1L129.6,118.1z M120.3,126
		h7.1v-1.5h-7.1V126z M120.3,128.6h7.1v-1.5h-7.1V128.6z"/>
	<path class="st20" d="M153.3,128.8v1.6H133v-1.6h2.3l-0.4-11.9c1.4-0.5,3.1-1.2,4.2-1.7l0.8,1.4c-1,0.4-2.3,0.9-3.4,1.2l0.1,2.6h3
		v1.4h-3l0.1,2.8h3v1.4h-2.9l0.1,2.8h12.8c0.1-0.8,0.1-1.7,0.2-2.7h-2.9v-1.4h3c0.1-0.9,0.1-1.8,0.1-2.8h-3v-1.4h3c0-1,0-1.9,0-2.8
		h-3.2v-1.5h4.8c0,3.9-0.1,9.3-0.3,12.6L153.3,128.8L153.3,128.8z M141,131.7c-1.9,1.4-4.5,2.9-6.7,3.9c-0.2-0.3-0.7-0.9-1-1.3
		c2.1-0.9,4.8-2.4,6.3-3.6L141,131.7L141,131.7z M142.8,123.7c-0.2,1.6-0.7,3.1-1.4,4.2c-0.2-0.2-0.8-0.6-1.2-0.7
		c0.7-1,1-2.3,1.2-3.7L142.8,123.7L142.8,123.7z M144.3,122.5h-3.6v-7.3h1.5v2.1h3.7v1.4h-3.7v2.4h2.9v0h0.6v5.9
		c0,0.7-0.1,1-0.6,1.2c-0.5,0.2-1.3,0.2-2.4,0.2c-0.1-0.4-0.2-0.8-0.4-1.2c0.8,0,1.5,0,1.7,0c0.2,0,0.3-0.1,0.3-0.3V122.5
		L144.3,122.5z M146.2,130.6c2.4,1.1,4.9,2.5,6.6,3.6l-1.1,1.3c-1.5-1.1-4-2.6-6.4-3.7L146.2,130.6L146.2,130.6z"/>
	<path class="st20" d="M97,160.5v1.5H76.7v-1.5h2.7V155h14.9v5.5H97z M87.3,153.6h-9.8V143h9.5v1.3h-3.8v1.7h3.3v4.3h-3.3v2h4.2
		V153.6L87.3,153.6z M79,144.3v1.7h2.7v-1.7H79z M85,147.2H79v2H85V147.2z M79,152.3h2.7v-2H79V152.3z M81,160.5h2.9v-4.1H81V160.5z
		 M85.3,156.4v4.1h2.9v-4.1H85.3z M90,146.8c-0.6,1.2-1.2,2.3-1.9,3.2c-0.2-0.2-0.9-0.7-1.3-1c1.4-1.6,2.5-4.2,3.1-6.9l1.5,0.3
		c-0.2,1-0.5,2-0.9,2.9H97v1.5H90z M89.1,152.6v-1.5h7.5v1.5H89.1z M89.8,156.4v4.1h2.9v-4.1H89.8z"/>
	<path class="st20" d="M100,148.3c1.3,0.5,2.9,1.4,3.7,2.1l-0.9,1.4c-0.8-0.7-2.4-1.6-3.7-2.2L100,148.3L100,148.3z M102.6,154.3
		l1.3,0.9c-0.8,2.3-2,5.1-2.9,7.2l-1.5-0.9C100.4,159.7,101.7,156.8,102.6,154.3L102.6,154.3z M101,142.3c1.3,0.6,2.8,1.5,3.6,2.3
		l-1,1.3c-0.7-0.7-2.3-1.8-3.5-2.4L101,142.3z M107.7,158c-0.8,1.7-2.1,3.5-3.2,4.7c-0.3-0.2-0.9-0.7-1.3-0.9c1.2-1,2.3-2.6,3-4.1
		L107.7,158L107.7,158z M111.7,143.1v14.1h-6.5v-14.1H111.7z M106.6,147.3h3.6v-2.8h-3.6V147.3z M106.6,151.5h3.6v-2.8h-3.6V151.5z
		 M106.6,155.7h3.6v-2.8h-3.6V155.7z M110.4,157.5c0.9,1.1,2.1,2.6,2.6,3.4l-1.3,0.8c-0.5-0.9-1.6-2.5-2.5-3.6L110.4,157.5z
		 M114.9,144.4v12.8h-1.5v-12.8H114.9z M118.8,142.1v18.4c0,1-0.2,1.5-0.9,1.8s-1.7,0.3-3.5,0.3c-0.1-0.4-0.3-1.1-0.5-1.6
		c1.3,0,2.5,0,2.9,0c0.4,0,0.5-0.1,0.5-0.5v-18.5H118.8L118.8,142.1z"/>
</g>
<g>
	<path class="st13" d="M697.8,93.4c-1.1-0.3-2.3-0.5-3.3-1c-3.9-1.9-5.9-5-6.1-9.3c-0.1-1.3,0.9-2.3,2.1-2.3c1.2,0,2.1,0.9,2.1,2.2
		c0.1,3.2,2.6,5.9,5.8,6.1c3.3,0.2,6.2-2.1,6.6-5.3c0.5-3.6-2.3-7-5.9-7.1c-0.3,0-0.5,0-0.8,0c-10.8,0-21.6,0-32.4,0
		c-1.3,0-2.2-0.4-2.7-1.7v-1c0.5-1.2,1.4-1.7,2.7-1.6c10.9,0,21.8,0,32.7,0c4.8,0,8.8,2.9,10.2,7.3c2,6.2-2.2,12.7-8.6,13.6
		c-0.1,0-0.2,0.1-0.3,0.1L697.8,93.4L697.8,93.4z"/>
	<path class="st13" d="M717.7,58.9c-0.1,0.6-0.2,1.2-0.4,1.7c-1.2,4.6-5.4,7.8-10.1,7.8c-11.1,0-22.1,0-33.2,0
		c-1.3,0-2.3-0.9-2.3-2.2c0-1.2,1-2.1,2.3-2.1c11,0,22,0,33,0c3.3,0,5.9-2.2,6.4-5.5c0.5-3.3-2.2-6.7-5.6-7
		c-3.8-0.3-6.7,2.3-6.9,6.1c-0.1,1.4-1,2.3-2.2,2.2c-1.2,0-2.1-1-2-2.4c0-0.7,0.1-1.5,0.3-2.2c1.1-4.8,5.6-8.4,11.1-8
		c4.8,0.3,8.9,4.2,9.6,9.1c0,0.1,0.1,0.2,0.1,0.3L717.7,58.9L717.7,58.9z"/>
	<path class="st13" d="M663.2,57.4c0.5-1.3,1.4-1.7,2.7-1.7c5.8,0,11.6,0,17.4,0c3,0,5.5-1.9,6.2-4.8c0.8-3.4-1.2-6.7-4.7-7.6
		c-3.2-0.8-6.6,1.3-7.4,4.6c-0.1,0.5-0.2,1-0.2,1.5c-0.1,1.2-1,2.1-2.2,2.1c-1.2,0-2.1-1-2.1-2.3c0-4.3,2.8-8.3,6.9-9.7
		c0.8-0.3,1.7-0.4,2.5-0.6c0.7,0,1.4,0,2.1,0c0.6,0.1,1.2,0.2,1.8,0.4c4.6,1.3,7.9,5.7,7.6,10.4c-0.2,5-3.7,9.1-8.6,10
		c-0.7,0.1-1.5,0.2-2.2,0.2c-5.7,0-11.5,0-17.2,0c-1.3,0-2.2-0.4-2.7-1.6L663.2,57.4L663.2,57.4z"/>
</g>
<g>
	<path class="st13" d="M886.6,39.9c1,0.2,2,0.3,2.9,0.5c6.8,1.5,12.5,7.3,13.8,14.1c1,5.3,0,10.2-3.1,14.6c-0.6,0.9-1.4,1.7-2,2.6
		c-1.5,2.1-2.2,4.5-2.2,7.1c0,0.8,0,1.7,0,2.5c0,2.1-1,3.6-2.9,4.5c-0.2,0.1-0.4,0.3-0.4,0.6c-0.8,3.6-4.1,6.2-7.8,6
		c-3.4-0.1-6.5-2.7-7.2-6c0-0.2-0.2-0.5-0.5-0.6c-1.8-0.8-2.7-2.3-2.8-4.2c0-0.8,0-1.6,0-2.4c0.1-3.3-1-6.2-3.2-8.7
		c-3.1-3.6-4.6-7.8-4.5-12.6c0.1-7,4.6-13.8,11.1-16.5c1.8-0.8,3.7-1.2,5.7-1.4c0.1,0,0.2,0,0.3-0.1
		C884.8,39.9,885.7,39.9,886.6,39.9L886.6,39.9z M893,77c0.2-0.8,0.3-1.6,0.5-2.4c0.7-2.5,2.1-4.5,3.7-6.5c2.8-3.5,3.9-7.6,3.2-12.1
		c-0.5-3.3-1.9-6.1-4.3-8.4c-3.5-3.4-7.7-5-12.5-4.4c-5.8,0.6-10.1,3.7-12.4,9c-2.6,5.9-1.7,11.4,2.5,16.4c1.5,1.8,2.7,3.8,3.3,6
		c0.2,0.8,0.4,1.6,0.5,2.4L893,77L893,77z M877.5,80.1c0,0.2,0,0.3,0,0.5c0,0.4,0,0.8,0,1.2c0.1,0.8,0.7,1.3,1.5,1.3
		c4.1,0,8.2,0,12.4,0c0.7,0,1.3-0.4,1.4-1.1c0.1-0.6,0.1-1.3,0.1-1.9C893,80.1,877.5,80.1,877.5,80.1z M889.5,86.2h-8.6
		c0.5,1.8,2.4,3.2,4.3,3.2S889,88,889.5,86.2z"/>
	<path class="st13" d="M858.9,59.5c0.4-0.9,1.1-1.2,2.1-1.1c0.8,0,1.6,0,2.5,0c1,0,1.6,0.7,1.6,1.5s-0.7,1.5-1.6,1.5
		c-0.8,0-1.6,0-2.5,0c-1,0.1-1.7-0.2-2.1-1.1V59.5z"/>
	<path class="st13" d="M864.7,51.6c0,0.8-0.3,1.3-0.9,1.5c-0.5,0.3-1.1,0.3-1.6-0.2c-0.8-0.8-1.7-1.6-2.5-2.5
		c-0.5-0.6-0.4-1.5,0.1-2c0.5-0.5,1.4-0.6,2-0.1c0.8,0.8,1.6,1.6,2.4,2.4C864.5,51,864.6,51.4,864.7,51.6L864.7,51.6z"/>
	<path class="st13" d="M907.5,53.3c-0.8,0-1.2-0.3-1.5-0.9c-0.3-0.5-0.3-1.1,0.1-1.5c0.8-0.9,1.7-1.7,2.5-2.5c0.5-0.5,1.4-0.4,2,0.1
		c0.5,0.5,0.7,1.4,0.2,2c-0.8,0.9-1.7,1.7-2.6,2.6C908,53.2,907.7,53.3,907.5,53.3L907.5,53.3z"/>
	<path class="st13" d="M863,66.6c0.7,0,1.2,0.3,1.5,0.8c0.3,0.6,0.3,1.1-0.1,1.6c-0.8,0.9-1.7,1.7-2.5,2.5c-0.5,0.5-1.4,0.4-1.9-0.1
		c-0.5-0.5-0.7-1.4-0.2-2c0.8-0.9,1.7-1.8,2.6-2.6C862.5,66.6,862.8,66.6,863,66.6L863,66.6z"/>
	<path class="st13" d="M907.6,66.5c0.2,0.1,0.6,0.2,0.9,0.5c0.7,0.7,1.4,1.4,2.1,2.1c0.7,0.7,0.7,1.6,0,2.2
		c-0.6,0.6-1.5,0.6-2.2-0.1c-0.7-0.7-1.4-1.4-2.1-2.1c-0.5-0.5-0.6-1.1-0.3-1.7C906.2,66.8,906.7,66.6,907.6,66.5L907.6,66.5z"/>
	<path class="st13" d="M908.5,58.4c0.5,0,1,0,1.5,0c0.9,0,1.5,0.7,1.5,1.5s-0.7,1.5-1.5,1.5c-1,0-2,0-3.1,0c-0.9,0-1.5-0.7-1.5-1.5
		c0-0.9,0.7-1.5,1.6-1.5C907.4,58.4,908,58.4,908.5,58.4L908.5,58.4z"/>
	<path class="st13" d="M885.7,46.1c5.7,0.3,10.5,4.3,11.6,9.9c0.2,0.7,0.2,1.5,0.2,2.2c0,1-0.6,1.7-1.5,1.7c-0.9,0-1.6-0.6-1.6-1.6
		c-0.1-3.1-1.4-5.6-3.9-7.4c-1.4-1.1-3.1-1.6-4.9-1.7c-0.2,0-0.5,0-0.7,0c-0.8-0.1-1.4-0.8-1.4-1.6c0-0.8,0.7-1.4,1.5-1.5
		C885.4,46.1,885.5,46.1,885.7,46.1L885.7,46.1z"/>
</g>
<path id="Layer_1" class="st13" d="M281.1,63.3c1.2-0.7,6.3-3.8,7.3-4.1c4.2-1.5,5.2,3,10.3,5.9c2.5,1.4,6.3,1.7,7.3,3.7
	c0.8,2.1-1.3,4.1-3.9,3c-1.5-0.6-2.3,1.6-0.9,2.2c4.2,1.7,7.9-1.5,7.3-5l8.4-4.9c3.4-1.9,5.5,2.7,2.8,4.3l-14.1,8.1
	c-3.2,1.8-6,2.1-9.8,1c-2.8-0.8-6.1-2.5-9.8-5.8L281.1,63.3L281.1,63.3z M295.8,88.6c-1.5-0.7-2.9-1.4-6.3,0c-2.5,0.9-3.5,0.5-4.4,0
	c-1.5-0.7-3-1.4-6.3,0c-3.2,1.2-4.1,0.3-4.1,0.3c-1.1-1.1-2.8,0.6-1.6,1.7c0,0,2.1,2.1,6.6,0.2c2.5-0.9,3.4-0.5,4.4,0
	c1.5,0.7,2.9,1.4,6.3,0c2.5-0.9,3.5-0.5,4.4,0c1.5,0.7,3,1.4,6.3,0c2.5-0.9,3.5-0.5,4.5,0c1.5,0.7,2.9,1.4,6.3,0
	c3.2-1.2,4.1-0.2,4.1-0.2c1.1,1.1,2.8-0.6,1.7-1.7c0,0-2.1-2.1-6.6-0.3c-2.5,0.9-3.5,0.5-4.5,0c-1.5-0.7-2.9-1.4-6.3,0
	C297.8,89.5,296.8,89.1,295.8,88.6z M295.6,83.8c-3.4-1.3-4.9-0.6-6.3,0c-1,0.5-2,0.9-4.4,0c-4.6-1.8-6.6,0.3-6.6,0.3
	c-1.1,1.1,0.5,2.8,1.6,1.7c0,0,1-1,4.1,0.3c3.4,1.3,4.9,0.7,6.3,0c1-0.5,2-0.9,4.4,0c3.4,1.3,4.9,0.7,6.3,0c1-0.5,2-0.9,4.5,0
	c3.4,1.3,4.8,0.7,6.3,0c1-0.5,2-0.9,4.5,0c5,1.9,8.1-0.4,6.7-1.9c-0.5-0.5-1.2-0.5-1.7,0c0,0-1,1-4.1-0.3c-3.4-1.3-4.9-0.6-6.3,0
	c-1,0.5-2,0.9-4.4,0c-3.4-1.3-4.9-0.6-6.3,0C299.1,84.3,298.1,84.7,295.6,83.8z M298.7,41.3c-10.4,11.8-3.5,18,2.3,16.9
	c3.9,10.3,26.5,3.8,8.3-16.9c-0.5-0.5-1.2-0.6-1.7-0.2c-0.8,0.7-3.2,4-3.6,4.7c-0.9-1.5-2-3-3.2-4.4c-0.3-0.3-0.5-0.6-1-0.6
	C299.3,40.8,299,41,298.7,41.3L298.7,41.3z M296.3,54.3c-1.7-2.6,0.5-6.9,3.3-10.4c1.1,1.4,2.1,2.9,2.9,4.3c-1.2,2.3-2.2,5-2,7.6
	C299,56.2,297.2,55.6,296.3,54.3L296.3,54.3z M313.7,56.8c-1.6,6.4-14.5,5-9.8-6c1.1-2.5,2.7-4.8,4.5-6.9
	C313.3,49.7,314.4,54,313.7,56.8z M288.5,56.7c-0.7,0.2-1.5,0.5-2.1,0.9L273,65.2c-0.6,0.3-0.8,1-0.5,1.6h0l8,13.9
	c0.5,1,1.8,0.9,2.2,0l2.7-6.2c6.3,5.2,14.3,8.2,21.1,4.2l14.3-8.3c3.8-2.2,3-7.9-1.2-9c-1.5-0.4-2.7-0.1-4.1,0.7l-8.1,4.7
	c-1.9-2.4-5.4-2.6-7.7-3.8C295,60.3,293.7,55.2,288.5,56.7L288.5,56.7z M279,64.5l4.7,8.1l-2.1,4.9l-6.3-10.9L279,64.5L279,64.5z"/>
<path class="st13" d="M468.2,66.2c0-9.3,5.4-18.4,13.7-22.7c-0.9-1.6-2.9-4.6,0.1-5.2c4.8-0.5,8.3,3.7,11.9,5.8
	c-4.9,1.9-4.1,16.1-8.6,5.8c-5.9,3.1-9.8,9.6-9.8,16.3c-1.8,0-3.6-1-3.4-2.9c-0.1,0.4-0.2,0.8-0.4,1.1
	C470.9,65.5,469.6,66.2,468.2,66.2L468.2,66.2z M521.8,54.3c-0.6-3.1-3.6-1-5.2-0.2c-4.3-8.3-13.4-13.7-22.7-13.7
	c0,1.8,1.1,3.5,2.9,3.8c-1.8-0.2-2.9,1.7-2.9,3.4c6.7,0,13.2,3.9,16.3,9.8c-10.3,4.5,3.9,3.7,5.8,8.6
	C518.2,62.5,522.3,59.1,521.8,54.3L521.8,54.3z M516.2,68c-0.2,0.3-0.3,0.7-0.4,1.1c0.2-1.8-1.7-2.9-3.4-2.9
	c0,6.7-3.9,13.2-9.8,16.3c-4.5-10.3-3.7,3.8-8.6,5.8c3.6,2.2,7.1,6.4,11.9,5.8c3.1-0.6,1-3.6,0.1-5.2c8.3-4.3,13.7-13.4,13.7-22.7
	C518.2,66.2,516.9,66.9,516.2,68L516.2,68z M492.1,88.5c-0.3-0.2-0.7-0.3-1.1-0.4c1.8,0.2,2.9-1.7,2.9-3.4c-6.7,0-13.2-3.9-16.3-9.8
	c10.3-4.6-3.9-3.7-5.8-8.6c-2.2,3.6-6.4,7.1-5.9,11.9c0.6,3.1,3.6,1,5.2,0.2c4.3,8.3,13.4,13.7,22.7,13.7
	C493.9,90.5,493.2,89.2,492.1,88.5L492.1,88.5z"/>
<g>
	<path class="st21" d="M114.6,68.8c0.6,4.7-1.3,9.6-5.3,12.7c-6,4.5-14.6,3.3-19.1-2.7c-4.4-5.9-3.3-14.3,2.5-18.9l1.3,1.7l2.2-8
		l-8.3-0.2l1.3,1.7c-8.4,6.5-10.1,18.6-3.7,27.1c6.4,8.6,18.7,10.4,27.3,3.9c6.2-4.6,8.8-12.2,7.5-19.3"/>
	<path class="st21" d="M106.5,70.1c0,3-2.5,5.5-5.5,5.5s-5.5-2.5-5.5-5.5s2.5-5.5,5.5-5.5"/>
	<g>
		<path class="st21" d="M127.2,44c3,6.5,1.8,14.3-3.5,19.7s-13.2,6.4-19.7,3.4c-3-6.5-1.8-14.3,3.5-19.7S120.8,40.9,127.2,44z"/>
		<line class="st21" x1="127.2" y1="44" x2="104.8" y2="66.3"/>
		<line class="st21" x1="104" y1="67.1" x2="101.3" y2="69.8"/>
		<line class="st21" x1="115.8" y1="43.5" x2="116.3" y2="54.8"/>
		<line class="st21" x1="108.2" y1="47.2" x2="108.8" y2="62.3"/>
		<line class="st21" x1="127.6" y1="55.4" x2="116.4" y2="54.9"/>
		<line class="st21" x1="123.9" y1="63" x2="108.9" y2="62.3"/>
	</g>
</g>
<g>
	<defs>
		<rect id="SVGID_1_" x="971.2" y="11.5" width="160.3" height="119.4"/>
	</defs>
	<clipPath id="SVGID_00000028290754105182642590000017754362499510222487_">
		<use xlink:href="#SVGID_1_"  style="overflow:visible;"/>
	</clipPath>
	<g style="clip-path:url(#SVGID_00000028290754105182642590000017754362499510222487_);">
		<g>
			<g>
				<path class="st23" d="M1026.7,186.2c-0.4-0.3-0.7-0.7-0.9-1.2c-1.2-2.1-0.4-4.9,1.8-6c11.1-6.1,23.3-13.2,28.5-16.5
					c-4.1-4.8-15.8-14.9-26.2-23.1c-1.9-1.5-2.2-4.3-0.7-6.2c1.5-1.9,4.3-2.2,6.2-0.7c0.1,0.1,7.3,5.8,14.6,12.1
					c14.6,12.7,16,16,16.2,18.5c0.1,1.5-0.4,2.9-1.3,3.9c-2.9,3.1-24,14.9-33,19.9C1030.1,187.7,1028.1,187.4,1026.7,186.2
					L1026.7,186.2z"/>
				<path class="st24" d="M1024.2,138.9l25.4,21.2c1,0.8,2.4,1,3.5,0.4c2.1-1.1,5.5-3.4,7.5-7c0.7-1.3,0.4-2.9-0.7-3.9l-21.1-18.7
					c-0.4-0.3-0.8-0.6-1.2-0.7c-2.4-0.7-10.3-2.2-14.2,4.8C1022.7,136.3,1023,138,1024.2,138.9L1024.2,138.9z"/>
				<path class="st25" d="M1026,179.6l27.9-16.3c0,0,0.1,4.1,5.1,8.1l-28,16c0,0-3.7,1.2-5.4-2.1S1026,179.6,1026,179.6z"/>
				<g>
					<path class="st24" d="M1009.4,191.4c0,0,3.5,11.2,15.8,18.2c0.8,0.4,1.8,0.3,2.3-0.4c1.3-1.4,2.8-4.2-0.8-8
						c-4.4-4.7-4.1-12.5-7.6-13.6S1010.9,187.9,1009.4,191.4L1009.4,191.4z"/>
					<path class="st24" d="M1020,195.4l11.7-7.4c0,0-4.1-3.7-5.2-8.9l-14.3,9.3C1012.1,188.4,1013.4,194.9,1020,195.4L1020,195.4z"
						/>
					<path class="st25" d="M1027.9,202.7c0,0-2.3-1.9-6.7,2.1c0,0-6.8-5.5-10.7-15.2c0,0-1.2,0.7-1.6,2c0,0,2.5,6.6,8,11.9
						c4.2,4,7.5,6.2,8.8,7c0.4,0.2,0.9,0.2,1.3-0.1C1028.3,209.3,1030.8,206.1,1027.9,202.7L1027.9,202.7z"/>
					<path class="st25" d="M1019.6,190.4c-1,1.2-2.5,1.6-3.2,1s-0.5-2.1,0.6-3.3s2.5-1.6,3.2-1S1020.7,189.2,1019.6,190.4z"/>
				</g>
			</g>
			<path class="st23" d="M1084.6,126.9c-10.6,0-17.2-2.8-20.2-8.3c-6.4-12.1,9.9-31.3,11.7-33.4c1.3-1.5,3.5-1.6,5-0.3
				s1.6,3.5,0.3,5l0,0c-5.8,6.7-13.9,19.5-10.8,25.4c2.1,4,10.2,5.4,22.9,3.9c1.9-0.2,3.7,1.2,3.9,3.1s-1.2,3.7-3.1,3.9
				C1090.8,126.7,1087.5,126.9,1084.6,126.9L1084.6,126.9z"/>
			<path class="st26" d="M1051.9,211.3c-0.5,0-1-0.1-1.4-0.2c-2.3-0.8-3.6-3.3-2.8-5.6c5.1-14.8,10.5-31.5,11.3-35.6
				c-2.2-4.2-16.2-20.8-28.5-34.3c-1.7-1.8-1.5-4.6,0.3-6.3c1.8-1.7,4.6-1.5,6.3,0.3c0.1,0.1,7.6,8.4,15,17.1
				c16,18.7,15.9,20.9,15.9,22.9c-0.1,4.2-8.3,28.5-11.8,38.8C1055.5,210.2,1053.8,211.3,1051.9,211.3L1051.9,211.3z M1059.2,170.3
				L1059.2,170.3L1059.2,170.3z"/>
			<path class="st27" d="M1037.7,141.5l-11.2-2c-5.3-1-8.9-6.1-8-11.5l0,0c1-5.3,6.1-8.9,11.5-8l11.2,2c5.3,1,8.9,6.1,8,11.5l0,0
				C1048.2,138.9,1043,142.5,1037.7,141.5z"/>
			<path class="st27" d="M1029.1,138.3l21.4,25.2c0.8,1,2.2,1.4,3.4,1c2.3-0.8,6-2.4,8.6-5.7c0.9-1.2,0.9-2.8,0-3.9l-17.6-22
				c-0.3-0.4-0.7-0.7-1.1-0.9c-2.3-1.1-9.8-3.9-14.8,2.3C1028.1,135.4,1028.1,137.2,1029.1,138.3z"/>
			<path class="st25" d="M1047.1,206.9l11.2-35c0,0,2.8,3,9.2,2.7l-11.4,34.8c0,0-2,3.3-5.4,2S1047.1,206.9,1047.1,206.9
				L1047.1,206.9z"/>
			<path class="st28" d="M1079.5,88.3L1079.5,88.3c0-6.7-15.7-12.6-22.9-10.2c-8,2.6-34.3,43.8-34.3,43.8s17.2,6.8,26.1,6.8
				c0,0,8.2-9.3,16.2-19c3.2-0.1,7.2-0.8,9.7-3.5C1079,101.3,1079.5,88.3,1079.5,88.3L1079.5,88.3z"/>
			<path class="st26" d="M1065.2,124.9c-10.8,0-17.6-2.8-20.8-8.6c-7-12.6,8.3-32.6,10.1-34.8c1.2-1.5,3.5-1.8,5-0.6s1.8,3.5,0.6,5
				l0,0c-3.7,4.7-13.5,19.8-9.5,26.9c2.4,4.3,10.7,5.9,23.3,4.4c1.9-0.2,3.7,1.2,3.9,3.1s-1.2,3.7-3.1,3.9
				C1071.3,124.7,1068.1,124.9,1065.2,124.9L1065.2,124.9z"/>
			<path class="st26" d="M1074.5,117.2c0,0,8.3-0.3,10.2,2.1c1.3,1.7,4.7,8.2,0.5,9.1c-1.9,0.4-2.3-0.9-2.6-2.5
				c-0.3-2.1-2.3-3-3.4-3.2c-1.7-0.4-2.8,1.3-2.8,1.6c0,0.2-3.8,0.3-3.8,0.3L1074.5,117.2L1074.5,117.2z"/>
			<g>
				<path class="st24" d="M1042.5,226.7c0,0,10,6.1,23.9,3.1c0.9-0.2,1.5-0.9,1.5-1.8c0-1.9-0.7-5-5.9-5.4
					c-6.4-0.6-11.4-6.6-14.7-5.2S1041.3,223,1042.5,226.7L1042.5,226.7z"/>
				<path class="st24" d="M1053,222.7l3.8-13.2c0,0-5.5-0.1-9.8-3.3l-4.5,16.5C1042.5,222.7,1047.8,226.6,1053,222.7L1053,222.7z"/>
				<path class="st25" d="M1063.8,222.9c0,0-3,0.1-3.6,6c0,0-8.7,0.4-18.1-4.2c0,0-0.4,1.4,0.2,2.6c0,0,6.3,3.2,13.9,3.6
					c5.8,0.2,9.7-0.3,11.3-0.6c0.5-0.1,0.8-0.5,0.8-0.9C1068.5,227.5,1068.2,223.5,1063.8,222.9L1063.8,222.9z"/>
				<path class="st25" d="M1049.4,219.1c0,1.6-0.8,2.9-1.8,2.9s-1.8-1.3-1.8-2.9s0.8-2.9,1.8-2.9S1049.4,217.6,1049.4,219.1z"/>
			</g>
			<g>
				<g>
					<path class="st29" d="M1059.1,56.3c-33.7-16.3-44.2,3.2-56,26c0,0,15.5,7.4,29.1-8.7c13.6-16.1,27.5-13.4,27.5-13.4
						L1059.1,56.3L1059.1,56.3z"/>
					<path class="st30" d="M1057.9,54.3l-1.8-0.8c-1.4-0.6-3,0.6-2.8,2.1l0.5,3.2c0.2,1,1,1.8,2.1,1.7l3.6-0.1L1057.9,54.3
						L1057.9,54.3z"/>
				</g>
				<path class="st26" d="M1075.4,69.2l2,0.8c2.3,0.9,3.5,3.5,2.6,5.9l-2.2,5.6c-0.9,2.3-3.5,3.5-5.9,2.6l-2-0.8
					c-2.3-0.9-3.5-3.5-2.6-5.9l2.2-5.6C1070.4,69.5,1073.1,68.3,1075.4,69.2z"/>
				<path class="st31" d="M1077,69.7l-1.1-0.4c-2.6-1-5.5,0.3-6.5,2.9l-1.6,4.1c2.5,3.9,5.7,5.8,8.7,6.7c0.7-0.5,1.2-1.2,1.5-2.1
					l1.8-4.7C1080.9,73.7,1079.6,70.7,1077,69.7L1077,69.7z"/>
				<path class="st26" d="M1077.6,37.9l6.8,0.6c8,0.7,13.9,7.8,13.1,15.8l-1,11.1c-0.7,8-7.8,13.9-15.8,13.1l-6.8-0.6
					c-8-0.7-13.9-7.8-13.1-15.8l1-11.1C1062.6,43.1,1069.7,37.2,1077.6,37.9z"/>
				<path class="st29" d="M1089.9,39c9.1-3.9,18.5,4.5,11.4,11.6c-7.1,7.1-18.3-0.3-18.3-0.3s-1.9,8.6-11.7,6.8
					c0,0-2.7,12.2-9.5,11.2c0,0-8.1-10.5-2.4-23.3C1064.2,34.3,1081.4,31.8,1089.9,39L1089.9,39z"/>
				<g>
					<path class="st26" d="M1075,58.1c0,2.4-1.9,4.3-4.3,4.3s-4.3-1.9-4.3-4.3s1.9-4.3,4.3-4.3S1075,55.8,1075,58.1z"/>
					<path class="st32" d="M1073,58.1c0,1.2-1,2.2-2.2,2.2s-2.2-1-2.2-2.2s1-2.2,2.2-2.2S1073,56.9,1073,58.1z"/>
				</g>
				<g>
					<g>
						<path class="st33" d="M1082.3,57.4c-0.2,1,0.5,2,1.5,2.2s2-0.5,2.2-1.5s-0.5-2-1.5-2.2S1082.5,56.4,1082.3,57.4z"/>
						<path class="st33" d="M1092.1,58.9c-0.2,0.9,0.4,1.8,1.3,1.9s1.8-0.4,1.9-1.3s-0.4-1.8-1.3-1.9S1092.2,58,1092.1,58.9z"/>
						<path class="st31" d="M1091.5,65.4c0.1,0,0.3,0,0.4-0.1c0.9-0.7,1.3-1.5,1.2-2.3c-0.2-1.2-1.5-2-2.1-2.3l-0.2-3.8
							c0-0.3-0.2-0.5-0.5-0.5c-0.3,0-0.5,0.2-0.5,0.5l0.2,4.4l0.3,0.1c0.4,0.2,1.7,0.8,1.8,1.6c0.1,0.4-0.2,0.9-0.8,1.4
							c-0.2,0.2-0.2,0.5-0.1,0.7C1091.2,65.3,1091.3,65.4,1091.5,65.4L1091.5,65.4z"/>
					</g>
					<g>
						<path class="st33" d="M1080.4,63l10.2,4.9c0,0-2.8,4.7-8,2.2C1078.1,68,1080.4,63,1080.4,63z"/>
						<path class="st34" d="M1082.4,66.4c-0.9-0.7-1.7-1.1-2.5-1.3c-0.2,1.6,0.2,3.8,2.8,5.1c0.5,0.2,1,0.4,1.5,0.5
							C1084.4,69.3,1084.1,67.8,1082.4,66.4L1082.4,66.4z"/>
						<path class="st13" d="M1080.4,63c1.1,5.6,6.8,6.6,10.2,4.9C1090.7,67.9,1080.4,63,1080.4,63z"/>
					</g>
				</g>
				<path class="st35" d="M1099.4,39.1c-5.5,3.3-15.1,5.3-30.4-2.6c-1.8,0.7-3.5,1.6-5,2.8c5.2,2.6,12.1,5,20.5,6.1
					c9.3,1.2,15.2-0.2,18.8-2.2C1102.6,41.5,1101.2,40.1,1099.4,39.1z"/>
			</g>
		</g>
	</g>
</g>
<g>
	<path class="st13" d="M847.5,131.3c-2.1,0.6-4.3,1.4-6,1.9l-0.3-1.5c0.7-0.2,1.6-0.4,2.6-0.7v-6.3h-2.1v-1.5h2.1v-5h-2.3v-1.5h6
		v1.5h-2.2v5h2v1.5h-2v5.9l2.1-0.6L847.5,131.3L847.5,131.3z M861.4,130.2c-1,0.6-2.1,1.3-3.1,1.7c1,1,2.3,1.7,3.8,2.1
		c-0.4,0.3-0.8,0.9-1,1.3c-3.1-1-5.3-3.3-6.4-6.3c-0.8,0.7-1.7,1.4-2.8,2v2.6l3.8-0.9c0,0.4,0,0.9,0,1.2c-4.3,1.1-4.9,1.3-5.3,1.5
		c-0.1-0.4-0.4-0.9-0.6-1.2c0.3-0.2,0.7-0.5,0.7-1.4v-1.1c-0.8,0.4-1.6,0.7-2.4,1c-0.2-0.4-0.6-0.9-1-1.1c2-0.5,4.2-1.5,5.8-2.7
		h-3.4v-4.6h10.6v4.6h-4.1c0.3,0.8,0.8,1.5,1.3,2.2c1-0.5,2.1-1.3,2.8-1.9L861.4,130.2L861.4,130.2z M861.7,123.1h-13.5v-1.4h13.5
		V123.1z M860.9,120.6H849v-4.7h11.8V120.6z M852.6,117.1h-2.1v2.3h2.1V117.1z M851.2,127.7h7.5v-2.1h-7.5V127.7z M856,117.1h-2.2
		v2.3h2.2V117.1z M859.4,117.1h-2.2v2.3h2.2V117.1z"/>
	<path class="st13" d="M870.9,130c-2.2,0.9-4.7,1.9-6.6,2.6l-0.5-1.7c0.8-0.2,1.8-0.6,2.8-1v-7.9h-2.5v-1.6h2.5v-5.2h1.6v5.2h2.2
		v1.6h-2.2v7.3l2.4-0.9L870.9,130L870.9,130z M881.7,134c0.3,0,0.7,0,0.8-0.1c0.2,0,0.3-0.2,0.4-0.5c0-0.3,0.1-1,0.1-1.9
		c0.3,0.3,0.9,0.6,1.3,0.7c0,0.9-0.1,1.8-0.3,2.2c-0.2,0.3-0.4,0.6-0.8,0.7c-0.3,0.1-1,0.2-1.4,0.2h-1.5c-0.5,0-1.2-0.1-1.5-0.4
		c-0.4-0.3-0.6-0.6-0.6-1.8v-3.3h-2c-0.4,3.2-1.5,5-5.6,5.9c-0.2-0.4-0.6-1-0.9-1.3c3.7-0.7,4.6-2,4.9-4.6h-2.3v-6.4h10.2v6.4h-2.7
		v3.5c0,0.3,0,0.6,0.2,0.6c0.1,0.1,0.3,0.1,0.6,0.1L881.7,134L881.7,134z M883.7,122.2h-12.5v-1.4h3.2c-0.1-0.6-0.4-1.5-0.7-2.2
		l1.4-0.3c0.3,0.7,0.7,1.6,0.8,2.2l-0.8,0.2h3.7c0.3-0.7,0.7-1.7,1-2.4l1.5,0.3c-0.3,0.7-0.7,1.4-1,2.1h3.4L883.7,122.2L883.7,122.2
		z M883.1,118.1h-11.2v-1.4h4.9c-0.2-0.5-0.4-1-0.6-1.5l1.5-0.3c0.3,0.5,0.6,1.2,0.8,1.8h4.7L883.1,118.1L883.1,118.1z M873.9,126
		h7.1v-1.5h-7.1V126z M873.9,128.6h7.1v-1.5h-7.1V128.6z"/>
	<path class="st13" d="M905.6,120.8c-0.5,3.6-1.4,6.6-2.8,9c1.1,1.9,2.5,3.5,4.3,4.4c-0.4,0.3-0.9,0.9-1.2,1.4
		c-1.7-1-3.1-2.4-4.2-4.3c-1.3,1.8-3,3.2-5.2,4.4c-0.2-0.4-0.7-1.1-1-1.5c2.3-1.1,4.1-2.6,5.4-4.5c-0.9-1.8-1.5-3.9-2-6.2
		c-0.4,1-1,1.9-1.5,2.7c-0.2-0.3-0.8-0.8-1.2-1.1c-0.9,1.1-2.2,2.2-3.4,3v0.9c1.4-0.2,2.9-0.4,4.4-0.6l0,1.5c-1.5,0.2-3,0.4-4.4,0.6
		v3.4c0,0.9-0.2,1.3-0.8,1.5c-0.6,0.2-1.6,0.2-3,0.2c-0.1-0.4-0.3-1-0.5-1.5c1.1,0.1,2.1,0,2.4,0c0.3,0,0.4-0.1,0.4-0.3v-3.2
		c-1.7,0.2-3.2,0.4-4.5,0.6l-0.2-1.5c1.3-0.2,2.9-0.4,4.7-0.6v-1.6c0.9-0.5,1.8-1.3,2.6-2h-3.5c-0.9,0.7-1.8,1.3-2.7,1.8
		c-0.2-0.3-0.9-1-1.2-1.3c1.8-0.9,3.5-2.1,4.9-3.6h-4.8v-1.5h3.9v-2.2h-3v-1.4h3V115h1.5v2.4h2.3v1.4c0.6-1,1.2-2.1,1.6-3.2l1.5,0.4
		c-0.8,1.8-1.7,3.5-2.8,5h2.7v1.5h-3.9c-0.5,0.6-1,1.1-1.6,1.6h3.3l0.3-0.1l0.8,0.6c1.7-2.3,2.9-5.9,3.5-9.7l1.7,0.3
		c-0.2,1.3-0.5,2.7-0.9,3.9h6.6v1.6L905.6,120.8L905.6,120.8z M891.9,121.1h0.7c0.6-0.7,1.1-1.5,1.6-2.2h-2.3L891.9,121.1
		L891.9,121.1z M901.9,127.9c1-2,1.5-4.3,2-7.1h-3.9C900.4,123.3,901,125.8,901.9,127.9z"/>
	<path class="st13" d="M929.1,118.7h-6c1.8,1.3,3.9,3,5,4.2l-1.4,1c-0.4-0.5-1-1-1.5-1.6c-11.5,0.6-12.7,0.6-13.5,0.9
		c-0.1-0.3-0.3-1.1-0.5-1.6c0.5-0.1,1.1-0.5,1.9-1.2c0.4-0.2,1.1-0.9,2-1.7h-5.7v-1.5h7.2c0.7-0.8,1.5-1.6,2.1-2.5l1.7,0.7
		c-0.5,0.6-1.1,1.2-1.6,1.8h10.3L929.1,118.7L929.1,118.7z M926.7,133.6c0,1-0.3,1.4-1,1.7c-0.7,0.2-2.1,0.2-4,0.2
		c-0.1-0.4-0.3-1-0.5-1.4c1.4,0,2.9,0,3.2,0c0.4,0,0.5-0.1,0.5-0.4v-2.9c-3.6,0.7-7.2,1.5-10,2l-0.5-1.5c2.5-0.4,6.6-1,10.6-1.7
		v-4.1h-11.2v2.6c0,2.4-0.4,5.6-2.6,7.8c-0.2-0.3-1-0.9-1.3-1c2-2,2.3-4.7,2.3-6.8v-4h14.5L926.7,133.6L926.7,133.6z M923.7,121
		c-0.7-0.6-1.5-1.2-2.2-1.7l1-0.6h-5.1c-1,1-2.1,1.9-3.1,2.7L923.7,121L923.7,121z M915.1,126.3c2.8,0.4,6.3,1.3,8.2,2.1l-0.5,1.2
		c-1.9-0.8-5.4-1.8-8.2-2.2L915.1,126.3L915.1,126.3z"/>
</g>
<g>
	<path class="st13" d="M649.7,118.4c-1.1,1.8-2.5,3.3-3.8,4.4c-0.3-0.3-0.9-1-1.2-1.3c2.1-1.5,3.9-3.9,5-6.5l1.6,0.4
		c-0.2,0.6-0.5,1.1-0.8,1.6h13.8v1.3L649.7,118.4L649.7,118.4z M650.8,130.9c-1,1.8-3,3.6-4.7,4.6c-0.2-0.4-0.7-0.9-1.1-1.2
		c1.6-0.8,3.5-2.4,4.5-3.9L650.8,130.9L650.8,130.9z M653.1,129.7v5.9h-1.6v-5.9h-6v-1.4h6v-3.9h1.6v3.9h5.9v1.4H653.1z
		 M661.4,122.6c0,7,0.2,11.3,2,11.3c0.5,0,0.6-1.3,0.6-3.3c0.3,0.4,0.8,0.8,1.2,1c-0.1,2.9-0.5,3.9-1.9,3.9c-3.1,0-3.5-4.4-3.5-11.6
		h-12.9v-1.3H661.4L661.4,122.6z M648.2,124.7c0.7,0.9,1.5,2,1.8,2.8l-1.3,0.6c-0.3-0.8-1-2-1.7-2.9
		C646.9,125.2,648.2,124.7,648.2,124.7z M649.2,121.2v-1.3h13.4v1.3H649.2z M654.9,130.5c1.5,1.1,3.3,2.6,4.2,3.6l-1.1,1
		c-0.9-1-2.7-2.7-4.1-3.8L654.9,130.5L654.9,130.5z M657.8,125.3c-0.8,1.1-1.7,2.2-2.5,3l-1.1-0.5c0.7-0.9,1.6-2.2,2-3.1
		L657.8,125.3L657.8,125.3z"/>
	<path class="st13" d="M672.9,115.6c-0.5,1.7-1.1,3.3-1.8,4.9v15.1h-1.6v-12c-0.5,0.9-1.1,1.7-1.6,2.4c-0.1-0.4-0.6-1.3-0.9-1.7
		c1.8-2.3,3.5-5.7,4.4-9.2L672.9,115.6L672.9,115.6z M672.8,119.9h1.5v11.3h-1.5C672.8,131.3,672.8,119.9,672.8,119.9z M681.9,129.8
		c-0.5,2.1-2,4.3-6.3,5.9c-0.2-0.4-0.7-0.9-1.1-1.2c3.9-1.3,5.3-3,5.7-4.7h-5v-1.5h5.2v-2.9H678c-0.5,0.9-1.1,1.8-1.7,2.4
		c-0.3-0.2-0.9-0.7-1.3-0.9c1.2-1.2,2.2-3.2,2.8-5.1l1.5,0.4c-0.2,0.6-0.4,1.2-0.7,1.8h8.1v1.4h-4.7v2.9h5.4v1.5L681.9,129.8
		L681.9,129.8z M687.5,121.7h-12.3v-1.4h8.1c0.2-0.9,0.3-1.8,0.5-2.7h-7.3v-1.4h7.6l0.3-0.1l1.2,0.1c-0.2,1.3-0.4,2.8-0.6,4.1h2.6
		L687.5,121.7L687.5,121.7z M683.2,130.2c1.5,1.3,3.6,3.2,4.7,4.4l-1.2,1c-1-1.1-3-3.1-4.6-4.5L683.2,130.2L683.2,130.2z"/>
	<path class="st13" d="M706.3,129.9c-1.1,1.2-2.5,2.2-4.2,3c2.5,0.7,5.3,1.1,8.1,1.4c-0.3,0.4-0.7,0.9-0.9,1.4
		c-3.2-0.3-6.4-1-9.2-1.9c-3,1-6.4,1.6-9.8,2c-0.2-0.4-0.5-1.1-0.8-1.4c3-0.2,6-0.7,8.6-1.4c-1.5-0.6-2.8-1.4-3.9-2.3
		c-1.1,0.9-2.3,1.5-3.5,2.1c-0.2-0.3-0.7-1-1-1.2c2.3-0.9,4.7-2.4,5.9-4.3l1.5,0.4c-0.2,0.4-0.5,0.7-0.7,1h12.8v1.3L706.3,129.9
		L706.3,129.9z M691.5,124.4c-0.2,1.3-0.5,2.8-0.8,3.8c-0.2-0.1-0.7-0.4-1-0.6c0.4-0.9,0.5-2.2,0.7-3.4L691.5,124.4L691.5,124.4z
		 M695.4,123.7c0-0.2-0.1-0.6-0.2-0.9c-3.9,0.6-4.5,0.7-4.8,0.9c-0.1-0.2-0.3-0.9-0.4-1.2c0.4-0.1,0.8-0.4,1.3-0.9
		c0.3-0.2,0.8-0.9,1.5-1.6c-1.8,0.1-2.2,0.2-2.4,0.3c-0.1-0.3-0.3-0.9-0.4-1.2c0.3-0.1,0.6-0.3,0.9-0.7c0.3-0.4,1.4-1.9,2-3.4
		l1.3,0.4c-0.7,1.3-1.5,2.5-2.2,3.4l1.8-0.1c0.4-0.5,0.9-1.2,1.2-1.7l1.2,0.5c-1.2,1.7-2.6,3.3-3.9,4.6l2.7-0.3
		c-0.2-0.5-0.4-1-0.6-1.4l1-0.3c0.5,1,1,2.4,1.1,3.2L695.4,123.7L695.4,123.7z M692.7,127.5c0-0.9-0.2-2.2-0.4-3.2l1-0.2
		c0.2,1,0.5,2.3,0.5,3.2L692.7,127.5L692.7,127.5z M695.1,127.1c-0.1-0.8-0.4-1.9-0.7-2.8l1-0.3c0.3,0.9,0.7,2.1,0.8,2.8
		C696.2,126.8,695.1,127.1,695.1,127.1z M695.5,129.9c1.2,0.9,2.8,1.7,4.7,2.4c1.7-0.6,3.1-1.4,4.2-2.4H695.5L695.5,129.9z
		 M703.3,118h-7v-1h3c-0.2-0.5-0.5-1.1-0.8-1.6l1.3-0.4c0.4,0.6,0.8,1.4,1,2h2.5L703.3,118L703.3,118z M702.9,120h-6v-1h6V120z
		 M702.8,122.1h-6v-1h6V122.1z M697,127.2v-4h5.8v4H697z M698.1,126.2h3.5v-2h-3.5V126.2z M708.9,123.7c0-0.3-0.1-0.6-0.2-1
		c-4,0.5-4.6,0.7-4.9,0.9c-0.1-0.3-0.2-0.9-0.4-1.2c0.4-0.1,0.8-0.4,1.3-0.9c0.3-0.2,0.8-0.9,1.5-1.6c-1.8,0.2-2.2,0.2-2.5,0.4
		c-0.1-0.3-0.3-0.9-0.4-1.2c0.3-0.1,0.6-0.3,0.9-0.7c0.3-0.4,1.4-1.9,2-3.3l1.2,0.4c-0.7,1.3-1.5,2.5-2.3,3.4l1.8-0.1
		c0.5-0.5,0.9-1.2,1.2-1.8l1.2,0.5c-1.2,1.7-2.5,3.3-3.8,4.5l2.7-0.3c-0.2-0.5-0.4-1-0.6-1.4l1.1-0.2c0.5,1,1,2.4,1.1,3.3
		L708.9,123.7L708.9,123.7z M705.1,124.4c-0.2,1.2-0.5,2.6-0.8,3.5c-0.2-0.2-0.7-0.4-1-0.6c0.3-0.9,0.5-2.1,0.6-3.2L705.1,124.4
		L705.1,124.4z M706.3,127.5c0-0.9-0.2-2.2-0.4-3.2l1-0.2c0.3,1,0.5,2.3,0.5,3.2C707.4,127.2,706.3,127.5,706.3,127.5z M708.9,127.3
		c-0.1-0.9-0.5-2.2-0.8-3.3l1-0.3c0.4,1,0.7,2.4,0.9,3.2L708.9,127.3L708.9,127.3z"/>
	<path class="st13" d="M717.4,125.8c-0.5,2-1.2,4.2-2.1,5.9c0.5,0.2,1,0.7,1.8,1.2c1.6,0.9,3.7,1.1,6.4,1.1c3,0,6.7-0.2,9.2-0.5
		c-0.2,0.4-0.5,1.2-0.5,1.7c-1.7,0.1-6.1,0.3-8.8,0.3c-3,0-5-0.2-6.7-1.2c-0.9-0.5-1.8-1.3-2.3-1.3c-0.4,0-1,1.4-1.5,2.8l-1.1-1.4
		c0.7-1.1,1.3-2,1.9-2.5c0.7-1.3,1.4-3.1,1.8-4.8h-2.8c0.6-1.3,1.3-3.3,1.9-5.1h-2.5v-1.4h4.4c-0.5,1.6-1.2,3.5-1.8,5.1h1.5l0.2-0.1
		L717.4,125.8L717.4,125.8z M714.5,119.3c-0.2-1-0.7-2.5-1.1-3.7l1.3-0.4c0.4,1.2,0.9,2.6,1.1,3.6L714.5,119.3L714.5,119.3z
		 M722.3,117.1h-4.5v-1.2h14.4v1.2h-4.8v1.2h4.1v4.1h-6.9c-0.2,0.4-0.4,0.8-0.6,1.2h8.2v1.2h-3.9c1.5,0.9,3.1,2,4,2.8l-1,1
		c-0.6-0.6-1.6-1.3-2.6-2v2.1c0,0.7-0.1,1-0.7,1.2c-0.6,0.2-1.4,0.2-2.9,0.2c-0.1-0.4-0.3-0.7-0.5-1.1c1.2,0,2,0,2.3,0
		c0.3,0,0.4-0.1,0.4-0.3v-1.5h-5.5v3.3c0,0.6,0.2,0.7,1.6,0.7h5c1,0,1.2-0.2,1.3-1.7c0.3,0.2,0.9,0.4,1.3,0.4
		c-0.2,2-0.7,2.5-2.5,2.5h-5.1c-2.3,0-3-0.3-3-1.9v-3.2c-0.7,0.5-1.5,1-2.3,1.3c-0.2-0.3-0.8-0.8-1.1-1.1c1.6-0.7,3.1-1.6,4.3-2.8
		h-3.4v-1.2h4.4c0.3-0.4,0.5-0.8,0.7-1.2h-4.5v-4.1h3.8L722.3,117.1L722.3,117.1z M720,121.3h2.3v-1.9H720V121.3z M723.1,124.8
		c-0.3,0.4-0.7,0.9-1.2,1.3h6c-0.6-0.4-1.3-0.9-1.9-1.3H723.1L723.1,124.8z M726,117.1h-2.4v1.2h2.4V117.1z M723.6,121.3h2.4v-1.9
		h-2.4V121.3z M727.4,119.4v1.9h2.5v-1.9H727.4z"/>
</g>
<g>
	<path class="st13" d="M454.6,121.2h-6.4v-1.3h6.4V121.2z M456.4,132.8c-1.8,1.1-4.6,2.1-6.9,2.8c-0.3-0.3-0.9-1-1.2-1.3
		c2.3-0.5,5-1.3,6.6-2.2L456.4,132.8L456.4,132.8z M454,117.7h-5.4v-1.3h5.4V117.7z M451.1,123h14.6v9h-14.6
		C451.1,132,451.1,123,451.1,123z M452.7,125.6H464v-1.5h-11.3V125.6z M452.7,128.2H464v-1.5h-11.3V128.2z M452.7,130.9H464v-1.6
		h-11.3V130.9z M458.1,117.9c-0.5,0.9-1.1,1.6-1.7,2.2c-0.3-0.2-0.9-0.7-1.3-0.9c1.2-1.1,2.1-2.6,2.6-4.3l1.5,0.3
		c-0.1,0.4-0.3,0.8-0.5,1.2h7.5l0.3-0.1l1.1,0.4c-0.6,1.2-1.3,2.4-1.9,3.2l-1.3-0.5c0.3-0.5,0.7-1.1,1.1-1.8H462v0.3
		c0,0.2,0,0.5-0.1,0.7c1.2,1.3,3.6,2.2,6.6,2.5c-0.3,0.3-0.7,0.9-1,1.3c-2.6-0.4-4.7-1.3-6.1-2.6c-0.7,1.1-2.5,2.1-6.5,2.8
		c-0.2-0.4-0.6-1-0.9-1.2c5.8-0.8,6.4-2.3,6.4-3.5v-0.2L458.1,117.9L458.1,117.9z M461.5,132.1c2.4,0.7,5,1.7,6.6,2.4l-1.5,1
		c-1.4-0.7-3.9-1.7-6.3-2.5L461.5,132.1z"/>
	<path class="st13" d="M474.2,124.9c-0.9-0.7-2.5-1.7-3.8-2.4l1-1.2c1.2,0.7,2.9,1.6,3.8,2.2L474.2,124.9L474.2,124.9z M475.6,128.1
		c-0.9,2.4-2.2,5.1-3.2,7.2l-1.5-0.9c1-1.7,2.4-4.7,3.4-7.2L475.6,128.1L475.6,128.1z M475.3,119c-0.9-0.7-2.5-1.8-3.7-2.6l1-1.2
		c1.2,0.7,2.9,1.7,3.8,2.4L475.3,119L475.3,119z M478.8,122.3c0,3.9-0.4,9.5-3,13.2c-0.3-0.3-1-0.7-1.4-0.9
		c2.5-3.6,2.8-8.7,2.8-12.4v-6.2h13.7v1.5h-12C478.8,117.7,478.8,122.3,478.8,122.3z M482.4,129.6c-0.7,1.6-1.9,3.4-2.8,4.6
		c-0.3-0.2-1-0.6-1.4-0.9c1-1.1,2-2.7,2.7-4.2L482.4,129.6z M485.7,128v5.9c0,0.8-0.1,1.3-0.8,1.5c-0.6,0.2-1.5,0.2-3.1,0.2
		c-0.1-0.4-0.3-1-0.5-1.4c1.1,0,2.1,0,2.3,0c0.3,0,0.4-0.1,0.4-0.3V128h-4v-7.7h3.4c0.2-0.7,0.5-1.6,0.6-2.3l1.9,0.4
		c-0.3,0.7-0.6,1.3-0.9,1.9h4.9v7.7H485.7z M481.6,123.5h6.9v-2h-6.9V123.5z M481.6,126.7h6.9v-2h-6.9V126.7z M488.6,129.1
		c0.9,1.4,2,3.2,2.6,4.3l-1.5,0.7c-0.5-1.1-1.6-3-2.5-4.4L488.6,129.1L488.6,129.1z"/>
	<path class="st13" d="M498.7,120.4c-0.5,0.9-1,1.7-1.6,2.6v12.6h-1.5V125c-0.7,0.8-1.4,1.6-2,2.2c-0.2-0.4-0.6-1.2-0.9-1.5
		c1.7-1.4,3.5-3.6,4.6-5.8L498.7,120.4L498.7,120.4z M498.3,115.6c-1.1,1.8-2.9,3.8-4.4,5.2c-0.2-0.3-0.6-1-0.9-1.3
		c1.4-1.2,3-3,3.8-4.5L498.3,115.6z M508.2,121.6v2.4h3.9v11.5h-1.6v-1h-6.2v1h-1.5V124h3.8v-2.4h-4.8v2.6c0,3.7-0.3,8.1-2.2,11.4
		c-0.3-0.2-0.9-0.6-1.3-0.7c1.8-3.1,2-7.3,2-10.7v-7.3c3.7-0.3,8.1-0.9,10.6-1.5l1.3,1.2c-2.8,0.7-6.8,1.2-10.4,1.5v2.2h4.8v-2.3
		h1.6v2.3h5.1v1.4L508.2,121.6L508.2,121.6z M510.5,125.4h-6.2v1.8h6.2V125.4z M510.5,128.4h-6.2v1.8h6.2V128.4z M510.5,133.2v-1.9
		h-6.2v1.9H510.5z"/>
	<path class="st13" d="M521.6,131.3c-2.1,0.6-4.3,1.4-6,1.9l-0.3-1.5c0.7-0.2,1.6-0.4,2.6-0.7v-6.3h-2.1v-1.5h2.1v-5h-2.3v-1.5h6
		v1.5h-2.2v5h2v1.5h-2v5.9l2.1-0.6L521.6,131.3L521.6,131.3z M535.6,130.2c-1,0.6-2.1,1.3-3.1,1.7c1,1,2.3,1.7,3.8,2.1
		c-0.4,0.3-0.8,0.9-1,1.3c-3.1-1-5.3-3.3-6.4-6.3c-0.8,0.7-1.7,1.4-2.8,2v2.6l3.8-0.9c0,0.4,0,0.9,0,1.2c-4.3,1.1-4.9,1.3-5.3,1.5
		c-0.1-0.4-0.4-0.9-0.6-1.2c0.3-0.2,0.7-0.5,0.7-1.4v-1.1c-0.8,0.4-1.6,0.7-2.4,1c-0.2-0.4-0.6-0.9-1-1.1c2-0.5,4.2-1.5,5.8-2.7
		h-3.4v-4.6h10.6v4.6h-4.1c0.3,0.8,0.8,1.5,1.3,2.2c1-0.5,2.1-1.3,2.8-1.9L535.6,130.2L535.6,130.2z M535.8,123.1h-13.5v-1.4h13.5
		V123.1z M535,120.6h-11.8v-4.7H535V120.6z M526.7,117.1h-2.1v2.3h2.1V117.1z M525.3,127.7h7.5v-2.1h-7.5V127.7z M530.1,117.1h-2.2
		v2.3h2.2V117.1z M533.6,117.1h-2.2v2.3h2.2V117.1z"/>
</g>
<g>
	<g>
		<path class="st13" d="M282,121.1c-1.1,5.9-3.7,10-6.9,12.3c-0.2-0.4-0.9-1-1.3-1.3c2.9-1.9,5.1-5.2,6.2-9.7h-5.5v-1.7h6.1l0.3-0.1
			L282,121.1L282,121.1z M292.6,120.3c-1.5,1.7-3.5,3.7-5,5.1c1.9,2.8,4.4,5.1,7.1,6.4c-0.4,0.3-1,1-1.2,1.5
			c-3.5-1.9-6.4-5.4-8.4-9.5v9.5c0,1.1-0.3,1.6-0.9,1.9c-0.7,0.3-1.8,0.4-3.5,0.4c-0.1-0.5-0.4-1.3-0.6-1.8c1.3,0,2.4,0,2.8,0
			c0.4,0,0.5-0.1,0.5-0.5v-18.2h1.8v5.4c0.5,1.2,1.1,2.5,1.8,3.7c1.5-1.4,3.3-3.4,4.4-4.9L292.6,120.3L292.6,120.3z"/>
		<path class="st13" d="M316.7,128.8v1.6h-20.3v-1.6h2.3l-0.4-11.9c1.4-0.5,3.1-1.2,4.2-1.7l0.8,1.4c-1,0.4-2.3,0.9-3.4,1.2l0.1,2.6
			h3v1.4h-3l0.1,2.8h3v1.4h-2.9l0.1,2.8H313c0-0.8,0.1-1.7,0.2-2.7h-2.9v-1.4h3c0-0.9,0.1-1.8,0.1-2.8h-3v-1.4h3c0-1,0-1.9,0-2.8
			h-3.2v-1.5h4.8c0,3.9-0.1,9.3-0.3,12.6L316.7,128.8L316.7,128.8z M304.4,131.7c-1.9,1.4-4.5,2.9-6.7,3.9c-0.2-0.3-0.7-0.9-1-1.3
			c2.1-0.9,4.8-2.4,6.3-3.6L304.4,131.7z M306.2,123.7c-0.2,1.6-0.7,3.1-1.4,4.2c-0.2-0.2-0.8-0.6-1.2-0.7c0.7-1,1-2.3,1.2-3.7
			L306.2,123.7L306.2,123.7z M307.7,122.5h-3.6v-7.3h1.5v2.1h3.7v1.4h-3.7v2.4h3v0h0.6v5.9c0,0.7-0.1,1-0.6,1.2
			c-0.5,0.2-1.3,0.2-2.4,0.2c-0.1-0.4-0.2-0.8-0.4-1.2c0.8,0,1.5,0,1.7,0c0.2,0,0.3-0.1,0.3-0.3L307.7,122.5L307.7,122.5z
			 M309.7,130.6c2.4,1.1,5,2.5,6.5,3.6l-1.1,1.3c-1.5-1.1-4-2.6-6.4-3.7L309.7,130.6L309.7,130.6z"/>
	</g>
	<g>
		<path class="st13" d="M271.5,160.2v1.6h-20v-1.6h9.1v-9.1h-7.7v-1.6h7.7v-7.1h1.8v7.1h7.8v1.6h-7.8v9.1H271.5L271.5,160.2z"/>
		<path class="st13" d="M279.7,156.7c-2,0.8-4,1.7-5.7,2.3l-0.5-1.6c0.8-0.2,1.7-0.6,2.8-1v-7.3h-2.3v-1.6h2.3v-5.1h1.4v5.1h2.1v1.6
			h-2.1v6.8l1.7-0.7L279.7,156.7L279.7,156.7z M293.4,157.9c-0.8,0.6-1.9,1.3-2.8,1.7c1,0.8,2.3,1.4,3.8,1.7c-0.3,0.3-0.7,0.9-1,1.3
			c-3.1-0.9-5.3-2.8-6.5-5.5c-0.7,0.6-1.5,1.1-2.4,1.6v2.2l3.7-0.7c0,0.4,0,0.9,0,1.2c-4.2,0.9-4.8,1.1-5.2,1.4
			c-0.1-0.3-0.4-0.9-0.6-1.2c0.3-0.1,0.7-0.4,0.7-1.2v-1c-1.2,0.6-2.6,1-3.8,1.4c-0.2-0.3-0.6-0.9-0.9-1.2c2.3-0.6,4.9-1.5,6.7-2.7
			H280v-1.2h3.7v-1.2h-2.4v-1.1h2.4v-1.2h-3.1v-1.1h3.1V150h-2.5v-3.6h5.2v3.6h-1.2v1.1h3.9V150h-1.2v-3.7h5.3v3.7h-2.6v1.1h3v1.1
			h-3v1.2h2.5v1.1h-2.5v1.2h3.7v1.2h-6c0.3,0.7,0.8,1.4,1.4,2c0.9-0.5,2-1.2,2.7-1.7L293.4,157.9L293.4,157.9z M294.2,145.5h-14.3
			v-1.3h6.5c-0.2-0.6-0.5-1.2-0.8-1.6l1.4-0.4c0.4,0.6,0.8,1.4,1.1,2.1h6.2V145.5z M282.4,149.1h2.6v-1.7h-2.6V149.1z M285.1,153.5
			h3.9v-1.2h-3.9V153.5z M285.1,155.7h3.9v-1.2h-3.9V155.7z M289.1,149.1h2.7v-1.8h-2.7V149.1z"/>
		<path class="st13" d="M302.3,158.5c-2.1,0.6-4.3,1.4-6,1.9l-0.3-1.5c0.7-0.2,1.6-0.4,2.6-0.7v-6.3h-2.1v-1.5h2.1v-5h-2.3v-1.5h6
			v1.5H300v5h2v1.5h-2v5.9l2.1-0.6L302.3,158.5L302.3,158.5z M316.2,157.4c-1,0.6-2.1,1.3-3.1,1.7c1,1,2.3,1.7,3.9,2.1
			c-0.4,0.3-0.8,0.9-1,1.3c-3.1-1-5.3-3.3-6.4-6.3c-0.8,0.7-1.7,1.4-2.8,2v2.6l3.8-0.9c0,0.4,0,0.9,0,1.2c-4.3,1.1-4.9,1.3-5.3,1.5
			c-0.1-0.4-0.4-0.9-0.6-1.2c0.3-0.2,0.7-0.5,0.7-1.4v-1.1c-0.8,0.4-1.6,0.7-2.4,1c-0.2-0.4-0.6-0.9-1-1.1c2-0.5,4.2-1.5,5.8-2.7
			h-3.4v-4.6H315v4.6h-4.1c0.3,0.8,0.8,1.5,1.3,2.2c1-0.5,2.1-1.3,2.8-1.9L316.2,157.4L316.2,157.4z M316.5,150.3h-13.5v-1.4h13.5
			V150.3z M315.7,147.8h-11.9V143h11.9V147.8z M307.4,144.3h-2.1v2.3h2.1V144.3z M306,154.9h7.5v-2.1H306V154.9z M310.8,144.3h-2.2
			v2.3h2.2V144.3z M314.2,144.3H312v2.3h2.2V144.3z"/>
		<path class="st13" d="M325.7,157.2c-2.2,0.9-4.7,1.9-6.6,2.6l-0.5-1.7c0.8-0.2,1.8-0.6,2.8-1v-7.9h-2.5v-1.6h2.5v-5.2h1.6v5.2h2.2
			v1.6H323v7.3l2.4-0.9L325.7,157.2L325.7,157.2z M336.5,161.2c0.3,0,0.6,0,0.8-0.1c0.2,0,0.3-0.2,0.4-0.5c0-0.3,0.1-1,0.1-1.9
			c0.3,0.3,0.9,0.6,1.4,0.7c0,0.9-0.1,1.8-0.3,2.2c-0.2,0.3-0.4,0.6-0.8,0.7c-0.3,0.1-1,0.2-1.4,0.2h-1.5c-0.5,0-1.2-0.1-1.5-0.4
			c-0.4-0.3-0.6-0.6-0.6-1.8V157h-2c-0.4,3.2-1.5,5-5.6,5.9c-0.2-0.4-0.6-1-0.9-1.3c3.6-0.7,4.6-2,4.9-4.6h-2.3v-6.4h10.2v6.4h-2.7
			v3.5c0,0.3,0,0.6,0.2,0.6c0.1,0.1,0.3,0.1,0.6,0.1L336.5,161.2L336.5,161.2z M338.5,149.4H326V148h3.2c-0.1-0.6-0.4-1.5-0.7-2.2
			l1.4-0.3c0.3,0.7,0.7,1.6,0.8,2.2l-0.8,0.2h3.7c0.3-0.7,0.7-1.7,1-2.4l1.5,0.3c-0.3,0.7-0.7,1.4-1,2.1h3.4V149.4L338.5,149.4z
			 M337.9,145.3h-11.2v-1.4h4.9c-0.2-0.5-0.4-1-0.6-1.5l1.5-0.3c0.3,0.5,0.6,1.2,0.8,1.8h4.7L337.9,145.3L337.9,145.3z M328.6,153.2
			h7.1v-1.5h-7.1V153.2z M328.6,155.8h7.1v-1.5h-7.1V155.8z"/>
	</g>
</g>
<g>
	<path class="st13" d="M54.5,123.2c1.6,5,4.5,9,8.8,10.8c-0.4,0.4-1,1.1-1.3,1.6c-4.3-2.1-7.2-6-9-11.2c-1.1,4.3-3.5,8.7-9,11.2
		c-0.2-0.4-0.8-1-1.3-1.4c5.6-2.4,7.8-6.8,8.8-11h-8.3v-1.7h8.6c0.3-2.4,0.3-4.6,0.3-6.4H54c0,1.8,0,4-0.4,6.4H63v1.7L54.5,123.2
		L54.5,123.2z"/>
	<path class="st13" d="M70.4,118.4c-1.1,1.8-2.5,3.3-3.8,4.4c-0.3-0.3-0.9-1-1.2-1.3c2.1-1.5,3.9-3.9,5-6.5l1.6,0.4
		c-0.2,0.6-0.5,1.1-0.8,1.6H85v1.3L70.4,118.4L70.4,118.4z M71.6,130.9c-1,1.8-3,3.6-4.7,4.6c-0.2-0.4-0.7-0.9-1.1-1.2
		c1.6-0.8,3.5-2.4,4.5-3.9L71.6,130.9L71.6,130.9z M73.8,129.7v5.9h-1.6v-5.9h-6v-1.4h6v-3.9h1.6v3.9h5.9v1.4H73.8z M82.2,122.6
		c0,7,0.2,11.3,2,11.3c0.5,0,0.6-1.3,0.6-3.3c0.3,0.4,0.8,0.8,1.2,1c-0.1,2.9-0.5,3.9-1.9,3.9c-3.1,0-3.5-4.4-3.5-11.6H67.6v-1.3
		C67.6,122.6,82.1,122.6,82.2,122.6z M69,124.7c0.7,0.9,1.5,2,1.8,2.8l-1.3,0.6c-0.3-0.8-1-2-1.7-2.9C67.7,125.2,69,124.7,69,124.7z
		 M69.9,121.2v-1.3h13.4v1.3H69.9z M75.7,130.5c1.5,1.1,3.3,2.6,4.2,3.6l-1.1,1c-0.9-1-2.7-2.7-4.1-3.8
		C74.7,131.3,75.7,130.5,75.7,130.5z M78.6,125.3c-0.8,1.1-1.7,2.2-2.4,3l-1.1-0.5c0.7-0.9,1.6-2.2,2.1-3.1L78.6,125.3L78.6,125.3z"
		/>
	<path class="st13" d="M93.9,131.3c-2.1,0.6-4.3,1.4-6,1.9l-0.3-1.5c0.7-0.2,1.6-0.4,2.6-0.7v-6.3h-2.1v-1.5h2.1v-5h-2.3v-1.5h6v1.5
		h-2.2v5h2v1.5h-2v5.9l2.1-0.6L93.9,131.3L93.9,131.3z M107.9,130.2c-1,0.6-2.1,1.3-3.1,1.7c1,1,2.3,1.7,3.8,2.1
		c-0.4,0.3-0.8,0.9-1,1.3c-3.1-1-5.3-3.3-6.4-6.3c-0.8,0.7-1.7,1.4-2.8,2v2.6l3.8-0.9c-0.1,0.4,0,0.9,0,1.2
		c-4.3,1.1-4.9,1.3-5.3,1.5c-0.1-0.4-0.4-0.9-0.6-1.2c0.3-0.2,0.7-0.5,0.7-1.4v-1.1c-0.8,0.4-1.6,0.7-2.4,1c-0.2-0.4-0.6-0.9-1-1.1
		c2-0.5,4.2-1.5,5.8-2.7h-3.4v-4.6h10.6v4.6h-4.1c0.3,0.8,0.8,1.5,1.3,2.2c1-0.5,2.1-1.3,2.8-1.9L107.9,130.2L107.9,130.2z
		 M108.1,123.1H94.6v-1.4h13.5V123.1z M107.4,120.6H95.5v-4.7h11.8V120.6z M99,117.1h-2.1v2.3H99V117.1z M97.6,127.7h7.5v-2.1h-7.5
		V127.7z M102.4,117.1h-2.2v2.3h2.2V117.1z M105.9,117.1h-2.2v2.3h2.2V117.1z"/>
	<path class="st13" d="M117.3,130c-2.2,0.9-4.7,1.9-6.6,2.6l-0.5-1.7c0.8-0.2,1.8-0.6,2.8-1v-7.9h-2.5v-1.6h2.5v-5.2h1.6v5.2h2.2
		v1.6h-2.2v7.3l2.4-0.9L117.3,130L117.3,130z M128.1,134c0.3,0,0.6,0,0.8-0.1c0.2,0,0.3-0.2,0.4-0.5c0.1-0.3,0.1-1,0.1-1.9
		c0.3,0.3,0.9,0.6,1.4,0.7c0,0.9-0.1,1.8-0.3,2.2c-0.2,0.3-0.4,0.6-0.8,0.7c-0.3,0.1-0.9,0.2-1.4,0.2h-1.5c-0.5,0-1.2-0.1-1.5-0.4
		c-0.4-0.3-0.6-0.6-0.6-1.8v-3.3h-2c-0.4,3.2-1.5,5-5.6,5.9c-0.2-0.4-0.6-1-0.9-1.3c3.7-0.7,4.6-2,4.9-4.6h-2.3v-6.4H129v6.4h-2.7
		v3.5c0,0.3,0,0.6,0.2,0.6c0.1,0.1,0.3,0.1,0.6,0.1L128.1,134L128.1,134z M130.2,122.2h-12.5v-1.4h3.2c-0.1-0.6-0.4-1.5-0.7-2.2
		l1.4-0.3c0.3,0.7,0.7,1.6,0.8,2.2l-0.8,0.2h3.7c0.3-0.7,0.7-1.7,0.9-2.4l1.6,0.3c-0.3,0.7-0.7,1.4-1,2.1h3.4V122.2L130.2,122.2z
		 M129.6,118.1h-11.2v-1.4h4.9c-0.2-0.5-0.4-1-0.6-1.5l1.6-0.3c0.3,0.5,0.6,1.2,0.8,1.8h4.7L129.6,118.1L129.6,118.1z M120.3,126
		h7.1v-1.5h-7.1V126z M120.3,128.6h7.1v-1.5h-7.1V128.6z"/>
	<path class="st13" d="M153.3,128.8v1.6H133v-1.6h2.3l-0.4-11.9c1.4-0.5,3.1-1.2,4.2-1.7l0.8,1.4c-1,0.4-2.3,0.9-3.4,1.2l0.1,2.6h3
		v1.4h-3l0.1,2.8h3v1.4h-2.9l0.1,2.8h12.8c0.1-0.8,0.1-1.7,0.2-2.7h-2.9v-1.4h3c0.1-0.9,0.1-1.8,0.1-2.8h-3v-1.4h3c0-1,0-1.9,0-2.8
		h-3.2v-1.5h4.8c0,3.9-0.1,9.3-0.3,12.6L153.3,128.8L153.3,128.8z M141,131.7c-1.9,1.4-4.5,2.9-6.7,3.9c-0.2-0.3-0.7-0.9-1-1.3
		c2.1-0.9,4.8-2.4,6.3-3.6L141,131.7L141,131.7z M142.8,123.7c-0.2,1.6-0.7,3.1-1.4,4.2c-0.2-0.2-0.8-0.6-1.2-0.7
		c0.7-1,1-2.3,1.2-3.7L142.8,123.7L142.8,123.7z M144.3,122.5h-3.6v-7.3h1.5v2.1h3.7v1.4h-3.7v2.4h2.9v0h0.6v5.9
		c0,0.7-0.1,1-0.6,1.2c-0.5,0.2-1.3,0.2-2.4,0.2c-0.1-0.4-0.2-0.8-0.4-1.2c0.8,0,1.5,0,1.7,0c0.2,0,0.3-0.1,0.3-0.3V122.5
		L144.3,122.5z M146.2,130.6c2.4,1.1,4.9,2.5,6.6,3.6l-1.1,1.3c-1.5-1.1-4-2.6-6.4-3.7L146.2,130.6L146.2,130.6z"/>
	<path class="st13" d="M97,160.5v1.5H76.7v-1.5h2.7V155h14.9v5.5H97z M87.3,153.6h-9.8V143h9.5v1.3h-3.8v1.7h3.3v4.3h-3.3v2h4.2
		V153.6L87.3,153.6z M79,144.3v1.7h2.7v-1.7H79z M85,147.2H79v2H85V147.2z M79,152.3h2.7v-2H79V152.3z M81,160.5h2.9v-4.1H81V160.5z
		 M85.3,156.4v4.1h2.9v-4.1H85.3z M90,146.8c-0.6,1.2-1.2,2.3-1.9,3.2c-0.2-0.2-0.9-0.7-1.3-1c1.4-1.6,2.5-4.2,3.1-6.9l1.5,0.3
		c-0.2,1-0.5,2-0.9,2.9H97v1.5H90z M89.1,152.6v-1.5h7.5v1.5H89.1z M89.8,156.4v4.1h2.9v-4.1H89.8z"/>
	<path class="st13" d="M100,148.3c1.3,0.5,2.9,1.4,3.7,2.1l-0.9,1.4c-0.8-0.7-2.4-1.6-3.7-2.2L100,148.3L100,148.3z M102.6,154.3
		l1.3,0.9c-0.8,2.3-2,5.1-2.9,7.2l-1.5-0.9C100.4,159.7,101.7,156.8,102.6,154.3L102.6,154.3z M101,142.3c1.3,0.6,2.8,1.5,3.6,2.3
		l-1,1.3c-0.7-0.7-2.3-1.8-3.5-2.4L101,142.3z M107.7,158c-0.8,1.7-2.1,3.5-3.2,4.7c-0.3-0.2-0.9-0.7-1.3-0.9c1.2-1,2.3-2.6,3-4.1
		L107.7,158L107.7,158z M111.7,143.1v14.1h-6.5v-14.1H111.7z M106.6,147.3h3.6v-2.8h-3.6V147.3z M106.6,151.5h3.6v-2.8h-3.6V151.5z
		 M106.6,155.7h3.6v-2.8h-3.6V155.7z M110.4,157.5c0.9,1.1,2.1,2.6,2.6,3.4l-1.3,0.8c-0.5-0.9-1.6-2.5-2.5-3.6L110.4,157.5z
		 M114.9,144.4v12.8h-1.5v-12.8H114.9z M118.8,142.1v18.4c0,1-0.2,1.5-0.9,1.8s-1.7,0.3-3.5,0.3c-0.1-0.4-0.3-1.1-0.5-1.6
		c1.3,0,2.5,0,2.9,0c0.4,0,0.5-0.1,0.5-0.5v-18.5H118.8L118.8,142.1z"/>
</g>
</svg>
