<?xml version="1.0" encoding="UTF-8"?>
<svg id="_圖層_2" data-name=" 圖層 2" xmlns="http://www.w3.org/2000/svg" width="838.37" height="319.49" viewBox="0 0 838.37 319.49">
  <g id="_圖層_4" data-name=" 圖層 4">
    <g id="trash">
      <g id="_環境教育" data-name=" 環境教育">
        <g>
          <path d="M689.48,155.3c5.6-11.75,9.01-36.51,14.61-48.26.06-.13.13.12.22,0h99.52c7.89,15.48,15.2,39.59,23.09,55.07" style="fill: #e2b442; stroke-width: 0px;"/>
          <g style="opacity: .65;">
            <path d="M713.69,162.99c3.63-11.75,5.83-30.07,9.46-41.82.04-.13.08.12.14,0h64.45c5.11,15.48,9.84,26.34,14.95,41.82" style="fill: #b28522; stroke-width: 0px;"/>
          </g>
          <path d="M826.69,157.16c.19.75-7.38,91.72-7.77,133.42-.08,8.31-7.31,14.99-16.19,14.97-25.47-.04-61.47-.13-86.53-.1-9.43,0-17.26-6.77-17.98-15.57-3.09-38.01-10.73-131.94-10.13-132.72-.74-.92,138.83.86,138.61,0h0Z" style="fill: #e2b442; stroke-width: 0px;"/>
          <path d="M834.05,155.26c-18.63-.15-136.1-.7-153.43-.24-2.41.07-4.29,1.93-4.24,4.18.17,6.93,1.51,12.98,1.61,13.09.73,0-.63-.02.1-.02h155.53c2.35,0,4.31-1.74,4.39-3.94.19-5.46.19-3.35.36-8.81.08-2.31-1.85-4.24-4.32-4.26Z" style="fill: #9e7215; stroke-width: 0px;"/>
          <path d="M806.7,132.89c-.45,0-.87-.26-1.03-.68l-6.34-16.39c-.21-.53.09-1.12.66-1.31.57-.19,1.2.08,1.4.62l6.34,16.39c.21.53-.09,1.12-.66,1.31-.12.04-.25.06-.37.06Z" style="fill: #ebf4e3; stroke-width: 0px;"/>
          <path d="M822.27,160.75c-4.97,0-9.94-.37-14.85-1.09-.6-.09-1.01-.61-.91-1.17.1-.56.65-.94,1.26-.85,7.32,1.09,14.78,1.34,22.16.77.6-.05,1.13.37,1.18.94.05.56-.4,1.06-1,1.11-2.61.2-5.22.3-7.83.3h-.01Z" style="fill: #ebf4e3; stroke-width: 0px;"/>
          <path d="M788.76,170.58c-36.37,0-78.51-.2-106.04-.97-.69-.02-1.23-.56-1.21-1.2.02-.64.62-1.14,1.28-1.13,40.22,1.12,111.69,1.03,150.71.88h0c.68,0,1.24.52,1.24,1.16s-.55,1.17-1.24,1.17c-12.34.05-27.94.09-44.76.09h.02Z" style="fill: #936b19; stroke-width: 0px;"/>
        </g>
        <g>
          <path d="M758.66,185.04c.94.16,1.88.29,2.81.49,6.52,1.4,12.05,7.06,13.32,13.62.99,5.1.01,9.78-2.95,14.04-.61.88-1.34,1.67-1.96,2.54-1.45,2.05-2.16,4.35-2.12,6.87.01.81.01,1.62,0,2.42-.03,2.01-.93,3.45-2.77,4.3-.18.08-.34.34-.39.54-.78,3.46-3.96,5.93-7.5,5.81-3.3-.11-6.22-2.56-6.96-5.81-.05-.21-.24-.48-.43-.57-1.74-.82-2.64-2.18-2.72-4.08-.03-.77-.03-1.55,0-2.32.09-3.22-.98-6-3.07-8.42-3-3.48-4.4-7.54-4.35-12.13.08-6.77,4.46-13.26,10.7-15.86,1.76-.73,3.58-1.21,5.49-1.37.11,0,.22-.05.33-.08h2.57ZM764.84,220.73c.18-.79.32-1.57.53-2.33.65-2.39,2.01-4.37,3.54-6.27,2.75-3.41,3.78-7.33,3.1-11.66-.49-3.14-1.87-5.87-4.13-8.09-3.34-3.28-7.4-4.77-12.06-4.27-5.6.6-9.72,3.53-11.96,8.67-2.47,5.66-1.59,11.02,2.36,15.8,1.44,1.74,2.58,3.62,3.18,5.8.21.77.36,1.56.53,2.35h14.91ZM749.96,223.74v.45c0,.4-.02.79.02,1.18.08.74.68,1.3,1.44,1.3,3.97.01,7.94.01,11.91,0,.68,0,1.26-.41,1.38-1.06.11-.61.08-1.26.11-1.88h-14.86ZM761.51,229.68h-8.26c.53,1.74,2.34,3.05,4.16,3.04,1.82-.02,3.6-1.32,4.1-3.04h0Z" style="fill: #fff; stroke-width: 0px;"/>
          <path d="M732.05,203.93c.39-.85,1.06-1.16,1.99-1.1.79.05,1.58,0,2.37.01.92.01,1.57.63,1.58,1.48,0,.85-.65,1.47-1.57,1.48-.79.01-1.58-.04-2.37.01-.92.06-1.6-.24-1.99-1.1v-.79h-.01Z" style="fill: #fff; stroke-width: 0px;"/>
          <path d="M737.56,196.32c-.04.76-.3,1.22-.84,1.48-.53.26-1.1.25-1.53-.15-.82-.76-1.62-1.54-2.37-2.37-.52-.57-.41-1.45.14-1.97.53-.51,1.38-.58,1.94-.07.8.73,1.57,1.51,2.3,2.31.22.24.29.6.37.77h0Z" style="fill: #fff; stroke-width: 0px;"/>
          <path d="M778.83,197.96c-.74-.04-1.19-.3-1.46-.83-.25-.51-.26-1.07.12-1.49.77-.85,1.59-1.67,2.44-2.45.53-.48,1.39-.37,1.89.13.51.5.64,1.36.16,1.89-.78.87-1.63,1.68-2.48,2.48-.2.18-.53.22-.68.27h.01Z" style="fill: #fff; stroke-width: 0px;"/>
          <path d="M735.93,210.7c.71.03,1.17.28,1.44.81s.27,1.1-.12,1.53c-.78.85-1.59,1.67-2.45,2.44-.51.46-1.35.35-1.86-.13-.52-.49-.67-1.35-.19-1.89.79-.88,1.65-1.7,2.51-2.51.19-.17.51-.2.66-.26h.01Z" style="fill: #fff; stroke-width: 0px;"/>
          <path d="M778.89,210.69c.19.1.58.23.86.48.71.64,1.37,1.33,2.03,2.02.64.67.64,1.57.03,2.16-.59.57-1.48.55-2.13-.08-.7-.68-1.39-1.36-2.06-2.07-.45-.47-.54-1.05-.27-1.65.26-.57.73-.83,1.53-.87h0Z" style="fill: #fff; stroke-width: 0px;"/>
          <path d="M779.78,202.85c.48,0,.96-.01,1.43,0,.85.03,1.48.66,1.49,1.47,0,.81-.62,1.47-1.47,1.49-.99.02-1.98.02-2.97,0-.85-.02-1.48-.66-1.49-1.47,0-.83.64-1.47,1.52-1.49.49-.01.99,0,1.48,0h0Z" style="fill: #fff; stroke-width: 0px;"/>
          <path d="M757.83,190.98c5.5.26,10.07,4.13,11.18,9.51.15.71.19,1.44.23,2.16.05.96-.56,1.65-1.42,1.68s-1.5-.62-1.54-1.58c-.11-2.97-1.34-5.36-3.73-7.13-1.39-1.02-2.97-1.55-4.69-1.66-.21-.01-.43,0-.64-.03-.79-.09-1.35-.75-1.32-1.53.03-.77.65-1.39,1.43-1.42h.5Z" style="fill: #fff; stroke-width: 0px;"/>
        </g>
        <g>
          <path d="M730.82,273.95c-1.02.57-2.2,1.2-3.25,1.67,1.07.95,2.42,1.62,3.95,2.05-.48.4-1.1,1.22-1.38,1.77-3.4-1.12-5.67-3.57-6.95-6.85-.8.7-1.72,1.4-2.75,1.97v2.55l3.85-.83c-.05.5-.05,1.3-.02,1.7-4.62,1.12-5.37,1.37-5.82,1.65v-.03c-.12-.45-.5-1.25-.78-1.62.35-.17.9-.6.9-1.6v-.83c-.8.4-1.65.72-2.42.97-.25-.42-.7-1.02-1.1-1.42-2.27.7-4.57,1.38-6.47,1.9l-.45-2.12c.8-.17,1.7-.42,2.7-.7v-6.62h-2.17v-2.02h2.17v-5.15h-2.38v-2.08h6.67v2.08h-2.27v5.15h2v2.02h-2v6.07c.7-.2,1.42-.42,2.12-.62l.25,1.8c1.92-.52,4.05-1.42,5.65-2.47h-3.37v-5.27h12.02v5.27h-4.4c.35.75.8,1.45,1.3,2.07,1.03-.58,2.15-1.33,2.85-1.88l1.55,1.4v.02ZM730.97,265.93h-15.02v-1.85h15.02v1.85ZM730.17,263.01h-13.25v-5.4h13.25v5.4ZM720.83,259.26h-1.97v2.12h1.97v-2.12ZM719.58,270.68h7.75v-1.92h-7.75v1.92ZM724.47,259.26h-2.05v2.12h2.05v-2.12ZM728.17,259.26h-2.1v2.12h2.1v-2.12Z" style="fill: #fff; stroke-width: 0px;"/>
          <path d="M741.43,273.6c-2.55,1.05-5.27,2.15-7.42,2.97l-.78-2.37c.85-.28,1.88-.6,3-1v-8.25h-2.6v-2.2h2.6v-5.67h2.27v5.67h2.28v2.2h-2.28v7.42l2.45-.9.48,2.12h0ZM753.15,277.55c.3,0,.58-.03.72-.08.15-.07.28-.22.35-.52.08-.33.1-1.03.12-2,.42.38,1.22.78,1.83.97-.05.98-.15,1.97-.33,2.38-.22.42-.55.7-.97.85-.38.15-1.05.2-1.52.2h-1.65c-.6,0-1.35-.15-1.77-.5-.45-.35-.62-.8-.62-2.2v-3.4h-2.02c-.45,3.45-1.7,5.4-6.32,6.55-.17-.55-.75-1.4-1.2-1.83,3.97-.77,4.95-2.12,5.3-4.72h-2.35v-7.25h11.55v7.25h-2.8v3.52c0,.35.03.57.17.65.12.1.3.12.55.12h.97,0ZM755.52,264.93h-13.92v-1.95h3.3c-.17-.62-.42-1.42-.67-2.07l1.87-.42c.35.75.7,1.72.85,2.37l-.47.12h3.52c.3-.77.7-1.72.9-2.45l2.12.42c-.35.7-.65,1.4-.97,2.02h3.47v1.95h0ZM754.87,260.36h-12.55v-1.92h5.15c-.17-.5-.35-1-.55-1.42l2.15-.42c.3.58.6,1.25.8,1.85h5v1.92h0ZM744.83,268.88h7.2v-1.32h-7.2v1.32ZM744.83,271.73h7.2v-1.4h-7.2v1.4Z" style="fill: #fff; stroke-width: 0px;"/>
          <path d="M779.8,263.51c-.55,3.85-1.45,7-2.88,9.6,1.2,1.97,2.72,3.57,4.65,4.57-.55.45-1.27,1.35-1.65,2-1.8-1.08-3.25-2.58-4.42-4.37-1.43,1.8-3.22,3.3-5.55,4.47-.25-.55-.95-1.6-1.38-2.1,2.47-1.12,4.32-2.67,5.67-4.67-.83-1.82-1.5-3.85-2-6.07-.45.88-.95,1.65-1.47,2.37-.3-.33-.92-.92-1.45-1.32-1.03,1.15-2.35,2.35-3.65,3.27v.83c1.52-.15,3.1-.35,4.65-.52l.02,1.97-4.67.58v3.27c0,1.05-.2,1.62-.95,1.92-.75.35-1.87.35-3.45.35-.1-.6-.4-1.42-.7-1.97,1.12.03,2.2.03,2.5,0,.35,0,.42-.08.42-.35v-2.95l-4.85.57-.25-2.07c1.4-.15,3.17-.33,5.1-.55v-1.6c.83-.5,1.7-1.25,2.5-1.97h-3.32c-.92.7-1.9,1.35-2.9,1.92-.33-.45-1.12-1.35-1.6-1.77,1.87-.92,3.62-2.15,5.12-3.57h-4.9v-2.02h4.07v-2.1h-3.07v-1.97h3.07v-2.45h2.15v2.45h2.42v1.5c.62-1.05,1.22-2.17,1.7-3.35l2.15.62c-.8,1.92-1.8,3.7-2.97,5.3h2.5v1.95c1.2-2.4,2.05-5.4,2.52-8.5l2.35.38c-.25,1.42-.55,2.85-.95,4.2h7v2.17h-1.55l.02-.02ZM764.63,263.31h.58c.58-.65,1.08-1.38,1.55-2.1h-2.12v2.1h-.01ZM769.08,267.46c.47-.62.92-1.35,1.3-2.12h-4.05c-.47.55-.97,1.07-1.47,1.57h2.92l.42-.12.88.67h0ZM773.72,263.51c.43,2.52,1.05,4.87,1.9,6.97.85-2,1.42-4.3,1.77-6.97h-3.67Z" style="fill: #fff; stroke-width: 0px;"/>
          <path d="M805.8,261.11h-5.95c1.85,1.33,3.92,3.07,5.02,4.32l-1.97,1.27h.58v10.42c0,1.32-.38,1.88-1.35,2.17-1,.27-2.6.27-4.87.27-.07-.6-.35-1.42-.6-2,1.45.07,3.3.07,3.7.05.45,0,.6-.15.6-.53v-2.57c-3.8.83-7.7,1.6-10.7,2.17l-.7-2.1c2.72-.35,7.15-1.08,11.4-1.77v-4.2h-11.8v2.3c0,2.77-.42,6.52-2.8,9.02-.35-.45-1.33-1.17-1.88-1.42,2.17-2.2,2.4-5.3,2.4-7.65v-4.17h15.92c-.38-.5-.92-1.05-1.52-1.65-12.45.58-13.82.6-14.77.92-.12-.45-.42-1.57-.7-2.17.62-.1,1.28-.58,2.15-1.25.35-.25.97-.78,1.72-1.45h-5.72v-2.05h7.85c.75-.8,1.55-1.72,2.25-2.6l2.35.92c-.5.58-1,1.12-1.55,1.67h10.95v2.08ZM799.3,263.31c-.7-.55-1.37-1.1-2.05-1.6l1-.6h-5.5c-1,.92-2,1.78-3,2.52l9.55-.32h0ZM790.58,269.36c2.92.38,6.77,1.3,8.8,2.17l-.72,1.62c-1.97-.88-5.8-1.9-8.8-2.35l.72-1.45h0Z" style="fill: #fff; stroke-width: 0px;"/>
        </g>
      </g>
      <g id="_氣候變遷" data-name=" 氣候變遷">
        <g>
          <path d="M520.68,155.3c5.6-11.75,9.01-36.51,14.61-48.26.06-.13.13.12.22,0h99.52c7.89,15.48,15.2,39.59,23.09,55.07" style="fill: #cea06b; stroke-width: 0px;"/>
          <g style="opacity: .57;">
            <path d="M544.89,162.99c3.63-11.75,5.83-30.07,9.46-41.82.04-.13.08.12.14,0h64.45c5.11,15.48,9.84,26.34,14.95,41.82" style="fill: #6b5136; stroke-width: 0px;"/>
          </g>
          <path d="M657.89,157.16c.19.75-7.38,91.72-7.77,133.42-.08,8.31-7.31,14.99-16.19,14.97-25.47-.04-61.47-.13-86.53-.1-9.43,0-17.26-6.77-17.98-15.57-3.09-38.01-10.73-131.94-10.13-132.72-.74-.92,138.83.86,138.61,0h-.01Z" style="fill: #cea06b; stroke-width: 0px;"/>
          <path d="M665.25,155.26c-18.63-.15-136.1-.7-153.43-.24-2.41.07-4.29,1.93-4.24,4.18.17,6.93,1.51,12.98,1.61,13.09.73,0-.63-.02.1-.02h155.53c2.35,0,4.31-1.74,4.39-3.94.19-5.46.19-3.35.36-8.81.08-2.31-1.85-4.24-4.32-4.26Z" style="fill: #665226; stroke-width: 0px;"/>
          <path d="M638.28,135.32c-.39,0-.78-.2-.97-.55-3-5.35-5.31-11.05-6.85-16.92-.14-.55.22-1.11.8-1.24.59-.14,1.18.2,1.33.75,1.5,5.71,3.74,11.25,6.66,16.46.28.5.07,1.12-.46,1.39-.16.08-.34.12-.51.12h0Z" style="fill: #ebf4e3; stroke-width: 0px;"/>
          <path d="M620.31,170.67c-36.66,0-83.47-.18-111.71-.97-.74-.02-1.33-.6-1.31-1.3.02-.68.62-1.22,1.35-1.22h.04c43.76,1.22,132.13.98,158.17.88h0c.74,0,1.34.56,1.35,1.26,0,.7-.6,1.26-1.34,1.27-9.25.04-26.37.09-46.55.09h0Z" style="fill: #443317; stroke-width: 0px;"/>
        </g>
        <g>
          <path d="M595.5,236.62c-1.08-.31-2.22-.47-3.22-.95-3.74-1.8-5.72-4.84-5.9-9-.06-1.27.86-2.22,2.04-2.22s2.02.91,2.05,2.17c.08,3.12,2.53,5.7,5.59,5.9,3.15.2,5.92-2.04,6.38-5.16.52-3.49-2.18-6.72-5.71-6.85h-.77c-10.41,0-20.82-.01-31.22.01-1.26,0-2.15-.41-2.59-1.63v-.92c.47-1.2,1.35-1.59,2.61-1.58,10.51.03,21.02.01,31.52.02,4.61,0,8.47,2.77,9.83,7.03,1.92,5.98-2.07,12.27-8.3,13.1-.1,0-.19.06-.28.09h-2.05.02Z" style="fill: #fff; stroke-width: 0px;"/>
          <path d="M614.68,203.29c-.12.55-.21,1.11-.35,1.65-1.2,4.42-5.16,7.47-9.76,7.48-10.67.01-21.33,0-32,0-1.28,0-2.2-.87-2.19-2.07,0-1.19.93-2.03,2.23-2.03h31.79c3.2,0,5.65-2.11,6.13-5.27.49-3.22-2.11-6.49-5.36-6.73-3.62-.26-6.44,2.24-6.62,5.87-.06,1.34-.93,2.2-2.16,2.15-1.19-.04-1.99-.97-1.93-2.3.03-.7.1-1.4.26-2.08,1.09-4.61,5.4-8.1,10.66-7.75,4.58.3,8.58,4.04,9.21,8.76.01.1.06.19.09.28v2.05h0Z" style="fill: #fff; stroke-width: 0px;"/>
          <path d="M562.17,201.85c.44-1.22,1.33-1.64,2.58-1.63,5.59.03,11.18.02,16.77.01,2.93,0,5.3-1.84,5.98-4.59.8-3.25-1.19-6.46-4.5-7.28-3.11-.77-6.39,1.24-7.17,4.4-.12.48-.16.98-.19,1.47-.08,1.19-.94,2.06-2.07,2.05-1.16-.02-2.04-.96-2.03-2.19.02-4.15,2.74-7.97,6.68-9.37.78-.28,1.61-.42,2.41-.62h2.05c.58.13,1.17.23,1.74.39,4.47,1.27,7.58,5.52,7.36,10.05-.24,4.83-3.61,8.76-8.29,9.62-.7.13-1.43.16-2.14.16-5.52.01-11.04-.02-16.56.02-1.26,0-2.15-.38-2.61-1.58v-.92h0Z" style="fill: #fff; stroke-width: 0px;"/>
        </g>
        <g>
          <path d="M545.4,260.78c-1.25,1.97-2.77,3.7-4.35,4.97-.35-.47-1.15-1.42-1.65-1.85,2.3-1.67,4.37-4.32,5.55-7.15l2.27.65c-.22.53-.47,1.02-.75,1.55h15v1.82h-16.07ZM546.48,274.63c-1.15,1.95-3.2,3.97-5.1,5-.33-.53-1-1.27-1.47-1.67,1.82-.8,3.82-2.42,4.85-3.97l1.72.65h0ZM549.13,273.38v6.3h-2.17v-6.3h-6.47v-1.82h6.47v-4.05h2.17v4.05h2.52l-1.45-.58c.72-.92,1.57-2.32,2.02-3.27l2.08.67c-.88,1.17-1.83,2.37-2.57,3.17h3.6v1.82h-6.2ZM543.8,267.63c.78.92,1.55,2.17,1.85,3.02l-1.85.77c-.28-.85-1.02-2.12-1.75-3.05l1.75-.75h0ZM558.3,265.16c-.05,7.32.18,12.22,1.92,12.22.48,0,.6-1.42.62-3.55.48.53,1.08,1.1,1.55,1.45-.17,3.2-.65,4.4-2.3,4.4-3.57,0-4.05-5-4.12-12.7h-13.87v-1.82h16.2ZM544.78,263.83v-1.75h14.7v1.75h-14.7ZM551.18,273.95c1.58,1.12,3.62,2.72,4.65,3.8l-1.45,1.42c-.97-1.07-2.97-2.77-4.55-3.97l1.35-1.25Z" style="fill: #fff; stroke-width: 0px;"/>
          <path d="M571.18,257.51c-.55,1.8-1.2,3.6-2,5.32v16.9h-2.22v-12.67c-.5.8-1,1.52-1.52,2.17-.2-.58-.77-1.88-1.17-2.45,1.97-2.47,3.7-6.17,4.75-9.87l2.17.6h-.01ZM572.9,274.85h-2.03v-12.85h2.03v12.85ZM581.38,273.36c-.6,2.27-2.4,4.67-7.07,6.42-.33-.5-1-1.3-1.52-1.75,4.07-1.25,5.62-3,6.2-4.67h-5.2v-1.97h5.55v-2.87h-2.32c-.55.97-1.12,1.87-1.75,2.55-.4-.35-1.3-.92-1.8-1.2,1.3-1.35,2.4-3.4,2.97-5.47l2.12.5c-.18.57-.4,1.12-.62,1.7h8.62v1.92h-4.9v2.87h5.65v1.97h-5.93ZM587.25,264.33h-13.52v-1.95h8.62c.15-.82.28-1.75.4-2.55h-7.72v-1.92h8.22l.35-.1,1.6.2c-.15,1.42-.38,3-.6,4.37h2.65v1.95h0ZM582.78,273.68c1.6,1.4,3.77,3.35,4.9,4.55l-1.7,1.37c-1.02-1.2-3.17-3.22-4.8-4.72l1.6-1.2Z" style="fill: #fff; stroke-width: 0px;"/>
          <path d="M608.05,273.53c-1.1,1.27-2.52,2.27-4.17,3.1,2.62.65,5.57,1.05,8.52,1.25-.42.48-.92,1.33-1.17,1.88-3.55-.33-7.02-.97-10.07-2-3.2,1.1-6.92,1.7-10.65,2.1-.2-.52-.72-1.45-1.08-1.9,3.12-.22,6.22-.62,8.95-1.27-1.4-.65-2.65-1.42-3.72-2.27-1.15.85-2.42,1.57-3.65,2.1-.25-.42-.92-1.35-1.33-1.75,2.6-.95,5.2-2.6,6.5-4.62l2.05.62c-.22.35-.47.67-.75,1.02h13.85v1.75h-3.28,0ZM591.68,267.23c-.15,1.45-.45,3.07-.85,4.17-.27-.2-.9-.58-1.25-.75.38-1.03.55-2.4.65-3.72l1.45.3h0ZM595.78,266.53c-.05-.28-.1-.6-.2-.92-4.27.57-4.92.7-5.32.9-.08-.35-.35-1.15-.5-1.57.42-.08.92-.48,1.47-1,.3-.28.9-.88,1.55-1.62-1.8.15-2.27.23-2.55.35-.07-.38-.38-1.17-.52-1.6.33-.08.65-.33,1-.75.33-.4,1.53-2.02,2.2-3.6l1.67.55c-.73,1.33-1.58,2.67-2.42,3.7l1.8-.1c.45-.55.88-1.17,1.25-1.77l1.6.7c-1.3,1.8-2.75,3.5-4.17,4.87l2.58-.32c-.15-.45-.33-.92-.53-1.33l1.32-.38c.53,1.1,1.03,2.57,1.17,3.45l-1.4.45h0ZM592.85,270.76c0-.97-.2-2.42-.43-3.55l1.38-.3c.28,1.12.47,2.57.53,3.5l-1.47.35h-.01ZM595.53,270.21c-.12-.85-.45-2.15-.75-3.15l1.28-.38c.32,1,.67,2.27.82,3.1l-1.35.42h0ZM596.38,273.53c1.25.9,2.88,1.67,4.75,2.3,1.6-.6,3.02-1.35,4.1-2.3h-8.85ZM604.7,260.21h-7.72v-1.35h3.12c-.2-.57-.47-1.15-.75-1.67l1.72-.55c.4.65.85,1.55,1.05,2.22h2.57v1.35h.01ZM604.2,262.46h-6.7v-1.3h6.7v1.3ZM604.2,264.76h-6.7v-1.33h6.7v1.33ZM597.6,270.33v-4.5h6.47v4.5h-6.47ZM599.05,269.03h3.52v-1.87h-3.52v1.87ZM610.77,266.48c-.05-.3-.12-.65-.2-1.03-4.3.58-4.97.72-5.37.92-.1-.35-.33-1.12-.5-1.55.42-.07.9-.45,1.47-1,.27-.25.83-.83,1.42-1.55-1.75.15-2.25.22-2.5.35-.1-.38-.35-1.15-.55-1.57.35-.08.65-.35,1.02-.75.33-.4,1.52-2,2.17-3.57l1.65.58c-.7,1.35-1.58,2.65-2.42,3.65l1.75-.07c.45-.6.9-1.2,1.3-1.83l1.5.67c-1.2,1.72-2.55,3.4-3.87,4.75l2.57-.27c-.17-.5-.38-1.03-.58-1.45l1.35-.35c.52,1.15,1.05,2.67,1.2,3.62l-1.42.45h.01ZM606.75,267.18c-.18,1.33-.5,2.87-.8,3.87-.3-.22-.98-.6-1.33-.77.3-1,.47-2.27.6-3.45l1.53.35ZM607.95,270.63c0-.95-.17-2.42-.45-3.55l1.37-.25c.3,1.12.5,2.57.53,3.5l-1.45.3ZM610.75,270.46c-.15-.97-.53-2.47-.88-3.62l1.3-.3c.4,1.12.77,2.57.95,3.55l-1.37.38h0Z" style="fill: #fff; stroke-width: 0px;"/>
          <path d="M623.83,270.71c-.75.55-1.57,1.02-2.4,1.45-.2-.27-.65-.72-1.03-1.07-.22,1.1-.52,2.1-.85,3.02,1.5,2.8,4.5,3.2,8.95,3.2,2.62,0,6.4-.12,9.02-.38-.33.5-.62,1.55-.75,2.17-2.42.15-5.52.23-8.3.23-4.87,0-7.87-.5-9.8-3.27-.82,1.6-1.82,2.8-2.97,3.7-.32-.47-1.07-1.25-1.52-1.58,2.08-1.5,3.57-4.15,4.3-7.75h-1.95c-.55,0-1.22.18-1.45.38-.1-.52-.53-1.55-.78-1.97.38-.1.75-.27,1.17-.72.42-.5,1.53-2.25,2.38-3.72h-3.17v-1.88h4.5l.25-.1,1.47.57c-.88,1.4-2.38,3.95-3.52,5.62h1.9l.4-.05,1.12.4c-.08.48-.15.98-.25,1.42,1.45-.67,2.72-1.52,3.75-2.6h-3.25v-1.67h4.6c.25-.35.47-.7.65-1.1h-4.55v-4.62h4.17v-1.12h-4.95v-1.67h15.8v1.67h-5.12v1.12h4.45v4.62h-7.6c-.17.37-.35.72-.55,1.1h8.97v1.67h-3.72c1.6,1.03,3.22,2.17,4.17,3.05l-1.35,1.38c-.72-.7-1.87-1.6-3.15-2.52v2.12c0,.88-.2,1.25-.85,1.52-.65.23-1.65.25-3.17.23-.12-.45-.4-1-.62-1.42,1.1.05,2.07.05,2.35.02.33,0,.4-.07.4-.35v-1.2h-5.07v3.15c0,.67.27.8,1.7.8h4.9c1.02,0,1.25-.27,1.35-1.85.45.28,1.22.53,1.8.62-.25,2.25-.88,2.82-2.95,2.82h-5.25c-2.8,0-3.62-.47-3.62-2.37v-3.07h-.01ZM618.25,261.91c-.7-1.05-2.07-2.75-3.2-3.97l1.72-1.05c1.17,1.2,2.55,2.75,3.25,3.72l-1.77,1.3h0ZM623.78,263.58h2.15v-1.8h-2.15v1.8ZM626.88,267.78c-.3.4-.67.83-1.02,1.17h6.02c-.62-.4-1.2-.82-1.8-1.17h-3.2ZM627.68,260.38h2.22v-1.12h-2.22v1.12ZM629.9,263.58v-1.8h-2.22v1.8h2.22ZM631.65,261.78v1.8h2.33v-1.8h-2.33Z" style="fill: #fff; stroke-width: 0px;"/>
        </g>
      </g>
      <g id="_資源循環" data-name=" 資源循環">
        <g>
          <path d="M351.58,155.3c5.6-11.75,9.01-36.51,14.61-48.26.06-.13.13.12.22,0h99.52c7.89,15.48,15.2,39.59,23.09,55.07" style="fill: #b2ce6b; stroke-width: 0px;"/>
          <g style="opacity: .57;">
            <path d="M375.8,162.99c3.63-11.75,5.83-30.07,9.46-41.82.04-.13.08.12.14,0h64.45c5.11,15.48,9.84,26.34,14.95,41.82" style="fill: #366b61; stroke-width: 0px;"/>
          </g>
          <path d="M488.79,157.16c.19.75-7.38,91.72-7.77,133.42-.08,8.31-7.31,14.99-16.19,14.97-25.47-.04-61.47-.13-86.53-.1-9.43,0-17.26-6.77-17.98-15.57-3.09-38.01-10.73-131.94-10.13-132.72-.74-.92,138.83.86,138.61,0h0Z" style="fill: #b2ce6b; stroke-width: 0px;"/>
          <path d="M496.15,155.26c-18.63-.15-136.1-.7-153.43-.24-2.41.07-4.29,1.93-4.24,4.18.17,6.93,1.51,12.98,1.61,13.09.73,0-.63-.02.1-.02h155.53c2.35,0,4.31-1.74,4.39-3.94.19-5.46.19-3.35.36-8.81.08-2.31-1.85-4.24-4.32-4.26Z" style="fill: #4b6633; stroke-width: 0px;"/>
          <path d="M469.19,135.32c-.39,0-.78-.2-.97-.55-3-5.35-5.31-11.05-6.85-16.92-.14-.55.22-1.11.8-1.24.59-.14,1.18.2,1.33.75,1.5,5.71,3.74,11.25,6.66,16.46.28.5.07,1.12-.46,1.39-.16.08-.34.12-.51.12h0Z" style="fill: #ebf4e3; stroke-width: 0px;"/>
          <path d="M497.75,160.55h-18.85c-.61,0-1.1-.46-1.1-1.03s.49-1.03,1.1-1.03h18.85c.61,0,1.1.46,1.1,1.03s-.49,1.03-1.1,1.03Z" style="fill: #ebf4e3; stroke-width: 0px;"/>
          <path d="M451.21,170.67c-36.66,0-83.47-.18-111.71-.97-.74-.02-1.33-.6-1.31-1.3.02-.68.62-1.22,1.35-1.22h.04c43.76,1.22,132.13.98,158.17.88h0c.74,0,1.34.56,1.35,1.26,0,.7-.6,1.26-1.34,1.27-9.25.04-26.36.09-46.55.09h0Z" style="fill: #17443e; stroke-width: 0px;"/>
        </g>
        <path d="M394.57,210.36c-.04-9.01,5.18-17.69,13.16-21.87-.86-1.53-2.82-4.43.14-5.03,4.63-.49,7.97,3.51,11.46,5.64-4.74,1.86-3.93,15.5-8.32,5.57-5.73,3.01-9.47,9.23-9.44,15.69-1.69.03-3.5-1.01-3.3-2.78-.06.37-.21.73-.39,1.06-.7,1.08-1.94,1.7-3.31,1.73h0ZM446.23,198.9c-.6-2.97-3.5-1-5.03-.14-4.18-7.99-12.87-13.2-21.87-13.16.03,1.75,1.07,3.4,2.78,3.7-1.78-.2-2.82,1.61-2.78,3.3,6.46-.02,12.68,3.72,15.69,9.44-9.92,4.38,3.71,3.58,5.57,8.32,2.12-3.5,6.12-6.83,5.64-11.46h0ZM440.79,212.09c-.19.33-.33.68-.39,1.06.2-1.78-1.61-2.82-3.3-2.78.02,6.46-3.72,12.68-9.44,15.69-4.38-9.92-3.58,3.71-8.32,5.57,3.5,2.12,6.83,6.12,11.46,5.64,2.96-.6,1-3.5.14-5.03,7.99-4.18,13.2-12.87,13.16-21.87-1.38.03-2.62.64-3.31,1.73h0ZM417.61,231.82c-.33-.19-.68-.33-1.06-.39,1.78.2,2.82-1.61,2.78-3.3-6.46.02-12.68-3.72-15.69-9.44,9.92-4.38-3.71-3.58-5.57-8.32-2.12,3.5-6.12,6.83-5.64,11.46.6,2.96,3.5,1,5.03.14,4.18,7.99,12.87,13.2,21.87,13.16-.03-1.38-.64-2.62-1.73-3.31h.01Z" style="fill: #fff; stroke-width: 0px;"/>
        <g>
          <path d="M385.98,260.51c0,.18,0,.38-.05.6,1.35,1.38,4.02,2.22,7.32,2.43-.45.47-1.02,1.3-1.25,1.9-2.85-.4-5.12-1.3-6.7-2.75-.9,1.15-2.88,2.22-7.17,2.82-.22-.52-.75-1.3-1.17-1.72h-6.35v-1.82h7.25v1.65c5.42-.7,6-2.1,6-3.17v-.33h-2.07c-.55.9-1.17,1.7-1.83,2.32-.38-.33-1.22-.92-1.75-1.17,1.3-1.12,2.32-2.85,2.87-4.6l2.07.45c-.15.42-.3.82-.47,1.25h7.8l.33-.1,1.6.52c-.62,1.33-1.47,2.78-2.17,3.7l-1.83-.65c.33-.45.7-1.1,1.05-1.72h-3.47v.4h0ZM385.78,275.65c2.57.85,5.35,1.9,7.05,2.72l-2.1,1.27c-1.52-.83-4.15-1.95-6.72-2.82l1.45-1.17h-7.47l2.08.95c-2.02,1.22-5.15,2.42-7.65,3.12-.4-.47-1.22-1.32-1.72-1.75,2.55-.5,5.47-1.35,7.2-2.32h-4.02v-10.05h16.29v10.05h-4.39ZM377.26,259.88h-6.12v-1.75h6.12v1.75ZM376.11,268.51h11.72v-1.42h-11.72v1.42ZM376.11,271.31h11.72v-1.4h-11.72v1.4ZM376.11,274.18h11.72v-1.45h-11.72v1.45Z" style="fill: #fff; stroke-width: 0px;"/>
          <path d="M399.41,267.91c-.92-.67-2.77-1.82-4.12-2.6l1.35-1.65c1.3.67,3.17,1.72,4.17,2.4l-1.4,1.85h0ZM401.23,271.38c-.97,2.62-2.25,5.62-3.4,8l-2.1-1.28c1.05-1.95,2.55-5.15,3.65-8.02l1.85,1.3ZM400.58,261.38c-.93-.72-2.78-1.9-4.1-2.72l1.38-1.65c1.27.72,3.17,1.82,4.15,2.52l-1.42,1.85h0ZM405.01,264.83c0,4.35-.45,10.67-3.38,14.8-.4-.38-1.4-.97-1.95-1.22,2.8-3.9,3.05-9.52,3.05-13.57v-6.82h15.3v2.1h-13.02v4.72h0ZM408.96,273.18c-.8,1.8-2,3.82-3.02,5.07-.42-.3-1.32-.85-1.85-1.12,1.08-1.17,2.15-2.92,2.8-4.52l2.07.57h0ZM412.63,271.38v6.02c0,1.05-.18,1.62-.92,1.92-.73.35-1.83.38-3.45.35-.08-.58-.38-1.42-.6-2,1.05.05,2.08.02,2.38.02s.4-.1.4-.38v-5.95h-4.22v-8.75h3.57c.25-.78.53-1.7.67-2.38l2.6.47c-.33.68-.67,1.3-.98,1.9h5.12v8.75h-4.57v.03ZM408.28,266.18h6.75v-1.8h-6.75v1.8ZM408.28,269.66h6.75v-1.82h-6.75v1.82ZM415.88,272.38c.92,1.5,2.1,3.52,2.65,4.75l-2.12.92c-.52-1.25-1.62-3.35-2.52-4.92l2-.75h-.01Z" style="fill: #fff; stroke-width: 0px;"/>
          <path d="M427.01,262.96c-.5.93-1.1,1.9-1.77,2.82v13.92h-2.1v-11.27c-.65.75-1.32,1.42-1.95,2-.17-.5-.8-1.67-1.15-2.25,1.82-1.5,3.75-3.77,4.97-6.02l2,.8ZM426.51,257.53c-1.27,2.08-3.25,4.38-5.07,5.82-.25-.45-.83-1.35-1.2-1.75,1.58-1.25,3.3-3.25,4.17-4.85l2.1.77h0ZM437.7,264.46v2.38h4.2v12.82h-2.27v-1.08h-6.07v1.08h-2.17v-12.82h4.07v-2.38h-4.85v2.38c0,4.15-.33,9.2-2.62,12.87-.35-.32-1.2-.8-1.72-1.02,2.05-3.4,2.3-8.17,2.3-11.85v-8.07c4.12-.38,9-1,11.85-1.7l1.78,1.65c-3.2.75-7.62,1.3-11.57,1.62v2.25h4.85v-2.35h2.25v2.35h5.4v1.88h-5.43ZM439.63,268.66h-6.07v1.65h6.07v-1.65ZM439.63,271.91h-6.07v1.6h6.07v-1.6ZM439.63,276.8v-1.7h-6.07v1.7h6.07Z" style="fill: #fff; stroke-width: 0px;"/>
          <path d="M467.78,273.95c-1.03.57-2.2,1.2-3.25,1.67,1.07.95,2.42,1.62,3.95,2.05-.47.4-1.1,1.22-1.37,1.77-3.4-1.12-5.67-3.57-6.95-6.85-.8.7-1.72,1.4-2.75,1.97v2.55l3.85-.82c-.05.5-.05,1.3-.03,1.7-4.62,1.12-5.37,1.38-5.82,1.65v-.02c-.12-.45-.5-1.25-.77-1.62.35-.17.9-.6.9-1.6v-.82c-.8.4-1.65.72-2.42.97-.25-.43-.7-1.03-1.1-1.43-2.27.7-4.57,1.38-6.47,1.9l-.45-2.12c.8-.17,1.7-.42,2.7-.7v-6.62h-2.17v-2.03h2.17v-5.15h-2.37v-2.07h6.67v2.07h-2.27v5.15h2v2.03h-2v6.07c.7-.2,1.42-.42,2.12-.62l.25,1.8c1.92-.53,4.05-1.42,5.65-2.47h-3.38v-5.27h12.02v5.27h-4.4c.35.75.8,1.45,1.3,2.07,1.02-.57,2.15-1.32,2.85-1.88l1.55,1.4h0ZM467.93,265.93h-15.02v-1.85h15.02v1.85ZM467.13,263.01h-13.25v-5.4h13.25v5.4ZM457.78,259.26h-1.97v2.12h1.97v-2.12ZM456.53,270.68h7.75v-1.92h-7.75v1.92ZM461.43,259.26h-2.05v2.12h2.05v-2.12ZM465.13,259.26h-2.1v2.12h2.1v-2.12Z" style="fill: #fff; stroke-width: 0px;"/>
        </g>
      </g>
      <g id="_水與土壤_環境" data-name=" 水與土壤 環境">
        <g id="_水與土壤環境" data-name=" 水與土壤環境">
          <path d="M182.19,155.3c5.6-11.75,9.01-36.51,14.61-48.26.06-.13.13.12.22,0h99.52c7.89,15.48,15.2,39.59,23.09,55.07" style="fill: #34a59d; stroke-width: 0px;"/>
          <g style="opacity: .57;">
            <path d="M206.41,162.99c3.63-11.75,5.83-30.07,9.46-41.82.04-.13.08.12.14,0h64.45c5.11,15.48,9.84,26.34,14.95,41.82" style="fill: #366b61; stroke-width: 0px;"/>
          </g>
          <path d="M319.4,157.16c.19.75-7.38,91.72-7.77,133.42-.08,8.31-7.31,14.99-16.19,14.97-25.47-.04-61.47-.13-86.53-.1-9.43,0-17.26-6.77-17.98-15.57-3.09-38.01-10.73-131.94-10.13-132.72-.74-.92,138.83.86,138.61,0h-.01Z" style="fill: #34a59d; stroke-width: 0px;"/>
          <path d="M326.76,155.26c-18.63-.15-136.1-.7-153.43-.24-2.41.07-4.29,1.93-4.24,4.18.17,6.93,1.51,12.98,1.61,13.09.73,0-.63-.02.1-.02h155.53c2.35,0,4.31-1.74,4.39-3.94.19-5.46.19-3.35.36-8.81.08-2.31-1.85-4.24-4.32-4.26Z" style="fill: #266660; stroke-width: 0px;"/>
          <path d="M296.9,130.75c-.44,0-.86-.25-1.02-.66l-5.88-14.34c-.22-.53.06-1.12.63-1.33.56-.2,1.2.06,1.42.59l5.88,14.34c.22.53-.06,1.12-.63,1.33-.13.05-.26.07-.39.07h-.01Z" style="fill: #ebf4e3; stroke-width: 0px;"/>
          <path d="M327.49,161.65h-20.03c-.61,0-1.1-.46-1.1-1.03s.49-1.03,1.1-1.03h20.03c.61,0,1.1.46,1.1,1.03s-.49,1.03-1.1,1.03Z" style="fill: #ebf4e3; stroke-width: 0px;"/>
          <path d="M233.05,170.56c-20.44,0-40.86-.28-61.17-.85-.74-.02-1.33-.6-1.31-1.3.02-.68.62-1.22,1.35-1.22h.04c51.6,1.44,103.9,1.05,155.47-1.17.77-.03,1.37.51,1.41,1.2.03.7-.54,1.29-1.28,1.32-31.33,1.35-62.95,2.02-94.5,2.02h0Z" style="fill: #17443e; stroke-width: 0px;"/>
        </g>
        <path id="Layer_1" data-name="Layer 1" d="M233.87,207.56c1.21-.69,6.09-3.62,7.07-3.97,4.08-1.47,5,2.9,9.94,5.69,2.39,1.35,6.04,1.64,7.01,3.59.8,2.04-1.26,3.94-3.79,2.93-1.41-.55-2.24,1.58-.83,2.13,4.05,1.61,7.65-1.47,7.07-4.86l8.08-4.69c3.28-1.87,5.35,2.59,2.67,4.14l-13.62,7.85c-3.05,1.78-5.75,2.01-9.4.98-2.7-.75-5.89-2.39-9.46-5.6l-4.74-8.19h0ZM248.04,231.97c-1.41-.66-2.82-1.32-6.09-.03-2.36.92-3.33.49-4.28.03-1.44-.66-2.85-1.32-6.09-.03-3.05,1.18-4,.26-4,.26-1.09-1.06-2.67.57-1.58,1.64,0,0,1.98,1.98,6.41.23,2.36-.92,3.31-.46,4.28-.03,1.41.66,2.82,1.32,6.09.03,2.36-.92,3.33-.46,4.28-.03,1.44.66,2.85,1.32,6.09.03,2.36-.92,3.33-.46,4.31-.03,1.41.66,2.82,1.32,6.09.03,3.05-1.18,3.97-.23,3.97-.23,1.09,1.03,2.67-.6,1.61-1.64,0-.03-1.98-1.98-6.41-.26-2.36.92-3.33.49-4.31.03-1.41-.66-2.82-1.32-6.09-.03-2.36.92-3.31.49-4.28.03h0ZM247.89,227.28c-3.28-1.26-4.69-.6-6.09.03-.95.46-1.93.92-4.28-.03-4.43-1.72-6.41.26-6.41.26-1.09,1.06.52,2.7,1.58,1.64.03,0,.95-.95,4,.26,3.28,1.26,4.69.63,6.09-.03.95-.46,1.93-.89,4.28.03,3.28,1.26,4.69.63,6.09-.03.98-.46,1.93-.89,4.31.03,3.25,1.26,4.66.63,6.06-.03.98-.46,1.95-.89,4.31.03,4.8,1.87,7.85-.43,6.44-1.87-.46-.46-1.18-.46-1.64-.03,0,0-.92.95-3.97-.26-3.28-1.26-4.69-.6-6.09.03-.98.46-1.93.92-4.28-.03-3.28-1.26-4.69-.6-6.09.03-.98.46-1.95.92-4.31-.03h0ZM250.88,186.35c-9.97,11.32-3.42,17.36,2.18,16.27,3.71,9.94,25.52,3.62,8.02-16.27-.46-.52-1.18-.57-1.67-.14-.78.69-3.08,3.82-3.51,4.51-.86-1.41-1.93-2.85-3.13-4.23-.26-.32-.49-.57-1.01-.57-.32,0-.66.14-.89.43h.01ZM248.55,198.88c-1.64-2.53.43-6.64,3.22-10.03,1.09,1.32,2.07,2.76,2.76,4.17-1.18,2.24-2.1,4.86-1.93,7.36-1.49.29-3.19-.2-4.05-1.49h0ZM265.31,201.27c-1.55,6.18-14,4.86-9.43-5.78,1.06-2.41,2.64-4.66,4.31-6.67,4.69,5.63,5.81,9.77,5.12,12.45ZM241,201.16c-.66.17-1.44.46-2.07.83l-12.79,7.39c-.55.32-.75,1.01-.43,1.58h.03l7.73,13.42c.49.95,1.72.86,2.1-.03l2.56-5.95c6.09,5.06,13.77,7.88,20.32,4.08l13.8-7.96c3.65-2.1,2.93-7.62-1.15-8.71-1.49-.4-2.64-.06-3.91.66l-7.79,4.51c-1.81-2.27-5.23-2.47-7.39-3.71-4.71-2.64-5.95-7.56-11.01-6.12h0ZM231.88,208.71l4.54,7.85-2.07,4.77-6.09-10.55,3.62-2.07h0Z" style="fill: #fff; stroke-width: 0px;"/>
        <g id="_水與土壤_環境-2" data-name=" 水與土壤 環境-2">
          <path d="M210.36,253.07c-1.17,6.57-3.97,11.37-7.47,13.92-.4-.55-1.3-1.45-1.87-1.83,3.02-2,5.37-5.6,6.52-10.25h-5.7v-2.35h6.55l.43-.1,1.55.6h-.01ZM222.39,252.37c-1.72,1.88-3.9,4.02-5.65,5.5,2,2.97,4.65,5.45,7.67,6.85-.55.47-1.35,1.42-1.72,2.12-3.72-1.97-6.67-5.5-8.8-9.72v9.12c0,1.42-.3,2.17-1.15,2.57-.85.42-2.17.52-4.12.52-.12-.7-.5-1.9-.88-2.6,1.4.08,2.7.08,3.12.05.4,0,.57-.12.57-.55v-19.87h2.45v5.97c.48,1.27,1.05,2.52,1.75,3.72,1.6-1.52,3.45-3.57,4.62-5.22l2.12,1.52.02.02Z" style="fill: #fff; stroke-width: 0px;"/>
          <path d="M248.89,263.52h-22.54v-2.15h2.37l-.45-13.02c1.57-.5,3.42-1.25,4.65-1.85l1.08,1.88c-1.1.45-2.37.82-3.57,1.17l.08,2.67h3.1v1.92h-3.02l.1,2.62h3.02v1.95h-2.97l.1,2.65h13.6c.05-.77.1-1.65.15-2.57h-2.95v-1.92h3.05c.02-.88.05-1.78.07-2.67h-2.95v-1.92h3c.02-.9.05-1.82.05-2.7h-3.3v-2.02h5.42c-.02,4.4-.15,10.12-.38,13.82h2.3v2.15h-.01ZM235.39,265.12c-2.07,1.47-5.1,3.1-7.52,4.12-.27-.47-.9-1.27-1.32-1.75,2.35-.9,5.37-2.55,6.92-3.85l1.92,1.48h0ZM237.16,255.82c-.25,1.7-.72,3.38-1.42,4.5-.35-.28-1.1-.75-1.55-.95.7-1.02,1-2.4,1.17-3.82l1.8.27ZM238.64,254.65h-3.87v-8.1h2v2.05h4v1.92h-4v2.3h3.05v.02h.77v6.42c0,.88-.17,1.28-.75,1.53-.62.27-1.5.27-2.72.27-.08-.47-.32-1.08-.55-1.5.8.02,1.52.02,1.75,0,.25,0,.32-.08.32-.3v-4.62h0ZM246.74,269.17c-1.65-1.15-4.37-2.78-6.95-4l1.3-1.65c2.6,1.22,5.45,2.77,7.17,3.9l-1.52,1.75Z" style="fill: #fff; stroke-width: 0px;"/>
          <path d="M273.79,265.92v2.28h-22.32v-2.28h9.85v-9.45h-8.25v-2.27h8.25v-7.8h2.47v7.8h8.37v2.27h-8.37v9.45h10Z" style="fill: #fff; stroke-width: 0px;"/>
          <path d="M282.89,262.75c-2.2.88-4.47,1.8-6.32,2.5l-.6-2.15c.83-.25,1.82-.6,2.9-1v-7.67h-2.45v-2.2h2.45v-5.5h1.9v5.5h2.12v2.2h-2.12v7l1.72-.62.4,1.95h0ZM298.26,264.04c-.9.65-2,1.25-2.95,1.75,1.1.72,2.4,1.28,3.92,1.6-.45.43-.97,1.22-1.27,1.78-3.45-.95-5.82-3.05-7.17-6.05-.7.6-1.57,1.17-2.5,1.65v2.02l3.77-.67c0,.52.02,1.27.1,1.72-4.55.92-5.25,1.15-5.72,1.42-.1-.43-.45-1.17-.7-1.55.32-.17.8-.52.8-1.47v-.6c-1.32.58-2.75,1.05-4.05,1.43-.22-.38-.8-1.2-1.15-1.55,2.52-.57,5.25-1.5,7.17-2.72h-5.35v-1.58h3.9v-1.12h-2.57v-1.37h2.57v-1.1h-3.25v-1.52h3.25v-1.1h-2.72v-4.02h5.97v4.02h-1.25v1.1h4v-1.05h-1.32v-4.07h6.15v4.07h-2.8v1.05h3.15v1.52h-3.15v1.1h2.72v1.37h-2.72v1.12h4v1.58h-6.5c.38.7.88,1.35,1.45,1.92.92-.53,2.02-1.25,2.72-1.78l1.5,1.1h0ZM299.01,250.1h-16.07v-1.83h7c-.22-.55-.5-1.12-.75-1.62l1.92-.58c.42.65.85,1.52,1.1,2.2h6.8v1.83ZM286.01,253.77h2.52v-1.57h-2.52v1.57ZM289.06,258.72h4v-1.1h-4v1.1ZM289.06,261.22h4v-1.12h-4v1.12ZM293.46,253.82h2.62v-1.62h-2.62v1.62Z" style="fill: #fff; stroke-width: 0px;"/>
          <path d="M248.54,289.55c-1.02.58-2.2,1.2-3.25,1.67,1.08.95,2.42,1.62,3.95,2.05-.47.4-1.1,1.22-1.37,1.78-3.4-1.12-5.67-3.57-6.95-6.85-.8.7-1.72,1.4-2.75,1.97v2.55l3.85-.83c-.05.5-.05,1.3-.02,1.7-4.62,1.12-5.37,1.37-5.82,1.65v-.03c-.12-.45-.5-1.25-.77-1.62.35-.17.9-.6.9-1.6v-.83c-.8.4-1.65.72-2.42.97-.25-.42-.7-1.02-1.1-1.42-2.27.7-4.57,1.38-6.47,1.9l-.45-2.12c.8-.18,1.7-.43,2.7-.7v-6.62h-2.17v-2.02h2.17v-5.15h-2.37v-2.08h6.67v2.08h-2.27v5.15h2v2.02h-2v6.07c.7-.2,1.42-.43,2.12-.62l.25,1.8c1.92-.52,4.05-1.42,5.65-2.47h-3.37v-5.27h12.02v5.27h-4.4c.35.75.8,1.45,1.3,2.07,1.02-.58,2.15-1.33,2.85-1.87l1.55,1.4h-.03ZM248.69,281.52h-15.02v-1.85h15.02v1.85ZM247.89,278.6h-13.25v-5.4h13.25v5.4ZM238.54,274.85h-1.97v2.12h1.97v-2.12ZM237.29,286.27h7.75v-1.92h-7.75v1.92ZM242.19,274.85h-2.05v2.12h2.05v-2.12ZM245.89,274.85h-2.1v2.12h2.1v-2.12Z" style="fill: #fff; stroke-width: 0px;"/>
          <path d="M259.14,289.2c-2.55,1.05-5.27,2.15-7.42,2.97l-.77-2.37c.85-.27,1.87-.6,3-1v-8.25h-2.6v-2.2h2.6v-5.67h2.27v5.67h2.27v2.2h-2.27v7.42l2.45-.9.48,2.12h-.01ZM270.86,293.14c.3,0,.57-.03.72-.07.15-.08.28-.23.35-.53.07-.32.1-1.03.12-2,.42.38,1.22.78,1.82.97-.05.98-.15,1.97-.33,2.38-.22.43-.55.7-.97.85-.38.15-1.05.2-1.52.2h-1.65c-.6,0-1.35-.15-1.77-.5-.45-.35-.62-.8-.62-2.2v-3.4h-2.02c-.45,3.45-1.7,5.4-6.32,6.55-.17-.55-.75-1.4-1.2-1.82,3.97-.78,4.95-2.12,5.3-4.72h-2.35v-7.25h11.55v7.25h-2.8v3.52c0,.35.02.58.18.65.12.1.3.12.55.12h.97-.01ZM273.24,280.52h-13.92v-1.95h3.3c-.17-.62-.42-1.42-.67-2.07l1.87-.42c.35.75.7,1.72.85,2.37l-.48.12h3.52c.3-.77.7-1.72.9-2.45l2.12.42c-.35.7-.65,1.4-.97,2.02h3.47v1.95h.01ZM272.59,275.95h-12.55v-1.92h5.15c-.17-.5-.35-1-.55-1.42l2.15-.42c.3.58.6,1.25.8,1.85h5v1.92h0ZM262.54,284.47h7.2v-1.33h-7.2v1.33ZM262.54,287.32h7.2v-1.4h-7.2v1.4Z" style="fill: #fff; stroke-width: 0px;"/>
        </g>
      </g>
      <g id="_大氣環境與監測" data-name=" 大氣環境與監測">
        <g>
          <path d="M13.1,155.3c5.6-11.75,9.01-36.51,14.6-48.26.06-.13.13.12.22,0h99.52c7.89,15.48,15.2,39.59,23.09,55.07" style="fill: #d9899c; fill-rule: evenodd; stroke-width: 0px;"/>
          <g style="opacity: .57;">
            <path d="M37.31,162.99c3.63-11.75,5.83-30.07,9.46-41.82.04-.13.08.12.14,0h64.45c5.11,15.48,9.84,26.34,14.95,41.82" style="fill: #6b4336; stroke-width: 0px;"/>
          </g>
          <path d="M150.3,157.16c.19.75-7.38,91.72-7.77,133.42-.08,8.31-7.31,14.99-16.19,14.97-25.47-.04-61.47-.13-86.53-.1-9.43,0-17.26-6.77-17.98-15.57-3.09-38.01-10.73-131.94-10.13-132.72-.74-.92,138.83.86,138.61,0h0Z" style="fill: #d9899c; fill-rule: evenodd; stroke-width: 0px;"/>
          <path d="M157.67,155.26c-18.63-.15-136.1-.7-153.43-.24-2.41.07-4.29,1.93-4.24,4.18.17,6.93,1.51,12.98,1.61,13.09.73,0-.63-.02.1-.02h155.53c2.35,0,4.31-1.74,4.39-3.94.19-5.46.19-3.35.36-8.81.08-2.31-1.85-4.24-4.32-4.26Z" style="fill: #cc5a73; fill-rule: evenodd; stroke-width: 0px;"/>
          <path d="M127.81,130.75c-.44,0-.86-.25-1.02-.66l-5.88-14.34c-.22-.53.06-1.12.63-1.33.56-.2,1.2.06,1.42.59l5.88,14.34c.22.53-.06,1.12-.63,1.33-.13.05-.26.07-.39.07h0Z" style="fill: #ebf4e3; stroke-width: 0px;"/>
          <path d="M158.39,161.65h-20.03c-.61,0-1.1-.46-1.1-1.03s.49-1.03,1.1-1.03h20.03c.61,0,1.1.46,1.1,1.03s-.49,1.03-1.1,1.03Z" style="fill: #ebf4e3; stroke-width: 0px;"/>
          <path d="M63.96,170.56c-20.44,0-40.86-.28-61.17-.85-.74-.02-1.33-.6-1.31-1.3.02-.7.69-1.24,1.39-1.22,51.6,1.44,103.9,1.05,155.46-1.17.76-.03,1.37.51,1.41,1.2.03.7-.54,1.29-1.28,1.32-31.33,1.35-62.95,2.02-94.5,2.02Z" style="fill: #913a4d; stroke-width: 0px;"/>
        </g>
        <g>
          <path d="M90.03,212.86c.6,4.55-1.21,9.29-5.14,12.23-5.79,4.33-14.02,3.15-18.35-2.64-4.28-5.71-3.17-13.8,2.42-18.18l1.24,1.66,2.11-7.71-7.99-.14,1.23,1.64c-8.1,6.25-9.71,17.91-3.56,26.13,6.21,8.3,18.01,10,26.31,3.79,5.95-4.46,8.51-11.79,7.19-18.64" style="fill: none; stroke: #fff; stroke-linecap: round; stroke-linejoin: round; stroke-width: 2.25px;"/>
          <path d="M82.15,214.08c0,2.93-2.37,5.3-5.3,5.3s-5.3-2.37-5.3-5.3,2.37-5.3,5.3-5.3" style="fill: none; stroke: #fff; stroke-linecap: round; stroke-linejoin: round; stroke-width: 2.25px;"/>
          <g>
            <path d="M102.18,188.95c2.89,6.21,1.78,13.82-3.36,18.94-5.14,5.11-12.76,6.18-18.95,3.26-2.89-6.21-1.79-13.83,3.35-18.94s12.75-6.18,18.96-3.26Z" style="fill: none; stroke: #fff; stroke-linecap: round; stroke-linejoin: round; stroke-width: 2.25px;"/>
            <line x1="102.18" y1="188.95" x2="80.54" y2="210.48" style="fill: none; stroke: #fff; stroke-linecap: round; stroke-linejoin: round; stroke-width: 2.25px;"/>
            <line x1="79.82" y1="211.2" x2="77.15" y2="213.85" style="fill: none; stroke: #fff; stroke-linecap: round; stroke-linejoin: round; stroke-width: 2.25px;"/>
            <line x1="91.19" y1="188.53" x2="91.63" y2="199.35" style="fill: none; stroke: #fff; stroke-linecap: round; stroke-linejoin: round; stroke-width: 2.25px;"/>
            <line x1="83.84" y1="192.1" x2="84.43" y2="206.57" style="fill: none; stroke: #fff; stroke-linecap: round; stroke-linejoin: round; stroke-width: 2.25px;"/>
            <line x1="102.54" y1="199.94" x2="91.73" y2="199.45" style="fill: none; stroke: #fff; stroke-linecap: round; stroke-linejoin: round; stroke-width: 2.25px;"/>
            <line x1="98.94" y1="207.27" x2="84.47" y2="206.61" style="fill: none; stroke: #fff; stroke-linecap: round; stroke-linejoin: round; stroke-width: 2.25px;"/>
          </g>
        </g>
        <g id="_大氣環境_與監測" data-name=" 大氣環境 與監測">
          <path d="M45.34,255.67c1.7,5.2,4.85,9.42,9.57,11.4-.58.5-1.35,1.47-1.72,2.17-4.67-2.17-7.7-6.22-9.65-11.52-1.27,4.52-3.97,8.85-9.65,11.52-.38-.62-1.12-1.45-1.77-1.95,5.95-2.6,8.37-7.1,9.37-11.62h-8.87v-2.4h9.3c.3-2.5.27-4.9.3-6.9h2.52c-.02,2.02-.05,4.42-.35,6.9h10.07v2.4h-9.12Z" style="fill: #fff; stroke-width: 0px;"/>
          <path d="M62.97,250.37c-1.25,1.97-2.77,3.7-4.35,4.97-.35-.47-1.15-1.42-1.65-1.85,2.3-1.67,4.37-4.32,5.55-7.15l2.27.65c-.23.53-.48,1.02-.75,1.55h15v1.82h-16.07ZM64.04,264.22c-1.15,1.95-3.2,3.97-5.1,5-.32-.53-1-1.27-1.47-1.67,1.82-.8,3.82-2.42,4.85-3.97l1.72.65h0ZM66.69,262.97v6.3h-2.17v-6.3h-6.47v-1.82h6.47v-4.05h2.17v4.05h2.52l-1.45-.58c.73-.92,1.57-2.32,2.02-3.27l2.07.67c-.87,1.17-1.82,2.37-2.57,3.17h3.6v1.82h-6.2.01ZM61.37,257.22c.77.92,1.55,2.17,1.85,3.02l-1.85.77c-.27-.85-1.02-2.12-1.75-3.05l1.75-.75h0ZM75.87,254.75c-.05,7.32.18,12.22,1.92,12.22.48,0,.6-1.42.62-3.55.48.53,1.07,1.1,1.55,1.45-.17,3.2-.65,4.4-2.3,4.4-3.57,0-4.05-5-4.12-12.7h-13.87v-1.82h16.2ZM62.34,253.42v-1.75h14.7v1.75h-14.7ZM68.74,263.54c1.58,1.12,3.62,2.72,4.65,3.8l-1.45,1.42c-.97-1.07-2.97-2.77-4.55-3.97l1.35-1.25Z" style="fill: #fff; stroke-width: 0px;"/>
          <path d="M104.44,263.54c-1.02.58-2.2,1.2-3.25,1.67,1.08.95,2.42,1.62,3.95,2.05-.47.4-1.1,1.22-1.37,1.77-3.4-1.12-5.67-3.57-6.95-6.85-.8.7-1.72,1.4-2.75,1.97v2.55l3.85-.83c-.05.5-.05,1.3-.02,1.7-4.62,1.12-5.37,1.38-5.82,1.65v-.02c-.12-.45-.5-1.25-.77-1.62.35-.17.9-.6.9-1.6v-.82c-.8.4-1.65.72-2.42.97-.25-.42-.7-1.02-1.1-1.42-2.27.7-4.57,1.38-6.47,1.9l-.45-2.12c.8-.17,1.7-.42,2.7-.7v-6.62h-2.17v-2.02h2.17v-5.15h-2.37v-2.07h6.67v2.07h-2.27v5.15h2v2.02h-2v6.07c.7-.2,1.42-.42,2.12-.62l.25,1.8c1.92-.53,4.05-1.42,5.65-2.47h-3.37v-5.27h12.02v5.27h-4.4c.35.75.8,1.45,1.3,2.07,1.02-.57,2.15-1.32,2.85-1.87l1.55,1.4h-.03ZM104.59,255.52h-15.02v-1.85h15.02v1.85ZM103.79,252.6h-13.25v-5.4h13.25v5.4ZM94.44,248.85h-1.97v2.12h1.97v-2.12ZM93.19,260.27h7.75v-1.92h-7.75v1.92ZM98.09,248.85h-2.05v2.12h2.05v-2.12ZM101.79,248.85h-2.1v2.12h2.1v-2.12Z" style="fill: #fff; stroke-width: 0px;"/>
          <path d="M115.04,263.2c-2.55,1.05-5.27,2.15-7.42,2.97l-.77-2.37c.85-.27,1.87-.6,3-1v-8.25h-2.6v-2.2h2.6v-5.67h2.27v5.67h2.27v2.2h-2.27v7.42l2.45-.9.48,2.12h-.01ZM126.77,267.14c.3,0,.57-.03.72-.08.15-.08.28-.23.35-.53.07-.32.1-1.02.12-2,.42.38,1.22.77,1.82.97-.05.97-.15,1.97-.33,2.37-.22.43-.55.7-.97.85-.38.15-1.05.2-1.52.2h-1.65c-.6,0-1.35-.15-1.77-.5-.45-.35-.62-.8-.62-2.2v-3.4h-2.02c-.45,3.45-1.7,5.4-6.32,6.55-.17-.55-.75-1.4-1.2-1.82,3.97-.78,4.95-2.12,5.3-4.72h-2.35v-7.25h11.55v7.25h-2.8v3.52c0,.35.02.58.18.65.12.1.3.12.55.12h.97v.02ZM129.14,254.52h-13.92v-1.95h3.3c-.17-.62-.42-1.42-.67-2.07l1.87-.42c.35.75.7,1.72.85,2.37l-.48.12h3.52c.3-.77.7-1.72.9-2.45l2.12.42c-.35.7-.65,1.4-.97,2.02h3.47v1.95h0ZM128.49,249.95h-12.55v-1.92h5.15c-.17-.5-.35-1-.55-1.42l2.15-.43c.3.58.6,1.25.8,1.85h5v1.92h0ZM118.44,258.47h7.2v-1.33h-7.2v1.33ZM118.44,261.32h7.2v-1.4h-7.2v1.4Z" style="fill: #fff; stroke-width: 0px;"/>
          <path d="M67.29,289.52h-22.54v-2.15h2.37l-.45-13.02c1.57-.5,3.42-1.25,4.65-1.85l1.08,1.88c-1.1.45-2.37.82-3.57,1.17l.08,2.67h3.1v1.92h-3.02l.1,2.62h3.02v1.95h-2.97l.1,2.65h13.6c.05-.77.1-1.65.15-2.57h-2.95v-1.92h3.05c.02-.88.05-1.78.07-2.67h-2.95v-1.92h3c.02-.9.05-1.82.05-2.7h-3.3v-2.02h5.42c-.02,4.4-.15,10.12-.38,13.82h2.3v2.15h-.01ZM53.79,291.12c-2.07,1.47-5.1,3.1-7.52,4.12-.27-.47-.9-1.27-1.32-1.75,2.35-.9,5.37-2.55,6.92-3.85l1.92,1.48h0ZM55.57,281.82c-.25,1.7-.72,3.37-1.42,4.5-.35-.28-1.1-.75-1.55-.95.7-1.02,1-2.4,1.17-3.82l1.8.28h0ZM57.04,280.65h-3.87v-8.1h2v2.05h4v1.92h-4v2.3h3.05v.03h.77v6.42c0,.87-.17,1.27-.75,1.52-.62.27-1.5.27-2.72.27-.08-.47-.32-1.07-.55-1.5.8.02,1.52.02,1.75,0,.25,0,.32-.08.32-.3v-4.62h0ZM65.14,295.17c-1.65-1.15-4.37-2.77-6.95-4l1.3-1.65c2.6,1.22,5.45,2.77,7.17,3.9l-1.52,1.75Z" style="fill: #fff; stroke-width: 0px;"/>
          <path d="M92.29,292.54v2.05h-22.57v-2.05h2.7v-5.9h17.25v5.9h2.62ZM81.32,285.12h-10.85v-11.87h10.65v1.8h-4.05v1.57h3.52v4.95h-3.52v1.72h4.25v1.82h0ZM72.59,275.05v1.57h2.57v-1.57h-2.57ZM78.67,278.17h-6.07v1.85h6.07v-1.85ZM72.59,283.3h2.57v-1.72h-2.57v1.72ZM74.59,292.54h2.8v-4.05h-2.8v4.05ZM79.54,288.49v4.05h2.82v-4.05h-2.82ZM84.27,277.97c-.55,1.17-1.17,2.25-1.85,3.1-.38-.35-1.22-.95-1.72-1.25,1.58-1.8,2.7-4.55,3.32-7.4l2.02.4c-.25,1.07-.57,2.15-.95,3.17h6.87v1.97h-7.7,0ZM82.94,284.15v-1.97h8.42v1.97h-8.42ZM84.49,288.49v4.05h2.87v-4.05h-2.87Z" style="fill: #fff; stroke-width: 0px;"/>
          <path d="M95.75,279.2c1.42.55,3.2,1.47,4.05,2.25l-1.35,1.87c-.82-.75-2.57-1.8-4-2.42,0,0,1.3-1.7,1.3-1.7ZM98.27,285.85l1.9,1.22c-.92,2.62-2.1,5.57-3.15,7.9l-2.1-1.2c1-1.92,2.35-5.07,3.35-7.92ZM96.8,272.6c1.37.6,3.1,1.6,3.95,2.42l-1.4,1.85c-.77-.8-2.5-1.92-3.85-2.62l1.3-1.65h0ZM104.29,290.2c-.82,1.92-2.17,3.92-3.45,5.17-.42-.37-1.32-.95-1.82-1.25,1.25-1.12,2.47-2.82,3.15-4.5,0,0,2.12.58,2.12.58ZM108.64,273.4v15.85h-7.35v-15.85h7.35ZM103.27,278.05h3.32v-2.62h-3.32v2.62ZM103.27,282.65h3.32v-2.67h-3.32v2.67ZM103.27,287.2h3.32v-2.67h-3.32v2.67ZM107.37,289.49c.95,1.15,2.17,2.8,2.75,3.8l-1.87,1.15c-.5-1.05-1.67-2.75-2.65-3.97l1.77-.97h0ZM112.27,274.9v14.22h-2.02v-14.22h2.02ZM116.57,272.35v20.17c0,1.3-.27,1.95-1.05,2.32-.75.35-2,.42-4,.42-.05-.6-.37-1.57-.67-2.22,1.4.05,2.67.05,3.07.03.38,0,.52-.12.52-.53v-20.19h2.13Z" style="fill: #fff; stroke-width: 0px;"/>
        </g>
      </g>
    </g>
  </g>
</svg>