<?xml version="1.0" encoding="UTF-8"?>
<svg id="_圖層_2" data-name=" 圖層 2" xmlns="http://www.w3.org/2000/svg" version="1.1" viewBox="0 0 838.4 319.5">
  <g id="_圖層_4" data-name=" 圖層 4">
    <g id="trash">
      <g id="_環境教育" data-name=" 環境教育">
        <g>
          <path d="M689.5,155.3c5.6-11.8,9-36.5,14.6-48.3,0-.1.1.1.2,0h99.5c7.9,15.5,15.2,39.6,23.1,55.1" fill="#e2b442" stroke-width="0"/>
          <g opacity=".6">
            <path d="M713.7,163c3.6-11.8,5.8-30.1,9.5-41.8,0-.1,0,.1.1,0h64.5c5.1,15.5,9.8,26.3,15,41.8" fill="#b28522" stroke-width="0"/>
          </g>
          <path d="M826.7,157.2c.2.8-7.4,91.7-7.8,133.4,0,8.3-7.3,15-16.2,15-25.5,0-61.5-.1-86.5-.1-9.4,0-17.3-6.8-18-15.6-3.1-38-10.7-131.9-10.1-132.7-.7-.9,138.8.9,138.6,0h0Z" fill="#e2b442" stroke-width="0"/>
          <path d="M834,155.3c-18.6-.2-136.1-.7-153.4-.2-2.4,0-4.3,1.9-4.2,4.2.2,6.9,1.5,13,1.6,13.1.7,0-.6,0,0,0h155.5c2.3,0,4.3-1.7,4.4-3.9.2-5.5.2-3.3.4-8.8,0-2.3-1.8-4.2-4.3-4.3Z" fill="#9e7215" stroke-width="0"/>
          <path d="M806.7,132.9c-.5,0-.9-.3-1-.7l-6.3-16.4c-.2-.5,0-1.1.7-1.3.6-.2,1.2,0,1.4.6l6.3,16.4c.2.5,0,1.1-.7,1.3-.1,0-.2,0-.4,0Z" fill="#ebf4e3" stroke-width="0"/>
          <path d="M822.3,160.8c-5,0-9.9-.4-14.8-1.1-.6,0-1-.6-.9-1.2,0-.6.7-.9,1.3-.8,7.3,1.1,14.8,1.3,22.2.8.6,0,1.1.4,1.2.9,0,.6-.4,1.1-1,1.1-2.6.2-5.2.3-7.8.3h0Z" fill="#ebf4e3" stroke-width="0"/>
          <path d="M788.8,170.6c-36.4,0-78.5-.2-106-1-.7,0-1.2-.6-1.2-1.2,0-.6.6-1.1,1.3-1.1,40.2,1.1,111.7,1,150.7.9h0c.7,0,1.2.5,1.2,1.2s-.5,1.2-1.2,1.2c-12.3,0-27.9,0-44.8,0h0Z" fill="#936b19" stroke-width="0"/>
        </g>
        <g>
          <path d="M758.7,185c.9.2,1.9.3,2.8.5,6.5,1.4,12,7.1,13.3,13.6,1,5.1,0,9.8-3,14-.6.9-1.3,1.7-2,2.5-1.5,2.1-2.2,4.3-2.1,6.9,0,.8,0,1.6,0,2.4,0,2-.9,3.4-2.8,4.3-.2,0-.3.3-.4.5-.8,3.5-4,5.9-7.5,5.8-3.3-.1-6.2-2.6-7-5.8,0-.2-.2-.5-.4-.6-1.7-.8-2.6-2.2-2.7-4.1,0-.8,0-1.6,0-2.3,0-3.2-1-6-3.1-8.4-3-3.5-4.4-7.5-4.3-12.1,0-6.8,4.5-13.3,10.7-15.9,1.8-.7,3.6-1.2,5.5-1.4.1,0,.2,0,.3,0h2.6ZM764.8,220.7c.2-.8.3-1.6.5-2.3.7-2.4,2-4.4,3.5-6.3,2.8-3.4,3.8-7.3,3.1-11.7-.5-3.1-1.9-5.9-4.1-8.1-3.3-3.3-7.4-4.8-12.1-4.3-5.6.6-9.7,3.5-12,8.7-2.5,5.7-1.6,11,2.4,15.8,1.4,1.7,2.6,3.6,3.2,5.8.2.8.4,1.6.5,2.3h14.9ZM750,223.7v.4c0,.4,0,.8,0,1.2,0,.7.7,1.3,1.4,1.3,4,0,7.9,0,11.9,0,.7,0,1.3-.4,1.4-1.1.1-.6,0-1.3.1-1.9h-14.9ZM761.5,229.7h-8.3c.5,1.7,2.3,3.1,4.2,3,1.8,0,3.6-1.3,4.1-3h0Z" fill="#fff" stroke-width="0"/>
          <path d="M732,203.9c.4-.8,1.1-1.2,2-1.1.8,0,1.6,0,2.4,0,.9,0,1.6.6,1.6,1.5,0,.8-.7,1.5-1.6,1.5-.8,0-1.6,0-2.4,0-.9,0-1.6-.2-2-1.1v-.8h0Z" fill="#fff" stroke-width="0"/>
          <path d="M737.6,196.3c0,.8-.3,1.2-.8,1.5-.5.3-1.1.2-1.5-.2-.8-.8-1.6-1.5-2.4-2.4-.5-.6-.4-1.4.1-2,.5-.5,1.4-.6,1.9,0,.8.7,1.6,1.5,2.3,2.3.2.2.3.6.4.8h0Z" fill="#fff" stroke-width="0"/>
          <path d="M778.8,198c-.7,0-1.2-.3-1.5-.8-.2-.5-.3-1.1.1-1.5.8-.8,1.6-1.7,2.4-2.4.5-.5,1.4-.4,1.9.1.5.5.6,1.4.2,1.9-.8.9-1.6,1.7-2.5,2.5-.2.2-.5.2-.7.3h0Z" fill="#fff" stroke-width="0"/>
          <path d="M735.9,210.7c.7,0,1.2.3,1.4.8s.3,1.1-.1,1.5c-.8.8-1.6,1.7-2.5,2.4-.5.5-1.3.3-1.9-.1-.5-.5-.7-1.3-.2-1.9.8-.9,1.7-1.7,2.5-2.5.2-.2.5-.2.7-.3h0Z" fill="#fff" stroke-width="0"/>
          <path d="M778.9,210.7c.2,0,.6.2.9.5.7.6,1.4,1.3,2,2,.6.7.6,1.6,0,2.2-.6.6-1.5.6-2.1,0-.7-.7-1.4-1.4-2.1-2.1-.5-.5-.5-1.1-.3-1.7.3-.6.7-.8,1.5-.9h0Z" fill="#fff" stroke-width="0"/>
          <path d="M779.8,202.8c.5,0,1,0,1.4,0,.8,0,1.5.7,1.5,1.5,0,.8-.6,1.5-1.5,1.5-1,0-2,0-3,0-.8,0-1.5-.7-1.5-1.5,0-.8.6-1.5,1.5-1.5.5,0,1,0,1.5,0h0Z" fill="#fff" stroke-width="0"/>
          <path d="M757.8,191c5.5.3,10.1,4.1,11.2,9.5.2.7.2,1.4.2,2.2,0,1-.6,1.7-1.4,1.7s-1.5-.6-1.5-1.6c-.1-3-1.3-5.4-3.7-7.1-1.4-1-3-1.6-4.7-1.7-.2,0-.4,0-.6,0-.8,0-1.3-.8-1.3-1.5,0-.8.7-1.4,1.4-1.4h.5Z" fill="#fff" stroke-width="0"/>
        </g>
        <g>
          <path d="M730.8,273.9c-1,.6-2.2,1.2-3.2,1.7,1.1.9,2.4,1.6,4,2.1-.5.4-1.1,1.2-1.4,1.8-3.4-1.1-5.7-3.6-7-6.9-.8.7-1.7,1.4-2.8,2v2.6l3.8-.8c0,.5,0,1.3,0,1.7-4.6,1.1-5.4,1.4-5.8,1.6h0c-.1-.5-.5-1.3-.8-1.6.3-.2.9-.6.9-1.6v-.8c-.8.4-1.7.7-2.4,1-.2-.4-.7-1-1.1-1.4-2.3.7-4.6,1.4-6.5,1.9l-.5-2.1c.8-.2,1.7-.4,2.7-.7v-6.6h-2.2v-2h2.2v-5.1h-2.4v-2.1h6.7v2.1h-2.3v5.1h2v2h-2v6.1c.7-.2,1.4-.4,2.1-.6l.2,1.8c1.9-.5,4-1.4,5.7-2.5h-3.4v-5.3h12v5.3h-4.4c.3.8.8,1.4,1.3,2.1,1-.6,2.2-1.3,2.8-1.9l1.5,1.4h0ZM731,265.9h-15v-1.9h15v1.9ZM730.2,263h-13.2v-5.4h13.2v5.4ZM720.8,259.3h-2v2.1h2v-2.1ZM719.6,270.7h7.8v-1.9h-7.8v1.9ZM724.5,259.3h-2v2.1h2v-2.1ZM728.2,259.3h-2.1v2.1h2.1v-2.1Z" fill="#fff" stroke-width="0"/>
          <path d="M741.4,273.6c-2.5,1.1-5.3,2.1-7.4,3l-.8-2.4c.8-.3,1.9-.6,3-1v-8.2h-2.6v-2.2h2.6v-5.7h2.3v5.7h2.3v2.2h-2.3v7.4l2.5-.9.5,2.1h0ZM753.2,277.6c.3,0,.6,0,.7,0,.2,0,.3-.2.3-.5,0-.3,0-1,.1-2,.4.4,1.2.8,1.8,1,0,1-.2,2-.3,2.4-.2.4-.5.7-1,.9-.4.1-1,.2-1.5.2h-1.7c-.6,0-1.3-.1-1.8-.5-.5-.4-.6-.8-.6-2.2v-3.4h-2c-.5,3.4-1.7,5.4-6.3,6.6-.2-.6-.8-1.4-1.2-1.8,4-.8,5-2.1,5.3-4.7h-2.3v-7.2h11.5v7.2h-2.8v3.5c0,.4,0,.6.2.6.1.1.3.1.5.1h1,0ZM755.5,264.9h-13.9v-1.9h3.3c-.2-.6-.4-1.4-.7-2.1l1.9-.4c.3.8.7,1.7.8,2.4h-.5c0,.1,3.5.1,3.5.1.3-.8.7-1.7.9-2.4l2.1.4c-.3.7-.7,1.4-1,2h3.5v1.9h0ZM754.9,260.4h-12.5v-1.9h5.2c-.2-.5-.3-1-.5-1.4l2.2-.4c.3.6.6,1.2.8,1.9h5v1.9h0ZM744.8,268.9h7.2v-1.3h-7.2v1.3ZM744.8,271.7h7.2v-1.4h-7.2v1.4Z" fill="#fff" stroke-width="0"/>
          <path d="M779.8,263.5c-.5,3.9-1.5,7-2.9,9.6,1.2,2,2.7,3.6,4.7,4.6-.5.4-1.3,1.4-1.7,2-1.8-1.1-3.2-2.6-4.4-4.4-1.4,1.8-3.2,3.3-5.5,4.5-.2-.6-1-1.6-1.4-2.1,2.5-1.1,4.3-2.7,5.7-4.7-.8-1.8-1.5-3.9-2-6.1-.5.9-1,1.6-1.5,2.4-.3-.3-.9-.9-1.5-1.3-1,1.1-2.3,2.4-3.7,3.3v.8c1.5-.1,3.1-.4,4.7-.5v2s-4.6.6-4.6.6v3.3c0,1.1-.2,1.6-1,1.9-.8.4-1.9.4-3.5.4,0-.6-.4-1.4-.7-2,1.1,0,2.2,0,2.5,0,.3,0,.4,0,.4-.4v-2.9l-4.8.6-.2-2.1c1.4-.1,3.2-.3,5.1-.6v-1.6c.8-.5,1.7-1.2,2.5-2h-3.3c-.9.7-1.9,1.4-2.9,1.9-.3-.4-1.1-1.4-1.6-1.8,1.9-.9,3.6-2.1,5.1-3.6h-4.9v-2h4.1v-2.1h-3.1v-2h3.1v-2.4h2.2v2.4h2.4v1.5c.6-1.1,1.2-2.2,1.7-3.4l2.2.6c-.8,1.9-1.8,3.7-3,5.3h2.5v1.9c1.2-2.4,2-5.4,2.5-8.5l2.3.4c-.2,1.4-.5,2.9-1,4.2h7v2.2h-1.5,0ZM764.6,263.3h.6c.6-.6,1.1-1.4,1.5-2.1h-2.1v2.1h0ZM769.1,267.5c.5-.6.9-1.4,1.3-2.1h-4c-.5.6-1,1.1-1.5,1.6h3.3c0-.1.9.6.9.6h0ZM773.7,263.5c.4,2.5,1,4.9,1.9,7,.8-2,1.4-4.3,1.8-7h-3.7Z" fill="#fff" stroke-width="0"/>
          <path d="M805.8,261.1h-6c1.8,1.3,3.9,3.1,5,4.3l-2,1.3h.6v10.4c0,1.3-.4,1.9-1.3,2.2-1,.3-2.6.3-4.9.3,0-.6-.3-1.4-.6-2,1.5,0,3.3,0,3.7,0,.5,0,.6-.1.6-.5v-2.6c-3.8.8-7.7,1.6-10.7,2.2l-.7-2.1c2.7-.4,7.2-1.1,11.4-1.8v-4.2h-11.8v2.3c0,2.8-.4,6.5-2.8,9-.3-.4-1.3-1.2-1.9-1.4,2.2-2.2,2.4-5.3,2.4-7.6v-4.2h15.9c-.4-.5-.9-1.1-1.5-1.6-12.5.6-13.8.6-14.8.9-.1-.4-.4-1.6-.7-2.2.6-.1,1.3-.6,2.2-1.2.3-.2,1-.8,1.7-1.4h-5.7v-2.1h7.8c.8-.8,1.5-1.7,2.2-2.6l2.3.9c-.5.6-1,1.1-1.5,1.7h11v2.1h0ZM799.3,263.3c-.7-.6-1.4-1.1-2-1.6l1-.6h-5.5c-1,.9-2,1.8-3,2.5l9.5-.3h0ZM790.6,269.4c2.9.4,6.8,1.3,8.8,2.2l-.7,1.6c-2-.9-5.8-1.9-8.8-2.4l.7-1.4h0Z" fill="#fff" stroke-width="0"/>
        </g>
      </g>
      <g id="_氣候變遷" data-name=" 氣候變遷">
        <g>
          <path d="M520.7,155.3c5.6-11.8,9-36.5,14.6-48.3,0-.1.1.1.2,0h99.5c7.9,15.5,15.2,39.6,23.1,55.1" fill="#cea06b" stroke-width="0"/>
          <g opacity=".6">
            <path d="M544.9,163c3.6-11.8,5.8-30.1,9.5-41.8,0-.1,0,.1.1,0h64.5c5.1,15.5,9.8,26.3,15,41.8" fill="#6b5136" stroke-width="0"/>
          </g>
          <path d="M657.9,157.2c.2.8-7.4,91.7-7.8,133.4,0,8.3-7.3,15-16.2,15-25.5,0-61.5-.1-86.5-.1-9.4,0-17.3-6.8-18-15.6-3.1-38-10.7-131.9-10.1-132.7-.7-.9,138.8.9,138.6,0h0Z" fill="#cea06b" stroke-width="0"/>
          <path d="M665.2,155.3c-18.6-.2-136.1-.7-153.4-.2-2.4,0-4.3,1.9-4.2,4.2.2,6.9,1.5,13,1.6,13.1.7,0-.6,0,.1,0h155.5c2.3,0,4.3-1.7,4.4-3.9.2-5.5.2-3.3.4-8.8,0-2.3-1.8-4.2-4.3-4.3Z" fill="#665226" stroke-width="0"/>
          <path d="M638.3,135.3c-.4,0-.8-.2-1-.5-3-5.4-5.3-11-6.8-16.9-.1-.6.2-1.1.8-1.2.6-.1,1.2.2,1.3.8,1.5,5.7,3.7,11.2,6.7,16.5.3.5,0,1.1-.5,1.4-.2,0-.3.1-.5.1h0Z" fill="#ebf4e3" stroke-width="0"/>
          <path d="M620.3,170.7c-36.7,0-83.5-.2-111.7-1-.7,0-1.3-.6-1.3-1.3,0-.7.6-1.2,1.4-1.2h0c43.8,1.2,132.1,1,158.2.9h0c.7,0,1.3.6,1.3,1.3,0,.7-.6,1.3-1.3,1.3-9.2,0-26.4,0-46.5,0h0Z" fill="#443317" stroke-width="0"/>
        </g>
        <g>
          <path d="M595.5,236.6c-1.1-.3-2.2-.5-3.2-.9-3.7-1.8-5.7-4.8-5.9-9,0-1.3.9-2.2,2-2.2s2,.9,2,2.2c0,3.1,2.5,5.7,5.6,5.9,3.2.2,5.9-2,6.4-5.2.5-3.5-2.2-6.7-5.7-6.8h-.8c-10.4,0-20.8,0-31.2,0-1.3,0-2.2-.4-2.6-1.6v-.9c.5-1.2,1.3-1.6,2.6-1.6,10.5,0,21,0,31.5,0,4.6,0,8.5,2.8,9.8,7,1.9,6-2.1,12.3-8.3,13.1,0,0-.2,0-.3,0h-2,0Z" fill="#fff" stroke-width="0"/>
          <path d="M614.7,203.3c-.1.6-.2,1.1-.3,1.7-1.2,4.4-5.2,7.5-9.8,7.5-10.7,0-21.3,0-32,0s-2.2-.9-2.2-2.1c0-1.2.9-2,2.2-2h31.8c3.2,0,5.7-2.1,6.1-5.3.5-3.2-2.1-6.5-5.4-6.7-3.6-.3-6.4,2.2-6.6,5.9,0,1.3-.9,2.2-2.2,2.2-1.2,0-2-1-1.9-2.3,0-.7,0-1.4.3-2.1,1.1-4.6,5.4-8.1,10.7-7.8,4.6.3,8.6,4,9.2,8.8,0,0,0,.2,0,.3v2.1h0Z" fill="#fff" stroke-width="0"/>
          <path d="M562.2,201.8c.4-1.2,1.3-1.6,2.6-1.6,5.6,0,11.2,0,16.8,0,2.9,0,5.3-1.8,6-4.6.8-3.2-1.2-6.5-4.5-7.3-3.1-.8-6.4,1.2-7.2,4.4-.1.5-.2,1-.2,1.5,0,1.2-.9,2.1-2.1,2.1-1.2,0-2-1-2-2.2,0-4.2,2.7-8,6.7-9.4.8-.3,1.6-.4,2.4-.6h2c.6.1,1.2.2,1.7.4,4.5,1.3,7.6,5.5,7.4,10.1-.2,4.8-3.6,8.8-8.3,9.6-.7.1-1.4.2-2.1.2-5.5,0-11,0-16.6,0-1.3,0-2.2-.4-2.6-1.6v-.9h0Z" fill="#fff" stroke-width="0"/>
        </g>
        <g>
          <path d="M545.4,260.8c-1.2,2-2.8,3.7-4.3,5-.3-.5-1.2-1.4-1.7-1.9,2.3-1.7,4.4-4.3,5.5-7.1l2.3.6c-.2.5-.5,1-.8,1.6h15v1.8h-16.1ZM546.5,274.6c-1.2,1.9-3.2,4-5.1,5-.3-.5-1-1.3-1.5-1.7,1.8-.8,3.8-2.4,4.8-4l1.7.6h0ZM549.1,273.4v6.3h-2.2v-6.3h-6.5v-1.8h6.5v-4.1h2.2v4.1h2.5l-1.5-.6c.7-.9,1.6-2.3,2-3.3l2.1.7c-.9,1.2-1.8,2.4-2.6,3.2h3.6v1.8h-6.2ZM543.8,267.6c.8.9,1.5,2.2,1.8,3l-1.8.8c-.3-.9-1-2.1-1.8-3.1l1.8-.8h0ZM558.3,265.2c0,7.3.2,12.2,1.9,12.2s.6-1.4.6-3.6c.5.5,1.1,1.1,1.5,1.4-.2,3.2-.7,4.4-2.3,4.4-3.6,0-4-5-4.1-12.7h-13.9v-1.8h16.2ZM544.8,263.8v-1.8h14.7v1.8h-14.7ZM551.2,273.9c1.6,1.1,3.6,2.7,4.7,3.8l-1.5,1.4c-1-1.1-3-2.8-4.5-4l1.3-1.2Z" fill="#fff" stroke-width="0"/>
          <path d="M571.2,257.5c-.5,1.8-1.2,3.6-2,5.3v16.9h-2.2v-12.7c-.5.8-1,1.5-1.5,2.2-.2-.6-.8-1.9-1.2-2.4,2-2.5,3.7-6.2,4.8-9.9l2.2.6h0ZM572.9,274.9h-2v-12.9h2v12.9ZM581.4,273.4c-.6,2.3-2.4,4.7-7.1,6.4-.3-.5-1-1.3-1.5-1.8,4.1-1.2,5.6-3,6.2-4.7h-5.2v-2h5.5v-2.9h-2.3c-.5,1-1.1,1.9-1.8,2.6-.4-.4-1.3-.9-1.8-1.2,1.3-1.4,2.4-3.4,3-5.5l2.1.5c-.2.6-.4,1.1-.6,1.7h8.6v1.9h-4.9v2.9h5.7v2h-5.9ZM587.2,264.3h-13.5v-1.9h8.6c.2-.8.3-1.8.4-2.6h-7.7v-1.9h8.6c0-.1,1.6,0,1.6,0-.2,1.4-.4,3-.6,4.4h2.7v1.9h0ZM582.8,273.7c1.6,1.4,3.8,3.4,4.9,4.6l-1.7,1.4c-1-1.2-3.2-3.2-4.8-4.7l1.6-1.2Z" fill="#fff" stroke-width="0"/>
          <path d="M608,273.5c-1.1,1.3-2.5,2.3-4.2,3.1,2.6.6,5.6,1.1,8.5,1.2-.4.5-.9,1.3-1.2,1.9-3.5-.3-7-1-10.1-2-3.2,1.1-6.9,1.7-10.7,2.1-.2-.5-.7-1.4-1.1-1.9,3.1-.2,6.2-.6,9-1.3-1.4-.6-2.7-1.4-3.7-2.3-1.2.9-2.4,1.6-3.7,2.1-.2-.4-.9-1.4-1.3-1.8,2.6-.9,5.2-2.6,6.5-4.6l2,.6c-.2.4-.5.7-.8,1h13.8v1.8h-3.3,0ZM591.7,267.2c-.2,1.4-.5,3.1-.8,4.2-.3-.2-.9-.6-1.2-.8.4-1,.5-2.4.7-3.7l1.5.3h0ZM595.8,266.5c0-.3,0-.6-.2-.9-4.3.6-4.9.7-5.3.9,0-.4-.3-1.1-.5-1.6.4,0,.9-.5,1.5-1,.3-.3.9-.9,1.5-1.6-1.8.1-2.3.2-2.5.4,0-.4-.4-1.2-.5-1.6.3,0,.7-.3,1-.8.3-.4,1.5-2,2.2-3.6l1.7.6c-.7,1.3-1.6,2.7-2.4,3.7h1.8c.5-.7.9-1.3,1.2-1.9l1.6.7c-1.3,1.8-2.8,3.5-4.2,4.9l2.6-.3c-.2-.4-.3-.9-.5-1.3l1.3-.4c.5,1.1,1,2.6,1.2,3.4l-1.4.4h0ZM592.8,270.8c0-1-.2-2.4-.4-3.6l1.4-.3c.3,1.1.5,2.6.5,3.5l-1.5.4h0ZM595.5,270.2c-.1-.9-.5-2.1-.8-3.1l1.3-.4c.3,1,.7,2.3.8,3.1l-1.3.4h0ZM596.4,273.5c1.2.9,2.9,1.7,4.8,2.3,1.6-.6,3-1.4,4.1-2.3h-8.8ZM604.7,260.2h-7.7v-1.4h3.1c-.2-.6-.5-1.1-.8-1.7l1.7-.6c.4.6.8,1.6,1,2.2h2.6v1.4h0ZM604.2,262.5h-6.7v-1.3h6.7v1.3ZM604.2,264.8h-6.7v-1.3h6.7v1.3ZM597.6,270.3v-4.5h6.5v4.5h-6.5ZM599,269h3.5v-1.9h-3.5v1.9ZM610.8,266.5c0-.3-.1-.6-.2-1-4.3.6-5,.7-5.4.9,0-.4-.3-1.1-.5-1.6.4,0,.9-.4,1.5-1,.3-.2.8-.8,1.4-1.6-1.8.1-2.2.2-2.5.4,0-.4-.3-1.1-.5-1.6.3,0,.7-.4,1-.8.3-.4,1.5-2,2.2-3.6l1.7.6c-.7,1.4-1.6,2.6-2.4,3.6h1.8c.5-.7.9-1.3,1.3-1.9l1.5.7c-1.2,1.7-2.5,3.4-3.9,4.8l2.6-.3c-.2-.5-.4-1-.6-1.4l1.3-.4c.5,1.1,1,2.7,1.2,3.6l-1.4.4h0ZM606.8,267.2c-.2,1.3-.5,2.9-.8,3.9-.3-.2-1-.6-1.3-.8.3-1,.5-2.3.6-3.4l1.5.4ZM608,270.6c0-.9-.2-2.4-.5-3.6l1.4-.2c.3,1.1.5,2.6.5,3.5l-1.5.3ZM610.8,270.5c-.2-1-.5-2.5-.9-3.6l1.3-.3c.4,1.1.8,2.6,1,3.6l-1.4.4h0Z" fill="#fff" stroke-width="0"/>
          <path d="M623.8,270.7c-.8.6-1.6,1-2.4,1.4-.2-.3-.7-.7-1-1.1-.2,1.1-.5,2.1-.8,3,1.5,2.8,4.5,3.2,9,3.2s6.4-.1,9-.4c-.3.5-.6,1.6-.8,2.2-2.4.1-5.5.2-8.3.2-4.9,0-7.9-.5-9.8-3.3-.8,1.6-1.8,2.8-3,3.7-.3-.5-1.1-1.2-1.5-1.6,2.1-1.5,3.6-4.1,4.3-7.8h-2c-.5,0-1.2.2-1.5.4,0-.5-.5-1.6-.8-2,.4-.1.8-.3,1.2-.7.4-.5,1.5-2.2,2.4-3.7h-3.2v-1.9h4.8c0-.1,1.5.5,1.5.5-.9,1.4-2.4,3.9-3.5,5.6h2.3c0,0,1.1.3,1.1.3,0,.5-.2,1-.2,1.4,1.5-.7,2.7-1.5,3.8-2.6h-3.2v-1.7h4.6c.2-.4.5-.7.7-1.1h-4.5v-4.6h4.2v-1.1h-5v-1.7h15.8v1.7h-5.1v1.1h4.5v4.6h-7.6c-.2.4-.3.7-.5,1.1h9v1.7h-3.7c1.6,1,3.2,2.2,4.2,3.1l-1.3,1.4c-.7-.7-1.9-1.6-3.2-2.5v2.1c0,.9-.2,1.2-.8,1.5-.7.2-1.7.2-3.2.2-.1-.4-.4-1-.6-1.4,1.1,0,2.1,0,2.3,0,.3,0,.4,0,.4-.4v-1.2h-5.1v3.1c0,.7.3.8,1.7.8h4.9c1,0,1.2-.3,1.3-1.9.5.3,1.2.5,1.8.6-.2,2.2-.9,2.8-3,2.8h-5.2c-2.8,0-3.6-.5-3.6-2.4v-3.1h0ZM618.2,261.9c-.7-1.1-2.1-2.8-3.2-4l1.7-1.1c1.2,1.2,2.5,2.8,3.2,3.7l-1.8,1.3h0ZM623.8,263.6h2.2v-1.8h-2.2v1.8ZM626.9,267.8c-.3.4-.7.8-1,1.2h6c-.6-.4-1.2-.8-1.8-1.2h-3.2ZM627.7,260.4h2.2v-1.1h-2.2v1.1ZM629.9,263.6v-1.8h-2.2v1.8h2.2ZM631.7,261.8v1.8h2.3v-1.8h-2.3Z" fill="#fff" stroke-width="0"/>
        </g>
      </g>
      <g id="_資源循環" data-name=" 資源循環">
        <g>
          <path d="M351.6,155.3c5.6-11.8,9-36.5,14.6-48.3,0-.1.1.1.2,0h99.5c7.9,15.5,15.2,39.6,23.1,55.1" fill="#b2ce6b" stroke-width="0"/>
          <g opacity=".6">
            <path d="M375.8,163c3.6-11.8,5.8-30.1,9.5-41.8,0-.1,0,.1.1,0h64.4c5.1,15.5,9.8,26.3,15,41.8" fill="#366b61" stroke-width="0"/>
          </g>
          <path d="M488.8,157.2c.2.8-7.4,91.7-7.8,133.4,0,8.3-7.3,15-16.2,15-25.5,0-61.5-.1-86.5-.1-9.4,0-17.3-6.8-18-15.6-3.1-38-10.7-131.9-10.1-132.7-.7-.9,138.8.9,138.6,0h0Z" fill="#b2ce6b" stroke-width="0"/>
          <path d="M496.1,155.3c-18.6-.2-136.1-.7-153.4-.2-2.4,0-4.3,1.9-4.2,4.2.2,6.9,1.5,13,1.6,13.1.7,0-.6,0,.1,0h155.5c2.4,0,4.3-1.7,4.4-3.9.2-5.5.2-3.3.4-8.8,0-2.3-1.9-4.2-4.3-4.3Z" fill="#4b6633" stroke-width="0"/>
          <path d="M469.2,135.3c-.4,0-.8-.2-1-.5-3-5.4-5.3-11-6.9-16.9-.1-.6.2-1.1.8-1.2.6-.1,1.2.2,1.3.8,1.5,5.7,3.7,11.2,6.7,16.5.3.5,0,1.1-.5,1.4-.2,0-.3.1-.5.1h0Z" fill="#ebf4e3" stroke-width="0"/>
          <path d="M497.8,160.5h-18.9c-.6,0-1.1-.5-1.1-1s.5-1,1.1-1h18.9c.6,0,1.1.5,1.1,1s-.5,1-1.1,1Z" fill="#ebf4e3" stroke-width="0"/>
          <path d="M451.2,170.7c-36.7,0-83.5-.2-111.7-1-.7,0-1.3-.6-1.3-1.3,0-.7.6-1.2,1.4-1.2h0c43.8,1.2,132.1,1,158.2.9h0c.7,0,1.3.6,1.4,1.3,0,.7-.6,1.3-1.3,1.3-9.2,0-26.4,0-46.5,0h0Z" fill="#17443e" stroke-width="0"/>
        </g>
        <path d="M394.6,210.4c0-9,5.2-17.7,13.2-21.9-.9-1.5-2.8-4.4.1-5,4.6-.5,8,3.5,11.5,5.6-4.7,1.9-3.9,15.5-8.3,5.6-5.7,3-9.5,9.2-9.4,15.7-1.7,0-3.5-1-3.3-2.8,0,.4-.2.7-.4,1.1-.7,1.1-1.9,1.7-3.3,1.7h0ZM446.2,198.9c-.6-3-3.5-1-5-.1-4.2-8-12.9-13.2-21.9-13.2,0,1.8,1.1,3.4,2.8,3.7-1.8-.2-2.8,1.6-2.8,3.3,6.5,0,12.7,3.7,15.7,9.4-9.9,4.4,3.7,3.6,5.6,8.3,2.1-3.5,6.1-6.8,5.6-11.5h0ZM440.8,212.1c-.2.3-.3.7-.4,1.1.2-1.8-1.6-2.8-3.3-2.8,0,6.5-3.7,12.7-9.4,15.7-4.4-9.9-3.6,3.7-8.3,5.6,3.5,2.1,6.8,6.1,11.5,5.6,3-.6,1-3.5.1-5,8-4.2,13.2-12.9,13.2-21.9-1.4,0-2.6.6-3.3,1.7h0ZM417.6,231.8c-.3-.2-.7-.3-1.1-.4,1.8.2,2.8-1.6,2.8-3.3-6.5,0-12.7-3.7-15.7-9.4,9.9-4.4-3.7-3.6-5.6-8.3-2.1,3.5-6.1,6.8-5.6,11.5.6,3,3.5,1,5,.1,4.2,8,12.9,13.2,21.9,13.2,0-1.4-.6-2.6-1.7-3.3h0Z" fill="#fff" stroke-width="0"/>
        <g>
          <path d="M386,260.5c0,.2,0,.4,0,.6,1.4,1.4,4,2.2,7.3,2.4-.5.5-1,1.3-1.2,1.9-2.9-.4-5.1-1.3-6.7-2.8-.9,1.1-2.9,2.2-7.2,2.8-.2-.5-.8-1.3-1.2-1.7h-6.4v-1.8h7.2v1.6c5.4-.7,6-2.1,6-3.2v-.3h-2.1c-.5.9-1.2,1.7-1.8,2.3-.4-.3-1.2-.9-1.8-1.2,1.3-1.1,2.3-2.9,2.9-4.6l2.1.4c-.1.4-.3.8-.5,1.2h8.1c0-.1,1.6.4,1.6.4-.6,1.3-1.5,2.8-2.2,3.7l-1.8-.6c.3-.4.7-1.1,1-1.7h-3.5v.4h0ZM385.8,275.6c2.6.9,5.4,1.9,7,2.7l-2.1,1.3c-1.5-.8-4.1-1.9-6.7-2.8l1.5-1.2h-7.5l2.1.9c-2,1.2-5.1,2.4-7.6,3.1-.4-.5-1.2-1.3-1.7-1.8,2.5-.5,5.5-1.4,7.2-2.3h-4v-10.1h16.3v10.1h-4.4ZM377.3,259.9h-6.1v-1.8h6.1v1.8ZM376.1,268.5h11.7v-1.4h-11.7v1.4ZM376.1,271.3h11.7v-1.4h-11.7v1.4ZM376.1,274.2h11.7v-1.4h-11.7v1.4Z" fill="#fff" stroke-width="0"/>
          <path d="M399.4,267.9c-.9-.7-2.8-1.8-4.1-2.6l1.4-1.6c1.3.7,3.2,1.7,4.2,2.4l-1.4,1.9h0ZM401.2,271.4c-1,2.6-2.2,5.6-3.4,8l-2.1-1.3c1-1.9,2.5-5.1,3.6-8l1.9,1.3ZM400.6,261.4c-.9-.7-2.8-1.9-4.1-2.7l1.4-1.6c1.3.7,3.2,1.8,4.1,2.5l-1.4,1.9h0ZM405,264.8c0,4.4-.5,10.7-3.4,14.8-.4-.4-1.4-1-2-1.2,2.8-3.9,3-9.5,3-13.6v-6.8h15.3v2.1h-13v4.7h0ZM409,273.2c-.8,1.8-2,3.8-3,5.1-.4-.3-1.3-.9-1.9-1.1,1.1-1.2,2.1-2.9,2.8-4.5l2.1.6h0ZM412.6,271.4v6c0,1.1-.2,1.6-.9,1.9-.7.4-1.8.4-3.5.4,0-.6-.4-1.4-.6-2,1,0,2.1,0,2.4,0s.4-.1.4-.4v-5.9h-4.2v-8.8h3.6c.2-.8.5-1.7.7-2.4l2.6.5c-.3.7-.7,1.3-1,1.9h5.1v8.8h-4.6,0ZM408.3,266.2h6.8v-1.8h-6.8v1.8ZM408.3,269.7h6.8v-1.8h-6.8v1.8ZM415.9,272.4c.9,1.5,2.1,3.5,2.6,4.8l-2.1.9c-.5-1.2-1.6-3.4-2.5-4.9l2-.8h0Z" fill="#fff" stroke-width="0"/>
          <path d="M427,263c-.5.9-1.1,1.9-1.8,2.8v13.9h-2.1v-11.3c-.6.8-1.3,1.4-2,2-.2-.5-.8-1.7-1.1-2.2,1.8-1.5,3.8-3.8,5-6l2,.8ZM426.5,257.5c-1.3,2.1-3.2,4.4-5.1,5.8-.2-.4-.8-1.4-1.2-1.8,1.6-1.2,3.3-3.2,4.2-4.9l2.1.8h0ZM437.7,264.5v2.4h4.2v12.8h-2.3v-1.1h-6.1v1.1h-2.2v-12.8h4.1v-2.4h-4.9v2.4c0,4.1-.3,9.2-2.6,12.9-.4-.3-1.2-.8-1.7-1,2-3.4,2.3-8.2,2.3-11.9v-8.1c4.1-.4,9-1,11.9-1.7l1.8,1.6c-3.2.8-7.6,1.3-11.6,1.6v2.2h4.9v-2.4h2.2v2.4h5.4v1.9h-5.4ZM439.6,268.7h-6.1v1.6h6.1v-1.6ZM439.6,271.9h-6.1v1.6h6.1v-1.6ZM439.6,276.8v-1.7h-6.1v1.7h6.1Z" fill="#fff" stroke-width="0"/>
          <path d="M467.8,273.9c-1,.6-2.2,1.2-3.2,1.7,1.1.9,2.4,1.6,4,2.1-.5.4-1.1,1.2-1.4,1.8-3.4-1.1-5.7-3.6-7-6.9-.8.7-1.7,1.4-2.8,2v2.6l3.9-.8c0,.5,0,1.3,0,1.7-4.6,1.1-5.4,1.4-5.8,1.6h0c-.1-.5-.5-1.3-.8-1.6.4-.2.9-.6.9-1.6v-.8c-.8.4-1.6.7-2.4,1-.2-.4-.7-1-1.1-1.4-2.3.7-4.6,1.4-6.5,1.9l-.5-2.1c.8-.2,1.7-.4,2.7-.7v-6.6h-2.2v-2h2.2v-5.1h-2.4v-2.1h6.7v2.1h-2.3v5.1h2v2h-2v6.1c.7-.2,1.4-.4,2.1-.6l.2,1.8c1.9-.5,4-1.4,5.6-2.5h-3.4v-5.3h12v5.3h-4.4c.4.8.8,1.4,1.3,2.1,1-.6,2.1-1.3,2.9-1.9l1.5,1.4h0ZM467.9,265.9h-15v-1.9h15v1.9ZM467.1,263h-13.2v-5.4h13.2v5.4ZM457.8,259.3h-2v2.1h2v-2.1ZM456.5,270.7h7.8v-1.9h-7.8v1.9ZM461.4,259.3h-2v2.1h2v-2.1ZM465.1,259.3h-2.1v2.1h2.1v-2.1Z" fill="#fff" stroke-width="0"/>
        </g>
      </g>
      <g id="_水與土壤_環境" data-name=" 水與土壤 環境">
        <g id="_水與土壤環境" data-name=" 水與土壤環境">
          <path d="M182.2,155.3c5.6-11.8,9-36.5,14.6-48.3,0-.1.1.1.2,0h99.5c7.9,15.5,15.2,39.6,23.1,55.1" fill="#34a59d" stroke-width="0"/>
          <g opacity=".6">
            <path d="M206.4,163c3.6-11.8,5.8-30.1,9.5-41.8,0-.1,0,.1.1,0h64.5c5.1,15.5,9.8,26.3,15,41.8" fill="#366b61" stroke-width="0"/>
          </g>
          <path d="M319.4,157.2c.2.8-7.4,91.7-7.8,133.4,0,8.3-7.3,15-16.2,15-25.5,0-61.5-.1-86.5-.1-9.4,0-17.3-6.8-18-15.6-3.1-38-10.7-131.9-10.1-132.7-.7-.9,138.8.9,138.6,0h0Z" fill="#34a59d" stroke-width="0"/>
          <path d="M326.8,155.3c-18.6-.2-136.1-.7-153.4-.2-2.4,0-4.3,1.9-4.2,4.2.2,6.9,1.5,13,1.6,13.1.7,0-.6,0,.1,0h155.5c2.4,0,4.3-1.7,4.4-3.9.2-5.5.2-3.3.4-8.8,0-2.3-1.9-4.2-4.3-4.3Z" fill="#266660" stroke-width="0"/>
          <path d="M296.9,130.8c-.4,0-.9-.2-1-.7l-5.9-14.3c-.2-.5,0-1.1.6-1.3.6-.2,1.2,0,1.4.6l5.9,14.3c.2.5,0,1.1-.6,1.3-.1,0-.3,0-.4,0h0Z" fill="#ebf4e3" stroke-width="0"/>
          <path d="M327.5,161.7h-20c-.6,0-1.1-.5-1.1-1s.5-1,1.1-1h20c.6,0,1.1.5,1.1,1s-.5,1-1.1,1Z" fill="#ebf4e3" stroke-width="0"/>
          <path d="M233.1,170.6c-20.4,0-40.9-.3-61.2-.8-.7,0-1.3-.6-1.3-1.3,0-.7.6-1.2,1.4-1.2h0c51.6,1.4,103.9,1,155.5-1.2.8,0,1.4.5,1.4,1.2,0,.7-.5,1.3-1.3,1.3-31.3,1.3-63,2-94.5,2h0Z" fill="#17443e" stroke-width="0"/>
        </g>
        <path id="Layer_1" data-name="Layer 1" d="M233.9,207.6c1.2-.7,6.1-3.6,7.1-4,4.1-1.5,5,2.9,9.9,5.7,2.4,1.3,6,1.6,7,3.6.8,2-1.3,3.9-3.8,2.9-1.4-.6-2.2,1.6-.8,2.1,4,1.6,7.6-1.5,7.1-4.9l8.1-4.7c3.3-1.9,5.4,2.6,2.7,4.1l-13.6,7.8c-3.1,1.8-5.8,2-9.4,1-2.7-.8-5.9-2.4-9.5-5.6l-4.7-8.2h0ZM248,232c-1.4-.7-2.8-1.3-6.1,0-2.4.9-3.3.5-4.3,0-1.4-.7-2.9-1.3-6.1,0-3.1,1.2-4,.3-4,.3-1.1-1.1-2.7.6-1.6,1.6,0,0,2,2,6.4.2,2.4-.9,3.3-.5,4.3,0,1.4.7,2.8,1.3,6.1,0,2.4-.9,3.3-.5,4.3,0,1.4.7,2.9,1.3,6.1,0,2.4-.9,3.3-.5,4.3,0,1.4.7,2.8,1.3,6.1,0,3-1.2,4-.2,4-.2,1.1,1,2.7-.6,1.6-1.6,0,0-2-2-6.4-.3-2.4.9-3.3.5-4.3,0-1.4-.7-2.8-1.3-6.1,0-2.4.9-3.3.5-4.3,0h0ZM247.9,227.3c-3.3-1.3-4.7-.6-6.1,0-.9.5-1.9.9-4.3,0-4.4-1.7-6.4.3-6.4.3-1.1,1.1.5,2.7,1.6,1.6,0,0,.9-.9,4,.3,3.3,1.3,4.7.6,6.1,0,.9-.5,1.9-.9,4.3,0,3.3,1.3,4.7.6,6.1,0,1-.5,1.9-.9,4.3,0,3.2,1.3,4.7.6,6.1,0,1-.5,2-.9,4.3,0,4.8,1.9,7.9-.4,6.4-1.9-.5-.5-1.2-.5-1.6,0,0,0-.9.9-4-.3-3.3-1.3-4.7-.6-6.1,0-1,.5-1.9.9-4.3,0-3.3-1.3-4.7-.6-6.1,0-1,.5-1.9.9-4.3,0h0ZM250.9,186.3c-10,11.3-3.4,17.4,2.2,16.3,3.7,9.9,25.5,3.6,8-16.3-.5-.5-1.2-.6-1.7-.1-.8.7-3.1,3.8-3.5,4.5-.9-1.4-1.9-2.8-3.1-4.2-.3-.3-.5-.6-1-.6s-.7.1-.9.4h0ZM248.6,198.9c-1.6-2.5.4-6.6,3.2-10,1.1,1.3,2.1,2.8,2.8,4.2-1.2,2.2-2.1,4.9-1.9,7.4-1.5.3-3.2-.2-4.1-1.5h0ZM265.3,201.3c-1.5,6.2-14,4.9-9.4-5.8,1.1-2.4,2.6-4.7,4.3-6.7,4.7,5.6,5.8,9.8,5.1,12.4ZM241,201.2c-.7.2-1.4.5-2.1.8l-12.8,7.4c-.6.3-.8,1-.4,1.6h0l7.7,13.4c.5.9,1.7.9,2.1,0l2.6-5.9c6.1,5.1,13.8,7.9,20.3,4.1l13.8-8c3.6-2.1,2.9-7.6-1.1-8.7-1.5-.4-2.6,0-3.9.7l-7.8,4.5c-1.8-2.3-5.2-2.5-7.4-3.7-4.7-2.6-5.9-7.6-11-6.1h0ZM231.9,208.7l4.5,7.8-2.1,4.8-6.1-10.6,3.6-2.1h0Z" fill="#fff" stroke-width="0"/>
        <g id="_水與土壤_環境-2" data-name=" 水與土壤 環境-2">
          <path d="M210.4,253.1c-1.2,6.6-4,11.4-7.5,13.9-.4-.6-1.3-1.4-1.9-1.8,3-2,5.4-5.6,6.5-10.2h-5.7v-2.4h7c0-.1,1.6.5,1.6.5h0ZM222.4,252.4c-1.7,1.9-3.9,4-5.6,5.5,2,3,4.6,5.4,7.7,6.9-.6.5-1.4,1.4-1.7,2.1-3.7-2-6.7-5.5-8.8-9.7v9.1c0,1.4-.3,2.2-1.1,2.6-.9.4-2.2.5-4.1.5-.1-.7-.5-1.9-.9-2.6,1.4,0,2.7,0,3.1,0,.4,0,.6-.1.6-.6v-19.9h2.4v6c.5,1.3,1.1,2.5,1.8,3.7,1.6-1.5,3.4-3.6,4.6-5.2l2.1,1.5h0Z" fill="#fff" stroke-width="0"/>
          <path d="M248.9,263.5h-22.5v-2.1h2.4l-.4-13c1.6-.5,3.4-1.2,4.6-1.9l1.1,1.9c-1.1.4-2.4.8-3.6,1.2v2.7h3.2v1.9h-3v2.6h3.1v1.9h-3v2.6h13.7c0-.8.1-1.6.1-2.6h-2.9v-1.9h3.1c0-.9,0-1.8,0-2.7h-2.9v-1.9h3c0-.9,0-1.8,0-2.7h-3.3v-2h5.4c0,4.4-.1,10.1-.4,13.8h2.3v2.1h0ZM235.4,265.1c-2.1,1.5-5.1,3.1-7.5,4.1-.3-.5-.9-1.3-1.3-1.8,2.4-.9,5.4-2.6,6.9-3.9l1.9,1.5h0ZM237.2,255.8c-.2,1.7-.7,3.4-1.4,4.5-.4-.3-1.1-.8-1.6-.9.7-1,1-2.4,1.2-3.8l1.8.3ZM238.6,254.6h-3.9v-8.1h2v2.1h4v1.9h-4v2.3h3.1s.8,0,.8,0v6.4c0,.9-.2,1.3-.8,1.5-.6.3-1.5.3-2.7.3,0-.5-.3-1.1-.6-1.5.8,0,1.5,0,1.8,0,.2,0,.3,0,.3-.3v-4.6h0ZM246.7,269.2c-1.6-1.1-4.4-2.8-6.9-4l1.3-1.6c2.6,1.2,5.4,2.8,7.2,3.9l-1.5,1.8Z" fill="#fff" stroke-width="0"/>
          <path d="M273.8,265.9v2.3h-22.3v-2.3h9.9v-9.4h-8.2v-2.3h8.2v-7.8h2.5v7.8h8.4v2.3h-8.4v9.4h10Z" fill="#fff" stroke-width="0"/>
          <path d="M282.9,262.8c-2.2.9-4.5,1.8-6.3,2.5l-.6-2.1c.8-.2,1.8-.6,2.9-1v-7.7h-2.5v-2.2h2.5v-5.5h1.9v5.5h2.1v2.2h-2.1v7l1.7-.6.4,1.9h0ZM298.3,264c-.9.6-2,1.2-3,1.8,1.1.7,2.4,1.3,3.9,1.6-.5.4-1,1.2-1.3,1.8-3.5-.9-5.8-3.1-7.2-6.1-.7.6-1.6,1.2-2.5,1.6v2l3.8-.7c0,.5,0,1.3.1,1.7-4.5.9-5.2,1.1-5.7,1.4-.1-.4-.5-1.2-.7-1.6.3-.2.8-.5.8-1.5v-.6c-1.3.6-2.8,1.1-4,1.4-.2-.4-.8-1.2-1.1-1.6,2.5-.6,5.2-1.5,7.2-2.7h-5.4v-1.6h3.9v-1.1h-2.6v-1.4h2.6v-1.1h-3.2v-1.5h3.2v-1.1h-2.7v-4h6v4h-1.2v1.1h4v-1.1h-1.3v-4.1h6.1v4.1h-2.8v1.1h3.1v1.5h-3.1v1.1h2.7v1.4h-2.7v1.1h4v1.6h-6.5c.4.7.9,1.4,1.5,1.9.9-.5,2-1.2,2.7-1.8l1.5,1.1h0ZM299,250.1h-16.1v-1.8h7c-.2-.6-.5-1.1-.8-1.6l1.9-.6c.4.6.9,1.5,1.1,2.2h6.8v1.8ZM286,253.8h2.5v-1.6h-2.5v1.6ZM289.1,258.7h4v-1.1h-4v1.1ZM289.1,261.2h4v-1.1h-4v1.1ZM293.5,253.8h2.6v-1.6h-2.6v1.6Z" fill="#fff" stroke-width="0"/>
          <path d="M248.5,289.6c-1,.6-2.2,1.2-3.2,1.7,1.1.9,2.4,1.6,3.9,2.1-.5.4-1.1,1.2-1.4,1.8-3.4-1.1-5.7-3.6-6.9-6.9-.8.7-1.7,1.4-2.8,2v2.6l3.9-.8c0,.5,0,1.3,0,1.7-4.6,1.1-5.4,1.4-5.8,1.6h0c-.1-.5-.5-1.3-.8-1.6.4-.2.9-.6.9-1.6v-.8c-.8.4-1.6.7-2.4,1-.2-.4-.7-1-1.1-1.4-2.3.7-4.6,1.4-6.5,1.9l-.4-2.1c.8-.2,1.7-.4,2.7-.7v-6.6h-2.2v-2h2.2v-5.1h-2.4v-2.1h6.7v2.1h-2.3v5.1h2v2h-2v6.1c.7-.2,1.4-.4,2.1-.6l.2,1.8c1.9-.5,4.1-1.4,5.6-2.5h-3.4v-5.3h12v5.3h-4.4c.4.8.8,1.4,1.3,2.1,1-.6,2.1-1.3,2.9-1.9l1.6,1.4h0ZM248.7,281.5h-15v-1.9h15v1.9ZM247.9,278.6h-13.2v-5.4h13.2v5.4ZM238.5,274.9h-2v2.1h2v-2.1ZM237.3,286.3h7.8v-1.9h-7.8v1.9ZM242.2,274.9h-2.1v2.1h2.1v-2.1ZM245.9,274.9h-2.1v2.1h2.1v-2.1Z" fill="#fff" stroke-width="0"/>
          <path d="M259.1,289.2c-2.5,1.1-5.3,2.1-7.4,3l-.8-2.4c.9-.3,1.9-.6,3-1v-8.2h-2.6v-2.2h2.6v-5.7h2.3v5.7h2.3v2.2h-2.3v7.4l2.5-.9.5,2.1h0ZM270.9,293.1c.3,0,.6,0,.7,0,.1,0,.3-.2.4-.5,0-.3.1-1,.1-2,.4.4,1.2.8,1.8,1,0,1-.1,2-.3,2.4-.2.4-.5.7-1,.9-.4.1-1,.2-1.5.2h-1.6c-.6,0-1.4-.1-1.8-.5-.5-.4-.6-.8-.6-2.2v-3.4h-2c-.5,3.4-1.7,5.4-6.3,6.6-.2-.6-.8-1.4-1.2-1.8,4-.8,5-2.1,5.3-4.7h-2.4v-7.2h11.5v7.2h-2.8v3.5c0,.4,0,.6.2.6.1.1.3.1.5.1h1,0ZM273.2,280.5h-13.9v-1.9h3.3c-.2-.6-.4-1.4-.7-2.1l1.9-.4c.4.8.7,1.7.9,2.4h-.5c0,.1,3.5.1,3.5.1.3-.8.7-1.7.9-2.4l2.1.4c-.4.7-.6,1.4-1,2h3.5v1.9h0ZM272.6,275.9h-12.5v-1.9h5.1c-.2-.5-.4-1-.5-1.4l2.1-.4c.3.6.6,1.2.8,1.9h5v1.9h0ZM262.5,284.5h7.2v-1.3h-7.2v1.3ZM262.5,287.3h7.2v-1.4h-7.2v1.4Z" fill="#fff" stroke-width="0"/>
        </g>
      </g>
      <g id="_大氣環境與監測" data-name=" 大氣環境與監測">
        <g>
          <path d="M13.1,155.3c5.6-11.8,9-36.5,14.6-48.3,0-.1.1.1.2,0h99.5c7.9,15.5,15.2,39.6,23.1,55.1" fill="#d9899c" fill-rule="evenodd" stroke-width="0"/>
          <g opacity=".6">
            <path d="M37.3,163c3.6-11.8,5.8-30.1,9.5-41.8,0-.1,0,.1.1,0h64.5c5.1,15.5,9.8,26.3,14.9,41.8" fill="#6b4336" stroke-width="0"/>
          </g>
          <path d="M150.3,157.2c.2.8-7.4,91.7-7.8,133.4,0,8.3-7.3,15-16.2,15-25.5,0-61.5-.1-86.5-.1-9.4,0-17.3-6.8-18-15.6-3.1-38-10.7-131.9-10.1-132.7-.7-.9,138.8.9,138.6,0h0Z" fill="#d9899c" fill-rule="evenodd" stroke-width="0"/>
          <path d="M157.7,155.3c-18.6-.2-136.1-.7-153.4-.2-2.4,0-4.3,1.9-4.2,4.2.2,6.9,1.5,13,1.6,13.1.7,0-.6,0,.1,0h155.5c2.4,0,4.3-1.7,4.4-3.9.2-5.5.2-3.3.4-8.8,0-2.3-1.9-4.2-4.3-4.3Z" fill="#cc5a73" fill-rule="evenodd" stroke-width="0"/>
          <path d="M127.8,130.8c-.4,0-.9-.2-1-.7l-5.9-14.3c-.2-.5,0-1.1.6-1.3.6-.2,1.2,0,1.4.6l5.9,14.3c.2.5,0,1.1-.6,1.3-.1,0-.3,0-.4,0h0Z" fill="#ebf4e3" stroke-width="0"/>
          <path d="M158.4,161.7h-20c-.6,0-1.1-.5-1.1-1s.5-1,1.1-1h20c.6,0,1.1.5,1.1,1s-.5,1-1.1,1Z" fill="#ebf4e3" stroke-width="0"/>
          <path d="M64,170.6c-20.4,0-40.9-.3-61.2-.8-.7,0-1.3-.6-1.3-1.3,0-.7.7-1.2,1.4-1.2,51.6,1.4,103.9,1,155.5-1.2.8,0,1.4.5,1.4,1.2,0,.7-.5,1.3-1.3,1.3-31.3,1.3-62.9,2-94.5,2Z" fill="#913a4d" stroke-width="0"/>
        </g>
        <g>
          <path d="M90,212.9c.6,4.6-1.2,9.3-5.1,12.2-5.8,4.3-14,3.2-18.3-2.6-4.3-5.7-3.2-13.8,2.4-18.2l1.2,1.7,2.1-7.7h-8c0-.1,1.2,1.5,1.2,1.5-8.1,6.2-9.7,17.9-3.6,26.1,6.2,8.3,18,10,26.3,3.8,5.9-4.5,8.5-11.8,7.2-18.6" fill="none" stroke="#fff" stroke-linecap="round" stroke-linejoin="round" stroke-width="2.2"/>
          <path d="M82.2,214.1c0,2.9-2.4,5.3-5.3,5.3s-5.3-2.4-5.3-5.3,2.4-5.3,5.3-5.3" fill="none" stroke="#fff" stroke-linecap="round" stroke-linejoin="round" stroke-width="2.2"/>
          <g>
            <path d="M102.2,188.9c2.9,6.2,1.8,13.8-3.4,18.9-5.1,5.1-12.8,6.2-19,3.3-2.9-6.2-1.8-13.8,3.3-18.9s12.8-6.2,19-3.3Z" fill="none" stroke="#fff" stroke-linecap="round" stroke-linejoin="round" stroke-width="2.2"/>
            <line x1="102.2" y1="188.9" x2="80.5" y2="210.5" fill="none" stroke="#fff" stroke-linecap="round" stroke-linejoin="round" stroke-width="2.2"/>
            <line x1="79.8" y1="211.2" x2="77.2" y2="213.8" fill="none" stroke="#fff" stroke-linecap="round" stroke-linejoin="round" stroke-width="2.2"/>
            <line x1="91.2" y1="188.5" x2="91.6" y2="199.3" fill="none" stroke="#fff" stroke-linecap="round" stroke-linejoin="round" stroke-width="2.2"/>
            <line x1="83.8" y1="192.1" x2="84.4" y2="206.6" fill="none" stroke="#fff" stroke-linecap="round" stroke-linejoin="round" stroke-width="2.2"/>
            <line x1="102.5" y1="199.9" x2="91.7" y2="199.4" fill="none" stroke="#fff" stroke-linecap="round" stroke-linejoin="round" stroke-width="2.2"/>
            <line x1="98.9" y1="207.3" x2="84.5" y2="206.6" fill="none" stroke="#fff" stroke-linecap="round" stroke-linejoin="round" stroke-width="2.2"/>
          </g>
        </g>
        <g id="_大氣環境_與監測" data-name=" 大氣環境 與監測">
          <path d="M45.3,255.7c1.7,5.2,4.8,9.4,9.6,11.4-.6.5-1.3,1.5-1.7,2.2-4.7-2.2-7.7-6.2-9.6-11.5-1.3,4.5-4,8.9-9.7,11.5-.4-.6-1.1-1.4-1.8-1.9,6-2.6,8.4-7.1,9.4-11.6h-8.9v-2.4h9.3c.3-2.5.3-4.9.3-6.9h2.5c0,2,0,4.4-.3,6.9h10.1v2.4h-9.1Z" fill="#fff" stroke-width="0"/>
          <path d="M63,250.4c-1.2,2-2.8,3.7-4.3,5-.3-.5-1.2-1.4-1.7-1.9,2.3-1.7,4.4-4.3,5.5-7.1l2.3.6c-.2.5-.5,1-.8,1.6h15v1.8h-16.1ZM64,264.2c-1.2,1.9-3.2,4-5.1,5-.3-.5-1-1.3-1.5-1.7,1.8-.8,3.8-2.4,4.8-4l1.7.6h0ZM66.7,263v6.3h-2.2v-6.3h-6.5v-1.8h6.5v-4.1h2.2v4.1h2.5l-1.4-.6c.7-.9,1.6-2.3,2-3.3l2.1.7c-.9,1.2-1.8,2.4-2.6,3.2h3.6v1.8h-6.2,0ZM61.4,257.2c.8.9,1.5,2.2,1.8,3l-1.8.8c-.3-.9-1-2.1-1.8-3.1l1.8-.8h0ZM75.9,254.8c0,7.3.2,12.2,1.9,12.2s.6-1.4.6-3.6c.5.5,1.1,1.1,1.6,1.4-.2,3.2-.7,4.4-2.3,4.4-3.6,0-4.1-5-4.1-12.7h-13.9v-1.8h16.2ZM62.3,253.4v-1.8h14.7v1.8h-14.7ZM68.7,263.5c1.6,1.1,3.6,2.7,4.7,3.8l-1.4,1.4c-1-1.1-3-2.8-4.6-4l1.3-1.2Z" fill="#fff" stroke-width="0"/>
          <path d="M104.4,263.5c-1,.6-2.2,1.2-3.2,1.7,1.1.9,2.4,1.6,3.9,2.1-.5.4-1.1,1.2-1.4,1.8-3.4-1.1-5.7-3.6-6.9-6.9-.8.7-1.7,1.4-2.8,2v2.6l3.8-.8c0,.5,0,1.3,0,1.7-4.6,1.1-5.4,1.4-5.8,1.6h0c-.1-.5-.5-1.3-.8-1.6.3-.2.9-.6.9-1.6v-.8c-.8.4-1.7.7-2.4,1-.2-.4-.7-1-1.1-1.4-2.3.7-4.6,1.4-6.5,1.9l-.4-2.1c.8-.2,1.7-.4,2.7-.7v-6.6h-2.2v-2h2.2v-5.1h-2.4v-2.1h6.7v2.1h-2.3v5.1h2v2h-2v6.1c.7-.2,1.4-.4,2.1-.6l.2,1.8c1.9-.5,4.1-1.4,5.7-2.5h-3.4v-5.3h12v5.3h-4.4c.3.8.8,1.4,1.3,2.1,1-.6,2.2-1.3,2.8-1.9l1.6,1.4h0ZM104.6,255.5h-15v-1.9h15v1.9ZM103.8,252.6h-13.2v-5.4h13.2v5.4ZM94.4,248.9h-2v2.1h2v-2.1ZM93.2,260.3h7.8v-1.9h-7.8v1.9ZM98.1,248.9h-2.1v2.1h2.1v-2.1ZM101.8,248.9h-2.1v2.1h2.1v-2.1Z" fill="#fff" stroke-width="0"/>
          <path d="M115,263.2c-2.6,1.1-5.3,2.1-7.4,3l-.8-2.4c.8-.3,1.9-.6,3-1v-8.2h-2.6v-2.2h2.6v-5.7h2.3v5.7h2.3v2.2h-2.3v7.4l2.4-.9.5,2.1h0ZM126.8,267.1c.3,0,.6,0,.7,0,.2,0,.3-.2.3-.5,0-.3,0-1,.1-2,.4.4,1.2.8,1.8,1,0,1-.1,2-.3,2.4-.2.4-.6.7-1,.9-.4.1-1.1.2-1.5.2h-1.7c-.6,0-1.3-.1-1.8-.5-.4-.4-.6-.8-.6-2.2v-3.4h-2c-.4,3.4-1.7,5.4-6.3,6.6-.2-.6-.8-1.4-1.2-1.8,4-.8,4.9-2.1,5.3-4.7h-2.3v-7.2h11.6v7.2h-2.8v3.5c0,.4,0,.6.2.6.1.1.3.1.6.1h1,0ZM129.1,254.5h-13.9v-1.9h3.3c-.2-.6-.4-1.4-.7-2.1l1.9-.4c.3.8.7,1.7.8,2.4h-.5c0,.1,3.5.1,3.5.1.3-.8.7-1.7.9-2.4l2.1.4c-.3.7-.7,1.4-1,2h3.5v1.9h0ZM128.5,249.9h-12.6v-1.9h5.2c-.2-.5-.3-1-.6-1.4l2.2-.4c.3.6.6,1.2.8,1.9h5v1.9h0ZM118.4,258.5h7.2v-1.3h-7.2v1.3ZM118.4,261.3h7.2v-1.4h-7.2v1.4Z" fill="#fff" stroke-width="0"/>
          <path d="M67.3,289.5h-22.5v-2.1h2.4l-.5-13c1.6-.5,3.4-1.2,4.7-1.9l1.1,1.9c-1.1.4-2.4.8-3.6,1.2v2.7h3.2v1.9h-3v2.6h3.1v1.9h-3v2.6h13.7c0-.8,0-1.6.2-2.6h-3v-1.9h3c0-.9,0-1.8,0-2.7h-3v-1.9h3c0-.9,0-1.8,0-2.7h-3.3v-2h5.4c0,4.4-.2,10.1-.4,13.8h2.3v2.1h0ZM53.8,291.1c-2.1,1.5-5.1,3.1-7.5,4.1-.3-.5-.9-1.3-1.3-1.8,2.3-.9,5.4-2.6,6.9-3.9l1.9,1.5h0ZM55.6,281.8c-.2,1.7-.7,3.4-1.4,4.5-.3-.3-1.1-.8-1.5-.9.7-1,1-2.4,1.2-3.8l1.8.3h0ZM57,280.6h-3.9v-8.1h2v2.1h4v1.9h-4v2.3h3s.8,0,.8,0v6.4c0,.9-.2,1.3-.8,1.5-.6.3-1.5.3-2.7.3,0-.5-.3-1.1-.5-1.5.8,0,1.5,0,1.8,0,.2,0,.3,0,.3-.3v-4.6h0ZM65.1,295.2c-1.7-1.1-4.4-2.8-7-4l1.3-1.6c2.6,1.2,5.4,2.8,7.2,3.9l-1.5,1.8Z" fill="#fff" stroke-width="0"/>
          <path d="M92.3,292.5v2.1h-22.6v-2.1h2.7v-5.9h17.2v5.9h2.6ZM81.3,285.1h-10.8v-11.9h10.7v1.8h-4.1v1.6h3.5v4.9h-3.5v1.7h4.2v1.8h0ZM72.6,275.1v1.6h2.6v-1.6h-2.6ZM78.7,278.2h-6.1v1.9h6.1v-1.9ZM72.6,283.3h2.6v-1.7h-2.6v1.7ZM74.6,292.5h2.8v-4.1h-2.8v4.1ZM79.5,288.5v4.1h2.8v-4.1h-2.8ZM84.3,278c-.6,1.2-1.2,2.2-1.8,3.1-.4-.4-1.2-.9-1.7-1.2,1.6-1.8,2.7-4.6,3.3-7.4l2,.4c-.2,1.1-.6,2.1-.9,3.2h6.9v2h-7.7,0ZM82.9,284.1v-2h8.4v2h-8.4ZM84.5,288.5v4.1h2.9v-4.1h-2.9Z" fill="#fff" stroke-width="0"/>
          <path d="M95.8,279.2c1.4.6,3.2,1.5,4.1,2.2l-1.3,1.9c-.8-.8-2.6-1.8-4-2.4,0,0,1.3-1.7,1.3-1.7ZM98.3,285.9l1.9,1.2c-.9,2.6-2.1,5.6-3.2,7.9l-2.1-1.2c1-1.9,2.3-5.1,3.3-7.9ZM96.8,272.6c1.4.6,3.1,1.6,3.9,2.4l-1.4,1.9c-.8-.8-2.5-1.9-3.8-2.6l1.3-1.6h0ZM104.3,290.2c-.8,1.9-2.2,3.9-3.4,5.2-.4-.4-1.3-.9-1.8-1.2,1.2-1.1,2.5-2.8,3.2-4.5,0,0,2.1.6,2.1.6ZM108.6,273.4v15.9h-7.3v-15.9h7.3ZM103.3,278.1h3.3v-2.6h-3.3v2.6ZM103.3,282.6h3.3v-2.7h-3.3v2.7ZM103.3,287.2h3.3v-2.7h-3.3v2.7ZM107.4,289.5c.9,1.1,2.2,2.8,2.8,3.8l-1.9,1.1c-.5-1.1-1.7-2.8-2.7-4l1.8-1h0ZM112.3,274.9v14.2h-2v-14.2h2ZM116.6,272.4v20.2c0,1.3-.3,1.9-1.1,2.3-.8.4-2,.4-4,.4,0-.6-.4-1.6-.7-2.2,1.4,0,2.7,0,3.1,0,.4,0,.5-.1.5-.5v-20.2h2.1Z" fill="#fff" stroke-width="0"/>
        </g>
      </g>
    </g>
  </g>
</svg>