<?xml version="1.0" encoding="UTF-8"?>
<svg xmlns="http://www.w3.org/2000/svg" width="72.99" height="78.63" xmlns:xlink="http://www.w3.org/1999/xlink" viewBox="0 0 72.99 78.63">
  <defs>
    <clipPath id="clippath">
      <path d="M52.38,4.12c-.68-.4-1.36-.79-2.04-1.19-.3-.17-.72-.15-1.18.12l2.04,1.19c.46-.27.88-.29,1.18-.12Z" style="fill: #c3dff4; stroke-width: 0px;"/>
    </clipPath>
    <clipPath id="clippath-1">
      <path d="M64.71,60.27s0,0-.01,0l-24.23,14.08s0,0,.01,0c8.08-4.69,16.15-9.39,24.23-14.08Z" style="fill: none; stroke-width: 0px;"/>
    </clipPath>
    <clipPath id="clippath-2">
      <path d="M64.71,60.27c-8.08,4.69-16.16,9.39-24.23,14.08.29.15.54.17.72.07l24.23-14.08c-.17.1-.43.08-.72-.07Z" style="fill: none; stroke-width: 0px;"/>
    </clipPath>
    <clipPath id="clippath-3">
      <path d="M65.42,60.33c.15-.09.24-.25.24-.49l-24.23,14.08c0,.24-.09.41-.24.49,7.27-4.22,16.96-9.86,24.23-14.08Z" style="fill: none; stroke-width: 0px;"/>
    </clipPath>
    <clipPath id="clippath-4">
      <path d="M41.43,73.92l24.23-14.08c0-.54-.44-1.24-.98-1.55l-24.23,14.08c.55.32.99,1.01.98,1.56Z" style="fill: none; stroke-width: 0px;"/>
    </clipPath>
    <clipPath id="clippath-5">
      <path d="M63.27,54.05s0,0-.01,0l-24.23,14.08s0,0,.01,0c8.08-4.69,16.16-9.39,24.23-14.08Z" style="fill: none; stroke-width: 0px;"/>
    </clipPath>
    <clipPath id="clippath-6">
      <path d="M63.27,54.05c-8.08,4.69-16.16,9.39-24.23,14.08.29.15.54.17.72.07l24.23-14.08c-.17.1-.43.09-.72-.07Z" style="fill: none; stroke-width: 0px;"/>
    </clipPath>
    <clipPath id="clippath-7">
      <path d="M63.99,54.12c.15-.08.24-.25.24-.49l-24.23,14.08c0,.24-.09.41-.24.49,7.27-4.22,16.96-9.86,24.23-14.08Z" style="fill: none; stroke-width: 0px;"/>
    </clipPath>
    <clipPath id="clippath-8">
      <path d="M39.99,67.71l24.23-14.08c0-.54-.44-1.24-.98-1.55l-24.23,14.08c.55.32.99,1.01.98,1.56Z" style="fill: none; stroke-width: 0px;"/>
    </clipPath>
  </defs>
  <g style="isolation: isolate;">
    <g id="_圖層_2" data-name="圖層 2">
      <g id="_第一cut" data-name="第一cut">
        <g id="Video·E-book">
          <g>
            <g style="opacity: .1;">
              <polygon points="23.87 58.88 56.87 39.7 33.01 25.85 0 45.03 23.87 58.88" style="fill: #000; stroke-width: 0px;"/>
            </g>
            <g style="isolation: isolate;">
              <polygon points="21.74 48.2 21.74 49.64 29.88 54.37 29.87 52.92 21.74 48.2" style="fill: #4881ff; stroke-width: 0px;"/>
              <polygon points="29.87 52.92 29.88 54.37 47.51 44.19 47.51 42.74 29.87 52.92" style="fill: #c3dff4; stroke-width: 0px;"/>
              <polygon points="21.74 48.2 29.87 52.92 47.51 42.74 39.37 38.02 21.74 48.2" style="fill: #85a9ff; stroke-width: 0px;"/>
            </g>
            <g>
              <path d="M52.38,4.12c-.68-.4-1.36-.79-2.04-1.19-.3-.17-.72-.15-1.18.12l2.04,1.19c.46-.27.88-.29,1.18-.12Z" style="fill: #c3dff4;"/>
              <g style="clip-path: url(#clippath);">
                <g style="isolation: isolate;">
                  <path d="M52.38,4.12l-2.04-1.19s-.09-.05-.13-.06l2.04,1.19s.09.04.13.06h0Z" style="fill: #85a9ff; stroke-width: 0px;"/>
                  <path d="M52.25,4.06l-2.04-1.19s-.08-.02-.12-.03l2.04,1.19s.08.02.12.03h0Z" style="fill: #85a9ff; stroke-width: 0px;"/>
                  <path d="M52.13,4.02l-2.04-1.19s-.06-.01-.1-.01l2.04,1.19s.06,0,.09.01h0Z" style="fill: #85a9ff; stroke-width: 0px;"/>
                  <path d="M52.04,4.01l-2.04-1.19s-.06,0-.08,0l2.04,1.19s.06,0,.09,0h0Z" style="fill: #85a9ff; stroke-width: 0px;"/>
                  <path d="M51.95,4.01l-2.04-1.19s-.05,0-.08,0l2.04,1.19s.05,0,.08,0h0Z" style="fill: #85a9ff; stroke-width: 0px;"/>
                  <path d="M51.88,4.01l-2.04-1.19s-.05,0-.07,0l2.04,1.19s.05,0,.07,0h0Z" style="fill: #85a9ff; stroke-width: 0px;"/>
                  <path d="M51.8,4.02l-2.04-1.19s-.05,0-.07.01l2.04,1.19s.05,0,.07-.01h0Z" style="fill: #85a9ff; stroke-width: 0px;"/>
                  <path d="M51.73,4.03l-2.04-1.19s-.05,0-.07.02l2.04,1.19s.05-.01.07-.01h0Z" style="fill: #85a9ff; stroke-width: 0px;"/>
                  <path d="M51.66,4.04l-2.04-1.19s-.04.01-.07.02l2.04,1.19s.05-.01.07-.02h0Z" style="fill: #85a9ff; stroke-width: 0px;"/>
                  <path d="M51.59,4.06l-2.04-1.19s-.04.01-.07.02l2.04,1.19s.04-.02.06-.02h0Z" style="fill: #85a9ff; stroke-width: 0px;"/>
                  <path d="M51.53,4.08l-2.04-1.19s-.05.02-.07.03l2.04,1.19s.04-.02.07-.02h0Z" style="fill: #85a9ff; stroke-width: 0px;"/>
                  <path d="M51.46,4.11l-2.04-1.19s-.04.02-.07.03l2.04,1.19s.04-.02.07-.03h0Z" style="fill: #85a9ff; stroke-width: 0px;"/>
                  <path d="M51.39,4.14l-2.04-1.19s-.04.02-.07.03l2.04,1.19s.05-.02.07-.03h0Z" style="fill: #85a9ff; stroke-width: 0px;"/>
                  <path d="M51.33,4.17l-2.04-1.19s-.04.02-.07.04l2.04,1.19s.05-.02.07-.04h0Z" style="fill: #85a9ff; stroke-width: 0px;"/>
                  <path d="M51.26,4.2l-2.04-1.19s-.04.02-.05.03l2.04,1.19s.04-.02.05-.03h0Z" style="fill: #85a9ff; stroke-width: 0px;"/>
                </g>
              </g>
            </g>
            <path d="M14.82,49.48v2.86c0,.13.02.25.04.35,0,0,0,0,0,.01.02.11.05.2.09.29,0,0,0,0,0,0,.04.07.08.14.13.2.01.02.03.04.04.05.05.06.12.11.18.15l-2.04-1.19c-.07-.04-.13-.09-.18-.15-.02-.02-.03-.04-.05-.06-.02-.02-.04-.04-.06-.07-.02-.03-.05-.07-.06-.11,0,0,0,0,0,0,0,0,0,0,0,0-.01-.03-.02-.05-.03-.08-.01-.03-.02-.06-.03-.09,0-.03-.02-.06-.02-.08,0-.01,0-.02,0-.04,0,0,0,0,0,0,0-.01,0-.02,0-.04,0-.02,0-.05-.01-.08,0-.02,0-.05,0-.08,0-.03,0-.05,0-.08v-.08h0s0-2.86,0-2.86l2.04,1.19Z" style="fill: #85a9ff; stroke-width: 0px;"/>
            <polygon points="30.11 49.67 23.51 49.23 28.64 46.27 30.11 49.67" style="fill: #4881ff; stroke-width: 0px;"/>
            <g style="isolation: isolate;">
              <polygon points="31.11 37.83 29.44 36.86 28.44 48.7 30.11 49.67 31.11 37.83" style="fill: #85a9ff; stroke-width: 0px;"/>
              <polygon points="40.7 32.29 39.03 31.32 29.44 36.86 31.11 37.83 40.7 32.29" style="fill: #85a9ff; stroke-width: 0px;"/>
              <polygon points="31.11 37.83 30.11 49.67 41.42 43.14 40.7 32.29 31.11 37.83" style="fill: #8ebed6; stroke-width: 0px;"/>
              <polygon points="37.45 41.18 30.11 49.67 41.42 43.14 40.7 32.29 37.45 41.18" style="fill: #c0ddff; stroke-width: 0px;"/>
            </g>
            <polygon points="52.93 27.48 50.89 26.29 12.78 48.3 14.82 49.48 52.93 27.48" style="fill: #dcc9a0; stroke-width: 0px;"/>
            <polygon points="51.38 6.06 49.33 4.87 49.39 25.44 51.44 26.63 51.38 6.06" style="fill: #584245; stroke-width: 0px;"/>
            <polygon points="51.44 26.63 49.39 25.44 14.54 45.56 16.58 46.75 51.44 26.63" style="fill: #62494d; stroke-width: 0px;"/>
            <path d="M14.82,49.48v2.86c0,1.05.75,1.48,1.67.95l34.8-20.09c.92-.53,1.65-1.81,1.65-2.86v-2.86S14.82,49.48,14.82,49.48Z" style="fill: #add3ea; stroke-width: 0px;"/>
            <polygon points="16.52 26.18 16.58 46.75 51.44 26.63 51.38 6.06 16.52 26.18" style="fill: #5c8fc6; stroke-width: 0px;"/>
            <polygon points="16.58 46.31 51.06 26.41 51 6.28 16.52 26.18 16.58 46.31" style="fill: #709dda; stroke-width: 0px;"/>
            <polygon points="16.52 26.18 14.48 25 14.54 45.56 16.58 46.75 16.52 26.18" style="fill: #82b3b8; stroke-width: 0px;"/>
            <polygon points="51.38 6.06 49.33 4.87 14.48 25 16.52 26.18 51.38 6.06" style="fill: #92c8ce; stroke-width: 0px;"/>
            <polygon points="14.75 27.18 12.71 26 12.78 48.3 14.82 49.48 14.75 27.18" style="fill: #85a9ff; stroke-width: 0px;"/>
            <polygon points="51.2 4.23 49.16 3.05 14.36 23.14 16.4 24.33 51.2 4.23" style="fill: #c3dff4; stroke-width: 0px;"/>
            <path d="M51.2,4.23c.92-.53,1.66-.11,1.66.95l.06,22.3L14.82,49.48l-.06-22.3c0-1.05.73-2.33,1.65-2.86L51.2,4.23ZM16.58,46.75l34.85-20.12-.06-20.57L16.52,26.18l.06,20.56h0Z" style="fill: #e3f1fe; stroke-width: 0px;"/>
            <path d="M12.71,26s0-.05,0-.07c0-.03,0-.05,0-.08,0-.03,0-.05,0-.08,0-.03,0-.05,0-.08,0-.03.01-.06.01-.08,0,0,0,0,0,0,0-.03,0-.05.01-.08,0-.03.01-.06.02-.09,0-.03.01-.06.02-.09,0-.03.01-.06.02-.09,0-.02.01-.05.02-.07,0,0,0,0,0,0,0,0,0-.01,0-.02,0-.03.02-.06.03-.09,0-.03.02-.06.03-.09.01-.03.02-.05.03-.08,0-.03.02-.05.03-.08,0-.02.02-.04.02-.06,0,0,0,0,0,0,0,0,0,0,0-.01,0-.03.02-.05.03-.08.02-.03.03-.06.04-.09.02-.03.03-.07.05-.1.02-.04.04-.08.06-.11,0,0,0,0,0,0,0-.01,0-.02.01-.03h0s0,0,0,0c.04-.07.08-.13.12-.2.03-.05.07-.1.1-.14,0,0,0,0,0-.01.02-.03.05-.06.07-.09.02-.03.04-.05.06-.08.02-.03.04-.05.06-.07.02-.02.04-.05.06-.07,0,0,0,0,.01-.01,0,0,0,0,0,0,.02-.02.03-.03.05-.05.02-.02.05-.05.07-.07.02-.02.05-.05.07-.07.02-.02.05-.04.07-.06.01,0,.02-.02.04-.03,0,0,0,0,0,0,.01,0,.02-.02.03-.02.03-.02.05-.04.07-.06.03-.02.05-.03.07-.05.02-.02.05-.03.07-.05.02-.01.05-.03.07-.04,0,0,.01,0,.02,0l2.04,1.19c-.11.06-.22.14-.33.23,0,0,0,0-.01,0-.1.08-.2.18-.3.28,0,0,0,0,0,0-.1.1-.19.21-.28.33h0s0,0,0,0c-.09.12-.17.24-.24.37,0,0,0,0,0,.01-.15.26-.27.53-.35.8,0,0,0,0,0,0-.04.14-.07.27-.09.41,0,0,0,0,0,0h0c-.02.14-.03.27-.03.4l-2.04-1.19Z" style="fill: #c3dff4; stroke-width: 0px;"/>
            <path d="M36.6,38.44c.47-.27.85-.05.85.48,0,.54-.37,1.19-.84,1.46-.47.27-.85.05-.85-.49,0-.53.37-1.19.84-1.46Z" style="fill: #476f99; stroke-width: 0px;"/>
            <path d="M36.56,38.43c.44-.26.8-.05.81.46,0,.51-.36,1.13-.8,1.39-.44.26-.8.05-.81-.46,0-.51.36-1.13.8-1.39Z" style="fill: #85a9ff; stroke-width: 0px;"/>
          </g>
          <g>
            <g>
              <g style="isolation: isolate;">
                <polygon points="24.62 41.79 23.6 41.19 23.55 22.96 24.57 23.55 24.62 41.79" style="fill: #ff9c00; stroke-width: 0px;"/>
                <polygon points="24.57 23.55 23.55 22.96 45.8 10.11 46.82 10.7 24.57 23.55" style="fill: #ffc000; stroke-width: 0px;"/>
                <polygon points="46.82 10.7 46.88 28.94 24.62 41.79 24.57 23.55 46.82 10.7" style="fill: #ea7500; stroke-width: 0px;"/>
              </g>
              <g style="isolation: isolate;">
                <polygon points="26.06 42.15 25.06 41.57 25.01 23.83 26.01 24.41 26.06 42.15" style="fill: #ebf5ff; stroke-width: 0px;"/>
                <polygon points="26.01 24.41 25.01 23.83 46.66 11.33 47.66 11.91 26.01 24.41" style="fill: #def2ff; stroke-width: 0px;"/>
                <polygon points="47.66 11.91 47.71 29.65 26.06 42.15 26.01 24.41 47.66 11.91" style="fill: #c3dff4; stroke-width: 0px;"/>
              </g>
              <path d="M36.34,18.51s-3.47,4.52-10.5,6.52l.43,17.81s5.72-.04,10.07-5.58v-18.75Z" style="fill: #d7e9ff; stroke-width: 0px;"/>
              <path d="M36.34,18.51s-1.89,5.54-8.92,7.54l.34,16.75s4.23,0,8.57-5.54v-18.75Z" style="fill: #ebf5ff; stroke-width: 0px;"/>
              <path d="M36.34,18.51s.41,5.73-6.62,7.74v16.14s5.31-.6,6.62-5.13v-18.75Z" style="fill: #d7e9ff; stroke-width: 0px;"/>
              <path d="M36.34,18.51s5.13-.56,10.49-5.49l-.25,18.33s-3.62,6.23-10.24,5.9v-18.75Z" style="fill: #ebf5ff; stroke-width: 0px;"/>
              <path d="M36.34,18.51s5.61.96,10.97-3.97v16.44s-4.36,6.61-10.97,6.28v-18.75Z" style="fill: #b8d2e8; stroke-width: 0px;"/>
              <path d="M36.34,18.51s5.82.96,11.37-2.37l-.74,16.5s-4,5.2-10.64,4.62v-18.75Z" style="fill: #ebf5ff; stroke-width: 0px;"/>
            </g>
            <path d="M38.39,22.1c-.61,0-.99-.03-1.05-.04l.05-.57c.06,0,5.74.41,9.48-2.51v.24c-2.95,2.3-6.66,2.88-8.49,2.88Z" style="fill: #afd2e8; stroke-width: 0px;"/>
            <path d="M38.5,24.69c-.61,0-.99-.03-1.05-.04l.05-.57c.06,0,5.74.41,9.48-2.51v.24c-2.95,2.3-6.66,2.88-8.49,2.88Z" style="fill: #afd2e8; stroke-width: 0px;"/>
            <path d="M38.5,27.74c-.61,0-.99-.03-1.05-.04l.05-.57c.06,0,5.74.41,9.48-2.51v.24c-2.95,2.3-6.66,2.88-8.49,2.88Z" style="fill: #afd2e8; stroke-width: 0px;"/>
            <path d="M38.5,30.85c-.61,0-.99-.03-1.05-.04l.05-.57c.06,0,5.74.41,9.48-2.51v.24c-2.95,2.3-6.66,2.88-8.49,2.88Z" style="fill: #afd2e8; stroke-width: 0px;"/>
            <path d="M38.3,33.85c-.61,0-.99-.03-1.05-.04l.05-.57c.06,0,5.74.41,9.48-2.51v.24c-2.95,2.3-6.66,2.88-8.49,2.88Z" style="fill: #afd2e8; stroke-width: 0px;"/>
            <path d="M35.72,23.83s-2.04,2.62-4.64,3.35v.55s2.61-1.06,4.64-3.65v-.26Z" style="fill: #afd2e8; stroke-width: 0px;"/>
            <path d="M35.72,26.1s-2.04,2.62-4.64,3.35v.55s2.61-1.06,4.64-3.65v-.26Z" style="fill: #afd2e8; stroke-width: 0px;"/>
            <path d="M35.72,28.94s-2.04,2.62-4.64,3.35v.55s2.61-1.06,4.64-3.65v-.26Z" style="fill: #afd2e8; stroke-width: 0px;"/>
            <path d="M35.72,31.78s-2.04,2.62-4.64,3.35v.55s2.61-1.06,4.64-3.65v-.26Z" style="fill: #afd2e8; stroke-width: 0px;"/>
            <path d="M35.72,35.18s-2.04,2.62-4.64,3.35v.55s2.61-1.06,4.64-3.65v-.26Z" style="fill: #afd2e8; stroke-width: 0px;"/>
          </g>
          <polygon points="35.85 15.86 36.86 16.46 34.84 17.62 33.58 17.17 35.85 15.86" style="fill: #ff9c00; stroke-width: 0px;"/>
          <polygon points="34.84 17.62 34.84 18.16 36.86 16.99 36.86 16.46 34.84 17.62" style="fill: #d36400; stroke-width: 0px;"/>
          <polygon points="36.18 17.87 25.3 24 36.34 17.99 36.18 17.87" style="fill: #b8d2e8; stroke-width: 0px;"/>
          <polygon points="26.01 24 30.69 21.42 25.75 24.26 26.01 24" style="fill: #b8d2e8; stroke-width: 0px;"/>
          <polygon points="36.6 17.87 47.1 11.58 36.44 17.62 36.34 17.62 36.6 17.87" style="fill: #b8d2e8; stroke-width: 0px;"/>
          <polygon points="25.3 24 25.3 37.74 25.53 24.13 25.3 24" style="fill: #b8d2e8; stroke-width: 0px;"/>
          <g style="mix-blend-mode: overlay; opacity: .8;">
            <path d="M18.68,24.73c0,2.23-1.81,4.04-4.04,4.04s-4.04-1.81-4.04-4.04,1.81-4.04,4.04-4.04,4.04,1.81,4.04,4.04Z" style="fill: #b839e3; opacity: 0; stroke-width: 0px;"/>
            <path d="M18.04,24.76c0,1.88-1.52,3.4-3.4,3.4s-3.4-1.52-3.4-3.4,1.52-3.4,3.4-3.4,3.4,1.52,3.4,3.4Z" style="fill: #c45ae8; opacity: .12; stroke-width: 0px;"/>
            <path d="M17.4,24.8c0,1.52-1.24,2.76-2.76,2.76s-2.76-1.24-2.76-2.76,1.24-2.76,2.76-2.76,2.76,1.24,2.76,2.76Z" style="fill: #d07bec; opacity: .23; stroke-width: 0px;"/>
            <path d="M16.76,24.83c0,1.17-.95,2.12-2.12,2.12s-2.12-.95-2.12-2.12.95-2.12,2.12-2.12,2.12.95,2.12,2.12Z" style="fill: #dc9cf1; opacity: .35; stroke-width: 0px;"/>
            <path d="M16.12,24.87c0,.82-.66,1.48-1.48,1.48s-1.48-.66-1.48-1.48.66-1.48,1.48-1.48,1.48.66,1.48,1.48Z" style="fill: #e7bdf6; opacity: .47; stroke-width: 0px;"/>
            <path d="M15.48,24.9c0,.47-.38.84-.84.84s-.84-.38-.84-.84.38-.84.84-.84.84.38.84.84Z" style="fill: #f3defa; opacity: .58; stroke-width: 0px;"/>
            <path d="M14.85,24.93c0,.11-.09.21-.21.21s-.21-.09-.21-.21.09-.21.21-.21.21.09.21.21Z" style="fill: #fff; opacity: .7; stroke-width: 0px;"/>
          </g>
          <g style="mix-blend-mode: overlay; opacity: .8;">
            <path d="M14.64,51.93c0,2.23-1.81,4.04-4.04,4.04s-4.04-1.81-4.04-4.04,1.81-4.04,4.04-4.04,4.04,1.81,4.04,4.04Z" style="fill: #b839e3; opacity: 0; stroke-width: 0px;"/>
            <path d="M14,51.96c0,1.88-1.52,3.4-3.4,3.4s-3.4-1.52-3.4-3.4,1.52-3.4,3.4-3.4,3.4,1.52,3.4,3.4Z" style="fill: #c45ae8; opacity: .12; stroke-width: 0px;"/>
            <path d="M13.36,52c0,1.52-1.24,2.76-2.76,2.76s-2.76-1.24-2.76-2.76,1.24-2.76,2.76-2.76,2.76,1.24,2.76,2.76Z" style="fill: #d07bec; opacity: .23; stroke-width: 0px;"/>
            <path d="M12.72,52.03c0,1.17-.95,2.12-2.12,2.12s-2.12-.95-2.12-2.12.95-2.12,2.12-2.12,2.12.95,2.12,2.12Z" style="fill: #dc9cf1; opacity: .35; stroke-width: 0px;"/>
            <path d="M12.09,52.07c0,.82-.66,1.48-1.48,1.48s-1.48-.66-1.48-1.48.66-1.48,1.48-1.48,1.48.66,1.48,1.48Z" style="fill: #e7bdf6; opacity: .47; stroke-width: 0px;"/>
            <path d="M11.45,52.1c0,.47-.38.84-.84.84s-.84-.38-.84-.84.38-.84.84-.84.84.38.84.84Z" style="fill: #f3defa; opacity: .58; stroke-width: 0px;"/>
            <path d="M10.81,52.14c0,.11-.09.21-.21.21s-.21-.09-.21-.21.09-.21.21-.21.21.09.21.21Z" style="fill: #fff; opacity: .7; stroke-width: 0px;"/>
          </g>
          <g style="mix-blend-mode: overlay; opacity: .8;">
            <path d="M68.75,52.88c0,2.95-2.39,5.34-5.34,5.34s-5.34-2.39-5.34-5.34,2.39-5.34,5.34-5.34,5.34,2.39,5.34,5.34Z" style="fill: #9e29ce; opacity: 0; stroke-width: 0px;"/>
            <path d="M67.91,52.93c0,2.48-2.01,4.49-4.49,4.49s-4.49-2.01-4.49-4.49,2.01-4.49,4.49-4.49,4.49,2.01,4.49,4.49Z" style="fill: #ae4dd6; opacity: .12; stroke-width: 0px;"/>
            <path d="M67.07,52.97c0,2.01-1.63,3.65-3.65,3.65s-3.65-1.63-3.65-3.65,1.63-3.65,3.65-3.65,3.65,1.63,3.65,3.65Z" style="fill: #be70de; opacity: .23; stroke-width: 0px;"/>
            <path d="M66.22,53.02c0,1.55-1.26,2.8-2.8,2.8s-2.81-1.26-2.81-2.8,1.26-2.81,2.81-2.81,2.8,1.26,2.8,2.81Z" style="fill: #cf94e7; opacity: .35; stroke-width: 0px;"/>
            <path d="M65.38,53.06c0,1.08-.88,1.96-1.96,1.96s-1.96-.88-1.96-1.96.88-1.96,1.96-1.96,1.96.88,1.96,1.96Z" style="fill: #dfb8ef; opacity: .47; stroke-width: 0px;"/>
            <path d="M64.53,53.11c0,.62-.5,1.12-1.12,1.12s-1.12-.5-1.12-1.12.5-1.12,1.12-1.12,1.12.5,1.12,1.12Z" style="fill: #efdbf7; opacity: .58; stroke-width: 0px;"/>
            <path d="M63.69,53.15c0,.15-.12.27-.27.27s-.27-.12-.27-.27.12-.27.27-.27.27.12.27.27Z" style="fill: #fff; opacity: .7; stroke-width: 0px;"/>
          </g>
          <g style="mix-blend-mode: overlay; opacity: .8;">
            <path d="M19.99,42.17c0,3.66-2.96,6.62-6.62,6.62s-6.62-2.96-6.62-6.62,2.97-6.62,6.62-6.62,6.62,2.96,6.62,6.62Z" style="fill: #b839e3; opacity: 0; stroke-width: 0px;"/>
            <path d="M18.95,42.22c0,3.08-2.5,5.57-5.57,5.57s-5.58-2.5-5.58-5.57,2.5-5.58,5.58-5.58,5.57,2.5,5.57,5.58Z" style="fill: #c45ae8; opacity: .12; stroke-width: 0px;"/>
            <path d="M17.9,42.28c0,2.5-2.03,4.53-4.53,4.53s-4.53-2.03-4.53-4.53,2.03-4.53,4.53-4.53,4.53,2.03,4.53,4.53Z" style="fill: #d07bec; opacity: .23; stroke-width: 0px;"/>
            <path d="M16.85,42.33c0,1.92-1.56,3.48-3.48,3.48s-3.48-1.56-3.48-3.48,1.56-3.48,3.48-3.48,3.48,1.56,3.48,3.48Z" style="fill: #dc9cf1; opacity: .35; stroke-width: 0px;"/>
            <path d="M15.81,42.39c0,1.34-1.09,2.43-2.43,2.43s-2.43-1.09-2.43-2.43,1.09-2.43,2.43-2.43,2.43,1.09,2.43,2.43Z" style="fill: #e7bdf6; opacity: .47; stroke-width: 0px;"/>
            <path d="M14.76,42.45c0,.76-.62,1.38-1.38,1.38s-1.39-.62-1.39-1.38.62-1.39,1.39-1.39,1.38.62,1.38,1.39Z" style="fill: #f3defa; opacity: .58; stroke-width: 0px;"/>
            <path d="M13.71,42.5c0,.19-.15.34-.34.34s-.34-.15-.34-.34.15-.34.34-.34.34.15.34.34Z" style="fill: #fff; opacity: .7; stroke-width: 0px;"/>
          </g>
          <g>
            <g style="opacity: .1;">
              <polygon points="41.17 78.63 72.99 60.14 49.98 46.78 18.15 65.28 41.17 78.63" style="fill: #000; stroke-width: 0px;"/>
            </g>
            <g>
              <polygon points="40.46 74.34 64.69 60.26 47.92 50.53 23.69 64.61 40.46 74.34" style="fill: #ca4d6d; stroke-width: 0px;"/>
              <g style="isolation: isolate;">
                <g style="clip-path: url(#clippath-1);">
                  <g style="isolation: isolate;">
                    <path d="M40.6,74.41l24.23-14.08s-.09-.04-.13-.07l-24.23,14.08s.09.05.14.06h0Z" style="fill: #bc4766; stroke-width: 0px;"/>
                  </g>
                </g>
              </g>
              <g style="isolation: isolate;">
                <g style="clip-path: url(#clippath-2);">
                  <g style="isolation: isolate;">
                    <polygon points="41.19 74.42 65.42 60.33 65.42 60.34 41.18 74.42 41.19 74.42 41.19 74.42" style="fill: #92374f; stroke-width: 0px;"/>
                    <path d="M41.18,74.42l24.23-14.08s-.03.02-.05.02l-24.23,14.08s.03-.01.05-.02h0Z" style="fill: #963951; stroke-width: 0px;"/>
                    <path d="M41.14,74.44l24.23-14.08s-.03.01-.05.02l-24.23,14.08s.03,0,.05-.02h0Z" style="fill: #9b3b54; stroke-width: 0px;"/>
                    <path d="M41.09,74.46l24.23-14.08s-.04,0-.05.01l-24.23,14.08s.04,0,.06-.01h0Z" style="fill: #a03d56; stroke-width: 0px;"/>
                    <path d="M41.03,74.47l24.23-14.08s-.04,0-.06,0l-24.23,14.08s.04,0,.06,0h0Z" style="fill: #a53e59; stroke-width: 0px;"/>
                    <path d="M40.97,74.48l24.23-14.08s-.04,0-.07,0l-24.23,14.08s.04,0,.07,0h0Z" style="fill: #a9405b; stroke-width: 0px;"/>
                    <path d="M40.91,74.48l24.23-14.08s-.05,0-.08,0l-24.23,14.08s.05,0,.08,0h0Z" style="fill: #ae425e; stroke-width: 0px;"/>
                    <path d="M40.82,74.47l24.23-14.08s-.07-.01-.1-.02l-24.23,14.08s.06.01.1.02h0Z" style="fill: #b34461; stroke-width: 0px;"/>
                    <path d="M40.73,74.45l24.23-14.08s-.09-.03-.13-.05l-24.23,14.08s.09.04.13.05h0Z" style="fill: #b74563; stroke-width: 0px;"/>
                    <path d="M40.6,74.41l24.23-14.08s-.09-.04-.13-.07l-24.23,14.08s.09.05.14.06h0Z" style="fill: #bc4766; stroke-width: 0px;"/>
                  </g>
                </g>
              </g>
              <polygon points="40.44 72.36 64.68 58.28 47.93 48.57 40.44 72.36" style="fill: #dbdbdb; stroke-width: 0px;"/>
              <g style="isolation: isolate;">
                <g style="clip-path: url(#clippath-3);">
                  <g style="isolation: isolate;">
                    <path d="M41.19,74.41l24.23-14.08c.15-.09.24-.25.24-.49l-24.23,14.08c0,.24-.09.41-.24.49h0Z" style="fill: #858585; stroke-width: 0px;"/>
                  </g>
                </g>
              </g>
              <g style="isolation: isolate;">
                <g style="clip-path: url(#clippath-4);">
                  <g style="isolation: isolate;">
                    <path d="M41.43,73.92l24.23-14.08s0-.1,0-.15l-24.23,14.08s.01.1.01.15h0Z" style="fill: #858585; stroke-width: 0px;"/>
                    <path d="M41.42,73.77l24.23-14.08s-.01-.07-.02-.11l-24.23,14.08s.02.07.02.11h0Z" style="fill: #8a8a8a; stroke-width: 0px;"/>
                    <path d="M41.4,73.67l24.23-14.08s-.01-.06-.02-.09l-24.23,14.08s.02.06.02.09h0Z" style="fill: #8f8f8f; stroke-width: 0px;"/>
                    <path d="M41.38,73.58l24.23-14.08s-.02-.05-.03-.08l-24.23,14.08s.02.05.02.08h0Z" style="fill: #949494; stroke-width: 0px;"/>
                    <path d="M41.35,73.5l24.23-14.08s-.02-.05-.03-.08l-24.23,14.08s.02.05.03.08h0Z" style="fill: #999; stroke-width: 0px;"/>
                    <path d="M41.33,73.42l24.23-14.08s-.02-.05-.03-.07l-24.23,14.08s.02.05.03.07h0Z" style="fill: #9e9e9e; stroke-width: 0px;"/>
                    <path d="M41.3,73.35l24.23-14.08s-.02-.05-.03-.07l-24.23,14.08s.02.05.03.08h0Z" style="fill: #a3a3a3; stroke-width: 0px;"/>
                    <path d="M41.26,73.28l24.23-14.08s-.02-.05-.04-.07l-24.23,14.08s.03.05.04.07h0Z" style="fill: #a8a8a8; stroke-width: 0px;"/>
                    <path d="M41.23,73.2l24.23-14.08s-.03-.05-.04-.08l-24.23,14.08s.03.05.04.08h0Z" style="fill: #adadad; stroke-width: 0px;"/>
                    <path d="M41.18,73.13l24.23-14.08s-.03-.05-.05-.08l-24.23,14.08s.03.05.05.08h0Z" style="fill: #b3b3b3; stroke-width: 0px;"/>
                    <path d="M41.14,73.05l24.23-14.08s-.04-.05-.05-.08l-24.23,14.08s.04.05.06.08h0Z" style="fill: #b8b8b8; stroke-width: 0px;"/>
                    <path d="M41.08,72.97l24.23-14.08s-.05-.06-.07-.09l-24.23,14.08s.05.06.07.09h0Z" style="fill: #bdbdbd; stroke-width: 0px;"/>
                    <path d="M41.01,72.88l24.23-14.08s-.05-.07-.08-.1l-24.23,14.08s.06.07.08.1h0Z" style="fill: #c2c2c2; stroke-width: 0px;"/>
                    <path d="M40.93,72.78l24.23-14.08s-.08-.08-.11-.12l-24.23,14.08s.08.08.12.12h0Z" style="fill: #c7c7c7; stroke-width: 0px;"/>
                    <path d="M40.82,72.66l24.23-14.08c-.11-.11-.24-.21-.37-.29l-24.23,14.08c.13.08.26.18.37.29h0Z" style="fill: #ccc; stroke-width: 0px;"/>
                  </g>
                </g>
              </g>
              <path d="M23.71,61.32v1.25l16.74,9.79c.55.32.99,1.01.98,1.56,0,.53-.43.72-.97.42l-16.77-9.73v1.12s17.52,10.17,17.52,10.17c.78.45,1.42.19,1.42-.58v-1.61c.01-.77-.62-1.77-1.4-2.22l-17.52-10.17Z" style="fill: #28dbb9; stroke-width: 0px;"/>
              <path d="M42.63,73.68v1.23c0,.77-.64,1.03-1.43.58l-17.52-10.17v-.72s16.77,9.73,16.77,9.73c.53.3.96.11.97-.42,0-.54-.44-1.24-.98-1.56l-16.74-9.79v-1.25l17.52,10.17c.78.45,1.4,1.43,1.41,2.2Z" style="fill: #21c1a5; stroke-width: 0px;"/>
              <path d="M24.17,64.33l-.48.28,16.74,9.72c.56.31.99.13.99-.41,0-.54-.44-1.24-.98-1.56l-16.28-8.03Z" style="fill: #147866; stroke-width: 0px;"/>
              <path d="M40.44,72.36c.45.26.82.77.94,1.25-.12.33-.49.41-.95.16l-16.49-9.31v-1.75l16.5,9.66Z" style="fill: #fff; stroke-width: 0px;"/>
              <polygon points="41.23 71.49 65.46 57.4 47.94 47.24 23.71 61.32 41.23 71.49" style="fill: #1dad93; stroke-width: 0px;"/>
              <polygon points="44.2 65 57.62 57.2 47.92 51.57 34.5 59.37 44.2 65" style="fill: #30c4a8; stroke-width: 0px;"/>
              <path d="M42.63,75.32v-1.61c0-.06,0-.12,0-.18,0-.02,0-.05,0-.07,0-.03,0-.05-.01-.08,0-.03-.01-.06-.02-.09,0-.02,0-.03-.01-.05-.01-.05-.03-.09-.04-.14,0,0,0-.01,0-.02-.01-.04-.03-.08-.05-.12,0-.01,0-.02-.01-.03-.02-.05-.04-.09-.06-.14,0,0,0,0,0-.01-.02-.04-.04-.08-.07-.13,0-.01-.01-.02-.02-.03-.02-.04-.04-.08-.07-.12,0,0,0-.01-.01-.02-.03-.05-.06-.09-.09-.14-.01-.01-.02-.03-.03-.05-.02-.03-.04-.06-.07-.09-.02-.03-.04-.05-.06-.08-.02-.02-.03-.04-.05-.06-.05-.05-.1-.11-.15-.16-.02-.02-.05-.04-.07-.07-.02-.02-.04-.04-.06-.05-.03-.02-.05-.05-.08-.07-.02-.02-.04-.03-.05-.05-.03-.02-.06-.04-.09-.07-.02-.01-.03-.02-.05-.03-.05-.03-.09-.06-.14-.09l24.23-14.08s.1.06.14.09c.01,0,.03.02.04.03.03.02.06.05.09.07.02.01.03.03.05.04.03.02.06.05.08.07.02.01.03.03.05.05.02.02.04.04.07.06,0,0,0,0,0,0,.05.05.1.1.15.16,0,0,0,0,.01.01.01.02.03.03.04.05.02.02.04.05.06.07,0,0,0,.01.01.02.02.02.04.05.05.07.01.01.02.03.03.04,0,0,0,0,0,.01.03.04.05.08.08.12,0,0,0,0,0,0,0,0,0,.02.01.02.02.03.03.05.05.08,0,.01.01.02.02.03,0,.01.01.03.02.04,0,.01.01.02.02.04.01.03.03.06.05.09,0,0,0,0,0,0,0,0,0,0,0,0,.02.04.03.07.05.1,0,.01,0,.02.01.03,0,.01,0,.02.01.04,0,.01,0,.03.02.04,0,.03.02.05.03.08,0,0,0,.01,0,.02,0,0,0,0,0,0,.01.04.02.08.03.11,0,0,0,.01,0,.02,0,.02,0,.03.01.05,0,.02.01.04.02.06,0,.01,0,.02,0,.03,0,.03,0,.05.01.08,0,.02,0,.03,0,.05,0,0,0,.01,0,.02,0,.06.01.12.01.18v1.61c-.01.35-.14.59-.35.71-8.08,4.7-16.15,9.39-24.23,14.08.21-.12.34-.36.34-.71Z" style="fill: #15846f; stroke-width: 0px;"/>
              <path d="M61.55,62.82c0-.06,0-.13-.01-.19,0,0,0-.01,0-.02,0-.02,0-.03,0-.05,0-.03,0-.05-.01-.08,0-.01,0-.02,0-.03,0-.02,0-.04-.02-.06,0-.02,0-.03-.01-.05,0,0,0-.01,0-.02-.01-.04-.02-.08-.04-.12,0,0,0,0,0,0,0,0,0-.01,0-.02-.01-.03-.02-.06-.03-.08,0-.02-.01-.03-.02-.04,0-.01-.01-.02-.02-.04,0,0,0-.02-.01-.03-.02-.04-.03-.07-.05-.11,0,0,0,0,0,0,0,0,0,0,0,0-.02-.03-.03-.06-.05-.1,0-.01-.02-.02-.02-.04,0-.01-.01-.03-.02-.04,0-.01-.01-.02-.02-.03-.02-.03-.03-.06-.05-.08,0,0-.01-.02-.01-.02,0,0,0,0,0,0-.02-.04-.05-.08-.08-.12,0,0,0,0,0-.01-.01-.01-.02-.03-.03-.05-.02-.02-.04-.05-.05-.08,0,0,0-.01-.01-.02-.02-.03-.04-.05-.06-.08-.01-.02-.03-.04-.05-.05,0,0,0,0-.01-.01-.05-.05-.1-.11-.15-.16,0,0,0,0,0,0-.02-.02-.05-.04-.07-.07-.02-.02-.03-.03-.05-.05-.03-.03-.06-.05-.09-.07-.02-.01-.03-.03-.05-.04-.03-.03-.07-.05-.1-.07-.02-.01-.03-.02-.05-.03-.05-.03-.09-.06-.14-.09l.78-.47s.09.05.14.09c.02,0,.03.02.05.03.03.02.07.05.1.07.02.01.03.03.05.04.03.02.06.05.09.07.02.02.04.03.05.05.02.02.05.04.07.07,0,0,0,0,0,0,.05.05.1.11.15.16,0,0,0,0,.01.01.02.02.03.04.04.05.02.03.04.05.06.08,0,0,0,.01.01.02.02.02.04.05.05.07.01.02.02.03.03.05,0,0,0,0,0,.01.03.04.06.08.08.12,0,0,0,0,0,0,0,0,.01.02.02.02.02.03.03.05.05.08,0,.01.01.02.02.03,0,.01.01.03.02.04,0,.01.01.03.02.04.02.03.03.06.05.09,0,0,0,0,0,.01,0,0,0,0,0,0,.02.04.03.07.05.11,0,0,0,.02.01.03,0,.01,0,.03.02.04,0,.01,0,.03.02.04,0,.03.02.06.03.08,0,0,0,.01,0,.02,0,0,0,0,0,0,.01.04.02.08.03.12,0,0,0,.01,0,.02,0,.02,0,.03,0,.05,0,.02.01.04.02.06,0,.01,0,.02,0,.03,0,.03,0,.05.01.08,0,.02,0,.03,0,.05,0,0,0,.01,0,.02,0,.06.01.13.01.19v1.66c0,.16-.04.3-.09.42-.26.15-.52.3-.78.45.05-.11.08-.24.08-.4v-1.66Z" style="fill: #147866; stroke-width: 0px;"/>
              <path d="M59.37,64.08c0-.06,0-.13-.01-.19,0,0,0-.01,0-.02,0-.02,0-.03,0-.05,0-.03,0-.05-.01-.08,0-.01,0-.02,0-.03,0-.02,0-.04-.02-.06,0-.02,0-.03-.01-.05,0,0,0-.01,0-.02-.01-.04-.02-.08-.04-.12,0,0,0,0,0,0,0,0,0-.01,0-.02-.01-.03-.02-.06-.03-.09,0-.01-.01-.03-.02-.04,0-.01,0-.02-.02-.04,0-.01,0-.02-.01-.03-.02-.04-.03-.07-.05-.11,0,0,0,0,0,0,0,0,0,0,0,0-.02-.03-.03-.06-.05-.09,0-.01-.01-.03-.02-.04,0-.01-.01-.03-.02-.04,0-.01-.01-.02-.02-.04-.02-.03-.03-.06-.05-.08,0,0-.01-.02-.01-.02,0,0,0,0,0,0-.02-.04-.05-.08-.08-.12,0,0,0,0,0-.01-.01-.02-.02-.03-.03-.05-.02-.02-.04-.05-.05-.07,0,0,0-.01-.01-.02-.02-.03-.04-.05-.06-.08-.02-.02-.03-.04-.05-.05,0,0,0,0,0-.01-.05-.05-.1-.11-.15-.16,0,0,0,0,0,0-.02-.02-.05-.04-.07-.07-.02-.02-.03-.03-.05-.05-.03-.03-.06-.05-.09-.07-.02-.01-.03-.03-.05-.04-.03-.03-.07-.05-.1-.07-.02-.01-.03-.02-.05-.03-.05-.03-.09-.06-.14-.09l.78-.47s.09.06.14.09c.01,0,.03.02.05.03.03.02.07.05.1.07.02.01.03.03.05.04.03.02.06.05.09.07.02.01.03.03.05.05.02.02.05.04.07.07,0,0,0,0,0,0,.05.05.1.11.15.16,0,0,0,0,.01.01.02.02.03.03.05.05.02.02.04.05.06.08,0,0,0,.01.01.02.02.03.04.05.05.08.01.01.02.03.03.05,0,0,0,0,0,.01.03.04.05.08.08.12,0,0,0,0,0,0,0,0,0,.02.01.03.02.03.03.06.05.08,0,.01.01.02.02.03,0,.01.01.03.02.04,0,.01.01.03.02.04.02.03.03.06.05.09,0,0,0,0,0,0,0,0,0,0,0,0,.02.04.03.07.05.11,0,.01,0,.02.01.03,0,.01,0,.03.02.04,0,.01,0,.03.02.04,0,.03.02.06.03.08,0,0,0,.01,0,.02,0,0,0,0,0,0,.01.04.02.08.04.12,0,0,0,.01,0,.02,0,.01,0,.03.01.05,0,.02.01.04.02.06,0,.01,0,.02,0,.03,0,.03,0,.05.01.08,0,.02,0,.03,0,.05,0,0,0,.01,0,.02,0,.06.01.13.01.19v1.66c0,.16-.04.3-.09.42-.26.15-.52.3-.78.45.05-.11.08-.24.08-.4v-1.66Z" style="fill: #147866; stroke-width: 0px;"/>
              <path d="M57.31,65.28c0-.06,0-.13-.01-.19,0,0,0-.01,0-.02,0-.02,0-.03,0-.05,0-.03,0-.05-.01-.08,0-.01,0-.02,0-.03,0-.02-.01-.04-.02-.06,0-.02,0-.03-.01-.05,0,0,0-.01,0-.02-.01-.04-.02-.08-.04-.12,0,0,0,0,0,0,0,0,0-.01,0-.02,0-.03-.02-.06-.03-.08,0-.02-.01-.03-.02-.04,0-.01,0-.02-.01-.04,0-.01,0-.02-.01-.03-.02-.03-.03-.07-.05-.11,0,0,0,0,0,0,0,0,0,0,0-.01-.01-.03-.03-.06-.05-.09,0-.01-.02-.02-.02-.04,0-.01-.01-.03-.02-.04,0-.01-.01-.02-.02-.03-.02-.03-.03-.06-.05-.08,0,0-.01-.02-.02-.03,0,0,0,0,0,0-.03-.04-.05-.08-.08-.12,0,0,0,0,0-.01-.01-.01-.02-.03-.03-.05-.02-.02-.04-.05-.05-.08,0,0,0-.01-.01-.02-.02-.03-.04-.05-.07-.08-.02-.02-.03-.04-.04-.05,0,0,0,0-.01-.01-.05-.05-.1-.11-.15-.16,0,0,0,0,0,0-.02-.02-.05-.04-.07-.07-.02-.02-.03-.03-.05-.05-.03-.03-.06-.05-.09-.07-.01-.01-.03-.03-.05-.04-.03-.03-.07-.05-.1-.07-.02,0-.03-.02-.05-.03-.04-.03-.09-.06-.14-.09l.78-.47s.09.05.14.09c.02,0,.03.02.05.03.03.02.07.05.1.07.02.01.03.03.05.04.03.02.06.05.09.07.02.02.03.03.05.05.02.02.05.04.07.07,0,0,0,0,0,0,.05.05.1.11.15.16,0,0,0,0,.01.01.02.02.03.04.05.05.02.02.04.05.06.08,0,0,0,.01.01.02.02.02.04.05.05.08.01.02.02.03.04.05,0,0,0,0,0,.01.03.04.06.08.08.12,0,0,0,0,0,0,0,0,0,.02.01.03.02.03.04.05.05.08,0,.01.01.02.02.03,0,.01.01.03.02.04,0,.01.01.03.02.04.02.03.03.06.05.09,0,0,0,0,0,.01,0,0,0,0,0,0,.02.04.03.07.05.11,0,.01,0,.02.01.03,0,.01,0,.02.01.04,0,.01.01.03.02.04,0,.03.02.06.03.08,0,0,0,.01,0,.02,0,0,0,0,0,0,.01.04.03.08.04.12,0,0,0,.01,0,.02,0,.02,0,.03.01.05,0,.02.01.04.02.06,0,0,0,.02,0,.03,0,.03,0,.05.01.08,0,.02,0,.03,0,.05,0,0,0,.01,0,.02,0,.06.01.13.01.19v1.66c0,.16-.04.3-.09.42-.26.15-.52.3-.78.45.05-.11.08-.24.08-.4v-1.66Z" style="fill: #147866; stroke-width: 0px;"/>
              <path d="M47.34,71.07c0-.06,0-.13-.01-.19,0,0,0-.01,0-.02,0-.02,0-.03,0-.05,0-.03,0-.05-.01-.08,0-.01,0-.02,0-.03,0-.02,0-.04-.02-.06,0-.02,0-.03-.01-.05,0,0,0-.01,0-.02-.01-.04-.02-.08-.04-.12,0,0,0,0,0,0,0,0,0-.01,0-.02,0-.03-.02-.06-.03-.08,0-.01-.01-.03-.02-.04,0-.01-.01-.03-.01-.04,0-.01,0-.02-.01-.03-.01-.04-.03-.07-.05-.11,0,0,0,0,0,0,0,0,0,0,0,0-.02-.03-.03-.06-.05-.09,0-.01-.02-.03-.02-.04,0-.01-.01-.03-.02-.04,0-.01-.01-.02-.02-.03-.02-.03-.03-.06-.05-.08,0,0-.01-.02-.02-.03,0,0,0,0,0,0-.02-.04-.05-.08-.08-.12,0,0,0,0,0-.01-.01-.02-.02-.03-.03-.05-.02-.02-.04-.05-.05-.07,0,0,0-.01-.01-.02-.02-.03-.04-.05-.06-.08-.01-.02-.03-.04-.04-.05,0,0,0,0-.01-.01-.05-.06-.1-.11-.15-.16,0,0,0,0,0,0-.02-.02-.05-.04-.07-.06-.02-.02-.03-.03-.05-.05-.03-.02-.06-.05-.09-.07-.02-.01-.03-.03-.05-.04-.03-.03-.07-.05-.1-.07-.02-.01-.03-.02-.05-.03-.04-.03-.09-.06-.14-.09l.78-.47s.09.06.13.09c.02,0,.03.02.05.03.03.02.07.05.1.07.02.01.03.03.05.04.03.02.06.05.09.07.02.02.03.03.05.05.02.02.05.04.07.07,0,0,0,0,0,0,.05.05.1.11.15.16,0,0,0,0,.01.01.02.02.03.04.04.05.02.02.04.05.07.08,0,0,0,.01.01.02.02.02.04.05.05.07.01.01.02.03.03.05,0,0,0,0,0,.01.03.04.05.08.08.12,0,0,0,0,0,0,0,0,0,.02.01.03.02.03.03.05.05.08,0,.01.01.02.02.03,0,.01.01.02.02.04,0,.01.01.03.02.04.02.03.03.06.05.09,0,0,0,0,0,0,0,0,0,0,0,0,.02.04.03.07.05.11,0,.01,0,.02.01.03,0,.01,0,.03.02.04,0,.01.01.03.02.04,0,.03.02.06.03.08,0,0,0,.01,0,.02,0,0,0,0,0,0,.01.04.02.08.04.12,0,0,0,.01,0,.02,0,.02,0,.03.01.05,0,.02.01.04.02.06,0,.01,0,.02,0,.03,0,.03,0,.05.01.08,0,.02,0,.03,0,.05,0,0,0,.01,0,.02,0,.06.01.13.01.19v1.66c0,.16-.04.3-.09.42-.26.15-.52.3-.77.45.05-.11.08-.24.08-.4v-1.66Z" style="fill: #147866; stroke-width: 0px;"/>
              <path d="M45.28,72.27c0-.06,0-.13-.01-.19,0,0,0-.01,0-.02,0-.01,0-.03,0-.05,0-.03,0-.05-.01-.08,0-.01,0-.02,0-.03,0-.02-.01-.04-.02-.06,0-.02,0-.03-.01-.05,0,0,0-.01,0-.02-.01-.04-.02-.08-.04-.12,0,0,0,0,0,0,0,0,0-.01,0-.02-.01-.03-.02-.06-.03-.08,0-.01-.01-.03-.02-.04,0-.01-.01-.02-.01-.04,0,0,0-.02-.01-.03-.02-.04-.03-.07-.05-.11,0,0,0,0,0,0,0,0,0,0,0-.01-.02-.03-.03-.06-.05-.09,0-.01-.02-.02-.02-.04,0-.01-.01-.03-.02-.04,0-.01-.01-.02-.02-.03-.02-.03-.03-.06-.05-.08,0,0,0-.02-.02-.02,0,0,0,0,0,0-.02-.04-.05-.08-.08-.12,0,0,0,0,0-.01-.01-.01-.02-.03-.03-.05-.02-.02-.04-.05-.05-.08,0,0-.01-.01-.01-.02-.02-.03-.04-.05-.06-.08-.02-.02-.03-.04-.05-.05,0,0,0,0-.01-.01-.05-.05-.1-.11-.15-.16,0,0,0,0,0,0-.02-.02-.05-.04-.07-.07-.02-.02-.03-.03-.05-.05-.03-.03-.06-.05-.09-.07-.02-.01-.03-.03-.05-.04-.03-.02-.07-.05-.1-.07-.02-.01-.03-.02-.04-.03-.05-.03-.09-.06-.14-.09l.78-.47s.09.05.14.09c.02,0,.03.02.04.03.03.02.07.05.1.07.02.01.03.03.05.04.03.02.06.05.09.07.02.02.03.03.05.05.02.02.05.04.07.07,0,0,0,0,0,0,.05.05.1.11.15.16,0,0,0,0,.01.01.02.02.03.04.05.05.02.02.04.05.06.08,0,0,0,.01.01.02.02.02.04.05.05.07.01.02.02.03.03.05,0,0,0,0,0,.01.03.04.06.08.08.12,0,0,0,0,0,0,0,0,.01.02.02.03.02.03.03.05.05.08,0,.01.01.02.02.03,0,.01.01.03.02.04,0,.01.01.03.02.04.02.03.03.06.05.09,0,0,0,0,0,.01,0,0,0,0,0,0,.02.04.03.07.05.11,0,0,0,.02.01.03,0,.01,0,.02.01.04,0,.01.01.03.02.04,0,.03.02.06.03.08,0,0,0,.01,0,.02,0,0,0,0,0,0,.01.04.02.08.04.12,0,0,0,.01,0,.02,0,.02,0,.03.01.05,0,.02.01.04.02.06,0,0,0,.02,0,.03,0,.03,0,.05.01.08,0,.02,0,.03,0,.05,0,0,0,.01,0,.02,0,.06.01.13.01.19v1.66c0,.16-.04.3-.09.42-.26.15-.52.3-.78.45.05-.11.08-.24.08-.4v-1.66Z" style="fill: #147866; stroke-width: 0px;"/>
              <polygon points="23.94 63.22 37.81 71.36 23.94 63.72 23.94 63.22" style="fill: #d6d6f2; stroke-width: 0px;"/>
              <polygon points="40.47 73.17 32.06 68.72 40.47 73.45 40.47 73.17" style="fill: #d6d6f2; stroke-width: 0px;"/>
              <path d="M29.86,66.98s-.98.39-.93,1.33c.05.94-.19,1.6-.71,1.9l-.11-.66-.74.27s.63-1.17.58-1.98c-.06-.81.6-1.6.77-1.5l1.15.63Z" style="fill: #ffc000; stroke-width: 0px;"/>
              <path d="M29.86,66.98s-.98.39-.93,1.33c.05.94-.19,1.6-.71,1.9l-.11-.66-.74.27s.63-1.17.58-1.98c-.06-.81.6-1.6.77-1.5l1.15.63Z" style="fill: #ffc000; stroke-width: 0px;"/>
              <path d="M28.93,68.31c.05.94-.19,1.6-.71,1.9l-.11-.66c.08-2.72,1.13-2.91,1.13-2.91h0l.62.34s-.98.39-.93,1.33Z" style="fill: #ff9c00; stroke-width: 0px;"/>
            </g>
            <g>
              <polygon points="39.02 68.13 63.26 54.04 46.48 44.31 22.25 58.39 39.02 68.13" style="fill: #ca4d6d; stroke-width: 0px;"/>
              <g style="isolation: isolate;">
                <g style="clip-path: url(#clippath-5);">
                  <g style="isolation: isolate;">
                    <path d="M39.16,68.19l24.23-14.08s-.09-.04-.13-.07l-24.23,14.08s.09.05.14.06h0Z" style="fill: #bc4766; stroke-width: 0px;"/>
                  </g>
                </g>
              </g>
              <g style="isolation: isolate;">
                <g style="clip-path: url(#clippath-6);">
                  <g style="isolation: isolate;">
                    <polygon points="39.75 68.2 63.98 54.12 63.98 54.12 39.75 68.21 39.75 68.2 39.75 68.2" style="fill: #92374f; stroke-width: 0px;"/>
                    <path d="M39.75,68.21l24.23-14.08s-.03.02-.05.02l-24.23,14.08s.03-.01.05-.02h0Z" style="fill: #963951; stroke-width: 0px;"/>
                    <path d="M39.7,68.23l24.23-14.08s-.03.01-.05.02l-24.23,14.08s.03,0,.05-.02h0Z" style="fill: #9b3b54; stroke-width: 0px;"/>
                    <path d="M39.65,68.25l24.23-14.08s-.03,0-.05.01l-24.23,14.08s.04,0,.06-.01h0Z" style="fill: #a03d56; stroke-width: 0px;"/>
                    <path d="M39.6,68.26l24.23-14.08s-.04,0-.06,0l-24.23,14.08s.04,0,.06,0h0Z" style="fill: #a53e59; stroke-width: 0px;"/>
                    <path d="M39.54,68.27l24.23-14.08s-.04,0-.07,0l-24.23,14.08s.05,0,.07,0h0Z" style="fill: #a9405b; stroke-width: 0px;"/>
                    <path d="M39.47,68.27l24.23-14.08s-.05,0-.08,0l-24.23,14.08s.05,0,.08,0h0Z" style="fill: #ae425e; stroke-width: 0px;"/>
                    <path d="M39.39,68.26l24.23-14.08s-.06-.01-.1-.02l-24.23,14.08s.06.02.1.02h0Z" style="fill: #b34461; stroke-width: 0px;"/>
                    <path d="M39.29,68.24l24.23-14.08s-.09-.03-.13-.04l-24.23,14.08s.09.03.13.05h0Z" style="fill: #b74563; stroke-width: 0px;"/>
                    <path d="M39.16,68.19l24.23-14.08s-.09-.04-.13-.07l-24.23,14.08s.09.05.14.06h0Z" style="fill: #bc4766; stroke-width: 0px;"/>
                  </g>
                </g>
              </g>
              <polygon points="39.01 66.15 63.24 52.07 46.49 42.35 39.01 66.15" style="fill: #dbdbdb; stroke-width: 0px;"/>
              <g style="isolation: isolate;">
                <g style="clip-path: url(#clippath-7);">
                  <g style="isolation: isolate;">
                    <path d="M39.75,68.2l24.23-14.08c.15-.08.24-.25.24-.49l-24.23,14.08c0,.24-.09.41-.24.49h0Z" style="fill: #858585; stroke-width: 0px;"/>
                  </g>
                </g>
              </g>
              <g style="isolation: isolate;">
                <g style="clip-path: url(#clippath-8);">
                  <g style="isolation: isolate;">
                    <path d="M39.99,67.71l24.23-14.08s0-.1,0-.15l-24.23,14.08s.01.1.01.15h0Z" style="fill: #858585; stroke-width: 0px;"/>
                    <path d="M39.98,67.56l24.23-14.08s-.01-.07-.02-.11l-24.23,14.08s.02.07.02.11h0Z" style="fill: #8a8a8a; stroke-width: 0px;"/>
                    <path d="M39.96,67.45l24.23-14.08s-.01-.06-.02-.09l-24.23,14.08s.01.06.02.09h0Z" style="fill: #8f8f8f; stroke-width: 0px;"/>
                    <path d="M39.94,67.36l24.23-14.08s-.02-.05-.03-.08l-24.23,14.08s.02.05.02.08h0Z" style="fill: #949494; stroke-width: 0px;"/>
                    <path d="M39.92,67.28l24.23-14.08s-.01-.05-.02-.08l-24.23,14.08s.02.05.03.08h0Z" style="fill: #999; stroke-width: 0px;"/>
                    <path d="M39.89,67.21l24.23-14.08s-.02-.05-.03-.07l-24.23,14.08s.02.05.03.07h0Z" style="fill: #9e9e9e; stroke-width: 0px;"/>
                    <path d="M39.86,67.14l24.23-14.08s-.02-.05-.03-.07l-24.23,14.08s.02.05.03.07h0Z" style="fill: #a3a3a3; stroke-width: 0px;"/>
                    <path d="M39.83,67.06l24.23-14.08s-.02-.05-.04-.07l-24.23,14.08s.03.05.04.07h0Z" style="fill: #a8a8a8; stroke-width: 0px;"/>
                    <path d="M39.79,66.99l24.23-14.08s-.03-.05-.04-.08l-24.23,14.08s.03.05.04.08h0Z" style="fill: #adadad; stroke-width: 0px;"/>
                    <path d="M39.75,66.91l24.23-14.08s-.03-.05-.05-.08l-24.23,14.08s.03.05.05.08h0Z" style="fill: #b3b3b3; stroke-width: 0px;"/>
                    <path d="M39.7,66.84l24.23-14.08s-.04-.05-.05-.08l-24.23,14.08s.04.05.06.08h0Z" style="fill: #b8b8b8; stroke-width: 0px;"/>
                    <path d="M39.64,66.75l24.23-14.08s-.05-.06-.07-.09l-24.23,14.08s.05.06.07.09h0Z" style="fill: #bdbdbd; stroke-width: 0px;"/>
                    <path d="M39.58,66.66l24.23-14.08s-.05-.07-.08-.1l-24.23,14.08s.06.07.08.1h0Z" style="fill: #c2c2c2; stroke-width: 0px;"/>
                    <path d="M39.49,66.56l24.23-14.08s-.07-.08-.11-.12l-24.23,14.08s.08.08.11.12h0Z" style="fill: #c7c7c7; stroke-width: 0px;"/>
                    <path d="M39.38,66.44l24.23-14.08c-.12-.11-.24-.21-.37-.29l-24.23,14.08c.13.08.26.18.37.29h0Z" style="fill: #ccc; stroke-width: 0px;"/>
                  </g>
                </g>
              </g>
              <path d="M22.27,55.11v1.25l16.74,9.79c.55.32.99,1.01.98,1.56,0,.53-.43.72-.97.42l-16.77-9.73v1.12s17.52,10.17,17.52,10.17c.78.45,1.42.19,1.42-.58v-1.61c.01-.77-.62-1.77-1.4-2.22l-17.52-10.17Z" style="fill: #ffc000; stroke-width: 0px;"/>
              <path d="M41.19,67.47v1.23c0,.77-.64,1.03-1.43.58l-17.52-10.17v-.72s16.78,9.73,16.78,9.73c.53.29.96.11.97-.42,0-.54-.44-1.24-.98-1.56l-16.74-9.79v-1.25l17.52,10.17c.77.45,1.4,1.43,1.4,2.2Z" style="fill: #ffe422; stroke-width: 0px;"/>
              <path d="M22.73,58.12l-.48.28,16.74,9.72c.56.31.99.13,1-.41,0-.54-.44-1.24-.98-1.56l-16.28-8.03Z" style="fill: #ea7500; stroke-width: 0px;"/>
              <path d="M39.01,66.15c.45.26.82.77.94,1.24-.12.33-.49.41-.95.16l-16.49-9.31v-1.75l16.5,9.66Z" style="fill: #fff; stroke-width: 0px;"/>
              <polygon points="39.79 65.27 64.02 51.19 46.5 41.02 22.27 55.11 39.79 65.27" style="fill: #ffc000; stroke-width: 0px;"/>
              <polygon points="42.77 58.78 56.19 50.98 46.48 45.35 33.06 53.15 42.77 58.78" style="fill: #ffe422; stroke-width: 0px;"/>
              <path d="M41.19,69.1v-1.61c0-.06,0-.12,0-.18,0-.02,0-.05,0-.07,0-.03-.01-.05-.02-.08,0-.03-.01-.06-.02-.09,0-.02,0-.03-.01-.05-.01-.05-.03-.09-.04-.14,0,0,0-.01,0-.02-.01-.04-.03-.08-.05-.12,0-.01,0-.02-.01-.03-.02-.05-.04-.09-.06-.14,0,0,0,0,0-.01-.02-.04-.04-.08-.07-.13,0-.01-.01-.02-.02-.03-.02-.04-.04-.08-.07-.12,0,0,0-.01-.01-.02-.03-.05-.06-.09-.09-.13-.01-.02-.02-.03-.03-.05-.02-.03-.04-.06-.07-.09-.02-.03-.04-.05-.06-.08-.02-.02-.03-.04-.05-.06-.05-.05-.1-.11-.15-.16-.02-.02-.05-.04-.07-.07-.02-.02-.04-.04-.06-.05-.03-.02-.05-.04-.08-.07-.02-.02-.04-.03-.06-.05-.03-.02-.06-.04-.09-.07-.02-.01-.03-.02-.05-.03-.05-.03-.1-.06-.14-.09l24.23-14.08s.1.06.14.09c.02,0,.03.02.04.03.03.02.06.05.1.07.02.01.03.03.05.04.03.02.06.05.09.07.02.01.03.03.05.05.02.02.05.04.07.06,0,0,0,0,0,0,.05.05.1.1.15.16,0,0,0,0,.01.01.02.02.03.03.04.05.02.02.04.05.06.07,0,0,0,0,.01.02.02.02.04.05.05.07.01.01.02.03.03.04,0,0,0,0,0,.01.03.04.05.08.08.12,0,0,0,0,0,0,0,0,0,.02.02.02.02.03.03.05.05.08,0,.01.01.02.02.03,0,.01.01.03.02.04,0,.01.01.02.02.04.02.03.03.06.05.09,0,0,0,0,0,.01,0,0,0,0,0,0,.02.03.03.07.05.1,0,.01,0,.02.01.03,0,.01,0,.02.01.04,0,.01,0,.03.02.04,0,.03.02.05.03.08,0,0,0,.01,0,.02,0,0,0,0,0,0,.01.04.02.08.03.11,0,0,0,.01,0,.02,0,.02,0,.03,0,.05,0,.02.01.04.02.06,0,0,0,.02,0,.03,0,.03,0,.05.01.08,0,.02,0,.03,0,.05,0,0,0,.01,0,.02,0,.06,0,.12,0,.18v1.61c0,.35-.14.59-.35.71-8.08,4.7-16.15,9.39-24.23,14.08.21-.12.34-.36.34-.71Z" style="fill: #ff9c00; stroke-width: 0px;"/>
              <path d="M60.11,56.61c0-.06,0-.13-.01-.19,0,0,0-.01,0-.02,0-.02,0-.03,0-.05,0-.03,0-.05-.01-.08,0-.01,0-.02,0-.03,0-.02-.01-.04-.02-.06,0-.02,0-.03,0-.05,0,0,0-.01,0-.02-.01-.04-.02-.08-.04-.12,0,0,0,0,0,0,0,0,0-.01,0-.02,0-.03-.02-.06-.03-.08,0-.02-.01-.03-.02-.04,0-.01-.01-.03-.02-.04,0,0,0-.02-.01-.03-.02-.04-.03-.07-.05-.11,0,0,0,0,0,0,0,0,0,0,0-.01-.02-.03-.03-.06-.05-.09,0-.01-.01-.03-.02-.04,0-.01-.01-.03-.02-.04,0-.01-.01-.02-.02-.03-.02-.03-.03-.06-.05-.08,0,0-.01-.02-.01-.02,0,0,0,0,0,0-.02-.04-.05-.08-.08-.12,0,0,0,0,0-.01,0-.01-.02-.03-.03-.05-.02-.02-.04-.05-.05-.07,0,0-.01-.01-.01-.02-.02-.03-.04-.05-.06-.08-.01-.02-.03-.04-.05-.05,0,0,0,0,0-.01-.05-.05-.1-.11-.15-.16,0,0,0,0,0,0-.02-.02-.05-.04-.07-.07-.02-.02-.03-.03-.05-.05-.03-.03-.06-.05-.09-.07-.02-.01-.03-.03-.05-.04-.03-.03-.07-.05-.1-.07-.02-.01-.03-.02-.05-.03-.04-.03-.09-.06-.14-.09l.78-.47s.09.05.14.09c.02,0,.03.02.05.03.03.02.07.05.1.07.02.01.03.03.05.04.03.02.06.05.09.07.02.02.03.03.05.05.02.02.05.04.07.07,0,0,0,0,0,0,.05.05.1.11.15.16,0,0,0,0,0,.01.02.02.03.04.05.05.02.03.04.05.06.08,0,0,0,.01.01.02.02.02.04.05.05.07.01.02.02.03.03.05,0,0,0,0,0,.01.03.04.06.08.08.12,0,0,0,0,0,0,0,0,0,.02.01.02.02.03.03.05.05.08,0,.01.01.02.02.04,0,.01.01.03.02.04,0,.01.01.03.02.04.02.03.03.06.05.09,0,0,0,0,0,0,0,0,0,0,0,0,.02.04.03.07.05.11,0,0,0,.02.01.03,0,.01,0,.03.02.04,0,.01.01.03.02.04,0,.03.02.06.03.08,0,0,0,.01,0,.02,0,0,0,0,0,0,.01.04.02.08.03.12,0,0,0,.01,0,.02,0,.02,0,.03,0,.05,0,.02.01.04.02.06,0,.01,0,.02,0,.03,0,.03,0,.05.01.08,0,.02,0,.03,0,.05,0,0,0,.01,0,.02,0,.06.01.13.01.19v1.66c0,.16-.04.3-.09.42-.26.15-.52.3-.78.45.05-.11.08-.24.08-.4v-1.66Z" style="fill: #ea7500; stroke-width: 0px;"/>
              <path d="M57.94,57.87c0-.06,0-.13-.01-.19,0,0,0-.01,0-.02,0-.02,0-.03,0-.05,0-.03,0-.05-.01-.08,0-.01,0-.02,0-.03,0-.02-.01-.04-.02-.06,0-.02,0-.03,0-.05,0,0,0-.01,0-.02-.01-.04-.02-.08-.04-.12,0,0,0,0,0,0,0,0,0-.01,0-.02,0-.03-.02-.06-.03-.08,0-.01-.01-.03-.02-.04,0-.01-.01-.03-.01-.04,0-.01,0-.02-.01-.03-.02-.03-.03-.07-.05-.11,0,0,0,0,0,0,0,0,0,0,0,0-.01-.03-.03-.06-.05-.09,0-.01-.02-.03-.02-.04,0-.01-.01-.03-.02-.04,0-.01-.01-.02-.02-.03-.02-.03-.03-.06-.05-.08,0,0-.01-.02-.02-.03,0,0,0,0,0,0-.02-.04-.05-.08-.08-.12,0,0,0,0,0-.01-.01-.02-.02-.03-.03-.05-.02-.03-.04-.05-.05-.08,0,0-.01-.01-.01-.02-.02-.03-.04-.05-.06-.08-.02-.02-.03-.04-.05-.05,0,0,0,0-.01-.01-.05-.06-.1-.11-.15-.16,0,0,0,0,0,0-.02-.02-.05-.04-.07-.07-.02-.02-.03-.03-.05-.05-.03-.03-.06-.05-.09-.07-.02-.01-.03-.03-.05-.04-.03-.03-.07-.05-.1-.07-.02-.01-.03-.02-.05-.03-.04-.03-.09-.06-.14-.09l.78-.47s.09.06.14.09c.02,0,.03.02.05.03.03.02.07.05.1.07.02.01.03.03.05.04.03.02.06.05.09.07.02.01.04.03.05.05.02.02.05.04.07.07,0,0,0,0,0,0,.05.05.1.11.15.16,0,0,0,0,.01.01.02.02.03.03.04.05.02.02.04.05.06.08,0,0,0,.01.01.02.02.03.04.05.05.08.01.01.02.03.03.05,0,0,0,0,0,.01.03.04.06.08.08.12,0,0,0,0,0,0,0,0,.01.02.02.02.02.03.03.05.05.08,0,.01.01.02.02.03,0,.01.01.03.02.04,0,.01.01.02.02.04.02.03.03.06.05.09,0,0,0,0,0,.01,0,0,0,0,0,0,.02.04.03.07.05.11,0,.01,0,.02.01.03,0,.01,0,.03.01.04,0,.01.01.03.02.04,0,.03.02.06.03.08,0,0,0,.01,0,.02,0,0,0,0,0,0,.01.04.02.08.03.12,0,0,0,.01,0,.02,0,.01,0,.03,0,.05,0,.02.01.04.02.06,0,.01,0,.02,0,.03,0,.03,0,.05.01.08,0,.02,0,.03,0,.05,0,0,0,.01,0,.02,0,.06.01.13.01.19v1.66c0,.16-.04.3-.09.42-.26.15-.52.3-.78.45.05-.11.08-.24.08-.4v-1.66Z" style="fill: #ea7500; stroke-width: 0px;"/>
              <path d="M55.87,59.07c0-.06,0-.13-.01-.19,0,0,0-.01,0-.02,0-.02,0-.03,0-.05,0-.03,0-.05-.01-.08,0,0,0-.02,0-.03,0-.02,0-.04-.02-.06,0-.02,0-.03,0-.05,0,0,0-.01,0-.02-.01-.04-.02-.08-.04-.12,0,0,0,0,0,0,0,0,0-.01,0-.02,0-.03-.02-.06-.03-.08,0-.02-.01-.03-.02-.04,0-.01-.01-.02-.01-.04,0,0,0-.02-.01-.03-.02-.04-.03-.07-.05-.11,0,0,0,0,0,0,0,0,0,0,0-.01-.01-.03-.03-.06-.05-.09,0-.01-.01-.02-.02-.04,0-.01-.01-.03-.02-.04,0-.01-.01-.02-.02-.03-.02-.03-.03-.06-.05-.08,0,0,0-.02-.02-.03,0,0,0,0,0,0-.02-.04-.05-.08-.08-.12,0,0,0,0,0-.01-.01-.02-.02-.03-.03-.05-.02-.02-.04-.05-.05-.08,0,0-.01-.01-.01-.02-.02-.03-.04-.05-.06-.08-.01-.02-.03-.04-.04-.05,0,0,0,0-.01-.01-.05-.05-.1-.11-.15-.16,0,0,0,0,0,0-.02-.02-.05-.04-.07-.07-.02-.02-.03-.03-.05-.05-.03-.03-.06-.05-.09-.07-.02-.01-.03-.03-.05-.04-.03-.03-.07-.05-.1-.07-.01,0-.03-.02-.04-.03-.05-.03-.09-.06-.14-.09l.78-.47s.09.05.14.09c.02,0,.03.02.04.03.03.02.07.05.1.07.02.01.03.03.05.04.03.02.06.05.09.07.02.02.03.03.05.05.02.02.05.04.07.07,0,0,0,0,0,0,.05.05.1.11.15.16,0,0,0,0,.01.01.02.02.03.04.04.05.02.02.04.05.06.08,0,0,0,.01.01.02.02.02.04.05.05.07.01.02.02.03.03.05,0,0,0,0,0,.01.03.04.06.08.08.12,0,0,0,0,0,0,0,0,0,.02.01.03.02.03.03.05.05.08,0,.01.01.02.02.04,0,.01.01.03.02.04,0,.01.01.03.02.04.01.03.03.06.05.09,0,0,0,0,0,.01,0,0,0,0,0,0,.02.04.03.07.05.11,0,.01,0,.02.01.03,0,.01,0,.02.02.04,0,.01,0,.03.02.04,0,.03.02.06.03.08,0,0,0,.01,0,.02,0,0,0,0,0,0,.01.04.02.08.04.12,0,0,0,.01,0,.02,0,.02,0,.03,0,.05,0,.02.01.04.02.06,0,.01,0,.02,0,.03,0,.03,0,.05.01.08,0,.02,0,.03,0,.05,0,0,0,.01,0,.02,0,.06.01.13.01.19v1.66c0,.16-.04.3-.09.42-.26.15-.52.3-.78.45.05-.11.08-.24.08-.4v-1.66Z" style="fill: #ea7500; stroke-width: 0px;"/>
              <path d="M45.9,64.86c0-.06,0-.13-.01-.19,0,0,0-.01,0-.02,0-.01,0-.03,0-.05,0-.03,0-.05-.01-.08,0-.01,0-.02,0-.03,0-.02,0-.04-.02-.06,0-.02,0-.03-.01-.05,0,0,0-.01,0-.02-.01-.04-.02-.08-.04-.12,0,0,0,0,0,0,0,0,0-.01,0-.02,0-.03-.02-.06-.03-.08,0-.01-.01-.03-.02-.04,0-.01-.01-.03-.02-.04,0-.01,0-.02-.01-.03-.02-.04-.03-.07-.05-.11,0,0,0,0,0,0,0,0,0,0,0,0-.02-.03-.03-.06-.05-.09,0-.01-.01-.03-.02-.04,0-.01-.01-.03-.02-.04,0-.01-.01-.02-.02-.03-.02-.03-.03-.06-.05-.08,0,0-.01-.02-.02-.03,0,0,0,0,0,0-.02-.04-.05-.08-.08-.12,0,0,0,0,0-.01-.01-.02-.02-.03-.03-.05-.02-.02-.04-.05-.05-.07,0,0-.01-.01-.01-.02-.02-.03-.04-.05-.07-.08-.01-.02-.03-.04-.04-.05,0,0,0,0-.01-.01-.05-.05-.1-.11-.15-.16,0,0,0,0,0,0-.02-.02-.05-.04-.07-.07-.02-.02-.03-.03-.05-.05-.03-.03-.06-.05-.09-.07-.02-.01-.03-.03-.05-.04-.03-.02-.07-.05-.1-.07-.02-.01-.03-.02-.05-.03-.04-.03-.09-.06-.14-.09l.78-.47s.09.06.14.09c.02,0,.03.02.05.03.03.02.07.05.1.07.02.01.03.03.05.04.03.02.06.05.09.07.02.02.03.03.05.05.02.02.05.04.07.07,0,0,0,0,0,0,.05.05.1.11.15.16,0,0,0,0,.01.01.02.02.03.04.04.05.02.02.04.05.06.08,0,0,0,.01.01.02.02.03.04.05.05.08.01.01.02.03.03.05,0,0,0,0,0,.01.03.04.06.08.08.12,0,0,0,0,0,0,0,0,0,.02.02.03.02.03.03.05.05.08,0,.01.01.02.02.03,0,.01.01.03.02.04,0,.01.01.02.02.04.02.03.03.06.05.09,0,0,0,0,0,.01,0,0,0,0,0,0,.02.04.03.07.05.11,0,.01,0,.02.01.03,0,.01,0,.02.02.04,0,.01,0,.03.02.04,0,.03.02.05.03.08,0,0,0,.01,0,.02,0,0,0,0,0,0,.01.04.02.08.04.12,0,0,0,.01,0,.02,0,.01,0,.03,0,.05,0,.02.01.04.02.06,0,.01,0,.02,0,.03,0,.03,0,.05.01.08,0,.02,0,.03,0,.05,0,0,0,.01,0,.02,0,.06.01.13.01.19v1.66c-.01.16-.04.3-.09.42-.26.15-.52.3-.78.45.05-.11.08-.24.08-.4v-1.66Z" style="fill: #ea7500; stroke-width: 0px;"/>
              <path d="M43.84,66.06c0-.06,0-.13-.01-.19,0,0,0-.01,0-.02,0-.02,0-.03,0-.05,0-.03,0-.05-.01-.08,0,0,0-.02,0-.03,0-.02-.01-.04-.02-.06,0-.02,0-.03-.01-.05,0,0,0-.01,0-.02-.01-.04-.02-.08-.04-.12,0,0,0,0,0,0,0,0,0-.01,0-.02,0-.03-.02-.06-.03-.08,0-.01-.01-.03-.02-.04,0-.01-.01-.02-.02-.04,0,0,0-.02-.01-.03-.02-.04-.03-.07-.05-.11,0,0,0,0,0,0,0,0,0,0,0-.01-.02-.03-.03-.06-.05-.09,0-.01-.02-.03-.02-.04,0-.01-.01-.03-.02-.04,0-.01-.01-.02-.02-.03-.02-.03-.03-.06-.05-.08,0,0-.01-.02-.02-.03,0,0,0,0,0,0-.03-.04-.05-.08-.08-.12,0,0,0,0,0-.01-.01-.01-.02-.03-.04-.05-.02-.02-.04-.05-.05-.07,0,0-.01-.01-.01-.02-.02-.03-.04-.05-.06-.08-.02-.02-.03-.04-.05-.05,0,0,0,0-.01-.01-.05-.05-.1-.11-.15-.16,0,0,0,0,0,0-.02-.02-.05-.04-.07-.07-.02-.02-.03-.03-.05-.05-.03-.03-.06-.05-.09-.07-.01-.01-.03-.03-.05-.04-.03-.03-.07-.05-.1-.07-.02-.01-.03-.02-.05-.03-.04-.03-.09-.06-.14-.09l.78-.47s.09.05.14.09c.02.01.03.02.04.03.03.02.07.05.1.07.02.01.03.03.05.04.03.02.06.05.09.07.02.02.03.03.05.05.02.02.05.04.07.07,0,0,0,0,0,0,.05.05.1.11.15.16,0,0,0,0,.01.01.02.02.03.03.04.05.02.02.04.05.06.08,0,0,0,.01.01.02.02.02.04.05.05.08.01.01.02.03.04.05,0,0,0,0,0,.01.03.04.06.08.08.12,0,0,0,0,0,0,0,0,.01.02.02.02.02.03.03.05.05.08,0,.01.01.02.02.03,0,.01.01.03.02.04,0,.01.01.03.02.04.02.03.03.06.05.09,0,0,0,0,0,0,0,0,0,0,0,0,.02.04.03.07.05.11,0,0,0,.02.01.03,0,.01.01.02.02.04,0,.01.01.03.02.04,0,.03.02.06.03.08,0,0,0,.01,0,.02,0,0,0,0,0,0,.01.04.02.08.04.12,0,0,0,.01,0,.02,0,.02,0,.03.01.05,0,.02.01.04.02.06,0,0,0,.02,0,.03,0,.03,0,.05.01.08,0,.02,0,.03,0,.05,0,0,0,.01,0,.02,0,.06.01.13.01.19v1.66c0,.16-.04.3-.09.42-.26.15-.52.3-.78.45.05-.11.08-.24.08-.4v-1.66Z" style="fill: #ea7500; stroke-width: 0px;"/>
              <polygon points="22.5 57.01 36.37 65.15 22.5 57.5 22.5 57.01" style="fill: #d6d6f2; stroke-width: 0px;"/>
              <polygon points="39.03 66.96 30.62 62.51 39.03 67.23 39.03 66.96" style="fill: #d6d6f2; stroke-width: 0px;"/>
            </g>
          </g>
          <g>
            <g>
              <path d="M47.8,46.73c2.95,1.7,2.97,4.47.03,6.17-2.93,1.7-7.7,1.7-10.65,0-2.95-1.7-2.97-4.47-.03-6.17,2.93-1.7,7.7-1.7,10.65,0Z" style="fill: #e3f1fe; opacity: .42; stroke-width: 0px;"/>
              <g style="opacity: .83;">
                <path d="M48.35,43.52c3.25,1.88,3.27,4.93.04,6.8-3.23,1.88-8.49,1.88-11.75,0-3.25-1.88-3.27-4.93-.04-6.8,3.23-1.88,8.49-1.88,11.75,0Z" style="fill: #e3f1fe; opacity: .35; stroke-width: 0px;"/>
              </g>
              <g style="opacity: .67;">
                <path d="M48.89,40.32c3.56,2.05,3.58,5.39.04,7.44-3.53,2.05-9.29,2.05-12.85,0-3.56-2.05-3.58-5.39-.04-7.44,3.54-2.05,9.29-2.05,12.85,0Z" style="fill: #e3f1fe; opacity: .28; stroke-width: 0px;"/>
              </g>
              <g style="opacity: .5;">
                <path d="M49.44,37.11c3.86,2.23,3.88,5.85.05,8.08-3.84,2.23-10.08,2.23-13.94,0-3.86-2.23-3.88-5.85-.04-8.08,3.84-2.23,10.08-2.23,13.94,0Z" style="fill: #e3f1fe; opacity: .21; stroke-width: 0px;"/>
              </g>
              <g style="opacity: .33;">
                <path d="M49.99,33.91c4.17,2.41,4.19,6.31.05,8.71-4.14,2.41-10.87,2.41-15.04,0-4.16-2.41-4.19-6.31-.05-8.71,4.14-2.41,10.87-2.41,15.04,0Z" style="fill: #e3f1fe; opacity: .14; stroke-width: 0px;"/>
              </g>
              <g style="opacity: .17;">
                <path d="M50.53,30.7c4.47,2.58,4.49,6.77.05,9.35-4.44,2.58-11.67,2.58-16.14,0-4.47-2.58-4.49-6.77-.05-9.35,4.44-2.58,11.67-2.58,16.14,0Z" style="fill: #e3f1fe; opacity: .07; stroke-width: 0px;"/>
              </g>
              <g style="opacity: 0;">
                <path d="M51.08,27.5c4.77,2.76,4.8,7.23.06,9.98-4.74,2.76-12.46,2.76-17.24,0-4.77-2.76-4.8-7.23-.05-9.98,4.74-2.76,12.46-2.76,17.23,0Z" style="fill: #e3f1fe; opacity: 0; stroke-width: 0px;"/>
              </g>
            </g>
            <g>
              <path d="M47.82,47.16c2.77,1.6,2.79,4.19.03,5.79-2.75,1.6-7.23,1.6-10,0-2.77-1.6-2.79-4.19-.03-5.79,2.75-1.6,7.23-1.6,10,0Z" style="fill: #000; opacity: .1; stroke-width: 0px;"/>
              <path d="M44.55,48.75s-1.95-.05-1.52.61c.28.43.66.51.94.51.29,0,.81-.15.94-.07.13.08.78.49,1.15.08.08-.09.12-.33.08-.49-.05-.16-1.37-.68-1.58-.64Z" style="fill: #615a8e; stroke-width: 0px;"/>
              <path d="M43.03,49.36c.28.43.66.51.94.51.29,0,.81-.15.94-.07.13.08.78.49,1.15.08.04-.05.07-.14.09-.24-.26.36-.89.26-1.07.14-.2-.13-.49-.2-.74-.15-.25.05-.79,0-1.06-.26-.16-.15-.16-.32-.12-.43-.17.09-.24.22-.12.42Z" style="fill: #484475; stroke-width: 0px;"/>
              <path d="M41.8,49.99c-1.37-.18-2.81.04-2.27.74.34.45.83.53,1.19.53.36,0,1.03-.17,1.19-.09.16.08.98.52,1.46.06.1-.09.25-.49.19-.66-.06-.17-1.49-.56-1.76-.59Z" style="fill: #615a8e; stroke-width: 0px;"/>
              <path d="M45.95,34.38s1.03,2.01-.04,4.78c0,0-.82,2.34-.64,3.13.22.94.54.67.77,3.79.2,2.75.19,2.32.14,3.33-.01.32-1.3.59-1.51-.21-.53-2.06-1.81-6.36-1.57-8.85.24-2.49.38-4.82.38-4.82,0,0,1.65-.44,2.46-1.14Z" style="fill: #171718; stroke-width: 0px;"/>
              <path d="M44.71,35.54s.61,2.17-1.01,4.53c0,0-1.22,2.65-1.05,3.54.17.92.47.84.78,3.66.2,1.79.33,2.24.19,3.39-.05.43-1.69.47-1.79-.13-.33-2.09-1.89-6.58-1.66-9.07.23-2.49.73-5.29.73-5.29,0,0,2.72-.02,3.8-.62Z" style="fill: #282528; stroke-width: 0px;"/>
              <path d="M39.53,50.73c.34.45.83.53,1.19.53.36,0,1.03-.17,1.19-.09.16.08.98.52,1.46.06.05-.05.14-.21.16-.31-.33.38-1.18.35-1.4.22-.25-.14-.62-.2-.94-.15-.32.05-1.01,0-1.35-.26-.21-.16-.27-.46-.23-.58-.21.1-.24.36-.08.57Z" style="fill: #484475; stroke-width: 0px;"/>
              <path d="M40.18,41.46c-.23,2.49,1.33,6.98,1.66,9.07.04.27.4.41.79.44-.69-1.84-1.74-7.23-1.89-8-.16-.85-.48-4.02.74-4.47,1.22-.45,2.31-1.99,2.31-1.99l-1.57-.42c-.73.06-1.3.07-1.3.07,0,0-.5,2.8-.73,5.29Z" style="fill: #171718; stroke-width: 0px;"/>
              <g>
                <path d="M38.37,25.51s-.98-.74-1.6-.4c-.62.34-.66.5-.33.57.34.07,1.23.29,1.11.38-.13.09-.46.13-.38.25.08.11,1.06-.03,1.06-.03l.55-.51-.41-.26Z" style="fill: #ffaa83; stroke-width: 0px;"/>
                <path d="M45.26,27.17s1.16-.05,1.16,1.13c0,1.25-2.45.79-2.45.79,0,0-2.13-.21-2.79-.49-.88-.36-3.13-2.17-3.13-2.17,0,0,.17-.72.67-.9,0,0,2.13,1.45,2.95,1.63.89.19,3.4-.03,3.59,0Z" style="fill: #e3b1e5; stroke-width: 0px;"/>
              </g>
              <path d="M40.88,29.88s-.28-1.32,1.93-2.12c2.21-.79,3.58-.76,3.6.47.03,1.23-.54,2.88-.62,3.44-.06.44-.49.83.04,2.11.53,1.27,1.27,2.32-2.14,3.02-.6.12-3.25.36-2.93-1.06.4-1.77.37-4.39.12-5.86Z" style="fill: #ffe9fe; stroke-width: 0px;"/>
              <path d="M42.94,26.35s.23.94-.23,1.5c-.25.31.74.63,1.53.22,0,0,.07-1.6.66-2.16l-1.96.43Z" style="fill: #ffaa83; stroke-width: 0px;"/>
              <path d="M42.99,27.02s.56-.09.88-.26l.04.02.18.26.1-.15s-.18.97-1.36.76c0,0,.12-.26.16-.64Z" style="fill: #f79f7c; stroke-width: 0px;"/>
              <path d="M42.77,22.85s-.76.17-.94,1.35c-.17,1.12-.52,2.08.03,2.56.56.49,2.62.36,3.3-1.06.68-1.42-.32-3.5-2.38-2.85Z" style="fill: #ffaa83; stroke-width: 0px;"/>
              <path d="M41.58,24.03c.02.18.11.55.47.7.51.21,1.11.18,1.16.52.06.34.37.74-.71,2.63-.34.59,2.04,1,2.88-.19.27-.39.65-2.87-.02-4.3,0,0-.56-1.09-1.89-.9,0,0-2.02.14-1.89,1.54Z" style="fill: #221d19; stroke-width: 0px;"/>
              <path d="M43.65,26.1c-.25.24-.57.29-.73.12-.16-.17-.09-.51.16-.75.25-.24.58-.29.73-.12.16.18.09.51-.16.75Z" style="fill: #ffaa83; stroke-width: 0px;"/>
              <g>
                <path d="M36.12,34.17s-1.18.33-1.63-.21c-.45-.54-.43-.71-.09-.65s1.25.18,1.17.05c-.08-.13-.38-.29-.27-.37.11-.08.98.42.98.42l.32.68-.47.09Z" style="fill: #ffaa83; stroke-width: 0px;"/>
                <path d="M41.11,28.96s.64-.96,1.56-.21c.97.79-.81,2.48-.81,2.48,0,0-1.41,1.57-2,1.93-.79.47-3.52,1.12-3.52,1.12,0,0-.46-.6-.31-1.12,0,0,2.37-.78,2.98-1.32.67-.59,1.95-2.75,2.1-2.88Z" style="fill: #e3b1e5; stroke-width: 0px;"/>
              </g>
            </g>
          </g>
          <g style="mix-blend-mode: overlay; opacity: .8;">
            <path d="M44.71,65.27c0,2.95-2.39,5.34-5.34,5.34s-5.34-2.39-5.34-5.34,2.39-5.34,5.34-5.34,5.34,2.39,5.34,5.34Z" style="fill: #b839e3; opacity: 0; stroke-width: 0px;"/>
            <path d="M43.86,65.32c0,2.48-2.01,4.49-4.49,4.49s-4.49-2.01-4.49-4.49,2.01-4.49,4.49-4.49,4.49,2.01,4.49,4.49Z" style="fill: #c45ae8; opacity: .12; stroke-width: 0px;"/>
            <path d="M43.02,65.36c0,2.01-1.63,3.65-3.65,3.65s-3.65-1.63-3.65-3.65,1.63-3.65,3.65-3.65,3.65,1.63,3.65,3.65Z" style="fill: #d07bec; opacity: .23; stroke-width: 0px;"/>
            <path d="M42.18,65.41c0,1.55-1.26,2.8-2.8,2.8s-2.81-1.26-2.81-2.8,1.26-2.81,2.81-2.81,2.8,1.26,2.8,2.81Z" style="fill: #dc9cf1; opacity: .35; stroke-width: 0px;"/>
            <path d="M41.33,65.45c0,1.08-.88,1.96-1.96,1.96s-1.96-.88-1.96-1.96.88-1.96,1.96-1.96,1.96.88,1.96,1.96Z" style="fill: #e7bdf6; opacity: .47; stroke-width: 0px;"/>
            <path d="M40.49,65.5c0,.62-.5,1.12-1.12,1.12s-1.12-.5-1.12-1.12.5-1.12,1.12-1.12,1.12.5,1.12,1.12Z" style="fill: #f3defa; opacity: .58; stroke-width: 0px;"/>
            <path d="M39.64,65.54c0,.15-.12.27-.27.27s-.27-.12-.27-.27.12-.27.27-.27.27.12.27.27Z" style="fill: #fff; opacity: .7; stroke-width: 0px;"/>
          </g>
          <g>
            <g>
              <g style="opacity: .1;">
                <path d="M18.6,58.54c2.48,1.43,2.5,3.76.03,5.19-2.47,1.43-6.48,1.43-8.96,0-2.48-1.43-2.5-3.75-.03-5.19,2.47-1.43,6.48-1.43,8.96,0Z" style="fill: #000; stroke-width: 0px;"/>
              </g>
              <path d="M19.3,61.35s0,0,0,0l1.68-10.23h-11.09l1.68,10.2s0,.04.01.06v.02h0c.1.48.47.95,1.11,1.32,1.52.88,3.97.88,5.48,0,.64-.37,1-.84,1.1-1.32h0v-.05Z" style="fill: #c3dff4; stroke-width: 0px;"/>
              <path d="M18.19,62.72c.64-.37,1-.84,1.1-1.32h0v-.05s0,0,0,0l1.68-10.23h-.29l-1.28.87s.99,8.58-5.49,10c-.62.14-1.19.26-1.71.38.14.13.3.25.5.36,1.52.88,3.97.88,5.48,0Z" style="fill: #afd2e8; stroke-width: 0px;"/>
            </g>
            <path d="M19.35,49.08c2.17,1.25,2.19,3.29.03,4.54-2.16,1.26-5.67,1.25-7.84,0-2.17-1.25-2.18-3.29-.02-4.54,2.16-1.25,5.67-1.25,7.84,0Z" style="fill: #e3f1fe; stroke-width: 0px;"/>
            <path d="M18.69,49.46c1.8,1.04,1.81,2.73.02,3.78-1.79,1.04-4.71,1.04-6.52,0-1.81-1.04-1.82-2.73-.02-3.78,1.79-1.04,4.71-1.04,6.52,0Z" style="fill: #c3dff4; stroke-width: 0px;"/>
            <path d="M12.19,53.24c1.81,1.04,4.72,1.04,6.52,0,.52-.3.88-.66,1.1-1.03-.11-.55-.53-1.09-1.26-1.51-1.72-1-4.51-1-6.22,0-.72.42-1.13.95-1.24,1.49.22.38.59.74,1.12,1.05Z" style="fill: #343434; stroke-width: 0px;"/>
            <path d="M13.91,52.62c-.7-.5-1.77-.83-1.7-2.96.07-2.13-2.74-.8-2.75-2.41-.04-4-3.23-5.23-1.03-4.81,2.2.41,3.99,1.31,5.23,4.06,1.24,2.75,4.84,6.35,2.14,6.55,0,0-1.04.17-1.88-.43Z" style="fill: #ea7500; stroke-width: 0px;"/>
            <path d="M16.89,47.07s2.25-.02,1.99-2.2c-.48-3.98,1.44-3.12,2.11-4.64.9-2.06,2.15.02,1.94,1.68-.22,1.66,1.03,3.38-2.5,7.22-1.24,1.35-2.04,4.36-5.08,3.72-3.04-.64,2.36-2.95,1.55-5.78Z" style="fill: #ffc000; stroke-width: 0px;"/>
            <path d="M22.34,43.76l-.11-.04s-.33.9-1.12,1.14c.85-1.56.84-4.03.83-4.14h-.12s0,1.32-.29,2.62c-.48-.48-.31-1.17-.3-1.17l-.12-.03s-.21.82.39,1.34c-.16.63-.39,1.25-.74,1.71-.16.21-.35.47-.58.76-.55.71-1.25,1.61-1.87,2.56-.15-.25.04-.89.14-1.14l-.11-.04c-.04.1-.36.97-.1,1.29-.82,1.27-1.47,2.6-1.35,3.59h.12c-.14-1.2.88-2.93,1.95-4.42,1.36-.09,1.88-.74,1.9-.77l-.09-.07s-.49.6-1.71.71c.43-.6.86-1.15,1.22-1.62.23-.29.42-.54.58-.76.06-.08.11-.16.17-.25.93-.19,1.3-1.21,1.31-1.25Z" style="fill: #ea7500; stroke-width: 0px;"/>
            <path d="M14.1,49.28c.17-.33-.25-1.02-.3-1.1l-.1.06c.17.27.38.72.32.94-.69-.7-1.45-1.36-2.04-1.88-.24-.21-.45-.39-.63-.55-.38-.34-.68-.83-.92-1.34.42-.56.12-1.2.1-1.23l-.11.05s.26.56-.05,1.05c-.48-1.07-.69-2.18-.69-2.19l-.12.02c.02.1.42,2.21,1.42,3.41-.7-.08-1.13-.78-1.13-.78l-.1.06s.51.85,1.35.86c.06.06.12.13.18.18.17.16.39.34.63.55.39.34.85.74,1.32,1.17-1.06.1-1.57-.32-1.57-.32l-.08.09s.44.37,1.31.37c.14,0,.29-.01.45-.03,1.18,1.11,2.34,2.41,2.43,3.46h.12c-.07-.88-.85-1.91-1.77-2.87Z" style="fill: #ff9c00; stroke-width: 0px;"/>
            <path d="M15.2,52.99c-1.73-.63-3.67-3.39-2.57-6.49,1.1-3.1.94-3.44-.19-4.95-1.12-1.51.34-1.95,0-3.92-.38-2.19,5.76,4.47,5,7.02-.76,2.54,3.23,7.64-1.1,8.38-.28.05-1.06-.01-1.15-.04Z" style="fill: #ff9c00; stroke-width: 0px;"/>
            <path d="M15.88,49.18l-.11.03c.02.06.37,1.36-.9,1.82-.45-1.59-.2-3.23.06-4.83,1.22-.37,1.21-1.88,1.21-1.9h-.12s0,1.39-1.06,1.77c0,0,0,0,0-.01.15-.91.29-1.77.31-2.59,0-.4-.03-.77-.08-1.12l.07.06c.61-.76.26-2,.25-2.05l-.11.03s.33,1.2-.21,1.92c-.36-2.18-1.7-3.43-1.72-3.45l-.08.09s1.76,1.65,1.77,4.43c-1.16-.59-1.11-1.72-1.11-1.77h-.12s-.06,1.29,1.23,1.9c-.01.8-.15,1.64-.3,2.53-.14.82-.28,1.68-.32,2.55-.73-.39-.49-2.23-.49-2.25l-.12-.02c-.01.08-.26,2.02.6,2.39-.06,1.47.19,2.98,1.27,4.37l.09-.07c-.47-.61-.78-1.23-.97-1.86,1.38-.5.99-1.95.98-1.97Z" style="fill: #ffc000; stroke-width: 0px;"/>
          </g>
          <g style="mix-blend-mode: overlay; opacity: .8;">
            <path d="M54.94,5.34c0,2.95-2.39,5.34-5.34,5.34s-5.34-2.39-5.34-5.34,2.39-5.34,5.34-5.34,5.34,2.39,5.34,5.34Z" style="fill: #b839e3; opacity: 0; stroke-width: 0px;"/>
            <path d="M54.09,5.38c0,2.48-2.01,4.49-4.49,4.49s-4.49-2.01-4.49-4.49,2.01-4.49,4.49-4.49,4.49,2.01,4.49,4.49Z" style="fill: #c45ae8; opacity: .12; stroke-width: 0px;"/>
            <path d="M53.25,5.43c0,2.01-1.63,3.65-3.65,3.65s-3.65-1.63-3.65-3.65,1.63-3.65,3.65-3.65,3.65,1.63,3.65,3.65Z" style="fill: #d07bec; opacity: .23; stroke-width: 0px;"/>
            <path d="M52.4,5.47c0,1.55-1.26,2.8-2.8,2.8s-2.81-1.26-2.81-2.8,1.26-2.81,2.81-2.81,2.8,1.26,2.8,2.81Z" style="fill: #dc9cf1; opacity: .35; stroke-width: 0px;"/>
            <path d="M51.56,5.52c0,1.08-.88,1.96-1.96,1.96s-1.96-.88-1.96-1.96.88-1.96,1.96-1.96,1.96.88,1.96,1.96Z" style="fill: #e7bdf6; opacity: .47; stroke-width: 0px;"/>
            <path d="M50.72,5.57c0,.62-.5,1.12-1.12,1.12s-1.12-.5-1.12-1.12.5-1.12,1.12-1.12,1.12.5,1.12,1.12Z" style="fill: #f3defa; opacity: .58; stroke-width: 0px;"/>
            <path d="M49.87,5.61c0,.15-.12.27-.27.27s-.27-.12-.27-.27.12-.27.27-.27.27.12.27.27Z" style="fill: #fff; opacity: .7; stroke-width: 0px;"/>
          </g>
        </g>
      </g>
    </g>
  </g>
</svg>