<?xml version="1.0" encoding="UTF-8"?>
<svg id="_圖層_2" data-name=" 圖層 2" xmlns="http://www.w3.org/2000/svg" width="344.47" height="440" viewBox="0 0 344.47 440">
  <defs>
    <style>
      .cls-1 {
        fill: #b96e41;
      }

      .cls-1, .cls-2, .cls-3, .cls-4, .cls-5, .cls-6, .cls-7, .cls-8, .cls-9, .cls-10, .cls-11, .cls-12, .cls-13, .cls-14, .cls-15, .cls-16, .cls-17, .cls-18 {
        stroke-width: 0px;
      }

      .cls-1, .cls-2, .cls-7, .cls-15 {
        fill-rule: evenodd;
      }

      .cls-2 {
        fill: #ffbc93;
      }

      .cls-3 {
        fill: #00ac94;
      }

      .cls-4 {
        fill: #f2bb20;
      }

      .cls-5 {
        fill: #00ccfa;
      }

      .cls-6 {
        fill: #f4663b;
      }

      .cls-7 {
        fill: #d08f67;
      }

      .cls-8 {
        fill: #e25656;
      }

      .cls-9 {
        fill: #ffffe6;
      }

      .cls-10 {
        fill: #003c6c;
      }

      .cls-11 {
        fill: #34c0f8;
      }

      .cls-12 {
        fill: #fff;
      }

      .cls-13 {
        fill: #ff7a1f;
      }

      .cls-14 {
        fill: #008581;
      }

      .cls-15 {
        fill: #ac6134;
      }

      .cls-16 {
        fill: #ba8cea;
      }

      .cls-17 {
        fill: #ffa792;
      }

      .cls-18 {
        fill: #8cd26f;
      }
    </style>
  </defs>
  <g id="_圖層_1-2" data-name=" 圖層 1-2">
    <g>
      <g id="_地球儀" data-name=" 地球儀">
        <path class="cls-1" d="M130.59,347.57c10.49-.06,21.01-.21,31.51-.39,10.49-.2,21.02-.33,31.52-.4.85,13.51,1.69,27.03,2.55,40.51.85,13.5,1.7,26.99,2.55,40.49h-73.44c.89-13.36,1.77-26.73,2.65-40.1.88-13.36,1.77-26.73,2.65-40.11"/>
        <path class="cls-7" d="M138.45,347.52c2.96-.02,5.92-.06,8.89-.1-.42,13.4-.84,26.8-1.27,40.18-.42,13.39-.85,26.78-1.27,40.17h-10.37c.67-13.37,1.33-26.73,2-40.12.67-13.36,1.33-26.75,2.01-40.13"/>
        <path class="cls-15" d="M171.78,346.99c2.68-.04,5.38-.09,8.06-.11,2.69-.04,5.38-.06,8.08-.07.69,13.51,1.4,27,2.09,40.5.69,13.48,1.39,26.99,2.09,40.46h-18.8c-.25-13.46-.5-26.92-.75-40.38-.25-13.46-.5-26.93-.75-40.4"/>
        <path class="cls-2" d="M328.93,213.06c3.28-13.93,4.59-28.08,3.73-41.89-4.29-69.19-34.14-116.77-84.06-146.15-9.46-5.57-20.21-10.29-31.2-14.14l3.05-9.92,2.03-.63-2.68,8.82c66.69,23.11,114.59,86.47,114.59,161.03,0,14.81-1.89,29.17-5.44,42.88M177.82,349.25c-4.68.58-9.3.92-13.84,1.02-52.77,1.2-87.7-21.08-95.15-24.94l5.57-8.46,2.3-.34-5.06,7.71c26.98,16.2,58.56,25.53,92.33,25.53,4.66,0,9.27-.18,13.84-.53h0ZM343.58,170.18c0,.97-.02,1.94-.04,2.91.02-.97.04-1.94.04-2.91Z"/>
        <path class="cls-1" d="M102.44,316.22l-5.15,11.25-12.76-5.84,5.15-11.25c.26.14.53.26.79.4l.21.11.02.02c.37.19.75.37,1.12.56l.02.02.29.14c.44.22.88.43,1.33.65.31.14.62.3.93.44h0l.03.02c.3.14.6.28.9.42h0l.03.02.03.02c.34.16.69.32,1.04.47.58.26,1.16.52,1.74.78l.04.02c.23.1.47.21.69.31l.53.23c.85.37,1.69.72,2.53,1.06l.46.19h.03ZM226.71,10.73l12.76,5.84-5.14,11.24c-4.2-2.15-8.46-4.1-12.76-5.84l5.14-11.24Z"/>
        <path class="cls-7" d="M93.02,312.04l-5.09,11.14-1.8-.82,5.12-11.19c.08.05.18.08.27.13h.02l.02.02.64.31h.02c.27.14.55.28.82.42M228.3,11.46l1.8.82-5.09,11.13c-.61-.26-1.21-.52-1.82-.78l5.11-11.18h0Z"/>
        <path class="cls-15" d="M101.27,315.73l-5.12,11.2-3.27-1.49,5.09-11.13h.02c.39.18.78.34,1.17.51h.02c.24.11.49.22.74.33.39.17.77.33,1.16.49l.05.02.05.02.05.02.05.02h0ZM235.05,14.55l3.27,1.49-5.12,11.19c-1.08-.54-2.15-1.07-3.23-1.58l5.08-11.11h0Z"/>
        <path class="cls-1" d="M222.47.33c70.47,24.26,121.11,91.14,121.11,169.85,0,99.19-80.41,179.6-179.6,179.6-33.76,0-65.35-9.33-92.33-25.53l5.06-7.71c25.53,15.25,55.38,24.03,87.27,24.03,94.1,0,170.39-76.28,170.39-170.39,0-74.56-47.89-137.92-114.59-161.03l2.68-8.82h0Z"/>
        <path class="cls-1" d="M91.48,427.77h142.14c1.93,2.09,3.86,4.19,5.79,6.28s3.86,4.19,5.77,6.28H78.83c2.11-2.09,4.22-4.19,6.32-6.28s4.22-4.19,6.32-6.28"/>
        <path class="cls-7" d="M109.2,427.77h20.06c-1.01,2.09-2.07,4.19-3.1,6.28-1.03,2.09-2.07,4.19-3.1,6.28h-23.49c1.6-2.09,3.21-4.19,4.81-6.28,1.59-2.09,3.21-4.19,4.81-6.28"/>
        <path class="cls-15" d="M184.35,427.77h36.39c1.58,2.09,3.14,4.19,4.7,6.28,1.56,2.09,3.13,4.19,4.69,6.28h-42.59c-.53-2.09-1.07-4.19-1.59-6.28-.53-2.09-1.04-4.19-1.59-6.28"/>
      </g>
      <g id="_4個選單" data-name=" 4個選單">
        <g>
          <path class="cls-12" d="M43.96,99.56l18.42,9.47-1.5,2.91-1.12-.58-5.6,10.89,1.15.59-1.43,2.77-18.44-9.48,3.02-5.87c-.86-.76-1.83-1.58-2.69-2.16l2.06-3.11c.74.82,1.45,1.64,2.08,2.43l4.04-7.86ZM39.48,114.7l2.36,1.21,5.6-10.89-2.36-1.21-5.6,10.89ZM44.37,117.21l2.36,1.21,5.6-10.89-2.36-1.21-5.6,10.89ZM57.24,110.06l-2.39-1.23-5.6,10.89,2.39,1.23,5.6-10.89Z"/>
          <path class="cls-12" d="M68.96,81.26c.89,2.22,1.44,4.52,1.69,6.88,1.98.71,3.4.84,3.89.24.34-.42-.43-1.44-2.71-3.46.98-.07,2.17-.43,2.95-.86,3.2,3.22,3.48,4.68,2,6.5-1.19,1.46-3.3,1.61-5.96.88.02,1.94-.18,3.87-.56,5.69-.84-.12-2.19-.12-3.21.02.55-2.11.82-4.45.8-6.75-1.94-.84-4.04-1.98-6.2-3.33l-3.3,4.06,2.28,1.85c.65-1.17,1.29-2.37,1.94-3.54l2.31,1.57-1.99,3.8,3.42,2.78c1.3,1.06,1.72,1.86,1.45,2.96-.25,1.09-1.13,2.37-2.46,3.98-.74-.44-2.15-.91-3.09-1.11.97-1.07,1.89-2.25,2.16-2.63.29-.36.29-.56-.03-.82l-2.9-2.35c-.78,1.49-1.53,2.94-2.19,4.17l-2.87-1.37c.75-1.29,1.69-2.91,2.7-4.71l-2.68-2.18-3.07,3.78-2.26-1.84,3.07-3.78-2.28-1.85c-.7,1.23-1.45,2.44-2.16,3.56-.66-.37-1.8-.77-2.56-.94,1.89-3.11,3.77-6.73,4.76-9.31l3.32.04c-.51,1.24-1.14,2.56-1.84,3.91l2.7,2.19,3.12-3.84c-1.93-1.3-3.84-2.75-5.68-4.21l2.03-2.5c1.83,1.55,3.76,2.98,5.65,4.25l4.42-5.44,2.26,1.84-4.22,5.2c1.33.81,2.66,1.56,3.86,2.16-.28-1.42-.64-2.81-1.18-4.11l2.61-1.37ZM63.37,79.15c-1.34-.23-3.77-.14-5.61.16l.24-2.79c1.78-.31,4.18-.56,5.59-.38l-.22,3.01Z"/>
          <path class="cls-12" d="M76.09,77.72l-2.26,1.83-3.33-4.1,1.5-1.22-5.19-5.65c1.04-1.18,2.38-3.16,3.13-4.4l2.1.59c-.54.93-1.35,2.02-2.12,2.99l.51.55,2.54-2.06,1.2,1.48-2.46,2,.59.65,2.46-2,.83,1.02c.29-.63.59-1.28.78-1.9-.58.07-1.13.16-1.66.25l.34-1.83c.56-.12,1.18-.22,1.81-.34.07-.49.11-1.02.1-1.47l1.94-.81c.04.66,0,1.36-.09,2.06.74-.07,1.4-.11,1.97-.07l-.36,2.02c-.54-.06-1.2-.05-1.96-.04-.22.84-.48,1.62-.78,2.36l6.48-5.26-.49-.77-2.36,1.92-1.2-1.48,2.5-2.03-.51-.71-2.44,1.98-1.2-1.48,2.54-2.06-.5-.69-2.68,2.18-1.22-1.5,5-4.06c1.61,2.18,3.51,4.86,4.86,6.85l1.48-1.2,3.33,4.1-2.36,1.92-1.93-2.38-12.85,10.43,1.93,2.38ZM77.41,63.73c-.47-.05-1.08-.02-1.72,0-.21.84-.48,1.62-.81,2.32-.49-.07-1.51-.1-2.1-.05.36-.62.65-1.32.89-2.02-.56.09-1.06.17-1.57.28l.31-1.78c.53-.13,1.13-.25,1.74-.35.05-.47.1-.94.07-1.39l1.93-.81c.03.61,0,1.26-.11,1.91.63-.04,1.22-.06,1.69-.04l-.33,1.93ZM74.19,72.45l3.24-2.63c-.43-.08-1.12-.15-1.65-.19l.18.22-2.38,1.93.61.67ZM94.61,68.93l-7.65,6.2,1.17,1.44c.86,1.06,1.04,1.78.48,2.76-.59.95-1.68,1.86-3.18,3.08-.62-.56-1.61-1.08-2.35-1.42.97-.72,2.17-1.7,2.46-1.96.32-.26.37-.4.18-.64l-1.11-1.36-8.11,6.58-1.53-1.88,8.1-6.58-.47-.58c.49-.87.9-1.92,1.26-2.95l-6.42,5.21-1.35-1.66,8.71-7.06.4-.52,2.33.13c-.45,1.69-1.15,3.62-1.95,5.4l7.48-6.07,1.53,1.88Z"/>
          <path class="cls-12" d="M104.57,54.57c.03.74,0,1.48-.03,2.14l7.26-3.75,4.98,9.65-2.84,1.47-.43-.83-9.8,5.06.43.83-2.7,1.4-4.98-9.65,5.38-2.78c-.04-.53-.13-1.09-.21-1.58l-.06.06c-.56.66-1.56,1.19-2.96,1.91-.4-.55-1.13-1.19-1.68-1.57.79-.38,1.68-.84,1.94-.97s.3-.27.18-.5l-2.82-5.45-4.42,2.28c1.18.03,2.61.16,3.43.41l-.47,2.45c-.9-.34-2.65-.58-3.96-.59l.44-1.97-1.74.9-1.09-2.11,9.18-4.74,3.92,7.58c.26.5.42.92.43,1.29l2.63-.92ZM97.81,55.47c-1.42,1.75-2.95,3.56-4.23,5.06l-2.09-1.74c1.25-1.23,3.09-3.17,4.9-5.06l1.42,1.73ZM111.82,48.79c.57,1.1.62,1.77.02,2.51-.58.73-1.67,1.32-3.17,2.07-.45-.58-1.2-1.26-1.8-1.68.89-.4,1.9-.92,2.18-1.07.29-.18.34-.29.21-.55l-2.78-5.39-4.37,2.26c1.19,0,2.58.12,3.38.31l-.38,2.29c.56-.61,1.15-1.2,1.73-1.82l1.42,1.74c-1.58,1.77-3.28,3.64-4.66,5.14l-1.97-1.57c.89-.87,2.06-2.02,3.29-3.3-.97-.31-2.66-.48-3.92-.5l.4-1.92-1.49.77-1.09-2.11,9.11-4.71,3.88,7.52ZM110.02,56.48l-9.8,5.06.69,1.33,9.8-5.06-.69-1.33ZM112.45,61.18l-.69-1.33-9.8,5.06.69,1.33,9.8-5.06Z"/>
          <path class="cls-12" d="M230.49,66.88c-1.13,0-2.26,0-3.3-.08.57,1.14,1.35,2.21,2.42,3.17-.81.22-2.02.76-2.68,1.26-2.53-2.62-3.4-5.77-3.07-9.32-.96.23-1.95.35-3.03.41l-1.02,1.97,3.55,1.05c-.38.56-.86,1.44-1.08,1.97-4.69-1.26-5.55-1.45-6.13-1.4.16-.59.17-1.68.08-2.28.51.03,1.25-.17,1.72-1.08l.11-.21c-.78-.06-1.51-.17-2.23-.28-.05-.52-.2-1.24-.37-1.87l-.06.17c-2.43-.47-4.97-1.06-7.08-1.51l.82-2.71c.74.21,1.56.4,2.52.63l2.92-5.64-1.79-.92,1.22-2.36,1.79.92,2.21-4.26-1.95-1.01,1.23-2.38,6.21,3.21-1.23,2.38-1.88-.97-2.21,4.26,1.67.87-1.22,2.36-1.67-.86-2.62,5.06,1.95.43-.6,1.67c1.85.4,3.88.64,5.65.57l-2.63-1.36,2.6-5.02,11.4,5.9-2.6,5.02-3.82-1.98c-.04.7.03,1.41.18,2.07,1.07-.05,2.25-.2,3.06-.36l.96,2.53ZM234.42,59.47l-14.01-7.25,1.12-2.15,14.01,7.25-1.11,2.15ZM222.08,58.12l6.43,3.33.66-1.28-6.43-3.33-.66,1.28ZM235.18,56.21l-12.46-6.44,2.69-5.2,12.46,6.44-2.69,5.2ZM228.1,48.28l-1.44-.75-.79,1.53,1.44.75.79-1.54ZM231.33,49.95l-1.44-.75-.79,1.54,1.44.75.8-1.54ZM234.61,51.64l-1.51-.78-.8,1.53,1.51.78.79-1.54Z"/>
          <path class="cls-12" d="M239.24,73.12c-2.76-.82-5.79-1.75-8.16-2.52l1.21-3.07c.82.34,1.8.73,2.9,1.13l5.02-6.16-1.94-1.58,1.84-2.26,1.94,1.58,3.65-4.48,2.32,1.89-3.65,4.48,1.7,1.38-1.84,2.26-1.7-1.38-4.37,5.36c.8.29,1.58.55,2.38.84l-1.3,2.53ZM246.25,83.33c.16.13.32.26.45.3s.31-.01.57-.2c.24-.21.7-.73,1.3-1.44.09.71.62,1.81,1.02,2.46-.66.69-1.39,1.43-1.83,1.63-.46.19-.93.21-1.44.06-.4-.12-1.01-.52-1.39-.83l-1.28-1.04c-.52-.42-1.03-1.1-1.13-1.72-.1-.65.06-1.22,1.05-2.44l1.97-2.42-1.44-1.17c-2.49,2.36-4.83,3.19-9.33,1.08.24-.7.4-2.04.26-2.81,3.57,1.91,5.12,1.47,6.85-.08l-1.66-1.35,4.92-6.04,9.57,7.8-4.92,6.04-2.06-1.68-2.02,2.48c-.21.26-.33.4-.31.55.03.13.13.24.29.37l.54.44ZM243.63,73.64l5.12,4.17.68-.84-5.12-4.17-.68.84ZM256.26,75.25l-11.33-9.23,1.6-1.96,2.42,1.97c.26-.52.47-1.15.64-1.68l2.23,1.18c-.17.7-.48,1.61-.77,2.21l2.26,1.84c.68-.38,1.42-.84,1.97-1.23l1.83,2.16c-.62.26-1.17.54-1.72.76l2.48,2.02-1.6,1.96ZM245.44,71.42l5.12,4.17.68-.84-5.12-4.17-.68.84ZM258.74,71.14l-10.25-8.36,1.57-1.92,3.96,3.23c.14-.42.3-.86.43-1.22l2.58,1.4c-.15.55-.37,1.23-.57,1.8l3.86,3.14-1.57,1.92Z"/>
          <path class="cls-12" d="M274.53,95.07c-3.31,1.98-6.31,3.27-9.21,3.86-.7,2.05-.89,4.16-.47,6.24-.92-.15-2.46-.13-3.41.04-.28-2.03-.1-4.03.49-5.96-2.23-.05-4.43-.56-6.72-1.6.38-.67.92-2.27,1.07-3.11,2.36,1.21,4.62,1.7,6.91,1.54.81-1.55,1.78-3.09,2.95-4.64-.72.09-1.45.18-2.13.2.09-.5.16-1.49.18-2.33-1.53-.05-3.27-.31-4.82-.68l-.5.41c1.04,1.08,2.09,2.18,3.13,3.27l-2.03,1.64c-1.06-1.07-2.13-2.15-3.17-3.23l-1.99,1.6c-1.04.84-1.73,1.1-2.62.66-.89-.44-1.67-1.37-2.69-2.63.56-.58,1.14-1.55,1.48-2.32.61.8,1.31,1.66,1.52,1.92.23.24.36.28.56.11l1.72-1.39c-1.26-1.27-2.45-2.5-3.46-3.5l1.93-1.96c1.01,1.04,2.24,2.36,3.61,3.78l1.1-.89c.82.23,1.79.41,2.75.53l-1.68-2.09c-1.11-.26-2.19-.65-3.26-1.08.2-.69.48-2.24.53-3.04,1.78.85,3.64,1.43,5.58,1.79l-2.88-3.57,2.05-1.65,2.46,3.05,1.35-1.09-1.85-2.29,2.01-1.62,1.84,2.29,1.83-1.47,1.78,2.21-1.83,1.47,1.44,1.79-1.28,1.04c1.23-.16,2.47-.43,3.66-.8l1.12,2.71c-1.95.58-3.91.9-5.81,1.05l1.15,1.42-1.58,1.28c2.65-.62,5.56-1.9,8.33-3.51l1.58,2.73c-1.27.69-2.58,1.36-3.85,1.92l4.3,5.33-2.21,1.78-.96-1.18ZM264.43,88.35c.7,0,1.46-.08,2.24-.22l-2.27-2.81c-.6,0-1.19-.03-1.78-.12l1.34,1.66.46.32v1.16ZM265.29,82.22l.26.32c.73,0,1.43,0,2.15-.08l-1.07-1.32-1.34,1.09ZM270.7,90.32c-1.44,1.63-2.7,3.31-3.69,5,1.75-.62,3.61-1.52,5.53-2.71l-1.84-2.29Z"/>
          <path class="cls-12" d="M277.8,125.84l-4.5-8.76-1.65.85c-1.21.62-1.95.66-2.8-.1-.8-.77-1.48-2.02-2.36-3.74.67-.49,1.39-1.35,1.87-2,.51,1.1,1.21,2.48,1.41,2.81.19.37.32.45.59.31l1.56-.8-4.77-9.29,2.16-1.11,4.77,9.29.67-.34c.75.66,1.7,1.27,2.63,1.84l-3.78-7.36,1.9-.98,5.13,9.97.43.5-.61,2.26c-1.57-.79-3.31-1.86-4.89-3.02l4.41,8.58-2.16,1.11ZM273.01,105.9l-1.33-2.59,4.7-2.42.88,1.72,6.6-3.92c.94,1.26,2.6,2.98,3.66,3.97l-1,1.94c-.8-.72-1.7-1.73-2.49-2.69l-.64.39,1.5,2.91-1.7.87-1.45-2.82-.76.45,1.45,2.82-1.17.6c.56.41,1.13.84,1.7,1.16.05-.58.08-1.14.1-1.67l1.73.71c0,.58-.02,1.2-.04,1.85.46.17.97.31,1.42.4l.39,2.06c-.66-.09-1.33-.27-2-.51-.08.74-.18,1.4-.34,1.94l-1.9-.76c.17-.52.3-1.17.44-1.91-.78-.38-1.49-.8-2.15-1.24l3.82,7.43.85-.32-1.39-2.7,1.7-.87,1.47,2.87.8-.36-1.44-2.8,1.7-.87,1.5,2.91.78-.34-1.58-3.07,1.72-.88,2.95,5.73c-2.47,1.12-5.47,2.44-7.7,3.35l.87,1.7-4.7,2.42-1.39-2.71,2.73-1.4-7.57-14.72-2.73,1.4ZM278.56,105.13l1.91,3.71c.17-.41.38-1.07.52-1.58l-.25.13-1.4-2.73-.78.46ZM286.43,110.07c.15-.45.24-1.05.35-1.69-.78-.38-1.49-.8-2.1-1.27.17-.46.41-1.46.49-2.05.54.48,1.16.91,1.79,1.28.03-.56.06-1.07.05-1.59l1.68.67c.02.54.01,1.15-.02,1.78.45.14.9.29,1.34.35l.39,2.06c-.6-.1-1.24-.26-1.85-.5-.09.62-.2,1.2-.3,1.66l-1.82-.72Z"/>
          <path class="cls-12" d="M266.02,235.89c-.07.14-.13.31-.12.4,0,.12.1.26.34.47.27.2.9.56,1.71,1.01-.6.21-1.44.82-1.97,1.33-.85-.5-1.75-1.11-2.05-1.47-.31-.36-.45-.82-.43-1.24,0-.4.22-.99.42-1.38l.65-1.26c.29-.55.78-1.11,1.36-1.27.58-.22,1.12-.14,2.54.59l4.23,2.2.47-.92c-3.13-2.03-5.26-4.24-5.12-8.44.74.03,1.97-.17,2.64-.43-.22,3.34,1.39,4.99,3.71,6.52l.7-1.35,5.2,2.7-4.57,8.81-5.2-2.7.93-1.79-4.3-2.23c-.32-.17-.5-.26-.65-.25-.1.03-.17.11-.25.25l-.24.46ZM273.95,228.68c-.69-.24-1.77-.51-2.32-.57-.22-4.33-.34-5.17-.56-5.75l.2.07c.77.2,2.05.42,2.8.38.02.47.19.92,1.02,1.34l2.65,1.38.52-1.01c-2.95-1.88-5.12-3.91-5.32-7.44.71.02,1.99-.19,2.66-.54.1,2.78,1.74,4.27,3.88,5.62l.71-1.37,5.24,2.72-4.28,8.24-5.24-2.72.62-1.19-2.63-1.37.05,2.2ZM275.71,233.78l-2.19,4.21,1.69.88,2.18-4.21-1.69-.88ZM276.06,243.47l5.3-10.21,2.13,1.11-.94,1.81c.69.13,1.4.26,2.04.33l-.67,2.35c-.84-.06-1.8-.18-2.58-.35l-.74,1.42c.6.63,1.31,1.35,1.88,1.82l-1.61,2.16c-.52-.62-.97-1.2-1.42-1.75l-1.26,2.42-2.13-1.1ZM280.8,223.93l-1.89,3.64,1.72.89,1.89-3.64-1.72-.89ZM280.78,245.3l4.92-9.47,2.06,1.07-1.72,3.32c.45.09.91.15,1.31.21l-.8,2.61c-.57-.03-1.24-.12-1.85-.24l-1.85,3.57-2.06-1.07ZM281.55,232.89l5.17-9.96,2.11,1.09-1.04,2.01c.69.13,1.43.22,2.08.3l-.66,2.39c-.84-.06-1.83-.17-2.63-.35l-.8,1.53c.61.61,1.32,1.32,1.92,1.78l-1.66,2.19-1.44-1.71-.93,1.79-2.12-1.07ZM286.06,235.12l4.91-9.45,2.06,1.07-1.8,3.48c.48.08.94.14,1.36.18l-.77,2.65c-.6-.02-1.32-.14-1.95-.23l-1.75,3.36-2.06-1.07Z"/>
          <path class="cls-12" d="M258.21,264.08c-2.13-3.01-3.29-6.09-3.57-9.16-1.99.57-3.91,1.56-5.8,2.98-.07-.89-.47-2.35-.82-3.2,2.16-1.46,4.34-2.41,6.58-2.91.2-2.44.83-4.85,1.85-7.28.85.26,2.31.52,3.18.51-1.02,2.1-1.7,4.24-1.95,6.37,2.28-.06,4.63.29,7.07,1.05l-.31.75.85-1.04,2.14,1.75-3.22,3.93,2.4,1.96,3.51-4.29,2.2,1.8-3.51,4.29,2.85,2.34-1.93,2.36-2.85-2.34-3.66,4.47-2.2-1.8,3.66-4.47-2.39-1.96-1.96,2.4-.24.5-1.88.99ZM263.04,254.91c-1.77-.52-3.62-.7-5.46-.54.13,1.84.61,3.7,1.48,5.41l3.98-4.87ZM264.55,250.82c.37-.86.76-1.74,1.17-2.61l-4.77-3.9c-1.16-.95-1.54-1.62-1.36-2.61.18-.95.9-1.96,2.06-3.38.66.41,1.85.88,2.69,1.11-.66.76-1.33,1.58-1.54,1.84-.23.28-.21.46.09.71l4.11,3.37,1.1-2.33,2.76,1.23c-.44.87-.97,1.88-1.51,3.03l3.53,2.89,1.88-2.29,2.2,1.8-1.88,2.29,3.77,3.09-1.93,2.35-3.77-3.09-1.6,1.96-2.19-1.8,1.6-1.96-2.95-2.42-1.04,2.21-2.42-1.48Z"/>
          <path class="cls-12" d="M242.27,288.31s-.71-.92-.93-1.24c-7.81-10.17-10.39-13.83-10.51-15.55-.08-1.26.22-1.9.86-2.68.65-.72,1.73-1.55,2.84-2.39.59.65,1.75,1.47,2.74,1.8-1.13.78-2.07,1.54-2.56,1.92-.34.27-.48.52-.44,1.02-.05,1.13,2.31,4.56,8.64,12.81l3.07-2.47c-4.97-6.47-8.91-12.4-6.54-19.57.88.35,2.26.63,3.24.57-2.34,6.31,1.23,11.33,5.71,17.06l2.79-2.25,1.84,2.29-10.77,8.66ZM245.18,270.27c-.57-.63-1.51-1.43-2.06-1.82,2.97-5.93,3.38-7.02,3.53-7.87.63.46,1.98,1.06,2.74,1.27-.23.62-.38,1.67.33,2.55l3.57,4.44,1.7-2,2.14,1.88-2.02,2.38,3.9,4.85-2.31,1.86-3.54-4.4-2.77,3.26-2.13-1.83,3.1-3.68-3.98-4.95-2.2,4.05Z"/>
          <path class="cls-12" d="M207.78,285.33l-1.26-2.46,11.24-5.76,1.01,1.98c.18-1.28.55-2.49,1.07-3.62.63.32,2.05.78,2.81.91-.37.68-.64,1.4-.84,2.14l3.53-1.81-.92-1.79,2.29-1.18,2.83,5.53c.04-.37.08-.74.13-1.11.58.51,2.01,1.49,2.82,1.83-.4,2.96.45,6.66,1.78,10.45l2.2-1.13,1.27,2.48-8.38,4.29-1.27-2.48,3.62-1.86c-.51-1.51-.97-3.04-1.33-4.53l-3.88,1.99-4.93-9.65c-.36,2.07-.1,4.34.58,6.74l1.74-.89,1.15,2.25-4.93,2.53.66,1.29,4.01-2.06,1.08,2.11-4.01,2.06.62,1.22,4.52-2.31,1.1,2.16-2.16,1.1c.63.55,1.46,1.11,2.22,1.5l-1.79,1.99c-1.01-.44-2.17-1.18-2.77-1.74l.76-.94-4.38,2.24,1.46-.25c-.1.95-.13,2.35-.05,3.24l-3.07.67c.12-1.13.24-2.18.4-3.01l-2.52,1.29-1.1-2.16,4.79-2.46-.62-1.22-4.36,2.23-1.08-2.11,4.36-2.23-.66-1.29-5.12,2.62-1.15-2.25,8.28-4.24c-.16-.59-.29-1.19-.43-1.75l-7.85,4.02-1.21-2.37,3.21-1.65-1.37-2.69-4.13,2.12ZM218.84,284.18c-.22-1.57-.28-3.04-.13-4.45l-4.2,2.15,1.37,2.69,2.5-1.28.46.9ZM227.67,285.66l1.79-.92-2.91-5.7-1.79.92,2.91,5.7Z"/>
          <path class="cls-12" d="M89,279.89c-.07.32-.1.69-.15,1.08,1.78.89,2.92,1.44,3.73,1.79-1.24-2.22-3.02-4.48-5.05-6.38.85-.13,2.12-.67,2.85-1.05,2.95,3.07,5.22,6.91,6.25,10.67,2.27-.76,4.71-1.01,7.24-.9-2.33-.61-5.14-1.12-6.97-1l-1.29-2.04c2.63-.26,6.12.26,8.81.96.04.59.17,1.44.4,2.18,1.26.08,2.52.28,3.8.55-.06.71.02,2.16.19,2.95-2.7-.74-5.41-1.07-7.86-.86,3.36,1.66,4.08,1.91,4.62,2.01-.13.58-.31,1.82-.36,2.56-.31-.09-.73-.07-1.16.1-.39.16-1.68.69-2.67,1.51l-.05-.06c-.15.57-.37,1.7-.48,2.41-.48-.19-1.06-.29-1.78-.32-.79-.08-3.22-.21-5.23.17l-1.65-2.49c1.13-.09,2.4-.12,3.62-.07l-5.91-3.27c.28.79.58,1.56.91,2.23l-2.55-.24c-.89-2.01-1.96-4.82-2.3-6.54l2.71.21c.08.38.16.84.3,1.37,9.49,5.07,11.13,6.03,12.21,6.33l-1.59-2.03c.67-.38,1.49-.71,2.28-1l-1.62-.86c-.04.42-.07.83-.04,1.2l-2.2-.57c.03-.67.06-1.43.12-2.14-.96.27-1.87.64-2.69,1.18l-2.02-2.11c.28-.17.54-.31.8-.46-.05-.33-.14-.68-.25-1.01-.28-.08-.69-.04-1.09.14-.33.16-1.48.75-2.34,1.56l-1.8-2.28c.59-.34,1.3-.74,2.03-1.02l-1.92-1c.03.46.07.91.12,1.33l-2.24-.35c-.29-1.54-.38-3.54-.17-4.73l2.45.3ZM93.08,274.79c4.74-1.38,10.72.14,16.86,2.71-.15.78-.18,1.95-.06,2.81-5.62-2.6-11.34-4.3-15.27-3.25l-1.54-2.27ZM94.35,278.54c3.57-.6,8.27.26,12.36,1.63-.06.71.04,1.82.22,2.64-3.73-1.43-8.27-2.56-11.17-2.14l-1.41-2.14Z"/>
          <path class="cls-12" d="M61.64,267.82l13.7-15.15,2.27,2.06-1.07,1.19,2.47,2.23,1.19-1.32,2.2,1.99-13.82,15.29-6.94-6.28ZM74.56,258.11l-8.67,9.58,2.47,2.23,8.67-9.58-2.47-2.23ZM70.76,273.8s.67-.75.95-1.01c7.54-7.99,10.32-10.8,11.71-11.15,1.03-.25,1.6-.08,2.35.36.66.39,1.52,1.17,2.38,2.02-.53.67-1.22,1.85-1.41,2.87-.71-.75-1.38-1.39-1.75-1.72-.29-.26-.53-.34-.96-.24-.83.19-3.13,2.42-9.02,8.71l1.93,1.75c4.81-4.94,9.35-8.62,14.38-9.22-.16.87-.1,2.31.16,3.17-4.34.49-8.16,3.68-12.34,8.04l2.22,2-2.01,2.22-2.24-2.02c-.94,1-1.89,2.05-2.87,3.14l-2.24-2.02c.97-1.07,1.92-2.12,2.87-3.14l-4.13-3.73Z"/>
          <path class="cls-12" d="M53.4,244.98l2.63-1.91-3.09-4.26,8.33-6.05,1.71,2.36-.75.55,4.54,6.26.86-.62,1.64,2.25-8.43,6.13-3.09-4.26-2.63,1.91,4.03,5.55-2.38,1.73-4.03-5.55-2.44,1.78c1.19,1.21,2.35,2.5,3.42,3.7-.53.54-1.25,1.58-1.6,2.28-2.93-3.29-6.47-6.71-9.05-8.34l.58-3.32c1.47.97,3.02,2.23,4.52,3.63l2.86-2.08-3.85-5.3,2.38-1.73,3.85,5.3ZM56.04,257.18c-.03,1.27.27,3.75.46,5.47l-2.81-.09c-.26-1.59-.66-4.07-.73-5.4l3.08.02ZM56.91,239.53l4.54,6.26,3.07-2.23-4.54-6.26-3.07,2.23ZM62.39,253.93c.02,1.29.34,3.8.56,5.52h-2.81c-.27-1.56-.72-4.07-.82-5.39l3.07-.12ZM72.51,252.06c-2.37.03-6.12.31-9.45.82l.35-3.03c2.99-.49,6.33-.9,9.27-1.1l-.17,3.32Z"/>
          <path class="cls-12" d="M34.02,217.32s.93-.39,1.26-.54c9.7-4.13,13.2-5.49,14.62-5.22,1.02.19,1.5.62,2.01,1.33.46.64.92,1.73,1.41,2.87-.75.4-1.74,1.21-2.31,2.03-.37-1.08-.75-1.98-.96-2.43-.16-.35-.36-.54-.76-.62-.86-.21-3.83.85-11.48,4.15l.96,2.12c6.44-2.54,11.76-3.65,16.67-1.12-.4.61-.87,1.64-1.11,2.48,1.88,3.22,3.76,6.45,5.12,8.89l-2.2,1.39c-.69-1.27-1.55-2.87-2.48-4.62l-1.41.64,1.87,4.14-1.97.89-1.87-4.14-.92.42,1.83,4.04-7.26,3.28-1.83-4.04-.92.41,2.09,4.63-2.02.91-2.09-4.63-.94.43c.71,1.32,1.39,2.63,1.98,3.89-.52.35-1.27,1-1.7,1.5-1.76-3.39-4-7.28-5.73-9.61l1.54-2.17c.82,1.13,1.69,2.49,2.55,3.94l1.15-.52-2.04-4.51,1.29-.58-1-2.21c-1.56.68-3.18,1.41-4.92,2.2l-1.21-2.68c1.71-.78,3.36-1.52,4.93-2.17l-2.16-4.77ZM53.4,225.59c-.7-1.3-1.44-2.63-2.18-3.94-3.37-.69-6.98.27-11.26,2.01l.97,2.14-1.83.83,2.04,4.51.92-.41-1.88-4.16,7.26-3.28,1.88,4.16.92-.41-1.92-4.25,1.97-.89,1.92,4.25,1.2-.54ZM44.02,227.62l-1.03.47.83,1.83,1.03-.47-.83-1.83ZM46.83,233.83l-.83-1.83-1.03.47.83,1.83,1.03-.47ZM46.52,228.7l1.06-.48-.83-1.83-1.06.48.83,1.83ZM48.72,230.76l-1.06.48.83,1.83,1.06-.48-.83-1.83Z"/>
        </g>
        <path id="_戶外學習" data-name="戶外學習" class="cls-16" d="M90.69,108.11c16.96-20.03,41.77-33.2,69.64-34.71l1.58-62.87c-49.43,1.14-93.35,24.55-122.12,60.59l50.9,36.98Z"/>
        <path id="_推廣活動" data-name="推廣活動" class="cls-6" d="M240.14,107.45c14.84,17.22,23.82,39.62,23.82,64.08,0,5.02-.38,9.96-1.11,14.78l61.37,13.67c1.65-9.24,2.51-18.75,2.51-28.46,0-38.45-13.48-73.74-35.96-101.43l-50.63,37.35Z"/>
        <path id="_增能培訓" data-name="增能培訓" class="cls-11" d="M69.88,193.38c-1.6-7.03-2.45-14.34-2.45-21.85,0-22.67,7.72-43.57,20.66-60.21l-50.83-36.93C16.8,101.38,4.66,135.03,4.66,171.53c0,13.64,1.7,26.88,4.89,39.52l60.33-17.67Z"/>
        <path id="_競賽表揚" data-name="競賽表揚" class="cls-8" d="M164.46,73.27c.41,0,.83-.02,1.24-.02,28.24,0,53.73,11.98,71.68,31.12l50.76-37.45c-29.47-34.46-73.23-56.33-122.1-56.43l-1.57,62.78Z"/>
        <path id="_在地行動" data-name="在地行動" class="cls-4" d="M262.14,190.37c-5.47,28.04-22.89,51.85-46.73,65.89l26.66,57.07c41.25-22.26,71.69-62,81.38-109.3l-61.31-13.66Z"/>
        <path id="_國際合作" data-name="國際合作" class="cls-17" d="M211.81,258.28c-13.76,7.34-29.46,11.51-46.11,11.51-12.35,0-24.17-2.3-35.06-6.47l-24.02,58.05c18.29,7.22,38.23,11.19,59.09,11.19,26.17,0,50.87-6.25,72.72-17.32l-26.61-56.96Z"/>
        <path id="_學習資源" data-name="學習資源" class="cls-18" d="M126.82,261.77c-27.17-11.75-48.03-35.43-55.93-64.4l-60.27,17.66c13.25,47.32,47.56,85.83,92.19,104.78l24.02-58.05Z"/>
        <g>
          <path class="cls-12" d="M29.72,170.66l8.52-.66,1.06,13.61-8.52.66-.23-2.93c-.76.43-1.72,1.1-2.46,1.73l-1.21-2.43c.78-.73,1.93-1.56,2.67-1.97l.92,1.61-.3-3.84c-1.11-.56-2.62-1.21-3.76-1.52l.7-3.15c.99.57,1.97,1.16,2.83,1.71l-.22-2.83ZM41.85,184.33l2.57-.75c1.17,2.31,2.4,4.79,3.43,6.82l-2.86,1.16c-.28-.75-.65-1.61-1.07-2.59l-7.7.6.17,2.24-2.71.21-.18-2.24-5.51.43-.21-2.71,5.51-.43-.17-2.17,2.71-.21.17,2.17,6.74-.53-.9-2.01ZM32.07,176.35l4.7-.37-.26-3.37-4.7.37.26,3.37ZM37.2,181.44l-.26-3.35-4.7.37.26,3.35,4.7-.37ZM35.9,175.92c-.98-.44-2.48-.95-3.51-1.19l.47-1.85c1.21.58,2.57,1.14,3.45,1.64l-.41,1.39ZM32.75,180.06c1.01-.75,2.34-1.47,3.28-1.72l.71,1.53c-.9.24-2.3.95-3.34,1.67l-.66-1.48ZM40.24,182.37l-.89-11.42,9.89-.77.21,2.76-1.18.09.47,6.01,1.18-.09.21,2.66-9.89.77ZM42.15,179.55l1.33-.1-.47-6.01-1.33.1.47,6.01ZM46.16,173.19l-1.13.09.47,6.01,1.13-.09-.47-6.01Z"/>
          <path class="cls-12" d="M29.06,156.37c1.89-.83,4.44-1.85,5.98-2.26l.73,2.67c-.46.1-1,.26-1.62.43-.11,6.27-.08,7.3.14,8.04-.58.08-1.96.39-2.73.6-.05-.45-.34-.91-.82-1.46-.48-.55-2.2-2.27-4.03-3.4l1.18-2.84c1.33,1,2.62,2.27,3.72,3.49l.15-3.61c-.75.29-1.48.55-2.11.8l-.59-2.45ZM38.87,150.53c-.34,2.94-1.51,3.6-4.23,3.29l-6.97-.81.34-2.89,2.89.33.7-6.03,2.5.29-.7,6.03,1.62.19c.91.1,1.27,0,1.36-.79l.42-3.58c.08-.69.12-1.72.06-2.28.77.04,1.84.04,2.51.02.11.54.04,1.57-.07,2.5l-.43,3.73ZM47.62,157.13c1.2.14,1.79.43,2.09,1.29.28.83.2,1.94.02,3.43-.7.04-1.7.33-2.38.62.15-.88.26-1.83.3-2.13.04-.32-.05-.43-.37-.46l-2.5-.29c.74,1.33,1.43,2.65,2.02,3.84l-1.79.41c1.64.46,3.24,1.2,4.41,2.27-.61.35-1.79,1.33-2.2,1.81-1.76-1.52-4.45-1.93-6.58-2.18l-5.52-.64,1.08-9.29,11.43,1.32ZM37.88,162.69l1.74.2-.91-1.35c.69-.77,1.67-1.72,2.39-2.38l-2.77-.32-.45,3.85ZM48.6,148.52c.1-.83-.3-1.05-2.54-1.44.51-.54,1.09-1.66,1.35-2.4,3.18.67,4.05,1.54,3.78,3.87l-.4,3.48c-.34,2.89-1.28,3.5-3.95,3.19l-7.7-.89.34-2.89,2.45.29.72-6.2,2.58.3-.72,6.2,2.67.31c.86.1,1-.06,1.12-1.04l.32-2.77ZM40.97,163.05c.93.11,2.03.29,3.12.54-.36-1.16-.93-2.69-1.54-4.25l-.81-.09,1.02,1.31c-.71.54-1.8,1.56-2.67,2.4l.88.1Z"/>
          <path class="cls-12" d="M45.86,138.13c-.03-.87-.07-1.73-.12-2.61l2.73.3c.25,2.78.53,5.72.71,8.06l-3.15-.05c0-.83-.02-1.82-.05-2.92l-7.22-2.31-.77,2.4-2.66-.85.77-2.4-5.24-1.68.8-2.49,5.25,1.68.73-2.28,2.66.85-.73,2.28,6.3,2.02ZM45.77,119.46l2.49.8-4.7,14.67-2.49-.8,1.05-3.29c-1.01-.17-2.53-.19-3.67-.11l.03-2.22-1.11,3.48-2.47-.79,1.66-5.17c-.77-.12-1.67-.2-2.45-.21l.4-2.62c.92-.04,2.07.01,2.92.13l1.64-5.13,2.47.79-1.12,3.5,1.16-1.91c1.06.83,2.18,1.71,3.05,2.48l1.15-3.6ZM38.57,128.25c1.22-.15,2.72-.16,3.66-.02v2.23s1.58-4.89,1.58-4.89c-.99-.86-2.44-1.92-3.56-2.57l-1.68,5.24ZM45.66,133.58l3.53-11.03,8.84,2.83-.86,2.68-.73-.23-1.87,5.83.82.26-.8,2.52-8.94-2.86ZM48.91,131.85l3.22,1.03,1.87-5.83-3.22-1.03-1.87,5.83Z"/>
          <path class="cls-12" d="M48.5,107.61l-4.46,8.11-2.03-1.12,2-3.63c-1.01-.11-2.39-.16-3.48-.14l.12-2.42c1.21-.1,2.76-.09,3.73.03l.02,1.81,2.07-3.76,2.03,1.12ZM44.69,103.46l1.33-2.42,7.58,4.17c4.13,2.27,8.36,4.94,10.44,9.15-.7.35-1.91,1.12-2.55,1.67l-.06-.15-2.34,4.26.91.5-1.15,2.1-7.47-4.11,3.63-6.6,6.21,3.42c-1.86-3.64-5.38-5.86-8.97-7.83l-7.55-4.15ZM51,109.99l-3.52,6.4-1.95-1.07,3.52-6.4,1.95,1.07ZM47.81,100.3l1.27-2.31,16.08,8.84-1.27,2.31-16.08-8.84ZM48.43,116.92l3.52-6.4,1.95,1.07-3.52,6.4-1.95-1.07ZM49.97,93.4l19.43,10.69-1.39,2.53-19.43-10.69,1.39-2.53ZM55.9,115.28l-1.31,2.38,2.42,1.33,1.31-2.38-2.42-1.33Z"/>
          <path class="cls-12" d="M81.74,66.48l7.05,7.48-2.19,2.06-.85-.9-8.32,7.83c1.52,2.4,2.68,5.18,2.57,8.06-.71-.11-2.32-.05-3.02.1.1-4.57-3.02-8.32-5.49-10.95l-4.91-5.21c3.33-3.74,6.85-8.21,8.61-11.23l3.21.03c-2.04,3.34-5.14,7.29-8.18,10.76l1.4,1.49,10.12-9.53ZM83.88,73.15l-2.47-2.63-7.93,7.46.17.18c.69.74,1.45,1.62,2.19,2.55l8.03-7.56Z"/>
          <path class="cls-12" d="M93.53,54.5l2.09-.61c4.36,9.07,4.53,16.11,1.42,21.48-.8-.34-2.5-.73-3.4-.78,1.69-2.61,2.52-5.55,2.31-8.86-1.24-.45-2.95-.89-4.56-1.27.03.8.02,1.56-.05,2.25-.7-.14-2.29-.25-3.09-.28.5-3.23-.43-7.46-2.04-11.46l2.78-1.14c.38,1.02.71,2.01,1.02,3.01l3.09-1.94.43-.39ZM90.72,59.68c.15.66.28,1.28.39,1.92,1.35.29,3,.59,4.37.96-.33-1.54-.87-3.15-1.6-4.86l-3.16,1.98ZM108.28,58.85c-1.33-.59-3.69-1.24-5.82-1.79l6.74,10.73-2.63,1.66-12.27-19.53,2.63-1.66,4.36,6.94.5-1.25c2.34.51,5.73,1.24,7.54,1.88l-1.05,3.02Z"/>
          <path class="cls-12" d="M114.37,54.7l-2.6,1-1.82-4.72,1.73-.67-3.05-6.68c1.29-.76,3.1-2.18,4.15-3.09l1.74,1.15c-.77.69-1.83,1.45-2.82,2.09l.3.65,2.92-1.13.66,1.7-2.83,1.09.35.77,2.83-1.09.45,1.17c.45-.49.92-.99,1.27-1.5-.54-.11-1.08-.19-1.58-.26l.85-1.57c.55.05,1.14.14,1.75.22.21-.42.4-.89.52-1.31l2-.16c-.16.62-.4,1.24-.69,1.85.7.16,1.31.31,1.81.52l-.92,1.73c-.48-.21-1.08-.4-1.77-.61-.44.7-.92,1.33-1.4,1.92l7.46-2.88-.22-.84-2.72,1.05-.66-1.7,2.88-1.11-.26-.8-2.81,1.08-.66-1.7,2.93-1.13-.25-.78-3.09,1.19-.67-1.73,5.76-2.22c.82,2.46,1.76,5.46,2.41,7.67l1.7-.66,1.82,4.72-2.72,1.05-1.06-2.74-14.79,5.71,1.06,2.74ZM133.84,52.16l-8.8,3.4.64,1.66c.47,1.22.43,1.93-.38,2.66-.82.69-2.08,1.2-3.81,1.87-.4-.69-1.15-1.46-1.72-1.98,1.1-.37,2.48-.91,2.82-1.06.37-.14.46-.26.35-.53l-.6-1.57-9.33,3.6-.83-2.17,9.33-3.6-.26-.67c.7-.64,1.38-1.49,2.02-2.31l-7.39,2.85-.74-1.91,10.02-3.87.52-.36,2.08.81c-.91,1.41-2.11,2.96-3.38,4.35l8.61-3.32.84,2.17ZM114.2,49.34l3.73-1.44c-.37-.2-.98-.47-1.45-.66l.1.25-2.74,1.06.36.79ZM119.71,42.35c-.41-.18-.98-.34-1.57-.5-.44.7-.92,1.33-1.42,1.87-.42-.21-1.35-.54-1.9-.67.51-.46.98-1.02,1.4-1.57-.54-.08-1.02-.16-1.51-.21l.81-1.53c.52.04,1.1.11,1.69.2.18-.42.37-.83.47-1.24l2-.16c-.15.56-.38,1.15-.66,1.71.58.15,1.12.31,1.55.46l-.87,1.66Z"/>
          <path class="cls-12" d="M146.44,42.03c-.18.68-.41,1.35-.63,1.94l7.7-1.37,1.82,10.23-3.01.54-.16-.88-10.4,1.85.16.88-2.87.51-1.82-10.24,5.71-1.02c.11-.5.19-1.04.26-1.5l-.07.04c-.7.45-1.77.64-3.25.9-.21-.61-.7-1.4-1.09-1.91.83-.12,1.78-.29,2.05-.34.27-.05.35-.16.31-.41l-1.03-5.79-4.69.83c1.07.36,2.34.89,3.02,1.34l-1.13,2.11c-.73-.57-2.26-1.28-3.46-1.67l.96-1.67-1.85.33-.4-2.24,9.75-1.73,1.43,8.05c.09.53.12.96.03,1.3l2.67-.1ZM140,40.95c-1.79,1.2-3.71,2.42-5.31,3.43l-1.42-2.18c1.49-.77,3.73-2.02,5.92-3.24l.81,1.99ZM150.89,45.33l-10.4,1.85.25,1.41,10.4-1.85-.25-1.41ZM151.78,50.31l-.25-1.41-10.4,1.85.25,1.41,10.4-1.85ZM154.72,38.8c.21,1.17.07,1.79-.69,2.31-.74.51-1.9.74-3.48,1-.24-.66-.74-1.5-1.17-2.05.93-.12,2-.31,2.29-.36.31-.08.4-.17.35-.44l-1.02-5.71-4.64.83c1.09.33,2.33.84,3,1.25l-1,1.98c.68-.4,1.39-.77,2.1-1.18l.8,1.99c-1.95,1.17-4.04,2.4-5.72,3.38l-1.36-1.99c1.06-.54,2.46-1.26,3.94-2.08-.8-.56-2.29-1.2-3.44-1.57l.91-1.64-1.58.28-.4-2.24,9.67-1.72,1.42,7.97Z"/>
          <path class="cls-12" d="M184.04,47.44c0,.7.11,1.76.23,2.28-3.83,1.59-4.55,1.96-5.01,2.35v-.2c-.07-.76-.27-1.98-.56-2.65.42-.17.76-.47.88-1.35l.39-2.84-1.08-.15c-.75,3.26-1.88,5.88-5,7.19-.21-.65-.81-1.73-1.34-2.23,2.48-.98,3.29-2.94,3.82-5.31l-1.47-.2.77-5.6,8.8,1.22-.77,5.6-1.27-.18-.39,2.81,1.97-.75ZM185.4,39.22l-10.63-1.47.31-2.25,2.15.3c-.11-.66-.26-1.36-.4-1.98l2.37-.17c.22.78.44,1.71.53,2.49l1.64.23c.35-.75.77-1.62.99-2.31l2.51.8-1.08,1.85,1.91.26-.29,2.25ZM185.96,34.43l-10.1-1.39.3-2.2,3.72.51c-.09-.46-.17-.9-.27-1.28l2.64-.16c.17.55.3,1.24.42,1.83l3.59.5-.3,2.2ZM177.56,42.78l3.89.54.25-1.84-3.89-.54-.25,1.84ZM193.09,52.28c.15.02.32.02.4-.02.1-.04.2-.17.31-.46.09-.31.21-.99.36-1.87.38.48,1.2,1.04,1.83,1.35-.18.92-.44,1.93-.67,2.33-.23.39-.59.67-.98.79-.36.12-.96.12-1.38.06l-1.34-.19c-.59-.08-1.25-.35-1.58-.82-.39-.45-.49-.97-.28-2.48l.62-4.53-.98-.14c-.83,3.48-2.14,6.11-5.97,7.33-.21-.68-.78-1.73-1.24-2.24,3.09-.87,4.06-2.86,4.69-5.44l-1.44-.2.76-5.56,9.41,1.3-.76,5.56-1.91-.26-.63,4.6c-.05.34-.07.54-.02.67.06.08.16.12.31.14l.49.07ZM196.69,40.78l-10.91-1.51.31-2.28,1.93.27c-.11-.66-.21-1.35-.36-1.94l2.34-.15c.22.78.42,1.68.51,2.44l1.51.21c.38-.75.79-1.61,1.04-2.28l2.46.76c-.39.67-.77,1.26-1.12,1.84l2.59.36-.31,2.28ZM196.84,35.94l-10.12-1.4.3-2.2,3.54.49c-.07-.43-.15-.87-.23-1.25l2.61-.11c.15.52.29,1.16.38,1.75l3.81.53-.3,2.2ZM188.07,44.2l4.5.62.25-1.81-4.5-.62-.25,1.81Z"/>
          <path class="cls-12" d="M213.83,58.05l-1.96-.67c1.75,1.2,3.44,2.44,4.6,3.31l-2.83.7c-1.32-1.11-3.61-2.86-5.92-4.41l1.39-.54-4.29-1.48.92,1.26c-2.24.3-5.69.08-8.44-.42-.2-.62-.67-1.69-.97-2.32,1.95.41,4.32.65,6.11.67l-2.1-.72,1.7-4.95c-1.04.14-2.09.22-3.12.21-.17-.71-.55-1.89-.95-2.55,2.03.18,4.22.02,6.06-.47l-4.46-1.53.65-1.89,5.62,1.94.23-.65-2.85-.98.48-1.4,2.85.98.25-.72-3.13-1.08.26-.75-2.36-.81,1.34-3.9,8.87,3.05c0-.37-.04-.72-.08-1.05l3.02.25c.1.56.19,1.27.21,1.88l8.26,2.84-1.34,3.9-2.33-.8-.26.75-3.15-1.08-.25.72,2.99,1.03-.48,1.4-2.99-1.03-.22.65,5.62,1.94-.65,1.89-3.9-1.34c1.09,1.29,2.54,2.49,4.03,3.45-.75.29-1.84,1.01-2.43,1.52-.79-.59-1.53-1.26-2.21-2.01l-1.81,5.25ZM203.57,52.22l-.25.72,8.31,2.86.25-.72-8.31-2.86ZM212.32,53.8l.24-.7-8.31-2.86-.24.7,8.31,2.86ZM207.31,39.9l.27-.79,2.54.88-.27.79,4.18,1.44.27-.79,2.59.89-.27.79,2.85.98.38-1.1-15.12-5.2-.38,1.1,2.96,1.02ZM213,51.84l.24-.7-8.31-2.86-.24.7,8.31,2.86ZM207.19,46.73c-.32.18-.62.36-.98.5l7.26,2.5c-.18-.32-.34-.67-.51-1.01l-5.76-1.98ZM208.4,45.03l4.18,1.44.23-.65-4.18-1.44-.23.65ZM209.1,42.97l4.18,1.44.25-.72-4.18-1.44-.25.72Z"/>
          <path class="cls-12" d="M240.28,65.58c-1.71.23-3.63.31-5.27.35.67,1.88,1.77,3.69,3.4,5.32-.85.2-2.2.83-2.95,1.31-3.59-4.04-4.5-8.66-3.6-14.02-1.29.38-2.68.64-4.11.8l-2.07,3.68,5.36,1.35c-.32.72-.71,1.87-.85,2.52-7.18-1.64-8.31-1.88-9.18-1.86.19-.69.32-2.12.22-2.85.61.03,1.5-.15,2.03-1.09l.9-1.59c-1.29-.02-2.51-.11-3.7-.33-.02-.77-.25-2.18-.49-3,2.82.63,6.12.75,8.85.34l-6.11-3.44,1.22-2.17,8.15,4.59.68-1.21-6.17-3.48,1.15-2.04,6.17,3.48.63-1.12-7.22-4.07,1.22-2.17,7.22,4.07.87-1.55,2.58,1.45-.87,1.55,7.48,4.22-1.22,2.17-7.48-4.22-.63,1.12,6.64,3.74-1.15,2.04-6.64-3.74-.68,1.21,8.21,4.63-1.22,2.17-7.22-4.07c-.2,1.31-.16,2.6,0,3.86,1.58-.13,3.35-.41,4.6-.72l1.24,2.77Z"/>
          <path class="cls-12" d="M249.13,71.84c-.69-.3-1.38-.64-2.08-.96l-3.85,4.44c-.96,1.1-1.66,1.54-2.55,1.35-.94-.16-1.88-.85-3.17-1.96.46-.65,1.01-1.84,1.26-2.7.69.67,1.46,1.33,1.72,1.52.22.19.38.2.62-.08l3.32-3.82-2.55-1.24,1.39-2.55c.84.47,1.89,1.02,3.04,1.62l2.91-3.36-2.16-1.88,1.76-2.03,2.16,1.88,3.04-3.51,2.12,1.85-3.04,3.51,1.55,1.34-1.76,2.03-1.55-1.34-2.46,2.84,1.74.86-1.47,2.19ZM253.72,74.72c-.44.17-.9.33-1.37.45l7.18,6.23s-.47.51-.72.72c-3.33,3.42-4.85,4.72-5.8,4.84-.75.11-1.23-.02-1.78-.4-.5-.33-1.26-.96-1.99-1.63.48-.63.92-1.55,1.08-2.34.59.64,1.13,1.11,1.41,1.35.24.21.43.34.74.28.47-.05,1.45-.8,3.54-2.91l-.62-.53c-2.8,1.42-5.8,2.16-8.39,2.17-.04-.59-.33-1.76-.55-2.41,2.25.19,4.73-.37,7-1.44l-.91-.79c-2.9,1.01-6.12,1.29-8.82.94-.02-.58-.14-1.79-.29-2.45,2.27.47,4.8.38,7.11-.24l-.93-.81c-1.13.17-2.23.19-3.25.12-.03-.61-.21-1.79-.38-2.42,1.84.25,3.87.06,5.72-.49l-1.98-1.72,1.55-1.79,11.22,9.75-1.55,1.79-7.21-6.27ZM261.86,77.24l-8.67-7.53,5.41-6.23,8.67,7.53-5.41,6.23ZM261.88,73l-4.6-4-.83.95,4.6,4,.83-.95ZM263.9,70.67l-4.6-4-.83.95,4.6,4,.83-.95Z"/>
          <path class="cls-12" d="M276.08,118.72l-5.27-8.79-1.31.79-1.45-2.41,11.37-6.83c-.86-.09-1.7-.19-2.49-.35.07-.22.16-.5.27-.8l-1.53,1.24c-.61-.53-1.24-1.1-1.85-1.68l-5.06,3.04c-1.21.72-1.99.91-2.82.48-.82-.4-1.46-1.28-2.29-2.66.64-.47,1.52-1.4,2.05-2.15.42.75.87,1.49,1.04,1.74.15.25.28.32.58.14l4.32-2.59-1.77-1.7,2.05-2.01c.61.64,1.36,1.4,2.2,2.22l3.85-2.31-1.41-2.35,2.31-1.39,1.41,2.35,3.89-2.34,1.46,2.43-3.9,2.34,1.26,2.1-2.31,1.39-1.26-2.1-3.2,1.92,1.18,1.16c.13-.51.25-1.02.31-1.4,3.06.78,7.16.65,10.84-.27l.79,2.75c-1.18.25-2.36.44-3.55.61l1.73,2.88c.64-.76,1.36-1.82,1.88-2.77l2.16,1.67c-.53,1.09-1.4,2.42-2.04,3.18l-1.31-.94,2.41,4.02-2.31,1.39-2.03-3.39-1.88,1.13,1.89,3.15-2.22,1.34-1.89-3.15-1.91,1.14,1.88,3.13-2.22,1.34-1.88-3.13-1.99,1.2,2.31,3.85-2.31,1.39ZM273.11,108.55l1.55,2.58,1.99-1.2-1.55-2.58-1.99,1.2ZM280.78,107.46l-1.55-2.58-1.91,1.15,1.55,2.58,1.9-1.15ZM284.89,104.99l-1.55-2.58-1.89,1.13,1.55,2.58,1.88-1.13Z"/>
          <path class="cls-12" d="M302.54,133.54l-2.32.84-6.11-16.82-4.71,1.71c-3.76,1.37-9.43,3.05-13.72,2.25.23-.66.51-2.08.5-2.81,4.01.75,8.84-.84,12.25-2.08l7.04-2.55,3.11,8.56c.4-.28.79-.57,1.11-.85l1.63,2.67c-.47.43-1.06.91-1.6,1.31l2.82,7.77ZM284.42,134.1c.01,2.2-.02,4.5-.12,5.98l-2.38-.55c.14-1.71.32-4.48.33-6.98l1.74.37-1.62-4.46-.83,2.14c-1.59-1.71-3.61-4.02-4.92-5.67.38-.53,1-1.44,1.36-2.12,1.08,1.39,2.72,3.29,4,4.59l-1.31-3.62,6.66-2.42,5.19,14.29-6.66,2.42-1.44-3.97ZM283.16,125.68l1.23,3.39,1.02-.37-1.23-3.39-1.02.37ZM287.51,134.5l-1.17-3.23-1.02.37,1.17,3.23,1.02-.37ZM285.66,124.77l1.23,3.39,1-.36-1.23-3.39-1,.36ZM289.15,119.83l5.94,16.36-1.56.56-5.94-16.36,1.56-.56ZM290,133.6l-1.17-3.23-1,.36,1.17,3.23,1-.36ZM296.06,123.65l-.88.32,1.6,4.41.88-.32,1,2.76-.88.32,1.04,2.88-1.53.56-1.04-2.88-1.95.71-3.55-9.79,1.95-.71-.97-2.67,1.53-.56.97,2.67.88-.32.95,2.62ZM293.64,124.53l-.79.29,1.6,4.41.79-.29-1.6-4.41Z"/>
          <path class="cls-12" d="M284.9,141.02c2.03,1,5.35,2.41,8.41,3.42l-1.62,2.43c-2.76-.89-5.79-1.99-8.39-3.1l1.59-2.75ZM298.11,155.38l-3.07.48.78,4.97-9.73,1.53-.43-2.75.88-.14-1.15-7.32-1,.16-.42-2.63,9.85-1.55.78,4.97,3.07-.48-1.02-6.49,2.78-.44,1.02,6.48,2.85-.45c-.49-1.55-.92-3.15-1.31-4.64.69-.23,1.75-.8,2.35-1.24,1.07,4.08,2.6,8.54,4.09,11.05l-1.94,2.58c-.83-1.47-1.61-3.22-2.27-5.06l-3.34.53.98,6.19-2.78.44-.98-6.19ZM292.75,158.5l-1.15-7.31-3.58.56,1.15,7.31,3.58-.56ZM294.34,143.83c.55-1.11,1.37-3.39,1.92-4.95l2.39,1.22c-.45,1.45-1.15,3.78-1.64,4.96l-2.67-1.23ZM301.16,143.83c.58-1.07,1.4-3.32,1.98-4.86l2.36,1.3c-.47,1.47-1.21,3.76-1.72,4.92l-2.61-1.36Z"/>
          <path class="cls-12" d="M302.83,186.67s-.96-.06-1.31-.07c-10.08-.59-13.65-.92-14.76-1.75-.79-.6-1.02-1.17-1.16-1.99-.12-.75-.05-1.88.01-3.06.82-.02,2.01-.3,2.84-.76-.14,1.08-.2,2.02-.21,2.49-.01.37.08.62.39.85.65.54,3.65.9,11.61,1.34l.08-2.22c-6.6-.56-11.64-1.89-14.77-6.15.61-.35,1.45-1.03,2.01-1.66-.24-3.56-.48-7.13-.61-9.8l2.48-.25c.05,1.38.11,3.12.16,5.02l1.48.05.16-4.34,2.07.08-.16,4.34.96.04.15-4.24,7.62.28-.15,4.24.96.04.18-4.86,2.12.08-.18,4.86.99.04c-.05-1.43-.07-2.84-.05-4.18.6-.08,1.52-.31,2.1-.56.06,3.66.33,7.94.82,10.68l-2.24,1.2c-.22-1.32-.39-2.86-.51-4.46l-1.21-.04-.17,4.74-1.36-.05-.08,2.32c1.63.08,3.33.15,5.16.21l-.1,2.81c-1.8-.07-3.53-.13-5.16-.24l-.18,5.01ZM289.73,171.31c.05,1.41.12,2.87.19,4.3,2.59,2.02,6.1,2.74,10.51,3.08l.08-2.25,1.92.07.17-4.74-.96-.04-.16,4.37-7.62-.28.16-4.37-.96-.04-.16,4.46-2.07-.08.16-4.46-1.26-.05ZM296.96,171.58l-1.11-.04-.07,1.92,1.11.04.07-1.92ZM295.94,168.88l1.11.04.07-1.92-1.11-.04-.07,1.92ZM298.64,173.57l1.09.04.07-1.92-1.08-.04-.07,1.92ZM298.87,167.06l-.07,1.92,1.08.04.07-1.92-1.09-.04Z"/>
          <path class="cls-12" d="M280.02,217.05l-2.01,5.49-2.55-.94,5.1-13.88,2.55.94-2.06,5.61,5.28,1.94,1.73-4.7,2.55.94-1.73,4.7,3.85,1.41-1.02,2.78-3.85-1.41-1.68,4.59-2.55-.94,1.68-4.59-5.28-1.94ZM293.29,228.24l-2.64-.97,4.55-12.39c-1.32-1.35-2.55-2.8-3.57-4.39l-11.22-4.12,1.03-2.8,8.06,2.96c-.36-.87-.64-1.71-.87-2.63.85-.03,2.33-.19,3.17-.39.68,3.01,2.4,5.85,4.56,8.22l1.85-5.03,2.64.97-2.3,6.25c.94.79,1.88,1.53,2.85,2.2l-1.76,2.64c-.76-.57-1.49-1.18-2.2-1.81l-4.14,11.28Z"/>
          <path class="cls-12" d="M267.62,239.53c-.69,1.14-.33,1.64,1.7,3.14-.71.32-1.69,1.02-2.24,1.64-2.75-2.13-3.33-3.46-1.83-5.93l2.72-4.5c1.73-2.85,3.01-3.2,5.9-1.44l5.45,3.3.21-1.43,2.78.42-.37,2.61,5.55,3.37-1.46,2.41-4.52-2.74-.32,2.2,5.83,3.54-1.42,2.34-4.81-2.92-.4,2.9-1.76,1.53-.33-.31c-2.86-1.91-6.52-4.53-8.75-6.58l1.81-1.7c1.57,1.27,4.15,3.06,6.59,4.66l.27-2.06-7.45-4.52,1.42-2.34,6.44,3.91.3-2.21-6.52-3.96c-1.22-.74-1.53-.67-2.31.62l-2.47,4.07ZM279.32,233.76l-2.58-.79c.25-2.85.55-5.9.85-8.35l3.15.53c-.2.95-.42,2.08-.63,3.37l5.59,3.39,1.38-2.28,2.39,1.45-1.38,2.28,4.58,2.78-1.41,2.32-4.58-2.78-1.19,1.96-2.38-1.45,1.19-1.96-4.62-2.81-.34,2.33Z"/>
          <path class="cls-12" d="M256.53,266.43l2.27-2.5-6.42-5.82c-1.17-1.06-1.58-1.83-1.18-2.93.37-1.07,1.39-2.27,2.87-3.9.72.49,1.91,1.06,2.81,1.35-1,.99-2.09,2.2-2.37,2.54-.3.33-.34.52-.07.77l6.37,5.77,4.89-5.39,2.07,1.87-9.17,10.11-2.07-1.88ZM269.05,259.42c-.44-1.39-.77-2.93-1.03-4.49l-9.55-8.66,1.97-2.18,7.15,6.49c-.03-.96-.04-1.87,0-2.73.72.09,2.37.25,3.23.23-.41,3.03-.09,6.94.91,9.99l-2.69,1.35ZM261.98,270.53l8.06-8.89,2.07,1.88-8.06,8.89-2.07-1.87ZM273.56,262.28c-.53-2.88-.62-6.56-.25-9.39.72.16,2.1.41,2.87.4-.41,2.4-.33,5.63.15,7.67l-2.77,1.32Z"/>
          <path class="cls-12" d="M239.96,285.87s-.56-.79-.76-1.07c-5.85-8.24-7.83-11.23-7.88-12.61-.03-.99.28-1.53.83-2.16.51-.56,1.43-1.22,2.4-1.91.53.62,1.49,1.38,2.37,1.74-.93.57-1.7,1.11-2.07,1.39-.3.22-.43.45-.42.84-.02.84,1.58,3.41,6.23,9.9l1.78-1.33c-3.7-5.5-5.82-10.26-4.46-15.38.65.25,1.71.48,2.55.53,2.63-2.42,5.26-4.84,7.26-6.61l1.75,1.78c-1.05.9-2.36,2.04-3.81,3.27l.88,1.19,3.48-2.59,1.24,1.67-3.48,2.59.58.77,3.4-2.54,4.56,6.12-3.4,2.54.57.77,3.9-2.91,1.27,1.71-3.9,2.9.59.79c1.09-.93,2.17-1.83,3.23-2.65.43.42,1.2.99,1.75,1.28-2.81,2.34-5.98,5.23-7.81,7.33l-2.34-1c.89-1,1.98-2.09,3.16-3.19l-.72-.97-3.8,2.83-.81-1.09-1.86,1.39c.95,1.32,1.97,2.69,3.06,4.16l-2.26,1.68c-1.08-1.45-2.11-2.83-3.04-4.17l-4.02,2.99ZM243.72,266.04c-1.07.92-2.16,1.89-3.24,2.84.05,3.29,1.68,6.48,4.18,10.13l1.8-1.34,1.15,1.54,3.8-2.83-.57-.77-3.5,2.61-4.56-6.12,3.5-2.61-.58-.77-3.58,2.67-1.24-1.67,3.58-2.67-.75-1.01ZM248.04,271.84l-.66-.89-1.54,1.15.66.89,1.54-1.15ZM247.55,274.4l.65.87,1.54-1.15-.65-.87-1.54,1.15ZM249.52,269.36l.66.89,1.54-1.15-.66-.89-1.54,1.15ZM252.77,270.51l-1.54,1.15.65.87,1.54-1.15-.65-.87Z"/>
          <path class="cls-12" d="M202.83,306.57l-7.08-20.91,2.76-.94.33.98,14.54-4.93-.33-.98,2.64-.9,7.08,20.91-19.94,6.76ZM199.68,288.18l5.06,14.95,2.85-.97c-.85-.13-1.8-.38-2.37-.68l.6-1.3-1.12.38-.67-1.96,4.18-1.42c-.56-1.27-1.11-2.44-1.66-3.43-.17,1.05-.18,2.15-.11,3.3l-2.27.3c-.13-2.23.1-4.31.64-6.19-.55-.62-1.05-.95-1.48-.91-.3.02-.18,1,.18,2.39-.56-.28-1.62-.62-2.17-.72-.6-3,.31-4.3,2.09-4.13.78,0,1.55.34,2.28.95.49-1,1.06-1.95,1.76-2.81.45.32,1.5.95,2.09,1.17-.21.23-.41.48-.61.73,1.78-.92,3.53-1.8,4.99-2.58l.95,1.95c-1.65.74-3.98,1.87-6.3,3.02l-.45-1.18c-.29.52-.53,1.04-.76,1.59,1.06,1.52,2.09,3.54,3.08,5.79l6.5-2.2.67,1.97-6.33,2.15c.27.64.51,1.29.79,1.95l-2.29.78c-.25-.67-.5-1.32-.77-1.96l-2.52.86c.63.25,1.5.51,2.22.63l-.71,1.44,11.27-3.82-5.06-14.95-14.54,4.93ZM209.32,290.73l5.21-1.77,1.51,4.45-5.21,1.77-1.51-4.44ZM212.2,293.06l1.57-.53-.51-1.5-1.57.53.51,1.5Z"/>
          <path class="cls-12" d="M176.2,295.18c-1.21-1.06-2.99-2.56-3.86-3.51l2.06-1.72c.8.96,2.54,2.55,3.76,3.7l-1.96,1.54ZM185.23,299.72c.65-.93,1.38-1.76,2.21-2.44.36.42,1.1,1.12,1.6,1.5-.34-.83-.52-1.6-.61-2.29-.21-1.57-.06-2.66.62-3.32.3-.34.72-.57,1.22-.74.41-.11.95-.18,1.46-.22.11.66.48,1.68.96,2.31-.42,0-.74.05-.98.11-.24.03-.46.11-.61.28-.24.26-.28.84-.18,1.57.16,1.15.62,2.73,2.15,4.29-.26,1.56-.43,3.6-.59,5.24l1.79-.24-2.61-19.26,2.49-.34,2.96,21.86-5.14.7-.38.15-1.92-.76c.13-1.04.3-2.21.5-3.33-1.17,1.5-1.95,3.43-2.33,5.43l-2.19-.2c.09-.44.18-.87.32-1.31l-1.83.25-.38.15-1.52-.37.04-.45-1.18.46.13,1.13-3.87.52-.45.19-1.69-.72c.39-2.1,1.22-4.4,2.17-6.03-1.11-1.17-2.43-2.11-3.84-2.64.47-.54,1.09-1.54,1.37-2.23,1.19.54,2.24,1.27,3.24,2.18l-.2-1.49,7.14-.97.14,1.05ZM179.48,295.34l-.95-7.05,2.74-.37.95,7.05,4.57-.62.31,2.32-11.84,1.61-.31-2.33,4.52-.61ZM180.25,308.02c-.38-.79-.81-1.54-1.3-2.24-.34.77-.65,1.66-.85,2.53l2.15-.29ZM178.87,301.85c1.4,1.48,2.57,3.37,3.53,5.45.33-2.36.99-4.45,1.98-6.2l-5.5.75ZM183.16,293.09c.7-1.64,1.8-3.66,2.7-4.93.62.39,1.84.92,2.52,1.18-.94,1.15-1.94,2.8-2.49,4.25l-2.73-.5ZM186.62,306.68l.13-.32c-.57-.32-1.19-.69-1.71-1.02-.16.5-.28,1.04-.38,1.6l1.96-.27ZM186.35,302.13c-.24.41-.48.89-.69,1.36.55.4,1.26.85,1.91,1.26.38-.72.79-1.38,1.26-1.94.33.25.96.67,1.5.97.11-.84.27-1.68.42-2.42-.79-.87-1.33-1.71-1.68-2.51-.88.67-1.63,1.57-2.31,2.61.93-.3,1.72-.56,2.62-.85l.51,1.75c-.99.21-2.03.47-3.35.8l-.19-1.02Z"/>
          <path class="cls-12" d="M156.68,310.05c.29-.35.59-.71.88-1.04-2.98-3.12-6.16-4.99-9.42-6.39.8-.65,1.73-1.68,2.18-2.57,1.15.64,2.32,1.3,3.44,2.03l.09-1.6,12.32.72-.07,1.21c1.12-.6,2.27-1.15,3.41-1.61.42.87,1.22,2.02,1.99,2.81-4.64,1.53-9.47,4.24-12.28,7.94l-2.53-1.51ZM167.9,299.18l-15.9-.93.59-10.18,3.13.18-.06.99,9.76.57.06-1.08,3.01.18-.6,10.28ZM165.05,296.42l.23-3.89-9.76-.57-.23,3.89,9.76.57ZM155.4,303.27c1.35,1.04,2.71,2.26,4.08,3.78,1.33-1.23,2.76-2.31,4.27-3.29l-8.35-.49Z"/>
          <path class="cls-12" d="M129.84,299.5l.65-2.51-6.19-1.6.67-2.58,6.19,1.6.7-2.7-6.5-1.68.68-2.63,6.5,1.68,1.37-5.31,2.92.75-4.06,15.74.91.23c1.41-1.52,2.93-2.87,4.33-3.83.32.64,1.18,1.94,1.66,2.55-2.66,1.61-5.44,4.57-7.39,7.71l-2.57-1.4c.59-.92,1.23-1.8,1.94-2.66l-9.27-2.39.7-2.7,6.79,1.75ZM135.96,307.1c1.05-1.51,2.28-3.01,3.58-4.38l4.23-16.38,2.87.74-3.08,11.96c.66-.47,1.31-.94,1.93-1.34.08.76.48,2.6.79,3.44-2.73,1.59-5.69,4.45-7.76,7.54l-2.55-1.58Z"/>
          <path class="cls-12" d="M106.35,282.24l2.36,1.49-2.71,4.28-1.56-.99-3.55,6.43c-1.38-.58-3.6-1.2-4.95-1.5l-.11-2.09c1.01.2,2.25.61,3.36,1.02l.34-.63-2.65-1.68.98-1.54,2.57,1.62.41-.74-2.57-1.62.67-1.06c-.66-.07-1.34-.15-1.96-.13.24.5.49.98.73,1.43l-1.77.25c-.28-.47-.56-1-.87-1.54-.46.09-.95.21-1.37.36l-1.32-1.51c.59-.24,1.23-.42,1.9-.55-.29-.65-.53-1.24-.67-1.77l1.94-.29c.12.51.32,1.11.56,1.79.83-.06,1.61-.06,2.38-.01l-6.76-4.28-.55.68,2.46,1.56-.98,1.54-2.61-1.65-.49.68,2.54,1.61-.98,1.54-2.65-1.68-.48.66,2.79,1.77-.99,1.56-5.21-3.3c1.49-2.12,3.33-4.67,4.73-6.5l-1.54-.98,2.71-4.28,2.46,1.56-1.57,2.48,13.39,8.48,1.57-2.48ZM93.25,285.31c.1.44.31.99.53,1.56.83-.06,1.62-.06,2.35.03.09.46.37,1.4.59,1.92-.67-.13-1.4-.19-2.1-.19.25.48.47.91.73,1.34l-1.71.26c-.28-.44-.57-.95-.85-1.47-.44.1-.89.2-1.28.36l-1.32-1.51c.54-.21,1.15-.38,1.77-.49-.23-.56-.42-1.09-.56-1.52l1.85-.29ZM92.71,268.11l7.97,5.05.95-1.5c.7-1.11,1.29-1.49,2.36-1.28,1.04.25,2.2.96,3.77,1.95-.32.73-.49,1.79-.57,2.56-.95-.66-2.21-1.46-2.53-1.63-.33-.21-.48-.21-.64.04l-.9,1.42,8.45,5.35-1.24,1.96-8.45-5.35-.38.61c-.94-.18-2.02-.23-3.06-.24l6.7,4.24-1.1,1.73-9.07-5.75-.6-.21-.59-2.16c1.68-.11,3.64-.07,5.5.12l-7.8-4.94,1.24-1.96ZM102.14,285.57l-3.38-2.14c.06.42.2,1.06.33,1.55l.15-.23,2.48,1.57.42-.76Z"/>
          <path class="cls-12" d="M69.54,259.31c.81-.86,1.4-1.12,2.26-.82.85.29,1.72,1.08,2.87,2.21-.38.59-.76,1.49-.95,2.16-.65-.68-1.44-1.43-1.65-1.63-.25-.2-.37-.22-.56-.02l-3.98,4.22,3.43,3.24c-.38-1.07-.71-2.37-.79-3.16l2.19-.38c-.72-.31-1.45-.66-2.19-.98l1.12-1.83c2.1.86,4.33,1.81,6.12,2.58l-.79,2.28c-1.06-.53-2.48-1.22-4.02-1.93.03.98.4,2.56.79,3.7l-1.86.25,1.17,1.1-1.56,1.65-7.14-6.75,5.56-5.89ZM77.06,264.03c.66-.26,1.33-.48,1.94-.65l-5.69-5.37,7.14-7.56,2.23,2.1-.61.65,7.68,7.25.61-.65,2.12,2-7.14,7.56-4.22-3.98c-.47.21-.95.46-1.36.69l.07.03c.78.29,1.57,1.04,2.66,2.07-.37.53-.71,1.4-.89,2.02-.59-.59-1.29-1.25-1.49-1.44-.2-.19-.34-.18-.51,0l-4.04,4.27,3.46,3.27c-.34-1.07-.68-2.41-.72-3.23l2.36-.35c-.03.93.32,2.58.72,3.77l-1.91.23,1.36,1.29-1.56,1.65-7.2-6.8,5.61-5.95c.37-.4.7-.67,1.03-.8l-1.67-2.08ZM77.06,258.5l7.68,7.26.98-1.04-7.68-7.25-.98,1.04ZM80.02,269.85c2.03.73,4.15,1.54,5.91,2.22l-.91,2.44c-1.5-.74-3.84-1.79-6.12-2.83l1.12-1.83ZM80.53,254.81l-.98,1.04,7.68,7.25.98-1.04-7.68-7.25Z"/>
          <path class="cls-12" d="M53.98,246.55c.29-1.84-.73-4.33-2.52-7.15.81.15,2.07.1,2.86-.04,1.32,2.45,1.93,4.66,1.73,6.72,1.43.13,3.4,1.24,6.19,4.35-.27.43-.54,1.11-.73,1.74l3.8,5.33-1.83,1.3-4.33-6.07,1.23-.87c-3.14-3.55-4.4-3.41-5.15-2.88l-.3.21.86,1.21c.96-.05,1.91,0,2.73.17-.09.64-.04,1.94.04,2.64-1.64-.44-3.56-.31-5.26.2l-1.03-2.42c.37-.11.76-.21,1.13-.29l-4.07-5.71-.36-.29-.66-1.99c1.48-.27,3.23-.48,4.49-.42l.64,2.34c-.48,0-1.09.05-1.67.13l1.59,2.23.4-.29.22-.16ZM65.41,237.58c-.63-2.34-1.24-4.88-1.5-6.48l2.82,1.23c.15,1.62.66,4.41,1.35,6.92l-1.86-.52,4.04,5.67-.44-2.32c2.22.9,5.07,2.78,7.08,4.41-.18.73-.46,2.21-.49,3.02-1.74-1.67-3.88-3.39-5.58-4.3l2.06,2.9-8.16,5.82-9.59-13.45,8.16-5.82,2.09,2.94ZM58.12,254.15l3.67,5.15-1.75,1.25-3.67-5.15,1.75-1.25ZM65.39,249.97l-6.21-8.71-.87.62,6.21,8.71.87-.62ZM67.6,248.39l-6.21-8.71-.86.62,6.21,8.71.86-.62ZM69.85,246.79l-6.21-8.71-.9.65,6.21,8.71.91-.64Z"/>
          <path class="cls-12" d="M50.26,217.07l4.86-2.21c1.15-.52,1.86-.63,2.58,0,.71.6,1.23,1.64,1.83,3.02-.65.43-1.46,1.15-1.98,1.74-.33-.8-.74-1.7-.86-1.96-.12-.27-.23-.33-.48-.22l-4.79,2.18,1.61,3.55-8.12,3.69-1.36-2.99c-.75.07-1.52.18-2.17.31l1.97,4.34,3.8-1.73c3.98-1.81,10.1-4.1,15.05-3.12-.21.67-.42,2.12-.42,2.9-4.61-.94-9.81,1.15-13.45,2.81l-6.21,2.82-6.37-14.03,2.41-1.09,2.98,6.57-.68-2.7c.63.07,1.25.13,1.85.19l-1.95-4.29,8.12-3.69,1.79,3.93ZM46.37,232.75c-.27,1.07-.56,3.24-.75,4.74l-2.6-.66c.11-1.43.29-3.6.48-4.75l2.88.67ZM46.99,223.06l-2.36-5.19-1.24.56,2.36,5.19,1.24-.56ZM50.04,221.67l-2.36-5.19-1.26.57,2.36,5.19,1.26-.57ZM52.81,231.1c-.26,1.1-.49,3.23-.66,4.7l-2.6-.64c.05-1.38.19-3.53.37-4.67l2.88.62ZM49.58,213.83c1.02-1.33,2.39-3.15,3.28-4.12l2.2,1.98c-.99.94-2.47,2.69-3.56,4.06l-1.93-1.92ZM53.35,219.71c1.94-.04,4.28.17,5.81.48-.18.68-.3,1.96-.33,2.67-1.47-.36-3.43-.56-5.08-.49l-.4-2.67ZM55,227.75c2.79-.24,5.85-.38,8.53-.38l-.35,3.11c-2.18-.15-5.59-.12-8.66.11l.47-2.84Z"/>
        </g>
      </g>
      <g id="_地球" data-name=" 地球">
        <ellipse class="cls-9" cx="165.34" cy="170.86" rx="100.52" ry="100.58"/>
        <g>
          <ellipse class="cls-5" cx="165.33" cy="170.89" rx="95.46" ry="95.51"/>
          <g>
            <path class="cls-3" d="M78.36,143.02c.96,3.19,4.84,9.36,4.84,9.36l6.31,5.55,1.36-3.55,21.55-4.84,6.47,1.86,5.72,6.27s6.37,6.2,8.49,6.39,2.35-6.92,2.35-6.92l-5.91-12.28,4.88-3.75s5.41-1.04,13.78,1.55c8.38,2.6,19.52,5.32,19.52,5.32l6.26-9.78s3.01-13.53,1.97-18.94-12.13-15.61-12.13-15.61l-22.18-9.78s-3.58-8.31-5.82-13.82c-27.38,8.88-49.28,29.66-59.59,56.55-.43,1.11-.82,2.2-1.2,3.32,1.47.68,2.91,1.69,3.34,3.09h0Z"/>
            <path class="cls-3" d="M206.71,118.91l-11.29,10.67-4.38,4.88-4.83,10.96-.44,11.71,3.31,4.4,3.16,9.66-10.85-1.04-9.42.13-12.04,6.94-7.22,18.8,5.97,12.93,7.71,9.22-10.11,17.37-.29,10.52,9.51,6.16,8.42-2.39,10.32-5.72,7.29-14.08,10.22-1.38s4.27,7.59,8.53-6.73c4.25-14.31,6.74-2.1,4.25-14.31-2.49-12.22-1.17-10.77-1.17-10.77l-9.32-12.35-1.14-15.76,2.43-8.76-2.24-5.55,12.55,2.33,9.68,6.53,4.08,5.64,8.42,1.68s4.33-8.03,9.63-4.74c5.3,3.29,2.47-1.55,5.3,3.29l2.83,4.84,5.12,1.84c1.56-30.79-11.8-60.45-35.88-79.67l-7.63,18.34-10.45,4.42h0Z"/>
            <path class="cls-3" d="M259.88,184.15l-10.86-4.55-9.34,6.41-15.33-4.03-4.61,7.92,4.54,15.82s5.61,6.53,3.14,12.15-8.4,8.03-8.4,8.03l-6.18,7.94-2.05,12.66,2.61,6.89c18.77-10.92,33.25-27.94,41.01-48.22,2.61-6.78,4.44-13.83,5.46-21.02h0Z"/>
            <path class="cls-3" d="M134.71,252.58l-9.74-7.18,2.97-8.55,2.35-15.04-3.58-8.57-1.8-9.14,8.04-6.29-.98-16.95-22.46-13.95-11.48.59-14.2,3.61-13.05-13.54c-6.2,44.04,18.8,86.54,60.29,102.51,6.09,2.34,12.39,4.06,18.82,5.12l-7.47-11.5-7.71-1.09-.02-.02Z"/>
          </g>
          <path class="cls-3" d="M215.9,164.13l-4.32-1.02-2.62,9.06-1.49,10.57,4.51,3.87,4.19-3.1-.36-7.42,1.4-3.1,1.51-3.92-2.81-4.94h0Z"/>
          <path class="cls-3" d="M149.97,147.33c-1.3-.5-9.23-1.62-9.23-1.62l-3.4,3.84,2.58,7.21-.69,6.81,3.45,2.18,7.63-3.71,3.2-4.98.49-7.95-4.03-1.77h0Z"/>
          <path class="cls-3" d="M136.95,198.47c-.99.9-5.87,8.03-5.87,8.03l1.09,6.63,3.16,8.5-1.71,8.34-1.04,7.74,5.67-.82,4.19-8.68-1.91-9.52-.14-5.2,1.27-5.51-.14-6.91-4.57-2.62h0Z"/>
          <g>
            <path class="cls-14" d="M228.76,132.14l-1.35-10.28-6.25,6.42-.5-.48,7.24-7.44,1.54,11.69-.69.09Z"/>
            <path class="cls-14" d="M241.49,146.78l-1.35-10.28-6.25,6.42-.5-.48,7.24-7.44,1.54,11.69-.69.09Z"/>
            <path class="cls-14" d="M233.77,160.37l-1.35-10.28-6.25,6.42-.5-.48,7.24-7.44,1.54,11.69-.69.09Z"/>
            <path class="cls-14" d="M203.9,147.29l-1.35-10.28-6.25,6.42-.5-.48,7.24-7.44,1.54,11.69-.69.09Z"/>
            <path class="cls-14" d="M200.67,163.96l-1.35-10.28-6.25,6.42-.5-.48,7.24-7.44,1.54,11.69-.69.09Z"/>
            <path class="cls-14" d="M197.25,192.34l-1.35-10.28-6.25,6.42-.5-.48,7.24-7.44,1.53,11.69-.69.09h0Z"/>
            <path class="cls-14" d="M233.11,201.6l-1.35-10.28-6.25,6.42-.5-.48,7.24-7.44,1.54,11.69-.69.09h0Z"/>
            <path class="cls-14" d="M242.42,219.24l-1.35-10.28-6.25,6.42-.5-.48,7.24-7.44,1.54,11.69-.69.09h0Z"/>
            <path class="cls-14" d="M246.96,200.35l-1.35-10.28-6.25,6.42-.5-.48,7.24-7.44,1.54,11.69-.69.09h0Z"/>
            <path class="cls-14" d="M229.45,234.31l-1.04-7.88-4.79,4.93-.38-.37,5.55-5.71,1.18,8.97-.53.07Z"/>
            <path class="cls-14" d="M188.59,211.91l-1.35-10.28-6.25,6.42-.5-.48,7.24-7.44,1.54,11.69-.69.09h0Z"/>
            <path class="cls-14" d="M141.94,127.53l-1.35-10.28-6.25,6.42-.5-.48,7.24-7.44,1.54,11.69-.69.09h0Z"/>
            <path class="cls-14" d="M101.4,147.52l-1.35-10.28-6.25,6.42-.5-.48,7.24-7.44,1.54,11.69-.69.09h0Z"/>
            <path class="cls-14" d="M123.67,136.15l-1.35-10.28-6.25,6.42-.5-.48,7.24-7.44,1.54,11.69-.69.09h0Z"/>
            <path class="cls-14" d="M120.31,198.56l-1.35-10.28-6.25,6.42-.5-.48,7.24-7.44,1.54,11.69-.69.09h0Z"/>
            <path class="cls-14" d="M109.72,232.58l-1.35-10.28-6.25,6.42-.5-.48,7.24-7.44,1.54,11.69-.69.09h0Z"/>
            <path class="cls-14" d="M94.46,216.27l-1.35-10.28-6.25,6.42-.5-.48,7.24-7.44,1.54,11.69-.69.09h0Z"/>
            <path class="cls-14" d="M97.71,191.9l-1.35-10.28-6.25,6.42-.5-.48,7.24-7.44,1.54,11.69-.69.09h0Z"/>
            <path class="cls-14" d="M110.37,184.31l-1.35-10.28-6.25,6.42-.5-.48,7.24-7.44,1.54,11.69-.69.09h0Z"/>
            <path class="cls-14" d="M108.02,211.06l-1.35-10.28-6.25,6.42-.5-.48,7.24-7.44,1.54,11.69-.69.09h0Z"/>
            <path class="cls-14" d="M133.22,110.12l-1.35-10.28-6.25,6.42-.5-.48,7.24-7.44,1.54,11.69-.69.09h0Z"/>
            <path class="cls-14" d="M121.69,114.76l-1.35-10.28-6.25,6.42-.5-.48,7.24-7.44,1.53,11.69-.69.09h0Z"/>
            <path class="cls-14" d="M103.75,126.67l-1.35-10.28-6.25,6.42-.5-.48,7.24-7.44,1.54,11.69-.69.09h0Z"/>
            <path class="cls-14" d="M162.5,125.92l-1.35-10.28-6.25,6.42-.5-.48,7.24-7.44,1.54,11.69-.69.09h0Z"/>
            <path class="cls-14" d="M183.09,229.74l-1.35-10.28-6.25,6.42-.5-.48,7.24-7.44,1.54,11.69-.69.09h0Z"/>
            <path class="cls-14" d="M174.27,242.67l-1.35-10.28-6.25,6.42-.5-.48,7.24-7.44,1.53,11.69-.69.09h0Z"/>
            <path class="cls-14" d="M202.07,212.79l-1.35-10.28-6.25,6.42-.5-.48,7.24-7.44,1.54,11.69-.69.09h0Z"/>
            <path class="cls-14" d="M174.36,205.3l-1.35-10.28-6.25,6.42-.5-.48,7.24-7.44,1.54,11.69-.69.09h0Z"/>
            <path class="cls-14" d="M174.84,188.71l-1.35-10.28-6.25,6.42-.5-.48,7.24-7.44,1.54,11.69-.69.09h0Z"/>
          </g>
          <g>
            <path class="cls-9" d="M181.41,117.05c-.14-.05-.27-.11-.4-.18l.34-.6c.94.45,2.04.43,2.96-.04.97-.5,1.82-1.19,2.53-2.01l.57-.62.02.84c0,1.26.68,2.42,1.77,3.05,1.09.55,2.42.18,3.07-.86l.52-1.02.14,1.14c.28,1.87,1.81,3.29,3.69,3.44l-.03.69c-1.08-.06-2.1-.51-2.89-1.26-.59-.55-1.04-1.24-1.3-2.01-.36.34-.79.59-1.27.71-.75.21-1.54.14-2.23-.2-1.1-.59-1.87-1.66-2.07-2.9-.64.67-1.4,1.23-2.23,1.64-.99.49-2.14.56-3.19.2Z"/>
            <path class="cls-9" d="M186.43,130.5c-.4-.15-.77-.38-1.09-.67-.6-.56-1-1.31-1.11-2.13-.4.35-.88.6-1.4.72-.9.24-1.85.05-2.59-.53l.44-.53c.56.43,1.3.57,1.99.39.69-.14,1.28-.61,1.59-1.25l1.2-2.76-.54,2.97c-.17.97.17,1.94.88,2.62.73.65,1.74.88,2.68.63l.19.66c-.74.21-1.53.16-2.25-.11h0Z"/>
            <path class="cls-9" d="M181.96,156.77c-.62-.24-1.17-.62-1.62-1.11-.5-.54-.85-1.2-1.01-1.91-.25.24-.54.42-.86.56-.6.26-1.29.28-1.91.05-.72-.31-1.29-.91-1.56-1.65-.2-.49-.32-1-.37-1.52-.56.4-1.2.67-1.88.78-.94.16-1.9,0-2.74-.45l.34-.6c1.44.75,3.21.47,4.34-.7l.62-.67-.02.91c-.02,1.27.37,2.8,1.53,3.26.95.31,1.99-.11,2.46-1l.67-1.3-.02,1.46c.04,1.78,1.4,3.26,3.16,3.45l-.05.69c-.37-.03-.73-.11-1.08-.24h0Z"/>
            <path class="cls-9" d="M162.82,161.45c-1.11-.37-1.96-1.25-2.3-2.36l.67-.18c.37,1.4,1.92,2.14,3.27,2.17,1.5-.09,2.97-.51,4.31-1.22l.67-.3-.2.71c-.31,1.27.28,2.59,1.44,3.2,1.19.53,2.6.19,3.4-.84l.33-.45.26.49c.63,1.18,1.77,2.01,3.08,2.26,1.32.22,2.67-.17,3.68-1.05l.47.51c-1.16,1.03-2.73,1.48-4.25,1.22-1.36-.25-2.55-1.04-3.32-2.19-1.04,1.01-2.61,1.28-3.93.67-.72-.36-1.28-.95-1.6-1.69-.24-.52-.34-1.08-.31-1.65-1.25.62-2.62.97-4.01,1.02-.56-.02-1.11-.12-1.63-.32h0Z"/>
            <path class="cls-9" d="M133.94,171.1c-.27-.1-.52-.24-.75-.4-.56-.37-.94-.97-1.03-1.64l.69-.09c.08.47.35.9.75,1.16.69.46,1.53.63,2.33.47,1.03-.28,2-.75,2.86-1.37.33-.21.66-.42,1-.61l.61-.35-.09.69c-.14,1.28.48,2.53,1.59,3.19,1.14.61,2.52.5,3.55-.3l.35-.28.18.41c.52,1.1,1.49,1.91,2.65,2.23,1.15.37,2.41.23,3.44-.4l.38.58c-1.2.75-2.67.92-4.01.49-1.22-.34-2.26-1.14-2.9-2.23-1.2.75-2.72.79-3.97.11-1.15-.67-1.89-1.88-1.96-3.21-.14.09-.29.18-.43.27-.93.67-1.98,1.17-3.1,1.47-.71.14-1.45.08-2.13-.18h0Z"/>
            <path class="cls-9" d="M104.12,158.59c-.57-.22-1.08-.56-1.51-1.01l.5-.47c.75.79,1.84,1.17,2.93,1.04,1.08-.15,2.03-.82,2.55-1.78l.49-.92.16,1.03c.13,1.29.85,2.44,1.96,3.11.61.31,1.31.37,1.97.17.5-.14.92-.47,1.17-.93l.82-1.59-.18,1.78c-.03.93.45,1.8,1.25,2.26.85.48,1.82.7,2.79.65v.69c-1.1.06-2.2-.2-3.16-.75-.74-.45-1.27-1.17-1.5-2.01-.3.24-.63.43-1,.54-.83.26-1.72.18-2.49-.21-1.06-.62-1.83-1.63-2.14-2.82-.66.79-1.59,1.3-2.6,1.45-.68.08-1.37,0-2.01-.24v.02Z"/>
            <path class="cls-9" d="M144.63,185.08c-.15-.06-.3-.14-.43-.23-.81-.59-1.31-1.5-1.39-2.5-.4.32-.87.54-1.37.66-.78.2-1.61.12-2.33-.23l.31-.62c1.2.55,2.62.2,3.45-.84l.69-.95-.07,1.17c-.12,1.04.3,2.07,1.11,2.72.46.28,1.02.35,1.54.18.38-.11.69-.38.84-.75l.56-1.53.11,1.62c.14,1.25,1.2,2.19,2.45,2.17l.04.69c-.79.02-1.56-.26-2.14-.79-.37-.33-.67-.75-.85-1.21-.23.21-.5.36-.79.45-.56.18-1.16.17-1.7-.04h-.02Z"/>
            <path class="cls-9" d="M157.62,218.34c-.33-.12-.64-.28-.93-.47-.75-.48-1.28-1.24-1.47-2.1-.88.52-1.97.55-2.87.07-.87-.5-1.43-1.43-1.46-2.43-.98.55-2.52,1.11-3.73.23l.41-.56c1.14.85,2.85-.15,3.53-.62l.75-.52-.21.88c-.21.95.21,1.92,1.05,2.41.86.44,1.9.28,2.59-.39l.69-.72-.1,1c-.03.89.43,1.72,1.2,2.17.82.47,1.73.76,2.68.84l-.09.69c-.69-.08-1.37-.24-2.03-.47h0Z"/>
            <path class="cls-9" d="M149.64,224.48c-.59-.23-1.1-.63-1.46-1.15l.57-.39c.5.72,1.34,1.11,2.21,1.04.87-.1,1.62-.65,1.97-1.45l.41-.98.24,1.03c.16.85.5,1.65,1.01,2.36.48.66,1.27,1.01,2.07.97l.09.69c-1.05.08-2.07-.37-2.7-1.22-.42-.55-.74-1.18-.93-1.85-.53.64-1.28,1.05-2.1,1.14-.47.05-.95-.02-1.4-.19h0Z"/>
            <path class="cls-9" d="M150.09,250.11c-.11-.05-.22-.09-.33-.14-.98-.54-1.63-1.53-1.74-2.65-1.03.6-2.3.59-3.32,0-.92-.59-1.49-1.61-1.51-2.71-.93.69-2.09,1-3.24.88-1.49-.17-2.82-1.05-3.56-2.36l.6-.34c.63,1.11,1.75,1.86,3.03,2.01,1.27.12,2.53-.37,3.39-1.33l1.11-1.28-.53,1.62c-.33,1.1.11,2.29,1.07,2.91.99.57,2.25.43,3.08-.36l.74-.73-.15,1.03c-.14,1.09.4,2.16,1.36,2.68.98.5,2.17.34,2.99-.4l.36-.34.19.46c.71,1.52,2.42,2.27,4.02,1.76l.23.65c-.94.31-1.95.26-2.85-.14-.76-.33-1.4-.89-1.83-1.6-.92.62-2.07.75-3.1.37h0Z"/>
            <path class="cls-9" d="M172.24,256.57c-.35-.12-.63-.4-.77-.74l.64-.25c.21.52,1.11.48,1.6.37,1.67-.36,3.23-1.1,4.56-2.17l.64-.52-.08.82c-.08,1.08.59,2.07,1.61,2.42,1.04.3,2.15-.14,2.71-1.08l.37-.67.25.72c.66,1.66,2.46,2.56,4.19,2.1l.21.66c-1.01.3-2.08.2-3.01-.28-.75-.37-1.36-.95-1.78-1.68-.79.87-2.01,1.21-3.14.88-1.08-.37-1.88-1.31-2.07-2.44-1.3.92-2.76,1.57-4.32,1.9-.53.13-1.09.11-1.62-.05h0Z"/>
            <path class="cls-9" d="M188.3,247.52c-.11-.05-.23-.09-.34-.15l.31-.62c1.66.77,3.63.31,4.78-1.11l.65-.84-.02,1.06c-.08.99.36,1.95,1.16,2.55.44.26.98.33,1.47.18.37-.1.68-.36.85-.7l.59-1.36.07,1.48c.05.86.54,1.64,1.3,2.06.77.4,1.69.38,2.43-.05l.35.59c-.96.56-2.14.59-3.12.07-.72-.4-1.26-1.05-1.52-1.83-.22.18-.48.32-.76.4-.69.21-1.43.12-2.04-.25-.79-.54-1.3-1.39-1.43-2.33-1.3,1.12-3.11,1.45-4.73.86v-.02Z"/>
            <path class="cls-9" d="M196.22,236.83l.14-.68c1.34.27,2.74-.14,3.72-1.1l.47-.47.11.66c.1.98.57,1.88,1.31,2.52.72.56,1.75.5,2.39-.14l.41-.52.19.63c.25.81.81,1.49,1.56,1.89l-.32.61c-.75-.4-1.34-1.03-1.7-1.8-.36.24-.78.38-1.2.39-.62.03-1.23-.15-1.73-.51-.75-.59-1.27-1.43-1.46-2.37-.47.35-.99.62-1.56.78-.75.23-1.56.26-2.33.11h0Z"/>
            <path class="cls-9" d="M80.8,159.68c-.32-.12-.61-.31-.85-.53l.48-.5c.59.5,1.39.68,2.14.5.81-.2,1.59-.52,2.3-.95l.64-.34-.14.72c-.21,1.07.75,2.1,1.75,2.54.43.21.92.3,1.39.24.42-.05.78-.34.93-.73l.44-1.47.23,1.52c.14.81.6,1.53,1.27,2.01.66.5,1.48.72,2.3.61l.11.69c-1,.14-2.01-.13-2.81-.73-.59-.43-1.05-1.01-1.33-1.69-.28.26-.64.43-1.01.49-.61.08-1.23-.02-1.78-.29-1.14-.44-1.97-1.45-2.19-2.65-.62.34-1.28.59-1.97.74-.63.12-1.28.08-1.88-.14h0Z"/>
            <path class="cls-9" d="M224.25,174.89c-.56-.21-1.08-.53-1.52-.93l.47-.51c1.04.9,2.43,1.28,3.8,1.06,1.37-.15,2.6-.91,3.36-2.05l.41-.66.21.75c.53,1.87,1.26,2.89,2.27,3.23,1.44.47,2.94-.63,4.22-1.77l.72-.64-.15.95c-.14,1.07.39,2.1,1.33,2.62.97.47,2.12.28,2.9-.46l.21-.21.24.17.83.59.86.62-.4.56-.86-.62-.6-.43c-.99.79-2.35.94-3.48.38-.95-.5-1.59-1.45-1.72-2.52-.5.43-1.05.79-1.63,1.1-.81.46-1.77.56-2.67.31-.76-.27-1.4-.81-1.81-1.51-.3-.48-.53-.99-.71-1.53-.88,1-2.11,1.64-3.43,1.8-.95.14-1.93.04-2.83-.31h-.02Z"/>
          </g>
        </g>
      </g>
      <g id="_張眼笑" data-name=" 張眼笑">
        <g>
          <path class="cls-10" d="M141.16,152.35c0,6.63-5.36,11.99-11.99,12-6.63,0-11.99-5.36-12-11.99,0-6.63,5.36-11.99,11.99-12h0c6.63,0,11.99,5.36,12,11.99h0Z"/>
          <path class="cls-10" d="M215.84,152.3c0,6.63-5.36,11.99-11.99,12-6.63,0-11.99-5.36-12-11.99,0-6.63,5.36-11.99,11.99-12h0c6.63,0,11.99,5.36,12,11.98h0Z"/>
        </g>
        <g>
          <path class="cls-13" d="M161.88,178.65c-3.77-1.05-7.74-1.18-11.58-.38,2.88,4.81,7.73,8.87,14.69,9.02,2.81.08,5.6-.47,8.17-1.59-3.03-3.35-6.95-5.8-11.29-7.05h0Z"/>
          <path class="cls-10" d="M184.07,162.42c-5.27-1.79-11.93,9.94-17.71,10s-12.44-12.95-17.39-9.87c-2.81,1.75-2.46,9.39,1.34,15.73,3.84-.8,7.8-.67,11.58.38,4.35,1.27,8.25,3.71,11.29,7.05,11.96-5.24,15.3-21.8,10.9-23.29h0Z"/>
        </g>
        <g>
          <ellipse class="cls-13" cx="220.21" cy="178.47" rx="11.99" ry="7.63" transform="translate(-.19 .23) rotate(-.06)"/>
          <path class="cls-13" d="M100.84,178.55c0,4.22,5.38,7.63,12,7.63s11.99-3.42,11.99-7.64-5.38-7.63-12-7.63-11.99,3.42-11.99,7.64Z"/>
        </g>
      </g>
      <g id="_瞇眼笑" data-name=" 瞇眼笑">
        <g>
          <path class="cls-10" d="M139.87,159.98c-1.18,0-2.14-.95-2.15-2.12h0c0-5.8-4.7-10.52-10.52-10.52s-10.52,4.7-10.52,10.52c0,1.18-.96,2.14-2.14,2.14s-2.14-.96-2.14-2.14h0c0-8.17,6.62-14.79,14.79-14.79s14.79,6.62,14.79,14.79h0c0,1.17-.94,2.12-2.11,2.12h-.02.02Z"/>
          <path class="cls-10" d="M215.58,159.98c-1.18,0-2.14-.95-2.15-2.12h0c0-5.8-4.7-10.52-10.52-10.52s-10.52,4.7-10.52,10.52c0,1.18-.96,2.14-2.14,2.14s-2.14-.96-2.14-2.14h0c.18-8.17,6.96-14.64,15.13-14.46,7.93.18,14.31,6.58,14.46,14.51-.02,1.16-.98,2.07-2.13,2.07h0Z"/>
          <path class="cls-10" d="M144.97,169.68c1.18,0,2.14.95,2.15,2.12h0c0,2.91,1.78,5.66,4.98,7.78,8.11,4.81,18.19,4.81,26.29,0,3.2-2.17,5-4.94,4.97-7.78,0-1.18.96-2.14,2.14-2.14s2.14.96,2.14,2.14c-.03,2.3-.71,4.53-1.97,6.45-1.28,1.98-2.96,3.67-4.94,4.95-9.55,5.76-21.5,5.76-31.04,0-1.99-1.27-3.68-2.95-4.94-4.94-1.26-1.92-1.94-4.16-1.97-6.47,0-1.18.96-2.14,2.14-2.13h.04v.02h0Z"/>
        </g>
        <g>
          <ellipse class="cls-13" cx="219.56" cy="179.02" rx="12.12" ry="7.73"/>
          <path class="cls-13" d="M99,178.27c0,4.29,5.44,7.75,12.16,7.74,6.72-.02,12.16-3.46,12.15-7.75s-5.44-7.75-12.16-7.74c-6.72.02-12.09,3.45-12.15,7.75Z"/>
        </g>
      </g>
    </g>
  </g>
</svg>