<?xml version="1.0" encoding="utf-8"?>
<!-- Generator: Adobe Illustrator 28.2.0, SVG Export Plug-In . SVG Version: 6.00 Build 0)  -->
<svg version="1.1" id="_圖層_2" xmlns="http://www.w3.org/2000/svg" xmlns:xlink="http://www.w3.org/1999/xlink" x="0px" y="0px"
	 viewBox="0 0 264.4 264.4" style="enable-background:new 0 0 264.4 264.4;" xml:space="preserve">
<style type="text/css">
	.st0{fill:#41C2D9;}
	.st1{fill:none;stroke:#FFFFFF;stroke-width:15.11;stroke-miterlimit:10;}
	.st2{opacity:0.39;fill:#41C2D9;enable-background:new    ;}
	.st3{fill:none;}
	.st4{clip-path:url(#SVGID_00000177459605080189964300000013899305863838458812_);}
	.st5{fill:#C49A72;}
	.st6{fill:url(#SVGID_00000176765397888314406990000007044872047307459240_);}
	.st7{fill:#B78457;}
	.st8{fill:#FAC89D;}
	.st9{fill:#706658;}
	.st10{fill:#FFFFFF;}
	.st11{fill:#B74659;}
	.st12{fill:#E4CAD0;}
	.st13{fill:#6F4B51;}
	.st14{fill:#F49C52;}
	.st15{fill:#C91847;}
	.st16{fill:none;stroke:#00C114;stroke-width:1.8884;stroke-linecap:round;stroke-linejoin:round;stroke-miterlimit:10;}
	.st17{fill:#DC6D3C;}
	.st18{fill:#E42B54;}
	.st19{fill:#00717D;}
	.st20{fill:#F3925C;}
	.st21{fill:#F8A978;}
	.st22{fill:#1E120D;}
	.st23{fill:#E48148;}
	.st24{fill:#B63222;}
	.st25{fill:#DD2C6A;}
	.st26{fill:#593100;}
	.st27{fill:#643D00;}
	.st28{fill:#F5A96A;}
	.st29{fill:#FF2B62;}
	.st30{fill:#FF8540;}
	.st31{fill:#FAB689;}
	.st32{fill:#A02821;}
	.st33{fill:#FF4329;}
	.st34{fill:#F7B583;}
	.st35{fill:#009CB6;}
	.st36{fill:#008397;}
	.st37{fill:#A03C36;}
	.st38{fill:#FF634D;}
	.st39{fill:#F4C9A9;}
	.st40{fill:#0087CB;}
	.st41{fill:#00ABC9;}
	.st42{fill:#FF4E3C;}
	.st43{fill:#FFC148;}
	.st44{fill:#642D00;}
	.st45{fill:#793B00;}
	.st46{fill:#FF3C60;}
	.st47{fill:#F79C6A;}
	.st48{fill:#FDE4E4;}
	.st49{fill:#481A00;}
	.st50{fill:#FB89D0;}
	.st51{fill:none;stroke:#FC5B81;stroke-width:1.582;stroke-miterlimit:10;}
	.st52{fill:#EFDAB2;}
	.st53{fill:#D7E1EF;}
	.st54{fill:#C7B2B2;}
	.st55{fill:none;stroke:#686876;stroke-width:0.7296;stroke-miterlimit:10;}
	.st56{fill:#686876;}
	.st57{fill:#00CBE6;}
</style>
<g>
	<path class="st0" d="M132.2,0c-1.9,0-3.9,0-5.8,0.1l0.4,9.7c1.5-0.1,2.9-0.1,4.4-0.1h0.1l0,0c0.1,0,0.1,0,0.2,0l0,0c0,0,0,0,0,0h0
		c0,0,0,0,0,0l0,0c0,0,0,0,0.1,0l0,0c0,0,0.1,0,0.1,0l0,0c0,0,0,0,0,0h0c0,0,0,0,0,0c0,0,0,0,0,0s0,0,0,0h0c0,0,0,0,0,0l0,0
		c0,0,0.1,0,0.1,0h0c0,0,0,0,0,0h0.1c0,0,0,0,0,0h0.1L132.2,0L132.2,0L132.2,0z M122.9,0.3c-1.9,0.1-3.9,0.3-5.8,0.5l1.1,9.6
		c0.3,0,0.5-0.1,0.8-0.1c0,0,0,0,0,0c0,0,0,0,0,0c0,0,0,0,0,0h0c0,0,0,0,0,0c0,0,0,0,0,0s0,0,0,0l0,0c1.5-0.2,2.9-0.3,4.4-0.4
		L122.9,0.3L122.9,0.3L122.9,0.3z M113.7,1.3c-1.9,0.3-3.8,0.6-5.8,0.9l1.8,9.6c0.9-0.2,1.9-0.3,2.8-0.5l0,0c0,0,0,0,0,0l0,0
		c0,0,0,0,0,0h0c0,0,0,0,0,0h0c0,0,0,0,0,0h0l0,0c0.8-0.1,1.6-0.2,2.3-0.4L113.7,1.3L113.7,1.3L113.7,1.3z M104.5,2.9
		c-1.9,0.4-3.8,0.9-5.7,1.3l2.4,9.4c1.7-0.4,3.5-0.9,5.2-1.2L104.5,2.9L104.5,2.9z M95.4,5.2c-1.9,0.5-3.7,1.1-5.6,1.7l3.1,9.2l0,0
		c0,0,0.1,0,0.1,0l0,0c0,0,0.1,0,0.1,0c0,0,0,0,0,0c0,0,0,0,0.1,0c0,0,0,0,0,0c0,0,0,0,0.1,0h0c0,0,0,0,0.1,0h0c0,0,0,0,0,0
		c0,0,0,0,0.1,0c0,0,0,0,0,0l0.1,0c0,0,0,0,0,0s0,0,0,0h0c0,0,0,0,0.1,0c0,0,0,0,0,0l0.1,0l0,0c1.4-0.5,2.9-0.9,4.3-1.3L95.4,5.2
		L95.4,5.2L95.4,5.2z M86.6,8.1c-1.8,0.7-3.6,1.4-5.4,2.1l3.8,9c0.9-0.4,1.9-0.8,2.8-1.1l0,0l0.1,0l0,0c0,0,0.1,0,0.1,0l0,0
		c0.1,0,0.1,0,0.2-0.1c0,0,0,0,0,0c0,0,0,0,0.1,0c0,0,0,0,0,0c0,0,0,0,0.1,0c0,0,0,0,0,0c0,0,0,0,0.1,0c0,0,0,0,0,0c0,0,0,0,0.1,0
		c0,0,0,0,0,0c0,0,0,0,0,0s0,0,0,0c0,0,0,0,0,0c0,0,0,0,0,0h0c0,0,0,0,0.1,0c0,0,0,0,0,0c0,0,0.1,0,0.1,0l0,0
		c0.4-0.2,0.8-0.3,1.2-0.5L86.6,8.1L86.6,8.1L86.6,8.1z M77.9,11.6c-1.8,0.8-3.5,1.6-5.3,2.5l4.4,8.7c0,0,0.1,0,0.2-0.1l0,0
		c0.1-0.1,0.2-0.1,0.4-0.2l0,0c0,0,0.1,0,0.1,0l0,0c0,0,0.1,0,0.1,0l0,0c0.1,0,0.2-0.1,0.2-0.1l0,0c0,0,0,0,0.1,0l0,0
		c0,0,0.1,0,0.1,0l0,0c0,0,0.1,0,0.1,0l0,0c0,0,0,0,0.1,0l0,0c0,0,0,0,0.1,0c0,0,0,0,0,0c0,0,0,0,0.1,0c0,0,0,0,0,0c0,0,0,0,0.1,0
		c0,0,0,0,0,0c0,0,0,0,0.1,0c0,0,0,0,0,0c0,0,0.1,0,0.1,0l0,0c0,0,0,0,0.1,0l0,0c0,0,0,0,0.1,0c0,0,0,0,0,0c0,0,0,0,0.1,0
		c0,0,0,0,0,0c0,0,0,0,0.1,0c0,0,0,0,0,0c0,0,0,0,0.1,0l0,0c0,0,0,0,0.1,0l0,0c0,0,0.1,0,0.1,0c0,0,0,0,0,0c0,0,0,0,0.1,0
		c0,0,0,0,0,0c0,0,0,0,0.1,0h0c0,0,0,0,0.1,0c0,0,0,0,0,0c0,0,0,0,0.1,0c0,0,0,0,0,0c0,0,0,0,0.1,0h0c0,0,0,0,0.1,0c0,0,0,0,0,0
		c0,0,0,0,0.1,0c0,0,0,0,0,0c0,0,0,0,0.1,0c0,0,0,0,0,0c0,0,0,0,0.1,0l0,0c0,0,0,0,0.1,0l0,0c0,0,0.1,0,0.1,0h0c0,0,0,0,0.1,0
		c0,0,0,0,0,0c0,0,0,0,0.1,0h0c0,0,0.1,0,0.1,0l0,0c0,0,0.1,0,0.1,0l0,0c0,0,0.1,0,0.1,0l0,0c0,0,0.1,0,0.1,0l0,0c0,0,0.1,0,0.1,0
		l0,0c0,0,0.1,0,0.1,0l0,0c0,0,0.1,0,0.1,0l0,0c0.1,0,0.1,0,0.2-0.1l0,0c0,0,0.1,0,0.1,0l0,0c0,0,0.1,0,0.1,0l0,0
		c0.3-0.1,0.6-0.3,0.9-0.4l-4-8.9l0,0L77.9,11.6z M69.6,15.8c-1.7,0.9-3.4,1.9-5.1,2.9l5,8.3c0.3-0.2,0.6-0.4,0.9-0.5l0,0
		c0.1,0,0.1-0.1,0.1-0.1l0,0c0,0,0.1,0,0.1,0l0,0c0,0,0,0,0.1,0c0,0,0,0,0,0c0,0,0,0,0.1,0c0,0,0,0,0,0c0,0,0,0,0.1,0c0,0,0,0,0,0
		c0,0,0,0,0.1,0c0,0,0,0,0,0c0,0,0,0,0,0s0,0,0,0c0,0,0,0,0,0c0,0,0,0,0,0c0,0,0,0,0,0s0,0,0,0c0,0,0,0,0,0l0.1,0c0,0,0,0,0,0
		c0,0,0,0,0.1,0c0,0,0,0,0,0c0,0,0.1,0,0.1,0l0,0c0.7-0.4,1.3-0.8,2-1.1l0,0c0,0,0.1,0,0.1,0c0,0,0,0,0,0c0,0,0,0,0.1,0c0,0,0,0,0,0
		c0,0,0,0,0,0s0,0,0,0c0,0,0,0,0,0c0,0,0,0,0.1,0c0,0,0,0,0,0c0,0,0,0,0.1,0h0c0,0,0,0,0.1,0l0,0c0,0,0,0,0.1,0l0,0c0,0,0.1,0,0.1,0
		l0,0c0.1,0,0.2-0.1,0.2-0.1L69.6,15.8L69.6,15.8L69.6,15.8z M61.5,20.5c-1.6,1-3.3,2.1-4.8,3.2l5.5,8c0.3-0.2,0.7-0.5,1-0.7l0,0
		c0,0,0,0,0.1,0c0,0,0,0,0,0c0,0,0,0,0.1,0c0,0,0,0,0,0c0,0,0,0,0.1,0c0,0,0,0,0,0c0,0,0,0,0,0l0,0c0,0,0,0,0,0c0,0,0,0,0,0
		c0,0,0,0,0,0l0,0c0,0,0,0,0,0c0,0,0,0,0,0c0,0,0,0,0,0c0,0,0,0,0,0c0,0,0,0,0,0c0,0,0,0,0.1,0c0,0,0,0,0,0c0,0,0,0,0.1,0l0,0
		c0,0,0.1,0,0.1,0l0,0c0.6-0.4,1.2-0.8,1.8-1.2c0,0,0,0,0,0c0,0,0,0,0.1,0c0,0,0,0,0,0c0,0,0,0,0.1,0c0,0,0,0,0,0c0,0,0,0,0,0
		s0,0,0,0c0,0,0,0,0,0c0,0,0,0,0.1,0h0c0,0,0,0,0.1,0c0,0,0,0,0,0c0,0,0,0,0.1,0l0,0c0.1-0.1,0.3-0.2,0.4-0.3L61.5,20.5L61.5,20.5
		L61.5,20.5z M53.8,25.7c-1.6,1.1-3.1,2.3-4.6,3.6l6.1,7.6c0,0,0.1-0.1,0.2-0.1l0,0c0,0,0,0,0.1,0c0,0,0,0,0,0c0,0,0,0,0,0
		c0,0,0,0,0,0c0,0,0,0,0,0c0,0,0,0,0,0c0,0,0,0,0,0c0,0,0,0,0,0c0,0,0,0,0,0c0,0,0,0,0,0l0,0c0.8-0.7,1.7-1.3,2.6-2l0,0
		c0,0,0,0,0.1,0c0,0,0,0,0,0c0,0,0,0,0,0c0,0,0,0,0,0c0,0,0,0,0,0l0,0c0,0,0,0,0,0l0,0c0,0,0,0,0,0c0,0,0,0,0,0c0,0,0,0,0,0
		c0,0,0,0,0,0c0,0,0,0,0,0c0.2-0.2,0.5-0.3,0.7-0.5L53.8,25.7L53.8,25.7L53.8,25.7z M46.5,31.5c-1.5,1.2-2.9,2.5-4.3,3.9l6.6,7.1
		c0,0,0.1-0.1,0.2-0.1l0,0c0,0,0,0,0.1-0.1c0,0,0,0,0,0c0,0,0,0,0,0c0,0,0,0,0,0c0,0,0,0,0,0c0,0,0,0,0,0c0,0,0,0,0,0s0,0,0,0l0,0
		c0,0,0,0,0,0c0,0,0,0,0,0c0,0,0,0,0,0c0,0,0,0,0,0s0,0,0,0c0,0,0,0,0,0s0,0,0,0l0,0c0,0,0,0,0,0c0,0,0,0,0,0c0,0,0,0,0,0
		c0,0,0,0,0,0c0,0,0,0,0,0c0,0,0,0,0,0c0,0,0,0,0,0c0,0,0,0,0,0c0,0,0,0,0,0c0,0,0,0,0,0s0,0,0,0c0,0,0,0,0,0c0,0,0,0,0,0
		c0,0,0,0,0,0c0,0,0,0,0,0c0,0,0,0,0,0c0,0,0,0,0,0s0,0,0,0c0,0,0,0,0,0c0,0,0,0,0,0c0,0,0,0,0,0c0,0,0,0,0,0c0,0,0,0,0,0
		c0,0,0,0,0.1-0.1l0,0c0.8-0.8,1.7-1.5,2.6-2.2L46.5,31.5L46.5,31.5L46.5,31.5z M39.7,37.8c-1.4,1.3-2.8,2.8-4.1,4.2l7.1,6.6
		c0.2-0.2,0.4-0.4,0.5-0.6c0,0,0,0,0,0c0,0,0,0,0,0c0,0,0,0,0,0l0,0c0,0,0,0,0,0l0,0c0,0,0,0,0,0l0,0c0,0,0,0,0-0.1l0,0c1-1,2-2,3-3
		L39.7,37.8L39.7,37.8L39.7,37.8z M33.3,44.5C32,46,30.7,47.5,29.5,49l7.5,6.1c1.1-1.4,2.3-2.8,3.5-4.1L33.3,44.5L33.3,44.5
		L33.3,44.5z M27.3,51.7c-1.2,1.5-2.3,3.1-3.5,4.7l7.9,5.6l0,0c0,0,0,0,0-0.1l0,0c0,0,0,0,0-0.1l0,0c0,0,0,0,0-0.1l0,0
		c0,0,0,0,0-0.1l0,0c0.9-1.2,1.7-2.4,2.6-3.6l0,0c0,0,0,0,0-0.1l0,0c0,0,0,0,0-0.1l0,0c0,0,0,0,0-0.1l0,0c0,0,0,0,0-0.1c0,0,0,0,0,0
		c0,0,0,0,0,0c0,0,0,0,0,0c0,0,0,0,0,0c0,0,0,0,0,0c0,0,0,0,0,0c0,0,0,0,0,0L27.3,51.7L27.3,51.7L27.3,51.7z M21.9,59.3
		c-1.1,1.6-2.1,3.3-3.1,4.9l8.3,5c0.5-0.8,1-1.7,1.5-2.5l0,0c0,0,0,0,0-0.1c0,0,0,0,0,0c0,0,0,0,0-0.1c0,0,0,0,0,0c0,0,0,0,0-0.1
		c0,0,0,0,0,0c0,0,0,0,0,0l0,0c0,0,0,0,0,0c0,0,0,0,0-0.1c0,0,0,0,0,0c0,0,0,0,0-0.1c0,0,0,0,0,0c0,0,0,0,0,0l0,0c0,0,0-0.1,0-0.1
		l0,0c0.3-0.5,0.6-1,1-1.5L21.9,59.3L21.9,59.3L21.9,59.3z M17,67.2c-1,1.7-1.9,3.4-2.8,5.1l8.7,4.4c0.1-0.1,0.1-0.3,0.2-0.4v0
		c0,0,0,0,0-0.1c0,0,0,0,0,0c0,0,0,0,0-0.1c0,0,0,0,0,0l0,0c0,0,0,0,0,0c0,0,0,0,0,0c0,0,0,0,0-0.1c0,0,0,0,0,0c0,0,0,0,0-0.1
		c0,0,0,0,0,0c0,0,0,0,0-0.1c0,0,0,0,0,0c0,0,0,0,0-0.1c0,0,0,0,0,0c0,0,0,0,0-0.1c0,0,0,0,0,0c0,0,0,0,0-0.1c0,0,0,0,0,0
		c0,0,0,0,0-0.1c0,0,0,0,0,0c0,0,0,0,0-0.1l0,0c0,0,0,0,0-0.1l0,0c0,0,0,0,0-0.1l0,0c0,0,0-0.1,0-0.1c0,0,0,0,0,0c0,0,0-0.1,0-0.1
		l0,0c0,0,0-0.1,0-0.1l0,0c0-0.1,0-0.1,0.1-0.2l0,0c0,0,0-0.1,0-0.1l0,0c0,0,0,0,0-0.1l0,0c0,0,0-0.1,0-0.1l0,0c0,0,0-0.1,0-0.1l0,0
		c0-0.1,0-0.1,0.1-0.1l0,0c0,0,0,0,0-0.1l0,0c0,0,0-0.1,0-0.1c0,0,0,0,0,0c0,0,0,0,0-0.1l0,0c0,0,0-0.1,0-0.1l0,0c0,0,0-0.1,0-0.1
		l0,0c0,0,0-0.1,0-0.1c0,0,0,0,0,0c0,0,0,0,0-0.1c0,0,0,0,0,0c0,0,0,0,0-0.1c0,0,0,0,0,0c0,0,0,0,0-0.1l0,0c0,0,0-0.1,0-0.1l0,0
		c0,0,0,0,0-0.1l0,0c0,0,0,0,0-0.1c0,0,0,0,0,0c0,0,0,0,0-0.1c0,0,0,0,0,0c0,0,0,0,0-0.1l0,0c0,0,0-0.1,0-0.1l0,0c0,0,0,0,0-0.1l0,0
		c0,0,0,0,0-0.1c0,0,0,0,0,0c0,0,0,0,0-0.1c0,0,0,0,0,0c0,0,0,0,0-0.1c0,0,0,0,0,0c0,0,0,0,0-0.1c0,0,0,0,0,0c0,0,0-0.1,0-0.1l0,0
		c0,0,0-0.1,0-0.1l0,0c0,0,0-0.1,0-0.1l0,0c0,0,0,0,0-0.1c0,0,0,0,0,0c0,0,0,0,0-0.1l0,0c0,0,0,0,0-0.1l0,0c0-0.1,0-0.1,0.1-0.1l0,0
		c0,0,0-0.1,0-0.1l0,0c0,0,0-0.1,0-0.1l0,0c0-0.1,0.1-0.2,0.2-0.3l-8.5-4.8l0,0L17,67.2z M12.8,75.5c-0.8,1.8-1.6,3.5-2.4,5.3
		l8.9,3.8c0.5-1.1,1-2.2,1.5-3.3l0,0c0,0,0-0.1,0-0.1l0,0c0-0.1,0-0.1,0.1-0.2l0,0c0,0,0,0,0-0.1c0,0,0,0,0,0c0,0,0,0,0-0.1v0
		c0,0,0,0,0-0.1c0,0,0,0,0,0c0,0,0,0,0-0.1c0,0,0,0,0,0c0,0,0,0,0,0c0,0,0,0,0,0c0,0,0,0,0,0c0,0,0,0,0,0c0,0,0,0,0-0.1c0,0,0,0,0,0
		c0,0,0,0,0,0c0,0,0,0,0,0c0,0,0,0,0,0c0,0,0,0,0-0.1c0,0,0,0,0,0c0,0,0-0.1,0-0.1l0,0c0.1-0.2,0.2-0.4,0.3-0.6L12.8,75.5
		C12.8,75.5,12.8,75.5,12.8,75.5z M9.1,84.1c-0.7,1.8-1.4,3.6-2,5.5l9.2,3.1c0-0.2,0.1-0.3,0.2-0.5l0,0c0,0,0-0.1,0-0.1l0,0
		c0,0,0,0,0-0.1c0,0,0,0,0,0c0,0,0,0,0-0.1c0,0,0,0,0,0c0,0,0,0,0-0.1v0c0,0,0,0,0-0.1c0,0,0,0,0,0c0,0,0,0,0-0.1c0,0,0,0,0,0
		c0,0,0,0,0,0c0,0,0,0,0,0c0,0,0,0,0,0c0,0,0,0,0-0.1v0c0,0,0-0.1,0-0.1c0,0,0,0,0,0c0-0.1,0.1-0.2,0.1-0.3l0,0
		c0.4-1.2,0.9-2.3,1.3-3.5L9.1,84.1L9.1,84.1L9.1,84.1z M6,92.8c-0.6,1.8-1.1,3.7-1.6,5.6l9.4,2.5c0.5-1.7,1-3.5,1.5-5.2L6,92.8
		L6,92.8L6,92.8z M3.5,101.8c-0.4,1.9-0.9,3.8-1.2,5.7l9.5,1.8c0.1-0.3,0.1-0.6,0.2-0.9l0,0c0,0,0,0,0,0l0,0c0,0,0,0,0,0
		c0,0,0,0,0,0c0,0,0,0,0,0s0,0,0,0l0,0c0,0,0,0,0-0.1l0,0c0,0,0,0,0-0.1l0,0c0.3-1.4,0.6-2.7,0.9-4.1L3.5,101.8L3.5,101.8L3.5,101.8
		z M1.7,111c-0.3,1.9-0.6,3.8-0.8,5.8l9.6,1.1c0.2-1.8,0.5-3.6,0.7-5.3L1.7,111C1.7,111,1.7,111,1.7,111z M0.5,120.2
		c-0.2,1.9-0.3,3.9-0.4,5.8l9.7,0.4c0.1-1.6,0.2-3.2,0.3-4.8l0,0c0,0,0,0,0-0.1l0,0c0,0,0,0,0-0.1l0,0c0,0,0,0,0-0.1l0,0
		c0-0.1,0-0.1,0-0.2l0,0c0,0,0,0,0-0.1l0,0c0,0,0,0,0-0.1l0,0c0,0,0,0,0-0.1l0,0c0,0,0,0,0-0.1l0,0c0,0,0-0.1,0-0.1L0.5,120.2
		L0.5,120.2L0.5,120.2z M0,129.5c0,0.9,0,1.8,0,2.7c0,1,0,2.1,0,3.1l9.7-0.2c0-0.7,0-1.4,0-2.2l0,0c0-0.1,0-0.1,0-0.2l0,0v0
		c0,0,0,0,0,0v-0.1c0,0,0,0,0,0v-0.1c0,0,0,0,0,0v-0.1c0,0,0,0,0,0v-0.1l0,0v-0.1l0,0V132l0,0c0,0,0-0.1,0-0.1v0c0,0,0,0,0-0.1v-0.1
		c0,0,0,0,0,0v-0.1c0,0,0,0,0,0c0,0,0,0,0-0.1v0c0,0,0,0,0,0s0,0,0,0s0,0,0-0.1c0,0,0,0,0,0v0c0,0,0,0,0,0c0,0,0,0,0-0.1
		c0,0,0,0,0,0v0c0,0,0,0,0-0.1v0c0,0,0,0,0,0v0c0,0,0-0.1,0-0.1v0c0,0,0,0,0,0c0,0,0,0,0,0c0,0,0-0.1,0-0.1v0c0,0,0,0,0-0.1
		c0,0,0,0,0,0s0,0,0,0c0,0,0,0,0,0s0,0,0,0c0,0,0,0,0-0.1c0,0,0,0,0,0c0,0,0,0,0-0.1l0,0c0,0,0-0.1,0-0.1l0,0c0-0.3,0-0.5,0-0.8
		L0,129.5L0,129.5L0,129.5z M9.9,138.4l-9.7,0.5c0.1,1.9,0.2,3.9,0.4,5.8l9.7-0.9C10.1,142,9.9,140.2,9.9,138.4L9.9,138.4L9.9,138.4
		z M10.6,147l-9.6,1.2c0.2,1.9,0.5,3.9,0.8,5.8l9.6-1.6c-0.1-0.5-0.1-0.9-0.2-1.4l0,0c0-0.1,0-0.2,0-0.3l0,0c0,0,0,0,0-0.1l0,0
		c0,0,0,0,0-0.1l0,0c0-0.1,0-0.2,0-0.2l0,0c0,0,0,0,0-0.1l0,0c0,0,0-0.1,0-0.1l0,0c0-0.1,0-0.1,0-0.2l0,0c0,0,0,0,0-0.1l0,0
		c0,0,0,0,0-0.1l0,0c0-0.1,0-0.2,0-0.2l0,0c0,0,0,0,0,0l0,0c0,0,0,0,0-0.1l0,0c0,0,0,0,0-0.1l0,0c0-0.1,0-0.1,0-0.2l0,0
		c0,0,0,0,0-0.1l0,0c0,0,0,0,0-0.1l0,0c0-0.1,0-0.1,0-0.2l0,0c0,0,0,0,0-0.1l0,0c0,0,0,0,0-0.1l0,0c0,0,0,0,0-0.1l0,0c0,0,0,0,0-0.1
		c0,0,0,0,0,0c0-0.1,0-0.1,0-0.1c0,0,0,0,0,0s0,0,0,0c0,0,0,0,0,0c0,0,0,0,0,0c0,0,0,0,0,0c0,0,0,0,0,0c0,0,0,0,0,0c0,0,0,0,0,0
		c0,0,0,0,0,0c0,0,0,0,0,0c0,0,0,0,0,0c0,0,0,0,0,0l0,0c0,0,0,0,0,0v0c0,0,0,0,0,0c0,0,0,0,0,0c0,0,0,0,0,0c0,0,0,0,0,0c0,0,0,0,0,0
		c0,0,0,0,0,0c0,0,0,0,0,0c-0.1-0.4-0.1-0.8-0.1-1.2l0,0L10.6,147z M11.9,155.5l-9.5,1.8c0.4,1.9,0.8,3.8,1.2,5.7l9.4-2.3
		c-0.1-0.6-0.3-1.2-0.4-1.9l0,0c0,0,0,0,0,0l0,0c0,0,0,0,0-0.1l0,0c0,0,0,0,0,0c0,0,0,0,0,0s0,0,0,0l0,0c0,0,0,0,0,0l0,0
		c0,0,0,0,0,0c0,0,0,0,0,0v0c0,0,0,0,0,0c0,0,0,0,0,0c0,0,0,0,0,0c0,0,0,0,0,0c0,0,0,0,0,0c0,0,0,0,0,0s0,0,0,0l0,0
		c-0.2-1-0.4-1.9-0.6-2.9l0,0L11.9,155.5z M13.9,163.9l-9.4,2.5c0.5,1.9,1.1,3.8,1.6,5.6l9.3-2.9c-0.1-0.3-0.2-0.6-0.3-0.9l0,0
		c0,0,0-0.1,0-0.1c0,0,0,0,0,0c0,0,0,0,0-0.1c0,0,0,0,0,0c0,0,0,0,0-0.1c0,0,0,0,0,0c0,0,0,0,0,0c0,0,0,0,0,0c0,0,0,0,0,0
		c0,0,0,0,0-0.1c0,0,0,0,0,0v0c0,0,0,0,0,0c0,0,0-0.1,0-0.1l0,0c0,0,0-0.1,0-0.1l0,0C14.6,166.3,14.2,165.1,13.9,163.9L13.9,163.9
		L13.9,163.9z M16.4,172.2l-9.2,3.2c0.6,1.8,1.3,3.7,2,5.5l9-3.6c-0.4-1-0.8-1.9-1.1-2.9l0,0c0,0,0-0.1,0-0.1l0,0c0,0,0-0.1,0-0.1
		l0,0c0,0,0-0.1,0-0.1l0,0c0,0,0,0,0-0.1c0,0,0,0,0,0c0,0,0,0,0-0.1c0,0,0,0,0,0c0,0,0,0,0-0.1c0,0,0,0,0,0c0,0,0,0,0-0.1
		c0,0,0,0,0,0c0,0,0,0,0-0.1v0c0,0,0,0,0-0.1c0,0,0,0,0,0c0,0,0,0,0-0.1c0,0,0,0,0,0c0,0,0,0,0-0.1c0,0,0,0,0,0c0,0,0,0,0-0.1
		c0,0,0,0,0,0s0,0,0-0.1c0,0,0,0,0,0c0,0,0,0,0-0.1c0,0,0,0,0,0c0,0,0,0,0-0.1c0,0,0,0,0,0c0,0,0,0,0-0.1c0,0,0,0,0,0c0,0,0,0,0-0.1
		v0c0,0,0,0,0-0.1c0,0,0,0,0,0c0,0,0,0,0-0.1v0c0,0,0,0,0-0.1c0,0,0,0,0,0c0,0,0,0,0-0.1v0c0,0,0-0.1,0-0.1c0,0,0,0,0,0
		c0,0,0,0,0-0.1c0,0,0,0,0,0c0,0,0-0.1,0-0.1l0,0c0,0,0-0.1,0-0.1l0,0c0,0,0-0.1,0-0.1l0,0c0,0,0-0.1,0-0.1l0,0L16.4,172.2z
		 M19.5,180.2l-8.9,3.8c0.8,1.8,1.6,3.6,2.4,5.3l8.8-4.2l0,0c0,0,0-0.1,0-0.1l0,0c0,0,0-0.1,0-0.1l0,0c0-0.1,0-0.1-0.1-0.1
		c0,0,0,0,0,0c0,0,0,0,0-0.1c0,0,0,0,0,0c0,0,0,0,0-0.1c0,0,0,0,0,0c0,0,0,0,0-0.1c0,0,0,0,0,0c0,0,0,0,0-0.1c0,0,0,0,0,0
		c0,0,0,0,0-0.1c0,0,0,0,0,0c0,0,0,0,0-0.1c0,0,0,0,0,0c0,0,0,0,0-0.1c0,0,0,0,0,0c0,0,0,0,0-0.1c0,0,0,0,0,0c0,0,0,0,0,0
		c0,0,0,0,0,0c0,0,0,0,0,0c0,0,0,0,0,0c0,0,0,0,0,0c0,0,0,0,0,0c0,0,0,0,0-0.1c0,0,0,0,0,0c0,0,0,0,0-0.1c0,0,0,0,0,0c0,0,0,0,0,0
		c0,0,0,0,0,0c0,0,0,0,0,0c0,0,0,0,0,0c0,0,0,0,0,0c0,0,0,0,0,0c0,0,0,0,0,0c0,0,0,0,0,0c0,0,0,0,0-0.1c0,0,0,0,0,0c0,0,0,0,0-0.1
		c0,0,0,0,0,0c0,0,0,0,0,0c0,0,0,0,0,0c0,0,0,0,0,0c0,0,0,0,0,0c0,0,0,0,0,0c0,0,0,0,0,0c0,0,0,0,0-0.1c0,0,0,0,0,0c0,0,0,0,0-0.1
		c0,0,0,0,0,0c0,0,0,0,0-0.1c0,0,0,0,0,0c0,0,0,0,0-0.1c0,0,0,0,0,0c0,0,0,0,0-0.1c0,0,0,0,0,0c0,0,0,0,0-0.1c0,0,0,0,0,0
		c0,0,0,0,0-0.1c0,0,0,0,0,0c0,0,0,0,0-0.1c0,0,0,0,0,0c0,0,0,0,0-0.1c0,0,0,0,0,0c0,0,0,0,0-0.1c0,0,0,0,0,0c0,0,0,0,0-0.1
		c0,0,0,0,0,0c0,0,0,0,0-0.1c0,0,0,0,0,0c0,0,0,0,0-0.1c0,0,0,0,0,0c0,0,0,0,0-0.1c0,0,0,0,0,0c0,0,0,0,0-0.1c0,0,0,0,0,0
		c0,0,0,0,0-0.1c0,0,0,0,0,0c0,0,0,0,0-0.1c0,0,0,0,0,0c0,0,0,0,0-0.1c0,0,0,0,0,0c0,0,0,0,0-0.1c0,0,0,0,0,0c0,0,0,0,0-0.1
		c0,0,0,0,0,0c0,0,0,0,0-0.1c0,0,0,0,0,0c0,0,0,0,0-0.1c0,0,0,0,0,0c0,0,0,0,0-0.1c0,0,0,0,0,0c0,0,0,0,0-0.1v0c0,0,0,0,0,0s0,0,0,0
		c0,0,0,0,0,0c0,0,0,0,0,0c0,0,0,0,0,0c0,0,0,0,0,0c0,0,0,0,0,0c0,0,0,0,0,0v0c0,0,0-0.1,0-0.1l0,0c0,0,0-0.1,0-0.1l0,0
		c-0.1-0.2-0.2-0.4-0.2-0.6l0,0L19.5,180.2z M23.1,188l-8.6,4.4c0.9,1.7,1.8,3.4,2.8,5.1l8.4-4.8c-0.7-1.2-1.3-2.4-1.9-3.5l0,0
		c0,0,0-0.1,0-0.1l0,0c0,0,0-0.1,0-0.1l0,0c0,0,0-0.1,0-0.1l0,0c0,0,0-0.1,0-0.1l0,0c0,0,0-0.1,0-0.1l0,0c0,0,0,0,0-0.1c0,0,0,0,0,0
		c0,0,0-0.1,0-0.1l0,0c0,0,0,0,0-0.1l0,0c0-0.1,0-0.1-0.1-0.1l0,0c0,0,0-0.1,0-0.1l0,0c0,0,0-0.1,0-0.1l0,0c0,0,0-0.1,0-0.1l0,0
		C23.2,188.2,23.2,188.1,23.1,188L23.1,188L23.1,188z M27.4,195.6l-8.3,5c1,1.6,2,3.3,3.1,4.9l8.1-5.4
		C29.3,198.6,28.3,197.1,27.4,195.6C27.4,195.6,27.4,195.6,27.4,195.6z M32.1,202.8l-7.9,5.6c1.1,1.6,2.3,3.1,3.5,4.7l7.7-5.9
		C34.2,205.7,33.1,204.2,32.1,202.8L32.1,202.8L32.1,202.8z M37.3,209.7l-7.5,6.1c1.2,1.5,2.5,3,3.8,4.4l7.2-6.5l0,0c0,0,0,0,0-0.1
		c0,0,0,0,0,0c0,0,0,0,0-0.1c0,0,0,0,0,0c0,0,0,0,0-0.1c0,0,0,0,0,0c0,0,0,0,0-0.1l0,0c0,0,0,0,0-0.1l0,0c0,0,0,0,0-0.1l0,0
		c0,0,0,0,0-0.1c0,0,0,0,0,0c0,0,0,0,0-0.1c0,0,0,0,0,0c0,0,0,0,0-0.1l0,0c0,0,0,0,0-0.1l0,0c0,0,0,0,0-0.1l0,0c0,0,0,0,0-0.1l0,0
		c0,0,0-0.1,0-0.1l0,0c0,0,0,0,0-0.1l0,0c0,0,0,0,0-0.1l0,0c0,0,0,0,0-0.1l0,0c0,0,0,0,0-0.1l0,0c0,0,0,0,0-0.1l0,0c0,0,0,0,0-0.1
		l0,0c0,0,0,0,0-0.1l0,0c0,0,0,0,0-0.1l0,0c0,0,0,0,0-0.1l0,0c0,0-0.1-0.1-0.1-0.1l0,0c0,0,0,0,0-0.1l0,0c0,0,0,0,0-0.1l0,0
		c0,0,0,0,0-0.1l0,0c0,0,0,0,0-0.1l0,0c0,0,0,0,0-0.1l0,0c0,0,0,0,0-0.1l0,0c0,0,0,0,0-0.1c0,0,0,0,0,0c0,0,0,0,0-0.1c0,0,0,0,0,0
		c0,0,0,0,0-0.1c0,0,0,0,0,0c0,0,0,0,0-0.1c0,0,0,0,0,0c0,0,0,0,0-0.1l0,0c0,0,0,0,0-0.1c0,0,0,0,0,0c0,0,0,0,0-0.1c0,0,0,0,0,0
		c0,0,0,0,0-0.1c0,0,0,0,0,0c0,0,0,0,0-0.1c0,0,0,0,0,0c0,0,0,0,0-0.1c0,0,0,0,0,0c0,0,0,0,0,0c0,0,0,0,0,0c0,0,0,0,0,0c0,0,0,0,0,0
		c0,0,0,0,0,0c0,0,0,0,0,0c0,0,0,0,0-0.1c0,0,0,0,0,0c0,0,0,0,0,0c0,0,0,0,0,0c0,0,0,0,0,0c0,0,0,0,0,0c0,0,0,0,0,0l0,0c0,0,0,0,0,0
		c0,0,0,0,0,0c0,0,0,0,0,0c0,0,0,0,0,0s0,0,0,0c0,0,0,0,0,0s0,0,0,0c0,0,0,0,0,0c0,0,0,0,0,0c0,0,0,0,0,0c0,0,0,0,0,0l0-0.1
		c0,0,0,0,0,0c0,0,0,0,0-0.1c0,0,0,0,0,0c0,0,0,0,0-0.1c0,0,0,0,0,0c0,0-0.1-0.1-0.1-0.1c0,0,0,0,0,0l0-0.1l0,0c0,0,0,0,0-0.1l0,0
		c-0.1-0.1-0.2-0.2-0.2-0.3l0,0L37.3,209.7z M43,216.1l-7.1,6.7c1.3,1.4,2.7,2.8,4.1,4.1l6.8-7c-0.1-0.1-0.2-0.2-0.3-0.3l0,0
		c0,0,0,0,0-0.1c0,0,0,0,0,0s0,0,0,0c0,0,0,0,0,0c0,0,0,0,0,0s0,0,0,0l0,0l0,0c0,0,0,0,0,0c0,0,0,0,0,0c0,0,0,0,0,0c0,0,0,0,0-0.1
		l0,0c0,0,0,0,0-0.1l0,0c0,0,0,0,0-0.1l0,0c0,0,0,0,0-0.1l0,0c0,0,0,0-0.1-0.1l0,0c0,0,0,0-0.1-0.1l0,0c-0.4-0.4-0.9-0.9-1.3-1.3
		l0,0c0,0,0,0-0.1-0.1l0,0c0,0,0,0-0.1-0.1l0,0c-0.1-0.1-0.1-0.1-0.2-0.2l0,0c0,0,0,0-0.1-0.1l0,0c0,0,0,0,0-0.1l0,0
		c0,0,0,0-0.1-0.1l0,0c0,0,0,0-0.1-0.1l0,0c0,0,0,0,0-0.1l0,0c0,0,0,0,0-0.1l0,0c0,0,0,0,0-0.1l0,0c0,0,0,0,0-0.1l0,0c0,0,0,0,0-0.1
		l0,0c0,0,0,0,0-0.1l0,0c0,0,0,0,0-0.1l0,0c0,0,0,0,0-0.1l0,0c0,0,0,0,0-0.1c0,0,0,0,0,0c0,0,0,0,0-0.1l0,0c0,0,0,0,0-0.1l0,0
		c0,0,0,0,0-0.1l0,0c0,0,0,0,0-0.1l0,0c0,0,0,0,0-0.1l0,0c0,0,0,0,0-0.1l0,0c0,0,0-0.1,0-0.1l0,0c0,0,0,0,0-0.1l0,0l0,0L43,216.1z
		 M49.1,222.2l-6.6,7.1c1.4,1.3,2.9,2.6,4.4,3.9l6.3-7.4c-0.3-0.2-0.6-0.5-0.8-0.7l0,0c0,0,0,0-0.1-0.1l0,0c0,0,0,0-0.1-0.1l0,0
		c0,0,0,0-0.1-0.1c0,0,0,0,0,0c0,0,0,0-0.1-0.1l0,0c0,0,0,0-0.1-0.1l0,0c0,0,0,0,0-0.1c0,0,0,0,0,0c0,0,0,0,0,0c0,0,0,0,0,0
		c0,0,0,0,0,0c0,0,0,0,0,0c0,0,0,0,0,0c0,0,0,0,0,0c0,0,0,0,0,0c0,0,0,0,0,0s0,0,0,0c0,0,0,0,0,0c0,0,0,0,0-0.1c0,0,0,0,0,0l0-0.1
		c0,0,0,0,0,0c0,0,0,0,0-0.1h0c0,0,0,0,0-0.1c0,0,0,0,0,0c0,0,0,0-0.1-0.1l0,0c0,0,0,0,0-0.1l0,0c0,0,0,0-0.1-0.1l0,0c0,0,0,0,0-0.1
		l0,0c0,0,0,0-0.1-0.1l0,0c0,0,0,0-0.1-0.1l0,0c-0.1-0.1-0.1-0.1-0.2-0.2l0,0c0,0,0,0-0.1-0.1l0,0c0,0,0,0-0.1-0.1l0,0
		c0,0,0,0-0.1-0.1l0,0c-0.1-0.1-0.1-0.1-0.2-0.2l0,0c0,0,0,0-0.1-0.1l0,0l-0.1-0.1l0,0c0,0,0,0-0.1-0.1l0,0c0,0,0,0-0.1-0.1l0,0
		c0,0,0,0-0.1-0.1l0,0c0,0,0,0-0.1-0.1l0,0c0,0,0,0,0-0.1c0,0,0,0,0,0c0,0,0,0,0-0.1c0,0,0,0,0,0s0,0,0,0l0,0c0,0,0,0,0,0l0,0
		c0,0,0,0,0,0s0,0,0,0c0,0,0,0,0,0c0,0,0,0-0.1-0.1l0,0c-0.2-0.2-0.3-0.3-0.5-0.5l0,0L49.1,222.2z M55.7,227.9l-6.1,7.6
		c1.5,1.2,3.1,2.4,4.6,3.5l5.7-7.8c-0.4-0.3-0.7-0.5-1.1-0.8c0,0,0,0,0,0l-0.1,0c0,0,0,0,0,0c0,0,0,0,0,0c0,0,0,0,0,0c0,0,0,0,0,0
		c0,0,0,0,0,0c0,0,0,0,0,0c0,0,0,0,0,0c0,0,0,0,0,0c0,0,0,0,0,0c0,0,0,0,0,0c0,0,0,0,0,0c0,0,0,0,0,0c0,0,0,0-0.1,0l0,0
		c0,0,0,0-0.1,0l0,0c0,0,0,0-0.1-0.1l0,0c0,0,0,0-0.1-0.1l0,0c0,0,0,0-0.1-0.1l0,0c0,0,0,0-0.1-0.1l0,0c-0.1-0.1-0.1-0.1-0.2-0.1
		l0,0c-0.3-0.2-0.5-0.4-0.8-0.6l0,0c0,0,0,0-0.1-0.1l0,0c0,0,0,0-0.1-0.1l0,0c-0.1-0.1-0.1-0.1-0.2-0.2l0,0c0,0,0,0-0.1-0.1l0,0
		c0,0,0,0-0.1-0.1l0,0c0,0,0,0-0.1-0.1c0,0,0,0,0,0c0,0,0,0-0.1,0c0,0,0,0,0,0c0,0,0,0-0.1,0c0,0,0,0,0,0c0,0,0,0,0,0c0,0,0,0,0,0
		c0,0,0,0,0,0c0,0,0,0,0,0c0,0,0,0,0,0c0,0,0,0,0,0c0,0,0,0,0,0c0,0,0,0,0,0c0,0,0,0,0,0c0,0,0,0,0,0c0,0,0,0,0,0c0,0,0,0,0,0
		c0,0,0,0,0,0c0,0,0,0,0,0c0,0,0,0,0,0c0,0,0,0-0.1-0.1l0,0C55.8,228,55.7,227.9,55.7,227.9L55.7,227.9L55.7,227.9z M62.6,233
		l-5.5,8c1.6,1.1,3.2,2.2,4.9,3.2l5.2-8.2c-0.1,0-0.1-0.1-0.2-0.1c0,0,0,0,0,0c0,0,0,0,0,0c0,0,0,0,0,0c0,0,0,0,0,0c0,0,0,0-0.1,0
		c0,0,0,0,0,0c0,0,0,0-0.1,0l0,0c0,0,0,0-0.1,0l0,0c-0.7-0.4-1.3-0.9-2-1.3l0,0c0,0,0,0-0.1,0h0c0,0,0,0-0.1-0.1c0,0,0,0,0,0
		c0,0,0,0-0.1,0c0,0,0,0,0,0c0,0,0,0-0.1,0c0,0,0,0,0,0c0,0,0,0-0.1,0c0,0,0,0,0,0c0,0,0,0-0.1,0c0,0,0,0,0,0c0,0,0,0-0.1,0
		c0,0,0,0,0,0c0,0,0,0-0.1,0c0,0,0,0,0,0c0,0,0,0,0,0c0,0,0,0,0,0c0,0,0,0,0,0s0,0,0,0c0,0,0,0,0,0s0,0,0,0c0,0,0,0,0,0c0,0,0,0,0,0
		c0,0,0,0,0,0c0,0,0,0,0,0c0,0,0,0,0,0c0,0,0,0,0,0c0,0,0,0,0,0c0,0,0,0,0,0c0,0,0,0,0,0c0,0,0,0,0,0c0,0,0,0,0,0c0,0,0,0,0,0
		c0,0,0,0,0,0c0,0,0,0,0,0c0,0,0,0,0,0c0,0,0,0,0,0c0,0,0,0,0,0c0,0,0,0,0,0c0,0,0,0,0,0c0,0,0,0,0,0c0,0,0,0,0,0c0,0,0,0,0,0
		c0,0,0,0,0,0c0,0,0,0,0,0c0,0,0,0-0.1,0c0,0,0,0,0,0c0,0,0,0-0.1,0c0,0,0,0,0,0c0,0,0,0-0.1,0l0,0C62.8,233.2,62.7,233.1,62.6,233
		L62.6,233L62.6,233z M69.9,237.7l-4.9,8.4c1.7,1,3.4,1.9,5.1,2.9l4.6-8.6c-0.4-0.2-0.9-0.5-1.3-0.7l0,0c0,0,0,0-0.1,0l0,0
		c0,0,0,0-0.1,0c0,0,0,0,0,0c0,0,0,0-0.1,0c0,0,0,0,0,0c0,0,0,0-0.1,0l0,0c0,0,0,0,0,0c0,0,0,0,0,0c0,0,0,0,0,0s0,0,0,0c0,0,0,0,0,0
		s0,0,0,0c0,0,0,0,0,0c0,0,0,0-0.1,0c0,0,0,0,0,0l-0.1,0c0,0,0,0,0,0c0,0-0.1,0-0.1,0l0,0c-0.6-0.4-1.3-0.7-1.9-1.1c0,0,0,0,0,0
		c0,0,0,0-0.1,0c0,0,0,0,0,0c0,0,0,0-0.1,0c0,0,0,0,0,0c0,0,0,0,0,0c0,0,0,0,0,0c0,0,0,0,0,0c0,0,0,0-0.1,0c0,0,0,0,0,0
		c0,0,0,0-0.1,0c0,0,0,0,0,0c0,0,0,0-0.1,0l0,0C70.1,237.8,70,237.8,69.9,237.7L69.9,237.7L69.9,237.7z M77.4,241.8l-4.3,8.7
		c1.7,0.9,3.5,1.7,5.3,2.5l4-8.9c-0.5-0.2-1-0.5-1.5-0.7l0,0c0,0-0.1,0-0.1,0l0,0c0,0,0,0-0.1,0c0,0,0,0,0,0c0,0,0,0-0.1,0
		c0,0,0,0,0,0c0,0,0,0-0.1,0c0,0,0,0,0,0c0,0,0,0-0.1,0c0,0,0,0,0,0c0,0,0,0,0,0c0,0,0,0-0.1,0c0,0,0,0,0,0l-0.1,0l0,0
		C79.3,242.7,78.4,242.3,77.4,241.8L77.4,241.8L77.4,241.8z M85.3,245.4l-3.7,9c1.8,0.7,3.6,1.4,5.4,2.1l3.3-9.1c0,0,0,0,0,0
		c0,0,0,0,0,0h0c0,0,0,0-0.1,0c0,0,0,0,0,0c0,0,0,0-0.1,0c0,0,0,0,0,0c0,0-0.1,0-0.1,0l0,0C88.4,246.7,86.8,246.1,85.3,245.4
		L85.3,245.4L85.3,245.4z M93.4,248.4l-3.1,9.2c1.8,0.6,3.7,1.2,5.6,1.7l2.7-9.3c-1.5-0.4-3-0.9-4.5-1.4l0,0c0,0-0.1,0-0.1,0l0,0
		c0,0-0.1,0-0.1,0l0,0c0,0-0.1,0-0.1,0l0,0c0,0-0.1,0-0.1,0c0,0,0,0,0,0c0,0,0,0-0.1,0c0,0,0,0,0,0c0,0,0,0-0.1,0c0,0,0,0,0,0
		s0,0-0.1,0C93.5,248.5,93.5,248.5,93.4,248.4C93.4,248.5,93.4,248.5,93.4,248.4L93.4,248.4L93.4,248.4L93.4,248.4z M101.7,250.9
		l-2.4,9.4c1.9,0.5,3.8,0.9,5.7,1.3l2-9.5c-0.9-0.2-1.8-0.4-2.7-0.6l0,0c0,0,0,0,0,0c0,0,0,0,0,0h0c0,0,0,0,0,0c0,0,0,0,0,0
		c0,0,0,0,0,0c0,0,0,0,0,0c0,0,0,0,0,0c0,0,0,0,0,0C103.2,251.3,102.4,251.1,101.7,250.9L101.7,250.9L101.7,250.9z M110.1,252.7
		l-1.7,9.6c1.9,0.4,3.8,0.7,5.8,0.9l1.3-9.6c0,0-0.1,0-0.1,0l0,0c0,0,0,0,0,0l0,0c0,0,0,0,0,0l0,0c0,0,0,0,0,0l0,0c0,0,0,0,0,0l0,0
		c-0.1,0-0.1,0-0.2,0l0,0c0,0,0,0,0,0l0,0c0,0,0,0,0,0c0,0,0,0,0,0s0,0,0,0c0,0,0,0,0,0s0,0,0,0c0,0,0,0,0,0c-0.1,0-0.1,0-0.2,0l0,0
		c0,0,0,0,0,0c0,0,0,0,0,0c0,0,0,0,0,0c0,0,0,0,0,0c0,0,0,0,0,0c0,0,0,0,0,0s0,0,0,0l0,0c-0.1,0-0.1,0-0.2,0l0,0c0,0,0,0,0,0h0
		c0,0,0,0,0,0h0c0,0,0,0,0,0c0,0,0,0,0,0c0,0,0,0,0,0c0,0,0,0,0,0h0c0,0,0,0,0,0c0,0-0.1,0-0.1,0c0,0,0,0,0,0s0,0,0,0c0,0,0,0,0,0
		c0,0,0,0,0,0h0c0,0,0,0,0,0h0c0,0,0,0,0,0c0,0,0,0,0,0s0,0,0,0c0,0,0,0,0,0c0,0-0.1,0-0.1,0l0,0c0,0,0,0,0,0c0,0,0,0,0,0s0,0,0,0
		c0,0,0,0,0,0c0,0,0,0,0,0c0,0,0,0,0,0c0,0,0,0,0,0c0,0,0,0,0,0h0h0c0,0,0,0,0,0c0,0,0,0,0,0c0,0,0,0-0.1,0c0,0,0,0,0,0h0
		c0,0,0,0,0,0h0c0,0,0,0,0,0h0c0,0,0,0,0,0c0,0,0,0,0,0h0h0c0,0,0,0,0,0h0c0,0,0,0,0,0c0,0,0,0,0,0c0,0,0,0,0,0c0,0,0,0,0,0
		c0,0,0,0,0,0c0,0,0,0,0,0s0,0,0,0s0,0,0,0c0,0,0,0,0,0h0c0,0,0,0,0,0h0c0,0,0,0,0,0h0c0,0,0,0,0,0s0,0,0,0c0,0,0,0,0,0c0,0,0,0,0,0
		c0,0,0,0,0,0c0,0,0,0,0,0c0,0,0,0,0,0c0,0,0,0,0,0c0,0,0,0,0,0c0,0,0,0,0,0l0,0c0,0,0,0,0,0l0,0c-0.1,0-0.2,0-0.2,0l0,0
		c-0.7-0.1-1.4-0.2-2.1-0.4l0,0L110.1,252.7z M118.6,254l-1.1,9.7c1.9,0.2,3.9,0.4,5.8,0.5l0.6-9.7c-0.7,0-1.3-0.1-2-0.1l0,0
		c0,0,0,0,0,0l0,0h0c0,0,0,0,0,0s0,0,0,0c0,0,0,0,0,0s0,0,0,0h0c0,0,0,0-0.1,0c0,0,0,0,0,0h0c0,0,0,0,0,0c0,0,0,0,0,0c0,0,0,0,0,0
		c0,0,0,0,0,0c0,0,0,0,0,0c0,0,0,0,0,0s0,0,0,0l0,0C120.6,254.2,119.6,254.1,118.6,254L118.6,254L118.6,254z M127.2,254.6l-0.4,9.7
		c1.8,0.1,3.6,0.1,5.4,0.1h0.4l0-9.7c-0.1,0-0.1,0-0.1,0c0,0,0,0,0,0l0,0c-0.1,0-0.2,0-0.2,0h-0.1c0,0-0.1,0-0.1,0h0c0,0,0,0-0.1,0
		h0c0,0,0,0-0.1,0h0c0,0,0,0-0.1,0l0,0c0,0-0.1,0-0.1,0h0c0,0-0.1,0-0.1,0l0,0c0,0,0,0-0.1,0c0,0,0,0,0,0c0,0,0,0-0.1,0l0,0
		c0,0,0,0-0.1,0l0,0c0,0-0.1,0-0.1,0l0,0c0,0-0.1,0-0.1,0l0,0c0,0-0.1,0-0.1,0l0,0c-0.1,0-0.1,0-0.1,0l0,0c0,0-0.1,0-0.1,0l0,0
		c-0.1,0-0.1,0-0.1,0l0,0c-1.1,0-2.2,0-3.3-0.1l0,0c0,0-0.1,0-0.1,0l0,0c0,0-0.1,0-0.1,0l0,0c0,0-0.1,0-0.1,0c0,0,0,0,0,0
		C127.3,254.6,127.3,254.6,127.2,254.6L127.2,254.6L127.2,254.6L127.2,254.6z M141.3,254.4c-1.8,0.1-3.6,0.2-5.4,0.3l0.3,9.7
		c1.9-0.1,3.9-0.2,5.8-0.3L141.3,254.4L141.3,254.4L141.3,254.4z M149.8,253.4c-0.2,0-0.4,0.1-0.6,0.1c0,0,0,0,0,0c0,0,0,0,0,0
		s0,0,0,0l0,0c0,0,0,0,0,0l0,0c-1.6,0.2-3.1,0.4-4.7,0.6l1,9.7c1.9-0.2,3.9-0.4,5.8-0.7L149.8,253.4L149.8,253.4L149.8,253.4z
		 M158.3,251.9c-1.5,0.3-3,0.6-4.6,0.9l0,0c-0.1,0-0.1,0-0.1,0c0,0,0,0,0,0c0,0,0,0,0,0c0,0,0,0,0,0c0,0,0,0,0,0c0,0,0,0,0,0
		c0,0,0,0,0,0s0,0,0,0l0,0c-0.1,0-0.3,0.1-0.4,0.1l1.6,9.6c1.9-0.3,3.8-0.7,5.7-1.1L158.3,251.9L158.3,251.9L158.3,251.9z
		 M166.7,249.8c-0.2,0.1-0.5,0.1-0.8,0.2c0,0,0,0,0,0c0,0-0.1,0-0.1,0c0,0,0,0,0,0c0,0,0,0,0,0c0,0,0,0-0.1,0c0,0,0,0,0,0
		c0,0,0,0,0,0c0,0,0,0,0,0c0,0,0,0,0,0c0,0,0,0,0,0c0,0,0,0-0.1,0h0c0,0,0,0-0.1,0h0c0,0,0,0-0.1,0c0,0,0,0,0,0c0,0,0,0-0.1,0
		c0,0,0,0,0,0c0,0,0,0-0.1,0l0,0c0,0-0.1,0-0.1,0c0,0,0,0,0,0c0,0-0.1,0-0.1,0l0,0c0,0-0.1,0-0.1,0l0,0c-0.1,0-0.1,0-0.2,0l0,0
		c0,0-0.1,0-0.1,0l0,0c0,0-0.1,0-0.1,0l0,0c-0.4,0.1-0.7,0.2-1.1,0.3l0,0c0,0-0.1,0-0.1,0l0,0c-0.1,0-0.2,0-0.2,0.1l0,0
		c0,0-0.1,0-0.1,0l0,0c0,0-0.1,0-0.1,0l0,0c-0.1,0-0.1,0-0.2,0l0,0c0,0-0.1,0-0.1,0l0,0c0,0-0.1,0-0.1,0c0,0,0,0,0,0
		c0,0-0.1,0-0.1,0l0,0c0,0-0.1,0-0.1,0l0,0c0,0-0.1,0-0.1,0c0,0,0,0,0,0c0,0-0.1,0-0.1,0c0,0,0,0,0,0c0,0-0.1,0-0.1,0h0
		c0,0,0,0-0.1,0c0,0,0,0,0,0c0,0,0,0-0.1,0h0c0,0,0,0-0.1,0c0,0,0,0,0,0c0,0,0,0-0.1,0c0,0,0,0,0,0c0,0,0,0-0.1,0c0,0,0,0,0,0
		c0,0,0,0-0.1,0c0,0,0,0,0,0c0,0,0,0-0.1,0c0,0,0,0,0,0c0,0,0,0-0.1,0c0,0,0,0,0,0c0,0,0,0-0.1,0c0,0,0,0,0,0c0,0,0,0-0.1,0l0,0
		l2.3,9.4c1.9-0.5,3.8-1,5.6-1.5l-2.7-9.3l0,0L166.7,249.8z M174.9,247.1c-1.7,0.6-3.4,1.2-5.1,1.8l3,9.3c1.8-0.6,3.7-1.2,5.5-1.9
		L174.9,247.1L174.9,247.1L174.9,247.1z M182.9,243.8c-1.6,0.7-3.3,1.4-5,2.1l3.6,9c1.8-0.7,3.6-1.5,5.4-2.3L182.9,243.8
		L182.9,243.8L182.9,243.8z M190.6,239.9c-1.4,0.8-2.8,1.5-4.3,2.2l0,0c0,0,0,0-0.1,0c0,0,0,0,0,0c0,0,0,0-0.1,0c0,0,0,0,0,0
		c0,0,0,0-0.1,0c0,0,0,0,0,0c0,0,0,0,0,0c0,0,0,0-0.1,0c0,0,0,0,0,0c-0.1,0-0.1,0.1-0.2,0.1l4.2,8.7c1.7-0.9,3.5-1.7,5.2-2.7
		L190.6,239.9L190.6,239.9L190.6,239.9z M198,235.5L198,235.5c-0.1,0-0.1,0.1-0.1,0.1l0,0c0,0,0,0-0.1,0l0,0c0,0,0,0-0.1,0.1l0,0
		c0,0,0,0-0.1,0l0,0c0,0,0,0-0.1,0l0,0c-0.1,0-0.1,0.1-0.1,0.1l0,0c0,0,0,0-0.1,0c0,0,0,0,0,0c0,0,0,0-0.1,0c0,0,0,0,0,0
		c0,0,0,0-0.1,0l0,0c0,0,0,0-0.1,0l0,0c0,0,0,0-0.1,0l0,0c0,0,0,0-0.1,0c0,0,0,0,0,0c0,0,0,0-0.1,0h0c0,0,0,0-0.1,0h0
		c0,0,0,0-0.1,0.1h0c0,0,0,0-0.1,0c0,0,0,0,0,0c0,0,0,0-0.1,0c0,0,0,0,0,0c0,0,0,0-0.1,0c0,0,0,0,0,0c0,0,0,0-0.1,0c0,0,0,0,0,0
		c0,0,0,0-0.1,0c0,0,0,0,0,0c0,0,0,0-0.1,0c0,0,0,0,0,0c0,0,0,0-0.1,0c0,0,0,0,0,0c0,0,0,0,0,0c0,0,0,0,0,0c0,0,0,0-0.1,0
		c0,0,0,0,0,0c0,0,0,0-0.1,0c0,0,0,0,0,0c0,0,0,0-0.1,0c0,0,0,0,0,0c0,0,0,0,0,0s0,0,0,0c0,0,0,0,0,0c0,0,0,0,0,0c0,0,0,0,0,0
		s0,0,0,0c0,0,0,0,0,0l0,0c0,0,0,0-0.1,0c0,0,0,0,0,0c0,0,0,0-0.1,0c0,0,0,0,0,0c0,0,0,0,0,0c0,0,0,0,0,0c0,0,0,0,0,0c0,0,0,0,0,0
		c0,0,0,0,0,0c0,0,0,0,0,0c0,0,0,0-0.1,0c0,0,0,0,0,0c0,0,0,0-0.1,0c0,0,0,0,0,0c0,0,0,0,0,0c0,0,0,0,0,0l0,0c0,0,0,0,0,0
		c0,0,0,0,0,0c0,0,0,0,0,0s0,0,0,0c0,0,0,0,0,0c0,0,0,0-0.1,0c0,0,0,0,0,0c0,0,0,0-0.1,0c0,0,0,0,0,0c0,0,0,0,0,0c0,0,0,0,0,0
		c0,0,0,0,0,0s0,0,0,0c0,0,0,0,0,0s0,0,0,0c0,0,0,0,0,0c0,0,0,0,0,0c0,0,0,0-0.1,0c0,0,0,0,0,0c0,0,0,0-0.1,0h0c0,0,0,0-0.1,0h0
		c0,0,0,0-0.1,0c0,0,0,0,0,0c0,0,0,0-0.1,0c0,0,0,0,0,0c0,0,0,0-0.1,0c0,0,0,0,0,0c0,0,0,0-0.1,0c0,0,0,0,0,0c0,0,0,0-0.1,0l0,0
		c0,0-0.1,0-0.1,0l0,0c-0.1,0-0.1,0.1-0.1,0.1l0,0c-0.1,0.1-0.2,0.1-0.3,0.2l4.9,8.4c1.7-1,3.4-2,5-3l-5.2-8.2l0,0L198,235.5z
		 M205.1,230.6c-1.4,1.1-2.9,2.1-4.4,3.1l5.4,8.1c1.6-1.1,3.2-2.2,4.8-3.4L205.1,230.6L205.1,230.6L205.1,230.6z M211.9,225.3
		L211.9,225.3C211.9,225.3,211.9,225.3,211.9,225.3L211.9,225.3c-0.1,0.1-0.1,0.1-0.1,0.1c0,0,0,0,0,0c0,0,0,0-0.1,0c0,0,0,0,0,0
		c0,0,0,0,0,0c0,0,0,0,0,0c0,0,0,0,0,0c0,0,0,0,0,0c0,0,0,0,0,0l0,0c0,0,0,0,0,0c0,0,0,0-0.1,0c0,0,0,0,0,0c0,0,0,0-0.1,0.1l0,0
		c0,0,0,0,0,0l0,0c0,0,0,0-0.1,0.1l0,0c0,0,0,0-0.1,0.1l0,0c0,0,0,0-0.1,0.1l0,0c-0.8,0.7-1.6,1.3-2.4,2l0,0
		c-0.1,0.1-0.1,0.1-0.2,0.1c0,0,0,0,0,0c0,0,0,0-0.1,0c0,0,0,0,0,0c0,0,0,0,0,0c0,0,0,0,0,0c0,0,0,0,0,0c0,0,0,0,0,0c0,0,0,0,0,0
		c0,0,0,0,0,0c0,0,0,0,0,0c0,0,0,0-0.1,0c0,0,0,0,0,0c0,0,0,0-0.1,0c0,0,0,0,0,0c0,0,0,0-0.1,0c0,0,0,0,0,0c0,0,0,0-0.1,0l0,0
		c0,0,0,0-0.1,0.1l0,0c0,0,0,0-0.1,0.1l0,0c0,0,0,0-0.1,0.1l0,0l6,7.6c1.5-1.2,3-2.4,4.5-3.7L211.9,225.3L211.9,225.3L211.9,225.3z
		 M218.2,219.4c-0.3,0.3-0.6,0.6-1,1l0,0c0,0,0,0-0.1,0c0,0,0,0,0,0c0,0,0,0,0,0l0,0c0,0,0,0,0,0s0,0,0,0c0,0,0,0,0,0c0,0,0,0,0,0
		c0,0,0,0,0,0c0,0,0,0,0,0c0,0,0,0,0,0c0,0,0,0-0.1,0.1l0,0c0,0,0,0-0.1,0.1l0,0c0,0-0.1,0.1-0.1,0.1l0,0c0,0,0,0-0.1,0.1l0,0
		c0,0,0,0-0.1,0.1l0,0c-0.5,0.5-1,0.9-1.5,1.4l0,0c0,0,0,0-0.1,0.1l0,0c0,0,0,0-0.1,0.1l0,0c0,0,0,0-0.1,0.1c0,0,0,0,0,0s0,0,0,0
		c0,0,0,0,0,0c0,0,0,0,0,0c0,0,0,0,0,0c0,0,0,0,0,0c0,0,0,0,0,0l0,0c-0.1,0.1-0.2,0.2-0.4,0.3l6.5,7.2c1.4-1.3,2.9-2.6,4.2-4
		L218.2,219.4L218.2,219.4L218.2,219.4z M224.2,213.1c-1.2,1.4-2.4,2.7-3.6,4l7,6.7c1.3-1.4,2.7-2.8,3.9-4.3L224.2,213.1
		L224.2,213.1L224.2,213.1z M229.6,206.5C229.6,206.5,229.6,206.5,229.6,206.5L229.6,206.5c0,0-0.1,0.1-0.1,0.1c0,0,0,0,0,0
		c0,0,0,0,0,0.1c0,0,0,0,0,0c0,0,0,0,0,0c0,0,0,0,0,0c0,0,0,0,0,0c0,0,0,0,0,0.1c0,0,0,0,0,0c0,0,0,0,0,0.1c0,0,0,0,0,0
		c0,0,0,0,0,0.1c0,0,0,0,0,0c0,0,0,0,0,0.1c0,0,0,0,0,0c0,0,0,0,0,0.1l0,0c0,0,0,0-0.1,0.1l0,0c0,0,0,0.1-0.1,0.1l0,0
		c-0.9,1.2-1.9,2.3-2.8,3.5l7.5,6.2c1.2-1.5,2.5-3,3.6-4.6L229.6,206.5L229.6,206.5L229.6,206.5z M234.6,199.4
		c-0.1,0.2-0.2,0.4-0.4,0.6l0,0c0,0,0,0.1,0,0.1l0,0c0,0,0,0,0,0.1c0,0,0,0,0,0c0,0,0,0,0,0.1l0,0c0,0,0,0,0,0.1c0,0,0,0,0,0
		c0,0,0,0,0,0c0,0,0,0,0,0c0,0,0,0,0,0c0,0,0,0-0.1,0.1l0,0c-0.6,0.9-1.3,1.9-1.9,2.8v0c0,0,0,0,0,0.1c0,0,0,0,0,0c0,0,0,0,0,0
		c0,0,0,0,0,0c0,0,0,0,0,0c0,0,0,0,0,0.1c0,0,0,0,0,0c0,0,0,0,0,0.1l0,0c0,0,0,0-0.1,0.1l0,0c-0.1,0.1-0.1,0.2-0.2,0.3l7.9,5.7
		c1.1-1.6,2.2-3.2,3.3-4.8L234.6,199.4L234.6,199.4L234.6,199.4z M239.1,192.1c-0.5,0.9-1,1.7-1.5,2.6l0,0c0,0,0,0.1,0,0.1l0,0
		c0,0,0,0,0,0.1l0,0c0,0,0,0,0,0.1c0,0,0,0,0,0c0,0,0,0,0,0.1c0,0,0,0,0,0c0,0,0,0,0,0.1c0,0,0,0,0,0c0,0,0,0,0,0.1c0,0,0,0,0,0
		c0,0,0,0,0,0.1c0,0,0,0,0,0c0,0,0,0,0,0c0,0,0,0,0,0.1c0,0,0,0,0,0c0,0,0,0,0,0.1c0,0,0,0,0,0c-0.3,0.5-0.6,0.9-0.9,1.4l8.2,5.1
		c1-1.6,2-3.3,3-5L239.1,192.1L239.1,192.1L239.1,192.1z M243.1,184.4c-0.3,0.6-0.6,1.3-0.9,1.9l0,0c0,0.1-0.1,0.1-0.1,0.2l0,0
		c0,0,0,0.1,0,0.1c0,0,0,0,0,0c0,0,0,0,0,0.1c0,0,0,0,0,0c0,0,0,0,0,0.1c0,0,0,0,0,0c0,0,0,0,0,0c0,0,0,0,0,0c0,0,0,0,0,0
		c0,0,0,0,0,0c0,0,0,0,0,0.1c0,0,0,0,0,0l0,0.1c0,0,0,0,0,0l0,0.1c0,0,0,0,0,0c0,0,0,0,0,0c0,0,0,0,0,0.1c0,0,0,0,0,0c0,0,0,0,0,0.1
		c0,0,0,0,0,0c0,0,0,0,0,0s0,0,0,0c0,0,0,0,0,0c0,0,0,0,0,0c0,0,0,0,0,0.1c0,0,0,0,0,0c0,0,0,0,0,0.1c0,0,0,0,0,0c0,0,0,0,0,0.1
		c0,0,0,0,0,0c0,0,0,0,0,0.1c0,0,0,0,0,0c0,0,0,0,0,0.1c0,0,0,0,0,0c0,0,0,0,0,0.1c0,0,0,0,0,0c0,0,0,0,0,0.1c0,0,0,0,0,0
		c0,0,0,0,0,0.1c0,0,0,0,0,0c0,0,0,0,0,0.1l0,0c0,0,0,0.1,0,0.1l0,0c0,0,0,0.1,0,0.1l0,0c0,0,0,0.1,0,0.1l0,0c0,0,0,0.1,0,0.1l0,0
		c0,0,0,0.1,0,0.1l0,0c-0.1,0.2-0.2,0.4-0.4,0.7l8.6,4.5c0.9-1.7,1.8-3.5,2.6-5.2L243.1,184.4L243.1,184.4L243.1,184.4z
		 M246.5,176.4c0,0.1-0.1,0.2-0.1,0.2l0,0c0,0,0,0.1,0,0.1l0,0c0,0.1-0.1,0.2-0.1,0.2l0,0c0,0,0,0,0,0.1c0,0,0,0,0,0
		c0,0,0,0.1,0,0.1c0,0,0,0,0,0c0,0,0,0,0,0.1c0,0,0,0,0,0c0,0,0,0.1,0,0.1l0,0c0,0,0,0,0,0.1c0,0,0,0,0,0c0,0,0,0,0,0.1c0,0,0,0,0,0
		c0,0,0,0,0,0.1c0,0,0,0,0,0c0,0,0,0,0,0.1c0,0,0,0,0,0c0,0,0,0,0,0.1v0c0,0,0,0,0,0.1c0,0,0,0,0,0c0,0,0,0,0,0.1c0,0,0,0,0,0
		c0,0,0,0,0,0.1c0,0,0,0,0,0c0,0,0,0,0,0.1c0,0,0,0,0,0c0,0,0,0,0,0.1c0,0,0,0,0,0c0,0,0,0,0,0.1l0,0c0,0,0,0.1,0,0.1c0,0,0,0,0,0
		c0,0,0,0,0,0.1c0,0,0,0,0,0c0,0,0,0,0,0.1c0,0,0,0,0,0c0,0,0,0,0,0.1c0,0,0,0,0,0c0,0,0,0,0,0.1l0,0c0,0,0,0.1,0,0.1c0,0,0,0,0,0
		c0,0,0,0,0,0.1c0,0,0,0,0,0c0,0,0,0,0,0.1c0,0,0,0,0,0c0,0,0,0.1,0,0.1l0,0c0,0,0,0.1,0,0.1l0,0c0,0,0,0.1,0,0.1l0,0
		c0,0,0,0.1,0,0.1l0,0c0,0,0,0.1,0,0.1l0,0c0,0,0,0.1,0,0.1l0,0c-0.3,0.7-0.6,1.4-0.9,2.2l8.9,3.9c0.8-1.8,1.5-3.6,2.2-5.4l-9.1-3.5
		l0,0L246.5,176.4z M249.3,168.3C249.3,168.3,249.3,168.3,249.3,168.3L249.3,168.3c0,0,0,0.1,0,0.1v0c0,0,0,0,0,0c0,0,0,0,0,0.1
		c0,0,0,0,0,0c0,0,0,0,0,0.1c0,0,0,0,0,0c0,0,0,0.1,0,0.1l0,0c0,0,0,0.1,0,0.1l0,0c0,0,0,0.1,0,0.1l0,0c0,0,0,0.1,0,0.1l0,0
		c-0.3,0.9-0.6,1.8-0.9,2.7l0,0c0,0,0,0.1,0,0.1l0,0c0,0.1,0,0.1-0.1,0.2l0,0c0,0,0,0.1,0,0.1l0,0c0,0,0,0.1,0,0.1l0,0
		c0,0,0,0.1,0,0.1l0,0c0,0,0,0.1,0,0.1l0,0c0,0,0,0.1,0,0.1l0,0c0,0,0,0.1,0,0.1c0,0,0,0,0,0c0,0,0,0,0,0.1c0,0,0,0,0,0
		c0,0,0,0,0,0.1c0,0,0,0,0,0c0,0,0,0.1,0,0.1l0,0c0,0,0,0,0,0.1c0,0,0,0,0,0c0,0,0,0.1,0,0.1c0,0,0,0,0,0c0,0,0,0.1,0,0.1
		c0,0,0,0,0,0c0,0,0,0,0,0.1l0,0c0,0.1,0,0.1-0.1,0.1l0,0c0,0,0,0.1,0,0.1l0,0c0,0,0,0.1,0,0.1l0,0c0,0.1,0,0.1-0.1,0.2l9.1,3.3
		c0.6-1.8,1.3-3.7,1.8-5.5l-9.3-2.9l0,0L249.3,168.3z M251.6,159.9c-0.3,1.3-0.6,2.5-0.9,3.8c0,0,0,0,0,0c0,0,0,0,0,0.1c0,0,0,0,0,0
		c0,0,0,0,0,0.1c0,0,0,0,0,0c0,0,0,0,0,0c0,0,0,0,0,0.1c0,0,0,0,0,0c0,0,0,0.1,0,0.1c0,0,0,0,0,0c-0.1,0.4-0.2,0.7-0.3,1.1l9.4,2.6
		c0.5-1.9,1-3.8,1.4-5.6L251.6,159.9L251.6,159.9L251.6,159.9z M253.2,151.5c-0.3,1.8-0.6,3.6-1,5.3l9.5,1.9c0.4-1.9,0.7-3.8,1-5.7
		L253.2,151.5L253.2,151.5L253.2,151.5z M254.2,142.9c-0.1,0.9-0.2,1.8-0.3,2.7l0,0c0,0,0,0,0,0l0,0c0,0,0,0,0,0l0,0c0,0,0,0,0,0
		l0,0c0,0.1,0,0.1,0,0.1c0,0,0,0,0,0s0,0,0,0c0,0,0,0,0,0c0,0,0,0,0,0c0,0,0,0,0,0c0,0,0,0,0,0c0,0,0,0,0,0c0,0,0,0,0,0c0,0,0,0,0,0
		c0,0,0,0,0,0l0,0c0,0,0,0.1,0,0.1c0,0,0,0,0,0c0,0,0,0,0,0c0,0,0,0,0,0c0,0,0,0,0,0c0,0,0,0,0,0c0,0,0,0,0,0c0,0,0,0,0,0
		c0,0,0,0,0,0c0,0,0,0,0,0c0,0,0,0,0,0c0,0,0,0,0,0c0,0,0,0.1,0,0.1l0,0c0,0,0,0,0,0c0,0,0,0,0,0s0,0,0,0l0,0v0l0,0c0,0,0,0,0,0l0,0
		c0,0.1,0,0.1,0,0.2l0,0c-0.1,0.4-0.1,0.9-0.2,1.3l9.6,1.3c0.2-1.9,0.5-3.9,0.6-5.8L254.2,142.9L254.2,142.9L254.2,142.9z
		 M254.7,134.3c0,0.4,0,0.7,0,1.1l0,0c0,0.1,0,0.1,0,0.1c0,0,0,0,0,0s0,0,0,0c0,0,0,0,0,0v0c0,0,0,0,0,0c0,0,0,0,0,0c0,0,0,0,0,0v0
		v0l0,0c0,0,0,0.1,0,0.1l0,0c0,0,0,0,0,0l0,0c0,0,0,0,0,0l0,0c0,0,0,0,0,0l0,0c0,1.2-0.1,2.5-0.2,3.7l9.7,0.6
		c0.1-1.9,0.2-3.9,0.2-5.8L254.7,134.3L254.7,134.3L254.7,134.3z M264.2,125.1l-9.7,0.5c0,0.6,0.1,1.2,0.1,1.8l0,0c0,0,0,0,0,0
		c0,0,0,0,0,0c0,0,0,0,0,0c0,0,0,0,0,0c0,0,0,0,0,0v0v0c0,0,0,0,0,0.1c0,0,0,0,0,0c0,0,0,0,0,0c0,0,0,0,0,0s0,0,0,0c0,0,0,0,0,0v0
		l0,0c0,0,0,0,0,0l0,0c0,0.6,0,1.3,0.1,1.9l0,0c0,0,0,0,0,0c0,0,0,0,0,0c0,0,0,0,0,0c0,0,0,0,0,0v0c0,0,0,0,0,0v0c0,0.4,0,0.7,0,1.1
		l9.7-0.1C264.4,129,264.3,127,264.2,125.1L264.2,125.1L264.2,125.1z M263.4,115.9l-9.6,1.2c0,0,0,0,0,0c0,0,0,0,0,0
		c0.2,1.8,0.4,3.5,0.5,5.3l9.7-0.8C263.9,119.7,263.7,117.8,263.4,115.9L263.4,115.9L263.4,115.9z M262,106.7l-9.5,1.9
		c0.3,1.3,0.5,2.7,0.7,4l0,0v0c0,0,0,0,0,0s0,0,0,0c0,0,0,0,0,0v0v0c0,0,0,0,0,0c0,0,0,0,0,0c0,0,0,0,0,0c0,0,0,0,0,0c0,0,0,0,0,0
		c0.1,0.4,0.1,0.7,0.2,1.1l9.6-1.4C262.6,110.5,262.3,108.6,262,106.7L262,106.7L262,106.7z M259.8,97.6l-9.4,2.5
		c0.1,0.3,0.2,0.6,0.2,0.9l0,0c0,0,0,0.1,0,0.1c0,0,0,0,0,0c0,0,0,0,0,0v0c0,0,0,0,0,0c0,0,0,0,0,0c0,0,0,0,0,0s0,0,0,0l0,0
		c0,0,0,0,0,0.1l0,0c0.2,0.9,0.5,1.8,0.7,2.8l0,0c0,0,0,0,0,0v0c0,0,0,0,0,0c0,0,0,0,0,0c0,0,0,0,0,0c0,0,0,0,0,0c0,0,0,0,0,0
		s0,0,0,0l0,0c0.1,0.3,0.2,0.7,0.2,1.1l9.5-2.1c-0.4-1.9-0.9-3.8-1.4-5.7l0,0L259.8,97.6z M257.1,88.7l-9.2,3.2
		c0,0.1,0.1,0.2,0.1,0.3l0,0c0,0,0,0.1,0,0.1c0,0,0,0,0,0c0,0,0,0,0,0.1c0,0,0,0,0,0c0,0,0,0,0,0.1c0,0,0,0,0,0c0,0,0,0,0,0
		c0.4,1.2,0.8,2.5,1.2,3.8l0,0c0,0,0,0.1,0,0.1v0c0,0,0,0,0,0.1c0,0,0,0,0,0s0,0,0,0c0,0,0,0,0,0.1c0,0,0,0,0,0c0,0,0,0,0,0.1
		c0,0,0,0,0,0c0,0,0,0,0,0.1c0,0,0,0,0,0c0,0,0,0,0,0.1c0,0,0,0,0,0c0,0,0,0,0,0.1c0,0,0,0,0,0c0,0,0,0.1,0,0.1l0,0c0,0,0,0.1,0,0.1
		l9.3-2.8C258.3,92.3,257.7,90.5,257.1,88.7L257.1,88.7L257.1,88.7z M253.7,80l-8.9,3.8c0.1,0.3,0.3,0.6,0.4,1c0,0,0,0,0,0
		c0,0,0,0,0,0.1c0,0,0,0,0,0c0,0,0,0,0,0.1c0,0,0,0,0,0c0,0,0,0,0,0.1c0,0,0,0,0,0c0,0,0,0,0,0c0,0,0,0,0,0.1c0,0,0,0,0,0
		c0,0,0,0,0,0.1c0,0,0,0,0,0c0,0,0,0,0,0c0,0,0,0,0,0c0,0,0,0,0,0.1v0c0,0,0,0,0,0.1v0c0,0,0,0,0,0.1c0,0,0,0,0,0c0,0,0,0,0,0.1
		c0,0,0,0,0,0c0,0,0,0,0,0.1v0c0,0,0,0,0,0.1c0,0,0,0,0,0c0,0,0,0,0,0.1v0c0,0,0,0,0,0.1c0,0,0,0,0,0c0,0,0,0,0,0.1c0,0,0,0,0,0
		c0,0,0,0,0,0.1c0,0,0,0,0,0c0,0,0,0,0,0.1v0c0,0,0,0,0,0.1v0c0,0,0,0,0,0.1v0c0,0,0,0,0,0.1c0,0,0,0,0,0c0,0,0,0,0,0c0,0,0,0,0,0
		c0,0,0,0,0,0c0,0,0,0,0,0c0,0,0,0,0,0.1c0,0,0,0,0,0c0,0,0,0,0,0.1c0,0,0,0,0,0c0,0,0,0,0,0c0,0,0,0,0,0.1c0,0,0,0,0,0
		c0,0,0,0,0,0.1c0,0,0,0,0,0c0,0,0,0,0,0.1v0c0,0,0,0,0,0.1c0,0,0,0,0,0c0,0,0,0,0,0v0c0,0,0,0,0,0.1c0,0,0,0,0,0s0,0.1,0,0.1
		c0,0,0,0,0,0c0,0,0,0.1,0,0.1l0,0c0.2,0.5,0.4,1,0.6,1.4l9.1-3.4c-0.7-1.8-1.4-3.6-2.2-5.4l0,0L253.7,80z M249.7,71.6l-8.6,4.5
		c0.8,1.6,1.6,3.2,2.4,4.8l8.8-4.1C251.5,75,250.6,73.3,249.7,71.6C249.7,71.6,249.7,71.6,249.7,71.6z M245.1,63.4l-8.3,5.1
		c0.1,0.2,0.2,0.3,0.3,0.5l0,0c0,0,0,0,0,0.1c0,0,0,0,0,0c0,0,0,0,0,0.1c0,0,0,0,0,0c0,0,0,0,0,0.1c0,0,0,0,0,0c0,0,0,0,0,0.1
		c0,0,0,0,0,0c0,0,0,0,0,0c0,0,0,0,0,0c0,0,0,0,0,0s0,0,0,0c0,0,0,0,0,0c0,0,0,0,0,0c0,0,0,0,0,0c0,0,0,0,0,0c0,0,0,0,0,0
		c0,0,0,0,0,0.1c0,0,0,0,0,0c0,0,0,0,0,0.1c0,0,0,0,0,0c0,0,0,0,0,0.1c0,0,0,0,0,0c0,0,0,0,0,0.1c0,0,0,0,0,0c0,0,0.1,0.1,0.1,0.1
		c0,0,0,0,0,0c0,0,0,0.1,0,0.1l0,0c0,0,0,0.1,0,0.1l0,0c0,0,0,0.1,0,0.1l0,0c0.1,0.1,0.1,0.2,0.2,0.3l0,0c0,0,0,0.1,0,0.1l0,0
		c0.1,0.1,0.1,0.2,0.2,0.3l0,0c0,0,0,0.1,0,0.1l0,0c0,0,0,0.1,0,0.1l0,0c0.1,0.1,0.1,0.2,0.2,0.3l0,0c0,0,0,0.1,0,0.1l0,0
		c0,0,0,0.1,0,0.1l0,0c0,0,0,0.1,0,0.1l0,0c0,0,0.1,0.1,0.1,0.1l0,0c0,0,0,0.1,0,0.1c0,0,0,0,0,0c0,0,0,0,0,0.1c0,0,0,0,0,0
		c0,0,0,0,0,0.1l0,0c0,0,0,0.1,0,0.1l0,0c0,0,0,0.1,0.1,0.1c0,0,0,0,0,0c0,0,0,0,0,0.1c0,0,0,0,0,0c0,0,0,0,0,0.1c0,0,0,0,0,0
		c0,0,0,0,0,0.1c0,0,0,0,0,0c0,0,0,0.1,0.1,0.1c0,0,0,0,0,0c0,0,0,0.1,0,0.1c0,0,0,0,0,0l0,0.1c0,0,0,0,0,0l0,0.1l0,0
		c0.1,0.1,0.1,0.2,0.2,0.3l0,0c0,0,0,0.1,0.1,0.1l8.5-4.7c-0.9-1.7-1.9-3.4-2.9-5l0,0L245.1,63.4z M240,55.7l-7.9,5.6
		c0.1,0.2,0.3,0.4,0.4,0.5l0,0c0.1,0.1,0.1,0.2,0.2,0.3l0,0c0,0,0,0,0,0.1l0,0c0,0,0,0,0,0.1c0,0,0,0,0,0c0,0,0,0,0,0.1c0,0,0,0,0,0
		c0,0,0,0,0,0.1c0,0,0,0,0,0c0,0,0,0,0,0c0,0,0,0,0,0c0,0,0,0,0,0c0,0,0,0,0,0c0,0,0,0,0,0c0,0,0,0,0,0c0,0,0,0,0,0c0,0,0,0,0,0
		c0,0,0,0,0,0c0,0,0,0,0,0c0,0,0,0,0,0c0,0,0,0,0,0c0,0,0,0,0,0c0,0,0,0,0,0c0,0,0,0,0,0c0,0,0,0,0,0c0,0,0,0,0,0c0,0,0,0,0,0
		c0,0,0,0,0,0c0,0,0,0,0,0c0,0,0,0,0,0c0,0,0,0,0,0.1l0,0c0,0,0,0,0.1,0.1l0,0c0,0,0,0,0.1,0.1l0,0c0.5,0.8,1.1,1.6,1.6,2.4l8.2-5.3
		C242.2,58.8,241.1,57.2,240,55.7L240,55.7L240,55.7z M234.4,48.3l-7.5,6.2c0.1,0.2,0.3,0.4,0.5,0.6c0,0,0,0,0,0c0,0,0,0,0,0
		c0,0,0,0,0,0c0,0,0,0,0,0c0,0,0,0,0,0c0,0,0,0,0,0c0,0,0,0,0,0c0,0,0,0,0,0c0,0,0.1,0.1,0.1,0.1l0,0c0.6,0.8,1.3,1.6,1.9,2.5l0,0
		c0,0,0,0,0.1,0.1l0,0c0,0,0,0,0.1,0.1l0,0c0,0,0,0,0,0.1c0,0,0,0,0,0c0,0,0,0,0,0c0,0,0,0,0,0c0,0,0,0,0,0c0,0,0,0,0,0c0,0,0,0,0,0
		c0,0,0,0,0,0c0,0,0,0,0,0c0,0,0,0,0,0c0,0,0,0,0,0c0,0,0,0,0,0c0,0,0,0,0,0c0,0,0,0,0,0c0,0,0,0,0,0c0,0,0,0,0,0c0,0,0,0,0,0
		c0,0,0,0,0.1,0.1l0,0c0,0,0,0.1,0.1,0.1l7.8-5.8C236.8,51.3,235.6,49.7,234.4,48.3L234.4,48.3L234.4,48.3z M228.2,41.3l-7.1,6.7
		c0.7,0.7,1.3,1.4,1.9,2.1l0,0c0,0,0,0,0.1,0.1l0,0c0,0,0,0,0.1,0.1l0,0c0,0,0.1,0.1,0.1,0.1l0,0c0,0,0,0,0.1,0.1l0,0
		c0,0,0,0,0.1,0.1l0,0c0,0,0,0,0.1,0l0,0c0,0,0,0,0.1,0l0,0c0,0,0,0,0.1,0l0,0c0,0,0,0,0.1,0l0,0c0,0,0,0,0.1,0c0,0,0,0,0,0
		c0,0,0,0,0.1,0c0,0,0,0,0,0c0,0,0,0,0.1,0c0,0,0,0,0,0c0,0,0,0,0.1,0c0,0,0,0,0,0c0,0,0,0,0.1,0c0,0,0,0,0,0s0,0,0,0c0,0,0,0,0,0
		s0,0,0,0c0,0,0,0,0,0s0,0,0,0c0,0,0,0,0,0c0,0,0,0,0,0c0,0,0,0,0,0c0,0,0,0,0,0c0,0,0,0,0,0c0,0,0,0,0,0c0,0,0,0,0,0c0,0,0,0,0,0
		c0,0,0,0,0,0c0,0,0,0,0,0c0,0,0,0,0,0c0,0,0,0,0,0c0,0,0,0,0,0c0,0,0,0,0,0c0,0,0,0,0,0c0,0,0,0,0,0c0,0,0,0,0,0c0,0,0,0,0,0
		c0,0,0,0,0,0c0,0,0,0,0,0c0,0,0,0,0,0s0,0,0,0c0,0,0,0,0,0s0,0,0,0c0,0,0,0,0,0l7.3-6.4C230.8,44,229.5,42.6,228.2,41.3L228.2,41.3
		L228.2,41.3z M221.6,34.8l-6.6,7.2l0,0c0,0,0.1,0.1,0.1,0.1l0,0c0,0,0,0,0.1,0l0,0c0,0,0,0,0.1,0.1h0c0,0,0,0,0.1,0.1c0,0,0,0,0,0
		c0,0,0,0,0.1,0c0,0,0,0,0,0s0,0,0,0c0,0,0,0,0,0c0,0,0,0,0,0c0,0,0,0,0,0c0,0,0,0,0,0c0,0,0,0,0,0c0,0,0,0,0,0c0,0,0,0,0,0
		c0,0,0,0,0,0c0,0,0,0,0,0c0,0,0,0,0.1,0c0,0,0,0,0,0c0,0,0,0,0,0c0,0,0,0,0,0c0,0,0,0,0,0c0,0,0,0,0,0c0,0,0,0,0,0c0,0,0,0,0,0
		c0,0,0,0,0,0c0,0,0,0,0,0c0,0,0,0,0,0c0,0,0,0,0,0c0,0,0,0,0,0c0,0,0,0,0,0c0,0,0,0,0,0c0,0,0,0,0,0c0,0,0,0,0,0c0,0,0,0,0,0
		c0,0,0,0,0,0l0,0c0,0,0,0,0.1,0c0,0,0,0,0,0c0,0,0,0,0.1,0c0,0,0,0,0,0s0,0,0.1,0c0,0,0,0,0,0c0,0,0,0,0.1,0l0,0c0,0,0,0,0.1,0l0,0
		c0,0,0,0,0.1,0l0,0c0,0,0,0,0.1,0.1l0,0c0,0,0,0,0.1,0l0,0c0,0,0,0,0.1,0l0,0c0.7,0.7,1.4,1.3,2.1,2l6.9-6.9
		C224.3,37.4,222.9,36.1,221.6,34.8L221.6,34.8L221.6,34.8z M214.5,28.7l-6.1,7.6c1.2,1,2.4,2,3.6,3l0,0c0,0,0,0,0.1,0l0,0
		c0,0,0,0,0.1,0c0,0,0,0,0,0c0,0,0,0,0,0c0,0,0,0,0,0c0,0,0,0,0,0c0.1,0.1,0.2,0.2,0.3,0.3l6.4-7.3C217.5,31.1,216,29.9,214.5,28.7
		L214.5,28.7L214.5,28.7z M207,23.2l-5.5,8c0.8,0.6,1.7,1.2,2.5,1.7l0,0c0,0,0,0,0.1,0l0,0c0,0,0,0,0.1,0l0,0c0,0,0,0,0.1,0l0,0
		c0,0,0,0,0.1,0l0,0c0,0,0,0,0.1,0c0,0,0,0,0,0c0,0,0,0,0.1,0c0,0,0,0,0,0c0,0,0,0,0.1,0c0,0,0,0,0,0c0,0,0,0,0.1,0c0,0,0,0,0,0
		c0,0,0,0,0,0c0,0,0,0,0,0c0,0,0,0,0,0c0,0,0,0,0,0c0,0,0,0,0,0c0,0,0,0,0,0c0,0,0,0,0,0c0,0,0,0,0,0c0,0,0,0,0,0c0,0,0,0,0,0
		c0,0,0,0,0,0c0,0,0,0,0,0c0,0,0,0,0,0s0,0,0,0c0,0,0,0,0,0c0,0,0,0,0,0c0,0,0,0,0,0c0,0,0,0,0,0c0,0,0,0,0,0c0,0,0,0,0,0
		c0,0,0,0,0,0c0,0,0,0,0,0c0,0,0,0,0,0c0,0,0,0,0,0l0,0c0,0,0,0,0,0c0,0,0,0,0,0c0,0,0,0,0,0c0,0,0,0,0.1,0c0,0,0,0,0,0
		c0,0,0,0,0.1,0c0,0,0,0,0,0c0,0,0,0,0.1,0l0,0l0.1,0l0,0c0,0,0.1,0.1,0.1,0.1l5.9-7.8C210.1,25.3,208.5,24.2,207,23.2L207,23.2
		L207,23.2z M199.1,18.2l-4.9,8.4l0,0c0,0,0.1,0,0.1,0l0,0c0.1,0,0.1,0.1,0.2,0.1l0,0c0,0,0.1,0,0.1,0l0,0c0,0,0.1,0,0.1,0l0,0
		c0,0,0.1,0,0.1,0l0,0c0.1,0,0.1,0.1,0.2,0.1l0,0c0,0,0.1,0,0.1,0l0,0c0,0,0.1,0,0.1,0l0,0c0,0,0.1,0,0.1,0l0,0
		c0.1,0,0.1,0.1,0.2,0.1l0,0c0.1,0,0.1,0.1,0.1,0.1l0,0c1.1,0.7,2.2,1.4,3.3,2.1l5.3-8.1C202.4,20.2,200.8,19.1,199.1,18.2
		L199.1,18.2L199.1,18.2z M190.9,13.7l-4.3,8.7c1.6,0.8,3.2,1.6,4.8,2.5l4.7-8.5C194.4,15.5,192.7,14.6,190.9,13.7L190.9,13.7
		L190.9,13.7z M182.4,9.9l-3.7,9c0.6,0.2,1.2,0.5,1.7,0.7l0,0c0,0,0.1,0,0.1,0c0,0,0,0,0,0c0,0,0.1,0,0.1,0c0,0,0,0,0,0
		c0,0,0,0,0.1,0c0,0,0,0,0,0c0,0,0,0,0,0c0,0,0,0,0.1,0h0c0,0,0,0,0,0h0c0,0,0,0,0,0c0,0,0,0,0,0c0,0,0,0,0.1,0c0,0,0,0,0,0
		c0,0,0,0,0.1,0c0,0,0,0,0,0c0,0,0,0,0.1,0c0,0,0,0,0,0c0,0,0,0,0.1,0l0,0c0.1,0,0.1,0.1,0.2,0.1l0,0c0.7,0.3,1.4,0.6,2.1,1l4.1-8.8
		C186,11.4,184.2,10.6,182.4,9.9L182.4,9.9L182.4,9.9z M173.7,6.6l-3.1,9.2c0.2,0.1,0.4,0.1,0.7,0.2c0,0,0,0,0,0c0,0,0,0,0.1,0
		c0,0,0,0,0,0c0,0,0,0,0.1,0c0,0,0,0,0,0c0,0,0,0,0,0c0,0,0,0,0.1,0c0,0,0,0,0,0c0,0,0,0,0.1,0h0c0,0,0,0,0.1,0c0,0,0,0,0,0
		c0,0,0,0,0.1,0c0,0,0,0,0,0c0,0,0,0,0.1,0c0,0,0,0,0,0c0,0,0.1,0,0.1,0c0,0,0,0,0,0c0,0,0,0,0.1,0c0,0,0,0,0,0c0,0,0,0,0.1,0l0,0
		c0.1,0,0.1,0,0.1,0l0,0c0,0,0.1,0,0.1,0l0,0c0,0,0.1,0,0.1,0l0,0c1.1,0.4,2.2,0.8,3.2,1.2l3.4-9.1C177.4,7.8,175.5,7.2,173.7,6.6
		L173.7,6.6L173.7,6.6z M164.8,4l-2.4,9.4c1.1,0.3,2.3,0.6,3.4,0.9l0,0c0.6,0.2,1.2,0.4,1.8,0.5l2.8-9.3C168.5,5,166.6,4.5,164.8,4
		L164.8,4L164.8,4z M155.6,2.1l-1.7,9.6c0.2,0,0.5,0.1,0.7,0.1c0,0,0,0,0,0c0,0,0,0,0,0c0,0,0,0,0,0c0,0,0,0,0,0c0,0,0,0,0,0l0,0
		c1.5,0.3,3,0.6,4.4,0.9l2.1-9.5C159.4,2.8,157.5,2.4,155.6,2.1L155.6,2.1L155.6,2.1z M146.4,0.8l-1,9.7c0.4,0.1,0.9,0.1,1.3,0.1
		l0,0c0,0,0,0,0,0c0,0,0,0,0,0s0,0,0,0l0,0c0,0,0.1,0,0.1,0c0,0,0,0,0,0c0,0,0,0,0,0h0h0h0c0,0,0,0,0,0h0c0,0,0,0,0,0c0,0,0,0,0,0
		c0,0,0,0,0,0c0,0,0,0,0,0c0,0,0,0,0,0c0,0,0,0,0.1,0l0,0c0,0,0,0,0,0c0,0,0,0,0,0s0,0,0,0c0,0,0,0,0,0s0,0,0,0c0,0,0,0,0,0s0,0,0,0
		c0,0,0,0,0,0s0,0,0,0c0,0,0,0,0,0s0,0,0,0l0,0c0,0,0,0,0.1,0h0c0,0,0,0,0,0c0,0,0,0,0,0h0h0h0h0c0,0,0,0,0,0h0c0,0,0,0,0,0h0
		c0,0,0,0,0,0c0,0,0.1,0,0.1,0l0,0c0,0,0,0,0,0l0,0c0,0,0,0,0,0l0,0c0,0,0,0,0,0l0,0c0,0,0,0,0,0l0,0c0.9,0.1,1.8,0.2,2.7,0.4
		l1.5-9.6c-1.9-0.3-3.9-0.5-5.8-0.8l0,0L146.4,0.8z M137.1,0.1l-0.4,9.7c0,0,0,0,0,0c0,0,0,0,0,0h0c0,0,0,0,0,0h0
		c1.8,0.1,3.5,0.2,5.3,0.3l0.8-9.7C141,0.3,139.1,0.2,137.1,0.1C137.1,0.1,137.1,0.1,137.1,0.1z M132.2,0v9.7h0.1c0,0,0,0,0.1,0h0
		c0,0,0,0,0.1,0h0c0,0,0,0,0.1,0h0c0,0,0,0,0.1,0c0,0,0,0,0,0c0,0,0,0,0.1,0c0,0,0,0,0,0s0,0,0,0s0,0,0,0c0,0,0,0,0.1,0c0,0,0,0,0,0
		s0,0,0,0c0,0,0,0,0.1,0h0c0.1,0,0.1,0,0.1,0l0,0c0.1,0,0.2,0,0.4,0l0.1-9.7C133.2,0,132.7,0,132.2,0L132.2,0L132.2,0z"/>
	<circle class="st1" cx="132.2" cy="132.2" r="122.5"/>
	<circle class="st2" cx="132.2" cy="132.2" r="122.5"/>
</g>
<path class="st3" d="M155.2,240.6h-47.2C49.9,240.6,2.4,193.1,2.4,135V19.2h152.9c58.1,0,105.7,47.5,105.7,105.7v115.7L155.2,240.6
	L155.2,240.6z"/>
<path class="st3" d="M155.2,240.6h-47.2C49.9,240.6,2.4,193.1,2.4,135V19.2h152.9c58.1,0,105.7,47.5,105.7,105.7v115.7L155.2,240.6
	L155.2,240.6z"/>
<g>
	<defs>
		<circle id="SVGID_1_" cx="132.2" cy="132.2" r="122.5"/>
	</defs>
	<clipPath id="SVGID_00000049923497010955227570000011101100067974600354_">
		<use xlink:href="#SVGID_1_"  style="overflow:visible;"/>
	</clipPath>
	<g style="clip-path:url(#SVGID_00000049923497010955227570000011101100067974600354_);">
		<path class="st5" d="M217.2,145.1h-171c-2.1,0-3.9-1.7-3.9-3.9V51.5c0-2.1,1.7-3.9,3.9-3.9h171c2.1,0,3.9,1.7,3.9,3.9v89.8
			C221.1,143.4,219.4,145.1,217.2,145.1z"/>
		
			<radialGradient id="SVGID_00000127004794258917194600000012954841744581179043_" cx="106.909" cy="93.5829" r="67.7332" gradientUnits="userSpaceOnUse">
			<stop  offset="0" style="stop-color:#70A280"/>
			<stop  offset="1" style="stop-color:#3F895C"/>
		</radialGradient>
		<path style="fill:url(#SVGID_00000127004794258917194600000012954841744581179043_);" d="M212.5,140.6H51c-2.3,0-4.2-1.9-4.2-4.2
			V56.2c0-2.3,1.9-4.2,4.2-4.2h161.5c2.3,0,4.2,1.9,4.2,4.2v80.2C216.7,138.8,214.8,140.6,212.5,140.6z"/>
		<rect x="38.7" y="142.4" class="st7" width="184.1" height="6.1"/>
		<g>
			<path class="st8" d="M70.2,139.9H55c-0.6,0-1.2,0.5-1.2,1.2v0.2c0,0.6,0.5,1.2,1.2,1.2h15.2c0.6,0,1.2-0.5,1.2-1.2v-0.2
				C71.3,140.4,70.8,139.9,70.2,139.9z"/>
			<path class="st9" d="M69,137.5H56.2c-0.8,0-1.4,0.6-1.4,1.4v0.2c0,0.4,0.4,0.8,0.8,0.8h14.2c0.4,0,0.8-0.4,0.8-0.8v-0.2
				C70.5,138.1,69.8,137.5,69,137.5z"/>
		</g>
		<rect x="77.8" y="140.1" class="st10" width="12.8" height="2.4"/>
		
			<rect x="85" y="137.9" transform="matrix(0.9348 0.3551 -0.3551 0.9348 55.3264 -23.4083)" class="st10" width="12.8" height="2.4"/>
	</g>
	<g style="clip-path:url(#SVGID_00000049923497010955227570000011101100067974600354_);">
		<g>
			<g>
				<path class="st11" d="M62.5,308.8c-0.1,1-0.3,2.3-1.3,2.9c-1,0.6-2.8,0.6-4,0.6c-1,0.1-2,0.1-2.8-0.4c-0.6-0.4-0.9-0.5-1.5-0.2
					c-0.6,0.3-0.9,0.4-1.7,0.5c-1.6,0.1-3.1,0.2-4.7,0.2c-2,0-4-0.1-6-0.3c-1-0.1-2-0.1-3-0.4c-0.8-0.2-1.1-0.8-1.3-1.7
					C45,311.3,54,310.9,62.5,308.8z"/>
				<g>
					<path class="st10" d="M38.3,305.6c1-0.6,2.1-0.8,3.2-1.1c0.2-0.1,0.5-0.1,0.7-0.2c-0.5,1.8,2.2,2.1,2.2,2.1
						c7.1,1,10.1-8.3,10.1-8.3c0.3-0.3,0.7-0.4,1.1-0.4c1.4-0.2,2.8,0,4.3-0.1c1-0.1,1.7-0.1,2.2,1c0.3,0.7,0.3,1.5,0.3,2.3
						c0,2.3,0,4.6,0,7c0,0.3,0,0.6,0,0.9c-8.5,2-17.5,2.4-26.2,1.2C36,308.4,36.9,306.4,38.3,305.6z"/>
					<path class="st12" d="M44.5,306.4c0,0-2.7-0.4-2.2-2.1c2.8-0.8,5.6-2,6.9-4.8c0.3-0.7,0.5-1.6,1.2-2.1c0.7-0.6,1.8-0.5,2.7-0.4
						c0.4,0,0.7,0.1,1,0.3c0.3,0.2,0.6,0.5,0.5,0.9C54.6,298.1,51.5,307.5,44.5,306.4z"/>
				</g>
			</g>
			<circle class="st11" cx="58.2" cy="304" r="2.4"/>
			<g>
				<g>
					<path class="st13" d="M53.6,302.6c-1,0.1-6.3-0.9-5.5-2.4c0.2-0.2,0.5-0.3,0.7-0.3l2.4,0.8c0.8,0.2,1.6,0.5,2.4,0.6
						C54.4,301.5,54.3,302.6,53.6,302.6L53.6,302.6z"/>
				</g>
				<g>
					<path class="st13" d="M52.2,304.5c-1.9,0-3.7-0.8-5.1-2c-0.3-0.2-0.3-0.6-0.1-0.9c0.2-0.2,0.4-0.3,0.7-0.2
						c0.8,0.3,1.6,0.6,2.4,0.9c0.7,0.3,1.6,0.6,2.3,0.9C53,303.4,52.9,304.5,52.2,304.5L52.2,304.5z"/>
				</g>
				<g>
					<path class="st13" d="M49.7,306.1c-1,0.1-6-2.1-4.9-3.4c0.2-0.2,0.5-0.2,0.7-0.1c0.8,0.4,1.5,0.8,2.2,1.2
						c0.6,0.3,1.5,0.8,2.2,1.1C50.7,305.2,50.4,306.2,49.7,306.1L49.7,306.1z"/>
				</g>
				<g>
					<path class="st13" d="M47.4,307.3c-1.9-0.3-3.5-1.2-4.9-2.5c-0.2-0.3-0.2-0.7,0-0.9c0.2-0.2,0.5-0.2,0.7-0.1
						c1.1,0.6,2.2,1.2,3.3,1.8c0.4,0.2,0.8,0.4,1.2,0.5C48.3,306.4,48.1,307.4,47.4,307.3L47.4,307.3z"/>
				</g>
			</g>
		</g>
		<g>
			<g>
				<path class="st11" d="M83.3,308.8c0.1,1,0.3,2.3,1.3,2.9c1,0.6,2.8,0.6,4,0.6c1,0.1,2,0.1,2.8-0.4c0.6-0.4,0.9-0.5,1.5-0.2
					c0.6,0.3,0.9,0.4,1.7,0.5c1.6,0.1,3.1,0.2,4.7,0.2c2,0,4-0.1,6-0.3c1-0.1,2-0.1,3-0.4c0.8-0.2,1.1-0.8,1.3-1.7
					C100.7,311.3,91.8,310.9,83.3,308.8z"/>
				<g>
					<path class="st10" d="M107.5,305.6c-1-0.6-2.1-0.8-3.2-1.1c-0.2-0.1-0.5-0.1-0.7-0.2c0.5,1.8-2.2,2.1-2.2,2.1
						c-7.1,1-10.1-8.3-10.1-8.3c-0.3-0.3-0.7-0.4-1.1-0.4c-1.4-0.2-2.8,0-4.3-0.1c-1-0.1-1.7-0.1-2.2,1c-0.3,0.7-0.3,1.5-0.3,2.3
						c0,2.3,0,4.6,0,7c0,0.3,0,0.6,0,0.9c8.5,2,17.5,2.4,26.2,1.2C109.8,308.4,108.8,306.4,107.5,305.6z"/>
					<path class="st12" d="M101.3,306.4c0,0,2.7-0.4,2.2-2.1c-2.8-0.8-5.6-2-6.9-4.8c-0.3-0.7-0.5-1.6-1.2-2.1
						c-0.7-0.6-1.8-0.5-2.7-0.4c-0.4,0-0.7,0.1-1,0.3c-0.3,0.2-0.6,0.5-0.5,0.9C91.2,298.1,94.2,307.5,101.3,306.4z"/>
				</g>
			</g>
			<circle class="st11" cx="87.6" cy="304" r="2.4"/>
			<g>
				<g>
					<path class="st13" d="M92.1,301.3c1.4-0.2,3.4-0.9,4.8-1.4c0.7-0.2,1.2,0.7,0.5,1.1c-0.7,0.6-5.8,2.5-5.9,0.9
						C91.6,301.6,91.8,301.4,92.1,301.3L92.1,301.3z"/>
				</g>
				<g>
					<path class="st13" d="M93.4,303.3c0.7-0.3,1.6-0.6,2.3-0.9c0.8-0.3,1.5-0.7,2.4-0.9c0.3-0.1,0.7,0.1,0.8,0.4
						c0.1,0.3,0,0.5-0.2,0.7c-0.6,0.8-5.6,3.1-5.7,1.4C93,303.6,93.2,303.3,93.4,303.3L93.4,303.3z"/>
				</g>
				<g>
					<path class="st13" d="M95.8,304.9c0.7-0.3,1.6-0.7,2.2-1.1c0.7-0.4,1.5-0.8,2.2-1.2c0.3-0.2,0.7,0,0.9,0.3
						c0.1,0.2,0.1,0.5-0.1,0.7c-0.6,0.8-5.2,3.7-5.6,1.9C95.3,305.3,95.5,305,95.8,304.9L95.8,304.9z"/>
				</g>
				<g>
					<path class="st13" d="M98.1,306.1c1.5-0.6,3-1.5,4.4-2.3c0.6-0.3,1.2,0.5,0.7,1c-0.6,0.8-5.2,3.7-5.6,1.9
						C97.7,306.5,97.8,306.2,98.1,306.1L98.1,306.1z"/>
				</g>
			</g>
		</g>
		<g>
			<path class="st14" d="M88.7,207.5c0.2-0.6,0.6-1.1,1-1.5c1.8-1.9,4.3-2.7,6.8-2.5c2.7,0.2,5.5,0.2,8.2,0.1
				c1.3-0.1,2.6-0.2,3.9-0.3c0.6-0.1,1.2-0.2,1.7-0.3c0.5-0.1,1-0.2,1.1-0.3c0,0,0,0,0,0c-0.1,0-0.1,0.1-0.2,0.1
				c0,0-0.1,0.1-0.1,0.1c-0.1,0.1-0.1,0.1,0,0c0.1-0.1,0.4-0.5,0.6-0.9c0.5-0.9,0.9-2,1.3-3.2c1.7-5.2,2.5-10.6,3.6-15.9
				c0.4-2,1-4.2,2.7-5.2c1.9-1.2,4.8-0.3,5.6,1.9c0.4,1.1,0.3,2.3,0.2,3.4c-0.3,3.3-0.9,6.4-1.3,9.7c-0.4,2.9-0.9,5.8-1.7,8.8
				c-0.4,1.5-0.9,3-1.6,4.7c-0.4,0.8-0.8,1.7-1.6,2.7c-0.4,0.5-0.8,1-1.5,1.6c-0.2,0.1-0.3,0.3-0.5,0.4c-0.2,0.1-0.4,0.3-0.6,0.4
				c-0.3,0.2-0.7,0.4-1,0.5c-1.2,0.5-2,0.7-2.9,0.9c-0.9,0.2-1.7,0.4-2.5,0.5c-1.6,0.2-3.1,0.4-4.6,0.5c-2.9,0.2-5.8,0.1-8.7,0.4
				c-2.3,0.2-4.3,0.1-6.3-1.3c-1.4-1.1-2.4-2.9-2-4.6C88.5,207.9,88.6,207.7,88.7,207.5z"/>
		</g>
		<path class="st15" d="M89.6,215.7c-2.7-0.6-5.3-1.9-7.1-4c-2.4-2.8-2.5-6.9,0.8-9.2c0.4-0.3,0.9-0.5,1.4-0.7
			c4.7-1.8,10.8-1.5,15.4,0.1c2.5,0.8,1,9.1,0.7,11.2c-0.1,0.9-0.2,1.7-0.7,2.4C98.6,217.8,91.8,216.2,89.6,215.7z"/>
		<g>
			<g>
				<path class="st14" d="M131.1,180c0.1-0.1,0.2-0.1,0.3-0.2c0.4-0.3,0.9-0.6,1.2-1c0.3-0.5,0.6-1.3,0.2-1.8
					c-0.2-0.3-0.6-0.5-1-0.7c0.3-0.5,0.3-1.3,0.1-1.9c-0.3-0.6-0.8-1.1-1.4-1.2c0.3-0.5,0.2-1.2-0.1-1.8c-0.3-0.5-0.9-0.9-1.5-1
					c0.1,0-0.2-1-0.2-1c-0.2-0.3-0.4-0.6-0.7-0.8c-0.7-0.5-1.4-0.1-2.1,0c-1.3,0.3-2.7,0.5-4.1,0.6c-1.2,0-2.1,0.3-3,1.1
					c-1.7,1.6-3.1,5-2.8,7.4c0.2,1.8,1.4,3.5,2.6,4.8C122.5,186.4,127.7,182.3,131.1,180z"/>
			</g>
			<path class="st16" d="M127.5,188c-2.2-6-3.1-8.2-4.1-14.5c-1-6.3-0.5-9.5,1.1-14.8"/>
			<g>
				<g>
					<path class="st14" d="M125.4,169.3c-2,1.1-3.1,3-2.4,4c0.3,0.4,0.9,0.8,1.4,1c0.6,0.2,1.1-0.2,1.6-0.5c1.2-0.9,2.2-1.9,3.1-3.1
						c-0.7,0.9-1.4,1.6-2.3,2.4c-0.5,0.5-1.1,0.9-1.3,1.6c-0.2,0.4-0.2,0.9,0,1.3c0.5,1.2,1.8,0.6,2.5,0.1c1-0.7,2-1.6,2.7-2.7
						c-1.1,1.2-2.2,2.3-3.4,3.4c-0.6,0.6-0.4,1.8,0.4,2c0.5,0.1,1,0,1.4-0.3c0.9-0.7,1.8-1.3,2.8-2c-0.4,0.3-0.7,0.5-1.1,0.8
						c-0.5,0.3-1,0.7-1.4,1.1c-0.4,0.4-1,0.8-1,1.4c0,0.3,0.1,0.7,0.3,0.9c0.7,0.6,1.6,0,2.2-0.3"/>
				</g>
				<g>
					<path class="st17" d="M125.5,169.3c-0.9,0.6-1.7,1.3-2.2,2.2c-0.2,0.4-0.4,1-0.2,1.4c0.2,0.4,0.7,0.8,1.1,1
						c0.5,0.2,0.9,0.1,1.4-0.2c0.4-0.3,0.9-0.6,1.3-0.9c0.8-0.7,1.5-1.5,2.2-2.3l0.2,0.1c-0.7,0.9-1.5,1.7-2.3,2.5
						c-0.4,0.4-0.8,0.7-1.1,1.2c-0.3,0.4-0.4,1-0.2,1.5c0.2,0.5,0.7,0.7,1.2,0.5c0.5-0.1,0.9-0.4,1.4-0.8c0.9-0.6,1.7-1.4,2.4-2.3
						l0.2,0.2c-0.7,0.8-1.3,1.5-2.1,2.2c-0.4,0.4-0.7,0.7-1.1,1c-0.2,0.2-0.4,0.3-0.4,0.5c-0.1,0.2-0.1,0.4-0.1,0.6
						c0.1,0.4,0.5,0.8,0.9,0.8c0.5,0,0.9-0.3,1.3-0.6c0.8-0.6,1.6-1.2,2.5-1.7l0.1,0.2c-0.5,0.4-1.1,0.8-1.6,1.2
						c-0.5,0.4-1.1,0.8-1.5,1.3c-0.2,0.2-0.3,0.5-0.3,0.8c0,0.3,0.2,0.5,0.5,0.7c0.5,0.2,1.2-0.1,1.8-0.4c0,0,0.1,0,0.1,0.1
						c0,0,0,0.1,0,0.1c-0.3,0.2-0.6,0.4-0.9,0.5c-0.3,0.1-0.7,0.2-1.1,0.1c-0.2-0.1-0.4-0.2-0.5-0.4c-0.1-0.2-0.2-0.4-0.2-0.6
						c0-0.4,0.2-0.8,0.4-1.1c0.5-0.5,1.1-0.9,1.6-1.3l1.7-1.2c0,0,0.1,0,0.1,0c0,0,0,0.1,0,0.1c-0.8,0.6-1.6,1.2-2.4,1.8
						c-0.4,0.3-0.8,0.7-1.4,0.7c-0.3,0-0.6-0.1-0.8-0.3c-0.3-0.2-0.4-0.5-0.5-0.8c-0.1-0.3,0-0.6,0.1-0.9c0.1-0.3,0.4-0.5,0.5-0.7
						l1.1-1c0.7-0.7,1.5-1.4,2.1-2.1c0,0,0.1-0.1,0.2,0c0,0,0.1,0.1,0,0.2c-0.7,0.9-1.4,1.8-2.3,2.5c-0.4,0.3-0.9,0.7-1.5,0.8
						c-0.3,0.1-0.6,0.1-0.9,0c-0.3-0.1-0.6-0.4-0.7-0.7c-0.2-0.6-0.1-1.3,0.2-1.8c0.3-0.5,0.8-0.9,1.2-1.2c0.8-0.7,1.6-1.5,2.3-2.4
						c0,0,0.1,0,0.1,0c0,0,0.1,0.1,0,0.1c-0.6,0.9-1.4,1.7-2.2,2.4c-0.4,0.4-0.8,0.7-1.3,1c-0.2,0.1-0.5,0.3-0.8,0.3
						c-0.3,0.1-0.6,0-0.9-0.1c-0.5-0.2-1-0.6-1.3-1.2c-0.2-0.6,0-1.3,0.2-1.7c0.6-1,1.5-1.7,2.4-2.2
						C125.4,169.2,125.5,169.2,125.5,169.3C125.5,169.3,125.5,169.3,125.5,169.3z"/>
				</g>
			</g>
			<g>
				<path class="st14" d="M122.4,169.9c1.3,0.8,2.5,1.5,3.8,2.3c0.2,0.1,0.4,0.3,0.5,0.5c0.2,0.3,0.1,0.8-0.2,1.1
					c-0.3,0.3-0.6,0.4-1,0.5c-1.3,0.3-2.5-0.1-3.8-0.7c0.9,1.3,1.6,2.8,1.4,4.3c-0.1,0.7-0.4,1.4-0.9,1.9c-3,2.9-7.1-0.6-7.2-4.2
					c-0.1-1.5,0.5-3,1.3-4.1c0.8-1.1,2-2.5,3.4-2.5C120.8,168.8,121.7,169.5,122.4,169.9z"/>
			</g>
			<g>
				<path class="st17" d="M121.6,180.1c0.5-0.3,0.9-0.8,1.1-1.3c0.2-0.5,0.3-1.1,0.3-1.7c0-0.6-0.3-1.2-0.5-1.8
					c-0.1-0.3-0.3-0.6-0.4-0.8l-0.5-0.8c-0.1-0.1,0-0.3,0.1-0.4c0.1,0,0.2,0,0.2,0c1,0.4,2,0.7,3,0.7c0.5,0,1-0.1,1.3-0.4
					c0.1-0.1,0.2-0.1,0.2-0.2c0.1-0.1,0.1-0.2,0.1-0.3c0-0.2-0.1-0.4-0.3-0.5l-2.7-1.8c-0.9-0.6-1.9-1.2-2.8-1.7c0,0,0,0,0-0.1
					c0,0,0,0,0.1,0c1,0.5,2,1,2.9,1.5c1,0.6,1.9,1.1,2.9,1.7c0.3,0.2,0.5,0.5,0.4,0.9c0,0.1,0,0.2-0.1,0.3l-0.1,0.2
					c-0.1,0.2-0.2,0.2-0.3,0.4c-0.5,0.4-1.1,0.5-1.6,0.5c-1.1,0-2.2-0.3-3.2-0.7l0.3-0.4l0.5,0.8c0.2,0.3,0.3,0.6,0.4,0.9
					c0.2,0.6,0.4,1.3,0.5,1.9c0,0.7-0.1,1.3-0.4,1.9c-0.3,0.6-0.8,1-1.3,1.4c-0.1,0-0.1,0-0.2-0.1
					C121.5,180.2,121.5,180.1,121.6,180.1L121.6,180.1z"/>
			</g>
		</g>
		<g>
			<path class="st18" d="M92.9,244.8c0.2-1.2,0.3-2.4,0.3-3.5c0.8-13.2,1.4-38.2-14.8-41.8c-6.3-1.4-13.1,1-17.5,5.8
				c-4.2,4.7-6.6,11-7.6,17.4c-0.9,5.5-1.5,13.8-0.3,21.2C65.9,247.1,79.5,246.2,92.9,244.8z"/>
			<path class="st19" d="M53,244c1.3,7.7,4.6,14.6,11.5,16.4c6.4,1.7,15,1.8,21-1.2c1.1-0.5,2-1.3,2.8-2.1c2.8-3.1,4-7.9,4.5-12.2
				C79.5,246.2,65.9,247.1,53,244z"/>
		</g>
		<path class="st20" d="M74.6,203.4L74.6,203.4c-2.8,0-5-2.3-5-5v-4c0-2.8,2.3-5,5-5l0,0c2.8,0,5,2.3,5,5v4
			C79.7,201.2,77.4,203.4,74.6,203.4z"/>
		<g>
			<path class="st21" d="M50.8,172.1c-0.5,8.1,3.1,16.4,9.8,21.1c6.7,4.7,16.4,5.3,23.4,0.9c7.1-4.4,7-13.5,5.4-20.5
				c-1.9-8.8-6.2-17.2-16.1-19C62.1,152.6,51.5,161,50.8,172.1z"/>
			<path class="st22" d="M75.9,174.4c0.4,1.2,0.3,2.4-0.4,2.6c-0.6,0.2-1.5-0.6-1.9-1.8c-0.4-1.2-0.3-2.4,0.4-2.6
				C74.6,172.4,75.5,173.2,75.9,174.4z"/>
			<path class="st22" d="M85.5,171.4c0.4,1.2,0.3,2.4-0.4,2.6c-0.6,0.2-1.5-0.6-1.9-1.8c-0.4-1.2-0.3-2.4,0.4-2.6
				C84.2,169.3,85,170.1,85.5,171.4z"/>
			<g>
				<path class="st23" d="M80.7,173.2c0.6,0.7,1.2,1.2,2,1.7c0.8,0.6,2.4,1.1,2.8,2.4c0.2,2.1-2.4,3.2-4.1,2.7
					c-0.4-0.1-0.2-0.7,0.2-0.6c1,0.1,3.7-1,2.7-2.2c-0.4-0.6-1.3-0.9-2.1-1.5c-0.7-0.6-1.4-1.3-1.9-2.1c-0.1-0.2,0-0.3,0.1-0.4
					C80.5,173.1,80.7,173.1,80.7,173.2L80.7,173.2z"/>
			</g>
			<g>
				<path class="st24" d="M76.3,187.1c-0.4,0-0.8,0-1.1,0c0.1,0.1,0.1,0.3,0.2,0.4c0.3,0.5,0.7,0.9,1.2,1.3c1.7-0.9,3.6-1.3,5.4-1.3
					c1.1,0,2.2,0.2,3.1,0.8c1.1-0.9,2.1-2.1,2.3-3.6c0-0.1,0-0.1,0-0.2C84,185.9,80.2,186.8,76.3,187.1z"/>
				<path class="st10" d="M87.5,184.4c0.1-0.5,0.1-1.3-0.3-1.6c-0.5-0.4-1.5,0-2,0.2c-3.1,1.1-6.2,2.1-9.5,2.2
					c-0.3,0-0.8,0.1-0.9,0.4c0,0.1,0,0.2,0,0.4c0,0.4,0.2,0.8,0.3,1.1c0.4,0,0.8,0,1.1,0C80.2,186.8,84,185.9,87.5,184.4z"/>
				<path class="st25" d="M82,187.4c-1.9,0-3.8,0.5-5.4,1.3c0.6,0.5,1.4,0.8,2.1,0.9c1.8,0.4,3.9,0.1,5.5-0.9
					c0.3-0.2,0.6-0.4,0.9-0.6C84.3,187.6,83.1,187.4,82,187.4z"/>
			</g>
			<g>
				<path class="st26" d="M80.8,166.3c1.5-0.7,3.3-0.2,4.3,0.9c0.2,0.2,0.1,0.4,0,0.6c-0.2,0.1-0.4,0.1-0.5,0
					c-0.9-0.7-2.2-0.6-3-0.1C80.5,168.4,79.7,166.8,80.8,166.3L80.8,166.3z"/>
			</g>
			<g>
				<path class="st26" d="M74,170.5c-1,0.1-2.2,0.8-2.6,1.9c-0.1,0.2-0.3,0.3-0.5,0.3c-0.2-0.1-0.3-0.3-0.3-0.4
					c0.1-0.8,0.5-1.5,1.1-2c0.5-0.6,1.2-1,2-1.2C74.8,168.7,75.1,170.4,74,170.5L74,170.5z"/>
			</g>
			<g>
				<path class="st23" d="M62.5,186c-1.5,0.3-3.1-1-3.2-2.5c-0.3-1.6,1.4-3.4,3-2.5c0.3,0.2,0.1,0.7-0.3,0.5c-2-0.5-2.6,2.4-1.2,3.4
					c0.4,0.4,1,0.6,1.6,0.6C62.8,185.4,62.8,185.9,62.5,186L62.5,186z"/>
			</g>
			<g>
				<path class="st23" d="M60,182.6c0.3,0.6,1,1,1.7,1.1c0.2,0,0.2,0.4,0,0.4c-0.9,0.1-1.7-0.3-2.3-1.1c-0.1-0.2-0.1-0.4,0.1-0.5
					C59.6,182.4,59.9,182.4,60,182.6L60,182.6z"/>
			</g>
			<path class="st27" d="M63.2,187.8c-0.9,0.4-2,0.3-2.9-0.1c-0.9-0.5-1.6-1.3-2-2.2c-0.8-1.6-0.9-3.6,0.1-5.1
				c1-1.5,3.2-2.1,4.7-1.1c0.9,0.6,1.7,1.8,2.7,1.5c3.6-2.3-1.6-7.2-2-9.8c1.4,0.6,3,0.5,4.4,0c1.4-0.5,2.6-1.4,3.8-2.4
				c2.2-1.8,4.4-4.1,4.4-6.9c0,1.5,3.5,1.2,4.2,1.1c1.7-0.2,3.3-0.7,4.6-2.3c2.8-3.3,1.6-9.4-1.8-11.8c-1.4-1-3.2-1.4-4.9-1
				c-2.6-4.8-11.2-6-14.5-1.2c-0.7,1-1.2,2.1-1.5,3.3c-1.6-0.8-3.6-0.7-5.3-0.3c-1.8,0.4-3.6,1.3-4.9,2.6c-2.1,2.1-3.1,5.4-3.2,8.3
				c-4.3,1.6-5.8,6.4-3.9,10.5c0.1,0.2,0.2,0.5,0.2,0.7c0,0.2-0.2,0.4-0.4,0.5c-1.8,1.9-1.3,4.9,0.2,6.7c0.2,0.2,0.3,0.4,0.4,0.6
				c0.1,0.4,0,0.8-0.1,1.2c-0.7,2.8,1.5,7.9,5,7.1c-0.4,2.7,1.1,5.9,3.5,7.1c0.6,0.3,1.2,0.5,1.8,0.4c0.6-0.1,1.2-0.5,1.4-1.1
				c0.4,0.7,1.3,0.9,2,0.9c1.6-0.1,3.2-1.1,4-2.5C64,191.2,63.8,189.4,63.2,187.8z"/>
		</g>
		<path class="st28" d="M33.8,246.8c-1.4,0.9-2.3,2.3-3,3.8c-0.8,1.5-1.5,2.9-2.5,4.2c-0.9,1.1-1.8,2.2-2.1,3.6
			c-0.1,0.6,0.1,1.4,0.7,1.4c0.2,0,0.4-0.1,0.5-0.2c1.6-1.1,2.7-2.7,3.8-4.2c-0.9,1.9-1.5,4-1.7,6.1c-0.1,0.5-0.1,1,0.1,1.5
			c0.2,0.5,0.7,0.8,1.2,0.7c0.4-0.1,0.6-0.5,0.8-0.9c0.9-1.8,1.3-3.7,2.2-5.5c0.1,0.1,0.1,0.2,0.1,0.3c-0.1,2.3-0.4,4.9,0.4,7.1
			c0.1,0.3,0.3,0.6,0.5,0.7c0.3,0.1,0.6,0,0.8-0.3c0.2-0.2,0.3-0.5,0.4-0.8c0.7-2.2,0.5-4.4,0.9-6.6c0,0,0.5,0.8,0.6,0.9
			c0.3,0.5,0.5,1,0.7,1.4c0.4,1,0.9,2,1.3,2.9c0.1,0.3,0.3,0.7,0.5,0.9c0.7,0.7,1.5,0,1.5-0.9c0.1-1.4-0.6-2.7-1.1-4.1
			c-0.3-0.9-1.3-3.8,0.3-3.9c1.2-0.1,2.2,2.2,3,2.8c0.2,0.2,0.5,0.4,0.8,0.3c0.6-0.1,0.6-0.9,0.6-1.5c-0.4-3.1-2.2-5.9-4-8.4"/>
		<path class="st28" d="M61.1,214.4c-0.5,0.4-1.1,1.1-1.7,1.7c-0.6,0.6-1.2,1.3-1.8,1.9c-1.2,1.3-2.3,2.7-3.4,4.1
			c-2.2,2.8-4.1,5.9-5.9,9c-1.8,3.1-3.2,6.5-4.4,9.8l-0.8,2.5l-0.6,2.6l-0.3,1.3l-0.2,1.3l-0.4,2.6l-9-0.8l0.5-3.2l0.3-1.6l0.4-1.6
			l0.8-3.2l1-3.1c1.4-4.1,3-8.1,5.1-11.8c2-3.7,4.2-7.3,6.7-10.6c1.2-1.6,2.5-3.3,3.9-4.8c0.7-0.8,1.4-1.5,2.1-2.3
			c0.7-0.8,1.4-1.5,2.3-2.3L61.1,214.4z"/>
		<path class="st29" d="M54.7,203.6c2.3-1.6,5-2.8,7.8-2.7c3.7,0.1,7,2.8,6.5,6.8c-0.1,0.5-0.2,1-0.4,1.5
			c-1.8,4.8-6.1,9.3-10.4,11.8c-2.3,1.4-7.7-5.4-9.1-6.9c-0.6-0.7-1.2-1.3-1.4-2.2C47.1,209.2,52.8,205,54.7,203.6z"/>
		<path class="st19" d="M90.5,250.1l5.4,47.6c0.1,0.8-0.4,1.6-1.2,1.8c-3.4,1.1-6.9,1.5-10.6,1.6c-0.8,0-1.5-0.6-1.7-1.4l-8.8-47.1
			L90.5,250.1z"/>
		<path class="st19" d="M54.6,250.1l-5.4,47.6c-0.1,0.8,0.4,1.6,1.2,1.8c3.4,1.1,6.9,1.5,10.6,1.6c0.8,0,1.5-0.6,1.7-1.4l8.8-47.1
			L54.6,250.1z"/>
		<g>
			<path class="st10" d="M126.5,154.3c-0.5,2.5-2.2,4.3-2.5,4.2c-0.3-0.1-1.2-2.4-0.8-4.9c0.5-2.5,1.6-4.4,2.5-4.2
				S127,151.8,126.5,154.3z"/>
			<path class="st10" d="M122.2,153.9c1.7,1.9,2,4.4,1.7,4.6c-0.3,0.2-2.6-0.5-4.3-2.4c-1.7-1.9-2.4-4-1.7-4.6
				C118.6,150.9,120.6,152,122.2,153.9z"/>
			<path class="st10" d="M119.3,157c2.6-0.1,4.7,1.2,4.7,1.5c0,0.3-2,1.7-4.6,1.8c-2.6,0.1-4.7-0.6-4.7-1.5
				C114.7,157.9,116.7,157.1,119.3,157z"/>
			<path class="st10" d="M119.8,161.3c1.5-2.1,3.8-2.9,4.1-2.7c0.3,0.2,0.1,2.7-1.4,4.7c-1.5,2.1-3.4,3.3-4.1,2.7
				C117.7,165.4,118.3,163.3,119.8,161.3z"/>
			<path class="st10" d="M123.5,163.4c-0.7-2.5,0.1-4.8,0.4-4.9c0.3-0.1,2.1,1.6,2.8,4.1c0.7,2.5,0.5,4.7-0.4,4.9
				C125.4,167.7,124.2,165.9,123.5,163.4z"/>
			<path class="st10" d="M127.5,161.9c-2.3-1-3.7-3.1-3.6-3.4c0.1-0.3,2.6-0.7,4.9,0.3c2.3,1,3.9,2.6,3.6,3.4
				C132.1,163.1,129.9,163,127.5,161.9z"/>
			<path class="st10" d="M128.8,157.9c-2.3,1.2-4.7,1-4.9,0.7c-0.2-0.3,1.1-2.4,3.3-3.6c2.3-1.2,4.5-1.5,4.9-0.7
				C132.6,155.1,131.1,156.7,128.8,157.9z"/>
			<path class="st30" d="M126.4,159.1c-0.3,1.3-1.5,2.2-2.9,1.9c-1.3-0.3-2.2-1.5-1.9-2.9c0.3-1.3,1.5-2.2,2.9-1.9
				C125.7,156.5,126.6,157.8,126.4,159.1z"/>
		</g>
	</g>
	<g style="clip-path:url(#SVGID_00000049923497010955227570000011101100067974600354_);">
		<g>
			<path class="st31" d="M117.7,112.2c-0.5-1.3-0.9-2.5-1.3-3.8c-0.1-0.3-0.2-0.6-0.5-0.8c-0.3-0.2-0.8,0-1,0.4
				c-0.2,0.3-0.2,0.7-0.3,1.1c-0.1,0.9-0.2,1.7-0.2,2.6c0,0.4-0.1,0.9-0.3,1.2c-1.1,1.6-4.6-2.7-5.3-3.4c-1.4-1.5-3-2.9-4.6-4.1
				c-0.2-0.2-0.5-0.4-0.8-0.5c-0.3-0.1-0.6-0.1-0.9,0.1c-0.3,0.2-0.4,0.7-0.3,1c0.3,1.1,1.8,2.3,2.5,3.1c1.1,1.3,2.2,2.5,3.4,3.8
				c-2.3-1.7-4.3-3.1-6.6-4.8c-0.4-0.3-0.9-0.7-1.5-0.7c-0.5-0.1-1.2,0.3-1.3,0.8c-0.1,0.5,0.3,1,0.7,1.3c2.2,2,4.4,4,6.6,6
				c-0.8-0.6-1.5-1.2-2.3-1.7c-1.6-1.2-3.2-2.4-5-3c-0.4-0.1-0.9-0.3-1.2,0c-0.4,0.2-0.4,0.8-0.2,1.2c0.2,0.4,0.6,0.7,0.9,0.9
				c2.2,1.6,4.4,3.2,6.5,4.8c-2.1-1.2-4.3-2.5-6.6-3.4c-0.5-0.2-1.1-0.4-1.4,0c-0.3,0.4,0,1,0.3,1.4c2,2.1,5.1,3.4,7.6,4.8
				c2.9,1.7,5.9,3.4,8.9,5c1.1,0.6,2.2,1.2,3.4,1c0.8-0.1,1.5-0.6,2.1-1.2c1.8-1.7,2.2-3.5,1.3-5.7
				C119.5,117.1,118.5,114.7,117.7,112.2z"/>
			<g>
				<g>
					<path class="st32" d="M181.8,304.6c-1.2,0.8-2.5,1.5-3.9,2.2c-0.4,0.2-0.8,0.4-1.3,0.6c-5.8,2.1-12.3,2.1-18.4,0.8
						c-0.6-0.1-1.2-0.3-1.8-0.6c0.3,1.7,3.1,1.9,4.5,2.1c2.4,0.3,4.9,0.3,7.3,0.3c2.3,0,4.6-0.2,6.9-0.8c1.2-0.3,2.3-0.7,3.3-1.2
						c1-0.5,1.9-1.2,2.9-1.8c-0.1,0.1-0.1,0.9-0.1,1.1c0,0.4,0,0.9,0.3,1.1c0.2,0.2,0.7,0.2,0.9,0.3c0.1,0,0.2,0,0.3,0
						c0.6,0,1.7,0.1,2-0.5c0.1-0.2,0.1-0.5,0.1-0.8c0.1-1.5,0.1-3.1,0.2-4.6C184,303.3,182.9,303.9,181.8,304.6z"/>
					<path class="st33" d="M176.7,307.4c0.4-0.2,0.8-0.4,1.3-0.6c1.3-0.7,2.6-1.4,3.9-2.2c1-0.7,2.1-1.3,3.4-1.6c0-0.4,0-0.9,0-1.3
						c0-1.5,0.2-3.5-0.7-4.8c-0.5-0.7-1.5-1.1-2.4-1.3c-4.5-1.1-8.4-0.3-12.4,1.9c-2.7,1.5-5.3,3-7.9,4.8c-1.5,1-3,2-4.3,3.3
						c-0.1,0.1-0.3,0.3-0.4,0.4c-0.4,0.4-0.7,0.9-0.7,1.5c0,0.1,0,0.3,0,0.4c0.5,0.3,1.2,0.4,1.8,0.6
						C164.4,309.4,170.9,309.4,176.7,307.4z"/>
				</g>
				<path class="st34" d="M168.4,200.2c-0.1,0.6-0.2,1.1-0.3,1.7c-0.7,5.1,0,10.4,0.5,15.5c0.3,3.9,0.6,7.7,0.9,11.6
					c0.5,7.9,0.9,15.8,1.2,23.6c0.1,2.8,0.2,5.6,0.4,8.5c0.5,6.7,1.7,13.3,2.3,20c0.6,6.2,1.6,12.3-3.7,16.6
					c-1.1,0.9-2.3,1.6-3.3,2.5c-0.7,0.6-2.1,1.6-2.2,2.5c-0.4,2.2,3.9,2.5,5.2,2.4c2.9-0.2,5.8-0.9,8.4-2.2c2.1-1,5.7-2.7,5.4-5.5
					c-0.3-3.2-1.1-6.2-1.4-9.4c-0.7-6.9,0.1-13.8,1.6-20.5c1.6-7.2,3.2-13.5,0.5-20.5c-2.6-6.5,0.8-15.7,1.9-22.4
					c1.2-7.4,1.5-14.9,0.9-22.3c-0.3-3.8-1.6-7.9-5.5-9.2c-3.4-1.2-7.5-0.4-10.1,2.2C169.7,196.6,168.9,198.3,168.4,200.2z"/>
			</g>
			<g>
				<path class="st3" d="M144.2,138.7C144.2,138.7,144.2,138.7,144.2,138.7C144.2,138.7,144.2,138.7,144.2,138.7z"/>
				<path class="st35" d="M175.7,110.5c-2.5-2.3-6.4-2.2-8.8,0.3l0,0L154,124.5l-6.5,6.8c-1.9,1.9-3.8,3.9-5.6,5.8
					c-0.3-0.2-0.6-0.5-1-0.8c-2.3-1.8-4.6-3.9-6.9-5.9c-3.9-3.5-7.7-7.1-11.4-10.7c-3.5,2.3-5.9,5.9-7,8c3.6,3.6,7.2,7.2,11,10.8
					c2.3,2.2,4.7,4.4,7.3,6.5c0.6,0.5,1.3,1.1,2,1.6c0.7,0.5,1.4,1.1,2.4,1.7c0.2,0.2,0.5,0.3,0.9,0.5c0.3,0.2,0.7,0.4,1.3,0.6
					c0.3,0.1,0.7,0.2,1.3,0.3c0.6,0.1,1.4,0.2,2.9-0.2c0.2-0.1,0.4-0.1,0.5-0.2c0.2-0.1,0.4-0.2,0.6-0.3l0.3-0.2l0.1-0.1l0.1-0.1
					l0.3-0.2l0.3-0.2l0.2-0.1c0.9-0.7,1.4-1.2,2-1.8c2.4-2.2,4.6-4.5,6.9-6.7l6.7-6.7l13.3-13.4c0,0,0.1-0.1,0.1-0.1
					C178.3,116.8,178.2,112.9,175.7,110.5z M144.1,138.6C144.2,138.7,144.2,138.7,144.1,138.6C144.2,138.7,144.2,138.7,144.1,138.6z
					"/>
				<path class="st36" d="M122.6,119.6c-0.7-0.7-1.4-1.4-2.1-2.1l0,0c-0.1-0.1-0.1-0.1-0.2-0.2c-4.4,3.1-6.2,6-7,8
					c0.8,0.8,1.5,1.6,2.3,2.3C116.7,125.5,119,121.9,122.6,119.6z"/>
			</g>
			<g>
				<g>
					<path class="st37" d="M200.6,305.6c-1.3,0.8-2.6,1.6-4,2.3c-0.4,0.2-0.8,0.4-1.3,0.6c-5.9,2.1-12.6,2.1-18.8,0.8
						c-0.6-0.1-1.3-0.3-1.8-0.6c0.3,1.7,3.2,2,4.6,2.1c2.5,0.3,5,0.3,7.5,0.3c2.4,0,4.7-0.2,7-0.8c1.2-0.3,2.3-0.7,3.4-1.2
						c1.1-0.5,1.9-1.2,2.9-1.8c-0.1,0.1-0.1,1-0.1,1.2c0,0.4,0,0.9,0.3,1.2c0.2,0.2,0.7,0.2,1,0.3c0.1,0,0.2,0,0.3,0
						c0.6,0,1.7,0.1,2-0.5c0.1-0.3,0.1-0.5,0.1-0.8c0.1-1.6,0.1-3.1,0.2-4.7C202.8,304.3,201.6,304.9,200.6,305.6z"/>
					<path class="st38" d="M195.3,308.5c0.4-0.2,0.9-0.4,1.3-0.6c1.4-0.7,2.7-1.4,4-2.3c1.1-0.7,2.2-1.3,3.4-1.7c0-0.4,0-0.9,0-1.3
						c0-1.5,0.2-3.6-0.7-4.9c-0.5-0.8-1.5-1.1-2.4-1.3c-4.6-1.2-8.6-0.3-12.6,1.9c-2.7,1.5-5.5,3.1-8.1,4.9c-1.5,1-3.1,2-4.4,3.3
						c-0.1,0.1-0.3,0.3-0.4,0.4c-0.4,0.4-0.7,0.9-0.7,1.5c0,0.1,0,0.3,0,0.4c0.5,0.3,1.2,0.5,1.8,0.6
						C182.7,310.6,189.4,310.6,195.3,308.5z"/>
				</g>
				<path class="st39" d="M186.8,198.9c-0.1,0.6-0.3,1.1-0.3,1.7c-0.7,5.2,0,10.7,0.5,15.8c0.3,3.9,0.7,7.9,0.9,11.8
					c0.6,8,1,16.1,1.2,24.2c0.1,2.9,0.2,5.8,0.4,8.7c0.5,6.8,1.7,13.6,2.4,20.4c0.6,6.3,1.7,12.5-3.8,16.9c-1,0.8-6.4,3.8-5,5.5
					c0.3,0.3,0.6,0.5,1,0.6c1.8,0.5,4.1,0.5,5.9,0.2c2.7-0.4,5.3-1.3,7.8-2.5c1.3-0.6,2.6-1.3,3.5-2.5c1-1.3,0.5-2.8,0.3-4.3
					c-0.4-2.3-0.9-4.6-1.1-6.9c-0.7-7.1,0.1-14.1,1.7-21c1.7-7.3,3.3-13.8,0.5-20.9c-2.6-6.6,0.8-16.1,1.9-22.9
					c1.2-7.5,1.5-15.2,1-22.8c-0.3-3.9-1.6-8.1-5.7-9.4c-3.5-1.2-7.7-0.4-10.3,2.2C188.2,195.2,187.3,197,186.8,198.9z"/>
			</g>
			<path class="st3" d="M144.2,138.7C144.2,138.7,144.2,138.7,144.2,138.7C144.2,138.7,144.2,138.7,144.2,138.7z"/>
			<g>
				<path class="st40" d="M198.9,163.4c-0.1,0-0.3,0-0.4,0C198.6,163.5,198.7,163.5,198.9,163.4z"/>
				<path class="st40" d="M198.2,163.5c-0.1,0-0.1,0-0.2,0C198.1,163.5,198.2,163.5,198.2,163.5z"/>
				<path class="st40" d="M193.6,163.5c-0.2,0-0.3,0-0.5-0.1C193.3,163.4,193.5,163.5,193.6,163.5z"/>
				<path class="st40" d="M194.7,163.5c-0.1,0-0.1,0-0.2,0C194.6,163.5,194.7,163.5,194.7,163.5z"/>
				<path class="st40" d="M199.7,163.3c-0.3,0-0.5,0.1-0.8,0.1C199.2,163.4,199.5,163.4,199.7,163.3z"/>
				<path class="st40" d="M201.7,162.9c-0.2,0.1-0.3,0.1-0.5,0.1C201.3,163,201.5,162.9,201.7,162.9z"/>
				<path class="st40" d="M204,162c-0.2,0.1-0.5,0.2-0.7,0.3C203.6,162.2,203.8,162.1,204,162z"/>
				<path class="st40" d="M203.2,162.4c-0.2,0.1-0.3,0.1-0.5,0.2C202.9,162.5,203.1,162.4,203.2,162.4z"/>
				<path class="st40" d="M202.4,162.6c-0.1,0-0.2,0.1-0.3,0.1C202.2,162.7,202.3,162.7,202.4,162.6z"/>
				<path class="st40" d="M193.1,163.4c-0.3,0-0.5-0.1-0.7-0.1C192.6,163.3,192.8,163.4,193.1,163.4z"/>
				<path class="st40" d="M200.9,163.1c-0.1,0-0.2,0-0.3,0.1C200.7,163.1,200.8,163.1,200.9,163.1z"/>
				<path class="st40" d="M190.8,162.9c-0.6-0.2-1.1-0.4-1.5-0.6C189.7,162.4,190.2,162.7,190.8,162.9z"/>
				<path class="st40" d="M191.7,163.1C191.7,163.1,191.7,163.1,191.7,163.1C191.7,163.1,191.7,163.1,191.7,163.1z"/>
				<path class="st40" d="M188.8,161.9c-0.1-0.1-0.2-0.1-0.3-0.2C188.6,161.8,188.7,161.8,188.8,161.9z"/>
				<path class="st41" d="M188.5,161.7C188.5,161.7,188.5,161.7,188.5,161.7c0.1,0.1,0.2,0.2,0.3,0.2c0.1,0.1,0.3,0.2,0.6,0.3
					c0.4,0.2,0.9,0.4,1.5,0.6c0.3,0.1,0.5,0.2,0.9,0.3c0,0,0,0,0,0c0.2,0.1,0.4,0.1,0.7,0.1c0.2,0,0.5,0.1,0.7,0.1c0,0,0,0,0.1,0
					c0.2,0,0.3,0,0.5,0.1c0.3,0,0.6,0,0.9,0.1c0.1,0,0.1,0,0.2,0c0.3,0,2.9,0,3.3,0c0.1,0,0.1,0,0.2,0c0.1,0,0.2,0,0.2,0
					c0.1,0,0.3,0,0.4,0c0,0,0,0,0.1,0c0.3,0,0.5-0.1,0.8-0.1c0.3,0,0.6-0.1,0.9-0.2c0.1,0,0.2,0,0.3-0.1c0.1,0,0.1,0,0.2-0.1
					c0.2,0,0.3-0.1,0.5-0.1c0.2,0,0.3-0.1,0.5-0.1c0.1,0,0.2-0.1,0.3-0.1c0.1,0,0.2-0.1,0.3-0.1c0.2-0.1,0.3-0.1,0.5-0.2
					c0,0,0.1,0,0.1,0c0.2-0.1,0.5-0.2,0.7-0.3c0.3-0.1,0.6-0.3,0.8-0.4c0,0,0,0,0,0l0-47.6c0.1-4-5.6-7.4-10.2-8.2l-5.4,12.3
					c-0.5,1.3-0.8,2.6-0.8,4V161.7z"/>
				<path class="st40" d="M202.1,162.7c-0.2,0-0.3,0.1-0.5,0.1C201.8,162.8,202,162.8,202.1,162.7z"/>
				<path class="st40" d="M193.2,163.4C193.1,163.4,193.1,163.4,193.2,163.4C193.1,163.4,193.1,163.4,193.2,163.4z"/>
				<path class="st40" d="M201.2,163c-0.1,0-0.1,0-0.2,0.1C201,163,201.1,163,201.2,163z"/>
				<path class="st40" d="M192.4,163.3c-0.2,0-0.4-0.1-0.7-0.1C191.9,163.2,192.1,163.2,192.4,163.3z"/>
				<path class="st40" d="M202.8,162.5c-0.1,0-0.2,0.1-0.3,0.1C202.6,162.6,202.7,162.6,202.8,162.5z"/>
				<path class="st40" d="M204.5,161.8c-0.1,0.1-0.3,0.1-0.4,0.2C204.2,162,204.3,161.9,204.5,161.8z"/>
				<path class="st40" d="M203.3,162.3c0,0-0.1,0-0.1,0C203.3,162.3,203.3,162.3,203.3,162.3z"/>
				<path class="st40" d="M191.7,163.1c-0.3-0.1-0.6-0.2-0.9-0.3C191.1,163,191.4,163,191.7,163.1z"/>
				<path class="st40" d="M189.4,162.2c-0.2-0.1-0.4-0.2-0.6-0.3C188.9,162,189.1,162.1,189.4,162.2z"/>
				<path class="st40" d="M198.5,163.5c-0.1,0-0.2,0-0.2,0C198.3,163.5,198.4,163.5,198.5,163.5z"/>
				<path class="st40" d="M198,163.5c-0.3,0-3,0-3.3,0C195.1,163.5,197.7,163.5,198,163.5z"/>
				<path class="st40" d="M198.9,163.4C198.9,163.4,198.9,163.4,198.9,163.4C198.9,163.4,198.9,163.4,198.9,163.4z"/>
				<path class="st40" d="M200.6,163.1c-0.3,0.1-0.6,0.1-0.9,0.2C200,163.3,200.3,163.2,200.6,163.1z"/>
				<path class="st40" d="M194.5,163.5c-0.3,0-0.6,0-0.9-0.1C193.9,163.5,194.2,163.5,194.5,163.5z"/>
				<path class="st41" d="M180.5,162.2v-37.7c0-2.2-0.6-4.3-1.7-6.2l-6.9-11.5c-3.3,1.5-5.5,4.4-5.5,7.7v0.5
					c-9.2,13.1,1.1,19.5,1.1,19.5l1.7,27.7C172.5,163.9,176.2,163.9,180.5,162.2z"/>
				<path class="st42" d="M183.1,114.9c4.5,0,8.1-4.1,8.1-9.2H177c-0.7,0-1.4,0.1-2,0.2C175,110.9,178.6,114.9,183.1,114.9z"/>
			</g>
			<path class="st31" d="M184.9,112.2h-3.7c-2,0-3.6-1.6-3.6-3.6V91.3c0-2,1.6-3.6,3.6-3.6h3.7c2,0,3.6,1.6,3.6,3.6v17.3
				C188.5,110.6,186.9,112.2,184.9,112.2z"/>
			<g>
				<path class="st38" d="M208,166.8c-1.2-2.6-2.6-5.3-3.1-5.1c-0.1,0.1-0.3,0.1-0.4,0.2c-0.1,0.1-0.3,0.1-0.4,0.2
					c-0.2,0.1-0.5,0.2-0.7,0.3c0,0-0.1,0-0.1,0c-0.2,0.1-0.3,0.1-0.5,0.2c-0.1,0-0.2,0.1-0.3,0.1c-0.1,0-0.2,0.1-0.3,0.1
					c-0.2,0-0.3,0.1-0.5,0.1c-0.2,0.1-0.3,0.1-0.5,0.1c-0.1,0-0.1,0-0.2,0.1c-0.1,0-0.2,0-0.3,0.1c-0.3,0.1-0.6,0.1-0.9,0.2
					c-0.3,0-0.5,0.1-0.8,0.1c0,0,0,0-0.1,0c-0.1,0-0.3,0-0.4,0c-0.1,0-0.2,0-0.2,0c-0.1,0-0.1,0-0.2,0c-0.3,0-3,0-3.3,0
					c-0.1,0-0.1,0-0.2,0c-0.3,0-0.6,0-0.9-0.1c-0.2,0-0.3,0-0.5-0.1c0,0,0,0-0.1,0c-0.3,0-0.5-0.1-0.7-0.1c-0.2,0-0.4-0.1-0.7-0.1
					c0,0,0,0,0,0c-0.3-0.1-0.6-0.2-0.9-0.3c-0.6-0.2-1.1-0.4-1.5-0.6c-0.2-0.1-0.4-0.2-0.6-0.3c-0.1-0.1-0.2-0.1-0.3-0.2
					c0,0-0.1,0-0.1,0v-39.5c0-1.4,0.3-2.7,0.8-4l5.4-12.3c-0.6-0.1-1.3-0.2-2-0.2h-1.5c0,5.1-3.6,9.2-8.1,9.2c-4.4,0-8-4-8.1-9
					c-1.1,0.2-2.1,0.5-3.1,0.9l6.9,11.5c1.1,1.9,1.7,4,1.7,6.2v37.7c-4.3,1.7-8.1,1.7-11.3,0c-0.3-0.2-2.3,3.1-4.1,6.2
					c3.3,1.3,9.2,2.6,19.6,2.6C195.6,171,204.4,168.8,208,166.8z"/>
				<path class="st43" d="M211.5,175.8c-0.5-1.6-1.1-3.2-1.7-4.8c-0.1-0.3-0.9-2.2-1.8-4.2c-3.6,2-12.3,4.2-23.3,4.2
					c-10.4,0-16.3-1.3-19.6-2.6c-1.4,2.4-2.7,4.7-2.9,5.2c-2.1,4.4-3.5,9.1-4.4,13.8c-1.8,9.6-1.7,59.3-0.4,69
					c0.2,1.7,1.5,3.1,3.3,3.7c19.8,6.8,42.2,2.9,51.1,0.4c2.9-0.8,4.9-3,4.9-5.5C216.9,241.8,215.6,188.4,211.5,175.8z"/>
			</g>
			<g>
				<path class="st44" d="M186.8,43c4-2.4,9.6-1.6,12.9,1.7c3.3,3.3,4.3,8.6,2.5,12.9c-0.7,1.8-1.9,3.4-3.6,4.4
					c-4.5,2.6-8.9-0.7-12.2-3.6c-1.4-1.3-2.9-2.6-3.5-4.4c-0.4-1-0.4-2.2-0.4-3.3C182.5,47.5,184,44.7,186.8,43z"/>
				<path class="st45" d="M195.6,93.2c1.2,0.1,2.5-0.2,3.5-0.9c3.7-2.7,3.8-9.8,3.9-14c0.3-10-5.2-28.4-17.1-30.3
					c-1.4-0.2-3,0-4.1,0.9c-0.1,0.1-0.3,0.2-0.4,0.2c-0.2,0-0.3-0.1-0.5-0.2c-4.4-3-11.2,1.2-14.2,4.5c-2.8,3.1-4.6,6.9-5.8,10.9
					c-0.8,2.7-1.2,6.1,0.9,7.8c1.1,0.9,2.6,1.1,4,1.2c0.4,0,1-0.1,0.9-0.5c2.9-0.8,5-0.9,8-0.9c3,0,6.1,0.6,8.6,2.4
					c2.7,1.9,4.5,5,5.8,8.2c1,2.5,1.6,5.2,2.7,7.7c0.2,0.5,0.5,1,0.8,1.5C193.4,92.6,194.5,93.1,195.6,93.2z"/>
				<path class="st39" d="M164.8,79.5c0.5,4.7,1.3,9.5,3.5,13.7c2.2,4.2,6,7.7,10.7,8.6c4.7,0.9,9.6-1,12.8-4.6
					c3.2-3.5,4.6-8.4,4.4-13.2c4.3-0.2,6.5-6.2,3.6-9.3c-1.1-1.2-3.8-1.8-4.7,0.1c-0.1,0.3-0.2,0.7-0.4,1c-0.8,1.4-3.7,0.7-4.8,0.3
					c-5.2-1.6-10.2-4.8-14.1-8.6c-1.2-1.1-2.3-2.4-2.7-4c-1.1,2.9-2.5,5.1-4.6,7.3c-1.2,1.3-2.4,1.9-4,2.4c0.1,0.9,0,2,0,2.9
					C164.6,77.4,164.7,78.4,164.8,79.5z"/>
				<path class="st46" d="M176.3,89.9c0.5,0,0.9,0.3,1.2,0.7c0.2-0.5,0.6-1.1,1.1-1.4c0.5-0.3,1.2-0.4,1.7-0.1
					c0.5,0.3,0.9,0.9,0.7,1.5c-0.1,0.4-0.5,0.7-0.9,0.9c-1.1,0.7-2.8,1-4.1,0.5C174.6,91.5,174.8,89.9,176.3,89.9z"/>
				<g>
					<path class="st47" d="M173.8,78.3c0,2.4-0.5,5-1.6,7.1c-0.2,0.4-0.5,1.1-0.4,1.4c1.3,0.5,3,0.1,4.4-0.1
						c0.4-0.1,0.5,0.5,0.2,0.6c-1.5,0.5-3.3,1.1-5,0.6c-1.8-0.9,0.1-3.4,0.6-4.5c0.7-1.6,1-3.3,1.3-5
						C173.2,77.9,173.8,78,173.8,78.3L173.8,78.3z"/>
				</g>
				<path class="st46" d="M177.9,93.8c-0.3,0.2-0.7,0.5-0.8,1c0,0.3,0.2,0.6,0.5,0.8c0.3,0.2,0.6,0.2,0.9,0.2c1.1,0,2.1-0.4,2.8-1.2
					c0.1-0.1,0.2-0.3,0.3-0.4c0.1-0.5-0.3-0.9-0.8-1c-1.2-0.4-2.5,0.1-3.5,0.9"/>
				<ellipse class="st22" cx="168.6" cy="79.5" rx="1" ry="1.6"/>
				<ellipse class="st22" cx="181.8" cy="78.6" rx="1" ry="1.6"/>
				<path class="st48" d="M174,92.6c3.3-0.2,6.5-1.1,9.5-2.6c0.1-0.6,0.2-1.1,0.2-1.7c-2.4,1.2-5.1,2.2-7.8,2.6c-0.1,0-0.2,0-0.3,0
					c-1.2,0.1-2.3,0.4-3.6,0.2c0.2,0.5,0.5,1,0.8,1.5C173.3,92.6,173.7,92.6,174,92.6z"/>
				<g>
					<path class="st49" d="M179.4,92.4c1-0.3,2.1-0.4,3.2-0.3c0.4-0.6,0.7-1.3,0.9-2c-2.9,1.5-6.2,2.4-9.5,2.6c-0.4,0-0.7,0-1.1,0
						c0.7,1,1.8,1.7,3,2.1C176.8,93.6,178,92.8,179.4,92.4z"/>
					<path class="st50" d="M179.4,92.4c-1.4,0.4-2.6,1.2-3.5,2.3c0.5,0.2,1.1,0.3,1.6,0.3c2.2,0,4-1.2,5.1-2.9
						C181.5,91.9,180.4,92,179.4,92.4z"/>
				</g>
				<g>
					<path class="st45" d="M165.9,76c1-1.6,3-2.3,4.8-1.9c0.4,0.1,0.6,0.4,0.6,0.8c-0.1,0.4-0.4,0.6-0.8,0.6
						c-0.7-0.2-1.5-0.4-2.2-0.2c-0.7,0.1-1.4,0.6-1.9,1.1C166.1,76.6,165.7,76.3,165.9,76L165.9,76z"/>
				</g>
				<g>
					<path class="st45" d="M183.4,75.2c-1.1-1-2.8-1-4.1-0.3c-0.8,0.4-1.4-0.9-0.6-1.2c1.3-0.5,2.9-0.4,4.1,0.3
						c0.3,0.2,1.4,0.8,1,1.3C183.8,75.4,183.6,75.4,183.4,75.2L183.4,75.2z"/>
				</g>
				<g>
					<g>
						<path class="st47" d="M196.5,75.2c3.5-0.3,4.8,4.5,1.9,6.2c-0.2,0.1-0.4-0.1-0.2-0.3c1.2-1.4,1.1-3.4-0.3-4.5
							c-0.4-0.4-0.9-0.6-1.5-0.8C196.1,75.6,196.2,75.2,196.5,75.2L196.5,75.2z"/>
					</g>
					<g>
						<path class="st47" d="M199.1,76.7c-0.2,1.2-1,2.2-2,2.7c-0.1,0-0.2,0-0.2-0.1c0-0.1,0-0.2,0.1-0.2c0.8-0.6,1.2-1.6,1.2-2.4
							C198.1,75.9,199.2,76,199.1,76.7L199.1,76.7z"/>
					</g>
				</g>
				<g>
					<path class="st51" d="M170,82.2l-4.2,0.2c-1.3,0.1-2.5-0.6-3-1.8l-1.9-4l10.3-0.5c0.9,0,1.6,0.6,1.7,1.4l0.1,1.5
						C173,80.7,171.7,82.1,170,82.2z"/>
					<path class="st51" d="M179.6,81.7l5.2-0.3c1.3-0.1,2.4-0.9,2.8-2.1l1.4-4.2l-11.3,0.6c-0.9,0-1.5,0.8-1.5,1.6l0.1,1.5
						C176.4,80.5,177.9,81.8,179.6,81.7z"/>
					<line class="st51" x1="172.8" y1="77.6" x2="176.2" y2="77.4"/>
				</g>
			</g>
			<g>
				<path class="st52" d="M178,105.5c0,1-0.8,1.8-1.8,1.8c-1,0-1.8-0.8-1.8-1.8c0-1,0.8-1.8,1.8-1.8
					C177.2,103.7,178,104.5,178,105.5z"/>
				<path class="st52" d="M191.1,105.5c0,1-0.8,1.8-1.8,1.8c-1,0-1.8-0.8-1.8-1.8c0-1,0.8-1.8,1.8-1.8
					C190.3,103.7,191.1,104.5,191.1,105.5z"/>
				<path class="st52" d="M180.9,107.5c0,1-0.8,1.8-1.8,1.8s-1.8-0.8-1.8-1.8c0-1,0.8-1.8,1.8-1.8S180.9,106.5,180.9,107.5z"/>
				<path class="st52" d="M188.1,107.5c0,1-0.8,1.8-1.8,1.8c-1,0-1.8-0.8-1.8-1.8c0-1,0.8-1.8,1.8-1.8
					C187.3,105.7,188.1,106.5,188.1,107.5z"/>
				<path class="st52" d="M184.5,108.2c0,1-0.8,1.8-1.8,1.8c-1,0-1.8-0.8-1.8-1.8c0-1,0.8-1.8,1.8-1.8
					C183.7,106.4,184.5,107.2,184.5,108.2z"/>
			</g>
			<g>
				<rect x="187.7" y="129.4" class="st53" width="13.5" height="6.6"/>
				<rect x="188.5" y="130.7" class="st54" width="3.5" height="4.4"/>
				<g>
					<line class="st55" x1="192.6" y1="131.6" x2="200.1" y2="131.6"/>
					<line class="st55" x1="192.6" y1="132.9" x2="200.1" y2="132.9"/>
					<line class="st55" x1="192.6" y1="134.3" x2="200.1" y2="134.3"/>
				</g>
				<rect x="193.6" y="126.8" class="st56" width="1.7" height="3.5"/>
			</g>
			<g>
				<path class="st39" d="M207.4,195.7c-1,0.9-2,1.8-3.1,2.7c-0.2,0.2-0.5,0.4-0.5,0.8c0,0.4,0.3,0.7,0.7,0.8c0.4,0.1,0.8,0,1.1-0.2
					c0.8-0.3,1.7-0.5,2.5-0.8c0.4-0.1,0.8-0.3,1.3-0.2c1.9,0.4-0.7,5.2-1.2,6.2c-0.8,1.9-1.5,3.8-2.1,5.8c-0.1,0.3-0.2,0.6-0.1,0.9
					c0,0.3,0.1,0.6,0.4,0.8c0.3,0.2,0.7,0.1,1-0.1c0.9-0.7,1.4-2.5,1.9-3.5c0.8-1.5,1.5-3,2.2-4.5c-0.7,2.7-1.2,5.2-1.9,7.9
					c-0.1,0.5-0.3,1.1-0.1,1.6c0.1,0.5,0.7,1,1.2,0.9c0.5-0.1,0.8-0.7,0.9-1.2c1-2.8,2-5.6,3.1-8.4c-0.2,0.9-0.5,1.9-0.7,2.8
					c-0.5,1.9-1,3.8-0.9,5.8c0,0.4,0.1,0.9,0.4,1.1c0.4,0.2,0.9,0.1,1.2-0.3c0.3-0.3,0.4-0.8,0.5-1.2c0.7-2.6,1.3-5.2,2-7.9
					c-0.3,2.4-0.7,4.9-0.7,7.4c0,0.5,0.1,1.2,0.6,1.3c0.5,0.2,1-0.4,1.2-0.8c1.2-2.6,1.2-6.1,1.6-8.9c0.5-3.4,0.9-6.7,1.2-10.1
					c0.1-1.2,0.2-2.5-0.4-3.5c-0.4-0.7-1.1-1.2-1.9-1.5c-2.2-1-4.1-0.7-5.7,0.9C211.2,192.2,209.4,194,207.4,195.7z"/>
				<path class="st41" d="M211.6,191.3c2,1,5.1,2.1,9.7,2.6c0-0.1,0.1-0.2,0.1-0.4c0.2-0.7,0.3-1.4,0.5-2.1
					c-4.4-0.5-7.9-1.7-9.8-2.5C211.9,189.7,211.8,190.5,211.6,191.3z"/>
				<path class="st57" d="M228.1,152.2c0-0.2,0-0.3,0-0.5l-0.1-0.6c-0.1-0.4-0.2-0.8-0.3-1.2c-0.1-0.2-0.1-0.4-0.2-0.6l-0.2-0.4
					c-0.2-0.6-0.4-1.1-0.6-1.6c-0.8-2-1.6-3.6-2.5-5.4c-0.9-1.7-1.7-3.3-2.6-5c-1.8-3.3-3.6-6.5-5.4-9.7c-3.6-6.4-7.3-12.7-11.1-19
					c0,0-0.1-0.1-0.1-0.2c-1.9-3-5.8-3.8-8.8-1.9c-3,1.9-3.8,5.8-1.9,8.8l0,0c3.9,6.1,7.8,12.2,11.5,18.4c1.9,3.1,3.7,6.2,5.5,9.3
					c0.9,1.5,1.8,3.1,2.6,4.6c0.8,1.5,1.6,3.1,2.3,4.5c0.1,0.3,0.3,0.7,0.4,0.9l0.1,0.2l0,0.1c0,0.1,0,0.1,0,0.1c0,0,0,0,0,0
					c0,0,0,0.1,0,0.2c0,0.1,0,0.2,0,0.4c0,0.3,0,0.7,0,1c0,1.5-0.1,3.3-0.3,5c-0.3,3.5-0.8,7-1.3,10.6c-0.9,6.2-2,12.5-3.2,18.8
					c1.9,0.8,5.4,2.1,9.8,2.5c1.4-6.5,2.8-13,4-19.6c0.7-3.6,1.3-7.3,1.8-11.1c0.2-1.9,0.5-3.8,0.5-5.9c0-0.5,0-1.1,0-1.7
					C228.1,152.9,228.1,152.5,228.1,152.2z"/>
			</g>
		</g>
	</g>
</g>
</svg>
