<?xml version="1.0" encoding="UTF-8"?>
<svg id="_圖層_2" data-name="圖層 2" xmlns="http://www.w3.org/2000/svg" width="264.42" height="264.43" viewBox="0 0 264.42 264.43">
  <g id="_圖層_8" data-name="圖層 8">
    <g id="_學校師生" data-name="學校師生">
      <g>
        <path d="M132.21,0c-1.93,0-3.89.04-5.82.13l.42,9.7c1.45-.06,2.9-.1,4.36-.11h.05s0,0,0,0c.06,0,.13,0,.19,0,0,0,0,0,0,0,.01,0,.03,0,.04,0h.01s.03,0,.04,0h0s.03,0,.05,0h0s.07,0,.1,0h0s.03,0,.04,0h.01s.02,0,.04,0c0,0,0,0,.01,0,.01,0,.02,0,.03,0h.02s.02,0,.04,0h0s.06,0,.1,0h.01s.02,0,.03,0h.06s.02,0,.03,0h.11V0h0ZM122.91.32c-1.93.13-3.88.31-5.8.53l1.1,9.65c.26-.03.52-.06.78-.09,0,0,0,0,.01,0,0,0,.01,0,.02,0,0,0,.02,0,.03,0h.02s.02,0,.03,0c0,0,0,0,.01,0,.01,0,.03,0,.04,0h0c1.47-.16,2.94-.29,4.43-.39l-.67-9.69h0ZM113.65,1.29c-1.92.27-3.85.59-5.75.94l1.78,9.55c.93-.17,1.86-.33,2.79-.49h0s.03,0,.04,0h0s.02,0,.03,0c0,0,.01,0,.01,0,0,0,.02,0,.03,0,0,0,.02,0,.02,0,0,0,.02,0,.03,0,0,0,.02,0,.02,0,0,0,0,0,0,0,.77-.12,1.55-.24,2.33-.35l-1.35-9.62h0ZM104.47,2.92c-1.89.4-3.8.86-5.67,1.34l2.45,9.4c1.74-.45,3.49-.87,5.25-1.24l-2.03-9.5h0ZM95.43,5.19c-1.86.54-3.73,1.12-5.56,1.74l3.11,9.2s0,0,0,0c.03,0,.05-.02.08-.03h0s.05-.02.07-.02c0,0,0,0,.01,0,.02,0,.04-.01.07-.02,0,0,.01,0,.02,0,.02,0,.04-.01.06-.02,0,0,.02,0,.02,0,.01,0,.04-.01.05-.02h.03s.02-.02.04-.02c.02,0,.03-.01.05-.02.01,0,.02,0,.03-.01l.06-.02s.02,0,.03,0c.01,0,.03,0,.04-.01h.02s.04-.02.07-.03c0,0,0,0,.01,0l.08-.02h0c1.42-.47,2.86-.92,4.31-1.33l-2.7-9.33h0ZM86.57,8.09c-1.81.67-3.64,1.38-5.42,2.13l3.75,8.96c.93-.39,1.87-.77,2.81-1.14,0,0,0,0,0,0l.08-.03s0,0,0,0c.03,0,.05-.02.08-.03,0,0,0,0,0,0,.05-.02.1-.04.15-.06,0,0,0,0,.01,0,.02,0,.04-.02.07-.03,0,0,.01,0,.02,0,.02,0,.04-.02.06-.02,0,0,.01,0,.02,0,.02,0,.04-.02.06-.02,0,0,.01,0,.02,0,.02,0,.03-.01.05-.02.01,0,.02,0,.04-.01.01,0,.03-.01.04-.01.01,0,.03-.01.04-.02.01,0,.02,0,.04-.01.01,0,.02,0,.04-.01,0,0,.02,0,.02,0,.02,0,.04-.02.06-.02,0,0,0,0,.01,0,.03,0,.05-.02.08-.03h0c.41-.16.82-.31,1.23-.46l-3.35-9.12h0ZM77.94,11.62c-1.76.79-3.53,1.64-5.26,2.51l4.38,8.67s.1-.05.15-.08h0c.12-.06.25-.13.38-.19,0,0,0,0,0,0,.02-.01.05-.02.07-.04,0,0,0,0,0,0,.02-.01.05-.02.07-.04,0,0,0,0,0,0,.07-.04.15-.07.22-.11h0s.04-.03.07-.04c0,0,0,0,0,0,.02-.01.05-.02.07-.03,0,0,0,0,0,0,.02-.01.05-.02.07-.03,0,0,0,0,0,0,.02-.01.04-.02.07-.03h0s.04-.02.07-.04c0,0,0,0,.01,0,.02-.01.04-.02.07-.03,0,0,0,0,.01,0,.02-.01.04-.02.06-.03,0,0,0,0,.01,0,.02-.01.04-.02.06-.03,0,0,0,0,.01,0,.02-.01.05-.02.07-.03,0,0,0,0,0,0,.02-.01.04-.02.07-.03h0s.04-.03.07-.04c0,0,0,0,.01,0,.02-.01.04-.02.06-.03,0,0,.01,0,.02,0,.02-.01.04-.02.06-.03,0,0,0,0,.01,0,.02-.01.04-.02.07-.03,0,0,0,0,0,0,.02-.01.04-.02.07-.03h0s.05-.02.07-.03c0,0,0,0,.01,0,.02-.01.04-.02.06-.03,0,0,.01,0,.02,0,.02-.01.04-.02.06-.03h.02s.04-.03.06-.04c0,0,0,0,.01,0,.02-.01.04-.02.06-.03,0,0,0,0,.01,0,.02-.01.04-.02.06-.03h.01s.04-.03.06-.04c0,0,.01,0,.02,0,.02,0,.04-.02.06-.03,0,0,0,0,.01,0,.02,0,.04-.02.06-.03,0,0,0,0,.01,0,.02-.01.04-.02.07-.03,0,0,0,0,0,0,.02-.01.04-.02.06-.03,0,0,0,0,0,0,.02-.01.05-.02.07-.03h.01s.04-.03.06-.04c0,0,0,0,.01,0,.02,0,.04-.02.06-.03h.01s.05-.03.07-.04c0,0,0,0,0,0,.02-.01.05-.02.07-.03h0s.05-.02.07-.03c0,0,0,0,0,0,.02-.01.05-.02.07-.03h0s.05-.03.07-.04c0,0,0,0,0,0,.02-.01.05-.02.07-.03,0,0,0,0,0,0,.02-.01.05-.02.07-.03,0,0,0,0,0,0,.05-.02.1-.05.15-.07h0s.05-.02.07-.04c0,0,0,0,0,0,.02-.01.05-.02.07-.03,0,0,0,0,0,0,.31-.14.61-.28.92-.42l-3.99-8.86h0ZM69.58,15.75c-1.7.92-3.41,1.88-5.07,2.88l4.98,8.34c.29-.17.58-.35.87-.51,0,0,0,0,0,0,.05-.03.09-.06.14-.08,0,0,0,0,0,0,.02-.01.05-.03.07-.04,0,0,0,0,0,0,.02-.01.04-.02.06-.04,0,0,.01,0,.02,0,.02-.01.04-.02.06-.03,0,0,.01,0,.02-.01.02,0,.04-.02.05-.03,0,0,.01,0,.02-.01.02,0,.03-.02.05-.03,0,0,.02-.01.03-.02.01,0,.03-.02.04-.02.01,0,.03-.01.04-.02.01,0,.02-.01.03-.02.01,0,.02-.01.03-.02.01,0,.03-.02.04-.02.01,0,.02-.01.03-.02,0,0,.02-.01.03-.02l.05-.03s.01,0,.02,0c.02-.01.04-.02.06-.04,0,0,0,0,.01,0,.02-.01.05-.03.07-.04h0c.65-.38,1.31-.75,1.97-1.11h0s.05-.03.07-.04c0,0,0,0,.01,0,.02-.01.04-.02.06-.03,0,0,.01,0,.02-.01.01,0,.03-.02.04-.02.01,0,.03-.01.04-.02.01,0,.02-.01.03-.02.01,0,.03-.02.05-.03,0,0,.02,0,.02-.01.02,0,.04-.02.05-.03h.02s.04-.03.06-.04c0,0,0,0,0,0,.02-.01.04-.02.07-.04,0,0,0,0,0,0,.02-.01.05-.03.07-.04,0,0,0,0,0,0,.07-.04.15-.08.22-.12l-4.61-8.55h0ZM61.54,20.45c-1.63,1.03-3.26,2.12-4.85,3.22l5.55,7.97c.32-.22.65-.45.97-.67,0,0,0,0,0,0,.02-.02.04-.03.06-.04,0,0,0,0,.01,0,.02-.01.04-.03.06-.04,0,0,.01,0,.02-.01.02-.01.04-.03.06-.04,0,0,.01,0,.02-.01.02-.01.03-.02.05-.03l.02-.02s.03-.02.04-.03c0,0,.02-.01.03-.02.01,0,.03-.02.04-.03l.03-.02s.03-.02.04-.03c0,0,.02-.01.03-.02.01,0,.03-.02.04-.03.01,0,.02-.02.03-.02,0,0,.01,0,.02-.01.02-.01.04-.03.06-.04,0,0,0,0,.01,0,.02-.01.04-.03.07-.04h0s.05-.04.07-.05h0c.6-.4,1.2-.8,1.81-1.19,0,0,0,0,.01,0,.02-.01.04-.03.06-.04,0,0,.01,0,.02-.01.02-.01.03-.02.05-.03,0,0,.02-.01.03-.02.01,0,.03-.02.04-.02s.02-.02.04-.02c0,0,.02,0,.02-.01.02-.01.04-.02.05-.03h.02s.04-.04.06-.05c0,0,0,0,.01,0,.02-.01.04-.03.06-.04,0,0,0,0,0,0,.14-.09.28-.18.42-.27l-5.2-8.21h0ZM53.85,25.71c-1.56,1.15-3.11,2.34-4.61,3.56l6.1,7.56c.05-.04.11-.09.16-.13h0s.04-.04.06-.05c0,0,.01,0,.02-.01.01-.01.03-.02.04-.04,0,0,.02-.02.03-.02,0,0,.02-.01.03-.02.01-.01.03-.02.05-.04,0,0,.01-.01.02-.02.02-.01.03-.03.05-.04,0,0,.01,0,.02-.01.02-.01.04-.03.05-.04,0,0,0,0,0,0,.85-.68,1.72-1.35,2.59-2.01,0,0,0,0,0,0,.02-.01.04-.03.06-.04,0,0,0,0,.01-.01.02-.01.04-.03.05-.04,0,0,.01,0,.02-.01.02-.01.03-.03.05-.04l.02-.02s.03-.02.04-.03l.03-.02s.02-.02.03-.02c.01-.01.03-.02.04-.03,0,0,.02-.01.03-.02.02-.01.03-.02.05-.04,0,0,.01-.01.02-.02.23-.17.46-.34.69-.52l-5.76-7.82h0ZM46.55,31.5c-1.47,1.25-2.93,2.55-4.35,3.87l6.61,7.11s.1-.09.15-.14h0s.04-.04.06-.06c0,0,0,0,.01-.01.02-.02.03-.03.05-.05,0,0,.01,0,.02-.02.01-.01.03-.03.04-.04,0,0,.02-.02.03-.02,0,0,.02-.02.03-.03.01-.01.03-.02.04-.03,0,0,.02-.02.02-.02.01-.01.03-.02.04-.04,0,0,.02-.01.02-.02.01-.01.02-.02.03-.03,0,0,.02-.02.03-.03.01-.01.02-.02.03-.03,0,0,.02-.02.03-.03.01-.01.02-.02.03-.03l.02-.02s.03-.02.04-.04c0,0,.02-.01.02-.02.01-.01.03-.03.04-.04,0,0,.01-.01.02-.02.01-.01.03-.03.04-.04,0,0,.01-.01.02-.02.01-.01.03-.02.04-.03,0,0,.02-.02.03-.02.01-.01.02-.02.03-.03.01,0,.02-.02.03-.03.01-.01.02-.02.03-.03,0,0,.02-.01.02-.02.01-.01.02-.02.04-.04,0,0,.02-.01.02-.02.01-.01.03-.03.04-.04,0,0,.02-.02.03-.02,0,0,.02-.02.03-.03.01-.01.02-.02.04-.03,0,0,.01-.01.02-.02.01-.01.03-.03.04-.04,0,0,.01-.01.02-.02.02-.02.03-.03.05-.05,0,0,0,0,.01-.01.02-.02.04-.04.06-.06h0c.84-.76,1.7-1.51,2.56-2.24l-6.3-7.4h0ZM39.68,37.78c-1.38,1.35-2.75,2.75-4.07,4.16l7.1,6.63c.18-.19.36-.39.54-.58,0,0,0,0,.01-.01.01-.02.03-.03.04-.05,0,0,.02-.02.02-.03l.02-.02s.03-.03.04-.04l.02-.02s.03-.03.05-.05c0,0,0,0,0,0,.02-.02.03-.04.05-.06,0,0,0,0,0,0,.97-1.02,1.96-2.02,2.96-3l-6.8-6.94h0ZM33.26,44.53c-1.28,1.45-2.55,2.94-3.77,4.44l7.54,6.12c1.13-1.4,2.3-2.77,3.49-4.11l-7.27-6.44h0ZM27.33,51.71c-1.18,1.53-2.34,3.11-3.45,4.69l7.95,5.58h0s.03-.04.04-.07c0,0,0,0,0,0,.02-.02.03-.04.05-.06,0,0,0,0,0,0,.02-.02.03-.04.05-.06,0,0,0,0,0,0,.02-.02.03-.04.05-.06,0,0,0,0,0,0,.86-1.22,1.74-2.42,2.64-3.6,0,0,0,0,0,0,.02-.02.03-.05.05-.07,0,0,0,0,0,0,.02-.02.03-.05.05-.07h0s.03-.04.05-.06c0,0,0,0,0,0,.01-.02.03-.04.04-.06,0,0,0,0,0-.01.01-.02.03-.04.04-.05,0,0,0-.01.01-.02.01-.02.02-.03.04-.05,0,0,.01-.02.02-.02,0-.01.02-.03.03-.04,0,0,0-.01.01-.02l-7.7-5.92h0ZM21.91,59.29c-1.07,1.61-2.11,3.27-3.11,4.92l8.33,5c.51-.84,1.02-1.68,1.55-2.51,0,0,0,0,0,0,.01-.02.02-.04.04-.06,0,0,0-.01.01-.02.01-.02.02-.04.03-.05,0,0,0-.01.01-.02.01-.02.02-.04.03-.05,0,0,0-.01.01-.02,0-.01.02-.03.03-.04l.02-.04s.01-.02.02-.03c.01-.02.02-.03.03-.05,0,0,0-.01.02-.02.01-.02.02-.04.04-.06,0,0,0,0,.01-.02,0-.01.02-.02.02-.04h0s.03-.05.05-.08h0c.31-.49.63-.97.95-1.46l-8.1-5.36h0ZM17.05,67.23c-.95,1.68-1.88,3.41-2.75,5.13l8.66,4.4c.07-.13.14-.27.2-.4,0,0,0-.01,0-.01.01-.02.02-.04.03-.06,0,0,0-.02.01-.02,0-.02.02-.04.03-.05,0-.01,0-.02.01-.03l.02-.04s.01-.03.02-.04c0,0,0-.02.01-.03,0-.01.02-.04.03-.05,0,0,0-.02.01-.03,0-.02.02-.04.03-.05,0,0,0-.01.01-.02,0-.02.02-.03.03-.05,0,0,0-.02.01-.02,0-.02.02-.04.03-.05,0,0,0,0,0-.01.01-.02.02-.04.03-.06,0,0,0-.01,0-.02.01-.02.02-.04.03-.06,0,0,0-.01,0-.02.01-.02.02-.04.03-.06,0,0,0-.01,0-.02.01-.02.02-.04.03-.06,0,0,0,0,0,0,.01-.02.02-.04.03-.07,0,0,0,0,0,0,.01-.02.02-.04.04-.07h0s.02-.05.03-.07c0,0,0,0,0-.01.01-.02.02-.05.04-.07,0,0,0,0,0,0,.01-.02.02-.05.04-.07,0,0,0,0,0,0,.03-.05.05-.1.08-.15,0,0,0,0,0,0,.01-.02.03-.05.04-.07,0,0,0,0,0,0,.01-.02.02-.04.04-.07,0,0,0,0,0,0,.01-.02.03-.05.04-.07,0,0,0,0,0,0,.01-.02.03-.05.04-.07,0,0,0,0,0,0,.03-.05.05-.09.08-.14,0,0,0,0,0,0,.01-.02.02-.04.04-.07,0,0,0,0,0,0,.01-.02.02-.05.04-.07,0,0,0,0,0-.01.01-.02.02-.04.03-.07,0,0,0,0,0,0,.01-.02.03-.05.04-.07,0,0,0,0,0,0,.01-.02.03-.05.04-.07,0,0,0,0,0,0,.01-.02.03-.05.04-.07,0,0,0,0,0-.01.01-.02.02-.04.04-.06,0,0,0,0,0-.01.01-.02.02-.04.04-.06,0,0,0,0,0-.01.01-.02.02-.04.04-.07,0,0,0,0,0,0,.01-.02.02-.05.04-.07,0,0,0,0,0,0,.01-.02.02-.04.04-.07,0,0,0,0,0,0,.01-.02.02-.04.04-.06,0,0,0,0,0-.01.01-.02.02-.04.03-.06,0,0,0,0,0-.01.01-.02.02-.04.03-.06h0s.02-.06.03-.08c0,0,0,0,0,0,.01-.02.02-.04.03-.06,0,0,0,0,0,0,.01-.02.02-.04.04-.07,0,0,0,0,0-.01.01-.02.02-.04.03-.06,0,0,0,0,0-.01.01-.02.02-.04.03-.06,0,0,0,0,0-.01.01-.02.02-.04.03-.06,0,0,0,0,0-.01.01-.02.02-.05.04-.07h0s.02-.05.04-.07c0,0,0,0,0,0,.01-.02.03-.05.04-.07,0,0,0,0,0,0,.01-.02.02-.04.04-.06,0,0,0,0,0-.01.01-.02.02-.04.04-.06,0,0,0,0,0,0,.01-.02.02-.04.04-.07,0,0,0,0,0,0,.03-.05.05-.1.08-.14,0,0,0,0,0,0,.01-.02.03-.05.04-.07,0,0,0,0,0,0,.02-.03.03-.05.04-.07,0,0,0,0,0,0,.05-.1.11-.2.16-.29l-8.46-4.78h0ZM12.75,75.5c-.83,1.75-1.63,3.54-2.38,5.32l8.95,3.78c.47-1.12.96-2.22,1.46-3.32,0,0,0,0,0,0,.01-.02.02-.05.03-.08,0,0,0,0,0,0,.02-.05.04-.1.07-.15,0,0,0,0,0,0,0-.02.02-.04.03-.07,0,0,0-.01,0-.02,0-.02.02-.04.03-.06v-.02s.03-.04.04-.06c0,0,0-.01,0-.02,0-.02.02-.03.02-.05,0,0,0-.02.01-.03,0-.01.01-.03.02-.04,0-.01.01-.02.02-.04,0-.01.01-.03.02-.04,0-.01.01-.02.02-.03,0-.01.01-.03.02-.05,0-.01.01-.02.02-.03,0-.01.01-.03.02-.04,0-.01.01-.03.02-.04,0,0,0-.01.01-.02,0-.02.02-.04.03-.06,0,0,0,0,0-.01.01-.03.02-.05.04-.08h0c.09-.19.18-.38.27-.57l-8.77-4.17h0ZM9.05,84.06c-.7,1.8-1.38,3.64-2,5.47l9.19,3.13c.05-.16.11-.32.16-.48,0,0,0,0,0,0,0-.02.02-.05.03-.07,0,0,0,0,0,0,0-.03.01-.04.02-.07,0,0,0-.01,0-.02,0-.02.01-.04.02-.06,0,0,0-.01,0-.02,0-.02.01-.03.02-.05v-.03s.02-.03.03-.05c0,0,0-.02.01-.03,0-.01.01-.04.02-.05,0-.01,0-.02.01-.03,0-.02,0-.03.02-.04,0-.01,0-.03.01-.04,0-.01,0-.02.01-.03,0-.02.01-.04.02-.06,0,0,0-.02,0-.02,0-.02.02-.05.02-.07,0,0,0,0,0-.01.04-.1.07-.2.11-.31h0c.42-1.18.86-2.35,1.31-3.51l-9.05-3.54h0ZM5.96,92.85c-.57,1.85-1.12,3.73-1.61,5.6l9.39,2.47c.46-1.74.96-3.47,1.49-5.19l-9.27-2.89h0ZM3.51,101.85c-.44,1.88-.85,3.8-1.21,5.7l9.54,1.8c.06-.32.12-.63.18-.95,0,0,0,0,0,0,0-.01,0-.03,0-.04h0s0-.03,0-.04c0,0,0,0,0-.01,0,0,0-.02,0-.03,0-.01,0-.03,0-.04h0s0-.03,0-.05h0s0-.03,0-.05h0c.27-1.36.57-2.72.88-4.06l-9.46-2.22h0ZM1.7,110.99c-.31,1.91-.58,3.85-.8,5.77l9.65,1.12c.21-1.79.46-3.58.74-5.34l-9.59-1.55h0ZM.54,120.23c-.17,1.92-.31,3.88-.39,5.81l9.7.45c.07-1.6.18-3.19.31-4.77h0s0-.03,0-.05h0s0-.03,0-.05h0s0-.04,0-.05h0c0-.05,0-.1.01-.15h0s0-.03,0-.05h0s0-.03,0-.05h0s0-.03,0-.05h0s0-.03,0-.05c0,0,0,0,0,0,0-.04,0-.09.01-.13l-9.67-.87h0ZM.03,129.53c-.02.89-.03,1.79-.03,2.68,0,1.04.01,2.1.04,3.13l9.71-.23c-.02-.72-.03-1.45-.03-2.18h0c0-.08,0-.15,0-.23h0v-.04s0,0,0-.01v-.05s0-.02,0-.03v-.07s0-.01,0-.02v-.1s0-.02,0-.03v-.1h0v-.06h0v-.15h0s0-.05,0-.07v-.02s0-.04,0-.06v-.07s0-.01,0-.02v-.06s0-.02,0-.03c0-.02,0-.03,0-.05v-.04s0-.03,0-.04c0-.01,0-.02,0-.03,0-.01,0-.03,0-.05,0-.01,0-.03,0-.04v-.03s0-.02,0-.03c0-.02,0-.04,0-.05,0-.01,0-.02,0-.04v-.03s0-.04,0-.07v-.02s0-.03,0-.04v-.02s0-.05,0-.07v-.02s0-.03,0-.04c0,0,0-.01,0-.02,0-.02,0-.05,0-.07,0,0,0-.02,0-.02,0-.02,0-.04,0-.06,0,0,0-.02,0-.03,0-.01,0-.02,0-.04,0-.01,0-.02,0-.03,0-.01,0-.03,0-.04,0-.02,0-.03,0-.05,0,0,0-.02,0-.03,0-.02,0-.04,0-.06h0s0-.05,0-.07h0c0-.27,0-.53.01-.79l-9.71-.19H.03ZM9.86,138.36l-9.7.48c.1,1.93.23,3.89.41,5.81l9.67-.9c-.17-1.78-.29-3.58-.38-5.38h0ZM10.59,146.96l-9.64,1.16c.23,1.92.51,3.86.82,5.77l9.58-1.58c-.08-.48-.15-.95-.23-1.43h0c-.01-.1-.03-.19-.04-.29h0s0-.03,0-.05h0s0-.03,0-.05h0c-.01-.08-.02-.16-.04-.24h0s0-.03,0-.05h0s0-.07-.01-.1h0c0-.06-.02-.13-.03-.19h0s0-.03,0-.05h0s0-.03,0-.05h0c-.01-.08-.02-.16-.03-.24h0s0-.03,0-.04h0s0-.03,0-.05h0s0-.03,0-.05h0c0-.07-.02-.13-.03-.19h0s0-.03,0-.05h0s0-.03,0-.05h0c0-.07-.02-.13-.03-.19h0s0-.03,0-.05h0s0-.03,0-.05h0s0-.03,0-.05h0s0-.03,0-.05c0,0,0,0,0-.01,0-.05-.01-.09-.02-.14,0,0,0,0,0-.01,0-.01,0-.02,0-.03,0,0,0-.01,0-.02,0,0,0-.02,0-.03,0,0,0,0,0-.02,0,0,0-.02,0-.03,0,0,0-.01,0-.02,0,0,0-.02,0-.03,0,0,0-.01,0-.02,0,0,0-.02,0-.03,0,0,0-.01,0-.02,0-.01,0-.03,0-.04,0,0,0,0,0,0,0-.01,0-.02,0-.04,0,0,0-.02,0-.02,0,0,0-.01,0-.02,0-.01,0-.01,0-.03,0,0,0-.01,0-.02,0,0,0-.02,0-.03,0,0,0,0,0-.01,0,0,0-.02,0-.03,0,0,0,0,0-.01-.05-.39-.1-.78-.15-1.17h0ZM11.92,155.49l-9.54,1.83c.37,1.9.78,3.82,1.23,5.7l9.45-2.26c-.15-.62-.29-1.24-.43-1.86h0s0-.03,0-.04h0s0-.03,0-.05h0s0-.03,0-.04c0,0,0,0,0-.01,0-.01,0-.02,0-.04,0,0,0,0,0,0,0-.01,0-.03,0-.04h0s0-.03,0-.04c0,0,0-.01,0-.02,0,0,0-.02,0-.02,0-.01,0-.02,0-.03,0,0,0-.01,0-.02,0,0,0-.02,0-.03,0,0,0,0,0-.01,0,0,0-.02,0-.03,0,0,0,0,0-.01,0-.01,0-.02,0-.03,0,0,0,0,0,0-.21-.98-.41-1.95-.6-2.93h0ZM13.85,163.9l-9.38,2.51c.5,1.87,1.05,3.75,1.63,5.6l9.26-2.92c-.09-.3-.18-.58-.27-.88h0s-.01-.05-.02-.08c0,0,0-.01,0-.02,0-.02-.01-.04-.02-.06,0,0,0-.01,0-.02,0-.02-.01-.04-.02-.06,0,0,0-.02,0-.03,0-.02,0-.03-.01-.04,0-.01,0-.03-.01-.04,0-.01,0-.02-.01-.04,0-.02-.01-.04-.02-.05,0,0,0-.02,0-.03v-.04s-.01,0-.02,0c0-.03-.02-.05-.02-.08,0,0,0,0,0,0,0-.03-.02-.05-.02-.08h0c-.36-1.2-.7-2.4-1.02-3.61h0ZM16.37,172.16l-9.18,3.17c.63,1.83,1.31,3.67,2.02,5.47l9.03-3.57c-.38-.96-.75-1.94-1.11-2.91,0,0,0,0,0,0,0-.03-.02-.05-.03-.07,0,0,0,0,0,0,0-.03-.02-.05-.03-.07,0,0,0,0,0,0,0-.03-.02-.05-.03-.07,0,0,0,0,0,0,0-.03-.02-.04-.03-.07,0,0,0,0,0-.01,0-.03-.02-.04-.02-.07,0,0,0-.01,0-.02,0-.02-.02-.04-.02-.06,0,0,0-.01,0-.02,0-.02-.01-.04-.02-.06,0,0,0-.01,0-.02,0-.02-.01-.04-.02-.06v-.02s-.02-.04-.03-.06c0,0,0-.01,0-.02,0-.02-.01-.04-.02-.06,0,0,0-.02,0-.03,0-.02-.01-.03-.02-.06,0,0,0-.02,0-.03,0-.02-.01-.04-.02-.06,0,0,0-.02,0-.03,0-.01-.01-.03-.02-.05,0-.01,0-.02-.01-.03,0-.01-.01-.03-.02-.05,0,0,0-.02,0-.03,0-.02-.01-.04-.02-.06,0,0,0-.02-.01-.03,0-.02-.01-.04-.02-.06,0,0,0-.02,0-.03,0-.02-.01-.04-.02-.06,0,0,0-.02,0-.02,0-.02-.01-.03-.02-.05,0,0,0-.02-.01-.03,0-.02-.01-.03-.02-.05,0,0,0-.02,0-.02,0-.02-.01-.04-.02-.06,0,0,0-.01,0-.02,0-.02-.01-.04-.02-.06v-.02s-.02-.05-.03-.06c0,0,0,0,0-.01,0-.02-.01-.04-.02-.07,0,0,0,0,0-.01,0-.02-.02-.05-.02-.07h0s-.02-.05-.02-.08c0,0,0,0,0,0,0-.03-.02-.05-.03-.07,0,0,0,0,0,0,0-.03-.02-.05-.03-.08h0ZM19.48,180.22l-8.94,3.81c.76,1.78,1.57,3.56,2.4,5.31l8.76-4.2h0s-.02-.05-.04-.07c0,0,0,0,0,0-.01-.02-.02-.05-.04-.07h0c-.02-.05-.05-.1-.07-.15,0,0,0,0,0-.01-.01-.02-.02-.04-.03-.06,0,0,0-.01,0-.02-.01-.02-.02-.04-.03-.06,0,0,0-.01,0-.02,0-.02-.02-.04-.03-.06,0,0,0-.01,0-.02,0-.02-.02-.04-.03-.05,0,0,0-.02-.01-.02,0-.01-.02-.03-.02-.05,0,0,0-.02-.01-.02,0-.02-.02-.04-.02-.05,0,0,0-.02-.01-.02,0-.02-.02-.04-.03-.05,0,0,0-.02-.01-.03,0-.02-.02-.04-.02-.05,0,0,0-.02-.01-.03,0-.01-.01-.03-.02-.04,0-.01-.01-.02-.02-.03,0-.01-.01-.02-.02-.04,0-.01-.01-.03-.02-.04,0-.01-.01-.03-.02-.04,0,0,0-.02-.01-.03,0-.02-.02-.03-.02-.05,0-.01,0-.02-.01-.03,0-.01-.02-.03-.02-.05,0-.01,0-.02-.01-.03,0-.01-.01-.03-.02-.04,0-.01-.01-.03-.02-.04,0-.01-.01-.02-.02-.04,0-.01-.01-.03-.02-.04,0-.01-.01-.03-.02-.04,0-.01-.01-.02-.02-.04,0-.01-.01-.03-.02-.04,0,0,0-.02-.01-.03,0-.01-.02-.04-.02-.05,0,0,0-.02-.01-.03,0-.02-.02-.03-.02-.05,0,0,0-.02-.01-.03,0-.01-.01-.03-.02-.04,0-.01-.01-.02-.02-.04,0-.01-.01-.03-.02-.04,0-.01-.01-.02-.02-.03,0-.01-.01-.03-.02-.04,0,0,0-.02-.01-.03,0-.02-.02-.04-.02-.05,0,0,0-.02-.01-.03,0-.02-.02-.04-.02-.05,0,0,0-.02-.01-.03,0-.01-.02-.04-.02-.05,0,0,0-.02-.01-.03,0-.01-.02-.03-.02-.05,0,0,0-.02-.01-.02,0-.02-.02-.04-.02-.05,0,0,0-.01,0-.02,0-.02-.02-.04-.03-.06,0,0,0-.01,0-.02,0-.02-.02-.04-.03-.06,0,0,0-.01,0-.02,0-.02-.02-.04-.03-.06,0,0,0-.01,0-.02,0-.02-.02-.04-.03-.06,0,0,0-.01,0-.02,0-.02-.02-.04-.03-.06,0,0,0-.01,0-.02,0-.02-.02-.04-.03-.06,0,0,0-.01,0-.02,0-.02-.02-.04-.03-.06,0,0,0-.01,0-.02,0-.02-.02-.04-.03-.06,0,0,0-.01,0-.02,0-.02-.02-.04-.03-.06,0,0,0-.01,0-.02,0-.02-.02-.04-.02-.05,0,0,0-.01,0-.02,0-.02-.02-.04-.03-.06,0,0,0-.01,0-.02,0-.02-.02-.04-.03-.06,0,0,0-.01,0-.02,0-.02-.02-.04-.03-.06,0,0,0-.01,0-.02,0-.02-.02-.04-.03-.06,0,0,0-.01,0-.02,0-.02-.02-.04-.02-.05,0,0,0-.01,0-.02,0-.02-.02-.03-.02-.06,0,0,0-.01,0-.02,0-.02-.02-.04-.02-.06,0,0,0-.02-.01-.03,0-.02-.02-.04-.02-.05,0,0,0-.02-.01-.03,0-.01-.01-.03-.02-.05v-.03s-.03-.03-.03-.04c0-.01-.01-.03-.02-.04,0-.01-.01-.03-.02-.04,0-.01-.01-.03-.02-.04,0-.01,0-.02-.02-.04,0-.01-.01-.02-.02-.03,0-.01-.01-.03-.02-.04,0-.01-.01-.03-.02-.04,0,0,0-.01,0-.01-.01-.02-.02-.05-.03-.07h0s-.02-.06-.03-.09h0c-.08-.2-.17-.39-.25-.58h0ZM23.14,188.03l-8.64,4.43c.88,1.72,1.81,3.44,2.77,5.12l8.44-4.81c-.67-1.17-1.31-2.35-1.94-3.54,0,0,0,0,0,0-.01-.02-.02-.05-.04-.07h0s-.02-.05-.04-.07c0,0,0,0,0,0-.01-.02-.03-.05-.04-.07,0,0,0,0,0,0-.01-.02-.03-.05-.04-.07,0,0,0,0,0,0-.01-.02-.02-.05-.04-.07,0,0,0,0,0,0-.01-.02-.02-.04-.03-.07,0,0,0,0,0-.01-.01-.02-.02-.05-.03-.07,0,0,0,0,0,0-.01-.02-.02-.04-.04-.07,0,0,0,0,0,0-.03-.05-.05-.1-.08-.15,0,0,0,0,0,0-.01-.02-.02-.05-.04-.07h0s-.02-.05-.04-.07c0,0,0,0,0,0-.01-.02-.02-.05-.04-.07,0,0,0,0,0,0-.04-.08-.08-.15-.12-.22h0ZM27.35,195.57l-8.31,5.03c1,1.65,2.05,3.31,3.13,4.91l8.08-5.39c-1-1.49-1.96-3.01-2.9-4.55h0ZM32.08,202.79l-7.93,5.6c1.11,1.58,2.28,3.15,3.46,4.68l7.68-5.95c-1.1-1.42-2.17-2.87-3.21-4.34h0ZM37.3,209.66l-7.52,6.15c1.22,1.5,2.49,2.99,3.78,4.43l7.25-6.47s0,0,0,0c-.01-.01-.03-.03-.04-.05,0,0,0-.01-.01-.02-.02-.02-.03-.03-.04-.05,0,0,0,0-.01-.01-.02-.02-.03-.03-.04-.05,0,0,0,0-.01-.01-.02-.02-.03-.04-.05-.05,0,0,0,0,0,0-.02-.02-.03-.03-.05-.05,0,0,0,0,0,0-.02-.02-.03-.04-.05-.06,0,0,0,0,0,0-.02-.02-.03-.04-.05-.05,0,0,0,0,0-.01-.02-.02-.03-.04-.05-.05,0,0,0,0-.01-.01-.02-.02-.03-.04-.05-.05,0,0,0,0,0,0-.02-.02-.03-.04-.05-.06,0,0,0,0,0,0-.02-.02-.03-.04-.05-.06,0,0,0,0,0,0-.02-.02-.03-.04-.05-.06h0s-.03-.05-.05-.06c0,0,0,0,0,0-.02-.02-.03-.04-.05-.06,0,0,0,0,0,0-.02-.02-.03-.04-.05-.05,0,0,0,0,0,0-.02-.02-.03-.04-.05-.06,0,0,0,0,0,0-.02-.02-.03-.04-.05-.06,0,0,0,0,0,0-.02-.02-.03-.04-.05-.06,0,0,0,0,0,0-.02-.02-.03-.04-.05-.06,0,0,0,0,0,0-.02-.02-.03-.04-.05-.06,0,0,0,0,0,0-.02-.02-.03-.04-.05-.06,0,0,0,0,0,0-.02-.02-.03-.04-.05-.06,0,0,0,0,0,0-.04-.04-.07-.08-.1-.12,0,0,0,0,0,0-.01-.02-.03-.04-.05-.06,0,0,0,0,0,0-.01-.02-.03-.04-.05-.06,0,0,0,0,0,0-.01-.02-.03-.04-.05-.06,0,0,0,0,0,0-.02-.02-.03-.04-.05-.06,0,0,0,0,0,0-.02-.02-.03-.04-.05-.06,0,0,0,0,0,0-.02-.02-.03-.03-.05-.06,0,0,0,0,0,0-.01-.02-.03-.04-.05-.05,0,0,0,0,0-.01-.01-.02-.03-.03-.04-.05,0,0,0-.01-.01-.01-.01-.02-.03-.03-.04-.05,0,0,0,0-.01-.01-.01-.02-.03-.03-.04-.05,0,0,0,0-.01-.01-.01-.02-.03-.04-.04-.05,0,0,0,0,0,0-.01-.01-.03-.04-.04-.05,0,0,0,0-.01-.01-.01-.02-.03-.03-.04-.05,0,0,0,0-.01-.01-.01-.02-.03-.03-.04-.05,0,0,0-.01-.01-.02-.01-.02-.03-.03-.04-.05,0,0,0-.01-.01-.02-.01-.02-.03-.03-.04-.05,0,0,0-.01-.01-.02-.01-.01-.02-.03-.04-.04,0,0-.01-.01-.02-.02-.01-.01-.02-.03-.03-.04,0,0-.01-.01-.02-.02,0-.01-.03-.03-.04-.04,0,0-.01-.01-.02-.02-.01-.01-.03-.03-.04-.05,0,0-.01-.02-.02-.02-.01-.01-.02-.03-.04-.04,0,0-.01-.02-.02-.02-.01-.01-.02-.03-.03-.04,0,0-.01-.02-.02-.03,0,0-.02-.02-.03-.03l-.03-.04s-.02-.02-.02-.03c-.01-.01-.02-.02-.03-.04,0,0-.02-.02-.03-.03,0,0-.02-.02-.02-.03,0-.01-.02-.03-.03-.04,0,0-.02-.02-.02-.03,0-.01-.02-.03-.03-.04,0,0-.02-.02-.02-.03,0,0-.01-.02-.02-.02-.01-.01-.02-.03-.04-.04,0,0-.01-.01-.02-.02l-.04-.05s-.01-.01-.02-.02c-.01-.02-.03-.03-.04-.05,0,0,0-.01-.02-.02-.01-.02-.03-.04-.04-.05,0,0,0,0-.01-.01-.03-.03-.06-.07-.08-.1,0,0,0,0,0-.01l-.05-.06s0,0,0,0c-.02-.02-.03-.04-.05-.06h0c-.08-.1-.16-.2-.24-.3h0ZM42.99,216.15l-7.07,6.66c1.32,1.41,2.7,2.8,4.08,4.15l6.78-6.96c-.09-.09-.18-.17-.27-.26h0s-.04-.04-.05-.06c0,0,0,0-.01-.01-.01-.01-.03-.03-.04-.04,0,0-.02-.01-.02-.02,0,0-.02-.02-.03-.03-.01-.01-.03-.03-.04-.04,0,0-.02-.02-.02-.02l-.04-.04s-.01-.01-.02-.02c-.01-.01-.03-.03-.05-.04,0,0,0,0-.01-.01-.02-.02-.03-.03-.05-.05,0,0,0,0,0,0-.02-.02-.03-.03-.05-.05,0,0,0,0,0,0-.02-.02-.04-.04-.05-.05,0,0,0,0,0,0-.02-.02-.03-.03-.05-.05,0,0,0,0,0,0-.02-.02-.04-.04-.06-.05,0,0,0,0,0,0-.02-.02-.04-.04-.06-.06,0,0,0,0,0,0-.44-.43-.87-.88-1.3-1.32h0s-.04-.04-.06-.06h0s-.04-.04-.06-.06c0,0,0,0,0,0-.06-.06-.12-.12-.17-.18,0,0,0,0,0,0-.02-.02-.04-.04-.06-.06,0,0,0,0,0,0-.02-.02-.04-.04-.05-.06,0,0,0,0,0,0-.02-.02-.04-.04-.06-.06,0,0,0,0,0,0-.02-.02-.04-.04-.06-.06,0,0,0,0,0,0-.02-.02-.04-.04-.05-.06,0,0,0,0,0,0-.02-.02-.04-.04-.05-.06,0,0,0,0,0,0-.02-.02-.03-.03-.05-.05,0,0,0,0,0,0-.02-.02-.04-.04-.05-.05,0,0,0,0,0,0-.02-.02-.03-.03-.05-.05,0,0,0,0,0,0-.02-.02-.04-.04-.05-.06,0,0,0,0,0,0-.02-.02-.04-.04-.05-.06,0,0,0,0,0,0-.02-.02-.03-.04-.05-.06,0,0,0,0,0,0-.02-.02-.03-.03-.05-.05,0,0,0,0,0-.01-.02-.02-.03-.04-.05-.05,0,0,0,0,0,0-.02-.02-.03-.03-.05-.05,0,0,0,0,0,0-.02-.02-.04-.04-.05-.05h0s-.04-.04-.05-.06c0,0,0,0,0,0-.02-.02-.03-.04-.05-.06,0,0,0,0,0,0-.02-.02-.03-.03-.05-.05h0s-.04-.05-.05-.06c0,0,0,0,0,0-.02-.02-.03-.04-.05-.06,0,0,0,0,0,0h0ZM49.13,222.23l-6.59,7.14c1.42,1.31,2.89,2.61,4.36,3.85l6.27-7.42c-.28-.23-.56-.47-.83-.71,0,0,0,0,0,0-.02-.02-.04-.03-.06-.05,0,0,0,0,0,0-.02-.02-.04-.03-.06-.05,0,0,0,0,0,0-.02-.02-.04-.03-.06-.05,0,0,0,0-.01,0-.02-.02-.04-.03-.06-.05,0,0,0,0,0,0-.02-.02-.04-.03-.06-.05h0s-.04-.04-.05-.05c0,0,0,0-.01-.01-.02-.02-.03-.03-.05-.04,0,0-.01,0-.02-.01-.02-.02-.03-.03-.05-.04,0,0,0,0-.01-.01-.02-.02-.03-.03-.05-.04,0,0,0,0-.01-.01-.02-.02-.03-.03-.05-.04,0,0,0,0-.01-.01-.01-.01-.03-.03-.05-.04,0,0,0,0-.01-.01-.02-.02-.03-.03-.05-.05,0,0,0,0-.01-.01l-.05-.05s0,0-.01-.01c-.02-.02-.04-.03-.05-.05h-.01s-.04-.04-.05-.06c0,0,0,0-.01,0-.02-.02-.04-.03-.06-.05,0,0,0,0,0,0-.02-.02-.04-.03-.05-.05,0,0,0,0,0,0-.02-.02-.04-.03-.06-.05,0,0,0,0,0,0-.02-.02-.03-.03-.05-.05,0,0,0,0,0,0-.02-.02-.04-.03-.06-.05,0,0,0,0,0,0-.02-.02-.04-.03-.06-.05,0,0,0,0,0,0-.06-.06-.12-.11-.19-.16,0,0,0,0,0,0-.02-.02-.04-.04-.06-.05,0,0,0,0,0,0-.02-.02-.04-.04-.06-.05,0,0,0,0,0,0-.02-.02-.04-.04-.06-.05,0,0,0,0,0,0-.06-.06-.12-.11-.19-.17,0,0,0,0,0,0-.02-.02-.04-.04-.06-.05,0,0,0,0,0,0l-.06-.05s0,0,0,0c-.02-.02-.04-.03-.06-.05,0,0,0,0,0,0-.02-.02-.04-.04-.06-.05,0,0,0,0,0,0-.02-.02-.04-.04-.06-.05,0,0,0,0,0,0-.02-.02-.04-.03-.06-.05,0,0,0,0,0,0-.02-.02-.03-.03-.05-.05,0,0,0,0-.01-.01-.02-.02-.03-.03-.05-.05,0,0,0,0-.01-.01-.01-.01-.03-.03-.05-.04l-.02-.02s-.03-.02-.04-.04l-.03-.02s-.02-.02-.03-.03c-.01-.01-.03-.02-.04-.04,0,0-.01-.01-.02-.02-.02-.02-.04-.04-.06-.05h0c-.17-.16-.34-.32-.52-.48h0ZM55.67,227.86l-6.07,7.58c1.51,1.21,3.06,2.4,4.62,3.54l5.74-7.84c-.37-.27-.74-.54-1.11-.82,0,0,0,0-.01,0l-.06-.04s-.01-.01-.02-.02c-.01-.01-.03-.02-.04-.03,0,0-.02-.01-.03-.02-.01,0-.02-.02-.04-.03-.01,0-.02-.02-.04-.03,0,0-.02-.01-.02-.02-.02-.01-.03-.02-.05-.04,0,0-.01-.01-.02-.02-.02-.01-.03-.02-.05-.04,0,0-.01,0-.02-.01-.02-.01-.04-.03-.05-.04,0,0,0,0-.01-.01-.02-.01-.04-.03-.06-.04,0,0,0,0,0,0-.02-.01-.04-.03-.06-.04,0,0,0,0,0,0-.02-.01-.04-.03-.06-.05,0,0,0,0,0,0-.02-.02-.04-.03-.06-.05,0,0,0,0,0,0-.02-.01-.04-.03-.06-.05,0,0,0,0,0,0-.02-.02-.04-.03-.06-.05h0c-.07-.05-.13-.1-.2-.15,0,0,0,0,0,0-.27-.21-.53-.41-.8-.62,0,0,0,0,0,0-.02-.02-.04-.03-.06-.05,0,0,0,0,0,0-.02-.02-.04-.03-.06-.05h0c-.06-.05-.13-.11-.2-.16,0,0,0,0,0,0-.02-.01-.04-.04-.06-.05,0,0,0,0,0,0-.02-.02-.04-.03-.06-.05,0,0,0,0,0,0-.02-.01-.04-.03-.06-.05,0,0,0,0-.01,0-.02-.01-.04-.03-.06-.04,0,0,0,0-.01,0-.02-.01-.04-.03-.06-.04,0,0,0,0-.01,0-.02-.01-.03-.03-.05-.04,0,0,0,0-.01,0-.02-.01-.03-.03-.05-.04,0,0-.01-.01-.02-.02-.02-.01-.03-.03-.05-.04,0,0-.01-.01-.02-.02-.02-.01-.03-.02-.05-.04,0,0-.02-.01-.02-.02-.01-.01-.03-.02-.05-.04,0,0-.02-.01-.02-.02,0,0-.02-.02-.03-.02-.01-.01-.03-.02-.04-.03,0,0-.02-.01-.02-.02-.02-.01-.03-.03-.05-.04,0,0-.01-.01-.02-.01-.02-.02-.04-.04-.07-.05h0s-.06-.05-.08-.07h0ZM62.59,233.02l-5.53,7.99c1.59,1.1,3.22,2.18,4.86,3.21l5.17-8.22c-.05-.03-.11-.07-.16-.1,0,0-.02-.01-.03-.02-.01,0-.03-.02-.04-.03-.02-.01-.03-.02-.04-.03,0,0-.01,0-.02-.01-.02-.01-.04-.02-.05-.03,0,0,0,0-.01,0-.02-.01-.04-.03-.06-.04,0,0,0,0,0,0-.02-.01-.04-.03-.07-.04,0,0,0,0,0,0-.66-.42-1.32-.85-1.98-1.28,0,0,0,0,0,0-.02-.01-.04-.03-.06-.04h-.01s-.04-.03-.06-.05c0,0,0,0-.01,0-.02-.01-.04-.03-.06-.04,0,0,0,0-.01,0-.02-.01-.04-.03-.06-.04,0,0,0,0-.01,0-.02-.01-.04-.02-.05-.03,0,0-.01,0-.02-.01-.02-.01-.04-.02-.05-.03,0,0-.01,0-.02-.01-.02-.01-.03-.02-.05-.03,0,0-.02-.01-.02-.02-.02-.01-.03-.02-.05-.03,0,0-.02-.01-.02-.02-.01,0-.03-.02-.04-.03-.01,0-.02-.02-.03-.02,0,0-.02-.02-.03-.02-.01,0-.02-.02-.04-.03,0,0-.02-.02-.03-.02-.01,0-.03-.02-.04-.03-.01,0-.02-.01-.03-.02,0,0-.02-.01-.03-.02-.01,0-.03-.02-.04-.03-.01,0-.02-.01-.03-.02-.01,0-.03-.02-.04-.03-.01,0-.02-.02-.03-.02,0,0-.02-.01-.03-.02-.01-.01-.03-.02-.05-.03,0,0-.02-.01-.02-.02-.02-.01-.03-.02-.05-.03,0,0-.02-.01-.03-.02-.01,0-.03-.02-.04-.03-.01,0-.02-.01-.03-.02,0,0-.02-.01-.03-.02-.01,0-.03-.02-.04-.03,0,0-.02-.01-.03-.02-.02-.01-.03-.02-.05-.03,0,0-.02-.01-.03-.02-.01,0-.03-.02-.04-.03-.01,0-.02-.01-.03-.02-.01,0-.03-.02-.04-.03,0,0-.01-.01-.02-.01-.02-.01-.03-.02-.05-.03,0,0-.01,0-.02-.01-.02-.01-.04-.03-.06-.04,0,0,0,0-.01,0-.02-.01-.04-.03-.06-.04,0,0,0,0-.01,0-.02-.02-.04-.03-.06-.04,0,0,0,0,0,0-.07-.05-.14-.1-.21-.14h0ZM69.86,237.68l-4.95,8.36c1.66.99,3.37,1.95,5.08,2.86l4.58-8.57c-.45-.24-.89-.48-1.33-.72,0,0,0,0,0,0-.02-.01-.04-.02-.07-.04,0,0,0,0,0,0-.02-.01-.04-.02-.06-.03,0,0-.01,0-.02,0-.02-.01-.04-.02-.06-.03,0,0-.01,0-.02,0-.02,0-.03-.02-.05-.03l-.03-.02s-.03-.01-.04-.02c-.01,0-.02-.01-.03-.02-.01,0-.03-.02-.04-.02-.01,0-.02-.01-.03-.02-.01,0-.03-.02-.04-.02-.01,0-.02-.01-.03-.02,0,0-.02-.01-.03-.02-.02,0-.03-.02-.05-.03,0,0-.01,0-.02-.01l-.06-.03s0,0-.01,0c-.02-.01-.05-.03-.07-.04h0c-.63-.36-1.26-.71-1.88-1.08,0,0,0,0-.01,0-.02-.01-.04-.02-.06-.04,0,0-.01,0-.02-.01-.02,0-.03-.02-.05-.03-.01,0-.02-.01-.03-.02-.01,0-.02-.01-.03-.02-.01,0-.03-.02-.04-.03,0,0-.02,0-.02-.01-.02-.01-.03-.02-.05-.03,0,0-.01,0-.02-.01-.02-.01-.04-.02-.06-.03,0,0,0,0-.01,0-.02-.01-.04-.03-.06-.04,0,0,0,0,0,0-.07-.04-.14-.08-.22-.13h0ZM77.44,241.81l-4.35,8.69c1.73.87,3.5,1.7,5.27,2.49l3.96-8.87c-.51-.23-1.03-.46-1.54-.7h0s-.05-.02-.07-.04c0,0,0,0,0,0-.02,0-.04-.02-.07-.03,0,0,0,0-.01,0-.02,0-.04-.02-.06-.03,0,0-.01,0-.02-.01-.02,0-.03-.02-.05-.03,0,0-.02,0-.03-.01-.02,0-.03-.02-.05-.02-.01,0-.02,0-.03-.01-.01,0-.02,0-.03-.01-.02,0-.04-.02-.05-.03,0,0-.01,0-.02,0l-.07-.03s0,0,0,0c-.93-.43-1.84-.88-2.76-1.34h0ZM85.29,245.4l-3.72,8.97c1.79.74,3.61,1.45,5.43,2.11l3.32-9.13s-.02,0-.03-.01c0,0-.02,0-.03,0h-.04s-.03-.03-.05-.03c0,0-.02,0-.03,0-.02,0-.04-.01-.06-.02,0,0-.01,0-.02,0-.02,0-.05-.02-.07-.02,0,0,0,0,0,0-1.59-.58-3.15-1.19-4.71-1.84h0ZM93.37,248.43l-3.08,9.21c1.83.61,3.71,1.19,5.57,1.72l2.67-9.34c-1.52-.43-3.02-.89-4.51-1.38,0,0,0,0,0,0-.03,0-.05-.02-.08-.02,0,0,0,0,0,0-.03,0-.05-.02-.08-.02,0,0,0,0,0,0-.03,0-.05-.02-.07-.02,0,0,0,0,0,0-.02,0-.05-.02-.07-.02,0,0,0,0-.01,0-.02,0-.04-.01-.06-.02,0,0-.01,0-.02,0-.02,0-.04-.01-.06-.02,0,0-.02,0-.03,0-.01,0-.03-.01-.05-.02-.01,0-.03,0-.04-.01,0,0-.03,0-.03-.01,0,0-.02,0-.02,0h0ZM101.65,250.87l-2.42,9.41c1.87.48,3.78.93,5.67,1.32l2-9.51c-.91-.19-1.82-.39-2.72-.6,0,0,0,0,0,0-.01,0-.02,0-.03,0,0,0,0,0-.01,0,0,0-.02,0-.02,0,0,0-.01,0-.02,0,0,0-.01,0-.02,0,0,0-.02,0-.03,0,0,0,0,0-.02,0-.01,0-.02,0-.03,0,0,0,0,0-.01,0-.78-.18-1.56-.38-2.34-.58h0ZM110.08,252.72l-1.74,9.56c1.9.35,3.84.66,5.75.92l1.32-9.62s-.05,0-.08-.01c0,0,0,0,0,0-.01,0-.02,0-.04,0,0,0,0,0,0,0-.01,0-.02,0-.03,0,0,0,0,0,0,0-.01,0-.02,0-.03,0,0,0,0,0,0,0-.01,0-.02,0-.04,0,0,0,0,0,0,0-.07,0-.14-.02-.2-.03,0,0,0,0,0,0-.01,0-.02,0-.04,0h0s-.02,0-.03,0c0,0,0,0-.01,0-.01,0-.02,0-.03,0,0,0,0,0-.01,0-.01,0-.02,0-.03,0,0,0,0,0-.01,0-.05,0-.1-.01-.15-.02,0,0,0,0,0,0-.01,0-.02,0-.03,0,0,0,0,0-.01,0,0,0-.02,0-.03,0,0,0,0,0-.01,0,0,0-.02,0-.03,0,0,0,0,0-.01,0-.01,0-.02,0-.03,0,0,0,0,0,0,0-.06,0-.1-.01-.16-.02,0,0,0,0,0,0-.01,0-.02,0-.03,0h-.02s-.02,0-.03,0c0,0-.01,0-.01,0,0,0-.02,0-.03,0,0,0-.01,0-.02,0-.01,0-.02,0-.03,0,0,0-.01,0-.02,0,0,0-.02,0-.02,0,0,0-.02,0-.03,0-.03,0-.06,0-.09-.01,0,0,0,0-.01,0-.01,0-.02,0-.03,0,0,0-.01,0-.02,0,0,0-.02,0-.03,0h-.02s-.02,0-.03,0h-.01s-.02,0-.03,0c0,0,0,0-.01,0-.01,0-.02,0-.03,0,0,0,0,0-.01,0-.04,0-.07-.01-.11-.02,0,0,0,0,0,0-.01,0-.02,0-.03,0,0,0,0,0-.01,0-.01,0-.02,0-.03,0,0,0-.01,0-.02,0,0,0-.02,0-.03,0,0,0-.01,0-.02,0,0,0-.02,0-.03,0,0,0-.01,0-.02,0h-.02s-.02,0-.02,0c0,0-.01,0-.02,0,0,0,0,0-.01,0-.02,0-.03,0-.05,0,0,0-.01,0-.02,0,0,0-.02,0-.02,0,0,0-.01,0-.02,0,0,0-.02,0-.02,0,0,0-.01,0-.02,0,0,0-.02,0-.02,0,0,0-.01,0-.02,0,0,0-.01,0-.02,0,0,0-.02,0-.02,0,0,0-.02,0-.02,0,0,0-.02,0-.03,0h-.02s-.03,0-.04,0c0,0-.01,0-.02,0,0,0-.02,0-.03,0,0,0-.01,0-.02,0,0,0-.02,0-.03,0,0,0-.01,0-.02,0s-.02,0-.02,0-.01,0-.02,0c0,0-.01,0-.02,0,0,0-.02,0-.02,0,0,0-.01,0-.02,0,0,0-.02,0-.02,0,0,0-.01,0-.02,0,0,0-.02,0-.02,0,0,0-.02,0-.03,0-.01,0-.02,0-.04,0,0,0-.01,0-.02,0,0,0-.02,0-.03,0,0,0-.01,0-.02,0-.01,0-.02,0-.03,0,0,0,0,0-.01,0,0,0-.02,0-.03,0,0,0,0,0-.01,0,0,0-.02,0-.03,0,0,0,0,0,0,0-.01,0-.02,0-.03,0,0,0,0,0,0,0-.08-.01-.16-.03-.24-.04,0,0,0,0,0,0-.69-.11-1.38-.23-2.07-.36h0ZM118.63,253.97l-1.07,9.66c1.92.21,3.87.38,5.8.51l.64-9.69c-.67-.04-1.35-.09-2.02-.15,0,0,0,0,0,0-.01,0-.02,0-.04,0,0,0,0,0,0,0,0,0-.03,0-.03,0,0,0,0,0-.01,0-.01,0-.02,0-.03,0,0,0,0,0-.01,0-.01,0-.02,0-.03,0,0,0-.01,0-.01,0-.02,0-.03,0-.05,0,0,0-.01,0-.02,0,0,0-.02,0-.02,0,0,0-.02,0-.03,0,0,0-.01,0-.02,0-.01,0-.02,0-.03,0,0,0,0,0-.02,0-.01,0-.02,0-.03,0,0,0,0,0-.01,0-.01,0-.03,0-.04,0h0c-.97-.08-1.94-.18-2.9-.29h0ZM127.23,254.61l-.39,9.71c1.78.07,3.58.11,5.37.11h.45s-.03-9.71-.03-9.71c-.05,0-.09,0-.14,0,0,0-.02,0-.03,0h0c-.08,0-.16,0-.24,0h-.09s-.05,0-.07,0h-.01s-.04,0-.06,0h-.01s-.04,0-.07,0h-.02s-.04,0-.06,0h0s-.05,0-.07,0h-.02s-.05,0-.07,0h0s-.04,0-.07,0c0,0-.01,0-.02,0-.02,0-.04,0-.07,0h0s-.04,0-.07,0h0s-.05,0-.07,0h0s-.05,0-.07,0h0s-.05,0-.07,0c0,0,0,0,0,0-.05,0-.1,0-.15,0h0s-.05,0-.07,0h0c-.05,0-.1,0-.15,0h0c-1.09-.01-2.18-.04-3.26-.08,0,0,0,0,0,0-.02,0-.05,0-.08,0,0,0,0,0,0,0-.02,0-.05,0-.07,0,0,0,0,0,0,0-.02,0-.05,0-.07,0,0,0,0,0-.01,0-.02,0-.04,0-.06,0,0,0,0,0,0,0h0ZM141.26,254.38c-1.79.13-3.58.22-5.39.28l.28,9.71c1.93-.06,3.89-.16,5.81-.3l-.71-9.69h0ZM149.84,253.45c-.19.03-.37.05-.56.08,0,0-.02,0-.03,0,0,0,0,0-.01,0-.01,0-.02,0-.03,0h0s-.03,0-.04,0h0c-1.55.21-3.1.4-4.67.56l.96,9.67c1.92-.19,3.87-.43,5.78-.7l-1.39-9.61h0ZM158.34,251.92c-1.5.33-3.02.63-4.55.9,0,0,0,0,0,0-.05,0-.1.02-.14.03,0,0-.02,0-.03,0,0,0-.01,0-.02,0,0,0-.02,0-.03,0,0,0-.01,0-.02,0-.01,0-.02,0-.03,0,0,0,0,0-.01,0-.01,0-.03,0-.04,0h0c-.14.03-.29.05-.43.08l1.64,9.57c1.91-.33,3.83-.7,5.72-1.11l-2.06-9.49h0ZM166.7,249.79c-.25.07-.51.15-.77.22,0,0,0,0-.01,0-.02,0-.05.01-.07.02,0,0-.01,0-.02,0-.01,0-.03,0-.04.01-.02,0-.03,0-.05.01-.01,0-.02,0-.03,0-.02,0-.02,0-.04.01-.01,0-.03,0-.04.01-.02,0-.03,0-.04.01-.01,0-.02,0-.03,0-.02,0-.04,0-.05.01,0,0-.02,0-.02,0-.02,0-.04.01-.06.02h-.02s-.04.02-.06.02c0,0-.01,0-.02,0-.02,0-.04.01-.07.02,0,0,0,0-.01,0-.02,0-.04.01-.07.02,0,0,0,0,0,0-.02,0-.05.01-.07.02,0,0,0,0-.01,0-.02,0-.05.01-.07.02,0,0,0,0,0,0-.03,0-.05.01-.08.02,0,0,0,0,0,0-.05.01-.1.03-.16.04,0,0,0,0,0,0-.03,0-.05.01-.08.02,0,0,0,0,0,0-.03,0-.05.01-.08.02,0,0,0,0,0,0-.35.1-.7.19-1.06.28,0,0,0,0,0,0-.03,0-.05.01-.08.02,0,0,0,0,0,0-.08.02-.16.04-.24.06,0,0,0,0,0,0-.02,0-.05.01-.08.02,0,0,0,0,0,0-.03,0-.05.01-.08.02,0,0,0,0,0,0-.05.01-.11.03-.16.04,0,0,0,0,0,0-.03,0-.05.01-.08.02,0,0,0,0,0,0-.02,0-.05.01-.07.02,0,0,0,0-.01,0-.02,0-.05.01-.07.02,0,0,0,0,0,0-.02,0-.05.01-.08.02,0,0,0,0,0,0-.02,0-.05.01-.07.02,0,0,0,0-.01,0-.02,0-.05.01-.07.02,0,0,0,0-.01,0-.02,0-.05.01-.07.02,0,0-.01,0-.01,0-.02,0-.04.01-.07.02,0,0,0,0-.01,0-.02,0-.04.01-.06.02h-.02s-.04.02-.07.02c0,0-.01,0-.02,0-.02,0-.04.01-.07.02,0,0-.01,0-.02,0-.02,0-.04.01-.07.02,0,0-.01,0-.02,0-.02,0-.04,0-.06.01,0,0-.01,0-.02,0-.02,0-.04,0-.06.02,0,0-.01,0-.02,0-.02,0-.04.01-.06.02,0,0-.01,0-.02,0-.02,0-.04.01-.06.02,0,0-.01,0-.02,0-.02,0-.04,0-.06.01,0,0,0,0,0,0l2.31,9.43c1.88-.46,3.77-.97,5.63-1.51l-2.73-9.32h0ZM174.9,247.07c-1.68.63-3.38,1.22-5.1,1.77l2.98,9.25c1.84-.59,3.69-1.23,5.51-1.91l-3.38-9.1h0ZM182.88,243.78c-1.63.74-3.29,1.45-4.96,2.12l3.63,9.01c1.79-.72,3.6-1.49,5.36-2.29l-4.02-8.84h0ZM190.6,239.93c-1.4.76-2.83,1.5-4.26,2.21,0,0,0,0,0,0-.02.01-.04.02-.06.03,0,0-.01,0-.02,0-.02.01-.04.02-.06.03,0,0-.02,0-.02.01-.01,0-.03.02-.05.02-.01,0-.03.01-.04.02-.01,0-.02,0-.03.01-.02,0-.04.02-.05.03,0,0-.01,0-.02,0-.06.03-.12.06-.18.09l4.25,8.73c1.74-.85,3.48-1.74,5.18-2.67l-4.64-8.54h0ZM198.04,235.54s0,0,0,0c-.05.03-.09.06-.14.09,0,0,0,0,0,0-.02.01-.04.03-.07.04h0s-.04.03-.06.05c0,0,0,0,0,0-.02.01-.04.03-.06.04,0,0,0,0,0,0-.02.01-.04.03-.07.04,0,0,0,0,0,0-.05.03-.09.06-.14.09h0s-.04.03-.06.04c0,0,0,0-.01,0-.02.01-.04.03-.06.04,0,0,0,0-.01,0-.02.01-.04.02-.06.04,0,0,0,0,0,0-.02.01-.04.03-.06.04h0s-.04.03-.06.04c0,0,0,0,0,0-.02.01-.04.03-.06.04,0,0,0,0-.01,0-.02.01-.04.02-.06.04h-.01s-.04.03-.06.04h-.02s-.04.04-.06.05h-.02s-.04.03-.05.04c0,0-.01,0-.02.01-.02.01-.03.02-.05.03,0,0,0,0-.01,0-.02.01-.04.02-.06.03,0,0-.01,0-.02.01-.02.01-.04.02-.05.03,0,0-.01,0-.02.01-.02.01-.03.02-.05.03,0,0-.01,0-.02.01-.02.01-.04.02-.05.03,0,0-.01,0-.02.01-.02.01-.03.02-.05.03,0,0-.02.01-.03.02-.02.01-.03.02-.04.03,0,0-.01,0-.02.01-.02.01-.03.02-.05.03,0,0-.02,0-.02.01-.02.01-.03.02-.05.03,0,0-.02,0-.02.01-.02.01-.03.02-.05.03,0,0-.02.01-.03.02-.01,0-.03.02-.04.02-.01,0-.02.01-.04.02-.01,0-.02.01-.03.02-.01,0-.02.02-.04.02-.01,0-.03.02-.04.02-.01,0-.02.01-.03.02-.01,0-.03.02-.04.03l-.03.02s-.03.02-.05.03c0,0-.02.01-.03.02-.02.01-.03.02-.05.03,0,0-.02.01-.03.02-.01,0-.02.01-.04.02-.01,0-.02.01-.04.02-.01,0-.02.01-.03.02-.01,0-.02.02-.04.02-.01,0-.03.02-.04.02,0,0-.02.01-.03.02-.02,0-.03.02-.05.03,0,0-.02.01-.03.02-.01,0-.03.02-.05.03,0,0-.02.01-.03.02-.01,0-.02.01-.04.02-.01,0-.03.02-.04.02,0,0-.03.02-.03.02-.01,0-.02.01-.04.02-.01,0-.02.01-.04.02-.01,0-.03.02-.04.02-.01,0-.02.01-.03.02,0,0-.02.01-.03.02-.02,0-.03.02-.05.03-.01,0-.02.01-.03.02-.01,0-.03.02-.05.03,0,0-.02.01-.03.02-.01,0-.03.02-.04.03-.01,0-.02.01-.03.02-.01,0-.03.02-.04.02-.01,0-.02.01-.03.02-.01,0-.03.02-.04.02-.01,0-.02.01-.03.02-.01,0-.03.02-.04.03,0,0-.02,0-.02.01-.02,0-.04.02-.05.03,0,0-.01,0-.02.01-.02,0-.04.02-.05.03h-.02s-.04.03-.05.04h-.02s-.03.03-.05.04c0,0,0,0-.01,0-.02.01-.04.02-.06.03,0,0,0,0-.01,0-.02.01-.04.02-.06.03,0,0-.01,0-.02,0-.02.01-.04.02-.06.03,0,0,0,0-.01,0-.02.01-.04.02-.06.04,0,0,0,0,0,0-.02.01-.05.03-.07.04,0,0,0,0,0,0-.05.03-.09.05-.14.08,0,0,0,0,0,0-.1.06-.19.11-.29.17l4.86,8.41c1.67-.97,3.35-1.98,4.98-3.03l-5.23-8.19h0ZM205.15,230.65c-1.44,1.07-2.91,2.11-4.4,3.12l5.44,8.05c1.6-1.08,3.2-2.21,4.75-3.37l-5.79-7.8h0ZM211.89,225.26h0s-.04.03-.05.05h-.01s-.04.04-.05.05c0,0-.01.01-.02.02-.02.01-.03.03-.05.04,0,0-.01.01-.02.02-.01.01-.03.02-.04.04,0,0-.02.01-.02.02-.01.01-.02.02-.04.03,0,0-.02.02-.03.03-.01,0-.02.02-.03.03l-.04.03s-.02.01-.02.02c-.02.01-.03.03-.05.04,0,0-.01.01-.02.02-.02.02-.04.03-.06.05,0,0,0,0,0,0-.01,0-.02.02-.03.03,0,0,0,0,0,0-.02.02-.04.04-.06.05h0s-.04.04-.06.06h0s-.04.04-.07.06h0c-.8.67-1.6,1.33-2.42,1.98h0c-.06.05-.12.09-.18.14,0,0-.01,0-.02.01-.02.01-.03.03-.05.04,0,0-.01.01-.02.02-.02.01-.03.02-.04.04,0,0-.02.01-.02.02-.01.01-.03.02-.04.03,0,0-.02.02-.03.02,0,0-.02.01-.03.02-.01.01-.03.02-.04.03,0,0-.02.01-.02.02-.02.01-.03.02-.05.04,0,0-.01.01-.02.02-.02.01-.03.03-.05.04,0,0-.01,0-.01.01-.02.01-.03.03-.05.04,0,0,0,0-.01,0-.02.01-.04.03-.05.04,0,0,0,0,0,0-.02.01-.04.03-.06.05h0s-.04.04-.06.05c0,0,0,0,0,0-.02.02-.04.03-.06.05,0,0,0,0,0,0l5.99,7.65c1.52-1.19,3.04-2.43,4.5-3.69l-6.32-7.38h0ZM218.25,219.42c-.33.32-.65.64-.98.96,0,0-.01.01-.01.01-.02.02-.03.03-.05.04,0,0-.01.01-.02.02-.01.01-.03.03-.04.04,0,0-.02.02-.02.02-.01.01-.02.02-.03.03-.01.01-.02.02-.03.03,0,0-.01.01-.02.02-.01.01-.03.03-.04.04,0,0-.01.01-.02.02-.02.02-.03.03-.04.04,0,0-.01.01-.02.02-.01.01-.03.03-.05.05,0,0,0,0,0,0-.02.02-.04.04-.05.05,0,0,0,0,0,0-.04.04-.08.08-.12.11,0,0,0,0,0,0-.02.02-.04.04-.06.06h0s-.04.04-.06.06c0,0,0,0,0,0-.49.46-.98.92-1.48,1.38,0,0,0,0,0,0-.02.02-.04.04-.06.06,0,0,0,0,0,0-.02.02-.04.04-.06.05,0,0,0,0,0,0-.02.02-.03.03-.05.05,0,0,0,0-.01.01-.01.01-.03.03-.04.04,0,0-.01.01-.02.02-.01.01-.03.02-.04.04,0,0-.02.01-.02.02-.01.01-.03.02-.04.03-.01,0-.02.02-.03.03,0,0,0,0,0,0-.12.11-.23.21-.35.32l6.51,7.21c1.43-1.3,2.86-2.64,4.23-4l-6.82-6.91h0ZM224.18,213.14c-1.19,1.35-2.41,2.67-3.65,3.97l7,6.73c1.34-1.39,2.67-2.83,3.94-4.28l-7.29-6.42h0ZM229.65,206.47s-.02.02-.02.03h0s-.03.04-.05.07c0,0,0,0,0,.01-.01.02-.03.03-.04.05,0,0-.01.02-.02.03,0,0-.01.02-.02.03-.01.02-.02.03-.03.04,0,0-.01.02-.02.03-.01.02-.02.03-.04.05,0,0-.01.01-.02.02-.01.02-.03.03-.04.05,0,0,0,.01-.01.02-.01.02-.02.03-.04.05,0,0,0,0-.01.01-.01.02-.03.04-.04.05,0,0,0,0,0,.01-.01.02-.03.04-.04.06,0,0,0,0,0,0-.02.02-.03.04-.05.06h0s-.03.05-.05.07c0,0,0,0,0,0-.91,1.18-1.85,2.34-2.8,3.48l7.46,6.23c1.24-1.48,2.46-3.01,3.63-4.55l-7.72-5.89h0ZM234.65,199.43c-.12.19-.25.38-.37.56,0,0,0,0,0,0-.01.02-.03.05-.04.07,0,0,0,0,0,0-.01.02-.03.04-.04.06,0,0,0,.01-.01.02-.01.02-.02.03-.03.05,0,0-.01.02-.01.02-.01.02-.02.03-.03.05,0,.01-.01.02-.02.03,0,.01-.02.03-.03.04,0,.01-.02.02-.02.04,0,0,0,0,0,.01-.01.02-.03.04-.05.07h0c-.62.93-1.26,1.85-1.91,2.77,0,0,0,.01,0,.01-.01.02-.03.04-.04.05,0,0-.01.02-.02.03,0,.01-.02.03-.03.04,0,0-.02.03-.03.04,0,0-.01.02-.02.02-.01.02-.03.04-.04.05,0,0,0,0,0,.01-.01.02-.03.04-.04.06,0,0,0,0,0,0-.02.02-.03.04-.05.06,0,0,0,0,0,0-.06.09-.13.18-.2.27l7.87,5.69c1.13-1.57,2.24-3.18,3.31-4.79l-8.12-5.34h0ZM239.13,192.05c-.48.86-.97,1.71-1.47,2.56,0,0,0,0,0,0-.01.02-.03.05-.04.07,0,0,0,0,0,0-.01.02-.03.04-.04.07,0,0,0,0,0,0-.01.02-.02.04-.04.06,0,0,0,0,0,.01-.01.02-.02.04-.03.06,0,0,0,.01,0,.02-.01.02-.02.04-.03.05,0,0,0,.02-.01.02,0,.02-.02.03-.03.05,0,0-.01.02-.02.03,0,.02-.02.03-.03.05,0,0-.01.02-.02.03,0,0-.01.02-.02.03,0,.02-.02.03-.03.05,0,0,0,.01-.01.02-.01.02-.02.04-.04.06,0,0,0,0,0,.01-.28.47-.56.93-.85,1.39l8.25,5.12c1.02-1.64,2.02-3.33,2.96-5.02l-8.47-4.75h0ZM243.08,184.38c-.31.65-.62,1.3-.94,1.95h0c-.03.07-.07.14-.1.21,0,0,0,0,0,0-.01.02-.02.05-.03.07,0,0,0,0,0,.02-.01.02-.02.04-.03.06,0,0,0,.01-.01.02-.01.02-.02.04-.03.06,0,0,0,.01,0,.02,0,.01-.01.03-.02.04,0,.01-.01.02-.02.04,0,.01-.01.03-.02.04,0,.01,0,.02-.01.03,0,.02-.02.03-.02.05,0,.01,0,.02-.01.03l-.02.05s0,.02-.01.03l-.02.05s-.01.02-.02.03c0,.01-.01.02-.02.03,0,.02-.02.03-.02.05,0,0,0,.02-.01.03,0,.02-.02.03-.03.05,0,0,0,.02-.01.03,0,.01-.02.03-.02.04,0,.01-.01.02-.02.03,0,.01-.01.03-.02.04,0,0,0,.02-.01.03,0,.02-.02.03-.03.05,0,0,0,.01-.01.02,0,.02-.02.04-.03.06,0,0,0,.01-.01.02-.01.02-.02.04-.03.06,0,0,0,.01-.01.02,0,.02-.02.04-.03.06,0,0,0,.01,0,.02,0,.02-.02.04-.03.06,0,0,0,0,0,.01,0,.02-.02.04-.03.06,0,0,0,0,0,.01-.01.02-.02.04-.03.06,0,0,0,0,0,.01-.01.02-.02.04-.03.06,0,0,0,0,0,.01-.01.02-.02.04-.03.06,0,0,0,0,0,0-.01.02-.02.05-.04.07,0,0,0,0,0,0-.01.02-.02.05-.04.07,0,0,0,0,0,0-.01.02-.02.05-.04.07,0,0,0,0,0,0-.01.02-.02.05-.04.07,0,0,0,0,0,0-.01.02-.02.05-.04.07,0,0,0,0,0,0-.12.22-.23.45-.35.67l8.6,4.53c.9-1.71,1.78-3.46,2.6-5.21l-8.79-4.14h0ZM246.49,176.44c-.03.08-.06.16-.09.24,0,0,0,0,0,0,0,.03-.02.05-.03.08h0c-.03.08-.06.16-.09.23,0,0,0,0,0,0-.01.03-.02.04-.03.07,0,0,0,0,0,.01,0,.02-.02.05-.03.07,0,0,0,0,0,.01-.01.03-.02.04-.03.07,0,0,0,0,0,.01,0,.02-.02.05-.03.07,0,0,0,0,0,0,0,.02-.02.04-.03.06,0,0,0,0,0,.01,0,.02-.02.04-.03.06,0,0,0,.01,0,.02,0,.02-.02.04-.02.06,0,0,0,.01,0,.02,0,.02-.02.04-.02.06,0,0,0,.01,0,.02,0,.02-.01.04-.02.06,0,0,0,.02,0,.02,0,.01-.02.04-.02.05,0,0,0,.01,0,.02,0,.02-.02.04-.02.06,0,0,0,.01,0,.02,0,.02-.02.04-.02.06,0,0,0,.01,0,.02,0,.02-.02.04-.02.06,0,0,0,.01,0,.02,0,.02-.02.04-.02.06,0,0,0,.01,0,.02,0,.02-.02.04-.02.06h0s-.02.06-.03.08c0,0,0,.01,0,.02,0,.02-.02.04-.02.06,0,0,0,.01,0,.02,0,.02-.02.04-.02.06,0,0,0,.01,0,.02,0,.02-.02.04-.03.06,0,0,0,0,0,.01,0,.02-.02.04-.03.06,0,0,0,0,0,0,0,.02-.02.05-.03.07,0,0,0,.01,0,.02,0,.02-.02.04-.03.06,0,0,0,0,0,.01,0,.02-.02.04-.03.07,0,0,0,0,0,.01,0,.02-.02.05-.03.07h0s-.02.05-.03.08c0,0,0,0,0,0-.01.03-.02.05-.03.07,0,0,0,0,0,0-.01.03-.02.05-.03.07,0,0,0,0,0,0,0,.02-.02.05-.03.07,0,0,0,0,0,0-.01.03-.02.05-.03.07,0,0,0,0,0,0-.3.72-.61,1.45-.93,2.17l8.89,3.91c.78-1.77,1.53-3.58,2.22-5.39l-9.06-3.51h0ZM249.32,168.29s0,.03-.01.04h0s-.01.05-.02.08c0,0,0,.02,0,.02,0,.01,0,.02-.01.04,0,.02-.01.03-.02.05,0,0,0,.02,0,.03,0,.02-.01.04-.02.06,0,0,0,.01,0,.02,0,.02-.01.05-.02.07,0,0,0,0,0,0,0,.02-.02.05-.02.07,0,0,0,0,0,0,0,.02-.02.05-.02.08,0,0,0,0,0,0,0,.03-.02.05-.02.08,0,0,0,0,0,0-.29.91-.58,1.82-.89,2.72,0,0,0,0,0,0,0,.03-.02.05-.03.08,0,0,0,0,0,0-.02.05-.04.11-.05.16,0,0,0,0,0,0,0,.03-.02.05-.03.07,0,0,0,0,0,0,0,.02-.02.05-.02.07,0,0,0,0,0,0,0,.03-.02.05-.02.07h0s-.02.06-.03.08c0,0,0,0,0,0,0,.03-.02.05-.03.07,0,0,0,0,0,0,0,.02-.02.05-.02.07,0,0,0,0,0,.01,0,.02-.02.04-.02.07,0,0,0,.01,0,.02,0,.03-.01.04-.02.07,0,0,0,0,0,.01,0,.02-.02.05-.02.07,0,0,0,0,0,0,0,.03-.01.04-.02.07,0,0,0,0,0,.01,0,.02-.02.05-.02.07,0,0,0,0,0,.01,0,.02-.02.05-.02.07,0,0,0,0,0,.01,0,.03-.02.04-.02.07,0,0,0,0,0,0-.02.05-.03.1-.05.15,0,0,0,0,0,0,0,.03-.02.05-.03.07,0,0,0,0,0,0,0,.02-.02.05-.03.07,0,0,0,0,0,0-.02.05-.04.1-.06.16l9.15,3.27c.65-1.82,1.27-3.68,1.84-5.53l-9.28-2.86h0ZM251.56,159.95c-.29,1.27-.61,2.53-.94,3.79,0,0,0,.01,0,.02,0,.02-.01.04-.02.06,0,.01,0,.02,0,.03,0,.02,0,.03-.01.05,0,.02,0,.03-.01.04,0,0,0,.02,0,.03,0,.02-.01.04-.02.06,0,0,0,.01,0,.02,0,.02-.01.05-.02.07,0,0,0,0,0,.01-.09.35-.19.7-.29,1.05l9.36,2.61c.52-1.86,1-3.76,1.44-5.65l-9.46-2.19h0ZM253.21,151.48c-.28,1.78-.6,3.55-.96,5.31l9.52,1.94c.39-1.89.73-3.82,1.04-5.73l-9.59-1.52h0ZM254.25,142.91c-.08.91-.17,1.83-.27,2.73,0,0,0,0,0,0,0,.01,0,.02,0,.04,0,0,0,0,0,0,0,.01,0,.02,0,.04,0,0,0,0,0,0,0,.01,0,.02,0,.04,0,0,0,0,0,0,0,.05-.01.1-.02.15,0,0,0,0,0,.01,0,.01,0,.02,0,.03,0,0,0,.01,0,.02,0,0,0,.02,0,.03,0,0,0,.01,0,.02,0,0,0,.02,0,.03,0,0,0,.01,0,.02,0,.01,0,.02,0,.03,0,0,0,.01,0,.02,0,0,0,.02,0,.03h0s0,.05,0,.07c0,0,0,0,0,.01,0,0,0,.02,0,.03,0,0,0,.01,0,.02,0,.01,0,.02,0,.03,0,0,0,.01,0,.02,0,0,0,.02,0,.03,0,0,0,0,0,.01,0,0,0,.02,0,.03,0,0,0,.01,0,.02,0,.01,0,.02,0,.03,0,0,0,.01,0,.02,0,.04,0,.07-.01.11,0,0,0,0,0,0,0,.01,0,.02,0,.03,0,0,0,0,0,.01,0,.01,0,.02,0,.03,0,0,0,0,0,0,0,0,0,.03,0,.03,0,0,0,0,0,0,0,.01,0,.02,0,.03,0,0,0,0,0,0,0,.07-.02.14-.02.2h0c-.05.44-.11.89-.17,1.33l9.63,1.26c.25-1.91.46-3.86.63-5.79l-9.68-.84h0ZM254.7,134.29c0,.36-.01.73-.02,1.09h0c0,.05,0,.1,0,.15,0,0,0,0,0,.01,0,.01,0,.02,0,.03,0,0,0,0,0,.02v.03s0,0,0,.02c0,0,0,.02,0,.03,0,0,0,.01,0,.02,0,0,0,.02,0,.02,0,0,0,.02,0,.02h0s0,.05,0,.08c0,0,0,0,0,0,0,.01,0,.02,0,.04,0,0,0,0,0,0,0,.01,0,.02,0,.04,0,0,0,0,0,0,0,.01,0,.02,0,.04h0c-.04,1.25-.09,2.5-.17,3.74l9.7.58c.12-1.92.19-3.88.22-5.81l-9.71-.16h0ZM264.24,125.14l-9.7.51c.03.59.06,1.18.08,1.77,0,0,0,0,0,0,0,.01,0,.02,0,.03,0,0,0,0,0,.02,0,.01,0,.02,0,.03,0,0,0,0,0,.02,0,0,0,.02,0,.03,0,0,0,.02,0,.02,0,0,0,.02,0,.02,0,.02,0,.03,0,.05,0,0,0,.01,0,.02,0,.01,0,.02,0,.03,0,0,0,0,0,.01,0,.01,0,.02,0,.03,0,0,0,0,0,.01,0,0,0,.03,0,.03,0,0,0,0,0,0,0,.01,0,.03,0,.04h0c.02.64.04,1.29.05,1.93,0,0,0,0,0,0,0,.01,0,.02,0,.03,0,0,0,0,0,.01,0,0,0,.02,0,.03,0,0,0,.01,0,.02,0,0,0,.02,0,.02,0,.01,0,.02,0,.03,0,0,0,.01,0,.01,0,.37.01.73.02,1.1l9.71-.09c-.02-1.93-.08-3.89-.18-5.81h0ZM263.43,115.86l-9.64,1.19s0,.02,0,.03c0,0,0,0,0,.01.22,1.76.4,3.54.54,5.33l9.68-.77c-.15-1.93-.35-3.88-.59-5.79h0ZM261.96,106.66l-9.53,1.87c.26,1.32.5,2.65.71,3.98h0s0,.03,0,.03c0,0,0,0,0,.01,0,.01,0,.02,0,.03,0,0,0,.01,0,.02,0,0,0,.02,0,.02,0,0,0,.02,0,.02,0,0,0,0,0,.02,0,.01,0,.02,0,.03,0,0,0,.01,0,.02,0,.01,0,.02,0,.03,0,0,0,0,0,.01.06.36.11.73.17,1.09l9.61-1.44c-.29-1.91-.62-3.84-.99-5.74h0ZM259.84,97.58l-9.38,2.54c.08.3.16.6.24.89,0,0,0,0,0,0,0,.03.02.06.02.09,0,0,0,.02,0,.03,0,0,0,.01,0,.02v.03s0,0,.01.01c0,.01,0,.02,0,.03,0,0,0,0,0,.01,0,.01,0,.02,0,.04h0s0,.03.01.05h0c.24.92.47,1.84.68,2.76h0s0,.03,0,.04c0,0,0,.02,0,.02,0,0,0,.01,0,.02,0,0,0,.02,0,.03,0,0,0,.01,0,.02,0,0,0,.02,0,.03,0,0,0,0,0,.01,0,.01,0,.02,0,.03,0,0,0,0,0,0,.08.35.16.71.24,1.07l9.48-2.12c-.42-1.89-.89-3.79-1.4-5.66h0ZM257.09,88.67l-9.17,3.2c.04.11.07.21.11.32,0,0,0,0,0,0,0,.03.02.05.03.07,0,0,0,0,0,.01,0,.02.01.04.02.06,0,0,0,.01,0,.02,0,.02.01.03.02.05,0,.01,0,.03.01.04,0,.01,0,.02.01.04.42,1.24.83,2.49,1.22,3.75h0s.02.06.02.08c0,0,0,.01,0,.01,0,.02.01.04.02.06,0,0,0,.02,0,.03,0,.01,0,.02.01.04,0,.02.01.04.02.05,0,.01,0,.02,0,.03,0,.02.01.03.01.05,0,.01,0,.02,0,.03,0,.02.01.04.02.05,0,0,0,.01,0,.02,0,.02.01.04.02.06,0,0,0,0,0,.01,0,.03.01.04.02.07,0,0,0,0,0,.01,0,.03.01.05.02.07,0,0,0,0,0,0,0,.03.02.05.02.08l9.31-2.79c-.55-1.85-1.16-3.72-1.8-5.54h0ZM253.71,79.99l-8.92,3.84c.14.32.27.64.41.96,0,0,0,0,0,.01,0,.02.02.04.03.07,0,0,0,.01,0,.02,0,.02.02.04.02.06,0,.01,0,.01.01.02,0,.02.01.03.02.05,0,.01.01.03.02.04,0,.01,0,.02.01.03,0,.01.01.03.02.05,0,0,0,.02.01.03,0,.01.01.03.02.05,0,.01,0,.02.01.03,0,.01.01.03.02.04,0,0,0,.02.01.03,0,.01.02.04.02.05,0,0,0,.02,0,.02,0,.02.02.04.02.06,0,0,0,.02,0,.02,0,.02.02.04.02.06,0,0,0,.01,0,.02,0,.02.02.04.02.06,0,0,0,.01,0,.02,0,.01.02.04.02.05,0,0,0,.02,0,.02,0,.02.02.04.02.06,0,0,0,.01,0,.02,0,.02.02.04.02.06v.02s.02.04.03.06c0,0,0,.01,0,.02,0,.02.02.04.02.06,0,0,0,.01,0,.02,0,.02.01.03.02.05,0,0,0,.01,0,.02,0,.02.01.04.02.05,0,0,0,.02,0,.02,0,.02.02.04.02.06v.02s.02.04.03.06v.03s.02.03.03.05c0,0,0,.02.01.03,0,.01.01.03.02.04,0,.01,0,.02.01.04,0,.01.01.03.02.04,0,0,0,.02.01.03,0,.02.01.03.02.05,0,.01,0,.02.01.03,0,.01.01.04.02.05,0,.01,0,.02.01.03,0,.01,0,.02.01.04,0,.02.01.03.02.05,0,.01,0,.02.01.03,0,.02.01.04.02.05,0,0,0,.02.01.03,0,.02.02.04.02.06,0,0,0,.02,0,.02,0,.02.01.04.02.06,0,0,0,.02.01.03,0,.01.01.03.02.04,0,0,0,.02,0,.02,0,.02.02.04.03.06,0,0,0,0,0,.02,0,.02.02.05.03.07,0,0,0,0,0,.01.01.03.02.05.03.08h0c.19.48.38.96.56,1.45l9.08-3.44c-.68-1.81-1.42-3.63-2.18-5.4h0ZM249.72,71.56l-8.63,4.46c.82,1.6,1.62,3.21,2.37,4.85l8.82-4.08c-.81-1.75-1.67-3.52-2.56-5.23h0ZM245.15,63.44l-8.29,5.06c.1.17.2.33.3.5,0,0,0,0,0,0,.01.02.03.04.04.06,0,0,0,0,0,.01.01.02.02.04.03.06,0,0,0,.01.01.02.01.02.02.04.03.06,0,0,0,.01.01.02.01.02.02.04.03.05,0,0,0,.01.01.02,0,.01.02.03.03.04,0,.01.01.02.02.03,0,0,.02.03.02.04,0,.01.02.02.02.04,0,.01.01.02.02.04,0,.01.01.02.02.03,0,.01.02.03.03.04,0,.01.01.02.02.03,0,.01.01.02.02.03,0,.02.02.03.03.05,0,0,0,.01.01.02.01.02.02.04.03.06,0,0,0,.01.01.02.01.02.02.04.04.06,0,0,0,0,0,.02.01.02.03.04.04.06,0,0,0,0,0,.01.02.04.05.08.07.12,0,0,0,0,0,.01.01.02.03.05.04.07,0,0,0,0,0,0,.01.02.03.05.04.07h0s.03.06.04.08h0c.05.1.11.19.16.28h0s.03.05.04.08h0c.05.1.11.19.16.28h0s.03.05.04.08h0s.03.05.04.08h0c.05.1.11.19.16.28h0s.03.05.04.08h0s.03.05.04.08c0,0,0,0,0,0,.01.03.03.05.04.08h0s.05.08.07.12c0,0,0,0,0,0,.01.02.03.05.04.07,0,0,0,0,0,.01.01.02.02.04.04.06,0,0,0,0,0,.02.01.02.03.04.04.07,0,0,0,0,0,0,.01.03.03.05.04.08h0s.04.08.07.12c0,0,0,0,0,.01.01.02.03.04.04.07,0,0,0,0,0,.01.01.02.02.04.04.07,0,0,0,0,0,.01.01.02.02.04.04.06,0,0,0,0,0,.01.02.04.04.08.07.12,0,0,0,0,0,.01.01.02.03.05.04.07,0,0,0,0,0,.01l.04.07s0,0,0,.01l.04.07h0c.05.1.1.19.16.29h0s.04.08.06.12l8.51-4.69c-.93-1.69-1.92-3.39-2.92-5.04h0ZM240.02,55.66l-7.92,5.63c.13.18.26.36.39.55,0,0,0,0,0,0,.06.09.13.18.19.27,0,0,0,0,0,0,.02.02.03.04.04.06,0,0,0,0,0,0,.01.02.03.04.04.06,0,0,0,0,0,.01.02.02.03.04.04.06,0,0,0,0,0,.01.01.02.03.04.04.06,0,0,0,0,.01.01.01.02.02.04.04.05,0,0,0,0,0,.01.01.02.02.04.04.05,0,0,0,.01.01.02.01.02.03.04.04.05,0,0,0,.01.01.02.01.02.02.03.03.05,0,0,.01.02.02.02.01.02.02.03.03.05,0,0,.01.02.02.02,0,.01.02.02.03.04,0,.01.02.02.02.04,0,.01.01.02.02.03.01.01.02.03.03.04,0,0,.01.02.02.02.01.02.02.03.03.05,0,0,.01.02.02.02,0,.01.02.02.02.03,0,0,0,.01.01.02.01.02.02.04.04.05,0,0,0,.01.01.02.01.02.03.04.04.06,0,0,0,0,0,0,.02.02.03.04.05.07h0s.03.05.05.08h0c.54.8,1.08,1.61,1.6,2.42l8.16-5.28c-1.05-1.62-2.15-3.24-3.27-4.82h0ZM234.36,48.27l-7.5,6.17c.15.19.3.37.46.56,0,0,0,0,0,.01.01.01.02.03.03.04,0,0,.02.02.03.03,0,0,.01.02.02.03.01.01.02.03.04.05,0,0,.01.01.01.02.01.02.03.03.04.05,0,0,0,0,0,.01.03.04.06.08.1.12,0,0,0,0,0,0,.65.81,1.3,1.63,1.93,2.45,0,0,0,0,0,0,.02.02.03.04.05.06,0,0,0,0,0,0,.02.02.03.04.05.06,0,0,0,0,0,0,.01.02.03.04.04.06,0,0,0,0,0,.01.01.02.03.03.04.05,0,0,0,0,.01.01.01.02.02.03.04.05,0,0,0,.01.01.02.01.02.03.03.04.05,0,0,.01.01.02.02.01.02.02.03.04.05,0,0,.01.02.02.02.01.02.02.03.03.05,0,0,.01.02.02.03,0,0,.02.02.02.03.01.01.02.03.03.04,0,0,.01.01.02.02.01.02.03.03.04.05,0,0,0,.01.01.02.02.02.03.04.05.06,0,0,0,0,0,0,.02.03.04.06.07.09l7.76-5.84c-1.16-1.54-2.37-3.08-3.6-4.58h0ZM228.2,41.29l-7.05,6.68c.66.69,1.31,1.4,1.95,2.1,0,0,0,0,0,0,.02.02.04.04.05.06,0,0,0,0,0,0,.02.02.04.04.05.06,0,0,0,0,0,0,.04.04.07.08.11.12h0s.04.04.05.06c0,0,0,0,0,0,.02.02.03.04.05.06,0,0,0,0,0,0,.02.02.03.04.05.05,0,0,0,0,0,0,.02.02.03.03.05.05,0,0,0,0,0,0,.02.02.03.04.05.05,0,0,0,0,0,0,.02.02.03.04.05.05,0,0,0,0,0,0,.02.02.03.04.05.05,0,0,0,0,0,.01.02.02.03.04.05.05,0,0,0,0,.01.01.02.02.03.03.05.05,0,0,0,0,.01.01.02.02.03.03.05.05,0,0,0,0,.01.01.02.02.03.03.05.05,0,0,0,0,.01.01.01.01.03.03.04.05,0,0,0,0,.01.01.01.01.03.03.04.05,0,0,0,0,.01.01.01.01.03.03.04.05,0,0,0,.01.01.02.02.02.03.03.04.05,0,0,.01.01.02.02.01.01.03.03.04.05,0,0,.01.01.02.02.01.01.03.03.04.05,0,0,.01.01.02.02.01.01.02.03.03.04,0,0,.01.02.02.03.01.01.02.02.03.04,0,0,.01.01.02.02.01.01.03.03.04.04,0,0,.01.01.02.02.01.01.03.03.04.04,0,0,.01.01.02.02.01.01.02.03.04.04,0,0,.01.02.02.02.01.01.02.03.03.04,0,0,.01.02.02.03.01.01.02.02.03.03,0,.01.02.02.03.03.01.01.02.02.03.03,0,0,.02.02.03.03.01.01.02.02.03.03,0,0,0,.01.01.02l7.34-6.37c-1.27-1.46-2.58-2.91-3.91-4.31h0ZM221.56,34.76l-6.57,7.16s0,0,0,0c.04.04.08.07.12.11,0,0,0,0,0,0,.02.02.04.04.05.05h0s.03.04.05.06h.01s.03.04.05.06c0,0,0,0,.01.01.02.02.03.03.05.04,0,0,0,0,.01.01.01.01.03.03.04.04,0,0,.01.01.02.02.01.01.02.02.04.04,0,0,.02.01.02.02.01.01.03.03.04.04,0,0,.01.01.02.02.01.01.03.03.04.04,0,0,.01.01.02.02.02.02.03.03.04.04,0,0,.01.01.02.02.01.01.03.03.05.04,0,0,.01.01.02.02.01.01.03.02.04.04,0,0,.01.01.02.02.01.01.02.02.04.03,0,0,.02.02.03.02.01.01.03.02.04.04,0,0,.01.01.02.02.01.01.03.03.04.04,0,0,.02.01.02.02.01.01.03.03.04.04,0,0,.01.01.02.02.01.01.03.03.04.04,0,0,.01.01.02.02.01.01.03.02.04.04,0,0,.01.01.02.02.01.01.03.03.04.04,0,0,.01.01.02.02.01.01.03.03.04.04l.02.02s.03.03.05.04c0,0,.01,0,.02.01.02.02.03.03.05.05,0,0,0,0,.01.01.01.01.04.03.05.05,0,0,0,0,.01.01.02.02.03.03.05.05,0,0,0,0,0,0,.02.02.03.03.05.05,0,0,0,0,0,0,.02.02.04.03.06.05h0s.04.04.06.06c0,0,0,0,0,0,.02.02.04.04.06.05,0,0,0,0,0,0,.02.02.04.04.06.05h0c.69.66,1.37,1.33,2.05,2.01l6.87-6.86c-1.37-1.37-2.78-2.72-4.2-4.03h0ZM214.48,28.7l-6.05,7.6c1.21.96,2.4,1.95,3.57,2.96,0,0,0,0,0,0,.02.02.04.03.06.05,0,0,0,0,0,0,.01.01.03.03.05.04,0,0,.01,0,.01.01.01.01.03.03.04.04,0,0,.02.01.02.02.01.01.03.02.04.03.11.1.22.19.33.29l6.38-7.33c-1.46-1.27-2.96-2.52-4.48-3.72h0ZM206.99,23.16l-5.5,8.01c.83.57,1.66,1.16,2.48,1.75,0,0,0,0,0,0,.02.01.04.03.06.05,0,0,0,0,0,0,.02.02.04.03.06.04,0,0,0,0,0,0,.02.01.04.03.06.04,0,0,0,0,0,0,.02.01.04.03.06.04,0,0,0,0,0,0,.02.01.04.03.06.04,0,0,0,0,.01,0,.02.01.04.03.06.04,0,0,.01,0,.02.01.02.01.03.02.05.04,0,0,.01,0,.02.01.02.01.03.03.05.04,0,0,.01.01.02.02.02.01.03.02.04.03,0,0,.02.01.03.02.01,0,.03.02.04.03.01,0,.02.01.03.02.01,0,.02.02.04.03,0,0,.02.01.03.02.02.01.03.02.04.03,0,0,.02.01.03.02.01,0,.03.02.04.03,0,0,.02.01.03.02.02.01.03.02.04.03,0,0,.02.01.03.02,0,0,.02.02.03.02.01,0,.02.02.04.03.01,0,.02.01.03.02.01,0,.02.02.04.03.01,0,.02.02.03.02,0,0,.02.01.03.02.02.01.03.02.04.03,0,0,.02.01.03.02.02.01.03.02.04.03,0,0,.02.01.02.02.02.01.03.02.04.03,0,0,.02.01.03.02l.04.03s.02.01.02.02c.01,0,.03.02.04.03,0,0,.01,0,.02.01.02.01.04.03.05.04,0,0,0,0,.01.01.02.01.04.03.05.04,0,0,0,0,.01.01.02.01.04.03.06.04,0,0,0,0,0,0l.06.05s0,0,0,0c.04.03.09.07.13.1l5.85-7.76c-1.54-1.16-3.13-2.31-4.73-3.4h0ZM199.13,18.16l-4.92,8.37s0,0,0,0c.02.01.05.03.07.04,0,0,0,0,0,0,.07.04.14.08.22.13,0,0,0,0,0,0,.02.01.05.03.07.04,0,0,0,0,0,0,.02.01.05.03.07.04,0,0,0,0,0,0,.02.01.05.03.07.04h0c.07.04.14.09.21.13,0,0,0,0,0,0,.02.01.05.03.07.04,0,0,0,0,0,0,.02.01.05.03.07.04,0,0,0,0,0,0,.02.01.05.03.07.04,0,0,0,0,0,0,.07.04.14.09.21.13,0,0,0,0,0,0,.05.03.1.06.14.09h0c1.11.67,2.2,1.36,3.29,2.06l5.29-8.15c-1.62-1.05-3.29-2.08-4.95-3.06h0ZM190.94,13.73l-4.32,8.7c1.61.8,3.21,1.64,4.78,2.51l4.7-8.5c-1.69-.94-3.43-1.85-5.16-2.7h0ZM182.45,9.88l-3.69,8.98c.58.24,1.16.48,1.74.73h0s.05.02.08.03c0,0,0,0,.01,0,.02,0,.05.02.07.03,0,0,.01,0,.02,0,.02,0,.04.02.06.03,0,0,.02,0,.02.01.01,0,.02.01.04.02.01,0,.03.01.05.02h.03s.03.03.04.03h.03s.03.03.04.03c0,0,.02,0,.03.01.02,0,.03.01.05.02,0,0,.01,0,.02,0,.02,0,.04.02.06.03,0,0,.01,0,.02,0,.02,0,.04.02.06.03,0,0,0,0,.01,0,.02.01.04.02.07.03,0,0,0,0,0,0,.07.03.15.07.23.1,0,0,0,0,0,0,.72.32,1.44.64,2.15.97l4.09-8.81c-1.75-.81-3.55-1.6-5.34-2.33h0ZM173.7,6.64l-3.05,9.22c.22.07.44.15.66.22,0,0,.01,0,.02,0,.02,0,.04.01.06.02.01,0,.02,0,.03.01.02,0,.03.01.05.02.01,0,.03,0,.04.01.01,0,.02,0,.03.01.02,0,.03.01.05.02.01,0,.02,0,.03.01.02,0,.04.01.06.02,0,0,.02,0,.02,0,.02,0,.04.01.06.02,0,0,.01,0,.02,0,.02,0,.04.01.06.02,0,0,0,0,.01,0,.02,0,.04.01.06.02,0,0,.01,0,.02,0,.02,0,.05.02.06.02,0,0,.01,0,.02,0,.02,0,.04.02.07.02,0,0,0,0,.01,0,.03,0,.04.02.07.02,0,0,0,0,0,0,.05.02.1.04.15.05,0,0,0,0,0,0,.03,0,.05.02.08.03,0,0,0,0,0,0,.03,0,.05.02.08.03,0,0,0,0,0,0,1.09.38,2.17.77,3.25,1.18l3.45-9.08c-1.81-.69-3.66-1.34-5.49-1.95h0ZM164.75,4.04l-2.38,9.42c1.13.29,2.26.59,3.38.91h0c.61.17,1.21.35,1.82.53l2.8-9.3c-1.85-.56-3.74-1.08-5.62-1.55h0ZM155.64,2.07l-1.71,9.56c.25.04.5.09.74.14,0,0,0,0,.01,0,0,0,.02,0,.03,0,0,0,.01,0,.02,0,0,0,.01,0,.02,0,.01,0,.02,0,.03,0h0c1.48.28,2.96.58,4.42.91l2.13-9.48c-1.89-.42-3.81-.81-5.71-1.15h0ZM146.42.75l-1.03,9.66c.43.05.87.1,1.3.15,0,0,0,0,0,0,.01,0,.02,0,.04,0,0,0,0,0,.01,0,.01,0,.02,0,.03,0,0,0,0,0,0,0,.04,0,.07,0,.11.01,0,0,.01,0,.02,0,0,0,.02,0,.03,0h.02s.02,0,.02,0c0,0,.02,0,.02,0,0,0,.01,0,.02,0h.02s.01,0,.02,0c0,0,.02,0,.03,0,0,0,.01,0,.02,0,.01,0,.02,0,.03,0,0,0,0,0,.01,0,.02,0,.03,0,.05,0h0s.03,0,.04,0c0,0,0,0,.01,0,.01,0,.02,0,.04,0,0,0,0,0,.01,0,.01,0,.02,0,.03,0,0,0,0,0,.01,0,.01,0,.02,0,.03,0,0,0,0,0,.01,0,.01,0,.02,0,.04,0,0,0,0,0,.01,0,.01,0,.03,0,.04,0h0s.03,0,.05,0c0,0,.01,0,.01,0,.01,0,.02,0,.03,0,0,0,.01,0,.02,0,0,0,.02,0,.02,0s.02,0,.02,0h.02s.02,0,.02,0c0,0,.01,0,.02,0,0,0,.02,0,.02,0,0,0,.01,0,.02,0,0,0,.02,0,.02,0,0,0,0,0,.01,0,.04,0,.07,0,.11.01,0,0,0,0,0,0,.01,0,.02,0,.04,0,0,0,0,0,0,0,.01,0,.02,0,.04,0,0,0,0,0,0,0,.01,0,.02,0,.04,0,0,0,0,0,0,0,.01,0,.02,0,.04,0,0,0,0,0,0,0,.89.12,1.78.24,2.66.37l1.46-9.6c-1.91-.29-3.85-.54-5.78-.75h0ZM137.13.09l-.36,9.71s.01,0,.02,0c0,0,.01,0,.02,0,0,0,.02,0,.02,0,0,0,.02,0,.03,0h.01c1.78.07,3.54.17,5.29.31l.78-9.68c-1.92-.15-3.88-.27-5.81-.34h0ZM132.21,0v9.71h.09s.04,0,.07,0h.02s.04,0,.06,0h.02s.04,0,.06,0c0,0,.02,0,.02,0,.02,0,.04,0,.06,0,0,0,.02,0,.03,0,.02,0,.03,0,.05,0,.01,0,.03,0,.04,0,.01,0,.03,0,.04,0,.01,0,.02,0,.03,0,.02,0,.04,0,.05,0,.01,0,.03,0,.04,0,.01,0,.02,0,.03,0,.02,0,.04,0,.06,0,0,0,.02,0,.02,0,.05,0,.09,0,.14,0h0c.13,0,.25,0,.38,0l.1-9.71c-.47,0-.95,0-1.43,0h0Z" style="fill: #41c2d9; stroke-width: 0px;"/>
        <circle cx="132.21" cy="132.21" r="122.5" style="fill: none; stroke: #fff; stroke-miterlimit: 10; stroke-width: 15.11px;"/>
        <circle cx="132.21" cy="132.21" r="122.5" style="fill: #41c2d9; opacity: .39; stroke-width: 0px;"/>
      </g>
      <path d="M155.24,240.62h-47.19c-58.13,0-105.66-47.53-105.66-105.66V19.21h152.85c58.13,0,105.66,47.53,105.66,105.66v115.67l-105.66.08Z" style="fill: none; stroke-width: 0px;"/>
      <path d="M155.24,240.62h-47.19c-58.13,0-105.66-47.53-105.66-105.66V19.21h152.85c58.13,0,105.66,47.53,105.66,105.66v115.67l-105.66.08Z" style="fill: none; stroke-width: 0px;"/>
      <g>
        <g>
          <g>
            <path d="M120.69,203.11c-.12.85-.44,1.8-.44,1.8,0,0-8.66.39-10.07.26-1.4-.12-2.93.14-3.82-1.01-.89-1.15-6.63-.65-6.63-.65v1.4l-7.65-.12s-.63-1.27-.59-2.91c.02-.57.11-1.19.33-1.81.89-2.41,2.29-3.94,2.29-3.94,0,0,10.84-2.29,11.73-1.03.89,1.28,5.99,5.48,9.04,5.36,3.06-.14,5.36.89,5.74,1.52.14.23.12.66.06,1.13Z" style="fill: #343333; stroke-width: 0px;"/>
            <path d="M93.47,107.99s3.07,1.6,4.54,10.28c1.47,8.68,1.87,13.22,2.4,15.62.53,2.4,1.87,3.47,1.87,3.47,0,0,10.95,3.87,13.09,3.61,2.14-.27,9.88,2.8,9.88,2.8l-1.6,5.88s-.13-1.87-9.08-1.87-17.89.8-20.43-3.61c-2.54-4.41-11.75-14.69-9.75-22.3,2-7.61,8.55-14.29,8.55-14.29l.53.4Z" style="fill: #25efe9; stroke-width: 0px;"/>
            <path d="M124.78,144.31s2.21-.11,3.14.69c.93.8,3.74,4.41,3.74,4.41l2.05,3.96-.58,5.92-3.34,2.14s-.8-.76.49-2.36c.44-.54,1.51-1.07,1.51-1.07,0,0-.59-3.22-.85-3.62-.27-.4-1.95-2.56-1.95-2.56,0,0,1.56,3.74,1.29,4.41-.27.67-.36,1.47-1.02,1.47s-1.47-4.14-2.67-4.54c-1.2-.4-2.54-2.94-2.94-3.74s1.13-5.1,1.13-5.1Z" style="fill: #f5c09d; stroke-width: 0px;"/>
            <path d="M83.32,95.84s-10.42,2.4-17.89,14.15-11.85,40.24-9.45,46.39c2.4,6.14,30.02-5.26,30.02-5.26,0,0-2.67-11.48,1.6-16.83,4.27-5.34,8.81-14.15,9.61-18.96.8-4.81-5.34-21.1-13.89-19.5Z" style="fill: #19dbd1; stroke-width: 0px;"/>
            <path d="M95.21,104.26s2.94-2.14,4.01-2.94,2.4-3.2,2.4-3.2l9.08-1.87-.53-3.2.27-.93-1.34-.27,1.47-.8-.4-1.47s2.44-.51,2.67-1.2c.08-.26-.53-.93-.53-.93,0,0-2.4-2.27-2.8-3.07-.4-.8.27-2.94.27-2.94l-.53-3.2s-1.74-5.61-7.21-6.68c-5.47-1.07-11.22,0-11.22,0,0,0-6.68,4.14-6.81,9.88-.13,5.74,4.01,9.61,4.01,9.61,0,0,2.4,1.34,1.07,2.14-1.34.8-3.34,2.94-3.34,2.94l8.95,8.28.53-.13Z" style="fill: #f5c09d; stroke-width: 0px;"/>
            <path d="M71.96,151.4s13.51-4.59,22.93-5.22c9.43-.64,18.35,0,20.64,2.42,2.29,2.42,3.95,5.99,3.06,8.15s-8.03,16.05-9.43,20.64c-1.4,4.59-1.53,19.49-1.53,19.49l-15.93.38s2.17-16.94,4.08-22.93,9.68-16.31,9.68-16.31c0,0-29.05,10.83-34.02,7.52-4.97-3.31.51-14.14.51-14.14Z" style="fill: #1f3e52; stroke-width: 0px;"/>
            <path d="M83.56,204.39s-5.48,1.03-10.44,1.15c-4.98.14-5.61-1.9-5.36-3.82.26-1.9-2.17-5.48-2.17-5.48l-2.41.51-5.34-7.4s.66-1.03,2.19-2.17c.5-.38,1.07-.75,1.75-1.13,2.81-1.52,5.22-1.92,5.22-1.92l9.43,8.29s-.89-.38-1.4,3.31c-.51,3.7,3.32,5.36,3.32,5.36,0,0,1.49-.82,4.56.2.77.26.97,1.46,1.19,1.7.69.77-.53,1.4-.53,1.4Z" style="fill: #363737; stroke-width: 0px;"/>
            <path d="M124.84,127.96c-.27.36-.83,1.01-1.9,2.16-2.85,3.02-20.48,14.6-23.32,14.6s-18.7-10.5-25.82-22.79c-7.12-12.29,3.03-17.98,3.03-17.98,9.61-3.03,22.79,29.19,22.79,29.19,0,0,14.41-6.94,18.34-8,3.91-1.07,4.71-2.07,4.71-2.07l.39.75,1.92,3.7s.32-.17-.14.44Z" style="fill: #abfffd; stroke-width: 0px;"/>
            <path d="M86.79,91.57s4.54,2.4,7.74,7.21c3.2,4.81,2.94,7.74,2.94,7.74l-5.07,1.34s-1.87-6.41-6.41-9.08c-4.54-2.67-2.67-2.94-2.67-2.94l3.47-4.27Z" style="fill: #abfffd; stroke-width: 0px;"/>
            <path d="M58.71,156.88c-1.15,1.02-.25,15.54,14.65,16.69,14.91,1.15,29.56-3.19,29.56-3.19,0,0-21.66,3.95-28.54,7.64-6.88,3.69-7.26,3.19-8.28,4.33s-.76,4.33,1.15,7.39c1.91,3.06,8.79,9.43,8.79,9.43,0,0,12.87-14.27,20.89-15.67,8.03-1.4,14.01-2.42,14.01-2.42,0,0,7.13-9.68,5.73-13.76-1.4-4.08-21.28-16.69-34.15-16.82-12.87-.13-23.83,6.37-23.83,6.37Z" style="fill: #225072; stroke-width: 0px;"/>
          </g>
          <path d="M89.18,92.49s2.89,0,3.77.63c.88.63,3.9-2.39,3.9-2.39,0,0-3.65-1.38-3.27-3.02.38-1.64,1.38-3.52,3.14-2.89,1.76.63,3.02,1.13,3.02,1.13,0,0,1.76-4.02,1.26-6.16-.5-2.14.63-2.52,3.14-3.02,2.52-.5,4.18-.07,4.4-1.64.5-3.52-.88-7.8-8.3-7.04s-10.69,2.01-14.34,3.52c-3.65,1.51-4.15,9.94-2.89,12.96,1.26,3.02,6.16,7.92,6.16,7.92Z" style="fill: #232323; stroke-width: 0px;"/>
          <path d="M136.12,122.77s.21.94,0,1.25c-.2.31-.51.94-.51.94,0,0-.11.84-.52,1.35-.41.52-1.04.94-1.04.94l-4.58,1.36-4.94-.52c.37-.5.11-.36.11-.36l-1.58-3.06c.5-.97,1.4-2.63,1.83-2.92.62-.42,3.23-2.5,3.23-2.5,0,0,.72.1,2.07,0,1.36-.11,1.98-.84,1.98-.84,0,0,1.14,1.15-.62,1.87-1.77.72-3.64,1.66-3.64,1.66l2.5.21,3.74-.84s1.66-1.45,2.28-2.07,1.77-1.56,2.3-1.05l.51.52-3.12,4.05Z" style="fill: #f5c09d; stroke-width: 0px;"/>
          <g>
            <path d="M171.79,85.98s2.44-3.88,8.09-1.44c5.65,2.44,9.75,8.31,8.64,20.06s.44,24.16-6.65,24.6c-7.09.44-16.4-5.76-16.62-6.21-.22-.44,6.54-37.02,6.54-37.02Z" style="fill: #7c0d0e; stroke-width: 0px;"/>
            <g>
              <polygon points="148.96 136.53 148.51 142.46 145.9 144.97 143.58 145.78 145.03 139.2 148.96 136.53" style="fill: #f5c09d; stroke-width: 0px;"/>
              <path d="M148.32,136.78l-3.63-1.53s-2.66,1.92-3.15,2.93c-.49,1-1.02,2.4-1.22,2.88-.2.48-1.63,2.34-.89,2.44.74.1,1.95-1.14,2.66-2.33.66-1.11,1.62-.71,1.62-.71l-1.5,2.37-1.22,1.44-.55,1s-.85,1.61-1.11,2.22c-.25.61,1.55.4,1.55.4l1.67-.77,1.99-1.68,2.62-3,1.17-5.66Z" style="fill: #f5c09d; stroke-width: 0px;"/>
            </g>
            <path d="M158.39,125.44c-1.61,1.83-3.67,4.42-5.46,6.77-2.36,3.14-4.29,5.85-4.29,5.85l-4.01-2.66,4.66-11.74s5.76-19.29,5.98-24.15c.09-1.86.73-3.56,1.49-4.97v-.02c1.22-2.27,2.75-3.71,2.75-3.71.35-.25.66-.2.92.12,2.64,3.1,1.37,30.66-2.04,34.49Z" style="fill: #7ebf45; stroke-width: 0px;"/>
            <g>
              <path d="M175.33,79.12s-2.14,3.49-1.28,6.21,3.28,4,3.28,4c0,0-6.71,4.11-10.42,3.98-3.71-.12-4.14-4.41-4.14-4.41,0,0,2.86-1.43,3.28-3.14.43-1.71,1.16-5,1.16-5l8.12-1.64Z" style="fill: #f1b895; stroke-width: 0px;"/>
              <path d="M174.6,86.6s5.68,3.44,6.54,6.16c.86,2.71-4.14,35.12-8.85,36.69-4.71,1.57-16.28.71-16.99-.43-.71-1.14,2-25.27,2.71-30.56.58-4.26,2.41-6.71,4.48-9.18.5-.6,1.01-1.19,1.52-1.81.7-.86.44,2.28,2.05,2.08,3.86-.48,8.54-2.96,8.54-2.96Z" style="fill: #f4fafb; stroke-width: 0px;"/>
              <g>
                <rect x="153.68" y="195.21" width="4.86" height="7.57" style="fill: #29d3ca; stroke-width: 0px;"/>
                <g>
                  <path d="M168.08,143.11s-.05.15-.13.43c-.89,2.91-3.87,20.07-4.51,23.46-.69,3.71-.02,10.84,0,16.28.01,5.44-2.91,16.46-2.91,16.46l-8.83-1.91s-.16-23.33.14-27.28c.29-3.95-.64-28.06.72-32.35,1.36-4.29,1.66-12.83,1.66-12.83l7.6,3.48,6.26,14.26Z" style="fill: #225072; stroke-width: 0px;"/>
                  <g>
                    <path d="M170.19,206.72c-1.67-.07-4.97-.42-6.98-.64,0-.03,0-.06,0-.09-.1-.83,1.46-2.19,2.4-2.92.94-.73,3.54-5.11,3.54-5.11l5.94.73s0,1.98.63,3.13c.42.77.65,1.53.76,1.95-.55.17-1.33.51-2.32,1.17-2.19,1.46-1.46,1.88-3.96,1.77Z" style="fill: #225072; stroke-width: 0px;"/>
                    <path d="M163.22,206.08c2.01.22,5.31.57,6.98.64,2.5.1,1.77-.31,3.96-1.77.99-.66,1.77-1,2.32-1.17.05.21.08.34.08.34l-.73,2.5s-2.61.83-3.65,1.46c-1.04.63-8.97-.31-8.97-.31,0,0,.1-.87.01-1.68Z" style="fill: #140c26; stroke-width: 0px;"/>
                  </g>
                  <path d="M176.32,130.13c1,3.31,1.47,6.76,1.42,10.22-.11,6.7-.16,8.86.6,12.5,1.11,5.3,2,17.57,1.12,27.54-.88,9.97-1.91,21.25-1.91,21.25l-11.08.09s2.67-21.43.22-31.62c-2.45-10.2-5.12-27.28-6.39-30.09-1.27-2.8,1.32-11.97,1.32-11.97l12.69-4.6,2.01,6.69Z" style="fill: #3b698c; stroke-width: 0px;"/>
                  <g>
                    <path d="M153.37,204.14c-1.46.73-2.55,2.14-5.68,1.72-1.49-.2-2.66-.48-3.48-.72.03-.34.06-.71.09-1.1.1-1.36,3.44-1.88,4.48-2.61,1.04-.73,2.92-4.17,2.92-4.17l2.82.21s1.25,1.98,2.81,2.61c1.56.63,1.04-2.08,1.04-2.08,0,0,.63,3.13,1.15,4.39.09.23.14.45.16.68-.74.25-1.77.51-2.87.57-2.19.1-1.98-.21-3.44.52Z" style="fill: #225072; stroke-width: 0px;"/>
                    <path d="M147.68,205.86c3.13.42,4.22-.99,5.68-1.72s1.25-.42,3.44-.52c1.1-.05,2.13-.32,2.87-.57.11,1.02-.37,1.92-.37,1.92,0,0-3.23.52-4.8.52s-2.19,1.56-4.9,1.67c-2.71.1-5.53-.63-5.53-.63,0,0,.05-.58.12-1.4.82.24,1.99.52,3.48.72Z" style="fill: #140c26; stroke-width: 0px;"/>
                  </g>
                </g>
              </g>
              <path d="M177.9,135.19s-6.93,5.76-13.97,3.76c-7.04-1.99-11.42-1.21-11.42-1.21,0,0,.16-2.2.43-5.53.41-4.82,1.01-12.01,1.61-18.25.02-.04.02-.07.02-.12.53-5.48,1.06-10.2,1.45-11.95,1.13-5.14,3.49-11.07,3.49-11.07l1.28-.87,2.66-1.77.14,7.71s10.76-8.64,12.64-8.1c1.88.51,6.92,3.24,7.63,5.82.71,2.57-5.96,41.58-5.96,41.58Z" style="fill: #8abc52; stroke-width: 0px;"/>
              <g>
                <polygon points="180.1 140.19 179.65 146.12 177.04 148.62 174.73 149.44 176.17 142.86 180.1 140.19" style="fill: #f5c09d; stroke-width: 0px;"/>
                <path d="M179.46,140.44l-3.63-1.53s-1.61,1.96-2.1,2.96c-.49,1-.71,2.69-.91,3.18-.2.48-1.4,2.47-.65,2.57.74.1,2.11-.96,2.05-2.34-.06-1.38.63-1.16.63-1.16l.02,2.5-.82,2.29-.74.75s-1.09.39-1.35,1c-.25.6.06.88.06.88l1.67-.77,1.99-1.68,2.62-3,1.17-5.66Z" style="fill: #f5c09d; stroke-width: 0px;"/>
              </g>
              <path d="M186.29,119.37l-5.28,21.94-5.85-1.86s1.93-7.91,2.82-15.45c.16-1.33.28-2.64.35-3.9.18-2.96.09-5.6-.46-7.36-2.15-6.7-2-10.43-1.86-12.7,0,0,2.71-13.14,7.86-6.44,5.14,6.72,2.43,25.77,2.43,25.77Z" style="fill: #a2ce67; stroke-width: 0px;"/>
              <g>
                <path d="M162.97,63.56c-2.51,1.28-5.15,4.45-4.24,10.44.56,3.68-1.68,4.55.17,7.12,1.87,2.59.86,4.99,3.14,5.43,2.28.44,9.57-1.86,12.42-3.57,2.86-1.71,4.96-5.9,5.24-7.33.29-1.43.2-7.5-3.51-10.93-3.71-3.43-10.27-2.67-13.22-1.16Z" style="fill: #f5c09d; stroke-width: 0px;"/>
                <path d="M176.68,63.13s-5.21-2.86-10.35-1.5-7.01,3.67-7.68,5.58c-.67,1.91,0,3.55,0,3.55,0,0,.54-2.14,2.83-2.86,2.28-.71,5.57-2.21,5.57-2.21,0,0-1.41,3.64,1.09,5.21,2.5,1.57,2.95,2.26,2.88,3.55s.89,4.88.89,4.88c0,0,2.35-3.99,2.71-3.99s2.07-.06,1.64,2.15c-.43,2.21-2.07,3.99-2.07,3.99l1.43,1.64s5.14-5.11,5.5-8.42c.36-3.31.28-7-4.43-11.57Z" style="fill: #060e25; stroke-width: 0px;"/>
              </g>
            </g>
            <path d="M178.32,120.1c-.07,1.26-.2,2.57-.35,3.9-1.21-.39-5.23-1.97-6.74-6.1-1.77-4.88-.89-21.94,1.77-25.94,2.66-3.97,5.78-3.97,5.78-3.97l3.09,1.99s-1.77,0-5.75,2.22c-4.01,2.22-2,24.17-.89,25.94.59.96,1.97,1.6,3.09,1.97Z" style="fill: #bc0f0f; stroke-width: 0px;"/>
            <path d="M160.79,89.95c-.11.28-.23.62-.35.99-1.15,3.17-3.12,8.71-3.6,10.34-.48,1.67-1.65,8.72-2.27,12.55,0,.05,0,.09-.02.12-.16,1.08-.28,1.88-.35,2.22.12-1.74,1.15-15.76,2.09-18.67.23-.73.39-1.79.48-2.96v-.02c1.22-2.27,2.75-3.71,2.75-3.71l1.28-.87Z" style="fill: #bc0f0f; stroke-width: 0px;"/>
          </g>
        </g>
        <path d="M83.56,204.39s-5.48,1.03-10.44,1.15c-4.98.14-5.61-1.9-5.36-3.82.26-1.9-2.17-5.48-2.17-5.48l-2.41.51-5.34-7.4s.66-1.03,2.19-2.17c1.8,2.02,6.26,7.08,7.15,8.57,1.13,1.89,2.14,4.39,2.14,5.66s2.01,3.26,6.41,2.51c3.11-.53,6.58-.81,8.36-.94.69.77-.53,1.4-.53,1.4Z" style="fill: #232323; stroke-width: 0px;"/>
        <path d="M120.69,203.11c-.12.85-.44,1.8-.44,1.8,0,0-8.66.39-10.07.26-1.4-.12-2.93.14-3.82-1.01-.89-1.15-6.63-.65-6.63-.65v1.4l-7.65-.12s-.63-1.27-.59-2.91c3.41-.15,13.99-.5,15.05.54,1.25,1.27,3.14,1.13,4.53,1.13,1.06,0,6.94-.29,9.61-.44Z" style="fill: #232323; stroke-width: 0px;"/>
      </g>
    </g>
  </g>
</svg>