<?xml version="1.0" encoding="utf-8"?>
<!-- Generator: Adobe Illustrator 28.2.0, SVG Export Plug-In . SVG Version: 6.00 Build 0)  -->
<svg version="1.1" id="_圖層_2" xmlns="http://www.w3.org/2000/svg" xmlns:xlink="http://www.w3.org/1999/xlink" x="0px" y="0px"
	 viewBox="0 0 264.4 264.4" style="enable-background:new 0 0 264.4 264.4;" xml:space="preserve">
<style type="text/css">
	.st0{fill:#41C2D9;}
	.st1{fill:none;stroke:#FFFFFF;stroke-width:15.11;stroke-miterlimit:10;}
	.st2{opacity:0.39;fill:#41C2D9;enable-background:new    ;}
	.st3{fill:none;}
	.st4{fill:#343333;}
	.st5{fill:#25EFE9;}
	.st6{fill:#F5C09D;}
	.st7{fill:#19DBD1;}
	.st8{fill:#1F3E52;}
	.st9{fill:#363737;}
	.st10{fill:#ABFFFD;}
	.st11{fill:#225072;}
	.st12{fill:#232323;}
	.st13{fill:#7C0D0E;}
	.st14{fill:#7EBF45;}
	.st15{fill:#F1B895;}
	.st16{fill:#F4FAFB;}
	.st17{fill:#29D3CA;}
	.st18{fill:#140C26;}
	.st19{fill:#3B698C;}
	.st20{fill:#8ABC52;}
	.st21{fill:#A2CE67;}
	.st22{fill:#060E25;}
	.st23{fill:#BC0F0F;}
</style>
<g id="_圖層_8">
	<g id="_學校師生">
		<g>
			<path class="st0" d="M132.2,0c-1.9,0-3.9,0-5.8,0.1l0.4,9.7c1.5-0.1,2.9-0.1,4.4-0.1h0.1l0,0c0.1,0,0.1,0,0.2,0l0,0c0,0,0,0,0,0
				h0c0,0,0,0,0,0l0,0c0,0,0,0,0.1,0l0,0c0,0,0.1,0,0.1,0l0,0c0,0,0,0,0,0h0c0,0,0,0,0,0c0,0,0,0,0,0s0,0,0,0h0c0,0,0,0,0,0l0,0
				c0,0,0.1,0,0.1,0h0c0,0,0,0,0,0h0.1c0,0,0,0,0,0h0.1L132.2,0L132.2,0L132.2,0z M122.9,0.3c-1.9,0.1-3.9,0.3-5.8,0.5l1.1,9.6
				c0.3,0,0.5-0.1,0.8-0.1c0,0,0,0,0,0c0,0,0,0,0,0c0,0,0,0,0,0h0c0,0,0,0,0,0c0,0,0,0,0,0s0,0,0,0l0,0c1.5-0.2,2.9-0.3,4.4-0.4
				L122.9,0.3L122.9,0.3L122.9,0.3z M113.7,1.3c-1.9,0.3-3.8,0.6-5.8,0.9l1.8,9.6c0.9-0.2,1.9-0.3,2.8-0.5l0,0c0,0,0,0,0,0l0,0
				c0,0,0,0,0,0h0c0,0,0,0,0,0h0c0,0,0,0,0,0h0l0,0c0.8-0.1,1.6-0.2,2.3-0.4L113.7,1.3L113.7,1.3L113.7,1.3z M104.5,2.9
				c-1.9,0.4-3.8,0.9-5.7,1.3l2.4,9.4c1.7-0.4,3.5-0.9,5.2-1.2L104.5,2.9L104.5,2.9z M95.4,5.2c-1.9,0.5-3.7,1.1-5.6,1.7l3.1,9.2
				l0,0c0,0,0.1,0,0.1,0l0,0c0,0,0.1,0,0.1,0c0,0,0,0,0,0c0,0,0,0,0.1,0c0,0,0,0,0,0c0,0,0,0,0.1,0h0c0,0,0,0,0.1,0h0c0,0,0,0,0,0
				c0,0,0,0,0.1,0c0,0,0,0,0,0l0.1,0c0,0,0,0,0,0s0,0,0,0h0c0,0,0,0,0.1,0c0,0,0,0,0,0l0.1,0l0,0c1.4-0.5,2.9-0.9,4.3-1.3L95.4,5.2
				L95.4,5.2L95.4,5.2z M86.6,8.1c-1.8,0.7-3.6,1.4-5.4,2.1l3.8,9c0.9-0.4,1.9-0.8,2.8-1.1l0,0l0.1,0l0,0c0,0,0.1,0,0.1,0l0,0
				c0.1,0,0.1,0,0.2-0.1c0,0,0,0,0,0c0,0,0,0,0.1,0c0,0,0,0,0,0c0,0,0,0,0.1,0c0,0,0,0,0,0c0,0,0,0,0.1,0c0,0,0,0,0,0c0,0,0,0,0.1,0
				c0,0,0,0,0,0c0,0,0,0,0,0s0,0,0,0c0,0,0,0,0,0c0,0,0,0,0,0h0c0,0,0,0,0.1,0c0,0,0,0,0,0c0,0,0.1,0,0.1,0l0,0
				c0.4-0.2,0.8-0.3,1.2-0.5L86.6,8.1L86.6,8.1L86.6,8.1z M77.9,11.6c-1.8,0.8-3.5,1.6-5.3,2.5l4.4,8.7c0,0,0.1,0,0.2-0.1l0,0
				c0.1-0.1,0.2-0.1,0.4-0.2l0,0c0,0,0.1,0,0.1,0l0,0c0,0,0.1,0,0.1,0l0,0c0.1,0,0.2-0.1,0.2-0.1l0,0c0,0,0,0,0.1,0l0,0
				c0,0,0.1,0,0.1,0l0,0c0,0,0.1,0,0.1,0l0,0c0,0,0,0,0.1,0l0,0c0,0,0,0,0.1,0c0,0,0,0,0,0c0,0,0,0,0.1,0c0,0,0,0,0,0c0,0,0,0,0.1,0
				c0,0,0,0,0,0c0,0,0,0,0.1,0c0,0,0,0,0,0c0,0,0.1,0,0.1,0l0,0c0,0,0,0,0.1,0l0,0c0,0,0,0,0.1,0c0,0,0,0,0,0c0,0,0,0,0.1,0
				c0,0,0,0,0,0c0,0,0,0,0.1,0c0,0,0,0,0,0c0,0,0,0,0.1,0l0,0c0,0,0,0,0.1,0l0,0c0,0,0.1,0,0.1,0c0,0,0,0,0,0c0,0,0,0,0.1,0
				c0,0,0,0,0,0c0,0,0,0,0.1,0h0c0,0,0,0,0.1,0c0,0,0,0,0,0c0,0,0,0,0.1,0c0,0,0,0,0,0c0,0,0,0,0.1,0h0c0,0,0,0,0.1,0c0,0,0,0,0,0
				c0,0,0,0,0.1,0c0,0,0,0,0,0c0,0,0,0,0.1,0c0,0,0,0,0,0c0,0,0,0,0.1,0l0,0c0,0,0,0,0.1,0l0,0c0,0,0.1,0,0.1,0h0c0,0,0,0,0.1,0
				c0,0,0,0,0,0c0,0,0,0,0.1,0h0c0,0,0.1,0,0.1,0l0,0c0,0,0.1,0,0.1,0l0,0c0,0,0.1,0,0.1,0l0,0c0,0,0.1,0,0.1,0l0,0c0,0,0.1,0,0.1,0
				l0,0c0,0,0.1,0,0.1,0l0,0c0,0,0.1,0,0.1,0l0,0c0.1,0,0.1,0,0.2-0.1l0,0c0,0,0.1,0,0.1,0l0,0c0,0,0.1,0,0.1,0l0,0
				c0.3-0.1,0.6-0.3,0.9-0.4l-4-8.9l0,0L77.9,11.6z M69.6,15.8c-1.7,0.9-3.4,1.9-5.1,2.9l5,8.3c0.3-0.2,0.6-0.4,0.9-0.5l0,0
				c0.1,0,0.1-0.1,0.1-0.1l0,0c0,0,0.1,0,0.1,0l0,0c0,0,0,0,0.1,0c0,0,0,0,0,0c0,0,0,0,0.1,0c0,0,0,0,0,0c0,0,0,0,0.1,0c0,0,0,0,0,0
				c0,0,0,0,0.1,0c0,0,0,0,0,0c0,0,0,0,0,0s0,0,0,0c0,0,0,0,0,0c0,0,0,0,0,0c0,0,0,0,0,0s0,0,0,0c0,0,0,0,0,0l0.1,0c0,0,0,0,0,0
				c0,0,0,0,0.1,0c0,0,0,0,0,0c0,0,0.1,0,0.1,0l0,0c0.7-0.4,1.3-0.8,2-1.1l0,0c0,0,0.1,0,0.1,0c0,0,0,0,0,0c0,0,0,0,0.1,0
				c0,0,0,0,0,0c0,0,0,0,0,0s0,0,0,0c0,0,0,0,0,0c0,0,0,0,0.1,0c0,0,0,0,0,0c0,0,0,0,0.1,0h0c0,0,0,0,0.1,0l0,0c0,0,0,0,0.1,0l0,0
				c0,0,0.1,0,0.1,0l0,0c0.1,0,0.2-0.1,0.2-0.1L69.6,15.8L69.6,15.8L69.6,15.8z M61.5,20.5c-1.6,1-3.3,2.1-4.8,3.2l5.5,8
				c0.3-0.2,0.7-0.5,1-0.7l0,0c0,0,0,0,0.1,0c0,0,0,0,0,0c0,0,0,0,0.1,0c0,0,0,0,0,0c0,0,0,0,0.1,0c0,0,0,0,0,0c0,0,0,0,0,0l0,0
				c0,0,0,0,0,0c0,0,0,0,0,0c0,0,0,0,0,0l0,0c0,0,0,0,0,0c0,0,0,0,0,0c0,0,0,0,0,0c0,0,0,0,0,0c0,0,0,0,0,0c0,0,0,0,0.1,0
				c0,0,0,0,0,0c0,0,0,0,0.1,0l0,0c0,0,0.1,0,0.1,0l0,0c0.6-0.4,1.2-0.8,1.8-1.2c0,0,0,0,0,0c0,0,0,0,0.1,0c0,0,0,0,0,0
				c0,0,0,0,0.1,0c0,0,0,0,0,0c0,0,0,0,0,0s0,0,0,0c0,0,0,0,0,0c0,0,0,0,0.1,0h0c0,0,0,0,0.1,0c0,0,0,0,0,0c0,0,0,0,0.1,0l0,0
				c0.1-0.1,0.3-0.2,0.4-0.3L61.5,20.5L61.5,20.5L61.5,20.5z M53.8,25.7c-1.6,1.1-3.1,2.3-4.6,3.6l6.1,7.6c0,0,0.1-0.1,0.2-0.1l0,0
				c0,0,0,0,0.1,0c0,0,0,0,0,0c0,0,0,0,0,0c0,0,0,0,0,0c0,0,0,0,0,0c0,0,0,0,0,0c0,0,0,0,0,0c0,0,0,0,0,0c0,0,0,0,0,0c0,0,0,0,0,0
				l0,0c0.8-0.7,1.7-1.3,2.6-2l0,0c0,0,0,0,0.1,0c0,0,0,0,0,0c0,0,0,0,0,0c0,0,0,0,0,0c0,0,0,0,0,0l0,0c0,0,0,0,0,0l0,0c0,0,0,0,0,0
				c0,0,0,0,0,0c0,0,0,0,0,0c0,0,0,0,0,0c0,0,0,0,0,0c0.2-0.2,0.5-0.3,0.7-0.5L53.8,25.7L53.8,25.7L53.8,25.7z M46.5,31.5
				c-1.5,1.2-2.9,2.5-4.3,3.9l6.6,7.1c0,0,0.1-0.1,0.2-0.1l0,0c0,0,0,0,0.1-0.1c0,0,0,0,0,0c0,0,0,0,0,0c0,0,0,0,0,0c0,0,0,0,0,0
				c0,0,0,0,0,0c0,0,0,0,0,0s0,0,0,0l0,0c0,0,0,0,0,0c0,0,0,0,0,0c0,0,0,0,0,0c0,0,0,0,0,0s0,0,0,0c0,0,0,0,0,0s0,0,0,0l0,0
				c0,0,0,0,0,0c0,0,0,0,0,0c0,0,0,0,0,0c0,0,0,0,0,0c0,0,0,0,0,0c0,0,0,0,0,0c0,0,0,0,0,0c0,0,0,0,0,0c0,0,0,0,0,0c0,0,0,0,0,0
				s0,0,0,0c0,0,0,0,0,0c0,0,0,0,0,0c0,0,0,0,0,0c0,0,0,0,0,0c0,0,0,0,0,0c0,0,0,0,0,0s0,0,0,0c0,0,0,0,0,0c0,0,0,0,0,0c0,0,0,0,0,0
				c0,0,0,0,0,0c0,0,0,0,0,0c0,0,0,0,0.1-0.1l0,0c0.8-0.8,1.7-1.5,2.6-2.2L46.5,31.5L46.5,31.5L46.5,31.5z M39.7,37.8
				c-1.4,1.3-2.8,2.8-4.1,4.2l7.1,6.6c0.2-0.2,0.4-0.4,0.5-0.6c0,0,0,0,0,0c0,0,0,0,0,0c0,0,0,0,0,0l0,0c0,0,0,0,0,0l0,0
				c0,0,0,0,0,0l0,0c0,0,0,0,0-0.1l0,0c1-1,2-2,3-3L39.7,37.8L39.7,37.8L39.7,37.8z M33.3,44.5C32,46,30.7,47.5,29.5,49l7.5,6.1
				c1.1-1.4,2.3-2.8,3.5-4.1L33.3,44.5L33.3,44.5L33.3,44.5z M27.3,51.7c-1.2,1.5-2.3,3.1-3.5,4.7l7.9,5.6l0,0c0,0,0,0,0-0.1l0,0
				c0,0,0,0,0-0.1l0,0c0,0,0,0,0-0.1l0,0c0,0,0,0,0-0.1l0,0c0.9-1.2,1.7-2.4,2.6-3.6l0,0c0,0,0,0,0-0.1l0,0c0,0,0,0,0-0.1l0,0
				c0,0,0,0,0-0.1l0,0c0,0,0,0,0-0.1c0,0,0,0,0,0c0,0,0,0,0,0c0,0,0,0,0,0c0,0,0,0,0,0c0,0,0,0,0,0c0,0,0,0,0,0c0,0,0,0,0,0
				L27.3,51.7L27.3,51.7L27.3,51.7z M21.9,59.3c-1.1,1.6-2.1,3.3-3.1,4.9l8.3,5c0.5-0.8,1-1.7,1.5-2.5l0,0c0,0,0,0,0-0.1
				c0,0,0,0,0,0c0,0,0,0,0-0.1c0,0,0,0,0,0c0,0,0,0,0-0.1c0,0,0,0,0,0c0,0,0,0,0,0l0,0c0,0,0,0,0,0c0,0,0,0,0-0.1c0,0,0,0,0,0
				c0,0,0,0,0-0.1c0,0,0,0,0,0c0,0,0,0,0,0l0,0c0,0,0-0.1,0-0.1l0,0c0.3-0.5,0.6-1,1-1.5L21.9,59.3L21.9,59.3L21.9,59.3z M17,67.2
				c-1,1.7-1.9,3.4-2.8,5.1l8.7,4.4c0.1-0.1,0.1-0.3,0.2-0.4v0c0,0,0,0,0-0.1c0,0,0,0,0,0c0,0,0,0,0-0.1c0,0,0,0,0,0l0,0
				c0,0,0,0,0,0c0,0,0,0,0,0c0,0,0,0,0-0.1c0,0,0,0,0,0c0,0,0,0,0-0.1c0,0,0,0,0,0c0,0,0,0,0-0.1c0,0,0,0,0,0c0,0,0,0,0-0.1
				c0,0,0,0,0,0c0,0,0,0,0-0.1c0,0,0,0,0,0c0,0,0,0,0-0.1c0,0,0,0,0,0c0,0,0,0,0-0.1c0,0,0,0,0,0c0,0,0,0,0-0.1l0,0c0,0,0,0,0-0.1
				l0,0c0,0,0,0,0-0.1l0,0c0,0,0-0.1,0-0.1c0,0,0,0,0,0c0,0,0-0.1,0-0.1l0,0c0,0,0-0.1,0-0.1l0,0c0-0.1,0-0.1,0.1-0.2l0,0
				c0,0,0-0.1,0-0.1l0,0c0,0,0,0,0-0.1l0,0c0,0,0-0.1,0-0.1l0,0c0,0,0-0.1,0-0.1l0,0c0-0.1,0-0.1,0.1-0.1l0,0c0,0,0,0,0-0.1l0,0
				c0,0,0-0.1,0-0.1c0,0,0,0,0,0c0,0,0,0,0-0.1l0,0c0,0,0-0.1,0-0.1l0,0c0,0,0-0.1,0-0.1l0,0c0,0,0-0.1,0-0.1c0,0,0,0,0,0
				c0,0,0,0,0-0.1c0,0,0,0,0,0c0,0,0,0,0-0.1c0,0,0,0,0,0c0,0,0,0,0-0.1l0,0c0,0,0-0.1,0-0.1l0,0c0,0,0,0,0-0.1l0,0c0,0,0,0,0-0.1
				c0,0,0,0,0,0c0,0,0,0,0-0.1c0,0,0,0,0,0c0,0,0,0,0-0.1l0,0c0,0,0-0.1,0-0.1l0,0c0,0,0,0,0-0.1l0,0c0,0,0,0,0-0.1c0,0,0,0,0,0
				c0,0,0,0,0-0.1c0,0,0,0,0,0c0,0,0,0,0-0.1c0,0,0,0,0,0c0,0,0,0,0-0.1c0,0,0,0,0,0c0,0,0-0.1,0-0.1l0,0c0,0,0-0.1,0-0.1l0,0
				c0,0,0-0.1,0-0.1l0,0c0,0,0,0,0-0.1c0,0,0,0,0,0c0,0,0,0,0-0.1l0,0c0,0,0,0,0-0.1l0,0c0-0.1,0-0.1,0.1-0.1l0,0c0,0,0-0.1,0-0.1
				l0,0c0,0,0-0.1,0-0.1l0,0c0-0.1,0.1-0.2,0.2-0.3l-8.5-4.8l0,0L17,67.2z M12.8,75.5c-0.8,1.8-1.6,3.5-2.4,5.3l8.9,3.8
				c0.5-1.1,1-2.2,1.5-3.3l0,0c0,0,0-0.1,0-0.1l0,0c0-0.1,0-0.1,0.1-0.2l0,0c0,0,0,0,0-0.1c0,0,0,0,0,0c0,0,0,0,0-0.1v0
				c0,0,0,0,0-0.1c0,0,0,0,0,0c0,0,0,0,0-0.1c0,0,0,0,0,0c0,0,0,0,0,0c0,0,0,0,0,0c0,0,0,0,0,0c0,0,0,0,0,0c0,0,0,0,0-0.1
				c0,0,0,0,0,0c0,0,0,0,0,0c0,0,0,0,0,0c0,0,0,0,0,0c0,0,0,0,0-0.1c0,0,0,0,0,0c0,0,0-0.1,0-0.1l0,0c0.1-0.2,0.2-0.4,0.3-0.6
				L12.8,75.5C12.8,75.5,12.8,75.5,12.8,75.5z M9.1,84.1c-0.7,1.8-1.4,3.6-2,5.5l9.2,3.1c0-0.2,0.1-0.3,0.2-0.5l0,0c0,0,0-0.1,0-0.1
				l0,0c0,0,0,0,0-0.1c0,0,0,0,0,0c0,0,0,0,0-0.1c0,0,0,0,0,0c0,0,0,0,0-0.1v0c0,0,0,0,0-0.1c0,0,0,0,0,0c0,0,0,0,0-0.1c0,0,0,0,0,0
				c0,0,0,0,0,0c0,0,0,0,0,0c0,0,0,0,0,0c0,0,0,0,0-0.1v0c0,0,0-0.1,0-0.1c0,0,0,0,0,0c0-0.1,0.1-0.2,0.1-0.3l0,0
				c0.4-1.2,0.9-2.3,1.3-3.5L9.1,84.1L9.1,84.1L9.1,84.1z M6,92.8c-0.6,1.8-1.1,3.7-1.6,5.6l9.4,2.5c0.5-1.7,1-3.5,1.5-5.2L6,92.8
				L6,92.8L6,92.8z M3.5,101.8c-0.4,1.9-0.9,3.8-1.2,5.7l9.5,1.8c0.1-0.3,0.1-0.6,0.2-0.9l0,0c0,0,0,0,0,0l0,0c0,0,0,0,0,0
				c0,0,0,0,0,0c0,0,0,0,0,0s0,0,0,0l0,0c0,0,0,0,0-0.1l0,0c0,0,0,0,0-0.1l0,0c0.3-1.4,0.6-2.7,0.9-4.1L3.5,101.8L3.5,101.8
				L3.5,101.8z M1.7,111c-0.3,1.9-0.6,3.8-0.8,5.8l9.6,1.1c0.2-1.8,0.5-3.6,0.7-5.3L1.7,111C1.7,111,1.7,111,1.7,111z M0.5,120.2
				c-0.2,1.9-0.3,3.9-0.4,5.8l9.7,0.4c0.1-1.6,0.2-3.2,0.3-4.8l0,0c0,0,0,0,0-0.1l0,0c0,0,0,0,0-0.1l0,0c0,0,0,0,0-0.1l0,0
				c0-0.1,0-0.1,0-0.2l0,0c0,0,0,0,0-0.1l0,0c0,0,0,0,0-0.1l0,0c0,0,0,0,0-0.1l0,0c0,0,0,0,0-0.1l0,0c0,0,0-0.1,0-0.1L0.5,120.2
				L0.5,120.2L0.5,120.2z M0,129.5c0,0.9,0,1.8,0,2.7c0,1,0,2.1,0,3.1l9.7-0.2c0-0.7,0-1.4,0-2.2l0,0c0-0.1,0-0.1,0-0.2l0,0v0
				c0,0,0,0,0,0v-0.1c0,0,0,0,0,0v-0.1c0,0,0,0,0,0v-0.1c0,0,0,0,0,0v-0.1l0,0v-0.1l0,0V132l0,0c0,0,0-0.1,0-0.1v0c0,0,0,0,0-0.1
				v-0.1c0,0,0,0,0,0v-0.1c0,0,0,0,0,0c0,0,0,0,0-0.1v0c0,0,0,0,0,0s0,0,0,0s0,0,0-0.1c0,0,0,0,0,0v0c0,0,0,0,0,0c0,0,0,0,0-0.1
				c0,0,0,0,0,0v0c0,0,0,0,0-0.1v0c0,0,0,0,0,0v0c0,0,0-0.1,0-0.1v0c0,0,0,0,0,0c0,0,0,0,0,0c0,0,0-0.1,0-0.1v0c0,0,0,0,0-0.1
				c0,0,0,0,0,0s0,0,0,0c0,0,0,0,0,0s0,0,0,0c0,0,0,0,0-0.1c0,0,0,0,0,0c0,0,0,0,0-0.1l0,0c0,0,0-0.1,0-0.1l0,0c0-0.3,0-0.5,0-0.8
				L0,129.5L0,129.5L0,129.5z M9.9,138.4l-9.7,0.5c0.1,1.9,0.2,3.9,0.4,5.8l9.7-0.9C10.1,142,9.9,140.2,9.9,138.4L9.9,138.4
				L9.9,138.4z M10.6,147l-9.6,1.2c0.2,1.9,0.5,3.9,0.8,5.8l9.6-1.6c-0.1-0.5-0.1-0.9-0.2-1.4l0,0c0-0.1,0-0.2,0-0.3l0,0
				c0,0,0,0,0-0.1l0,0c0,0,0,0,0-0.1l0,0c0-0.1,0-0.2,0-0.2l0,0c0,0,0,0,0-0.1l0,0c0,0,0-0.1,0-0.1l0,0c0-0.1,0-0.1,0-0.2l0,0
				c0,0,0,0,0-0.1l0,0c0,0,0,0,0-0.1l0,0c0-0.1,0-0.2,0-0.2l0,0c0,0,0,0,0,0l0,0c0,0,0,0,0-0.1l0,0c0,0,0,0,0-0.1l0,0
				c0-0.1,0-0.1,0-0.2l0,0c0,0,0,0,0-0.1l0,0c0,0,0,0,0-0.1l0,0c0-0.1,0-0.1,0-0.2l0,0c0,0,0,0,0-0.1l0,0c0,0,0,0,0-0.1l0,0
				c0,0,0,0,0-0.1l0,0c0,0,0,0,0-0.1c0,0,0,0,0,0c0-0.1,0-0.1,0-0.1c0,0,0,0,0,0s0,0,0,0c0,0,0,0,0,0c0,0,0,0,0,0c0,0,0,0,0,0
				c0,0,0,0,0,0c0,0,0,0,0,0c0,0,0,0,0,0c0,0,0,0,0,0c0,0,0,0,0,0c0,0,0,0,0,0c0,0,0,0,0,0l0,0c0,0,0,0,0,0v0c0,0,0,0,0,0
				c0,0,0,0,0,0c0,0,0,0,0,0c0,0,0,0,0,0c0,0,0,0,0,0c0,0,0,0,0,0c0,0,0,0,0,0c-0.1-0.4-0.1-0.8-0.1-1.2l0,0L10.6,147z M11.9,155.5
				l-9.5,1.8c0.4,1.9,0.8,3.8,1.2,5.7l9.4-2.3c-0.1-0.6-0.3-1.2-0.4-1.9l0,0c0,0,0,0,0,0l0,0c0,0,0,0,0-0.1l0,0c0,0,0,0,0,0
				c0,0,0,0,0,0s0,0,0,0l0,0c0,0,0,0,0,0l0,0c0,0,0,0,0,0c0,0,0,0,0,0v0c0,0,0,0,0,0c0,0,0,0,0,0c0,0,0,0,0,0c0,0,0,0,0,0
				c0,0,0,0,0,0c0,0,0,0,0,0s0,0,0,0l0,0c-0.2-1-0.4-1.9-0.6-2.9l0,0L11.9,155.5z M13.9,163.9l-9.4,2.5c0.5,1.9,1.1,3.8,1.6,5.6
				l9.3-2.9c-0.1-0.3-0.2-0.6-0.3-0.9l0,0c0,0,0-0.1,0-0.1c0,0,0,0,0,0c0,0,0,0,0-0.1c0,0,0,0,0,0c0,0,0,0,0-0.1c0,0,0,0,0,0
				c0,0,0,0,0,0c0,0,0,0,0,0c0,0,0,0,0,0c0,0,0,0,0-0.1c0,0,0,0,0,0v0c0,0,0,0,0,0c0,0,0-0.1,0-0.1l0,0c0,0,0-0.1,0-0.1l0,0
				C14.6,166.3,14.2,165.1,13.9,163.9L13.9,163.9L13.9,163.9z M16.4,172.2l-9.2,3.2c0.6,1.8,1.3,3.7,2,5.5l9-3.6
				c-0.4-1-0.8-1.9-1.1-2.9l0,0c0,0,0-0.1,0-0.1l0,0c0,0,0-0.1,0-0.1l0,0c0,0,0-0.1,0-0.1l0,0c0,0,0,0,0-0.1c0,0,0,0,0,0
				c0,0,0,0,0-0.1c0,0,0,0,0,0c0,0,0,0,0-0.1c0,0,0,0,0,0c0,0,0,0,0-0.1c0,0,0,0,0,0c0,0,0,0,0-0.1v0c0,0,0,0,0-0.1c0,0,0,0,0,0
				c0,0,0,0,0-0.1c0,0,0,0,0,0c0,0,0,0,0-0.1c0,0,0,0,0,0c0,0,0,0,0-0.1c0,0,0,0,0,0s0,0,0-0.1c0,0,0,0,0,0c0,0,0,0,0-0.1
				c0,0,0,0,0,0c0,0,0,0,0-0.1c0,0,0,0,0,0c0,0,0,0,0-0.1c0,0,0,0,0,0c0,0,0,0,0-0.1v0c0,0,0,0,0-0.1c0,0,0,0,0,0c0,0,0,0,0-0.1v0
				c0,0,0,0,0-0.1c0,0,0,0,0,0c0,0,0,0,0-0.1v0c0,0,0-0.1,0-0.1c0,0,0,0,0,0c0,0,0,0,0-0.1c0,0,0,0,0,0c0,0,0-0.1,0-0.1l0,0
				c0,0,0-0.1,0-0.1l0,0c0,0,0-0.1,0-0.1l0,0c0,0,0-0.1,0-0.1l0,0L16.4,172.2z M19.5,180.2l-8.9,3.8c0.8,1.8,1.6,3.6,2.4,5.3
				l8.8-4.2l0,0c0,0,0-0.1,0-0.1l0,0c0,0,0-0.1,0-0.1l0,0c0-0.1,0-0.1-0.1-0.1c0,0,0,0,0,0c0,0,0,0,0-0.1c0,0,0,0,0,0c0,0,0,0,0-0.1
				c0,0,0,0,0,0c0,0,0,0,0-0.1c0,0,0,0,0,0c0,0,0,0,0-0.1c0,0,0,0,0,0c0,0,0,0,0-0.1c0,0,0,0,0,0c0,0,0,0,0-0.1c0,0,0,0,0,0
				c0,0,0,0,0-0.1c0,0,0,0,0,0c0,0,0,0,0-0.1c0,0,0,0,0,0c0,0,0,0,0,0c0,0,0,0,0,0c0,0,0,0,0,0c0,0,0,0,0,0c0,0,0,0,0,0c0,0,0,0,0,0
				c0,0,0,0,0-0.1c0,0,0,0,0,0c0,0,0,0,0-0.1c0,0,0,0,0,0c0,0,0,0,0,0c0,0,0,0,0,0c0,0,0,0,0,0c0,0,0,0,0,0c0,0,0,0,0,0c0,0,0,0,0,0
				c0,0,0,0,0,0c0,0,0,0,0,0c0,0,0,0,0-0.1c0,0,0,0,0,0c0,0,0,0,0-0.1c0,0,0,0,0,0c0,0,0,0,0,0c0,0,0,0,0,0c0,0,0,0,0,0c0,0,0,0,0,0
				c0,0,0,0,0,0c0,0,0,0,0,0c0,0,0,0,0-0.1c0,0,0,0,0,0c0,0,0,0,0-0.1c0,0,0,0,0,0c0,0,0,0,0-0.1c0,0,0,0,0,0c0,0,0,0,0-0.1
				c0,0,0,0,0,0c0,0,0,0,0-0.1c0,0,0,0,0,0c0,0,0,0,0-0.1c0,0,0,0,0,0c0,0,0,0,0-0.1c0,0,0,0,0,0c0,0,0,0,0-0.1c0,0,0,0,0,0
				c0,0,0,0,0-0.1c0,0,0,0,0,0c0,0,0,0,0-0.1c0,0,0,0,0,0c0,0,0,0,0-0.1c0,0,0,0,0,0c0,0,0,0,0-0.1c0,0,0,0,0,0c0,0,0,0,0-0.1
				c0,0,0,0,0,0c0,0,0,0,0-0.1c0,0,0,0,0,0c0,0,0,0,0-0.1c0,0,0,0,0,0c0,0,0,0,0-0.1c0,0,0,0,0,0c0,0,0,0,0-0.1c0,0,0,0,0,0
				c0,0,0,0,0-0.1c0,0,0,0,0,0c0,0,0,0,0-0.1c0,0,0,0,0,0c0,0,0,0,0-0.1c0,0,0,0,0,0c0,0,0,0,0-0.1c0,0,0,0,0,0c0,0,0,0,0-0.1
				c0,0,0,0,0,0c0,0,0,0,0-0.1c0,0,0,0,0,0c0,0,0,0,0-0.1v0c0,0,0,0,0,0s0,0,0,0c0,0,0,0,0,0c0,0,0,0,0,0c0,0,0,0,0,0c0,0,0,0,0,0
				c0,0,0,0,0,0c0,0,0,0,0,0v0c0,0,0-0.1,0-0.1l0,0c0,0,0-0.1,0-0.1l0,0c-0.1-0.2-0.2-0.4-0.2-0.6l0,0L19.5,180.2z M23.1,188
				l-8.6,4.4c0.9,1.7,1.8,3.4,2.8,5.1l8.4-4.8c-0.7-1.2-1.3-2.4-1.9-3.5l0,0c0,0,0-0.1,0-0.1l0,0c0,0,0-0.1,0-0.1l0,0
				c0,0,0-0.1,0-0.1l0,0c0,0,0-0.1,0-0.1l0,0c0,0,0-0.1,0-0.1l0,0c0,0,0,0,0-0.1c0,0,0,0,0,0c0,0,0-0.1,0-0.1l0,0c0,0,0,0,0-0.1l0,0
				c0-0.1,0-0.1-0.1-0.1l0,0c0,0,0-0.1,0-0.1l0,0c0,0,0-0.1,0-0.1l0,0c0,0,0-0.1,0-0.1l0,0C23.2,188.2,23.2,188.1,23.1,188L23.1,188
				L23.1,188z M27.4,195.6l-8.3,5c1,1.6,2,3.3,3.1,4.9l8.1-5.4C29.3,198.6,28.3,197.1,27.4,195.6C27.4,195.6,27.4,195.6,27.4,195.6z
				 M32.1,202.8l-7.9,5.6c1.1,1.6,2.3,3.1,3.5,4.7l7.7-5.9C34.2,205.7,33.1,204.2,32.1,202.8L32.1,202.8L32.1,202.8z M37.3,209.7
				l-7.5,6.1c1.2,1.5,2.5,3,3.8,4.4l7.2-6.5l0,0c0,0,0,0,0-0.1c0,0,0,0,0,0c0,0,0,0,0-0.1c0,0,0,0,0,0c0,0,0,0,0-0.1c0,0,0,0,0,0
				c0,0,0,0,0-0.1l0,0c0,0,0,0,0-0.1l0,0c0,0,0,0,0-0.1l0,0c0,0,0,0,0-0.1c0,0,0,0,0,0c0,0,0,0,0-0.1c0,0,0,0,0,0c0,0,0,0,0-0.1l0,0
				c0,0,0,0,0-0.1l0,0c0,0,0,0,0-0.1l0,0c0,0,0,0,0-0.1l0,0c0,0,0-0.1,0-0.1l0,0c0,0,0,0,0-0.1l0,0c0,0,0,0,0-0.1l0,0c0,0,0,0,0-0.1
				l0,0c0,0,0,0,0-0.1l0,0c0,0,0,0,0-0.1l0,0c0,0,0,0,0-0.1l0,0c0,0,0,0,0-0.1l0,0c0,0,0,0,0-0.1l0,0c0,0,0,0,0-0.1l0,0
				c0,0-0.1-0.1-0.1-0.1l0,0c0,0,0,0,0-0.1l0,0c0,0,0,0,0-0.1l0,0c0,0,0,0,0-0.1l0,0c0,0,0,0,0-0.1l0,0c0,0,0,0,0-0.1l0,0
				c0,0,0,0,0-0.1l0,0c0,0,0,0,0-0.1c0,0,0,0,0,0c0,0,0,0,0-0.1c0,0,0,0,0,0c0,0,0,0,0-0.1c0,0,0,0,0,0c0,0,0,0,0-0.1c0,0,0,0,0,0
				c0,0,0,0,0-0.1l0,0c0,0,0,0,0-0.1c0,0,0,0,0,0c0,0,0,0,0-0.1c0,0,0,0,0,0c0,0,0,0,0-0.1c0,0,0,0,0,0c0,0,0,0,0-0.1c0,0,0,0,0,0
				c0,0,0,0,0-0.1c0,0,0,0,0,0c0,0,0,0,0,0c0,0,0,0,0,0c0,0,0,0,0,0c0,0,0,0,0,0c0,0,0,0,0,0c0,0,0,0,0,0c0,0,0,0,0-0.1c0,0,0,0,0,0
				c0,0,0,0,0,0c0,0,0,0,0,0c0,0,0,0,0,0c0,0,0,0,0,0c0,0,0,0,0,0l0,0c0,0,0,0,0,0c0,0,0,0,0,0c0,0,0,0,0,0c0,0,0,0,0,0s0,0,0,0
				c0,0,0,0,0,0s0,0,0,0c0,0,0,0,0,0c0,0,0,0,0,0c0,0,0,0,0,0c0,0,0,0,0,0l0-0.1c0,0,0,0,0,0c0,0,0,0,0-0.1c0,0,0,0,0,0
				c0,0,0,0,0-0.1c0,0,0,0,0,0c0,0-0.1-0.1-0.1-0.1c0,0,0,0,0,0l0-0.1l0,0c0,0,0,0,0-0.1l0,0c-0.1-0.1-0.2-0.2-0.2-0.3l0,0
				L37.3,209.7z M43,216.1l-7.1,6.7c1.3,1.4,2.7,2.8,4.1,4.1l6.8-7c-0.1-0.1-0.2-0.2-0.3-0.3l0,0c0,0,0,0,0-0.1c0,0,0,0,0,0s0,0,0,0
				c0,0,0,0,0,0c0,0,0,0,0,0s0,0,0,0l0,0l0,0c0,0,0,0,0,0c0,0,0,0,0,0c0,0,0,0,0,0c0,0,0,0,0-0.1l0,0c0,0,0,0,0-0.1l0,0
				c0,0,0,0,0-0.1l0,0c0,0,0,0,0-0.1l0,0c0,0,0,0-0.1-0.1l0,0c0,0,0,0-0.1-0.1l0,0c-0.4-0.4-0.9-0.9-1.3-1.3l0,0c0,0,0,0-0.1-0.1
				l0,0c0,0,0,0-0.1-0.1l0,0c-0.1-0.1-0.1-0.1-0.2-0.2l0,0c0,0,0,0-0.1-0.1l0,0c0,0,0,0,0-0.1l0,0c0,0,0,0-0.1-0.1l0,0
				c0,0,0,0-0.1-0.1l0,0c0,0,0,0,0-0.1l0,0c0,0,0,0,0-0.1l0,0c0,0,0,0,0-0.1l0,0c0,0,0,0,0-0.1l0,0c0,0,0,0,0-0.1l0,0c0,0,0,0,0-0.1
				l0,0c0,0,0,0,0-0.1l0,0c0,0,0,0,0-0.1l0,0c0,0,0,0,0-0.1c0,0,0,0,0,0c0,0,0,0,0-0.1l0,0c0,0,0,0,0-0.1l0,0c0,0,0,0,0-0.1l0,0
				c0,0,0,0,0-0.1l0,0c0,0,0,0,0-0.1l0,0c0,0,0,0,0-0.1l0,0c0,0,0-0.1,0-0.1l0,0c0,0,0,0,0-0.1l0,0l0,0L43,216.1z M49.1,222.2
				l-6.6,7.1c1.4,1.3,2.9,2.6,4.4,3.9l6.3-7.4c-0.3-0.2-0.6-0.5-0.8-0.7l0,0c0,0,0,0-0.1-0.1l0,0c0,0,0,0-0.1-0.1l0,0
				c0,0,0,0-0.1-0.1c0,0,0,0,0,0c0,0,0,0-0.1-0.1l0,0c0,0,0,0-0.1-0.1l0,0c0,0,0,0,0-0.1c0,0,0,0,0,0c0,0,0,0,0,0c0,0,0,0,0,0
				c0,0,0,0,0,0c0,0,0,0,0,0c0,0,0,0,0,0c0,0,0,0,0,0c0,0,0,0,0,0c0,0,0,0,0,0s0,0,0,0c0,0,0,0,0,0c0,0,0,0,0-0.1c0,0,0,0,0,0l0-0.1
				c0,0,0,0,0,0c0,0,0,0,0-0.1h0c0,0,0,0,0-0.1c0,0,0,0,0,0c0,0,0,0-0.1-0.1l0,0c0,0,0,0,0-0.1l0,0c0,0,0,0-0.1-0.1l0,0
				c0,0,0,0,0-0.1l0,0c0,0,0,0-0.1-0.1l0,0c0,0,0,0-0.1-0.1l0,0c-0.1-0.1-0.1-0.1-0.2-0.2l0,0c0,0,0,0-0.1-0.1l0,0c0,0,0,0-0.1-0.1
				l0,0c0,0,0,0-0.1-0.1l0,0c-0.1-0.1-0.1-0.1-0.2-0.2l0,0c0,0,0,0-0.1-0.1l0,0l-0.1-0.1l0,0c0,0,0,0-0.1-0.1l0,0c0,0,0,0-0.1-0.1
				l0,0c0,0,0,0-0.1-0.1l0,0c0,0,0,0-0.1-0.1l0,0c0,0,0,0,0-0.1c0,0,0,0,0,0c0,0,0,0,0-0.1c0,0,0,0,0,0s0,0,0,0l0,0c0,0,0,0,0,0l0,0
				c0,0,0,0,0,0s0,0,0,0c0,0,0,0,0,0c0,0,0,0-0.1-0.1l0,0c-0.2-0.2-0.3-0.3-0.5-0.5l0,0L49.1,222.2z M55.7,227.9l-6.1,7.6
				c1.5,1.2,3.1,2.4,4.6,3.5l5.7-7.8c-0.4-0.3-0.7-0.5-1.1-0.8c0,0,0,0,0,0l-0.1,0c0,0,0,0,0,0c0,0,0,0,0,0c0,0,0,0,0,0c0,0,0,0,0,0
				c0,0,0,0,0,0c0,0,0,0,0,0c0,0,0,0,0,0c0,0,0,0,0,0c0,0,0,0,0,0c0,0,0,0,0,0c0,0,0,0,0,0c0,0,0,0,0,0c0,0,0,0-0.1,0l0,0
				c0,0,0,0-0.1,0l0,0c0,0,0,0-0.1-0.1l0,0c0,0,0,0-0.1-0.1l0,0c0,0,0,0-0.1-0.1l0,0c0,0,0,0-0.1-0.1l0,0c-0.1-0.1-0.1-0.1-0.2-0.1
				l0,0c-0.3-0.2-0.5-0.4-0.8-0.6l0,0c0,0,0,0-0.1-0.1l0,0c0,0,0,0-0.1-0.1l0,0c-0.1-0.1-0.1-0.1-0.2-0.2l0,0c0,0,0,0-0.1-0.1l0,0
				c0,0,0,0-0.1-0.1l0,0c0,0,0,0-0.1-0.1c0,0,0,0,0,0c0,0,0,0-0.1,0c0,0,0,0,0,0c0,0,0,0-0.1,0c0,0,0,0,0,0c0,0,0,0,0,0c0,0,0,0,0,0
				c0,0,0,0,0,0c0,0,0,0,0,0c0,0,0,0,0,0c0,0,0,0,0,0c0,0,0,0,0,0c0,0,0,0,0,0c0,0,0,0,0,0c0,0,0,0,0,0c0,0,0,0,0,0c0,0,0,0,0,0
				c0,0,0,0,0,0c0,0,0,0,0,0c0,0,0,0,0,0c0,0,0,0-0.1-0.1l0,0C55.8,228,55.7,227.9,55.7,227.9L55.7,227.9L55.7,227.9z M62.6,233
				l-5.5,8c1.6,1.1,3.2,2.2,4.9,3.2l5.2-8.2c-0.1,0-0.1-0.1-0.2-0.1c0,0,0,0,0,0c0,0,0,0,0,0c0,0,0,0,0,0c0,0,0,0,0,0c0,0,0,0-0.1,0
				c0,0,0,0,0,0c0,0,0,0-0.1,0l0,0c0,0,0,0-0.1,0l0,0c-0.7-0.4-1.3-0.9-2-1.3l0,0c0,0,0,0-0.1,0h0c0,0,0,0-0.1-0.1c0,0,0,0,0,0
				c0,0,0,0-0.1,0c0,0,0,0,0,0c0,0,0,0-0.1,0c0,0,0,0,0,0c0,0,0,0-0.1,0c0,0,0,0,0,0c0,0,0,0-0.1,0c0,0,0,0,0,0c0,0,0,0-0.1,0
				c0,0,0,0,0,0c0,0,0,0-0.1,0c0,0,0,0,0,0c0,0,0,0,0,0c0,0,0,0,0,0c0,0,0,0,0,0s0,0,0,0c0,0,0,0,0,0s0,0,0,0c0,0,0,0,0,0
				c0,0,0,0,0,0c0,0,0,0,0,0c0,0,0,0,0,0c0,0,0,0,0,0c0,0,0,0,0,0c0,0,0,0,0,0c0,0,0,0,0,0c0,0,0,0,0,0c0,0,0,0,0,0c0,0,0,0,0,0
				c0,0,0,0,0,0c0,0,0,0,0,0c0,0,0,0,0,0c0,0,0,0,0,0c0,0,0,0,0,0c0,0,0,0,0,0c0,0,0,0,0,0c0,0,0,0,0,0c0,0,0,0,0,0c0,0,0,0,0,0
				c0,0,0,0,0,0c0,0,0,0,0,0c0,0,0,0,0,0c0,0,0,0-0.1,0c0,0,0,0,0,0c0,0,0,0-0.1,0c0,0,0,0,0,0c0,0,0,0-0.1,0l0,0
				C62.8,233.2,62.7,233.1,62.6,233L62.6,233L62.6,233z M69.9,237.7l-4.9,8.4c1.7,1,3.4,1.9,5.1,2.9l4.6-8.6
				c-0.4-0.2-0.9-0.5-1.3-0.7l0,0c0,0,0,0-0.1,0l0,0c0,0,0,0-0.1,0c0,0,0,0,0,0c0,0,0,0-0.1,0c0,0,0,0,0,0c0,0,0,0-0.1,0l0,0
				c0,0,0,0,0,0c0,0,0,0,0,0c0,0,0,0,0,0s0,0,0,0c0,0,0,0,0,0s0,0,0,0c0,0,0,0,0,0c0,0,0,0-0.1,0c0,0,0,0,0,0l-0.1,0c0,0,0,0,0,0
				c0,0-0.1,0-0.1,0l0,0c-0.6-0.4-1.3-0.7-1.9-1.1c0,0,0,0,0,0c0,0,0,0-0.1,0c0,0,0,0,0,0c0,0,0,0-0.1,0c0,0,0,0,0,0c0,0,0,0,0,0
				c0,0,0,0,0,0c0,0,0,0,0,0c0,0,0,0-0.1,0c0,0,0,0,0,0c0,0,0,0-0.1,0c0,0,0,0,0,0c0,0,0,0-0.1,0l0,0
				C70.1,237.8,70,237.8,69.9,237.7L69.9,237.7L69.9,237.7z M77.4,241.8l-4.3,8.7c1.7,0.9,3.5,1.7,5.3,2.5l4-8.9
				c-0.5-0.2-1-0.5-1.5-0.7l0,0c0,0-0.1,0-0.1,0l0,0c0,0,0,0-0.1,0c0,0,0,0,0,0c0,0,0,0-0.1,0c0,0,0,0,0,0c0,0,0,0-0.1,0
				c0,0,0,0,0,0c0,0,0,0-0.1,0c0,0,0,0,0,0c0,0,0,0,0,0c0,0,0,0-0.1,0c0,0,0,0,0,0l-0.1,0l0,0C79.3,242.7,78.4,242.3,77.4,241.8
				L77.4,241.8L77.4,241.8z M85.3,245.4l-3.7,9c1.8,0.7,3.6,1.4,5.4,2.1l3.3-9.1c0,0,0,0,0,0c0,0,0,0,0,0h0c0,0,0,0-0.1,0
				c0,0,0,0,0,0c0,0,0,0-0.1,0c0,0,0,0,0,0c0,0-0.1,0-0.1,0l0,0C88.4,246.7,86.8,246.1,85.3,245.4L85.3,245.4L85.3,245.4z
				 M93.4,248.4l-3.1,9.2c1.8,0.6,3.7,1.2,5.6,1.7l2.7-9.3c-1.5-0.4-3-0.9-4.5-1.4l0,0c0,0-0.1,0-0.1,0l0,0c0,0-0.1,0-0.1,0l0,0
				c0,0-0.1,0-0.1,0l0,0c0,0-0.1,0-0.1,0c0,0,0,0,0,0c0,0,0,0-0.1,0c0,0,0,0,0,0c0,0,0,0-0.1,0c0,0,0,0,0,0s0,0-0.1,0
				C93.5,248.5,93.5,248.5,93.4,248.4C93.4,248.5,93.4,248.5,93.4,248.4L93.4,248.4L93.4,248.4L93.4,248.4z M101.7,250.9l-2.4,9.4
				c1.9,0.5,3.8,0.9,5.7,1.3l2-9.5c-0.9-0.2-1.8-0.4-2.7-0.6l0,0c0,0,0,0,0,0c0,0,0,0,0,0h0c0,0,0,0,0,0c0,0,0,0,0,0c0,0,0,0,0,0
				c0,0,0,0,0,0c0,0,0,0,0,0c0,0,0,0,0,0C103.2,251.3,102.4,251.1,101.7,250.9L101.7,250.9L101.7,250.9z M110.1,252.7l-1.7,9.6
				c1.9,0.4,3.8,0.7,5.8,0.9l1.3-9.6c0,0-0.1,0-0.1,0l0,0c0,0,0,0,0,0l0,0c0,0,0,0,0,0l0,0c0,0,0,0,0,0l0,0c0,0,0,0,0,0l0,0
				c-0.1,0-0.1,0-0.2,0l0,0c0,0,0,0,0,0l0,0c0,0,0,0,0,0c0,0,0,0,0,0s0,0,0,0c0,0,0,0,0,0s0,0,0,0c0,0,0,0,0,0c-0.1,0-0.1,0-0.2,0
				l0,0c0,0,0,0,0,0c0,0,0,0,0,0c0,0,0,0,0,0c0,0,0,0,0,0c0,0,0,0,0,0c0,0,0,0,0,0s0,0,0,0l0,0c-0.1,0-0.1,0-0.2,0l0,0c0,0,0,0,0,0
				h0c0,0,0,0,0,0h0c0,0,0,0,0,0c0,0,0,0,0,0c0,0,0,0,0,0c0,0,0,0,0,0h0c0,0,0,0,0,0c0,0-0.1,0-0.1,0c0,0,0,0,0,0s0,0,0,0
				c0,0,0,0,0,0c0,0,0,0,0,0h0c0,0,0,0,0,0h0c0,0,0,0,0,0c0,0,0,0,0,0s0,0,0,0c0,0,0,0,0,0c0,0-0.1,0-0.1,0l0,0c0,0,0,0,0,0
				c0,0,0,0,0,0s0,0,0,0c0,0,0,0,0,0c0,0,0,0,0,0c0,0,0,0,0,0c0,0,0,0,0,0c0,0,0,0,0,0h0h0c0,0,0,0,0,0c0,0,0,0,0,0c0,0,0,0-0.1,0
				c0,0,0,0,0,0h0c0,0,0,0,0,0h0c0,0,0,0,0,0h0c0,0,0,0,0,0c0,0,0,0,0,0h0h0c0,0,0,0,0,0h0c0,0,0,0,0,0c0,0,0,0,0,0c0,0,0,0,0,0
				c0,0,0,0,0,0c0,0,0,0,0,0c0,0,0,0,0,0s0,0,0,0s0,0,0,0c0,0,0,0,0,0h0c0,0,0,0,0,0h0c0,0,0,0,0,0h0c0,0,0,0,0,0s0,0,0,0
				c0,0,0,0,0,0c0,0,0,0,0,0c0,0,0,0,0,0c0,0,0,0,0,0c0,0,0,0,0,0c0,0,0,0,0,0c0,0,0,0,0,0c0,0,0,0,0,0l0,0c0,0,0,0,0,0l0,0
				c-0.1,0-0.2,0-0.2,0l0,0c-0.7-0.1-1.4-0.2-2.1-0.4l0,0L110.1,252.7z M118.6,254l-1.1,9.7c1.9,0.2,3.9,0.4,5.8,0.5l0.6-9.7
				c-0.7,0-1.3-0.1-2-0.1l0,0c0,0,0,0,0,0l0,0h0c0,0,0,0,0,0s0,0,0,0c0,0,0,0,0,0s0,0,0,0h0c0,0,0,0-0.1,0c0,0,0,0,0,0h0
				c0,0,0,0,0,0c0,0,0,0,0,0c0,0,0,0,0,0c0,0,0,0,0,0c0,0,0,0,0,0c0,0,0,0,0,0s0,0,0,0l0,0C120.6,254.2,119.6,254.1,118.6,254
				L118.6,254L118.6,254z M127.2,254.6l-0.4,9.7c1.8,0.1,3.6,0.1,5.4,0.1h0.4l0-9.7c-0.1,0-0.1,0-0.1,0c0,0,0,0,0,0l0,0
				c-0.1,0-0.2,0-0.2,0h-0.1c0,0-0.1,0-0.1,0h0c0,0,0,0-0.1,0h0c0,0,0,0-0.1,0h0c0,0,0,0-0.1,0l0,0c0,0-0.1,0-0.1,0h0
				c0,0-0.1,0-0.1,0l0,0c0,0,0,0-0.1,0c0,0,0,0,0,0c0,0,0,0-0.1,0l0,0c0,0,0,0-0.1,0l0,0c0,0-0.1,0-0.1,0l0,0c0,0-0.1,0-0.1,0l0,0
				c0,0-0.1,0-0.1,0l0,0c-0.1,0-0.1,0-0.1,0l0,0c0,0-0.1,0-0.1,0l0,0c-0.1,0-0.1,0-0.1,0l0,0c-1.1,0-2.2,0-3.3-0.1l0,0
				c0,0-0.1,0-0.1,0l0,0c0,0-0.1,0-0.1,0l0,0c0,0-0.1,0-0.1,0c0,0,0,0,0,0C127.3,254.6,127.3,254.6,127.2,254.6L127.2,254.6
				L127.2,254.6L127.2,254.6z M141.3,254.4c-1.8,0.1-3.6,0.2-5.4,0.3l0.3,9.7c1.9-0.1,3.9-0.2,5.8-0.3L141.3,254.4L141.3,254.4
				L141.3,254.4z M149.8,253.4c-0.2,0-0.4,0.1-0.6,0.1c0,0,0,0,0,0c0,0,0,0,0,0s0,0,0,0l0,0c0,0,0,0,0,0l0,0
				c-1.6,0.2-3.1,0.4-4.7,0.6l1,9.7c1.9-0.2,3.9-0.4,5.8-0.7L149.8,253.4L149.8,253.4L149.8,253.4z M158.3,251.9
				c-1.5,0.3-3,0.6-4.6,0.9l0,0c-0.1,0-0.1,0-0.1,0c0,0,0,0,0,0c0,0,0,0,0,0c0,0,0,0,0,0c0,0,0,0,0,0c0,0,0,0,0,0c0,0,0,0,0,0
				s0,0,0,0l0,0c-0.1,0-0.3,0.1-0.4,0.1l1.6,9.6c1.9-0.3,3.8-0.7,5.7-1.1L158.3,251.9L158.3,251.9L158.3,251.9z M166.7,249.8
				c-0.2,0.1-0.5,0.1-0.8,0.2c0,0,0,0,0,0c0,0-0.1,0-0.1,0c0,0,0,0,0,0c0,0,0,0,0,0c0,0,0,0-0.1,0c0,0,0,0,0,0c0,0,0,0,0,0
				c0,0,0,0,0,0c0,0,0,0,0,0c0,0,0,0,0,0c0,0,0,0-0.1,0h0c0,0,0,0-0.1,0h0c0,0,0,0-0.1,0c0,0,0,0,0,0c0,0,0,0-0.1,0c0,0,0,0,0,0
				c0,0,0,0-0.1,0l0,0c0,0-0.1,0-0.1,0c0,0,0,0,0,0c0,0-0.1,0-0.1,0l0,0c0,0-0.1,0-0.1,0l0,0c-0.1,0-0.1,0-0.2,0l0,0
				c0,0-0.1,0-0.1,0l0,0c0,0-0.1,0-0.1,0l0,0c-0.4,0.1-0.7,0.2-1.1,0.3l0,0c0,0-0.1,0-0.1,0l0,0c-0.1,0-0.2,0-0.2,0.1l0,0
				c0,0-0.1,0-0.1,0l0,0c0,0-0.1,0-0.1,0l0,0c-0.1,0-0.1,0-0.2,0l0,0c0,0-0.1,0-0.1,0l0,0c0,0-0.1,0-0.1,0c0,0,0,0,0,0
				c0,0-0.1,0-0.1,0l0,0c0,0-0.1,0-0.1,0l0,0c0,0-0.1,0-0.1,0c0,0,0,0,0,0c0,0-0.1,0-0.1,0c0,0,0,0,0,0c0,0-0.1,0-0.1,0h0
				c0,0,0,0-0.1,0c0,0,0,0,0,0c0,0,0,0-0.1,0h0c0,0,0,0-0.1,0c0,0,0,0,0,0c0,0,0,0-0.1,0c0,0,0,0,0,0c0,0,0,0-0.1,0c0,0,0,0,0,0
				c0,0,0,0-0.1,0c0,0,0,0,0,0c0,0,0,0-0.1,0c0,0,0,0,0,0c0,0,0,0-0.1,0c0,0,0,0,0,0c0,0,0,0-0.1,0c0,0,0,0,0,0c0,0,0,0-0.1,0l0,0
				l2.3,9.4c1.9-0.5,3.8-1,5.6-1.5l-2.7-9.3l0,0L166.7,249.8z M174.9,247.1c-1.7,0.6-3.4,1.2-5.1,1.8l3,9.3c1.8-0.6,3.7-1.2,5.5-1.9
				L174.9,247.1L174.9,247.1L174.9,247.1z M182.9,243.8c-1.6,0.7-3.3,1.4-5,2.1l3.6,9c1.8-0.7,3.6-1.5,5.4-2.3L182.9,243.8
				L182.9,243.8L182.9,243.8z M190.6,239.9c-1.4,0.8-2.8,1.5-4.3,2.2l0,0c0,0,0,0-0.1,0c0,0,0,0,0,0c0,0,0,0-0.1,0c0,0,0,0,0,0
				c0,0,0,0-0.1,0c0,0,0,0,0,0c0,0,0,0,0,0c0,0,0,0-0.1,0c0,0,0,0,0,0c-0.1,0-0.1,0.1-0.2,0.1l4.2,8.7c1.7-0.9,3.5-1.7,5.2-2.7
				L190.6,239.9L190.6,239.9L190.6,239.9z M198,235.5L198,235.5c-0.1,0-0.1,0.1-0.1,0.1l0,0c0,0,0,0-0.1,0l0,0c0,0,0,0-0.1,0.1l0,0
				c0,0,0,0-0.1,0l0,0c0,0,0,0-0.1,0l0,0c-0.1,0-0.1,0.1-0.1,0.1l0,0c0,0,0,0-0.1,0c0,0,0,0,0,0c0,0,0,0-0.1,0c0,0,0,0,0,0
				c0,0,0,0-0.1,0l0,0c0,0,0,0-0.1,0l0,0c0,0,0,0-0.1,0l0,0c0,0,0,0-0.1,0c0,0,0,0,0,0c0,0,0,0-0.1,0h0c0,0,0,0-0.1,0h0
				c0,0,0,0-0.1,0.1h0c0,0,0,0-0.1,0c0,0,0,0,0,0c0,0,0,0-0.1,0c0,0,0,0,0,0c0,0,0,0-0.1,0c0,0,0,0,0,0c0,0,0,0-0.1,0c0,0,0,0,0,0
				c0,0,0,0-0.1,0c0,0,0,0,0,0c0,0,0,0-0.1,0c0,0,0,0,0,0c0,0,0,0-0.1,0c0,0,0,0,0,0c0,0,0,0,0,0c0,0,0,0,0,0c0,0,0,0-0.1,0
				c0,0,0,0,0,0c0,0,0,0-0.1,0c0,0,0,0,0,0c0,0,0,0-0.1,0c0,0,0,0,0,0c0,0,0,0,0,0s0,0,0,0c0,0,0,0,0,0c0,0,0,0,0,0c0,0,0,0,0,0
				s0,0,0,0c0,0,0,0,0,0l0,0c0,0,0,0-0.1,0c0,0,0,0,0,0c0,0,0,0-0.1,0c0,0,0,0,0,0c0,0,0,0,0,0c0,0,0,0,0,0c0,0,0,0,0,0c0,0,0,0,0,0
				c0,0,0,0,0,0c0,0,0,0,0,0c0,0,0,0-0.1,0c0,0,0,0,0,0c0,0,0,0-0.1,0c0,0,0,0,0,0c0,0,0,0,0,0c0,0,0,0,0,0l0,0c0,0,0,0,0,0
				c0,0,0,0,0,0c0,0,0,0,0,0s0,0,0,0c0,0,0,0,0,0c0,0,0,0-0.1,0c0,0,0,0,0,0c0,0,0,0-0.1,0c0,0,0,0,0,0c0,0,0,0,0,0c0,0,0,0,0,0
				c0,0,0,0,0,0s0,0,0,0c0,0,0,0,0,0s0,0,0,0c0,0,0,0,0,0c0,0,0,0,0,0c0,0,0,0-0.1,0c0,0,0,0,0,0c0,0,0,0-0.1,0h0c0,0,0,0-0.1,0h0
				c0,0,0,0-0.1,0c0,0,0,0,0,0c0,0,0,0-0.1,0c0,0,0,0,0,0c0,0,0,0-0.1,0c0,0,0,0,0,0c0,0,0,0-0.1,0c0,0,0,0,0,0c0,0,0,0-0.1,0l0,0
				c0,0-0.1,0-0.1,0l0,0c-0.1,0-0.1,0.1-0.1,0.1l0,0c-0.1,0.1-0.2,0.1-0.3,0.2l4.9,8.4c1.7-1,3.4-2,5-3l-5.2-8.2l0,0L198,235.5z
				 M205.1,230.6c-1.4,1.1-2.9,2.1-4.4,3.1l5.4,8.1c1.6-1.1,3.2-2.2,4.8-3.4L205.1,230.6L205.1,230.6L205.1,230.6z M211.9,225.3
				L211.9,225.3C211.9,225.3,211.9,225.3,211.9,225.3L211.9,225.3c-0.1,0.1-0.1,0.1-0.1,0.1c0,0,0,0,0,0c0,0,0,0-0.1,0c0,0,0,0,0,0
				c0,0,0,0,0,0c0,0,0,0,0,0c0,0,0,0,0,0c0,0,0,0,0,0c0,0,0,0,0,0l0,0c0,0,0,0,0,0c0,0,0,0-0.1,0c0,0,0,0,0,0c0,0,0,0-0.1,0.1l0,0
				c0,0,0,0,0,0l0,0c0,0,0,0-0.1,0.1l0,0c0,0,0,0-0.1,0.1l0,0c0,0,0,0-0.1,0.1l0,0c-0.8,0.7-1.6,1.3-2.4,2l0,0
				c-0.1,0.1-0.1,0.1-0.2,0.1c0,0,0,0,0,0c0,0,0,0-0.1,0c0,0,0,0,0,0c0,0,0,0,0,0c0,0,0,0,0,0c0,0,0,0,0,0c0,0,0,0,0,0c0,0,0,0,0,0
				c0,0,0,0,0,0c0,0,0,0,0,0c0,0,0,0-0.1,0c0,0,0,0,0,0c0,0,0,0-0.1,0c0,0,0,0,0,0c0,0,0,0-0.1,0c0,0,0,0,0,0c0,0,0,0-0.1,0l0,0
				c0,0,0,0-0.1,0.1l0,0c0,0,0,0-0.1,0.1l0,0c0,0,0,0-0.1,0.1l0,0l6,7.6c1.5-1.2,3-2.4,4.5-3.7L211.9,225.3L211.9,225.3L211.9,225.3
				z M218.2,219.4c-0.3,0.3-0.6,0.6-1,1l0,0c0,0,0,0-0.1,0c0,0,0,0,0,0c0,0,0,0,0,0l0,0c0,0,0,0,0,0s0,0,0,0c0,0,0,0,0,0
				c0,0,0,0,0,0c0,0,0,0,0,0c0,0,0,0,0,0c0,0,0,0,0,0c0,0,0,0-0.1,0.1l0,0c0,0,0,0-0.1,0.1l0,0c0,0-0.1,0.1-0.1,0.1l0,0
				c0,0,0,0-0.1,0.1l0,0c0,0,0,0-0.1,0.1l0,0c-0.5,0.5-1,0.9-1.5,1.4l0,0c0,0,0,0-0.1,0.1l0,0c0,0,0,0-0.1,0.1l0,0c0,0,0,0-0.1,0.1
				c0,0,0,0,0,0s0,0,0,0c0,0,0,0,0,0c0,0,0,0,0,0c0,0,0,0,0,0c0,0,0,0,0,0c0,0,0,0,0,0l0,0c-0.1,0.1-0.2,0.2-0.4,0.3l6.5,7.2
				c1.4-1.3,2.9-2.6,4.2-4L218.2,219.4L218.2,219.4L218.2,219.4z M224.2,213.1c-1.2,1.4-2.4,2.7-3.6,4l7,6.7
				c1.3-1.4,2.7-2.8,3.9-4.3L224.2,213.1L224.2,213.1L224.2,213.1z M229.6,206.5C229.6,206.5,229.6,206.5,229.6,206.5L229.6,206.5
				c0,0-0.1,0.1-0.1,0.1c0,0,0,0,0,0c0,0,0,0,0,0.1c0,0,0,0,0,0c0,0,0,0,0,0c0,0,0,0,0,0c0,0,0,0,0,0c0,0,0,0,0,0.1c0,0,0,0,0,0
				c0,0,0,0,0,0.1c0,0,0,0,0,0c0,0,0,0,0,0.1c0,0,0,0,0,0c0,0,0,0,0,0.1c0,0,0,0,0,0c0,0,0,0,0,0.1l0,0c0,0,0,0-0.1,0.1l0,0
				c0,0,0,0.1-0.1,0.1l0,0c-0.9,1.2-1.9,2.3-2.8,3.5l7.5,6.2c1.2-1.5,2.5-3,3.6-4.6L229.6,206.5L229.6,206.5L229.6,206.5z
				 M234.6,199.4c-0.1,0.2-0.2,0.4-0.4,0.6l0,0c0,0,0,0.1,0,0.1l0,0c0,0,0,0,0,0.1c0,0,0,0,0,0c0,0,0,0,0,0.1l0,0c0,0,0,0,0,0.1
				c0,0,0,0,0,0c0,0,0,0,0,0c0,0,0,0,0,0c0,0,0,0,0,0c0,0,0,0-0.1,0.1l0,0c-0.6,0.9-1.3,1.9-1.9,2.8v0c0,0,0,0,0,0.1c0,0,0,0,0,0
				c0,0,0,0,0,0c0,0,0,0,0,0c0,0,0,0,0,0c0,0,0,0,0,0.1c0,0,0,0,0,0c0,0,0,0,0,0.1l0,0c0,0,0,0-0.1,0.1l0,0
				c-0.1,0.1-0.1,0.2-0.2,0.3l7.9,5.7c1.1-1.6,2.2-3.2,3.3-4.8L234.6,199.4L234.6,199.4L234.6,199.4z M239.1,192.1
				c-0.5,0.9-1,1.7-1.5,2.6l0,0c0,0,0,0.1,0,0.1l0,0c0,0,0,0,0,0.1l0,0c0,0,0,0,0,0.1c0,0,0,0,0,0c0,0,0,0,0,0.1c0,0,0,0,0,0
				c0,0,0,0,0,0.1c0,0,0,0,0,0c0,0,0,0,0,0.1c0,0,0,0,0,0c0,0,0,0,0,0.1c0,0,0,0,0,0c0,0,0,0,0,0c0,0,0,0,0,0.1c0,0,0,0,0,0
				c0,0,0,0,0,0.1c0,0,0,0,0,0c-0.3,0.5-0.6,0.9-0.9,1.4l8.2,5.1c1-1.6,2-3.3,3-5L239.1,192.1L239.1,192.1L239.1,192.1z
				 M243.1,184.4c-0.3,0.6-0.6,1.3-0.9,1.9l0,0c0,0.1-0.1,0.1-0.1,0.2l0,0c0,0,0,0.1,0,0.1c0,0,0,0,0,0c0,0,0,0,0,0.1c0,0,0,0,0,0
				c0,0,0,0,0,0.1c0,0,0,0,0,0c0,0,0,0,0,0c0,0,0,0,0,0c0,0,0,0,0,0c0,0,0,0,0,0c0,0,0,0,0,0.1c0,0,0,0,0,0l0,0.1c0,0,0,0,0,0l0,0.1
				c0,0,0,0,0,0c0,0,0,0,0,0c0,0,0,0,0,0.1c0,0,0,0,0,0c0,0,0,0,0,0.1c0,0,0,0,0,0c0,0,0,0,0,0s0,0,0,0c0,0,0,0,0,0c0,0,0,0,0,0
				c0,0,0,0,0,0.1c0,0,0,0,0,0c0,0,0,0,0,0.1c0,0,0,0,0,0c0,0,0,0,0,0.1c0,0,0,0,0,0c0,0,0,0,0,0.1c0,0,0,0,0,0c0,0,0,0,0,0.1
				c0,0,0,0,0,0c0,0,0,0,0,0.1c0,0,0,0,0,0c0,0,0,0,0,0.1c0,0,0,0,0,0c0,0,0,0,0,0.1c0,0,0,0,0,0c0,0,0,0,0,0.1l0,0c0,0,0,0.1,0,0.1
				l0,0c0,0,0,0.1,0,0.1l0,0c0,0,0,0.1,0,0.1l0,0c0,0,0,0.1,0,0.1l0,0c0,0,0,0.1,0,0.1l0,0c-0.1,0.2-0.2,0.4-0.4,0.7l8.6,4.5
				c0.9-1.7,1.8-3.5,2.6-5.2L243.1,184.4L243.1,184.4L243.1,184.4z M246.5,176.4c0,0.1-0.1,0.2-0.1,0.2l0,0c0,0,0,0.1,0,0.1l0,0
				c0,0.1-0.1,0.2-0.1,0.2l0,0c0,0,0,0,0,0.1c0,0,0,0,0,0c0,0,0,0.1,0,0.1c0,0,0,0,0,0c0,0,0,0,0,0.1c0,0,0,0,0,0c0,0,0,0.1,0,0.1
				l0,0c0,0,0,0,0,0.1c0,0,0,0,0,0c0,0,0,0,0,0.1c0,0,0,0,0,0c0,0,0,0,0,0.1c0,0,0,0,0,0c0,0,0,0,0,0.1c0,0,0,0,0,0c0,0,0,0,0,0.1v0
				c0,0,0,0,0,0.1c0,0,0,0,0,0c0,0,0,0,0,0.1c0,0,0,0,0,0c0,0,0,0,0,0.1c0,0,0,0,0,0c0,0,0,0,0,0.1c0,0,0,0,0,0c0,0,0,0,0,0.1
				c0,0,0,0,0,0c0,0,0,0,0,0.1l0,0c0,0,0,0.1,0,0.1c0,0,0,0,0,0c0,0,0,0,0,0.1c0,0,0,0,0,0c0,0,0,0,0,0.1c0,0,0,0,0,0c0,0,0,0,0,0.1
				c0,0,0,0,0,0c0,0,0,0,0,0.1l0,0c0,0,0,0.1,0,0.1c0,0,0,0,0,0c0,0,0,0,0,0.1c0,0,0,0,0,0c0,0,0,0,0,0.1c0,0,0,0,0,0
				c0,0,0,0.1,0,0.1l0,0c0,0,0,0.1,0,0.1l0,0c0,0,0,0.1,0,0.1l0,0c0,0,0,0.1,0,0.1l0,0c0,0,0,0.1,0,0.1l0,0c0,0,0,0.1,0,0.1l0,0
				c-0.3,0.7-0.6,1.4-0.9,2.2l8.9,3.9c0.8-1.8,1.5-3.6,2.2-5.4l-9.1-3.5l0,0L246.5,176.4z M249.3,168.3
				C249.3,168.3,249.3,168.3,249.3,168.3L249.3,168.3c0,0,0,0.1,0,0.1v0c0,0,0,0,0,0c0,0,0,0,0,0.1c0,0,0,0,0,0c0,0,0,0,0,0.1
				c0,0,0,0,0,0c0,0,0,0.1,0,0.1l0,0c0,0,0,0.1,0,0.1l0,0c0,0,0,0.1,0,0.1l0,0c0,0,0,0.1,0,0.1l0,0c-0.3,0.9-0.6,1.8-0.9,2.7l0,0
				c0,0,0,0.1,0,0.1l0,0c0,0.1,0,0.1-0.1,0.2l0,0c0,0,0,0.1,0,0.1l0,0c0,0,0,0.1,0,0.1l0,0c0,0,0,0.1,0,0.1l0,0c0,0,0,0.1,0,0.1l0,0
				c0,0,0,0.1,0,0.1l0,0c0,0,0,0.1,0,0.1c0,0,0,0,0,0c0,0,0,0,0,0.1c0,0,0,0,0,0c0,0,0,0,0,0.1c0,0,0,0,0,0c0,0,0,0.1,0,0.1l0,0
				c0,0,0,0,0,0.1c0,0,0,0,0,0c0,0,0,0.1,0,0.1c0,0,0,0,0,0c0,0,0,0.1,0,0.1c0,0,0,0,0,0c0,0,0,0,0,0.1l0,0c0,0.1,0,0.1-0.1,0.1l0,0
				c0,0,0,0.1,0,0.1l0,0c0,0,0,0.1,0,0.1l0,0c0,0.1,0,0.1-0.1,0.2l9.1,3.3c0.6-1.8,1.3-3.7,1.8-5.5l-9.3-2.9l0,0L249.3,168.3z
				 M251.6,159.9c-0.3,1.3-0.6,2.5-0.9,3.8c0,0,0,0,0,0c0,0,0,0,0,0.1c0,0,0,0,0,0c0,0,0,0,0,0.1c0,0,0,0,0,0c0,0,0,0,0,0
				c0,0,0,0,0,0.1c0,0,0,0,0,0c0,0,0,0.1,0,0.1c0,0,0,0,0,0c-0.1,0.4-0.2,0.7-0.3,1.1l9.4,2.6c0.5-1.9,1-3.8,1.4-5.6L251.6,159.9
				L251.6,159.9L251.6,159.9z M253.2,151.5c-0.3,1.8-0.6,3.6-1,5.3l9.5,1.9c0.4-1.9,0.7-3.8,1-5.7L253.2,151.5L253.2,151.5
				L253.2,151.5z M254.2,142.9c-0.1,0.9-0.2,1.8-0.3,2.7l0,0c0,0,0,0,0,0l0,0c0,0,0,0,0,0l0,0c0,0,0,0,0,0l0,0c0,0.1,0,0.1,0,0.1
				c0,0,0,0,0,0s0,0,0,0c0,0,0,0,0,0c0,0,0,0,0,0c0,0,0,0,0,0c0,0,0,0,0,0c0,0,0,0,0,0c0,0,0,0,0,0c0,0,0,0,0,0c0,0,0,0,0,0l0,0
				c0,0,0,0.1,0,0.1c0,0,0,0,0,0c0,0,0,0,0,0c0,0,0,0,0,0c0,0,0,0,0,0c0,0,0,0,0,0c0,0,0,0,0,0c0,0,0,0,0,0c0,0,0,0,0,0c0,0,0,0,0,0
				c0,0,0,0,0,0c0,0,0,0,0,0c0,0,0,0.1,0,0.1l0,0c0,0,0,0,0,0c0,0,0,0,0,0s0,0,0,0l0,0v0l0,0c0,0,0,0,0,0l0,0c0,0.1,0,0.1,0,0.2l0,0
				c-0.1,0.4-0.1,0.9-0.2,1.3l9.6,1.3c0.2-1.9,0.5-3.9,0.6-5.8L254.2,142.9L254.2,142.9L254.2,142.9z M254.7,134.3
				c0,0.4,0,0.7,0,1.1l0,0c0,0.1,0,0.1,0,0.1c0,0,0,0,0,0s0,0,0,0c0,0,0,0,0,0v0c0,0,0,0,0,0c0,0,0,0,0,0c0,0,0,0,0,0v0v0l0,0
				c0,0,0,0.1,0,0.1l0,0c0,0,0,0,0,0l0,0c0,0,0,0,0,0l0,0c0,0,0,0,0,0l0,0c0,1.2-0.1,2.5-0.2,3.7l9.7,0.6c0.1-1.9,0.2-3.9,0.2-5.8
				L254.7,134.3L254.7,134.3L254.7,134.3z M264.2,125.1l-9.7,0.5c0,0.6,0.1,1.2,0.1,1.8l0,0c0,0,0,0,0,0c0,0,0,0,0,0c0,0,0,0,0,0
				c0,0,0,0,0,0c0,0,0,0,0,0v0v0c0,0,0,0,0,0.1c0,0,0,0,0,0c0,0,0,0,0,0c0,0,0,0,0,0s0,0,0,0c0,0,0,0,0,0v0l0,0c0,0,0,0,0,0l0,0
				c0,0.6,0,1.3,0.1,1.9l0,0c0,0,0,0,0,0c0,0,0,0,0,0c0,0,0,0,0,0c0,0,0,0,0,0v0c0,0,0,0,0,0v0c0,0.4,0,0.7,0,1.1l9.7-0.1
				C264.4,129,264.3,127,264.2,125.1L264.2,125.1L264.2,125.1z M263.4,115.9l-9.6,1.2c0,0,0,0,0,0c0,0,0,0,0,0
				c0.2,1.8,0.4,3.5,0.5,5.3l9.7-0.8C263.9,119.7,263.7,117.8,263.4,115.9L263.4,115.9L263.4,115.9z M262,106.7l-9.5,1.9
				c0.3,1.3,0.5,2.7,0.7,4l0,0v0c0,0,0,0,0,0s0,0,0,0c0,0,0,0,0,0v0v0c0,0,0,0,0,0c0,0,0,0,0,0c0,0,0,0,0,0c0,0,0,0,0,0c0,0,0,0,0,0
				c0.1,0.4,0.1,0.7,0.2,1.1l9.6-1.4C262.6,110.5,262.3,108.6,262,106.7L262,106.7L262,106.7z M259.8,97.6l-9.4,2.5
				c0.1,0.3,0.2,0.6,0.2,0.9l0,0c0,0,0,0.1,0,0.1c0,0,0,0,0,0c0,0,0,0,0,0v0c0,0,0,0,0,0c0,0,0,0,0,0c0,0,0,0,0,0s0,0,0,0l0,0
				c0,0,0,0,0,0.1l0,0c0.2,0.9,0.5,1.8,0.7,2.8l0,0c0,0,0,0,0,0v0c0,0,0,0,0,0c0,0,0,0,0,0c0,0,0,0,0,0c0,0,0,0,0,0c0,0,0,0,0,0
				s0,0,0,0l0,0c0.1,0.3,0.2,0.7,0.2,1.1l9.5-2.1c-0.4-1.9-0.9-3.8-1.4-5.7l0,0L259.8,97.6z M257.1,88.7l-9.2,3.2
				c0,0.1,0.1,0.2,0.1,0.3l0,0c0,0,0,0.1,0,0.1c0,0,0,0,0,0c0,0,0,0,0,0.1c0,0,0,0,0,0c0,0,0,0,0,0.1c0,0,0,0,0,0c0,0,0,0,0,0
				c0.4,1.2,0.8,2.5,1.2,3.8l0,0c0,0,0,0.1,0,0.1v0c0,0,0,0,0,0.1c0,0,0,0,0,0s0,0,0,0c0,0,0,0,0,0.1c0,0,0,0,0,0c0,0,0,0,0,0.1
				c0,0,0,0,0,0c0,0,0,0,0,0.1c0,0,0,0,0,0c0,0,0,0,0,0.1c0,0,0,0,0,0c0,0,0,0,0,0.1c0,0,0,0,0,0c0,0,0,0.1,0,0.1l0,0
				c0,0,0,0.1,0,0.1l9.3-2.8C258.3,92.3,257.7,90.5,257.1,88.7L257.1,88.7L257.1,88.7z M253.7,80l-8.9,3.8c0.1,0.3,0.3,0.6,0.4,1
				c0,0,0,0,0,0c0,0,0,0,0,0.1c0,0,0,0,0,0c0,0,0,0,0,0.1c0,0,0,0,0,0c0,0,0,0,0,0.1c0,0,0,0,0,0c0,0,0,0,0,0c0,0,0,0,0,0.1
				c0,0,0,0,0,0c0,0,0,0,0,0.1c0,0,0,0,0,0c0,0,0,0,0,0c0,0,0,0,0,0c0,0,0,0,0,0.1v0c0,0,0,0,0,0.1v0c0,0,0,0,0,0.1c0,0,0,0,0,0
				c0,0,0,0,0,0.1c0,0,0,0,0,0c0,0,0,0,0,0.1v0c0,0,0,0,0,0.1c0,0,0,0,0,0c0,0,0,0,0,0.1v0c0,0,0,0,0,0.1c0,0,0,0,0,0c0,0,0,0,0,0.1
				c0,0,0,0,0,0c0,0,0,0,0,0.1c0,0,0,0,0,0c0,0,0,0,0,0.1v0c0,0,0,0,0,0.1v0c0,0,0,0,0,0.1v0c0,0,0,0,0,0.1c0,0,0,0,0,0c0,0,0,0,0,0
				c0,0,0,0,0,0c0,0,0,0,0,0c0,0,0,0,0,0c0,0,0,0,0,0.1c0,0,0,0,0,0c0,0,0,0,0,0.1c0,0,0,0,0,0c0,0,0,0,0,0c0,0,0,0,0,0.1
				c0,0,0,0,0,0c0,0,0,0,0,0.1c0,0,0,0,0,0c0,0,0,0,0,0.1v0c0,0,0,0,0,0.1c0,0,0,0,0,0c0,0,0,0,0,0v0c0,0,0,0,0,0.1c0,0,0,0,0,0
				s0,0.1,0,0.1c0,0,0,0,0,0c0,0,0,0.1,0,0.1l0,0c0.2,0.5,0.4,1,0.6,1.4l9.1-3.4c-0.7-1.8-1.4-3.6-2.2-5.4l0,0L253.7,80z
				 M249.7,71.6l-8.6,4.5c0.8,1.6,1.6,3.2,2.4,4.8l8.8-4.1C251.5,75,250.6,73.3,249.7,71.6C249.7,71.6,249.7,71.6,249.7,71.6z
				 M245.1,63.4l-8.3,5.1c0.1,0.2,0.2,0.3,0.3,0.5l0,0c0,0,0,0,0,0.1c0,0,0,0,0,0c0,0,0,0,0,0.1c0,0,0,0,0,0c0,0,0,0,0,0.1
				c0,0,0,0,0,0c0,0,0,0,0,0.1c0,0,0,0,0,0c0,0,0,0,0,0c0,0,0,0,0,0c0,0,0,0,0,0s0,0,0,0c0,0,0,0,0,0c0,0,0,0,0,0c0,0,0,0,0,0
				c0,0,0,0,0,0c0,0,0,0,0,0c0,0,0,0,0,0.1c0,0,0,0,0,0c0,0,0,0,0,0.1c0,0,0,0,0,0c0,0,0,0,0,0.1c0,0,0,0,0,0c0,0,0,0,0,0.1
				c0,0,0,0,0,0c0,0,0.1,0.1,0.1,0.1c0,0,0,0,0,0c0,0,0,0.1,0,0.1l0,0c0,0,0,0.1,0,0.1l0,0c0,0,0,0.1,0,0.1l0,0
				c0.1,0.1,0.1,0.2,0.2,0.3l0,0c0,0,0,0.1,0,0.1l0,0c0.1,0.1,0.1,0.2,0.2,0.3l0,0c0,0,0,0.1,0,0.1l0,0c0,0,0,0.1,0,0.1l0,0
				c0.1,0.1,0.1,0.2,0.2,0.3l0,0c0,0,0,0.1,0,0.1l0,0c0,0,0,0.1,0,0.1l0,0c0,0,0,0.1,0,0.1l0,0c0,0,0.1,0.1,0.1,0.1l0,0
				c0,0,0,0.1,0,0.1c0,0,0,0,0,0c0,0,0,0,0,0.1c0,0,0,0,0,0c0,0,0,0,0,0.1l0,0c0,0,0,0.1,0,0.1l0,0c0,0,0,0.1,0.1,0.1c0,0,0,0,0,0
				c0,0,0,0,0,0.1c0,0,0,0,0,0c0,0,0,0,0,0.1c0,0,0,0,0,0c0,0,0,0,0,0.1c0,0,0,0,0,0c0,0,0,0.1,0.1,0.1c0,0,0,0,0,0c0,0,0,0.1,0,0.1
				c0,0,0,0,0,0l0,0.1c0,0,0,0,0,0l0,0.1l0,0c0.1,0.1,0.1,0.2,0.2,0.3l0,0c0,0,0,0.1,0.1,0.1l8.5-4.7c-0.9-1.7-1.9-3.4-2.9-5l0,0
				L245.1,63.4z M240,55.7l-7.9,5.6c0.1,0.2,0.3,0.4,0.4,0.5l0,0c0.1,0.1,0.1,0.2,0.2,0.3l0,0c0,0,0,0,0,0.1l0,0c0,0,0,0,0,0.1
				c0,0,0,0,0,0c0,0,0,0,0,0.1c0,0,0,0,0,0c0,0,0,0,0,0.1c0,0,0,0,0,0c0,0,0,0,0,0c0,0,0,0,0,0c0,0,0,0,0,0c0,0,0,0,0,0c0,0,0,0,0,0
				c0,0,0,0,0,0c0,0,0,0,0,0c0,0,0,0,0,0c0,0,0,0,0,0c0,0,0,0,0,0c0,0,0,0,0,0c0,0,0,0,0,0c0,0,0,0,0,0c0,0,0,0,0,0c0,0,0,0,0,0
				c0,0,0,0,0,0c0,0,0,0,0,0c0,0,0,0,0,0c0,0,0,0,0,0c0,0,0,0,0,0c0,0,0,0,0,0c0,0,0,0,0,0.1l0,0c0,0,0,0,0.1,0.1l0,0
				c0,0,0,0,0.1,0.1l0,0c0.5,0.8,1.1,1.6,1.6,2.4l8.2-5.3C242.2,58.8,241.1,57.2,240,55.7L240,55.7L240,55.7z M234.4,48.3l-7.5,6.2
				c0.1,0.2,0.3,0.4,0.5,0.6c0,0,0,0,0,0c0,0,0,0,0,0c0,0,0,0,0,0c0,0,0,0,0,0c0,0,0,0,0,0c0,0,0,0,0,0c0,0,0,0,0,0c0,0,0,0,0,0
				c0,0,0.1,0.1,0.1,0.1l0,0c0.6,0.8,1.3,1.6,1.9,2.5l0,0c0,0,0,0,0.1,0.1l0,0c0,0,0,0,0.1,0.1l0,0c0,0,0,0,0,0.1c0,0,0,0,0,0
				c0,0,0,0,0,0c0,0,0,0,0,0c0,0,0,0,0,0c0,0,0,0,0,0c0,0,0,0,0,0c0,0,0,0,0,0c0,0,0,0,0,0c0,0,0,0,0,0c0,0,0,0,0,0c0,0,0,0,0,0
				c0,0,0,0,0,0c0,0,0,0,0,0c0,0,0,0,0,0c0,0,0,0,0,0c0,0,0,0,0,0c0,0,0,0,0.1,0.1l0,0c0,0,0,0.1,0.1,0.1l7.8-5.8
				C236.8,51.3,235.6,49.7,234.4,48.3L234.4,48.3L234.4,48.3z M228.2,41.3l-7.1,6.7c0.7,0.7,1.3,1.4,1.9,2.1l0,0c0,0,0,0,0.1,0.1
				l0,0c0,0,0,0,0.1,0.1l0,0c0,0,0.1,0.1,0.1,0.1l0,0c0,0,0,0,0.1,0.1l0,0c0,0,0,0,0.1,0.1l0,0c0,0,0,0,0.1,0l0,0c0,0,0,0,0.1,0l0,0
				c0,0,0,0,0.1,0l0,0c0,0,0,0,0.1,0l0,0c0,0,0,0,0.1,0c0,0,0,0,0,0c0,0,0,0,0.1,0c0,0,0,0,0,0c0,0,0,0,0.1,0c0,0,0,0,0,0
				c0,0,0,0,0.1,0c0,0,0,0,0,0c0,0,0,0,0.1,0c0,0,0,0,0,0s0,0,0,0c0,0,0,0,0,0s0,0,0,0c0,0,0,0,0,0s0,0,0,0c0,0,0,0,0,0c0,0,0,0,0,0
				c0,0,0,0,0,0c0,0,0,0,0,0c0,0,0,0,0,0c0,0,0,0,0,0c0,0,0,0,0,0c0,0,0,0,0,0c0,0,0,0,0,0c0,0,0,0,0,0c0,0,0,0,0,0c0,0,0,0,0,0
				c0,0,0,0,0,0c0,0,0,0,0,0c0,0,0,0,0,0c0,0,0,0,0,0c0,0,0,0,0,0c0,0,0,0,0,0c0,0,0,0,0,0c0,0,0,0,0,0c0,0,0,0,0,0s0,0,0,0
				c0,0,0,0,0,0s0,0,0,0c0,0,0,0,0,0l7.3-6.4C230.8,44,229.5,42.6,228.2,41.3L228.2,41.3L228.2,41.3z M221.6,34.8l-6.6,7.2l0,0
				c0,0,0.1,0.1,0.1,0.1l0,0c0,0,0,0,0.1,0l0,0c0,0,0,0,0.1,0.1h0c0,0,0,0,0.1,0.1c0,0,0,0,0,0c0,0,0,0,0.1,0c0,0,0,0,0,0s0,0,0,0
				c0,0,0,0,0,0c0,0,0,0,0,0c0,0,0,0,0,0c0,0,0,0,0,0c0,0,0,0,0,0c0,0,0,0,0,0c0,0,0,0,0,0c0,0,0,0,0,0c0,0,0,0,0,0c0,0,0,0,0.1,0
				c0,0,0,0,0,0c0,0,0,0,0,0c0,0,0,0,0,0c0,0,0,0,0,0c0,0,0,0,0,0c0,0,0,0,0,0c0,0,0,0,0,0c0,0,0,0,0,0c0,0,0,0,0,0c0,0,0,0,0,0
				c0,0,0,0,0,0c0,0,0,0,0,0c0,0,0,0,0,0c0,0,0,0,0,0c0,0,0,0,0,0c0,0,0,0,0,0c0,0,0,0,0,0c0,0,0,0,0,0l0,0c0,0,0,0,0.1,0
				c0,0,0,0,0,0c0,0,0,0,0.1,0c0,0,0,0,0,0s0,0,0.1,0c0,0,0,0,0,0c0,0,0,0,0.1,0l0,0c0,0,0,0,0.1,0l0,0c0,0,0,0,0.1,0l0,0
				c0,0,0,0,0.1,0.1l0,0c0,0,0,0,0.1,0l0,0c0,0,0,0,0.1,0l0,0c0.7,0.7,1.4,1.3,2.1,2l6.9-6.9C224.3,37.4,222.9,36.1,221.6,34.8
				L221.6,34.8L221.6,34.8z M214.5,28.7l-6.1,7.6c1.2,1,2.4,2,3.6,3l0,0c0,0,0,0,0.1,0l0,0c0,0,0,0,0.1,0c0,0,0,0,0,0c0,0,0,0,0,0
				c0,0,0,0,0,0c0,0,0,0,0,0c0.1,0.1,0.2,0.2,0.3,0.3l6.4-7.3C217.5,31.1,216,29.9,214.5,28.7L214.5,28.7L214.5,28.7z M207,23.2
				l-5.5,8c0.8,0.6,1.7,1.2,2.5,1.7l0,0c0,0,0,0,0.1,0l0,0c0,0,0,0,0.1,0l0,0c0,0,0,0,0.1,0l0,0c0,0,0,0,0.1,0l0,0c0,0,0,0,0.1,0
				c0,0,0,0,0,0c0,0,0,0,0.1,0c0,0,0,0,0,0c0,0,0,0,0.1,0c0,0,0,0,0,0c0,0,0,0,0.1,0c0,0,0,0,0,0c0,0,0,0,0,0c0,0,0,0,0,0
				c0,0,0,0,0,0c0,0,0,0,0,0c0,0,0,0,0,0c0,0,0,0,0,0c0,0,0,0,0,0c0,0,0,0,0,0c0,0,0,0,0,0c0,0,0,0,0,0c0,0,0,0,0,0c0,0,0,0,0,0
				c0,0,0,0,0,0s0,0,0,0c0,0,0,0,0,0c0,0,0,0,0,0c0,0,0,0,0,0c0,0,0,0,0,0c0,0,0,0,0,0c0,0,0,0,0,0c0,0,0,0,0,0c0,0,0,0,0,0
				c0,0,0,0,0,0c0,0,0,0,0,0l0,0c0,0,0,0,0,0c0,0,0,0,0,0c0,0,0,0,0,0c0,0,0,0,0.1,0c0,0,0,0,0,0c0,0,0,0,0.1,0c0,0,0,0,0,0
				c0,0,0,0,0.1,0l0,0l0.1,0l0,0c0,0,0.1,0.1,0.1,0.1l5.9-7.8C210.1,25.3,208.5,24.2,207,23.2L207,23.2L207,23.2z M199.1,18.2
				l-4.9,8.4l0,0c0,0,0.1,0,0.1,0l0,0c0.1,0,0.1,0.1,0.2,0.1l0,0c0,0,0.1,0,0.1,0l0,0c0,0,0.1,0,0.1,0l0,0c0,0,0.1,0,0.1,0l0,0
				c0.1,0,0.1,0.1,0.2,0.1l0,0c0,0,0.1,0,0.1,0l0,0c0,0,0.1,0,0.1,0l0,0c0,0,0.1,0,0.1,0l0,0c0.1,0,0.1,0.1,0.2,0.1l0,0
				c0.1,0,0.1,0.1,0.1,0.1l0,0c1.1,0.7,2.2,1.4,3.3,2.1l5.3-8.1C202.4,20.2,200.8,19.1,199.1,18.2L199.1,18.2L199.1,18.2z
				 M190.9,13.7l-4.3,8.7c1.6,0.8,3.2,1.6,4.8,2.5l4.7-8.5C194.4,15.5,192.7,14.6,190.9,13.7L190.9,13.7L190.9,13.7z M182.4,9.9
				l-3.7,9c0.6,0.2,1.2,0.5,1.7,0.7l0,0c0,0,0.1,0,0.1,0c0,0,0,0,0,0c0,0,0.1,0,0.1,0c0,0,0,0,0,0c0,0,0,0,0.1,0c0,0,0,0,0,0
				c0,0,0,0,0,0c0,0,0,0,0.1,0h0c0,0,0,0,0,0h0c0,0,0,0,0,0c0,0,0,0,0,0c0,0,0,0,0.1,0c0,0,0,0,0,0c0,0,0,0,0.1,0c0,0,0,0,0,0
				c0,0,0,0,0.1,0c0,0,0,0,0,0c0,0,0,0,0.1,0l0,0c0.1,0,0.1,0.1,0.2,0.1l0,0c0.7,0.3,1.4,0.6,2.1,1l4.1-8.8
				C186,11.4,184.2,10.6,182.4,9.9L182.4,9.9L182.4,9.9z M173.7,6.6l-3.1,9.2c0.2,0.1,0.4,0.1,0.7,0.2c0,0,0,0,0,0c0,0,0,0,0.1,0
				c0,0,0,0,0,0c0,0,0,0,0.1,0c0,0,0,0,0,0c0,0,0,0,0,0c0,0,0,0,0.1,0c0,0,0,0,0,0c0,0,0,0,0.1,0h0c0,0,0,0,0.1,0c0,0,0,0,0,0
				c0,0,0,0,0.1,0c0,0,0,0,0,0c0,0,0,0,0.1,0c0,0,0,0,0,0c0,0,0.1,0,0.1,0c0,0,0,0,0,0c0,0,0,0,0.1,0c0,0,0,0,0,0c0,0,0,0,0.1,0l0,0
				c0.1,0,0.1,0,0.1,0l0,0c0,0,0.1,0,0.1,0l0,0c0,0,0.1,0,0.1,0l0,0c1.1,0.4,2.2,0.8,3.2,1.2l3.4-9.1C177.4,7.8,175.5,7.2,173.7,6.6
				L173.7,6.6L173.7,6.6z M164.8,4l-2.4,9.4c1.1,0.3,2.3,0.6,3.4,0.9l0,0c0.6,0.2,1.2,0.4,1.8,0.5l2.8-9.3
				C168.5,5,166.6,4.5,164.8,4L164.8,4L164.8,4z M155.6,2.1l-1.7,9.6c0.2,0,0.5,0.1,0.7,0.1c0,0,0,0,0,0c0,0,0,0,0,0c0,0,0,0,0,0
				c0,0,0,0,0,0c0,0,0,0,0,0l0,0c1.5,0.3,3,0.6,4.4,0.9l2.1-9.5C159.4,2.8,157.5,2.4,155.6,2.1L155.6,2.1L155.6,2.1z M146.4,0.8
				l-1,9.7c0.4,0.1,0.9,0.1,1.3,0.1l0,0c0,0,0,0,0,0c0,0,0,0,0,0s0,0,0,0l0,0c0,0,0.1,0,0.1,0c0,0,0,0,0,0c0,0,0,0,0,0h0h0h0
				c0,0,0,0,0,0h0c0,0,0,0,0,0c0,0,0,0,0,0c0,0,0,0,0,0c0,0,0,0,0,0c0,0,0,0,0,0c0,0,0,0,0.1,0l0,0c0,0,0,0,0,0c0,0,0,0,0,0s0,0,0,0
				c0,0,0,0,0,0s0,0,0,0c0,0,0,0,0,0s0,0,0,0c0,0,0,0,0,0s0,0,0,0c0,0,0,0,0,0s0,0,0,0l0,0c0,0,0,0,0.1,0h0c0,0,0,0,0,0c0,0,0,0,0,0
				h0h0h0h0c0,0,0,0,0,0h0c0,0,0,0,0,0h0c0,0,0,0,0,0c0,0,0.1,0,0.1,0l0,0c0,0,0,0,0,0l0,0c0,0,0,0,0,0l0,0c0,0,0,0,0,0l0,0
				c0,0,0,0,0,0l0,0c0.9,0.1,1.8,0.2,2.7,0.4l1.5-9.6c-1.9-0.3-3.9-0.5-5.8-0.8l0,0L146.4,0.8z M137.1,0.1l-0.4,9.7c0,0,0,0,0,0
				c0,0,0,0,0,0h0c0,0,0,0,0,0h0c1.8,0.1,3.5,0.2,5.3,0.3l0.8-9.7C141,0.3,139.1,0.2,137.1,0.1C137.1,0.1,137.1,0.1,137.1,0.1z
				 M132.2,0v9.7h0.1c0,0,0,0,0.1,0h0c0,0,0,0,0.1,0h0c0,0,0,0,0.1,0h0c0,0,0,0,0.1,0c0,0,0,0,0,0c0,0,0,0,0.1,0c0,0,0,0,0,0
				s0,0,0,0s0,0,0,0c0,0,0,0,0.1,0c0,0,0,0,0,0s0,0,0,0c0,0,0,0,0.1,0h0c0.1,0,0.1,0,0.1,0l0,0c0.1,0,0.2,0,0.4,0l0.1-9.7
				C133.2,0,132.7,0,132.2,0L132.2,0L132.2,0z"/>
			<circle class="st1" cx="132.2" cy="132.2" r="122.5"/>
			<circle class="st2" cx="132.2" cy="132.2" r="122.5"/>
		</g>
		<path class="st3" d="M155.2,240.6h-47.2C49.9,240.6,2.4,193.1,2.4,135V19.2h152.9c58.1,0,105.7,47.5,105.7,105.7v115.7
			L155.2,240.6L155.2,240.6z"/>
		<path class="st3" d="M155.2,240.6h-47.2C49.9,240.6,2.4,193.1,2.4,135V19.2h152.9c58.1,0,105.7,47.5,105.7,105.7v115.7
			L155.2,240.6L155.2,240.6z"/>
		<g>
			<g>
				<g>
					<path class="st4" d="M120.7,203.1c-0.1,0.9-0.4,1.8-0.4,1.8s-8.7,0.4-10.1,0.3c-1.4-0.1-2.9,0.1-3.8-1s-6.6-0.6-6.6-0.6v1.4
						l-7.7-0.1c0,0-0.6-1.3-0.6-2.9c0-0.6,0.1-1.2,0.3-1.8c0.9-2.4,2.3-3.9,2.3-3.9s10.8-2.3,11.7-1c0.9,1.3,6,5.5,9,5.4
						c3.1-0.1,5.4,0.9,5.7,1.5C120.8,202.2,120.7,202.6,120.7,203.1L120.7,203.1z"/>
					<path class="st5" d="M93.5,108c0,0,3.1,1.6,4.5,10.3s1.9,13.2,2.4,15.6c0.5,2.4,1.9,3.5,1.9,3.5s10.9,3.9,13.1,3.6
						c2.1-0.3,9.9,2.8,9.9,2.8l-1.6,5.9c0,0-0.1-1.9-9.1-1.9s-17.9,0.8-20.4-3.6s-11.8-14.7-9.8-22.3s8.6-14.3,8.6-14.3L93.5,108
						L93.5,108z"/>
					<path class="st6" d="M124.8,144.3c0,0,2.2-0.1,3.1,0.7c0.9,0.8,3.7,4.4,3.7,4.4l2.1,4l-0.6,5.9l-3.3,2.1c0,0-0.8-0.8,0.5-2.4
						c0.4-0.5,1.5-1.1,1.5-1.1s-0.6-3.2-0.9-3.6c-0.3-0.4-1.9-2.6-1.9-2.6s1.6,3.7,1.3,4.4s-0.4,1.5-1,1.5s-1.5-4.1-2.7-4.5
						s-2.5-2.9-2.9-3.7S124.8,144.3,124.8,144.3L124.8,144.3z"/>
					<path class="st7" d="M83.3,95.8c0,0-10.4,2.4-17.9,14.2s-11.8,40.2-9.5,46.4c2.4,6.1,30-5.3,30-5.3s-2.7-11.5,1.6-16.8
						c4.3-5.3,8.8-14.2,9.6-19S91.9,94.2,83.3,95.8L83.3,95.8z"/>
					<path class="st6" d="M95.2,104.3c0,0,2.9-2.1,4-2.9s2.4-3.2,2.4-3.2l9.1-1.9l-0.5-3.2l0.3-0.9l-1.3-0.3l1.5-0.8l-0.4-1.5
						c0,0,2.4-0.5,2.7-1.2c0.1-0.3-0.5-0.9-0.5-0.9s-2.4-2.3-2.8-3.1s0.3-2.9,0.3-2.9l-0.5-3.2c0,0-1.7-5.6-7.2-6.7s-11.2,0-11.2,0
						s-6.7,4.1-6.8,9.9s4,9.6,4,9.6s2.4,1.3,1.1,2.1c-1.3,0.8-3.3,2.9-3.3,2.9l8.9,8.3L95.2,104.3L95.2,104.3z"/>
					<path class="st8" d="M72,151.4c0,0,13.5-4.6,22.9-5.2c9.4-0.6,18.3,0,20.6,2.4s3.9,6,3.1,8.1s-8,16.1-9.4,20.6
						s-1.5,19.5-1.5,19.5l-15.9,0.4c0,0,2.2-16.9,4.1-22.9s9.7-16.3,9.7-16.3s-29,10.8-34,7.5S72,151.4,72,151.4L72,151.4z"/>
					<path class="st9" d="M83.6,204.4c0,0-5.5,1-10.4,1.1c-5,0.1-5.6-1.9-5.4-3.8c0.3-1.9-2.2-5.5-2.2-5.5l-2.4,0.5l-5.3-7.4
						c0,0,0.7-1,2.2-2.2c0.5-0.4,1.1-0.8,1.8-1.1c2.8-1.5,5.2-1.9,5.2-1.9l9.4,8.3c0,0-0.9-0.4-1.4,3.3c-0.5,3.7,3.3,5.4,3.3,5.4
						s1.5-0.8,4.6,0.2c0.8,0.3,1,1.5,1.2,1.7C84.8,203.8,83.6,204.4,83.6,204.4L83.6,204.4z"/>
					<path class="st10" d="M124.8,128c-0.3,0.4-0.8,1-1.9,2.2c-2.8,3-20.5,14.6-23.3,14.6s-18.7-10.5-25.8-22.8s3-18,3-18
						c9.6-3,22.8,29.2,22.8,29.2s14.4-6.9,18.3-8c3.9-1.1,4.7-2.1,4.7-2.1l0.4,0.8l1.9,3.7C125,127.5,125.3,127.3,124.8,128z"/>
					<path class="st10" d="M86.8,91.6c0,0,4.5,2.4,7.7,7.2s2.9,7.7,2.9,7.7l-5.1,1.3c0,0-1.9-6.4-6.4-9.1c-4.5-2.7-2.7-2.9-2.7-2.9
						S86.8,91.6,86.8,91.6z"/>
					<path class="st11" d="M58.7,156.9c-1.2,1-0.2,15.5,14.7,16.7c14.9,1.1,29.6-3.2,29.6-3.2s-21.7,3.9-28.5,7.6s-7.3,3.2-8.3,4.3
						s-0.8,4.3,1.2,7.4s8.8,9.4,8.8,9.4s12.9-14.3,20.9-15.7c8-1.4,14-2.4,14-2.4s7.1-9.7,5.7-13.8c-1.4-4.1-21.3-16.7-34.2-16.8
						C69.7,150.4,58.7,156.9,58.7,156.9L58.7,156.9z"/>
				</g>
				<path class="st12" d="M89.2,92.5c0,0,2.9,0,3.8,0.6s3.9-2.4,3.9-2.4s-3.7-1.4-3.3-3c0.4-1.6,1.4-3.5,3.1-2.9s3,1.1,3,1.1
					s1.8-4,1.3-6.2c-0.5-2.1,0.6-2.5,3.1-3c2.5-0.5,4.2-0.1,4.4-1.6c0.5-3.5-0.9-7.8-8.3-7s-10.7,2-14.3,3.5
					c-3.7,1.5-4.2,9.9-2.9,13S89.2,92.5,89.2,92.5L89.2,92.5z"/>
				<path class="st6" d="M136.1,122.8c0,0,0.2,0.9,0,1.2c-0.2,0.3-0.5,0.9-0.5,0.9s-0.1,0.8-0.5,1.3c-0.4,0.5-1,0.9-1,0.9l-4.6,1.4
					l-4.9-0.5c0.4-0.5,0.1-0.4,0.1-0.4l-1.6-3.1c0.5-1,1.4-2.6,1.8-2.9c0.6-0.4,3.2-2.5,3.2-2.5s0.7,0.1,2.1,0c1.4-0.1,2-0.8,2-0.8
					s1.1,1.2-0.6,1.9c-1.8,0.7-3.6,1.7-3.6,1.7l2.5,0.2l3.7-0.8c0,0,1.7-1.4,2.3-2.1s1.8-1.6,2.3-1.1l0.5,0.5L136.1,122.8
					L136.1,122.8z"/>
				<g>
					<path class="st13" d="M171.8,86c0,0,2.4-3.9,8.1-1.4c5.6,2.4,9.8,8.3,8.6,20.1s0.4,24.2-6.6,24.6s-16.4-5.8-16.6-6.2
						C165,122.5,171.8,86,171.8,86L171.8,86z"/>
					<g>
						<polygon class="st6" points="149,136.5 148.5,142.5 145.9,145 143.6,145.8 145,139.2 						"/>
						<path class="st6" d="M148.3,136.8l-3.6-1.5c0,0-2.7,1.9-3.1,2.9c-0.5,1-1,2.4-1.2,2.9c-0.2,0.5-1.6,2.3-0.9,2.4
							s1.9-1.1,2.7-2.3c0.7-1.1,1.6-0.7,1.6-0.7l-1.5,2.4l-1.2,1.4l-0.6,1c0,0-0.9,1.6-1.1,2.2c-0.2,0.6,1.6,0.4,1.6,0.4l1.7-0.8
							l2-1.7l2.6-3L148.3,136.8L148.3,136.8z"/>
					</g>
					<path class="st14" d="M158.4,125.4c-1.6,1.8-3.7,4.4-5.5,6.8c-2.4,3.1-4.3,5.9-4.3,5.9l-4-2.7l4.7-11.7c0,0,5.8-19.3,6-24.2
						c0.1-1.9,0.7-3.6,1.5-5v0c1.2-2.3,2.8-3.7,2.8-3.7c0.4-0.2,0.7-0.2,0.9,0.1C163.1,94,161.8,121.6,158.4,125.4L158.4,125.4z"/>
					<g>
						<path class="st15" d="M175.3,79.1c0,0-2.1,3.5-1.3,6.2s3.3,4,3.3,4s-6.7,4.1-10.4,4c-3.7-0.1-4.1-4.4-4.1-4.4s2.9-1.4,3.3-3.1
							c0.4-1.7,1.2-5,1.2-5S175.3,79.1,175.3,79.1z"/>
						<path class="st16" d="M174.6,86.6c0,0,5.7,3.4,6.5,6.2c0.9,2.7-4.1,35.1-8.9,36.7s-16.3,0.7-17-0.4s2-25.3,2.7-30.6
							c0.6-4.3,2.4-6.7,4.5-9.2c0.5-0.6,1-1.2,1.5-1.8c0.7-0.9,0.4,2.3,2.1,2.1C169.9,89.1,174.6,86.6,174.6,86.6L174.6,86.6z"/>
						<g>
							<rect x="153.7" y="195.2" class="st17" width="4.9" height="7.6"/>
							<g>
								<path class="st11" d="M168.1,143.1c0,0-0.1,0.1-0.1,0.4c-0.9,2.9-3.9,20.1-4.5,23.5c-0.7,3.7,0,10.8,0,16.3
									c0,5.4-2.9,16.5-2.9,16.5l-8.8-1.9c0,0-0.2-23.3,0.1-27.3c0.3-3.9-0.6-28.1,0.7-32.4c1.4-4.3,1.7-12.8,1.7-12.8l7.6,3.5
									L168.1,143.1L168.1,143.1z"/>
								<g>
									<path class="st11" d="M170.2,206.7c-1.7-0.1-5-0.4-7-0.6c0,0,0-0.1,0-0.1c-0.1-0.8,1.5-2.2,2.4-2.9
										c0.9-0.7,3.5-5.1,3.5-5.1l5.9,0.7c0,0,0,2,0.6,3.1c0.4,0.8,0.6,1.5,0.8,1.9c-0.6,0.2-1.3,0.5-2.3,1.2
										C172,206.4,172.7,206.8,170.2,206.7L170.2,206.7z"/>
									<path class="st18" d="M163.2,206.1c2,0.2,5.3,0.6,7,0.6c2.5,0.1,1.8-0.3,4-1.8c1-0.7,1.8-1,2.3-1.2
										c0.1,0.2,0.1,0.3,0.1,0.3l-0.7,2.5c0,0-2.6,0.8-3.6,1.5s-9-0.3-9-0.3S163.3,206.9,163.2,206.1L163.2,206.1z"/>
								</g>
								<path class="st19" d="M176.3,130.1c1,3.3,1.5,6.8,1.4,10.2c-0.1,6.7-0.2,8.9,0.6,12.5c1.1,5.3,2,17.6,1.1,27.5
									s-1.9,21.2-1.9,21.2l-11.1,0.1c0,0,2.7-21.4,0.2-31.6c-2.4-10.2-5.1-27.3-6.4-30.1c-1.3-2.8,1.3-12,1.3-12l12.7-4.6
									L176.3,130.1L176.3,130.1z"/>
								<g>
									<path class="st11" d="M153.4,204.1c-1.5,0.7-2.6,2.1-5.7,1.7c-1.5-0.2-2.7-0.5-3.5-0.7c0-0.3,0.1-0.7,0.1-1.1
										c0.1-1.4,3.4-1.9,4.5-2.6s2.9-4.2,2.9-4.2l2.8,0.2c0,0,1.2,2,2.8,2.6s1-2.1,1-2.1s0.6,3.1,1.1,4.4c0.1,0.2,0.1,0.4,0.2,0.7
										c-0.7,0.2-1.8,0.5-2.9,0.6C154.6,203.7,154.8,203.4,153.4,204.1L153.4,204.1z"/>
									<path class="st18" d="M147.7,205.9c3.1,0.4,4.2-1,5.7-1.7s1.2-0.4,3.4-0.5c1.1-0.1,2.1-0.3,2.9-0.6c0.1,1-0.4,1.9-0.4,1.9
										s-3.2,0.5-4.8,0.5s-2.2,1.6-4.9,1.7c-2.7,0.1-5.5-0.6-5.5-0.6s0.1-0.6,0.1-1.4C145,205.4,146.2,205.6,147.7,205.9
										L147.7,205.9z"/>
								</g>
							</g>
						</g>
						<path class="st20" d="M177.9,135.2c0,0-6.9,5.8-14,3.8c-7-2-11.4-1.2-11.4-1.2s0.2-2.2,0.4-5.5c0.4-4.8,1-12,1.6-18.2
							c0,0,0-0.1,0-0.1c0.5-5.5,1.1-10.2,1.4-11.9c1.1-5.1,3.5-11.1,3.5-11.1l1.3-0.9l2.7-1.8l0.1,7.7c0,0,10.8-8.6,12.6-8.1
							c1.9,0.5,6.9,3.2,7.6,5.8C184.6,96.2,177.9,135.2,177.9,135.2z"/>
						<g>
							<polygon class="st6" points="180.1,140.2 179.6,146.1 177,148.6 174.7,149.4 176.2,142.9 							"/>
							<path class="st6" d="M179.5,140.4l-3.6-1.5c0,0-1.6,2-2.1,3s-0.7,2.7-0.9,3.2c-0.2,0.5-1.4,2.5-0.6,2.6
								c0.7,0.1,2.1-1,2.1-2.3c-0.1-1.4,0.6-1.2,0.6-1.2l0,2.5l-0.8,2.3l-0.7,0.8c0,0-1.1,0.4-1.4,1c-0.2,0.6,0.1,0.9,0.1,0.9
								l1.7-0.8l2-1.7l2.6-3L179.5,140.4L179.5,140.4z"/>
						</g>
						<path class="st21" d="M186.3,119.4l-5.3,21.9l-5.9-1.9c0,0,1.9-7.9,2.8-15.4c0.2-1.3,0.3-2.6,0.4-3.9c0.2-3,0.1-5.6-0.5-7.4
							c-2.1-6.7-2-10.4-1.9-12.7c0,0,2.7-13.1,7.9-6.4C189,100.3,186.3,119.4,186.3,119.4L186.3,119.4z"/>
						<g>
							<path class="st6" d="M163,63.6c-2.5,1.3-5.1,4.5-4.2,10.4c0.6,3.7-1.7,4.6,0.2,7.1c1.9,2.6,0.9,5,3.1,5.4s9.6-1.9,12.4-3.6
								c2.9-1.7,5-5.9,5.2-7.3c0.3-1.4,0.2-7.5-3.5-10.9C172.5,61.3,165.9,62.1,163,63.6z"/>
							<path class="st22" d="M176.7,63.1c0,0-5.2-2.9-10.4-1.5s-7,3.7-7.7,5.6c-0.7,1.9,0,3.6,0,3.6s0.5-2.1,2.8-2.9
								c2.3-0.7,5.6-2.2,5.6-2.2s-1.4,3.6,1.1,5.2s2.9,2.3,2.9,3.6s0.9,4.9,0.9,4.9s2.4-4,2.7-4s2.1-0.1,1.6,2.2
								c-0.4,2.2-2.1,4-2.1,4l1.4,1.6c0,0,5.1-5.1,5.5-8.4S181.4,67.7,176.7,63.1L176.7,63.1z"/>
						</g>
					</g>
					<path class="st23" d="M178.3,120.1c-0.1,1.3-0.2,2.6-0.4,3.9c-1.2-0.4-5.2-2-6.7-6.1C169.5,113,170.3,96,173,92
						c2.7-4,5.8-4,5.8-4l3.1,2c0,0-1.8,0-5.8,2.2c-4,2.2-2,24.2-0.9,25.9C175.8,119.1,177.2,119.7,178.3,120.1L178.3,120.1z"/>
					<path class="st23" d="M160.8,89.9c-0.1,0.3-0.2,0.6-0.4,1c-1.1,3.2-3.1,8.7-3.6,10.3c-0.5,1.7-1.6,8.7-2.3,12.6
						c0,0.1,0,0.1,0,0.1c-0.2,1.1-0.3,1.9-0.4,2.2c0.1-1.7,1.1-15.8,2.1-18.7c0.2-0.7,0.4-1.8,0.5-3v0c1.2-2.3,2.8-3.7,2.8-3.7
						L160.8,89.9L160.8,89.9z"/>
				</g>
			</g>
			<path class="st12" d="M83.6,204.4c0,0-5.5,1-10.4,1.1c-5,0.1-5.6-1.9-5.4-3.8c0.3-1.9-2.2-5.5-2.2-5.5l-2.4,0.5l-5.3-7.4
				c0,0,0.7-1,2.2-2.2c1.8,2,6.3,7.1,7.1,8.6c1.1,1.9,2.1,4.4,2.1,5.7s2,3.3,6.4,2.5c3.1-0.5,6.6-0.8,8.4-0.9
				C84.8,203.8,83.6,204.4,83.6,204.4L83.6,204.4z"/>
			<path class="st12" d="M120.7,203.1c-0.1,0.9-0.4,1.8-0.4,1.8s-8.7,0.4-10.1,0.3c-1.4-0.1-2.9,0.1-3.8-1s-6.6-0.6-6.6-0.6v1.4
				l-7.7-0.1c0,0-0.6-1.3-0.6-2.9c3.4-0.1,14-0.5,15.1,0.5c1.2,1.3,3.1,1.1,4.5,1.1C112.1,203.6,118,203.3,120.7,203.1L120.7,203.1z
				"/>
		</g>
	</g>
</g>
</svg>
