<?xml version="1.0" encoding="UTF-8"?>
<svg id="_點陣圖化" data-name="點陣圖化" xmlns="http://www.w3.org/2000/svg" width="438.97" height="389.83" xmlns:xlink="http://www.w3.org/1999/xlink" viewBox="0 0 438.97 389.83">
  <image width="916" height="671" transform="translate(-.41 59.82) scale(.48)" xlink:href="書-1.png"/>
  <image id="_戶外學習" data-name="戶外學習" width="187" height="196" transform="translate(56.23 55.98) scale(.48)" xlink:href="書-2.png"/>
  <image id="_戶外學習_x5F_hover" data-name="戶外學習_x5F_hover" width="187" height="196" transform="translate(56.23 55.98) scale(.48)" xlink:href="書-3.png"/>
  <image id="_增能培訓" data-name="增能培訓" width="186" height="194" transform="translate(173.35 -.18) scale(.48)" xlink:href="書-4.png"/>
  <image id="_增能培訓_x5F_hover" data-name="增能培訓_x5F_hover" width="186" height="194" transform="translate(173.35 -.18) scale(.48)" xlink:href="書-5.png"/>
  <image id="_在地行動" data-name="在地行動" width="187" height="196" transform="translate(294.31 295.98) scale(.48)" xlink:href="書-6.png"/>
  <image id="_在地行動_x5F_hover" data-name="在地行動_x5F_hover" width="187" height="196" transform="translate(294.31 295.98) scale(.48)" xlink:href="書-7.png"/>
  <image id="_國際合作" data-name="國際合作" width="187" height="191" transform="translate(343.27 168.3) scale(.48)" xlink:href="書-8.png"/>
  <image id="_國際合作_x5F_hover" data-name="國際合作_x5F_hover" width="187" height="191" transform="translate(343.27 168.3) scale(.48)" xlink:href="書-9.png"/>
  <image id="_學習資源" data-name="學習資源" width="187" height="198" transform="translate(306.31 55.02) scale(.48)" xlink:href="書-10.png"/>
  <image id="_學習資源_x5F_hover" data-name="學習資源_x5F_hover" width="187" height="198" transform="translate(306.31 55.02) scale(.48)" xlink:href="書-11.png"/>
  <image id="_競賽表揚" data-name="競賽表揚" width="186" height="193" transform="translate(5.35 168.3) scale(.48)" xlink:href="書-12.png"/>
  <image id="_競賽表揚_x5F_hover" data-name="競賽表揚_x5F_hover" width="186" height="193" transform="translate(5.35 168.3) scale(.48)" xlink:href="書-13.png"/>
  <image id="_推廣活動" data-name="推廣活動" width="186" height="194" transform="translate(66.31 295.98) scale(.48)" xlink:href="書-14.png"/>
  <image id="_推廣活動_x5F_hover" data-name="推廣活動_x5F_hover" width="186" height="194" transform="translate(66.31 295.98) scale(.48)" xlink:href="書-15.png"/>
  <image id="_環境教育探索標題" data-name="環境教育探索標題" width="480" height="376" transform="translate(102.79 168.78) scale(.48)" xlink:href="書-16.png"/>
</svg>