<?xml version="1.0" encoding="UTF-8"?>
<svg id="_圖層_2" data-name="圖層 2" xmlns="http://www.w3.org/2000/svg" width="218.01" height="218.02" viewBox="0 0 218.01 218.02">
  <g id="_圖層_8" data-name="圖層 8">
    <g id="_環境衛生" data-name="環境衛生">
      <g>
        <path d="M109.01,0c-1.59,0-3.21.03-4.8.1l.35,8c.38-.02.77-.03,1.15-.04,0,0,0,0,.01,0,0,0,.02,0,.02,0,0,0,.01,0,.02,0,0,0,.01,0,.02,0,0,0,.01,0,.02,0,0,0,.01,0,.02,0,.01,0,.01,0,.02,0,0,0,0,0,0,0,.03,0,.06,0,.1,0,0,0,0,0,0,0,.01,0,.02,0,.03,0,0,0,0,0,0,0,.64-.02,1.27-.03,1.91-.04,0,0,0,0,0,0,.01,0,.02,0,.03,0,0,0,0,0,0,0,.01,0,.02,0,.03,0,0,0,0,0,0,0,.04,0,.09,0,.13,0h0s.02,0,.03,0c0,0,0,0,0,0,0,0,.02,0,.03,0,0,0,0,0,.01,0,0,0,.02,0,.03,0,0,0,0,0,.01,0,.01,0,.02,0,.03,0,0,0,0,0,0,0,.02,0,.04,0,.06,0,0,0,0,0,0,0,0,0,.02,0,.03,0,0,0,0,0,.01,0,0,0,.02,0,.02,0,0,0,.01,0,.02,0,0,0,.01,0,.02,0h.02s.01,0,.02,0c0,0,.01,0,.02,0,0,0,.01,0,.02,0,0,0,.02,0,.02,0,0,0,.01,0,.02,0,.01,0,.02,0,.03,0h.02s.02,0,.02,0c0,0,.01,0,.02,0h.02s0,0,.02,0h.02s0,0,.02,0c0,0,.02,0,.03,0h.04s0,0,.01,0h.03s.01,0,.01,0h.08s.01,0,.02,0h.09V0h0ZM101.34.27c-1.59.11-3.2.26-4.78.44l.91,7.96c.83-.09,1.66-.18,2.49-.25h.04s0,0,0,0c.01,0,.02,0,.03,0h0s.02,0,.03,0h0s.02,0,.03,0c0,0,0,0,0,0,.03,0,.05,0,.08,0,0,0,0,0,.01,0,0,0,.02,0,.03,0,0,0,.01,0,.01,0,0,0,.01,0,.02,0,0,0,.01,0,.02,0,0,0,.01,0,.02,0,0,0,.02,0,.02,0,0,0,0,0,.01,0,.01,0,.01,0,.02,0,0,0,0,0,.01,0,.03,0,.06,0,.09,0,0,0,0,0,0,0,.01,0,.02,0,.03,0,0,0,0,0,0,0,0,0,.02,0,.03,0,0,0,0,0,0,0,.01,0,.02,0,.03,0,0,0,0,0,0,0,.44-.04.88-.07,1.32-.1l-.56-7.99h0ZM93.7,1.07c-1.58.22-3.17.48-4.74.77l1.46,7.87c1.45-.27,2.92-.51,4.39-.72l-1.12-7.93h0ZM86.13,2.41c-1.56.33-3.13.71-4.67,1.11l2.02,7.75c1.05-.27,2.1-.53,3.16-.77,0,0,0,0,.01,0,0,0,.01,0,.02,0,0,0,.01,0,.02,0,0,0,.01,0,.02,0,0,0,.01,0,.02,0,0,0,0,0,.02,0,0,0,.02,0,.02,0,0,0,0,0,.01,0,0,0,.02,0,.02,0,0,0,0,0,.01,0,.33-.07.66-.15.99-.22l-1.67-7.83h0ZM78.68,4.28c-1.53.44-3.07.93-4.58,1.44l2.56,7.59c.51-.17,1.02-.34,1.54-.51,0,0,0,0,.01,0,.02,0,.04-.01.06-.02,0,0,.02,0,.02,0,.01,0,.02,0,.04-.01.01,0,.02,0,.04-.01,0,0,.01,0,.02,0,.02,0,.04-.01.05-.02,0,0,.01,0,.02,0,.02,0,.03-.01.05-.02,0,0,0,0,.01,0,.02,0,.04-.01.06-.02,0,0,0,0,0,0,.77-.24,1.55-.48,2.33-.7l-2.22-7.69h0ZM71.38,6.67c-1.5.55-3,1.14-4.47,1.76l3.1,7.39c.75-.31,1.5-.62,2.25-.91h0s.04-.02.06-.02c0,0,0,0,0,0,.02,0,.04-.01.06-.02,0,0,0,0,.01,0,.02,0,.04-.01.05-.02,0,0,.01,0,.02,0,.02,0,.03-.01.04-.02,0,0,.02,0,.03-.01,0,0,.03-.01.03-.01.01,0,.02,0,.04-.01.01,0,.02,0,.03-.01.01,0,.02,0,.03-.01,0,0,0,0,.01,0,.02,0,.04-.02.06-.02h0c.47-.18.94-.36,1.41-.53l-2.76-7.52h0ZM64.26,9.58c-1.45.65-2.91,1.35-4.33,2.07l3.61,7.15c.14-.07.29-.15.43-.22h0s.04-.02.06-.03c0,0,0,0,0,0,.02-.01.03-.02.05-.03,0,0,0,0,0,0,.02,0,.04-.02.06-.03,0,0,0,0,0,0,.02,0,.03-.02.05-.02,0,0,0,0,.01,0,.02,0,.03-.02.05-.02,0,0,.01,0,.02,0,.01,0,.03-.02.05-.02,0,0,.01,0,.02,0,.01,0,.03-.02.04-.02,0,0,.01,0,.02,0,.01,0,.03-.01.04-.02,0,0,.02,0,.02-.01.01,0,.02-.01.03-.02.01,0,.02-.01.03-.02,0,0,.02-.01.03-.02,0,0,.02,0,.03-.01.01,0,.02-.01.04-.02,0,0,.02,0,.02-.01.01,0,.03-.01.04-.02,0,0,.02,0,.02-.01.01,0,.02-.01.03-.02l.03-.02s.02,0,.03-.01c.01,0,.03-.01.04-.02,0,0,.02,0,.03-.01.01,0,.02-.01.04-.02,0,0,.02-.01.03-.01,0,0,.02,0,.03-.01.01,0,.03-.01.04-.02,0,0,.02,0,.03-.01.01,0,.03-.01.04-.02,0,0,.02,0,.03-.01.01,0,.02,0,.03-.01.01,0,.02-.01.03-.02,0,0,.02,0,.03-.01.01,0,.02-.01.03-.02,0,0,.02-.01.03-.01.01,0,.02-.01.03-.02.01,0,.02-.01.03-.02,0,0,.02,0,.02-.01.01,0,.03-.01.04-.02,0,0,.02,0,.03-.01.01,0,.02-.01.04-.02,0,0,.02,0,.03-.01,0,0,.02-.01.03-.01.01,0,.02-.01.03-.02,0,0,.02,0,.03-.01.01,0,.02,0,.03-.01.01,0,.02-.01.04-.02,0,0,.02,0,.02-.01.01,0,.03-.01.04-.02,0,0,.01,0,.02-.01.01,0,.03-.01.04-.02,0,0,.01,0,.02,0,.01,0,.03-.01.04-.02,0,0,.01,0,.02-.01.01,0,.03-.01.04-.02h.02s.03-.02.04-.03c0,0,.01,0,.02,0,.01,0,.03-.01.05-.02,0,0,.01,0,.02,0,.02,0,.03-.01.05-.02,0,0,.01,0,.02,0,.01,0,.03-.02.05-.02,0,0,0,0,.01,0,.01,0,.03-.02.05-.02,0,0,0,0,.01,0,.01,0,.04-.02.05-.02,0,0,0,0,.01,0,.02,0,.04-.02.05-.02,0,0,0,0,.01,0,.02,0,.04-.02.05-.02,0,0,0,0,.01,0,.02,0,.03-.02.05-.03,0,0,0,0,0,0,.02,0,.04-.02.06-.03,0,0,0,0,0,0,.02,0,.04-.02.06-.03,0,0,0,0,0,0,.02,0,.04-.02.06-.03,0,0,0,0,0,0,.02,0,.04-.02.06-.03,0,0,0,0,0,0,.02,0,.04-.02.06-.03,0,0,0,0,0,0,.02,0,.04-.02.06-.03,0,0,0,0,0,0,.04-.02.08-.04.12-.06,0,0,0,0,0,0,.02,0,.04-.02.06-.03,0,0,0,0,0,0,.02,0,.04-.02.06-.03,0,0,0,0,0,0,.08-.04.17-.08.25-.11,0,0,0,0,0,0,.02,0,.04-.02.06-.03,0,0,0,0,0,0,.02,0,.04-.02.06-.03,0,0,0,0,0,0,.02,0,.04-.02.06-.03l-3.29-7.3h0ZM57.37,12.98c-1.4.76-2.81,1.55-4.18,2.37l4.11,6.88c1.16-.69,2.34-1.36,3.53-2.01,0,0,0,0,0,0,.02,0,.03-.02.05-.03,0,0,.01,0,.02-.01.01,0,.02-.01.04-.02.01,0,.02,0,.03-.02,0,0,.02,0,.02-.01.01,0,.03-.02.04-.02,0,0,.01,0,.02,0,.01,0,.03-.02.05-.03,0,0,0,0,.01,0,.02,0,.04-.02.05-.03,0,0,0,0,0,0l-3.8-7.05h0ZM50.74,16.86c-1.35.85-2.69,1.75-4,2.66l4.58,6.57s.01,0,.02-.01c0,0,.02-.01.02-.02.01,0,.02-.01.03-.02.01,0,.02-.01.03-.02,0,0,.01,0,.02-.01.01,0,.03-.02.04-.03,0,0,.01,0,.02-.01.02-.01.03-.02.04-.03,0,0,0,0,.01,0,.02-.01.03-.02.05-.03,0,0,0,0,0,0,.02-.01.03-.02.05-.03,0,0,0,0,0,0,.04-.03.07-.05.11-.08,0,0,0,0,0,0,.02-.01.04-.03.06-.04,0,0,0,0,0,0,.02-.01.04-.03.06-.04,0,0,0,0,0,0,.65-.44,1.3-.88,1.96-1.31,0,0,0,0,0,0,.02-.01.04-.02.05-.03,0,0,0,0,0,0,.02-.01.03-.02.05-.03,0,0,0,0,.01,0,.02-.01.03-.02.05-.03,0,0,0,0,.01,0,.01,0,.03-.02.04-.03,0,0,.01,0,.02-.01.01,0,.02-.01.03-.02,0,0,.01,0,.02-.01.01,0,.02-.01.04-.02,0,0,.02-.01.02-.02.01,0,.02-.02.03-.02,0,0,.02-.01.03-.02,0,0,.01,0,.02-.01.02-.01.03-.02.05-.03,0,0,0,0,0,0,.02-.01.04-.02.06-.04h0c.2-.13.41-.26.62-.4l-4.29-6.77h0ZM44.4,21.2c-1.28.94-2.56,1.93-3.8,2.93l5.03,6.23c.29-.23.58-.46.87-.69,0,0,0,0,0,0,.01-.01.04-.03.05-.04,0,0,0,0,0,0,.02-.01.03-.02.05-.04,0,0,0,0,0,0,.01-.01.03-.03.05-.04,0,0,0,0,0,0,.01-.01.03-.03.05-.04,0,0,0,0,0,0,.01-.01.03-.02.05-.04,0,0,0,0,0,0,.01,0,.03-.02.04-.03,0,0,0,0,.01,0,.01-.01.03-.02.04-.03,0,0,0,0,.01-.01.01-.01.03-.02.04-.03,0,0,.01,0,.02-.01.01,0,.03-.02.04-.03,0,0,.01,0,.02-.01.01,0,.03-.02.04-.03,0,0,.01,0,.02-.01.01,0,.02-.02.03-.03,0,0,.01-.01.02-.02.01,0,.02-.02.03-.02,0,0,.02-.01.02-.02.01,0,.02-.02.03-.02,0,0,.01-.01.02-.02.01,0,.02-.02.03-.03,0,0,.02-.01.02-.02,0,0,.02-.02.03-.03,0,0,.02-.01.02-.02.01,0,.01-.01.02-.02.01,0,.02-.02.03-.03,0,0,.01,0,.02-.02.01,0,.03-.02.04-.03,0,0,.01-.01.02-.01.01,0,.03-.02.04-.03,0,0,.01,0,.02-.01l.04-.03s.01-.01.02-.01l.03-.02s.01-.01.02-.02c.01,0,.02-.02.04-.03,0,0,.01,0,.01-.01.01-.01.03-.02.04-.03,0,0,0,0,.01-.01.02-.01.03-.02.05-.04,0,0,0,0,0,0,.02-.01.03-.03.05-.04,0,0,0,0,0,0,.07-.05.14-.11.21-.16h0c.36-.27.72-.55,1.09-.81l-4.75-6.45h0ZM38.38,25.97c-1.21,1.03-2.42,2.11-3.59,3.19l5.45,5.87c.87-.81,1.76-1.61,2.66-2.39h0s.04-.03.05-.05h0s.03-.03.05-.05c0,0,0,0,0,0,.01-.01.03-.03.04-.04,0,0,0,0,.01-.01,0,0,.02-.01.03-.02,0,0,.02-.02.03-.03,0,0,.01-.01.02-.02.01-.01.02-.02.03-.03,0,0,.01,0,.02-.01.01-.01.02-.02.03-.03,0,0,0,0,.01-.01.01-.01.03-.02.04-.03,0,0,0,0,0,0,.01-.01.03-.03.05-.04h0s.03-.03.05-.05c0,0,0,0,0,0,.05-.05.11-.09.16-.14l-5.19-6.1h0ZM32.71,31.15c-1.14,1.11-2.27,2.27-3.35,3.43l5.85,5.47c.78-.83,1.56-1.65,2.37-2.45,0,0,0,0,0,0,.02-.02.03-.03.05-.05h0s.03-.03.04-.05c0,0,0,0,0,0,.01-.01.03-.03.04-.04,0,0,0,0,.01-.01.01-.01.02-.02.03-.03,0,0,.01-.01.02-.02,0,0,.02-.02.03-.03,0,0,.01-.01.02-.02.01-.01.02-.02.03-.03,0,0,.02-.02.02-.02,0,0,0,0,0,0,.02-.02.03-.03.05-.05h0s.03-.04.05-.05h0c.11-.11.22-.21.33-.32l-5.61-5.72h0ZM27.42,36.71c-1.06,1.19-2.1,2.42-3.11,3.66l6.22,5.05s.04-.05.06-.07c0,0,0,0,0-.01l.04-.04s.01-.02.02-.03c0,0,.01-.02.02-.02,0-.01.02-.02.03-.03,0,0,0-.01.01-.02.01-.01.02-.03.03-.04,0,0,0,0,0,0,.01-.01.03-.03.04-.05,0,0,0,0,0,0,.01-.02.03-.03.04-.05,0,0,0,0,0,0,.01-.02.03-.03.04-.05,0,0,0,0,0,0,.34-.41.68-.82,1.02-1.23,0,0,0,0,0,0,.01-.02.03-.03.04-.05,0,0,0,0,0,0,.01-.02.03-.03.04-.05,0,0,0,0,0,0,.01-.02.03-.03.04-.05,0,0,0,0,0,0,.01-.02.03-.03.04-.05,0,0,0,0,0,0,.01-.01.03-.03.04-.04,0,0,0,0,0-.01.01-.01.02-.03.04-.04,0,0,0,0,.01-.01.01-.01.02-.03.03-.04,0,0,0-.01.01-.02.01-.01.02-.03.03-.04,0,0,0-.01.01-.02,0,0,.02-.02.02-.03l.02-.03s.01-.01.02-.02c0-.01.02-.02.03-.03,0,0,.01-.01.02-.02,0-.01.02-.02.03-.03,0,0,.01-.02.02-.02.02-.03.05-.05.07-.08,0,0,0,0,0,0,.01-.02.03-.03.04-.05,0,0,0,0,0,0,.01-.02.03-.03.04-.05h0c.26-.31.53-.61.8-.92l-5.99-5.31h0ZM22.53,42.63c-.97,1.26-1.93,2.57-2.84,3.87l6.56,4.6c.85-1.22,1.73-2.41,2.63-3.59l-6.35-4.88h0ZM18.07,48.88c-.88,1.33-1.74,2.69-2.56,4.06l6.87,4.12c.14-.24.29-.48.43-.71,0,0,0,0,0,0,.01-.02.02-.04.04-.06,0,0,0,0,0,0,.01-.02.02-.04.03-.06,0,0,0,0,0,0,.01-.02.02-.04.04-.06,0,0,0,0,0,0,.02-.04.05-.08.07-.12,0,0,0,0,0,0,.01-.02.02-.04.03-.05,0,0,0,0,0,0,0-.02.02-.04.03-.05,0,0,0,0,0,0,.01-.02.02-.03.03-.05h0s.02-.04.03-.06h0s.02-.04.03-.06c0,0,0,0,0,0,.01-.02.02-.03.03-.05,0,0,0,0,0,0l.03-.05s0,0,0-.01c.01-.02.02-.03.03-.05,0,0,0,0,0,0,.01-.02.02-.03.03-.05,0,0,0,0,0-.01.01-.02.02-.03.03-.05,0,0,0,0,0,0,.01-.02.02-.03.03-.05,0,0,0,0,0-.01.01-.02.02-.03.03-.05,0,0,0,0,0-.01,0-.01.02-.03.03-.05v-.02s.03-.03.04-.04c0,0,0-.01.01-.02,0-.01.02-.03.03-.04,0,0,0-.01.01-.02,0-.01.02-.03.03-.04,0,0,0-.01,0-.02,0-.01.02-.03.03-.04h0s.02-.04.03-.06c0,0,0,0,0-.01,0-.01.02-.03.03-.04,0,0,0-.01.01-.02.01-.02.02-.03.03-.04,0,0,0-.01,0-.02,0-.01.02-.03.03-.05,0,0,0,0,0-.01,0-.01.02-.03.03-.04,0,0,0,0,0-.01,0-.01.02-.03.03-.04,0,0,0,0,0-.01.01-.02.02-.03.03-.05,0,0,0,0,0-.01.01-.02.02-.03.03-.05,0,0,0,0,0-.01.01-.02.02-.03.03-.05,0,0,0,0,0-.01.01-.02.02-.03.03-.05,0,0,0,0,0-.01.01-.02.02-.03.03-.05,0,0,0,0,0,0,.01-.02.02-.03.03-.05,0,0,0,0,0,0,.01-.02.02-.03.03-.05,0,0,0,0,0-.01.01-.02.02-.03.03-.05,0,0,0,0,0-.01.01-.02.02-.03.03-.05,0,0,0,0,0,0,.01-.02.02-.04.03-.05,0,0,0,0,0,0,.02-.04.05-.08.07-.11h0s.02-.04.04-.06c0,0,0,0,0,0,.01-.02.02-.04.04-.06,0,0,0,0,0,0,.13-.19.25-.39.38-.58l-6.68-4.42h0ZM14.05,55.43c-.78,1.39-1.55,2.81-2.27,4.23l7.14,3.63h0c.45-.89.92-1.77,1.39-2.65h0s.02-.04.03-.06c0,0,0,0,0,0,.03-.06.07-.12.1-.18,0,0,0,0,0,0,.01-.02.02-.04.03-.06,0,0,0,0,0,0,0-.02.02-.04.03-.06,0,0,0,0,0,0,.01-.02.02-.04.03-.06,0,0,0,0,0,0,.03-.06.07-.12.1-.18h0s.02-.04.03-.06c0,0,0,0,0,0,.11-.2.23-.4.34-.61l-6.97-3.94h0ZM10.51,62.25c-.68,1.44-1.35,2.91-1.97,4.38l7.38,3.12c.58-1.37,1.18-2.72,1.82-4.06l-7.23-3.44h0ZM7.46,69.3c-.58,1.48-1.14,3-1.65,4.51l7.58,2.58c.03-.1.07-.2.1-.3h0s.01-.04.02-.06c0,0,0-.01,0-.02,0-.01,0-.02.01-.03,0-.01,0-.02.01-.04,0,0,0-.02,0-.03,0-.02,0-.03.01-.04,0,0,0-.02,0-.02,0-.01.01-.03.02-.04,0,0,0-.01,0-.02,0-.02.01-.03.02-.05h0s.01-.05.02-.07c0,0,0,0,0,0,0-.02.01-.04.02-.06,0,0,0,0,0,0,0-.02.01-.04.02-.06,0,0,0,0,0,0,.26-.74.53-1.48.81-2.22,0,0,0,0,0,0,0-.02.02-.04.02-.06,0,0,0,0,0,0,0-.02.02-.04.02-.06,0,0,0,0,0,0,0-.02.02-.04.02-.06,0,0,0,0,0,0,0-.02.01-.04.02-.06,0,0,0,0,0-.01,0-.02.01-.03.02-.05,0,0,0-.01,0-.02,0-.02.01-.03.02-.05,0,0,0-.01,0-.02,0-.01,0-.02.01-.04,0-.01,0-.02.01-.03,0,0,0-.02.01-.03,0-.02.01-.03.02-.05,0,0,0-.01,0-.02.07-.18.14-.36.21-.54l-7.46-2.92h0ZM4.91,76.56c-.47,1.52-.92,3.08-1.33,4.62l7.74,2.04c.38-1.44.79-2.86,1.23-4.28l-7.65-2.38h0ZM2.89,83.97c-.36,1.55-.7,3.13-1,4.7l7.87,1.49c.05-.26.1-.51.15-.77h0s0-.03,0-.04h0s0-.02,0-.04h0s0-.02,0-.03c0,0,0,0,0-.01,0,0,0-.01,0-.02,0-.01,0-.02,0-.04,0,0,0,0,0-.01,0,0,0-.02,0-.02,0,0,0,0,0-.01,0,0,0-.02,0-.03,0,0,0,0,0,0,0,0,0-.02,0-.03,0,0,0,0,0,0,0,0,0-.02,0-.03,0,0,0,0,0,0,.15-.77.32-1.54.49-2.31,0,0,0,0,0,0,0-.02.01-.05.02-.07h0c.02-.09.04-.18.06-.27h0c.05-.2.09-.41.14-.61l-7.8-1.83h0ZM1.4,91.51c-.25,1.57-.48,3.17-.66,4.76l7.95.93c.07-.63.15-1.27.24-1.9,0,0,0,0,0,0,0,0,0-.02,0-.03h0s0-.03,0-.04c0,0,0,0,0,0,0,0,0-.02,0-.03,0,0,0,0,0,0,0-.04.01-.08.02-.13,0,0,0,0,0-.01,0,0,0-.01,0-.02,0,0,0,0,0-.01,0,0,0-.01,0-.02,0,0,0-.01,0-.02,0,0,0-.01,0-.02,0,0,0,0,0-.01,0,0,0-.01,0-.02,0,0,0,0,0-.01,0-.04.01-.08.02-.12,0,0,0,0,0-.01,0,0,0-.01,0-.02,0,0,0,0,0-.01,0,0,0-.01,0-.02,0,0,0-.01,0-.02,0,0,0-.01,0-.02,0,0,0-.01,0-.02,0,0,0-.01,0-.02,0,0,0,0,0-.01,0,0,0-.02,0-.02,0,0,0,0,0,0,0-.02,0-.04,0-.06,0,0,0,0,0,0,0,0,0-.02,0-.03,0,0,0,0,0,0,0,0,0-.01,0-.02,0,0,0,0,0-.01,0,0,0-.01,0-.02,0,0,0-.01,0-.02,0,0,0-.02,0-.02,0,0,0,0,0-.01,0,0,0-.02,0-.03,0,0,0,0,0,0,0-.05.02-.11.02-.16,0,0,0,0,0,0,0,0,0-.02,0-.03,0,0,0,0,0,0,0,0,0-.02,0-.03,0,0,0,0,0,0,.07-.44.13-.89.21-1.33l-7.91-1.28h0ZM.44,99.13c-.14,1.58-.25,3.2-.33,4.79l8,.37c.03-.72.07-1.45.12-2.16,0,0,0,0,0,0v-.03s0,0,0-.01c0,0,0-.02,0-.03,0,0,0,0,0-.02v-.02s0-.01,0-.02c0,0,0-.01,0-.02,0-.04,0-.08,0-.13,0,0,0,0,0,0,0-.01,0-.02,0-.03,0,0,0,0,0,0,0-.01,0-.02,0-.03,0,0,0,0,0,0,.04-.63.1-1.27.15-1.9,0,0,0,0,0,0,0,0,0-.02,0-.02h0s-7.98-.73-7.98-.73H.44ZM.02,106.8c-.01.74-.02,1.47-.02,2.21,0,.86.01,1.72.03,2.58l8.01-.19c0-.2,0-.4-.01-.59,0,0,0,0,0,0,0,0,0-.02,0-.02,0,0,0-.01,0-.02,0,0,0-.01,0-.02,0,0,0-.02,0-.02,0,0,0,0,0-.01,0-.01,0-.02,0-.03h0s0-.03,0-.04h0c0-.43-.01-.85-.01-1.27h0s0-.03,0-.04c0,0,0,0,0,0,0-.01,0-.02,0-.03,0,0,0,0,0,0,0,0,0-.02,0-.03h0s0-.03,0-.04c0,0,0,0,0-.01,0,0,0-.02,0-.03h0s0-.03,0-.04h0v-.05s0-.02,0-.03h0v-.05h0v-.06h0s0-.05,0-.07c0,0,0,0,0-.01,0-.02,0-.03,0-.05v-.02s0-.03,0-.05c0,0,0-.01,0-.02,0-.01,0-.02,0-.04v-.02s0-.03,0-.05c0,0,0-.02,0-.03,0-.01,0-.02,0-.03,0-.02,0-.03,0-.05,0,0,0-.01,0-.02,0-.01,0-.02,0-.03h0s0-.05,0-.08h0c0-.45,0-.89.02-1.34,0-.01,0-.02,0-.03,0,0,0-.02,0-.02,0-.02,0-.04,0-.05,0,0,0,0,0,0l-8.01-.16H.02ZM8.13,114.07l-8,.4c.08,1.59.19,3.2.34,4.79l7.97-.74c-.03-.34-.06-.69-.09-1.03,0,0,0,0,0,0,0,0,0-.02,0-.03,0,0,0,0,0,0,0-.01,0-.02,0-.03,0,0,0-.01,0-.02,0,0,0-.02,0-.02,0,0,0-.02,0-.03,0,0,0,0,0,0,0-.01,0-.03,0-.04h0s0-.03,0-.04h0s0-.03,0-.04h0c-.08-1.05-.15-2.09-.2-3.15h0ZM8.73,121.17l-7.95.95c.19,1.58.42,3.18.68,4.75l7.9-1.3c-.24-1.46-.45-2.93-.63-4.41h0ZM9.83,128.2l-7.86,1.51c.3,1.57.64,3.15,1.01,4.7l7.79-1.86c-.11-.45-.21-.89-.31-1.34h0s0-.03,0-.04h0s-.01-.05-.02-.08c0,0,0,0,0,0,0,0,0-.02,0-.03,0,0,0-.02,0-.02,0,0,0-.01,0-.02,0,0,0-.01,0-.02,0,0,0,0,0-.01,0,0,0-.02,0-.02,0,0,0,0,0,0,0,0,0-.02,0-.03,0,0,0,0,0,0-.2-.9-.39-1.81-.56-2.72h0ZM11.42,135.14l-7.74,2.07c.41,1.54.86,3.09,1.34,4.61l7.64-2.41c-.21-.68-.42-1.37-.62-2.06,0,0,0,0,0,0,0-.02-.01-.04-.02-.06h0s-.01-.05-.02-.07c0,0,0,0,0,0,0-.02-.01-.04-.02-.06,0,0,0,0,0,0,0-.02-.01-.04-.02-.06,0,0,0,0,0-.01,0-.02-.01-.04-.02-.06,0,0,0,0,0-.01,0-.02-.01-.04-.02-.06h0s-.01-.05-.02-.07c0,0,0,0,0-.01,0-.02,0-.03-.01-.05v-.02s-.01-.03-.02-.05c0,0,0-.01,0-.02,0-.02,0-.03-.01-.05,0,0,0-.01,0-.02,0-.02,0-.03-.01-.05,0,0,0-.02,0-.03,0-.01,0-.02,0-.03,0-.01,0-.02-.01-.04,0,0,0-.02,0-.03v-.04s-.02-.02-.02-.03c0-.01,0-.02,0-.03,0,0,0-.02,0-.03,0-.02,0-.03-.01-.05,0,0,0-.01,0-.01,0-.02-.01-.04-.02-.06,0,0,0,0,0-.01,0-.02-.01-.04-.02-.07h0c-.02-.07-.03-.13-.05-.19h0s-.01-.05-.02-.08h0c-.07-.26-.14-.51-.21-.77h0ZM13.5,141.94l-7.57,2.61c.52,1.51,1.08,3.02,1.67,4.51l7.45-2.94c-.54-1.38-1.06-2.77-1.54-4.17h0ZM16.06,148.59l-7.37,3.14c.62,1.47,1.29,2.94,1.98,4.38l7.22-3.46c-.21-.44-.42-.88-.62-1.32,0,0,0,0,0,0,0-.02-.02-.04-.03-.06,0,0,0,0,0,0,0-.02-.02-.04-.03-.06,0,0,0,0,0,0,0-.02-.02-.04-.03-.06,0,0,0,0,0,0,0-.02-.02-.03-.02-.05,0,0,0,0,0-.01,0-.02-.02-.03-.02-.05,0,0,0-.01,0-.02,0-.02-.01-.03-.02-.05,0,0,0-.01,0-.02,0-.01-.01-.03-.02-.04,0,0,0-.02-.01-.02,0-.01,0-.02-.01-.03,0-.01-.01-.02-.02-.04,0,0,0-.02-.01-.02,0-.02-.01-.03-.02-.05,0,0,0-.01,0-.02,0-.02-.02-.04-.03-.06,0,0,0,0,0,0-.31-.68-.61-1.37-.9-2.06h0ZM19.08,155.03l-7.13,3.65c.73,1.42,1.5,2.84,2.29,4.22l6.96-3.97s0,0,0-.01c0-.01-.01-.02-.02-.04,0-.01-.01-.02-.02-.03,0,0,0-.02-.01-.02,0-.02-.02-.03-.03-.05,0,0,0-.01,0-.01-.5-.88-.99-1.77-1.46-2.67h0s-.02-.04-.03-.06c0,0,0,0,0,0,0-.02-.02-.04-.03-.05,0,0,0,0,0-.01l-.02-.03s-.01-.03-.02-.04c0,0,0-.02-.01-.02,0-.01-.01-.03-.02-.04,0,0,0-.01-.01-.02,0-.01-.01-.03-.02-.04,0,0,0,0,0-.01,0-.02-.02-.03-.03-.05,0,0,0,0,0-.01-.01-.02-.02-.04-.03-.05,0,0,0,0,0,0-.01-.02-.02-.04-.03-.06,0,0,0,0,0,0-.1-.18-.19-.37-.29-.56h0ZM22.55,161.25l-6.85,4.15c.83,1.36,1.69,2.73,2.58,4.05l6.66-4.45c-.33-.5-.66-1-.99-1.51,0,0,0,0,0,0-.01-.02-.02-.04-.04-.06,0,0,0,0,0,0-.01-.02-.02-.03-.03-.05,0,0,0,0,0,0-.01-.02-.02-.03-.03-.05,0,0,0,0,0,0-.01-.02-.02-.04-.03-.05,0,0,0,0,0,0-.01-.02-.02-.03-.03-.05,0,0,0,0,0,0-.01-.02-.02-.03-.03-.05,0,0,0,0,0-.01-.01-.02-.02-.03-.03-.05,0,0,0,0,0-.01-.01-.02-.02-.03-.03-.05,0,0,0,0,0-.01-.01-.02-.02-.03-.03-.05,0,0,0,0,0-.01,0-.01-.02-.03-.03-.04,0,0,0,0,0-.01,0-.01-.02-.03-.03-.04,0,0,0,0,0-.01,0-.01-.02-.03-.03-.04,0,0,0-.01-.01-.02-.01-.02-.02-.03-.03-.04,0,0,0-.01-.01-.02,0-.01-.02-.03-.03-.04,0,0,0-.01-.01-.02-.01-.02-.02-.03-.03-.04,0,0,0,0,0-.01,0-.01-.02-.03-.02-.04,0,0,0-.01-.01-.02,0-.01-.02-.03-.03-.04,0,0,0-.01,0-.01,0-.01-.02-.03-.03-.04,0,0,0-.01-.01-.02-.01-.02-.02-.03-.03-.04,0,0,0-.01-.01-.02,0-.01-.02-.03-.03-.04,0,0,0-.01-.01-.02,0-.01-.02-.03-.02-.04,0,0,0-.01-.01-.02,0-.01-.01-.02-.02-.03,0,0-.01-.02-.02-.02,0-.01-.01-.02-.02-.04,0,0,0-.01-.01-.02,0-.01-.02-.03-.03-.04,0,0,0-.01-.01-.02-.01-.02-.02-.03-.03-.04,0,0,0-.01-.01-.02,0-.01-.02-.03-.03-.04,0,0,0-.01-.01-.02,0-.01-.02-.03-.03-.04,0,0,0-.01-.01-.02,0-.01-.02-.02-.02-.04,0,0,0-.01-.01-.02,0-.01-.02-.03-.02-.04,0,0,0-.01-.01-.02,0-.01-.02-.03-.03-.04,0,0,0-.01-.01-.02,0-.02-.02-.03-.03-.04,0,0,0-.01-.01-.02,0-.01-.02-.03-.03-.04,0,0,0-.01-.01-.02,0-.01-.02-.03-.02-.04,0,0,0-.01-.01-.02,0-.01-.02-.03-.02-.04,0,0,0-.01-.01-.02,0-.02-.02-.03-.03-.04,0,0,0-.01,0-.02,0-.01-.02-.03-.03-.05,0,0,0-.01,0-.02,0-.02-.02-.03-.03-.05,0,0,0-.01,0-.02,0-.01-.02-.03-.03-.05,0,0,0,0,0,0h0ZM26.45,167.2l-6.54,4.62c.92,1.3,1.88,2.6,2.85,3.86l6.33-4.9c-.58-.75-1.15-1.51-1.71-2.27,0,0,0,0,0,0-.01-.02-.02-.03-.04-.05,0,0,0,0,0,0-.01-.02-.02-.03-.03-.05,0,0,0,0,0-.01,0-.01-.02-.03-.03-.04,0,0,0,0-.01-.01-.01-.02-.02-.02-.03-.04,0,0,0-.01-.01-.02,0-.01-.02-.02-.02-.03,0,0-.01-.02-.02-.03,0,0-.01-.02-.02-.03,0-.01-.02-.02-.03-.04,0,0-.01-.01-.01-.02-.02-.03-.04-.06-.06-.09,0,0,0,0,0,0-.01-.02-.03-.04-.04-.06h0c-.18-.26-.37-.52-.55-.77h0ZM30.75,172.87l-6.2,5.07c1.01,1.23,2.06,2.46,3.12,3.65l5.97-5.33c-.05-.06-.1-.11-.15-.17,0,0-.01-.01-.02-.02l-.02-.03s-.02-.02-.03-.03c0,0,0,0-.01-.01-.01-.01-.03-.03-.04-.04,0,0,0,0,0,0-.01-.01-.03-.03-.04-.05,0,0,0,0,0,0-.01-.02-.03-.03-.04-.05,0,0,0,0,0,0-.54-.61-1.06-1.22-1.59-1.84,0,0,0,0,0,0-.01-.02-.03-.03-.04-.05,0,0,0,0,0,0-.01-.01-.02-.03-.04-.04,0,0,0,0,0-.01-.01-.01-.02-.03-.04-.04,0,0,0,0-.01-.01-.01-.01-.02-.02-.03-.03,0,0-.01-.02-.02-.03,0,0-.01-.02-.02-.02,0-.01-.02-.02-.03-.03,0,0,0-.01-.02-.02-.01-.02-.03-.03-.04-.05h0c-.21-.26-.42-.51-.63-.77h0ZM35.45,178.22l-5.83,5.49c1.09,1.16,2.22,2.31,3.37,3.42l5.59-5.74s0,0,0,0c-.01-.01-.03-.03-.04-.04,0,0,0,0-.01-.01-.01-.01-.03-.02-.04-.04,0,0,0,0-.01-.01-.01-.01-.03-.03-.04-.04,0,0-.01-.01-.02-.02,0,0-.02-.02-.03-.03,0,0-.02-.02-.03-.02,0,0-.01-.01-.02-.02,0,0-.02-.02-.03-.03,0,0-.01-.01-.02-.02-.01-.01-.02-.02-.03-.03,0,0,0,0-.02-.02-.04-.04-.09-.09-.13-.13h0s-.03-.04-.05-.05h0s-.03-.04-.05-.05h0c-.28-.28-.55-.55-.83-.83h0s-.03-.04-.05-.05h0s-.03-.04-.05-.05h0s-.09-.09-.13-.14c0,0,0,0,0,0-.02-.02-.03-.03-.05-.05,0,0,0,0-.01-.01-.01-.01-.03-.03-.04-.04,0,0,0,0-.01-.01-.01-.01-.02-.02-.03-.04,0,0-.01-.01-.02-.02,0,0-.01-.01-.02-.02-.01-.01-.02-.02-.03-.03,0,0-.01-.01-.02-.02,0,0-.02-.02-.03-.03,0,0-.01-.01-.02-.02-.01-.01-.02-.02-.03-.03,0,0-.01-.01-.02-.02-.01-.01-.02-.02-.03-.03,0,0-.01-.01-.02-.02-.01-.01-.02-.02-.03-.03,0,0,0,0,0-.01-.01-.01-.03-.03-.04-.04,0,0,0,0,0,0-.02-.02-.03-.03-.04-.04,0,0,0,0,0,0-.01-.01-.03-.03-.04-.04,0,0,0,0,0,0-.3-.32-.61-.63-.91-.95h0ZM40.5,183.23l-5.43,5.88c1.17,1.08,2.38,2.15,3.6,3.18l5.17-6.12c-.57-.48-1.13-.96-1.68-1.45h0c-.09-.08-.17-.15-.26-.23,0,0,0,0,0,0-.02-.01-.03-.03-.05-.04,0,0,0,0,0,0-.02-.01-.03-.03-.05-.04,0,0,0,0,0,0-.02-.01-.03-.03-.05-.04,0,0,0,0,0,0-.04-.03-.06-.06-.1-.09,0,0,0,0,0,0-.02-.01-.03-.03-.05-.04,0,0,0,0,0,0-.02-.01-.03-.03-.05-.04,0,0,0,0,0,0-.01-.01-.03-.03-.04-.04,0,0,0,0,0,0-.02-.01-.03-.03-.04-.04,0,0,0,0,0,0-.01-.01-.03-.03-.05-.04,0,0,0,0,0,0-.01-.01-.03-.03-.04-.04,0,0,0,0,0,0-.01-.01-.03-.03-.04-.04,0,0,0,0,0,0-.02-.01-.03-.02-.04-.04,0,0,0,0-.01,0-.01-.01-.03-.03-.04-.04,0,0,0,0-.01,0-.01-.01-.03-.03-.04-.04,0,0,0,0-.01,0-.01-.01-.03-.03-.04-.04,0,0,0,0,0,0-.01-.01-.03-.03-.04-.04,0,0,0,0,0,0-.01-.01-.03-.03-.04-.04,0,0,0,0-.01-.01-.01-.01-.03-.02-.04-.04,0,0,0,0-.01-.01-.01-.01-.02-.02-.04-.03,0,0,0,0-.01-.01-.01-.01-.03-.02-.04-.03,0,0-.01,0-.02-.01,0,0-.03-.02-.03-.03,0,0-.01-.01-.02-.02,0,0-.02-.02-.03-.03,0,0-.02-.01-.02-.02-.01-.01-.02-.02-.03-.03,0,0-.01-.01-.02-.02-.01-.01-.02-.02-.03-.03,0,0-.01-.01-.02-.02,0,0-.02-.02-.03-.03,0,0-.01-.01-.02-.02,0,0-.02-.02-.03-.02,0,0,0,0-.01-.01h0ZM45.9,187.87l-5.01,6.25c1.24,1,2.53,1.98,3.81,2.92l4.73-6.46c-.37-.27-.73-.54-1.09-.81h0s-.04-.03-.06-.05h0s-.02-.02-.03-.03c-.01,0-.02-.01-.03-.02,0,0-.02-.01-.03-.02-.01,0-.02-.01-.03-.02,0,0-.02-.01-.03-.02-.01,0-.02-.02-.03-.02,0,0-.01-.01-.02-.02-.01,0-.03-.02-.04-.03,0,0,0,0-.01,0-.02-.01-.03-.02-.04-.03,0,0,0,0-.01,0-.02-.01-.03-.02-.05-.04,0,0,0,0,0,0-.02-.01-.03-.03-.05-.04,0,0,0,0,0,0-.66-.5-1.32-1.02-1.97-1.54h0ZM51.61,192.12l-4.56,6.59c1.31.91,2.66,1.8,4.01,2.64l4.26-6.78c-.3-.19-.61-.38-.91-.58h0s-.04-.03-.06-.04c0,0,0,0,0,0-.02-.01-.03-.02-.05-.03,0,0-.01,0-.02-.01,0,0-.02-.01-.03-.02-.01,0-.02-.02-.03-.02,0,0-.02-.01-.02-.02-.01,0-.02-.02-.04-.02,0,0-.01,0-.02-.01-.01,0-.03-.02-.04-.02,0,0-.01,0-.02-.01-.01,0-.03-.02-.04-.03,0,0,0,0-.01,0-.02-.01-.03-.02-.05-.03,0,0,0,0-.01,0-.01,0-.03-.02-.05-.03,0,0,0,0-.01,0-.02-.01-.03-.02-.05-.03,0,0,0,0,0,0-.02-.01-.03-.02-.05-.03,0,0,0,0,0,0-.74-.48-1.47-.97-2.19-1.47h0ZM57.6,195.96l-4.08,6.89c1.37.81,2.78,1.61,4.18,2.36l3.77-7.06c-.74-.4-1.48-.8-2.21-1.22h0s-.04-.02-.06-.04c0,0,0,0-.02,0-.01,0-.03-.02-.04-.03,0,0-.01,0-.02-.01-.01,0-.03-.01-.04-.02,0,0-.02,0-.03-.01-.01,0-.02-.01-.03-.02-.01,0-.02-.01-.03-.02,0,0-.01,0-.02-.01-.01,0-.03-.02-.04-.02,0,0-.01,0-.02-.01-.01,0-.03-.02-.05-.03,0,0,0,0-.01,0-.02,0-.03-.02-.05-.03,0,0,0,0,0,0-.02,0-.04-.02-.05-.03,0,0,0,0,0,0-.02,0-.04-.02-.06-.03,0,0,0,0,0,0-.02-.01-.04-.02-.05-.03,0,0,0,0,0,0-.02,0-.04-.02-.06-.03,0,0,0,0,0,0-.32-.18-.64-.37-.96-.56h0ZM63.85,199.37l-3.59,7.16c1.43.71,2.89,1.41,4.34,2.06l3.27-7.31c-.07-.03-.14-.06-.21-.1h0s-.04-.02-.06-.03c0,0-.01,0-.02,0-.01,0-.03-.01-.04-.02,0,0-.02,0-.03-.01,0,0-.02,0-.03-.01-.01,0-.03-.01-.04-.02,0,0-.01,0-.02,0-.02,0-.03-.01-.05-.02,0,0-.01,0-.02,0-.01,0-.03-.02-.05-.02,0,0,0,0-.01,0-.02,0-.04-.02-.05-.02,0,0,0,0,0,0-.02,0-.04-.02-.06-.03,0,0,0,0,0,0-.02,0-.04-.02-.06-.03,0,0,0,0,0,0-.02,0-.04-.02-.06-.03,0,0,0,0,0,0-.93-.42-1.85-.86-2.76-1.31,0,0,0,0,0,0-.02-.01-.04-.02-.06-.03,0,0,0,0,0,0-.02,0-.04-.02-.06-.03,0,0,0,0,0,0-.02,0-.04-.02-.05-.03,0,0,0,0-.01,0-.01,0-.03-.02-.05-.02,0,0-.01,0-.02-.01-.01,0-.03-.01-.04-.02,0,0-.02,0-.03-.01,0,0-.01,0-.02,0l-.05-.03h0s-.02-.01-.03-.02h0ZM70.32,202.33l-3.07,7.4c1.47.61,2.98,1.2,4.48,1.74l2.74-7.53c-.75-.27-1.5-.55-2.24-.84h0s-.04-.02-.07-.03h0s-.04-.02-.07-.03h0s-.07-.03-.11-.04h0s-.04-.02-.07-.03c0,0,0,0,0,0-.02,0-.04-.02-.06-.02h0s-.04-.02-.06-.03h0s-.05-.02-.07-.03h0s-.07-.03-.11-.04h0s-.04-.02-.07-.03h0s-.05-.02-.07-.03h0c-.37-.15-.75-.3-1.12-.46h0ZM76.99,204.83l-2.54,7.6c1.51.51,3.06.98,4.59,1.42l2.2-7.7c-.57-.16-1.14-.33-1.7-.5h0s-.05-.02-.07-.02h0c-.06-.02-.12-.04-.18-.06,0,0,0,0,0,0-.02,0-.04-.01-.07-.02h0s-.05-.02-.07-.02h0s-.07-.02-.11-.04h0s-.05-.01-.07-.02c0,0,0,0,0,0-.02,0-.04-.01-.07-.02h0c-.63-.2-1.25-.4-1.88-.61h0ZM83.81,206.84l-1.99,7.76c1.54.4,3.12.76,4.68,1.09l1.65-7.84c-.36-.08-.73-.15-1.09-.23h0s-.02,0-.03,0c0,0,0,0,0,0-.01,0-.02,0-.03,0h0c-1.06-.24-2.12-.49-3.17-.76h0ZM90.76,208.37l-1.44,7.88c1.57.29,3.16.54,4.74.76l1.09-7.93c-.87-.12-1.74-.25-2.61-.39,0,0,0,0-.01,0,0,0-.01,0-.02,0,0,0-.01,0-.02,0,0,0-.01,0-.02,0,0,0-.01,0-.02,0,0,0,0,0-.01,0,0,0-.02,0-.03,0h0s-.02,0-.04,0h0c-.54-.09-1.08-.18-1.61-.28h0ZM97.81,209.39l-.88,7.96c1.58.17,3.19.32,4.78.42l.53-7.99c-1.11-.07-2.2-.16-3.29-.27,0,0,0,0,0,0,0,0-.02,0-.03,0,0,0,0,0-.01,0,0,0-.02,0-.02,0,0,0-.01,0-.02,0,0,0-.01,0-.02,0-.01,0-.02,0-.03,0h0s-.02,0-.03,0h0s-.02,0-.04,0h0c-.31-.03-.61-.06-.91-.1h0ZM104.9,209.93l-.32,8c1.47.06,2.95.09,4.42.09h.37s-.03-8.01-.03-8.01c-.03,0-.05,0-.08,0,0,0-.01,0-.02,0h-.01c-.08,0-.16,0-.24,0h-.07s-.04,0-.06,0h-.06s0,0-.01,0c-.02,0-.03,0-.05,0h-.01s-.03,0-.05,0h0s-.04,0-.05,0h-.02s-.03,0-.05,0h-.02s-.03,0-.04,0c0,0-.01,0-.02,0-.02,0-.03,0-.05,0,0,0-.01,0-.02,0-.01,0-.02,0-.04,0,0,0-.01,0-.02,0-.02,0-.03,0-.05,0,0,0-.02,0-.02,0-.01,0-.02,0-.03,0-.01,0-.02,0-.03,0-.01,0-.02,0-.04,0,0,0-.02,0-.03,0-.01,0-.02,0-.03,0-.01,0-.03,0-.04,0-.01,0-.02,0-.03,0,0,0-.02,0-.03,0-.01,0-.02,0-.03,0-.01,0-.03,0-.04,0,0,0-.01,0-.02,0-.02,0-.04,0-.06,0,0,0-.01,0-.02,0-.01,0-.02,0-.03,0,0,0-.01,0-.02,0-.02,0-.04,0-.06,0,0,0,0,0-.01,0-.01,0-.02,0-.04,0,0,0,0,0-.01,0-.02,0-.04,0-.07,0,0,0,0,0-.01,0-.51,0-1.03-.02-1.54-.03h0s-.08,0-.12,0c0,0,0,0,0,0-.04,0-.07,0-.11,0,0,0-.01,0-.02,0-.02,0-.03,0-.05,0-.01,0-.02,0-.03,0,0,0-.02,0-.03,0-.01,0-.02,0-.03,0-.01,0-.02,0-.03,0-.01,0-.03,0-.04,0,0,0-.01,0-.02,0-.02,0-.03,0-.05,0,0,0,0,0-.01,0-.01,0-.03,0-.05,0,0,0,0,0,0,0-.02,0-.04,0-.06,0,0,0,0,0,0,0-.17,0-.34-.01-.51-.02h0ZM116.47,209.74c-1.47.11-2.95.18-4.44.23l.23,8.01c1.59-.05,3.2-.13,4.79-.24l-.58-7.99h0ZM123.54,208.97c-.81.12-1.62.22-2.44.32,0,0,0,0,0,0,0,0-.02,0-.03,0,0,0,0,0-.01,0,0,0-.01,0-.02,0,0,0-.01,0-.02,0,0,0-.01,0-.02,0-.02,0-.05,0-.07,0,0,0,0,0,0,0h-.03s0,0,0,0c-.01,0-.02,0-.04,0h0c-.57.07-1.14.13-1.72.19l.79,7.97c1.59-.16,3.19-.35,4.77-.58l-1.14-7.93h0ZM130.55,207.71c-.71.15-1.43.3-2.15.44h0s-.02,0-.03,0c0,0,0,0-.01,0,0,0-.02,0-.02,0,0,0-.01,0-.02,0,0,0-.01,0-.02,0,0,0-.02,0-.02,0,0,0,0,0,0,0,0,0-.02,0-.03,0,0,0,0,0,0,0-.68.13-1.36.26-2.05.37l1.35,7.89c1.57-.27,3.16-.58,4.72-.92l-1.7-7.83h0ZM137.45,205.95c-1.18.35-2.37.67-3.57.97h0s-.1.03-.15.04c0,0,0,0,0,0,0,0-.02,0-.03,0,0,0-.01,0-.02,0,0,0,0,0-.01,0,0,0-.02,0-.02,0,0,0,0,0-.01,0,0,0-.02,0-.03,0,0,0,0,0,0,0,0,0-.02,0-.03,0,0,0,0,0,0,0-.13.03-.27.07-.4.1l1.91,7.78c1.55-.38,3.11-.8,4.64-1.25l-2.25-7.69h0ZM144.2,203.71s-.08.03-.13.05c0,0,0,0,0,0-.02,0-.04.01-.06.02,0,0,0,0-.01,0-.02,0-.04.01-.05.02,0,0,0,0-.01,0-.02,0-.03.01-.05.02,0,0,0,0-.01,0-.02,0-.03.01-.05.02,0,0-.01,0-.02,0-.02,0-.03.01-.04.02,0,0-.01,0-.02,0-.02,0-.03.01-.05.02,0,0-.02,0-.02,0-.02,0-.03.01-.04.02,0,0-.02,0-.02,0-.01,0-.02,0-.03.01-.01,0-.02,0-.04.01,0,0-.02,0-.03,0-.01,0-.03,0-.04.01,0,0-.02,0-.03,0-.01,0-.03,0-.04.01h-.03s-.02.02-.03.02c0,0-.02,0-.03.01-.01,0-.03,0-.04.01,0,0,0,0-.02,0-.02,0-.03.01-.05.02,0,0-.01,0-.02,0-.02,0-.03.01-.05.02,0,0-.01,0-.02,0-.02,0-.04.01-.05.02,0,0-.01,0-.02,0-.01,0-.02,0-.03.01,0,0,0,0-.02,0-.02,0-.04.01-.05.02,0,0-.01,0-.02,0-.02,0-.04.01-.05.02,0,0-.01,0-.02,0-.02,0-.03.01-.05.02,0,0-.01,0-.02,0-.02,0-.03.01-.05.02,0,0-.01,0-.02,0-.01,0-.02,0-.03.01,0,0-.02,0-.02,0-.02,0-.03.01-.05.02,0,0-.02,0-.03,0-.01,0-.03,0-.04.01,0,0-.02,0-.02,0-.01,0-.03.01-.04.01,0,0-.02,0-.03,0,0,0-.02,0-.03,0-.01,0-.03.01-.04.01h-.03s-.03.02-.04.02c0,0-.02,0-.02,0-.01,0-.02,0-.03.01-.01,0-.02,0-.03.01-.01,0-.02,0-.03.01,0,0-.02,0-.03,0-.01,0-.03,0-.04.01,0,0-.01,0-.02,0-.02,0-.03.01-.05.02,0,0-.01,0-.02,0-.02,0-.03.01-.05.02,0,0-.01,0-.02,0-.02,0-.03.01-.05.02,0,0,0,0-.01,0-.02,0-.03.01-.05.02,0,0,0,0-.01,0-.02,0-.04.01-.05.02,0,0,0,0-.01,0-.02,0-.04.01-.06.02,0,0,0,0-.01,0-.02,0-.04.01-.06.02,0,0,0,0,0,0-.02,0-.04.01-.06.02,0,0,0,0,0,0-.04.01-.09.03-.13.04,0,0,0,0,0,0-.02,0-.04.01-.06.02t0,0c-.46.16-.92.31-1.39.46l2.45,7.62c1.52-.49,3.04-1.02,4.54-1.57l-2.79-7.51h0ZM150.78,200.99c-.17.08-.34.15-.5.23,0,0,0,0,0,0-.02,0-.04.02-.06.03,0,0,0,0,0,0-.02,0-.04.02-.06.03,0,0,0,0,0,0-.04.02-.08.04-.12.06,0,0,0,0,0,0-.02,0-.04.02-.06.03,0,0,0,0,0,0-.02,0-.04.02-.06.02,0,0,0,0-.01,0-.02,0-.03.02-.05.02,0,0,0,0-.01,0-.02,0-.04.02-.05.02,0,0,0,0,0,0-.02,0-.03.01-.05.02,0,0,0,0-.01,0-.02,0-.03.02-.05.02h-.01s-.03.02-.05.03c0,0-.01,0-.02,0-.01,0-.03.02-.05.02h-.02s-.03.02-.05.03c0,0,0,0-.01,0-.01,0-.03.01-.04.02,0,0-.01,0-.02,0-.01,0-.03.01-.04.02,0,0-.01,0-.02,0-.01,0-.03.01-.04.02,0,0-.02,0-.02.01-.01,0-.03.01-.04.02,0,0-.02,0-.03.01-.01,0-.02,0-.03.01-.01,0-.02.01-.04.02,0,0-.02,0-.03.01-.01,0-.03.01-.04.02,0,0-.01,0-.02.01-.02,0-.03.01-.05.02,0,0-.01,0-.02,0-.01,0-.02,0-.03.01-.01,0-.02.01-.04.02-.01,0-.02,0-.03.01,0,0-.01,0-.02,0-.02,0-.04.02-.05.02,0,0,0,0-.01,0-.02,0-.04.02-.06.03,0,0,0,0,0,0-.02,0-.04.02-.06.03h0c-.06.03-.12.05-.18.08h0s-.05.02-.07.03h0c-.56.24-1.13.47-1.7.7l2.99,7.43c1.48-.59,2.96-1.23,4.42-1.89l-3.32-7.29h0ZM157.15,197.82c-.57.31-1.14.61-1.72.91,0,0,0,0,0,0-.02.01-.04.02-.06.03,0,0,0,0,0,0-.02.01-.03.02-.05.03,0,0,0,0-.01,0-.02,0-.03.02-.05.03,0,0,0,0-.01,0-.01,0-.03.02-.05.02,0,0-.01,0-.02,0-.01,0-.03.01-.04.02,0,0-.02,0-.02.01-.01,0-.02.01-.03.02,0,0-.02,0-.03.01-.01,0-.02.01-.03.02,0,0-.02,0-.02.01-.01,0-.03.01-.04.02,0,0-.02,0-.03.01,0,0-.02.01-.03.02-.01,0-.02.01-.03.02,0,0-.01,0-.02,0-.02,0-.03.02-.05.02,0,0,0,0-.01,0-.02,0-.04.02-.05.03,0,0,0,0,0,0-.41.21-.81.41-1.22.61,0,0-.01,0-.02,0-.02,0-.03.02-.05.02,0,0-.01,0-.02.01-.01,0-.02.01-.04.02-.01,0-.02.01-.03.02,0,0-.01,0-.02.01-.01,0-.03.01-.04.02,0,0-.01,0-.02,0-.02,0-.03.01-.05.02,0,0,0,0,0,0l3.51,7.2c1.43-.7,2.87-1.44,4.27-2.2l-3.82-7.04h0ZM163.28,194.2c-.98.62-1.96,1.23-2.96,1.82,0,0,0,0,0,0-.02.01-.03.02-.05.03h0s-.03.03-.05.04c0,0-.01,0-.02,0-.01,0-.02.01-.04.02l-.03.02s-.02.01-.03.02c-.02,0-.03.02-.05.03,0,0,0,0-.01,0-.19.11-.37.22-.56.33l4.01,6.93c1.38-.8,2.76-1.64,4.1-2.49l-4.31-6.75h0ZM169.14,190.16c-.64.48-1.29.95-1.94,1.41h0c-.07.05-.14.1-.21.15,0,0,0,0,0,0-.02.01-.03.02-.05.04,0,0,0,0,0,0-.02.01-.03.02-.05.04,0,0,0,0-.01,0-.02.01-.03.02-.05.03,0,0,0,0-.01,0-.01,0-.03.02-.04.03,0,0-.02.01-.02.02,0,0-.02.01-.03.02,0,0-.02.01-.03.02-.01,0-.02.01-.03.02,0,0-.02.01-.02.02-.01,0-.02.02-.03.02,0,0-.02.01-.03.02,0,0-.02.01-.03.02-.01,0-.02.01-.03.02,0,0-.01,0-.02.01-.01,0-.03.02-.04.03,0,0-.01,0-.02.01-.01,0-.03.02-.04.03,0,0,0,0-.01,0-.02.01-.03.02-.05.03,0,0,0,0-.01,0-.02.01-.03.02-.05.03,0,0,0,0,0,0-.25.17-.49.34-.74.51l4.49,6.63c1.32-.89,2.64-1.83,3.92-2.78l-4.77-6.43h0ZM174.7,185.73c-.41.35-.83.7-1.24,1.05h0s-.03.03-.05.05c0,0,0,0,0,0-.02.01-.03.03-.05.04,0,0,0,0-.01,0-.01.01-.03.02-.04.03,0,0-.01.01-.02.01,0,0-.02.01-.02.02,0,0-.02.02-.03.02l-.03.02s-.02.01-.02.02c-.01,0-.02.02-.03.03,0,0-.02.01-.02.02l-.03.02s-.02.01-.03.02c0,0-.02.01-.02.02,0,0-.02.02-.03.03,0,0-.01.01-.02.02-.01.01-.03.02-.04.03,0,0-.01,0-.02.01-.01.01-.02.02-.04.03,0,0,0,0-.01.01-.01.01-.03.02-.04.03,0,0,0,0-.01,0-.01.01-.03.02-.04.03,0,0,0,0,0,0-.01,0-.03.02-.04.03h0s-.03.03-.04.04c0,0,0,0-.01,0-.01.01-.03.02-.05.04,0,0,0,0,0,0-.01.01-.03.03-.05.04,0,0,0,0,0,0-.02.01-.03.02-.05.04,0,0,0,0,0,0-.03.03-.07.06-.1.08,0,0,0,0,0,0-.02.01-.03.03-.05.04,0,0,0,0,0,0-.02.01-.03.03-.05.04,0,0,0,0,0,0-.02.01-.04.03-.05.04,0,0,0,0,0,0-.32.26-.65.52-.98.78l4.94,6.3c1.25-.98,2.5-2.01,3.71-3.04l-5.21-6.08h0ZM179.94,180.91c-.07.07-.14.14-.21.21,0,0,0,0-.01.01-.01.01-.02.02-.04.03,0,0-.02.01-.02.02,0,0-.02.02-.03.02,0,0-.02.02-.03.03,0,0,0,0-.01.01-.01.01-.03.02-.04.04,0,0,0,0-.01.01-.01.01-.03.03-.04.04,0,0,0,0,0,0-.01.01-.03.03-.04.04,0,0,0,0,0,0-.9.87-1.81,1.73-2.74,2.57l5.37,5.94c1.18-1.07,2.36-2.18,3.49-3.3l-5.62-5.7h0ZM184.83,175.73c-.21.24-.43.49-.64.72,0,0,0,0,0,0-.01.02-.03.03-.04.05,0,0,0,0,0,0-.01.01-.03.03-.04.04,0,0,0,0-.01.01-.01.01-.02.03-.04.04,0,0,0,0-.01.01-.01.01-.02.03-.03.04,0,0,0,.01-.01.02-.01.01-.02.02-.03.03,0,0-.01.01-.02.02,0,0-.02.02-.03.03,0,0-.01.01-.02.02-.01.01-.02.02-.03.03,0,0-.01.01-.02.02-.01.01-.02.02-.03.03,0,0-.01.01-.02.02-.01.01-.02.02-.03.03,0,0-.01.01-.02.02,0,0-.02.02-.02.02,0,.01-.02.02-.03.03,0,0-.01.01-.02.02-.01.01-.02.02-.03.03,0,0-.01.01-.02.02-.01.01-.02.02-.03.03,0,0-.01.01-.02.02,0,0-.01.02-.02.02,0,0-.02.02-.02.03,0,0-.02.02-.03.03,0,0-.01.01-.01.02-.01.01-.02.02-.03.04,0,0,0,.01-.02.02-.01.01-.02.02-.03.04,0,0-.01.01-.02.02-.01.01-.02.02-.03.03,0,0-.01.01-.02.02,0,.01-.02.02-.03.03,0,0-.01.01-.02.02,0,0-.01.02-.02.02,0,0-.02.02-.03.03,0,0-.01.01-.02.02-.01.01-.02.02-.03.03,0,0-.01.01-.02.02,0,0-.02.02-.02.03,0,0-.02.02-.02.03,0,0-.02.02-.02.03,0,0-.01.01-.02.02-.01.01-.02.02-.03.03,0,0,0,.01-.01.02-.01.01-.02.03-.04.04,0,0,0,0-.01.01-.01.01-.02.02-.04.04,0,0,0,0-.01.01-.01.01-.03.03-.04.04,0,0,0,0,0,0-.01.01-.03.03-.04.04,0,0,0,0,0,0-.02.02-.03.03-.04.05,0,0,0,0,0,0-.02.02-.03.03-.05.05,0,0,0,0,0,0-.02.02-.03.03-.05.05,0,0,0,0,0,0-.3.32-.6.64-.91.96l5.77,5.55c1.1-1.15,2.2-2.34,3.25-3.53l-6.01-5.29h0ZM189.35,170.23c-.08.1-.15.2-.23.29,0,0,0,0,0,0-.01.02-.03.03-.04.05,0,0,0,0,0,.01-.01.01-.02.03-.03.04,0,0,0,.01-.01.02-.01.01-.02.03-.03.04,0,0,0,.01-.01.02,0,0-.01.02-.02.03,0,.01-.02.02-.03.03,0,0-.01.02-.02.02,0,.01-.02.02-.03.03,0,0-.01.01-.02.02,0,.01-.02.02-.03.03,0,0-.01.01-.02.02,0,.01-.02.02-.02.03,0,0-.01.02-.02.02,0,0-.02.02-.03.03,0,0,0,.01-.01.02,0,.01-.02.03-.03.04,0,0,0,.01-.01.02,0,.01-.02.03-.03.04,0,0,0,.01-.01.02-.01.02-.02.03-.03.04,0,0,0,0-.01.01-.01.01-.02.03-.03.04,0,0,0,0,0,.01,0,.01-.02.03-.03.04,0,0,0,0,0,.01,0,.01-.02.03-.03.04,0,0,0,0,0,.01-.01.01-.02.03-.04.05,0,0,0,0,0,0-.01.01-.02.03-.04.04h0s-.02.04-.03.06c0,0,0,0,0,.01-.01.01-.02.03-.04.04,0,0,0,0,0,0-.01.01-.02.03-.04.05,0,0,0,0,0,0-.01.02-.02.03-.04.05,0,0,0,0,0,0-.01.01-.02.03-.04.05,0,0,0,0,0,.01-.01.01-.02.03-.04.04,0,0,0,0,0,.01-.01.01-.02.03-.04.04,0,0,0,0,0,0-.01.01-.02.03-.04.05,0,0,0,0,0,0,0,.01-.03.03-.04.04,0,0,0,0,0,0,0,.01-.02.03-.03.04,0,0,0,0,0,.01-.01.01-.02.03-.04.04,0,0,0,0,0,.01-.01.01-.02.03-.04.04,0,0,0,0,0,.01-.01.01-.02.03-.03.04,0,0,0,0,0,.01-.01.01-.02.03-.04.04,0,0,0,0,0,0-.01.01-.02.03-.04.04,0,0,0,0,0,0-.01.02-.02.03-.04.04h0s-.02.04-.04.05c0,0,0,0,0,.01-.01.01-.02.03-.03.04,0,0,0,0-.01.01-.01.01-.02.03-.03.04,0,0,0,0,0,.01-.01.01-.02.03-.04.04,0,0,0,0,0,0-.01.01-.02.03-.04.04,0,0,0,0,0,0,0,.01-.02.03-.03.04,0,0,0,0,0,.01-.01.01-.02.03-.04.04,0,0,0,0-.01.01-.01.01-.02.03-.03.04,0,0,0,0-.01.01-.01.01-.02.03-.04.04,0,0,0,0,0,.01-.01.01-.02.03-.04.04,0,0,0,0,0,.01-.01.01-.02.03-.03.04,0,0,0,0,0,0-.01.01-.02.03-.03.04,0,0,0,0,0,.01-.01.01-.02.03-.04.04,0,0,0,0,0,.01-.01.01-.02.03-.03.04,0,0,0,0-.01.01-.01.01-.02.03-.03.04,0,0,0,0-.01.01-.01.01-.02.03-.04.04,0,0,0,0,0,.01-.01.01-.02.03-.03.04,0,0,0,0,0,.01-.01.01-.02.03-.03.04,0,0,0,0,0,.01-.01.01-.02.03-.04.04,0,0,0,0,0,.01-.01.01-.02.03-.04.04,0,0,0,0,0,.01-.01.01-.02.03-.04.04,0,0,0,0,0,.01-.01.01-.02.03-.04.04,0,0,0,0,0,0-.01.01-.02.03-.04.04,0,0,0,0,0,0-.01.01-.02.03-.04.04,0,0,0,0,0,0-.01.01-.03.03-.04.05,0,0,0,0,0,0-.01.01-.02.03-.04.04,0,0,0,0,0,0l6.15,5.13c1.02-1.22,2.03-2.48,3-3.75l-6.37-4.86h0ZM193.46,164.42s-.06.09-.09.13c0,0,0,.01,0,.01-.01.02-.02.03-.03.05,0,0,0,.01-.01.02,0,.01-.02.03-.03.04,0,0-.01.02-.02.02,0,0-.01.02-.02.03,0,.01-.01.02-.02.04,0,0,0,.01-.01.02,0,.01-.02.03-.03.04v.02s-.03.03-.04.04v.02s-.03.03-.04.05c0,0,0,0,0,0-.01.02-.02.03-.03.05,0,0,0,0,0,0-.01.02-.02.04-.03.05,0,0,0,0,0,0-.01.02-.02.03-.03.05,0,0,0,0,0,0-.01.02-.02.04-.03.05,0,0,0,0,0,0-.01.02-.02.04-.04.05,0,0,0,0,0,0-.65.96-1.31,1.91-1.99,2.85l6.49,4.69c.93-1.29,1.85-2.62,2.73-3.95l-6.69-4.4h0ZM197.16,158.34c-.12.22-.25.44-.38.66,0,0,0,0,0,0-.01.02-.02.03-.03.05,0,0,0,0,0,.01,0,.02-.02.03-.03.05,0,0,0,0,0,.01,0,.02-.02.03-.03.05,0,0,0,0,0,.01,0,.01-.02.03-.02.04,0,0,0,.01-.01.02,0,.01-.01.02-.02.04v.02s-.03.02-.03.03c0,0,0,.02-.01.02,0,.01-.01.02-.02.04,0,0-.01.02-.02.03,0,0-.01.02-.02.03,0,.01-.01.02-.02.04,0,0,0,.01,0,.01-.01.02-.02.03-.03.05,0,0,0,0,0,0-.01.02-.02.04-.04.06h0c-.49.85-1,1.7-1.52,2.53l6.81,4.22c.84-1.35,1.66-2.75,2.44-4.14l-6.99-3.92h0ZM200.42,152.02c-.63,1.34-1.3,2.67-1.99,3.98l7.09,3.73c.74-1.41,1.46-2.86,2.14-4.3l-7.24-3.41h0ZM203.23,145.47c-.54,1.38-1.1,2.76-1.7,4.11l7.33,3.22c.64-1.46,1.26-2.95,1.83-4.44l-7.47-2.89h0ZM205.56,138.75c-.2.65-.41,1.31-.62,1.95h0s-.02.05-.02.07h0s-.02.05-.02.08h0s-.02.07-.03.11c0,0,0,.01,0,.02,0,.02-.01.03-.02.05,0,0,0,.02,0,.02,0,.01,0,.03-.01.04,0,0,0,.02-.01.03,0,0,0,.02,0,.03,0,.02,0,.03-.01.04,0,0,0,.02,0,.02,0,.02-.01.03-.02.05,0,0,0,.01,0,.02,0,.02-.01.03-.02.05,0,0,0,.01,0,.02,0,.02-.01.03-.02.05,0,0,0,0,0,.01,0,.02-.01.04-.02.05,0,0,0,0,0,.01,0,.02-.01.04-.02.05h0s-.01.05-.02.07c0,0,0,0,0,.01,0,.02-.01.04-.02.06,0,0,0,0,0,0,0,.02-.01.04-.02.06,0,0,0,0,0,0,0,.02-.01.04-.02.06,0,0,0,0,0,.01,0,.02-.01.04-.02.06,0,0,0,0,0,0,0,.02-.01.04-.02.06,0,0,0,0,0,0-.01.04-.03.08-.04.12,0,0,0,0,0,0,0,.02-.01.04-.02.06,0,0,0,0,0,0,0,.02-.01.04-.02.06h0s-.01.05-.02.07c0,0,0,0,0,0,0,.02-.01.04-.02.06,0,0,0,0,0,0,0,.02-.01.04-.02.06,0,0,0,0,0,0,0,.02-.01.04-.02.06,0,0,0,0,0,.01,0,.02-.01.03-.02.05,0,0,0,0,0,.01,0,.02-.01.04-.02.05,0,0,0,0,0,.01,0,.02-.01.03-.02.05,0,0,0,.01,0,.02,0,.02,0,.03-.02.04,0,0,0,.01,0,.02,0,.02-.01.03-.02.05,0,0,0,.02,0,.02,0,.01-.01.03-.02.04,0,0,0,.02,0,.03,0,0,0,.02-.01.03,0,.01,0,.03-.01.04,0,0,0,.01,0,.02,0,0,0,.02,0,.02l7.54,2.69c.54-1.5,1.05-3.04,1.51-4.56l-7.65-2.36h0ZM207.41,131.88c-.05.2-.09.39-.14.59h0s0,.02,0,.04h0s0,.03,0,.04c0,0,0,0,0,0,0,0,0,.02,0,.03,0,0,0,.01,0,.01,0,0,0,.01,0,.02,0,0,0,.01,0,.01,0,0,0,.01,0,.02,0,.02,0,.03-.01.05,0,0,0,0,0,0,0,.02-.01.05-.02.07,0,0,0,0,0,0,0,0,0,.02,0,.03,0,0,0,0,0,0,0,.01,0,.02,0,.03,0,0,0,0,0,0-.09.38-.19.76-.28,1.15,0,0,0,0,0,0,0,0,0,.02,0,.03,0,0,0,0,0,0,0,0,0,.02,0,.03,0,0,0,0,0,.01,0,0,0,.02,0,.02,0,0,0,0,0,0,0,0,0,.02,0,.03,0,0,0,0,0,0,0,0,0,.02,0,.03,0,0,0,0,0,.01,0,.02,0,.03-.01.05,0,0,0,0,0,0,0,0,0,.01,0,.02,0,0,0,.01,0,.02,0,0,0,.01,0,.02,0,0,0,.01,0,.02,0,0,0,0,0,.01,0,0,0,.02,0,.03,0,0,0,0,0,0,0,0,0,.02,0,.03h0s0,.03,0,.04h0c-.15.6-.31,1.2-.48,1.79l7.71,2.15c.43-1.54.83-3.1,1.19-4.66l-7.8-1.81h0ZM208.77,124.89c-.09.57-.19,1.15-.29,1.72h0s0,.02,0,.03c0,0,0,0,0,.01,0,0,0,.01,0,.02,0,0,0,.01,0,.02,0,0,0,.01,0,.02,0,0,0,.01,0,.02,0,0,0,.01,0,.02,0,0,0,.02,0,.02,0,0,0,0,0,.01,0,.01,0,.02,0,.03h0s-.01.08-.02.12h0c-.13.71-.26,1.42-.4,2.13h0s-.02.08-.02.11c0,0,0,.01,0,.02,0,0,0,.01,0,.02,0,0,0,.02,0,.03,0,0,0,0,0,0,0,0,0,.02,0,.03,0,0,0,0,0,0l7.85,1.6c.32-1.56.61-3.15.85-4.73l-7.91-1.25h0ZM209.63,117.83c-.03.4-.07.81-.11,1.21,0,0,0,0,0,0,0,0,0,.02,0,.03,0,0,0,0,0,.01,0,0,0,.02,0,.03,0,0,0,0,0,.01,0,.01,0,.01,0,.02,0,0,0,.01,0,.02,0,0,0,.02,0,.02,0,.01,0,.02,0,.04,0,0,0,0,0,.01,0,0,0,.02,0,.03,0,0,0,.01,0,.02,0,0,0,.02,0,.02,0,0,0,0,0,.01v.02s0,0,0,.01c0,0,0,.02,0,.02,0,0,0,0,0,.01,0,.01,0,.02,0,.03h0c-.1.95-.21,1.9-.33,2.84l7.94,1.04c.21-1.58.38-3.18.52-4.77l-7.98-.69h0ZM209.99,110.72c0,.35-.01.7-.02,1.04,0,0,0,0,0,0,0,.01,0,.02,0,.03,0,0,0,0,0,.01,0,0,0,.01,0,.02s0,.01,0,.02,0,.01,0,.02c0,0,0,.01,0,.02,0,0,0,.01,0,.02,0,.01,0,.02,0,.04,0,0,0,0,0,0,0,.01,0,.02,0,.03,0,0,0,0,0,0,0,.01,0,.02,0,.03,0,0,0,0,0,0v.03s0,0,0,0c-.01.5-.03,1-.06,1.49h0s0,.08,0,.12h0s0,.03,0,.04c0,0,0,0,0,0,0,.01,0,.02,0,.03h0s0,.03,0,.04c0,0,0,0,0,0,0,0,0,.02,0,.03,0,0,0,0,0,.01,0,0,0,.02,0,.03,0,.01,0,.02,0,.03,0,0,0,.01,0,.02,0,0,0,.01,0,.02,0,0,0,.01,0,.02,0,0,0,.02,0,.02,0,0,0,.01,0,.02,0,0,0,.02,0,.02,0,0,0,0,0,.01,0,0,0,.02,0,.02,0,0,0,0,0,.01-.02.37-.04.73-.06,1.1l7.99.48c.1-1.59.16-3.2.18-4.79l-8.01-.13h0ZM217.86,103.18l-8,.42c.02.42.04.84.06,1.26h0s0,.03,0,.04h0s0,.03,0,.04c0,0,0,0,0,0,0,.02,0,.05,0,.07,0,0,0,.02,0,.02,0,0,0,0,0,.01,0,.01,0,.01,0,.02,0,0,0,0,0,.01,0,0,0,.02,0,.03,0,0,0,0,0,0,0,.01,0,.02,0,.03,0,0,0,0,0,0,.03.77.05,1.54.06,2.32,0,0,0,0,0,.01,0,0,0,.01,0,.02,0,0,0,.01,0,.02,0,0,0,.01,0,.02,0,0,0,.01,0,.02,0,0,0,.01,0,.02,0,.01,0,.02,0,.03,0,0,0,0,0,0,0,.03,0,.05,0,.08h0c0,.12,0,.23,0,.34l8.01-.07c-.01-1.59-.06-3.21-.15-4.79h0ZM217.19,95.53l-7.95.98c.18,1.47.33,2.94.45,4.43l7.98-.63c-.13-1.59-.29-3.2-.48-4.78h0ZM215.98,87.94l-7.86,1.54c.11.55.21,1.1.31,1.65h0s0,.02,0,.04h0s0,.03,0,.04h0s.01.08.02.12h0s0,.03,0,.04c0,0,0,0,0,0,0,0,0,.02,0,.03,0,0,0,0,0,.01,0,0,0,.02,0,.02,0,0,0,.01,0,.02,0,0,0,.01,0,.02,0,0,0,.01,0,.02,0,0,0,.01,0,.02,0,0,0,.02,0,.02v.02s0,.01,0,.02c0,0,0,0,0,.01,0,.02,0,.03,0,.05,0,0,0,0,0,0,0,0,0,.01,0,.02,0,0,0,0,0,.01,0,0,0,.01,0,.02,0,0,0,0,0,.01,0,0,0,.02,0,.03,0,0,0,0,0,0,0,0,0,.02,0,.03,0,0,0,0,0,0,0,0,0,.02,0,.03h0s.02.09.02.14h0s0,.02,0,.03c0,0,0,0,0,0,0,0,0,.02,0,.03,0,0,0,0,0,0,0,.01,0,.02,0,.03,0,0,0,0,0,0,.01.08.03.16.04.24,0,0,0,0,0,0,0,.01,0,.02,0,.03,0,0,0,0,0,0,.01.07.02.14.03.2,0,0,0,0,0,0,0,0,0,.02,0,.03,0,0,0,0,0,0,0,0,0,.02,0,.03,0,0,0,0,0,0,0,0,0,.02,0,.03,0,0,0,0,0,.01,0,0,0,.02,0,.02,0,0,0,0,0,.01,0,0,0,.02,0,.03,0,0,0,0,0,0,0,.01,0,.02,0,.04,0,0,0,.02,0,.03,0,0,0,0,0,.01v.02s0,.01,0,.02c0,0,0,.01,0,.02,0,0,0,0,0,.02,0,0,0,.02,0,.02,0,0,0,0,0,.01,0,0,0,.02,0,.03,0,0,0,0,0,0,0,.01,0,.02,0,.03h0c.05.3.09.6.14.9l7.92-1.19c-.24-1.58-.51-3.17-.82-4.73h0ZM214.24,80.45l-7.73,2.09c.16.59.32,1.19.47,1.79,0,0,0,0,0,0,0,0,0,.02,0,.03,0,0,0,.01,0,.01,0,0,0,.02,0,.02h0s0,.03,0,.04t0,.01s0,.01,0,.02c0,0,0,0,0,.02,0,0,0,.01,0,.02,0,0,0,.01,0,.02v.02s.02.05.02.08c0,0,0,0,0,0,0,0,0,.02,0,.03,0,0,0,0,0,0,0,0,0,.02,0,.03,0,0,0,0,0,0,0,0,0,.02,0,.03,0,0,0,0,0,0,0,0,0,.02,0,.03,0,0,0,0,0,0,.17.7.34,1.4.49,2.1l7.82-1.75c-.35-1.56-.74-3.13-1.15-4.66h0ZM211.97,73.11l-7.56,2.64c.49,1.4.94,2.81,1.37,4.23l7.67-2.3c-.46-1.53-.96-3.07-1.48-4.57h0ZM209.18,65.95l-7.36,3.17c.18.42.36.85.54,1.28,0,0,0,0,0,0,0,.02.02.04.02.06,0,0,0,0,0,0,0,.02.02.04.02.06,0,0,0,0,0,.01,0,.02.01.04.02.05,0,0,0,0,0,.01,0,.01.01.03.02.04,0,0,0,.02.01.03,0,.01.01.03.02.04,0,0,0,.01,0,.02,0,.01.01.03.02.04,0,0,0,.02.01.03,0,.01.01.03.02.04,0,0,0,.02.01.03,0,0,0,.01,0,.02,0,.02.01.04.02.05,0,0,0,0,0,.01,0,.02.02.04.03.06h0c.3.74.59,1.48.87,2.23l7.49-2.84c-.56-1.49-1.17-2.99-1.8-4.45h0ZM205.89,59l-7.11,3.68s0,0,0,0c0,.01.02.03.02.04,0,0,0,.01.01.02,0,.01.01.03.02.04,0,0,0,.02.01.02,0,.01.01.02.02.04,0,0,.01.02.02.03,0,0,0,.02.01.03,0,.01.01.03.02.04,0,0,0,.01.01.02,0,.01.01.03.02.04,0,0,0,.02.01.02,0,.02.02.04.03.05,0,0,0,0,0,0,0,.01.01.02.02.03h0s.02.05.03.07h0s.02.05.03.07h0c.44.87.87,1.73,1.28,2.61,0,0,0,.01,0,.01,0,.02.02.03.02.05,0,0,0,.01.01.02,0,.01.01.03.02.04,0,.01,0,.02.01.03,0,0,0,.02.01.03,0,.01.01.03.02.04v.02s.02.03.03.05c0,0,0,.01,0,.02,0,.02.02.03.02.05,0,0,0,0,0,0,.07.14.14.29.2.44l7.27-3.36c-.67-1.45-1.38-2.9-2.11-4.31h0ZM202.13,52.31l-6.84,4.17c.23.38.45.75.68,1.13,0,0,0,0,0,0,.01.02.02.03.03.05,0,0,0,0,0,0,0,.02.02.03.03.05,0,0,0,0,0,.01l.03.05s0,0,0,.01c0,.01.02.03.02.04,0,0,0,.01.01.02,0,.01.01.02.02.03,0,0,.01.02.02.03,0,.01.01.02.02.03,0,0,0,.01.01.02,0,.01.01.02.02.04,0,0,0,.02.01.03,0,.01.01.03.02.04,0,0,.01.02.02.03,0,0,0,.01.01.02,0,.01.02.03.03.04,0,0,0,.01,0,.02,0,.02.02.03.03.05,0,0,0,0,0,.01.01.02.02.04.03.06,0,0,0,0,0,0,.03.05.06.11.09.16h0c.36.62.7,1.23,1.05,1.86l7.01-3.87c-.77-1.4-1.58-2.79-2.41-4.15h0ZM197.9,45.89l-6.53,4.64c.86,1.21,1.69,2.44,2.5,3.68l6.72-4.35c-.87-1.34-1.77-2.67-2.7-3.97h0ZM193.23,39.8l-6.18,5.09c.43.52.86,1.05,1.28,1.59,0,0,0,0,0,0,.01.02.03.03.04.05,0,0,0,0,0,0,.01.02.03.03.04.05,0,0,0,0,0,.01.01.01.02.03.03.04,0,0,0,0,.01.02.01.01.02.03.03.04,0,0,0,0,.01.01,0,0,.01.02.02.03,0,0,.01.01.01.02.01.01.02.03.03.04,0,0,0,0,.01.02.01.01.02.03.03.04,0,0,0,.01.01.02,0,.01.02.02.03.04,0,0,0,.01.01.02,0,.01.02.03.03.04,0,0,0,.01.01.02,0,0,.01.02.02.03,0,.01.02.02.02.03,0,0,.01.02.02.03,0,0,.01.02.02.02,0,.01.02.02.03.03,0,0,.01.01.02.02,0,.01.02.02.03.04,0,0,0,.01.01.02.01.01.02.03.03.04,0,0,0,0,.01.01.01.02.02.03.03.05,0,0,0,0,0,.01.01.02.03.04.04.05,0,0,0,0,0,0,.02.03.05.06.07.09h0s.03.04.04.06h0s.03.04.04.06h0c.2.27.41.53.61.8l6.4-4.81c-.96-1.27-1.96-2.54-2.97-3.77h0ZM188.15,34.04l-5.81,5.51c.08.08.16.17.24.25h0s.03.03.04.05c0,0,0,0,0,0,.02.02.03.03.04.04,0,0,0,0,0,0,.01.01.02.02.03.04,0,0,.01.01.02.02,0,0,.02.02.03.03,0,0,.01.01.02.02,0,0,.02.02.03.03,0,0,.01.02.02.02,0,0,.01.01.02.02.01.01.02.03.04.04h0s.03.04.05.06h0c.81.87,1.61,1.76,2.4,2.67l6.05-5.25c-1.04-1.2-2.13-2.4-3.22-3.56h0ZM182.67,28.66l-5.41,5.9c1.09,1,2.16,2.03,3.21,3.08l5.67-5.66c-1.13-1.13-2.29-2.24-3.47-3.32h0ZM176.84,23.67l-4.99,6.27c.82.65,1.62,1.31,2.42,1.98,0,0,0,0,0,0,.02.01.03.03.05.04,0,0,0,0,0,0,.01.01.03.03.04.04,0,0,0,0,.01,0,.01.01.03.02.04.04,0,0,0,0,.01.01.01.01.03.02.04.03,0,0,0,0,.01.01.01.01.02.02.03.03,0,0,.01.01.02.02.01.01.02.02.03.03,0,0,.01,0,.02.01.01.01.02.02.04.03,0,0,.01.01.02.02.01.01.02.02.04.03,0,0,.01.01.02.02.01.01.02.02.03.03,0,0,.01.01.02.02,0,0,.02.01.03.02,0,0,.02.02.03.03,0,0,.01.01.02.02.01,0,.02.02.03.03,0,0,.01.01.02.02.01,0,.02.02.03.03,0,0,.02.01.02.02,0,0,.02.01.02.02.01.01.02.02.03.03,0,0,.01.01.02.02,0,0,.02.02.03.03,0,0,.01.01.02.02.01.01.02.02.03.03,0,0,.01.01.02.02,0,0,.02.02.03.03,0,0,.02.01.02.02,0,0,.02.02.03.02,0,0,.01.01.02.02.01.01.02.02.04.03,0,0,0,0,0,0l5.26-6.04c-1.2-1.05-2.44-2.08-3.69-3.07h0ZM170.66,19.1l-4.53,6.6c.59.41,1.18.82,1.76,1.24,0,0,0,0,0,0,.02.01.04.03.06.04,0,0,0,0,0,0,.04.03.07.05.11.08,0,0,0,0,0,0,.02.01.04.03.05.04,0,0,0,0,0,0,.02.01.03.02.05.03,0,0,0,0,.01,0,.02.01.03.02.04.03,0,0,0,0,.01,0,.01,0,.03.02.04.03,0,0,.01,0,.01.01.01,0,.03.02.04.03,0,0,.01,0,.02.01.01,0,.02.02.03.02,0,0,.02.01.03.02.01,0,.02.01.03.02,0,0,.01,0,.02.01.01,0,.02.02.04.03,0,0,.02.01.02.02.01,0,.02.02.03.02,0,0,.02.01.03.02,0,0,.01,0,.02.01.01.01.03.02.04.03,0,0,0,0,.01,0,.02.01.03.02.05.04,0,0,0,0,0,0,.34.25.69.51,1.03.76l4.82-6.4c-1.27-.96-2.58-1.9-3.9-2.8h0ZM164.18,14.97l-4.06,6.9s0,0,0,0c.02,0,.03.02.05.03,0,0,0,0,.01,0,.02,0,.04.02.05.03,0,0,0,0,0,0,.76.45,1.51.9,2.25,1.37,0,0,0,0,0,0,.02.01.04.02.06.03,0,0,0,0,0,0,.02.01.04.02.06.04,0,0,0,0,0,0,.04.02.08.05.11.07,0,0,0,0,0,0,.02.01.04.02.05.03,0,0,0,0,0,0,.02.01.03.02.05.03,0,0,0,0,0,0,.02.01.04.02.05.03,0,0,0,0,0,0,.02.01.04.02.05.03,0,0,0,0,0,0,.04.02.07.05.11.07,0,0,0,0,0,0,.02.01.04.02.05.03,0,0,0,0,0,0,.02.01.03.02.05.03,0,0,0,0,0,0,.02.01.04.02.05.03,0,0,0,0,0,0,.21.14.43.27.64.41l4.36-6.72c-1.34-.87-2.71-1.72-4.08-2.52h0ZM157.42,11.32l-3.56,7.17h.01s.03.02.04.03c0,0,.01,0,.02.01.01,0,.03.01.04.02,0,0,.02,0,.02.01.01,0,.03.01.04.02,0,0,.02,0,.03.01,0,0,.01,0,.02,0,.02,0,.03.02.05.02,0,0,0,0,.01,0,.02,0,.04.02.06.03h0s.04.03.06.04h0c1.19.6,2.37,1.22,3.53,1.86l3.87-7.01c-1.4-.77-2.83-1.52-4.25-2.23h0ZM150.42,8.15l-3.04,7.41c.55.23,1.1.46,1.65.69h0s.02.01.03.02h0s.04.02.06.03c0,0,.01,0,.02,0,.01,0,.03.01.04.02,0,0,.02,0,.03.01.01,0,.02,0,.03.01.01,0,.02.01.04.02,0,0,.01,0,.02,0,.01,0,.03.01.05.02,0,0,.01,0,.02,0,.02,0,.03.01.05.02,0,0,0,0,.01,0,.02,0,.03.02.05.02,0,0,0,0,0,0,.66.29,1.31.58,1.96.88l3.37-7.27c-1.45-.67-2.93-1.32-4.4-1.92h0ZM143.22,5.48l-2.51,7.6c.54.18,1.08.36,1.61.55h0s.04.02.06.02c0,0,0,0,.02,0,.02,0,.03.01.05.02,0,0,.02,0,.02,0,0,0,.02,0,.03.01.01,0,.03.01.04.01,0,0,.02,0,.02,0,.02,0,.03.01.04.02,0,0,.01,0,.02,0,.02,0,.03,0,.04.01,0,0,.01,0,.02,0,.02,0,.03.01.05.02,0,0,0,0,.01,0,.02,0,.04.01.05.02,0,0,0,0,.01,0,.02,0,.04.01.06.02,0,0,0,0,0,0,.67.24,1.35.49,2.02.74l2.85-7.49c-1.49-.57-3.01-1.11-4.53-1.61h0ZM135.84,3.33l-1.97,7.76s.02,0,.03,0h0s.04.01.06.02c0,0,0,0,.01,0,.01,0,.02,0,.03,0,.01,0,.03,0,.04.01,0,0,.02,0,.03,0,.01,0,.02,0,.03,0,.01,0,.02,0,.04,0,.01,0,.02,0,.03,0,0,0,.02,0,.03,0,.02,0,.03,0,.05.01,0,0,.01,0,.02,0,.02,0,.04,0,.05.01,0,0,.01,0,.02,0,.02,0,.04,0,.05.01,0,0,0,0,.01,0,.02,0,.04.01.06.02,0,0,0,0,0,0,.02,0,.04.01.06.02,0,0,0,0,0,0,.02,0,.04.01.06.02h0s.05.01.06.02c0,0,0,0,0,0,.78.21,1.57.42,2.34.64,0,0,0,0,0,0,.02,0,.04.01.06.02,0,0,0,0,0,0,.02,0,.04.01.06.02,0,0,0,0,.01,0,.02,0,.04.01.06.02,0,0,0,0,.01,0,.02,0,.03,0,.05.01,0,0,.01,0,.02,0,.02,0,.03,0,.04.01,0,0,.01,0,.02,0,.02,0,.03,0,.04.01,0,0,.02,0,.03,0,.01,0,.03,0,.04.01.01,0,.02,0,.03,0,0,0,.01,0,.02,0,.02,0,.04.01.06.02h0c.19.06.37.11.56.17l2.31-7.67c-1.53-.46-3.08-.89-4.63-1.28h0ZM128.32,1.71l-1.41,7.88s0,0,0,0c0,0,0,0,.01,0,0,0,.02,0,.02,0,0,0,0,0,.01,0,0,0,.02,0,.02,0,0,0,0,0,.02,0,0,0,.01,0,.02,0,0,0,.01,0,.02,0,0,0,.01,0,.02,0,0,0,.01,0,.02,0,0,0,0,0,0,0,.02,0,.04,0,.06.01,0,0,0,0,0,0,0,0,.02,0,.03,0,0,0,0,0,0,0,0,0,.02,0,.03,0,0,0,0,0,0,0,0,0,.02,0,.03,0,0,0,0,0,0,0,0,0,.02,0,.03,0,0,0,0,0,0,0,0,0,.02,0,.03,0,0,0,0,0,0,0,.08.01.16.03.24.04h0s.02,0,.03,0c0,0,0,0,0,0,.08.02.16.03.24.04,0,0,0,0,0,0,.01,0,.02,0,.03,0,0,0,0,0,0,0,0,0,.02,0,.03,0,0,0,0,0,0,0,.05.01.11.02.17.03,0,0,0,0,0,0,0,0,.02,0,.03,0,0,0,0,0,0,0,0,0,.02,0,.03,0,0,0,0,0,.01,0,0,0,.02,0,.02,0,0,0,0,0,.01,0,0,0,.01,0,.02,0,0,0,0,0,.01,0,0,0,.02,0,.02,0,0,0,.01,0,.02,0,0,0,.02,0,.03,0,0,0,.02,0,.03,0,0,0,0,0,.01,0,0,0,.02,0,.03,0,0,0,0,0,.01,0,0,0,.02,0,.03,0,0,0,0,0,.01,0,0,0,.02,0,.03,0,0,0,0,0,.01,0,0,0,.02,0,.03,0h0c.94.18,1.87.38,2.8.59l1.76-7.81c-1.55-.35-3.14-.67-4.71-.95h0ZM120.72.62l-.85,7.96c.36.04.71.08,1.07.12,0,0,0,0,0,0,0,0,.02,0,.03,0,0,0,.01,0,.02,0,0,0,.01,0,.02,0,0,0,.02,0,.02,0,0,0,0,0,.01,0,.01,0,.03,0,.04,0h0s.02,0,.04,0h0s.02,0,.03,0h0s.02,0,.03,0h0s.03,0,.04,0h0c.79.1,1.58.2,2.36.31,0,0,0,0,.01,0,0,0,.02,0,.02,0,0,0,0,0,.02,0,0,0,.01,0,.02,0,0,0,.01,0,.02,0,0,0,0,0,.01,0,0,0,.02,0,.02,0,0,0,0,0,0,0,.18.03.36.05.55.08l1.2-7.92c-1.57-.24-3.18-.45-4.76-.62h0ZM113.06.07l-.29,8c.39.01.79.03,1.18.05,0,0,0,0,.01,0,0,0,.01,0,.02,0,0,0,.01,0,.02,0,0,0,.01,0,.02,0,0,0,.01,0,.02,0,0,0,0,0,.02,0,0,0,.02,0,.03,0,0,0,0,0,.01,0,.04,0,.08,0,.12,0h0s.03,0,.04,0h0c.66.03,1.31.07,1.97.12h0s.02,0,.03,0c0,0,0,0,0,0,0,0,.02,0,.03,0,0,0,0,0,.01,0,0,0,.02,0,.02,0,0,0,.01,0,.01,0,0,0,.02,0,.03,0,0,0,0,0,0,0,.01,0,.02,0,.04,0,0,0,.02,0,.02,0,0,0,0,0,.01,0,.01,0,.02,0,.03,0,0,0,0,0,.01,0,0,0,.02,0,.03,0,0,0,0,0,.01,0,0,0,.02,0,.03,0,0,0,0,0,0,0,.22.02.44.03.65.05l.64-7.98c-1.59-.13-3.2-.22-4.79-.28h0ZM109.01,0v8.01h.09s.02,0,.03,0h0c.32,0,.64,0,.97,0L110.19,0c-.39,0-.78,0-1.18,0h0Z" style="fill: #4bd996; stroke-width: 0px;"/>
        <circle cx="109.01" cy="109.01" r="101" style="fill: none; stroke: #fff; stroke-miterlimit: 10; stroke-width: 12.46px;"/>
        <circle cx="109.01" cy="109.01" r="101" style="fill: #41d992; opacity: .39; stroke-width: 0px;"/>
      </g>
      <g>
        <g>
          <rect x="137.62" y="141.19" width="10.86" height="5.18" transform="translate(-14.45 15.99) rotate(-6.09)" style="fill: #ff6685; stroke-width: 0px;"/>
          <rect x="137.63" y="141.47" width="5.43" height="5.18" transform="translate(-14.49 15.7) rotate(-6.09)" style="fill: #000; opacity: .1; stroke-width: 0px;"/>
          <path d="M137.92,146.93s-4.69,1.35-8.62,7.9c-1.37,2.29-1.28,4.53-.59,6.46,1.37,3.8,5.17,6.17,9.2,6.17h33.47c-10.31-4.76-6.38-21.68-22.67-21.68l-10.8,1.15Z" style="fill: #8c8c8c; stroke-width: 0px;"/>
          <path d="M158.76,157.82c.55,6.76,12.64,9.64,12.64,9.64-10.31-4.76-6.38-21.68-22.67-21.68,0,0,10.2,4.34,10.04,12.04Z" style="fill: #fff; opacity: .2; stroke-width: 0px;"/>
          <path d="M137.92,146.93s-4.69,1.35-8.62,7.9c-1.37,2.29-1.28,4.53-.59,6.46,1.37,3.8,5.17,6.17,9.2,6.17l-.04-.06c-3.85-5.62-2.68-13.46,2.94-17.31,2.35-1.61,5.03-3.86,7.9-4.31l-10.8,1.15Z" style="fill: #000; opacity: .1; stroke-width: 0px;"/>
          <path d="M130.43,25.65h-.04c-1.12.12-1.92,1.12-1.8,2.24l12.15,113.52,4.08-.44-12.15-113.52c-.12-1.12-1.12-1.92-2.24-1.8ZM131.04,31.57c-.59.06-1.16-.76-1.27-1.84-.12-1.08.27-2.01.85-2.07.59-.06,1.16.76,1.27,1.84.12,1.08-.27,2.01-.85,2.07Z" style="fill: #bdae60; stroke-width: 0px;"/>
          <path d="M130.43,25.65h-.04c-1.12.12-1.92,1.12-1.8,2.24l12.15,113.52,2.04-.22s-9.08-84.67-11.72-109.64c0,0-1.06.22-1.28-1.84-.21-1.96.87-2.07.87-2.07-.14-1.3-.21-2-.21-2Z" style="fill: #000; opacity: .1; stroke-width: 0px;"/>
        </g>
        <g>
          <path d="M130.62,87.1c-.21,0-.41.02-.61.04-.18-2.44-2.19-4.37-4.67-4.37s-4.7,2.11-4.7,4.7c0,.22.04.43.06.64-.39-.1-.79-.16-1.2-.16-2.61,0-4.73,2.12-4.73,4.73,0,.39.05.78.14,1.15-.61-.33-1.27-.57-1.96-.7-.24-.7-.59-1.34-.99-1.94.89-.75,1.47-1.87,1.47-3.12,0-2.27-1.84-4.11-4.11-4.11-1.96,0-3.59,1.38-4,3.21-.14-.01-.28-.05-.43-.05-.93-1.87-2.86-3.16-5.09-3.16s-4.22,1.35-5.13,3.27c-.76-.6-1.7-.97-2.74-.97-2.46,0-4.45,2-4.45,4.45,0,.24.03.46.07.69-3.26,1.05-5.62,4.1-5.62,7.7,0,4.46,3.63,8.09,8.09,8.09,2.19,0,4.22-.87,5.7-2.37,1.64.51,3.52.3,5-.56,2.12,1,4.63,1.11,6.82.31,1.16.99,2.65,1.56,4.23,1.56,1.42,0,2.77-.46,3.88-1.28.71.22,1.47.3,2.21.22,1.36,1.05,3.03,1.64,4.77,1.64,1.96,0,3.83-.75,5.26-2.05.89.29,1.81.44,2.75.44,4.96,0,9-4.04,9-9s-4.04-9-9-9Z" style="fill: #27d0ff; stroke-width: 0px;"/>
          <g>
            <path d="M130.62,89.64c-2.8,0-5.17,1.8-6.06,4.29-.6-.24-1.26-.38-1.95-.38-.41,0-.8.06-1.18.14.16-.3.26-.64.26-1.01,0-1.21-.98-2.2-2.2-2.2s-2.2.98-2.2,2.2c0,1.1.82,2.01,1.87,2.16-.53.45-.96,1-1.28,1.63-.19-.04-.39-.06-.59-.06-.87,0-1.65.36-2.2.94-.72-1.08-1.95-1.79-3.34-1.79-.29,0-.58.04-.86.1-.23-3.36-3-6.02-6.42-6.02-.54,0-1.06.09-1.57.21,0-.07.02-.14.02-.21,0-1.74-1.41-3.15-3.15-3.15s-3.15,1.41-3.15,3.15c0,1.47,1.01,2.69,2.38,3.04-.46.74-.77,1.57-.9,2.47-.18-.03-.36-.05-.54-.05-1.11,0-2.09.49-2.78,1.26-.96-1.67-2.73-2.8-4.8-2.8-3.07,0-5.55,2.48-5.55,5.55s2.49,5.55,5.55,5.55c2.2,0,4.08-1.29,4.98-3.14.67.65,1.59,1.06,2.6,1.06,1.18,0,2.23-.56,2.91-1.42,1.1.88,2.48,1.42,4,1.42,1.38,0,2.66-.44,3.71-1.18.66,1.3,2,2.21,3.57,2.21,1.44,0,2.69-.76,3.4-1.9.55.54,1.31.87,2.14.87.46,0,.89-.11,1.28-.28.97,1.15,2.41,1.9,4.04,1.9,1.95,0,3.64-1.06,4.56-2.63,1,.63,2.18,1.01,3.45,1.01,3.57,0,6.47-2.89,6.47-6.47s-2.89-6.47-6.47-6.47Z" style="fill: #7de3ff; stroke-width: 0px;"/>
            <path d="M109.31,89.64c.87,0,1.57-.7,1.57-1.57s-.7-1.57-1.57-1.57-1.57.7-1.57,1.57.7,1.57,1.57,1.57Z" style="fill: #7de3ff; stroke-width: 0px;"/>
            <circle cx="91.91" cy="90.71" r="1.92" style="fill: #7de3ff; stroke-width: 0px;"/>
            <path d="M125.34,89.64c1.2,0,2.17-.97,2.17-2.17s-.97-2.17-2.17-2.17-2.17.97-2.17,2.17.97,2.17,2.17,2.17Z" style="fill: #7de3ff; stroke-width: 0px;"/>
          </g>
          <polygon points="140.7 115.85 79.75 115.85 83.05 167.46 137.4 167.46 140.7 115.85" style="fill: #debe0b; stroke-width: 0px;"/>
          <polygon points="138.43 151.35 82.15 151.35 82.15 153.46 138.3 153.46 138.43 151.35" style="fill: #b59f27; stroke-width: 0px;"/>
          <polygon points="137.94 159.05 82.51 159.05 82.65 161.17 137.8 161.17 137.94 159.05" style="fill: #b59f27; stroke-width: 0px;"/>
          <polygon points="102.28 116.98 81.58 117.11 84.8 167.46 102.28 167.46 102.28 116.98" style="fill: #000; opacity: .1; stroke-width: 0px;"/>
          <polygon points="134.59 116.98 121.24 117.11 120.41 167.46 132.12 167.46 134.59 116.98" style="fill: #fff; opacity: .2; stroke-width: 0px;"/>
          <rect x="80.96" y="110.51" width="58.52" height="5.34" style="fill: #b59f27; stroke-width: 0px;"/>
          <path d="M135.99,100.72h-51.53c-5.35,0-9.69,4.34-9.69,9.69v.1h70.9v-.1c0-5.35-4.34-9.69-9.69-9.69Z" style="fill: #debe0b; stroke-width: 0px;"/>
          <path d="M133.57,101.15c10.39-.24,11.61,8.2,11.61,8.2,0,0-4.17-7.22-11.61-8.2Z" style="fill: #fff; opacity: .2; stroke-width: 0px;"/>
          <path d="M113.97,104.62h-31.69c-3.29,0-5.96,1.78-5.96,5.07v.06h43.6v-.06c0-3.29-2.67-5.07-5.96-5.07Z" style="fill: #000; opacity: .1; stroke-width: 0px;"/>
          <path d="M110.22,146.05c-20.24,0-36.7-16.46-36.7-36.7h1.1c0,19.63,15.97,35.6,35.6,35.6s35.6-15.97,35.6-35.6h1.1c0,20.24-16.46,36.7-36.7,36.7Z" style="fill: #3d3d3d; stroke-width: 0px;"/>
          <circle cx="146.35" cy="109.75" r="1.88" style="fill: #b59f27; stroke-width: 0px;"/>
          <circle cx="74.07" cy="109.75" r="1.88" style="fill: #b59f27; stroke-width: 0px;"/>
        </g>
      </g>
      <g>
        <path d="M77.64,169.01h-26.5c-3.36,0-6.33-2.89-6.42-6.23-.18-7.1.71-24.57,4.18-36.78,2.27-8,7.53-2.28,10.13-7.59,2.11-4.3,6.97-25.02,6.97-25.02h12.84c-.28,32.19,3.56,70.52,3.08,72.18-.63,2.2-1.81,3.45-4.29,3.45Z" style="fill: #3667a8; stroke-width: 0px;"/>
        <path d="M76.13,167.34s-3.04-38.14-1.16-75.63h2.27c-.28,32.19,2.47,70.1,2.42,72.48-.04,2.29-1.05,3.15-3.53,3.15Z" style="fill: #fff; opacity: .2; stroke-width: 0px;"/>
        <path d="M87.36,80.8h-22.18c-1.93,0-3.5,1.57-3.5,3.5v3.56c0,1.93,1.57,3.5,3.5,3.5h22.18v-10.57Z" style="fill: #bdbdbd; stroke-width: 0px;"/>
        <path d="M87.36,86.11l-25.68-.02v1.78c0,1.93,1.57,3.5,3.5,3.5h22.18v-5.26Z" style="fill: #000; opacity: .15; stroke-width: 0px;"/>
        <path d="M86.22,91.37h-6.43c0,.98.99,1.78,1.98,1.78.3,0,.91-.08,1.15-.21.31,2.85,1.64,12.44,7.03,16.31l.41-.3c-5.06-8.15-4.14-17.59-4.14-17.59Z" style="fill: #3667a8; stroke-width: 0px;"/>
        <path d="M84.41,91.37h-4.62c0,.98.99,1.78,1.98,1.78.3,0,.91-.08,1.15-.21.31,2.85,1.64,12.44,7.03,16.31l.2-.15c-5.96-6.48-5.75-17.74-5.75-17.74Z" style="fill: #000; opacity: .15; stroke-width: 0px;"/>
        <rect x="87.36" y="81.64" width="2.8" height="8.93" style="fill: #3667a8; stroke-width: 0px;"/>
        <rect x="87.36" y="86.11" width="2.8" height="4.46" style="fill: #000; opacity: .15; stroke-width: 0px;"/>
        <rect x="90.16" y="82.97" width="1.43" height="6.28" style="fill: #274b7a; stroke-width: 0px;"/>
        <rect x="90.16" y="86.11" width="1.43" height="3.14" style="fill: #000; opacity: .15; stroke-width: 0px;"/>
        <polygon points="94.64 87.01 91.59 88.76 91.59 83.45 94.64 85.21 94.64 87.01" style="fill: #bdbdbd; stroke-width: 0px;"/>
        <polygon points="94.64 87.01 91.59 88.76 91.59 86.08 94.64 86.11 94.64 87.01" style="fill: #000; opacity: .15; stroke-width: 0px;"/>
        <rect x="66.01" y="91.37" width="12.84" height="2.01" style="fill: #274b7a; stroke-width: 0px;"/>
        <rect x="53.22" y="132.46" width="20.71" height="25.49" style="fill: #488ae0; stroke-width: 0px;"/>
        <rect x="54.25" y="133.72" width="18.65" height="22.96" style="fill: #fff; stroke-width: 0px;"/>
        <path d="M70.34,148.64c0,3.73-3.03,6.76-6.76,6.76s-6.76-3.03-6.76-6.76,3.03-6.76,6.76-6.76,6.76,3.03,6.76,6.76Z" style="fill: #27d0ff; stroke-width: 0px;"/>
        <rect x="54.82" y="135.21" width="17.43" height="4.78" style="fill: #ff6685; stroke-width: 0px;"/>
        <path d="M59.85,167.34h-7.71c-3.1,0-5.84-2.66-5.92-5.75-.17-6.55.66-22.67,3.86-33.93,2.1-7.38,6.95-2.1,9.35-7,1.94-3.97,7.66-27.28,7.66-27.28h1.78c-8.04,24.81-9.02,73.96-9.02,73.96Z" style="fill: #000; opacity: .15; stroke-width: 0px;"/>
        <rect x="64.97" y="81.42" width="21.61" height="1.55" style="fill: #fff; opacity: .2; stroke-width: 0px;"/>
        <rect x="87.57" y="82.19" width="2.32" height="1.53" style="fill: #fff; opacity: .2; stroke-width: 0px;"/>
        <rect x="90.36" y="83.26" width="1.03" height="1.36" style="fill: #fff; opacity: .2; stroke-width: 0px;"/>
      </g>
    </g>
  </g>
</svg>