<?xml version="1.0" encoding="utf-8"?>
<!-- Generator: Adobe Illustrator 28.2.0, SVG Export Plug-In . SVG Version: 6.00 Build 0)  -->
<svg version="1.1" id="_圖層_1" xmlns="http://www.w3.org/2000/svg" xmlns:xlink="http://www.w3.org/1999/xlink" x="0px" y="0px"
	 width="218px" height="218px" viewBox="0 0 218 218" style="enable-background:new 0 0 218 218;" xml:space="preserve">
<style type="text/css">
	.st0{fill:#4BD996;}
	.st1{fill:none;stroke:#FFFFFF;stroke-width:12.5;stroke-miterlimit:10;}
	.st2{opacity:0.4;fill:#41D992;enable-background:new    ;}
	.st3{display:none;}
	.st4{display:inline;}
	.st5{font-family:'AdobeMingStd-Light-B5pc-H';}
	.st6{font-size:122.4px;}
	.st7{fill:#FFCC8F;}
	.st8{fill:#F2BA7C;}
	.st9{fill:#E3443A;}
	.st10{fill:#457782;}
	.st11{fill:#39666D;}
	.st12{fill:#50909B;}
	.st13{fill:#EFF3F4;}
	.st14{fill:#85BAC6;}
	.st15{fill:#E8673B;}
	.st16{fill:#EAAE6E;}
	.st17{fill:#010001;}
	.st18{fill:#FF9F92;}
	.st19{fill:#94D1E3;}
	.st20{fill:#9E9C9B;}
	.st21{fill:#777777;}
	.st22{fill:#595959;}
	.st23{fill:#494746;}
	.st24{fill:#777777;stroke:#595959;stroke-width:0.5;stroke-miterlimit:10;}
	.st25{fill:#87CAD9;}
	.st26{fill:#FFCE6C;}
	.st27{fill:#FFFFFF;}
	.st28{fill:#D8D8D8;}
	.st29{fill:#444443;}
	.st30{fill:#848484;}
	.st31{fill:#D4EFF4;}
	.st32{fill:#A3CED6;}
	.st33{fill:#64969B;}
</style>
<g id="_圖層_8">
	<g>
		<path class="st0" d="M109,0c-1.6,0-3.2,0-4.8,0.1l0.3,8h3.3V0H109z M101.3,0.3c-1.6,0-3.2,0.3-4.8,0.4l0.9,8
			c0.8-0.1,1.7-0.2,2.5-0.3h0.2c0.4,0,0.9-0.1,1.3-0.1L101.3,0.3L101.3,0.3L101.3,0.3z M93.7,1.1c-1.6,0.2-3.2,0.5-4.7,0.8l1.5,7.9
			c1.5-0.3,2.9-0.5,4.4-0.7L93.7,1.1C93.7,1.1,93.7,1.1,93.7,1.1z M86.1,2.4c-1.6,0.3-3.1,0.7-4.7,1.1l2,7.8
			c1.1-0.3,2.3-0.6,3.5-0.8l0,0c0.2-0.1,0.5-0.1,0.7-0.1L86.1,2.4C86.1,2.4,86.1,2.4,86.1,2.4z M78.7,4.3c-1.5,0.4-3.1,0.9-4.6,1.4
			l2.6,7.6c0.8-0.3,1.5-0.5,2.3-0.7l0,0c0,0,0.1,0,0.2-0.1h0.7c0.3-0.1,0.6-0.2,0.9-0.3L78.7,4.3C78.7,4.3,78.7,4.3,78.7,4.3z
			 M71.4,6.7c-1.5,0.6-3,1.1-4.5,1.8l3.1,7.4c0.3-0.1,0.7-0.3,1-0.4h0.3c0.8-0.3,1.7-0.7,2.6-1L71.4,6.7L71.4,6.7z M64.3,9.6
			c-1.5,0.7-2.9,1.4-4.3,2.1l3.6,7.1c0.6-0.3,1.2-0.6,1.9-0.9l0,0c0,0,0,0,0-0.1h1.1c0.3-0.1,0.5-0.3,0.8-0.4l-3.3-7.8l0,0L64.3,9.6
			z M57.4,13c-1.4,0.8-2.8,1.6-4.2,2.4l4.1,6.9c0.4-0.3,0.9-0.5,1.3-0.8l0,0c0,0,0-0.1,0.2-0.1h0.4c0,0,0,0,0-0.1l0,0
			c0.4-0.2,0.7-0.4,1.1-0.6L57.1,13l0,0L57.4,13z M50.7,16.9c-1.3,0.9-2.7,1.7-4,2.7l4.6,6.6c0.5-0.4,1.1-0.7,1.6-1.1l0,0
			c0.6-0.4,1.1-0.7,1.7-1.1l-4-7.1l0,0H50.7z M44.4,21.2c-1.3,0.9-2.6,1.9-3.8,2.9l5,6.2c1.1-0.9,2.1-1.7,3.2-2.5l0,0L44.4,21.2
			C44.4,21.2,44.4,21.2,44.4,21.2z M38.4,26c-1.2,1-2.4,2.1-3.6,3.2l5.5,5.9c1.1-1,2.2-2,3.3-3L38.4,26C38.4,26,38.4,26,38.4,26z
			 M32.7,31.1c-1.1,1.1-2.3,2.3-3.4,3.4l5.9,5.5l0,0L32.7,31.1L32.7,31.1z M27.4,36.7c-1.1,1.2-2.1,2.4-3.1,3.7l6.2,5
			c0.8-1,1.7-2,2.5-3l0,0l-5.7-5.7l0,0H27.4z M22.5,42.6c-1,1.3-1.9,2.6-2.8,3.9l6.6,4.6l0,0v-0.2l0,0c0.4-0.6,0.9-1.2,1.3-1.8
			L22.5,42.6L22.5,42.6z M18.1,48.9c-0.9,1.3-1.7,2.7-2.6,4.1l6.9,4.1c0.6-1,1.2-2,1.9-3l0,0c0.1-0.3,0.2-0.4,0.3-0.6L18.1,48.9
			C18.1,48.9,18.1,48.9,18.1,48.9z M14,55.4c-0.8,1.4-1.5,2.8-2.3,4.2l7.1,3.6c0.2-0.4,0.5-0.9,0.7-1.3l0,0v-0.2l0,0v-0.2l0,0v-0.2
			l0,0c0.2-0.4,0.4-0.8,0.7-1.2l0,0v-0.2l0,0v-0.2l0,0v-0.2l0,0L14,55.4C14,55.4,14,55.4,14,55.4z M10.5,62.2
			c-0.7,1.4-1.3,2.9-2,4.4l7.4,3.1c0.2-0.5,0.5-1.1,0.7-1.6l0,0v-0.2l0,0v-0.2l0,0c0.3-0.7,0.5-1.3,0.8-1.9L10.5,62.2
			C10.5,62.2,10.5,62.2,10.5,62.2z M7.5,69.3c-0.6,1.5-1.1,3-1.7,4.5l7.6,2.6c0.1-0.2,0.2-0.5,0.2-0.7l0,0v-0.2l0,0v-0.2l0,0v-0.2
			l0,0v-0.2l0,0v-0.2l0,0c0-0.1,0-0.2,0.1-0.3l0,0c0.2-0.7,0.5-1.4,0.7-2l0,0v-0.2l0,0V72l0,0L7.5,69.3L7.5,69.3L7.5,69.3z
			 M4.9,76.5C4.4,78,4,79.6,3.6,81.1l7.7,2c0.2-0.7,0.4-1.4,0.6-2.1l0,0v-0.2l0,0v-0.2l0,0v-0.2l0,0L4.9,76.5
			C4.9,76.5,4.9,76.5,4.9,76.5z M2.9,84c-0.4,1.6-0.7,3.1-1,4.7l7.9,1.5c0.2-1.1,0.4-2.1,0.7-3.2l0,0v-0.2l0,0
			c0-0.2,0.1-0.4,0.1-0.6L2.9,84C2.9,84,2.9,84,2.9,84z M1.4,91.5c-0.3,1.6-0.5,3.2-0.7,4.8l8,0.9c0.2-1.5,0.4-2.9,0.6-4.4L1.4,91.5
			C1.4,91.5,1.4,91.5,1.4,91.5z M0.4,99.1c0,1.6-0.3,3.2-0.3,4.8l8,0.4v-1l0,0c0.1-1.2,0.1-2.2,0.2-3.3L0.4,99.1L0.4,99.1z M0,106.8
			v4.8l8-0.2v-0.7l0,0v-1.1l0,0v-0.2l0,0v-0.2l0,0v-1.4l0,0L0,106.8L0,106.8L0,106.8z M8.1,114.1l-8,0.4c0,1.6,0.2,3.2,0.3,4.8
			l8-0.7C8.3,117,8.2,115.6,8.1,114.1C8.1,114.1,8.1,114.1,8.1,114.1z M8.7,121.2l-8,1c0.2,1.6,0.4,3.2,0.7,4.8l7.9-1.3
			c-0.1-0.7-0.2-1.3-0.3-2l0,0v-0.2l0,0c0-0.2,0-0.3-0.1-0.5l0,0v-0.2l0,0C8.9,121.7,8.9,121.4,8.7,121.2
			C8.7,121.2,8.7,121.2,8.7,121.2z M9.8,128.2L2,129.7c0.3,1.6,0.6,3.1,1,4.7l7.8-1.9c-0.2-0.7-0.3-1.4-0.5-2.1l0,0
			C10.1,129.5,9.9,128.8,9.8,128.2L9.8,128.2z M11.4,135.1l-7.7,2.1c0.4,1.5,0.9,3.1,1.3,4.6l7.6-2.4c-0.1-0.3-0.2-0.6-0.3-1l0,0
			v-0.2l0,0V138l0,0v-0.2l0,0C11.9,136.8,11.6,136,11.4,135.1L11.4,135.1L11.4,135.1z M13.5,141.9l-7.6,2.6c0.5,1.5,1.1,3,1.7,4.5
			l7.4-2.9C14.5,144.7,14,143.3,13.5,141.9L13.5,141.9L13.5,141.9z M16,148.6l-7.4,3.1c0.6,1.5,1.3,2.9,2,4.4l7.2-3.5
			c-0.2-0.5-0.4-0.9-0.7-1.4l0,0V151l0,0v-0.2l0,0C16.6,150,16.4,149.3,16,148.6C16.1,148.6,16.1,148.6,16,148.6
			C15.9,148.6,15.9,148.6,16,148.6C16.1,148.6,16,148.6,16,148.6L16,148.6L16,148.6z M19.1,155l-7.1,3.7c0.7,1.4,1.5,2.8,2.3,4.2
			l7-4c-0.6-1.1-1.3-2.3-1.9-3.4l0,0v-0.2l0,0C19.1,155.3,19.1,155.1,19.1,155L19.1,155z M22.5,161.2l-6.9,4.1
			c0.8,1.4,1.7,2.7,2.6,4.1l6.7-4.4c-0.1-0.1-0.1-0.2-0.2-0.2l0,0v-0.2l0,0v-0.2l0,0c-0.3-0.5-0.5-0.9-0.8-1.3l0,0
			C23,161.9,22.6,161.3,22.5,161.2C22.6,161.3,22.6,161.3,22.5,161.2C22.6,161.3,22.6,161.3,22.5,161.2L22.5,161.2L22.5,161.2z
			 M26.4,167.2l-6.5,4.6c0.9,1.3,1.9,2.6,2.9,3.9l6.3-4.9c-0.2-0.3-0.4-0.5-0.6-0.8l0,0C27.5,168.6,26.9,167.9,26.4,167.2
			C26.4,167.2,26.4,167.2,26.4,167.2z M30.7,172.9l-6.2,5.1c1,1.2,2.1,2.5,3.1,3.6l6-5.3c-0.9-1-1.8-2.1-2.7-3.2l0,0
			C30.9,173,30.9,172.9,30.7,172.9L30.7,172.9L30.7,172.9L30.7,172.9L30.7,172.9z M35.4,178.2l-5.8,5.5c1.1,1.2,2.2,2.3,3.4,3.4
			l5.6-5.7c-0.3-0.3-0.7-0.7-1-1l0,0C36.5,179.3,36,178.8,35.4,178.2L35.4,178.2z M40.5,183.2l-5.4,5.9c1.2,1.1,2.4,2.2,3.6,3.2
			l5.2-6.1c-0.6-0.5-1.2-1-1.8-1.5l0,0C41.3,183.9,41,183.6,40.5,183.2L40.5,183.2L40.5,183.2z M45.9,187.9l-5,6.2
			c1.2,1,2.5,2,3.8,2.9l4.7-6.5l0,0C48.1,189.5,47.1,188.7,45.9,187.9L45.9,187.9L45.9,187.9z M51.6,192.1l-4.6,6.6
			c1.3,0.9,2.7,1.8,4,2.6l4.3-6.8c-0.7-0.5-1.5-0.9-2.2-1.4l0,0C52.5,192.6,52.1,192.4,51.6,192.1L51.6,192.1L51.6,192.1z M57.6,196
			l-4.1,6.9c1.4,0.8,2.8,1.6,4.2,2.4l3.8-7.1c-0.2-0.1-0.3-0.2-0.5-0.3l0,0c0-0.1-0.2-0.1-0.3-0.2l0,0l-0.2-0.1h-0.2l-0.2-0.1h-0.2
			c0,0,0-0.1-0.2-0.1h-0.3c0,0,0,0,0-0.1h-0.7c-0.3-1-0.6-1.2-0.9-1.3l0,0L57.6,196z M63.8,199.4l-3.6,7.2c1.4,0.7,2.9,1.4,4.3,2.1
			l3.3-7.3c-0.5-0.2-0.9-0.4-1.4-0.6h-0.8C64.3,199.6,64.1,199.5,63.8,199.4L63.8,199.4z M70.3,202.3l-3.1,7.4
			c1.5,0.6,3,1.2,4.5,1.7l2.7-7.5c-1-0.4-2-0.7-3-1.1h-0.2C70.9,202.6,70.6,202.4,70.3,202.3L70.3,202.3L70.3,202.3z M77,204.8
			l-2.5,7.6c1.5,0.5,3.1,1,4.6,1.4l2.2-7.7h-0.2c-0.9-0.3-1.9-0.6-2.8-0.9h-0.8C77.2,204.9,77.1,204.8,77,204.8L77,204.8L77,204.8z
			 M83.8,206.8l-2,7.8c1.5,0.4,3.1,0.8,4.7,1.1l1.6-7.8h-0.3c-0.4-0.1-0.8-0.2-1.2-0.3l0,0C85.4,207.2,84.6,207,83.8,206.8
			L83.8,206.8L83.8,206.8z M90.8,208.4l-1.4,7.9c1.6,0.3,3.2,0.5,4.7,0.8l1.1-7.9c-0.4-0.1-0.8-0.1-1.3-0.2l0,0
			C92.3,208.6,91.6,208.5,90.8,208.4L90.8,208.4L90.8,208.4z M97.8,209.4l-0.9,8c1.6,0.2,3.2,0.3,4.8,0.4l0.5-8
			C100.7,209.8,99.3,209.5,97.8,209.4L97.8,209.4z M104.9,209.9l-0.3,8c1.5,0.1,3,0.1,4.4,0.1h0.4v-8h-0.9
			C106.9,210,105.9,210,104.9,209.9L104.9,209.9z M116.5,209.7L116.5,209.7L116.5,209.7L116.5,209.7L116.5,209.7H116
			c-1,0.1-2,0.1-2.9,0.1h-0.2l0.2,8c1.6,0,3.2-0.1,4.8-0.2L116.5,209.7L116.5,209.7L116.5,209.7z M123.5,209
			c-0.4,0.1-0.9,0.1-1.3,0.2l0,0c-0.6,0.1-1.3,0.2-1.9,0.2l0,0c-0.2,0-0.4,0-0.6,0.1l0.8,8c1.6-0.2,3.2-0.4,4.8-0.6l-1.7-7.9l0,0
			H123.5z M130.5,207.7c-0.8,0.2-1.6,0.3-2.4,0.5l0,0c-0.6,0.1-1.2,0.2-1.8,0.3l1.4,7.9c1.6-0.3,3.2-0.6,4.7-0.9L130.5,207.7
			L130.5,207.7L130.5,207.7z M137.4,205.9c-0.2,0-0.3,0.1-0.5,0.1h-0.1c-1.2,0.3-2.3,0.6-3.5,0.9l1.9,7.8c1.5-0.4,3.1-0.8,4.6-1.2
			L137.4,205.9L137.4,205.9z M144.2,203.7c-1,0.4-2.1,0.8-3.1,1.1h-0.5c-0.2,0.1-0.4,0.1-0.6,0.2l2.5,7.6c1.5-0.5,3-1,4.5-1.6
			L144.2,203.7L144.2,203.7L144.2,203.7z M150.8,201c-1.3,0.6-2.7,1.2-4.1,1.8l3,7.4c1.5-0.6,3-1.2,4.4-1.9L150.8,201L150.8,201
			L150.8,201z M157.1,197.8c-0.4,0.2-0.7,0.4-1.1,0.6h-0.7c-0.6,0.3-1.2,0.6-1.8,0.9l3.5,7.2c1.4-0.7,2.9-1.4,4.3-2.2L157.1,197.8
			L157.1,197.8z M163.3,194.2c-0.5,0.3-1,0.6-1.5,1h-0.2c-0.1,0-0.1,0.1-0.2,0.1h-0.8c-0.3,0.2-0.6,0.3-0.9,0.5l4,6.9
			c1.4-0.8,2.8-1.6,4.1-2.5L163.3,194.2L163.3,194.2L163.3,194.2z M169.1,190.2c-0.1,0.1-0.2,0.2-0.3,0.2l0,0
			c-0.4,0.3-0.7,0.5-1.1,0.8h-0.3c-0.4,0.3-0.8,0.6-1.2,0.8l4.5,6.6c1.3-0.9,2.6-1.8,3.9-2.8L169.1,190.2L169.1,190.2L169.1,190.2z
			 M174.7,185.7l-0.3,0.3l0,0c-0.7,0.6-1.4,1.2-2.1,1.7h-0.4c0,0.1,4.9,6.4,4.9,6.4c1.3-1,2.5-2,3.7-3L174.7,185.7L174.7,185.7
			L174.7,185.7z M179.9,180.9c-0.9,0.9-1.9,1.8-2.8,2.7H177c0,0.1,5.4,6,5.4,6c1.2-1.1,2.4-2.2,3.5-3.3L179.9,180.9L179.9,180.9
			L179.9,180.9z M184.8,175.7L184.8,175.7c-0.1,0.1-0.2,0.2-0.2,0.3l0,0c-0.2,0.3-0.3,0.5-0.5,0.7l0,0v0.2l0,0c0,0.1,0,0.2-0.1,0.2
			l0,0c-0.4,0.4-0.7,0.8-1.1,1.2l5.8,5.6c1.1-1.1,2.2-2.3,3.3-3.5L184.8,175.7L184.8,175.7z M189.3,170.2c-0.9,1.2-1.8,2.3-2.8,3.5
			l6.1,5.1c1-1.2,2-2.5,3-3.8L189.3,170.2L189.3,170.2z M193.5,164.4c-0.8,1.2-1.7,2.5-2.5,3.7l6.5,4.7c0.9-1.3,1.9-2.6,2.7-4
			L193.5,164.4L193.5,164.4z M197.2,158.3c-0.3,0.6-0.7,1.2-1,1.8l0,0v0.2l0,0v0.2l0,0c-0.3,0.5-0.6,1-0.9,1.4l6.8,4.2
			c0.8-1.4,1.7-2.7,2.4-4.1L197.2,158.3L197.2,158.3L197.2,158.3z M200.4,152c-0.6,1.3-1.3,2.7-2,4l7.1,3.7c0.7-1.4,1.5-2.9,2.1-4.3
			L200.4,152L200.4,152L200.4,152z M203.2,145.5c-0.2,0.5-0.4,1-0.6,1.5l0,0v0.2l0,0v0.2l0,0c-0.3,0.7-0.6,1.5-0.9,2.2l7.3,3.2
			c0.6-1.5,1.3-3,1.8-4.4L203.2,145.5L203.2,145.5z M205.5,138.7c-0.1,0.2-0.1,0.4-0.2,0.6l0,0v0.2l0,0c-0.4,1.2-0.7,2.3-1.1,3.4
			l7.5,2.7c0.5-1.5,1-3,1.5-4.6L205.5,138.7L205.5,138.7L205.5,138.7z M207.4,131.9c-0.1,0.4-0.2,0.8-0.3,1.2l0,0
			c-0.2,0.9-0.5,1.8-0.7,2.7l7.7,2.2c0.4-1.5,0.8-3.1,1.2-4.7L207.4,131.9L207.4,131.9z M208.8,124.9c-0.2,1-0.3,1.9-0.5,2.9l0,0
			c-0.1,0.4-0.2,0.9-0.3,1.3l7.8,1.6c0.3-1.6,0.6-3.2,0.9-4.7L208.8,124.9L208.8,124.9L208.8,124.9z M209.6,117.8
			c-0.1,1.5-0.3,3-0.5,4.4l7.9,1c0.2-1.6,0.4-3.2,0.5-4.8L209.6,117.8L209.6,117.8z M210,110.7c0,0.8,0,1.7-0.1,2.5l0,0
			c0,0.5-0.1,1.1-0.1,1.6l8,0.5c0.1-1.6,0.2-3.2,0.2-4.8L210,110.7L210,110.7L210,110.7z M217.9,103.2l-8,0.4l0,0v0.2l0,0v0.5l0,0
			v0.2l0,0c0,0.9,0.1,1.8,0.1,2.7h8C218,106.4,217.9,104.8,217.9,103.2C217.9,103.2,217.9,103.2,217.9,103.2z M217.2,95.5l-7.9,1
			c0.2,1.5,0.3,2.9,0.4,4.4l8-0.6C217.5,98.7,217.4,97.1,217.2,95.5L217.2,95.5z M216,87.9l-7.9,1.5c0.1,0.5,0.2,0.9,0.3,1.4l0,0V91
			l0,0v0.2l0,0v0.2l0,0c0.1,0.5,0.2,1,0.2,1.5l7.9-1.2C216.6,91.1,216.3,89.5,216,87.9C216,87.9,216,87.9,216,87.9z M214.2,80.4
			l-7.7,2.1c0.2,0.6,0.3,1.2,0.5,1.8l0,0v0.2l0,0c0.2,0.7,0.3,1.4,0.5,2.2l7.8-1.7C215,83.6,214.6,82,214.2,80.4L214.2,80.4z
			 M212,73.1l-7.6,2.6c0.2,0.5,0.4,1.1,0.5,1.6l0,0v0.2l0,0v0.2l0,0c0.2,0.8,0.4,1.5,0.6,2.2l7.7-2.3C213,76.1,212.5,74.6,212,73.1
			L212,73.1L212,73.1z M209.2,65.9l-7.4,3.2c0.1,0,0.1,0.3,0.2,0.4l0,0v0.2l0,0v0.2l0,0v0.2l0,0v0.2l0,0v0.2l0,0v0.2l0,0v0.2l0,0
			v0.2l0,0v0.2l0,0v0.2l0,0v0.2l0,0v0.2l0,0v0.2l0,0v0.2l0,0v0.2l0,0v0.2l0,0v0.2l0,0v0.2l0,0v0.2l0,0v0.2l0,0l7.5-2.8
			C210.4,68.9,209.8,67.4,209.2,65.9L209.2,65.9L209.2,65.9z M205.9,59l-7.1,3.7c0.7,1.3,1.3,2.6,2,4l7.3-3.4
			C207.3,61.9,206.6,60.4,205.9,59C205.9,59,205.9,59,205.9,59z M202.1,52.3l-6.8,4.2c0.3,0.5,0.6,1,0.9,1.5l0,0v0.2l0,0v0.2l0,0
			v0.2l0,0c0.3,0.5,0.5,0.9,0.8,1.4l7-3.9C203.8,55.1,202.9,53.7,202.1,52.3C202.1,52.3,202.1,52.3,202.1,52.3z M197.9,45.9
			l-6.5,4.6c0.5,0.7,1,1.4,1.5,2.1l0,0c0,0.2,0.1,0.2,0.1,0.3l0,0v0.2l0,0v0.2l0,0c0,0,0.1,0,0.1,0.2l0,0c0.2,0.4,0.4,0.7,0.6,1
			l6.7-4.4C199.7,48.5,198.8,47.2,197.9,45.9L197.9,45.9L197.9,45.9z M193.2,39.8l-6.2,5.1c0.1,0,0.2,0.2,0.3,0.3l0,0
			c0.1,0,0.1,0.2,0.2,0.3l0,0v0.2l0,0c0.2,0.3,0.4,0.6,0.6,0.8l6.4-4.8C195.2,42.3,194.2,41,193.2,39.8
			C193.2,39.8,193.2,39.8,193.2,39.8z M188.1,34l-5.8,5.5c0.1,0,0.2,0.2,0.3,0.3h0.1l0.1,0.2l0,0c0.7,0.8,1.3,1.6,2,2.3l6-5.2
			C190.3,36.4,189.2,35.2,188.1,34L188.1,34L188.1,34z M182.7,28.6l-5.4,5.9c0.2,0,0.3,0.3,0.5,0.4h0.1l5.7-5.6
			C185,30.8,183.8,29.7,182.7,28.6L182.7,28.6L182.7,28.6z M176.8,23.7l-5,6.3c0.9,0.7,1.7,1.4,2.5,2.1h0.1c0.1,0,0.1,0.1,0.2,0.2
			h0.2c0.2,0.2,0.3,0.3,0.5,0.5l5.3-6C179.3,25.7,178.1,24.6,176.8,23.7C176.8,23.7,176.8,23.7,176.8,23.7z M170.7,19.1l-4.5,6.6
			c0.6,0.4,1.1,0.8,1.7,1.2h0.3c0.4,0.3,0.9,0.6,1.3,1l4.8-6.4C173.3,20.9,172,20,170.7,19.1C170.7,19.1,170.7,19.1,170.7,19.1z
			 M164.2,15l-4.1,6.9c0.3,0.2,0.5,0.3,0.8,0.5h0.3c0.1,0,0.1,0.1,0.2,0.1l0,0c0.7,0.4,1.4,0.9,2.1,1.3l4.4-6.7
			C166.9,16.6,165.5,15.8,164.2,15C164.2,15,164.2,15,164.2,15z M157.4,11.3l-3.6,7.2c0.1,0.1,0.3,0.1,0.4,0.2h0.6
			c0.1,0,0.2,0.1,0.2,0.1h0.1c0.7,0.4,1.5,0.8,2.2,1.2l3.9-7C160.3,12.8,158.8,12,157.4,11.3L157.4,11.3L157.4,11.3z M150.4,8.1
			l-3,7.4c0.7,0.3,1.3,0.6,2,0.8h0.3c0.5,0.2,1,0.5,1.5,0.7l3.4-7.3C153.4,9.4,151.9,8.7,150.4,8.1C150.4,8.1,150.4,8.1,150.4,8.1z
			 M143.2,5.5l-2.5,7.6c0.7,0.2,1.5,0.5,2.2,0.8h1.5c0.1,0,0.1,0,0.2,0.1h0.3l2.8-7.5C146.2,6.5,144.7,6,143.2,5.5
			C143.2,5.5,143.2,5.5,143.2,5.5z M135.8,3.3l-2,7.8c0.2,0.1,0.5,0.1,0.7,0.2l0,0c1,0.3,2.1,0.6,3.1,0.9l0,0c0.1,0,0.2,0.1,0.3,0.1
			l2.3-7.7C138.9,4.1,137.4,3.7,135.8,3.3L135.8,3.3L135.8,3.3z M128.3,1.7l-1.4,7.9l0,0c1.3,0.2,2.6,0.5,3.9,0.8l1.8-7.8
			C131.5,2.3,129.9,2,128.3,1.7C128.3,1.7,128.3,1.7,128.3,1.7z M120.7,0.6l-0.9,8c0.2,0,0.5,0.1,0.7,0.1h0.7
			c0.7,0.1,1.5,0.2,2.2,0.3l1.2-7.9C123.9,1,122.3,0.8,120.7,0.6L120.7,0.6L120.7,0.6z M113.1,0.1l-0.3,8c0.7,0,1.5,0.1,2.2,0.1l0,0
			c0.7,0,1.4,0.1,2.1,0.1l0.6-8C116.3,0.2,114.6,0.1,113.1,0.1C113.1,0.1,113.1,0.1,113.1,0.1z M109,0v8h1V0H109z"/>
		<circle class="st1" cx="109" cy="109" r="101"/>
		<circle class="st2" cx="109" cy="109" r="101"/>
	</g>
</g>
<g id="_圖層_2" class="st3">
	<text transform="matrix(1 0 0 1 35.6 171.8)" class="st4 st5 st6">8</text>
</g>
<g>
	<g>
		<path class="st7" d="M105.2,98.6c0,0,3.4,23.9,10.6,15.4c7.2-8.5,10.6-38.9,10.6-38.9h-3.1c0,0-8.4,27-9,23.5
			c-0.6-3.5-1.1-9.1-1.1-9.1"/>
		<g>
			<path class="st8" d="M111,103.3l-2.5,8.1c0,0,2.3,5.7,4.5,4.4c0,0-2.7-4.6-2.3-7.5c0.4-2.9,0.8-6.6,0.8-6.6"/>
		</g>
	</g>
	<g>
		<path class="st9" d="M132.4,173.7c0,0-3.1,5.5-2.3,6.8c0.8,1.3,10,1.5,10,1.5l11.5,1.8c0,0-1-2.6-4.5-5
			c-3.5-2.5-10.1-3.2-10.1-3.2l-0.9-2.2"/>
		<path class="st9" d="M74.1,157.1c0,0-1.7,12.5,0,15.8c1.7,3.2,8.1,8.6,12.3,6.9c4.2-1.7-2.4-8.1-2.4-8.1l-3.4-9.4"/>
		<g>
			<path class="st10" d="M79.7,162.7c0,0-1.9,5.5,0.6,6.3c2.5,0.8,27.3,16.7,27.7,16.9"/>
			<path class="st11" d="M79.7,164.5"/>
			<path class="st11" d="M121,185.8"/>
			<path class="st12" d="M104.3,131.8c0,0-30.2-2.4-32.6,1.1c-2.4,3.5-9.7,18.9,12,34.2c21.7,15.2,23.4,22.2,27.9,19.4
				c4.5-2.8,10-9.1-8.7-36.1"/>
			<path class="st12" d="M102.8,133.4c0,0,33.4-22.4,37.1-21.8c3.7,0.6,13-4.8,6.4,25.5c-6.6,30.4-9.8,37.3-9.8,37.3h-5.6l5.9-41.5
				c0,0-21.1,34.4-35.4,16.7"/>
			<path class="st10" d="M133.9,137.2c0.1-0.2,2.9-4.3,2.9-4.3l-1.5,15.3c0,0,4.3-22.6,3.4-21c-0.9,1.6-5.2,10.5-5.2,10.5"/>
		</g>
	</g>
	<g>
		<path class="st13" d="M72.3,124.5c-0.2,0.5-5,20.4-2.2,18.8c2.7-1.6,4.2-4.2,7.6-4.5c3.4-0.3,8.2,0.2,12.4,0.2
			c4.2,0,9.2,2.4,12.5-1s5.9-6.4,6.6-7.2c0.6-0.8,1.6-2.6,0-2.2c-1.6,0.3-8.8,1.6-9.6,1.4"/>
		<path class="st14" d="M71.6,130.5c0,0-13.8-76,15.3-63.3l7.3,9.2c0,0,7.3,3,8.1,2.7s5.5-6.3,8.5-6.5c3.1-0.2,4.2,14,3.6,18.5
			c-0.6,4.5-10.3,37.1-13.8,39.5c-3.4,2.4-16.2,3.4-17,3.5c-0.7,0.2-12-2.7-12-2.7"/>
	</g>
	<g>
		<path class="st15" d="M82.8,50.4c0,0,1.4,14.1-2.5,15.9c-3.9,1.8,6.2,3.6,7.1,3.6c0.9,0,10.1-9.7,9.4-12.9"/>
		<g>
			<path class="st15" d="M106.4,69.1c-1.2-3.2-0.5-6.7,0.6-9.9s2.5-6.3,2.7-9.7c0.3-4.3-1.5-8.6-4.4-11.8c-0.8-0.9-1.7-1.7-2.7-2.3
				c-2.1-1.2-4.6-1.5-7-1.6c-3.1-0.1-6.5,0.2-9,2.2c-1.3,1.1-2.2,2.6-2.7,4.3c-0.9,1.2-1.6,2.7-2,4.1c-1.1,4-1.2,8.4,0.4,12.2
				c0.5,1.1,1.1,2.1,1.7,3.1c0.8,1.3,1.6,2.7,2.4,4c0.8,1.3,1.6,2.6,2.7,3.5c1.1,1,2.6,1.6,4.1,1.4c0.2,0,0.3-0.1,0.4-0.2
				c0.1-0.1,0.1-0.2,0.1-0.4c0.1-2,0-4-0.3-6l-3.6-12.1c2.5,0.1,5,0.7,7.3,1.9c1.3,0.6,2.5,1.5,3.4,2.6c0.6,0.8,1,1.7,1.4,2.6
				c0.5,1.2,0.8,2.5,1,3.9c0.2,1.8,0,3.5-0.2,5.3c-0.2,1.8-0.3,3.6,0.2,5.3c0.4,1.7,1.4,3.4,2.9,4.2c1.5,0.8,3.7,0.6,4.7-0.8
				C109.1,73.3,107.3,71.5,106.4,69.1z"/>
		</g>
		<g>
			<path class="st7" d="M87.9,64.9c0,0-0.4,3,2,6.2c2.4,3.2,5.8,5.9,5.8,5.9l1,9.6c0,0,4.2-4.6,5.7-7.7c1.5-3.1,1.9-7.7,1.9-7.7
				s-0.8-6.7-0.4-7.7"/>
			<path class="st16" d="M87.9,64.9c0,0,3,3.2,3.4,3.6c0.3,0.5-0.5,0.8-0.5,0.8S88,67,88.2,67.7"/>
			<path class="st16" d="M103.8,66.7c0-1.2,0.7-5,0-3.2c-0.5,1.1-3.5,4.3-5.7,6.4l-10-4.2c0,0,1.9,5.3,4.3,6.4
				c2.4,1.1,4.5,0.9,6.5-1.9c4.3-1.7,5.2,1.4,5.2,1.4S103.9,67.9,103.8,66.7z"/>
			<path class="st7" d="M107.5,55.1c-0.6-3-2.8,0.6-2.8,0.6c0-1-0.1-1.6-0.1-1.6s-5.9-7.6-10.5-7.1c-4.5,0.5-9.3,1.6-10.5-0.5
				c0,0-0.4,9.2,3.8,17.4c4.2,8.1,7.4,9.6,10.2,6.9c2.8-2.8,6.9-6.6,7.1-9.6c0-0.6,0.1-1.2,0.1-1.8
				C104.7,59.3,108.2,58.1,107.5,55.1z"/>
		</g>
		<g>
			<g>
				<path d="M89.1,56.3C89.1,56.3,89.1,56.3,89.1,56.3c0.1,0,0.2,0,0.3,0c0.1,0,0.1-0.1,0.2-0.1c0,0,0.1-0.1,0.1-0.2
					c0-0.1,0-0.1,0-0.2c0,0,0-0.1,0-0.1c0-0.1-0.1-0.2-0.1-0.2c0,0-0.1-0.1-0.1-0.1c-0.1,0-0.2-0.1-0.3-0.1c0,0-0.1,0-0.1,0
					c-0.1,0-0.1,0-0.2,0c-0.1,0-0.1,0.1-0.2,0.1c0,0-0.1,0.1-0.1,0.2c0,0.1,0,0.1,0,0.2c0,0,0,0.1,0,0.1c0,0.1,0.1,0.2,0.1,0.2
					c0,0,0.1,0.1,0.1,0.1C88.9,56.3,89,56.3,89.1,56.3L89.1,56.3z"/>
			</g>
		</g>
		<g>
			<g>
				<g>
					<path class="st17" d="M92.8,60.3c0,0.2-0.1,0.3-0.2,0.5c-0.1,0.1-0.2,0.3-0.2,0.5c-0.1,0.3,0,0.6,0.1,0.9
						c0.3,0.6,1.1,0.7,1.7,0.4c0.1-0.1,0-0.3-0.1-0.2c-0.5,0.3-1.2,0.1-1.4-0.4c-0.1-0.2-0.1-0.5,0-0.8c0.1-0.3,0.4-0.5,0.3-0.8
						C93,60,92.7,60.1,92.8,60.3L92.8,60.3z"/>
				</g>
			</g>
			<g>
				<g>
					<path class="st15" d="M97,53.6c0.6-0.4,1.3-0.5,2-0.5c0.7,0,1.4,0.2,1.9,0.7c0.2,0.2,0.6-0.1,0.4-0.4c-0.6-0.6-1.3-0.9-2.1-0.9
						c-0.4,0-0.8,0.1-1.2,0.1c-0.4,0.1-0.8,0.2-1.1,0.4C96.5,53.4,96.7,53.8,97,53.6L97,53.6z"/>
				</g>
			</g>
			<g>
				<g>
					<path class="st15" d="M86.4,54.2c1-0.9,2.5-1.1,3.6-0.5c0.3,0.1,0.5-0.3,0.3-0.4c-1.4-0.7-3.1-0.4-4.2,0.6
						C85.8,54.1,86.1,54.5,86.4,54.2L86.4,54.2z"/>
				</g>
			</g>
			<g>
				<g>
					<path d="M99.1,54.7C99.1,54.7,99.1,54.7,99.1,54.7c-0.1-0.1-0.2-0.2-0.2-0.2c-0.1,0-0.1,0-0.2,0c-0.1,0-0.1,0-0.2,0
						c-0.1,0-0.1,0.1-0.2,0.1c0,0-0.1,0.1-0.1,0.1c0,0.1-0.1,0.2-0.1,0.3c0,0,0,0.1,0,0.1c0,0.1,0.1,0.2,0.1,0.2
						c0,0,0.1,0.1,0.1,0.1c0,0,0.1,0.1,0.2,0.1c0.1,0,0.1,0,0.2,0c0.1,0,0.1,0,0.2,0c0.1,0,0.1-0.1,0.2-0.1c0,0,0.1-0.1,0.1-0.1
						c0-0.1,0.1-0.2,0.1-0.3c0,0,0-0.1,0-0.1C99.2,54.9,99.2,54.8,99.1,54.7L99.1,54.7z"/>
				</g>
			</g>
			<path class="st15" d="M92.7,66c0,0,0.6-1.1,1.2-0.8c0.7,0.2,1.4,0.1,1.6-0.2c0.2-0.4,3,0,3,0S94.5,67,92.7,66z"/>
			<path class="st15" d="M93.6,66.3c0,0-0.9,0.5-0.3,1.1c0.6,0.6,4-1,4.3-2"/>
		</g>
		<path class="st18" d="M89.8,59.3c0,0.9-0.7,1.6-1.6,1.6s-1.6-0.7-1.6-1.6s0.7-1.6,1.6-1.6S89.8,58.4,89.8,59.3z"/>
		<path class="st18" d="M102.2,59c0,0.9-0.7,1.6-1.6,1.6c-0.9,0-1.6-0.7-1.6-1.6s0.7-1.6,1.6-1.6C101.5,57.3,102.2,58,102.2,59z"/>
	</g>
	<g>
		<path class="st13" d="M97.2,83.6c0,0,5.1-4.7,6.8-11.2c0,0-0.4,1.7,1,2.6c1.4,0.9,2.1,12.8,2.2,13c0.1,0.2-0.4,1.9-0.4,1.9
			l-9.6,21.3C97.2,111.3,96.2,86.3,97.2,83.6z"/>
		<path class="st19" d="M87.9,66.3c0,0-1.3-0.5-1,0.8c0.2,1.3,7.8,11,7.8,11l2.2,10.7l0.7-11.7L87.9,66.3z"/>
	</g>
	<g>
		<g>
			<polygon class="st20" points="116.5,51.8 117.3,70.8 124.4,70.8 124.4,51.5 			"/>
			<polyline class="st21" points="124.4,51.5 139.3,51.8 138.2,69.7 124.4,70.8 			"/>
			<path class="st22" d="M142.2,55.5l-11.7,0.5c0,0-4.4,2.2-1.7,7.7l14.6,3.6"/>
			<path class="st23" d="M150.8,61.7c-0.1,3.9-2.9,6.9-6.2,6.8c-3.3-0.1-5.8-3.4-5.7-7.2c0.1-3.9,2.9-6.9,6.2-6.8
				C148.4,54.6,150.9,57.8,150.8,61.7z"/>
			<path class="st24" d="M152.9,61.5c0,3.9-2.7,7-6,7c-3.3,0-6-3.1-6-7c0-3.9,2.7-7,6-7C150.3,54.4,152.9,57.6,152.9,61.5z"/>
			<ellipse class="st23" cx="147.3" cy="61.4" rx="3.9" ry="5.1"/>
			<path class="st25" d="M150.5,61.6c0,2.3-1.4,4.1-3.1,4.1c-1.7,0-3.1-1.8-3.1-4.1s1.4-4.1,3.1-4.1
				C149.1,57.4,150.5,59.3,150.5,61.6z"/>
			<polyline class="st20" points="122.6,51.9 126.2,50.4 129.1,50.4 128.3,51.9 126.9,51.9 			"/>
			<polyline class="st21" points="129.1,50.4 133.6,50.4 134.7,51.9 128.3,51.9 			"/>
			<path class="st26" d="M137.2,53c0.3,0,0.6,0.2,0.6,0.5c0,0.3-0.3,0.5-0.6,0.5c-0.3,0-0.6-0.2-0.6-0.5
				C136.6,53.2,136.9,53,137.2,53z"/>
			<rect x="125.5" y="52.7" class="st27" width="4.3" height="1.4"/>
			<polyline class="st27" points="130.2,50.9 129.8,51.7 133.6,51.5 133.2,50.9 			"/>
			<rect x="117.6" y="52.4" class="st28" width="5.8" height="0.8"/>
			<path class="st29" d="M128.1,61.6l10.8,1c0,0,0,0.4,0.1,0.8c0.1,0.4-10.7-0.9-10.7-0.9"/>
			<path class="st30" d="M129.4,56.9h10.9c0,0-0.5,0.7-0.8,1.4c-0.2,0.6-10.8-0.5-10.8-0.5"/>
			<path class="st31" d="M148.4,58.5c0,0,2,1.5,1.2,4.3C149.6,62.8,149.3,58.9,148.4,58.5z"/>
		</g>
		<path class="st7" d="M123.4,75.1l-0.8-4.2l2.7-0.1c0,0,1.5,0,2.9-1.8c1.4-1.8,2.1-1.6,2.8-1.6c0.7,0,3.7,0.4,3.6,0.9
			c-0.2,0.5-4.9,3.4-5,3.6c-0.2,0.2-3,3-3.1,3.7"/>
		<g>
			<g>
				<path class="st7" d="M125.3,55.1c-2,0.8-4.5,5.5-4.5,5.5l-3,1l-1.5,8.8l-10.7,24.8c0,0-25.3-23.1-29.4-21.4
					c-1.1,0.4-4.9-0.8,3.6,13.4c8.6,14.2,25.7,25.8,28.1,23.2c2.4-2.6,12.9-38.8,12.9-38.8s3.4-2.9,4.1-3.1c0.6-0.2,3.8-5,3.9-5.5
					c0.1-0.4,1.1-4.1,1.1-4.1S127.3,54.4,125.3,55.1z"/>
				<g>
					<path class="st14" d="M74.4,70.4c-0.6,0.4-4.4,2.6,0,12.5c4.4,9.9,8.2,13.1,8.2,13.1l12.9-11.9C95.5,84.1,79.9,66.6,74.4,70.4z
						"/>
					<path class="st32" d="M93.5,82c0,0-9,7.6-9.6,9.2c-0.6,1.6-3.2,2.7-3.2,2.7l-0.6,1.3l2,0.3l-0.5,1.9h1.1c0,0,5.2-3.3,7.4-5.5
						c2.1-2.1,7.4-6.6,7.4-6.6l-1.6-0.8L93.5,82z"/>
				</g>
				<path class="st8" d="M96,86.8l-10.1,8.6c0,0,1.7,1.9,1.9,2.1c0.3,0.3,8.3-10.6,8.9-10.1"/>
			</g>
			<path class="st33" d="M80.2,93.2c0,0-4.9-6.5-6.8-11.2c-1.8-4.7,1.9,7.8,1.9,7.8S78.4,95,80.2,93.2z"/>
		</g>
	</g>
</g>
</svg>
