<?xml version="1.0" encoding="UTF-8"?>
<svg id="_圖層_2" data-name=" 圖層 2" xmlns="http://www.w3.org/2000/svg" version="1.1" viewBox="0 0 264.4 264.4">
  <defs>
    <style>
      .cls-1 {
        fill: #28223b;
      }

      .cls-1, .cls-2, .cls-3, .cls-4, .cls-5, .cls-6, .cls-7, .cls-8, .cls-9, .cls-10, .cls-11, .cls-12, .cls-13, .cls-14, .cls-15, .cls-16, .cls-17, .cls-18, .cls-19, .cls-20, .cls-21, .cls-22, .cls-23, .cls-24, .cls-25, .cls-26, .cls-27, .cls-28, .cls-29, .cls-30, .cls-31, .cls-32, .cls-33, .cls-34, .cls-35, .cls-36, .cls-37, .cls-38, .cls-39, .cls-40, .cls-41, .cls-42, .cls-43, .cls-44, .cls-45, .cls-46, .cls-47, .cls-48, .cls-49, .cls-50, .cls-51, .cls-52, .cls-53, .cls-54, .cls-55, .cls-56, .cls-57, .cls-58, .cls-59, .cls-60, .cls-61, .cls-62, .cls-63, .cls-64, .cls-65, .cls-66, .cls-67, .cls-68 {
        stroke-width: 0px;
      }

      .cls-2 {
        fill: #0074aa;
      }

      .cls-3 {
        fill: #a01010;
      }

      .cls-4 {
        isolation: isolate;
        opacity: .4;
      }

      .cls-4, .cls-39 {
        fill: #41c2d9;
      }

      .cls-5 {
        fill: #6daab5;
      }

      .cls-6 {
        fill: #ffa187;
      }

      .cls-7 {
        fill: #3e264a;
      }

      .cls-8 {
        fill: #ffbc8a;
      }

      .cls-9 {
        fill: #193cbc;
      }

      .cls-69 {
        fill: none;
        stroke: #fff;
        stroke-miterlimit: 10;
        stroke-width: 15.1px;
      }

      .cls-10 {
        fill: #eaeaea;
      }

      .cls-11 {
        fill: #003b9c;
      }

      .cls-12 {
        fill: #f92b32;
      }

      .cls-13 {
        fill: #fcfcfc;
      }

      .cls-14 {
        fill: #c7d4d6;
      }

      .cls-15 {
        fill: #004e5c;
      }

      .cls-16 {
        fill: #00b7ff;
      }

      .cls-17 {
        fill: #e0debf;
      }

      .cls-18 {
        fill: #365fd7;
      }

      .cls-19 {
        fill: #8ca1fb;
      }

      .cls-20 {
        fill: #8f8f8f;
      }

      .cls-21 {
        fill: #c4c4c4;
      }

      .cls-22 {
        fill: #dae4fb;
      }

      .cls-23 {
        fill: #ff8178;
      }

      .cls-24 {
        fill: #122d8a;
      }

      .cls-25 {
        fill: #398fdb;
      }

      .cls-26 {
        fill: #1a4266;
      }

      .cls-27 {
        fill: #3351f5;
      }

      .cls-28 {
        fill: #ff9264;
      }

      .cls-29 {
        fill: #ffb86a;
      }

      .cls-30 {
        fill: #fcf9d6;
      }

      .cls-31 {
        fill: #5faab8;
      }

      .cls-32 {
        fill: #0087c5;
      }

      .cls-33 {
        fill: #e84343;
      }

      .cls-34 {
        fill: #95b4ba;
      }

      .cls-35 {
        fill: #1a2e35;
      }

      .cls-36 {
        fill: #fb343d;
      }

      .cls-37 {
        fill: #4285b8;
      }

      .cls-38 {
        fill: #a1c9cf;
      }

      .cls-40 {
        fill: #dedede;
      }

      .cls-41 {
        fill: #ff9283;
      }

      .cls-42 {
        fill: #2f53bd;
      }

      .cls-43 {
        fill: #2d71ad;
      }

      .cls-44 {
        fill: #fff477;
      }

      .cls-45 {
        fill: #99adeb;
      }

      .cls-46 {
        fill: #ff9e8e;
      }

      .cls-47 {
        fill: #b4daf7;
      }

      .cls-48 {
        fill: #052c32;
      }

      .cls-49 {
        fill: #bdbba1;
      }

      .cls-50 {
        fill: #6780db;
      }

      .cls-51 {
        fill: #ff5a58;
      }

      .cls-52 {
        fill: #ff795d;
      }

      .cls-53 {
        fill: #7c6ab8;
      }

      .cls-54 {
        fill: #2947a3;
      }

      .cls-55 {
        fill: #472e5c;
      }

      .cls-56 {
        fill: #743280;
      }

      .cls-57 {
        fill: #009ee6;
      }

      .cls-58 {
        fill: #011e21;
      }

      .cls-59 {
        fill: #fff;
      }

      .cls-60 {
        fill: #ffa897;
      }

      .cls-61 {
        fill: #003182;
      }

      .cls-62 {
        fill: #ff6d63;
      }

      .cls-63 {
        fill: #1a4b66;
      }

      .cls-64 {
        fill: #ffc297;
      }

      .cls-65 {
        fill: #9b65c9;
      }

      .cls-66 {
        fill: #2e49db;
      }

      .cls-67 {
        fill: #6784e2;
      }

      .cls-68 {
        fill: #00106b;
      }
    </style>
  </defs>
  <g id="_圖層_8" data-name=" 圖層 8">
    <g id="_社會大眾" data-name=" 社會大眾">
      <g>
        <path class="cls-39" d="M132.2,0c-1.9,0-3.9,0-5.8.1l.4,9.7c1.5,0,2.9-.1,4.4-.1h1V0h0ZM122.9.3c-1.9.1-3.9.3-5.8.5l1.1,9.7c.3,0,.5,0,.8,0h.2c1.5-.2,2.9-.3,4.4-.4l-.7-9.7h0ZM113.7,1.3c-1.9.3-3.8.6-5.8.9l1.8,9.6c.9-.2,1.9-.3,2.8-.5h.2c.8-.1,1.6-.2,2.3-.4l-1.3-9.6h0ZM104.5,2.9c-1.9.4-3.8.9-5.7,1.3l2.4,9.4c1.7-.4,3.5-.9,5.2-1.2l-2-9.5h0ZM95.4,5.2c-1.9.5-3.7,1.1-5.6,1.7l3.1,9.2h0s0,0,0,0h0s0,0,0,0h0s0,0,0,0h0s0,0,0,0h0s0,0,0,0h0s0,0,0,0,0,0,0,0c0,0,0,0,0,0h0s0,0,0,0,0,0,0,0h0s0,0,0,0h0c1.4-.5,2.9-.9,4.3-1.4l-2.7-9.3h0ZM86.6,8.1c-1.8.7-3.6,1.4-5.4,2.1l3.8,9c.9-.4,1.9-.8,2.8-1.1h0s0,0,0,0h0c0,0,0,0,.2,0h0s0,0,0,0h0s0,0,0,0h0s0,0,0,0h0s0,0,0,0c0,0,0,0,0,0,0,0,0,0,0,0s0,0,0,0c0,0,0,0,0,0,0,0,0,0,0,0h0s0,0,0,0h0s0,0,0,0h0c.4-.2.8-.3,1.2-.5l-3.3-9.1h0ZM77.9,11.6c-1.8.8-3.5,1.6-5.3,2.5l4.4,8.7s0,0,.2,0h0c.1,0,.2-.1.4-.2h0s0,0,0,0h0s0,0,0,0h0c0,0,.2,0,.2-.1h0s0,0,0,0h0s0,0,0,0h0s0,0,0,0h0s0,0,0,0h0s0,0,0,0h0s0,0,0,0h0s0,0,0,0h0s0,0,0,0h0s0,0,0,0h0s0,0,0,0h0s0,0,0,0h0s0,0,0,0h0s0,0,0,0h0s0,0,0,0h0s0,0,0,0h0s0,0,0,0h0s0,0,0,0h0s0,0,0,0h0s0,0,0,0h0s0,0,0,0h0s0,0,0,0h0s0,0,0,0h0s0,0,0,0h0s0,0,0,0h0s0,0,0,0h0s0,0,0,0h0s0,0,0,0h0s0,0,0,0h0s0,0,0,0h0s0,0,0,0h0s0,0,0,0h0s0,0,0,0h0s0,0,0,0h0s0,0,0,0h0s0,0,0,0h0s0,0,0,0h0c0,0,0,0,.2,0h0s0,0,0,0h0s0,0,0,0h0c.3-.1.6-.3.9-.4l-4-8.9h.2ZM69.6,15.8c-1.7.9-3.4,1.9-5.1,2.9l5,8.3c.3-.2.6-.4.9-.5h0c0,0,0,0,.1,0h0s0,0,0,0h0s0,0,0,0h0s0,0,0,0c0,0,0,0,0,0,0,0,0,0,0,0,0,0,0,0,0,0,0,0,0,0,0,0,0,0,0,0,0,0,0,0,0,0,0,0s0,0,0,0c0,0,0,0,0,0,0,0,0,0,0,0,0,0,0,0,0,0s0,0,0,0c0,0,0,0,0,0h0s0,0,0,0c0,0,0,0,0,0h0s0,0,0,0h0c.7-.4,1.3-.8,2-1.1h0s0,0,0,0h0s0,0,0,0c0,0,0,0,0,0,0,0,0,0,0,0s0,0,0,0c0,0,0,0,0,0,0,0,0,0,0,0,0,0,0,0,0,0,0,0,0,0,0,0h0s0,0,0,0h0s0,0,0,0h0s0,0,0,0h0c0,0,.2,0,.2-.1l-4.6-8.6h0ZM61.5,20.5c-1.6,1-3.3,2.1-4.8,3.2l5.5,8c.3-.2.7-.5,1-.7h0s0,0,0,0h0s0,0,0,0c0,0,0,0,0,0,0,0,0,0,0,0,0,0,0,0,0,0,0,0,0,0,0,0h0s0,0,0,0c0,0,0,0,0,0,0,0,0,0,0,0h0s0,0,0,0c0,0,0,0,0,0,0,0,0,0,0,0,0,0,0,0,0,0,0,0,0,0,0,0,0,0,0,0,0,0h0s0,0,0,0h0s0,0,0,0h0c.6-.4,1.2-.8,1.8-1.2h0s0,0,0,0c0,0,0,0,0,0,0,0,0,0,0,0,0,0,0,0,0,0,0,0,0,0,0,0s0,0,0,0c0,0,0,0,0,0,0,0,0,0,0,0h0s0,0,0,0h0s0,0,0,0h0l.4-.3-5.2-8.2h0ZM53.8,25.7c-1.6,1.1-3.1,2.3-4.6,3.6l6.1,7.6s.1,0,.2-.1h0s0,0,0,0c0,0,0,0,0,0,0,0,0,0,0,0,0,0,0,0,0,0,0,0,0,0,0,0,0,0,0,0,0,0h0s0,0,0,0c0,0,0,0,0,0,0,0,0,0,0,0h0c.8-.7,1.7-1.3,2.6-2h0s0,0,0,0h0s0,0,0,0c0,0,0,0,0,0,0,0,0,0,0,0h0s0,0,0,0h0s0,0,0,0c0,0,0,0,0,0,0,0,0,0,0,0,0,0,0,0,0,0h0c.2-.2.5-.4.7-.5l-5.8-7.8h0ZM46.5,31.5c-1.5,1.2-2.9,2.5-4.3,3.9l6.6,7.1s0,0,.2-.1h0q0,0,0,0h0s0,0,0,0h0s0,0,0,0h0s0,0,0,0h0s0,0,0,0c0,0,0,0,0,0h0s0,0,0,0h0s0,0,0,0h0s0,0,0,0c0,0,0,0,0,0,0,0,0,0,0,0h0s0,0,0,0h0s0,0,0,0,0,0,0,0c0,0,0,0,0,0h0s0,0,0,0h0s0,0,0,0h0s0,0,0,0h0s0,0,0,0h0s0,0,0,0h0s0,0,0,0h0s0,0,0,0h0s0,0,0,0h0c.8-.8,1.7-1.5,2.6-2.2l-6.3-7.4h0ZM39.7,37.8c-1.4,1.3-2.8,2.8-4.1,4.2l7.1,6.6c.2-.2.4-.4.5-.6h0s0,0,0,0c0,0,0,0,0,0h0s0,0,0,0h0s0,0,0,0h0s0,0,0,0h0c1-1,2-2,3-3l-6.8-6.9h0ZM33.3,44.5c-1.3,1.5-2.5,2.9-3.8,4.4l7.5,6.1c1.1-1.4,2.3-2.8,3.5-4.1l-7.3-6.4h0ZM27.3,51.7c-1.2,1.5-2.3,3.1-3.5,4.7l7.9,5.6h0s0,0,0,0h0s0,0,0,0h0s0,0,0,0h0s0,0,0,0h0c.9-1.2,1.7-2.4,2.6-3.6h0s0,0,0,0h0s0,0,0,0h0s0,0,0,0h0s0,0,0,0h0s0,0,0,0c0,0,0,0,0,0,0,0,0,0,0,0,0,0,0,0,0,0,0,0,0,0,0,0,0,0,0,0,0,0l-7.7-5.9h0ZM21.9,59.3c-1.1,1.6-2.1,3.3-3.1,4.9l8.3,5c.5-.8,1-1.7,1.5-2.5h0s0,0,0,0c0,0,0,0,0,0,0,0,0,0,0,0,0,0,0,0,0,0,0,0,0,0,0,0,0,0,0,0,0,0,0,0,0,0,0,0h0s0,0,0,0c0,0,0,0,0,0,0,0,0,0,0,0,0,0,0,0,0,0h0s0,0,0,0h0s0,0,0,0h0c.3-.5.6-1,1-1.5l-8.1-5.4h0ZM17,67.2c-1,1.7-1.9,3.4-2.8,5.1l8.7,4.4c0-.1.1-.3.2-.4h0s0,0,0,0c0,0,0,0,0,0,0,0,0,0,0,0,0,0,0,0,0,0h0s0,0,0,0c0,0,0,0,0,0,0,0,0,0,0,0,0,0,0,0,0,0,0,0,0,0,0,0,0,0,0,0,0,0,0,0,0,0,0,0,0,0,0,0,0,0,0,0,0,0,0,0h0s0,0,0,0h0s0,0,0,0h0s0,0,0,0h0s0,0,0,0h0s0,0,0,0h0s0,0,0,0h0s0,0,0,0h0s0,0,0,0h0s0,0,0,0h0c0,0,0,0,0-.2h0s0,0,0,0h0s0,0,0,0h0s0,0,0,0h0s0,0,0,0h0c0,0,0,0,0-.1h0s0,0,0,0h0s0,0,0,0h0s0,0,0,0h0s0,0,0,0h0s0,0,0,0h0s0,0,0,0h0s0,0,0,0h0s0,0,0,0h0s0,0,0,0h0s0,0,0,0h0s0,0,0,0h0s0,0,0,0h0s0,0,0,0h0s0,0,0,0h0s0,0,0,0h0s0,0,0,0h0s0,0,0,0h0s0,0,0,0h0s0,0,0,0h0s0,0,0,0h0s0,0,0,0h0s0,0,0,0h0s0,0,0,0h0s0,0,0,0h0s0,0,0,0h0s0,0,0,0h0c0,0,0,0,0-.1h0s0,0,0,0h0s0,0,0,0h0c0,0,.1-.2.2-.3l-8.5-4.8h0l.2-.2ZM12.8,75.5c-.8,1.8-1.6,3.5-2.4,5.3l8.9,3.8c.5-1.1,1-2.2,1.5-3.3h0s0,0,0,0h0c0,0,0,0,0-.2h0s0,0,0,0h0s0,0,0,0h0s0,0,0,0h0s0,0,0,0c0,0,0,0,0,0,0,0,0,0,0,0,0,0,0,0,0,0,0,0,0,0,0,0,0,0,0,0,0,0,0,0,0,0,0,0,0,0,0,0,0,0,0,0,0,0,0,0,0,0,0,0,0,0,0,0,0,0,0,0,0,0,0,0,0,0h0s0,0,0,0h0c0-.2.2-.4.3-.6l-8.8-4.2h0ZM9.1,84.1c-.7,1.8-1.4,3.6-2,5.5l9.2,3.1c0-.2.1-.3.2-.5h0s0,0,0,0h0s0,0,0,0h0s0,0,0,0h0s0,0,0,0h0s0,0,0,0c0,0,0,0,0,0,0,0,0,0,0,0,0,0,0,0,0,0,0,0,0,0,0,0,0,0,0,0,0,0,0,0,0,0,0,0,0,0,0,0,0,0h0s0,0,0,0h0c0-.1,0-.2.1-.3h0c.4-1.2.9-2.3,1.3-3.5l-9.1-3.5h0ZM6,92.8c-.6,1.8-1.1,3.7-1.6,5.6l9.4,2.5c.5-1.7,1-3.5,1.5-5.2l-9.3-2.9h0ZM3.5,101.8c-.4,1.9-.9,3.8-1.2,5.7l9.5,1.8c0-.3.1-.6.2-.9h0v-.2h0c.3-1.5.6-2.8.9-4.2l-9.5-2.2h0ZM1.7,111c-.3,1.9-.6,3.8-.8,5.8l9.6,1.1c.2-1.8.5-3.6.7-5.3l-9.6-1.6h0ZM.5,120.2c-.2,1.9-.3,3.9-.4,5.8l9.7.4c0-1.6.2-3.2.3-4.8h0v-.2h0c0,0,0,0,0-.2h0v-.2h0c0,0,0-.1,0-.2l-9.7-.9h0ZM0,129.5c0,.9,0,1.8,0,2.7s0,2.1,0,3.1l9.7-.2c0-.7,0-1.4,0-2.2h0v-.2h0v-.2h0v-.2h0v-.2h0v-.2h0v-.2h0v-.2h0v-.2h0v-.2h0v-.2h0v-.2h0v-.2h0v-.2h0v-.2h0c0-.3,0-.5,0-.8l-9.7-.2h0ZM9.9,138.4l-9.7.5c0,1.9.2,3.9.4,5.8l9.7-.9c-.2-1.8-.3-3.6-.4-5.4h0ZM10.6,147l-9.6,1.2c.2,1.9.5,3.9.8,5.8l9.6-1.6c0-.5-.1-.9-.2-1.4h0c0-.1,0-.2,0-.3h0c0-.2,0-.3,0-.3h0c0,0,0-.1,0-.2h0c0,0,0-.1,0-.2h0c0-.2,0-.3,0-.3h0c0-.2,0-.3,0-.3h0c0-.2,0-.2,0-.3h0v-.2h0c0-.1,0-.1,0-.2h0v-.2h0v-.2h0v-.2h0c0-.4-.1-.8-.1-1.2h-.2ZM11.9,155.5l-9.5,1.8c.4,1.9.8,3.8,1.2,5.7l9.4-2.3c-.1-.6-.3-1.2-.4-1.9h0v-.2h0v-.2h0c-.2-1.1-.4-2.1-.6-3h-.1ZM13.9,163.9l-9.4,2.5c.5,1.9,1.1,3.8,1.6,5.6l9.3-2.9c0-.3-.2-.6-.3-.9h0s0,0,0,0h0s0,0,0,0h0s0,0,0,0h0c0,0,0,0,0,0,0,0,0,0,0,0,0,0,0,0,0,0,0,0,0,0,0,0h0c0,0,0,0,0,0,0,0,0,0,0,0h0s0,0,0,0h0c-.4-1.2-.7-2.4-1-3.6h0ZM16.4,172.2l-9.2,3.2c.6,1.8,1.3,3.7,2,5.5l9-3.6c-.4-1-.8-1.9-1.1-2.9h0s0,0,0,0h0s0,0,0,0h0s0,0,0,0h0s0,0,0,0h0s0,0,0,0h0s0,0,0,0h0s0,0,0,0h0s0,0,0,0h0s0,0,0,0h0s0,0,0,0h0c0,0,0,0,0,0h0c0,0,0,0,0,0h0s0,0,0,0c0,0,0,0,0,0,0,0,0,0,0,0h0c0,0,0,0,0,0,0,0,0,0,0,0,0,0,0,0,0,0h0c0,0,0,0,0,0h0s0,0,0,0c0,0,0,0,0,0,0,0,0,0,0,0h0s0,0,0,0h0s0,0,0,0h0s0,0,0,0h0s0,0,0,0h0s0,0,0,0h0s0,0,0,0h0s0,0,0,0h0s0,0,0,0h-.1ZM19.5,180.2l-8.9,3.8c.8,1.8,1.6,3.6,2.4,5.3l8.8-4.2h0s0,0,0,0h0s0,0,0,0h0c0,0,0-.1,0-.1h0s0,0,0,0h0s0,0,0,0h0s0,0,0,0h0s0,0,0,0c0,0,0,0,0,0,0,0,0,0,0,0,0,0,0,0,0,0,0,0,0,0,0,0,0,0,0,0,0,0,0,0,0,0,0,0,0,0,0,0,0,0,0,0,0,0,0,0,0,0,0,0,0,0,0,0,0,0,0,0,0,0,0,0,0,0,0,0,0,0,0,0,0,0,0,0,0,0,0,0,0,0,0,0,0,0,0,0,0,0,0,0,0,0,0,0s0,0,0,0c0,0,0,0,0,0s0,0,0,0c0,0,0,0,0,0,0,0,0,0,0,0,0,0,0,0,0,0,0,0,0,0,0,0,0,0,0,0,0,0,0,0,0,0,0,0,0,0,0,0,0,0,0,0,0,0,0,0,0,0,0,0,0,0,0,0,0,0,0,0,0,0,0,0,0,0,0,0,0,0,0,0,0,0,0,0,0,0,0,0,0,0,0,0,0,0,0,0,0,0,0,0,0,0,0,0,0,0,0,0,0,0,0,0,0,0,0,0,0,0,0,0,0,0,0,0,0,0,0,0,0,0,0,0,0,0,0,0,0,0,0,0,0,0,0,0,0,0,0,0,0,0,0,0,0,0,0,0,0,0,0,0,0,0,0,0,0,0,0,0,0,0h0s0,0,0,0h0s0,0,0,0h0s0,0,0,0h0s0,0,0,0h0s0,0,0,0h0s0,0,0,0h0s0,0,0,0h0s0,0,0,0h0s0,0,0,0h0s0,0,0,0h0s0,0,0,0h0s0,0,0,0h0s0,0,0,0h0s0,0,0,0h0s0,0,0,0h0s0,0,0,0h0s0,0,0,0c0,0,0,0,0,0,0,0,0,0,0,0,0,0,0,0,0,0,0,0,0,0,0,0h0s0,0,0,0,0,0,0,0c0,0,0,0,0,0,0,0,0,0,0,0,0,0,0,0,0,0,0,0,0,0,0,0,0,0,0,0,0,0,0,0,0,0,0,0h0s0,0,0,0h0c0-.3-.2-.5-.2-.7h-.2ZM23.1,188l-8.6,4.4c.9,1.7,1.8,3.4,2.8,5.1l8.4-4.8c-.7-1.2-1.3-2.4-1.9-3.5h0s0,0,0,0h0s0,0,0,0h0s0,0,0,0h0s0,0,0,0h0s0,0,0,0h0s0,0,0,0h0s0,0,0,0h0s0,0,0,0h0c0,0,0-.1,0-.1h0s0,0,0,0h0s0,0,0,0h0s0,0,0,0h0c0,0,0-.1-.1-.2h0ZM27.4,195.6l-8.3,5c1,1.6,2,3.3,3.1,4.9l8.1-5.4c-1-1.5-2-3-2.9-4.6h0ZM32.1,202.8l-7.9,5.6c1.1,1.6,2.3,3.1,3.5,4.7l7.7-5.9c-1.1-1.4-2.2-2.9-3.2-4.3h0ZM37.3,209.7l-7.5,6.1c1.2,1.5,2.5,3,3.8,4.4l7.2-6.5h0s0,0,0,0c0,0,0,0,0,0,0,0,0,0,0,0h0s0,0,0,0h0s0,0,0,0h0s0,0,0,0h0s0,0,0,0h0s0,0,0,0h0s0,0,0,0h0s0,0,0,0h0s0,0,0,0h0s0,0,0,0h0s0,0,0,0h0s0,0,0,0h0s0,0,0,0h0s0,0,0,0h0s0,0,0,0h0s0,0,0,0h0s0,0,0,0h0s0,0,0,0h0s0,0,0,0h0s0,0,0,0h0s0,0,0,0h0s0,0,0-.1h0s0,0,0,0h0s0,0,0,0h0s0,0,0,0h0s0,0,0,0h0s0,0,0,0h0s0,0,0,0h0s0,0,0,0h0s0,0,0,0c0,0,0,0,0,0,0,0,0,0,0,0h0s0,0,0,0h0s0,0,0,0h0s0,0,0,0h0s0,0,0,0h0s0,0,0,0c0,0,0,0,0,0,0,0,0,0,0,0,0,0,0,0,0,0,0,0,0,0,0,0,0,0,0,0,0,0,0,0,0,0,0,0,0,0,0,0,0,0,0,0,0,0,0,0,0,0,0,0,0,0,0,0,0,0,0,0,0,0,0,0,0,0,0,0,0,0,0,0,0,0,0,0,0,0,0,0,0,0,0,0,0,0,0,0,0,0,0,0,0,0,0,0,0,0,0,0,0,0,0,0,0,0,0,0h0s0,0,0,0c0,0,0,0,0,0,0,0,0,0,0,0,0,0,0,0,0,0s0,0,0,0c0,0,0,0,0,0s0,0,0,0c0,0,0,0,0,0,0,0,0,0,0,0,0,0,0,0,0,0,0,0,0,0,0,0h0c0,0,0,0,0,0,0,0,0,0,0,0,0,0,0,0,0,0,0,0,0,0,0,0h0s0,0,0-.1h0s0,0,0,0h0s0,0,0,0h0c0-.1-.2-.2-.2-.3h0l-.2-.2ZM43,216.1l-7.1,6.7c1.3,1.4,2.7,2.8,4.1,4.1l6.8-7c0,0-.2-.2-.3-.3h0s0,0,0,0h0s0,0,0,0c0,0,0,0,0,0,0,0,0,0,0,0s0,0,0,0h0s0,0,0,0c0,0,0,0,0,0,0,0,0,0,0,0h0s0,0,0,0h0s0,0,0,0h0s0,0,0,0h0s0,0,0,0h0s0,0,0,0h0s0,0,0,0h0c-.4-.4-.9-.9-1.3-1.3h0s0,0,0,0h0s0,0,0,0h0c0,0-.1-.1-.2-.2h0s0,0,0,0h0s0,0,0,0h0s0,0,0,0h0s0,0,0,0h0s0,0,0,0h0s0,0,0,0h0s0,0,0,0h0s0,0,0,0h0s0,0,0,0h0s0,0,0,0h0s0,0,0,0h0s0,0,0,0h0s0,0,0,0h0s0,0,0,0h0s0,0,0,0h0s0,0,0,0h0s0,0,0,0h0s0,0,0,0h0s0,0,0,0h0s0,0,0,0h0s0,0,0,0h-.2ZM49.1,222.2l-6.6,7.1c1.4,1.3,2.9,2.6,4.4,3.9l6.3-7.4c-.3-.2-.6-.5-.8-.7h0s0,0,0,0h0s0,0,0,0h0s0,0,0,0h0s0,0,0,0h0s0,0,0,0h0s0,0,0,0h0s0,0,0,0c0,0,0,0,0,0,0,0,0,0,0,0h0s0,0,0,0h0s0,0,0,0h0s0,0,0,0h0s0,0,0,0h0s0,0,0,0h0s0,0,0,0h0s0,0,0,0h0s0,0,0,0h0s0,0,0,0h0s0,0,0,0h0s0,0,0,0h0s0,0,0,0h0s0,0,0,0h0c0,0-.1-.1-.2-.2h0s0,0,0,0h0s0,0,0,0h0s0,0,0,0h0c0,0-.1-.1-.2-.2h0s0,0,0,0h0c0,0,0,0,0-.1h0s0,0,0,0h0s0,0,0,0h0s0,0,0,0h0s0,0,0,0h0s0,0,0,0h0s0,0,0,0h0s0,0,0,0h0s0,0,0,0,0,0,0,0c0,0,0,0,0,0,0,0,0,0,0,0h0c-.2-.2-.3-.3-.5-.5h-.1ZM55.7,227.9l-6.1,7.6c1.5,1.2,3.1,2.4,4.6,3.5l5.7-7.8c-.4-.3-.7-.5-1.1-.8h0s0,0,0,0c0,0,0,0,0,0,0,0,0,0,0,0,0,0,0,0,0,0,0,0,0,0,0,0,0,0,0,0,0,0,0,0,0,0,0,0,0,0,0,0,0,0,0,0,0,0,0,0,0,0,0,0,0,0,0,0,0,0,0,0h0s0,0,0,0h0s0,0,0,0h0s0,0,0,0h0s0,0,0,0h0s0,0,0,0h0s0,0,0,0h0c0,0-.1-.1-.2-.1h0c-.3-.2-.5-.4-.8-.6h0s0,0,0,0h0s0,0,0,0h0c0,0-.1-.1-.2-.2h0s0,0,0,0h0s0,0,0,0h0s0,0,0,0h0s0,0,0,0h0s0,0,0,0h0s0,0,0,0h0s0,0,0,0c0,0,0,0,0,0,0,0,0,0,0,0,0,0,0,0,0,0,0,0,0,0,0,0,0,0,0,0,0,0,0,0,0,0,0,0,0,0,0,0,0,0,0,0,0,0,0,0,0,0,0,0,0,0,0,0,0,0,0,0,0,0,0,0,0,0,0,0,0,0,0,0,0,0,0,0,0,0h0s0,0,0,0h0ZM62.6,233l-5.5,8c1.6,1.1,3.2,2.2,4.9,3.2l5.2-8.2c0,0-.1,0-.2-.1,0,0,0,0,0,0,0,0,0,0,0,0,0,0,0,0,0,0,0,0,0,0,0,0,0,0,0,0,0,0h0s0,0,0,0h0s0,0,0,0h0c-.7-.4-1.3-.9-2-1.3h0s0,0,0,0h0s0,0,0,0h0s0,0,0,0h0s0,0,0,0h0s0,0,0,0c0,0,0,0,0,0,0,0,0,0,0,0,0,0,0,0,0,0,0,0,0,0,0,0,0,0,0,0,0,0,0,0,0,0,0,0,0,0,0,0,0,0,0,0,0,0,0,0,0,0,0,0,0,0,0,0,0,0,0,0s0,0,0,0c0,0,0,0,0,0s0,0,0,0c0,0,0,0,0,0,0,0,0,0,0,0,0,0,0,0,0,0,0,0,0,0,0,0,0,0,0,0,0,0,0,0,0,0,0,0,0,0,0,0,0,0,0,0,0,0,0,0,0,0,0,0,0,0,0,0,0,0,0,0,0,0,0,0,0,0,0,0,0,0,0,0,0,0,0,0,0,0,0,0,0,0,0,0,0,0,0,0,0,0,0,0,0,0,0,0,0,0,0,0,0,0,0,0,0,0,0,0,0,0,0,0,0,0,0,0,0,0,0,0,0,0,0,0,0,0,0,0,0,0,0,0,0,0,0,0,0,0,0,0,0,0,0,0,0,0,0,0,0,0h0s0,0,0,0h0s0,0,0,0h0c0,0-.1-.1-.2-.1h0ZM69.9,237.7l-4.9,8.4c1.7,1,3.4,1.9,5.1,2.9l4.6-8.6c-.4-.2-.9-.5-1.3-.7h0s0,0,0,0h0s0,0,0,0h0s0,0,0,0h0s0,0,0,0h0s0,0,0,0c0,0,0,0,0,0,0,0,0,0,0,0s0,0,0,0c0,0,0,0,0,0s0,0,0,0c0,0,0,0,0,0,0,0,0,0,0,0,0,0,0,0,0,0h0s0,0,0,0c0,0,0,0,0,0h0c-.6-.4-1.3-.7-1.9-1.1h0s0,0,0,0c0,0,0,0,0,0,0,0,0,0,0,0,0,0,0,0,0,0,0,0,0,0,0,0,0,0,0,0,0,0,0,0,0,0,0,0,0,0,0,0,0,0,0,0,0,0,0,0,0,0,0,0,0,0h0s0,0,0,0h0c0,0-.1,0-.2-.1h0ZM77.4,241.8l-4.3,8.7c1.7.9,3.5,1.7,5.3,2.5l4-8.9c-.5-.2-1-.5-1.5-.7h0s0,0,0,0h0s0,0,0,0h0s0,0,0,0c0,0,0,0,0,0,0,0,0,0,0,0,0,0,0,0,0,0,0,0,0,0,0,0s0,0,0,0c0,0,0,0,0,0,0,0,0,0,0,0h0c-.9-.5-1.8-.9-2.8-1.4h0ZM85.3,245.4l-3.7,9c1.8.7,3.6,1.4,5.4,2.1l3.3-9.1s0,0,0,0h0s0,0,0,0h0s0,0,0,0h0s0,0,0,0h0c-1.6-.6-3.2-1.2-4.7-1.8h0ZM93.4,248.4l-3.1,9.2c1.8.6,3.7,1.2,5.6,1.7l2.7-9.3c-1.5-.4-3-.9-4.5-1.4h0s0,0,0,0h0s0,0,0,0h0s0,0,0,0h0s0,0,0,0h0s0,0,0,0h0s0,0,0,0h0s0,0,0,0c0,0,0,0,0,0,0,0,0,0,0,0h0ZM101.7,250.9l-2.4,9.4c1.9.5,3.8.9,5.7,1.3l2-9.5c-.9-.2-1.8-.4-2.7-.6h-.2c-.8-.2-1.6-.4-2.3-.6h0ZM110.1,252.7l-1.7,9.6c1.9.4,3.8.7,5.8.9l1.3-9.6s0,0,0,0h-.1c0,0-.1,0-.2,0h-.2c0,0,0,0-.2,0h-.2c0,0,0,0-.2,0h-.2s0,0,0,0h-.2s0,0-.1,0h-1.2c0,0-.2,0-.2,0h0c-.7-.1-1.4-.2-2.1-.4h0l-.2-.4ZM118.6,254l-1.1,9.7c1.9.2,3.9.4,5.8.5l.6-9.7c-.7,0-1.3,0-2-.1h-.4c-1,0-1.9-.2-2.9-.3h0ZM127.2,254.6l-.4,9.7c1.8,0,3.6.1,5.4.1h.4v-9.7h-1.8c-1.1,0-2.2,0-3.3,0h-.4ZM141.3,254.4c-1.8.1-3.6.2-5.4.3l.3,9.7c1.9,0,3.9-.2,5.8-.3l-.7-9.7h0ZM149.8,253.4c-.2,0-.4,0-.6,0h-.1c-1.6.2-3.1.4-4.7.6l1,9.7c1.9-.2,3.9-.4,5.8-.7l-1.4-9.6h0ZM158.3,251.9c-1.5.3-3,.6-4.6.9h0c0,0-.1,0-.1,0h-.2c-.1,0-.3,0-.4,0l1.6,9.6c1.9-.3,3.8-.7,5.7-1.1l-2.1-9.5h0ZM166.7,249.8c-.2,0-.5.1-.8.2h0s0,0,0,0h0s0,0,0,0c0,0,0,0,0,0h0s0,0,0,0c0,0,0,0,0,0,0,0,0,0,0,0h0s0,0,0,0h0s0,0,0,0h0s0,0,0,0h0s0,0,0,0h0s0,0,0,0h0s0,0,0,0h0s0,0,0,0h0s0,0,0,0h0c0,0-.1,0-.2,0h0s0,0,0,0h0s0,0,0,0h0c-.4.1-.7.2-1.1.3h0s0,0,0,0h0c0,0-.2,0-.2,0h0s0,0,0,0h0s0,0,0,0h0c0,0-.1,0-.2,0h0s0,0,0,0h0s0,0,0,0h0s0,0,0,0h0s0,0,0,0h0s0,0,0,0h0s0,0,0,0h0s0,0,0,0h0s0,0,0,0h0s0,0,0,0h0s0,0,0,0h0s0,0,0,0h0s0,0,0,0h0s0,0,0,0h0s0,0,0,0h0s0,0,0,0h0s0,0,0,0h0s0,0,0,0h0l2.3,9.4c1.9-.5,3.8-1,5.6-1.5l-2.7-9.3h0ZM174.9,247.1c-1.7.6-3.4,1.2-5.1,1.8l3,9.3c1.8-.6,3.7-1.2,5.5-1.9l-3.4-9.1h0ZM182.9,243.8c-1.6.7-3.3,1.4-5,2.1l3.6,9c1.8-.7,3.6-1.5,5.4-2.3l-4-8.8h0ZM190.6,239.9c-1.4.8-2.8,1.5-4.3,2.2h0s0,0,0,0h0s0,0,0,0c0,0,0,0,0,0,0,0,0,0,0,0s0,0,0,0c0,0,0,0,0,0,0,0,0,0,0,0h-.2c0,0,4.2,8.8,4.2,8.8,1.7-.9,3.5-1.7,5.2-2.7l-4.6-8.5h0ZM198,235.5h0c0,0,0,0-.1,0h0s0,0,0,0h0s0,0,0,0h0s0,0,0,0h0s0,0,0,0h0c0,0,0,0-.1,0h0s0,0,0,0h0s0,0,0,0h0s0,0,0,0h0s0,0,0,0h0s0,0,0,0h0s0,0,0,0h0s0,0,0,0h0s0,0,0,0h0s0,0,0,0h0s0,0,0,0c0,0,0,0,0,0,0,0,0,0,0,0h0s0,0,0,0c0,0,0,0,0,0,0,0,0,0,0,0,0,0,0,0,0,0,0,0,0,0,0,0,0,0,0,0,0,0,0,0,0,0,0,0,0,0,0,0,0,0,0,0,0,0,0,0,0,0,0,0,0,0,0,0,0,0,0,0,0,0,0,0,0,0,0,0,0,0,0,0,0,0,0,0,0,0,0,0,0,0,0,0,0,0,0,0,0,0,0,0,0,0,0,0,0,0,0,0,0,0,0,0,0,0,0,0s0,0,0,0c0,0,0,0,0,0,0,0,0,0,0,0s0,0,0,0,0,0,0,0c0,0,0,0,0,0h0s0,0,0,0c0,0,0,0,0,0,0,0,0,0,0,0,0,0,0,0,0,0,0,0,0,0,0,0,0,0,0,0,0,0,0,0,0,0,0,0,0,0,0,0,0,0s0,0,0,0c0,0,0,0,0,0,0,0,0,0,0,0,0,0,0,0,0,0,0,0,0,0,0,0,0,0,0,0,0,0,0,0,0,0,0,0,0,0,0,0,0,0h0s0,0,0,0c0,0,0,0,0,0,0,0,0,0,0,0s0,0,0,0c0,0,0,0,0,0,0,0,0,0,0,0,0,0,0,0,0,0,0,0,0,0,0,0,0,0,0,0,0,0,0,0,0,0,0,0,0,0,0,0,0,0,0,0,0,0,0,0s0,0,0,0c0,0,0,0,0,0s0,0,0,0c0,0,0,0,0,0,0,0,0,0,0,0,0,0,0,0,0,0,0,0,0,0,0,0,0,0,0,0,0,0h0s0,0,0,0h0s0,0,0,0h0s0,0,0,0h0s0,0,0,0h0s0,0,0,0h0s0,0,0,0h0s0,0,0,0h0c0,0,0,0-.1,0h0c-.1,0-.2.1-.3.2l4.9,8.4c1.7-1,3.4-2,5-3l-5.2-8.2h0ZM205.1,230.6c-1.4,1.1-2.9,2.1-4.4,3.1l5.4,8.1c1.6-1.1,3.2-2.2,4.8-3.4l-5.8-7.8h0ZM211.9,225.3h0s0,0,0,0h0c0,0,0,0,0,0,0,0,0,0,0,0h0s0,0,0,0c0,0,0,0,0,0,0,0,0,0,0,0h0s0,0,0,0h0s0,0,0,0c0,0,0,0,0,0h0s0,0,0,0h0s0,0,0,0h0s0,0,0,0h0c0,0,0,0,0,.1h0c-.8.7-1.6,1.3-2.4,2h0c0,0-.1,0-.2.1,0,0,0,0,0,0,0,0,0,0,0,0h0s0,0,0,0c0,0,0,0,0,0,0,0,0,0,0,0,0,0,0,0,0,0,0,0,0,0,0,0,0,0,0,0,0,0,0,0,0,0,0,0,0,0,0,0,0,0h0s0,0,0,0c0,0,0,0,0,0,0,0,0,0,0,0h0s0,0,0,0h0s0,0,0,0h0s0,0,0,0h0s0,0,0,0h0l6,7.6c1.5-1.2,3-2.4,4.5-3.7l-6.3-7.4h0ZM218.2,219.4c-.3.3-.6.6-1,1h0s0,0,0,0h0s0,0,0,0h0s0,0,0,0h0s0,0,0,0h0s0,0,0,0h0s0,0,0,0h0c0,0,0,0,0,.1h0s0,0-.1.1h0c0,0,0,0,0,.1h0c-.5.5-1,.9-1.5,1.4h0c0,0,0,0,0,.1h0q0,0,0,0h0s0,0,0,0,0,0,0,0c0,0,0,0,0,0,0,0,0,0,0,0,0,0,0,0,0,0h0c-.1.1-.2.2-.4.3l6.5,7.2c1.4-1.3,2.9-2.6,4.2-4l-6.8-6.9h0ZM224.2,213.1c-1.2,1.4-2.4,2.7-3.6,4l7,6.7c1.3-1.4,2.7-2.8,3.9-4.3l-7.3-6.4h0ZM229.6,206.5s0,0,0,0h0s0,0,0,0h0s0,0,0,0c0,0,0,0,0,0,0,0,0,0,0,0,0,0,0,0,0,0,0,0,0,0,0,0,0,0,0,0,0,0h0s0,0,0,0c0,0,0,0,0,0,0,0,0,0,0,0h0s0,0,0,0h0s0,0,0,0h0s0,0,0,0h0s0,0,0,0h0c-.9,1.2-1.9,2.3-2.8,3.5l7.5,6.2c1.2-1.5,2.5-3,3.6-4.6l-7.7-5.9h0ZM234.6,199.4c-.1.2-.2.4-.4.6h0s0,0,0,0h0s0,0,0,0c0,0,0,0,0,0,0,0,0,0,0,0h0s0,0,0,0c0,0,0,0,0,0,0,0,0,0,0,0,0,0,0,0,0,0h0s0,0,0,0h0c-.6.9-1.3,1.9-1.9,2.8h0s0,0,0,0c0,0,0,0,0,0,0,0,0,0,0,0,0,0,0,0,0,0,0,0,0,0,0,0,0,0,0,0,0,0h0s0,0,0,0h0s0,0,0,0h0c0,0-.1.2-.2.3l7.9,5.7c1.1-1.6,2.2-3.2,3.3-4.8l-8.1-5.3h0ZM239.1,192.1c-.5.9-1,1.7-1.5,2.6h0s0,0,0,0h0s0,0,0,0h0s0,0,0,0h0s0,0,0,0h0s0,0,0,0c0,0,0,0,0,0,0,0,0,0,0,0,0,0,0,0,0,0,0,0,0,0,0,0,0,0,0,0,0,0,0,0,0,0,0,0,0,0,0,0,0,0,0,0,0,0,0,0,0,0,0,0,0,0h0c-.3.5-.6.9-.9,1.4l8.2,5.1c1-1.6,2-3.3,3-5l-8.5-4.8h0ZM243.1,184.4c-.3.6-.6,1.3-.9,1.9h0c0,0,0,.1-.1.2h0s0,0,0,0h0s0,0,0,0c0,0,0,0,0,0,0,0,0,0,0,0h0s0,0,0,0c0,0,0,0,0,0,0,0,0,0,0,0,0,0,0,0,0,0,0,0,0,0,0,0s0,0,0,0h0c0,0,0,0,0,0h0c0,0,0,0,0,0,0,0,0,0,0,0,0,0,0,0,0,0,0,0,0,0,0,0,0,0,0,0,0,0,0,0,0,0,0,0,0,0,0,0,0,0s0,0,0,0c0,0,0,0,0,0,0,0,0,0,0,0,0,0,0,0,0,0,0,0,0,0,0,0,0,0,0,0,0,0,0,0,0,0,0,0,0,0,0,0,0,0,0,0,0,0,0,0,0,0,0,0,0,0h0s0,0,0,0h0s0,0,0,0h0s0,0,0,0h0s0,0,0,0h0s0,0,0,0h0s0,0,0,0h0s0,0,0,0h0s0,0,0,0h0s0,0,0,0h0s0,0,0,0h0c-.1.2-.2.4-.4.7l8.6,4.5c.9-1.7,1.8-3.5,2.6-5.2l-8.8-4.1h0ZM246.5,176.4v.2h0s0,0,0,0h0c0,0,0,.2,0,.2h0s0,0,0,0h0s0,0,0,0h0s0,0,0,0h0s0,0,0,0h0s0,0,0,0h0s0,0,0,0h0s0,0,0,0h0s0,0,0,0h0s0,0,0,0h0s0,0,0,0h0s0,0,0,0h0s0,0,0,0h0s0,0,0,0h0s0,0,0,0h0s0,0,0,0h0s0,0,0,0h0s0,0,0,0h0s0,0,0,0h0s0,0,0,0h0s0,0,0,0h0s0,0,0,0h0s0,0,0,0h0s0,0,0,0h0s0,0,0,0h0s0,0,0,0h0s0,0,0,0h0s0,0,0,0h0s0,0,0,0h0s0,0,0,0h0c-.3.7-.6,1.4-.9,2.2l8.9,3.9c.8-1.8,1.5-3.6,2.2-5.4l-9.1-3.5h-.1ZM249.3,168.3s0,0,0,0h0s0,0,0,0h0s0,0,0,0c0,0,0,0,0,0h0c0,0,0,0,0,0h0s0,0,0,0h0s0,0,0,0h0s0,0,0,0h0s0,0,0,0h0c-.3.9-.6,1.8-.9,2.7h0s0,0,0,0h0c0,0,0,.1,0,.2h0s0,0,0,0h0s0,0,0,0h0s0,0,0,0h0s0,0,0,0h0s0,0,0,0h0s0,0,0,0h0s0,0,0,0h0c0,0,0,0,0,0h0s0,0,0,0h0s0,0,0,0h0s0,0,0,0h0s0,0,0,0h0s0,0,0,0h0c0,0,0,.1,0,.1h0s0,0,0,0h0s0,0,0,0h0c0,0,0,.1,0,.2l9.1,3.3c.6-1.8,1.3-3.7,1.8-5.5l-9.3-2.9h-.1ZM251.6,159.9c-.3,1.3-.6,2.5-.9,3.8h0s0,0,0,0h0c0,0,0,0,0,0,0,0,0,0,0,0h0c0,0,0,0,0,0h0s0,0,0,0h0c0,.4-.2.7-.3,1.1l9.4,2.6c.5-1.9,1-3.8,1.4-5.6l-9.5-2.2h0ZM253.2,151.5c-.3,1.8-.6,3.6-1,5.3l9.5,1.9c.4-1.9.7-3.8,1-5.7l-9.6-1.5h0ZM254.2,142.9c0,.9-.2,1.8-.3,2.7h0c0,.2,0,.2,0,.3h0v.2h0v.2h0v.2h0c0,.1,0,.1,0,.2h0c0,.2,0,.3,0,.3h0c0,.4-.1.9-.2,1.3l9.6,1.3c.2-1.9.5-3.9.6-5.8l-9.7-.8h0ZM254.7,134.3c0,.4,0,.7,0,1.1h0v.2h0v.2h0v.2h0c0,1.3,0,2.6-.2,3.8l9.7.6c.1-1.9.2-3.9.2-5.8l-9.7-.2h0ZM264.2,125.1l-9.7.5c0,.6,0,1.2,0,1.8h0v.2h0v.2h0c0,.7,0,1.4,0,2h0c0,.5,0,.9,0,1.2h9.7c0-2,0-4-.2-5.9h0ZM263.4,115.9l-9.6,1.2h0c.2,1.8.4,3.6.5,5.4l9.7-.8c-.1-1.9-.4-3.9-.6-5.8h0ZM262,106.7l-9.5,1.9c.3,1.3.5,2.7.7,4h0v.2h0c0,.4.1.8.2,1.1l9.6-1.4c-.3-1.9-.6-3.8-1-5.7h0ZM259.8,97.6l-9.4,2.5c0,.3.2.6.2.9h0s0,0,0,0h0q0,0,0,0h0c0,0,0,.1,0,.1h0c.2.9.5,1.8.7,2.8h0v.2h0c0,.4.2.8.2,1.1l9.5-2.1c-.4-1.9-.9-3.8-1.4-5.7h.1ZM257.1,88.7l-9.2,3.2c0,.1,0,.2.1.3h0s0,0,0,0h0s0,0,0,0h0s0,0,0,0c0,0,0,0,0,0,0,0,0,0,0,0,.4,1.2.8,2.5,1.2,3.8h0s0,0,0,0h0s0,0,0,0h0s0,0,0,0c0,0,0,0,0,0h0s0,0,0,0h0s0,0,0,0h0s0,0,0,0h0s0,0,0,0h0s0,0,0,0h0s0,0,0,0l9.3-2.8c-.5-1.8-1.2-3.7-1.8-5.5h0ZM253.7,80l-8.9,3.8c.1.3.3.6.4,1h0s0,0,0,0h0s0,0,0,0,0,0,0,0c0,0,0,0,0,0,0,0,0,0,0,0,0,0,0,0,0,0,0,0,0,0,0,0,0,0,0,0,0,0,0,0,0,0,0,0,0,0,0,0,0,0,0,0,0,0,0,0,0,0,0,0,0,0,0,0,0,0,0,0h0s0,0,0,0h0s0,0,0,0h0s0,0,0,0h0s0,0,0,0h0s0,0,0,0h0s0,0,0,0h0s0,0,0,0h0s0,0,0,0h0s0,0,0,0h0s0,0,0,0h0s0,0,0,0h0s0,0,0,0h0s0,0,0,0c0,0,0,0,0,0,0,0,0,0,0,0,0,0,0,0,0,0,0,0,0,0,0,0,0,0,0,0,0,0,0,0,0,0,0,0,0,0,0,0,0,0,0,0,0,0,0,0,0,0,0,0,0,0,0,0,0,0,0,0,0,0,0,0,0,0,0,0,0,0,0,0,0,0,0,0,0,0,0,0,0,0,0,0,0,0,0,0,0,0h0s0,0,0,0c0,0,0,0,0,0,0,0,0,0,0,0h0s0,0,0,0h0s0,0,0,0h0s0,0,0,0h0c.2.5.4,1,.6,1.4l9.1-3.4c-.7-1.8-1.4-3.6-2.2-5.4h.2ZM249.7,71.6l-8.6,4.5c.8,1.6,1.6,3.2,2.4,4.8l8.8-4.1c-.8-1.8-1.7-3.5-2.6-5.2h0ZM245.1,63.4l-8.3,5.1c.1.2.2.3.3.5h0s0,0,0,0h0s0,0,0,0c0,0,0,0,0,0,0,0,0,0,0,0,0,0,0,0,0,0,0,0,0,0,0,0,0,0,0,0,0,0,0,0,0,0,0,0,0,0,0,0,0,0,0,0,0,0,0,0s0,0,0,0,0,0,0,0c0,0,0,0,0,0,0,0,0,0,0,0,0,0,0,0,0,0,0,0,0,0,0,0,0,0,0,0,0,0,0,0,0,0,0,0,0,0,0,0,0,0,0,0,0,0,0,0,0,0,0,0,0,0h0s0,0,0,0h0c0,0,0,0,0,.1h0s0,0,0,0h0s0,0,0,0h0s0,0,0,0h0c0,0,.1.2.2.3h0s0,0,0,0h0c0,0,.1.2.2.3h0s0,0,0,0h0s0,0,0,0h0c0,0,.1.2.2.3h0s0,0,0,0h0s0,0,0,0h0s0,0,0,0h0s0,0,0,.1h0s0,0,0,0h0s0,0,0,0h0s0,0,0,0h0s0,0,0,0h0s0,0,0,.1h0s0,0,0,0h0s0,0,0,0h0s0,0,0,0h0c0,0,0,0,0,.1h0s0,0,0,0h0s0,0,0,0h0s0,0,0,0h0c0,0,.1.2.2.3h0s0,0,0,.1l8.5-4.7c-.9-1.7-1.9-3.4-2.9-5h.1ZM240,55.7l-7.9,5.6c.1.2.3.4.4.5h0c0,0,.1.2.2.3h0s0,0,0,0h0s0,0,0,0h0s0,0,0,0h0s0,0,0,0h0s0,0,0,0h0s0,0,0,0c0,0,0,0,0,0,0,0,0,0,0,0,0,0,0,0,0,0,0,0,0,0,0,0,0,0,0,0,0,0,0,0,0,0,0,0,0,0,0,0,0,0,0,0,0,0,0,0,0,0,0,0,0,0s0,0,0,0c0,0,0,0,0,0,0,0,0,0,0,0,0,0,0,0,0,0,0,0,0,0,0,0,0,0,0,0,0,0,0,0,0,0,0,0,0,0,0,0,0,0,0,0,0,0,0,0,0,0,0,0,0,0h0s0,0,0,0h0s0,0,0,0h0c.5.8,1.1,1.6,1.6,2.4l8.2-5.3c-1.1-1.6-2.1-3.2-3.3-4.8h0ZM234.4,48.3l-7.5,6.2c.1.2.3.4.5.6h0s0,0,0,0c0,0,0,0,0,0,0,0,0,0,0,0,0,0,0,0,0,0,0,0,0,0,0,0,0,0,0,0,0,0h0s0,0,.1.1h0c.6.8,1.3,1.6,1.9,2.5h0s0,0,0,0h0s0,0,0,0h0s0,0,0,0h0s0,0,0,0h0s0,0,0,0c0,0,0,0,0,0,0,0,0,0,0,0,0,0,0,0,0,0,0,0,0,0,0,0,0,0,0,0,0,0,0,0,0,0,0,0,0,0,0,0,0,0,0,0,0,0,0,0,0,0,0,0,0,0,0,0,0,0,0,0,0,0,0,0,0,0,0,0,0,0,0,0,0,0,0,0,0,0h0s0,0,0,0l7.8-5.8c-1.2-1.5-2.4-3.1-3.6-4.6h0ZM228.2,41.3l-7.1,6.7c.7.7,1.3,1.4,1.9,2.1h0s0,0,0,0h0s0,0,0,0h0s0,0,.1.1h0s0,0,0,0h0s0,0,0,0h0s0,0,0,0h0s0,0,0,0h0s0,0,0,0h0s0,0,0,0h0s0,0,0,0h0s0,0,0,0h0s0,0,0,0h0s0,0,0,0h0s0,0,0,0h0s0,0,0,0h0s0,0,0,0h0s0,0,0,0c0,0,0,0,0,0,0,0,0,0,0,0,0,0,0,0,0,0,0,0,0,0,0,0,0,0,0,0,0,0,0,0,0,0,0,0,0,0,0,0,0,0,0,0,0,0,0,0,0,0,0,0,0,0,0,0,0,0,0,0,0,0,0,0,0,0,0,0,0,0,0,0,0,0,0,0,0,0,0,0,0,0,0,0,0,0,0,0,0,0,0,0,0,0,0,0,0,0,0,0,0,0,0,0,0,0,0,0,0,0,0,0,0,0,0,0,0,0,0,0,0,0,0,0,0,0s0,0,0,0c0,0,0,0,0,0s0,0,0,0c0,0,0,0,0,0l7.3-6.4c-1.3-1.5-2.6-2.9-3.9-4.3h0ZM221.6,34.8l-6.6,7.2h0s0,0,.1.1h0s0,0,0,0h0s0,0,0,0h0s0,0,0,0h0s0,0,0,0h0s0,0,0,0c0,0,0,0,0,0,0,0,0,0,0,0,0,0,0,0,0,0,0,0,0,0,0,0,0,0,0,0,0,0,0,0,0,0,0,0,0,0,0,0,0,0,0,0,0,0,0,0,0,0,0,0,0,0,0,0,0,0,0,0,0,0,0,0,0,0,0,0,0,0,0,0,0,0,0,0,0,0,0,0,0,0,0,0,0,0,0,0,0,0,0,0,0,0,0,0,0,0,0,0,0,0,0,0,0,0,0,0,0,0,0,0,0,0,0,0,0,0,0,0,0,0,0,0,0,0,0,0,0,0,0,0,0,0,0,0,0,0,0,0,0,0,0,0,0,0,0,0,0,0,0,0,0,0,0,0,0,0,0,0,0,0,0,0,0,0,0,0h0s0,0,0,0c0,0,0,0,0,0,0,0,0,0,0,0h0s0,0,0,0h0s0,0,0,0h0s0,0,0,0h0s0,0,0,0h0s0,0,0,0h0s0,0,0,0h0s0,0,0,0h0c.7.7,1.4,1.3,2.1,2l6.9-6.9c-1.4-1.4-2.8-2.7-4.2-4h0ZM214.5,28.7l-6.1,7.6c1.2,1,2.4,2,3.6,3h0s0,0,0,0h0s0,0,0,0c0,0,0,0,0,0,0,0,0,0,0,0,0,0,0,0,0,0,0,0,0,0,0,0,.1,0,.2.2.3.3l6.4-7.3c-1.5-1.3-3-2.5-4.5-3.7h0ZM207,23.2l-5.5,8c.8.6,1.7,1.2,2.5,1.7h0s0,0,0,0h0s0,0,0,0h0s0,0,0,0h0s0,0,0,0h0s0,0,0,0h0s0,0,0,0c0,0,0,0,0,0,0,0,0,0,0,0,0,0,0,0,0,0,0,0,0,0,0,0,0,0,0,0,0,0,0,0,0,0,0,0,0,0,0,0,0,0,0,0,0,0,0,0,0,0,0,0,0,0,0,0,0,0,0,0,0,0,0,0,0,0,0,0,0,0,0,0,0,0,0,0,0,0,0,0,0,0,0,0,0,0,0,0,0,0,0,0,0,0,0,0,0,0,0,0,0,0,0,0,0,0,0,0s0,0,0,0c0,0,0,0,0,0,0,0,0,0,0,0,0,0,0,0,0,0,0,0,0,0,0,0,0,0,0,0,0,0,0,0,0,0,0,0,0,0,0,0,0,0,0,0,0,0,0,0,0,0,0,0,0,0,0,0,0,0,0,0h0s0,0,0,0c0,0,0,0,0,0,0,0,0,0,0,0,0,0,0,0,0,0h0s0,0,0,0h0s0,0,0,0h0c0,0,0,.1.1.1l5.9-7.8c-1.5-1.2-3.1-2.3-4.7-3.4h0ZM199.1,18.2l-4.9,8.4h0s0,0,0,0h0c0,0,.1,0,.2.1h0s0,0,0,0h0s0,0,0,0h0s0,0,0,0h0c0,0,.1,0,.2.1h0s0,0,0,0h0s0,0,0,0h0s0,0,0,0h0c0,0,.1,0,.2.1h0c0,0,.1,0,.1,0h0c1.1.7,2.2,1.4,3.3,2.1l5.3-8.1c-1.6-1-3.3-2.1-4.9-3.1h0ZM190.9,13.7l-4.3,8.7c1.6.8,3.2,1.6,4.8,2.5l4.7-8.5c-1.7-.9-3.4-1.9-5.2-2.7h0ZM182.4,9.9l-3.7,9c.6.2,1.2.5,1.7.7h0s0,0,0,0h0s0,0,0,0h0s0,0,0,0c0,0,0,0,0,0,0,0,0,0,0,0,0,0,0,0,0,0h0s0,0,0,0h0s0,0,0,0c0,0,0,0,0,0,0,0,0,0,0,0h0s0,0,0,0h0s0,0,0,0h0s0,0,0,0h0c0,0,.1,0,.2.1h0c.7.3,1.4.6,2.1,1l4.1-8.8c-1.8-.8-3.6-1.6-5.3-2.3h0ZM173.7,6.6l-3.1,9.2c.2,0,.4.1.7.2h0s0,0,0,0c0,0,0,0,0,0,0,0,0,0,0,0,0,0,0,0,0,0,0,0,0,0,0,0,0,0,0,0,0,0,0,0,0,0,0,0,0,0,0,0,0,0h0s0,0,0,0h0s0,0,0,0h0s0,0,0,0h0s0,0,0,0h0s0,0,0,0h0s0,0,0,0h0c0,0,.1,0,.1,0h0s0,0,0,0h0s0,0,0,0h0c1.1.4,2.2.8,3.2,1.2l3.4-9.1c-1.8-.7-3.7-1.3-5.5-1.9h0ZM164.8,4l-2.4,9.4c1.1.3,2.3.6,3.4.9h0c.6.2,1.2.4,1.8.5l2.8-9.3c-1.9-.6-3.7-1.1-5.6-1.6h0ZM155.6,2.1l-1.7,9.6c.2,0,.5,0,.7.1h.1c1.5.3,3,.6,4.4.9l2.1-9.5c-1.9-.4-3.8-.8-5.7-1.2h0ZM146.4.8l-1,9.7c.4,0,.9.1,1.3.1h0s0,0,.1,0h.9s0,0,.1,0h.2c.9.1,1.8.2,2.7.4l1.5-9.6c-1.9-.3-3.9-.5-5.8-.8h0v.2ZM137.1,0l-.4,9.7h.1c1.8,0,3.5.2,5.3.3l.8-9.7c-1.9-.2-3.9-.3-5.8-.3h0ZM132.2,0v9.7h1.3V0h-1.3,0Z"/>
        <circle class="cls-69" cx="132.2" cy="132.2" r="122.5"/>
        <circle class="cls-4" cx="132.2" cy="132.2" r="122.5"/>
      </g>
      <g>
        <path class="cls-3" d="M118,221.8c0,.1-.2.2-.2.3,0-.1.1-.2.2-.3Z"/>
        <path class="cls-3" d="M118,221.8c0,.1-.2.2-.2.3,0-.1.1-.2.2-.3Z"/>
        <g>
          <path class="cls-58" d="M60.3,189.9c-.2,2.1-.4,4.3-.6,6.4,0,0-2.5,1.3-2.8,2-.3.6-3.3,3.3-5.6,3.6-.2,0-.4,0-.6,0-2.4-.1-3.9-1.8-3.6-2.6.3-.8,1.6-1.4,1.6-1.4,1.4-1.1,3.4-3.2,4.8-6.3.6-1.4,1-2.6,1.2-3.7.3.1.6.2.8.3,1.6.6,3.1,1.1,4.7,1.7h0Z"/>
          <path class="cls-48" d="M55.6,188.2c-.2,1.7-.9,6.8-2.8,8.3-1.8,1.5-2.6,3.8-1.5,5.4-.2,0-.4,0-.6,0-2.4-.1-3.9-1.8-3.6-2.6.3-.8,1.6-1.4,1.6-1.4,1.4-1.1,3.4-3.2,4.8-6.3.6-1.4,1-2.6,1.2-3.7.3.1.6.2.8.3h0Z"/>
          <path class="cls-58" d="M70.1,192.4c0,.6,0,1.4,0,2.4-.2,1.8-.5,4.4-1.9,5.7h0c-.2.2-.4.4-.7.5-1.4.7-3,.2-4.2-.3,0,0-.2,0-.3-.1-1-.4-2.8-1.1-2.8-2.2s1.1-1.8,2.7-2.2c.5-.6,1.1-1.5,1.5-2.7.9-2.6.5-5,.2-6l-.4-.6s.6-.8,1.4-1.7c1-1.1,2.3-2.2,2.9-1.7,1.1.9,1.8,1.2,1.8,1.2,7.6.6-.5,6.7-.2,7.7h0Z"/>
          <path class="cls-48" d="M68.1,200.4h0c-.2.2-.4.4-.7.5-1.4.7-3,.2-4.2-.3,0,0-.2,0-.3-.1-1-.4-2.8-1.1-2.8-2.2s1.1-1.8,2.7-2.2c.5-.6,1.1-1.5,1.5-2.7.9-2.6.5-5,.2-6l-.4-.6s.6-.8,1.4-1.7c.5,1.6,1.2,4.8,1,6.4-.3,3.2-3.8,4.2-3.4,6,.2.9,1.1,2,5.1,2.9h0Z"/>
          <polygon class="cls-5" points="73.6 132.2 65.4 169.7 60.3 192.7 53.4 191 57.6 135.4 64.2 134.1 73.6 132.2"/>
          <path class="cls-34" d="M65.4,169.7l-5,23-7-1.7,4.1-53.7c1.4-.4,3.4-.6,5.1.4,2.8,1.7,2.8,6.9,2.9,17.2,0,6.9,0,12.2,0,14.8h0Z"/>
          <path class="cls-14" d="M65.6,186.9c-.7,0-2.8,2.3-2.8,2.3l-4.9-8.2-9.6-15.9c-.3-.5-.5-1.2-.4-1.8l.3-2.9,3-26.5h.8s10.5-.4,10.5-.4l-2.4,27.5c0,.8,0,1.7.2,2.5.1.5.3,1,.5,1.5l8.7,18.5c.5,0-2.7,3.5-4,3.5h0Z"/>
          <path class="cls-40" d="M51.1,134.3c-.7,6.6-1.5,13.2-2.2,19.8,1.3,1.2,2.4,1.5,3.2,1.5,6.5-.3,10.1-21.1,10.4-23.3-3.8.7-7.7,1.4-11.5,2Z"/>
          <path class="cls-59" d="M57.9,181l-9.6-15.9c-.3-.5-.5-1.2-.4-1.8l.3-2.9,2.6-23.6.3-2.4v-.4c0,0,.9,0,.9,0,0,1-.2,2-.2,3-1,9-2.1,18-3.1,27,3.1,5.7,6.1,11.4,9.2,17.1Z"/>
          <path class="cls-31" d="M65.8,137c-.3.2-.8.3-1.2.5-1,.3-1.8.3-2.5.3l-9.5-.8h-1.7c0-.1.3-2.6.3-2.6h1.8c0,0,12.6.4,12.6.4l.3,2.2h0Z"/>
          <path class="cls-50" d="M43.2,102.6l-1,9.2c-.3,2.4,1,4.8,3.1,6,.9.5,1.7.7,2.3.6l4-14.7-8.4-1.1h0Z"/>
          <path class="cls-66" d="M47.8,118.3c1.9-1.4,3.6-2.8,4.9-4.4l-1.4-4.8-4.5.4,1,8.8h0Z"/>
          <path class="cls-27" d="M74.2,126.6c.4,3.7.7,6.3.7,6.3-3.6,2.2-7.1,3.4-10.6,3.9-4.8.6-9.5,0-14.2-1.5l2.2-4.9c.5-6.7.1-14.2-.7-22.2h-.8c-.3-2.5-.7-4.9-1.2-7.2-.2-.8-.3-1.6-.5-2.4-.4-1.9-.8-3.6-1.3-5.3,1.1-.6,2.1-1.2,3.2-1.8,2.6-1.5,5.1-2.9,7.7-4.4.6.3,1.1.6,1.7.8,1.6.6,3.3.8,5.6-1,2.8.4,4.9.9,5.6,1.1.5.2.9.4.9.4.4.2.8.4.9.5.8.5,1.8,1.1,2.9,1.8-.6,1.3-1.2,2.5-1.6,3.7-1.7,4.4-2.2,8.3-2.2,11.5,0,.9,0,2.5.3,5.7.4,4.8.9,10.8,1.4,15.2h0Z"/>
          <path class="cls-9" d="M74.2,126.5c.4,3.7.7,6.3.7,6.3-3.6,2.2-7.1,3.4-10.6,3.9-4.8.6-9.5,0-14.2-1.5l2.2-4.9c.5-6.7.1-14.2-.7-22.2h-.8c-.3-2.5-.7-4.9-1.2-7.2-.2-.8-.3-1.6-.5-2.4-.4-1.9-.8-3.6-1.3-5.3,1.1-.6,2.1-1.2,3.2-1.8,2.6-1.5,5.1-2.9,7.7-4.4.6.3,1.1.6,1.7.8,1.6.6,3.3.8,5.6-1,2.8.4,4.9.9,5.6,1.1.5.2.9.4.9.4.4.2.8.4.9.5.8.5,1.8,1.1,2.9,1.8-.6,1.3-1.2,2.5-1.6,3.7-1.7,4.4-2.2,8.3-2.2,11.5,0,.9,0,2.5.3,5.7.4,4.8.9,10.8,1.4,15.2h0Z"/>
          <path class="cls-50" d="M52.2,130.3l-2.2,4.9c-.3,0-.6-.2-.9-.3.7-1.6,1.5-3.1,2.2-4.7.3-4.8.4-10.3-.1-16.4,0-1.1-.2-2.2-.3-3.3,0-.8-.2-1.7-.3-2.5h.8c.8,8,1.2,15.5.7,22.2h0Z"/>
          <path class="cls-24" d="M78.4,132c-2.6.2-5.1.4-7.7.6-.4-2.6-.7-5.1-1.1-7.7-3.6-2.6-7.2-5.3-10.9-7.9-1.7-2.3-3.4-4.7-5.1-7,1.2-1.7,2.4-3.5,3.6-5.2,4.3,2.2,8.5,4.5,12.8,6.7h2.7c1.9,6.8,3.7,13.7,5.6,20.5h0Z"/>
          <path class="cls-50" d="M60.4,87.7l-11.3,10.7c-.4-1.9-.8-3.6-1.3-5.3,3.6-2.1,7.3-4.2,10.9-6.3.6.3,1.1.6,1.7.8Z"/>
          <path class="cls-68" d="M68.9,117.7s.4,6,.8,6.3c.4.3,1,.5,1,.5,1.1-4.7,1.7-9.2.1-12.7l-1.9,2.5s0,3.4,0,3.4Z"/>
          <path class="cls-60" d="M58.8,114.5c1.3.2,2.7.4,4,.6.3,0,.5.2.7.4,1.4,1.5,7.3,8.1,8.6,8.3,1.5.2,5.5-7.9,5.5-7.9l-14.4-7-1.6.7-2.7,3.2c0,.6,0,1.2,0,1.8h0Z"/>
          <path class="cls-64" d="M72.2,88.5c-.5.5-1,.9-1.2,1.1-.1.1-.3.2-.3.2-.3.2-.6.4-1,.6-.7.4-3.9,2.1-7.7,1.5-.6,0-1.3-.3-1.9-.5-1.9-.8-3.3-2-4.1-3,.9-.5,1.8-1.1,2.8-1.6,1.8-2.6,3.6-5.2,5.5-7.8,0,0,0,.2.1.3.8,2,1.5,4,2.3,6,.2.4.4.7.8.9,1.6.8,3.2,1.5,4.8,2.3h0Z"/>
          <path class="cls-62" d="M72.2,88.6c-.2.2-.3.3-.5.5-.2.2-.5.4-.7.6l-.3.2c-.3.2-.6.4-1,.6-.2.1-.7.4-1.4.7-1.4.6-3.7,1.2-6.2.8-1.1-1.7-2.2-3.4-3.3-5.1,1.8-2.5,3.7-5,5.6-7.4h0c.8,2,1.5,4,2.3,6,.2.4.4.7.8.9,1.4.7,2.8,1.3,4.2,2,.2,0,.4.2.6.3h0Z"/>
          <path class="cls-60" d="M64.5,72.2l-.3,10.4c0,.1,0,.2,0,.3,0,0-1.9,3-3.7,3.9-.3.2-.7.3-1.1.2-.2,0-.4-.2-.7-.2-.9-.3-1.7-.8-2.6-1.4,0,0-.1-.1-.2-.2l-1.8-3.2-2.8-7.9c-.1-.4,0-.8.4-1l2.9-1.8,3.3-2.1c.2-.2.6-.2.8,0l5.2,2.3c.3.1.5.5.5.8h0Z"/>
          <path class="cls-64" d="M58.7,86.7c-.9-.3-1.7-.8-2.6-1.4,0,0-.1-.1-.2-.2l-1.8-3.2-2.8-7.9c-.1-.4,0-.8.4-1l2.9-1.8c.2,3.6,1,11.9,4,15.5h0Z"/>
          <path class="cls-1" d="M67.1,82.5c.2.8-.2,1.7-.9,2h0l-2.2-5.9c0,.4-.2.7-.2,1.1-.3-1-.5-1.5-.5-1.6h0c0-.5,0-1.9-.7-3.4-.5-.9-1.6-2.8-3.5-2.9-1.8-.1-3.1,1.4-3.3,1.6-.2,0-1.4-.8-2.1-.3-.3.2-.4.6-.6,1.4-.1.8-.2,2-.2,3.4.4,1.2.9,2.5,1.3,3.7-.8,0-2.3,0-4-.9-.6-.3-1-.6-1.4-.9-.9-.7-1.6-1.5-1.9-1.9,3.5-1.5,3.5-14.1,13.1-11.3.3,0,1.7,0,3.4.7,1.1.5,2.3,1.2,3.2,2.5,1.9,2.6,2.1,6.3.3,9.2,0,.8,0,1.7.3,2.8,0,.2,0,.3,0,.4h0Z"/>
          <path class="cls-53" d="M63.2,67.5c-3.9,0-9,.6-10,3.8-1.2,4.1-3.6,7.3-4.6,8.6-.9-.7-1.6-1.5-1.9-1.9,3.5-1.5,3.5-14.1,13.1-11.3.3,0,1.7,0,3.4.7h0Z"/>
          <path class="cls-60" d="M63.9,77.9c-.2,1.1.4,2.2,1.3,2.3.9.1,1.8-.7,1.9-1.8.2-1.1-.4-2.2-1.3-2.3-.9-.1-1.8.7-1.9,1.8Z"/>
          <path class="cls-62" d="M65.9,77.1c-.1,0-.3,0-.4.1-.1,0-.2.2-.3.3-.2.2-.2.5-.3.8h0s0,0,0,0c0,0,0,0,0,0,0-.2,0-.3.1-.5,0-.1.1-.3.2-.4,0-.1.2-.2.4-.3.1,0,.3-.1.4-.1s0,0,0,0,0,0,0,0h0Z"/>
          <path class="cls-30" d="M53.4,93.1c-1.5-3.7-5.1-5.5-9.4-6.7l-.3,1.7,9.7,5h0Z"/>
          <path class="cls-62" d="M64.8,78.2c-.2.3,0,.7.2.8.3.1.6,0,.8-.4.2-.3,0-.7-.2-.8-.3-.1-.6,0-.8.4Z"/>
          <path class="cls-17" d="M53.4,93.1c-2.2-2.7-5.9-4.4-10.8-5.3l-.3,1.5,11.1,3.8Z"/>
          <path class="cls-23" d="M45.5,109.5c-2.4,2.5-2.9,5.6-1.6,7.4.9,1.2,2.8,2,4.1,1.4,1.3-.6,1.7-2.2,2-3.8.3-1.2.3-2.1.2-2.8-1.6-.7-3.2-1.4-4.8-2.1h0Z"/>
          <path class="cls-29" d="M53.4,93.1c-.7,5.2-.8,11.3-.5,18,5.2-.4,9.9-1.4,13.2-3.9v-18.8c-4.2.8-8.3,2.6-12.8,4.8h0Z"/>
          <path class="cls-44" d="M53.4,93.1c-3.5-1.9-7.6-3.2-12.1-4l.4,18.1,11.2,3.9c-.3-6.8-.2-13,.5-18Z"/>
          <path class="cls-30" d="M53.4,93.1c3.2-4.4,6.2-5.5,9.1-6.4l.6,1.8-9.7,4.6h0Z"/>
          <path class="cls-17" d="M53.4,93.1c1-1.6,4.7-3.6,11-6v1.6l-11,4.4Z"/>
          <path class="cls-60" d="M49.1,104.2c-1.1,1.6-2.2,3.2-3.3,4.8-.3-.2-.5-.5-.8-.8h0c-.1-.2-.2-.3-.4-.4l.2-.3,3.5-4.1c.1-.2.4-.3.6-.2,0,0,0,0,0,0,0,0,.2,0,.2.2.2.2.2.6,0,.8Z"/>
          <path class="cls-60" d="M46.8,110.8c-.5-.5-.9-1-1.4-1.5l4.2-4.5c.2-.2.4-.2.7-.2.1,0,.2.1.3.3.2.3.2.7,0,.9-1.3,1.7-2.5,3.3-3.8,5h0Z"/>
          <path class="cls-60" d="M49,111.4c-.4-.4-.8-.8-1.2-1.2l3-3.2c.1-.1.3-.2.5,0,.1,0,.2.1.3.2.2.2.2.5,0,.7-.9,1.2-1.8,2.4-2.7,3.6Z"/>
          <path class="cls-60" d="M51.5,110.6c-.4.8-1.2,1.5-2.1,2.1-.3.2-.6.2-.8,0l-.8-.2c0,0-.2,0-.2,0h-.8c-.3,0-.5-.2-.7-.5l-.5-.9c0-.1-.2-.3-.3-.4l-1.1-.9h0c-.4-.3-.7-.9-.6-1.4l.7-4.5c0-.1.1-.3.2-.3l3.4-1.4c.1,0,.2,0,.3,0,0,0,0,0,0,0,0,0,0,.2,0,.3s0,.2-.2.2l-1.7,1.3c-.3.3-.6.7-.6,1.1l-.2,1.8v1.4c0,0,5.9,2.1,5.9,2.1h0Z"/>
          <path class="cls-24" d="M75.1,89.9s8,2.3,8.1,21.2c0,18.9-9.4,12-9.4,12-.6-3.4-1.1-7.2-1.3-11.4-.4-7-.1-13.2.5-18.6.7-1.1,1.4-2.2,2.1-3.3Z"/>
          <path class="cls-60" d="M62.8,109.1l-.2,1.5c-.2,1.5-1.9,3.8-1.9,3.8h-1.6c-.1.1-.2.1-.3.1-.4,0-.7-.2-.9-.6l-1.4-2c-.3-.4-.5-.8-.7-1.3-.2-.6-.3-1.2-.4-1.8,0-.1,0-.3.2-.3.1,0,.2,0,.4,0l-.3-1.6c0,0,0-.2,0-.3,0,0,0-.1.2-.2s.2,0,.2,0l.4.5.2.3v-1.4c-.1-.2,0-.5,0-.6,0,0,.1,0,.2-.1.1,0,.3,0,.4.1l.8,1.3c0-.4.2-.7.3-.9.2-.2.4-.2.6,0l2.6,3.7,1.1-.4h0Z"/>
          <path class="cls-64" d="M58.8,114.5c-.4,0-.7-.2-.9-.6l-1.4-2c-.3-.4-.5-.8-.7-1.3-.2-.6-.3-1.2-.4-1.8,0-.1,0-.3.2-.3.1,0,.2,0,.4,0l-.3-1.6c0,0,0-.2,0-.3,0,0,0-.1.2-.2s.2,0,.2,0l.4.5c.4,2.1,1.1,5.5,2.3,7.4h0Z"/>
          <path class="cls-13" d="M54.2,80s.3-1.1.8-1c.6,0,1.3.6,1.3.6,0,0-.2.1-.3.2-.1,0-.3.1-.4.2-.3,0-.6.1-.9.2h-.3c0,0-.2,0-.3,0h0c0-.1,0-.1,0-.1Z"/>
          <path class="cls-1" d="M56.4,79.8c-.2-.2-.4-.3-.6-.5s-.5-.2-.7-.2-.4.1-.6.3c-.2.2-.2.4-.3.7,0,0,0,0,0,0,0,0,0,0,0,0,0-.3,0-.6.2-.8,0,0,0-.1.1-.2,0,0,.1-.1.2-.1h0c0,0,0,0,.1,0s0,0,.1,0,0,0,.1,0c.3,0,.6,0,.8.2.2.2.4.4.5.6h0s0,0,0,0h0Z"/>
          <path class="cls-1" d="M55.7,79.8c0,0,0,.2,0,.2-.3,0-.7.1-.9.2-.2-.1-.2-.3-.2-.5,0-.3.3-.6.7-.5s.6.3.5.7Z"/>
          <path class="cls-62" d="M56.6,82.3c0-.4,0-.7,0-1.1,0-.3,0-.7,0-1.1s0-.7,0-1c0-.2,0-.3,0-.5,0,0,0-.2,0-.3,0,0,0-.2,0-.3,0,0,0,.2.2.2,0,0,0,.2.1.2,0,.2.1.3.2.5,0,.4.1.7,0,1.1,0,.4,0,.7-.1,1.1s-.2.7-.3,1h0Z"/>
          <path class="cls-62" d="M58.9,83c.3,0,.5-.1.7-.2.2,0,.4-.2.6-.4.2-.2.3-.4.4-.6,0-.2.2-.5.2-.7,0,0,0,0,0,0,0,0,0,0,0,0,0,.3,0,.5,0,.8,0,.3-.2.5-.4.8,0,0,0,0-.2.2,0,0-.1,0-.2.1-.1,0-.2.1-.4.2-.3,0-.6,0-.8,0,0,0,0,0,0,0s0,0,0,0h0Z"/>
          <path class="cls-1" d="M58.7,76.8h0c0,.2.3.3.4.2,1-.4,2.2-.7,3.4-.7-.7-.5-1.7-.6-3.4-.2-.3,0-.5.4-.4.7Z"/>
          <path class="cls-1" d="M55.9,76.9h0c0,.3-.1.5-.4.6-.8.1-1.5.3-2.2.8.3-.6,1-1.1,2.4-1.5,0,0,.2,0,.2.1h0Z"/>
          <path class="cls-62" d="M56.5,82.2s0,0,0,0l2.3-.7c-.4-.5-1.1-.6-1.6-.4-.6.3-.8,1.1-.7,1.1h0Z"/>
          <path class="cls-13" d="M59.1,78.9s.3-1.2.9-1.1,1.4.7,1.4.7c0,0-.2.1-.3.2-.2,0-.3.1-.4.2-.3,0-.7.2-1,.3,0,0-.2,0-.4,0,0,0-.2,0-.3,0h0c0-.1,0-.1,0-.1Z"/>
          <path class="cls-1" d="M61.5,78.5c-.2-.2-.5-.4-.7-.5s-.5-.2-.8-.1-.5.2-.6.4c-.2.2-.2.5-.3.8,0,0,0,0,0,0,0,0,0,0,0,0,0-.3,0-.6.1-.9,0,0,0-.1.1-.2h0c0,0,0-.1,0-.2h.1c0,0,0,0,.1-.1,0,0,0,0,.1,0,0,0,0,0,.1,0,.3,0,.7,0,.9.2.3.2.5.4.6.7h0s0,0,0,0h0Z"/>
          <path class="cls-1" d="M60.7,78.5c0,0,0,.2,0,.2-.3,0-.7.2-1,.3-.2-.1-.3-.3-.3-.6,0-.4.3-.7.7-.6.4,0,.7.3.6.7h0Z"/>
          <path class="cls-64" d="M48.2,102.2l-2.7,1.4c-.5.2-.8.7-.8,1.2l-.5,4.9h0c-.4-.3-.7-.9-.6-1.4l.7-4.5c0-.1.1-.3.2-.3l3.4-1.4c.1,0,.2,0,.3,0h0Z"/>
          <path class="cls-64" d="M48.9,103.2l-3.9,5c-.1,0-.4.3-.6.7-.2.4-.2.8-.2,1,0,0-.2-.1-.2-.2-.4-.5-.1-1.2,0-1.3,1.4-1.7,2.8-3.3,4.3-5,.2,0,.4-.1.6-.2h0Z"/>
          <path class="cls-24" d="M70.9,111.8l12.3,2.2-.5,4.4c-.6,5.2-5.9,8.4-10.7,6.6l-1.7-.6c.8-4.7,1.3-9.2.6-12.6h0Z"/>
          <path class="cls-68" d="M70.9,111.9c0,0-.2,0-.2-.2s0-.2.2-.2l4-.2c0,0,.2,0,.2.2s0,.2-.2.2l-4,.2h0Z"/>
          <path class="cls-68" d="M72.9,96.1c-.5,5.2-.4,10.4,0,15.5,0,.2,0,.3-.2.3-.2,0-.3,0-.3-.2h0c-.4-5.2-.3-10.4.3-15.6,0,0,0,0,.1,0s0,0,0,.1h0Z"/>
          <path class="cls-68" d="M71.2,96.3c.2,1.3.7,2.5,1.4,3.7,0,0,0,.2,0,.2s-.2,0-.2,0h0c-.7-1.2-1.1-2.5-1.2-3.8,0,0,0,0,0,0s0,0,0,0h0Z"/>
          <path class="cls-68" d="M55,127.6c.6.6,1.3,1.2,2.1,1.7.7.5,1.5.9,2.3,1.2.1,0,.2.2.1.3,0,.1-.2.2-.3.1h0c-.8-.4-1.6-.9-2.3-1.4s-1.4-1.1-2-1.8c0,0,0-.1,0-.1s0,0,.1,0h0Z"/>
          <path class="cls-68" d="M53.1,132.6c.3.3.7.5,1,.8s.7.5,1.1.7c.7.4,1.5.8,2.3,1,0,0,.2,0,.3.1h.3c0,.1.2.1.3.2,0,0,.2,0,.3,0h.3c.1,0,.2,0,.3.1s.2,0,.3,0,.2,0,.3,0c.9,0,1.7,0,2.6,0-.8.3-1.7.4-2.6.5-.4,0-.9,0-1.3,0s-.9-.1-1.3-.3c-.9-.2-1.7-.6-2.5-1.1s-1.4-1.1-1.9-1.9c0,0,0-.1,0-.2,0,0,.1,0,.2,0h0Z"/>
          <path class="cls-68" d="M74.3,124.9h0l-4-.4c0,0-.2,0-.1-.2,0,0,0-.1.2-.1l4,.4c0,0,.2,0,.1.2,0,0,0,.1-.2.1Z"/>
          <path class="cls-62" d="M61.8,109.4c0,0,.2.2.3.2s.2.1.3.2.2,0,.3,0,.2,0,.3,0h0s0,0,0,0,0,0,0,0c-.1,0-.2,0-.4,0-.1,0-.3,0-.4,0-.1,0-.2-.1-.3-.2s-.2-.2-.3-.3c0,0,0,0,0,0,0,0,0,0,0,0h0Z"/>
          <path class="cls-62" d="M61.1,110.3c0,0-.2,0-.3.1,0,0-.2.1-.2.2s-.1.1-.2.2c0,0,0,.2-.2.3h0s0,0,0,0c0,0,0,0,0,0,0,0,0-.2.1-.3,0,0,.1-.2.2-.3,0,0,.2-.1.3-.2,0,0,.2,0,.3-.1,0,0,0,0,0,0s0,0,0,0h0Z"/>
          <path class="cls-62" d="M60.3,111.6c0,0-.2,0-.3.1,0,0-.2.1-.2.2s-.1.1-.2.2c0,0,0,.2-.2.3h0s0,0,0,0c0,0,0,0,0,0,0,0,0-.2.1-.3,0,0,.1-.2.2-.3,0,0,.2-.1.3-.2,0,0,.2,0,.3-.1,0,0,0,0,0,0s0,0,0,0h0Z"/>
          <path class="cls-62" d="M59.2,112.9c0,0-.2,0-.3.1,0,0-.2.1-.2.2s-.1.1-.2.2c0,0,0,.2-.2.3h0s0,0,0,0c0,0,0,0,0,0,0,0,0-.2.1-.3,0,0,.1-.2.2-.3,0,0,.2-.1.3-.2,0,0,.2,0,.3-.1,0,0,0,0,0,0s0,0,0,0h0Z"/>
          <path class="cls-62" d="M58.2,106.6c.2.3.3.7.5,1,.2.3.3.7.6,1,.4.7.8,1.3,1.3,1.8,0,0,0,0,0,0s0,0,0,0c-.6-.5-1.1-1.1-1.5-1.8-.4-.7-.7-1.4-.9-2.1,0,0,0,0,0,0,0,0,0,0,0,0h0Z"/>
          <path class="cls-62" d="M56.6,107.2c.1.5.3.9.5,1.3.2.4.4.8.7,1.2.3.4.6.8.9,1.1s.7.7,1.1.9c0,0,0,0,0,0,0,0,0,0,0,0-.2-.1-.4-.2-.6-.4-.2-.1-.4-.3-.6-.5-.4-.3-.7-.7-1-1.1-.1-.2-.3-.4-.4-.6-.1-.2-.2-.4-.3-.7-.2-.4-.3-.9-.4-1.4,0,0,0,0,0,0s0,0,0,0h0Z"/>
          <path class="cls-62" d="M55.9,108.4c.2.4.3.8.5,1.3.2.4.4.8.6,1.2.2.4.5.8.7,1.2.3.4.6.7.8,1.1,0,0,0,0,0,0s0,0,0,0c-.3-.3-.7-.7-.9-1-.3-.4-.6-.7-.8-1.1-.5-.8-.8-1.7-1.1-2.6,0,0,0,0,0,0,0,0,0,0,0,0h0Z"/>
          <path class="cls-24" d="M76.3,90.5c-.6,1.3-1.2,2.5-1.6,3.7-.5,0-1.1.1-1.8,0-3-.4-4.5-2.7-4.7-3,.7-.3,1.2-.6,1.4-.7.3-.2.7-.4,1-.6l.3-.2c.2-.2.5-.4.7-.6.2-.2.4-.3.5-.5,0,0-.3-.1-.3-.1-.8-.4-1.6-.8-2.4-1.2.5,0,1.1.2,1.9.5,0,0,.6.2,1.2.4,1.6.7,3.3,1.9,3.8,2.3h0Z"/>
        </g>
        <g>
          <path class="cls-26" d="M130.7,112.5s1.1-.9.5-2.2c-.6-1.2-1.9-6.1-1.9-6.1h-3.2s0,.9,0,1.1,0,1.8,0,1.9c0,.1,2.4,3.9,2.4,3.9l1.8,1.3h.3c0,0,0,0,0,0Z"/>
          <path class="cls-62" d="M139.6,99.1c-.2,3-2.8,6.2-6.5,9.3l-.4.4-2.6,3.1c-1-1.1-2.1-3-3.2-5.2,0,0,1.3-.1,2.2-.7.9-.6.6-4.2.6-4.2,0,0,2.7-5.1,3.1-6s4.3-1.5,4.3-1.5l.6,1.2,1.8,3.6h0Z"/>
          <path class="cls-6" d="M131.9,99.2c.8-.4,1.5-.8,2.3-1.3.2-.1.6,0,.7.2v.2c0,.4-.2.9-.6,1.5-.7,1.1-1.5,1.7-2.1,2,0,1.1.2,2.2.2,3.3-.6,0-1.6,0-2.8,0,.3-1.3.1-3.3.1-3.3,0,0,2.7-5.1,3.1-6s4.3-1.5,4.3-1.5l.6,1.2c-.1,0-.2,0-.4.2-1.6.6-2.5.6-3.1.8-.7.2-1.6.9-2.4,2.7h0Z"/>
          <path class="cls-42" d="M127.6,106c.5,2.5,1.4,4.7,3.2,6.5-.5.5-1.5,1.3-3,1.7-3.2.9-5.8-.9-6.2-1.2l.2-6.7,5.8-.4h0Z"/>
          <path class="cls-18" d="M123.2,85.9l1,.5c1.8,1.7,2.5,9.7,4.4,18.6l-7.2,2.6-.7-11.8s2.5-9.9,2.5-9.9Z"/>
          <path class="cls-64" d="M113.7,81.8l-.3,5.2s-3,3.9-6.9,3.1c-.1,0-.2,0-.4,0-3.6-1-3.6-6.5-3.6-6.5,1.4-1.2,2.4-3.6,3.3-6.4l1.1-1.7,3,2.8,3.8,3.5Z"/>
          <path class="cls-60" d="M113.4,85.4v1.6c-.1,0-3.1,3.9-7,3.1-.1,0-.2,0-.4,0-.9-3.9-.1-8.7,1.1-13.8l2.8,2,1.2,1.1h0l2.4,6h0Z"/>
          <path class="cls-62" d="M113.7,81.9l-.4,3.4c-1-.9-2.1-1.9-3.1-2.8,1.2-.2,2.3-.4,3.5-.6Z"/>
          <path class="cls-18" d="M125.7,130c-9.3,0-18.7.1-28,.2h-1.4c1.8-5.3,2.7-9.8,3.1-13.8.3-3.3.3-6.2.2-8.8-.1-1.8-.3-3.5-.5-5-.2-1.5-.4-2.8-.6-4-.5-3.4-1.3-9.7-1.7-11.8,0-.5,0-.7,0-.7.4-.2.8-.4,1.2-.6.7-.3,1.4-.6,2.1-1,.9-.4,1.8-.8,2.8-1.3.1.2.2.4.4.5,2,2.7,5.3,3.7,7.6,2.6,2.1-1,2.8-3.2,2.9-3.7,3.4.7,6.8,1.8,10.1,3.5-.3,2.9-.7,7-.7,11.9v.5c0,1.1,0,1.9,0,2.1,0,1.4,0,11.5.1,14.2,0,3.6.6,8.7,2.5,15.2h0Z"/>
          <g>
            <g>
              <path class="cls-21" d="M99.2,126.1v31.3c0,0,0,2.9,0,2.9,0,2.8,2.4,5,5.1,5s4.9-2,5.1-4.6h0c1.3-8.2,2.8-23.9,3.6-33.9.4-4.2-3.1-7.7-7.2-7.5-.3,0-.6,0-.8,0-3.3.6-5.7,3.4-5.7,6.8Z"/>
              <path class="cls-59" d="M99.2,126.1v31.3c0,0,5.7-38.1,5.7-38.1-3.3.6-5.7,3.4-5.7,6.8h0Z"/>
            </g>
            <path class="cls-58" d="M108.5,191.6c-.2,2.4-.4,4.8-.6,7.2,0,0-2.8,1.5-3.1,2.2-.3.7-3.7,3.7-6.3,4-.2,0-.4,0-.6,0-2.7-.1-4.4-2-4.1-2.9.3-.9,1.8-1.6,1.8-1.6,1.6-1.3,3.8-3.6,5.4-7.1.7-1.5,1.1-2.9,1.4-4.1.3.1.6.2.9.3,1.8.6,3.5,1.3,5.3,1.9Z"/>
            <path class="cls-48" d="M103.2,189.7c-.2,1.9-1,7.6-3.1,9.3-2,1.7-2.9,4.2-1.7,6-.2,0-.4,0-.6,0-2.7-.1-4.4-2-4.1-2.9.3-.9,1.8-1.6,1.8-1.6,1.6-1.3,3.8-3.6,5.4-7.1.7-1.5,1.1-2.9,1.4-4.1.3.1.6.2.9.3Z"/>
            <g>
              <path class="cls-21" d="M99.1,159.4c0,.5,0,1.1,0,1.6-.1,11.3.3,22.3,1.4,32.6h8.3c.6-11.7.9-25,.9-34.5,0-3.1-2.7-5.5-5.7-5.2-2.7.2-4.8,2.5-4.8,5.2v.3h0Z"/>
              <path class="cls-59" d="M99.1,161c-.1,11.3.3,22.3,1.4,32.6h2.5c-1.7-2.4-3.9-32.7-3.9-32.7,0,0,0,0,0,0h0Z"/>
            </g>
          </g>
          <g>
            <g>
              <path class="cls-21" d="M123.5,125.7v31.3c0,0,0,2.9,0,2.9,0,2.8-2.4,5-5.1,5s-4.9-2-5.1-4.6h0c-1.3-8.2-2.8-23.9-3.6-33.9-.4-4.2,3.1-7.7,7.2-7.5.3,0,.6,0,.8,0,3.3.6,5.7,3.4,5.7,6.8h0Z"/>
              <path class="cls-59" d="M123.5,125.7v31.3c0,0-5.7-38.1-5.7-38.1,3.3.6,5.7,3.4,5.7,6.8h0Z"/>
            </g>
            <path class="cls-58" d="M114.3,191.2c.2,2.4.4,4.8.6,7.2,0,0,2.8,1.5,3.1,2.2.3.7,3.7,3.7,6.3,4,.2,0,.4,0,.6,0,2.7-.1,4.4-2,4.1-2.9-.3-.9-1.8-1.6-1.8-1.6-1.6-1.3-3.8-3.6-5.4-7.1-.7-1.5-1.1-2.9-1.4-4.1-.3.1-.6.2-.9.3-1.8.6-3.5,1.3-5.3,1.9h0Z"/>
            <path class="cls-48" d="M119.5,189.3c.2,1.9,1,7.6,3.1,9.3,2,1.7,2.9,4.2,1.7,6,.2,0,.4,0,.6,0,2.7-.1,4.4-2,4.1-2.9-.3-.9-1.8-1.6-1.8-1.6-1.6-1.3-3.8-3.6-5.4-7.1-.7-1.5-1.1-2.9-1.4-4.1-.3.1-.6.2-.9.3h0Z"/>
            <g>
              <path class="cls-21" d="M123.6,159c0,.5,0,1.1,0,1.6.1,11.3-.3,22.3-1.4,32.6h-8.3c-.6-11.7-.9-25-.9-34.5,0-3.1,2.7-5.5,5.7-5.2,2.7.2,4.8,2.5,4.8,5.2v.3h0Z"/>
              <path class="cls-59" d="M123.6,160.6c.1,11.3-.3,22.3-1.4,32.6h-2.5c1.7-2.4,3.9-32.7,3.9-32.7,0,0,0,0,0,0h0Z"/>
            </g>
          </g>
          <path class="cls-42" d="M125.7,130c-19.4,5.2-27.4,2.2-28,.2,0,0-.2,0-.2,0-1,0-.2,0-1.5,0,.7-10.3,1.4-20.7,2.1-31,.3.7.6,1.4,1,2,2.8,5.2,7.9,8.5,13.4,8.7,5.9.2,9.9-3.4,10.9-4.3-.1,2.4-.2,5.1,0,7.9.3,6.3,1.3,11.9,2.5,16.5h0Z"/>
          <path class="cls-25" d="M98.6,107.6c-.1,2.7-.3,5.9-.5,8.6-.2,4.7-.5,9.3-.8,14-1,0-.2,0-1.5,0,.5-7.6,1-15.1,1.5-22.7.4,0,.8,0,1.2.1h0Z"/>
          <g>
            <path class="cls-65" d="M117.9,125.9c-2.7-.8-4.6-.5-5.8,0,1.2-.8,3.4-1.5,5.8,0Z"/>
            <path class="cls-65" d="M104,128.4c.8-1.9,2.1-2.9,4.1-2.7-1.2.3-2.8.9-4.1,2.7Z"/>
          </g>
          <path class="cls-60" d="M119.8,71.3l-2.9,7.9-1.8,3.1c0,0-.1.1-.2.2-.9.6-1.8,1-2.8,1.4-.2,0-.4.1-.5.2-.4.1-.8,0-1.1-.2-1.8-1-3.5-3.9-3.6-4,0,0,0-.2,0-.3v-10.4c0-.3.1-.7.5-.8l4.9-2.1h.3c.3-.2.6-.2.8,0l6.1,4.1c.3.2.5.7.3,1h0Z"/>
          <path class="cls-64" d="M109.3,76.3c0,3.4.8,6.2,1.5,7.7,0,0-.1,0-.3-.1-.6-.3-2.7-1.8-3.6-4,0,0,0-.2,0-.3v-10.4c0-.3.1-.7.5-.8l4.9-2.1c-1,1.5-2.9,5.1-3,10h0Z"/>
          <path class="cls-59" d="M114.8,76.9c.2,0,.4.2.6.2.3,0,.6.1.8.2.2,0,.4,0,.5,0,0-.4-.2-.8-.5-1-.5-.2-1.2,0-1.5.6h0Z"/>
          <path class="cls-7" d="M114.7,76.9c.1-.2.3-.4.5-.6s.5-.2.8-.2c0,0,.1,0,.2,0,0,0,0,0,.1,0h0c0,0,.1.1.2.2,0,0,0,.1.1.2.1.2.2.5.1.8,0,0,0,0,0,0,0,0,0,0,0,0,0-.2-.1-.5-.2-.7-.1-.2-.3-.3-.5-.3-.2,0-.4,0-.6.1-.2,0-.4.3-.6.4h0s0,0,0,0Z"/>
          <path class="cls-7" d="M115.4,76.9c0,0,0,.1,0,.2.3,0,.6.2.8.2.1-.1.2-.3.2-.5,0-.3-.3-.5-.6-.5-.3,0-.5.3-.5.6h0Z"/>
          <path class="cls-62" d="M114.5,79.3c-.1-.3-.2-.5-.2-.8,0-.3,0-.6,0-.9,0-.3,0-.6.2-.8,0-.3.2-.5.4-.8,0,.3-.1.6-.2.8,0,.3-.1.5-.1.8,0,.3,0,.5,0,.8s0,.6,0,.8h0Z"/>
          <path class="cls-62" d="M112.7,80.1c-.2.1-.5.2-.8.2-.1,0-.3,0-.4,0,0,0-.1,0-.2,0s-.1,0-.2,0c-.2-.2-.4-.4-.6-.6-.1-.2-.2-.5-.3-.8,0,0,0,0,0,0h0c.1.2.3.5.4.6.2.2.3.4.5.5.2.1.4.2.7.2.2,0,.5,0,.8,0h0s0,0,0,0,0,0,0,0h0Z"/>
          <path class="cls-7" d="M113.7,74.3h0c0,.2-.2.3-.4.2-1-.2-2-.3-3.1-.2.5-.5,1.5-.8,3-.7.3,0,.5.3.5.6h0Z"/>
          <path class="cls-7" d="M115.2,74.3h0c0,.3.1.5.4.6.8.1,1.5.4,2.2.8-.3-.6-1-1.1-2.4-1.5-.1,0-.2,0-.2.1h0Z"/>
          <path class="cls-62" d="M114.6,79.5s0,0,0,0l-2.1-.8c.6-.5,1.3-.6,1.7-.3.4.3.5,1,.5,1h0Z"/>
          <path class="cls-59" d="M110.1,75.6l.7.4,1,.3h.6s0-1.1-.6-1.2c-.6-.2-1.3,0-1.7.6h0Z"/>
          <path class="cls-7" d="M110.1,75.7c.2-.2.4-.5.6-.6.3-.2.6-.2.9-.2,0,0,0,0,.1,0,0,0,0,0,.1,0,0,0,0,0,.1,0h.1c0,0,0,.1.1.2h0c0,.2.1.2.1.3.1.3.2.6,0,.9,0,0,0,0,0,0,0,0,0,0,0,0,0-.3-.1-.6-.2-.8s-.4-.4-.6-.4c-.2,0-.5,0-.8.1s-.5.3-.7.5h0s0,0,0,0Z"/>
          <path class="cls-7" d="M110.8,75.7c0,0,0,.2,0,.2.3,0,.7.2,1,.3.2-.1.3-.3.3-.6,0-.4-.3-.7-.7-.7-.4,0-.7.3-.6.7h0Z"/>
          <path class="cls-7" d="M118.3,75.5l.9-2.4c-1.5-.7-2.9-2.1-4.1-3.9-.1-.2-.3-.3-.5-.4-.3,0-.6,0-.9.2-.3.3-.5.6-.5,1.1-.4-.2-.9-.4-1.3-.4-.7,0-1.3.5-1.3,1.2,0,.7,0,1.2.3,1.5l-1.2.3c-.6.9-1.1,2.4-1.5,4.2v-.2c0-1.1-.4-2.2-1.1-3-.1-.2-.2-.2-.2-.2-.2,1-.4,2.1-.7,3.1-.4,1.1-.8,2.1-1.2,3.2,0,0-.1,0-.2,0-.2,0-.4-.1-.6-.3-.3-.3-.6-.7-.5-.9.2-2.9.3-5.7,0-8.2,0-.2,0-.5,0-.7,1.2-2.4,2.5-4.2,4.2-5.1v-.4c-.1-.1,0-.2,0-.2h0c.1,0,.2,0,.1-.2l-.2-.3c0,0,0-.2.1-.2,1,.5,2,.7,2.9.6,1.8-1.2,3.3-.8,4.6.2.2.2.5.4.7.6,2.3,2.1,4.2,5.3,6.5,3.8,1,3.1-1.8,4.2-4.4,6.9h0Z"/>
          <path class="cls-56" d="M112.6,67.4s1.4.2,1.9,1.4c-.3,0-.6,0-.9.2-.3.3-.5.6-.5,1.1-.4-.2-.9-.4-1.3-.4-.7,0-1.3.5-1.3,1.2,0,.7,0,1.2.3,1.5l-1.2.3c-.6.9-1.1,2.4-1.5,4.2v-.2c0-1.1-.4-2.2-1.1-3-.1-.2-.2-.2-.2-.2-.2,1-.4,2.1-.7,3.1-.4,1.1-.8,2.1-1.2,3.2,0,0-.1,0-.2,0-.2,0-.4-.1-.6-.3-.3-.3-.6-.7-.5-.9.2-2.9.3-5.7,0-8.2,0-.2,0-.5,0-.7,1.2-2.4,2.5-4.2,4.2-5.1v-.4c-.1-.1,0-.2,0-.2h0c.1,0,.2,0,.1-.2l-.2-.3c0,0,0-.2.1-.2,1,.5,2,.7,2.9.6,1.8-1.2,3.3-.8,4.6.2.2.2.5.4.7.6-.3-.2-1.4-1-2.8-.8-.4,0-.8.2-1.1.3,0,0,2.3.3,2.9.9,0,0-1.5-.4-2.3,0,.2,0,.4,0,.6,0,.7,0,1.2.4,1.4.6-.2,0-.8-.2-1.4,0-.6.2-.9.6-1.1.8.3,0,.8,0,1.4.2.8.2,1.3.7,1.6.9-.4-.2-1-.4-1.8-.4-.4,0-.8,0-1.1,0h0Z"/>
          <ellipse class="cls-64" cx="105.7" cy="75.1" rx="1.9" ry="2.4" transform="translate(-8.1 13) rotate(-6.8)"/>
          <path class="cls-62" d="M105.3,73.9c.2,0,.4,0,.6.2.2,0,.3.2.5.4s.2.3.3.5.1.4.1.6c0,0,0,.1-.1.1s-.1,0-.1,0h0c0-.4-.2-.8-.4-1.1-.1-.2-.2-.3-.4-.4-.2,0-.3-.2-.5-.2h0s0,0,0,0,0,0,0,0h0Z"/>
          <path class="cls-62" d="M106.7,75.1c.2.4.1,1-.2,1.1s-.8,0-1.1-.5c-.2-.4-.1-1,.2-1.1s.8,0,1.1.5Z"/>
          <path class="cls-18" d="M100.5,95.3c0,1.1-.7,4-1.5,7.2-.4,1.7-.9,3.4-1.4,5-.9,3.3-1.7,5.9-1.7,5.9h-7.3c0-.8,0-1.6,0-2.4h0c0-1.2,0-2.3,0-3.4h0c.5-10.6,2.5-19.7,9.2-22.1,0,0,0,.2.2.4.6,1.5,2.5,6.9,2.5,9.4h0Z"/>
          <path class="cls-54" d="M122.9,114c-.9-6.6-1.2-13.3-.9-20,0,0,0,0,0,0s0,0,0,0c0,6.7.4,13.3,1.4,19.9,0,.2,0,.3-.3.4s-.3,0-.4-.3h0Z"/>
          <path class="cls-17" d="M133.6,105.1c-11.7-5.2-15.5-2.2-21.9,3.6l21.9-3.6h0Z"/>
          <path class="cls-17" d="M133.5,106.2c-1.6-2.1,2.4-12.5,9.4-17.3v1.6c0,0,1.3-1.2,1.3-1.2v1.3c0,0,1-.8,1-.8v1.4l.9-.2-12.5,15.1h0Z"/>
          <path class="cls-12" d="M133.6,105.1l12.5-15.1.3.7h.5l-12.7,15.7-18.7,2.3v-.8c5.7-1.4,11.8-2.2,18.1-2.8h0Z"/>
          <path class="cls-63" d="M104.8,107.5s1.2-.3,1.5.8c.2,1.1.6,4.5.4,5.3-.2.8-.4,1.9-2.1,2-1.7.1-1.9-3.8-1.9-3.8l.7-3.2,1.4-1.1h0Z"/>
          <path class="cls-60" d="M119,109.4l-4.9,4.3c-.7.6-1.6.8-2.4.7-.3,0-.7-.1-1.1-.2-1.9-.4-4.3-.8-4.5-.8s-.6.2-1,.4c-.4.2-.7.3-.7.3l-1.1-2.1,1.5-4.1c.2,0,.3,0,.5-.2,1-.3,1.9-.6,2.9-.9,1-.6,1.9-1.2,2.9-1.8.2-.1.4-.2.7-.2l4.1-.4c.3,0,.5.4.2.6-.4.3-.8.7-1.8,1-.6.2-1.3.5-2.3.9-.2,0-.4.2-.7.4-.1.1-.3.4-.3.7,0,0,0,.2.1.3.2.4,1,.4,1.2.3.1,0,.2,0,.4,0,2.2-.3,6.4-1.9,6.9-1.1.4.6-.4,1.9-.4,1.9h0Z"/>
          <path class="cls-62" d="M119,109.4l-4.9,4.3c-.7.6-1.6.8-2.4.7-.3,0-.7-.1-1.1-.2,1.3-1.7,1.8-4.3,1.9-5.5,2.2-.3,6.4-1.9,6.9-1.1.4.6-.4,1.9-.4,1.9h0Z"/>
          <path class="cls-62" d="M104.9,113.7c-.4.2-.7.3-.7.3l-1.1-2.1,1.5-4.1c.2,0,.3,0,.5-.2-.2,1.3-.5,4.3-.2,5.9h0Z"/>
          <path class="cls-43" d="M88.7,107.5v3.4c0-1.2,0-2.3,0-3.4Z"/>
          <path class="cls-43" d="M88.7,107.5v3.4c0-1.2,0-2.3,0-3.4Z"/>
          <path class="cls-36" d="M119.1,109.1c-.6.2-1.2.4-1.9.7s-1.3.4-1.9.7l-.9.3-.5.2h-.2c0,0-.1.1-.1.1h0s0,0,0,0c-.1,0-.2,0-.3,0h-.3s-.5,0-.5,0c-.3,0-.7,0-1-.2-.1,0-.2-.1-.2-.3,0-.1.1-.2.2-.2.3,0,.7,0,1,0h.5c0,0,.1,0,.1,0h0s0,0,0,0c0,0,.1,0,.2,0l1.9-.5c.6-.2,1.3-.3,1.9-.5s1.3-.3,1.9-.5c0,0,0,0,0,0s0,0,0,0h0Z"/>
          <path class="cls-36" d="M117.1,111c-.5.2-.9.4-1.4.6s-.9.4-1.4.5l-1.4.5h0s0,0-.1,0c0,0-.2,0-.2,0s-.2,0-.2,0c0,0-.1,0-.2,0-.2,0-.5,0-.8-.1-.1,0-.2-.1-.2-.3,0-.1.1-.2.2-.2.2,0,.5,0,.8,0,0,0,.1,0,.2,0,0,0,.1,0,.2,0s0,0,.1,0c0,0,0,0,0,0h0s1.5-.5,1.5-.5c.5-.2,1-.3,1.5-.4s1-.3,1.5-.4c0,0,0,0,0,0s0,0,0,0h0Z"/>
          <path class="cls-36" d="M115,112.9c-.3.1-.7.3-1,.4-.3.1-.7.3-1,.4l-.5.2h-.1c0,0,0,0-.1.1-.1,0-.2,0-.3,0,0,0,0,0,0,0h0s-.1,0-.1,0c0,0-.2,0-.2,0-.2,0-.3-.1-.5-.2,0,0,0,0,0-.1,0,0,0,0,.1,0,.2,0,.4,0,.5.1,0,0,.2,0,.2,0h.1s0,0,0,0c0,0,0,0,0,0,0,0,.1,0,.2,0,0,0,0,0,.1,0h.1s.5-.2.5-.2c.3-.1.7-.2,1-.3.3-.1.7-.2,1-.3,0,0,0,0,0,0s0,0,0,0h0Z"/>
          <path class="cls-36" d="M111.1,110c.1,0,.2.2.2.3,0,.1,0,.3,0,.4,0,.1,0,.3-.1.4,0,.1-.1.2-.2.3,0,0,0,0,0,0,0,0,0,0,0,0h0c0-.1,0-.2,0-.3s0-.2,0-.3v-.3c0-.1,0-.2,0-.4h0s0,0,0,0,0,0,0,0h0Z"/>
          <path class="cls-36" d="M111,111.8c0,0,.1.2.2.3,0,.1,0,.2,0,.3,0,.1,0,.2,0,.3s-.1.2-.2.3c0,0,0,0,0,0,0,0,0,0,0,0h0c0,0,0-.2,0-.3,0,0,0-.2,0-.3v-.3c0,0,0-.2,0-.3h0s0,0,0,0,0,0,0,0h0Z"/>
          <path class="cls-36" d="M110.8,113.1c.1.1.2.3.2.4,0,0,0,.2,0,.2,0,0,0,.1-.1.2,0,0,0,0,0,0h0c0-.2,0-.3,0-.4v-.4h0s0,0,0,0h0,0Z"/>
          <path class="cls-49" d="M133.3,104.7c.4-1.1,1-2.1,1.7-3.1.2-.2.3-.5.5-.7s.3-.5.5-.7c.4-.5.7-.9,1.1-1.4.8-.9,1.6-1.8,2.5-2.5s1.8-1.5,2.9-2.1c-.9.8-1.7,1.6-2.6,2.4s-1.6,1.7-2.4,2.6c-.4.4-.8.9-1.1,1.3-.2.2-.4.5-.5.7l-.3.3-.3.3c-.7.9-1.3,1.9-2,2.9h0Z"/>
          <path class="cls-49" d="M133.1,104.9c.3-1.1.7-2.3,1.2-3.3.1-.3.3-.5.4-.8.1-.3.3-.5.4-.8.3-.5.6-1,.9-1.5.6-1,1.4-1.9,2.1-2.8s1.6-1.7,2.6-2.5c-.8.9-1.5,1.8-2.2,2.7-.7.9-1.4,1.9-2.1,2.8-.3.5-.6,1-.9,1.5-.1.2-.3.5-.4.8l-.2.4-.2.4c-.6,1-1.1,2.1-1.6,3.2h0Z"/>
          <path class="cls-49" d="M133.3,104.7c.2-1.2.5-2.3.9-3.4.1-.3.2-.6.3-.8s.2-.6.3-.8c.2-.6.5-1.1.8-1.6.6-1.1,1.2-2.1,1.9-3,.7-1,1.5-1.9,2.3-2.7-.7,1-1.3,1.9-2,2.9-.6,1-1.2,2-1.8,3-.3.5-.5,1-.8,1.6-.1.3-.2.5-.4.8l-.2.4-.2.4c-.5,1.1-.9,2.2-1.2,3.3h0Z"/>
          <path class="cls-49" d="M120.2,106.2c.9-.5,1.9-.8,3-1.1.3,0,.5-.1.8-.2.3,0,.5-.1.8-.2.5-.1,1.1-.2,1.6-.2,1.1-.1,2.1-.2,3.2-.1s2.1.2,3.1.4c-1.1,0-2.1,0-3.1,0-1.1,0-2.1,0-3.1.2-.5,0-1,.1-1.6.2-.3,0-.5,0-.8.1-.3,0-.5,0-.8.2-1,.2-2,.5-3.1.8h0Z"/>
          <path class="cls-49" d="M120.4,103.9c1-.3,2.1-.4,3.1-.5.3,0,.5,0,.8,0,.3,0,.5,0,.8,0,.5,0,1.1,0,1.6,0,1.1,0,2.1.2,3.1.5s2.1.6,3,1c-1-.2-2.1-.4-3.1-.6-1-.2-2.1-.3-3.1-.4-.5,0-1,0-1.6,0-.3,0-.5,0-.8,0h-.8c-1.1,0-2.1,0-3.1.2h0Z"/>
          <path class="cls-54" d="M97.3,107.4c.4-1.1.9-2.2,1.2-3.3.3-1.1.6-2.3.8-3.4.2-1.2.4-2.3.4-3.5,0-1.2,0-2.4,0-3.6,0,0,0,0,0,0s0,0,0,0c0,1.2.1,2.4,0,3.6,0,1.2-.2,2.4-.3,3.6s-.4,2.4-.7,3.5c-.3,1.2-.7,2.3-1.1,3.4,0,.2-.2.2-.4.2s-.2-.2-.2-.4h0Z"/>
          <path class="cls-54" d="M99.1,101.9c.6-.8,1-1.7,1.4-2.7.4-.9.6-1.9.8-2.9,0,0,0,0,0,0s0,0,0,0c-.1,1-.3,2-.7,3s-.8,1.9-1.3,2.8c0,0-.2.1-.3,0,0,0-.1-.2,0-.3h0Z"/>
          <path class="cls-18" d="M104.6,115.6l-5.2.7-6.9,1c-1.1.2-2.1-.2-2.8-.9h0c-.7-.6-1.1-1.6-1.1-2.6v-2.8h0v-3.4c0,0,0,0,0,0h16.1c-.9,2.9-1.1,5.7-.2,8.1h0Z"/>
          <path class="cls-45" d="M103.3,84c-1.3.5-2.9,1.3-4.6,2.5-2.1,1.5-3.5,3-3.8,3.4,0,0-4.9,5.7-5.4,17.3,0,0,0,.2,0,.3,0,1.6,0,3.6,0,5.9,0,.9,0,1.9.2,2.9-.7-.6-1.1-1.6-1.1-2.6v-2.8h0c0-1.2,0-2.3,0-3.4h0c.5-10.6,2.5-19.7,9.2-22.1.7-.3,1.4-.6,2.1-1,.9-.4,1.8-.8,2.8-1.3.2.3.4.5.6.8h0Z"/>
          <path class="cls-45" d="M104.8,107.7h-10.8c0,0-.2,0-.2-.2s0-.2.2-.2h10.8c0,0,.2,0,.2.2s0,.2-.2.2Z"/>
          <path class="cls-54" d="M107.3,121c1.1-.2,2.3-.5,3.4-.9,1.1-.4,2.2-.8,3.3-1.3,1.1-.5,2.1-1,3.2-1.6,1-.6,2-1.3,3-2,0,0,0,0,.1,0s0,0,0,0c-.9.8-1.9,1.4-2.9,2.1-1,.6-2.1,1.2-3.1,1.8s-2.2,1-3.3,1.4-2.3.8-3.4,1.1c-.2,0-.4,0-.4-.2,0-.2,0-.3.2-.4h0Z"/>
          <path class="cls-7" d="M109.9,67.1s-3.2-.4-3.1,3.4c.6-1.7,1.6-2.9,3.1-3.4Z"/>
          <path class="cls-7" d="M110.9,68.7s-2.1-.3-2.1,2.3c.4-1.1,1-1.9,2.1-2.3Z"/>
          <path class="cls-7" d="M105.2,69.6s.8,1.1,2,0c-.7.3-1.4.4-2,0Z"/>
        </g>
        <g>
          <path class="cls-55" d="M209.3,83.2l-23.1,11.1-.5.2-.6.3s-1-4-.3-5.1c.7-1.1-.1-1.3-.6-1.3s-3-.9-3.2-2.8c0-.3,0-.6,0-1,.7-2.6-1.1-10.5-1.1-10.5.2-1.5.4-2.8.8-3.8.8-1.9,2.1-2.9,4.1-2.7h0c.8.1,1.8.4,2.9,1,0,0,.4-.5,1.2-.9,1.2-.8,3.4-1.5,5.8,0,1,.6,2,1.7,3,3.2.6.9,1.6,1.5,2.6,1.6,1.1.1,2.3.3,2.9.6,1.1.6,1.9,4.1,2.9,4.8s3.2,1.2,3.7,2.8c.5,1.6-.5,2.3-.5,2.3h0Z"/>
          <path class="cls-65" d="M185.8,94.6l-.6.3s-1-4-.3-5.1c.7-1.1-.1-1.3-.6-1.3s-3-.9-3.2-2.8c1.2,1.5,2.6,2.4,3.8,2.6.4,0,.6.5.5.8-.3,1.1-.5,3.1.4,5.4h0Z"/>
          <g>
            <path class="cls-60" d="M205.8,82.4c-1.5,3.5-3.4,5.9-4.7,7.4-2.4,2.7-3.7,2.9-4,3-3.4.5-6.2-3.3-6.5-3.8.2,0,1.5-.7,1.7-2.1,0-.5,0-.9,0-1.2,1-2.5,1.9-5,2.9-7.6.2-.1.4-.2.6-.3.7,2.7,2.7,4.8,5.2,5.4,2.5.6,4.5-.6,5-.9h0Z"/>
            <path class="cls-62" d="M203.7,82.6c.1.2.3.5.4.8-.2.3-2.5,4-6.8,4.2-3,.1-5.1-1.6-5.6-2l2.9-7.6,1,.2c1.9,3.9,4.4,6,8.1,4.5h0Z"/>
          </g>
          <g>
            <path class="cls-58" d="M209.6,190.1c-1.7-.5-3.6.9-3.6.9-1.1,1.1-2.3,1.8-3.5,2.2-.5.2-1.1.3-1.6.3-4.2.4-7.2-2.8-2.6-4.3.3-.1.6-.2.9-.3,5.5-2.1,4.8-5.4,4.8-5.4h5.9s1.4,7-.2,6.6h0Z"/>
            <path class="cls-48" d="M200,192.5c0,.4.5.8.9,1.1-4.2.4-7.2-2.8-2.6-4.3.3-.1.6-.2.9-.3,5.5-2.1,4.8-5.4,4.8-5.4h1.4c0,8.3-5.2,8.3-5.3,8.9h0Z"/>
            <path class="cls-58" d="M213.6,191.6s.9,3.3-.7,5.8c0,0,0,.1-.1.2-.4.5-1.2.9-2,1.1-2.6.6-6.3-.6-4.4-3,2.5-3.2,2.5-11,2.5-11h1.2c0-.1,3.2-.4,3.2-.4l.5,2,.4,1.9c0,.3.1.6.1.9,0,.8-.3,1.7-.8,2.4h0Z"/>
            <path class="cls-48" d="M213.8,186.4c-1,.5-1.7,1.4-1.9,2.4-.5,2.1-.9,4.5-1.1,7.1,0,1,0,1.9,0,2.8-2.6.6-6.3-.6-4.4-3,2.5-3.2,2.5-11,2.5-11h1.2c0-.1,3.2-.4,3.2-.4l.5,2h0Z"/>
            <path class="cls-60" d="M209.2,183.9c.1.7.3,1.4.4,2.1.2.1.9.5,1.8.3.8-.1,1.4-.6,1.6-.8,0-.4.2-.9.2-1.4l-4.1-.3h0Z"/>
            <path class="cls-60" d="M204.1,183.6c.1.5.2,1,.3,1.6.7.9,1.7,1.3,2.7,1.1.7-.1,1.1-.6,1.3-.8,0-.5-.1-1.1-.2-1.6l-4.1-.3h0Z"/>
          </g>
          <g>
            <path class="cls-11" d="M208.5,184.7l-4.9-.4h-.6c-.6-8.4-1.9-16.6-3.7-24.8-.3-.8-.6-1.5-.8-2.3-6.2-17.6-7.1-26.7-6.9-33.9l11.8.4,5.2,60.9h0Z"/>
            <path class="cls-61" d="M206.6,181.5c.2-.6.3-1.2.2-1.9-2.4-21.3-6.3-23.1-8.4-22.3-6.2-17.6-7.1-26.7-6.9-33.9l11.8.4,5.2,60.9-4.9-.4c1.3-.7,2.5-1.5,3.1-2.9h0Z"/>
            <path class="cls-11" d="M214.8,158.8c2.6,10.6-.4,18.4-1.1,26.2l-4.4-.3h-.8c-.7-10.6-1.8-19.8-3.6-25l-2.7-33.9.8-.2,13.9-3c-.1,0-2.2,36.2-2.2,36.2h0Z"/>
            <path class="cls-61" d="M214.8,158.8c2.6,10.6-.4,18.4-1.1,26.2l-4.4-.3c1.9-1.1,3.1-3.1,3.2-5.4.2-10.3,0-19.6-4.9-19.7l-4.5-34.1,13.9-3c-.1,0-2.2,36.2-2.2,36.2h0Z"/>
          </g>
          <path class="cls-59" d="M222.7,109.3c-.8-.3-1.5-.6-2.2-.9-2.7-1.1-5.4-2.3-8.1-3.4h-.3c-1.1-2.1-9.7-18.2-5.8-22.3,0,0,.1-.1.2-.2.4-.3.9-.6,1.5-.7h0c6.3-.1,11.2,9.5,14.7,27.5Z"/>
          <path class="cls-59" d="M217.9,123.3c-2.5,2.6-5.9,4.2-9.4,5.1-2.3.5-4.6.7-6.9.6-2.2-.1-4.4-.6-6.2-1.4-2.2-.9-4-2.2-5.1-3.9,0,0,.9-2.8,1.2-5.1.2-1.1.3-2,.1-2.5-.2-.8-1.7-6.4-3.1-11.6-.6-2.3-1.2-4.5-1.7-6.3-.5-2-.9-3.3-.9-3.3,0-.7,0-1.4,0-2.2.1,0,.2-.2.3-.3l5.4-4.2c1,5.7,5.3,4.7,9.7-.5q2.9-3.4,0,0c.9-1.1,1.9-2.4,2.8-3.8,1.4-.5,2.9-.8,4.3-.8h0c.4,0,.7.3.8.6,0,0,0,.2,0,.2.7,5.2,1.4,10.4,2.2,15.4.2,1.1.4,2.2.6,3.3.2,1.2.4,2.5.7,3.6.8,4.2,1.8,8,2.9,11.4.7,2.1,1.4,4,2.3,5.7h0Z"/>
          <g>
            <polygon class="cls-19" points="189.2 97.8 199.4 92.6 204.8 110.4 192.5 117.2 187.7 98.5 189.2 97.8"/>
            <polygon class="cls-67" points="199.4 92.6 201.2 93.8 206.2 109.1 204.8 110.4 199.4 92.6"/>
          </g>
          <g>
            <path class="cls-62" d="M195.7,101.8c1.1-2.1,2.5-4.2,4.2-6.3.2-.2.5-.4.8-.4.6,0,1.3-.2,2-.4.2,0,.4.1.3.3-.3.7-.6,1.1-1.1,1.8l-6.1,5Z"/>
            <path class="cls-60" d="M205.8,105.8h-.3c0,0-2.8.5-2.8.5h0l-5.9,3.5c-.3.2-.5.4-.8.6-.2.2-.3.4-.4.6-1.7,2.9-3.4,5.2-5.1,6.7-.9.8-1.8,1.3-2.7,1.5l-.6-10.9,1.1-.7,4-2.6,1-.7c.7-.9,1.6-1.8,2.4-2.7.7-.8,1.5-1.5,2.2-2.3,1-1,2-1.9,3-2.7.1-.1.3-.1.4,0,.7.3,1.6.8,2.4,1.6.5.5.9,1.1,1.2,1.5l.3,2.9.3,2.7v.4c0,0,0,0,0,0Z"/>
            <path class="cls-62" d="M205.7,105.4c0,.2-.2.3-.3.5l-2.8.5h0l-5.9,3.5c-.3.2-.5.4-.8.6-.2.2-.3.4-.4.6-1.7,2.9-3.4,5.2-5.1,6.7-.3,0-.5-.1-.6-.1.2-1.5.3-3.8-.4-6.6-.4-1.3-.8-2.5-1.3-3.4l4-2.6,1-.7c0,0,.2-.2.4-.4,1.3-1.1,2.8-.9,7.2-.5,2.8.2,4.2.4,4.7,1.4.1.2.2.4.2.6h0Z"/>
            <path class="cls-62" d="M204.7,99.8c-.3,0-.5-.1-.8-.2-.2,0-.5-.2-.8-.3s-.5-.2-.7-.3c-.2-.1-.5-.2-.7-.3,0,0,0,0,0,0,0,0,0,0,0,0,.3,0,.5.1.8.2.2,0,.5.2.8.3s.5.2.7.3c.2.1.5.2.7.4,0,0,0,0,0,0,0,0,0,0,0,0h0Z"/>
            <path class="cls-62" d="M205.5,101.6c-.3,0-.5-.1-.8-.2s-.5-.2-.8-.3-.5-.2-.7-.3c-.2-.1-.5-.2-.7-.3,0,0,0,0,0,0,0,0,0,0,0,0,.3,0,.5.1.8.2.2,0,.5.2.8.3s.5.2.7.3c.2.1.5.2.7.4,0,0,0,0,0,0,0,0,0,0,0,0h0Z"/>
            <path class="cls-62" d="M205.8,103.2c-.3,0-.5-.1-.8-.2-.2,0-.5-.2-.8-.3-.2-.1-.5-.2-.7-.3-.2-.1-.5-.2-.7-.4,0,0,0,0,0,0,0,0,0,0,0,0,.3,0,.5.1.8.2s.5.2.8.3.5.2.7.3c.2.1.5.2.7.4,0,0,0,0,0,0,0,0,0,0,0,0h0Z"/>
            <path class="cls-62" d="M201.8,98.2c0,0,0,.2,0,.2,0,0,0,.2,0,.3,0,0,0,.2-.1.2,0,0-.1.1-.2.2,0,0,0,0,0,0h0c0-.2.1-.3.2-.4,0,0,0-.1,0-.2v-.2s0,0,0,0c0,0,0,0,0,0h0Z"/>
            <path class="cls-62" d="M202.5,99.9c0,0,.1.1.1.2,0,0,0,.2,0,.3,0,0,0,.2,0,.2,0,0-.1.1-.2.2,0,0,0,0,0,0h0c0-.2.1-.3.1-.5,0,0,0-.1,0-.2v-.2s0,0,0,0c0,0,0,0,0,0h0Z"/>
            <path class="cls-62" d="M202.9,101.6c0,0,.1.1.1.2,0,0,0,.2,0,.3,0,0,0,.2,0,.2,0,0-.1.1-.2.2,0,0,0,0,0,0h0c0-.2.1-.3.1-.5,0,0,0-.1,0-.2v-.2s0,0,0,0c0,0,0,0,0,0h0Z"/>
          </g>
          <g>
            <path class="cls-60" d="M183.9,79.7c1.8,2.8,3.9,5.4,5.5,6.3,1.1.5,2.3.8,3.5.9.6,0,1.2-.2,1.6-.8.2-.2.3-.5.5-.8,1.3-2.3,1.4-5.1.4-7.6l-2.6-6.4-4.5-1.1-2.7,1.1-1.6,8.3h0Z"/>
            <g>
              <path class="cls-55" d="M188.9,76.6h0c.1.3.4.4.6.4.2,0,.5-.1.8-.1.7,0,1.3,0,1.7,0-.2-.2-1-.9-2.1-.9s-.5,0-.8,0c-.2,0-.3.3-.2.5Z"/>
              <path class="cls-55" d="M186.5,77.7h0c.2.2.2.6,0,.8-.3.2-.6.5-.9.8-.3.3-.6.7-.9,1,0-.5.2-1.2.7-2,.1-.2.2-.4.4-.6.2-.2.5-.3.8,0h0Z"/>
              <g>
                <path class="cls-13" d="M186,81.9s0,0,.2,0c.1,0,.2,0,.2,0,.2-.2.5-.3.7-.5.1,0,.3-.2.4-.4.1-.1.2-.2.3-.3,0,0-.7-.2-1.3.1-.3.2-.5.5-.5.7,0,0,0,0,0,.1,0,.1,0,.2,0,.3h0Z"/>
                <path class="cls-13" d="M189.8,79.5c0,0,.1,0,.2,0,.1,0,.2,0,.2,0,.3-.2.6-.4.9-.6.2-.1.4-.3.6-.6,0-.1.2-.2.2-.3,0,0-1-.5-1.5,0-.6.6-.6.8-.6,1s0,.4,0,.4h0Z"/>
                <path class="cls-55" d="M191.9,78c-.3,0-.5-.1-.8,0-.3,0-.5.1-.7.3-.2.2-.4.3-.5.6s-.2.5-.2.8,0,0,0,0c0,0,0,0,0,0-.1-.3-.1-.6,0-.9,0-.1.1-.3.2-.4,0-.1.2-.2.3-.3.2-.2.6-.3.9-.3.3,0,.6,0,.8.3,0,0,0,0,0,0h0Z"/>
                <path class="cls-55" d="M191.1,78.6c0,0,0,.2,0,.2-.3.2-.6.4-.9.6-.2,0-.4-.2-.4-.4-.1-.3.1-.7.5-.8s.7.1.8.5h0Z"/>
                <path class="cls-55" d="M187.8,80.7c-.2,0-.4,0-.7,0-.2,0-.4.1-.6.2s-.3.3-.4.5-.1.4-.1.7,0,0,0,0c0,0,0,0,0,0,0-.2,0-.5,0-.7,0-.2.2-.5.4-.6.2-.2.5-.2.7-.2s.5,0,.7.2h0s0,0,0,0h0Z"/>
                <path class="cls-55" d="M187.1,81.2c0,0,0,.1,0,.2-.2.2-.5.3-.7.5-.2,0-.3-.2-.4-.4,0-.3,0-.6.4-.7.3,0,.6,0,.7.4h0Z"/>
                <path class="cls-62" d="M188.9,82.6c0-.1-.2-.6,0-1,.3-.5,1.1-.7,1.8-.3l-1.9,1.3h0Z"/>
                <path class="cls-62" d="M187.6,79c.3.2.5.4.7.7.2.3.3.6.4.9s.2.6.2,1,0,.7,0,1c0,0,0,0,0,0s0,0,0,0c0-.3,0-.6-.1-.9,0-.2,0-.3-.1-.4,0-.2-.1-.3-.1-.4-.1-.3-.2-.6-.4-.8-.1-.3-.3-.5-.5-.8,0,0,0,0,0,0,0,0,0,0,0,0h0Z"/>
                <path class="cls-33" d="M192.1,82.9h0c0,.2,0,.3-.1.5,0,0,0,.2-.1.3,0,.1-.2.2-.4.3,0,0,0,0-.1,0h-.1c0,0-.2,0-.3,0-.3-.2-.6-.4-1-.7,0,0,0-.2,0-.2,0,0,.1,0,.2,0,.7-.3,1.2-.7,1.4-1.4,0,0,0-.2,0-.3,0,0,.1,0,.1,0,.1.4.2.8.3,1.1,0,.2,0,.4,0,.5h0Z"/>
                <path class="cls-10" d="M190.7,83.3c0,0-.3-.2-.4-.3.7-.3,1.2-.7,1.4-1.4.3.5-.2,1.9-1,1.7h0Z"/>
              </g>
            </g>
          </g>
          <g>
            <path class="cls-55" d="M187.7,71.4s1,3.2-2.5,5.7c-3.5,2.5-1.6,6.7-1.6,6.7,0,0-3.3-8.1-.9-11.4,2.4-3.3,6.8-3.6,6.8-3.6l6.8,4.2-1.1,5.3c-1.2,0-2.3-.9-3.3-3-2.4,0-3.7-1.4-4.2-3.8h0Z"/>
            <path class="cls-65" d="M187.9,71.4c0,.5.2,1,.4,1.5.2.5.5.9.9,1.3.1,0,.2.2.3.2h.2c0,.2.1.2.2.2.2.1.5.2.7.3.5.2,1,.2,1.6.2,0,0,0,0,0,0s0,0,0,0c-.5,0-1.1,0-1.6,0-.3,0-.5-.2-.8-.3,0,0-.1,0-.2,0h-.2c-.1-.2-.2-.3-.3-.4-.4-.3-.8-.8-1-1.3-.2-.5-.4-1-.5-1.6,0-.1,0-.2.2-.2.1,0,.2,0,.2.2h0s0,0,0,0Z"/>
            <path class="cls-65" d="M196,72.8c0,.2,0,.4,0,.5,0,.2.1.4.2.5.1.3.3.7.6.9,0,0,.1.1.2.2h.1c0,0,0,.1.1.2.2,0,.3.2.5.2.4.1.8.2,1.1.2h0c0,0,.1,0,.1.1,0,0,0,.1-.1.1-.4,0-.9,0-1.3,0-.2,0-.4-.1-.6-.2,0,0-.1,0-.1,0h-.1c-.1-.1-.2-.2-.3-.3-.4-.3-.6-.6-.9-1-.1-.2-.2-.4-.3-.6,0-.2-.1-.4-.2-.7,0-.2.1-.4.3-.4.2,0,.4.1.4.3h0s0,0,0,0Z"/>
          </g>
          <g>
            <path class="cls-60" d="M194,75.8c-.4,1.1,0,2.3.9,2.6.8.3,1.8-.4,2.1-1.5.4-1.1,0-2.3-.9-2.6-.8-.3-1.8.4-2.1,1.5Z"/>
            <path class="cls-62" d="M195.6,75.4c-.2,0-.3,0-.5.2s-.2.2-.3.4-.1.3-.1.5c0,.2,0,.3,0,.5,0,0,0,0,0,0s0,0,0,0c0-.2,0-.4,0-.6,0-.2,0-.4.2-.5,0-.2.2-.3.4-.4.2-.1.4-.2.5-.2s0,0,0,0,0,0,0,0h0Z"/>
          </g>
          <g>
            <path class="cls-32" d="M175.6,186.3l-1.1,3.9-1.7,1.2c-.8.3-2,.8-3.4,1.6-3,1.7-3.5,2.8-5.4,3-.8,0-1.8,0-2.6-.4-.7-.2-1.2-.6-1.5-1.1,0,0,0,0,0,0-.8-1.3-.3-3,1.1-3.8,0,0,.1,0,.2,0,1-.5,1.5-.9,3.3-1.6,0,0,0,0,0,0,.9-.4,2.3-1.1,3.8-2.1.4-.1.8-.3,1.3-.4h0c-.3.3-.3.9-.3.9,0,.8-1.7,1.4-1.6,1.9,0,0,.1.2.4.3,0,0,0,0,.2,0,.5-.4,1.1-.9,2-1.3,1.6-.7,3.1-.8,3.9-.7,1.2-.9,1.4-1.2,1.4-1.3h0Z"/>
            <path class="cls-2" d="M175.6,186.3l-1.1,3.9-1.7,1.2c-.8.3-2,.8-3.4,1.6-3,1.7-3.5,2.8-5.4,3-.8,0-1.8,0-2.6-.4-.7-.2-1.2-.6-1.5-1.1,0,0,0,0,0,0-.8-1.3-.3-3,1.1-3.8,0,0,.1,0,.2,0,4.1.4,6.5-.5,6.5-.5l.5-.5s0,0,.2,0c.5-.4,1.1-.9,2-1.3,1.6-.7,3.1-.8,3.9-.7,1.2-.9,1.4-1.2,1.4-1.3Z"/>
            <path class="cls-46" d="M174.1,187.6c-.6.5-1.5,1.1-2.8,1.8-1.7,1-3,1-3.8.7-1-.4-1.2-1.5-.4-1.8,0,0,0,0,0,0,.3-.1.6-.3.8-.4,0,0,0,0,0,0,.6-.4,1.2-.8,1.5-1.3h0c.1-.2.2-.4.3-.6.3-1.9-9-25.7-9-25.7l7.1,1.1,2.7.4,3.5,26h0Z"/>
            <path class="cls-62" d="M174.1,187.6c-.6.5-1.5,1.1-2.8,1.8-1.7,1-3,1-3.8.7,1.5-.4,2.6-1,3.4-1.6,1.4-1,2-2.7,1.7-4.4l-4.7-22.9,2.7.4,3.5,26h0Z"/>
            <path class="cls-60" d="M178.7,186.8l1.1,2.9-2.6,3.2-1.8,2.3v.2h-3.5l-1.1-2c1.2-1.9,2.2-3.7,2.8-5.2.1-.3.2-.7.2-1.1-.1-4.2-2-14.5-3.5-23.5,3.9-1,6.2-1.4,7.6-1.5,1.8-.2,1.9.2,2,.5,1.8,5.9,0,13.3-.9,22.2,0,1-.2,1.8-.2,2.1h0Z"/>
            <path class="cls-51" d="M178.7,186.8l1.1,2.9-2.6,3.2-1.8,2.3-1.6-.8c1.4-2.6,2.5-5,2.9-7.1,2-9.7-.5-24.5-.5-24.5l1.6-.7c1.8-.2,1.9.2,2,.5,1.8,5.9,0,13.3-.9,22.2,0,1-.2,1.8-.2,2.1h0Z"/>
            <path class="cls-2" d="M180.4,191.3c-.8,1.2-1.8,2.2-2.8,3.1-.4.3-.7.7-.9,1.2-.5,1.1-1.1,2.3-1.8,3.5-.4.7-1,1.3-1.6,1.7-1.6,1-3.6,1-5.2-.1,0,0,0,0,0,0-.8-.5-.6-2-.5-2.6.3-2.3,2.6-4.5,3.1-4.9.7-1,1.4-2,2.1-3-1.1,1.8-.8,3.6,0,4.1.3.2.7.2,1.1.1.7-.1,1.6-.6,2.3-1.4l3.1-4.9-.5-1.2v-.7c.6.3,1.1.8,1.5,1.3.9,1.1,1,2.7.2,3.9h0Z"/>
            <path class="cls-32" d="M173.3,200.7c-1.6,1-3.6,1-5.2-.1,0,0,0,0,0,0-.8-.5-.6-2-.5-2.6.3-2.3,2.6-4.5,3.1-4.9.7-1,1.4-2,2.1-3-1.1,1.8-.8,3.6,0,4.1.3.2.7.2,1.1.1-2.4,2.2-2.8,4.6-.5,6.4h0Z"/>
            <path class="cls-60" d="M184.8,92.7c-.6.9-1.7,2.3-3.3,3.4-4,2.8-10.7,3.7-14.2.4-3.8-3.6-.8-8.2-.8-8.2.8-.4,1.6-.9,2.2-1.2.6-.4.9-1,.9-1.7v-3.2h.8l5.4,4.4,1.2.9.7,1.8c.1.3.3.5.6.7,1.1.6,2.4,1.2,3.7,1.8.1,0,.2,0,.4.2.8.3,1.5.6,2.2.8h0Z"/>
            <path class="cls-62" d="M182.5,91.9c-1.1.7-2.1,1.4-3.2,2.1-1.2-.5-2.9-1.3-4.6-2.8-2.5-2.2-3.7-4.7-4.3-6.2,1.8.5,3.6,1,5.4,1.5l1.2.9c0,.3.2.7.5,1.1.8,1.4,2.2,2.1,3.6,2.7.4.2.8.4,1.4.6h0Z"/>
            <g>
              <path class="cls-16" d="M164.6,86.5v6.6c-.1,0-4.5,5.2-4.5,5.2l-.2.2s-.6-7.8.7-10.3,4.1-1.8,4.1-1.8h0Z"/>
              <path class="cls-47" d="M164.6,86.5v.2c-4.9-1.1-4.3,5.9-4.5,11.6l-.2.2c-.1-1-.2-2.4-.2-4,0-3.5,0-6.4,1.9-7.6.4-.3,1.4-.7,3-.4h0Z"/>
              <path class="cls-16" d="M187.6,157.7c-3.5,4.1-7.7,6.5-12.4,7.1-2.2.3-4.6.2-7-.2-3.8-.7-7.6-2.4-11.5-4.8h0s0,0,0,0c0,0-.2-.1-.3-.2-.1,0-.2-.2-.4-.2-.3-.2-.6-.4-1-.7-.1,0-.2-.2-.3-.2,0,0-.2-.1-.3-.2-.1,0-.3-.2-.4-.3-.2-.2-.5-.4-.7-.5-.7-.6-1.4-1.1-2.1-1.7.5-7.8,1.3-15.3,2.8-21.7,0-.2,0-.4.1-.6,0-.1,0-.2,0-.4,0-.2.1-.5.2-.7,0-.1,0-.3,0-.4,0-.1,0-.3.1-.4s0-.3.1-.4c0,0,0,0,0-.1,0-.1,0-.2,0-.4,0-.1,0-.2,0-.3,0,0,0-.1,0-.2,0-.1,0-.2,0-.3,0-.2,0-.3.1-.5,0-.1,0-.3.1-.4,0,0,0-.2,0-.2,0-.3.2-.6.3-.9,0-.2.1-.3.2-.5,0-.1,0-.2.1-.3h0c0,0,0-.1,0-.2,0-.1,0-.2.1-.3,0-.1,0-.2.1-.4,0-.1,0-.2.1-.4,0,0,0-.1,0-.2,0-.1,0-.2.1-.4,0,0,0,0,0,0,0-.1.1-.3.2-.4,0,0,0,0,0,0,0-.1,0-.2.2-.4,0,0,0-.1,0-.2,0,0,0-.1,0-.2,0-.1,0-.2.1-.3,0-.2.2-.3.2-.5,0-.1.1-.2.2-.4s0-.1.1-.2c0-.2.2-.4.3-.6,0-.1.1-.2.2-.3,0-.2.2-.4.3-.5,0-.1.1-.2.2-.3,0,0,0,0,0,0,0,0,.1-.2.2-.3,0-.1.1-.2.2-.4,0-.1.1-.2.2-.3,0,0,0,0,0,0,0-.1.2-.2.2-.4h0c0-.1.2-.2.2-.3,0,0,0,0,0,0,0-.1.2-.2.2-.3l.3-5.7c0-2.3.2-4.6.3-6.9-2-2-2.3-3.6-2.3-4.4v-.2c0-1.6.8-2.8,1.7-4.2,0,0,.3-.5.5-.8,0,0,0-.1.1-.2,0-.1.1-.2.2-.3,0,0,0-.1.1-.2.1-.2.2-.3.3-.5,0,0,0,0,0-.1.2-.4.5-.8.7-1.2h0c.2-.4.4-.8.6-1.2,0,0,0,0,0,0,0-.3.2-.7.3-1h0c.3-1,.6-1.9.8-2.9.2-.7.4-1.4.6-2.2.7,0,1.4,0,2.1.1.8,0,1.6,0,2.4.1-5.7,2.8,2.5,10.1,9.6,6.9,1-.5,2.1-1.2,3-2.1l3.6,1.4s0,0,.1,0c0,0,0,0,0,.2-.2,1-.4,2-.6,2.9-.3,1.4-.6,2.8-.9,4.1-.6,2.5-1.1,4.9-1.7,7.1-.6,2.3-1.3,4.6-2,6.7-.6,1.9-1.3,3.8-2,5.4,0,0,2.7,3.3,4.7,10.8.9,3.3,1.7,7.5,2,12.6l2.7,14.8h0Z"/>
              <path class="cls-57" d="M187.6,157.7c-3.5,4.1-7.7,6.5-12.4,7.1-1.4-9.6-1.4-17.4-1.2-22.9.3-7.3,1.2-11.4-1.4-14.9-3.4-4.4-10.2-4.8-14.8-4.6.3-.6.6-1.2.9-1.7.2-.3.3-.5.4-.6h0c5.7.9,9.8-2.5,9.9-5.3,0-2.2-2.3-4.7-5.7-5.8,5.3,1.9,10.9.7,14.2-3,2.9-3.2,2.9-7.2,2.9-8.4,1.8,2.9,2.2,5.3,2.2,6.9.1,3.1-1,6.1-3.3,12.2-.5,1.2-.9,2.2-1.1,2.8,0,0,2.7,3.3,4.7,10.8.9,3.3,1.7,7.5,2,12.6l2.7,14.8h0Z"/>
              <path class="cls-47" d="M152.2,154.8c1.5,1.6,3,3.3,4.5,4.9,0,0,0,0,0,0,0,0-.2-.1-.3-.2-.1,0-.2-.2-.4-.2-.3-.2-.6-.4-1-.7-.1,0-.2-.2-.3-.2,0,0-.2-.1-.3-.2-.1,0-.3-.2-.4-.3-.2-.2-.5-.4-.7-.5-.8-.6-1.5-1.2-2.1-1.7-.6-13,2.1-23,5.3-30.4.2-.6.5-1.1.8-1.6-1.4,3.7-2.8,8.1-3.8,13.3-1.3,7-1.5,13.1-1.2,18h0Z"/>
              <path class="cls-57" d="M162.7,90.5s-.2-.5-.5-.8l-.3-.3c.4,2.6-.6,5.3-1.9,8.2l1.5-2.4,1.3-1.8.2-1.6-.3-1.2h0Z"/>
              <path class="cls-47" d="M159.7,98.5c-.5,1.1-.8,1.9-.8,3.1.1,2.2,1.7,3.7,2.5,4.4-.2,1.1-.4,2.4-.5,3.7-.3,3.4-.2,6.5.1,9.1-.5.2-1.1.5-1.7.9,0-.1.2-.2.2-.4h0c0-.1.2-.2.2-.3,0,0,0,0,0,0,0-.1.2-.2.2-.3.2-4.2.4-8.4.6-12.7-2.1-2.1-2.3-3.6-2.3-4.4v-.2c0-1.6.8-2.8,1.5-3.9,0-.1.6-1,.7-1.1,0-.1.1-.2.1-.2h0c0-.1.1-.2.2-.3,0,0,0-.1.1-.2.1-.2.2-.3.3-.5,0,0,0,0,0-.1.6-1,1.1-1.7,1.3-2.3.1-.4.3-1.2-.1-2.3.2.4.5,1.1.5,1.8,0,2.2-2,3-3.4,6.3h0Z"/>
              <path class="cls-57" d="M165.5,96.9c.3.1.6.3.9.4l.8.4c.6.3,1.1.5,1.7.8.1,0,.3.1.4.2s.3.1.4.2c.2,0,.3.1.4.1.2,0,.3.1.4.1.6.2,1.2.3,1.8.4h0c.2,0,.2.2.2.3,0,.1-.1.2-.3.2-.7,0-1.3,0-2-.2-.6-.1-1.3-.4-1.9-.6s-1.2-.5-1.8-.9c-.3-.2-.6-.4-.8-.6-.3-.2-.5-.4-.7-.6,0,0,0-.2,0-.2,0,0,.1,0,.2,0h0Z"/>
              <path class="cls-16" d="M190.7,115.9l-2.1-.9-4.4-1.9-2-5.8-4-11.9,2.8-1,4.3-1.5s0,0,0,0c0,0,.1,0,.2,0,5.4,3.6,5.4,13.1,5.1,22.8h0Z"/>
              <path class="cls-57" d="M190.7,115.9l-2.1-.9c.9-6.7,0-11.6-.8-14.5-.8-3-1.7-4.6-3.2-5.6-2.3-1.6-4.9-1.3-6-1.2,1-.5,2.1-1.2,3-2.1l3.6,1.4s0,0,.1,0c0,0,.1,0,.2,0,5.4,3.6,5.4,13.1,5.1,22.8h0Z"/>
              <path class="cls-16" d="M173.1,111.7s-.2,1.7.7,2.3c1,.6,1.6.3,1.6.3,0,0,.5-.7.5-.8s-.8-2.1-.8-2.1l-2.1.3h0Z"/>
              <path class="cls-37" d="M174.3,113.8c-1.2-.9-1.7-2.5-1.4-3.8.4-1.6,1.8-2.3,2-2.4.2.1.5.3.7.5,1.2,1,1.6,2.2,1.8,3-.6.9-1.3,1.7-1.9,2.6-.4,0-.8.1-1.3.2Z"/>
              <path class="cls-57" d="M188.7,114s-1.2-1.4-2-1.8c-.8-.4-3.1,0-3.1,0l5.1,1.9h0Z"/>
              <g>
                <path class="cls-60" d="M170.3,104.8v.4c0,0-.3,1.2-.3,1.2l-3.1-.2-3.7-.3c0,0-.2,0-.2-.2,0,0,0,0,0-.1,0-.3.2-.5.5-.6,2.3-.2,4.5-.2,6.8-.1h0Z"/>
                <g>
                  <path class="cls-60" d="M175.7,108.2h0c-.6-.2-1.3-.6-1.8-.9l-3.5-2.4c0,0-.2,0-.2,0l-1.8,6.1,2.9,1.5c.4.2.9.3,1.4.3h4v-4.1c0,0-.9-.4-.9-.4h0Z"/>
                  <path class="cls-60" d="M170.2,111.9c-.9.4-2,.3-2.8-.4-.3-.2-.5-.4-.7-.6-.4-.4-.4-.9-.4-1.2,0-.2,0-.3,0-.3-.3-.4,0-1.6,0-1.6-.2-.6.2-1.4.4-1.6,0,0,0,0,0,0l2.8.2-1.3,4.6,1.8.9h0Z"/>
                  <path class="cls-62" d="M166.9,106c.3,0,.6,0,.9,0,.1,0,.3,0,.4,0h.4c.3,0,.6,0,.9,0s.6,0,.9,0c0,0,0,0,0,0s0,0,0,0c-.3,0-.6,0-.9,0-.3,0-.6,0-.9,0h-.4c-.1,0-.3,0-.4,0-.3,0-.6,0-.9,0,0,0,0,0,0,0s0,0,0,0h0Z"/>
                  <path class="cls-62" d="M166.5,107.7c.3,0,.7,0,1-.1.2,0,.3,0,.5,0h.5c.3,0,.7,0,1,0s.7,0,1,0c0,0,0,0,0,0s0,0,0,0c-.3,0-.7,0-1,.1-.3,0-.7,0-1,0h-1c-.3,0-.7,0-1,0,0,0,0,0,0,0s0,0,0,0h0Z"/>
                  <path class="cls-62" d="M166.5,109.3c.3,0,.7,0,1-.1.2,0,.3,0,.5,0h.5c.3,0,.7,0,1,0s.7,0,1,0c0,0,0,0,0,0s0,0,0,0c-.3,0-.7,0-1,.1-.3,0-.7,0-1,0h-1c-.3,0-.7,0-1,0,0,0,0,0,0,0s0,0,0,0h0Z"/>
                  <path class="cls-62" d="M168,110.8c.2,0,.4.1.6.2.2,0,.4.1.6.2s.4.2.6.3c.2,0,.4.2.5.3,0,0,0,0,0,0,0,0,0,0,0,0-.2,0-.4-.1-.6-.2-.2,0-.4-.1-.6-.2s-.4-.2-.6-.3-.4-.2-.5-.3c0,0,0,0,0,0,0,0,0,0,0,0Z"/>
                  <path class="cls-62" d="M170.5,109.8c0,0-.1-.1-.2-.2s0-.2,0-.3,0-.2,0-.3c0,0,0-.2.1-.2,0,0,0,0,0,0,0,0,0,0,0,0,0,.2,0,.3,0,.4,0,0,0,.1,0,.2v.2c0,0,0,0,0,0h0Z"/>
                  <path class="cls-62" d="M170.5,108.2c0,0-.1-.1-.2-.2s0-.2,0-.3,0-.2,0-.3c0,0,0-.2.1-.2,0,0,0,0,0,0,0,0,0,0,0,0,0,.2,0,.3,0,.4,0,0,0,.1,0,.2v.2c0,0,0,0,0,0h0Z"/>
                  <path class="cls-62" d="M170.5,106.6c0,0-.1-.1-.2-.2s0-.2,0-.3,0-.2,0-.3c0,0,0-.2.1-.2,0,0,0,0,0,0,0,0,0,0,0,0,0,.2,0,.3,0,.4,0,0,0,.1,0,.2v.2c0,0,0,0,0,0h0Z"/>
                  <path class="cls-8" d="M170.3,104.8h0c-.2,0-.4.1-.8.1-1.4.2-2.4.2-2.9.2-.8,0-2.1,0-3.6.3,0-.3.2-.5.5-.6,2.3-.2,4.5-.2,6.8-.1Z"/>
                  <path class="cls-8" d="M166.6,107.7s.2,1.1,0,1.6c0,.2-.2.3-.2.2,0-.2,0-.3,0-.3-.3-.4,0-1.6,0-1.6-.2-.6.2-1.4.4-1.6,0,0,.1.3.1.6,0,.8-.3.9-.3.9h0Z"/>
                </g>
              </g>
              <path class="cls-57" d="M189.6,120.9c-.4.8-1.3,1.2-2.2,1-.1,0-.2,0-.3,0-1.1-.3-2-.8-3-1.4l-10.3-6.4c1.4-.2,3.7-3.5,1.9-5.7-.2-.2-.4-.5-.8-.7l11,5.3,2.5,1.2,2.2,1.2c0,2-.3,3.9-1.2,5.7h0Z"/>
              <path class="cls-16" d="M186,112.7c-.1.2-.4.2-.4.2l-9.9-4.8c-.2-.2-.4-.5-.8-.7l11,5.3h0Z"/>
              <path class="cls-47" d="M167.6,149.3s-.6,4.7,0,8.2c.7,3.5,1.1,5.1,1.1,5.1l-2.1-.4c-.8-3.5,0-8.1.9-12.9h0Z"/>
              <path class="cls-57" d="M164.5,130c0,.6,0,1.2.1,1.7,0,.6.3,1.1.6,1.6.3.5.7.9,1.1,1.2.5.3,1,.6,1.6.7h0c0,0,0,0,0,.1s0,0-.1,0c-.6-.1-1.2-.3-1.7-.7-.5-.3-1-.8-1.3-1.3-.3-.5-.5-1.1-.7-1.7-.1-.6-.2-1.2-.2-1.8,0-.1.1-.3.3-.3s.3.1.3.3h0s0,0,0,0Z"/>
              <path class="cls-37" d="M179.1,117.4s0,0,0,0l-5.3-3.3c0,0,0-.1,0-.2,0,0,.2-.1.2,0l5.3,3.3c0,0,0,.1,0,.2,0,0,0,0-.1,0h0Z"/>
            </g>
            <g>
              <path class="cls-35" d="M171.1,93.3c0,.7-.2,1.5-.5,2.2-.5,1.1-1.1,1.3-1.6,2.7-.3,1-.3,1.9-.3,2.5s0,2,.6,3.4c-.3-.5-.7-1-1-1.6h0c-.4-.9-.8-1.9-.8-3.1,0-2.6,1.4-3.4,1.1-5.6,0-.6-.2-1.1-.5-1.5-.9-1.6-2.6-2.3-3.2-4.3-.5-1.6-.4-4.1,2.7-8.1.2,0,.4,0,.6,0,.1,0,.2,0,.3,0,.8-.1,1.5-.5,1.9-.8,0,1-.2,2-.2,3,0,1,0,2,0,2.9-.1.2-.3.4-.5.7,0,0-.2.3-.3.7-.3,1.3.7,2.3,1.2,3.6,0,.2.6,1.6.5,3.3h0Z"/>
              <path class="cls-15" d="M168.4,91.1c0,.5-.1,1-.3,1.2-.9-1.6-2.6-2.3-3.2-4.3-.5-1.6-.4-4.1,2.7-8.1.2,0,.4,0,.6,0,.1,0,.2,0,.3,0-.7.8-1.7,2-2.2,3.7-.5,1.4-1,3.2-.2,4.6.7,1.3,2.1,1.6,2.3,2.9h0Z"/>
              <path class="cls-15" d="M169,98.2c-.3,1-.3,1.9-.3,2.5s0,2,.6,3.4c-.3-.5-.7-1-1-1.6h0c-.5-1.4-.8-3.2,0-4.6,1.5-2.6,1-5.7,1-5.7,0,0,.8,2.4.7,2.9,0,0,1-.4,1.1-1.9,0,.7-.2,1.5-.5,2.2-.5,1.1-1.1,1.3-1.6,2.7h0Z"/>
              <g>
                <path class="cls-60" d="M182.2,78.2s-1.4,6.1-2.5,7.9-2.3,3.1-4.8,3.3c-.2,0-.3,0-.5,0-2.3-.3-3.9-3.6-4.1-4.1-.2-.4,0-5.1.2-7.5,0-.9,0-1.5,0-1.5l3.5-1.8c1.2-.1,2.3-.3,3.5-.4,1.5,1.4,3.1,2.7,4.6,4.1h0Z"/>
                <path class="cls-64" d="M172.8,84.9c.2,1.3.7,2.7.7,2.7.3.8.6,1.4.8,1.8-2.3-.3-3.9-3.6-4.1-4.1-.2-.4,0-5.1.2-7.5.1-.7.3-1.3.4-2,1.7-.5,3.4-1.1,5-1.6-2.6,4.8-3.3,9-3,10.8h0Z"/>
                <path class="cls-35" d="M181.4,84.8c0,.9,0,2.2.4,3.8,0,.2-1.6-4-1.1-5.8,0,0,.2-.7.5-1.5.2-.5.3-.9.4-1.2,0-.1-.2-.4-.4-.6-.9-1-2-.5-2.6-1.2-1.1-1.3-.7-3.3-1.7-3.7-.3-.1-.7,0-.9.1s-.2,0-.3,0c0,0,0,0-.1,0-.4-.2-.9-.2-1.4.1s-.6.8-.8,1.5c-.2.6-.7,1.4-1.7,2.2-.3,1.3-.6,2.6-.8,3.9.2-1.9-.5-3.4-1.5-3.7-.2,0-.5-.1-1,0-.2-.3-.4-.8-.7-1.4-1.1-3.1-.2-7.4,2.3-8.4.4-.2,1.3-.4,2.7,0h0c.3-.6,1-1.4,2-1.8.9-.4,1.8-.5,2.8-.3,1.7.3,3.4,1.4,4.3,2.8,1,1.6,1.3,3.8,1.1,5.4-.1.6-.3,1.3-.2,2.2.1,1.2.4,1.4.4,2.2,0,1.1-.7,1.3-1.2,2.8-.3.9-.3,1.6-.4,2.5h0Z"/>
                <path class="cls-15" d="M175.6,74.9s0,0-.1,0c-.4-.2-.9-.2-1.4.1s-.6.8-.8,1.5c-.2.6-.7,1.4-1.7,2.2-.3,1.3-.6,2.6-.8,3.9.2-1.9-.5-3.4-1.5-3.7-.2,0-.5-.1-1,0-.2-.3-.4-.8-.7-1.4-1.1-3.1-.2-7.4,2.3-8.4.4-.2,1.3-.4,2.7,0h0c.3.1.6.4.8.9-.3-.1-1-.3-1.8,0-1.7.5-2.2,2.3-2.2,2.4,1.9-1.5,3.6-2.1,4.3-1.4.2.1.4.4.4,1,0,0-1.4.4-1.8.8l-.4.4s2-.3,2.3-.3c.6,0,1.6,1.5,1.6,2.1h0Z"/>
                <path class="cls-59" d="M177.7,82c.3,0,.7,0,1.2,0,.5,0,.9-.2,1.2-.4-.2-.6-.8-.9-1.4-.8-.6.1-1,.6-1,1.1h0Z"/>
                <path class="cls-35" d="M180.2,81.7c-.2-.2-.4-.4-.6-.6s-.5-.2-.8-.1c-.3,0-.5.2-.7.3-.2.2-.3.4-.4.7,0,0,0,0,0,0,0,0,0,0,0,0,0-.3,0-.6.3-.9,0-.1.2-.2.4-.3.1,0,.3-.1.5-.2.3,0,.7,0,.9.2.3.2.5.5.5.8,0,0,0,0,0,0h0,0Z"/>
                <path class="cls-35" d="M179.3,81.6c0,.2,0,.3,0,.3-.2,0-.4,0-.6,0-.2,0-.3,0-.5,0-.1-.2-.2-.4-.1-.6,0-.3.5-.6.8-.4.3,0,.4.4.4.6h0Z"/>
                <path class="cls-59" d="M172.5,82.1c0,0,.3,0,.5,0s.3,0,.7,0c.5,0,.5,0,.5,0,.2,0,.5-.1.9-.3-.3-.6-.9-.9-1.5-.7-.5.1-.9.6-1,1.1h0Z"/>
                <path class="cls-35" d="M175.1,81.8c-.2-.2-.4-.4-.6-.6s-.5-.2-.8-.1c-.3,0-.5.2-.7.3-.2.2-.3.4-.4.7,0,0,0,0,0,0,0,0,0,0,0,0,0-.3.1-.6.3-.9,0-.1.2-.2.4-.3.1,0,.3-.1.5-.2.3,0,.7,0,.9.2.3.2.5.4.5.8,0,0,0,0,0,0h0Z"/>
                <path class="cls-35" d="M174.1,81.5c0,.3,0,.5,0,.5-.2,0-.4,0-.5,0s-.4,0-.5,0c-.1-.2-.2-.4-.1-.6,0-.3.5-.5.8-.4.2,0,.4.2.4.4h0Z"/>
                <path class="cls-35" d="M178,80.1h0c.4-.8,2.3-.7,3.1-.3-.4-.5-1-.8-1.7-.9-.7,0-1.4.5-1.4,1.2Z"/>
                <path class="cls-35" d="M175.3,79.7h0c-.9-.8-2-.8-3.3-.4.2-.2.8-.7,1.7-.8,0,0,.2,0,.3,0,.7,0,1.2.5,1.3,1.2Z"/>
                <path class="cls-62" d="M175.3,84.5c.3-.3.7-.5,1.1-.3.3.1.5.4.5.7,0,0-.5.2-.9,0-.4-.1-.6-.4-.7-.5Z"/>
                <path class="cls-62" d="M177.1,80.3c0,.4-.2.8-.2,1.2,0,.4,0,.8-.1,1.2,0,.4,0,.8,0,1.2,0,.4,0,.8,0,1.2,0,0,0,0,0,0s0,0,0,0c-.1-.4-.2-.8-.3-1.2,0-.4,0-.8,0-1.2,0-.4,0-.8.2-1.2s.2-.8.4-1.1c0,0,0,0,0,0,0,0,0,0,0,0h0Z"/>
                <path class="cls-62" d="M175.3,86.2c-.1,0-.2,0-.4,0,0,0-.1,0-.2,0h0s0,0,0,0c-.2,0-.4-.2-.6-.4s-.3-.4-.4-.6c0-.2-.1-.4-.2-.7,0,0,0,0,0,0s0,0,0,0c0,.2.2.4.3.6.1.2.2.3.4.5.2.1.3.2.5.3,0,0,0,0,.1,0s0,0,.2,0c0,0,.2,0,.3.1h0s0,0,0,0c0,0,0,0,0,0h0Z"/>
                <g>
                  <path class="cls-64" d="M170.4,79.9c.4,1,0,2.1-.7,2.4-.7.3-1.7-.2-2-1.2-.4-1,0-2.1.7-2.4.7-.3,1.7.2,2,1.2Z"/>
                  <path class="cls-28" d="M168.9,79.6c.2,0,.3,0,.5.1.2,0,.3.2.4.4,0,.2.1.3.2.5,0,.2,0,.3,0,.5,0,0,0,0,0,0,0,0,0,0,0,0,0-.2,0-.3,0-.5,0-.2,0-.3-.2-.4s-.2-.3-.3-.3c-.1,0-.3-.1-.4-.1,0,0,0,0,0,0s0,0,0,0h0Z"/>
                  <path class="cls-28" d="M169.9,80.6c.1.4,0,.7-.2.8s-.6,0-.7-.4c-.1-.4,0-.7.2-.8s.6,0,.7.4Z"/>
                </g>
              </g>
            </g>
            <g>
              <polygon class="cls-52" points="152.7 110 164 109.5 167.9 121.2 156.7 119.9 152.7 110"/>
              <path class="cls-41" d="M147,102.7l5.8,7.2,3.9,10c-1.5-1.8-2.9-3.6-4.4-5.3-1.8-3.9-3.6-7.9-5.4-11.8,0-.1,0-.2.2-.1h0Z"/>
              <path class="cls-17" d="M147.2,103l4.1-3.8c2.1,3.4,4.1,8.3,1.5,10.8l-5.6-7h0Z"/>
              <path class="cls-17" d="M164,109.5l1.3-2.3c-5-2.5-9.2-1.4-12.7,2.7l11.3-.4h0Z"/>
              <path class="cls-49" d="M167.9,121.2c.6-.8,1.1-1.5,1.7-2.3-1.4-3.9-2.8-7.8-4.2-11.7l-1.3,2.3c1.3,3.9,2.6,7.8,3.9,11.7h0Z"/>
              <path class="cls-49" d="M153,109.6c.7-.6,1.4-1.2,2.2-1.6.2-.1.4-.2.6-.3,0,0,.2,0,.3-.1s.2,0,.3-.1c.2,0,.4-.2.6-.2.2,0,.4-.1.7-.2.9-.2,1.8-.4,2.7-.4.9,0,1.8,0,2.7.3-.9,0-1.8,0-2.7,0-.9,0-1.8.2-2.6.5-.9.2-1.7.5-2.5.9-.8.4-1.6.8-2.3,1.3h0Z"/>
              <path class="cls-49" d="M153,109.6c.8-.5,1.6-.9,2.5-1.2.2,0,.4-.2.7-.2.1,0,.2,0,.3-.1s.2,0,.3,0c.4-.1.9-.2,1.4-.3.9-.1,1.8-.2,2.8-.2.9,0,1.8.2,2.7.4-.5,0-.9,0-1.4,0-.2,0-.5,0-.7,0h-.7c-.9,0-1.8,0-2.7.2-.9.1-1.8.3-2.7.6-.9.2-1.7.6-2.6.9h0Z"/>
              <path class="cls-49" d="M153,109.6c.8-.4,1.7-.6,2.5-.8.2,0,.4-.1.7-.1s.4,0,.7-.1c.4,0,.9-.1,1.3-.1.9,0,1.8,0,2.7.1.9.1,1.8.3,2.6.6-.9-.1-1.8-.2-2.6-.3-.9,0-1.8,0-2.6,0-.4,0-.9,0-1.3,0-.2,0-.4,0-.7,0-.2,0-.4,0-.7,0-.9.1-1.7.3-2.6.5h0Z"/>
              <path class="cls-49" d="M153,109.6c.1-.8.2-1.5.2-2.3,0-.8-.1-1.5-.3-2.2,0-.4-.2-.7-.3-1.1-.1-.4-.3-.7-.4-1-.3-.7-.8-1.3-1.2-1.9.6.5,1.1,1.1,1.5,1.8.4.7.7,1.4.9,2.2,0,.2,0,.4.1.6,0,.2,0,.4,0,.6,0,.2,0,.4,0,.6v.6c0,.8-.2,1.5-.4,2.3h0Z"/>
              <path class="cls-49" d="M153,109.6c0-.7-.2-1.4-.4-2.1,0-.2,0-.3-.2-.5,0,0,0-.2,0-.2s0-.2,0-.2c-.1-.3-.2-.6-.4-1-.3-.6-.7-1.2-1.1-1.8-.4-.6-.9-1.1-1.3-1.6.6.4,1.1.9,1.6,1.4.5.6.8,1.2,1.2,1.8.2.3.3.7.4,1,0,0,0,.2,0,.3s0,.2,0,.3c0,.2,0,.4.1.5.1.7.2,1.4.1,2.1h0Z"/>
              <path class="cls-49" d="M153,109.6c-.2-.6-.5-1.3-.8-1.9s-.7-1.2-1.1-1.7c-.4-.5-.9-1.1-1.3-1.5-.5-.5-1-.9-1.6-1.3.6.3,1.2.7,1.8,1.1s1,1,1.4,1.5c.2.3.4.6.6.9.2.3.3.6.5.9.3.6.5,1.3.6,2h0Z"/>
            </g>
            <g>
              <g>
                <path class="cls-62" d="M155.4,119.3c0,0,.2,0,.4.1,1.1.3,1.7.3,2.3.2.4,0,.8-.4.9-.8,0-.3,0-.6,0-.9-1.2.5-2.4.9-3.6,1.4h0Z"/>
                <path class="cls-60" d="M157.5,112.3c0,.9-.7,1.9-1.5,3-.1.2-.3.3-.4.4-.4.3-.8.5-1.2.6h0c-.4.2-.8.3-1.2.3,0,0-.2,0-.3,0,0,0-.2-.3-.4-.6-.3-.6-.6-1-.6-1.1-.5-.9-.7-2.4-.8-2.9.2.2.4.5.5.7.5.6.9,1.3,1.4,1.9.4-.1.8-.2,1.2-.3.8-.1,1.9-1.4,2.5-2.1.2-.2.6-.3.8,0h0Z"/>
                <path class="cls-60" d="M160.3,116.9c-.4.6-.8,1.1-1.2,1.6,0,0-.1.1-.2.2-.3.3-.7.5-1.1.5l-2.3.2h0c-.2,0-.5,0-.7-.1-.4-.2-.7-.6-.7-1h0c-.4-.2-.8-.7-1.2-1.5h.2c0,0,1.2-.4,1.2-.4h0s2.3-.6,2.3-.6c.6-.6,1.3-1.1,2-1.4.3-.1.7,0,.9.2h0c.1.2.1.4,0,.6l-.3.8.6-.4c.1,0,.3,0,.4.1h0c.2.4.2.9,0,1.2h0Z"/>
                <path class="cls-62" d="M159.4,116l-1.9,1.6h0s0,0,0,0l-2.1.4s0,0,0,0,0,0,0,0l2-.6h0s2.1-1.3,2.1-1.3h0Z"/>
                <path class="cls-62" d="M154.4,116.4c0,0-.2.1-.3.1,0,0-.2,0-.3.1s-.2,0-.3,0-.2,0-.3,0c0,0,0,0,0,0,0,0,0,0,0,0,0,0,.2-.1.3-.1,0,0,.2,0,.3,0,0,0,.2,0,.3,0,0,0,.2,0,.3,0,0,0,0,0,0,0,0,0,0,0,0,0h0Z"/>
              </g>
              <path class="cls-8" d="M154.7,119.2c-.4-.2-.7-.6-.7-1h0c-.4-.2-.8-.7-1.2-1.5,0,0-.2-.3-.4-.6-.3-.6-.6-1-.6-1.1-.5-.9-.7-2.4-.8-2.9.2.2.4.5.5.7,0,.7.3,2.1,1.1,3.3.1.2.2.4.3.6,0,0,0,0,0,0,.8,1.3,1.1,1.4,1.1,1.4,0,0,.2.7.5,1.1h0Z"/>
            </g>
          </g>
          <g>
            <g>
              <path class="cls-38" d="M206.8,91c.3,1.3.6,2.7,1,4,.4,1.3.8,2.6,1.3,3.9.2.6.5,1.3.8,1.9.3.6.5,1.2.8,1.9.3.6.6,1.2.9,1.8.3.6.6,1.2,1,1.8h-.1c-.4-.5-.8-1.1-1.1-1.7-.4-.6-.7-1.2-1-1.8-.3-.6-.6-1.2-.9-1.9-.3-.6-.5-1.3-.8-1.9-.5-1.3-.9-2.6-1.2-3.9-.3-1.3-.6-2.7-.8-4h.1s0,0,0,0Z"/>
              <path class="cls-38" d="M208.1,104.6c.4,0,.7-.1,1.1-.1.4,0,.7,0,1.1,0,.7,0,1.4,0,2.1,0,.7,0,1.4.1,2.1.2.4,0,.7.1,1.1.2.4,0,.7.2,1.1.3,0,0,.1.1,0,.2,0,0,0,0,0,0-.4,0-.7.1-1.1.1s-.7,0-1.1,0c-.7,0-1.4,0-2.1-.1-.7,0-1.4-.2-2.1-.3-.4,0-.7-.1-1.1-.2-.4,0-.7-.2-1.1-.3h0Z"/>
              <path class="cls-38" d="M211.6,104.6c.2-.3.4-.5.7-.8s.6-.4.9-.6c.3-.1.6-.2,1-.3.2,0,.3,0,.5,0,.2,0,.3,0,.5,0,0,0,0,0,0,0,0,0,0,0,0,0-.3,0-.6.2-.9.2-.3,0-.6.2-.9.3-.3.1-.6.3-.9.4-.3.1-.6.3-.9.5h0Z"/>
              <path class="cls-62" d="M189.7,111.7c.2-.4.5-.8.8-1,.4-.3.8-.5,1.2-.6,0,0,0,0,0,0s0,0,0,0c-.2,0-.4.2-.6.3-.2.1-.4.2-.5.4-.3.3-.6.6-.9.9,0,0,0,0,0,0,0,0,0,0,0,0h0Z"/>
              <path class="cls-62" d="M189.5,111.2c.1-.1.3-.2.4-.3s.4,0,.5,0c0,0,0,0,0,0,0,0,0,0,0,0-.2,0-.3,0-.5.1-.2,0-.3.1-.4.2h0s0,0,0,0Z"/>
              <path class="cls-22" d="M222.7,109.3c-.3-.2-.7-.3-1.1-.5-.7-.3-1.4-.4-1.9-.6,0-6.4-1.4-11.2-2.6-14.3-1.8-4.7-3.9-10.3-8-10.8-3-.4-5.6,2.1-6.8,3.3.5-.7,1.2-1.7,1.4-3.2,0-.3,0-.5,0-.8,1.6-.7,3-.8,4.3-.8h0c6.3-.1,11.2,9.5,14.7,27.5h0Z"/>
              <path class="cls-40" d="M211.8,115.4c-.2,0-.8-.4-1.2-1-.4-.7-.3-1.4-.3-1.6.9.2,1.8.5,2.7.8l-1.3,1.9h0Z"/>
              <path class="cls-20" d="M212.1,114.8c-.2,0-.6,0-.9-.2-1-.6-.9-2.2-.9-2.9,0-1.5-.2-3.7-1-6.9l4.2,1.6-.2,8.1c-.4.1-.8.2-1.2.4h0Z"/>
              <path class="cls-60" d="M215.3,109.6l-2.7,4.6s-13.5-5.8-14.2-5.8c-.8,0-1.7.9-3.2,1.7-1.5.8-2.3-.4-3-.4-.4,0-.6.1-.7.3-.1.2-.2.3-.2.3,0,0,.2,0,.4,0,.2,0,.3.2.3.3-.3.2-.7.5-1.1,1-.2.2-.3.4-.5.6-.2.4-.6.5-1.1.4-.2,0-.4-.1-.7-.2,0,0,0,0,0,0-1.2-.5-.7-1.9-.7-1.9-1.7-.1-1.4-1.9-1.4-1.9-1.6-.4-.8-1.8-.8-1.8l1.4-1.9-2.2-1.2c-.4-.2-.8-.3-1.2-.4-1.2-.2-1.9-.6-2.3-1-.1,0-.2-.2-.2-.3-.2-.2,0-.6.3-.6l2.8.2,4.8,1.6c.4.1.7.2,1.1.2l17.6,1.2h1.4c0,.1,2.1.5,2.1.5l3.8,4.5h0Z"/>
              <path class="cls-22" d="M209.4,104.7c1.4.6,2.1,1.4,2.5,1.9,1.7,2.2,1.6,5.7-.1,8.8.5.2,4.5,2,8.2,0,1.6-.9,2.5-2.2,3-3,0,0,0,0,0,0,.5-2.7-1-5.4-3.6-6.3-2.6-.9-6.2-1.1-10-1.3h0Z"/>
              <path class="cls-8" d="M192.2,109.7s-.3,0-.7.3c-.8.3-2,1.1-2.8,2.5-1.2-.5-.7-1.9-.7-1.9-1.7-.1-1.4-1.9-1.4-1.9-1.6-.4-.8-1.8-.8-1.8l1.4-1.9s2.2.4,2.9,1.1c.7.6,2.1,3.7,2.1,3.7h0Z"/>
              <path class="cls-62" d="M188,110.5c.2-.4.4-.7.7-1,.3-.3.6-.6.9-.9.3-.2.7-.5,1.1-.6.4-.2.8-.3,1.2-.4,0,0,0,0,0,0,0,0,0,0,0,0-.4.2-.7.3-1.1.5-.2.1-.3.2-.5.3-.2.1-.3.2-.5.3-.3.2-.6.5-.9.8-.3.3-.5.6-.8.9,0,0,0,0-.1,0,0,0,0,0,0,0h0Z"/>
              <path class="cls-8" d="M207.9,104.7c-4.8,0-8.3,0-10.6,0-4.2,0-5.1-.4-6.8-.5-1.2,0-4.6-1.4-5.4-1.8-.7-.3-2.6-.1-3.4,0-.1,0-.2-.2-.2-.3-.2-.2,0-.6.3-.6l2.8.2,4.8,1.6c.4.1.7.2,1.1.2l17.6,1.2s0,0-.1,0h0Z"/>
            </g>
            <path class="cls-62" d="M186.6,108.6c.3-.6.8-1.2,1.3-1.6.3-.2.6-.4.9-.6.3-.2.6-.3.9-.4,0,0,0,0,0,0,0,0,0,0,0,0-.3.2-.6.4-.9.6-.3.2-.5.4-.8.6s-.5.4-.7.7-.4.5-.7.8h0s0,0-.1,0c0,0,0,0,0,0h0Z"/>
          </g>
        </g>
      </g>
    </g>
  </g>
</svg>