<?xml version="1.0" encoding="utf-8"?>
<!-- Generator: Adobe Illustrator 28.2.0, SVG Export Plug-In . SVG Version: 6.00 Build 0)  -->
<svg version="1.1" id="_圖層_2" xmlns="http://www.w3.org/2000/svg" xmlns:xlink="http://www.w3.org/1999/xlink" x="0px" y="0px"
	 viewBox="0 0 218 218" style="enable-background:new 0 0 218 218;" xml:space="preserve">
<style type="text/css">
	.st0{fill:#4BD996;}
	.st1{fill:none;stroke:#FFFFFF;stroke-width:12.46;stroke-miterlimit:10;}
	.st2{opacity:0.39;fill:#41D992;enable-background:new    ;}
	.st3{fill:#FFFFFF;}
	.st4{fill:#C6D2DB;}
	.st5{fill:#2A95F5;}
	.st6{fill:#45C0FF;}
	.st7{fill:#F54F91;}
	.st8{fill:#D71D5C;}
	.st9{fill:#F75392;}
	.st10{fill:#FE84AB;}
	.st11{fill:#1D4A69;}
	.st12{fill:#1A3E57;}
	.st13{fill:#1C5F8C;}
	.st14{fill:#2271A9;}
	.st15{fill:#2880B5;}
	.st16{fill:#FFC501;}
	.st17{fill:#FD8703;}
	.st18{fill:#FF8C03;}
	.st19{fill:#CE4538;}
	.st20{fill:#DBDBDB;}
	.st21{fill:#F4F4F4;}
	.st22{fill:#EDEDED;}
	.st23{fill:#C5C9C9;}
	.st24{fill:#BABDBD;}
	.st25{fill:#A8ABAB;}
	.st26{fill:#E54C3C;}
</style>
<g id="_圖層_8">
	<g id="Topic_exploration5">
		<g>
			<path class="st0" d="M109,0c-1.6,0-3.2,0-4.8,0.1l0.3,8c0.4,0,0.8,0,1.2,0c0,0,0,0,0,0h0c0,0,0,0,0,0c0,0,0,0,0,0c0,0,0,0,0,0
				c0,0,0,0,0,0c0,0,0,0,0,0l0,0c0,0,0.1,0,0.1,0l0,0c0,0,0,0,0,0l0,0c0.6,0,1.3,0,1.9,0l0,0c0,0,0,0,0,0l0,0c0,0,0,0,0,0l0,0
				c0,0,0.1,0,0.1,0l0,0c0,0,0,0,0,0l0,0c0,0,0,0,0,0c0,0,0,0,0,0h0c0,0,0,0,0,0s0,0,0,0l0,0c0,0,0,0,0.1,0l0,0c0,0,0,0,0,0
				c0,0,0,0,0,0h0c0,0,0,0,0,0c0,0,0,0,0,0h0c0,0,0,0,0,0c0,0,0,0,0,0c0,0,0,0,0,0h0c0,0,0,0,0,0c0,0,0,0,0,0h0h0c0,0,0,0,0,0h0
				c0,0,0,0,0,0h0c0,0,0,0,0,0c0,0,0,0,0,0h0c0,0,0,0,0,0h0h0h0.1c0,0,0,0,0,0h0.1L109,0L109,0L109,0z M101.3,0.3
				c-1.6,0.1-3.2,0.3-4.8,0.4l0.9,8c0.8-0.1,1.7-0.2,2.5-0.2l0,0c0,0,0,0,0,0l0,0c0,0,0,0,0,0l0,0c0,0,0,0,0,0l0,0c0,0,0,0,0,0l0,0
				c0,0,0.1,0,0.1,0c0,0,0,0,0,0c0,0,0,0,0,0h0c0,0,0,0,0,0c0,0,0,0,0,0c0,0,0,0,0,0h0c0,0,0,0,0,0c0,0,0,0,0,0c0,0,0,0,0,0
				c0,0,0.1,0,0.1,0l0,0c0,0,0,0,0,0l0,0c0,0,0,0,0,0l0,0c0,0,0,0,0,0l0,0c0.4,0,0.9-0.1,1.3-0.1L101.3,0.3L101.3,0.3L101.3,0.3z
				 M93.7,1.1c-1.6,0.2-3.2,0.5-4.7,0.8l1.5,7.9c1.4-0.3,2.9-0.5,4.4-0.7L93.7,1.1L93.7,1.1L93.7,1.1z M86.1,2.4
				c-1.6,0.3-3.1,0.7-4.7,1.1l2,7.8c1.1-0.3,2.1-0.5,3.2-0.8c0,0,0,0,0,0c0,0,0,0,0,0c0,0,0,0,0,0c0,0,0,0,0,0c0,0,0,0,0,0
				c0,0,0,0,0,0h0c0,0,0,0,0,0h0c0,0,0,0,0,0c0.3-0.1,0.7-0.1,1-0.2L86.1,2.4L86.1,2.4L86.1,2.4z M78.7,4.3
				c-1.5,0.4-3.1,0.9-4.6,1.4l2.6,7.6c0.5-0.2,1-0.3,1.5-0.5c0,0,0,0,0,0c0,0,0,0,0.1,0h0c0,0,0,0,0,0c0,0,0,0,0,0c0,0,0,0,0,0
				c0,0,0,0,0.1,0c0,0,0,0,0,0c0,0,0,0,0.1,0c0,0,0,0,0,0c0,0,0,0,0.1,0l0,0c0.8-0.2,1.6-0.5,2.3-0.7L78.7,4.3L78.7,4.3L78.7,4.3z
				 M71.4,6.7c-1.5,0.6-3,1.1-4.5,1.8l3.1,7.4c0.8-0.3,1.5-0.6,2.2-0.9l0,0c0,0,0,0,0.1,0l0,0c0,0,0,0,0.1,0c0,0,0,0,0,0
				c0,0,0,0,0.1,0c0,0,0,0,0,0c0,0,0,0,0,0c0,0,0,0,0,0l0,0c0,0,0,0,0,0c0,0,0,0,0,0c0,0,0,0,0,0c0,0,0,0,0,0c0,0,0,0,0.1,0l0,0
				c0.5-0.2,0.9-0.4,1.4-0.5L71.4,6.7L71.4,6.7L71.4,6.7z M64.3,9.6c-1.5,0.6-2.9,1.4-4.3,2.1l3.6,7.1c0.1-0.1,0.3-0.1,0.4-0.2l0,0
				c0,0,0,0,0.1,0l0,0c0,0,0,0,0.1,0l0,0c0,0,0,0,0.1,0l0,0c0,0,0,0,0.1,0c0,0,0,0,0,0c0,0,0,0,0.1,0c0,0,0,0,0,0c0,0,0,0,0.1,0
				c0,0,0,0,0,0c0,0,0,0,0,0c0,0,0,0,0,0c0,0,0,0,0,0c0,0,0,0,0,0c0,0,0,0,0,0c0,0,0,0,0,0c0,0,0,0,0,0c0,0,0,0,0,0c0,0,0,0,0,0
				c0,0,0,0,0,0c0,0,0,0,0,0c0,0,0,0,0,0c0,0,0,0,0,0l0,0c0,0,0,0,0,0c0,0,0,0,0,0c0,0,0,0,0,0c0,0,0,0,0,0c0,0,0,0,0,0c0,0,0,0,0,0
				c0,0,0,0,0,0c0,0,0,0,0,0c0,0,0,0,0,0c0,0,0,0,0,0c0,0,0,0,0,0c0,0,0,0,0,0c0,0,0,0,0,0c0,0,0,0,0,0c0,0,0,0,0,0s0,0,0,0
				c0,0,0,0,0,0c0,0,0,0,0,0c0,0,0,0,0,0c0,0,0,0,0,0c0,0,0,0,0,0c0,0,0,0,0,0c0,0,0,0,0,0s0,0,0,0c0,0,0,0,0,0c0,0,0,0,0,0
				c0,0,0,0,0,0c0,0,0,0,0,0c0,0,0,0,0,0c0,0,0,0,0,0c0,0,0,0,0,0c0,0,0,0,0,0c0,0,0,0,0,0c0,0,0,0,0,0c0,0,0,0,0,0h0c0,0,0,0,0,0
				c0,0,0,0,0,0c0,0,0,0,0.1,0c0,0,0,0,0,0c0,0,0,0,0.1,0c0,0,0,0,0,0c0,0,0,0,0.1,0c0,0,0,0,0,0s0,0,0.1,0c0,0,0,0,0,0s0,0,0.1,0
				c0,0,0,0,0,0c0,0,0,0,0.1,0c0,0,0,0,0,0c0,0,0,0,0.1,0c0,0,0,0,0,0c0,0,0,0,0.1,0l0,0c0,0,0,0,0.1,0l0,0c0,0,0,0,0.1,0l0,0
				c0,0,0,0,0.1,0l0,0c0,0,0,0,0.1,0l0,0c0,0,0,0,0.1,0l0,0c0,0,0,0,0.1,0l0,0c0,0,0.1,0,0.1-0.1l0,0c0,0,0,0,0.1,0l0,0
				c0,0,0,0,0.1,0l0,0c0.1,0,0.2-0.1,0.2-0.1l0,0c0,0,0,0,0.1,0l0,0c0,0,0,0,0.1,0l0,0c0,0,0,0,0.1,0l-3.3-7.3l0,0L64.3,9.6z
				 M57.4,13c-1.4,0.8-2.8,1.6-4.2,2.4l4.1,6.9c1.2-0.7,2.3-1.4,3.5-2l0,0c0,0,0,0,0,0c0,0,0,0,0,0c0,0,0,0,0,0c0,0,0,0,0,0
				c0,0,0,0,0,0c0,0,0,0,0,0c0,0,0,0,0,0c0,0,0,0,0,0c0,0,0,0,0,0c0,0,0,0,0,0l0,0L57.4,13L57.4,13L57.4,13z M50.8,16.9
				c-1.3,0.9-2.7,1.8-4,2.7l4.6,6.6c0,0,0,0,0,0c0,0,0,0,0,0c0,0,0,0,0,0c0,0,0,0,0,0c0,0,0,0,0,0c0,0,0,0,0,0c0,0,0,0,0,0
				c0,0,0,0,0,0c0,0,0,0,0,0c0,0,0,0,0,0l0,0c0,0,0,0,0,0l0,0c0,0,0.1,0,0.1-0.1l0,0c0,0,0,0,0.1,0l0,0c0,0,0,0,0.1,0l0,0
				c0.7-0.4,1.3-0.9,2-1.3l0,0c0,0,0,0,0,0l0,0c0,0,0,0,0,0c0,0,0,0,0,0c0,0,0,0,0,0c0,0,0,0,0,0s0,0,0,0c0,0,0,0,0,0c0,0,0,0,0,0
				c0,0,0,0,0,0c0,0,0,0,0,0c0,0,0,0,0,0c0,0,0,0,0,0c0,0,0,0,0,0c0,0,0,0,0,0c0,0,0,0,0,0l0,0c0,0,0,0,0.1,0l0,0
				c0.2-0.1,0.4-0.3,0.6-0.4L50.8,16.9L50.8,16.9L50.8,16.9z M44.4,21.2c-1.3,0.9-2.6,1.9-3.8,2.9l5,6.2c0.3-0.2,0.6-0.5,0.9-0.7
				l0,0c0,0,0,0,0,0l0,0c0,0,0,0,0,0l0,0c0,0,0,0,0,0l0,0c0,0,0,0,0,0l0,0c0,0,0,0,0,0l0,0c0,0,0,0,0,0c0,0,0,0,0,0c0,0,0,0,0,0
				c0,0,0,0,0,0s0,0,0,0c0,0,0,0,0,0c0,0,0,0,0,0c0,0,0,0,0,0c0,0,0,0,0,0c0,0,0,0,0,0c0,0,0,0,0,0c0,0,0,0,0,0c0,0,0,0,0,0
				c0,0,0,0,0,0c0,0,0,0,0,0c0,0,0,0,0,0c0,0,0,0,0,0c0,0,0,0,0,0c0,0,0,0,0,0c0,0,0,0,0,0c0,0,0,0,0,0c0,0,0,0,0,0c0,0,0,0,0,0
				c0,0,0,0,0,0c0,0,0,0,0,0c0,0,0,0,0,0c0,0,0,0,0,0l0,0c0,0,0,0,0,0l0,0c0,0,0,0,0,0c0,0,0,0,0,0c0,0,0,0,0,0c0,0,0,0,0,0
				c0,0,0,0,0,0c0,0,0,0,0,0l0,0c0,0,0,0,0,0l0,0c0.1,0,0.1-0.1,0.2-0.2l0,0c0.4-0.3,0.7-0.5,1.1-0.8L44.4,21.2L44.4,21.2L44.4,21.2
				z M38.4,26c-1.2,1-2.4,2.1-3.6,3.2l5.5,5.9c0.9-0.8,1.8-1.6,2.7-2.4l0,0c0,0,0,0,0,0l0,0c0,0,0,0,0,0l0,0c0,0,0,0,0,0
				c0,0,0,0,0,0c0,0,0,0,0,0c0,0,0,0,0,0c0,0,0,0,0,0c0,0,0,0,0,0c0,0,0,0,0,0c0,0,0,0,0,0c0,0,0,0,0,0s0,0,0,0l0,0c0,0,0,0,0,0l0,0
				c0,0,0,0,0,0l0,0c0,0,0.1-0.1,0.2-0.1L38.4,26L38.4,26L38.4,26z M32.7,31.2c-1.1,1.1-2.3,2.3-3.4,3.4l5.9,5.5
				c0.8-0.8,1.6-1.7,2.4-2.5l0,0c0,0,0,0,0,0l0,0c0,0,0,0,0,0l0,0c0,0,0,0,0,0c0,0,0,0,0,0s0,0,0,0c0,0,0,0,0,0c0,0,0,0,0,0
				c0,0,0,0,0,0c0,0,0,0,0,0l0,0l0,0c0,0,0,0,0,0l0,0c0,0,0,0,0,0l0,0c0.1-0.1,0.2-0.2,0.3-0.3L32.7,31.2L32.7,31.2L32.7,31.2z
				 M27.4,36.7c-1.1,1.2-2.1,2.4-3.1,3.7l6.2,5c0,0,0,0,0.1-0.1c0,0,0,0,0,0l0,0c0,0,0,0,0,0c0,0,0,0,0,0c0,0,0,0,0,0c0,0,0,0,0,0
				c0,0,0,0,0,0l0,0c0,0,0,0,0,0l0,0c0,0,0,0,0,0l0,0c0,0,0,0,0,0l0,0c0.3-0.4,0.7-0.8,1-1.2l0,0c0,0,0,0,0,0l0,0c0,0,0,0,0,0l0,0
				c0,0,0,0,0,0l0,0c0,0,0,0,0,0l0,0c0,0,0,0,0,0c0,0,0,0,0,0c0,0,0,0,0,0c0,0,0,0,0,0s0,0,0,0c0,0,0,0,0,0c0,0,0,0,0,0c0,0,0,0,0,0
				c0,0,0,0,0,0l0,0c0,0,0,0,0,0c0,0,0,0,0,0c0,0,0,0,0,0c0,0,0,0,0,0c0,0,0,0,0,0c0,0,0,0,0.1-0.1l0,0c0,0,0,0,0,0l0,0c0,0,0,0,0,0
				l0,0c0.3-0.3,0.5-0.6,0.8-0.9L27.4,36.7L27.4,36.7L27.4,36.7z M22.5,42.6c-1,1.3-1.9,2.6-2.8,3.9l6.6,4.6
				c0.9-1.2,1.7-2.4,2.6-3.6L22.5,42.6C22.5,42.6,22.5,42.6,22.5,42.6z M18.1,48.9c-0.9,1.3-1.7,2.7-2.6,4.1l6.9,4.1
				c0.1-0.2,0.3-0.5,0.4-0.7l0,0c0,0,0,0,0-0.1l0,0c0,0,0,0,0-0.1l0,0c0,0,0,0,0-0.1l0,0c0,0,0-0.1,0.1-0.1l0,0c0,0,0,0,0,0l0,0
				c0,0,0,0,0,0l0,0c0,0,0,0,0,0l0,0c0,0,0,0,0-0.1l0,0c0,0,0,0,0-0.1l0,0c0,0,0,0,0,0l0,0l0,0c0,0,0,0,0,0c0,0,0,0,0,0l0,0
				c0,0,0,0,0,0c0,0,0,0,0,0c0,0,0,0,0,0l0,0c0,0,0,0,0,0c0,0,0,0,0,0c0,0,0,0,0,0c0,0,0,0,0,0s0,0,0,0v0c0,0,0,0,0,0c0,0,0,0,0,0
				c0,0,0,0,0,0c0,0,0,0,0,0c0,0,0,0,0,0c0,0,0,0,0,0c0,0,0,0,0,0l0,0c0,0,0,0,0-0.1c0,0,0,0,0,0s0,0,0,0c0,0,0,0,0,0c0,0,0,0,0,0
				c0,0,0,0,0,0c0,0,0,0,0,0c0,0,0,0,0,0s0,0,0,0c0,0,0,0,0,0s0,0,0,0c0,0,0,0,0,0c0,0,0,0,0,0c0,0,0,0,0,0c0,0,0,0,0,0c0,0,0,0,0,0
				c0,0,0,0,0,0c0,0,0,0,0,0c0,0,0,0,0,0c0,0,0,0,0,0c0,0,0,0,0,0l0,0c0,0,0,0,0,0l0,0c0,0,0,0,0,0c0,0,0,0,0,0c0,0,0,0,0,0
				c0,0,0,0,0,0c0,0,0,0,0,0l0,0c0,0,0,0,0,0l0,0c0,0,0-0.1,0.1-0.1l0,0c0,0,0,0,0-0.1l0,0c0,0,0,0,0-0.1l0,0
				c0.1-0.2,0.2-0.4,0.4-0.6L17.9,49l0,0L18.1,48.9z M14.1,55.4c-0.8,1.4-1.6,2.8-2.3,4.2l7.1,3.6l0,0c0.5-0.9,0.9-1.8,1.4-2.7l0,0
				c0,0,0,0,0-0.1l0,0c0-0.1,0.1-0.1,0.1-0.2l0,0c0,0,0,0,0-0.1l0,0c0,0,0,0,0-0.1l0,0c0,0,0,0,0-0.1l0,0c0-0.1,0.1-0.1,0.1-0.2l0,0
				c0,0,0,0,0-0.1l0,0c0.1-0.2,0.2-0.4,0.3-0.6L14.1,55.4L14.1,55.4L14.1,55.4z M10.5,62.3c-0.7,1.4-1.4,2.9-2,4.4l7.4,3.1
				c0.6-1.4,1.2-2.7,1.8-4.1L10.5,62.3C10.5,62.3,10.5,62.3,10.5,62.3z M7.5,69.3c-0.6,1.5-1.1,3-1.7,4.5l7.6,2.6
				c0-0.1,0.1-0.2,0.1-0.3l0,0c0,0,0,0,0-0.1c0,0,0,0,0,0c0,0,0,0,0,0c0,0,0,0,0,0c0,0,0,0,0,0c0,0,0,0,0,0v0c0,0,0,0,0,0
				c0,0,0,0,0,0c0,0,0,0,0-0.1l0,0c0,0,0-0.1,0-0.1l0,0c0,0,0,0,0-0.1l0,0c0,0,0,0,0-0.1l0,0c0.3-0.7,0.5-1.5,0.8-2.2l0,0
				c0,0,0,0,0-0.1l0,0c0,0,0,0,0-0.1l0,0c0,0,0,0,0-0.1l0,0c0,0,0,0,0-0.1c0,0,0,0,0,0c0,0,0,0,0-0.1c0,0,0,0,0,0c0,0,0,0,0-0.1
				c0,0,0,0,0,0c0,0,0,0,0,0c0,0,0,0,0,0c0,0,0,0,0,0c0,0,0,0,0-0.1c0,0,0,0,0,0c0.1-0.2,0.1-0.4,0.2-0.5L7.5,69.3L7.5,69.3
				L7.5,69.3z M4.9,76.6c-0.5,1.5-0.9,3.1-1.3,4.6l7.7,2c0.4-1.4,0.8-2.9,1.2-4.3L4.9,76.6L4.9,76.6L4.9,76.6z M2.9,84
				c-0.4,1.6-0.7,3.1-1,4.7l7.9,1.5c0.1-0.3,0.1-0.5,0.1-0.8l0,0c0,0,0,0,0,0l0,0c0,0,0,0,0,0l0,0c0,0,0,0,0,0c0,0,0,0,0,0
				c0,0,0,0,0,0c0,0,0,0,0,0c0,0,0,0,0,0v0c0,0,0,0,0,0c0,0,0,0,0,0l0,0c0,0,0,0,0,0l0,0c0,0,0,0,0,0l0,0c0.1-0.8,0.3-1.5,0.5-2.3
				l0,0c0,0,0-0.1,0-0.1l0,0c0-0.1,0-0.2,0.1-0.3l0,0c0.1-0.2,0.1-0.4,0.1-0.6L2.9,84L2.9,84L2.9,84z M1.4,91.5
				c-0.2,1.6-0.5,3.2-0.7,4.8l7.9,0.9c0.1-0.6,0.1-1.3,0.2-1.9l0,0c0,0,0,0,0,0l0,0c0,0,0,0,0,0l0,0c0,0,0,0,0,0l0,0
				c0,0,0-0.1,0-0.1c0,0,0,0,0,0c0,0,0,0,0,0c0,0,0,0,0,0c0,0,0,0,0,0c0,0,0,0,0,0c0,0,0,0,0,0c0,0,0,0,0,0c0,0,0,0,0,0c0,0,0,0,0,0
				c0,0,0-0.1,0-0.1c0,0,0,0,0,0c0,0,0,0,0,0c0,0,0,0,0,0c0,0,0,0,0,0c0,0,0,0,0,0c0,0,0,0,0,0c0,0,0,0,0,0c0,0,0,0,0,0c0,0,0,0,0,0
				v0l0,0c0,0,0,0,0-0.1l0,0c0,0,0,0,0,0l0,0c0,0,0,0,0,0c0,0,0,0,0,0c0,0,0,0,0,0c0,0,0,0,0,0v0c0,0,0,0,0,0c0,0,0,0,0,0l0,0
				c0-0.1,0-0.1,0-0.2l0,0c0,0,0,0,0,0l0,0c0,0,0,0,0,0l0,0c0.1-0.4,0.1-0.9,0.2-1.3l-7.9-1.3l0,0L1.4,91.5z M0.5,99.1
				c-0.1,1.6-0.2,3.2-0.3,4.8l8,0.4c0-0.7,0.1-1.4,0.1-2.2l0,0v0c0,0,0,0,0,0c0,0,0,0,0,0c0,0,0,0,0,0v0c0,0,0,0,0,0c0,0,0,0,0,0
				c0,0,0-0.1,0-0.1l0,0c0,0,0,0,0,0l0,0c0,0,0,0,0,0l0,0c0-0.6,0.1-1.3,0.1-1.9l0,0v0l0,0L0.5,99.1L0.5,99.1L0.5,99.1z M0.1,106.8
				c0,0.7,0,1.5,0,2.2c0,0.9,0,1.7,0,2.6l8-0.2c0-0.2,0-0.4,0-0.6l0,0v0c0,0,0,0,0,0c0,0,0,0,0,0v0c0,0,0,0,0,0s0,0,0,0l0,0
				c0,0,0,0,0,0l0,0c0-0.4,0-0.8,0-1.3l0,0c0,0,0,0,0,0l0,0c0,0,0,0,0,0l0,0c0,0,0,0,0,0l0,0c0,0,0,0,0,0c0,0,0,0,0,0c0,0,0,0,0,0
				l0,0c0,0,0,0,0,0l0,0v-0.1c0,0,0,0,0,0l0,0V109l0,0V109l0,0c0,0,0-0.1,0-0.1c0,0,0,0,0,0c0,0,0,0,0-0.1v0c0,0,0,0,0-0.1
				c0,0,0,0,0,0c0,0,0,0,0,0v0c0,0,0,0,0-0.1c0,0,0,0,0,0s0,0,0,0c0,0,0,0,0-0.1c0,0,0,0,0,0c0,0,0,0,0,0l0,0c0,0,0-0.1,0-0.1l0,0
				c0-0.4,0-0.9,0-1.3c0,0,0,0,0,0v0c0,0,0,0,0-0.1l0,0L0.1,106.8L0.1,106.8L0.1,106.8z M8.2,114.1l-8,0.4c0.1,1.6,0.2,3.2,0.3,4.8
				l8-0.7c0-0.3-0.1-0.7-0.1-1l0,0c0,0,0,0,0,0l0,0c0,0,0,0,0,0c0,0,0,0,0,0v0c0,0,0,0,0,0l0,0c0,0,0,0,0,0l0,0c0,0,0,0,0,0l0,0
				c0,0,0,0,0,0l0,0C8.3,116.2,8.2,115.2,8.2,114.1L8.2,114.1L8.2,114.1z M8.8,121.2l-7.9,0.9c0.2,1.6,0.4,3.2,0.7,4.8l7.9-1.3
				C9.2,124.1,8.9,122.6,8.8,121.2L8.8,121.2L8.8,121.2z M9.9,128.2L2,129.7c0.3,1.6,0.6,3.1,1,4.7l7.8-1.9
				c-0.1-0.4-0.2-0.9-0.3-1.3l0,0c0,0,0,0,0,0l0,0c0,0,0-0.1,0-0.1l0,0c0,0,0,0,0,0v0c0,0,0,0,0,0c0,0,0,0,0,0c0,0,0,0,0,0v0l0,0
				c0,0,0,0,0,0l0,0C10.3,130,10.1,129.1,9.9,128.2L9.9,128.2L9.9,128.2z M11.5,135.1l-7.7,2.1c0.4,1.5,0.9,3.1,1.3,4.6l7.6-2.4
				c-0.2-0.7-0.4-1.4-0.6-2.1l0,0c0,0,0,0,0-0.1l0,0c0,0,0-0.1,0-0.1l0,0c0,0,0,0,0-0.1l0,0c0,0,0,0,0-0.1c0,0,0,0,0,0
				c0,0,0,0,0-0.1c0,0,0,0,0,0c0,0,0,0,0-0.1l0,0c0,0,0-0.1,0-0.1c0,0,0,0,0,0c0,0,0,0,0-0.1v0c0,0,0,0,0-0.1c0,0,0,0,0,0
				c0,0,0,0,0-0.1c0,0,0,0,0,0c0,0,0,0,0-0.1c0,0,0,0,0,0s0,0,0,0s0,0,0,0c0,0,0,0,0,0v0c0,0,0,0,0,0s0,0,0,0c0,0,0,0,0,0
				c0,0,0,0,0-0.1v0c0,0,0,0,0-0.1c0,0,0,0,0,0c0,0,0,0,0-0.1l0,0c0-0.1,0-0.1-0.1-0.2l0,0c0,0,0-0.1,0-0.1l0,0
				C11.7,135.6,11.6,135.4,11.5,135.1L11.5,135.1L11.5,135.1z M13.5,141.9L6,144.6c0.5,1.5,1.1,3,1.7,4.5l7.5-2.9
				C14.5,144.7,14,143.4,13.5,141.9L13.5,141.9L13.5,141.9z M16.1,148.6l-7.4,3.1c0.6,1.5,1.3,2.9,2,4.4l7.2-3.5
				c-0.2-0.4-0.4-0.9-0.6-1.3l0,0c0,0,0,0,0-0.1l0,0c0,0,0,0,0-0.1l0,0c0,0,0,0,0-0.1l0,0c0,0,0,0,0-0.1c0,0,0,0,0,0c0,0,0,0,0-0.1
				c0,0,0,0,0,0c0,0,0,0,0-0.1c0,0,0,0,0,0c0,0,0,0,0,0c0,0,0,0,0,0c0,0,0,0,0,0c0,0,0,0,0,0c0,0,0,0,0,0c0,0,0,0,0-0.1c0,0,0,0,0,0
				c0,0,0,0,0-0.1l0,0C16.7,150,16.4,149.3,16.1,148.6L16.1,148.6L16.1,148.6z M19.1,155l-7.1,3.6c0.7,1.4,1.5,2.8,2.3,4.2l7-4
				c0,0,0,0,0,0s0,0,0,0c0,0,0,0,0,0c0,0,0,0,0,0c0,0,0,0,0-0.1v0c-0.5-0.9-1-1.8-1.5-2.7l0,0c0,0,0,0,0-0.1l0,0c0,0,0,0,0-0.1
				c0,0,0,0,0,0l0,0c0,0,0,0,0,0c0,0,0,0,0,0c0,0,0,0,0,0c0,0,0,0,0,0c0,0,0,0,0,0c0,0,0,0,0,0c0,0,0,0,0-0.1c0,0,0,0,0,0
				c0,0,0,0,0-0.1l0,0c0,0,0,0,0-0.1l0,0C19.3,155.4,19.2,155.2,19.1,155L19.1,155L19.1,155z M22.6,161.2l-6.9,4.1
				c0.8,1.4,1.7,2.7,2.6,4.1L25,165c-0.3-0.5-0.7-1-1-1.5l0,0c0,0,0,0,0-0.1l0,0c0,0,0,0,0-0.1l0,0c0,0,0,0,0-0.1l0,0c0,0,0,0,0-0.1
				l0,0c0,0,0,0,0-0.1l0,0c0,0,0,0,0-0.1c0,0,0,0,0,0c0,0,0,0,0-0.1c0,0,0,0,0,0c0,0,0,0,0-0.1c0,0,0,0,0,0c0,0,0,0,0-0.1
				c0,0,0,0,0,0s0,0,0,0c0,0,0,0,0,0s0,0,0,0c0,0,0,0,0,0s0,0,0,0c0,0,0,0,0,0c0,0,0,0,0,0c0,0,0,0,0,0c0,0,0,0,0,0c0,0,0,0,0,0
				c0,0,0,0,0,0c0,0,0,0,0,0s0,0,0,0c0,0,0,0,0,0c0,0,0,0,0,0v0c0,0,0,0,0,0c0,0,0,0,0,0c0,0,0,0,0,0c0,0,0,0,0,0c0,0,0,0,0,0
				c0,0,0,0,0,0c0,0,0,0,0,0c0,0,0,0,0,0c0,0,0,0,0,0c0,0,0,0,0,0c0,0,0,0,0,0c0,0,0,0,0,0c0,0,0,0,0,0c0,0,0,0,0,0c0,0,0,0,0,0
				c0,0,0,0,0,0c0,0,0,0,0,0c0,0,0,0,0,0c0,0,0,0,0,0c0,0,0,0,0,0c0,0,0,0,0,0c0,0,0,0,0,0c0,0,0,0,0,0c0,0,0,0,0,0c0,0,0,0,0,0
				c0,0,0,0,0,0c0,0,0,0,0,0c0,0,0,0,0,0c0,0,0,0,0,0c0,0,0,0,0,0c0,0,0,0,0,0c0,0,0,0,0,0c0,0,0,0,0,0c0,0,0,0,0,0c0,0,0,0,0,0
				c0,0,0,0,0,0c0,0,0,0,0-0.1c0,0,0,0,0,0c0,0,0,0,0-0.1c0,0,0,0,0,0c0,0,0,0,0-0.1l0,0l0,0L22.6,161.2z M26.5,167.2l-6.5,4.6
				c0.9,1.3,1.9,2.6,2.9,3.9l6.3-4.9c-0.6-0.8-1.1-1.5-1.7-2.3l0,0c0,0,0,0,0-0.1l0,0c0,0,0,0,0-0.1c0,0,0,0,0,0s0,0,0,0
				c0,0,0,0,0,0c0,0,0,0,0,0c0,0,0,0,0,0c0,0,0,0,0,0c0,0,0,0,0,0c0,0,0,0,0,0c0,0,0,0,0,0c0,0,0,0,0,0c0,0,0-0.1-0.1-0.1l0,0
				c0,0,0,0,0-0.1l0,0C26.9,167.7,26.7,167.5,26.5,167.2L26.5,167.2L26.5,167.2z M30.8,172.9l-6.2,5.1c1,1.2,2.1,2.5,3.1,3.6l6-5.3
				c0-0.1-0.1-0.1-0.2-0.2c0,0,0,0,0,0l0,0c0,0,0,0,0,0c0,0,0,0,0,0s0,0,0,0l0,0c0,0,0,0,0-0.1l0,0c0,0,0,0,0-0.1l0,0
				c-0.5-0.6-1.1-1.2-1.6-1.8l0,0c0,0,0,0,0-0.1l0,0c0,0,0,0,0,0c0,0,0,0,0,0c0,0,0,0,0,0c0,0,0,0,0,0s0,0,0,0c0,0,0,0,0,0
				c0,0,0,0,0,0c0,0,0,0,0,0c0,0,0,0,0,0c0,0,0,0,0-0.1l0,0C31.2,173.4,31,173.2,30.8,172.9L30.8,172.9L30.8,172.9z M35.5,178.2
				l-5.8,5.5c1.1,1.2,2.2,2.3,3.4,3.4l5.6-5.7l0,0c0,0,0,0,0,0c0,0,0,0,0,0s0,0,0,0c0,0,0,0,0,0s0,0,0,0c0,0,0,0,0,0c0,0,0,0,0,0
				c0,0,0,0,0,0c0,0,0,0,0,0c0,0,0,0,0,0c0,0,0,0,0,0c0,0,0,0,0,0c0,0,0,0,0,0c0,0-0.1-0.1-0.1-0.1l0,0c0,0,0,0,0-0.1l0,0
				c0,0,0,0,0-0.1l0,0c-0.3-0.3-0.5-0.6-0.8-0.8l0,0c0,0,0,0,0-0.1l0,0c0,0,0,0,0-0.1l0,0c0,0-0.1-0.1-0.1-0.1l0,0c0,0,0,0,0-0.1
				c0,0,0,0,0,0s0,0,0,0c0,0,0,0,0,0s0,0,0,0c0,0,0,0,0,0c0,0,0,0,0,0c0,0,0,0,0,0c0,0,0,0,0,0c0,0,0,0,0,0c0,0,0,0,0,0c0,0,0,0,0,0
				c0,0,0,0,0,0c0,0,0,0,0,0c0,0,0,0,0,0c0,0,0,0,0,0c0,0,0,0,0,0c0,0,0,0,0,0l0,0c0,0,0,0,0,0l0,0c0,0,0,0,0,0l0,0
				C36.2,178.9,35.8,178.6,35.5,178.2L35.5,178.2L35.5,178.2z M40.5,183.2l-5.4,5.9c1.2,1.1,2.4,2.1,3.6,3.2l5.2-6.1
				c-0.6-0.5-1.1-1-1.7-1.4l0,0c-0.1-0.1-0.2-0.1-0.3-0.2l0,0c0,0,0,0,0,0l0,0c0,0,0,0,0,0l0,0c0,0,0,0,0,0l0,0c0,0-0.1-0.1-0.1-0.1
				l0,0c0,0,0,0,0,0l0,0c0,0,0,0,0,0l0,0c0,0,0,0,0,0l0,0c0,0,0,0,0,0l0,0c0,0,0,0,0,0l0,0c0,0,0,0,0,0l0,0c0,0,0,0,0,0l0,0
				c0,0,0,0,0,0c0,0,0,0,0,0c0,0,0,0,0,0c0,0,0,0,0,0c0,0,0,0,0,0c0,0,0,0,0,0c0,0,0,0,0,0l0,0c0,0,0,0,0,0l0,0c0,0,0,0,0,0
				c0,0,0,0,0,0s0,0,0,0c0,0,0,0,0,0s0,0,0,0c0,0,0,0,0,0s0,0,0,0c0,0,0,0,0,0c0,0,0,0,0,0c0,0,0,0,0,0c0,0,0,0,0,0c0,0,0,0,0,0
				c0,0,0,0,0,0c0,0,0,0,0,0c0,0,0,0,0,0c0,0,0,0,0,0c0,0,0,0,0,0c0,0,0,0,0,0c0,0,0,0,0,0c0,0,0,0,0,0l0,0L40.5,183.2z M45.9,187.9
				l-5,6.2c1.2,1,2.5,2,3.8,2.9l4.7-6.5c-0.4-0.3-0.7-0.5-1.1-0.8l0,0c0,0,0,0-0.1-0.1l0,0c0,0,0,0,0,0c0,0,0,0,0,0c0,0,0,0,0,0
				c0,0,0,0,0,0c0,0,0,0,0,0c0,0,0,0,0,0c0,0,0,0,0,0c0,0,0,0,0,0c0,0,0,0,0,0c0,0,0,0,0,0c0,0,0,0,0,0c0,0,0,0,0,0l0,0c0,0,0,0,0,0
				l0,0C47.3,188.9,46.6,188.4,45.9,187.9L45.9,187.9L45.9,187.9z M51.6,192.1l-4.6,6.6c1.3,0.9,2.7,1.8,4,2.6l4.3-6.8
				c-0.3-0.2-0.6-0.4-0.9-0.6l0,0c0,0,0,0-0.1,0l0,0c0,0,0,0,0,0c0,0,0,0,0,0c0,0,0,0,0,0c0,0,0,0,0,0c0,0,0,0,0,0c0,0,0,0,0,0
				c0,0,0,0,0,0c0,0,0,0,0,0c0,0,0,0,0,0c0,0,0,0,0,0c0,0,0,0,0,0c0,0,0,0,0,0c0,0,0,0,0,0s0,0,0,0c0,0,0,0,0,0c0,0,0,0,0,0l0,0
				c0,0,0,0,0,0l0,0C53.1,193.1,52.4,192.7,51.6,192.1L51.6,192.1L51.6,192.1z M57.6,195.9l-4.1,6.9c1.4,0.8,2.8,1.6,4.2,2.4
				l3.8-7.1c-0.7-0.4-1.5-0.8-2.2-1.2l0,0c0,0,0,0-0.1,0c0,0,0,0,0,0c0,0,0,0,0,0c0,0,0,0,0,0c0,0,0,0,0,0c0,0,0,0,0,0c0,0,0,0,0,0
				c0,0,0,0,0,0c0,0,0,0,0,0c0,0,0,0,0,0c0,0,0,0,0,0c0,0,0,0,0,0c0,0,0,0,0,0c0,0,0,0,0,0l0,0c0,0,0,0,0,0l0,0c0,0,0,0-0.1,0l0,0
				c0,0,0,0,0,0l0,0c0,0,0,0-0.1,0l0,0C58.3,196.4,58,196.2,57.6,195.9L57.6,195.9L57.6,195.9z M63.9,199.4l-3.6,7.2
				c1.4,0.7,2.9,1.4,4.3,2.1l3.3-7.3c-0.1,0-0.1-0.1-0.2-0.1l0,0c0,0,0,0-0.1,0c0,0,0,0,0,0c0,0,0,0,0,0c0,0,0,0,0,0c0,0,0,0,0,0
				c0,0,0,0,0,0c0,0,0,0,0,0c0,0,0,0-0.1,0c0,0,0,0,0,0c0,0,0,0-0.1,0c0,0,0,0,0,0c0,0,0,0-0.1,0l0,0c0,0,0,0-0.1,0l0,0
				c0,0,0,0-0.1,0l0,0c0,0,0,0-0.1,0l0,0c-0.9-0.4-1.8-0.9-2.8-1.3l0,0c0,0,0,0-0.1,0l0,0c0,0,0,0-0.1,0l0,0c0,0,0,0-0.1,0
				c0,0,0,0,0,0s0,0-0.1,0c0,0,0,0,0,0c0,0,0,0,0,0c0,0,0,0,0,0c0,0,0,0,0,0L63.9,199.4L63.9,199.4
				C63.9,199.4,63.9,199.4,63.9,199.4L63.9,199.4L63.9,199.4z M70.3,202.3l-3.1,7.4c1.5,0.6,3,1.2,4.5,1.7l2.7-7.5
				c-0.8-0.3-1.5-0.6-2.2-0.8l0,0c0,0,0,0-0.1,0l0,0c0,0,0,0-0.1,0l0,0c0,0-0.1,0-0.1,0l0,0c0,0,0,0-0.1,0l0,0c0,0,0,0-0.1,0l0,0
				c0,0,0,0-0.1,0l0,0c0,0-0.1,0-0.1,0l0,0c0,0-0.1,0-0.1,0l0,0c0,0,0,0-0.1,0l0,0c0,0-0.1,0-0.1,0l0,0
				C71.1,202.6,70.8,202.5,70.3,202.3L70.3,202.3L70.3,202.3z M77,204.8l-2.5,7.6c1.5,0.5,3.1,1,4.6,1.4l2.2-7.7
				c-0.6-0.2-1.1-0.3-1.7-0.5l0,0c0,0-0.1,0-0.1,0l0,0c-0.1,0-0.1,0-0.2-0.1l0,0c0,0,0,0-0.1,0l0,0c0,0-0.1,0-0.1,0l0,0
				c0,0-0.1,0-0.1,0l0,0c0,0-0.1,0-0.1,0l0,0c0,0,0,0-0.1,0l0,0C78.3,205.2,77.7,205,77,204.8L77,204.8L77,204.8z M83.8,206.8
				l-2,7.8c1.5,0.4,3.1,0.8,4.7,1.1l1.7-7.8c-0.4-0.1-0.7-0.1-1.1-0.2l0,0c0,0,0,0,0,0l0,0c0,0,0,0,0,0l0,0
				C86,207.4,84.9,207.1,83.8,206.8L83.8,206.8L83.8,206.8z M90.8,208.3l-1.4,7.9c1.6,0.3,3.2,0.5,4.7,0.8l1.1-7.9
				c-0.9-0.1-1.7-0.2-2.6-0.4c0,0,0,0,0,0c0,0,0,0,0,0c0,0,0,0,0,0c0,0,0,0,0,0c0,0,0,0,0,0c0,0,0,0,0,0c0,0,0,0,0,0l0,0
				c0,0,0,0,0,0l0,0C91.9,208.6,91.3,208.5,90.8,208.3L90.8,208.3L90.8,208.3z M97.8,209.4l-0.9,8c1.6,0.2,3.2,0.3,4.8,0.4l0.5-8
				c-1.1-0.1-2.2-0.2-3.3-0.3l0,0c0,0,0,0,0,0c0,0,0,0,0,0h0c0,0,0,0,0,0c0,0,0,0,0,0c0,0,0,0,0,0l0,0c0,0,0,0,0,0l0,0c0,0,0,0,0,0
				l0,0C98.5,209.5,98.2,209.4,97.8,209.4L97.8,209.4L97.8,209.4z M104.9,209.9l-0.3,8c1.5,0.1,2.9,0.1,4.4,0.1h0.4l0-8
				c0,0-0.1,0-0.1,0c0,0,0,0,0,0h0c-0.1,0-0.2,0-0.2,0H109c0,0,0,0-0.1,0h-0.1c0,0,0,0,0,0c0,0,0,0-0.1,0h0c0,0,0,0-0.1,0l0,0
				c0,0,0,0-0.1,0h0c0,0,0,0-0.1,0h0c0,0,0,0,0,0c0,0,0,0,0,0c0,0,0,0-0.1,0c0,0,0,0,0,0c0,0,0,0,0,0c0,0,0,0,0,0c0,0,0,0-0.1,0h0
				c0,0,0,0,0,0s0,0,0,0s0,0,0,0c0,0,0,0,0,0s0,0,0,0s0,0,0,0s0,0,0,0c0,0,0,0,0,0s0,0,0,0s0,0,0,0c0,0,0,0,0,0c0,0,0,0-0.1,0
				c0,0,0,0,0,0c0,0,0,0,0,0c0,0,0,0,0,0c0,0,0,0-0.1,0c0,0,0,0,0,0s0,0,0,0c0,0,0,0,0,0c0,0,0,0-0.1,0c0,0,0,0,0,0
				c-0.5,0-1,0-1.5,0l0,0c0,0-0.1,0-0.1,0l0,0c0,0-0.1,0-0.1,0c0,0,0,0,0,0c0,0,0,0-0.1,0c0,0,0,0,0,0c0,0,0,0,0,0s0,0,0,0s0,0,0,0
				s0,0,0,0c0,0,0,0,0,0c0,0,0,0-0.1,0c0,0,0,0,0,0s0,0-0.1,0l0,0c0,0,0,0-0.1,0l0,0C105.3,209.9,105.1,209.9,104.9,209.9
				L104.9,209.9L104.9,209.9z M116.5,209.7c-1.5,0.1-2.9,0.2-4.4,0.2l0.2,8c1.6-0.1,3.2-0.1,4.8-0.2L116.5,209.7L116.5,209.7
				L116.5,209.7z M123.6,208.9c-0.8,0.1-1.6,0.2-2.4,0.3l0,0c0,0,0,0,0,0c0,0,0,0,0,0c0,0,0,0,0,0c0,0,0,0,0,0c0,0,0,0,0,0
				c0,0-0.1,0-0.1,0l0,0h0l0,0c0,0,0,0,0,0l0,0c-0.6,0.1-1.1,0.1-1.7,0.2l0.8,8c1.6-0.2,3.2-0.4,4.8-0.6L123.6,208.9L123.6,208.9
				L123.6,208.9z M130.6,207.7c-0.7,0.1-1.4,0.3-2.1,0.4l0,0c0,0,0,0,0,0c0,0,0,0,0,0h0c0,0,0,0,0,0c0,0,0,0,0,0h0l0,0c0,0,0,0,0,0
				l0,0c-0.7,0.1-1.4,0.3-2.1,0.4l1.3,7.9c1.6-0.3,3.2-0.6,4.7-0.9L130.6,207.7L130.6,207.7L130.6,207.7z M137.5,205.9
				c-1.2,0.4-2.4,0.7-3.6,1l0,0c0,0-0.1,0-0.1,0l0,0c0,0,0,0,0,0c0,0,0,0,0,0c0,0,0,0,0,0h0c0,0,0,0,0,0c0,0,0,0,0,0l0,0
				c0,0,0,0,0,0l0,0c-0.1,0-0.3,0.1-0.4,0.1l1.9,7.8c1.6-0.4,3.1-0.8,4.6-1.2L137.5,205.9L137.5,205.9L137.5,205.9z M144.2,203.7
				c0,0-0.1,0-0.1,0.1l0,0c0,0,0,0-0.1,0c0,0,0,0,0,0c0,0,0,0-0.1,0c0,0,0,0,0,0c0,0,0,0-0.1,0c0,0,0,0,0,0c0,0,0,0-0.1,0
				c0,0,0,0,0,0c0,0,0,0,0,0c0,0,0,0,0,0c0,0,0,0-0.1,0h0c0,0,0,0,0,0h0c0,0,0,0,0,0c0,0,0,0,0,0c0,0,0,0,0,0s0,0,0,0c0,0,0,0,0,0
				s0,0,0,0c0,0,0,0,0,0s0,0,0,0c0,0,0,0,0,0c0,0,0,0,0,0c0,0,0,0,0,0s0,0-0.1,0c0,0,0,0,0,0c0,0,0,0-0.1,0c0,0,0,0,0,0
				c0,0,0,0-0.1,0c0,0,0,0,0,0c0,0,0,0,0,0c0,0,0,0,0,0c0,0,0,0-0.1,0c0,0,0,0,0,0c0,0,0,0-0.1,0c0,0,0,0,0,0c0,0,0,0-0.1,0
				c0,0,0,0,0,0c0,0,0,0-0.1,0c0,0,0,0,0,0c0,0,0,0,0,0h0c0,0,0,0-0.1,0c0,0,0,0,0,0s0,0,0,0h0c0,0,0,0,0,0c0,0,0,0,0,0c0,0,0,0,0,0
				s0,0,0,0c0,0,0,0,0,0c0,0,0,0,0,0h0c0,0,0,0,0,0c0,0,0,0,0,0c0,0,0,0,0,0c0,0,0,0,0,0s0,0,0,0c0,0,0,0,0,0c0,0,0,0-0.1,0
				c0,0,0,0,0,0c0,0,0,0-0.1,0c0,0,0,0,0,0c0,0,0,0-0.1,0c0,0,0,0,0,0c0,0,0,0-0.1,0c0,0,0,0,0,0c0,0,0,0-0.1,0h0c0,0,0,0-0.1,0
				c0,0,0,0,0,0c0,0,0,0-0.1,0l0,0c0,0,0,0-0.1,0l0,0c0,0-0.1,0-0.1,0l0,0c0,0,0,0-0.1,0l0,0c-0.5,0.2-0.9,0.3-1.4,0.5l2.4,7.6
				c1.5-0.5,3-1,4.5-1.6l-2.8-7.5l0,0L144.2,203.7z M150.8,201c-0.2,0.1-0.3,0.1-0.5,0.2l0,0c0,0,0,0-0.1,0l0,0c0,0,0,0-0.1,0l0,0
				c0,0-0.1,0-0.1,0.1l0,0c0,0,0,0-0.1,0l0,0c0,0,0,0-0.1,0c0,0,0,0,0,0c0,0,0,0-0.1,0c0,0,0,0,0,0c0,0,0,0-0.1,0l0,0c0,0,0,0-0.1,0
				c0,0,0,0,0,0c0,0,0,0-0.1,0c0,0,0,0,0,0c0,0,0,0-0.1,0c0,0,0,0,0,0c0,0,0,0-0.1,0c0,0,0,0,0,0c0,0,0,0-0.1,0c0,0,0,0,0,0s0,0,0,0
				c0,0,0,0,0,0c0,0,0,0,0,0c0,0,0,0,0,0c0,0,0,0,0,0c0,0,0,0,0,0c0,0,0,0,0,0c0,0,0,0,0,0c0,0,0,0,0,0c0,0,0,0,0,0c0,0,0,0,0,0
				c0,0,0,0,0,0c0,0,0,0,0,0c0,0,0,0-0.1,0c0,0,0,0,0,0c0,0,0,0,0,0c0,0,0,0,0,0h0c0,0,0,0,0,0c0,0,0,0-0.1,0c0,0,0,0,0,0
				c0,0,0,0-0.1,0l0,0c0,0,0,0-0.1,0l0,0c-0.1,0-0.1,0.1-0.2,0.1l0,0c0,0-0.1,0-0.1,0l0,0c-0.6,0.2-1.1,0.5-1.7,0.7l3,7.4
				c1.5-0.6,3-1.2,4.4-1.9L150.8,201L150.8,201L150.8,201z M157.2,197.8c-0.6,0.3-1.1,0.6-1.7,0.9l0,0c0,0,0,0-0.1,0l0,0
				c0,0,0,0-0.1,0c0,0,0,0,0,0c0,0,0,0-0.1,0c0,0,0,0,0,0s0,0-0.1,0c0,0,0,0,0,0c0,0,0,0,0,0c0,0,0,0,0,0c0,0,0,0,0,0c0,0,0,0,0,0
				c0,0,0,0,0,0c0,0,0,0,0,0c0,0,0,0,0,0c0,0,0,0,0,0c0,0,0,0,0,0c0,0,0,0,0,0c0,0,0,0,0,0c0,0,0,0-0.1,0c0,0,0,0,0,0l-0.1,0l0,0
				c-0.4,0.2-0.8,0.4-1.2,0.6c0,0,0,0,0,0c0,0,0,0-0.1,0c0,0,0,0,0,0c0,0,0,0,0,0c0,0,0,0,0,0c0,0,0,0,0,0c0,0,0,0,0,0c0,0,0,0,0,0
				c0,0,0,0-0.1,0l0,0l3.5,7.2c1.4-0.7,2.9-1.4,4.3-2.2L157.2,197.8L157.2,197.8L157.2,197.8z M163.3,194.2c-1,0.6-2,1.2-3,1.8l0,0
				c0,0,0,0-0.1,0l0,0c0,0,0,0-0.1,0c0,0,0,0,0,0c0,0,0,0,0,0c0,0,0,0,0,0c0,0,0,0,0,0c0,0,0,0-0.1,0c0,0,0,0,0,0
				c-0.2,0.1-0.4,0.2-0.6,0.3l4,6.9c1.4-0.8,2.8-1.6,4.1-2.5L163.3,194.2L163.3,194.2L163.3,194.2z M169.2,190.1
				c-0.6,0.5-1.3,0.9-1.9,1.4l0,0c-0.1,0.1-0.1,0.1-0.2,0.1l0,0c0,0,0,0-0.1,0l0,0c0,0,0,0-0.1,0c0,0,0,0,0,0c0,0,0,0-0.1,0
				c0,0,0,0,0,0s0,0,0,0c0,0,0,0,0,0c0,0,0,0,0,0c0,0,0,0,0,0c0,0,0,0,0,0c0,0,0,0,0,0l0,0c0,0,0,0,0,0c0,0,0,0,0,0c0,0,0,0,0,0
				c0,0,0,0,0,0c0,0,0,0,0,0c0,0,0,0,0,0c0,0,0,0,0,0c0,0,0,0,0,0c0,0,0,0-0.1,0c0,0,0,0,0,0c0,0,0,0-0.1,0l0,0
				c-0.2,0.2-0.5,0.3-0.7,0.5l4.5,6.6c1.3-0.9,2.6-1.8,3.9-2.8L169.2,190.1L169.2,190.1L169.2,190.1z M174.7,185.7
				c-0.4,0.4-0.8,0.7-1.2,1.1l0,0c0,0,0,0-0.1,0.1l0,0c0,0,0,0-0.1,0c0,0,0,0,0,0c0,0,0,0,0,0c0,0,0,0,0,0c0,0,0,0,0,0c0,0,0,0,0,0
				c0,0,0,0,0,0c0,0,0,0,0,0c0,0,0,0,0,0c0,0,0,0,0,0c0,0,0,0,0,0c0,0,0,0,0,0c0,0,0,0,0,0c0,0,0,0,0,0c0,0,0,0,0,0c0,0,0,0,0,0
				c0,0,0,0,0,0c0,0,0,0,0,0c0,0,0,0,0,0s0,0,0,0c0,0,0,0,0,0c0,0,0,0,0,0l0,0c0,0,0,0,0,0l0,0c0,0,0,0,0,0c0,0,0,0,0,0
				c0,0,0,0-0.1,0l0,0c0,0,0,0-0.1,0l0,0c0,0,0,0-0.1,0l0,0c0,0-0.1,0.1-0.1,0.1l0,0c0,0,0,0-0.1,0l0,0c0,0,0,0-0.1,0l0,0
				c0,0,0,0-0.1,0l0,0c-0.3,0.3-0.6,0.5-1,0.8l4.9,6.3c1.2-1,2.5-2,3.7-3L174.7,185.7L174.7,185.7L174.7,185.7z M180,180.9
				c-0.1,0.1-0.1,0.1-0.2,0.2c0,0,0,0,0,0s0,0,0,0c0,0,0,0,0,0c0,0,0,0,0,0c0,0,0,0,0,0c0,0,0,0,0,0s0,0,0,0c0,0,0,0,0,0s0,0,0,0
				l0,0c0,0,0,0,0,0l0,0c-0.9,0.9-1.8,1.7-2.7,2.6l5.4,5.9c1.2-1.1,2.4-2.2,3.5-3.3L180,180.9L180,180.9L180,180.9z M184.9,175.7
				c-0.2,0.2-0.4,0.5-0.6,0.7l0,0c0,0,0,0,0,0.1l0,0c0,0,0,0,0,0c0,0,0,0,0,0s0,0,0,0c0,0,0,0,0,0s0,0,0,0c0,0,0,0,0,0c0,0,0,0,0,0
				c0,0,0,0,0,0c0,0,0,0,0,0c0,0,0,0,0,0c0,0,0,0,0,0c0,0,0,0,0,0c0,0,0,0,0,0c0,0,0,0,0,0c0,0,0,0,0,0c0,0,0,0,0,0l0,0c0,0,0,0,0,0
				c0,0,0,0,0,0c0,0,0,0,0,0c0,0,0,0,0,0c0,0,0,0,0,0c0,0,0,0,0,0c0,0,0,0,0,0c0,0,0,0,0,0c0,0,0,0,0,0c0,0,0,0,0,0c0,0,0,0,0,0
				c0,0,0,0,0,0c0,0,0,0,0,0c0,0,0,0,0,0c0,0,0,0,0,0c0,0,0,0,0,0c0,0,0,0,0,0c0,0,0,0,0,0c0,0,0,0,0,0c0,0,0,0,0,0c0,0,0,0,0,0
				c0,0,0,0,0,0c0,0,0,0,0,0c0,0,0,0,0,0c0,0,0,0,0,0c0,0,0,0,0,0c0,0,0,0,0,0c0,0,0,0,0,0c0,0,0,0,0,0c0,0,0,0,0,0c0,0,0,0,0,0
				s0,0,0,0c0,0,0,0,0,0s0,0,0,0l0,0c0,0,0,0,0,0l0,0c0,0,0,0,0,0.1l0,0c0,0,0,0-0.1,0.1l0,0c0,0,0,0-0.1,0.1l0,0
				c-0.3,0.3-0.6,0.6-0.9,1l5.8,5.6c1.1-1.1,2.2-2.3,3.2-3.5L184.9,175.7L184.9,175.7L184.9,175.7z M189.4,170.2
				c-0.1,0.1-0.1,0.2-0.2,0.3l0,0c0,0,0,0,0,0.1c0,0,0,0,0,0c0,0,0,0,0,0c0,0,0,0,0,0c0,0,0,0,0,0c0,0,0,0,0,0c0,0,0,0,0,0
				c0,0,0,0,0,0c0,0,0,0,0,0c0,0,0,0,0,0c0,0,0,0,0,0c0,0,0,0,0,0c0,0,0,0,0,0c0,0,0,0,0,0c0,0,0,0,0,0c0,0,0,0,0,0c0,0,0,0,0,0
				c0,0,0,0,0,0c0,0,0,0,0,0c0,0,0,0,0,0c0,0,0,0,0,0c0,0,0,0,0,0c0,0,0,0,0,0s0,0,0,0c0,0,0,0,0,0s0,0,0,0c0,0,0,0,0,0s0,0,0,0
				c0,0,0,0,0,0c0,0,0,0,0,0.1l0,0c0,0,0,0,0,0c0,0,0,0,0,0c0,0,0,0,0,0c0,0,0,0,0,0c0,0,0,0,0,0l0,0c0,0,0,0,0,0.1l0,0
				c0,0,0,0,0,0.1l0,0c0,0,0,0,0,0.1c0,0,0,0,0,0c0,0,0,0,0,0c0,0,0,0,0,0c0,0,0,0,0,0l0,0c0,0,0,0,0,0.1l0,0c0,0,0,0,0,0l0,0
				c0,0,0,0,0,0c0,0,0,0,0,0c0,0,0,0,0,0c0,0,0,0,0,0c0,0,0,0,0,0c0,0,0,0,0,0c0,0,0,0,0,0c0,0,0,0,0,0c0,0,0,0,0,0l0,0c0,0,0,0,0,0
				l0,0c0,0,0,0,0,0l0,0c0,0,0,0,0,0.1l0,0c0,0,0,0,0,0.1c0,0,0,0,0,0s0,0,0,0c0,0,0,0,0,0c0,0,0,0,0,0l0,0c0,0,0,0,0,0l0,0
				c0,0,0,0,0,0c0,0,0,0,0,0c0,0,0,0,0,0c0,0,0,0,0,0s0,0,0,0c0,0,0,0,0,0s0,0,0,0c0,0,0,0,0,0c0,0,0,0,0,0c0,0,0,0,0,0c0,0,0,0,0,0
				l0,0c0,0,0,0,0,0c0,0,0,0,0,0c0,0,0,0,0,0c0,0,0,0,0,0c0,0,0,0,0,0c0,0,0,0,0,0s0,0,0,0c0,0,0,0,0,0s0,0,0,0c0,0,0,0,0,0
				c0,0,0,0,0,0c0,0,0,0,0,0c0,0,0,0,0,0c0,0,0,0,0,0c0,0,0,0,0,0c0,0,0,0,0,0c0,0,0,0,0,0c0,0,0,0,0,0c0,0,0,0,0,0c0,0,0,0,0,0
				c0,0,0,0,0,0l0,0c0,0,0,0,0,0l0,0c0,0,0,0,0,0l0,0c0,0,0,0,0,0.1l0,0c0,0,0,0,0,0l0,0l6.1,5.1c1-1.2,2-2.5,3-3.8l-6.4-4.9l0,0
				L189.4,170.2z M193.5,164.4c0,0-0.1,0.1-0.1,0.1v0c0,0,0,0,0,0.1c0,0,0,0,0,0c0,0,0,0,0,0l0,0c0,0,0,0,0,0c0,0,0,0,0,0
				c0,0,0,0,0,0c0,0,0,0,0,0c0,0,0,0,0,0c0,0,0,0,0,0c0,0,0,0,0,0c0,0,0,0,0,0.1l0,0c0,0,0,0,0,0.1l0,0c0,0,0,0,0,0.1l0,0
				c0,0,0,0,0,0.1l0,0c0,0,0,0,0,0.1l0,0c0,0,0,0,0,0.1l0,0c-0.6,1-1.3,1.9-2,2.9l6.5,4.7c0.9-1.3,1.9-2.6,2.7-3.9L193.5,164.4
				L193.5,164.4L193.5,164.4z M197.2,158.3c-0.1,0.2-0.2,0.4-0.4,0.7l0,0c0,0,0,0,0,0.1c0,0,0,0,0,0c0,0,0,0,0,0.1c0,0,0,0,0,0
				c0,0,0,0,0,0.1c0,0,0,0,0,0s0,0,0,0c0,0,0,0,0,0c0,0,0,0,0,0c0,0,0,0,0,0c0,0,0,0,0,0c0,0,0,0,0,0c0,0,0,0,0,0c0,0,0,0,0,0
				c0,0,0,0,0,0c0,0,0,0,0,0v0c0,0,0,0,0,0.1l0,0c0,0,0,0,0,0.1l0,0c-0.5,0.9-1,1.7-1.5,2.5l6.8,4.2c0.8-1.4,1.7-2.8,2.4-4.1
				L197.2,158.3L197.2,158.3L197.2,158.3z M200.5,152c-0.6,1.3-1.3,2.7-2,4l7.1,3.7c0.7-1.4,1.5-2.9,2.1-4.3L200.5,152L200.5,152
				L200.5,152z M203.3,145.4c-0.5,1.4-1.1,2.8-1.7,4.1l7.3,3.2c0.6-1.5,1.3-2.9,1.8-4.4L203.3,145.4L203.3,145.4L203.3,145.4z
				 M205.6,138.7c-0.2,0.6-0.4,1.3-0.6,1.9l0,0c0,0,0,0.1,0,0.1l0,0c0,0,0,0.1,0,0.1l0,0c0,0,0,0.1,0,0.1c0,0,0,0,0,0c0,0,0,0,0,0.1
				v0c0,0,0,0,0,0c0,0,0,0,0,0c0,0,0,0,0,0c0,0,0,0,0,0v0c0,0,0,0,0,0.1c0,0,0,0,0,0c0,0,0,0,0,0.1c0,0,0,0,0,0c0,0,0,0,0,0.1
				c0,0,0,0,0,0c0,0,0,0,0,0.1c0,0,0,0,0,0c0,0,0,0,0,0.1c0,0,0,0,0,0c0,0,0,0,0,0.1c0,0,0,0,0,0c0,0,0,0,0,0.1l0,0c0,0,0,0,0,0.1
				l0,0c0,0,0,0,0,0.1c0,0,0,0,0,0c0,0,0,0,0,0.1l0,0c0,0,0,0,0,0.1l0,0c0,0,0,0.1,0,0.1l0,0c0,0,0,0,0,0.1l0,0c0,0,0,0,0,0.1l0,0
				c0,0,0,0,0,0.1l0,0c0,0,0,0,0,0.1l0,0c0,0,0,0,0,0.1l0,0c0,0,0,0,0,0.1c0,0,0,0,0,0c0,0,0,0,0,0.1c0,0,0,0,0,0c0,0,0,0,0,0.1
				c0,0,0,0,0,0c0,0,0,0,0,0.1c0,0,0,0,0,0c0,0,0,0,0,0c0,0,0,0,0,0c0,0,0,0,0,0.1v0c0,0,0,0,0,0c0,0,0,0,0,0c0,0,0,0,0,0
				c0,0,0,0,0,0c0,0,0,0,0,0v0l7.5,2.7c0.5-1.5,1.1-3,1.5-4.6l-7.6-2.4l0,0L205.6,138.7z M207.4,131.8c-0.1,0.2-0.1,0.4-0.1,0.6l0,0
				c0,0,0,0,0,0l0,0c0,0,0,0,0,0l0,0c0,0,0,0,0,0v0c0,0,0,0,0,0v0c0,0,0,0,0,0c0,0,0,0,0,0.1l0,0c0,0,0,0.1,0,0.1l0,0c0,0,0,0,0,0
				l0,0c0,0,0,0,0,0l0,0c-0.1,0.4-0.2,0.8-0.3,1.1l0,0c0,0,0,0,0,0l0,0c0,0,0,0,0,0c0,0,0,0,0,0v0l0,0c0,0,0,0,0,0l0,0c0,0,0,0,0,0
				c0,0,0,0,0,0c0,0,0,0,0,0.1l0,0c0,0,0,0,0,0c0,0,0,0,0,0c0,0,0,0,0,0c0,0,0,0,0,0c0,0,0,0,0,0c0,0,0,0,0,0l0,0c0,0,0,0,0,0l0,0
				c0,0,0,0,0,0l0,0c-0.1,0.6-0.3,1.2-0.5,1.8l7.7,2.1c0.4-1.5,0.8-3.1,1.2-4.7l-7.8-1.8l0,0L207.4,131.8z M208.8,124.9
				c-0.1,0.6-0.2,1.2-0.3,1.7c-0.1,0.4-0.1,0.4,0,0c0.1-0.6,0,0,0,0c0,0,0,0,0,0c0,0,0,0,0,0c0,0,0,0,0,0c0,0,0,0,0,0c0,0,0,0,0,0
				c0,0,0,0,0,0v0c0,0,0,0,0,0s0,0,0,0l0,0c0,0,0,0.1,0,0.1l0,0c-0.1,0.7-0.3,1.4-0.4,2.1l0,0c0,0,0,0.1,0,0.1c0,0,0,0,0,0
				c0,0,0,0,0,0c0,0,0,0,0,0l0,0c0,0,0,0,0,0l0,0l7.9,1.6c0.3-1.6,0.6-3.2,0.9-4.7L208.8,124.9L208.8,124.9L208.8,124.9z
				 M209.7,117.8c0,0.4-0.1,0.8-0.1,1.2l0,0c0,0,0,0,0,0c0,0,0,0,0,0c0,0,0,0,0,0c0,0,0,0,0,0s0,0,0,0c0,0,0,0,0,0v0c0,0,0,0,0,0
				c0,0,0,0,0,0c0,0,0,0,0,0c0,0,0,0,0,0v0c0,0,0,0,0,0v0c0,0,0,0,0,0v0c0,0,0,0,0,0s0,0,0,0l0,0c-0.1,0.9-0.2,1.9-0.3,2.8l7.9,1
				c0.2-1.6,0.4-3.2,0.5-4.8L209.7,117.8L209.7,117.8L209.7,117.8z M210,110.7c0,0.3,0,0.7,0,1l0,0c0,0,0,0,0,0c0,0,0,0,0,0
				c0,0,0,0,0,0s0,0,0,0s0,0,0,0c0,0,0,0,0,0c0,0,0,0,0,0c0,0,0,0,0,0l0,0c0,0,0,0,0,0l0,0c0,0,0,0,0,0l0,0c0,0,0,0,0,0l0,0
				c0,0.5,0,1-0.1,1.5l0,0c0,0,0,0.1,0,0.1l0,0c0,0,0,0,0,0l0,0c0,0,0,0,0,0l0,0c0,0,0,0,0,0l0,0c0,0,0,0,0,0c0,0,0,0,0,0
				c0,0,0,0,0,0s0,0,0,0c0,0,0,0,0,0c0,0,0,0,0,0c0,0,0,0,0,0v0c0,0,0,0,0,0v0c0,0,0,0,0,0v0c0,0,0,0,0,0c0,0.4,0,0.7-0.1,1.1l8,0.5
				c0.1-1.6,0.2-3.2,0.2-4.8L210,110.7L210,110.7L210,110.7z M217.9,103.1l-8,0.4c0,0.4,0,0.8,0.1,1.3l0,0c0,0,0,0,0,0l0,0
				c0,0,0,0,0,0l0,0c0,0,0,0.1,0,0.1v0c0,0,0,0,0,0s0,0,0,0c0,0,0,0,0,0c0,0,0,0,0,0l0,0c0,0,0,0,0,0l0,0c0,0.8,0.1,1.5,0.1,2.3
				c0,0,0,0,0,0c0,0,0,0,0,0c0,0,0,0,0,0c0,0,0,0,0,0c0,0,0,0,0,0c0,0,0,0,0,0c0,0,0,0,0,0l0,0c0,0,0,0.1,0,0.1l0,0
				c0,0.1,0,0.2,0,0.3l8-0.1C218,106.3,218,104.7,217.9,103.1L217.9,103.1L217.9,103.1z M217.2,95.5l-7.9,1c0.2,1.5,0.3,2.9,0.4,4.4
				l8-0.6C217.6,98.7,217.4,97.1,217.2,95.5C217.2,95.5,217.2,95.5,217.2,95.5z M216,87.9l-7.9,1.5c0.1,0.6,0.2,1.1,0.3,1.7l0,0
				c0,0,0,0,0,0l0,0c0,0,0,0,0,0l0,0c0,0,0,0.1,0,0.1l0,0c0,0,0,0,0,0l0,0v0c0,0,0,0,0,0v0c0,0,0,0,0,0c0,0,0,0,0,0s0,0,0,0
				c0,0,0,0,0,0v0c0,0,0,0,0,0c0,0,0,0,0,0c0,0,0,0,0,0c0,0,0,0,0,0.1l0,0c0,0,0,0,0,0c0,0,0,0,0,0c0,0,0,0,0,0c0,0,0,0,0,0
				c0,0,0,0,0,0l0,0c0,0,0,0,0,0l0,0c0,0,0,0,0,0l0,0c0,0.1,0,0.1,0,0.1l0,0c0,0,0,0,0,0l0,0c0,0,0,0,0,0l0,0c0,0,0,0,0,0l0,0
				c0,0.1,0,0.2,0,0.2l0,0c0,0,0,0,0,0l0,0c0,0.1,0,0.1,0,0.2l0,0c0,0,0,0,0,0l0,0c0,0,0,0,0,0l0,0c0,0,0,0,0,0c0,0,0,0,0,0v0
				c0,0,0,0,0,0c0,0,0,0,0,0l0,0c0,0,0,0,0,0c0,0,0,0,0,0c0,0,0,0,0,0v0c0,0,0,0,0,0c0,0,0,0,0,0c0,0,0,0,0,0v0c0,0,0,0,0,0
				c0,0,0,0,0,0l0,0c0,0,0,0,0,0l0,0c0.1,0.3,0.1,0.6,0.1,0.9l7.9-1.2c-0.2-1.6-0.5-3.2-0.8-4.7l0,0L216,87.9z M214.3,80.4l-7.7,2.1
				c0.2,0.6,0.3,1.2,0.5,1.8l0,0v0c0,0,0,0,0,0v0c0,0,0,0,0,0c0,0,0,0,0,0c0,0,0,0,0,0c0,0,0,0,0,0v0c0,0,0,0,0,0s0,0,0,0s0,0,0,0
				c0,0,0,0.1,0,0.1l0,0c0,0,0,0,0,0l0,0c0,0,0,0,0,0l0,0c0,0,0,0,0,0l0,0c0,0,0,0,0,0l0,0c0.2,0.7,0.3,1.4,0.5,2.1l7.8-1.8
				C215,83.5,214.6,81.9,214.3,80.4L214.3,80.4L214.3,80.4z M212,73.1l-7.6,2.6c0.5,1.4,0.9,2.8,1.4,4.2l7.7-2.3
				C213,76.1,212.5,74.6,212,73.1L212,73.1z M209.2,65.9l-7.4,3.2c0.2,0.4,0.4,0.8,0.5,1.3l0,0c0,0,0,0,0,0.1l0,0c0,0,0,0,0,0.1
				c0,0,0,0,0,0c0,0,0,0,0,0.1c0,0,0,0,0,0s0,0,0,0c0,0,0,0,0,0c0,0,0,0,0,0c0,0,0,0,0,0c0,0,0,0,0,0c0,0,0,0,0,0c0,0,0,0,0,0
				c0,0,0,0,0,0c0,0,0,0,0,0c0,0,0,0,0,0.1c0,0,0,0,0,0c0,0,0,0,0,0.1l0,0c0.3,0.7,0.6,1.5,0.9,2.2l7.5-2.8
				C210.4,68.9,209.8,67.4,209.2,65.9L209.2,65.9L209.2,65.9z M205.9,59l-7.1,3.7l0,0c0,0,0,0,0,0v0c0,0,0,0,0,0c0,0,0,0,0,0
				c0,0,0,0,0,0c0,0,0,0,0,0c0,0,0,0,0,0c0,0,0,0,0,0c0,0,0,0,0,0c0,0,0,0,0,0c0,0,0,0,0,0c0,0,0,0,0,0l0,0c0,0,0,0,0,0l0,0
				c0,0,0,0,0,0.1l0,0c0,0,0,0,0,0.1l0,0c0.4,0.9,0.9,1.7,1.3,2.6v0c0,0,0,0,0,0.1c0,0,0,0,0,0c0,0,0,0,0,0c0,0,0,0,0,0c0,0,0,0,0,0
				c0,0,0,0,0,0v0c0,0,0,0,0,0.1c0,0,0,0,0,0c0,0,0,0,0,0.1l0,0c0.1,0.1,0.1,0.3,0.2,0.4l7.3-3.4C207.3,61.8,206.6,60.4,205.9,59
				L205.9,59L205.9,59z M202.2,52.3l-6.8,4.2c0.2,0.4,0.4,0.8,0.7,1.1l0,0c0,0,0,0,0,0l0,0c0,0,0,0,0,0c0,0,0,0,0,0l0,0c0,0,0,0,0,0
				s0,0,0,0c0,0,0,0,0,0c0,0,0,0,0,0c0,0,0,0,0,0c0,0,0,0,0,0c0,0,0,0,0,0c0,0,0,0,0,0c0,0,0,0,0,0c0,0,0,0,0,0c0,0,0,0,0,0
				c0,0,0,0,0,0c0,0,0,0,0,0c0,0,0,0,0,0c0,0,0,0,0,0c0,0,0,0,0,0c0,0,0,0,0,0.1l0,0c0,0,0.1,0.1,0.1,0.2l0,0
				c0.4,0.6,0.7,1.2,1.1,1.9l7-3.9C203.7,55,202.9,53.6,202.2,52.3L202.2,52.3L202.2,52.3z M197.9,45.9l-6.5,4.6
				c0.9,1.2,1.7,2.4,2.5,3.7l6.7-4.3C199.7,48.5,198.8,47.2,197.9,45.9L197.9,45.9L197.9,45.9z M193.3,39.8l-6.2,5.1
				c0.4,0.5,0.9,1,1.3,1.6l0,0c0,0,0,0,0,0l0,0c0,0,0,0,0,0c0,0,0,0,0,0c0,0,0,0,0,0c0,0,0,0,0,0c0,0,0,0,0,0c0,0,0,0,0,0
				c0,0,0,0,0,0c0,0,0,0,0,0c0,0,0,0,0,0c0,0,0,0,0,0c0,0,0,0,0,0c0,0,0,0,0,0c0,0,0,0,0,0c0,0,0,0,0,0l0,0c0,0,0,0,0,0c0,0,0,0,0,0
				c0,0,0,0,0,0c0,0,0,0,0,0c0,0,0,0,0,0c0,0,0,0,0,0c0,0,0,0,0,0c0,0,0,0,0,0c0,0,0,0,0,0c0,0,0,0,0,0c0,0,0,0,0,0c0,0,0,0,0,0
				c0,0,0,0,0,0c0,0,0,0,0,0l0,0c0,0,0.1,0.1,0.1,0.1l0,0c0,0,0,0,0,0.1l0,0c0,0,0,0,0,0.1l0,0c0.2,0.3,0.4,0.5,0.6,0.8l6.4-4.8
				C195.2,42.3,194.2,41,193.3,39.8L193.3,39.8L193.3,39.8z M188.2,34l-5.8,5.5c0.1,0.1,0.2,0.2,0.2,0.2l0,0c0,0,0,0,0,0l0,0
				c0,0,0,0,0,0l0,0c0,0,0,0,0,0c0,0,0,0,0,0c0,0,0,0,0,0c0,0,0,0,0,0c0,0,0,0,0,0c0,0,0,0,0,0c0,0,0,0,0,0c0,0,0,0,0,0l0,0
				c0,0,0,0,0.1,0.1l0,0c0.8,0.9,1.6,1.8,2.4,2.7l6.1-5.2C190.4,36.3,189.3,35.1,188.2,34L188.2,34L188.2,34z M182.7,28.6l-5.4,5.9
				c1.1,1,2.2,2,3.2,3.1l5.7-5.7C185,30.8,183.9,29.7,182.7,28.6C182.7,28.6,182.7,28.6,182.7,28.6z M176.9,23.6l-5,6.3
				c0.8,0.6,1.6,1.3,2.4,2l0,0c0,0,0,0,0.1,0l0,0c0,0,0,0,0,0c0,0,0,0,0,0c0,0,0,0,0,0c0,0,0,0,0,0c0,0,0,0,0,0c0,0,0,0,0,0s0,0,0,0
				c0,0,0,0,0,0c0,0,0,0,0,0c0,0,0,0,0,0c0,0,0,0,0,0c0,0,0,0,0,0c0,0,0,0,0,0c0,0,0,0,0,0c0,0,0,0,0,0c0,0,0,0,0,0c0,0,0,0,0,0
				c0,0,0,0,0,0c0,0,0,0,0,0c0,0,0,0,0,0c0,0,0,0,0,0c0,0,0,0,0,0c0,0,0,0,0,0l0,0c0,0,0,0,0,0c0,0,0,0,0,0c0,0,0,0,0,0c0,0,0,0,0,0
				c0,0,0,0,0,0c0,0,0,0,0,0c0,0,0,0,0,0c0,0,0,0,0,0c0,0,0,0,0,0c0,0,0,0,0,0c0,0,0,0,0,0l0,0l5.3-6
				C179.3,25.6,178.1,24.6,176.9,23.6L176.9,23.6L176.9,23.6z M170.7,19l-4.5,6.6c0.6,0.4,1.2,0.8,1.8,1.2l0,0c0,0,0,0,0.1,0l0,0
				c0,0,0.1,0,0.1,0.1l0,0c0,0,0,0,0.1,0l0,0c0,0,0,0,0.1,0c0,0,0,0,0,0c0,0,0,0,0,0c0,0,0,0,0,0s0,0,0,0c0,0,0,0,0,0c0,0,0,0,0,0
				c0,0,0,0,0,0c0,0,0,0,0,0c0,0,0,0,0,0c0,0,0,0,0,0c0,0,0,0,0,0c0,0,0,0,0,0c0,0,0,0,0,0c0,0,0,0,0,0c0,0,0,0,0,0c0,0,0,0,0,0
				c0,0,0,0,0,0c0,0,0,0,0,0c0,0,0,0,0.1,0l0,0c0.3,0.2,0.7,0.5,1,0.8l4.8-6.4C173.3,20.8,172,19.9,170.7,19L170.7,19L170.7,19z
				 M164.2,14.9l-4.1,6.9l0,0c0,0,0,0,0.1,0c0,0,0,0,0,0c0,0,0,0,0.1,0l0,0c0.8,0.5,1.5,0.9,2.2,1.4l0,0c0,0,0,0,0.1,0l0,0
				c0,0,0,0,0.1,0l0,0c0,0,0.1,0,0.1,0.1l0,0c0,0,0,0,0.1,0l0,0c0,0,0,0,0.1,0l0,0c0,0,0,0,0.1,0l0,0c0,0,0,0,0.1,0l0,0
				c0,0,0.1,0,0.1,0.1l0,0c0,0,0,0,0.1,0l0,0c0,0,0,0,0.1,0l0,0c0,0,0,0,0.1,0l0,0c0.2,0.1,0.4,0.3,0.6,0.4l4.4-6.7
				C166.9,16.5,165.5,15.6,164.2,14.9L164.2,14.9L164.2,14.9z M157.5,11.3l-3.6,7.2h0c0,0,0,0,0,0c0,0,0,0,0,0c0,0,0,0,0,0
				c0,0,0,0,0,0c0,0,0,0,0,0c0,0,0,0,0,0c0,0,0,0,0,0c0,0,0,0,0.1,0c0,0,0,0,0,0c0,0,0,0,0.1,0l0,0c0,0,0,0,0.1,0l0,0
				c1.2,0.6,2.4,1.2,3.5,1.9l3.9-7C160.3,12.7,158.9,12,157.5,11.3L157.5,11.3L157.5,11.3z M150.5,8.1l-3,7.4
				c0.6,0.2,1.1,0.5,1.6,0.7l0,0c0,0,0,0,0,0l0,0c0,0,0,0,0.1,0c0,0,0,0,0,0c0,0,0,0,0,0c0,0,0,0,0,0c0,0,0,0,0,0c0,0,0,0,0,0
				c0,0,0,0,0,0c0,0,0,0,0.1,0c0,0,0,0,0,0c0,0,0,0,0.1,0c0,0,0,0,0,0c0,0,0,0,0.1,0l0,0c0.7,0.3,1.3,0.6,2,0.9l3.4-7.3
				C153.4,9.3,151.9,8.7,150.5,8.1L150.5,8.1L150.5,8.1z M143.2,5.4l-2.5,7.6c0.5,0.2,1.1,0.4,1.6,0.6l0,0c0,0,0,0,0.1,0
				c0,0,0,0,0,0s0,0,0.1,0h0c0,0,0,0,0,0c0,0,0,0,0,0h0c0,0,0,0,0,0c0,0,0,0,0,0c0,0,0,0,0,0c0,0,0,0,0,0c0,0,0,0,0.1,0c0,0,0,0,0,0
				c0,0,0,0,0.1,0c0,0,0,0,0,0c0,0,0,0,0.1,0l0,0c0.7,0.2,1.4,0.5,2,0.7l2.9-7.5C146.3,6.4,144.7,5.9,143.2,5.4L143.2,5.4L143.2,5.4
				z M135.9,3.3l-2,7.8c0,0,0,0,0,0l0,0c0,0,0,0,0.1,0c0,0,0,0,0,0s0,0,0,0s0,0,0,0c0,0,0,0,0,0s0,0,0,0s0,0,0,0c0,0,0,0,0,0
				c0,0,0,0,0,0c0,0,0,0,0.1,0c0,0,0,0,0,0c0,0,0,0,0.1,0c0,0,0,0,0,0c0,0,0,0,0.1,0c0,0,0,0,0,0c0,0,0,0,0.1,0l0,0c0,0,0,0,0.1,0
				l0,0c0,0,0,0,0.1,0l0,0c0,0,0.1,0,0.1,0l0,0c0.8,0.2,1.6,0.4,2.3,0.6l0,0c0,0,0,0,0.1,0l0,0c0,0,0,0,0.1,0c0,0,0,0,0,0
				c0,0,0,0,0.1,0c0,0,0,0,0,0c0,0,0,0,0.1,0c0,0,0,0,0,0c0,0,0,0,0,0c0,0,0,0,0,0c0,0,0,0,0,0c0,0,0,0,0,0s0,0,0,0c0,0,0,0,0,0
				c0,0,0,0,0,0c0,0,0,0,0.1,0l0,0c0.2,0.1,0.4,0.1,0.6,0.2l2.3-7.7c-1.5-0.5-3.1-0.9-4.6-1.3l0,0L135.9,3.3z M128.4,1.7l-1.4,7.9
				l0,0c0,0,0,0,0,0h0c0,0,0,0,0,0h0c0,0,0,0,0,0c0,0,0,0,0,0c0,0,0,0,0,0c0,0,0,0,0,0c0,0,0,0,0,0l0,0c0,0,0,0,0.1,0l0,0
				c0,0,0,0,0,0l0,0c0,0,0,0,0,0l0,0c0,0,0,0,0,0l0,0c0,0,0,0,0,0l0,0c0,0,0,0,0,0l0,0c0.1,0,0.2,0,0.2,0l0,0c0,0,0,0,0,0l0,0
				c0.1,0,0.2,0,0.2,0l0,0c0,0,0,0,0,0l0,0c0,0,0,0,0,0l0,0c0.1,0,0.1,0,0.2,0l0,0c0,0,0,0,0,0l0,0c0,0,0,0,0,0c0,0,0,0,0,0h0
				c0,0,0,0,0,0c0,0,0,0,0,0c0,0,0,0,0,0h0c0,0,0,0,0,0c0,0,0,0,0,0c0,0,0,0,0,0c0,0,0,0,0,0c0,0,0,0,0,0c0,0,0,0,0,0c0,0,0,0,0,0
				c0,0,0,0,0,0c0,0,0,0,0,0c0,0,0,0,0,0c0,0,0,0,0,0l0,0c0.9,0.2,1.9,0.4,2.8,0.6l1.8-7.8c-1.6-0.3-3.1-0.7-4.7-1l0,0L128.4,1.7z
				 M120.7,0.6l-0.8,8c0.4,0,0.7,0.1,1.1,0.1l0,0c0,0,0,0,0,0c0,0,0,0,0,0c0,0,0,0,0,0h0c0,0,0,0,0,0s0,0,0,0l0,0c0,0,0,0,0,0l0,0
				c0,0,0,0,0,0l0,0c0,0,0,0,0,0l0,0c0,0,0,0,0,0l0,0c0.8,0.1,1.6,0.2,2.4,0.3c0,0,0,0,0,0h0c0,0,0,0,0,0c0,0,0,0,0,0c0,0,0,0,0,0
				c0,0,0,0,0,0h0l0,0c0.2,0,0.4,0.1,0.6,0.1l1.2-7.9C123.9,0.9,122.3,0.7,120.7,0.6L120.7,0.6L120.7,0.6z M113.1,0l-0.3,8
				c0.4,0,0.8,0,1.2,0.1c0,0,0,0,0,0c0,0,0,0,0,0c0,0,0,0,0,0c0,0,0,0,0,0c0,0,0,0,0,0c0,0,0,0,0,0c0,0,0,0,0,0c0,0,0,0,0,0
				c0,0,0.1,0,0.1,0l0,0c0,0,0,0,0,0l0,0c0.7,0,1.3,0.1,2,0.1l0,0c0,0,0,0,0,0l0,0c0,0,0,0,0,0c0,0,0,0,0,0h0h0c0,0,0,0,0,0l0,0
				c0,0,0,0,0,0h0c0,0,0,0,0,0s0,0,0,0c0,0,0,0,0,0c0,0,0,0,0,0c0,0,0,0,0,0c0,0,0,0,0,0l0,0c0.2,0,0.4,0,0.7,0.1l0.6-8
				C116.3,0.1,114.7,0,113.1,0L113.1,0L113.1,0z M109-0.1v8h0.1c0,0,0,0,0,0l0,0c0.3,0,0.6,0,1,0l0.1-8C109.8,0,109.4,0,109-0.1
				L109-0.1L109-0.1z"/>
			<circle class="st1" cx="109" cy="109" r="101"/>
			<circle class="st2" cx="109" cy="109" r="101"/>
		</g>
		<g>
			<g>
				<g>
					<polygon class="st3" points="167.8,117.2 83.1,115.2 55.8,118.5 55.8,132.2 109.8,144.4 167.8,128 167.8,127.7 					"/>
					<path class="st4" d="M112.7,132.8v11.1l-56-11.4c0,0-3.1-11.6,1-13.5C61.8,117,112.7,132.8,112.7,132.8z"/>
					<polygon class="st5" points="168.6,114.7 158.2,117.1 116.2,109 67.7,118.5 56.7,116.2 56.7,120.6 112.7,132.8 168.6,119.2 
											"/>
					<polygon class="st6" points="168.6,114.7 112.7,128.3 56.7,116.2 116.2,104.6 					"/>
					<path class="st5" d="M164.4,128.4c0,0-51.7,13.8-52.4,13.8c-0.7,0-45.3-9-53.9-10.6c-1.7-4.2,0.2-10.9,0.2-10.9l-0.6-1.7h0
						c1.1-1.6-1-2.7-1-2.7s-1.5-0.5-2.5,3.8c-0.3,1.4-0.4,3.4-0.4,5.3c0,0.1,0.1,6.7,1.2,8.3l56.7,13.2l57.4-16.4v-3.3L164.4,128.4
						L164.4,128.4z"/>
					<path class="st7" d="M61.2,126.4c0,0-1.4,12.4-0.7,12.3s3.8-2.8,3.8-2.8s4,5.4,4,4.8s1.5-12.4,1.5-12.4L61.2,126.4L61.2,126.4z
						"/>
				</g>
				<path class="st5" d="M84.7,112.6c0.8,0.3,31.8-5.9,31.8-5.9l27.2,5.1L84.7,112.6L84.7,112.6z"/>
				<polygon class="st5" points="78.6,118.5 113.4,123.9 145.5,116.9 				"/>
			</g>
			<g>
				<g>
					<polygon class="st4" points="51.9,101.1 136.6,99.2 164,102.5 164,116.2 110,128.4 52,111.9 51.9,111.6 					"/>
					<path class="st3" d="M107.1,116.8v11.1l56-11.4c0,0,3.1-11.6-1-13.5S107.1,116.8,107.1,116.8z"/>
					<polygon class="st8" points="51.1,98.7 61.5,101.1 103.5,93 152,102.5 163.1,100.2 163.1,104.6 107.1,116.8 51.1,103.1 					
						"/>
					<polygon class="st9" points="51.1,98.7 107.1,112.3 163.1,100.2 103.5,88.5 					"/>
					<path class="st8" d="M55.3,112.4c0,0,51.7,13.8,52.4,13.8c0.7,0,45.3-9,53.9-10.7c1.7-4.2-0.2-10.9-0.2-10.9l0.6-1.7h0
						c-1.1-1.6,1-2.7,1-2.7s1.5-0.5,2.5,3.8c0.3,1.4,0.4,3.4,0.4,5.3c0,0.1-0.1,6.7-1.2,8.3l-56.7,13.2l-57.4-16.4v-3.3L55.3,112.4
						L55.3,112.4z"/>
				</g>
				<polygon class="st10" points="130.2,97.4 94.2,105.2 107.1,108.4 144.6,100.2 				"/>
			</g>
			<g>
				<path class="st11" d="M112,65.8l-41.5,5v26.6c0,0,11.5,8.1,41.5,8.1s41.5-8.1,41.5-8.1V70.8C153.5,70.8,112,65.8,112,65.8z"/>
				<path class="st12" d="M139.7,69.1L139.7,69.1c0,15.9-12.1,29.3-28,30.8c-4,0.4-8.5,0.6-13.5,0.6c-11.6,0-20.4-1.2-26.9-2.7
					c3.1,1.7,15.2,7.6,40.7,7.6c29.9,0,41.5-8.1,41.5-8.1V70.8L139.7,69.1z"/>
				<polygon class="st13" points="112,48.7 45,65.8 45,68 112,85.1 179,68 179,65.8 				"/>
				<polygon class="st14" points="112,48.7 45,65.8 112,82.9 179,65.8 				"/>
				<polygon class="st15" points="91.6,77.7 118.2,50.3 112,48.7 45,65.8 				"/>
				<path class="st16" d="M162.4,101.6l-0.7,0c0,0,0.1-2.9,0-7.6c0-1.5-0.1-2.2-0.1-2.7c-0.1-1.2-0.1-2,0.1-9.6c0-0.4,0-0.9,0.1-1.4
					c0.2-3,0.4-6.7-1.9-8.6c-1.7-1.5-4.1-1.5-6.5-1.6c-0.9,0-1.8,0-2.6-0.1c-4.3-0.5-8.6-1-12.8-1.4l-3.1-0.3
					c-10.3-1.1-19.1-2-19.2-2l0.1-0.7c0.1,0,8.9,0.9,19.2,2l3.1,0.3c4.2,0.4,8.5,0.9,12.8,1.4c0.8,0.1,1.6,0.1,2.6,0.1
					c2.5,0.1,5,0.1,6.9,1.7c2.5,2.1,2.3,6,2.1,9.1c0,0.5-0.1,0.9-0.1,1.4c-0.2,7.6-0.2,8.4-0.1,9.6c0,0.6,0.1,1.2,0.1,2.8
					C162.5,98.7,162.4,101.6,162.4,101.6L162.4,101.6z"/>
				<path class="st11" d="M116.5,65.8c0,1.1-2,2-4.5,2s-4.5-0.9-4.5-2s2-2,4.5-2S116.5,64.7,116.5,65.8z"/>
				<g>
					<path class="st16" d="M164.3,98.7c0,1.3-1,2.3-2.3,2.3s-2.3-1-2.3-2.3s1-2.3,2.3-2.3S164.3,97.5,164.3,98.7z"/>
					<path class="st17" d="M162,99.9c-1.8,0-2.1-0.3-2.1-0.3v1.8h4.2v-1.8C164.1,99.6,163.8,99.9,162,99.9z"/>
					<g>
						<path class="st16" d="M165.1,102.1c-0.7-0.9-1.9-1.6-3.1-1.6c-1.3,0-2.6,0.7-3.3,1.9c-1.7,2.8-0.4,7.1,1.5,9.5
							c0.1,0.2,0.2,0.3,0.3,0.4c0,0,0.1,0.1,0.1,0.1c0.1,0.1,0.2,0.2,0.2,0.4c0,0,0,0.1,0.1,0.1c0.1,0.1,0.2,0.3,0.2,0.4
							c0,0,0,0,0,0.1c0.1,0.2,0.2,0.3,0.2,0.4c0.3,0.6,0.5,1.1,0.7,1.6c1.1-0.9,1.8-2.1,2.5-3.4c0.7-1.3,1.4-2.6,1.6-4.1
							C166.9,104.1,165.1,102,165.1,102.1L165.1,102.1z"/>
						<path class="st18" d="M160.9,101.3c0,0-0.1,0.1-0.3,0.3c-0.2,0.2-0.4,0.6-0.6,1c-0.1,0.2-0.2,0.4-0.3,0.7
							c-0.1,0.1-0.1,0.3-0.1,0.4s-0.1,0.3-0.1,0.4c0,0.2-0.1,0.3-0.1,0.4c0,0.2,0,0.3-0.1,0.5l0,0.2v0.2l0,0.5
							c0,0.3,0.1,0.6,0.1,0.9c0.1,0.3,0.1,0.6,0.2,0.9c0.1,0.3,0.2,0.6,0.3,0.8c0.1,0.2,0.2,0.5,0.3,0.7c0.1,0.1,0.1,0.2,0.1,0.3
							c0.1,0.1,0.1,0.2,0.2,0.3c0.1,0.2,0.2,0.3,0.3,0.4c0.1,0.2,0.2,0.4,0.2,0.4s-0.1-0.1-0.3-0.3c-0.1-0.1-0.2-0.2-0.3-0.4
							c-0.1-0.1-0.1-0.2-0.2-0.3c-0.1-0.1-0.1-0.2-0.2-0.3c-0.1-0.2-0.3-0.4-0.4-0.7c-0.1-0.3-0.2-0.5-0.4-0.8
							c-0.1-0.3-0.2-0.6-0.3-0.9c-0.1-0.3-0.1-0.7-0.1-1v-0.5l0-0.2l0-0.2c0-0.2,0.1-0.3,0.1-0.5c0-0.2,0.1-0.3,0.1-0.5
							c0-0.2,0.1-0.3,0.2-0.4c0.1-0.1,0.1-0.3,0.2-0.4c0.1-0.2,0.3-0.5,0.4-0.7c0.1-0.2,0.3-0.4,0.4-0.6c0.1-0.2,0.2-0.3,0.4-0.4
							C160.8,101.3,160.9,101.2,160.9,101.3L160.9,101.3z"/>
						<path class="st18" d="M161.6,101.3c0,0,0,0.2-0.1,0.5c0,0.2-0.1,0.3-0.1,0.5c0,0.2-0.1,0.4-0.1,0.7c-0.1,0.5-0.2,1.1-0.2,1.8
							c0,0.3-0.1,0.7-0.1,1c0,0.3,0,0.7,0,1c0,0.3,0,0.7,0,1c0,0.3,0.1,0.7,0.1,1c0.1,0.3,0.1,0.6,0.2,0.9c0.1,0.3,0.1,0.6,0.2,0.8
							c0.1,0.2,0.2,0.5,0.2,0.7c0.1,0.2,0.2,0.3,0.2,0.5c0.1,0.3,0.2,0.4,0.2,0.4s-0.1-0.1-0.3-0.4c-0.1-0.1-0.2-0.3-0.3-0.5
							s-0.2-0.4-0.3-0.7c-0.1-0.2-0.2-0.5-0.3-0.8c-0.1-0.3-0.1-0.6-0.2-0.9c-0.1-0.3-0.1-0.7-0.1-1c0-0.3,0-0.7,0-1.1
							c0-0.3,0-0.7,0-1.1c0-0.3,0.1-0.7,0.1-1c0-0.3,0.1-0.6,0.1-0.9c0.1-0.3,0.1-0.6,0.2-0.8c0.1-0.5,0.2-0.9,0.3-1.2
							S161.6,101.2,161.6,101.3L161.6,101.3z"/>
						<path class="st18" d="M162.2,102.5c0,0,0.1,0.2,0.1,0.4c0.1,0.3,0.2,0.7,0.3,1.2c0.1,0.2,0.1,0.5,0.1,0.8
							c0,0.3,0.1,0.6,0.1,0.9c0.1,0.6,0.1,1.3,0.1,2c0,0.3,0,0.7,0,1s0,0.7,0,1c0,0.3-0.1,0.6-0.1,0.9s-0.1,0.6-0.1,0.8
							c-0.1,0.5-0.1,0.9-0.2,1.2c-0.1,0.3-0.1,0.4-0.1,0.4s0-0.2,0-0.5c0-0.2,0-0.3,0-0.5c0-0.2,0-0.4,0-0.7c0-0.2,0-0.5,0-0.8
							s0-0.6,0-0.9c0-0.3,0-0.6,0-1c0-0.3,0-0.7,0-1c0-0.7-0.1-1.3-0.1-2c-0.1-0.6-0.1-1.2-0.2-1.7s-0.1-0.9-0.2-1.2
							C162.2,102.6,162.2,102.4,162.2,102.5L162.2,102.5z"/>
						<path class="st18" d="M162.5,101.1c0,0,0.1,0.1,0.2,0.4s0.3,0.6,0.5,1c0.2,0.4,0.4,1,0.5,1.5c0.1,0.3,0.2,0.6,0.2,0.9
							c0.1,0.3,0.1,0.6,0.2,0.9c0.1,0.3,0.1,0.6,0.1,0.9c0,0.3,0,0.6,0,0.9c0,0.3,0,0.6-0.1,0.9c0,0.1,0,0.3,0,0.4
							c0,0.1,0,0.2-0.1,0.4c0,0.2-0.1,0.4-0.1,0.6c-0.1,0.2-0.1,0.3-0.1,0.5c-0.1,0.3-0.1,0.4-0.1,0.4s0-0.2,0.1-0.4
							c0-0.1,0-0.3,0.1-0.5c0-0.2,0-0.4,0.1-0.6c0-0.1,0-0.2,0-0.4c0-0.1,0-0.3,0-0.4c0-0.3,0-0.6,0-0.8c0-0.3,0-0.6-0.1-0.9
							c0-0.3-0.1-0.6-0.1-0.9c0-0.3-0.1-0.6-0.1-0.9c-0.1-0.3-0.1-0.6-0.2-0.9c-0.1-0.3-0.1-0.6-0.2-0.8c-0.1-0.3-0.1-0.5-0.2-0.7
							c-0.1-0.4-0.3-0.8-0.4-1.1S162.6,101.1,162.5,101.1L162.5,101.1z"/>
						<path class="st18" d="M164.3,102.5c0,0,0.3,0.6,0.6,1.5c0.1,0.2,0.1,0.5,0.2,0.8c0.1,0.3,0.1,0.6,0.2,0.9
							c0.1,0.3,0.1,0.6,0.1,0.9c0,0.3,0,0.7,0,1c0,0.3,0,0.7-0.1,1c0,0.3-0.1,0.6-0.2,0.9c-0.1,0.3-0.1,0.6-0.2,0.8
							c-0.1,0.3-0.2,0.5-0.3,0.7c-0.1,0.2-0.2,0.4-0.3,0.6c-0.1,0.2-0.2,0.3-0.3,0.4c-0.2,0.2-0.3,0.4-0.3,0.4s0.1-0.1,0.2-0.4
							c0.1-0.1,0.1-0.3,0.2-0.4c0.1-0.2,0.1-0.4,0.2-0.6c0.1-0.2,0.1-0.5,0.2-0.7c0.1-0.3,0.1-0.6,0.2-0.8c0.1-0.3,0.1-0.6,0.1-0.9
							c0-0.3,0-0.6,0.1-0.9c0-0.3,0-0.6,0-0.9c0-0.3,0-0.6-0.1-0.9c0-0.3-0.1-0.6-0.1-0.9c0-0.3-0.1-0.5-0.1-0.8
							c-0.1-0.5-0.2-0.9-0.2-1.1S164.3,102.5,164.3,102.5L164.3,102.5z"/>
					</g>
				</g>
			</g>
			<g>
				<g>
					<path class="st19" d="M146.7,174.7c0,0-8.8-2-13.4-7.8s-10.9-7.9-10.9-7.9l3.4-1.5c0.7-0.3,3.1,0.8,3.7,1
						c3.8,1.5,6.6,4.6,10.4,6.2c2.8,1.1,6.9,2.9,10,2C150,166.8,150.8,172.4,146.7,174.7L146.7,174.7z"/>
					<path class="st19" d="M131.3,173.2c0,0-0.1-7.1-3.7-11.6c-3.6-4.5-4.2-9.7-4.2-9.7l-1.8,2.4c-0.4,0.5,0.1,2.5,0.2,3
						c0.5,3.2,2.4,5.9,3,9.1c0.4,2.4,1.1,5.8-0.2,8C124.6,174.4,128.8,175.9,131.3,173.2L131.3,173.2z"/>
				</g>
				<g>
					<path class="st20" d="M74.4,159.9c0,0,2.2,6.8,8.9,16c-0.1-0.4,12.7-6.6,13.6-7.1c7.5-3.8,15.1-7,23.2-9.2
						c2.8-0.8,5.7-1.5,8.5-2.3c2.8-0.8,5.6-1.6,8.4-2.3c7.3-1.8,19.4-2.4,19.4-2.4l-4.6-3.4l-61.3,8.2l-7-9L74.4,159.9L74.4,159.9z"
						/>
					<path class="st21" d="M153.7,138.1c-1.6-1-3.2-1.1-3.2-1.1s-27.3,4-38,5.3c-10.7,1.3-34.8,3-34.8,3l5.6,23.8
						c2.5-1.3,31-9.7,39.6-12.3c8.6-2.6,31.3-7.1,31.3-7.1c0.6-0.4,1-1,1.4-1.6C157.4,144.6,157.1,140.1,153.7,138.1L153.7,138.1z"
						/>
					<path class="st22" d="M156.6,144.9c-0.2,0.3-0.5,0.6-0.9,0.8c0,0-23.9,4.7-32.8,7.4c-8.3,2.5-34.6,10.1-40.5,12.3l0.9,3.7
						c2.5-1.3,31-9.7,39.6-12.3c8.6-2.6,31.3-7.1,31.3-7.1c0.6-0.4,1-1,1.4-1.6C156.1,147.1,156.4,146,156.6,144.9L156.6,144.9z"/>
					<path class="st23" d="M83,169.2c-2.4,0.6-7.3-4-9-10.6s0.6-12.6,3-13.2c2.4-0.6,5.7,4.1,7.3,10.7S85.4,168.6,83,169.2L83,169.2
						z"/>
					<g>
						<path class="st24" d="M85.1,160.1c-0.1,0-0.2,0.1-0.3,0.1c-1.7,0-3-4.9-3-4.9l1.6-2.5c-0.6-1.5-1.2-2.9-1.9-4h-0.1
							c0,0-2.6,0.8-3,5c-0.1,0.7-0.1,1.4,0.1,2.1l0,0c0,0,0.3,2.4,1.5,4.6l0,0c2,4,4.3,4.2,5.3,4C85.3,163.1,85.3,161.7,85.1,160.1
							L85.1,160.1z"/>
						<path class="st25" d="M84.8,160.2c0.1,0,0.2,0,0.3-0.1c-0.2-1.3-0.4-2.6-0.7-4c-0.3-1.2-0.7-2.3-1-3.4l-1.6,2.5
							C81.7,155.2,83.1,160.2,84.8,160.2L84.8,160.2z"/>
					</g>
					<path class="st26" d="M122.6,140.8c-2.6-0.4-5.1,0.9-5.1,0.9s9.1,5.9,5,17.4c2.6,0.2,5.3-1.4,5.3-1.4
						C131.8,146.2,122.6,140.8,122.6,140.8z"/>
				</g>
			</g>
		</g>
	</g>
</g>
</svg>
